<svg height="210mm" viewBox="0 0 1052.4 744.1" width="297mm" xmlns="http://www.w3.org/2000/svg">
 <g fill="none">
  <g stroke-linecap="round" transform="translate(0 -308.26772)">
   <path d="m57.6 742.2h948.8" stroke="#969696" stroke-width="1.875"/>
   <g stroke="#000" stroke-dasharray="3.75 7.5" stroke-miterlimit="2" stroke-width=".9375">
    <path d="m58.3 844.1h948.8"/>
    <path d="m58.3 641.8h948.8"/>
    <path d="m58.3 540.6h948.8"/>
   </g>
  </g>
  <g stroke="#000" stroke-linejoin="round" stroke-width="5.625">
   <path d="m340.9 391.6c21.5-2.4 35.6-6.2 51.4-19.8 12.8-11.2 18.6-26.1 16.7-30.9-2.8-7.3-34.7-8.6-58.5 30.7-26.3 43.1-18.8 59.4-2.7 59.3 5.3-.6 10.7-2.2 15.8-4.4" stroke-linecap="round"/>
   <path d="m363.8 426.4c5.3-3.5 7.8-6 7.8-6l86.4-82.6 21.4 46.2 40.9-35.4" stroke-linecap="round"/>
   <path d="m460.7 336.5 20.3 42.2" stroke-linecap="square"/>
   <path d="m463.3 335.2 20.5 42.3" stroke-linecap="square"/>
   <g stroke-linecap="round">
    <path d="m520.4 348.6c24.6-22.7 46.5-44 72.2-70.3 40.5-41.5 76.4-81.3 56.8-88-14.6-5-40.3 8.9-87.4 86.8-44 76.1-42 105.6-24.9 107.4 6.3.7 18.1-2 27.3-7.4 5.8-3.4 15.5-9.9 25.7-23"/>
    <path d="m590.1 354.1c5.7-3.7 100.3-162.5 100.3-162.5"/>
    <path d="m739.1 193.5c-35.9 22.6-66.9 56.8-48.6-1.9"/>
   </g>
  </g>
 </g>
</svg>
