<svg height="210mm" viewBox="0 0 1052.4 744.1" width="297mm" xmlns="http://www.w3.org/2000/svg">
 <g fill="none" stroke-linecap="round">
  <g transform="translate(0 -308.26772)">
   <path d="m57.6 742.2h948.8" stroke="#969696" stroke-width="1.875"/>
   <g stroke="#000" stroke-dasharray="3.75 7.5" stroke-miterlimit="2" stroke-width=".9375">
    <path d="m58.3 844.1h948.8"/>
    <path d="m58.3 641.8h948.8"/>
    <path d="m58.3 540.6h948.8"/>
   </g>
  </g>
  <g stroke="#000" stroke-linejoin="round" stroke-width="5.625">
   <path d="m592.1 371.5s41.5-35 55.1-35.4c17.6.2 14.7 36 37.2 36.4 10.7.7 17.5-6 27.6-13.6"/>
   <path d="m372 421.9s212.9-131.7 237.3-140.3c21-5.4 35 2.5 12.3 40.5l-29.5 49.4"/>
   <path d="m712 358.9c13.2-10.6 26.7-22.2 40.9-22.8 20.9-.8 17.2 34.2 38.6 35.9 6.9-.1 13.9-6.3 19.6-13.2"/>
   <path d="m258.8 431.1s44.6-32.4 61.8-29.2c15.1 2.8 16 36.3 36.1 27.7 2.8-1.2 6.5-2.1 15.3-7.8"/>
   <path d="m302.3 406c5.4-2.4 18.6-2.2 26.5 15 5.6 12.2 13.9 9.5 20.5 9.9"/>
   <path d="m316.9 404c6.7 5.9 6.3.5 21.2 23.1"/>
  </g>
 </g>
</svg>
