<svg height="210mm" viewBox="0 0 1052.4 744.1" width="297mm" xmlns="http://www.w3.org/2000/svg">
 <g fill="none" stroke-linecap="round" transform="translate(0 -308.26772)">
  <path d="m57.6 742.2h948.8" stroke="#969696" stroke-width="1.875"/>
  <g stroke="#000" stroke-dasharray="3.75 7.5" stroke-miterlimit="2" stroke-width=".9375">
   <path d="m58.3 844.1h948.8"/>
   <path d="m58.3 641.8h948.8"/>
   <path d="m58.3 540.6h948.8"/>
  </g>
 </g>
 <path d="m420.1 322.2a11.6 11.6 0 0 1 -11.6 11.6 11.6 11.6 0 0 1 -11.6-11.6 11.6 11.6 0 0 1 11.6-11.7 11.6 11.6 0 0 1 11.7 11.6"/>
 <g fill="none" stroke="#000" stroke-linecap="round" stroke-width="5.625">
  <path d="m323.2 383.7-61.8 47.3"/>
  <g stroke-linejoin="round">
   <path d="m539.2 335.6c-55.4 14.5-101.9 132.4-22.6 83.6 5.7-4.4 7.5-5.7 15-13.2"/>
   <path d="m531.8 405.5c11.6-11.1 32.7-43.1 43.2-68.9"/>
  </g>
 </g>
 <path d="m823.7 322.9a11.6 11.6 0 0 1 -11.6 11.6 11.6 11.6 0 0 1 -11.6-11.6 11.6 11.6 0 0 1 11.6-11.7 11.6 11.6 0 0 1 11.7 11.6"/>
 <path d="m726.8 384.4-61.8 47.3" fill="none" stroke="#000" stroke-linecap="round" stroke-width="5.625"/>
</svg>
