<svg height="210mm" viewBox="0 0 1052.4 744.1" width="297mm" xmlns="http://www.w3.org/2000/svg">
 <g fill="none" stroke-linecap="round">
  <g transform="translate(0 -308.26772)">
   <path d="m57.6 742.2h948.8" stroke="#969696" stroke-width="1.875"/>
   <g stroke="#000" stroke-dasharray="3.75 7.5" stroke-miterlimit="2" stroke-width=".9375">
    <path d="m58.3 844.1h948.8"/>
    <path d="m58.3 641.8h948.8"/>
    <path d="m58.3 540.6h948.8"/>
   </g>
  </g>
  <path d="m280.1 383.7 17.5 47.4 197-93.7" stroke="#060000" stroke-linejoin="round" stroke-width="5.625"/>
  <path d="m484.8 343.2 167.7-154.9" stroke="#060000" stroke-linejoin="round" stroke-width="5.625"/>
  <g stroke="#000">
   <g stroke-linejoin="round" stroke-width="5.625">
    <path d="m515.7 342.8a19.4 24.5 38 0 1 -7.1 32.1 19.4 24.5 38 0 1 -29.5-.4 19.4 24.5 38 0 1 7.1-32.1 19.4 24.5 38 0 1 29.5.4z"/>
    <path d="m686.4 305.7c-41.8 41.1-75.3 77.4-112 77.3-62.8.5 24.3-139.6 68.4-186.3 4.7-5 11.2-10.7 18.9-11.9"/>
    <ellipse cx="479.7948" cy="636.3147" rx="62.130169" ry="44.633743" transform="matrix(.88109295 -.47294313 .47294313 .88109295 0 0)"/>
   </g>
   <path d="m780.4 311.8c-13.8 27.9-38.1 52.4-66.8 70.7" stroke-width="5.385754"/>
   <path d="m781.6 320.8c-15.9 21.3-33.1 41.5-54 58.5" stroke-width="5.385754"/>
   <path d="m780.6 327.2c-14.3 21.6-19.7 29.6-41.7 46.5" stroke-width="7.181006"/>
   <g stroke-width="3.590503">
    <path d="m729.3 370.4c-10.1 9.6-24.3 12.2-31.1 10.7"/>
    <path d="m772.3 297.9c2.2 2.5 8.7 12.2 1.3 24.5"/>
   </g>
  </g>
 </g>
</svg>
