<svg height="210mm" viewBox="0 0 1052.4 744.1" width="297mm" xmlns="http://www.w3.org/2000/svg">
 <g fill="none" stroke-linecap="round">
  <g transform="translate(0 -308.26772)">
   <path d="m57.6 742.2h948.8" stroke="#969696" stroke-width="1.875"/>
   <g stroke="#000" stroke-dasharray="3.75 7.5" stroke-miterlimit="2" stroke-width=".9375">
    <path d="m58.3 844.1h948.8"/>
    <path d="m58.3 641.8h948.8"/>
    <path d="m58.3 540.6h948.8"/>
   </g>
  </g>
  <g stroke-linejoin="round" stroke-width="5.625">
   <path d="m457 368.1c-48.5 34.3-118.8 84.4-135.7 97.6-32.5 23.2-40.2 52.7-38 60 .9 3 16.3 22.9 59.8-38.1 26.9-36.9 54.6-73.4 69.3-116.4 15.5-30.1-1.4-56.7-44.4-11.6" stroke="#060000"/>
   <path d="m313.4 335.3-39 72.4c-8.4 15.5 5 26.1 21.5 22.2 2.8-.7 9.6-2.1 14-6 29.7-26 48.8-54 58.1-64.3" stroke="#010000"/>
   <g stroke="#000">
    <path d="m457 368.1c38.7-27.4 70-54.3 88.4-73.1"/>
    <path d="m545.4 295c20-22.5 31.2-47.9 27.7-57.2-5.5-14.4-40.3 8.9-87.4 86.8-69.6 120.2-36 123.1 7.3 84"/>
    <path d="m492.9 408.6c18.1-17.8 92.1-103.4 115.5-136.1 3.7-5.2 10.5-12.1 17.9-19.1"/>
    <path d="m626.3 253.4c5.6-4.4 10-7.3 14-9.5 4.4-2.4 8.4-4.1 13-6.1 21.1-8.9 36.2 1.9 13.1 43.5l-28 50.5"/>
    <path d="m638.5 331.7 54.9-35.8"/>
    <path d="m700.1 434.2c28.5-22.6 35.5-31.4 39-55.7 1.8-12.5-2.6-28-12.8-37.6-5-4.7-11-8.4-17-11.7-8.5-4.8-11.8-5.8-17.2-11.5-6-6.3-5-21.2 9.8-27.5"/>
   </g>
  </g>
 </g>
</svg>
