<svg height="210mm" viewBox="0 0 1052.4 744.1" width="297mm" xmlns="http://www.w3.org/2000/svg">
 <g fill="none" stroke-linecap="round">
  <g transform="translate(0 -308.26772)">
   <path d="m57.6 742.2h948.8" stroke="#969696" stroke-width="1.875"/>
   <g stroke="#000" stroke-dasharray="3.75 7.5" stroke-miterlimit="2" stroke-width=".9375">
    <path d="m58.3 844.1h948.8"/>
    <path d="m58.3 641.8h948.8"/>
    <path d="m58.3 540.6h948.8"/>
   </g>
  </g>
  <g stroke="#000" stroke-linejoin="round" stroke-width="5.625">
   <path d="m393.5 410.1c-37.9 25.5-77.6 53.6-90.6 74.4-12.2 19.6-18.8 37.6-14.7 45 2.9 5.3 34.7 12.4 62.3-63.3 15.8-47.4 16.5-113.3 70.8-131.6"/>
   <path d="m393.5 410.1 36.7-26.1 24 48"/>
   <path d="m454.3 431.5 32.8-46.5"/>
   <path d="m735.6 419.6c-116.4 7.7-204.1 14.5-243.3 10.1-10.8-1.2-14-16.5-5.2-44.7"/>
  </g>
 </g>
</svg>
