<svg height="210mm" viewBox="0 0 1052.4 744.1" width="297mm" xmlns="http://www.w3.org/2000/svg">
 <g fill="none" stroke-linecap="round">
  <g transform="translate(0 -308.26772)">
   <path d="m57.6 742.2h948.8" stroke="#969696" stroke-width="1.875"/>
   <g stroke="#000" stroke-dasharray="3.75 7.5" stroke-miterlimit="2" stroke-width=".9375">
    <path d="m58.3 844.1h948.8"/>
    <path d="m58.3 641.8h948.8"/>
    <path d="m58.3 540.6h948.8"/>
   </g>
  </g>
  <g stroke="#000" stroke-linejoin="round" stroke-width="5.625">
   <path d="m366.9 336.2c-45.5 11.9-85.4 97.2-52.6 94.5 5.7-.5 9.6 2 22.3-3.8"/>
   <path d="m337.8 426.5c9.6-3.6 21.7-8.8 28.8-12.5 11.2-5.8 45-17.8 45-17.8"/>
   <path d="m411.6 396.3c9.7-3.2 20.1-5.3 30.9-5.6 48.5-1.3 61.6 39.3 96 39.5 17.4.1 31.3-7.7 41.8-15.8"/>
   <path d="m580.3 414.4c4.5-2.8 30-24.1 37.3-31.2"/>
   <path d="m617.6 383.2 21.4 48.4"/>
   <path d="m639 431.6c10.2-5.8 20.2-9 25.5-10.4 11.2-3 25.5-3.1 24.1 4.7 0 .2.1.4.1.7 0 1.4-.6 2.7-2.1 3.8-2.9 2.2-6.9.8-8.5-.4-3.3-.5-1-11.9 0-10.6 1.7 2.4 0 0 8.8 2.8.2.1.3.3.4.5.2.2.4.7.6.9.3.5.4.9.7 1.6"/>
   <path d="m688.3 425.8a5.5 1.8 0 0 1 -5.5 1.8 5.5 1.8 0 0 1 -5.5-1.8 5.5 1.8 0 0 1 5.4-1.8 5.5 1.8 0 0 1 5.5 1.8h-5.5z"/>
  </g>
 </g>
</svg>
