<svg height="210mm" viewBox="0 0 1052.4 744.1" width="297mm" xmlns="http://www.w3.org/2000/svg">
 <g fill="none" stroke-linecap="round">
  <g transform="translate(0 -308.26772)">
   <path d="m57.6 742.2h948.8" stroke="#969696" stroke-width="1.875"/>
   <g stroke="#000" stroke-dasharray="3.75 7.5" stroke-miterlimit="2" stroke-width=".9375">
    <path d="m58.3 844.1h948.8"/>
    <path d="m58.3 641.8h948.8"/>
    <path d="m58.3 540.6h948.8"/>
   </g>
  </g>
  <g stroke="#000">
   <g stroke-linejoin="round" stroke-width="5.625">
    <path d="m372.1 335.3-39.4 73.1c-8.4 15.5 5 26.1 21.5 22.2 2.8-.7 9.1-2.7 14-5.9 5.5-3.6 13.2-9.7 18.1-14.2"/>
    <path d="m386.3 410.5 29.4-28 34.5 48.8"/>
    <path d="m415.7 382.5 25.1 49"/>
    <path d="m425.2 382.6 25 48.8"/>
    <path d="m421.3 382.4 25.1 49"/>
   </g>
   <path d="m416.1 381.5h9" stroke-width="3.75"/>
   <path d="m440.7 432.4h9" stroke-width="3.75"/>
   <g stroke-width="5.625">
    <path d="m450.2 431.4c50.9-27.8 115.3-78.7 107.1-92.6-3.9-6.7-25.5-3.8-49.3 35.5-24.9 41.9-23 57.5-11.2 57.4 8.1-.1 20.9-7.6 32.8-19 19.3-19.3 40.4-46.5 62.6-65.8 23.7-19.2 60.9-14.6 37.5 14.4-27.4 33.8-45.5 50.2-39.4 63.9 4.2 9.5 21.6 5 36.5-3.7l67.7-39.6" stroke-linejoin="round"/>
    <path d="m630.5 338.5c14.5 10.1 4.3 27.8-12.4 44.2-14.4 14-23.4 26.4-29.5 38.7"/>
    <path d="m630.5 338.5c.8-1.1 3.9 6.1.7 14.2-3.2 8.4-12.8 17.8-18.3 22.9-10.8 10.1-30.6 29-24.3 45.7"/>
   </g>
   <g stroke-width="2.8125">
    <path d="m621.9 336.8c11.3 1.3 8.8 6.5 9.1 11"/>
    <path d="m593.7 414.1c-2.7 4.9-3.8 12 2.3 14.5"/>
    <path d="m586 415.4c-.1 5.7 2.9 11.5 4.9 13.1"/>
   </g>
  </g>
 </g>
</svg>
