<svg height="210mm" viewBox="0 0 1052.4 744.1" width="297mm" xmlns="http://www.w3.org/2000/svg">
 <g fill="none" stroke-linecap="round">
  <g transform="translate(0 -308.26772)">
   <path d="m57.6 742.2h948.8" stroke="#969696" stroke-width="1.875"/>
   <g stroke="#000" stroke-dasharray="3.75 7.5" stroke-miterlimit="2" stroke-width=".9375">
    <path d="m58.3 844.1h948.8"/>
    <path d="m58.3 641.8h948.8"/>
    <path d="m58.3 540.6h948.8"/>
   </g>
  </g>
  <g stroke="#000">
   <g stroke-linejoin="round" stroke-width="5.625">
    <path d="m279.3 430.5s303.1-80 356.5-128"/>
    <path d="m635.8 302.5c52.6-48.7 107.8-111.9 84.7-119.9-14.6-5-40.2 8.9-87.4 86.8-60.3 104.2-36 118.5-1.8 98.4 2.3-1.4 18.6-11.5 44.4-31.9"/>
    <path d="m330.9 257.1c10.4-13.7 19.3-18.5 28.2-21.8 2.3-.8 4.5-1.4 6.6-1.7 14.7-1.8 22.5 10.8 3.6 43l-90 153.8"/>
    <path d="m727.8 360.9c3-4.3 36-55.1 42.2-60.1 23.7-19.2 60.9-14.6 37.5 14.4-27.4 33.8-46.8 50.9-39.4 63.9 4.5 8 25.6 6.5 36.5-3.7l15.7-14.7"/>
    <path d="m675.7 335.9 33.3 47.9 18.9-23"/>
    <path d="m675.7 335.9 24 48"/>
    <path d="m685.1 336 23.8 47.9"/>
    <path d="m681.2 335.8 24 48"/>
   </g>
   <g stroke-width="3.75">
    <path d="m676 334.9h9"/>
    <path d="m699.5 384.8h9"/>
   </g>
  </g>
 </g>
</svg>
