<svg height="210mm" viewBox="0 0 1052.4 744.1" width="297mm" xmlns="http://www.w3.org/2000/svg">
 <g fill="none" stroke-linecap="round">
  <g transform="translate(0 -308.26772)">
   <path d="m57.6 742.2h948.8" stroke="#969696" stroke-width="1.875"/>
   <g stroke="#000" stroke-dasharray="3.75 7.5" stroke-miterlimit="2" stroke-width=".9375">
    <path d="m58.3 844.1h948.8"/>
    <path d="m58.3 641.8h948.8"/>
    <path d="m58.3 540.6h948.8"/>
   </g>
  </g>
  <g stroke="#000" stroke-width="5.625">
   <g stroke-linejoin="round">
    <path d="m573.8 413.4 30-26.3-47.8 95.6"/>
    <path d="m549.3 361.6c-27.4 33.8-47.2 52.6-39.4 63.9 9 13.2 37.6 9.7 64-12.1"/>
    <path d="m477.8 390.2c4.6-6.9 18.9-25.3 28.3-36.5 4.6-5.4 8.4-8.6 8.7-8.9 18.8-17.3 56.9-11.1 34.4 16.7"/>
    <path d="m477.8 390.2c-48.2 61.4-98.5 47.1-84.7-.3"/>
   </g>
   <path d="m698.4 284.7-84.4 165.5"/>
   <g stroke-linejoin="round">
    <ellipse cx="219.25673" cy="750.88062" rx="25.728558" ry="20.371416" transform="matrix(.79083574 -.61202846 .61202846 .79083574 0 0)"/>
    <path d="m556.1 482.7 69-42.2"/>
   </g>
  </g>
 </g>
</svg>
