<svg height="210mm" viewBox="0 0 1052.4 744.1" width="297mm" xmlns="http://www.w3.org/2000/svg" xmlns:xlink="http://www.w3.org/1999/xlink">
 <linearGradient id="a" gradientUnits="userSpaceOnUse" x1="6525.5449" x2="6149.6719" y1="36928.09" y2="37482.008">
  <stop offset="0"/>
  <stop offset="1" stop-opacity="0"/>
 </linearGradient>
 <g stroke-linecap="round">
  <g fill="none" transform="translate(0 -308.26772)">
   <path d="m57.6 742.2h948.8" stroke="#969696" stroke-width="1.875"/>
   <g stroke="#000" stroke-dasharray="3.75 7.5" stroke-miterlimit="2" stroke-width=".9375">
    <path d="m58.3 844.1h948.8"/>
    <path d="m58.3 641.8h948.8"/>
    <path d="m58.3 540.6h948.8"/>
   </g>
  </g>
  <g stroke="#000">
   <g fill="none" stroke-linejoin="round">
    <path d="m673.4 401.6c2.8-1.2 8-2.1 13.1-.7 6.4 1.8 11.8 7.8 17.8 18.6 4.8 8.7 10.3 11.2 16 11.5 3 .1 7.6 0 10.4 0" stroke-width="5.625"/>
    <path d="m690.3 399.7c7.8 4.9 8.8 2 26.1 28.6" stroke-width="6.587558"/>
    <path d="m576.5 354.5c8.1-7.6 17.5-17.9 32-19.7 3.3-.4 6.4-.1 9 .9 2.8 1 5 2.6 6.6 4.7 3.7 5.2 3.1 13.5-5.1 23.4-24.4 29.4-45.3 43.7-38 59.3 2.6 5.6 8.4 7.9 18.1 7.7 29.3-.6 76.5-37.7 96.7-34 20.2 3.8 18.7 54.1 53.5 25.2" stroke-width="5.624999"/>
    <path d="m387 431.2c22.5-8.9 52.2-48.9 60.4-86.1s38.8-97.2 73.8-110.6" stroke-width="5.625"/>
   </g>
   <g stroke-width="5.625">
    <g fill="url(#a)" fill-rule="evenodd" transform="translate(-5165.7086 -36963.672)">
     <path d="m5438.4 37160.80000000001-62.7 322.7"/>
     <g stroke-linejoin="round">
      <path d="m5438.4 37160.80000000001h58.1"/>
      <path d="m5375.7 37483.5h58.1"/>
     </g>
    </g>
    <g fill="none" transform="translate(-5273.4318 -36963.672)">
     <path d="m6212.4 37159.30000000001-62.7 322.7"/>
     <g stroke-linejoin="round">
      <path d="m6154.2 37159.30000000001h58.1"/>
      <path d="m6091.5 37482h58.1"/>
     </g>
    </g>
    <path d="m428.9 492.6h-32.8" fill="none"/>
   </g>
  </g>
 </g>
</svg>
