<svg height="210mm" viewBox="0 0 1052.4 744.1" width="297mm" xmlns="http://www.w3.org/2000/svg">
 <g fill="none" stroke-linecap="round">
  <g transform="translate(0 -308.26772)">
   <path d="m57.6 742.2h948.8" stroke="#969696" stroke-width="1.875"/>
   <g stroke="#000" stroke-dasharray="3.75 7.5" stroke-miterlimit="2" stroke-width=".9375">
    <path d="m58.3 844.1h948.8"/>
    <path d="m58.3 641.8h948.8"/>
    <path d="m58.3 540.6h948.8"/>
   </g>
  </g>
  <g stroke="#000" stroke-linejoin="round" stroke-width="5.625">
   <path d="m347.1 431.1c7.4 0 17.4-1.7 31.7-3.9 177.2-28 182.9-28.1 200.2-27.2 22.1 3.3 16.6 31.1 42 31 19.1-.1 50.9-31.1 73.2-31.4 17.9-.3 16.9 31.4 33.7 31.3 7.7 0 13.9-6 19.3-10.2"/>
   <ellipse cx="545.03064" cy="71.297462" rx="4.609393" ry="6.862875" transform="matrix(.72846687 .68508103 -.68508103 .72846687 0 0)"/>
  </g>
 </g>
</svg>
