<svg height="210mm" viewBox="0 0 1052.4 744.1" width="297mm" xmlns="http://www.w3.org/2000/svg">
 <g fill="none" stroke-linecap="round">
  <g transform="translate(0 -308.26772)">
   <path d="m57.6 742.2h948.8" stroke="#969696" stroke-width="1.875"/>
   <g stroke="#000" stroke-dasharray="3.75 7.5" stroke-miterlimit="2" stroke-width=".9375">
    <path d="m58.3 844.1h948.8"/>
    <path d="m58.3 641.8h948.8"/>
    <path d="m58.3 540.6h948.8"/>
   </g>
  </g>
  <g stroke="#000" stroke-linejoin="round">
   <path d="m467.4 331.8c54.3-11 95.5-79.5 89.2-96.2-5.5-14.4-40.2 8.9-87.4 86.8l-61.6 109.7 64.6-61.4" stroke-width="5.625"/>
   <path d="m531.4 377.1c3 .3 9.7-4.2 11-5 48.9-28 71.8-129.3 9.4-73.8-2.3 2.1-77.1 70-79.7 72.5" stroke-width="5.625"/>
   <g stroke-width="5.638243">
    <path d="m583.5 285.6c2.3 32.7-17.1 62.2-38.1 82.5"/>
    <path d="m586.1 287.9c5.2 34.8-19.9 69.4-45 83.3"/>
    <path d="m578.8 284.3c3.6 34.1-21.2 69-37.7 86.9"/>
   </g>
   <path d="m547.7 361.5c-5.5 6.9-8.3 10.7-14.3 14.1" stroke-width="2.819121"/>
   <g stroke-width="5.625">
    <path d="m531.4 377.1c-48.8 3.8 91.8-40.7 91.8-40.7"/>
    <path d="m623.2 336.4 18.2 46"/>
   </g>
  </g>
 </g>
</svg>
