<svg height="210mm" viewBox="0 0 1052.4 744.1" width="297mm" xmlns="http://www.w3.org/2000/svg">
 <g fill="none" stroke-linecap="round">
  <g transform="translate(0 -308.26772)">
   <path d="m57.6 742.2h948.8" stroke="#969696" stroke-width="1.875"/>
   <g stroke="#000" stroke-dasharray="3.75 7.5" stroke-miterlimit="2" stroke-width=".9375">
    <path d="m58.3 844.1h948.8"/>
    <path d="m58.3 641.8h948.8"/>
    <path d="m58.3 540.6h948.8"/>
   </g>
  </g>
  <g stroke="#000">
   <g stroke-linejoin="round">
    <g stroke-width="5.625">
     <path d="m574.3 385.9-23.6 45.3"/>
     <path d="m626.4 359c13.1-13.3 24.6-21.7 35-22.4 2.7-.3 5.1-.1 7.1.7 7.8 3.3 10.1 15.8-1.5 40.6l-25 53.3"/>
     <path d="m641.9 431.2c42-50.3 72.1-93.1 96.2-94.8 2.7-.3 5.1-.1 7.1.7 7.8 3.3 10.1 15.8-1.5 40.6l-25 53.3"/>
    </g>
    <g stroke-width="5.624999">
     <path d="m718.6 431.1c10.9-9.8 30.6-30.7 47.4-31 17.4-.3 18.8 31.1 40.2 31 19.4 0 27.5-7.4 80.1-47.7l22.3 47.6"/>
     <path d="m208.3 384.9 22.1 46.2"/>
     <path d="m215.5 384.8 22.1 46.2"/>
    </g>
   </g>
   <g stroke-width="5.625">
    <path d="m208.3 384.9 7.2-.1"/>
    <path d="m212.3 386.3 21 43.9" stroke-linejoin="round"/>
    <path d="m230.4 431.2 7.2-.1"/>
   </g>
   <g stroke-linejoin="round">
    <path d="m237.6 431.1c25-11.8 60.2-31.5 77.8-32.4 16.8-.7 22.7 32.6 34.2 32.2 7.5-.2 13.1-6.2 18.3-10.8" stroke-width="5.624999"/>
    <g stroke-width="5.625">
     <path d="m76.3 431.2s107.1-100.6 140.7-134.2c30.2-30.2 49.4-56.4 34.3-61.6-14.6-5-42.6 12.2-89.8 90.1-46 79.4-42.2 106.7-22.8 105.8 8.8-.4 25.5-8.9 41.3-22.1 13.8-11.5 28.2-24.3 28.2-24.3"/>
     <path d="m55.3 387.3 21 43.9"/>
     <path d="m446.2 384.4c41.5 3.1 62-37.2 58.7-45.9-2.9-7.5-30.4-4.4-55.1 36.4-47.4 77.5-2.2 60.8 29.8 33.9"/>
     <path d="m1002.8 355.3c-10 13.3-19.5 23-35 23.8-13.4.6-20.5-11.1-4.8-29.3 21.5-24.7 33.1-38.7 40.4-48.2 7.3-9.9 3-25.3-12.8-25.8-16 0-26.8 12.7-36.4 25.2"/>
    </g>
    <ellipse cx="-983.67651" cy="366.81128" rx="3.366329" ry="5.01209" stroke-width="8.900768" transform="matrix(-.72846687 -.68508103 .68508103 -.72846687 0 0)"/>
   </g>
  </g>
 </g>
</svg>
