<svg height="210mm" viewBox="0 0 1052.4 744.1" width="297mm" xmlns="http://www.w3.org/2000/svg">
 <g fill="none" stroke-linecap="round">
  <g transform="translate(0 -308.26772)">
   <path d="m57.6 742.2h948.8" stroke="#969696" stroke-width="1.875"/>
   <g stroke="#000" stroke-dasharray="3.75 7.5" stroke-miterlimit="2" stroke-width=".9375">
    <path d="m58.3 844.1h948.8"/>
    <path d="m58.3 641.8h948.8"/>
    <path d="m58.3 540.6h948.8"/>
   </g>
  </g>
  <g stroke="#000" stroke-linejoin="round">
   <path d="m774.8 235.3-457.8 195.5" stroke-width="5.625"/>
   <path d="m411.5 234.7-94.5 196.1" stroke-width="5.624999"/>
   <path d="m774.8 235.3s-42.5 79.8-60.8 107.6c-23 34.9-52 72.9-91.2 88.5" stroke-width="5.625001"/>
   <g stroke-width="5.625">
    <path d="m724.8 383-23.7 48.3"/>
    <path d="m732 386.2-23.5 45.1"/>
    <path d="m713 431.2-12 .2"/>
    <path d="m736.7 382.8-23.7 48.3"/>
    <path d="m727.5 384-23.5 45.1"/>
    <path d="m736.7 382.8-12 .2"/>
    <path d="m622.7 431.4c-4.4 1.5-6.1-1.5-3.6-4.4 5.7-6.8 105.7-43.9 105.7-43.9"/>
   </g>
  </g>
 </g>
</svg>
