<svg height="210mm" viewBox="0 0 1052.4 744.1" width="297mm" xmlns="http://www.w3.org/2000/svg">
 <g fill="none" stroke-linecap="round">
  <g transform="translate(0 -308.26772)">
   <path d="m57.6 742.2h948.8" stroke="#969696" stroke-width="1.875"/>
   <g stroke="#000" stroke-dasharray="3.75 7.5" stroke-miterlimit="2" stroke-width=".9375">
    <path d="m58.3 844.1h948.8"/>
    <path d="m58.3 641.8h948.8"/>
    <path d="m58.3 540.6h948.8"/>
   </g>
  </g>
  <g stroke="#000">
   <ellipse cx="-95.610046" cy="534.27271" rx="28.002972" ry="18.533039" stroke-linejoin="round" stroke-width="5.597312" transform="matrix(.7533862 -.65757831 .76106558 .64867495 0 0)"/>
   <g stroke-width="5.625">
    <path d="m315.7 401.7 68.8-65.3"/>
    <g stroke-linejoin="round">
     <path d="m384.5 336.4 25 47.8"/>
     <path d="m409.5 384.2 89.9-94.9-42.5 71.3c-9 15.1 2.6 24 19.6 20.8 14-2.5 25.2-8.8 56.3-45.6"/>
     <path d="m548.1 380.4c-8.5.2-21.4-14.5-15.3-44.6"/>
     <path d="m548.1 380.4c24.5 1.4 58.3-43.3 82.4-44.4 24-.8 22.8 40.5 39.2 40.1 8.2-.2 16.6-6.1 21.4-12"/>
    </g>
   </g>
  </g>
 </g>
</svg>
