<svg height="210mm" viewBox="0 0 1052.4 744.1" width="297mm" xmlns="http://www.w3.org/2000/svg">
 <g fill="none" stroke-linecap="round">
  <g transform="translate(0 -308.26772)">
   <path d="m57.6 742.2h948.8" stroke="#969696" stroke-width="1.875"/>
   <g stroke="#000" stroke-dasharray="3.75 7.5" stroke-miterlimit="2" stroke-width=".9375">
    <path d="m58.3 844.1h948.8"/>
    <path d="m58.3 641.8h948.8"/>
    <path d="m58.3 540.6h948.8"/>
   </g>
  </g>
  <g stroke="#000" stroke-linejoin="round" stroke-width="5.625">
   <ellipse cx="533.08081" cy="72.588364" rx="4.609393" ry="6.862875" transform="matrix(.72846687 .68508103 -.68508103 .72846687 0 0)"/>
   <path d="m329.6 335.8s-34.3 61.7-37.7 71.8c-4.7 13.8 4.6 21 12.7 22.7 11.4 2.2 21.7 1.5 35.2-7.3"/>
   <path d="m335.8 424.4c7.9 6.7 16.2-5.5 29.9-19.4 3.5-3.6 8.1-7.3 10.6-9.1 5.1-3.7 11-6.6 18.1-7.5 3.3-.4 6.4-.1 9 .9 2.8 1 5 2.6 6.6 4.7 3.7 5.2 3.1 13.5-5.1 23.4-24.4 29.4-45.3 43.7-38 59.3 2.6 5.6 8.9 7.4 16.3 7.4 28.2.1 60.9-30.8 81.8-30.9 16-.6 18.8 30.9 32.6 30.7 8.7-.1 16.4-6.6 21.7-13.2 10.5-13.1 25.5-42.2 47.6-63.5 14.8-14.5 30.8-21.4 44.4-21.7 21.6-.4 37.3 15.9 32.4 45.4"/>
   <path d="m643.7 431 177.3-.4"/>
   <ellipse cx="891.57538" cy="-255.56783" rx="4.609393" ry="6.862875" transform="matrix(.72846687 .68508103 -.68508103 .72846687 0 0)"/>
  </g>
 </g>
</svg>
