<svg height="210mm" viewBox="0 0 1052.4 744.1" width="297mm" xmlns="http://www.w3.org/2000/svg">
 <g fill="none" stroke-linecap="round">
  <g transform="translate(0 -308.26772)">
   <path d="m57.6 742.2h948.8" stroke="#969696" stroke-width="1.875"/>
   <g stroke="#000" stroke-dasharray="3.75 7.5" stroke-miterlimit="2" stroke-width=".9375">
    <path d="m58.3 844.1h948.8"/>
    <path d="m58.3 641.8h948.8"/>
    <path d="m58.3 540.6h948.8"/>
   </g>
  </g>
  <g stroke="#000" stroke-linejoin="round">
   <path d="m473 355c7.9-7.4 17.1-17.5 31.2-19.2 3.2-.4 6.2 0 8.8.9 2.7.9 4.9 2.5 6.4 4.6 3.6 5.1 3 13.2-5 22.8-6 7.3-11.8 13.6-17 19.3-5.3 5.7-11.2 12.1-17.3 19.5-8 9.7-8.6 17.8-5 22.8 1.5 2.1 3.7 3.7 6.4 4.6 2.6.9 5.6 1 8.8.8 19.4-.7 27.5-7.1 80.1-47.3l22.9 47.6" stroke-width="5.625"/>
   <path d="m593.3 431.5c41.8-69.4 112.3-60.6 102.4.1" stroke-width="5.624999"/>
   <path d="m790.2 235.5-94.5 196.1" stroke-width="5.624999"/>
   <g stroke-width="5.625">
    <path d="m298.8 431.1s44.6-32.4 61.8-29.2 16 46.2 45.6 21.5c18.4-15.4 24.6-22.4 36.6-33.4l-66.9 144.1"/>
    <path d="m346.2 404.1c5.4-2.4 14.4-.8 22.3 16.5 5.6 12.2 16.2 10.3 22.8 10.3"/>
    <path d="m357.3 403.9c7.6 3.9 5 .9 19.8 23.5"/>
   </g>
  </g>
 </g>
</svg>
