<svg height="210mm" viewBox="0 0 1052.4 744.1" width="297mm" xmlns="http://www.w3.org/2000/svg">
 <g fill="none" stroke-linecap="round">
  <g transform="translate(0 -308.26772)">
   <path d="m57.6 742.2h948.8" stroke="#969696" stroke-width="1.875"/>
   <g stroke="#000" stroke-dasharray="3.75 7.5" stroke-miterlimit="2" stroke-width=".9375">
    <path d="m58.3 844.1h948.8"/>
    <path d="m58.3 641.8h948.8"/>
    <path d="m58.3 540.6h948.8"/>
   </g>
  </g>
  <g stroke="#000" stroke-linejoin="round">
   <path d="m390.9 336.5s-29.7 58.9-35.4 73.4c-5.8 14.7 2.2 21.7 14.1 21.4 28.1-.7 60.6-43.3 76.2-60.5 18-19.9 38-34.3 63.3-35.1 20.3-.6 32.9 16.4 41.8 35.2 7.7 16.9 14.5 36 22.5 47.4 6.5 9.2 11.3 13.3 19.9 13.1 34.3-.6 69-30.8 87.7-32.8 18.2-.7 20.7 32.8 36 33.3 8.2.3 12.7-4.8 17.8-9" stroke-width="5.624999"/>
   <ellipse cx="728.82275" cy="-112.58061" rx="5.271423" ry="7.848564" stroke-width="14.034715" transform="matrix(.72846687 .68508103 -.68508103 .72846687 0 0)"/>
  </g>
 </g>
</svg>
