<svg height="210mm" viewBox="0 0 1052.4 744.1" width="297mm" xmlns="http://www.w3.org/2000/svg">
 <g stroke-linecap="round">
  <g fill="none" transform="translate(0 -308.26772)">
   <path d="m57.6 742.2h948.8" stroke="#969696" stroke-width="1.875"/>
   <g stroke="#000" stroke-dasharray="3.75 7.5" stroke-miterlimit="2" stroke-width=".9375">
    <path d="m58.3 844.1h948.8"/>
    <path d="m58.3 641.8h948.8"/>
    <path d="m58.3 540.6h948.8"/>
   </g>
  </g>
  <g stroke="#000">
   <g stroke-linejoin="round">
    <path d="m423.7 361c16.5-14.4 30.3-21.5 38-23.8 17.1-5.1 29.5 4.1 13.2 25.4-26.5 34.5-45.5 50.2-39.4 63.9 1.5 3.4 4.8 4.6 8.8 4.7 5 .1 49.6 1.6 56.9-3.5" fill="none" stroke-width="5.625"/>
    <g fill="#eb0000" fill-rule="evenodd" transform="matrix(1.7715894 0 0 1.7715894 -790.63129 77.21623)">
     <path d="m732.1 185.5c.8.1 1.4.2 1.9.5.2.1.3.2.5.3.9.7 1.3 2 .8 4-1 3.9-5.4 6.1-7.5 6.9-4.3 1.6-7.6-2-5.1-5.9 1.6-2.4 4.2-5.1 7.4-5.7.2 0 .4-.1.7-.1h.8c.6 0 1.2.1 1.9.3" stroke-width="5.625"/>
     <path d="m729.3 188.3c.3 0 .6.1.9.2.1 0 .2.1.2.1.4.3.6.9.4 1.8-.4 1.7-2.4 2.8-3.3 3.1-1.9.7-3.4-.9-2.3-2.6.7-1.1 1.9-2.3 3.3-2.6h.3.4c.3 0 .6 0 .8.1" stroke-width="4.981044"/>
    </g>
    <g fill="none" stroke-width="5.625">
     <path d="m339.7 431.2c-12.8 1.4 68-53.2 84.1-70.2"/>
     <path d="m507 424.2c8-3.6 102.3-115.7 102.3-115.7"/>
     <path d="m609.3 308.4c28.6-32 71.7-34.2 39.1 20l-31.5 52.1"/>
    </g>
   </g>
   <path d="m682.9 338.2-66.1 42.4" fill="none" stroke-width="5.625"/>
  </g>
  <path d="m339.7 431.2c3 .3 9.7-4.2 11-5 10.7-6.1 20.2-15.8 27.8-26.6 20.4-28.9 27.3-65.7 8.6-63.5-7.1.8-18.6 6.4-32.8 21.7-5.7 6.2-46.1 64.4-50.6 72.5" fill="none" stroke="#000a00" stroke-linejoin="round" stroke-width="5.419139"/>
 </g>
</svg>
