<svg height="210mm" viewBox="0 0 1052.4 744.1" width="297mm" xmlns="http://www.w3.org/2000/svg">
 <g fill="none" stroke-linecap="round">
  <g transform="translate(0 -308.26772)">
   <path d="m57.6 742.2h948.8" stroke="#969696" stroke-width="1.875"/>
   <g stroke="#000" stroke-dasharray="3.75 7.5" stroke-miterlimit="2" stroke-width=".9375">
    <path d="m58.3 844.1h948.8"/>
    <path d="m58.3 641.8h948.8"/>
    <path d="m58.3 540.6h948.8"/>
   </g>
  </g>
  <g stroke="#000" stroke-linejoin="round" stroke-width="5.625">
   <path d="m370.7 393.5c4.1-1.9 8.3-3 12.2-3.5 16.1-2 28 7.5 12.5 26.7"/>
   <path d="m370.7 393.5c-11.9 4.9-70.1 37.7-55.2 38.6 3 .3 9.7-4.2 11-5 10.7-6.1 20.2-15.8 27.8-26.6 28.4-40.2 30.6-95.6-25.7-40.3"/>
   <path d="m426.4 472.8 123.6-35.6 21 49.2"/>
   <path d="m395.4 416.6c-27.4 33.9-46.9 52.3-39.2 63.6 2.8 4.1 7.4 5.8 12.8 5.6 4.5-.1 17.9-2.3 23.2-3.5 10.1-2.3 25.1-7 34.1-9.6"/>
   <path d="m818.4 449.8c-35.2 18.2-64 31.9-110.5 33-42.5 1.1-76.1-19.3-84.6-45.6"/>
   <path d="m821.8 438.5c.8.1 1.4.2 1.9.5.2.1.3.2.5.3.9.7 1.3 2 .8 4-1 3.9-5.4 6.1-7.5 6.9-4.3 1.6-7.6-2-5.1-5.9 1.6-2.4 4.2-5.1 7.4-5.7.2 0 .4-.1.7-.1s.5-.1.8-.1c.6 0 1.2.1 1.9.3"/>
   <path d="m570.9 486.4 52.3-49.2"/>
  </g>
 </g>
</svg>
