<svg height="210mm" viewBox="0 0 1052.4 744.1" width="297mm" xmlns="http://www.w3.org/2000/svg">
 <g stroke-linecap="round">
  <g fill="none" transform="translate(0 -308.26772)">
   <path d="m57.6 742.2h948.8" stroke="#969696" stroke-width="1.875"/>
   <g stroke="#000">
    <g stroke-dasharray="3.75 7.5" stroke-miterlimit="2" stroke-width=".9375">
     <path d="m58.3 844.1h948.8"/>
     <path d="m58.3 641.8h948.8"/>
     <path d="m58.3 540.6h948.8"/>
    </g>
    <g stroke-width="5.625">
     <path d="m408.3 718.3s53.9-60.2 55.4-61.7c26.4-26.6 99.5-101.5 68-112.4-14.8-5.1-28-2.8-75.8 76.1-50.1 86.5-37.9 122.7-12.1 118.7" stroke-linejoin="round"/>
     <path d="m408.3 718.3-101.7 123.2"/>
    </g>
   </g>
  </g>
  <g stroke="#000" stroke-linejoin="round">
   <g fill="none">
    <path d="m443.8 430.7c10.4-.1 25.3-.3 39.3-.5 18.3-.3 30.3 3.8 54.7-20.7" stroke-width="5.625"/>
    <path d="m509 416.2c.8.1 1.5.2 2 .5.2.1.4.2.5.3 1 .8 1.3 2.1.8 4.2-1.1 4.1-5.7 6.4-7.9 7.3-4.6 1.6-7.9-2.1-5.3-6.1 1.6-2.5 4.4-5.3 7.8-6 .2 0 .5-.1.7-.1h.8c.6 0 1.3.1 2 .3" stroke-width="4.6875"/>
    <path d="m537.8 409.5c4.8-4.3 16.3-16 23.3-25.4" stroke-width="5.625"/>
    <path d="m487.3 417.2c.8.1 1.5.2 2 .5.2.1.4.2.5.3 1 .8 1.3 2.1.8 4.2-1.1 4.1-5.7 6.4-7.9 7.3-4.6 1.6-7.9-2.1-5.3-6.1 1.6-2.5 4.4-5.3 7.8-6 .2 0 .5-.1.7-.1h.8c.6 0 1.3.1 2 .3" stroke-width="4.6875"/>
   </g>
   <g stroke-width="5.625">
    <path d="m561.1 384.1 30-40.8" fill="#d3bc5f" fill-rule="evenodd"/>
    <path d="m591.1 343.3c21.6-28.9 36.1-52.4 56.9-56.8 10.7-2.7 14.3.7 18.7 3.2 7.6 4.3 8 17.2-6 41.5l-29.8 52.1" fill="none"/>
   </g>
  </g>
 </g>
</svg>
