<svg height="210mm" viewBox="0 0 1052.4 744.1" width="297mm" xmlns="http://www.w3.org/2000/svg">
 <g fill="none" stroke-linecap="round">
  <g transform="translate(0 -308.26772)">
   <path d="m57.6 742.2h948.8" stroke="#969696" stroke-width="1.875"/>
   <g stroke="#000" stroke-dasharray="3.75 7.5" stroke-miterlimit="2" stroke-width=".9375">
    <path d="m58.3 844.1h948.8"/>
    <path d="m58.3 641.8h948.8"/>
    <path d="m58.3 540.6h948.8"/>
   </g>
  </g>
  <g stroke="#000">
   <g stroke-linejoin="round" stroke-width="5.625">
    <path d="m689.1 188.3-47.8 94.9"/>
    <path d="m641.3 283.2 90-95.1 33.3 47.9"/>
    <path d="m731.3 188.1 24 48"/>
    <path d="m740.8 188.1 23.8 47.9"/>
    <path d="m736.9 188 24 48"/>
   </g>
   <path d="m731.2 187.2 9.5-.1" stroke-width="3.75"/>
   <path d="m755.1 237h9" stroke-width="3.75"/>
   <g stroke-linejoin="round" stroke-width="5.625">
    <path d="m606.5 283.2-21.9-49.1s-88.4 157.8-102.7 177.5c-9.9 13.4-18.8 20.8-34 19.7-16.1-.8-24.1-21.9-42.1-22.5-18.2-.4-20.1 21.6-3.5 22.4 8.5.4 19.6-3.7 43.1-42.5 22.8-36 22-52.9 8.2-52.4-10.5.4-27.6 12-36.6 21.6"/>
    <path d="m689.1 188.3-82.6 94.9"/>
   </g>
  </g>
 </g>
</svg>
