<svg height="210mm" viewBox="0 0 1052.4 744.1" width="297mm" xmlns="http://www.w3.org/2000/svg">
 <g fill="none" stroke-linecap="round">
  <g transform="translate(0 -308.26772)">
   <path d="m57.6 742.2h948.8" stroke="#969696" stroke-width="1.875"/>
   <g stroke="#000" stroke-dasharray="3.75 7.5" stroke-miterlimit="2" stroke-width=".9375">
    <path d="m58.3 844.1h948.8"/>
    <path d="m58.3 641.8h948.8"/>
    <path d="m58.3 540.6h948.8"/>
   </g>
  </g>
  <g stroke="#000" stroke-linejoin="round">
   <ellipse cx="503.73569" cy="109.87102" rx="4.609393" ry="6.862875" stroke-width="5.625" transform="matrix(.72846687 .68508103 -.68508103 .72846687 0 0)"/>
   <path d="m292.1 430.4s356-205.1 373.1-215.4c8.1-4.9 17.6-10.3 30.2-17.6 25.4-14.8 43.5-21.9 57-10.1 8.5 8.2 4.1 25.1-6.8 41.8" stroke-width="5.625"/>
   <path d="m791.2 344.2a19.2 25.1 41.6 0 1 -14.3 31.3 19.2 25.1 41.6 0 1 -27.6-6.8 19.2 25.1 41.6 0 1 14.3-31.3 19.2 25.1 41.6 0 1 27.6 6.8z" stroke-width="5.625002"/>
   <path d="m745.5 229.1-65.3 106.2c-7.4 12.6-10.3 23.1-7.7 30.8 2.4 6.9 6.3 12.1 16.8 12.9 12.3.5 19-2.9 25.5-6.6 7.1-4 26.1-18.2 44.5-32" stroke-width="5.624999"/>
  </g>
 </g>
</svg>
