<svg height="210mm" viewBox="0 0 1052.4 744.1" width="297mm" xmlns="http://www.w3.org/2000/svg">
 <g fill="none" stroke-linecap="round">
  <g transform="translate(0 -308.26772)">
   <path d="m57.6 742.2h948.8" stroke="#969696" stroke-width="1.875"/>
   <g stroke="#000" stroke-dasharray="3.75 7.5" stroke-miterlimit="2" stroke-width=".9375">
    <path d="m58.3 844.1h948.8"/>
    <path d="m58.3 641.8h948.8"/>
    <path d="m58.3 540.6h948.8"/>
   </g>
  </g>
  <g stroke-linejoin="round">
   <path d="m629.2 235.1s-42.5 79.8-60.8 107.6c-23 34.9-52 72.9-91.2 88.5" stroke="#000" stroke-width="5.625001"/>
   <path d="m477.2 431.1c-14.1 2.4 81.4-62.7 109.3-81.9 6.7-4.6 12.6-7.7 17.2-9.8 5.1-2.2 10.1-3.1 11.8-3.2 2.4-.2 3.3-.1 5.1.1 7 .3 9.9 7 9.7 12-.3 6.8-3.7 16.8-10.6 30.8l-25.6 52.3" stroke="#0c0000" stroke-width="5.624999"/>
   <g stroke="#000">
    <path d="m624.5 359.4-38.4 71.8" stroke-width="5.624999"/>
    <path d="m609.2 391-19.4 39.7" stroke-width="3.749999"/>
    <path d="m586.1 431.2 7.9.2" stroke-width="5.624999"/>
   </g>
  </g>
  <path d="m619 337.1c11.2-.7 10.4 11.9 2 27" stroke="#000" stroke-width="3.749999"/>
  <path d="m608.3 338.7c7.7-2.5 14.8-1.4 17 3.3 3.6 7.7-5.8 23.5-11 34.6" stroke="#080000" stroke-width="3.75"/>
  <g stroke="#000">
   <g stroke-linejoin="round">
    <path d="m723.8 235-129.8 196.4" stroke-width="5.624999"/>
    <path d="m411.1 336.3-43.2 78.1-3.3 9.2" stroke-width="6.562499"/>
    <path d="m406.3 336.3-44.6 81.7" stroke-width="6.562499"/>
    <g stroke-width="5.625">
     <path d="m411.1 335.8h-9.3"/>
     <path d="m315.6 431.3 86.3-95.5-39 72.3c-7.1 13.2 1.5 22.8 14.4 23 25 .1 57.7-22.6 83-42.7"/>
    </g>
   </g>
   <path d="m371.7 410.5c-4.3 7.3-5.9 18.8 4 19.7" stroke-width="3.749999"/>
   <path d="m460.2 388.5-66.8 145" stroke-width="5.625"/>
  </g>
 </g>
</svg>
