<svg height="210mm" viewBox="0 0 1052.4 744.1" width="297mm" xmlns="http://www.w3.org/2000/svg">
 <g fill="none" stroke-linecap="round">
  <g transform="translate(0 -308.26772)">
   <path d="m57.6 742.2h948.8" stroke="#969696" stroke-width="1.875"/>
   <g stroke="#000" stroke-dasharray="3.75 7.5" stroke-miterlimit="2" stroke-width=".9375">
    <path d="m58.3 844.1h948.8"/>
    <path d="m58.3 641.8h948.8"/>
    <path d="m58.3 540.6h948.8"/>
   </g>
  </g>
  <g stroke="#020000" stroke-linejoin="round" stroke-width="5.625">
   <path d="m403.9 342.5c64-35.1 128.7-93.9 97.7-104.6-14.6-5-40.2 8.9-87.4 86.8-51.5 89-40.8 108.4-14.5 106.7 5.5-.5 12.4-3.2 20-7.7 6.8-4.1 22.4-15.8 33.1-23.8"/>
   <path d="m452.8 399.9c5.2-3.3 10.6-6.2 16.4-8.7 19.6-8.3 35 2.5 12.3 40.5l-29.8 52.1"/>
   <path d="m418 415.8c.7.1 1.2.2 1.7.4.2.1.3.2.4.3.8.6 1.1 1.7.7 3.5-.9 3.4-4.8 5.4-6.6 6.1-3.8 1.4-6.6-1.8-4.5-5.1 1.4-2.1 3.7-4.4 6.5-5 .2 0 .4-.1.6-.1s.5-.1.7-.1c.5 0 1.1.1 1.6.2"/>
   <path d="m451.7 483.7 79.9-84.1"/>
   <ellipse cx="184.82779" cy="660.37604" rx="25.728558" ry="20.371416" transform="matrix(.79083574 -.61202846 .61202846 .79083574 0 0)"/>
   <path d="m531.6 399.7c9.5-12 32.5-40.9 42.4-51.3 16.9-17.9 26.9-18.3 33.4-5.7 6.5 12.7 4 18.2 12.3 27.2 15.9 17.3 43.8-27.8 34.5-34.3-6.3-4.4-25.9 3.2-49.4 42-41.8 68.4-7.7 59.6 21.7 37.5"/>
   <path d="m581.8 340.9c9.6-6.8 18 4.1 21.6 15.8 3.2 10.5 8.7 18 23.9 17.1"/>
   <path d="m593.7 337.1c13.6.7 15.1 28.3 22.1 30"/>
  </g>
 </g>
</svg>
