<svg height="210mm" viewBox="0 0 1052.4 744.1" width="297mm" xmlns="http://www.w3.org/2000/svg">
 <g fill="none" stroke-linecap="round">
  <g transform="translate(0 -308.26772)">
   <path d="m57.6 742.2h948.8" stroke="#969696" stroke-width="1.875"/>
   <g stroke="#000" stroke-dasharray="3.75 7.5" stroke-miterlimit="2" stroke-width=".9375">
    <path d="m58.3 844.1h948.8"/>
    <path d="m58.3 641.8h948.8"/>
    <path d="m58.3 540.6h948.8"/>
   </g>
  </g>
  <g stroke="#000">
   <g stroke-width="5.625">
    <path d="m740 430.3c28.7-24.2 53.6-41.2 72.6-44.3 24.6-4 45 10.4 34.2 45.1l81.9-72" stroke-linejoin="round"/>
    <path d="m928.7 359.1c35.3-38 73.3-25.6 45.9 8.2s-122 152-101.9 163.9c25.4 15 69.5-71.3 74.6-80.8 0 0 14.9-33 7.3-41.2-12.8-13.7-38.3-1.1-40.8 9.8-6.7 28.9 53.4 4 60.4-15.8" stroke-linejoin="round"/>
    <path d="m980 359.6-69.5 100.3-39.9 60.8"/>
    <path d="m980.1 355.2c-45.1 45.4-76 101-107.6 155.9"/>
   </g>
   <g stroke-width="3.75">
    <path d="m876.4 502.4c-7.7 10.8-7.5 17.5-7.2 24.1"/>
    <path d="m878.6 532c-12.1-1.2-7-9.8-1.8-18.4"/>
    <path d="m967.1 367.7c9.1-10.3 17.8-18.4 13.6-26.5"/>
   </g>
   <g stroke-linejoin="round" stroke-width="5.625">
    <path d="m568.1 431c5.4-3.3 11.7-10.5 6.5-17.1-2.6-3.3-4-4.5-11.9-4.4l-98.8.6c-6.7 0-14.3.2-15.9-.7-10.5-5.8-7.4-13.7.5-24.6"/>
    <path d="m308.3 431.5c50.4-65.5 115.5-58.4 97 .6-.4 1.2 43.7-48.5 43.7-48.5"/>
   </g>
  </g>
  <g stroke-linejoin="round" stroke-width="5.625">
   <path d="m74.7 431.8c88.5-59.3 253.5-59.1 233.6-.3" stroke="#0a0001"/>
   <path d="m568.1 431c12.5-.2 51.1-24.7 67.5-25.8 24.4-1.9 15 27 37.5 25.5 19.9-1 121.7-94.8 121.7-94.8" stroke="#000"/>
   <path d="m740 430.3c-54 34.8-94.9 86.5-90.3 98.5 1.1 2.9 17.7 21.8 57.3-41.8l87.8-151" stroke="#060000"/>
  </g>
 </g>
</svg>
