<svg height="210mm" viewBox="0 0 1052.4 744.1" width="297mm" xmlns="http://www.w3.org/2000/svg">
 <g fill="none" stroke-linecap="round">
  <g transform="translate(0 -308.26772)">
   <path d="m57.6 742.2h948.8" stroke="#969696" stroke-width="1.875"/>
   <g stroke="#000" stroke-dasharray="3.75 7.5" stroke-miterlimit="2" stroke-width=".9375">
    <path d="m58.3 844.1h948.8"/>
    <path d="m58.3 641.8h948.8"/>
    <path d="m58.3 540.6h948.8"/>
   </g>
  </g>
  <g stroke="#000">
   <path d="m479.9 336.5 22.1 46.2" stroke-linejoin="round" stroke-width="5.624999"/>
   <path d="m487.1 336.4 22.1 46.2" stroke-linejoin="round" stroke-width="5.624999"/>
   <g stroke-width="5.625">
    <path d="m479.9 336.5 7.2-.1"/>
    <path d="m483.9 337.8 21 43.9" stroke-linejoin="round"/>
    <path d="m501.9 382.8 7.2-.1"/>
   </g>
   <g stroke-linejoin="round">
    <path d="m423.6 431.5 56.3-95" stroke-width="5.625"/>
    <path d="m628.9 287.2-119.7 95.4" stroke-width="5.625"/>
    <path d="m572.2 384.1c-52.8 22.2-107.3 83.2-81.8 98.7 9.9 5.5 23.1-1.1 49.3-43.2l89.2-152.4" stroke-width="5.624999"/>
    <g stroke-width="5.625">
     <path d="m272.1 390.6c-7.5 25.9 4.1 42 24 41.1 15.4-.7 25.6-6.9 36.5-16 5.4-4.5 11.2-9.7 16.8-14.7 12.2-11.7 25.7-17.6 40.6-17.4 22.5.3 38.7 16.8 33.6 47.9"/>
     <path d="m572.2 384.1 114-47.7"/>
     <path d="m695.7 480.3c14.8-7.7 32.2-16.2 28.9-34.4-.9-14.2-55-41.3-61.8-64.1-3.5-11.7 8.2-28.9 23.4-45.3"/>
    </g>
   </g>
  </g>
 </g>
</svg>
