<svg height="210mm" viewBox="0 0 1052.4 744.1" width="297mm" xmlns="http://www.w3.org/2000/svg">
 <g fill="none" stroke-linecap="round">
  <g transform="translate(0 -308.26772)">
   <path d="m57.6 742.2h948.8" stroke="#969696" stroke-width="1.875"/>
   <g stroke="#000" stroke-dasharray="3.75 7.5" stroke-miterlimit="2" stroke-width=".9375">
    <path d="m58.3 844.1h948.8"/>
    <path d="m58.3 641.8h948.8"/>
    <path d="m58.3 540.6h948.8"/>
   </g>
  </g>
  <g stroke="#000" stroke-linejoin="round">
   <g stroke-width="5.625">
    <path d="m425.1 385.7c40.9 3.1 60.5-36.5 58-45.3-3-10.3-30-4.4-54.4 35.9-43.2 70.8-8.4 62 22.1 39.3 2.5-1.9 17.3-15.9 19.7-17.9 17.2-16.6 54.8-60.1 70.8-78.4"/>
    <path d="m541.3 319.2c9.4-10 18.6-19.3 26.9-24.1 5.6-3.2 11.1-5.6 15.4-6.3 17.6-3 34.7 7.8 34.4 48.6-.5 62.7 43.7 53.9 61.3 30.3"/>
    <path d="m587.7 288.4c14.1-1.8 35.4 14 35.2 45.9-.2 30.1 8.2 53 28.3 51.2"/>
    <path d="m587.7 288.4c17-.9 25 18.1 24.8 50-.2 30.1 11.9 49.3 38.7 46.9"/>
   </g>
   <path d="m679.3 367.8c2.7-3.2 16.5-19.2 25.4-30.6" stroke-width="5.545302"/>
   <path d="m704.7 337.2 20 47.9" stroke-width="5.625"/>
  </g>
 </g>
</svg>
