<svg height="210mm" viewBox="0 0 1052.4 744.1" width="297mm" xmlns="http://www.w3.org/2000/svg">
 <g fill="none" stroke-linecap="round">
  <g transform="translate(0 -308.26772)">
   <path d="m57.6 742.2h948.8" stroke="#969696" stroke-width="1.875"/>
   <g stroke="#000" stroke-dasharray="3.75 7.5" stroke-miterlimit="2" stroke-width=".9375">
    <path d="m58.3 844.1h948.8"/>
    <path d="m58.3 641.8h948.8"/>
    <path d="m58.3 540.6h948.8"/>
   </g>
  </g>
  <g stroke="#000">
   <g stroke-width="5.625">
    <path d="m406.7 414.3c-3.1 1.3-7.4 2.7-9 6.2-3.4 6.4.9 11.4 5.4 11 15.7-1.5 47.4-44.7 52.6-82 5.7-40.6 44.3-104.4 80-114.7" stroke-linejoin="round"/>
    <path d="m406.7 414.3c3.5-1.2 254.3-74 262.7-75.8" stroke-linejoin="round"/>
    <path d="m650.4 431.3 33.3.1"/>
    <g stroke-linejoin="round">
     <path d="m689.6 419c.8.1 1.4.2 1.9.5.2.1.3.2.5.3.9.7 1.3 2 .8 4-1 3.9-5.4 6.1-7.5 6.9-4.3 1.6-7.6-2-5.1-5.9 1.6-2.4 4.2-5.1 7.4-5.7.2 0 .4-.1.7-.1s.5-.1.8-.1c.6 0 1.2.1 1.9.3"/>
     <path d="m669.4 338.5c21-5.4 35 2.5 12.3 40.5l-31.2 52.3"/>
     <path d="m691.8 344.9-49.2 86.2"/>
     <path d="m692.1 351.1-45.6 79.9"/>
     <path d="m642.6 431 7.9.3"/>
    </g>
   </g>
   <path d="m687.8 338.7c1.8 1.7 2.3 5.7.7 9.9" stroke-width="3.75"/>
  </g>
 </g>
</svg>
