<svg height="210mm" viewBox="0 0 1052.4 744.1" width="297mm" xmlns="http://www.w3.org/2000/svg">
 <g fill="none" stroke-linecap="round">
  <g transform="translate(0 -308.26772)">
   <path d="m57.6 742.2h948.8" stroke="#969696" stroke-width="1.875"/>
   <g stroke="#000" stroke-dasharray="3.75 7.5" stroke-miterlimit="2" stroke-width=".9375">
    <path d="m58.3 844.1h948.8"/>
    <path d="m58.3 641.8h948.8"/>
    <path d="m58.3 540.6h948.8"/>
   </g>
  </g>
  <g stroke="#000">
   <path d="m477.6 396.9c15.3-13.8 31.4-20.1 45.6-20.8 29.8-1.4 51.6 22.4 41.2 55.7-.4 1.2 57.1-70 57.1-70" stroke-linejoin="round" stroke-width="5.625"/>
   <ellipse cx="406.22934" cy="651.96509" rx="62.130169" ry="44.633743" stroke-linejoin="round" stroke-width="5.625" transform="matrix(.88109295 -.47294313 .47294313 .88109295 0 0)"/>
   <path d="m723 360.4c-13.8 27.9-38.1 52.4-66.8 70.7" stroke-width="5.385754"/>
   <path d="m724.2 369.3c-15.9 21.3-33.1 41.5-54 58.5" stroke-width="5.385754"/>
   <path d="m723.2 375.8c-14.3 21.6-19.7 29.6-41.7 46.5" stroke-width="7.181006"/>
   <path d="m671.9 418.9c-10.1 9.6-24.3 12.2-31.1 10.7" stroke-width="3.590503"/>
   <path d="m714.9 346.5c2.2 2.5 8.7 12.2 1.3 24.5" stroke-width="3.590503"/>
   <g stroke-linejoin="round" stroke-width="5.625">
    <path d="m636.3 348.2 88.3-51.5"/>
    <path d="m373.2 337-45.3 93.8 62.7-61.1"/>
    <path d="m390.5 369.7c5.1-5.5 16.7-16.1 19-18.4 24.9-25.2 60.4-22.2 30.7 27.6l-31.2 52.3"/>
    <path d="m450.3 344.8-49.2 86.2"/>
    <path d="m450.5 351-45.6 79.9"/>
    <path d="m401 431 7.9.2"/>
   </g>
   <path d="m446.3 338.6c1.8 1.7 2.3 5.7.7 9.9" stroke-width="3.75"/>
   <g stroke-linejoin="round" stroke-width="5.625">
    <path d="m408.9 431.2 75.1-38"/>
    <ellipse cx="135.60674" cy="625.00427" rx="23.211779" ry="18.378675" transform="matrix(.79083574 -.61202846 .61202846 .79083574 0 0)"/>
   </g>
  </g>
 </g>
</svg>
