<svg height="210mm" viewBox="0 0 1052.4 744.1" width="297mm" xmlns="http://www.w3.org/2000/svg">
 <g fill="none" stroke-linecap="round">
  <g transform="translate(0 -308.26772)">
   <path d="m57.6 742.2h948.8" stroke="#969696" stroke-width="1.875"/>
   <g stroke="#000" stroke-dasharray="3.75 7.5" stroke-miterlimit="2" stroke-width=".9375">
    <path d="m58.3 844.1h948.8"/>
    <path d="m58.3 641.8h948.8"/>
    <path d="m58.3 540.6h948.8"/>
   </g>
  </g>
  <g stroke-linejoin="round">
   <g stroke-width="5.625">
    <path d="m337.2 431.6c39-64.7 104.7-56.6 95.5-.1" stroke="#000"/>
    <ellipse cx="624.24036" cy="-2.981217" rx="4.609393" ry="6.862875" stroke="#000" transform="matrix(.72846687 .68508103 -.68508103 .72846687 0 0)"/>
    <path d="m432.6 431.5h21.1" stroke="#000a00"/>
   </g>
   <g stroke="#000">
    <path d="m634.7 243.6c-68.2 54-133.6 189.1-175.6 187.3" stroke-width="5.624959"/>
    <path d="m649 234.6c-82.3 44.3-128.4 195-85.6 196.9 2.4.1 4.2.2 6.9 0" stroke-width="5.625"/>
    <path d="m649 234.6c-36.3 29.6-59.8 62.6-75.9 97.1-9.8 21-16.3 39.9-22.8 64.2" stroke-width="5.624999"/>
    <path d="m553.2 426.8c-12.2-16.3 1.7-55.7 17.6-93.6 16-38 48.8-80.2 74.4-95.9" stroke-width="4.687499"/>
    <path d="m570.3 337.9c-8.2 18.2-14.3 37-18 50.4-2.9 10.3-4.3 21.6-2.6 29.9 1.3 6.5 4.9 11.2 10 12.5" stroke-width="5.624999"/>
   </g>
  </g>
  <path d="m714.7 233.8s-50.1 90-61.4 109.4c-29.6 50.7-54.5 84.2-83 88.3" stroke="#000" stroke-width="5.624999"/>
 </g>
</svg>
