<svg height="210mm" viewBox="0 0 1052.4 744.1" width="297mm" xmlns="http://www.w3.org/2000/svg">
 <g fill="none" stroke-linecap="round">
  <g transform="translate(0 -308.26772)">
   <path d="m57.6 742.2h948.8" stroke="#969696" stroke-width="1.875"/>
   <g stroke="#000" stroke-dasharray="3.75 7.5" stroke-miterlimit="2" stroke-width=".9375">
    <path d="m58.3 844.1h948.8"/>
    <path d="m58.3 641.8h948.8"/>
    <path d="m58.3 540.6h948.8"/>
   </g>
  </g>
  <g stroke="#000" stroke-linejoin="round" stroke-width="5.625">
   <path d="m611.8 336.2c-5.6 1.5-11.1 4-16.4 7.4-5.2 3.3-10.1 7.4-14.8 12-19.9 19.7-34.1 48.5-33.5 64.4.1 3.4 1 6.3 2.6 8.3 1.8 2.3 4.6 3.5 8.6 3.4"/>
   <path d="m605.4 338.4c-11.5 4.6-19 14.8-27.4 24.7-7 8.3-12.8 17.7-16.7 25.1-4.9 8.8-21.6 43.7-2.8 43.4"/>
   <path d="m605.4 338.4c-30.1 10.4-50.2 42.8-56.1 56.5-5 11.6-4.4 23.7-1.1 30.3"/>
   <ellipse cx="513.42719" cy="100.99593" rx="4.609393" ry="6.862875" transform="matrix(.72846687 .68508103 -.68508103 .72846687 0 0)"/>
   <path d="m303.6 431.2 308.2-95"/>
   <path d="m558.4 431.7c28.2 1 60.9-30.8 81.8-30.9 16-.6 18.8 30.9 32.6 30.7 8.7-.1 14.1-5.3 19.4-11.5"/>
  </g>
 </g>
</svg>
