<svg height="210mm" viewBox="0 0 1052.4 744.1" width="297mm" xmlns="http://www.w3.org/2000/svg">
 <g fill="none" stroke-linecap="round">
  <g stroke="#969696" transform="translate(0 -308.26772)">
   <path d="m57.6 742.2h948.8" stroke-width="1.875"/>
   <g stroke-dasharray="3.75 7.5" stroke-miterlimit="2" stroke-width=".9375">
    <path d="m58.3 844.1h948.8"/>
    <path d="m58.3 641.8h948.8"/>
    <path d="m58.3 540.6h948.8"/>
   </g>
  </g>
  <g stroke="#000">
   <ellipse cx="601.33337" cy="-6.67895" rx="4.609393" ry="6.862875" stroke-linejoin="round" stroke-width="5.625" transform="matrix(.72846687 .68508103 -.68508103 .72846687 0 0)"/>
   <path d="m560.8 283.5s-34.9 63.4-38.9 72.5c-5.9 14.1 4.3 24 17.5 24 20.9 0 68.2-30.4 85.8-31.3 19.1.3 22.8 30.2 38.5 30.9 7.5.3 13.1-6.2 18.3-10.8" stroke-linejoin="round" stroke-width="5.624999"/>
   <path d="m560.8 283.5c-70.3 83.4-95.9 122.7-139.4 143.3-7.4 3.3-14.2 4.9-20 5-18.9.3-28.2-15.7-20.8-41.2" stroke-width="5.625"/>
  </g>
 </g>
</svg>
