<svg height="210mm" viewBox="0 0 1052.4 744.1" width="297mm" xmlns="http://www.w3.org/2000/svg">
 <g fill="none" stroke-linecap="round">
  <g transform="translate(0 -308.26772)">
   <path d="m57.6 742.2h948.8" stroke="#969696" stroke-width="1.875"/>
   <g stroke="#000" stroke-dasharray="3.75 7.5" stroke-miterlimit="2" stroke-width=".9375">
    <path d="m58.3 844.1h948.8"/>
    <path d="m58.3 641.8h948.8"/>
    <path d="m58.3 540.6h948.8"/>
   </g>
  </g>
  <g stroke="#000" stroke-linejoin="round">
   <g stroke-width="5.625">
    <path d="m187.2 411.8 131.5-71"/>
    <path d="m242.9 431.7c11.2-27.4-9.2-38.1-20.9-44.2-32.6-16.9-29.7-38.2-22.8-51.3"/>
    <path d="m328.7 337.3c-51.9 13.5-96.5 122.6-34.3 87.6 5.7-3.2 21.7-17.6 40.2-39.4"/>
    <path d="m334.7 385.5c19.7-23.5 103.4-113.5 137.8-140.8 83-65-28.8 162.3-88.2 186.6-35.1 7.8 96.4-52.6 96.4-52.6"/>
    <path d="m500.5 253-91.7 157.8"/>
   </g>
   <path d="m494.7 269.3-73 125.6" stroke-width="8.4375"/>
   <path d="m392 426.7c6.6-8.2 16.4-19 22.5-27.9" stroke-width="3.75"/>
   <g stroke-width="5.625">
    <path d="m483.7 296.8-40.2 67.9"/>
    <path d="m502.2 239.3c.7 14-5.4 18.6-14.3 37.1"/>
    <path d="m476.4 533.6c21.5-17 41.1-43.5 41.6-59.2.4-12.6-2.6-29.8-12.8-39.5-17.1-15.2-49.7-32.3-24.4-56.2"/>
    <path d="m700.2 406.9c14.9-6.9 31-12 44.6-12.5 39.8-1.5 64 36.7 98.4 36.8 15 .1 33.5-5.1 51.2-13.8"/>
    <path d="m615.9 391.8c-7.9 27 6 40.7 29.6 39.6 17.1-.8 38.3-17.5 54.7-24.5"/>
    <ellipse cx="127.98012" cy="744.65039" rx="25.728558" ry="20.371416" transform="matrix(.79083574 -.61202846 .61202846 .79083574 0 0)"/>
    <path d="m550.1 490.9s-94.2 43.2-73.7 42.7"/>
    <path d="m615.9 391.8-76.6 107.4"/>
   </g>
  </g>
 </g>
</svg>
