<svg height="210mm" viewBox="0 0 1052.4 744.1" width="297mm" xmlns="http://www.w3.org/2000/svg">
 <g fill="none" stroke-linecap="round">
  <g transform="translate(0 -308.26772)">
   <path d="m57.6 742.2h948.8" stroke="#969696" stroke-width="1.875"/>
   <g stroke="#000" stroke-dasharray="3.75 7.5" stroke-miterlimit="2" stroke-width=".9375">
    <path d="m58.3 844.1h948.8"/>
    <path d="m58.3 641.8h948.8"/>
    <path d="m58.3 540.6h948.8"/>
   </g>
  </g>
  <g stroke="#000">
   <path d="m408 364.9s60.2-23 65.9-26.5c7.2-4.5 15.1-9 20.2-13.4 12.8-11.2 18.6-26.1 16.7-30.9-2.8-7.3-34.7-8.6-58.5 30.7-26.3 43.1-17.7 60.3-4.2 58.6 18.9-1.6 80.3-31 99.7-45" stroke-linejoin="round" stroke-width="5.625"/>
   <path d="m497.9 290.6c-.5.3-8.1 5.4-8.6 5.8-29.1 19.3-38.4 50-50.6 78" stroke-width="4.6875"/>
   <path d="m483.9 295.3c-17.9 10.4-41.1 45.1-46.5 68.6" stroke-width="4.6875"/>
   <path d="m444.5 362.9c-4 10.7-6.4 18.8 3.6 20.4" stroke-width="2.8125"/>
   <path d="m490.3 292.1c-7.6-.2-11.8 3.4-16.6 6.4" stroke-width="2.8125"/>
   <path d="m480.4 300.1c-28 20.5-28.9 42.2-43.4 69.6" stroke-width="4.6875"/>
   <ellipse cx="-85.613762" cy="544.6272" rx="28.002972" ry="18.533039" stroke-linejoin="round" stroke-width="5.597312" transform="matrix(.7533862 -.65757831 .76106558 .64867495 0 0)"/>
   <g stroke-width="5.625">
    <path d="m342.5 392.5 65.5-27.6"/>
    <path d="m696.4 234.4s-187.2 154-189.1 155.3c-32.5 22-71.6 74.4-63.5 89.5 4.9 9.2 28.4 7.7 48.3-24.3 8.5-13.7 17.7-31 19.9-61.8 5-69.6 43.9-122.4 69-102.2 4.6 3.7 3.8 15.9-5.1 25.4-10.5 9.9-19.7 16.5-28 22.1" stroke-linejoin="round"/>
   </g>
  </g>
  <path d="m722.3 286.3c-15.9 11.5-107.1 53.7-130.3 74.8-34.6 31.6-43.9 58.1-40.9 65.8 1.1 2.9 17.7 21.8 57.3-41.8l88-150.7" stroke="#060000" stroke-linejoin="round" stroke-width="5.625"/>
 </g>
</svg>
