<svg height="210mm" viewBox="0 0 1052.4 744.1" width="297mm" xmlns="http://www.w3.org/2000/svg">
 <g fill="none" stroke-linecap="round">
  <g stroke="#969696" transform="translate(0 -308.26772)">
   <path d="m57.6 742.2h948.8" stroke-width="1.875"/>
   <g stroke-dasharray="3.75 7.5" stroke-miterlimit="2" stroke-width=".9375">
    <path d="m58.3 844.1h948.8"/>
    <path d="m58.3 641.8h948.8"/>
    <path d="m58.3 540.6h948.8"/>
   </g>
  </g>
  <g stroke="#000" stroke-linejoin="round">
   <g stroke-width="5.625">
    <path d="m354.1 429.9c-9 .1-57.1.3-64.1.6-31.9 1.8-48 9-85.8 45.8-23.7 26.3-28.5 37.5-27.8 48.3.4 6.5 14.4 24.7 58.7-35.7 12.3-16.7 89.5-153.1 89.5-153.1"/>
    <ellipse cx="549.69312" cy="64.84082" rx="4.609393" ry="6.862874" transform="matrix(.72846687 .68508103 -.68508103 .72846687 0 0)"/>
    <ellipse cx="534.08051" cy="78.715828" rx="4.609393" ry="6.862874" transform="matrix(.72846687 .68508103 -.68508103 .72846687 0 0)"/>
    <path d="m354.1 429.9c9.4 7.7 313.1-96.7 313.1-96.7 30.2-8.2 49.4-23.3 66.1-42.6 18.4-21.2 28.7-43.8 25.4-52.6-5.5-14.4-40.3 8.9-87.6 86.9-44.2 76.4-40.1 106.2-24.3 106.5 29.3.6 76.5-37.7 96.7-34 20.2 3.8 18.7 54.1 53.5 25.2"/>
    <path d="m724.6 401.1c7.7-3.3 13.1.7 16.5 3.2 4.2 3.1 8.1 8.3 12.2 15.9 4.8 8.7 9 11.2 14.7 11.5 3 .1 7.6 0 10.4 0"/>
   </g>
   <path d="m738.1 400.4c7.8 4.9 8.8 2 26.1 28.6" stroke-width="6.587558"/>
  </g>
 </g>
</svg>
