<svg height="210mm" viewBox="0 0 1052.4 744.1" width="297mm" xmlns="http://www.w3.org/2000/svg">
 <g fill="none" stroke-linecap="round">
  <g transform="translate(0 -308.26772)">
   <path d="m57.6 742.2h948.8" stroke="#969696" stroke-width="1.875"/>
   <g stroke="#000" stroke-dasharray="3.75 7.5" stroke-miterlimit="2" stroke-width=".9375">
    <path d="m58.3 844.1h948.8"/>
    <path d="m58.3 641.8h948.8"/>
    <path d="m58.3 540.6h948.8"/>
   </g>
  </g>
  <g stroke="#000" stroke-linejoin="round" stroke-width="5.625">
   <ellipse cx="383.67514" cy="592.39636" rx="25.728558" ry="20.371416" transform="matrix(.89236516 -.45131411 .45131411 .89236516 0 0)"/>
   <path d="m506.2 340.6c4.9-2.3 10-3.8 15.2-4.1 23.3-1.3 45.8 43.4 68.6 43 6.4-.1 12.6-1 18.4-2.5"/>
   <path d="m506.2 340.6c-17.3 10.1-159.3 128-173.9 142.7-25.9 26.2-33.9 38.2-31 45.9 1.1 2.9 17.7 21.8 57.3-41.8l88-150.7"/>
  </g>
 </g>
</svg>
