<svg height="210mm" viewBox="0 0 1052.4 744.1" width="297mm" xmlns="http://www.w3.org/2000/svg">
 <g fill="none" stroke-linecap="round">
  <g transform="translate(0 -308.26772)">
   <path d="m57.6 742.2h948.8" stroke="#969696" stroke-width="1.875"/>
   <g stroke="#000" stroke-dasharray="3.75 7.5" stroke-miterlimit="2" stroke-width=".9375">
    <path d="m58.3 844.1h948.8"/>
    <path d="m58.3 641.8h948.8"/>
    <path d="m58.3 540.6h948.8"/>
   </g>
  </g>
  <path d="m562.5 337.8c-51.2 15.8-94.5 121.8-31.5 86.6 20.3-13.5 18.5-12.8 18.5-12.8" stroke="#000" stroke-linejoin="round" stroke-width="5.625"/>
  <g stroke="#00000c">
   <g stroke-linejoin="round" stroke-width="5.625">
    <path d="m549.5 411.6 32.6-28.4 33.3 47.9"/>
    <path d="m582.1 383.3 24 48"/>
    <path d="m591.6 383.3 23.8 47.9"/>
    <path d="m587.6 383.1 24 48"/>
   </g>
   <g stroke-width="3.75">
    <path d="m584.3 382.2h7.1"/>
    <path d="m607.8 432.1h7.1"/>
   </g>
  </g>
  <g stroke="#000" stroke-linejoin="round" stroke-width="5.625">
   <path d="m615.4 431.1s48.9-27.7 64.4-28.6c20.1-.2 16.5 27.2 34.6 28.6 10.8-.3 16.8-10.6 23.4-18.7"/>
   <path d="m472.4 333.9c-13.8 25.3-28.6 50-43 74.9-13.1 23.6 5.5 26.5 25.4 17.9 12.4-5 72.9-68.5 87.4-78.3"/>
   <path d="m472.4 333.9s-77.1 50.3-112.6 72.4c-13.3 11.1-15.1 20.6-6.3 25.1 11.3-3.6 29-14.3 32.2-40.1s20.9-53.1 39.1-55.8"/>
  </g>
 </g>
</svg>
