<svg height="210mm" viewBox="0 0 1052.4 744.1" width="297mm" xmlns="http://www.w3.org/2000/svg">
 <g fill="none" stroke-linecap="round">
  <g transform="translate(0 -308.26772)">
   <path d="m57.6 742.2h948.8" stroke="#969696" stroke-width="1.875"/>
   <g stroke="#000" stroke-dasharray="3.75 7.5" stroke-miterlimit="2" stroke-width=".9375">
    <path d="m58.3 844.1h948.8"/>
    <path d="m58.3 641.8h948.8"/>
    <path d="m58.3 540.6h948.8"/>
   </g>
  </g>
  <g stroke="#000" stroke-linejoin="round" stroke-width="5.625">
   <path d="m435.2 395.3c-40.2 22.7-115.6 64.5-152.8 98-19.1 16.1-26 36.7-15 41.6 8.8 2.1 25-3 49.3-44.8 13.1-23.2 15.8-67 28.8-84 10.3-13.2 19.8-22.6 30.8-29.8 28.2-18.6 26.8-41.3 9.6-40.4-12.4.7-21.5 3.6-34.5 19.5"/>
   <path d="m609.8 284.2c-32.9 41.6-274.7 234.6-283 243.3-25.9 26.2-39.9 52.6-36.9 60.3 1.1 2.9 17.7 21.8 57.3-41.8l88-150.7"/>
   <path d="m609.8 284.2c17.9-20.5 23.7-44.5 15.5-48.4-13.9-6.6-42.1 11.3-89.3 89.2-51.5 89-40.8 108.4-14.5 106.7 21.2-.1 42.1-19.2 57.7-38"/>
   <path d="m579.2 393.6c21.8-29.1 40.1-55.9 58.9-56.9 22.5.4 32.3 42.3 48.3 42.3 11.1 0 16-7.5 20-11"/>
   <path d="m706.5 368.1c13.8-14.8 24.8-26.7 43.3-30.4 16.8-3.3 42.9 7.5 35.4 41.6"/>
  </g>
 </g>
</svg>
