<svg height="210mm" viewBox="0 0 1052.4 744.1" width="297mm" xmlns="http://www.w3.org/2000/svg">
 <g stroke-linecap="round">
  <g fill="none" transform="translate(0 -308.26772)">
   <path d="m57.6 742.2h948.8" stroke="#969696" stroke-width="1.875"/>
   <g stroke="#000" stroke-dasharray="3.75 7.5" stroke-miterlimit="2" stroke-width=".9375">
    <path d="m58.3 844.1h948.8"/>
    <path d="m58.3 641.8h948.8"/>
    <path d="m58.3 540.6h948.8"/>
   </g>
  </g>
  <g stroke-linejoin="round">
   <g fill="none" stroke-width="5.625">
    <g stroke="#000">
     <path d="m692.9 482.7c16.8-.5 33-21.3 35-47.2 2.1-26.8 36.3-48.7 36.3-48.7l-330.9 44.6"/>
     <path d="m747.7 400.1c-18.7 24.9-13 30.7-16.8 42.9-3.5 11.7-12.1 25.9-24.2 34.7"/>
     <path d="m744 405c-7.6 7.8-16.1 18.3-20.2 32.6-4.1 14.4-5.5 33.4-22.5 43.1"/>
    </g>
    <path d="m366.8 414.1c1 .1 1.8.3 2.5.7.2.1.4.2.6.4 1.2.9 1.7 2.6 1 5.2-1.3 5.1-7.1 8-9.8 9-5.7 2-9.8-2.6-6.6-7.6 2-3.1 5.5-6.6 9.7-7.5.3-.1.6-.1.9-.1s.7-.1 1-.1c.8 0 1.6.1 2.4.3" stroke="#030002"/>
    <path d="m356.9 431.1c34.3-.2 69.9-92.2 102.9-94.5 15.5.8 24.4 9.5 4.7 42.5l-31.2 52.3" stroke="#000"/>
   </g>
   <g fill="#eb0000" fill-rule="evenodd" stroke="#000" transform="matrix(1.7715894 0 0 1.7715894 -961.82567 78.801979)">
    <path d="m732.1 185.5c.8.1 1.4.2 1.9.5.2.1.3.2.5.3.9.7 1.3 2 .8 4-1 3.9-5.4 6.1-7.5 6.9-4.3 1.6-7.6-2-5.1-5.9 1.6-2.4 4.2-5.1 7.4-5.7.2 0 .4-.1.7-.1h.8c.6 0 1.2.1 1.9.3" stroke-width="5.625"/>
    <path d="m729.3 188.3c.3 0 .6.1.9.2.1 0 .2.1.2.1.4.3.6.9.4 1.8-.4 1.7-2.4 2.8-3.3 3.1-1.9.7-3.4-.9-2.3-2.6.7-1.1 1.9-2.3 3.3-2.6h.3.4c.3 0 .6 0 .8.1" stroke-width="4.981044"/>
   </g>
   <g fill="none" stroke-width="5.625">
    <path d="m276.2 430.9 80.7.2" stroke="#030002"/>
    <path d="m692.9 482.7c-13.1 0 95.9-46.1 95.9-46.1l20 46" stroke="#000"/>
   </g>
  </g>
 </g>
</svg>
