<svg height="210mm" viewBox="0 0 1052.4 744.1" width="297mm" xmlns="http://www.w3.org/2000/svg">
 <g fill="none" stroke-linecap="round">
  <g transform="translate(0 -308.26772)">
   <path d="m57.6 742.2h948.8" stroke="#969696" stroke-width="1.875"/>
   <g stroke="#000" stroke-dasharray="3.75 7.5" stroke-miterlimit="2" stroke-width=".9375">
    <path d="m58.3 844.1h948.8"/>
    <path d="m58.3 641.8h948.8"/>
    <path d="m58.3 540.6h948.8"/>
   </g>
  </g>
  <g stroke="#000" stroke-linejoin="round" stroke-width="5.625">
   <ellipse cx="308.68762" cy="756.78613" rx="25.728558" ry="20.371416" transform="matrix(.79083574 -.61202846 .61202846 .79083574 0 0)"/>
   <path d="m705.9 388s178.1-49.9 187.3-52.1"/>
   <path d="m487 431.6c16.1.7 218.9-43.6 218.9-43.6"/>
   <path d="m893.1 335.9c1.4-.2 2.8-.4 4.1-.5 15.9-1.2 27.3 7.6 12.2 26.2-27.4 33.8-45.5 50.2-39.4 63.9 6 13.7 39.8-.4 52.1-17.9"/>
   <path d="m132.9 430.7c18.2-61.1 71.2-96.8 114.8-93.3 43.5 3.5 58 40.2 43.7 94.6"/>
   <path d="m291.5 431.9s186.5-88.9 194.2-91.9"/>
   <path d="m485.7 340c2.5-1.1 5-2 7.4-2.6 2.6-.7 5.3-1.1 7.8-1.3 15.9-1.2 27.3 7.6 12.2 26.2-27.4 33.8-45.5 50.2-39.4 63.9 2 4.5 7 6 13.3 5.3"/>
  </g>
 </g>
</svg>
