<svg height="210mm" viewBox="0 0 1052.4 744.1" width="297mm" xmlns="http://www.w3.org/2000/svg">
 <g fill="none" stroke-linecap="round">
  <g transform="translate(0 -308.26772)">
   <path d="m57.6 742.2h948.8" stroke="#969696" stroke-width="1.875"/>
   <g stroke="#000" stroke-dasharray="3.75 7.5" stroke-miterlimit="2" stroke-width=".9375">
    <path d="m58.3 844.1h948.8"/>
    <path d="m58.3 641.8h948.8"/>
    <path d="m58.3 540.6h948.8"/>
   </g>
  </g>
  <g stroke="#000" stroke-width="5.625">
   <g stroke-linejoin="round">
    <ellipse cx="399.62775" cy="601.80273" rx="25.728558" ry="20.371416" transform="matrix(.89236516 -.45131411 .45131411 .89236516 0 0)"/>
    <path d="m504 369.7c12.7-16.6 29.8-32.3 48.2-33.3 23.3-1.3 35.6 42.1 69.7 41.7"/>
    <path d="m753.1 179.7 24 49.8"/>
    <path d="m346.6 418.1c17.2-10.9 161.4-105.9 177.5-124.4 19.2-22.1 29.8-46.6 26.3-55.7-5.5-14.4-40.2 8.9-87.4 86.8-41.2 71.2-46.2 101.2-34.5 105.8 2.9 1.1 6.8.7 11.5-1 3.2-1.2 6.8-3 10.6-5.4 22.2-15.7 37-33.8 53.4-54.4"/>
   </g>
   <path d="m753.1 179.7-102.3 182.2"/>
   <g stroke-linejoin="round">
    <path d="m777.1 229.5s31.6-37.2 54.4-37.9c22.8-.8 16.2 68.1 52.2 22"/>
    <path d="m942.5 145.9c-3.9 5.3-58.8 67.7-58.8 67.7"/>
    <ellipse cx="666.78064" cy="710.67859" rx="25.728558" ry="20.371416" transform="matrix(.79083574 -.61202846 .61202846 .79083574 0 0)"/>
    <path d="m202.8 386c63.6-30.3 94.6-47.8 110.2-51.3 7.9-1.1 14.9.6 18.6 8 6.5 12.7 4 18.2 12.3 27.2 15.9 17.3 43.8-27.8 34.5-34.3-6.3-4.4-25.9 3.2-49.4 42-35.3 57.8-16.5 60.5 7.9 46.6 3.2-1.8 6.4-3.9 9.7-6.1"/>
    <path d="m71.8 358.4c4.2-7 11.8-12.6 13.6-13.9 22.7-16.1 54.5-9.2 32.6 17.9-27.4 33.8-45.5 50.2-39.4 63.9 4.2 9.6 22.7 3.3 38.9-2.7 19.2-7.1 85.4-37.5 85.4-37.5"/>
   </g>
  </g>
 </g>
</svg>
