<svg height="210mm" viewBox="0 0 1052.4 744.1" width="297mm" xmlns="http://www.w3.org/2000/svg">
 <g fill="none" stroke="#000" stroke-linecap="round">
  <g transform="translate(0 -308.26772)">
   <path d="m57.6 742.2h948.8" stroke-width="1.875"/>
   <g stroke-dasharray="3.75 7.5" stroke-miterlimit="2" stroke-width=".9375">
    <path d="m58.3 844.1h948.8"/>
    <path d="m58.3 641.8h948.8"/>
    <path d="m58.3 540.6h948.8"/>
   </g>
  </g>
  <g stroke-width="5.625">
   <g stroke-linejoin="round">
    <path d="m609.7 335.9c-47.8 12.5-89.4 106-47.1 93.4 14.2-5.6 25.5-7 65.3-51.1"/>
    <path d="m628 378.1 34.3-43.3"/>
    <path d="m662.3 334.9 81.7-113.2c7-9.7 14-19.8 22.1-27.4 10.9-10.3 23.7-10.1 29.2-9.8 17.2 1 11.7 19.3-3.6 41.2-14.5 20.7-23.5 37.5-41.4 63-25.4 36.1-53.1 69.5-45.4 87.5 10.1 18.3 32.5 5.7 52.7-13.1"/>
   </g>
   <path d="m582.5 351.2c-48.1 33.6-125.6 181.8-125.6 181.8"/>
   <g stroke-linejoin="round">
    <ellipse cx="48.377823" cy="556.07275" rx="25.728558" ry="20.371416" transform="matrix(.79083574 -.61202846 .61202846 .79083574 0 0)"/>
    <path d="m365.6 394.4c17.5-12.9 50-36.2 65.8-46.9"/>
    <path d="m431.4 347.5c23.7-19.2 60.9-14.6 37.5 14.4-27.4 33.8-45.5 50.2-39.4 63.9 4.2 9.6 22.9 6.9 36.5-3.7l10.2-7.9c12.2-11 30.4-42.1 32.4-44.1"/>
   </g>
   <path d="m469.8 339.1c14.5 10.1 4.3 27.8-12.4 44.2-14.4 14-23.4 26.4-29.5 38.7"/>
   <path d="m469.8 339.1c.8-1.1 3.9 6.1.7 14.2-3.2 8.4-12.8 17.8-18.3 22.9-10.8 10.1-30.6 29-24.3 45.7"/>
  </g>
  <g stroke-width="2.8125">
   <path d="m461.2 337.4c11.3 1.3 8.8 6.5 9.1 11"/>
   <path d="m433 414.6c-2.7 4.9-3.8 12 2.3 14.5"/>
   <path d="m425.3 416c-.1 5.7 2.9 11.5 4.9 13.1"/>
  </g>
  <g stroke-width="5.625">
   <path d="m358.7 402-70.1 131.4"/>
   <path d="m591.8 236-83.3 134"/>
  </g>
 </g>
</svg>
