<svg height="210mm" viewBox="0 0 1052.4 744.1" width="297mm" xmlns="http://www.w3.org/2000/svg">
 <g fill="none" stroke-linecap="round">
  <g transform="translate(0 -308.26772)">
   <path d="m57.6 742.2h948.8" stroke="#969696" stroke-width="1.875"/>
   <g stroke="#000" stroke-dasharray="3.75 7.5" stroke-miterlimit="2" stroke-width=".9375">
    <path d="m58.3 844.1h948.8"/>
    <path d="m58.3 641.8h948.8"/>
    <path d="m58.3 540.6h948.8"/>
   </g>
  </g>
  <g stroke="#000" stroke-linejoin="round" stroke-width="5.625">
   <path d="m525.9 379.7c-27 16.7-90.2 91.8-63 99 11.2 2.5 33.1-7.6 54.5-66.3 15.7-47.2 16.4-112.8 70.4-130.9"/>
   <path d="m182.3 396.2a19.2 25.1 41.6 0 1 -14.3 31.3 19.2 25.1 41.6 0 1 -27.6-6.8 19.2 25.1 41.6 0 1 14.3-31.3 19.2 25.1 41.6 0 1 27.6 6.8z"/>
   <path d="m161.1 386.6s160.2-40.2 183-46.5c18.3-5 31.1-10.9 35.2-12.8 44.6-20.4 40.2-42.6 28.1-43-7.5-.3-25.2 3.1-48.1 40.8-26.3 43-20.9 55.7-6 54.4"/>
   <path d="m353.4 379.5c22.3-.8 67.7-31.1 85.3-32 16.8-.7 20.3 32.3 34.2 32.2 7.6 0 13.3-5.9 18.3-10.8 8.6-8.5 65.3-71.8 81.4-80.4"/>
   <path d="m845.1 279.6c54.3-11 97.7-78.3 91.4-95-5.5-14.4-40.3 8.9-87.4 86.8-44.1 76.2-43.5 103.8-28 106.4"/>
   <path d="m525.9 379.7c23.3-12.8 280.5-87.3 319.2-100.1"/>
   <path d="m900.4 335.8c-21.7 20.5-47.6 43.1-79.4 41.9"/>
  </g>
 </g>
</svg>
