<svg height="210mm" viewBox="0 0 1052.4 744.1" width="297mm" xmlns="http://www.w3.org/2000/svg">
 <g fill="none" stroke-linecap="round">
  <g transform="translate(0 -308.26772)">
   <path d="m57.6 742.2h948.8" stroke="#969696" stroke-width="1.875"/>
   <g stroke="#000" stroke-dasharray="3.75 7.5" stroke-miterlimit="2" stroke-width=".9375">
    <path d="m58.3 844.1h948.8"/>
    <path d="m58.3 641.8h948.8"/>
    <path d="m58.3 540.6h948.8"/>
   </g>
  </g>
  <g stroke="#000">
   <path d="m524.7 484.9h-147.8" stroke-width="5.625001"/>
   <g stroke-linejoin="round">
    <g stroke-width="5.625" transform="translate(-2065.9447 -37831.274)">
     <path d="m2731.8 38105.4-50 96.8"/>
     <path d="m2681.8 38202.2 82.6-.3"/>
     <path d="m2748.4 38153.30000000001-50 96.3"/>
    </g>
    <g stroke-width="5.625" transform="translate(-2636.4804 -37831.274)">
     <path d="m3446.9 38102-80 148.6"/>
     <path d="m3364.3 38102.2 82.6-.3"/>
     <path d="m3383.2 38175.4 48.4.1"/>
    </g>
    <path d="m382.8 431.6c36.3-27.9 68.3-45.8 96.7-45.6 26.2-.4 33.6 31.6 33.6 45" stroke-width="5.624999"/>
    <path d="m505 403.6c1.2 7.1 5.2 21.5 4 26" stroke-width="5.625"/>
    <path d="m476.6 387c13-.1 22.2 8.8 25.1 17 3.4 9.6 4.7 20.4 4.2 26.9" stroke-width="4.6875"/>
   </g>
   <path d="m506.4 430.9 6.7.1" stroke-width="5.625"/>
   <path d="m443.5 395c10.6-4.5 20.7-7 30.1-7.5 6.4-.4 11.7.6 16.7 3.6" stroke-linejoin="round" stroke-width="3.75"/>
  </g>
 </g>
</svg>
