<svg height="210mm" viewBox="0 0 1052.4 744.1" width="297mm" xmlns="http://www.w3.org/2000/svg">
 <g fill="none" stroke-linecap="round">
  <g transform="translate(0 -308.26772)">
   <path d="m57.6 742.2h948.8" stroke="#969696" stroke-width="1.875"/>
   <g stroke="#000" stroke-dasharray="3.75 7.5" stroke-miterlimit="2" stroke-width=".9375">
    <path d="m58.3 844.1h948.8"/>
    <path d="m58.3 641.8h948.8"/>
    <path d="m58.3 540.6h948.8"/>
   </g>
  </g>
  <g stroke="#000" stroke-linejoin="round" stroke-width="5.625">
   <path d="m465.4 383.4c-39.7 14-90.5 29.6-92.1 40.8-.6 10.1 10.5 7.5 15 4.5 7.3-5 24.1-22.7 22.9-42.4-1.5-26.8 18.8-40.8 32.4-50.1l-62.7 40.5"/>
   <path d="m465.4 383.4 20 47.9"/>
   <ellipse cx="172.85893" cy="650.8985" rx="25.728558" ry="20.371416" transform="matrix(.79083574 -.61202846 .61202846 .79083574 0 0)"/>
   <path d="m529.2 388.8 118.3-66.9 81.1-48"/>
   <ellipse cx="407.91757" cy="642.23804" rx="25.728558" ry="20.371416" transform="matrix(.79083574 -.61202846 .61202846 .79083574 0 0)"/>
   <path d="m518.9 396-33.5 35.3"/>
  </g>
 </g>
</svg>
