<svg height="210mm" viewBox="0 0 1052.4 744.1" width="297mm" xmlns="http://www.w3.org/2000/svg">
 <g fill="none" stroke="#000" stroke-linecap="round">
  <g transform="translate(0 -308.26772)">
   <path d="m57.6 742.2h948.8" stroke-width="1.875"/>
   <g stroke-dasharray="3.75 7.5" stroke-miterlimit="2" stroke-width=".9375">
    <path d="m58.3 844.1h948.8"/>
    <path d="m58.3 641.8h948.8"/>
    <path d="m58.3 540.6h948.8"/>
   </g>
  </g>
  <g stroke-width="5.625">
   <path d="m655.5 429.1c-56.3.4-96.3 16.7-131.9 50.8-23.7 26.3-31.9 40.6-27.9 50.7 2.2 5.6 34.7 12.4 62.3-63.3 15.8-47.4 16.5-113.3 70.8-131.6" stroke-linejoin="round"/>
   <path d="m662.8 417.2c.7.1 1.4.2 1.9.5.2.1.3.2.5.3.9.7 1.2 1.9.7 3.9-1 3.8-5.3 5.9-7.3 6.7-4.2 1.5-7.3-1.9-4.9-5.7 1.5-2.3 4.1-4.9 7.2-5.5.2 0 .4-.1.6-.1h.8c.6 0 1.2.1 1.8.2" stroke-linejoin="round"/>
   <path d="m772.1 234.3-107.5 190.1"/>
   <path d="m638.1 418.2c.7.1 1.4.2 1.9.5.2.1.3.2.5.3.9.7 1.2 1.9.7 3.9-1 3.8-5.3 5.9-7.3 6.7-4.2 1.5-7.3-1.9-4.9-5.7 1.5-2.3 4.1-4.9 7.2-5.5.2 0 .4-.1.6-.1h.8c.6 0 1.2.1 1.8.2" stroke-linejoin="round"/>
   <path d="m471.2 385.1c7.5-.9 13.4-1.7 14.7-1.9 31.1-5.1 46.3-36.3 43.5-43.7-2.8-7.3-28.8-4.3-52.7 35l-31.8 56.4 82.1-38" stroke-linejoin="round"/>
   <path d="m527.1 393.1-74.8 140.3"/>
  </g>
 </g>
</svg>
