<svg height="210mm" viewBox="0 0 1052.4 744.1" width="297mm" xmlns="http://www.w3.org/2000/svg">
 <g fill="none" stroke-linecap="round">
  <g transform="translate(0 -308.26772)">
   <path d="m57.6 742.2h948.8" stroke="#969696" stroke-width="1.875"/>
   <g stroke="#000" stroke-dasharray="3.75 7.5" stroke-miterlimit="2" stroke-width=".9375">
    <path d="m58.3 844.1h948.8"/>
    <path d="m58.3 641.8h948.8"/>
    <path d="m58.3 540.6h948.8"/>
   </g>
  </g>
  <g stroke-linejoin="round">
   <path d="m484.7 417c.4-1-1-3.1-2-3.8-.8-.6-1.9-.3-2.5.2-2.4 1.8-2.1 3-1.9 4.9.4 3.5 2.3 3.2 5.5 2.5 3.5.8 17.8 9 37.4 1.3" stroke="#000200" stroke-width="5.625"/>
   <path d="m482.4 415c-.1-.2-.3-.4-.4-.5 0 0-.1-.1-.2-.1-.3-.2-.8-.1-1.3.3-1 .8-1 2.4-1 3.1.1 1.5 1.6 1.9 2.4.7.5-.8.9-1.9.6-2.9 0-.1 0-.1-.1-.2 0-.1-.1-.2-.1-.2-.1-.2-.2-.3-.3-.5" stroke="#000200" stroke-width="3.586069"/>
   <path d="m472.5 431.5c22.5-8.9 52.2-48.9 60.4-86.1s38.8-98.1 73.8-111.6" stroke="#060000" stroke-width="5.625"/>
  </g>
 </g>
</svg>
