<svg height="210mm" viewBox="0 0 1052.4 744.1" width="297mm" xmlns="http://www.w3.org/2000/svg">
 <g fill="none" stroke-linecap="round">
  <g transform="translate(0 -308.26772)">
   <path d="m57.6 742.2h948.8" stroke="#969696" stroke-width="1.875"/>
   <g stroke="#000" stroke-dasharray="3.75 7.5" stroke-miterlimit="2" stroke-width=".9375">
    <path d="m58.3 844.1h948.8"/>
    <path d="m58.3 641.8h948.8"/>
    <path d="m58.3 540.6h948.8"/>
   </g>
  </g>
  <g stroke="#000">
   <g stroke-width="5.625">
    <path d="m500.6 431.1 81.9-72" stroke-linejoin="round"/>
    <path d="m582.5 359.1c35.3-38 73.3-25.6 45.9 8.2s-122 152-101.9 163.9c25.4 15 69.5-71.3 74.6-80.8 0 0 14.9-33 7.3-41.2-12.8-13.7-38.3-1.1-40.8 9.8-6.7 28.9 53.4 4 60.4-15.8" stroke-linejoin="round"/>
    <path d="m633.8 359.6-69.5 100.3-39.9 60.8"/>
    <path d="m633.9 355.2c-45.1 45.4-76 101-107.6 155.9"/>
   </g>
   <g stroke-width="3.75">
    <path d="m530.2 502.4c-7.7 10.8-7.5 17.5-7.2 24.1"/>
    <path d="m532.4 532c-12.1-1.2-7-9.8-1.8-18.4"/>
    <path d="m620.9 367.7c9.1-10.3 17.8-18.4 13.6-26.5"/>
   </g>
   <path d="m317.4 431c30.8-85.9 258.4-161.8 183.2.1" stroke-linejoin="round" stroke-width="5.625"/>
  </g>
 </g>
</svg>
