<svg height="210mm" viewBox="0 0 1052.4 744.1" width="297mm" xmlns="http://www.w3.org/2000/svg">
 <g fill="none" stroke-linecap="round">
  <g transform="translate(0 -308.26772)">
   <path d="m57.6 742.2h948.8" stroke="#969696" stroke-width="1.875"/>
   <g stroke="#000" stroke-dasharray="3.75 7.5" stroke-miterlimit="2" stroke-width=".9375">
    <path d="m58.3 844.1h948.8"/>
    <path d="m58.3 641.8h948.8"/>
    <path d="m58.3 540.6h948.8"/>
   </g>
  </g>
  <g stroke="#000" stroke-linejoin="round">
   <path d="m408.2 266.3c11.7-14.9 24.2-32.1 43.2-33 19.6.4 20.1 19.1 10.3 42.4-31.8 75.8-54.6 136-96.7 211.1-7 12-26.8 50.8-42.7 45.7-31.6-18.5 41.2-75.5 70-101.8 37.7-34.4 74.3-52.8 95.8-46.2 16.1 4.9 25.5 20.6 17.9 46.8" stroke-width="5.388435"/>
   <path d="m506 431.4c12.5-6.4 32.2-16 44.8-12.3" stroke-width="5.625"/>
   <path d="m554.4 425a5.9 5.9 0 0 1 -5.9 5.9 5.9 5.9 0 0 1 -5.9-5.9 5.9 5.9 0 0 1 5.9-5.9 5.9 5.9 0 0 1 5.9 5.8h-5.9z" stroke-width="6.571438"/>
   <path d="m638.4 419.8c-7.6 6.2-17.1 10.8-24.5 11.3s-13.7-1.8-16.3-7.4c-7.2-15.5 13.3-29.1 37.7-58.6 8.2-9.9 8.8-18.2 5.1-23.4-1.5-2.2-3.8-3.8-6.6-4.7-2.6-.9-8.1-.7-11.4-.3-9 1-16.1 7.1-24.3 16.2-17 19.7-39.3 48.8-54 67.4" stroke-width="5.624999"/>
  </g>
 </g>
</svg>
