<svg height="210mm" viewBox="0 0 1052.4 744.1" width="297mm" xmlns="http://www.w3.org/2000/svg">
 <g fill="none" stroke-linecap="round">
  <g transform="translate(0 -308.26772)">
   <path d="m57.6 742.2h948.8" stroke="#969696" stroke-width="1.875"/>
   <g stroke="#000" stroke-dasharray="3.75 7.5" stroke-miterlimit="2" stroke-width=".9375">
    <path d="m58.3 844.1h948.8"/>
    <path d="m58.3 641.8h948.8"/>
    <path d="m58.3 540.6h948.8"/>
   </g>
  </g>
  <g stroke="#000">
   <g stroke-linejoin="round">
    <g stroke-width="5.625">
     <path d="m310.3 431.4c19.7 1 309-95.7 309-95.7"/>
     <path d="m336.7 334.7c54.3-11 95.5-79.5 89.2-96.2-5.5-14.4-40.3 8.9-87.4 86.8-47.5 82-46.9 109.4-28 106.1"/>
     <path d="m619.4 335.7s4 43.5 21.1 47.7c4.8 1.2 10.6 1.2 15.4.7 14.9-1.3 25.9-6.1 35-12.3 23.3-14.2 23.3-36.9 14.1-37.2-7.7-.3-25.9 3.2-49.4 42-29.5 48.3-20.2 58.7-1.7 55.1 1.9-.4 3.9-.9 6-1.6"/>
    </g>
    <path d="m625.4 338.7 2.9 26.7" stroke-width="7.5"/>
    <path d="m631.9 335.7c-1.3 13.6.4 27.1 1.1 40.7" stroke-width="5.625"/>
   </g>
   <path d="m632.7 355.4c-.3 10.4 4.9 27.1 11.1 27.9" stroke-width="3.75"/>
   <path d="m619.4 335.7h12.5" stroke-width="5.625"/>
   <g stroke-linejoin="round">
    <path d="m660 430c2.1-.4 4.2-1 6.5-1.7 10.7-3.5 33.7-20.9 47.4-31.8" stroke-width="5.625"/>
    <path d="m713.9 396.5 28.7 41.3c12.2 16.6 11.9 33 10.1 43.7-2.5 17.3-5.1 27-33 51.4" stroke-width="5.624959"/>
   </g>
  </g>
 </g>
</svg>
