<svg height="210mm" viewBox="0 0 1052.4 744.1" width="297mm" xmlns="http://www.w3.org/2000/svg">
 <g fill="none" stroke-linecap="round">
  <g transform="translate(0 -308.26772)">
   <path d="m57.6 742.2h948.8" stroke="#969696" stroke-width="1.875"/>
   <g stroke="#000" stroke-dasharray="3.75 7.5" stroke-miterlimit="2" stroke-width=".9375">
    <path d="m58.3 844.1h948.8"/>
    <path d="m58.3 641.8h948.8"/>
    <path d="m58.3 540.6h948.8"/>
   </g>
  </g>
  <g stroke="#000">
   <g stroke-linejoin="round">
    <path d="m202.4 431.3c39-64.7 104.7-56.6 95.5-.1" stroke-width="5.625002"/>
    <ellipse cx="523.80701" cy="88.170341" rx="4.609393" ry="6.862875" stroke-width="5.625" transform="matrix(.72846687 .68508103 -.68508103 .72846687 0 0)"/>
    <path d="m297.9 431.1s15 .1 18.6-.6c2.7-.6 4-1.2 5.6-2.3" stroke-width="5.625"/>
    <path d="m322.1 428.2c7.3 14.8 43.7-43.4 59.2-62.6 7-8.8 12.3-15.4 18.2-20.2 7-5.6 14.9-9.1 23.8-9.2 14.3-.3 24.4 8.5 10.2 26.1-27.1 33.5-45.1 49.8-39.1 63.3 1.9 4.3 6.9 6.2 12.9 6.2" stroke-width="5.569707"/>
   </g>
   <path d="m433.4 338c3.4 1.8 9 5.8 4.4 15-3.9 7.8-14.3 19.1-19.6 24.2-10.5 9.9-31.7 30.2-25.6 46.5" stroke-width="5.472634"/>
   <path d="m396.6 413.1c-2 7-3.8 14.7 5.8 16.9" stroke-width="2.736317"/>
   <path d="m390.1 417.8c-.1 5.5 3.9 14.3 10.9 14.6" stroke-width="2.736317"/>
   <path d="m436.8 339.8c10.2 8.6-2.5 29.5-17.4 44.1-11.3 11-21.7 19.5-24.9 32.6" stroke-width="5.472634"/>
   <g stroke-linejoin="round">
    <path d="m492.5 431c21.2-7.7 38.6-30.1 48.1-51.3 5.6-12.4 8-24.4 7.8-32.7-.1-5.4-3.2-11.1-11.2-11.2-10-.1-22.7 10.1-34.6 21.9-8.1 8-20.7 21.3-32.3 33.5-12.3 13.1-41.1 39.3-63 40.5" stroke-width="5.625002"/>
    <path d="m492.5 431c-3.1 1.4-4.4-2.2-3.4-3.6 7.9-10.9 247.7-127.7 268.8-135.8 3.1-1.1 7.6-2.7 11.1-3.5 2.5-.6 5-.8 7.7-.9 2.5-.1 6 .2 8.7 1.1 2.8 1 5 2.6 6.6 4.7 3.7 5.2 3.1 13.5-5.1 23.4-24.4 29.4-45.3 42.8-38 58.3" stroke-width="5.624999"/>
    <path d="m765.3 382.1c-7.3.6-13.7-1.8-16.3-7.4" stroke-width="5.624999"/>
    <path d="m828.2 375.9a5.9 5.9 0 0 1 -5.9 5.9 5.9 5.9 0 0 1 -5.9-5.9 5.9 5.9 0 0 1 5.9-5.9 5.9 5.9 0 0 1 5.9 5.8h-5.9z" stroke-width="6.571438"/>
    <path d="m765.3 382.1c14.1.3 30.5-7.1 44.1-10.8 6.1-1.6 11.8-3.3 16.7-.6" stroke-width="5.624999"/>
   </g>
  </g>
 </g>
</svg>
