<svg height="210mm" viewBox="0 0 1052.4 744.1" width="297mm" xmlns="http://www.w3.org/2000/svg">
 <g fill="none" stroke-linecap="round">
  <g transform="translate(0 -308.26772)">
   <path d="m57.6 742.2h948.8" stroke="#969696" stroke-width="1.875"/>
   <g stroke="#000" stroke-dasharray="3.75 7.5" stroke-miterlimit="2" stroke-width=".9375">
    <path d="m58.3 844.1h948.8"/>
    <path d="m58.3 641.8h948.8"/>
    <path d="m58.3 540.6h948.8"/>
   </g>
  </g>
  <g stroke="#000" stroke-linejoin="round">
   <g stroke-width="5.624999">
    <path d="m663.9 335.9-46.6 95.4"/>
    <path d="m663.9 335.9h-8.2"/>
    <path d="m660 336.8-45.7 93.9"/>
    <path d="m617.3 431.3h-8.2"/>
    <path d="m655.7 336-46.6 95.4"/>
   </g>
   <path d="m388.3 431.2 267.4-95.2" stroke-width="5.625"/>
   <path d="m617.3 431.3 95-44.4" stroke-width="5.625"/>
   <path d="m712.3 386.9 21.3 44.2" stroke-width="5.624999"/>
   <path d="m261.4 391c-7.7 26.5 7.5 41.3 29.9 40.4 17.7-.7 39.8-11.4 58.6-33.9 8.5-9.5 19.8-26 28.6-37.2 12-15.3 23.3-24.2 35.4-24.4 12.1-.1 19.6 7.8 8.6 30.8-10.1 21.3-34.1 64.5-34.1 64.5" stroke-width="5.625"/>
   <path d="m828.1 235.1-94.5 196" stroke-width="5.624999"/>
  </g>
 </g>
</svg>
