<svg height="210mm" viewBox="0 0 1052.4 744.1" width="297mm" xmlns="http://www.w3.org/2000/svg">
 <g fill="none" stroke-linecap="round">
  <g transform="translate(0 -308.26772)">
   <path d="m57.6 742.2h948.8" stroke="#969696" stroke-width="1.875"/>
   <g stroke="#000">
    <g stroke-dasharray="3.75 7.5" stroke-miterlimit="2" stroke-width=".9375">
     <path d="m58.3 844.1h948.8"/>
     <path d="m58.3 641.8h948.8"/>
     <path d="m58.3 540.6h948.8"/>
    </g>
    <g stroke-linejoin="round" stroke-width="5.625">
     <path d="m656.7 689.1c-13.5 1.1-25.4.9-29.2.9-61.5.5 34.5-133.1 78.2-179.3 4.7-4.9 15.9-14.6 23-17.4"/>
     <ellipse cx="114.90592" cy="931.49286" rx="25.728558" ry="20.371416" transform="matrix(.79083574 -.61202846 .61202846 .79083574 0 0)"/>
    </g>
   </g>
  </g>
  <g stroke="#000" stroke-linejoin="round" stroke-width="5.625">
   <path d="m486.6 432.1s212-226.5 224.8-235"/>
   <path d="m656.7 380.8c28.1 2.7 91.2-43.5 115.3-44.5 24-.8 32.4 41.1 48.8 40.7 10.8-.3 18.5-10 25.1-17.1"/>
   <path d="m484.3 355.4c11.7-11.6 15.9-14.4 25.2-17.3 6.9-2.1 12.9-1.7 16.5 1.7 5.7 5.4 5.3 18.3-7.9 40.1l-31.5 52.1"/>
   <path d="m203.5 431.4c16.9-15.5 55.5-36.1 83.7-37.2 39.8-1.5 60.3 36.7 94.6 36.8 27.6-.5 77.6-51.1 102.5-75.6"/>
  </g>
 </g>
</svg>
