<svg height="210mm" viewBox="0 0 1052.4 744.1" width="297mm" xmlns="http://www.w3.org/2000/svg">
 <g fill="none" stroke-linecap="round">
  <g transform="translate(0 -308.26772)">
   <path d="m57.6 742.2h948.8" stroke="#969696" stroke-width="1.875"/>
   <g stroke="#000" stroke-dasharray="3.75 7.5" stroke-miterlimit="2" stroke-width=".9375">
    <path d="m58.3 844.1h948.8"/>
    <path d="m58.3 641.8h948.8"/>
    <path d="m58.3 540.6h948.8"/>
   </g>
  </g>
  <g stroke="#000" stroke-linejoin="round">
   <path d="m385.1 431c-4.9 1.2-7.2-3.3-2.8-5.5 15.3-7.7 270.4-45.8 270.4-45.8" stroke-width="5.625001"/>
   <g stroke-width="5.625">
    <path d="m651.5 402.6c3.3-6.2 81.2-144.4 94.8-167.5"/>
    <path d="m652.9 379.6 24.3 18.5"/>
    <path d="m677.2 398.1c4 3.4 6.1 5.5 6.7 9.3.4 2.5.2 5.3-.7 7.9-.7 2.1-1.8 4.3-3.3 6.2-1.3 1.7-2.8 3.3-4.7 4.7-1.8 1.4-3.7 2.5-5.7 3.3-1.3.5-2.6.9-3.9 1.2-1.8.4-3.6.5-5.3.4-2.3-.1-4.4-.7-6.3-1.7-1.6-.9-3.1-2-4.2-3.5-2.4-3.2-2.7-7.1-2.5-11.2.2-3.3 2.3-9.2 4.1-12.2"/>
    <path d="m648.5 381.3 27.6 22.4c4.4 4.9 8 10.8 3.6 18.1"/>
   </g>
  </g>
  <path d="m275.2 533.3s78.3-123.1 110.7-166.8c3.6-4.8 7.2-9.6 11.3-13.8 3.8-4 8.1-7.5 11.9-10.2 6-4.3 13.8-6.9 20-6.5 7.4.3 11.6 6.3 12 12.2 1.1 22.8-22.8 70.8-56 82.8" stroke="#000800" stroke-width="5.625"/>
 </g>
</svg>
