<svg height="210mm" viewBox="0 0 1052.4 744.1" width="297mm" xmlns="http://www.w3.org/2000/svg">
 <g fill="none" stroke-linecap="round">
  <g transform="translate(0 -308.26772)">
   <path d="m57.6 742.2h948.8" stroke="#969696" stroke-width="1.875"/>
   <g stroke="#000" stroke-dasharray="3.75 7.5" stroke-miterlimit="2" stroke-width=".9375">
    <path d="m58.3 844.1h948.8"/>
    <path d="m58.3 641.8h948.8"/>
    <path d="m58.3 540.6h948.8"/>
   </g>
  </g>
  <g stroke="#000" stroke-linejoin="round">
   <g stroke-width="5.625">
    <path d="m467.1 260.1c6.4-13.7 27.9-26.8 41.5-25.5 7.7.7 15.6 7.9 11.3 18.6-6.4 14.1-15.9 21.3-33.7 32-9.7 5.8-24.5 14.9-32.9 26.6-5 7-7.7 15.6-6 27.3 6.3 42.7-45.5 80.6-63.9 91.9"/>
    <path d="m627.8 336.3c-39.8 39.5-89.8 94.8-108.8 95.3-20.5.6-18.1-32.2-34.8-31.8-9 .2-99 21.4-103.7 25.3-3.3 2.7.1 7.1 3 5.8"/>
    <path d="m627.8 336.3-20.8 42.5"/>
   </g>
   <path d="m634.2 339.1-20.6 39.7" stroke-width="4.941419"/>
   <path d="m638.3 336.2-20.8 42.5" stroke-width="5.625"/>
   <path d="m630.4 337-20.6 39.7" stroke-width="4.941419"/>
   <g stroke-width="5.625">
    <path d="m638.3 336.2-10.5.2"/>
    <path d="m617.5 378.6-10.5.2"/>
   </g>
  </g>
 </g>
</svg>
