<svg height="210mm" viewBox="0 0 1052.4 744.1" width="297mm" xmlns="http://www.w3.org/2000/svg">
 <g fill="none" stroke-linecap="round">
  <g transform="translate(0 -308.26772)">
   <path d="m57.6 742.2h948.8" stroke="#969696" stroke-width="1.875"/>
   <g stroke="#000" stroke-dasharray="3.75 7.5" stroke-miterlimit="2" stroke-width=".9375">
    <path d="m58.3 844.1h948.8"/>
    <path d="m58.3 641.8h948.8"/>
    <path d="m58.3 540.6h948.8"/>
   </g>
  </g>
  <g stroke="#000" stroke-width="5.625">
   <g stroke-linejoin="round">
    <path d="m477.7 431.1c-17.1 5.2-51.9 38.3-60.3 48.5-14.9 18.3-30.4 45.5-21.8 51.8 15.8 11.6 35.8-11.1 50.6-36.2 18.6-31.4 45.6-101.5 53.1-131.4 22-88.4 71.4-137 88.3-126.6 8.9 5.4-6.1 43.5-35.4 71.2"/>
    <path d="m504.8 344.3c30.1-19.7 46.5-34 47.6-35.8"/>
    <path d="m477.7 431.1c22-11.1 249.8-138.3 233.8-129"/>
    <path d="m711.5 302.1s105.6-64 108.5-65.8c37.8-22.7 14.7 44.7-21.2 105.8-24.1 39.8-54.2 77.7-77.3 87.7-58.2 9.3 81.4-31.9 107.7-38.8"/>
    <path d="m829.1 391.1c4.8-1.3 7.5-1.8 9.7-1.6 24-.8 31.7 41.7 48.2 41.3 10.8-.3 19.2-10.7 25.8-17.8"/>
    <path d="m153.4 431.9 283.2-96.8"/>
   </g>
   <path d="m436.6 335.1-110.5 198.5"/>
   <path d="m206.6 335.3c50.3-13.7 101.9-81.2 87.3-98.5-9.8-11.7-36.5 12.9-83.2 89.9l-57.3 105.2" stroke-linejoin="round"/>
  </g>
 </g>
</svg>
