<svg height="210mm" viewBox="0 0 1052.4 744.1" width="297mm" xmlns="http://www.w3.org/2000/svg">
 <g fill="none" stroke-linecap="round">
  <g transform="translate(0 -308.26772)">
   <path d="m57.6 742.2h948.8" stroke="#969696" stroke-width="1.875"/>
   <g stroke="#000" stroke-dasharray="3.75 7.5" stroke-miterlimit="2" stroke-width=".9375">
    <path d="m58.3 844.1h948.8"/>
    <path d="m58.3 641.8h948.8"/>
    <path d="m58.3 540.6h948.8"/>
   </g>
  </g>
  <g stroke="#000">
   <g stroke-width="5.625">
    <path d="m486.1 394.1c16.6-17.2 258-107 258-107" stroke-linejoin="round"/>
    <path d="m822.7 133.3-95.9 169.9"/>
    <g stroke-linejoin="round">
     <path d="m519.6 396.6a19.2 25.1 41.6 0 1 -14.3 31.3 19.2 25.1 41.6 0 1 -27.6-6.8 19.2 25.1 41.6 0 1 14.3-31.3 19.2 25.1 41.6 0 1 27.6 6.8z"/>
     <ellipse cx="403.26724" cy="701.58087" rx="25.728558" ry="20.371418" transform="matrix(.79083574 -.61202846 .61202846 .79083574 0 0)"/>
    </g>
   </g>
   <path d="m770.8 297c.3 9.3-.4 14.6-6.3 21.9-3.1 3.8-7.2 7.1-12.7 9.7" stroke-width="5.624961"/>
   <path d="m767.2 291.8c5.4 18.3-4.6 29.6-17.3 35.9" stroke-width="6.599955"/>
   <path d="m751.4 324.7c-7.1 4.1-13.9 5.6-20.5.2" stroke-width="2.849979"/>
   <path d="m753.4 286.9c8.3 0 13.2 3.6 13.4 13.9" stroke-width="2.849979"/>
   <g stroke-linejoin="round">
    <path d="m339.8 384.5c48.1-9.2 58-34.4 55.1-43.4-3.2-9.6-26.7-7-51.4 33.8-26.7 43.6-22.3 56.6-10.9 56.6 24.3 0 69.6-43.3 95.5-47.3" stroke-width="5.625"/>
    <path d="m356.6 480c11.3-3.6 29-14.3 32.2-40.1s20.9-53.1 39.1-55.8" stroke-width="5.625001"/>
   </g>
  </g>
 </g>
</svg>
