<svg height="210mm" viewBox="0 0 1052.4 744.1" width="297mm" xmlns="http://www.w3.org/2000/svg">
 <g fill="none" stroke-linecap="round">
  <g stroke="#969696" transform="translate(0 -308.26772)">
   <path d="m57.6 742.2h948.8" stroke-width="1.875"/>
   <g stroke-dasharray="3.75 7.5" stroke-miterlimit="2" stroke-width=".9375">
    <path d="m58.3 844.1h948.8"/>
    <path d="m58.3 641.8h948.8"/>
    <path d="m58.3 540.6h948.8"/>
   </g>
  </g>
  <g stroke="#000" stroke-linejoin="round">
   <g stroke-width="5.625">
    <ellipse cx="619.47479" cy="1.424623" rx="4.609393" ry="6.862875" transform="matrix(.72846687 .68508103 -.68508103 .72846687 0 0)"/>
    <path d="m526.8 380.7 61.4-44.6"/>
    <path d="m588.2 336.1-22.2 45.1"/>
   </g>
   <path d="m594.6 338.8-22 42.3" stroke-width="4.941419"/>
   <path d="m598.7 335.9-22.2 45.1" stroke-width="5.625"/>
   <path d="m590.9 336.7-22 42.3" stroke-width="4.941419"/>
   <path d="m598.7 335.9-10.5.2" stroke-width="5.625"/>
   <path d="m576.5 381-10.5.2" stroke-width="5.625"/>
   <path d="m449.1 431.4c11.7 3 18.3-19.1 55.3-95.3l22.3 44.5" stroke-width="5.624999"/>
  </g>
 </g>
</svg>
