<svg height="210mm" viewBox="0 0 1052.4 744.1" width="297mm" xmlns="http://www.w3.org/2000/svg">
 <g fill="none" stroke-linecap="round">
  <g transform="translate(0 -308.26772)">
   <path d="m57.6 742.2h948.8" stroke="#969696" stroke-width="1.875"/>
   <g stroke="#000" stroke-dasharray="3.75 7.5" stroke-miterlimit="2" stroke-width=".9375">
    <path d="m58.3 844.1h948.8"/>
    <path d="m58.3 641.8h948.8"/>
    <path d="m58.3 540.6h948.8"/>
   </g>
  </g>
  <g stroke="#000" stroke-linejoin="round" stroke-width="5.625">
   <path d="m551.2 364.8c.7.1 1.3.2 1.8.5.2.1.3.2.4.3.9.7 1.2 1.8.7 3.7-1 3.6-5 5.7-7 6.4-4 1.5-7-1.9-4.7-5.4 1.4-2.2 3.9-4.7 6.9-5.3.2 0 .4-.1.6-.1h.7c.6 0 1.1.1 1.7.2"/>
   <path d="m517 381.7s-230.6 53.4-239.1 49.2"/>
   <path d="m282 419.7c.7.1 1.3.2 1.8.5.2.1.3.2.4.3.9.7 1.2 1.8.7 3.7-.9 3.6-5 5.6-6.9 6.4-4 1.4-6.9-1.8-4.7-5.4 1.4-2.2 3.9-4.6 6.8-5.2.2 0 .4-.1.6-.1h.7c.6 0 1.1.1 1.7.2"/>
   <ellipse cx="159.07904" cy="636.73163" rx="28.309935" ry="22.415304" transform="matrix(.79083574 -.61202846 .61202846 .79083574 0 0)"/>
   <path d="m545.8 376-28.8 5.7"/>
   <path d="m552 372.7c31.6-29.1 169.7-173.2 169.7-173.2"/>
   <path d="m721.7 199.5c29.5-31.4 49.3-58 33.7-63.4-14.6-5-40.2 8.9-87.4 86.8-46.6 80.6-41.2 109.6-21.7 107.6"/>
   <path d="m646.3 330.6c9.2-1 29.8-15.5 36.8-21.9"/>
  </g>
 </g>
</svg>
