<svg height="210mm" viewBox="0 0 1052.4 744.1" width="297mm" xmlns="http://www.w3.org/2000/svg">
 <g fill="none" stroke-linecap="round">
  <g transform="translate(0 -308.26772)">
   <path d="m57.6 742.2h948.8" stroke="#969696" stroke-width="1.875"/>
   <g stroke="#000" stroke-dasharray="3.75 7.5" stroke-miterlimit="2" stroke-width=".9375">
    <path d="m58.3 844.1h948.8"/>
    <path d="m58.3 641.8h948.8"/>
    <path d="m58.3 540.6h948.8"/>
   </g>
  </g>
  <g stroke="#000">
   <g stroke-linejoin="round">
    <path d="m383.3 391c-7.9 27 6 40 29.6 40.1 24.6 0 103.2-15.9 152.2-27.7 15.3-3.7 32.7-7.9 48.4-12.4 15.2-3.9 55.3-17.6 63.9-24.8 11.7-9.8 14.3-20.4 12.6-25.5-3.2-9.6-26.7-7-51.4 33.8-19.2 31.4-23.2 47.5-19 53.6 1.6 2.4 4.7 3.4 13 3.1" stroke-width="5.625"/>
    <g stroke-width="5.624999">
     <path d="m683.5 336.2c-11.9-1.2-26.3 9.5-34.4 18.7-9.1 10.3-11.9 13.6-18 22.9-10.3 17.6-22.2 41.6-10.2 51.9"/>
     <path d="m674.7 337.9c-4 2.4-12.8 10.7-18.1 16.7-5.4 6.1-11.6 14-17.2 22.8-12 17.9-16.8 24.9-19.3 32.7-1.3 4.2-2.6 11.9 1.2 18.2"/>
    </g>
   </g>
   <path d="m688.3 340.6c-3.7-6-14.4-1.1-19.7 3.9" stroke-width="2.812499"/>
   <path d="m632.4 390.4c-15.8 23.3-12.1 34.8-5.8 37.8 2.2 1 3.7 1.1 5.7 1.6" stroke-width="2.812499"/>
   <path d="m772.6 235.1s-75.7 139.3-102.3 171.3c-10.4 12.4-24.1 25.7-37.9 24.8" stroke-width="5.624999"/>
  </g>
 </g>
</svg>
