<svg height="210mm" viewBox="0 0 1052.4 744.1" width="297mm" xmlns="http://www.w3.org/2000/svg">
 <g fill="none" stroke-linecap="round">
  <g transform="translate(0 -308.26772)">
   <path d="m57.6 742.2h948.8" stroke="#969696" stroke-width="1.875"/>
   <g stroke="#000" stroke-dasharray="3.75 7.5" stroke-miterlimit="2" stroke-width=".9375">
    <path d="m58.3 844.1h948.8"/>
    <path d="m58.3 641.8h948.8"/>
    <path d="m58.3 540.6h948.8"/>
   </g>
  </g>
  <g stroke="#000" stroke-linejoin="round">
   <path d="m511.9 432.3c18-37.7 36.4-75.8 54.4-110 13-23.9 27.6-41.1 44.9-37.6 12.9 3.1 14.6 14.9 10.2 27.7-8.8 23.9-27 67.6-27 67.6" stroke-width="5.624999"/>
   <g stroke-width="5.625">
    <ellipse cx="716.11584" cy="-162.19638" rx="4.609393" ry="6.862875" transform="matrix(.72846687 .68508103 -.68508103 .72846687 0 0)"/>
    <path d="m594.4 380.1c24.9.3 33.2.5 37.8-1.9"/>
   </g>
  </g>
 </g>
</svg>
