<svg height="210mm" viewBox="0 0 1052.4 744.1" width="297mm" xmlns="http://www.w3.org/2000/svg">
 <g fill="none" stroke-linecap="round">
  <g transform="translate(0 -308.26772)">
   <path d="m57.6 742.2h948.8" stroke="#969696" stroke-width="1.875"/>
   <g stroke="#000" stroke-dasharray="3.75 7.5" stroke-miterlimit="2" stroke-width=".9375">
    <path d="m58.3 844.1h948.8"/>
    <path d="m58.3 641.8h948.8"/>
    <path d="m58.3 540.6h948.8"/>
   </g>
  </g>
  <g stroke="#000" stroke-linejoin="round" stroke-width="5.625">
   <path d="m649.2 381.6 177.9-.5"/>
   <ellipse cx="861.71478" cy="-295.36929" rx="4.609393" ry="6.862875" transform="matrix(.72846687 .68508103 -.68508103 .72846687 0 0)"/>
   <path d="m228.1 431.1 193.4-45.3"/>
   <path d="m207.6 384.8 20.5 46.3"/>
   <path d="m440.2 396a19.2 25.1 41.6 0 1 -14.3 31.3 19.2 25.1 41.6 0 1 -27.6-6.8 19.2 25.1 41.6 0 1 14.3-31.3 19.2 25.1 41.6 0 1 27.6 6.8z"/>
   <path d="m416.6 387.2c16.6-7.6 76.3-37.5 93.1-38.4 16-.6 17.8 30.3 32.6 30.7 9.4.3 16.4-6.1 22.1-12.9 16.6-19.8 35.3-29.7 51.3-30.5 9.9-.5 18.6 2.5 24.8 8.6 7.8 7.6 11.6 20.1 8.9 36.8"/>
  </g>
 </g>
</svg>
