<svg height="210mm" viewBox="0 0 1052.4 744.1" width="297mm" xmlns="http://www.w3.org/2000/svg">
 <g fill="none" stroke-linecap="round">
  <g transform="translate(0 -308.26772)">
   <path d="m57.6 742.2h948.8" stroke="#969696" stroke-width="1.875"/>
   <g stroke="#000" stroke-dasharray="3.75 7.5" stroke-miterlimit="2" stroke-width=".9375">
    <path d="m58.3 844.1h948.8"/>
    <path d="m58.3 641.8h948.8"/>
    <path d="m58.3 540.6h948.8"/>
   </g>
  </g>
  <g stroke="#000" stroke-linejoin="round" stroke-width="5.625">
   <path d="m471.4 330.9 344.5-98.3c30.1-8.6 49.4-23.3 66.1-42.6 18.4-21.2 28.7-43.8 25.4-52.6-5.5-14.4-40.3 8.9-87.6 86.9-44.2 76.4-41.8 107.2-20.5 106.5s32.1-16.1 70.7-47.3l22.1 47.1"/>
   <path d="m194.1 431.4 174.8-92.4"/>
   <path d="m173.7 385 20.5 46.3"/>
   <path d="m359.3 346.8c18.1-20.9 47.9-50.7 79-58.3 23-5.6 42.5 5.6 33.1 42.5"/>
   <ellipse cx="77.769539" cy="514.06665" rx="25.728558" ry="20.371416" transform="matrix(.79083574 -.61202846 .61202846 .79083574 0 0)"/>
  </g>
 </g>
</svg>
