<svg height="210mm" viewBox="0 0 1052.4 744.1" width="297mm" xmlns="http://www.w3.org/2000/svg">
 <g stroke-linecap="round">
  <g fill="none" transform="translate(0 -308.26772)">
   <path d="m57.6 742.2h948.8" stroke="#969696" stroke-width="1.875"/>
   <g stroke="#000" stroke-dasharray="3.75 7.5" stroke-miterlimit="2" stroke-width=".9375">
    <path d="m58.3 844.1h948.8"/>
    <path d="m58.3 641.8h948.8"/>
    <path d="m58.3 540.6h948.8"/>
   </g>
  </g>
  <g stroke="#000" stroke-linejoin="round">
   <g fill="none" stroke-width="5.625">
    <path d="m875.9 368.7c16.1-7.4 46.3-29.9 61-44.3"/>
    <ellipse cx="469.20035" cy="807.10706" rx="25.728558" ry="20.371416" transform="matrix(.79083574 -.61202846 .61202846 .79083574 0 0)"/>
    <path d="m697 431.4c45.9-16.6 74.3-100.3 45.2-95.6-7.4 1.2-18.6 8.2-34.2 23.5"/>
    <path d="m697 431.4c-15.7 3.3 110.6-78.4 110.6-78.4"/>
   </g>
   <g fill="#eb0000" fill-rule="evenodd" transform="matrix(1.4376953 0 0 1.4376953 -244.10009 70.653005)">
    <path d="m732.1 185.5c.8.1 1.4.2 1.9.5.2.1.3.2.5.3.9.7 1.3 2 .8 4-1 3.9-5.4 6.1-7.5 6.9-4.3 1.6-7.6-2-5.1-5.9 1.6-2.4 4.2-5.1 7.4-5.7.2 0 .4-.1.7-.1h.8c.6 0 1.2.1 1.9.3" stroke-width="5.625"/>
    <path d="m729.3 188.3c.3 0 .6.1.9.2.1 0 .2.1.2.1.4.3.6.9.4 1.8-.4 1.7-2.4 2.8-3.3 3.1-1.9.7-3.4-.9-2.3-2.6.7-1.1 1.9-2.3 3.3-2.6h.3.4c.3 0 .6 0 .8.1" stroke-width="4.981044"/>
   </g>
   <g fill="none" stroke-width="5.625">
    <path d="m799.2 356.2c10.2 5.6 28.7 15.1 58.1 17.4"/>
    <path d="m172.5 409.4c-10.7 10.1-20.6 17.3-28.1 19.6-55 17.3 33.8-137 77.9-183.7 4.7-5 11.2-10.7 18.9-11.9"/>
    <path d="m172.5 409.4 170.5-175.2h6.1l-111.2 197.6h5.6l151.2-18.7"/>
    <path d="m354.6 234.2-111.1 197.6"/>
    <path d="m343 234.2-111.2 197.6"/>
    <path d="m343 234.2h11.7"/>
    <path d="m231.8 431.8h11.7"/>
    <path d="m394.6 413.1c76.2-10 84.5-7.4 95.6-7.2 14.2.3 12.3 25.6 31.5 25.2 13-.3 38-16.6 46.9-21.8"/>
    <path d="m568.7 409.3c15.2-7.4 25.4-9.6 39.8-5.8 13.3 7.1 23 27.6 33.9 28 18.6.8 48-50.2 65.5-72.3"/>
   </g>
  </g>
 </g>
</svg>
