<svg height="210mm" viewBox="0 0 1052.4 744.1" width="297mm" xmlns="http://www.w3.org/2000/svg">
 <g fill="none" stroke-linecap="round">
  <g transform="translate(0 -308.26772)">
   <path d="m57.6 742.2h948.8" stroke="#969696" stroke-width="1.875"/>
   <g stroke="#000" stroke-dasharray="3.75 7.5" stroke-miterlimit="2" stroke-width=".9375">
    <path d="m58.3 844.1h948.8"/>
    <path d="m58.3 641.8h948.8"/>
    <path d="m58.3 540.6h948.8"/>
   </g>
  </g>
  <g stroke="#000" stroke-width="5.625">
   <g stroke-linejoin="round">
    <path d="m374.2 431.1c4.9.6 10.6-4.5 14.7-7.4 13.5-9.6 24.3-23.7 34.5-39.1l30.9-50"/>
    <path d="m419.1 431.5c-20.2-1.5-44.9-.4-44.9-.4"/>
    <path d="m498.7 336.6-79.5 94.5"/>
    <ellipse cx="1423.8472" cy="1180.1055" rx="19.945965" ry="15.792861" transform="matrix(.79083574 -.61202846 .61202846 .79083574 0 0)"/>
    <path d="m1802 54.2 33.1-26.9 24.3 18.5"/>
    <path d="m1845.8 45.5c12.1-5.8 21.6-10.1 34.7-9.7"/>
   </g>
   <path d="m420.7 430.8s-14.5 19.1-15.5 22.9c-1 3.9-1.1 7.7-.3 11.1 1.1 4.8 4 8.9 8.5 11.3 2.1 1.1 4.4 1.8 6.8 2 2.7.2 5.5-.1 8.3-1 2.1-.7 4.2-1.6 6.2-2.9 1.4-.9 2.8-2 4.1-3.1 1.9-1.8 3.7-3.9 5.1-6.2 1.5-2.4 2.6-4.9 3.2-7.3.8-2.8 1.1-5.7.8-8.4-.3-3.3-1.3-6.5-3.1-9.1-1.5-2.2-3.4-4-5.9-5.2-2.1-1.1-4.4-1.8-6.8-2l-11.6-2.1"/>
   <path d="m611.2 286.2c-19.1 11.1-93.5 78-102.9 79.9-7.6 1.6-17.8-3.3-9.6-29.5" stroke-linejoin="round"/>
   <path d="m565.1 370.6c-40 31.1-81 88.1-72.2 103.9 2.9 5.3 34.7 12.4 62.3-63.3 15.8-47.4 16.5-113.3 70.8-131.6" stroke-linejoin="round"/>
   <path d="m604.8 291c-27.4 24.6-29.1 58.7-39.9 100.9-7.5 29.4-23.1 69.4-55.3 83.9"/>
   <path d="m595.1 301.8c-22.2 34.7-16.4 49.6-26 88-10 39.9-19.2 60.3-50.1 80.6"/>
   <path d="m565.1 370.6c21.9-20.2 134.6-120.4 136.2-121.8 11-9.7 19.6-13.8 26-14.2 14.2-.7 16.9 17.7 10.2 35.4-16.1 43-43.8 79.3-70.8 116.2-46.6 60.3-56.2 43.4-58.1 40.9-7.2-9.2 3.8-39.6 36.3-62.9 14.5-11.3 35.2-20.2 58.2-30.8" stroke-linejoin="round"/>
  </g>
 </g>
</svg>
