<svg height="210mm" viewBox="0 0 1052.4 744.1" width="297mm" xmlns="http://www.w3.org/2000/svg">
 <g fill="none" stroke-linecap="round">
  <g transform="translate(0 -308.26772)">
   <path d="m57.6 742.2h948.8" stroke="#969696" stroke-width="1.875"/>
   <g stroke="#000" stroke-dasharray="3.75 7.5" stroke-miterlimit="2" stroke-width=".9375">
    <path d="m58.3 844.1h948.8"/>
    <path d="m58.3 641.8h948.8"/>
    <path d="m58.3 540.6h948.8"/>
   </g>
  </g>
  <g stroke="#000">
   <g stroke-linejoin="round">
    <path d="m526.6 380.8 25-53.3c11.6-24.8 9.4-37.3 1.5-40.6-2-.9-4.4-1.1-7.1-.7-8.9.6-18.6 6.9-29.4 17-18.5 17.3-152 145.5-185 179.4-19.5 20-27 41.3-13.8 49.4 9.9 5.5 23.1-1.1 49.3-43.2l89.2-152.4" stroke-width="5.625"/>
    <path d="m554.1 314.8-35.4 65.8" stroke-width="5.624999"/>
    <path d="m541.8 340.5-19.4 39.7" stroke-width="3.75"/>
    <path d="m518.7 380.6 7.9.2" stroke-width="5.624999"/>
   </g>
   <path d="m531.9 292.1c15.6-9.2 21.8-3.3 24 1.4 3.6 7.7-4.4 23.5-10.4 35.5" stroke-width="3.75"/>
   <path d="m562.6 380.4-36 .4" stroke-width="5.625002"/>
   <g stroke-linejoin="round" stroke-width="5.625">
    <ellipse cx="668.04895" cy="-114.16998" rx="4.609393" ry="6.862875" transform="matrix(.72846687 .68508103 -.68508103 .72846687 0 0)"/>
    <path d="m562.6 380.4c21.8 1.9 36.6-30.8 57.4-30.9 16-.6 24.4 30.9 38.2 30.7 8.7-.1 14.1-5.3 19.4-11.5"/>
   </g>
  </g>
 </g>
</svg>
