<svg height="210mm" viewBox="0 0 1052.4 744.1" width="297mm" xmlns="http://www.w3.org/2000/svg" xmlns:xlink="http://www.w3.org/1999/xlink">
 <linearGradient id="a" gradientUnits="userSpaceOnUse" x1="6525.5449" x2="6149.6719" y1="36928.09" y2="37482.008">
  <stop offset="0"/>
  <stop offset="1" stop-opacity="0"/>
 </linearGradient>
 <g stroke-linecap="round">
  <g fill="none" transform="translate(0 -308.26772)">
   <path d="m57.6 742.2h948.8" stroke="#969696" stroke-width="1.875"/>
   <g stroke="#000" stroke-dasharray="3.75 7.5" stroke-miterlimit="2" stroke-width=".9375">
    <path d="m58.3 844.1h948.8"/>
    <path d="m58.3 641.8h948.8"/>
    <path d="m58.3 540.6h948.8"/>
   </g>
  </g>
  <g stroke="#000" stroke-width="5.625">
   <g fill="none">
    <path d="m614.7 232.5c-12.3 39.5-6.2 54.3 7.5 55 6.7.4 14.8-3.2 24.1-7.7 12.1-5.9 118.3-66.9 118.3-66.9l54.2-30.5" stroke-linejoin="round"/>
    <path d="m614.7 232.5-111.5 198.9"/>
    <g stroke-linejoin="round">
     <path d="m473.8 385.3c-15.7 11.3-34.2 24.3-52.1 33.6-6.4 3.3-11.9 5.6-18.8 8.3-9.4 3.5-27 9-34.9-4.5-2-3.6-3.2-8.3-3.6-13.9-3.6-43.8 38.3-140.8 101.7-175"/>
     <path d="m473.8 385.3 22.1 46.2"/>
     <path d="m481.1 385.2 22.1 46.2"/>
    </g>
    <path d="m473.8 385.3 7.2-.1"/>
    <path d="m477.9 386.6 21 43.9" stroke-linejoin="round"/>
    <path d="m495.9 431.5 7.2-.1"/>
   </g>
   <g fill="url(#a)" fill-rule="evenodd" transform="translate(-5162.9435 -37001.843)">
    <path d="m5438.4 37160.80000000001-62.7 322.7"/>
    <g stroke-linejoin="round">
     <path d="m5438.4 37160.80000000001h58.1"/>
     <path d="m5375.7 37483.5h58.1"/>
    </g>
   </g>
   <g fill="none" transform="translate(-5270.6668 -37001.843)">
    <path d="m6212.4 37159.30000000001-62.7 322.7"/>
    <g stroke-linejoin="round">
     <path d="m6154.2 37159.30000000001h58.1"/>
     <path d="m6091.5 37482h58.1"/>
    </g>
   </g>
  </g>
 </g>
</svg>
