<svg height="210mm" viewBox="0 0 1052.4 744.1" width="297mm" xmlns="http://www.w3.org/2000/svg">
 <g fill="none" stroke-linecap="round">
  <g transform="translate(0 -308.26772)">
   <path d="m57.6 742.2h948.8" stroke="#969696" stroke-width="1.875"/>
   <g stroke="#000" stroke-dasharray="3.75 7.5" stroke-miterlimit="2" stroke-width=".9375">
    <path d="m58.3 844.1h948.8"/>
    <path d="m58.3 641.8h948.8"/>
    <path d="m58.3 540.6h948.8"/>
   </g>
  </g>
  <g stroke-linejoin="round">
   <path d="m536.4 362.9c13.5-10.7 31.1-21.9 37.4-23.8 24.8-6.9 35 2.5 12.3 40.5l-29.8 52.1" stroke="#000008" stroke-width="5.625"/>
   <path d="m556.3 431.6 58.2-59" stroke="#000008" stroke-width="5.625"/>
   <g stroke="#000">
    <path d="m657.3 407.2c-13 3.5-36.7 9.9-40.2 10.9-5.2 1.4-9.2 5.1-9.2 7.7 0 3.7.8 5.8 5.8 6.3 3 .3 9.9-5.8 11.3-6.6 48.9-28 71.8-129.3 9.4-73.8-2.3 2.1-17.4 18.4-20 20.9" stroke-width="5.419139"/>
    <g stroke-width="5.625">
     <path d="m657.3 407.2c13.3-3.1 22-5.7 27.6-5.9 17.5-.5 15.5 47.6 45.2 22.9"/>
     <path d="m323.3 431.7c10.6-12.1 23.3-31.1 40.1-31.9 16-.6 20.6 31.9 31.6 31.6 7.2-.2 13.4-8.4 17.8-13.8"/>
     <path d="m412.8 417.5s124.1-162.6 126.3-165.3c2.6-3.2 5-5.8 7.4-7.8 83-65-26.7 159.9-88.2 186.6-3 .7-5.5 1-7.6.6 0 0-3.9-.7-2.2-4.7"/>
     <path d="m574.5 252.8-91.8 157.8"/>
    </g>
    <path d="m568.7 269.1-73.1 125.6" stroke-width="8.4375"/>
    <path d="m466 426.5c6.6-8.2 16.4-19 22.5-27.9" stroke-width="3.75"/>
    <g stroke-width="5.625">
     <path d="m557.6 296.6-40.2 67.9"/>
     <path d="m576.2 239.1c.7 14-5.4 18.6-14.3 37.1"/>
    </g>
   </g>
   <path d="m448.5 427c-.2-2.1 87.9-64.1 87.9-64.1" stroke="#000008" stroke-width="5.625"/>
  </g>
 </g>
</svg>
