<svg height="210mm" viewBox="0 0 1052.4 744.1" width="297mm" xmlns="http://www.w3.org/2000/svg">
 <g fill="none" stroke-linecap="round">
  <g transform="translate(0 -308.26772)">
   <path d="m57.6 742.2h948.8" stroke="#969696" stroke-width="1.875"/>
   <g stroke="#000" stroke-dasharray="3.75 7.5" stroke-miterlimit="2" stroke-width=".9375">
    <path d="m58.3 844.1h948.8"/>
    <path d="m58.3 641.8h948.8"/>
    <path d="m58.3 540.6h948.8"/>
   </g>
  </g>
  <g stroke="#000" stroke-linejoin="round">
   <path d="m616.4 404.3c1.4.1 2.7.4 3.6 1 .3.2.6.4.9.6 1.8 1.4 2.4 3.7 1.4 7.5-1.9 7.3-10.2 11.5-14.1 13-8.1 2.9-14.2-3.8-9.5-11 2.9-4.5 8-9.5 13.9-10.7.4-.1.8-.2 1.2-.2.5-.1 1-.1 1.5-.1 1.1 0 2.3.2 3.5.5" stroke-width="10.905816"/>
   <path d="m612.8 412.8c.5 0 .8.1 1.2.3.1.1.2.1.3.2.6.4.8 1.2.5 2.4-.6 2.3-3.3 3.7-4.5 4.2-2.6.9-4.5-1.2-3.1-3.5.9-1.4 2.5-3 4.5-3.4.1 0 .3 0 .4-.1h.5c.4 0 .7 0 1.1.2" stroke-width="11.88091"/>
   <g stroke-width="5.625">
    <path d="m286.9 431.3c10.6-12.1 23.1-29.4 40-30.3 16-.6 21.6 31 32.6 30.7 7.2-.2 12.4-7.6 16.7-13"/>
    <path d="m376.2 418.8s124.1-162.6 126.3-165.3c2.6-3.2 5-5.8 7.4-7.8 83-65-26.7 159.9-88.2 186.6-2.5.6-4.7.8-6.6.7"/>
    <path d="m537.9 254.1-91.7 157.8"/>
   </g>
   <path d="m532.1 270.4-73 125.6" stroke-width="8.4375"/>
   <path d="m429.4 427.9c6.6-8.2 16.4-19 22.5-27.9" stroke-width="3.75"/>
   <g stroke-width="5.625">
    <path d="m521.1 297.9-40.2 67.9"/>
    <path d="m539.6 240.5c.7 14-5.4 18.6-14.3 37.1"/>
    <path d="m640.8 405.3 70.6-112.8"/>
    <path d="m711.4 292.5c21.6-28.9 36.1-52.4 56.9-56.8 10.7-2.7 14.3.7 18.7 3.2 7.6 4.3 8 17.2-6 41.5l-29.8 52.1"/>
    <path d="m549 347.7s-149.9 82.7-133.9 85.4"/>
    <path d="m640.8 405.3c-2.1 3.5-5.6 8-12.7 14.4-4.7 4.3-11 7.5-14.1 8.5-7.8 2.6-28.8 2-43.5 2.1s-33.1.8-33.1.8l-5.6-.2 3.3.1s8.4-4 9.8-4.8c10.9-6.3 20.6-16.1 28.3-27.1 21.6-30.5 28.6-64 6.5-61.9-11.8 1.2-19.4 5.4-30.6 10.4"/>
   </g>
  </g>
 </g>
</svg>
