<svg height="210mm" viewBox="0 0 1052.4 744.1" width="297mm" xmlns="http://www.w3.org/2000/svg">
 <g fill="none" stroke-linecap="round">
  <g transform="translate(0 -308.26772)">
   <path d="m57.6 742.2h948.8" stroke="#969696" stroke-width="1.875"/>
   <g stroke="#000" stroke-dasharray="3.75 7.5" stroke-miterlimit="2" stroke-width=".9375">
    <path d="m58.3 844.1h948.8"/>
    <path d="m58.3 641.8h948.8"/>
    <path d="m58.3 540.6h948.8"/>
   </g>
  </g>
  <g stroke="#000">
   <path d="m403.1 431 60.6-.1" stroke-linejoin="round" stroke-width="5.624999"/>
   <ellipse cx="627.12128" cy="-13.358493" rx="5.271423" ry="7.848564" stroke-linejoin="round" stroke-width="14.034714" transform="matrix(.72846687 .68508103 -.68508103 .72846687 0 0)"/>
   <path d="m542.1 384.2-71.7 44.3" stroke-width="5.625002"/>
   <g stroke-linejoin="round">
    <path d="m678 336.1-45.2 95.3" stroke-width="5.625"/>
    <path d="m632.8 431.4c42-50.3 72.1-93.1 96.2-94.8 2.7-.3 5.1-.1 7.1.7 7.8 3.3 10.1 15.8-1.5 40.6l-25 53.4" stroke-width="5.625"/>
    <path d="m739.1 358.2-36.9 73.3" stroke-width="5.440073"/>
    <path d="m725.7 390.4-20.3 40.7" stroke-width="3.626714"/>
    <path d="m702.2 431.5 7.4-.2" stroke-width="5.440073"/>
   </g>
   <path d="m736.6 338.5c4.1 1.7 6.9 9.7-.3 23.7" stroke-width="3.626714"/>
   <g stroke-width="5.625">
    <path d="m776.9 385.1-67.3 46.2" stroke-linejoin="round"/>
    <path d="m346.9 234.2-108 196.9"/>
   </g>
  </g>
 </g>
</svg>
