<svg height="210mm" viewBox="0 0 1052.4 744.1" width="297mm" xmlns="http://www.w3.org/2000/svg">
 <g fill="none" stroke-linecap="round">
  <g transform="translate(0 -308.26772)">
   <path d="m57.6 742.2h948.8" stroke="#969696" stroke-width="1.875"/>
   <g stroke="#000" stroke-dasharray="3.75 7.5" stroke-miterlimit="2" stroke-width=".9375">
    <path d="m58.3 844.1h948.8"/>
    <path d="m58.3 641.8h948.8"/>
    <path d="m58.3 540.6h948.8"/>
   </g>
  </g>
  <g stroke="#000">
   <g stroke-linejoin="round">
    <path d="m414 431c18-14.4 34.2-33.8 47.6-47.9 11.5-12 21.3-22.1 30.2-30.3 10.5-9.7 20-15.7 28.7-16.3 2.7-.3 5.1-.1 7.1.7 7.8 3.3 10.1 15.8-1.5 40.6l-25 53.3" stroke-width="5.625"/>
    <path d="m530.7 358.1-36.9 73.3" stroke-width="5.440073"/>
    <path d="m517.2 390.3-20.2 40.7" stroke-width="3.626714"/>
    <path d="m493.8 431.4 7.4-.2" stroke-width="5.440073"/>
   </g>
   <path d="m528.1 338.4c4.1 1.7 6.9 9.7-.3 23.7" stroke-width="3.626714"/>
   <path d="m510.8 235.1-96.8 195.9" stroke-width="5.624959"/>
   <path d="m501.1 431.2c39.3-47.3 52-60.7 67.8-74.1 12.7-10.7 29.9-20.2 42.9-21.3 4.4-.4 8.5-.1 12.1.8 3.7.9 7.1 2.4 9.9 4.6 9.5 7.3 12.9 21.9 5.8 42.7" stroke-linejoin="round" stroke-width="5.692855"/>
  </g>
 </g>
</svg>
