<svg height="210mm" viewBox="0 0 1052.4 744.1" width="297mm" xmlns="http://www.w3.org/2000/svg">
 <g fill="none" stroke-linecap="round">
  <g transform="translate(0 -308.26772)">
   <path d="m57.6 742.2h948.8" stroke="#969696" stroke-width="1.875"/>
   <g stroke="#000" stroke-dasharray="3.75 7.5" stroke-miterlimit="2" stroke-width=".9375">
    <path d="m58.3 844.1h948.8"/>
    <path d="m58.3 641.8h948.8"/>
    <path d="m58.3 540.6h948.8"/>
   </g>
  </g>
  <g stroke="#000" stroke-linejoin="round" stroke-width="5.625">
   <path d="m367.7 431c24.9-.2 61.4-26.8 117.5-28.1s67.9 28.4 114.7 27.9c26.7-.3 72.2-17 106.1-35.7 21.4-11.8 36.1-24.3 45.1-34.2 7.1-7.7 8.2-15.7 6.9-19.9-3.2-9.6-26.7-7-51.4 33.8-26.7 43.6-24 57.7-10.9 56.6"/>
   <path d="m695.7 431.4c23.4-1.4 66.6-30.8 87.4-30.9 16-.6 18.8 30.9 32.6 30.7 8.7-.1 14.1-5.3 19.4-11.5"/>
   <path d="m307.1 423.4c9.2-7.3 21.2-18.4 29.9-26.6 34.3-32.4 83.2-77 104.1-97.8 30.2-30.2 49.4-58.2 34.3-63.4-14.6-5-48.9 16.6-92.6 91-16.4 27.9-25.4 48.6-30.4 65.7-7.6 25.9-2.4 39.2 15.2 38.7"/>
   <path d="m199.6 431.1s44.6-32.4 61.8-29.2 16 46.2 45.6 21.5"/>
   <path d="m247 404.2c5.4-2.4 14.4-.8 22.3 16.5 5.6 12.2 16.2 10.3 22.8 10.3"/>
   <path d="m258.1 403.9c7.6 3.9 5 .9 19.8 23.5"/>
  </g>
 </g>
</svg>
