<svg height="210mm" viewBox="0 0 1052.4 744.1" width="297mm" xmlns="http://www.w3.org/2000/svg">
 <g stroke-linecap="round">
  <g fill="none" transform="translate(0 -308.26772)">
   <path d="m57.6 742.2h948.8" stroke="#969696" stroke-width="1.875"/>
   <g stroke="#000" stroke-dasharray="3.75 7.5" stroke-miterlimit="2" stroke-width=".9375">
    <path d="m58.3 844.1h948.8"/>
    <path d="m58.3 641.8h948.8"/>
    <path d="m58.3 540.6h948.8"/>
   </g>
  </g>
  <g fill="none">
   <g stroke-linejoin="round">
    <g stroke-width="5.625">
     <g stroke="#000">
      <path d="m357.7 326.9c-68.4 119.6-30.6 120.4 7.3 84"/>
      <path d="m412.1 432.7s97.7-151.2 114.1-175.2c13.9-20.9 27.5-25.6 39.2-21.9 7.2 2.4 9.8 9.3 9 19.5-.6 7.3-3.9 17.1-11.2 29.5l-27.1 46.2"/>
      <path d="m365 410.9 28.9-24.3 18.2 46"/>
      <path d="m369.4 346.4c50.5-45.8 100.6-101.9 78.1-109.6-14.6-5-42.6 12.2-89.8 90.1"/>
     </g>
     <path d="m297.2 408.3c18.6-14.6 60.9-50.7 72.2-61.9" stroke="#000200"/>
    </g>
    <g stroke="#010000">
     <path d="m285.3 336-47.8 86.7" stroke-width="6.5625"/>
     <path d="m181.5 430.8 94.4-95.2-39 72.4c-6.6 12.3.3 21.4 11.6 22.8 1.5.2 3.1.2 4.7.1 15.1-.6 28.2-10.8 43.9-22.8" stroke-width="5.625"/>
     <path d="m280.6 336-44.7 81.9" stroke-width="6.5625"/>
    </g>
   </g>
   <path d="m242.4 416.6c-1.6 4.1-2.6 6.5.8 11.9" stroke="#010000" stroke-width="3.75"/>
   <g stroke-linejoin="round">
    <path d="m285.3 336-9.3-.4" stroke="#010000" stroke-width="6.5625"/>
    <g stroke="#000" stroke-width="5.625">
     <ellipse cx="288.93616" cy="740.62988" rx="25.728558" ry="20.371416" transform="matrix(.79083574 -.61202846 .61202846 .79083574 0 0)"/>
     <path d="m617.1 428.5c-9.4 8.4-14-1.5-7.2-8 6.4-6.1 65-31.7 65-31.7"/>
     <path d="m536.2 330.8 57.4-39.8"/>
    </g>
   </g>
  </g>
  <g stroke="#000" stroke-linejoin="round">
   <g fill-rule="evenodd" transform="matrix(1.232891 0 0 1.232891 -109.87446 185.22137)">
    <path d="m732.1 185.5c.8.1 1.4.2 1.9.5.2.1.3.2.5.3.9.7 1.3 2 .8 4-1 3.9-5.4 6.1-7.5 6.9-4.3 1.6-7.6-2-5.1-5.9 1.6-2.4 4.2-5.1 7.4-5.7.2 0 .4-.1.7-.1h.8c.6 0 1.2.1 1.9.3" stroke-width="5.625"/>
    <path d="m729.3 188.3c.3 0 .6.1.9.2.1 0 .2.1.2.1.4.3.6.9.4 1.8-.4 1.7-2.4 2.8-3.3 3.1-1.9.7-3.4-.9-2.3-2.6.7-1.1 1.9-2.3 3.3-2.6h.3.4c.3 0 .6 0 .8.1" stroke-width="4.981044"/>
   </g>
   <g fill="none" stroke-width="5.625">
    <path d="m820.1 427 52.3-47.3"/>
    <path d="m668.2 393.7c16.1-13.5 63.1-55.5 91.1-58 5.7-.5 8.7 3.7 9.4 9.9 1.4 12.4-6.3 34.4-19.7 53.5-7.8 10.8-26.9 32.3-39.6 32.2 29.8-.3 72.6.6 103.8-.4"/>
    <path d="m818.5 420.5c.6.1 1.2.2 1.6.4.1.1.3.2.4.3.8.6 1.1 1.7.6 3.3-.9 3.3-4.6 5.2-6.3 5.8-3.6 1.3-6.3-1.7-4.3-4.9 1.3-2 3.6-4.3 6.2-4.8.2 0 .4-.1.5-.1h.7c.5 0 1 .1 1.6.2"/>
    <path d="m617.1 428.5c60.1-75.3-82.8-52.9-23.6-137.6"/>
   </g>
  </g>
 </g>
</svg>
