<svg height="210mm" viewBox="0 0 1052.4 744.1" width="297mm" xmlns="http://www.w3.org/2000/svg">
 <g fill="none" stroke-linecap="round">
  <g transform="translate(0 -308.26772)">
   <path d="m57.6 742.2h948.8" stroke="#969696" stroke-width="1.875"/>
   <g stroke="#000" stroke-dasharray="3.75 7.5" stroke-miterlimit="2" stroke-width=".9375">
    <path d="m58.3 844.1h948.8"/>
    <path d="m58.3 641.8h948.8"/>
    <path d="m58.3 540.6h948.8"/>
   </g>
  </g>
  <g stroke="#000" stroke-width="5.625">
   <g stroke-linejoin="round">
    <path d="m813.8 340 83.4-52.6"/>
    <path d="m662.5 336.6c-40.3 12.4-78.8 79.1-60.6 92.3 4.1 3.5 16.9 2 34.9-6.9"/>
    <path d="m636.8 422 182.2-84"/>
    <ellipse cx="431.98282" cy="787.98047" rx="25.728558" ry="20.371416" transform="matrix(.79083574 -.61202846 .61202846 .79083574 0 0)"/>
    <path d="m520.9 410.3s119.5-69.2 141.6-73.7"/>
    <path d="m558.6 430.8c11.2-27.4-9.2-38.1-20.9-44.2-32.6-16.9-29.7-38.2-22.8-51.3"/>
   </g>
   <path d="m464.3 376.5-214.3 8.1"/>
   <g stroke-linejoin="round">
    <path d="m126.7 359.7c9.3-12.6 18-18.1 26.2-21.7 24.8-6.9 35 2.5 12.3 40.5l-29.8 52.1"/>
    <path d="m135.3 430.7 90.7-93.9"/>
    <path d="m226.1 336.8 23.9 47.9"/>
    <path d="m906.7 431.3c14.8-7.7 32.2-16.2 28.9-34.4-.9-14.2-55-41.3-61.8-64.1-3.5-11.7 8.2-28.9 23.4-45.3"/>
   </g>
  </g>
 </g>
</svg>
