<svg height="210mm" viewBox="0 0 1052.4 744.1" width="297mm" xmlns="http://www.w3.org/2000/svg">
 <g fill="none" stroke-linecap="round">
  <g transform="translate(0 -308.26772)">
   <path d="m57.6 742.2h948.8" stroke="#969696" stroke-width="1.875"/>
   <g stroke="#000" stroke-dasharray="3.75 7.5" stroke-miterlimit="2" stroke-width=".9375">
    <path d="m58.3 844.1h948.8"/>
    <path d="m58.3 641.8h948.8"/>
    <path d="m58.3 540.6h948.8"/>
   </g>
  </g>
  <g stroke="#000">
   <g stroke-width="5.625">
    <g stroke-linejoin="round">
     <path d="m541.1 384s165 4.3 191.2-5.6"/>
     <path d="m559.9 289.6-38 65.5c-15.5 28.3 11.9 29 19.2 28.9"/>
     <ellipse cx="789.22717" cy="-230.29727" rx="4.609393" ry="6.862874" transform="matrix(.72846687 .68508103 -.68508103 .72846687 0 0)"/>
     <ellipse cx="44.042953" cy="550.89716" rx="25.728558" ry="20.371416" transform="matrix(.79083574 -.61202846 .61202846 .79083574 0 0)"/>
     <path d="m355.5 395.9c22.5-27.4 60.4-72 72.8-85.5 6.7-8 15.2-15.4 24-19.2 5.3-2.3 10.6-3.6 15.3-3.9 14.9-1 24.3 7.6 9.4 25.9-27.4 33.8-45.5 50.2-39.4 63.9.9 2.2 2.6 3.6 4.7 4.4 1.7.7 3.8.9 6.1.9 25.1.1 62.5-38.9 111.5-92.9"/>
    </g>
    <path d="m477.9 290.5c14.5 10.1 4.3 27.8-12.4 44.2-14.4 14-23.4 26.4-29.5 38.7"/>
    <path d="m477.9 290.5c.8-1.1 3.9 6.1.7 14.2-3.2 8.4-12.8 17.8-18.3 22.9-10.8 10.1-30.6 29-24.3 45.7"/>
   </g>
   <g stroke-width="2.8125">
    <path d="m469.4 288.8c11.3 1.3 8.8 6.5 9.1 11"/>
    <path d="m441.1 366c-2.7 4.9-3.8 12 2.3 14.5"/>
    <path d="m433.4 367.4c-.1 5.7 2.9 11.5 4.9 13.1"/>
   </g>
  </g>
 </g>
</svg>
