<svg height="210mm" viewBox="0 0 1052.4 744.1" width="297mm" xmlns="http://www.w3.org/2000/svg">
 <g fill="none" stroke-linecap="round">
  <g transform="translate(0 -308.26772)">
   <path d="m57.6 742.2h948.8" stroke="#969696" stroke-width="1.875"/>
   <g stroke="#000" stroke-dasharray="3.75 7.5" stroke-miterlimit="2" stroke-width=".9375">
    <path d="m58.3 844.1h948.8"/>
    <path d="m58.3 641.8h948.8"/>
    <path d="m58.3 540.6h948.8"/>
   </g>
  </g>
  <g stroke="#000" stroke-width="5.625">
   <g stroke-linejoin="round">
    <path d="m581.3 413.4c1.1.1 2.1.3 2.8.7.3.1.5.3.7.4 1.4 1.1 1.9 2.9 1.1 5.8-1.5 5.7-7.9 8.9-11 10.1-6.3 2.3-11-2.9-7.4-8.5 2.3-3.5 6.2-7.4 10.8-8.3.3-.1.6-.1.9-.2.4 0 .8-.1 1.2-.1.9 0 1.8.1 2.7.4"/>
    <path d="m571.4 431.2c10.8 2.9 19.2-7.1 22.7-11 6.2-7 14.4-16 15.8-17.5 24.9-25.2 60.4-22.2 30.7 27.6l-31.2 52.3"/>
    <path d="m438.6 432c27-39.1 57.3-49.8 74.4-49.5 21.6.3 38.4 3.8 39.3 48.9"/>
   </g>
   <path d="m438.6 432c-8.7 14.8-26 44.5-28.7 49s-5.8 10.2-8.2 16.4c-12.2 28.5-2.3 35.4 10.9 35.7 15.4.4 28.9-12.2 42.1-29.5"/>
   <path d="m568.9 431.2-16.6.2" stroke-linejoin="round"/>
  </g>
 </g>
</svg>
