<svg height="210mm" viewBox="0 0 1052.4 744.1" width="297mm" xmlns="http://www.w3.org/2000/svg">
 <g fill="none" stroke-linecap="round">
  <g transform="translate(0 -308.26772)">
   <path d="m57.6 742.2h948.8" stroke="#969696" stroke-width="1.875"/>
   <g stroke="#000" stroke-dasharray="3.75 7.5" stroke-miterlimit="2" stroke-width=".9375">
    <path d="m58.3 844.1h948.8"/>
    <path d="m58.3 641.8h948.8"/>
    <path d="m58.3 540.6h948.8"/>
   </g>
  </g>
  <g stroke="#000" stroke-linejoin="round" stroke-width="5.625">
   <path d="m311 358.2c10.4-11.7 22.4-21 35.8-21.4 20.5-.6 26.6 40.9 46.4 40.3 18.2-.1 36.8-16 48.2-22.8"/>
   <path d="m259.3 334.2c54.3-11 95.5-79.5 89.2-96.2-5.5-14.4-40.2 8.9-87.4 86.8-41.2 71.2-46.2 101.2-34.5 105.8 2.9 1.1 6.8.7 11.5-1 3.2-1.2 6.8-3 10.6-5.4 26.5-18.8 41.3-39.8 62.5-65.9"/>
   <path d="m441.5 354.2c16.1-9.4 35-18.3 45.5-16.4 20.8 3.9 19.3 55.7 55 26"/>
   <path d="m464.9 342.7c6.5-2.9 22.5-2.7 32 18.1 6.8 14.8 16.8 11.4 24.7 12"/>
   <path d="m482.5 340.4c8.1 4.9 7.8 1.8 25.5 27.9"/>
   <path d="m622.4 335.2c-.4.4-3.3 3.1-3.8 3.6-15.4 14.4-67 60.9-80.1 74-25.9 26.2-49.1 51.4-45.7 63.4 1.8 6.4 22.5 22.8 62-40.9l83.3-151.7s-88.9 75.4-96.2 80.1"/>
   <path d="m623.6 334.3 55.4-50.9 24 48"/>
   <path d="m703.1 331s59.8-29.9 82.6-30.7c22.8-.9 15.8 58 54.2 16.7"/>
  </g>
 </g>
</svg>
