<svg height="210mm" viewBox="0 0 1052.4 744.1" width="297mm" xmlns="http://www.w3.org/2000/svg">
 <g fill="none" stroke="#000" stroke-linecap="round">
  <g transform="translate(0 -308.26772)">
   <path d="m57.6 742.2h948.8" stroke-width="1.875"/>
   <g stroke-dasharray="3.75 7.5" stroke-miterlimit="2" stroke-width=".9375">
    <path d="m58.3 844.1h948.8"/>
    <path d="m58.3 641.8h948.8"/>
    <path d="m58.3 540.6h948.8"/>
   </g>
  </g>
  <g stroke-linejoin="round" stroke-width="5.625">
   <path d="m630.8 430.8 173-178.7"/>
   <path d="m803.8 252.1c29.5-31.4 49.3-58 33.7-63.4-14.6-5-40.2 8.9-87.4 86.8-60.3 104.2-33.5 122.2-1.8 98.4l16.4-12.4"/>
   <path d="m764.7 361.5 36.5-28 22.4 50.2"/>
   <path d="m545.6 431.5c47-64.3 99-48.1 85.2-.6"/>
   <path d="m487.3 410.3 34.3-26.7 24 48"/>
   <path d="m237.1 430.7 239.1-93.8-42.5 71.3c-9 15.1 5 26 21.5 22.2 2.8-.7 9.4-2.3 14-6l18.1-14.2"/>
  </g>
 </g>
</svg>
