<svg height="210mm" viewBox="0 0 1052.4 744.1" width="297mm" xmlns="http://www.w3.org/2000/svg">
 <g fill="none" stroke-linecap="round">
  <g stroke="#969696" transform="translate(0 -308.26772)">
   <path d="m57.6 742.2h948.8" stroke-width="1.875"/>
   <g stroke-dasharray="3.75 7.5" stroke-miterlimit="2" stroke-width=".9375">
    <path d="m58.3 844.1h948.8"/>
    <path d="m58.3 641.8h948.8"/>
    <path d="m58.3 540.6h948.8"/>
   </g>
  </g>
  <g stroke="#000">
   <ellipse cx="585.67432" cy="33.216663" rx="4.609393" ry="6.862874" stroke-linejoin="round" stroke-width="5.625" transform="matrix(.72846687 .68508103 -.68508103 .72846687 0 0)"/>
   <path d="m379.7 431.3h21.9" stroke-linejoin="round" stroke-width="5.624999"/>
   <g stroke-width="5.625">
    <g stroke-linejoin="round">
     <path d="m404.5 430.7 271.7-94.3"/>
     <path d="m687 336.3c23.8 35.6 58.9 71.8 62.4 95.4.7 5.4-1 14-3.6 21.9"/>
     <path d="m711 483.2c24.4-11 37.7-23.5 37-43.2-.6-15.2-13.1-36.3-21.1-45.8-9.5-11.7-46.9-57.8-46.9-57.8"/>
     <path d="m676.2 336.3c12.2 20 42.6 51.3 59.5 79.1 7 11.6 15.5 30.8 7.1 44.2"/>
    </g>
    <path d="m687 336.3h-10.9"/>
    <path d="m255 431.7c19-1.3 29.2-11.7 39.6-21.2 16.6-15.7 30.1-26.7 51.5-27.1 22.5.3 38.7 16.8 33.6 47.9" stroke-linejoin="round"/>
   </g>
   <g stroke-linejoin="round">
    <g stroke-width="6.5625">
     <path d="m288.4 336.7-47.5 81.9"/>
     <path d="m283.7 336.6-38.7 70.9-3.8 16.5"/>
     <path d="m288.4 336.7h-9.3"/>
    </g>
    <path d="m184.6 431.5 94.3-95.2-38.9 72.5c-7.2 13.4 1.8 23.1 15 23" stroke-width="5.625"/>
   </g>
   <path d="m250.2 405.2c-6 9.6-9.9 25.1 3.6 25.5" stroke-width="3.75"/>
  </g>
 </g>
</svg>
