<svg height="210mm" viewBox="0 0 1052.4 744.1" width="297mm" xmlns="http://www.w3.org/2000/svg">
 <g fill="none" stroke-linecap="round">
  <g transform="translate(0 -308.26772)">
   <path d="m57.6 742.2h948.8" stroke="#969696" stroke-width="1.875"/>
   <g stroke="#000" stroke-dasharray="3.75 7.5" stroke-miterlimit="2" stroke-width=".9375">
    <path d="m58.3 844.1h948.8"/>
    <path d="m58.3 641.8h948.8"/>
    <path d="m58.3 540.6h948.8"/>
   </g>
  </g>
  <g stroke="#000">
   <path d="m647.8 403.8c1.2 7.1 5.2 21.5 4 26" stroke-linejoin="round" stroke-width="5.625"/>
   <path d="m619.5 387.2c13-.1 22.2 8.8 25.1 17 3.4 9.6 4.7 20.4 4.2 26.9" stroke-linejoin="round" stroke-width="4.6875"/>
   <path d="m649.3 431.1 6.7.1" stroke-width="5.625"/>
   <g stroke-linejoin="round">
    <path d="m596.7 392.5c6.8-3.1 15.6-4.5 19.7-4.8 6.4-.5 11.7.6 16.7 3.6" stroke-width="3.75"/>
    <path d="m611.9 235.4c-83 44.7-129.3 197.8-84.5 195.9 7.7-.3 18.2-5 31-15.8 8.3-7 17.7-13.4 27.7-18.9 11.9-6.5 24.5-10.7 36.3-10.5 26.2-.4 33.6 31.6 33.6 45" stroke-width="5.625"/>
    <path d="m750.5 235.1-94.5 196.1" stroke-width="5.624999"/>
    <path d="m428.5 336.1-43.2 78.1-3.3 9.2" stroke-width="6.562499"/>
    <path d="m423.7 336.1-44.6 81.7" stroke-width="6.562499"/>
    <g stroke-width="5.625">
     <path d="m428.5 335.7h-9.3"/>
     <path d="m333 431.1 86.3-95.5-39 72.3c-8.4 15.5 5 26.1 21.5 22.2 10.1-2.1 46.3-23.3 76-41.9"/>
    </g>
   </g>
   <path d="m389.2 410.3c-4.3 7.3-5.9 18.8 4 19.7" stroke-width="3.749999"/>
   <path d="m477.7 388.3-66.8 145" stroke-width="5.625"/>
  </g>
 </g>
</svg>
