<svg height="210mm" viewBox="0 0 1052.4 744.1" width="297mm" xmlns="http://www.w3.org/2000/svg">
 <g fill="none" stroke-linecap="round">
  <g transform="translate(0 -308.26772)">
   <path d="m57.6 742.2h948.8" stroke="#969696" stroke-width="1.875"/>
   <g stroke="#000" stroke-dasharray="3.75 7.5" stroke-miterlimit="2" stroke-width=".9375">
    <path d="m58.3 844.1h948.8"/>
    <path d="m58.3 641.8h948.8"/>
    <path d="m58.3 540.6h948.8"/>
   </g>
  </g>
  <g stroke-linejoin="round" stroke-width="5.625">
   <path d="m411.5 374.8s70.6-39.3 84.3-39.7c18.4 2.5 11.4 38.2 28.6 38.6 8.2-.2 20.9-11.6 30.8-22.3" stroke="#000"/>
   <path d="m129.8 431.1s276.3-140.4 300.7-149.1c21-5.4 35 2.5 12.3 40.5l-31.2 52.3" stroke="#000"/>
   <path d="m555.1 351.5c11.4-10.4 14.8-14.3 26.2-15.2 24.4-1.9 20.2 39 43.1 38.8 17.9-.2 31.1-15.4 52.7-35.4" stroke="#010000"/>
  </g>
  <g stroke="#000">
   <g stroke-width="5.625">
    <path d="m803.7 279.8c-15.2 19.1-36.8 44.7-57.5 57.6-24.5 15.2-41.4 28.3-45.8 32.7-25.9 26.2-34.9 47.2-31.9 54.9 1.1 2.9 10.2 26.1 49.7-37.6l83.3-151.7-13.2.5-111 103.5" stroke-linejoin="round"/>
    <path d="m788.2 236.2-90.5 178.4"/>
    <path d="m795.3 239.2-83.7 157.4"/>
    <path d="m792.3 238.1-90.8 170.5"/>
   </g>
   <path d="m706.5 395.2c-6.5 14.2-17.5 27.2-25.3 34.2" stroke-width="3.75"/>
   <g stroke-linejoin="round" stroke-width="5.625">
    <path d="m803.7 279.8c8.5-12.4 29.8-41 29.8-41"/>
    <path d="m833.5 238.8c21.6-28.9 36.1-52.4 56.9-56.8 10.7-2.7 14.3.7 18.7 3.2 7.6 4.3 8 17.2-6 41.5l-29.8 52.1"/>
   </g>
  </g>
 </g>
</svg>
