<svg height="210mm" viewBox="0 0 1052.4 744.1" width="297mm" xmlns="http://www.w3.org/2000/svg">
 <g fill="none" stroke-linecap="round">
  <g transform="translate(0 -308.26772)">
   <path d="m57.6 742.2h948.8" stroke="#969696" stroke-width="1.875"/>
   <g stroke="#000" stroke-dasharray="3.75 7.5" stroke-miterlimit="2" stroke-width=".9375">
    <path d="m58.3 844.1h948.8"/>
    <path d="m58.3 641.8h948.8"/>
    <path d="m58.3 540.6h948.8"/>
   </g>
  </g>
  <g stroke="#000" stroke-linejoin="round">
   <path d="m426.2 431c121.2-60.1 128.9-82.3 122.5-91.8-5.5-8.2-34.4-4.4-53 33.3-20.2 45-14.3 59.4.7 59 25.3-.7 50.1-21.5 119.9-95.3" stroke-width="5.624999"/>
   <path d="m405.7 384.7 20.5 46.3" stroke-width="5.624999"/>
   <path d="m616.3 336.2-47 95.6" stroke-width="5.624998"/>
   <g stroke-width="5.625">
    <path d="m338.5 335.7-38.9 72.5c-7.2 13.4 1.8 23.2 15 23 19.4-.3 43.9-11.6 91.1-46.5"/>
    <path d="m569.3 431.8c25-11.8 60.2-31.5 77.8-32.4 16.8-.7 22.7 32.6 34.2 32.2 7.5-.2 13.1-6.2 18.3-10.8"/>
   </g>
  </g>
 </g>
</svg>
