<svg height="210mm" viewBox="0 0 1052.4 744.1" width="297mm" xmlns="http://www.w3.org/2000/svg">
 <g fill="none" stroke-linecap="round">
  <g transform="translate(0 -308.26772)">
   <path d="m57.6 742.2h948.8" stroke="#969696" stroke-width="1.875"/>
   <g stroke="#000" stroke-dasharray="3.75 7.5" stroke-miterlimit="2" stroke-width=".9375">
    <path d="m58.3 844.1h948.8"/>
    <path d="m58.3 641.8h948.8"/>
    <path d="m58.3 540.6h948.8"/>
   </g>
  </g>
  <g stroke-linejoin="round">
   <path d="m331.6 431.5c39-64.6 104.7-56.6 95.5-.2" stroke="#000" stroke-width="5.624959"/>
   <g stroke-width="5.625">
    <path d="m476.9 365.7c15.2-17.3 27.8-25.1 37.8-28 19.1-5.5 37.7 4.1 16.9 29.7-27.4 33.8-125.1 147.6-101.9 163.9 20.7 14.5 69.2-71.5 74.6-80.8 3.3-5.7 12.9-28 6.1-39.4-5.1-8.6-11.4-9.2-18.2-8.2-10.5 1.6-19.9 9.6-21.5 16.2-2.7 11.9 5.7 13.8 17.3 12.4 13.9-1.6 81.3-31.8 98.9-32.6 16.8-.7 22.7 32.6 34.2 32.2 7.5-.2 13.1-6.2 18.3-10.8" stroke="#010000"/>
    <path d="m427 431.3s32.2-45.5 49.9-65.7" stroke="#000"/>
    <path d="m-225.3-167.2c28.2 1 60.9-30.8 81.8-30.9 16-.6 18.8 30.9 32.6 30.7 8.7-.1 14.1-5.3 19.4-11.5" stroke="#000"/>
   </g>
  </g>
 </g>
</svg>
