<svg height="210mm" viewBox="0 0 1052.4 744.1" width="297mm" xmlns="http://www.w3.org/2000/svg">
 <g fill="none" stroke-linecap="round">
  <g transform="translate(0 -308.26772)">
   <path d="m57.6 742.2h948.8" stroke="#969696" stroke-width="1.875"/>
   <g stroke="#000" stroke-dasharray="3.75 7.5" stroke-miterlimit="2" stroke-width=".9375">
    <path d="m58.3 844.1h948.8"/>
    <path d="m58.3 641.8h948.8"/>
    <path d="m58.3 540.6h948.8"/>
   </g>
  </g>
  <g stroke="#000">
   <g stroke-linejoin="round">
    <g stroke-width="5.624999">
     <path d="m692 335.9-46.6 95.4"/>
     <path d="m692 335.9h-8.2"/>
     <path d="m688.1 336.8-45.7 93.9"/>
     <path d="m645.4 431.3h-8.2"/>
     <path d="m683.8 336-46.6 95.4"/>
    </g>
    <path d="m416.5 431.2 267.3-95.2" stroke-width="5.625"/>
    <path d="m645.4 431.3c25.5-27.4 82-93.8 87.6-100.5 10.9-13.2 31.5-34.9 40-39.9 4.8-2.8 9.1-4.2 13.1-4.1 7.8.3 10.7 5.7 10.9 13.1.1 6.6-2 14.8-4.9 22.4-14.7 43-41.1 81.5-68 118.4-30.2 41-50.1 47.2-57.1 40.9-13.5-11.4 4.2-35.9 29.2-55.1 13.2-11.3 45.9-34.3 65.4-41.7" stroke-width="5.624999"/>
    <g stroke-width="6.5625">
     <path d="m356 336.5-47.5 81.9"/>
     <path d="m351.3 336.5-38.7 70.9-3.8 16.5"/>
     <path d="m356 336.5h-9.3"/>
    </g>
    <path d="m252.3 431.3 94.3-95.2-38.9 72.5c-7.2 13.4 1.8 23.1 15 23 .6 0 1.3 0 1.9-.1" stroke-width="5.625"/>
   </g>
   <path d="m317.8 405.1c-6 9.6-9.9 25.1 3.6 25.5" stroke-width="3.75"/>
   <path d="m324.6 431.5c55.8-7.2 74.2-94.2 115-95.3 10.6-.3 16.4 6.7 15.4 15.5-.8 6.3-4.5 14.8-10.8 26.8l-27.7 52.7" stroke-linejoin="round" stroke-width="5.625"/>
  </g>
 </g>
</svg>
