<svg height="210mm" viewBox="0 0 1052.4 744.1" width="297mm" xmlns="http://www.w3.org/2000/svg">
 <g fill="none" stroke="#969696" stroke-linecap="round" transform="translate(0 -308.26772)">
  <path d="m57.6 742.2h948.8" stroke-width="1.875"/>
  <g stroke-dasharray="3.75 7.5" stroke-miterlimit="2" stroke-width=".9375">
   <path d="m58.3 844.1h948.8"/>
   <path d="m58.3 641.8h948.8"/>
   <path d="m58.3 540.6h948.8"/>
  </g>
 </g>
 <g fill="none" stroke="#000" stroke-linecap="round">
  <g stroke-linejoin="round" stroke-width="5.624999">
   <path d="m116.6 431.4c-26.2-2.4-18.3-36.8 21.8-106 47.2-77.9 82-101.2 87.4-86.8 6.4 16.7-37 84.1-91.4 95"/>
   <path d="m116.6 431.4c5.8.4 10.7-.1 21.8-2.5 61.1-13 227-63.5 240.3-69.7 30.3-14.1 60.5-31.9 76.4-47.4 10.8-10.5 12.4-22 7.9-27-5.4-6-30.7-3.9-55.3 36.8-25.4 41.6-22.8 55.9-10.2 56.1"/>
   <path d="m454.3 282.3c-13.1 1.2-26.3 9.8-34.4 19-9.1 10.3-11.9 13.6-18 22.9-10.2 17.6-22.2 41.6-10.2 51.9"/>
   <path d="m445.5 284.2c-4 2.4-12.8 10.7-18.1 16.7-5.4 6.1-11.6 14-17.2 22.8-18.5 27.6-20 29.4-22 48"/>
  </g>
  <path d="m457.6 283.8c-7-1.3-13.2 2.5-18.2 7" stroke-width="2.8125"/>
  <path d="m403.1 336.8c-20.2 34.5-10.9 40.5-2.5 39.4" stroke-width="2.8125"/>
  <g stroke-linejoin="round" stroke-width="5.624999">
   <path d="m550 366.2c-4.1 4.2-9.8 10.8-18.3 10.8-13.3-.1-17.4-30.6-34.2-30.4-26.8.4-79.2 31.6-100 31.1"/>
   <path d="m711.3 431.6c1.5 0 3-.1 4.6-.3 9.2-1.1 19.3-5.1 26.4-7.9 17.9-7.1 40-19 59.8-31.5 31.4-19.8 56.6-41.8 48.3-52.9-4.8-6.5-30.3-4.4-55 36.3-25.4 41.6-19 55.8-6.5 56.1 28.2.8 60.9-30.8 81.8-30.9 16-.6 18.8 30.9 32.6 30.7 8.7-.1 14.1-5.3 19.4-11.5m-211.3 11.9c-1.4 0-2.8-.2-3.9-.8-11.5-5.1-8.2-36.3 31.9-105.6 47.2-77.9 82-101.2 87.4-86.8 6.4 16.7-37 84.1-91.4 95"/>
  </g>
 </g>
 <circle cx="625.97607" cy="359.31882" r="10.653956"/>
 <circle cx="610.58643" cy="408.33444" r="10.653956"/>
</svg>
