<svg height="210mm" viewBox="0 0 1052.4 744.1" width="297mm" xmlns="http://www.w3.org/2000/svg">
 <g fill="none" stroke-linecap="round">
  <g transform="translate(0 -308.26772)">
   <path d="m57.6 742.2h948.8" stroke="#969696" stroke-width="1.875"/>
   <g stroke="#000" stroke-dasharray="3.75 7.5" stroke-miterlimit="2" stroke-width=".9375">
    <path d="m58.3 844.1h948.8"/>
    <path d="m58.3 641.8h948.8"/>
    <path d="m58.3 540.6h948.8"/>
   </g>
  </g>
  <g stroke="#000" stroke-linejoin="round">
   <g stroke-width="5.625">
    <path d="m567.9 483s21.4 4.8 34.3-8.2"/>
    <path d="m338.7 387.9c16.1-3.3 30.6-10.9 43.4-18.2 15.2-8.7 22.7-23 19.2-30.4-3.5-7.2-29.6-8.1-54.1 32.3-19.4 31.7-19.1 50.2-12.2 56.7 1.6 1.5 3.6 2.3 5.8 2.7 4.1.7 9.3-.1 11.8-.6 9.5-1.6 41.7-11.7 60.4-12.5 2.3-.1 4.9-.1 7.2.1 2.8.2 5.4.8 8.4 1.5 19 4.8 12.5 39.6 31.7 42.6 2.9.5 5.5.6 7.9.4 9.1-.7 14.7-4.1 23.7-10.3 11.9-8.2 25.6-16.4 36.2-17.6 4.6-.5 9.1-.5 13.2.3 5.8 1 10.9 3.3 15.2 6.9 9.6 7.9 14.6 22 11.5 41.3"/>
    <ellipse cx="759.31494" cy="-67.064606" rx="4.609393" ry="6.862874" transform="matrix(.72846687 .68508103 -.68508103 .72846687 0 0)"/>
   </g>
   <path d="m596.6 477.9c5 4.5 11.7 5.8 18.3 5.5 9.2-.4 18.4-3.7 22.5-5.4 21.8-8.6 43.4-24.5 56.7-25.1 16.8-.7 20.9 30.2 34.2 30.4 8.5.1 14.1-6.5 18.3-10.8" stroke-width="5.624999"/>
  </g>
 </g>
</svg>
