<svg height="210mm" viewBox="0 0 1052.4 744.1" width="297mm" xmlns="http://www.w3.org/2000/svg">
 <g fill="none" stroke-linecap="round">
  <g transform="translate(0 -308.26772)">
   <path d="m57.6 742.2h948.8" stroke="#969696" stroke-width="1.875"/>
   <g stroke="#000" stroke-dasharray="3.75 7.5" stroke-miterlimit="2" stroke-width=".9375">
    <path d="m58.3 844.1h948.8"/>
    <path d="m58.3 641.8h948.8"/>
    <path d="m58.3 540.6h948.8"/>
   </g>
  </g>
  <g stroke="#000" stroke-linejoin="round">
   <g stroke-width="5.625">
    <path d="m446.6 384.9c41.5 3.1 62.1-37.2 58.8-46-2.9-7.5-30.4-4.4-55.2 36.4-23.3 38.1-23.3 53.8-13.5 55.4 3 .5 5.6.7 8.2.6"/>
    <path d="m444.8 431.3c29.3-.3 76.5-38.2 96.7-34.5 20.2 3.8 18.7 54.1 53.5 25.2"/>
    <path d="m518.9 402c6.3-2.8 21.8-2.6 31.1 17.6 6.6 14.3 16.3 11.1 24 11.6"/>
   </g>
   <path d="m536 399.7c7.8 4.9 8.8 2 26.1 28.6" stroke-width="6.587558"/>
  </g>
 </g>
</svg>
