<svg height="210mm" viewBox="0 0 1052.4 744.1" width="297mm" xmlns="http://www.w3.org/2000/svg">
 <g fill="none" stroke-linecap="round">
  <g transform="translate(0 -308.26772)">
   <path d="m57.6 742.2h948.8" stroke="#969696" stroke-width="1.875"/>
   <g stroke="#000" stroke-dasharray="3.75 7.5" stroke-miterlimit="2" stroke-width=".9375">
    <path d="m58.3 844.1h948.8"/>
    <path d="m58.3 641.8h948.8"/>
    <path d="m58.3 540.6h948.8"/>
   </g>
  </g>
  <g stroke="#000">
   <ellipse cx="579.56311" cy="39.014309" rx="4.609393" ry="6.862875" stroke-linejoin="round" stroke-width="5.625" transform="matrix(.72846687 .68508103 -.68508103 .72846687 0 0)"/>
   <path d="m526.1 338.2c.8-1.1 3.5 6.2.4 14.1-3.2 8.2-12.5 19.1-17.8 24.2-10.5 9.9-29.8 30.2-23.7 46.5" stroke-width="5.472634"/>
   <path d="m515.6 336.9c13.9-1.2 11 7.7 10.3 13.7" stroke-width="2.736317"/>
   <path d="m526 337.1c15.4 6.8 4.1 30.2-12.2 46.1-14 13.6-22.7 27.7-28.7 39.7" stroke-width="5.472634"/>
   <path d="m492.4 412.3c-3.4 4.9-7.1 14.7 2.5 16.9" stroke-width="2.736317"/>
   <path d="m482.5 417.1c-.1 5.5 3.9 14.3 10.9 14.6" stroke-width="2.736317"/>
   <g stroke-linejoin="round">
    <path d="m393.6 431.4c15.2-.2 24.8-10.9 38.4-23.2 14.4-12.9 38.1-40.9 47.5-51.3 10.4-11.5 21.8-21.3 36.3-21.4 14.3-.3 24.4 8.5 10.2 26.1-27.1 33.5-45.1 49.8-39.1 63.3 1.9 4.3 6.9 6.2 12.9 6.2" stroke-width="5.625"/>
    <path d="m579.1 388.8-20.8 42.5" stroke-width="5.625001"/>
    <path d="m585.4 391.5-20.6 39.7" stroke-width="4.941419"/>
    <path d="m589.6 388.6-20.8 42.5" stroke-width="5.625001"/>
    <path d="m581.7 389.4-20.6 39.7" stroke-width="4.941419"/>
    <g stroke-width="5.625001">
     <path d="m589.6 388.6-10.5.2"/>
     <path d="m568.7 431.1-10.5.2"/>
     <path d="m499.8 431.1c17-.2 38.1-12.4 79.3-42.3"/>
    </g>
   </g>
  </g>
 </g>
</svg>
