<svg height="210mm" viewBox="0 0 1052.4 744.1" width="297mm" xmlns="http://www.w3.org/2000/svg">
 <g fill="none" stroke-linecap="round">
  <g transform="translate(0 -308.26772)">
   <path d="m57.6 742.2h948.8" stroke="#969696" stroke-width="1.875"/>
   <g stroke="#000" stroke-dasharray="3.75 7.5" stroke-miterlimit="2" stroke-width=".9375">
    <path d="m58.3 844.1h948.8"/>
    <path d="m58.3 641.8h948.8"/>
    <path d="m58.3 540.6h948.8"/>
   </g>
  </g>
  <g stroke="#000">
   <g stroke-linejoin="round">
    <path d="m672.9 413c1.1.1 2 .3 2.8.7.2.1.5.3.7.4 1.3 1 1.8 2.8 1.1 5.6-1.5 5.5-7.7 8.7-10.7 9.8-6.2 2.2-10.7-2.8-7.2-8.3 2.2-3.4 6-7.2 10.5-8.1.3-.1.6-.1.9-.1.4 0 .8-.1 1.1-.1.9 0 1.8.1 2.7.4" stroke-width="5.033995"/>
    <path d="m670.7 417.9c.5.1.9.2 1.3.3.1.1.2.1.3.2.6.5.9 1.3.5 2.7-.7 2.6-3.6 4.1-5 4.6-2.9 1.1-5.1-1.3-3.4-3.9 1-1.6 2.8-3.4 5-3.8.1 0 .3-.1.4-.1h.5c.4 0 .8.1 1.3.2" stroke-width="9.228992"/>
    <g stroke-width="5.625">
     <path d="m619.1 430.5c-16.5 2.6-19.8 5.6-30.3 11.3-13.3 7.2-28 18.1-38.7 29.8-17.8 18.9-38.5 44.4-35.3 56.2.9 3 16.3 22.9 59.8-38.1 26.9-36.9 54.6-73.4 69.3-116.4 9.5-26.2-1.8-52.1-30.3-27.5"/>
     <path d="m619.1 430.5c13.2.7 62.5-.5 74.6 0"/>
     <path d="m700.2 419.6c.7.1 1.3.2 1.7.5.2.1.3.2.4.3.8.6 1.1 1.8.7 3.5-.9 3.5-4.8 5.4-6.7 6.1-3.9 1.4-6.7-1.8-4.5-5.2 1.4-2.1 3.8-4.5 6.6-5.1.2 0 .4-.1.6-.1h.7c.5 0 1.1.1 1.7.2"/>
    </g>
    <path d="m351.1 431.2c3 .3 9.7-4.2 11-5 10.7-6.1 20.2-15.8 27.8-26.6 28.4-40.2 30.6-95.6-25.7-40.3" stroke-width="5.419139"/>
    <g stroke-width="5.625">
     <path d="m574 190.7c-29.5 24.1-232.3 245.3-222.9 240.5"/>
     <path d="m536.8 354.3c-26.4 20.7-38.1 24.5-45.7 26.9-55 17.3 33.8-138.4 77.9-185.1 4.7-5 11.2-10.7 18.9-11.9"/>
     <path d="m556.7 211.3-82.8 155.6"/>
     <path d="m537.2 242.4-53.8 98.9"/>
    </g>
    <path d="m479.3 380.4c-7.4-6.7-3-16.4 2.6-27.7" stroke-width="3.75"/>
    <path d="m515.1 267.3c-12.9 24.9-30.1 54.1-38.9 86.4" stroke-width="5.625"/>
   </g>
   <path d="m516.7 272.9-36.6 76.4" stroke-width="3.75"/>
   <g stroke-linejoin="round" stroke-width="5.625">
    <path d="m568.8 196.1c-19 21-43.7 49.4-62.8 87.6"/>
    <path d="m565.7 199.9c-5.6 6.3-36.4 63.6-36.4 63.6"/>
    <path d="m536.8 354.3 23.5-18.3 20 46.5"/>
    <path d="m613.7 345.8c-8.5 8-33.3 36.7-33.3 36.7"/>
   </g>
  </g>
 </g>
</svg>
