<svg height="210mm" viewBox="0 0 1052.4 744.1" width="297mm" xmlns="http://www.w3.org/2000/svg">
 <g fill="none" stroke-linecap="round">
  <g transform="translate(0 -308.26772)">
   <path d="m57.6 742.2h948.8" stroke="#969696" stroke-width="1.875"/>
   <g stroke="#000" stroke-dasharray="3.75 7.5" stroke-miterlimit="2" stroke-width=".9375">
    <path d="m58.3 844.1h948.8"/>
    <path d="m58.3 641.8h948.8"/>
    <path d="m58.3 540.6h948.8"/>
   </g>
  </g>
  <g stroke="#000" stroke-width="5.625">
   <g stroke-linejoin="round">
    <path d="m446.6 432.3c15.9-11 63.6-67.4 78.4-83.2 16.9-17.9 26.9-18.3 33.4-5.7 6.5 12.7 4 18.2 12.3 27.2 15.9 17.3 43.8-27.8 34.5-34.3-6.3-4.4-25.9 3.2-49.4 42-24.8 40.5-22.9 53.9-11.2 53.6 5-.1 11.8-2.9 19.1-7 10.3-5.6 31.6-22.6 51.5-46.9"/>
    <path d="m615.2 378 30-40.8"/>
    <path d="m645.2 337.3c21.6-28.9 36.1-52.4 56.9-56.8 10.7-2.7 14.3.7 18.7 3.2 7.6 4.3 8 17.2-6 41.5l-29.8 52.1"/>
    <path d="m446.6 432.3c-27.4 18.9-49.1 36.7-62.4 58.8-10.1 16.9-13.4 32.9-9.8 39.4 2.9 5.3 34.7 12.4 62.3-63.4 15.8-47.4 16.5-113.3 70.8-131.6"/>
   </g>
   <path d="m471.7 234.5-96.4 166.7"/>
   <ellipse cx="62.862343" cy="565.3277" rx="25.728558" ry="20.371416" stroke-linejoin="round" transform="matrix(.79083574 -.61202846 .61202846 .79083574 0 0)"/>
   <path d="m336.6 545.8c24.8 33.5 76.4 32.1 103.1 0"/>
  </g>
 </g>
</svg>
