<svg height="210mm" viewBox="0 0 1052.4 744.1" width="297mm" xmlns="http://www.w3.org/2000/svg">
 <g fill="none" stroke-linecap="round">
  <g transform="translate(0 -308.26772)">
   <path d="m57.6 742.2h948.8" stroke="#969696" stroke-width="1.875"/>
   <g stroke="#000" stroke-dasharray="3.75 7.5" stroke-miterlimit="2" stroke-width=".9375">
    <path d="m58.3 844.1h948.8"/>
    <path d="m58.3 641.8h948.8"/>
    <path d="m58.3 540.6h948.8"/>
   </g>
  </g>
  <g stroke-width="5.625">
   <path d="m310.1 369.5c5.4-10.5 11.5-21 20.8-27 22.5-14.1 55.1-7.6 33.5 19.1-27.4 33.8-47.1 52.6-39.4 63.9 4.7 6.9 13.4 6.4 23.7 3.3 10.2-3 22.6-11.8 46.9-36.2" stroke="#000" stroke-linejoin="round"/>
   <path d="m310.1 369.5-86.1 164.4" stroke="#000"/>
   <g stroke-linejoin="round">
    <g stroke="#000">
     <path d="m507.6 274.9-55.8 97.2"/>
     <path d="m507.6 274.9h-10.6"/>
     <path d="m502.1 274.9-55.8 97.2"/>
     <path d="m451.8 372.2h-10.6"/>
     <path d="m395.6 392.5 101.5-117.6-55.8 97.2 11-.1"/>
    </g>
    <path d="m452.2 372.1c10.2-5.8 20.2-9 25.5-10.4 11.2-3 25.5-3.1 24.1 4.7 0 .2.1.4.1.7 0 1.4-.6 2.7-2.1 3.8-2.9 2.2-6.9.8-8.5-.4-3.3-.5-1-11.9 0-10.6 1.7 2.4 0 0 8.8 2.8.2.1.3.3.4.5.2.2.4.7.6.9.3.5.4.9.7 1.6" stroke="#00001f"/>
    <path d="m501.6 366.4a5.5 1.8 0 0 1 -5.5 1.8 5.5 1.8 0 0 1 -5.5-1.8 5.5 1.8 0 0 1 5.4-1.8 5.5 1.8 0 0 1 5.5 1.8h-5.5z" stroke="#000"/>
    <path d="m490 363.1 156.8-90.6 173.5-98.3" stroke="#000001"/>
   </g>
  </g>
 </g>
</svg>
