<svg height="210mm" viewBox="0 0 1052.4 744.1" width="297mm" xmlns="http://www.w3.org/2000/svg">
 <g fill="none" stroke-linecap="round">
  <g transform="translate(0 -308.26772)">
   <path d="m57.6 742.2h948.8" stroke="#969696" stroke-width="1.875"/>
   <g stroke="#000" stroke-dasharray="3.75 7.5" stroke-miterlimit="2" stroke-width=".9375">
    <path d="m58.3 844.1h948.8"/>
    <path d="m58.3 641.8h948.8"/>
    <path d="m58.3 540.6h948.8"/>
   </g>
  </g>
  <g stroke-linejoin="round" stroke-width="5.625">
   <path d="m615.8 351.9 83.5-130.2c6.5-10.1 14-19.8 22.1-27.4 10.9-10.3 23.7-10.1 29.2-9.8 17.2 1 11.7 19.3-3.6 41.2-14.5 20.7-23.5 37.5-41.4 63-25.4 36.1-53.1 69.5-45.4 87.5 7.2 13 20.7 10.3 35.2.9 3.5-2.3 7.1-5 10.7-8" stroke="#000"/>
   <path d="m541.2 378.9 21.9 51.8 52.6-78.8" stroke="#000"/>
   <path d="m455.6 534 85.7-155.1" stroke="#060000"/>
   <g stroke="#000">
    <path d="m301.9 334.6c54.3-11 95.5-79.5 89.2-96.2-5.5-14.4-40.3 8.9-87.4 86.8-69.6 120.2-36 123.1 7.3 84"/>
    <path d="m359.8 432.9s96.5-157.6 114.6-177.5c10.2-11.2 15.3-12.5 21.5-15.9 18-9.6 37.5 2.6 13.1 43.5l-29.1 50.9"/>
    <path d="m310.9 409.3 28.9-24.3 20 47.9"/>
   </g>
  </g>
 </g>
</svg>
