<svg height="210mm" viewBox="0 0 1052.4 744.1" width="297mm" xmlns="http://www.w3.org/2000/svg">
 <g fill="none" stroke-linecap="round">
  <g transform="translate(0 -308.26772)">
   <path d="m57.6 742.2h948.8" stroke="#969696" stroke-width="1.875"/>
   <g stroke="#000" stroke-dasharray="3.75 7.5" stroke-miterlimit="2" stroke-width=".9375">
    <path d="m58.3 844.1h948.8"/>
    <path d="m58.3 641.8h948.8"/>
    <path d="m58.3 540.6h948.8"/>
   </g>
  </g>
  <g stroke="#000">
   <g stroke-linejoin="round" stroke-width="5.625">
    <path d="m407.3 332.9c54.3-11 93-76.6 86.7-93.3-5.5-14.4-36.2-2.5-83.1 85.8l-58.5 105.9"/>
    <path d="m352.4 431.3c26.6-23.7 40.1-34.9 64.6-56.2 10.4-9 21.3-18.4 32.8-25.8 5.1-3.3 10.4-6.5 15.8-8.8 5.4-2.6 11.1-3.4 17.4-2.5 5.1 1 8.6 3.1 11 5.8 2.7 3 3.9 6.8 3.8 11.1-.1 4.6-1.6 9.7-4.3 15.2-2.5 5.1-5.9 10.4-10.1 15.7l-76.1 101.8c-8.6 12.1-12.6 22.5-10.6 30.5 1.8 7.2 5.3 12.9 15.9 14.7 7.2.9 14.3-.4 21.2-3.7 7.2-3.4 14.2-9 20.5-16.6"/>
    <path d="m573.2 336c-46.7 12.2-87.1 98.1-51 95.3 27.5-2.9 58.1-40.7 85.7-67.3"/>
    <path d="m622.6 350.6 104.5-67.8 19.1 47.9"/>
   </g>
   <path d="m673.7 337.5c9.3 1.2 23.5 6.5 26.3 22.3" stroke-width="3.75"/>
   <ellipse cx="392.38797" cy="646.05286" rx="60.146576" ry="43.208752" stroke-linejoin="round" stroke-width="5.625" transform="matrix(.88109295 -.47294313 .47294313 .88109295 0 0)"/>
   <path d="m638.2 428.7c-11.1 2-22.6-1-31.8-8.1" stroke-width="3.75"/>
   <g stroke-width="5.625">
    <path d="m704.9 360.9c.7 2.8.2 12.3-.3 13.7-4.6 13.5-9.8 20.7-17.2 28.9-8.8 9.7-22.1 15.7-32.4 24.1"/>
    <path d="m685.4 339.4c11 3.2 13.8 13.8 14.8 17.6 5.3 20.3-6.7 35.7-14.9 44.9-8.3 9.3-25 27.4-57.1 28.7"/>
   </g>
  </g>
 </g>
</svg>
