<svg height="210mm" viewBox="0 0 1052.4 744.1" width="297mm" xmlns="http://www.w3.org/2000/svg">
 <g fill="none" stroke="#000" stroke-linecap="round">
  <g transform="translate(0 -308.26772)">
   <path d="m57.6 742.2h948.8" stroke-width="1.875"/>
   <g stroke-dasharray="3.75 7.5" stroke-miterlimit="2" stroke-width=".9375">
    <path d="m58.3 844.1h948.8"/>
    <path d="m58.3 641.8h948.8"/>
    <path d="m58.3 540.6h948.8"/>
   </g>
  </g>
  <g stroke-linejoin="round">
   <g stroke-width="5.625">
    <path d="m649.7 429.1c-58.4-.4-99.5 15.9-135.9 50.8-23.7 26.3-31.9 40.6-27.9 50.7 2.2 5.6 34.7 12.4 62.3-63.3 15.8-47.4 16.5-113.3 70.8-131.6"/>
    <path d="m645.8 412.3c1 .1 1.8.3 2.5.7.2.1.4.2.6.4 1.2.9 1.7 2.6 1 5.2-1.3 5.1-7.1 8-9.8 9-5.7 2-9.8-2.6-6.6-7.6 2-3.1 5.5-6.6 9.7-7.5.3-.1.6-.1.9-.1s.7-.1 1-.1c.8 0 1.6.1 2.4.3"/>
    <path d="m618.1 414.7c1 .1 1.8.3 2.5.7.2.1.4.2.6.4 1.2.9 1.7 2.6 1 5.2-1.3 5.1-7.1 8-9.8 9-5.7 2-9.8-2.6-6.6-7.6 2-3.1 5.5-6.6 9.7-7.5.3-.1.6-.1.9-.1s.7-.1 1-.1c.8 0 1.6.1 2.4.3"/>
    <path d="m649.7 429.1c21.2-1.6 43-27.6 59.8-28.4 16-.6 21.6 31 32.6 30.7 7.2-.2 12.4-7.6 16.7-13"/>
    <path d="m326.1 431.3c10.6-12.1 25.5-31.1 42.3-31.9 16-.6 22.1 32.2 33.1 31.9 7.2-.2 11.9-8.7 16.3-14.1"/>
    <path d="m417.7 417.1s124.1-162.6 126.3-165.3c2.6-3.2 5-5.8 7.4-7.8 83-65-26.7 159.9-88.2 186.6-3.8.8-6.8.9-9.2.3"/>
    <path d="m579.4 252.4-91.7 157.8"/>
   </g>
   <path d="m573.6 268.7-73 125.6" stroke-width="8.4375"/>
   <path d="m470.9 426.1c6.6-8.2 16.4-19 22.5-27.9" stroke-width="3.75"/>
   <g stroke-width="5.625">
    <path d="m562.6 296.2-40.2 67.9"/>
    <path d="m581.1 238.7c.7 14-5.4 18.6-14.3 37.1"/>
    <path d="m618.9 335.7c-17.7 4-177.6 90-164.9 95.3"/>
   </g>
  </g>
 </g>
</svg>
