<svg height="210mm" viewBox="0 0 1052.4 744.1" width="297mm" xmlns="http://www.w3.org/2000/svg">
 <g fill="none" stroke-linecap="round">
  <g transform="translate(0 -308.26772)">
   <path d="m57.6 742.2h948.8" stroke="#969696" stroke-width="1.875"/>
   <g stroke="#000" stroke-dasharray="3.75 7.5" stroke-miterlimit="2" stroke-width=".9375">
    <path d="m58.3 844.1h948.8"/>
    <path d="m58.3 641.8h948.8"/>
    <path d="m58.3 540.6h948.8"/>
   </g>
  </g>
  <g stroke="#000" stroke-linejoin="round" stroke-width="5.625">
   <path d="m397.7 444c-16.7 15.8-29.3 27.9-33.1 32.1-21.1 23.6-33.7 49.8-25.2 56.1 15.8 11.6 35.8-11.1 50.6-36.2 18.6-31.4 45.6-101.5 53.1-131.4 22-88.4 71.4-137 88.3-126.6 6.8 4.2-.6 27.9-17.8 51.3-5.4 7.4-30.1 29.3-61.8 45.5"/>
   <path d="m397.7 444c103.3-49.8 226.1-259.5 269.9-258.6 17.2 1 11.7 19.3-3.6 41.2-14.5 20.7-23.5 37.5-41.4 63-25.4 36.1-53.1 69.5-45.4 87.5 10.1 18.3 32.5 5.7 52.7-13.1"/>
  </g>
 </g>
</svg>
