<svg height="210mm" viewBox="0 0 1052.4 744.1" width="297mm" xmlns="http://www.w3.org/2000/svg">
 <g fill="none" stroke-linecap="round">
  <g transform="translate(0 -308.26772)">
   <path d="m57.6 742.2h948.8" stroke="#969696" stroke-width="1.875"/>
   <g stroke="#000" stroke-dasharray="3.75 7.5" stroke-miterlimit="2" stroke-width=".9375">
    <path d="m58.3 844.1h948.8"/>
    <path d="m58.3 641.8h948.8"/>
    <path d="m58.3 540.6h948.8"/>
   </g>
  </g>
  <g stroke="#000" stroke-width="5.625">
   <path d="m339.2 430.9 50.4-51.6 24.3 18.5" stroke-linejoin="round"/>
   <path d="m499.7 244.3-108.8 158.8"/>
   <g stroke-linejoin="round">
    <path d="m413.9 397.8c3.5 2.7 6.6 6.8 7 8.4 1.9 6.6-1.3 14.9-8.3 20.3-8.7 6.7-20.1 6.6-25.4-.3-3.2-4.1-3.5-9.7-1.4-14.9.7-1.8 4-6.5 5.2-8.1"/>
    <path d="m567.4 159.2c11.3-15.7 20.3-24.3 36.3-26.1 15.5-1.7 37.8 10.8 50.2 48.4 11.2 34 18.1 48.1 37.6 47.7 17.4-.3 30.3-12 41.2-23.7"/>
    <path d="m497.3 234.7c1 .1 1.8.3 2.5.7.2.1.4.2.6.4 1.2.9 1.6 2.5 1 5.1-1.3 5-7 7.9-9.7 8.9-5.6 2-9.7-2.6-6.5-7.5 2-3.1 5.4-6.5 9.5-7.3.3-.1.6-.1.8-.1.3 0 .7-.1 1-.1.8 0 1.6.1 2.4.3"/>
    <path d="m567.4 159.2s-48.8 75.6-67.8 85.1"/>
   </g>
  </g>
 </g>
</svg>
