<svg height="210mm" viewBox="0 0 1052.4 744.1" width="297mm" xmlns="http://www.w3.org/2000/svg">
 <g fill="none" stroke-linecap="round">
  <g transform="translate(0 -308.26772)">
   <path d="m57.6 742.2h948.8" stroke="#969696" stroke-width="1.875"/>
   <g stroke="#000" stroke-dasharray="3.75 7.5" stroke-miterlimit="2" stroke-width=".9375">
    <path d="m58.3 844.1h948.8"/>
    <path d="m58.3 641.8h948.8"/>
    <path d="m58.3 540.6h948.8"/>
   </g>
  </g>
  <g stroke="#000">
   <g stroke-width="5.625">
    <path d="m663.4 233.7-88.2 165.5"/>
    <g stroke-linejoin="round">
     <ellipse cx="219.87413" cy="686.84625" rx="25.728558" ry="20.371416" transform="matrix(.79083574 -.61202846 .61202846 .79083574 0 0)"/>
     <path d="m525.4 430.9 61-41.4"/>
     <path d="m400.1 431.2 68.5-95.6 56.8 95.3"/>
     <path d="m468.6 335.6 46.3 95.5"/>
     <path d="m479 335.4 46.3 95.5"/>
    </g>
    <path d="m514.9 431.1 10.5-.2"/>
    <path d="m468.6 335.6 10.5-.2"/>
   </g>
   <path d="m474.8 337.5 45 91.8" stroke-linejoin="round" stroke-width="7.5"/>
  </g>
 </g>
</svg>
