<svg height="210mm" viewBox="0 0 1052.4 744.1" width="297mm" xmlns="http://www.w3.org/2000/svg">
 <g fill="none" stroke-linecap="round">
  <g transform="translate(0 -308.26772)">
   <path d="m57.6 742.2h948.8" stroke="#969696" stroke-width="1.875"/>
   <g stroke="#000" stroke-dasharray="3.75 7.5" stroke-miterlimit="2" stroke-width=".9375">
    <path d="m58.3 844.1h948.8"/>
    <path d="m58.3 641.8h948.8"/>
    <path d="m58.3 540.6h948.8"/>
   </g>
  </g>
  <g stroke="#000" stroke-linejoin="round">
   <g stroke-width="5.625">
    <path d="m482.2 345.2c-14.6 11.8-102.3 89.8-84 85.7 15.1-4.5 47.4-44.7 52.6-82 5.7-40.6 44.3-104.4 80-114.7"/>
    <path d="m482.9 335.2c.8.1 1.4.2 1.9.5.2.1.3.2.5.3.9.7 1.3 2 .8 4-1 3.9-5.4 6.1-7.5 6.9-4.3 1.6-7.6-2-5.1-5.9 1.6-2.4 4.2-5.1 7.4-5.7.2 0 .4-.1.7-.1s.5-.1.8-.1c.6 0 1.2.1 1.9.3"/>
    <path d="m506.6 347.5c-7.8 4.3-23.2 5.6-31.2.6"/>
    <path d="m509.8 336c.8.1 1.4.2 1.9.5.2.1.3.2.5.3.9.7 1.3 2 .8 4-1 3.9-5.4 6.1-7.5 6.9-4.3 1.6-7.6-2-5.1-5.9 1.6-2.4 4.2-5.1 7.4-5.7.2 0 .4-.1.7-.1s.5-.1.8-.1c.6 0 1.2.1 1.9.3"/>
   </g>
   <g stroke-width="4.30181">
    <path d="m548.2 335.1c.8-.5-19.8 37.9-19.8 37.9"/>
    <path d="m553.5 337.3-19.4 35.6"/>
    <path d="m537.6 372.8-9.1.2"/>
    <path d="m558.8 334.9-21.2 37.9"/>
    <path d="m558.8 334.9-10.8-.1"/>
    <path d="m552.1 335.9-19.4 35.6"/>
   </g>
   <path d="m548.2 335.5c-14.2 6-22.2 17.4-46.4 13.2" stroke-width="5.625"/>
  </g>
 </g>
</svg>
