<svg height="210mm" viewBox="0 0 1052.4 744.1" width="297mm" xmlns="http://www.w3.org/2000/svg">
 <g fill="none" stroke-linecap="round">
  <g transform="translate(0 -308.26772)">
   <path d="m57.6 742.2h948.8" stroke="#969696" stroke-width="1.875"/>
   <g stroke="#000" stroke-dasharray="3.75 7.5" stroke-miterlimit="2" stroke-width=".9375">
    <path d="m58.3 844.1h948.8"/>
    <path d="m58.3 641.8h948.8"/>
    <path d="m58.3 540.6h948.8"/>
   </g>
  </g>
  <g stroke-width="5.625">
   <path d="m404.6 360.5c6.9-9.5 15.6-19.6 21.7-22.3 19.6-8.3 37.1 2.7 14.4 40.7l-29.8 52.1" stroke="#000001" stroke-linejoin="round"/>
   <path d="m485.3 360.5-74.4 70.6" stroke="#000001" stroke-linejoin="round"/>
   <g stroke="#000">
    <path d="m485.3 360.5c14.2-11.3 72.4-63.4 105.2-95 34.7-33.4 59-63.9 42.5-69.6-14.6-5-42.6 12.2-89.8 90.1-60.3 104.2-35 118.2-1.1 97.4 2.5-.7 12.4-9.2 22.4-19.3" stroke-linejoin="round"/>
    <path d="m633 274c-20.4 32.9-63.8 86.9-68.5 90.3"/>
    <g stroke-linejoin="round">
     <path d="m291.8 390.5c-13.8 47.4 51.7 57.5 88.5 6.5 9.7-13.3 24.4-36.4 24.4-36.4"/>
     <path d="m633 274s36.4-53.1 39.1-56.8c9-12.3 18.4-28.1 34.4-27.3 17.9.9 16 70.9 53.9 25.2"/>
    </g>
   </g>
  </g>
 </g>
</svg>
