<svg height="210mm" viewBox="0 0 1052.4 744.1" width="297mm" xmlns="http://www.w3.org/2000/svg">
 <g fill="none" stroke-linecap="round">
  <g transform="translate(0 -308.26772)">
   <path d="m57.6 742.2h948.8" stroke="#969696" stroke-width="1.875"/>
   <g stroke="#000" stroke-dasharray="3.75 7.5" stroke-miterlimit="2" stroke-width=".9375">
    <path d="m58.3 844.1h948.8"/>
    <path d="m58.3 641.8h948.8"/>
    <path d="m58.3 540.6h948.8"/>
   </g>
  </g>
  <g stroke="#000" stroke-linejoin="round" stroke-width="5.625">
   <path d="m461.9 428.3c9.6 7.1 38.4-30.7 69.9-77.4"/>
   <path d="m468.4 417.3c.7.2 1.3.5 1.7.8.1.1.3.2.4.4.8.8.9 2.1 0 3.9-1.6 3.5-6.2 4.8-8.3 5.2-4.3.7-6.7-3.2-3.7-6.4 1.9-2 4.9-4 7.9-4.1h.6c.3 0 .5.1.8.1.6.1 1.1.3 1.7.6"/>
   <path d="m449.6 336.1-39 72.4c-6 11.1-.9 19.6 8.5 22.2 7 2.2 36.6 1.8 45.8-3.3"/>
   <path d="m531.9 350.9 91.2-129.1c6.9-9.8 14-19.8 22.1-27.4 10.9-10.3 23.7-10.1 29.2-9.8 17.2 1 11.7 19.3-3.6 41.2-14.5 20.7-23.5 37.5-41.4 63-25.4 36.1-53.1 69.5-45.4 87.5 7.2 13 20.7 10.3 35.2.9 3.5-2.3 7.1-5 10.7-8 2.3-1.9 18.3-16.3 25.6-33.4"/>
   <path d="m670.6 488.4c28.5-22.6 35.5-31.4 39-55.7 1.8-12.5-2.6-29.9-12.8-39.5-20-18.8-56.6-24.6-41.5-57.5"/>
  </g>
 </g>
</svg>
