<svg height="210mm" viewBox="0 0 1052.4 744.1" width="297mm" xmlns="http://www.w3.org/2000/svg">
 <g fill="none" stroke-linecap="round">
  <g transform="translate(0 -308.26772)">
   <path d="m57.6 742.2h948.8" stroke="#969696" stroke-width="1.875"/>
   <g stroke="#000" stroke-dasharray="3.75 7.5" stroke-miterlimit="2" stroke-width=".9375">
    <path d="m58.3 844.1h948.8"/>
    <path d="m58.3 641.8h948.8"/>
    <path d="m58.3 540.6h948.8"/>
   </g>
  </g>
  <g stroke="#000">
   <g stroke-linejoin="round" stroke-width="5.625">
    <path d="m451.7 430c-31.3 22.1-59.4 37.9-84.4 63-18.5 18.4-21.9 28-20 34.3.9 3 16.3 22.9 59.8-38.1 26.9-36.9 48.6-70.7 69.3-116.4 15.5-30.1-6.8-59.6-43.5-13.3"/>
    <path d="m451.7 430c4.1-2.3 38.7-29.5 60.2-47.1"/>
    <path d="m545.2 430.8c27-12.3 71.6-34.9 91.2-34.5s12.4 57.9 48.7 27.8"/>
    <path d="m511.9 382.9 33.3 47.9"/>
    <path d="m511.9 382.9 24 48"/>
    <path d="m521.4 382.9 23.8 47.9"/>
    <path d="m517.5 382.8 24 48"/>
   </g>
   <g stroke-width="3.75">
    <path d="m512.3 381.9h9"/>
    <path d="m535.7 431.8h9"/>
   </g>
  </g>
 </g>
</svg>
