<svg height="210mm" viewBox="0 0 1052.4 744.1" width="297mm" xmlns="http://www.w3.org/2000/svg">
 <g fill="none" stroke-linecap="round">
  <g transform="translate(0 -308.26772)">
   <path d="m57.6 742.2h948.8" stroke="#969696" stroke-width="1.875"/>
   <g stroke="#000" stroke-dasharray="3.75 7.5" stroke-miterlimit="2" stroke-width=".9375">
    <path d="m58.3 844.1h948.8"/>
    <path d="m58.3 641.8h948.8"/>
    <path d="m58.3 540.6h948.8"/>
   </g>
  </g>
  <g stroke="#000" stroke-linejoin="round">
   <path d="m273.8 350.3c7.6-7.2 15.8-13.4 27.4-14.8 7.2-.8 13.5 1.8 16.1 7.3 5.5 11.8-5.5 22.9-21.8 40.6s-27.2 28.8-21.7 40.6c2.6 5.5 8.8 7.4 16.1 7.3 14.6-.3 27.5-7.1 80.1-47.3l22.1 47.1" stroke-width="5.624999"/>
   <path d="m392.1 431.1 58.7-48.4" stroke-width="5.624999"/>
   <path d="m450.8 382.7 23.2 48.1" stroke-width="5.625"/>
   <path d="m474 430.8 39.9-48.4" stroke-width="5.624999"/>
   <path d="m594.2 384.8 18.5 46.6s66.1-67.4 70.6-71.6c8.6-8.1 15.4-14.2 21.3-18 5.6-3.6 10.1-5.4 13.6-5.7 18-1.5 11 35.3-9.2 64-7.6 10.8-17.1 20.4-27.8 26.6-1.4.8-8.1 5.3-11 5-18.9-.9 79.7-48.2 79.7-48.2" stroke-width="5.625"/>
  </g>
 </g>
</svg>
