<svg height="210mm" viewBox="0 0 1052.4 744.1" width="297mm" xmlns="http://www.w3.org/2000/svg">
 <g fill="none" stroke-linecap="round">
  <g transform="translate(0 -308.26772)">
   <path d="m57.6 742.2h948.8" stroke="#969696" stroke-width="1.875"/>
   <g stroke="#000" stroke-dasharray="3.75 7.5" stroke-miterlimit="2" stroke-width=".9375">
    <path d="m58.3 844.1h948.8"/>
    <path d="m58.3 641.8h948.8"/>
    <path d="m58.3 540.6h948.8"/>
   </g>
  </g>
  <g stroke="#000" stroke-linejoin="round" stroke-width="5.625">
   <path d="m359.7 460.3c14.9-14.5 120.6-124.3 120.6-124.3"/>
   <path d="m480.3 336s-23.3 44.6-35.8 69.8c-7.8 17 1.3 25.5 14.3 25.4"/>
   <path d="m458.8 431.1c24.3-2.6 49.8-29.2 68.3-28.9 24.5.4 23.3 28.6 47 28.9"/>
   <path d="m574 431.1c14.3.8 55.6-28 67.1-28.9 24.4-1.9 23.3 28.8 47 28.9"/>
   <path d="m688.1 431.1c17.7.5 51.9-29.6 69.8-29.4 21.8.2 18.9 29.1 37.6 28.9 10.3-.1 17.5-5.2 23.3-10.2"/>
   <path d="m307.5 399c8.2-6.6 18.1-15.1 26.5-16.1 15.8-1.8 26.7 11.6 11 30.5-25.6 30.9-47.5 45.9-39.9 62.2 2.7 5.9 9.4 8.6 17.1 7.8 14.1-1.5 25.9-11.8 37.5-23.1"/>
   <path d="m267.7 431.1 39.8-32.1"/>
  </g>
 </g>
</svg>
