<svg height="210mm" viewBox="0 0 1052.4 744.1" width="297mm" xmlns="http://www.w3.org/2000/svg">
 <g fill="none" stroke-linecap="round">
  <g transform="translate(0 -308.26772)">
   <path d="m57.6 742.2h948.8" stroke="#969696" stroke-width="1.875"/>
   <g stroke="#000" stroke-dasharray="3.75 7.5" stroke-miterlimit="2" stroke-width=".9375">
    <path d="m58.3 844.1h948.8"/>
    <path d="m58.3 641.8h948.8"/>
    <path d="m58.3 540.6h948.8"/>
   </g>
  </g>
  <g stroke="#000" stroke-linejoin="round">
   <path d="m478.9 336.3c-45.3 11.8-71.7 95.5-38 95.2 22.3-.4 45.2-30.6 62-48.6" stroke-width="5.625"/>
   <path d="m633.6 432c5.8-3.7 12.8-11.7 7.1-19-2.8-3.6-4.4-5-13-4.9l-107.7.6c-7.4 0-15.4-.2-17.4-.8-9.6-2.9-8.5-13.1.2-25.1" stroke-width="5.625"/>
   <path d="m737.5 415.3c-12 10.3-26.5 15.9-36.6 16.2-33.8 1 16.6-91 24-103.9 47.2-77.9 74.9-95.7 89.8-91.6 41.4 11.5-120.7 144-177.3 192.9" stroke-width="5.625001"/>
   <g stroke-width="5.625">
    <path d="m346.1 431.1-80.6.2"/>
    <ellipse cx="28.355036" cy="538.65204" rx="25.728558" ry="20.371416" transform="matrix(.79083574 -.61202846 .61202846 .79083574 0 0)"/>
    <path d="m365.9 423.6c9.5-7.8 77.9-79.6 112.6-87.5"/>
   </g>
  </g>
 </g>
</svg>
