<svg height="210mm" viewBox="0 0 1052.4 744.1" width="297mm" xmlns="http://www.w3.org/2000/svg">
 <g fill="none" stroke-linecap="round">
  <g transform="translate(0 -308.26772)">
   <path d="m57.6 742.2h948.8" stroke="#969696" stroke-width="1.875"/>
   <g stroke="#000" stroke-dasharray="3.75 7.5" stroke-miterlimit="2" stroke-width=".9375">
    <path d="m58.3 844.1h948.8"/>
    <path d="m58.3 641.8h948.8"/>
    <path d="m58.3 540.6h948.8"/>
   </g>
  </g>
  <g stroke-linejoin="round" stroke-width="5.625">
   <path d="m257.2 432.5c-39.4 19.7-107.3 83.2-81.8 98.7 9.9 5.5 23.1-1.1 49.3-43.2l89.2-152.4" stroke="#000"/>
   <path d="m256.1 433.1 156.8-90.6s74.5-44.6 89.6-54.2c52-32.9 80.1-53.9 100.9-53.2 23 .8 22.8 45.6 42.5 46.1 10.7.3 25.9-13 33.3-20.6 11.9-12.1 26.4-27 32.7-34.2 16.2-18.2 35.9-39.3 50-40.3 3.3-.4 6.4-.1 9 .9 2.8 1 5 2.6 6.6 4.7 3.7 5.2 3.1 13.5-5.1 23.4-24.4 29.4-45.3 42.8-38 58.3 2.6 5.6 8.6 7.4 16.3 7.4 16.6-.1 46.7-21.9 77.3-46.5l20.9 46.6" stroke="#000001"/>
  </g>
 </g>
</svg>
