<svg height="210mm" viewBox="0 0 1052.4 744.1" width="297mm" xmlns="http://www.w3.org/2000/svg">
 <g fill="none" stroke-linecap="round">
  <g transform="translate(0 -308.26772)">
   <path d="m57.6 742.2h948.8" stroke="#969696" stroke-width="1.875"/>
   <g stroke="#000" stroke-dasharray="3.75 7.5" stroke-miterlimit="2" stroke-width=".9375">
    <path d="m58.3 844.1h948.8"/>
    <path d="m58.3 641.8h948.8"/>
    <path d="m58.3 540.6h948.8"/>
   </g>
  </g>
  <path d="m351.7 356.7c4.7-5.1 8.5-9 10.2-10.4 23.7-19.2 60.9-14.6 37.5 14.4-27.4 33.8-45.5 50.2-39.4 63.9 4.2 9.5 22.6 6.5 36.5-3.7 6.5-4.7 11.8-9.8 17.1-14.8" stroke="#0b0000" stroke-linejoin="round" stroke-width="5.625"/>
  <g stroke="#000">
   <path d="m413.5 406.1s16.1-15.2 24.3-23.2c26.1-25.7 75.1-67.1 99.8-46.5 11.9 8.4 14.4 20.9 14.7 30.6-7.9 43.5-61.2 63.4-81.6 64.2-26.8 1.1-46-21-26.7-50.8 19.6-21.2 25.4-27.9 49.2-40.9 19.9-14.9 59.4-5.1 66.3-7.5" stroke-linejoin="round" stroke-width="5.633858"/>
   <path d="m549.4 354.2c-14.4 29.1-41.4 56.2-71.3 75.3" stroke-width="5.625"/>
   <path d="m550.6 363.6c-16.6 22.2-34.5 43.3-56.4 61.1" stroke-width="5.625"/>
   <path d="m549.6 370.4c-14.9 22.5-20.6 30.9-43.5 48.5" stroke-width="7.5"/>
   <path d="m496 415.4c-10.5 10-32.1 14.6-39.3 13.1" stroke-width="3.75"/>
   <path d="m540.4 339.8c1.3 2.8 9.6 12.7 1.9 25.5" stroke-width="3.75"/>
   <g stroke-linejoin="round" stroke-width="5.625">
    <path d="m723.2 286.8-163.7 45.2"/>
    <path d="m565 317.7c.9.1 1.7.3 2.4.6.2.1.4.2.6.4 1.2.9 1.6 2.4.9 4.9-1.3 4.8-6.7 7.5-9.2 8.5-5.3 1.9-9.3-2.5-6.2-7.2 1.9-3 5.2-6.2 9.1-7 .3-.1.5-.1.8-.1s.7-.1 1-.1c.8 0 1.5.1 2.3.3"/>
    <ellipse cx="385.5712" cy="687.75293" rx="25.728558" ry="20.371416" transform="matrix(.79083574 -.61202846 .61202846 .79083574 0 0)"/>
   </g>
  </g>
 </g>
</svg>
