<svg height="210mm" viewBox="0 0 1052.4 744.1" width="297mm" xmlns="http://www.w3.org/2000/svg">
 <g fill="none" stroke-linecap="round">
  <g transform="translate(-16.687564 -521.16511)">
   <path d="m57.6 742.2h948.8" stroke="#969696" stroke-width="1.875"/>
   <g stroke="#000" stroke-dasharray="3.75 7.5" stroke-miterlimit="2" stroke-width=".9375">
    <path d="m58.3 844.1h948.8"/>
    <path d="m58.3 641.8h948.8"/>
    <path d="m58.3 540.6h948.8"/>
   </g>
  </g>
  <g transform="translate(-16.687564 -116.97075)">
   <path d="m57.6 742.2h948.8" stroke="#969696" stroke-width="1.875"/>
   <g stroke="#000" stroke-dasharray="3.75 7.5" stroke-miterlimit="2" stroke-width=".9375">
    <path d="m58.3 844.1h948.8"/>
    <path d="m58.3 641.8h948.8"/>
    <path d="m58.3 540.6h948.8"/>
   </g>
  </g>
  <g stroke="#000" stroke-linejoin="round" stroke-width="5.625">
   <path d="m508.4 547.3c1 .1 1.8.3 2.5.7.2.1.4.2.6.4 1.2.9 1.7 2.6 1 5.2-1.3 5.1-7.1 8-9.8 9-5.7 2-9.8-2.6-6.6-7.6 2-3.1 5.5-6.6 9.7-7.5.3-.1.6-.1.9-.1s.7-.1 1-.1c.8 0 1.6.1 2.4.3"/>
   <path d="m532.3 561.2-27.6.4"/>
   <path d="m542 545.3c1 .1 1.8.3 2.5.7.2.1.4.2.6.4 1.2.9 1.7 2.6 1 5.2-1.3 5.1-7.1 8-9.8 9-5.7 2-9.8-2.6-6.6-7.6 2-3.1 5.5-6.6 9.7-7.5.3-.1.6-.1.9-.1s.7-.1 1-.1c.8 0 1.6.1 2.4.3"/>
   <path d="m480.5 598.3s18.1-23 28.4-38.7"/>
   <path d="m519 426-90.4 173.9c-12.9 24.9 23.6 37.2 51.9-1.5"/>
   <path d="m537.9 560.5c21.6-3.5 72.6-31.8 96.7-32.9 24-.8 32.4 41.1 48.8 40.7 10.8-.3 18.5-10 25.1-17.1"/>
   <path d="m115.6 195.8 49.2-70.9 24.7 48.7"/>
   <path d="m111.5 123.2-42.4 72.8c-8.6 14.8.9 24.5 17.8 23.2 8.8-.7 16-7 28.7-23.4"/>
   <path d="m189.5 173.6c13.2-18.6 44.2-63.5 55.9-77.9"/>
   <path d="m245.4 95.8c11-12.6 19.9-18.1 28.1-21.7 24.8-6.9 35 2.5 12.3 40.5l-29.8 52.1"/>
   <path d="m255.9 166.7 130.6-142.6-56.8 94.8"/>
   <path d="m620.9 125.8c-47.8 12.5-89.4 106-47.1 93.4 15.2-3.3 71-38.9 88.1-48.8l22.4 50.2"/>
   <path d="m684.3 220.5c22.5-18.1 42.3-33.4 57.8-34.3 20.1-.2 16.5 32.9 34.6 34.3 18.8.2 42.7-20 48.1-24.5"/>
   <path d="m824.8 196 38-26.4 22.4 50.2"/>
   <path d="m473 118.7-69.2.5"/>
   <path d="m163.9 527.6-55.1 96.6"/>
   <path d="m108.8 624.2s68.8-29.4 85.6-30.3c16-.6 20.6 30 31.6 29.7 7.2-.2 13.4-6.5 17.8-11.9"/>
   <path d="m349.2 578.1-23.6 45.3"/>
  </g>
 </g>
</svg>
