<svg height="210mm" viewBox="0 0 1052.4 744.1" width="297mm" xmlns="http://www.w3.org/2000/svg">
 <g fill="none" stroke-linecap="round">
  <g transform="translate(0 -308.26772)">
   <path d="m57.6 742.2h948.8" stroke="#969696" stroke-width="1.875"/>
   <g stroke="#000" stroke-dasharray="3.75 7.5" stroke-miterlimit="2" stroke-width=".9375">
    <path d="m58.3 844.1h948.8"/>
    <path d="m58.3 641.8h948.8"/>
    <path d="m58.3 540.6h948.8"/>
   </g>
  </g>
  <g stroke="#000" stroke-width="5.625">
   <g stroke-linejoin="round">
    <path d="m496.7 394.4 159.4-199c11.2-10 20.1-9.6 25.5-8.3 19.1 4.5 11.2 19.6-4.7 41-15 20.3-24.5 36.8-43.1 61.9-26.3 35.4-55 68-47.8 86.2 5.2 10.1 14.4 11.1 24.9 7 5-1.9 10.3-5 15.7-8.8 4.2-2.9 19.6-16.8 39.8-42.2"/>
    <ellipse cx="154.86304" cy="636.52148" rx="25.728558" ry="20.371416" transform="matrix(.79083574 -.61202846 .61202846 .79083574 0 0)"/>
    <path d="m506.6 388.5c-139.3 61.4-241.3 51.2-244.9-.3"/>
    <path d="m666.4 332.3 30-40.8"/>
    <path d="m696.4 291.5c21.6-28.9 36.1-52.4 56.9-56.8 10.7-2.7 14.3.7 18.7 3.2 7.6 4.3 8 17.2-6 41.5l-29.8 52.1"/>
   </g>
   <path d="m261.7 388.2s-44.6 79.3-52.4 92.2c-2.7 4.5-5.8 10.2-8.2 16.4-12.2 28.5-2.3 35.4 10.9 35.7 15.4.4 28.9-12.2 42.1-29.5"/>
   <path d="m736.2 331.5s51.7-29.4 68.5-30.3c16-.6 21.6 31 32.6 30.7 7.2-.2 12.4-7.6 16.7-13" stroke-linejoin="round"/>
  </g>
 </g>
</svg>
