<svg height="210mm" viewBox="0 0 1052.4 744.1" width="297mm" xmlns="http://www.w3.org/2000/svg">
 <g fill="none" stroke-linecap="round">
  <g transform="translate(0 -308.26772)">
   <path d="m57.6 742.2h948.8" stroke="#969696" stroke-width="1.875"/>
   <g stroke="#000" stroke-dasharray="3.75 7.5" stroke-miterlimit="2" stroke-width=".9375">
    <path d="m58.3 844.1h948.8"/>
    <path d="m58.3 641.8h948.8"/>
    <path d="m58.3 540.6h948.8"/>
   </g>
  </g>
  <g stroke-linejoin="round" stroke-width="5.625">
   <g stroke="#000">
    <path d="m338.3 431.3 62.2-83.7"/>
    <ellipse cx="213.12488" cy="508.6647" rx="25.728558" ry="20.371416" transform="matrix(.89236516 -.45131411 .45131411 .89236516 0 0)"/>
    <path d="m403.3 344.4 44-58.1 17.7 44.1 76.4-49.6"/>
    <path d="m541.7 281.2c1-.8-25.9 49.6-25.9 49.6"/>
    <path d="m548.7 284-25.3 46.6"/>
    <path d="m527.8 330.5-12 .2"/>
    <path d="m555.6 281-27.7 49.5"/>
    <path d="m555.6 281-14.1-.1"/>
    <path d="m546.8 282.2-25.3 46.6"/>
   </g>
   <path d="m527.8 330.5 35.7.2" stroke="#030002"/>
   <path d="m572.7 314.9c1 .1 1.8.3 2.5.7.2.1.4.2.6.4 1.2.9 1.7 2.6 1 5.2-1.3 5.1-7.1 8-9.8 9-5.7 2-9.8-2.6-6.6-7.6 2-3.1 5.5-6.6 9.7-7.5.3-.1.6-.1.9-.1s.7-.1 1-.1c.8 0 1.6.1 2.4.3" stroke="#030002"/>
   <path d="m644.1 332.4c-53.2 7.3-100.2 80.3-96.4 92.6.9 3 16.3 22.9 59.8-38.1 26.9-36.9 54.6-73.4 69.3-116.4 15.5-30.1-1.4-56.7-44.4-11.6" stroke="#060000"/>
   <path d="m574.5 325.4 57.9-66.5" stroke="#000"/>
  </g>
 </g>
</svg>
