<svg height="210mm" viewBox="0 0 1052.4 744.1" width="297mm" xmlns="http://www.w3.org/2000/svg">
 <g fill="none" stroke-linecap="round" transform="translate(0 -308.26772)">
  <path d="m57.6 742.2h948.8" stroke="#969696" stroke-width="1.875"/>
  <g stroke="#000" stroke-dasharray="3.75 7.5" stroke-miterlimit="2" stroke-width=".9375">
   <path d="m58.3 844.1h948.8"/>
   <path d="m58.3 641.8h948.8"/>
   <path d="m58.3 540.6h948.8"/>
  </g>
 </g>
 <g fill="none" stroke="#000" stroke-linecap="round" stroke-linejoin="round" stroke-width="5.625">
  <path d="m362.7 262.8c101.4-84.1 79.6 34.5 10.2 139-36.9 55.5-102.9 129.7-132.9 131.4"/>
  <ellipse cx="-54.310898" cy="604.61835" rx="25.728558" ry="20.371416" transform="matrix(.79083574 -.61202846 .61202846 .79083574 0 0)"/>
  <path d="m325.6 489.7s-121.5 45.2-85.6 43.5"/>
  <ellipse cx="220.31845" cy="687.42426" rx="25.728558" ry="20.371416" transform="matrix(.79083574 -.61202846 .61202846 .79083574 0 0)"/>
  <path d="m574.4 401.8c8.9-14.6 89.1-148.6 156.3-202 51.1-40 27.3 33.2-11.4 98.9-24.1 39.8-52.5 73.5-75.7 83.5-9.6 4.7-17.8 3.2-14.6-6.5s73-27.7 90.3-32.4l15-4.6 12.9-3.4 22.6 48.4"/>
 </g>
 <circle cx="500.09323" cy="355.93176" r="10.653955"/>
 <circle cx="484.70358" cy="404.94739" r="10.653955"/>
</svg>
