<svg height="210mm" viewBox="0 0 1052.4 744.1" width="297mm" xmlns="http://www.w3.org/2000/svg">
 <g fill="none" stroke-linecap="round">
  <g transform="translate(0 -308.26772)">
   <path d="m57.6 742.2h948.8" stroke="#969696" stroke-width="1.875"/>
   <g stroke="#000" stroke-dasharray="3.75 7.5" stroke-miterlimit="2" stroke-width=".9375">
    <path d="m58.3 844.1h948.8"/>
    <path d="m58.3 641.8h948.8"/>
    <path d="m58.3 540.6h948.8"/>
   </g>
  </g>
  <g stroke="#000" stroke-linejoin="round" stroke-width="5.625">
   <path d="m550 395c-72.5 44.2-101.2 45.9-152.4 93.7-21.9 19.5-26.4 40.9-15.5 45.9 8.8 2.1 25-3 49.3-44.8 13.1-23.2 15.8-67 28.8-84 10.3-13.2 19.8-22.6 30.8-29.8 28.2-18.6 26.8-41.3 9.6-40.4-12.4.7-21.5 3.6-34.5 19.5"/>
   <path d="m498.7 481.8s-45.7 33.6-57.1 45.4c-25.9 26.2-39.9 52.6-36.9 60.3 1.1 2.9 17.7 21.8 57.3-41.8l88-150.7"/>
  </g>
 </g>
</svg>
