<svg height="210mm" viewBox="0 0 1052.4 744.1" width="297mm" xmlns="http://www.w3.org/2000/svg">
 <g fill="none" stroke-linecap="round">
  <g transform="translate(0 -308.26772)">
   <path d="m57.6 742.2h948.8" stroke="#969696" stroke-width="1.875"/>
   <g stroke="#000" stroke-dasharray="3.75 7.5" stroke-miterlimit="2" stroke-width=".9375">
    <path d="m58.3 844.1h948.8"/>
    <path d="m58.3 641.8h948.8"/>
    <path d="m58.3 540.6h948.8"/>
   </g>
  </g>
  <g stroke="#000" stroke-linejoin="round">
   <g stroke-width="5.625">
    <path d="m383.3 431.1c50.4-65.5 115.5-58.4 97 .6"/>
    <path d="m480.4 431.7c43-60.2 152.1-208.8 184.5-232.7 2.2-1.6 3.7-2.7 4.3-3.2"/>
    <path d="m667.5 197.1c4.5-3.5 8.4-6.2 11.8-8.1 59.5-33.1-41.8 169.4-100 194.7-16.3 3.7-19-7.9-15.9-18.3 3.1-10.3 43.5-16 60.9-20.7l53.6-15.5"/>
    <path d="m695.5 205.4-91.7 157.8"/>
   </g>
   <path d="m689.7 221.7-73 125.6" stroke-width="8.4375"/>
   <path d="m587 379.2c6.6-8.2 16.4-19 22.5-27.9" stroke-width="3.75"/>
   <g stroke-width="5.625">
    <path d="m678.7 249.3-40.2 67.9"/>
    <path d="m697.2 191.8c.7 14-5.4 18.6-14.3 37.1"/>
   </g>
  </g>
 </g>
</svg>
