<svg height="210mm" viewBox="0 0 1052.4 744.1" width="297mm" xmlns="http://www.w3.org/2000/svg">
 <g fill="none" stroke-linecap="round">
  <g transform="translate(0 -308.26772)">
   <path d="m57.6 742.2h948.8" stroke="#969696" stroke-width="1.875"/>
   <g stroke="#000" stroke-dasharray="3.75 7.5" stroke-miterlimit="2" stroke-width=".9375">
    <path d="m58.3 844.1h948.8"/>
    <path d="m58.3 641.8h948.8"/>
    <path d="m58.3 540.6h948.8"/>
   </g>
  </g>
  <g stroke="#000">
   <g stroke-linejoin="round">
    <g stroke-width="5.625">
     <path d="m554.2 380.2c10.2-5.8 20.2-9 25.5-10.4 11.2-3 25.5-3.1 24.1 4.7 0 .2.1.4.1.7 0 1.4-.6 2.7-2.1 3.8-2.9 2.2-6.9.8-8.5-.4-3.3-.5-1-11.9 0-10.6 1.7 2.4 0 0 8.8 2.8.2.1.3.3.4.5.2.2.4.7.6.9.3.5.4.9.7 1.6"/>
     <path d="m603.6 374.5a5.5 1.8 0 0 1 -5.5 1.8 5.5 1.8 0 0 1 -5.5-1.8 5.5 1.8 0 0 1 5.4-1.8 5.5 1.8 0 0 1 5.5 1.8h-5.5z"/>
     <path d="m641.6 338c-14.4 6-38.2 22.6-48.9 32.3"/>
     <path d="m384.3 360.5c9.3-12.6 18-18.1 26.2-21.7 24.8-6.9 35 2.5 12.3 40.5l-29.8 52.1"/>
     <path d="m396 419.9c19.6-4.1 48.8-30.4 57-38.7"/>
     <path d="m453.1 381.2c21.8-23.2 34.1-35 53.1-41.3 37.3-12.3 58.5 3.2 48 40.3"/>
    </g>
    <path d="m544.9 342c7.1 5.9 8.1 27.1 3.2 37.8" stroke-width="6.5625"/>
    <path d="m532.3 335.7c16.4 3.3 16.8 35.2 10.1 45.2" stroke-width="4.6875"/>
   </g>
   <g stroke-width="5.625">
    <path d="m543.1 380.9 10.5.1"/>
    <path d="m400 408c.8.1 1.4.2 1.9.5.2.1.3.2.5.3.9.7 1.3 2 .8 4-1 3.9-5.4 6.1-7.5 6.9-4.3 1.6-7.6-2-5.1-5.9 1.6-2.4 4.2-5.1 7.4-5.7.2 0 .4-.1.7-.1s.5-.1.8-.1c.6 0 1.2.1 1.9.3" stroke-linejoin="round"/>
   </g>
  </g>
 </g>
</svg>
