<svg height="210mm" viewBox="0 0 1052.4 744.1" width="297mm" xmlns="http://www.w3.org/2000/svg">
 <g fill="none" stroke-linecap="round">
  <g transform="translate(0 -308.26772)">
   <path d="m57.6 742.2h948.8" stroke="#969696" stroke-width="1.875"/>
   <g stroke="#000" stroke-dasharray="3.75 7.5" stroke-miterlimit="2" stroke-width=".9375">
    <path d="m58.3 844.1h948.8"/>
    <path d="m58.3 641.8h948.8"/>
    <path d="m58.3 540.6h948.8"/>
   </g>
  </g>
  <g stroke="#000">
   <g stroke-width="5.625">
    <path d="m418 431.1s145.6-105.5 161-119.4c45.6-41.3 55-69.7 40.6-76.2-37.8-13.7-77.8 131.7-100.2 156.5-9.7 14.6-41.5 40.5-49.6 39.3"/>
    <g stroke-linejoin="round">
     <path d="m138.9 431.7c6.9-7.3 21.1-25.6 40.5-25.1 19.4.4 15.4 25 33.9 25.2 9 .6 25.2-4 52.3-15.2 22.5-9 205.7-80.2 205.7-80.2l-53.2 94.7"/>
     <path d="m586.6 431.8c20.4-5.8 48.4-12.2 63.8-3.5 26.9 11.5 21.7 45.8 44.8 46.1"/>
     <path d="m469.8 431.3c-13.4-2.7 45.1-44.7 74-46.5 29.4-1.8 48.8 16.2 42.8 47"/>
     <path d="m695.3 474.4c27.2-.3 66-47.8 108.9-94.9 37.6-41.3 69.7-82.3 58.8-92.9-12.2-11.9-33.1 3.7-80.3 81.6-44.1 76.2-39 111.1-16.6 112.5"/>
    </g>
   </g>
   <path d="m910.4 283.1s-50.1 90-61.4 109.4c-29.6 50.7-52.7 89.7-83 88.3" stroke-width="5.624999"/>
  </g>
 </g>
</svg>
