<svg height="210mm" viewBox="0 0 1052.4 744.1" width="297mm" xmlns="http://www.w3.org/2000/svg">
 <g fill="none" stroke-linecap="round">
  <g transform="translate(0 -308.26772)">
   <path d="m57.6 742.2h948.8" stroke="#969696" stroke-width="1.875"/>
   <g stroke="#000" stroke-dasharray="3.75 7.5" stroke-miterlimit="2" stroke-width=".9375">
    <path d="m58.3 844.1h948.8"/>
    <path d="m58.3 641.8h948.8"/>
    <path d="m58.3 540.6h948.8"/>
   </g>
  </g>
  <g stroke="#000">
   <g stroke-linejoin="round">
    <path d="m635.6 427c9.3 3.3 65.6-42.2 65.6-42.2l-47.5 94.5" stroke-width="5.625"/>
    <path d="m427.1 430.3s203.9 5.4 210.8-3.3" stroke-width="5.625"/>
    <path d="m435.2 336.4-47.8 86.7" stroke-width="6.5625"/>
    <path d="m329.8 431.1 96.1-95.1-39 72.4c-6.7 12.4.5 21.6 12 22.9 5.8.7 27.7-.4 36.4-3.2" stroke-width="5.625"/>
    <path d="m430.6 336.4-44.7 81.9" stroke-width="6.5625"/>
   </g>
   <path d="m392.4 416.9c-1.6 4.2-2.6 6.5.8 11.9" stroke-width="3.75"/>
   <g stroke-linejoin="round">
    <path d="m435.2 336.4-9.3-.4" stroke-width="6.5625"/>
    <g stroke-width="5.625">
     <ellipse cx="202.27724" cy="558.86072" rx="25.728558" ry="20.371416" transform="matrix(.89236516 -.45131411 .45131411 .89236516 0 0)"/>
     <ellipse cx="751.66815" cy="-129.67444" rx="4.609393" ry="6.862874" transform="matrix(.72846687 .68508103 -.68508103 .72846687 0 0)"/>
    </g>
   </g>
  </g>
 </g>
</svg>
