<svg height="210mm" viewBox="0 0 1052.4 744.1" width="297mm" xmlns="http://www.w3.org/2000/svg">
 <g fill="none" stroke-linecap="round" transform="translate(0 -308.26772)">
  <path d="m57.6 742.2h948.8" stroke="#969696" stroke-width="1.875"/>
  <g stroke="#000" stroke-dasharray="3.75 7.5" stroke-miterlimit="2" stroke-width=".9375">
   <path d="m58.3 844.1h948.8"/>
   <path d="m58.3 641.8h948.8"/>
   <path d="m58.3 540.6h948.8"/>
  </g>
 </g>
 <g fill="none" stroke="#000" stroke-linecap="round">
  <path d="m258.5 384.8 20.5 46.3" stroke-linejoin="round" stroke-width="5.625"/>
  <path d="m362.6 431.1c-7.3.8-13.7-1.8-16.3-7.4-7.2-15.5 13.3-29.1 37.7-58.6 8.2-9.9 8.8-18.2 5.1-23.4-1.5-2.2-3.8-3.8-6.6-4.7-2.6-.9-5.7-1.2-9-.9-14.1 1-26.5 14.7-42.7 32.9-10.4 12-36.1 43.4-51.8 62.1" stroke-linejoin="round" stroke-width="5.624999"/>
  <path d="m385.2 338.6c.8-1.1 3.5 6.2.4 14.1-3.2 8.2-12.5 19.1-17.8 24.2-10.5 9.9-29.8 30.2-23.7 46.5" stroke-width="5.472634"/>
  <path d="m385 337.5c15.4 6.8 4.1 30.2-12.2 46.1-14 13.6-22.7 27.7-28.7 39.7" stroke-width="5.472634"/>
  <g stroke-width="2.736317">
   <path d="m351.5 412.8c-3.4 4.9-3.9 16.8 8.2 17.1"/>
   <path d="m341.6 417.5c-.1 5.5 3.6 16.7 18.5 15.2"/>
   <path d="m374.5 337.5c13.6-1 12 8.9 9.3 16.2"/>
  </g>
  <g stroke-linejoin="round">
   <path d="m362.6 431.1c11.8-1.4 20.1-7.7 27.8-15" stroke-width="5.625"/>
   <path d="m644.7 384.8 20.5 46.3" stroke-width="5.625"/>
   <path d="m826.4 387.9c-15.4 14.9-53.8 40.3-77.7 43.2-7.3.8-13.7-1.8-16.3-7.4-7.2-15.5 13.3-29.1 37.7-58.6 8.2-9.9 8.8-18.2 5.1-23.4-1.5-2.2-3.8-3.8-6.6-4.7-2.6-.9-5.7-1.2-9-.9-14.1 1-26.5 14.7-42.7 32.9-10.4 12-36.1 43.4-51.8 62.1" stroke-width="5.624999"/>
  </g>
  <path d="m771.4 338.6c.8-1.1 3.5 6.2.4 14.1-3.2 8.2-12.5 19.1-17.8 24.2-10.5 9.9-29.8 30.2-23.7 46.5" stroke-width="5.472634"/>
  <path d="m771.2 337.5c15.4 6.8 4.1 30.2-12.2 46.1-14 13.6-22.7 27.7-28.7 39.7" stroke-width="5.472634"/>
  <g stroke-width="2.736317">
   <path d="m737.7 412.8c-3.4 4.9-3.9 16.8 8.2 17.1"/>
   <path d="m727.8 417.5c-.1 5.5 3.6 16.7 18.5 15.2"/>
   <path d="m760.7 337.5c13.6-1 12 8.9 9.3 16.2"/>
  </g>
 </g>
 <circle cx="530.43005" cy="361.37714" r="10.653956"/>
 <circle cx="515.04041" cy="410.39276" r="10.653956"/>
</svg>
