<svg height="210mm" viewBox="0 0 1052.4 744.1" width="297mm" xmlns="http://www.w3.org/2000/svg">
 <g fill="none" stroke-linecap="round">
  <g transform="translate(0 -308.26772)">
   <path d="m57.6 742.2h948.8" stroke="#969696" stroke-width="1.875"/>
   <g stroke="#000" stroke-dasharray="3.75 7.5" stroke-miterlimit="2" stroke-width=".9375">
    <path d="m58.3 844.1h948.8"/>
    <path d="m58.3 641.8h948.8"/>
    <path d="m58.3 540.6h948.8"/>
   </g>
  </g>
  <g stroke="#000" stroke-linejoin="round">
   <g stroke-width="5.625">
    <path d="m334.2 359.4c24.3-33 69.8-34.2 37.2 20l-31.1 51.6"/>
    <path d="m340.3 431s49.1-67.4 80.8-87.2c3.5-2.1 7.1-4 11-5.7 19.6-8.3 35 2.5 12.3 40.5l-31.2 52.3"/>
    <path d="m676.2 417.8c19.4-12.1 36.7-23.5 58.5-34.7 31.1-17.7 46.3-36.3 43.5-43.7-2.8-7.3-32.7-5.1-56.5 34.3-10.9 18.5-21.9 37.4-32.8 57.2l11.7-.1"/>
    <path d="m737 354-36.5 76.9"/>
   </g>
   <path d="m727.3 368.9-30.8 57" stroke-width="7.5"/>
   <path d="m748.2 345.8c-9.4 7-13.6 16.3-17.8 25.6" stroke-width="2.8125"/>
   <path d="m413.1 430.9s48.2-38.7 104.4-40.1c56.1-1.3 71.3 40.1 111 39.1 17.7-.4 35.8-4.9 50-13.5" stroke-width="5.625"/>
  </g>
 </g>
</svg>
