<svg height="210mm" viewBox="0 0 1052.4 744.1" width="297mm" xmlns="http://www.w3.org/2000/svg">
 <g fill="none" stroke-linecap="round">
  <g transform="translate(0 -308.26772)">
   <path d="m57.6 742.2h948.8" stroke="#969696" stroke-width="1.875"/>
   <g stroke="#000" stroke-dasharray="3.75 7.5" stroke-miterlimit="2" stroke-width=".9375">
    <path d="m58.3 844.1h948.8"/>
    <path d="m58.3 641.8h948.8"/>
    <path d="m58.3 540.6h948.8"/>
   </g>
  </g>
  <g stroke="#000" stroke-linejoin="round" stroke-width="5.625">
   <path d="m625.1 347c1 .1 1.8.3 2.5.7.2.1.4.2.6.4 1.2.9 1.7 2.6 1 5.2-1.3 5.1-7.1 8-9.8 9-5.7 2-9.8-2.6-6.6-7.6 2-3.1 5.5-6.6 9.7-7.5.3-.1.6-.1.9-.1s.7-.1 1-.1c.8 0 1.6.1 2.4.3"/>
   <path d="m471.6 336.3-56.7 94.9 205.6-69.2"/>
   <path d="m351.9 310.6c21.7-33.7 80.8-39.6 38.5 16.8-42.2 56.4-60.9 78.2-56.1 97 3.4 13.1 24.4 4 37.6-5"/>
   <path d="m471.6 336.3s-94 78.8-99.7 83.1"/>
   <path d="m620.5 361.9c4.9 1.2 35.6-24.7 41.5-25.9"/>
   <path d="m660.3 479.9c28.5-22.6 35.5-31.4 39-55.7 1.8-12.5-2.6-28-12.8-37.6-5-4.7-11-8.4-17-11.7-8.5-4.8-11.8-5.8-17.2-11.5-6-6.3-5-21.2 9.8-27.5"/>
  </g>
 </g>
</svg>
