<svg height="210mm" viewBox="0 0 1052.4 744.1" width="297mm" xmlns="http://www.w3.org/2000/svg">
 <g fill="none" stroke-linecap="round">
  <g transform="translate(0 -308.26772)">
   <path d="m57.6 742.2h948.8" stroke="#969696" stroke-width="1.875"/>
   <g stroke="#000" stroke-dasharray="3.75 7.5" stroke-miterlimit="2" stroke-width=".9375">
    <path d="m58.3 844.1h948.8"/>
    <path d="m58.3 641.8h948.8"/>
    <path d="m58.3 540.6h948.8"/>
   </g>
  </g>
  <g stroke="#000" stroke-linejoin="round" stroke-width="5.625">
   <path d="m470.8 336.8c-14.3 3.7-28.4 14.7-39.8 27.9-24.4 28.3-36.3 66.8-11.9 66.6 29-.3 64.2-30.1 92.8-50l22.4 50.2"/>
   <path d="m624.6 331.7 37.1-96.5-127.4 196.3"/>
   <path d="m307.5 431.5c3.5-1.2 6.9-2 10.1-3.8 2.2-1.2 4.3-2.6 6.3-4 13.5-9.6 24.3-23.7 34.5-39.1 7-10.6 28.6-48.5 28.6-48.5"/>
   <path d="m307.5 431.5c-4.7-2.9 121.7-71.3 149.7-89.2"/>
  </g>
 </g>
</svg>
