<svg height="210mm" viewBox="0 0 1052.4 744.1" width="297mm" xmlns="http://www.w3.org/2000/svg">
 <g fill="none" stroke-linecap="round">
  <g transform="translate(0 -308.26772)">
   <path d="m57.6 742.2h948.8" stroke="#969696" stroke-width="1.875"/>
   <g stroke="#000" stroke-dasharray="3.75 7.5" stroke-miterlimit="2" stroke-width=".9375">
    <path d="m58.3 844.1h948.8"/>
    <path d="m58.3 641.8h948.8"/>
    <path d="m58.3 540.6h948.8"/>
   </g>
  </g>
  <g stroke="#000" stroke-linejoin="round" stroke-width="5.625">
   <path d="m522.7 431.2c5.4-3.3 11.7-10.5 6.5-17.1-2.6-3.3-4-4.5-11.9-4.4l-135 .6c-5.8 0-12.7.1-15.9-.7-9.6-2.4-7.9-13.2 0-24"/>
   <path d="m335.2 262.6c26.2-20.7 42.9-28.7 52.4-27.8 41.5 3.9-56.8 178.8-113.5 196.4"/>
   <path d="m528.9 425.7c31.2-41.2 68.9-94.1 79.9-108.1 30.5-38.8 66.7-88.8 96.9-82.1 40.7 9-56.8 178.1-113.5 195.6"/>
   <path d="m366.4 385.6s-75.6 28.4-95.3 40.8c-6 3.7-1.9 6.1 2.9 4.8"/>
   <path d="m713.8 346.3s-105 67.7-124.7 80.1c-6 3.7-1.9 6.1 2.9 4.8"/>
   <ellipse cx="752.79956" cy="-238.53072" rx="4.609393" ry="6.862874" transform="matrix(.72846687 .68508103 -.68508103 .72846687 0 0)"/>
   <ellipse cx="770.98981" cy="-255.47508" rx="4.609393" ry="6.862874" transform="matrix(.72846687 .68508103 -.68508103 .72846687 0 0)"/>
   <path d="m737.3 347.3c-7 3.4-21.7 4.3-29.2.5"/>
  </g>
 </g>
</svg>
