<svg height="210mm" viewBox="0 0 1052.4 744.1" width="297mm" xmlns="http://www.w3.org/2000/svg">
 <g fill="none" stroke-linecap="round">
  <g transform="translate(0 -308.26772)">
   <path d="m57.6 742.2h948.8" stroke="#969696" stroke-width="1.875"/>
   <g stroke="#000" stroke-dasharray="3.75 7.5" stroke-miterlimit="2" stroke-width=".9375">
    <path d="m58.3 844.1h948.8"/>
    <path d="m58.3 641.8h948.8"/>
    <path d="m58.3 540.6h948.8"/>
   </g>
  </g>
  <g stroke="#000" stroke-linejoin="round">
   <g stroke-width="5.625">
    <ellipse cx="566.53522" cy="51.212059" rx="4.609393" ry="6.862875" transform="matrix(.72846687 .68508103 -.68508103 .72846687 0 0)"/>
    <path d="m375.9 431.3c13.5-1.9 50.3-20.1 91.3-47.3l22.1 47.1"/>
    <path d="m547.6 431.2 89.5-41.3-52.4 96"/>
   </g>
   <path d="m547.6 431.2s19.9-41.4 29.9-62.7c5.7-11.8 6.4-19.9 4.3-25-2-4.8-6.4-7.1-11.4-7.6-5.8-.6-12.4 1.9-18.9 6.5-6.1 4.2-12.3 10.2-17.4 17.1-12.7 17.2-44.6 71.5-44.6 71.5" stroke-width="5.62496"/>
  </g>
 </g>
</svg>
