<svg height="210mm" viewBox="0 0 1204.7 744.1" width="340mm" xmlns="http://www.w3.org/2000/svg">
 <g fill="none" stroke-linecap="round" transform="translate(0 -308.26772)">
  <path d="m19.7 742.2h1162.9" stroke="#969696" stroke-width="1.875"/>
  <g stroke="#000" stroke-dasharray="3.75 7.5" stroke-miterlimit="2" stroke-width=".9375">
   <path d="m20.4 844.1h1162.9"/>
   <path d="m20.4 641.8h1162.9"/>
   <path d="m20.4 540.6h1162.9"/>
  </g>
 </g>
 <g fill="none" stroke="#000" stroke-linecap="round">
  <g stroke-linejoin="round">
   <g stroke-width="5.625">
    <path d="m565.5 237.7c-.5-.5-.8-.8-1.4-1.1-.2-.1-.7-.4-.9-.5s-.4-.2-.6-.2c-9 1.9-6.3 3.2-9 1.9-1.5-.7 2.2 10.4 5.3 9.2 2 .3 6.1-.4 7.6-3.8.7-1.7.6-3.2-.1-4.4-.1-.2-.3-.3-.4-.6-2.6-7.5-15-.3-23.3 7.8-3.9 3.8-11.1 11.6-17.1 21.7-12.5 20.1-100 163.7-100 163.7"/>
    <path d="m374.3 486.7a5.5 1.8 0 0 1 -5.5 1.8 5.5 1.8 0 0 1 -5.5-1.8 5.5 1.8 0 0 1 5.4-1.8 5.5 1.8 0 0 1 5.5 1.8h-5.5z" transform="matrix(.86958032 -.49379153 .49379153 .86958032 0 0)"/>
    <path d="m199.5 334.4-43 77.4"/>
   </g>
   <path d="m202.7 337.1-35.8 59.7" stroke-width="7.5"/>
   <path d="m167.6 389.1c-8.3 16.5-17.6 28.2-27 35" stroke-width="2.8125"/>
   <g stroke-width="5.625">
    <path d="m300.2 413.8 101.2-29.2 24.2 46.9"/>
    <path d="m202.1 370.4c14.9-7.4 41.6-24.1 74-33.5-40.3 12.4-78.1 79.1-59.9 92.3 16.4 4.4 27.7-1.1 43.4-4.7 18.9-4.4 40.6-10.8 40.6-10.8"/>
    <path d="m202.1 370.4s-57.2 29.8-75.2 43.8c-8.1 5.4-10.2 18.3 1.6 16.6 3.5-1.3 6.9-2 10.1-3.8 2.2-1.2 4.3-2.5 6.3-4 13.5-9.6 24.3-23.7 34.5-39.1l30.9-50"/>
    <path d="m210.4 334-10.9.3"/>
   </g>
  </g>
  <g stroke-width="5.625">
   <path d="m199.5 334.4c-62.1 50.8-85.1 91.5-130.1 96.9-21.2 2-33.9-15.5-26.1-42.3"/>
   <g stroke-linejoin="round">
    <path d="m688.1 383.5 20.9 46.6"/>
    <path d="m709 430.1s160.9-121.9 181.6-137.2c40-25.1 102.8-79.6 142.1-101.4 30.6-15.2 36.1-8.8 30.1 15.3-12.2 49.4-76.5 164-115.7 173.7"/>
    <path d="m1173.4 255.6c-12.3 17.6-46.1 31.6-52.1 17.9s12.1-30.1 39.4-63.9c21.3-26.3-10.1-33-32.5-19.7-2.9 1.7-5.7 3.8-8.2 6.3-33.2 32.6-104.1 130.7-150.2 170.3"/>
   </g>
  </g>
 </g>
 <circle cx="615.67993" cy="357.97952" r="10.653955"/>
 <circle cx="600.29028" cy="406.99515" r="10.653955"/>
</svg>
