<svg height="210mm" viewBox="0 0 1052.4 744.1" width="297mm" xmlns="http://www.w3.org/2000/svg">
 <g fill="none" stroke-linecap="round">
  <g transform="translate(0 -308.26772)">
   <path d="m57.6 742.2h948.8" stroke="#969696" stroke-width="1.875"/>
   <g stroke="#000" stroke-dasharray="3.75 7.5" stroke-miterlimit="2" stroke-width=".9375">
    <path d="m58.3 844.1h948.8"/>
    <path d="m58.3 641.8h948.8"/>
    <path d="m58.3 540.6h948.8"/>
   </g>
  </g>
  <g stroke="#000">
   <path d="m729.4 336 18.8 46.3" stroke-linejoin="round" stroke-width="5.625"/>
   <path d="m729.4 336s-91.2 33.2-100.3 37.1c-20.3 8.6-53 27.9-71.9 42.6-32.5 23.2-40.2 52.7-38 60 .9 3 16.3 22.9 59.8-38.1 26.9-36.9 54.6-73.4 69.3-116.4 10.4-20.2 6.2-38.9-10.8-35.2" stroke-linejoin="round" stroke-width="5.625"/>
   <path d="m648.9 310.4c-20.5 45.9-64.8 123.2-100.9 158.2" stroke-width="8.4375"/>
   <path d="m651.9 298.3c1.4 8.4-92.8 164.8-114.9 178.5" stroke-width="5.625"/>
   <path d="m644.4 286.8c7 1.1 9.6 9.2 3 20.7" stroke-width="3.75"/>
   <path d="m544.7 468.4c-6.3 5.5-18.8 17.1-24.4 7.2" stroke-width="3.75"/>
   <g stroke-linejoin="round">
    <path d="m350.3 388.8s256.2-97.1 287.3-102.8" stroke-width="5.625"/>
    <path d="m350.3 388.8c-26.4 11.9-94.6 42.2-77.6 42.8 3 .3 9.7-4.2 11-5 10.7-6.1 20.2-15.8 27.8-26.6 28.4-40.2 30.6-95.6-25.7-40.3" stroke-width="5.419139"/>
   </g>
  </g>
 </g>
</svg>
