<svg height="210mm" viewBox="0 0 1133.9 744.1" width="320mm" xmlns="http://www.w3.org/2000/svg">
 <g fill="none" stroke-linecap="round">
  <g transform="translate(0 -308.26772)">
   <path d="m20.1 742.2h1091.3" stroke="#969696" stroke-width="1.875"/>
   <g stroke="#000" stroke-dasharray="3.75 7.5" stroke-miterlimit="2" stroke-width=".9375">
    <path d="m20.8 844.1h1091.3"/>
    <path d="m20.8 641.8h1091.3"/>
    <path d="m20.8 540.6h1091.3"/>
   </g>
  </g>
  <g stroke="#000" stroke-linejoin="round" stroke-width="5.625">
   <path d="m577.3 336.6s-3.1 1.2 3.3-1.1c16.3-5.7 36.1 3.9 18.7 25.5-27.4 33.8-45.5 50.2-39.4 63.9 2.1 4.7 9 6.5 17.1 5.9"/>
   <path d="m287.1 402.3c10.2-5.8 16.3-9.8 30.4-13.9 29.1-8.5 51.6 8.1 46.4 42.7l213.5-94.5"/>
   <path d="m42.5 432.4s41.7-39.1 90.2-40.4 61.6 39.3 96 39.5c24.5-.7 42.8-19.4 58.4-29.1"/>
   <path d="m1034.9 436.8 24.1 47.9"/>
   <path d="m729.6 434.5c-13.7 9.1-34.4 28.7-45.7 43-20.5 26-31.9 44-26.4 53.8 2.9 5.3 34.7 12.4 62.3-63.3 15.8-47.4 16.5-113.3 70.8-131.6"/>
   <path d="m939.4 482.7c16.8-.5 33-21.3 35-47.2 2.1-26.8 36.3-48.7 36.3-48.7s-268.7 34.7-281.1 47.8"/>
   <path d="m1034.9 436.8s-103.3 23.6-103.3 38.9c0 0-2.6 6.4 7.8 7"/>
   <path d="m702.1 418.6c6.7-8.7 56.9-65 70.6-73.2"/>
   <path d="m577 430.8c15.8-.5 59-29.1 75.8-30 16-.6 21.6 31 32.6 30.7 7.2-.2 12.4-7.6 16.7-13"/>
  </g>
 </g>
</svg>
