<svg height="210mm" viewBox="0 0 1052.4 744.1" width="297mm" xmlns="http://www.w3.org/2000/svg">
 <g fill="none" stroke-linecap="round" transform="translate(0 -308.26772)">
  <path d="m57.6 742.2h948.8" stroke="#969696" stroke-width="1.875"/>
  <g stroke="#000" stroke-dasharray="3.75 7.5" stroke-miterlimit="2" stroke-width=".9375">
   <path d="m58.3 844.1h948.8"/>
   <path d="m58.3 641.8h948.8"/>
   <path d="m58.3 540.6h948.8"/>
  </g>
 </g>
 <g fill="none" stroke="#000" stroke-linecap="round">
  <g stroke-linejoin="round">
   <path d="m202.5 359.9c24.3-33 69.8-34.2 37.2 20l-31.5 52.1 279.8-146.5" stroke-width="5.625"/>
   <path d="m497.3 285.9-47.8 86.7" stroke-width="6.5625"/>
   <path d="m488 285.5-39 72.4c-8.4 15.5 5 26 21.5 22.2 10.1-2.1 46.3-23.3 76-41.9" stroke-width="5.625"/>
   <path d="m492.6 285.9-44.7 81.9" stroke-width="6.5625"/>
  </g>
  <path d="m454.4 366.4c-1.6 4.1-2.6 6.5.8 11.8" stroke-width="3.75"/>
  <g stroke-linejoin="round">
   <path d="m497.3 285.9-9.3-.4" stroke-width="6.5625"/>
   <g stroke-width="5.625">
    <path d="m718.9 359.2c24.3-33 69.8-34.2 37.2 20l-31.5 52.1 55.3-54.8"/>
    <path d="m779.8 376.5 40.5-40.8-39 72.4c-8.4 15.5 5 26 21.5 22.2 10.1-2.1 46.3-23.3 76-41.9"/>
   </g>
  </g>
 </g>
 <circle cx="608.76147" cy="359.98846" r="10.653955"/>
 <circle cx="593.37189" cy="409.00409" r="10.653955"/>
</svg>
