<svg height="210mm" viewBox="0 0 1052.4 744.1" width="297mm" xmlns="http://www.w3.org/2000/svg">
 <g fill="none" stroke-linecap="round">
  <g transform="translate(0 -308.26772)">
   <path d="m57.6 742.2h948.8" stroke="#969696" stroke-width="1.875"/>
   <g stroke="#000" stroke-dasharray="3.75 7.5" stroke-miterlimit="2" stroke-width=".9375">
    <path d="m58.3 844.1h948.8"/>
    <path d="m58.3 641.8h948.8"/>
    <path d="m58.3 540.6h948.8"/>
   </g>
  </g>
  <g stroke="#000">
   <g stroke-linejoin="round">
    <path d="m776.1 268.6c19.4-12.1 36.7-23.5 58.5-34.7 31.1-17.7 46.3-36.3 43.5-43.7-2.8-7.3-32.7-5.1-56.5 34.3-10.9 18.5-21.9 37.4-32.8 57.2l11.7-.1" stroke-width="5.625"/>
    <path d="m836.9 204.7-36.5 76.9" stroke-width="5.625"/>
    <path d="m827.2 219.6-30.8 57" stroke-width="7.5"/>
    <path d="m848.1 196.6c-9.4 7-13.6 16.3-17.8 25.6" stroke-width="2.8125"/>
    <path d="m479.2 281.2c43.2-18.7 87.3-43.7 132.3-45 56.1-1.3 75.1 46.7 114.8 45.7 17.7-.4 35.8-4.9 50-13.5" stroke-width="5.625"/>
   </g>
   <g stroke-width="5.625">
    <path d="m446.2 234.9s-88.4 157.8-102.7 177.5c-12.5 17.4-17.9 19-34 19.5-16.1.4-24.1-21.6-42.1-22.3-18.2-.4-20.1 21.6-3.5 22.4 8.5.4 19.6-3.7 43.1-42.5 45-73.7-8-54.1-28.4-32.2"/>
    <path d="m446.2 234.9 31.3 46.4" stroke-linejoin="round"/>
   </g>
  </g>
 </g>
</svg>
