<svg height="210mm" viewBox="0 0 1052.4 744.1" width="297mm" xmlns="http://www.w3.org/2000/svg">
 <g fill="none" stroke-linecap="round">
  <g transform="translate(0 -308.26772)">
   <path d="m57.6 742.2h948.8" stroke="#969696" stroke-width="1.875"/>
   <g stroke="#000" stroke-dasharray="3.75 7.5" stroke-miterlimit="2" stroke-width=".9375">
    <path d="m58.3 844.1h948.8"/>
    <path d="m58.3 641.8h948.8"/>
    <path d="m58.3 540.6h948.8"/>
   </g>
  </g>
  <g stroke="#000" stroke-width="5.625">
   <path d="m574.3 390.6c53.7-37.8 175.6-144.2 143.6-155.2-14.6-5-42.6 13.7-89.8 91.6-38.6 66.7-42.5 95.9-31.4 103.1 1.1.7 2.2 1.1 3.5 1.3 1.2.2 2.5.2 3.9.2" stroke-linejoin="round"/>
   <path d="m574.3 390.6c-11.7 9.2-29.8 24.6-47.1 37.3-19.8 14.5-66.7 46.5-87.1 75-6.5 9.1-9.8 17.5-7.7 23.9.9 3 16.3 22.9 59.8-38.1 26.9-36.9 54.6-73.4 69.3-116.4 7.7-23 5.5-36.8-7.5-36.3" stroke-linejoin="round"/>
   <path d="m775.1 235.8c-89.5 120.5-139.6 195.2-171 195.7"/>
   <path d="m384.7 533.4s103.6-138.3 134.4-172c7.8-8.6 14.4-14.7 20.2-18.8 6-4.3 10.9-6.3 14.8-6.6"/>
   <g stroke-linejoin="round">
    <path d="m333.1 483.3c9.3-.3 17.8-6.8 24.2-17 5.2-8.2 6.5-19.5 10.8-30.3 2.7-6.8 7.3-21.5 14.6-29.8 10.1-11.5 21.7-18.9 21.7-18.9"/>
    <path d="m343.7 335.7-38.4 72.5c-8.2 15.6 5 26.1 21.5 22.2 10.1-2.1 46.3-23.3 76-41.9"/>
    <path d="m393.5 395.7c-14.4 12.2-18.6 35.8-22.4 47.9-3.5 11.7-12.1 25.9-24.2 34.7"/>
    <path d="m385.9 402.9c-7.6 7.8-17.8 21.1-21.8 35.4-4.1 14.4-4.3 33.3-22.5 43.1"/>
   </g>
  </g>
 </g>
</svg>
