<svg height="210mm" viewBox="0 0 1052.4 744.1" width="297mm" xmlns="http://www.w3.org/2000/svg">
 <g fill="none" stroke-linecap="round">
  <g transform="translate(0 -308.26772)">
   <path d="m57.6 742.2h948.8" stroke="#969696" stroke-width="1.875"/>
   <g stroke="#000" stroke-dasharray="3.75 7.5" stroke-miterlimit="2" stroke-width=".9375">
    <path d="m58.3 844.1h948.8"/>
    <path d="m58.3 641.8h948.8"/>
    <path d="m58.3 540.6h948.8"/>
   </g>
  </g>
  <g stroke-linejoin="round" stroke-width="5.625">
   <path d="m258.8 431.1c13-20.1 26.7-30.2 30.6-31.9 6.5-2.9 13.4-4.1 19.5-3.4 19.1 2.2 13.8 36.6 29.7 35.1 4.6-.4 17.1-5.5 28.8-10.2" stroke="#000005"/>
   <path d="m367.4 420.8 145.4-37.4 24 48" stroke="#000005"/>
   <path d="m536.9 431.3 25.4-32.4" stroke="#000002"/>
   <path d="m562.3 398.9c3-4.3 35.5-45.3 41.7-50.3 23.7-19.2 60.9-14.6 37.5 14.4-21.6 26.6-37.3 42.5-40.2 54.7-2.5 13.2 9.2 14.9 18.8 13.2" stroke="#000002"/>
   <path d="m620.1 430.9c14.3-1.4 80.9-29.4 97.7-30.3 16-.6 21.6 31 32.6 30.7 7.2-.2 12.4-7.6 16.7-13" stroke="#000"/>
  </g>
 </g>
</svg>
