<svg height="210mm" viewBox="0 0 1052.4 744.1" width="297mm" xmlns="http://www.w3.org/2000/svg">
 <g fill="none" stroke-linecap="round">
  <g transform="translate(0 -308.26772)">
   <path d="m57.6 742.2h948.8" stroke="#969696" stroke-width="1.875"/>
   <g stroke="#000" stroke-dasharray="3.75 7.5" stroke-miterlimit="2" stroke-width=".9375">
    <path d="m58.3 844.1h948.8"/>
    <path d="m58.3 641.8h948.8"/>
    <path d="m58.3 540.6h948.8"/>
   </g>
  </g>
  <g stroke="#000">
   <g stroke-linejoin="round">
    <path d="m627.9 235.5-43.3 95.4" stroke-width="5.625"/>
    <path d="m584.6 330.9c42-50.3 72.1-93.1 96.2-94.8 2.7-.3 5.1-.1 7.1.7 7.8 3.3 10.1 15.8-1.5 40.6l-25 53.3" stroke-width="5.625"/>
    <path d="m690.9 257.7-36.9 73.3" stroke-width="5.440073"/>
    <path d="m677.5 289.8-20.2 40.7" stroke-width="3.626714"/>
    <path d="m654 331 7.4-.2" stroke-width="5.440073"/>
   </g>
   <path d="m688.4 238c4.1 1.7 6.9 9.7-.3 23.7" stroke-width="3.626714"/>
   <g stroke-linejoin="round">
    <path d="m411.5 431.9c18.9-3.3 42.7.7 53.8-7.1" stroke-width="5.625"/>
    <ellipse cx="621.09778" cy="-12.924854" rx="5.271423" ry="7.848564" stroke-width="14.034714" transform="matrix(.72846687 .68508103 -.68508103 .72846687 0 0)"/>
    <path d="m411.5 431.9c-31.2 2.5-116.1 66.6-105.1 94.6 2.9 7.4 16.3 22.9 59.8-38.1 26.9-36.9 54.6-73.4 69.3-116.4 7.9-20 5.5-36.8-7.5-36.3-8.1.3-20.4 7.4-36.9 24.8" stroke-width="5.624999"/>
   </g>
   <path d="m627.9 235.5c-137.3 172.3-157.7 209.9-172.4 191" stroke-width="5.624999"/>
  </g>
 </g>
</svg>
