<svg height="210mm" viewBox="0 0 1052.4 744.1" width="297mm" xmlns="http://www.w3.org/2000/svg">
 <g fill="none" stroke-linecap="round">
  <g transform="translate(0 -308.26772)">
   <path d="m57.6 742.2h948.8" stroke="#969696" stroke-width="1.875"/>
   <g stroke="#000" stroke-dasharray="3.75 7.5" stroke-miterlimit="2" stroke-width=".9375">
    <path d="m58.3 844.1h948.8"/>
    <path d="m58.3 641.8h948.8"/>
    <path d="m58.3 540.6h948.8"/>
   </g>
  </g>
  <g stroke="#000" stroke-linejoin="round">
   <g stroke-width="5.625">
    <path d="m614.2 283.5s-75.9 100.7-113.8 135.2"/>
    <path d="m614.2 283.5-43 94.8"/>
    <path d="m500.4 418.7c-10.9 9-27.8 24.7-37 3.9-6.6-15-9.6-18.2-21.4-18.8-4.5-.2-12.4 1.2-19 7.9-20.5 20.8-41.8 50.7-56.4 75-5.7 11.1-30.4 44.8-8.1 45.9 8.8.3 24.4-7.4 50-43.4 26.9-36.9 53.2-75.3 67.9-118.3 5.6-16.7 8.7-33.4-5.3-34.5-20.9-1.7-41.8 16.2-52.1 23.9"/>
    <path d="m339 385.1c7.5-.9 13.4-1.7 14.7-1.9 31.1-5.1 46.3-36.3 43.5-43.7-2.8-7.3-28.8-4.3-52.7 35l-31.8 56.4s86.6-54.6 106.1-70.7"/>
    <ellipse cx="227.74101" cy="620.40344" rx="25.728558" ry="20.371416" transform="matrix(.79083574 -.61202846 .61202846 .79083574 0 0)"/>
    <path d="m566.9 431.5 100.7-12.7"/>
    <path d="m667.6 418.8c44-7.2 71.6-13.5 82.7-13.2 16.9.3 16.7 44.6 48.6 16.9"/>
    <path d="m729.2 408.1c7.5-1.3 19.5-2.9 27.4 14.4 5.6 12.2 16.7 8.7 23.3 9.2"/>
   </g>
   <path d="m749.7 407.8c0 .2 15.1 17.4 17.6 20.4" stroke-width="8.4375"/>
   <g stroke-width="5.625">
    <path d="m798.5 423s9.6-7 21.1-16.6"/>
    <path d="m572.8 417.9c.9.3 1.8.6 2.4 1.1.2.2.4.3.5.5 1 1.2 1.2 2.8 0 5.3-2.3 4.7-8.4 6.5-11.3 7.1-5.9 1-9.2-4.4-5.1-8.7 2.6-2.7 6.7-5.5 10.9-5.5h.9c.3 0 .7.1 1 .1.8.1 1.6.4 2.3.8"/>
   </g>
  </g>
 </g>
</svg>
