<svg height="210mm" viewBox="0 0 1052.4 744.1" width="297mm" xmlns="http://www.w3.org/2000/svg">
 <g fill="none" stroke-linecap="round">
  <g transform="translate(0 -308.26772)">
   <path d="m57.6 742.2h948.8" stroke="#969696" stroke-width="1.875"/>
   <g stroke="#000" stroke-dasharray="3.75 7.5" stroke-miterlimit="2" stroke-width=".9375">
    <path d="m58.3 844.1h948.8"/>
    <path d="m58.3 641.8h948.8"/>
    <path d="m58.3 540.6h948.8"/>
   </g>
  </g>
  <g stroke="#000" stroke-linejoin="round" stroke-width="5.625">
   <path d="m741.9 234.1c-34.8 11.6-72.5 70.8-92.8 161.4-26.3 110.5-88.4 146.6-97.1 134.9-9.3-12.6 8.7-39.2 20.5-51.3 40.7-41.3 164.6-152.4 179.9-165.5 14.1-12.1 27-22.3 35.7-26.4 2.4-1.1 4.6-2 6.8-2.6 2.4-.7 4.9-1.2 7.2-1.4 16-1.4 27.8 8.7 9.7 31.1-27.4 33.8-125.1 147.6-101.9 163.9 20.7 14.5 69.2-71.5 74.6-80.8 3.3-5.7 12.9-28 6.1-39.4-5.1-8.6-11.4-9.2-18.2-8.2-10.5 1.6-19.9 9.6-21.5 16.2-2.7 11.9 4.1 14 16.9 14.8 38.5-.2 66.1-15.7 93.7-44.5"/>
   <path d="m790.2 286.3c20.9-8.3 36.9 2.6 16.2 28.1-27.4 33.8-125.1 147.6-101.9 163.9 4.6 3.3 14.3 2.5 20.9-2.4"/>
   <path d="m795.7 284.4c19.1-5.5 41 4.3 20.3 29.8-27.4 33.8-129.4 156.8-101.9 163.9 6.1 1.6 10.8-1.2 14.6-4.6"/>
   <path d="m563.9 379.4c-27 16.7-90.2 91.8-63 99 11.2 2.5 33.1-7.6 54.5-66.3 15.7-47.2 16.4-112.8 70.4-130.9"/>
   <path d="m220.2 395.9a19.2 25.1 41.6 0 1 -14.3 31.3 19.2 25.1 41.6 0 1 -27.6-6.8 19.2 25.1 41.6 0 1 14.3-31.3 19.2 25.1 41.6 0 1 27.6 6.8z"/>
   <path d="m199.1 386.3s160.2-40.2 183-46.5c18.3-5 31.1-10.9 35.2-12.8 44.6-20.4 40.2-42.6 28.1-43-7.5-.3-25.2 3.1-48.1 40.8-26.3 43-20.9 55.7-6 54.4"/>
   <path d="m391.3 379.3c22.3-.8 67.7-31.1 85.3-32 16.8-.7 20.3 32.3 34.2 32.2 7.6 0 13.3-5.9 18.3-10.8 8.6-8.5 65.3-71.8 81.4-80.4"/>
   <path d="m563.9 379.4c20.8-20.5 126.3-114 164.2-138.4"/>
  </g>
 </g>
</svg>
