<svg height="210mm" viewBox="0 0 1052.4 744.1" width="297mm" xmlns="http://www.w3.org/2000/svg">
 <g fill="none" stroke-linecap="round">
  <g transform="translate(0 -308.26772)">
   <path d="m57.6 742.2h948.8" stroke="#969696" stroke-width="1.875"/>
   <g stroke="#000" stroke-dasharray="3.75 7.5" stroke-miterlimit="2" stroke-width=".9375">
    <path d="m58.3 844.1h948.8"/>
    <path d="m58.3 641.8h948.8"/>
    <path d="m58.3 540.6h948.8"/>
   </g>
  </g>
  <g stroke="#000">
   <g stroke-linejoin="round">
    <g stroke-width="5.625">
     <path d="m765 436.6 21.6 45.6"/>
     <path d="m644.3 481.2c-14.3-7.5 120.7-44.5 120.7-44.5"/>
     <path d="m644.3 481.2c16.8-.5 33-21.3 35-47.2 2.1-26.8 36.3-48.7 36.3-48.7l-266.2 45.9"/>
    </g>
    <g stroke-width="6.5625">
     <path d="m290.6 336.2-47.5 81.9"/>
     <path d="m285.9 336.2-44.7 81.9"/>
    </g>
   </g>
   <path d="m247.2 413.9c-3.1 6.1-3.4 13.5 3.2 15.5" stroke-width="3.75"/>
   <g stroke-linejoin="round">
    <path d="m290.6 336.2h-9.3" stroke-width="6.5625"/>
    <g stroke-width="5.625">
     <path d="m186.9 431 94.3-95.2-38.9 72.5c-7.2 13.4 1.8 23.1 15 23h1.3"/>
     <path d="m258.6 431.2c22-1.1 72.2-31.2 89.9-32.1 16.8-.7 20.8 32.5 38.3 32.4 22.1-.2 38.6-21.5 119.3-95.2l-56.7 94.9"/>
     <path d="m786.6 482.2c12.5-6.4 32.2-16 44.8-12.3"/>
    </g>
    <path d="m835 475.8a5.9 5.9 0 0 1 -5.9 5.9 5.9 5.9 0 0 1 -5.9-5.9 5.9 5.9 0 0 1 5.9-5.9 5.9 5.9 0 0 1 5.9 5.8h-5.9z" stroke-width="6.571438"/>
   </g>
  </g>
 </g>
</svg>
