<svg height="210mm" viewBox="0 0 1052.4 744.1" width="297mm" xmlns="http://www.w3.org/2000/svg">
 <g fill="none" stroke-linecap="round">
  <g transform="translate(0 -308.26772)">
   <path d="m57.6 742.2h948.8" stroke="#969696" stroke-width="1.875"/>
   <g stroke="#000" stroke-dasharray="3.75 7.5" stroke-miterlimit="2" stroke-width=".9375">
    <path d="m58.3 844.1h948.8"/>
    <path d="m58.3 641.8h948.8"/>
    <path d="m58.3 540.6h948.8"/>
   </g>
  </g>
  <g stroke="#000" stroke-linejoin="round">
   <path d="m223.1 389.7c-8 25.1 3.7 40.9 24.2 41.2 24.8 0 51.4-28 76.5-27.1 21.5.7 31.3 27.6 54.7 27.6 25.1 0 66.2-27.2 114.9-28.3 48.7-1 63.7 28.1 98.1 28.1" stroke-width="5.624999"/>
   <path d="m591.6 431.3c48.1-.4 100.9-23.5 155.2-46.8" stroke-width="5.625"/>
   <path d="m756.3 533.1c14.8-7.7 30.4-16 28.9-34.4-1.8-21.5-55-44-61.8-66.9-3.5-11.7 8.2-30.9 23.4-47.3" stroke-width="5.624998"/>
  </g>
 </g>
</svg>
