<svg height="210mm" viewBox="0 0 1052.4 744.1" width="297mm" xmlns="http://www.w3.org/2000/svg">
 <g fill="none" stroke-linecap="round">
  <g transform="translate(0 -308.26772)">
   <path d="m57.6 742.2h948.8" stroke="#969696" stroke-width="1.875"/>
   <g stroke="#000" stroke-dasharray="3.75 7.5" stroke-miterlimit="2" stroke-width=".9375">
    <path d="m58.3 844.1h948.8"/>
    <path d="m58.3 641.8h948.8"/>
    <path d="m58.3 540.6h948.8"/>
   </g>
  </g>
  <g stroke="#000" stroke-linejoin="round">
   <g stroke-width="5.625">
    <path d="m465.6 434.9c17.7-7.7 43.2-2.4 47.9-5.9"/>
    <path d="m465.6 434.9c-3.2 1.4-6.5 3-9.8 4.8-3 1.7-6.1 3.5-9.1 5.6-37.2 24.7-71.5 71.3-65.4 85.5 5.7 13.2 70.8-24.4 97.1-134.9 20.3-90.7 58-149.8 92.8-161.4"/>
    <path d="m465.6 434.9c-3.2 1.4-6.5 3-9.8 4.8-3 1.7-6.1 3.5-9.1 5.6-37.2 24.7-71.5 71.3-65.4 85.5 5.7 13.2 70.8-24.4 97.1-134.9 20.3-90.7 58-149.8 92.8-161.4"/>
   </g>
   <ellipse cx="660.34259" cy="-46.774284" rx="5.271423" ry="7.848564" stroke-width="14.034715" transform="matrix(.72846687 .68508103 -.68508103 .72846687 0 0)"/>
   <path d="m506.5 426.2c3 3.4 5.7 4.7 12.2 4.6 19.7-.2 57.2-30.5 75.1-30.5 16-.6 18.8 30.9 32.6 30.7 8.7-.1 14.1-5.3 19.4-11.5" stroke-width="5.625001"/>
  </g>
 </g>
</svg>
