<svg height="210mm" viewBox="0 0 1052.4 744.1" width="297mm" xmlns="http://www.w3.org/2000/svg">
 <g fill="none" stroke-linecap="round">
  <g transform="translate(0 -308.26772)">
   <path d="m57.6 742.2h948.8" stroke="#969696" stroke-width="1.875"/>
   <g stroke="#000" stroke-dasharray="3.75 7.5" stroke-miterlimit="2" stroke-width=".9375">
    <path d="m58.3 844.1h948.8"/>
    <path d="m58.3 641.8h948.8"/>
    <path d="m58.3 540.6h948.8"/>
   </g>
  </g>
  <g stroke="#000" stroke-linejoin="round">
   <path d="m503.3 430.9 229.9-42.2" stroke-width="5.625"/>
   <path d="m403.9 419.8c6.9 3.9 13.5-2.8 16.3-6.1 2.4-2.8 4.9-5.4 7.4-7.8 12.9-12.2 26.6-18.7 38.8-20.2 23.8-2.8 41.9 13.6 36.8 45.1" stroke-width="5.625"/>
   <path d="m733.2 388.7 21 42" stroke-width="5.625001"/>
   <path d="m754.2 430.7c13.5-14.6 32.3-32.3 50.8-33.3 17.6-.7 20.1 33.8 33.9 33.8 9 0 13.8-4.7 20.3-10.5" stroke-width="5.625001"/>
   <g stroke-width="5.625">
    <path d="m408.9 418.9c-5.5 4.3-29.3 7.3-47 8.9-35.3 3.2-76 3.9-104.7 3.4-44.9-.8-72.3-16.3-74.2-42.6"/>
    <ellipse cx="580.57422" cy="22.16556" rx="4.609393" ry="6.862875" transform="matrix(.72846687 .68508103 -.68508103 .72846687 0 0)"/>
   </g>
  </g>
 </g>
</svg>
