<svg height="210mm" viewBox="0 0 1052.4 744.1" width="297mm" xmlns="http://www.w3.org/2000/svg">
 <g fill="none" stroke-linecap="round">
  <g transform="translate(0 -308.26772)">
   <path d="m57.6 742.2h948.8" stroke="#969696" stroke-width="1.875"/>
   <g stroke="#000" stroke-dasharray="3.75 7.5" stroke-miterlimit="2" stroke-width=".9375">
    <path d="m58.3 844.1h948.8"/>
    <path d="m58.3 641.8h948.8"/>
    <path d="m58.3 540.6h948.8"/>
   </g>
  </g>
  <g stroke="#000">
   <path d="m404.8 276c2.7 8 25.4 54.9 25.4 54.9" stroke-width="5.625"/>
   <path d="m663.2 244.4c-21 26.2-40.6 49.8-56 74.1-19.8 31.2-33.9 63.1-46.7 97.5" stroke-width="5.624999"/>
   <path d="m657.7 247.8c-38.3 44.9-72.9 96.9-94.8 156.8" stroke-width="7.499999"/>
   <path d="m488.9 431.2c67.3-30.2 122-68.4 180.1-113.4 26.7-20.4 32.8-36 34.3-50.1 1.5-14.6-2.6-27.6-16.4-32-14.7-4.7-42.9 10.9-90.1 88.8-14.1 24.3-25.7 44.6-31.7 60-13.7 35.1-8.1 45.3 9.6 46.6" stroke-linejoin="round" stroke-width="5.624999"/>
   <path d="m565.3 403.4c-3 9.2-6.6 26.5 7.2 27.5" stroke-width="5.625"/>
   <path d="m691.6 238.6c-6.3-3.3-12.7-1.4-17.6 1-4.4 2.2-8.8 4.5-16.5 13.4" stroke-width="3.75"/>
   <path d="m697.3 243.4c-17.4-14.8-39.9 9.7-42.5 12.9" stroke-width="3.75"/>
   <g stroke-linejoin="round">
    <path d="m574.6 431.1c12 .1 23-10 31.6-18.4l28.6-27.8 21.4 46.2" stroke-width="5.625"/>
    <path d="m656.2 431.1c25-11.8 60.2-31.5 77.8-32.4 16.8-.7 22.7 32.6 34.2 32.2 7.5-.2 13.1-6.2 18.3-10.8" stroke-width="5.624999"/>
    <path d="m162.7 336.4c-39.4 1.8-90.5 95-49.3 94.9 14.3-1 23.5-9.1 31.1-16.3 14.7-15 22-25.5 36.2-42.3 13.2-15.7 27-35.8 46.7-36.5 10.5-.2 17.2 7.3 7.8 29.8-1.7 4-3.5 8.7-6.3 13.7l-28.9 51.8" stroke-width="5.625"/>
    <g stroke-width="5.624999">
     <path d="m199.9 431.6c25-11.8 67.7-31.5 85.3-32.4 16.8-.7 22.7 32.6 34.2 32.2 7.5-.2 13.1-6.2 18.3-10.8"/>
     <path d="m992 335.7-46.6 95.4"/>
     <path d="m992 335.7h-8.2"/>
     <path d="m988.1 336.6-45.7 93.9"/>
     <path d="m945.4 431.1h-8.2"/>
     <path d="m983.8 335.7-46.6 95.4"/>
     <path d="m862 431.3 121.8-95.6"/>
    </g>
    <path d="m908.6 335.9-46.6 95.4" stroke-width="5.624998"/>
    <path d="m544 336.8-55 94.4" stroke-width="5.625"/>
   </g>
  </g>
 </g>
</svg>
