<svg height="210mm" viewBox="0 0 1052.4 744.1" width="297mm" xmlns="http://www.w3.org/2000/svg">
 <g fill="none" stroke-linecap="round">
  <g transform="translate(0 -308.26772)">
   <path d="m57.6 742.2h948.8" stroke="#969696" stroke-width="1.875"/>
   <g stroke="#000" stroke-dasharray="3.75 7.5" stroke-miterlimit="2" stroke-width=".9375">
    <path d="m58.3 844.1h948.8"/>
    <path d="m58.3 641.8h948.8"/>
    <path d="m58.3 540.6h948.8"/>
   </g>
  </g>
  <g stroke="#000">
   <g stroke-linejoin="round">
    <path d="m710 335.9-43.3 95.3" stroke-width="5.625"/>
    <path d="m666.6 431.2c42-50.3 72.1-93.1 96.2-94.8 2.7-.3 5.1-.1 7.1.7 7.8 3.3 10.1 15.8-1.5 40.6l-25 53.3" stroke-width="5.625"/>
    <path d="m773 358.1-36.9 73.3" stroke-width="5.440073"/>
    <path d="m759.5 390.2-20.2 40.7" stroke-width="3.626714"/>
    <path d="m736 431.3 7.4-.2" stroke-width="5.440073"/>
   </g>
   <path d="m770.4 338.3c4.1 1.7 6.9 9.7-.3 23.7" stroke-width="3.626714"/>
   <g stroke-linejoin="round" stroke-width="5.625">
    <path d="m287 388.5c6 27.1 43.7 42.9 93.8 42.4 98.7-6.4 170.2-47.8 226.7-116.3 8.4-10.5 20.2-23.8 33.9-28 2.8-.9 5.8-1.1 9-1 3 .1 5.7.7 8 1.7 2.2 1 4.1 2.5 5.5 4.4 5.6 7.4 4.1 20.9-8.4 35.9-28.5 34.1-41.2 55.5-50.2 69.2-9.1 14.2-7.2 33.8 12.4 34.3 25.3.6 44-33.9 92.2-95.2"/>
    <path d="m748.3 392.4a19.2 25.1 41.6 0 1 -14.3 31.3 19.2 25.1 41.6 0 1 -27.6-6.8 19.2 25.1 41.6 0 1 14.3-31.3 19.2 25.1 41.6 0 1 27.6 6.8z"/>
   </g>
  </g>
 </g>
</svg>
