<svg height="210mm" viewBox="0 0 1052.4 744.1" width="297mm" xmlns="http://www.w3.org/2000/svg">
 <g fill="none" stroke-linecap="round">
  <g transform="translate(0 -308.26772)">
   <path d="m57.6 742.2h948.8" stroke="#969696" stroke-width="1.875"/>
   <g stroke="#000" stroke-dasharray="3.75 7.5" stroke-miterlimit="2" stroke-width=".9375">
    <path d="m58.3 844.1h948.8"/>
    <path d="m58.3 641.8h948.8"/>
    <path d="m58.3 540.6h948.8"/>
   </g>
  </g>
  <g stroke="#000" stroke-linejoin="round">
   <path d="m267.2 360c10.9-14.3 25.2-24.8 36.4-23.6 10.5 1.1 18.1 9.6 7.1 32.6-10 21.3-29.9 62.7-29.9 62.7" stroke-width="5.62496"/>
   <path d="m280.7 431.6s175.1-109.2 231.6-138.7c15.2-7.9 30.3-11.7 36.6-.8 1.4 2.6 2 6.1 1.4 10.6-.6 4.2-2.2 9.4-5.2 15.6-10 21.3-29.9 62.7-29.9 62.7" stroke-width="5.62496"/>
   <path d="m515.4 381.1 88.8-44.2 21.3 44.2" stroke-width="5.624999"/>
   <g stroke-width="5.625">
    <path d="m690.7 304.5c16.1.5 15.9 25.9 30.9 26"/>
    <path d="m721.6 330.5c14.8.4 42.6-25.4 55.8-26 15.5-.7 13.4 26.7 28.4 26.3 7.2-.2 11.2-5.8 14.7-8.9"/>
    <path d="m625.5 381.1c27.9-44.8 45.6-76.2 65.2-76.5"/>
   </g>
  </g>
 </g>
</svg>
