<svg height="210mm" viewBox="0 0 1052.4 744.1" width="297mm" xmlns="http://www.w3.org/2000/svg">
 <g fill="none" stroke-linecap="round">
  <g transform="translate(0 -308.26772)">
   <path d="m57.6 742.2h948.8" stroke="#969696" stroke-width="1.875"/>
   <g stroke="#000" stroke-dasharray="3.75 7.5" stroke-miterlimit="2" stroke-width=".9375">
    <path d="m58.3 844.1h948.8"/>
    <path d="m58.3 641.8h948.8"/>
    <path d="m58.3 540.6h948.8"/>
   </g>
  </g>
  <g stroke="#000" stroke-width="5.625">
   <g stroke-linejoin="round">
    <path d="m408.5 435.6s-50.3-7-58.2-10.1"/>
    <path d="m492.5 234.3-109.7 214.8"/>
    <path d="m408.5 435.6c4.6.7 11.4 3.1 14.2 6.7 6.9 8.9 3.4 23.2-7.9 31.9-11.2 8.7-25.9 8.5-32.8-.4-2.8-3.7-3.9-8.2-3.4-13 .2-2 2.1-8.2 4.2-11.7"/>
    <path d="m353.1 425.3c-23.6 5.7-51.3 9.3-65 2.4-13.7-5.7-23.9-19.3-21.1-41.2"/>
    <ellipse cx="545.26697" cy="63.183464" rx="4.609393" ry="6.862874" transform="matrix(.72846687 .68508103 -.68508103 .72846687 0 0)"/>
    <path d="m474 431.3c14.2-21.3 24.9-35.2 37.5-52.4 15.6-21.4 34.7-40.9 55.6-42.3 23.4-.2 35.6 20.7 45 42.9 8.6 20.3 14.9 41.8 25.4 49.1 2.3 1.6 12.3 2.6 15.1 2.6 4.9.3 19.2-1.2 24-3.8"/>
    <path d="m574.1 337.2c16.2 2.5 31.7 14.4 43.2 44.1 9.2 23.9 10.3 45.6 24.5 48.7"/>
    <path d="m694.2 394.4c3.7 10.5-2.8 24.6-14.3 31.3-11.6 6.8-23.9 3.7-27.6-6.8s2.8-24.6 14.3-31.3c11.6-6.8 23.9-3.7 27.6 6.8z"/>
   </g>
   <path d="m777.2 233.8s-78 170.7-87.3 182.6"/>
   <path d="m570.3 336.7c12.6.1 28 16.8 38.6 46.9 9.1 25.7 17.3 48.5 42.2 47.7" stroke-linejoin="round"/>
  </g>
 </g>
</svg>
