<svg height="210mm" viewBox="0 0 1052.4 744.1" width="297mm" xmlns="http://www.w3.org/2000/svg">
 <g fill="none" stroke-linecap="round">
  <g transform="translate(0 -308.26772)">
   <path d="m57.6 742.2h948.8" stroke="#969696" stroke-width="1.875"/>
   <g stroke="#000" stroke-dasharray="3.75 7.5" stroke-miterlimit="2" stroke-width=".9375">
    <path d="m58.3 844.1h948.8"/>
    <path d="m58.3 641.8h948.8"/>
    <path d="m58.3 540.6h948.8"/>
   </g>
  </g>
  <g stroke-width="5.625">
   <path d="m167.5 431.5c88.5-59.2 253.5-59.1 233.6-.2" stroke="#0a0001" stroke-linejoin="round"/>
   <path d="m400.3 432.8s99-82.5 110.3-88.9" stroke="#000"/>
   <g stroke-linejoin="round">
    <path d="m606.3 284.2s-151.9 142.9-155.9 146.5c-37.2 32.8-66.1 85.6-58.3 99.8 2.9 5.3 34.7 12.4 62.3-63.4 15.7-47.2 25.8-112.5 71.5-132.1" stroke="#000"/>
    <path d="m606.3 284.2-56.7 94.9 67.1-43.4" stroke="#0a0000"/>
    <path d="m616.6 335.7-38 95.5" stroke="#0a0000"/>
    <path d="m653.8 335.8-75.2 95.5" stroke="#000"/>
    <path d="m848.8 350.3c-44.1 12.5-66.4 13.9-105.7 15.9-37.6 1.9-89.9 6.3-89.3-30.4" stroke="#000"/>
    <path d="m851.8 335.9c1 .1 1.8.3 2.5.7.2.1.4.2.6.4 1.2.9 1.7 2.6 1 5.2-1.3 5.1-7.1 8-9.8 9-5.7 2-9.8-2.6-6.6-7.6 2-3.1 5.5-6.6 9.7-7.5.3-.1.6-.1.9-.1s.7-.1 1-.1c.8 0 1.6.1 2.4.3" stroke="#030002"/>
    <path d="m823.4 341.9c1 .1 1.8.3 2.5.7.2.1.4.2.6.4 1.2.9 1.7 2.6 1 5.2-1.3 5.1-7.1 8-9.8 9-5.7 2-9.8-2.6-6.6-7.6 2-3.1 5.5-6.6 9.7-7.5.3-.1.6-.1.9-.1s.7-.1 1-.1c.8 0 1.6.1 2.4.3" stroke="#030002"/>
   </g>
  </g>
 </g>
</svg>
