<svg height="210mm" viewBox="0 0 1052.4 744.1" width="297mm" xmlns="http://www.w3.org/2000/svg">
 <g fill="none" stroke-linecap="round" transform="translate(0 -308.26772)">
  <path d="m57.6 742.2h948.8" stroke="#969696" stroke-width="1.875"/>
  <g stroke="#000" stroke-dasharray="3.75 7.5" stroke-miterlimit="2" stroke-width=".9375">
   <path d="m58.3 844.1h948.8"/>
   <path d="m58.3 641.8h948.8"/>
   <path d="m58.3 540.6h948.8"/>
  </g>
 </g>
 <g fill="none" stroke="#000" stroke-linecap="round" stroke-linejoin="round" stroke-width="5.625">
  <path d="m283.9 310.9c21.7-33.7 80.8-39.6 38.5 16.8-42.2 56.4-60.9 78.2-56.1 97 1.5 5.9 6.6 5.8 13.1 6.2 11.8.8 32.4-5.5 50.9-15.2"/>
  <path d="m330.3 415.7c14.6-7.6 30.2-14.8 42.9-15.2 16-.6 21.6 31 32.6 30.7 7.2-.2 12.4-7.6 16.7-13"/>
  <path d="m678.3 422.1c11.9-11.1 115.6-137.7 115.6-137.7l-55.8 97.2"/>
  <path d="m738.1 381.5s66.6-32 83.5-31.9c14.1.1 14.2 31.2 33.7 31.1 5.4 0 14.5-6.4 22.4-14.2"/>
  <path d="m636.7 356.5c4-5.2 9.2-9.6 10.2-10.4 18.8-17.3 56.9-11.1 34.4 16.7-27.4 33.8-45.5 49.4-39.4 63 3 6.8 15.6 6.9 26.1 3.1 4.1-1.5 7.6-4.6 10.4-6.8"/>
 </g>
 <circle cx="542.69049" cy="363.17419" r="10.653955"/>
 <circle cx="527.30084" cy="412.18982" r="10.653955"/>
</svg>
