<svg height="210mm" viewBox="0 0 1052.4 744.1" width="297mm" xmlns="http://www.w3.org/2000/svg">
 <g fill="none" stroke-linecap="round">
  <g transform="translate(0 -308.26772)">
   <path d="m57.6 742.2h948.8" stroke="#969696" stroke-width="1.875"/>
   <g stroke="#000" stroke-dasharray="3.75 7.5" stroke-miterlimit="2" stroke-width=".9375">
    <path d="m58.3 844.1h948.8"/>
    <path d="m58.3 641.8h948.8"/>
    <path d="m58.3 540.6h948.8"/>
   </g>
  </g>
  <g stroke="#000" stroke-linejoin="round" stroke-width="5.625">
   <path d="m311.5 429.8c4.5 0 10.9-4.3 12.3-5.1 48.9-28 69.1-128.6 6.8-73.1-2.3 2.1-17.4 18.4-20 20.9"/>
   <path d="m311.5 429.8c-19 6.3 346.2-188.8 389.7-198 12.4-.8 16.1 8 12.1 24.4-12.2 49.4-75.8 157.4-115.7 173.7-1.8.4-3.5.7-5 .9"/>
   <path d="m602.8 422.9c28.7 2 71.6-43.1 101-74 16.9-17.9 26.9-18.3 33.4-5.7 6.5 12.7 4 18.2 12.3 27.2 15.9 17.3 43.8-27.8 34.5-34.3-6.3-4.4-25.9 3.2-49.4 42-35.3 57.8-14.2 56.8 9.8 52.2 3.3-.6 8.8-2.2 15.2-4.4"/>
   <path d="m711.6 341.4c9.6-6.8 18 4.1 21.6 15.8 3.2 10.5 8.7 18 23.9 17.1"/>
   <path d="m723.5 337.6c13.6.7 15.1 28.3 22.1 30"/>
   <path d="m609.8 408.1c.9.1 1.7.3 2.4.6.2.1.4.2.6.4 1.2.9 1.6 2.4.9 4.9-1.3 4.8-6.7 7.5-9.2 8.5-5.3 1.9-9.3-2.5-6.2-7.2 1.9-3 5.2-6.2 9.1-7 .3-.1.5-.1.8-.1s.7-.1 1-.1c.8 0 1.5.1 2.3.3"/>
  </g>
 </g>
</svg>
