<svg height="210mm" viewBox="0 0 1052.4 744.1" width="297mm" xmlns="http://www.w3.org/2000/svg">
 <g fill="none" stroke-linecap="round">
  <g transform="translate(0 -308.26772)">
   <path d="m57.6 742.2h948.8" stroke="#969696" stroke-width="1.875"/>
   <g stroke="#000" stroke-dasharray="3.75 7.5" stroke-miterlimit="2" stroke-width=".9375">
    <path d="m58.3 844.1h948.8"/>
    <path d="m58.3 641.8h948.8"/>
    <path d="m58.3 540.6h948.8"/>
   </g>
  </g>
  <path d="m466.5 375.5c18.8-25.7 31.7-37.9 40.9-39 5.3-.7 8.7 2.7 12.6 8.6 6 9.2 7.9 15.8 16.3 24.7 14.7 15.6 42.8-23.8 33.1-32.1-5.8-5-26.3 1.7-49.7 40.5-25.5 41.7-22.8 54.4-10.1 53.2 9.7-.9 25.3-10.2 38.5-21.3" stroke="#000" stroke-linejoin="round" stroke-width="5.625"/>
 </g>
</svg>
