<svg height="210mm" viewBox="0 0 1052.4 744.1" width="297mm" xmlns="http://www.w3.org/2000/svg">
 <g fill="none" stroke-linecap="round">
  <g transform="translate(0 -308.26772)">
   <path d="m57.6 742.2h948.8" stroke="#969696" stroke-width="1.875"/>
   <g stroke="#000" stroke-dasharray="3.75 7.5" stroke-miterlimit="2" stroke-width=".9375">
    <path d="m58.3 844.1h948.8"/>
    <path d="m58.3 641.8h948.8"/>
    <path d="m58.3 540.6h948.8"/>
   </g>
  </g>
  <g stroke="#000" stroke-linejoin="round" stroke-width="5.625">
   <path d="m329.2 431.5c22.5-8.9 52.2-48.9 60.4-86.1s38.8-98.1 73.8-111.6"/>
   <path d="m592.4 186.9s-293.1 249.8-263.2 244.6"/>
   <path d="m530.1 339.7c13-11.6 45.7-44.8 61.3-44.5 17.2-.4 14.7 36 37.2 35.7 21.1-1.4 52.9-25.7 69.8-39.9"/>
   <path d="m592.4 186.9-111.2 197.6 48.8-44.8"/>
  </g>
 </g>
</svg>
