<svg height="210mm" viewBox="0 0 1052.4 744.1" width="297mm" xmlns="http://www.w3.org/2000/svg">
 <g fill="none" stroke-linecap="round" transform="translate(0 -308.26772)">
  <path d="m57.6 742.2h948.8" stroke="#969696" stroke-width="1.875"/>
  <g stroke="#000" stroke-dasharray="3.75 7.5" stroke-miterlimit="2" stroke-width=".9375">
   <path d="m58.3 844.1h948.8"/>
   <path d="m58.3 641.8h948.8"/>
   <path d="m58.3 540.6h948.8"/>
  </g>
 </g>
 <g fill="none" stroke="#000" stroke-linecap="round" stroke-width="5.625">
  <path d="m254.3 390c-26.4 29.5-50.7 41.7-67.5 41.2-18.8-.5-31.9-17.5-33.3-41.6" stroke-linejoin="round"/>
  <path d="m254.3 390c36-35.3 48.5-41.9 53.4-45.1"/>
  <g stroke-linejoin="round">
   <path d="m296.6 394.2c-43.4 40.7-66.8 44.9-95.9 94.6-11.2 19.3-16.6 36.4-12.6 43.5 2.9 5.3 34.7 12.4 62.3-63.4 15.7-47.2 25.8-112.5 71.5-132.1"/>
   <path d="m296.6 394.2c13.4-13.4 58.5-52.1 62.5-54.4 8.8-5 14.8-2.5 19.3 6.2 6.5 12.7 4 18.2 12.3 27.2 15.9 17.3 43.8-27.8 34.5-34.3-6.3-4.4-25.9 3.2-49.4 42"/>
   <path d="m375.7 380.8c-17.4 29.2-19.6 45-11.7 49.2 4.3 2.3 13.9 4.1 21.6-.2"/>
   <path d="m385.6 429.8c10.2-5.8 20.2-9 25.5-10.4 11.2-3 25.5-3.1 24.1 4.7 0 .2.1.4.1.7 0 1.4-.6 2.7-2.1 3.8-2.9 2.2-6.9.8-8.5-.4-3.3-.5-1-11.9 0-10.6 1.7 2.4 0 0 8.8 2.8.2.1.3.3.4.5.2.2.4.7.6.9.3.5.4.9.7 1.6"/>
   <path d="m435 424.1a5.5 1.8 0 0 1 -5.5 1.8 5.5 1.8 0 0 1 -5.5-1.8 5.5 1.8 0 0 1 5.4-1.8 5.5 1.8 0 0 1 5.5 1.8h-5.5z"/>
  </g>
  <path d="m179.7 235-96.4 166.7"/>
  <g stroke-linejoin="round">
   <ellipse cx="-168.37036" cy="387.04608" rx="25.728558" ry="20.371416" transform="matrix(.79083574 -.61202846 .61202846 .79083574 0 0)"/>
   <path d="m721.7 431.8c15.9-11 63.6-67.4 78.4-83.2 16.9-17.9 26.9-18.3 33.4-5.7 6.5 12.7 4 18.2 12.3 27.2 15.9 17.3 43.8-27.8 34.5-34.3-6.3-4.4-25.9 3.2-49.4 42-24.8 40.5-22.9 53.9-11.2 53.6 5-.1 11.8-2.9 19.1-7 10.3-5.6 31.6-22.6 51.5-46.9"/>
   <path d="m890.2 377.5 30-40.8"/>
   <path d="m920.3 336.8c21.6-28.9 36.1-52.4 56.9-56.8 10.7-2.7 14.3.7 18.7 3.2 7.6 4.3 8 17.2-6 41.5l-29.8 52.1"/>
   <path d="m721.7 431.8c-27.4 18.9-49.1 36.7-62.4 58.8-10.1 16.9-13.4 32.9-9.8 39.4 2.9 5.3 34.7 12.4 62.3-63.4 15.8-47.4 16.5-113.3 70.8-131.6"/>
   <path d="m709.5 291.1-28.4 72.5c-6.4 16.4 1.7 25.1 21.5 22.2 19-2.8 34.5-26 61.6-41.5"/>
   <ellipse cx="225.44719" cy="691.03302" rx="25.728558" ry="20.371416" transform="matrix(.79083574 -.61202846 .61202846 .79083574 0 0)"/>
   <path d="m709.5 291.1-48.7 73.2"/>
   <path d="m658.1 359.6c.6.1 1.1.2 1.6.4.1.1.3.2.4.2.8.6 1 1.6.6 3.2-.8 3.2-4.4 5-6.1 5.6-3.5 1.3-6.1-1.6-4.1-4.8 1.3-2 3.4-4.1 6-4.7.2 0 .4-.1.5-.1h.7c.5 0 1 .1 1.5.2"/>
   <path d="m653.1 369.9-54 16.9"/>
  </g>
 </g>
 <circle cx="516.1109" cy="361.61386" r="10.653955"/>
 <circle cx="500.72125" cy="410.62949" r="10.653955"/>
 <path d="m88.6 454.2c24.8 33.5 76.4 32.1 103.1 0" fill="none" stroke="#000" stroke-linecap="round" stroke-width="5.625"/>
</svg>
