<svg height="210mm" viewBox="0 0 1052.4 744.1" width="297mm" xmlns="http://www.w3.org/2000/svg">
 <g fill="none" stroke-linecap="round">
  <g transform="translate(0 -308.26772)">
   <path d="m21.4 742.2h1006.4" stroke="#969696" stroke-width="1.875"/>
   <g stroke="#000" stroke-dasharray="3.75 7.5" stroke-miterlimit="2" stroke-width=".9375">
    <path d="m22.1 844.1h1006.5"/>
    <path d="m22.1 641.8h1006.5"/>
    <path d="m22.1 540.6h1006.5"/>
   </g>
  </g>
  <g stroke="#010000">
   <g stroke-linejoin="round" stroke-width="5.625">
    <path d="m77.6 427.6 107.1-91.6"/>
    <path d="m77.1 417.6c.9.3 1.8.6 2.4 1.1.2.2.4.3.5.5 1 1.2 1.2 2.8 0 5.3-2.3 4.7-8.4 6.5-11.3 7.1-5.9 1-9.2-4.4-5.1-8.7 2.6-2.7 6.7-5.5 10.9-5.5h.9c.3 0 .7.1 1 .1.8.1 1.6.4 2.3.8"/>
    <path d="m196.8 410.5c14.9-11.2 22.4-16.2 33-16.3 24.9-.2 11.1 38 37 36.3 7.3-.4 14.5-4.7 21.7-10.3"/>
    <path d="m184.7 336c-13.8 25.3-28.6 50-43 74.9-13.1 23.6 9.4 24.7 29.4 16 6.5-2.9 16.6-10.4 25.7-16.4"/>
    <path d="m744.7 416.6c1 .1 1.8.3 2.5.7.2.1.4.3.6.4 1.2 1 1.7 2.6 1 5.2-1.3 5.1-7.1 8-9.8 9-5.7 2.1-9.8-2.6-6.6-7.6 2-3.1 5.5-6.6 9.7-7.5.3-.1.6-.1.9-.1s.7-.1 1-.1c.8 0 1.6.1 2.4.3"/>
    <path d="m830.1 356.6s-79.9 73.3-86.6 73"/>
    <path d="m924.4 308.8c13.5-5.2 32.1-15.8 44.2-15.4 24.5.5 8.7 38.3 31.6 38.1 10.9-.1 16-4.5 21.9-14.2"/>
    <path d="m853.7 340.7c21.6-9.4 63.4-29.1 70.6-31.9"/>
    <ellipse cx="584.95502" cy="748.42609" rx="62.130169" ry="44.633743" transform="matrix(.88109295 -.47294313 .47294313 .88109295 0 0)"/>
   </g>
   <path d="m926.1 360.8c-13.8 27.9-38.1 52.4-66.8 70.7" stroke-width="5.385754"/>
   <path d="m927.3 369.8c-15.9 21.3-33.1 41.5-54 58.5" stroke-width="5.385754"/>
   <path d="m926.3 376.3c-14.3 21.6-19.7 29.6-41.7 46.5" stroke-width="7.181006"/>
   <path d="m874.9 419.4c-10.1 9.6-24.3 12.2-31.1 10.7" stroke-width="3.590503"/>
   <path d="m918 347c2.2 2.5 8.7 12.2 1.3 24.5" stroke-width="3.590503"/>
   <g stroke-linejoin="round" stroke-width="5.625">
    <path d="m473.5 427.3 107.1-91.7"/>
    <path d="m473 417.3c.9.3 1.8.6 2.4 1.1.2.2.4.3.5.5 1 1.2 1.2 2.8 0 5.3-2.3 4.7-8.4 6.5-11.3 7.1-5.9 1-9.2-4.4-5.1-8.7 2.6-2.7 6.7-5.5 10.9-5.5h.9c.3 0 .7.1 1 .1.8.1 1.6.4 2.3.8"/>
    <path d="m592.7 410.1c14.9-11.2 22.4-16.2 33-16.3 24.9-.2 11.1 38.8 37 37.1 7.3-.4 14.5-5.6 21.7-11.1"/>
    <path d="m580.6 335.6c-13.8 25.3-28.6 50-43 74.9-13.1 23.6 9.4 24.7 29.4 16 6.5-2.9 16.6-10.4 25.7-16.4"/>
    <path d="m405.9 330.6-69.2.5"/>
   </g>
  </g>
 </g>
</svg>
