<svg height="210mm" viewBox="0 0 1052.4 744.1" width="297mm" xmlns="http://www.w3.org/2000/svg">
 <g fill="none" stroke-linecap="round">
  <g transform="translate(0 -308.26772)">
   <path d="m57.6 742.2h948.8" stroke="#969696" stroke-width="1.875"/>
   <g stroke="#000" stroke-dasharray="3.75 7.5" stroke-miterlimit="2" stroke-width=".9375">
    <path d="m58.3 844.1h948.8"/>
    <path d="m58.3 641.8h948.8"/>
    <path d="m58.3 540.6h948.8"/>
   </g>
  </g>
  <path d="m411.7 235.2s-66.1 127.2-85.7 164.6c-8.4 18.4 1.8 31.4 17.2 31.3 12.6-.1 35.4-5 42.1-6.6 39.7-9.1 131.3-30.8 146.1-33.8 9-1.8 19-3.4 27-4.2 8.5-.9 14.8-1.3 21.9.5 19.9 5.3 25.8 32.1 25.7 44.1" stroke="#010000" stroke-linejoin="round" stroke-width="5.624999"/>
  <g stroke-width="5.625">
   <g stroke="#010000">
    <path d="m553.6 387.1c37.8-6.7 48 26 45.6 44.1"/>
    <path d="m599.2 431.2h7"/>
    <path d="m580.8 389.2c6.2 6.3 12.3 10.5 18.5 19.5 1.7 7.3 3.7 14.5 3.2 22.2"/>
   </g>
   <g stroke="#000" stroke-linejoin="round">
    <path d="m627.3 428.1c18.6 12.8 43.2-27.5 64-27.5 16-.6 18.8 30.9 32.6 30.7 8.7-.1 14.1-5.3 19.4-11.5"/>
    <ellipse cx="748.24756" cy="-124.81479" rx="4.609393" ry="6.862875" transform="matrix(.72846687 .68508103 -.68508103 .72846687 0 0)"/>
    <path d="m606.2 431.2c9.9.5 18.7.8 25.5-4.5"/>
   </g>
  </g>
 </g>
</svg>
