<svg height="210mm" viewBox="0 0 1052.4 744.1" width="297mm" xmlns="http://www.w3.org/2000/svg">
 <g fill="none" stroke-linecap="round">
  <g transform="translate(0 -308.26772)">
   <path d="m57.6 742.2h948.8" stroke="#969696" stroke-width="1.875"/>
   <g stroke="#000" stroke-dasharray="3.75 7.5" stroke-miterlimit="2" stroke-width=".9375">
    <path d="m58.3 844.1h948.8"/>
    <path d="m58.3 641.8h948.8"/>
    <path d="m58.3 540.6h948.8"/>
   </g>
  </g>
  <g stroke="#000">
   <g stroke-linejoin="round" stroke-width="5.625">
    <path d="m386.6 396 20-13.4 31.4 47.9"/>
    <path d="m406.6 382.6 24 48"/>
    <path d="m414.2 382.6 23.8 47.9"/>
    <path d="m410.3 382.5 24 48"/>
   </g>
   <path d="m407 381.6h7.1" stroke-width="3.75"/>
   <path d="m430.4 431.5h7.1" stroke-width="3.75"/>
   <g stroke-linejoin="round" stroke-width="5.625">
    <path d="m386.6 396c-23.1 16-47.3 33.1-65.4 35.5-53.5-.6 55-173.4 109.6-197.1"/>
    <path d="m438 430.5s56.3-70.7 91.7-89.1"/>
    <path d="m542.2 336.2c-45.6 11.9-85.7 98.4-52.3 95.1"/>
    <path d="m720.6 338.9-25.3 46.6"/>
    <path d="m699.7 385.4-12 .2"/>
    <path d="m727.5 335.9-27.7 49.5"/>
    <path d="m727.5 335.9-14.1-.1"/>
    <path d="m718.7 337.1-25.3 46.6"/>
    <path d="m490 431.3c29.3-.3 78.4-36.3 98.6-32.6 15.4 2.9 14.5 30.9 30.3 32.2.6 0 1.2.1 1.8 0 7.4.2 15.9-5.8 21.7-11.6 3.5-3.1 71.4-83.3 71.4-83.3.8-.9-25.9 49.6-25.9 49.6"/>
   </g>
  </g>
 </g>
</svg>
