<svg height="210mm" viewBox="0 0 1052.4 744.1" width="297mm" xmlns="http://www.w3.org/2000/svg">
 <g fill="none" stroke="#000" stroke-linecap="round">
  <g transform="translate(0 -308.26772)">
   <path d="m57.6 742.2h948.8" stroke-width="1.875"/>
   <g stroke-dasharray="3.75 7.5" stroke-miterlimit="2" stroke-width=".9375">
    <path d="m58.3 844.1h948.8"/>
    <path d="m58.3 641.8h948.8"/>
    <path d="m58.3 540.6h948.8"/>
   </g>
  </g>
  <g stroke-linejoin="round">
   <path d="m429.7 430.2c10.6 9.2 35.7-29.5 84.7-93.7" stroke-width="5.624959"/>
   <g stroke-width="5.625">
    <path d="m581 336.1c21.5-31 33-42.2 52.1-47.7 31.7-9 58.2 4.3 50.2 42.6"/>
    <path d="m514.4 336.6 33.3 47.9 33.3-48.4"/>
    <path d="m514.4 336.6 24 48"/>
    <path d="m523.9 336.6 23.8 47.9"/>
    <path d="m520 336.4 24 48"/>
   </g>
  </g>
  <path d="m514.8 335.5h9" stroke-width="3.75"/>
  <path d="m538.3 385.4h9" stroke-width="3.75"/>
  <ellipse cx="603.99493" cy="14.979633" rx="4.609393" ry="6.862874" stroke-linejoin="round" stroke-width="5.625" transform="matrix(.72846687 .68508103 -.68508103 .72846687 0 0)"/>
 </g>
</svg>
