<svg height="210mm" viewBox="0 0 1052.4 744.1" width="297mm" xmlns="http://www.w3.org/2000/svg">
 <g fill="none" stroke-linecap="round">
  <g transform="translate(0 -308.26772)">
   <path d="m57.6 742.2h948.8" stroke="#969696" stroke-width="1.875"/>
   <g stroke="#000" stroke-dasharray="3.75 7.5" stroke-miterlimit="2" stroke-width=".9375">
    <path d="m58.3 844.1h948.8"/>
    <path d="m58.3 641.8h948.8"/>
    <path d="m58.3 540.6h948.8"/>
   </g>
  </g>
  <g stroke="#000">
   <ellipse cx="168.21262" cy="647.04895" rx="25.728558" ry="20.371416" stroke-linejoin="round" stroke-width="5.625" transform="matrix(.79083574 -.61202846 .61202846 .79083574 0 0)"/>
   <path d="m506.9 404.4-68.4 128.6" stroke-width="5.625"/>
   <g stroke-linejoin="round">
    <g stroke-width="5.625">
     <path d="m621.4 374.3c.7.1 1.3.2 1.8.5.2.1.3.2.4.3.9.7 1.2 1.8.7 3.7-.9 3.6-5 5.7-6.9 6.4-4 1.4-7-1.8-4.7-5.4 1.4-2.2 3.9-4.7 6.8-5.3.2 0 .4-.1.6-.1h.7c.6 0 1.1.1 1.7.2"/>
     <path d="m532.3 386 82.3-.4"/>
     <path d="m600.3 374.3c.7.1 1.3.2 1.8.5.2.1.3.2.4.3.9.7 1.2 1.8.7 3.7-.9 3.6-5 5.7-6.9 6.4-4 1.4-7-1.8-4.7-5.4 1.4-2.2 3.9-4.7 6.8-5.3.2 0 .4-.1.6-.1h.7c.6 0 1.1.1 1.7.2"/>
     <path d="m620.9 383.3s87.3-55.6 127.1-92.5"/>
     <path d="m748 290.8c14.5-17.4 19.9-34.8 19.2-45.3-1.1-16.6-10.3-12.5-16.9-8.2-23.3 20.7-156.7 295-156.7 295"/>
     <path d="m593.6 532.3 73.5-47.2 20 47.9"/>
    </g>
    <path d="m469.5 291.5c-30.2 22.6-163.7 144.7-146.7 140.2 14.4.1 31.9-21.9 38.8-31.6 20.9-29.6 27.6-67.6 7.1-63.2-7.3 1.5-20.4 9.1-38 23.2" stroke-width="5.419139"/>
    <g stroke-width="5.625">
     <path d="m387.7 483.1c-4.7.9-9.8.8-12.5.1-29.8-8.6 48.2-143.1 88.7-186 4.7-5 11.2-10.7 18.9-11.9"/>
     <path d="m451.6 312.4-82.8 155.6"/>
     <path d="m432.1 343.5-53.8 98.9"/>
    </g>
    <path d="m374.2 481.4c-7.4-6.7-3-16.4 2.6-27.7" stroke-width="3.75"/>
    <g stroke-width="5.625">
     <path d="m462.2 298.4-38 66.2"/>
     <path d="m432.1 343.5c-12.9 24.9-52.2 79-61 111.3"/>
    </g>
   </g>
   <path d="m411.6 374-36.6 76.4" stroke-width="3.75"/>
   <path d="m520.6 289.8c-38.7 72.5-84 184-132.9 193.3" stroke-width="5.625"/>
  </g>
 </g>
</svg>
