<svg height="210mm" viewBox="0 0 1052.4 744.1" width="297mm" xmlns="http://www.w3.org/2000/svg">
 <g fill="none" stroke-linecap="round">
  <g transform="translate(0 -308.26772)">
   <path d="m57.6 742.2h948.8" stroke="#969696" stroke-width="1.875"/>
   <g stroke="#000" stroke-dasharray="3.75 7.5" stroke-miterlimit="2" stroke-width=".9375">
    <path d="m58.3 844.1h948.8"/>
    <path d="m58.3 641.8h948.8"/>
    <path d="m58.3 540.6h948.8"/>
   </g>
  </g>
  <g stroke="#000" stroke-linejoin="round" stroke-width="5.625">
   <path d="m551.1 393.6s-104.2 45.5-109.6 48.5c-41.6 23.7-75.8 71.5-70.5 85 1.2 2.9 9.6 22.2 53.1-38.8 48.1-67.3 86.2-138.1 121.9-209.8 23.5-41.2-3.8-64.5-35.7-18.9"/>
   <path d="m551.1 393.6 251.8-107.9-42.5 71.3c-8 13.3 2 26.7 15.7 26.3 20.9-.8 42-21.2 70.7-47.3"/>
   <path d="m248.5 383.2 22 48.1c14.5-21.9 89.8-135.3 112.2-167.7 15.2-21.7 27.9-27.7 41.8-28.1 13.4-.4 18.2 16.1 3.6 37.6-13.5 20.1-25.4 37.7-42.5 62.4-30.1 43.2-49.7 69.1-41.5 86 4.3 8.5 10.1 9.8 17 9.4 20.1-1.2 40.4-16.7 60.2-42.7l88.9-128.5"/>
   <path d="m863.7 479.9c14.8-7.7 32.2-16.2 28.9-34.4-.9-14.2-55-41.3-61.8-64.1-3.5-11.7.7-28.9 15.9-45.3"/>
  </g>
 </g>
</svg>
