<svg height="210mm" viewBox="0 0 1052.4 744.1" width="297mm" xmlns="http://www.w3.org/2000/svg">
 <g fill="none" stroke-linecap="round">
  <g transform="translate(0 -308.26772)">
   <path d="m57.6 742.2h948.8" stroke="#969696" stroke-width="1.875"/>
   <g stroke="#000" stroke-dasharray="3.75 7.5" stroke-miterlimit="2" stroke-width=".9375">
    <path d="m58.3 844.1h948.8"/>
    <path d="m58.3 641.8h948.8"/>
    <path d="m58.3 540.6h948.8"/>
   </g>
  </g>
  <g stroke-linejoin="round" stroke-width="5.625">
   <path d="m313.3 333.2c53.3-10.8 93.7-77.9 87.4-94.3-5.4-14.1-39.5 8.7-85.7 85.1l-60.4 107.6s221.5-48.9 234.6-50.9" stroke="#000"/>
   <path d="m489.2 380.7c26.7-6.4 36 23.7 48.3 37.2 7 7.6 21.6 2.5 29.1-5.4 9.5-10.1 10.7-25.2 5.4-28.9-6.3-4.4-25.9 3.2-49.4 42-36.1 59.1-17.6 57.2 9.8 46" stroke="#000"/>
   <path d="m532.4 471.6c11-3.9 21.5-5.2 27-5.6 11.5-.9 25.6 1.6 22.8 9-.1.2 0 .4-.1.7-.2 1.4-1.1 2.6-2.7 3.4-3.3 1.6-7-.5-8.3-2-3.1-1.1 1.2-11.9 1.9-10.4 1.3 2.7 0 0 8.1 4.3.2.1.2.4.3.6s.3.7.4 1c.2.6.3 1 .4 1.7" stroke="#00001f"/>
   <g stroke="#000">
    <path d="m658.6 361.3a5.5 1.8 0 0 1 -5.5 1.8 5.5 1.8 0 0 1 -5.5-1.8 5.5 1.8 0 0 1 5.4-1.8 5.5 1.8 0 0 1 5.5 1.8h-5.5z" transform="matrix(.98334048 .18177322 -.18177322 .98334048 0 0)"/>
    <path d="m572 468.9c16.2-20.5 48-68.7 66.4-78.4"/>
    <path d="m638.4 390.5c22.4-13 53.2-6.2 32.1 19.9-27.4 33.8-45.5 50.2-39.4 63.9 5.1 11.5 29.7 3.4 44.8-9.9"/>
   </g>
  </g>
 </g>
</svg>
