<svg height="210mm" viewBox="0 0 1052.4 744.1" width="297mm" xmlns="http://www.w3.org/2000/svg">
 <g fill="none" stroke-linecap="round">
  <g transform="translate(0 -308.26772)">
   <path d="m57.6 742.2h948.8" stroke="#969696" stroke-width="1.875"/>
   <g stroke="#000" stroke-dasharray="3.75 7.5" stroke-miterlimit="2" stroke-width=".9375">
    <path d="m58.3 844.1h948.8"/>
    <path d="m58.3 641.8h948.8"/>
    <path d="m58.3 540.6h948.8"/>
   </g>
  </g>
  <g stroke="#000">
   <g stroke-linejoin="round">
    <g stroke-width="5.625">
     <path d="m412.2 430.4c48.2-61.4 98.5-47.1 84.7.3"/>
     <path d="m497.3 431.6c53-58.5 165-191.7 193.4-197.7"/>
     <path d="m623.8 413.3c-9.1 7.1-18.2 14.6-29.8 17.6"/>
     <path d="m623.8 413.3 23.5-18.7"/>
     <path d="m594 430.9c-55 17.3 33.8-138.4 77.9-185.1 4.7-5 11.2-10.7 18.9-11.9"/>
    </g>
    <path d="m582.2 430.1c-7.4-6.7-3-16.4 2.6-27.7" stroke-width="3.75"/>
    <g stroke-width="5.625">
     <path d="m667.9 251.5c-28 46.8-58.4 80.1-84.2 151"/>
     <path d="m618 317.1c-12.9 24.9-30.1 54.1-38.9 86.4"/>
    </g>
   </g>
   <path d="m619.5 322.7-36.6 76.4" stroke-width="3.75"/>
   <g stroke-linejoin="round">
    <path d="m659.6 261.1c-38.7 42.3-62.5 91.1-80.5 142.4" stroke-width="5.625"/>
    <g stroke-width="4.30181">
     <path d="m647.6 394.1c.8-.5-19.8 37.9-19.8 37.9"/>
     <path d="m652.9 396.3-19.4 35.6"/>
     <path d="m637 431.9-9.1.2"/>
     <path d="m658.2 394-21.2 37.9"/>
     <path d="m658.2 394-10.8-.1"/>
     <path d="m651.5 394.9-19.4 35.6"/>
    </g>
   </g>
  </g>
 </g>
</svg>
