<svg height="210mm" viewBox="0 0 1052.4 744.1" width="297mm" xmlns="http://www.w3.org/2000/svg">
 <g fill="none" stroke-linecap="round">
  <g transform="translate(0 -308.26772)">
   <path d="m57.6 742.2h948.8" stroke="#969696" stroke-width="1.875"/>
   <g stroke="#000" stroke-dasharray="3.75 7.5" stroke-miterlimit="2" stroke-width=".9375">
    <path d="m58.3 844.1h948.8"/>
    <path d="m58.3 641.8h948.8"/>
    <path d="m58.3 540.6h948.8"/>
   </g>
  </g>
  <g stroke="#000">
   <g stroke-linejoin="round">
    <g stroke-width="5.625">
     <path d="m581.9 235.4-88.6 172c-12.8 24.9 18.2 39.9 51.9-1.5 10.7-13.4 32.7-41.2 57.1-72.1"/>
     <path d="m602.4 333.7s93.9-123.9 96.1-126.6c2.6-3.2 5-5.8 7.4-7.8 51.1-39.9 27.3 33.2-11.4 99-24.1 39.8-54.2 77.7-77.3 87.7-16.3 3.6-19-7.9-15.9-18.2s115.8-87 124.8-95.7"/>
     <path d="m733.7 207.5-91.7 157.8"/>
    </g>
    <path d="m728 223.8-73 125.6" stroke-width="8.4375"/>
    <path d="m625.2 381.2c6.6-8.2 16.4-19.1 22.5-27.9" stroke-width="3.75"/>
    <g stroke-width="5.625">
     <path d="m716.9 251.3-40.2 67.9"/>
     <path d="m734.6 193.9c.1 1.7.4 3.7.2 5.2-.8 10.6-5.9 15.6-13.7 31.8"/>
     <path d="m726.1 272c11.7-9.1 28.6-23 43.5-32.3 3.9-2.4 8-4.2 12.3-5.1 10.7-2.7 14.3.7 18.7 3.2 7.6 4.3 8 17.2-6 41.5l-29.8 52.1"/>
     <path d="m299.2 413.6 101.2-29.2 22.1 45.9"/>
     <path d="m275.2 336.8c-40.3 12.4-78.1 79.1-59.9 92.3 16.4 4.4 27.7-1.1 43.4-4.7 18.9-4.4 40.6-10.8 40.6-10.8"/>
    </g>
   </g>
   <path d="m526.2 233.6-103.6 196.7" stroke-width="5.625"/>
  </g>
 </g>
</svg>
