<svg height="210mm" viewBox="0 0 1052.4 744.1" width="297mm" xmlns="http://www.w3.org/2000/svg">
 <g fill="none" stroke-linecap="round">
  <g transform="translate(0 -308.26772)">
   <path d="m57.6 742.2h948.8" stroke="#969696" stroke-width="1.875"/>
   <g stroke="#000" stroke-dasharray="3.75 7.5" stroke-miterlimit="2" stroke-width=".9375">
    <path d="m58.3 844.1h948.8"/>
    <path d="m58.3 641.8h948.8"/>
    <path d="m58.3 540.6h948.8"/>
   </g>
  </g>
  <g stroke="#000">
   <path d="m620.3 338.4c.8-1.1 3.5 6.2.4 14.1-3.2 8.2-12.5 19.1-17.8 24.2-10.5 9.9-29.8 30.2-23.7 46.5" stroke-width="5.472634"/>
   <path d="m609.8 337.1c13.9-1.2 11 7.7 10.3 13.7" stroke-width="2.736317"/>
   <path d="m521.7 431.6c12.6-14.6 44.7-63.5 50.3-70.9 6.1-8 10.5-13.2 17.9-18.5 5.2-3.8 12.7-6.4 20-6.5 14.3-.3 24.4 8.5 10.2 26.1-27.1 33.5-45.1 49.8-39.1 63.3 1.9 4.3 6.9 6.2 12.9 6.2 17.2-.8 27.7-11.4 39.2-22.8" stroke-linejoin="round" stroke-width="5.569705"/>
   <path d="m620.2 337.3c15.4 6.8 4.1 30.2-12.2 46.1-14 13.6-22.7 27.7-28.7 39.7" stroke-width="5.472634"/>
   <path d="m586.6 412.6c-3.4 4.9-7.1 14.7 2.5 16.9" stroke-width="2.736317"/>
   <path d="m576.7 417.3c-.1 5.5 3.9 14.3 10.9 14.6" stroke-width="2.736317"/>
   <path d="m333.7 431.3c35-73.3 92.9-96.8 132.2-95.2 37.4 1.5 65.7 38.1 55.9 95.5" stroke-linejoin="round" stroke-width="5.625001"/>
  </g>
 </g>
</svg>
