<svg height="210mm" viewBox="0 0 1052.4 744.1" width="297mm" xmlns="http://www.w3.org/2000/svg">
 <g fill="none" stroke-linecap="round">
  <g transform="translate(0 -308.26772)">
   <path d="m57.6 742.2h948.8" stroke="#969696" stroke-width="1.875"/>
   <g stroke="#000" stroke-dasharray="3.75 7.5" stroke-miterlimit="2" stroke-width=".9375">
    <path d="m58.3 844.1h948.8"/>
    <path d="m58.3 641.8h948.8"/>
    <path d="m58.3 540.6h948.8"/>
   </g>
  </g>
  <g stroke-linejoin="round" stroke-width="5.625">
   <path d="m398.3 430c-42.1 23.1-59.4 37.9-84.4 63-18.5 18.4-21.9 28-20 34.3.9 3 16.3 22.9 59.8-38.1 26.9-36.9 54.6-73.4 69.3-116.4 15.5-30.1-6.8-59.6-43.5-13.3" stroke="#000"/>
   <path d="m398.3 430 229.5-94" stroke="#060000"/>
   <path d="m661.1 383.9s39.7-46.1 67.2-45.5 25.2 72.8 63.5 31.5" stroke="#000"/>
   <g stroke="#00000c">
    <path d="m627.8 336 33.3 47.9"/>
    <path d="m627.8 336 24 48"/>
    <path d="m637.2 336 23.8 47.9"/>
    <path d="m633.3 335.9 24 48"/>
   </g>
  </g>
  <g stroke="#00000c" stroke-width="3.75">
   <path d="m630 334.9h7.1"/>
   <path d="m653.5 384.9h7.1"/>
  </g>
 </g>
</svg>
