<svg height="210mm" viewBox="0 0 1052.4 744.1" width="297mm" xmlns="http://www.w3.org/2000/svg">
 <g fill="none" stroke-linecap="round">
  <g transform="translate(0 -308.26772)">
   <path d="m57.6 742.2h948.8" stroke="#969696" stroke-width="1.875"/>
   <g stroke="#000" stroke-dasharray="3.75 7.5" stroke-miterlimit="2" stroke-width=".9375">
    <path d="m58.3 844.1h948.8"/>
    <path d="m58.3 641.8h948.8"/>
    <path d="m58.3 540.6h948.8"/>
   </g>
  </g>
  <g stroke-width="5.625">
   <path d="m528.3 234.5-113.1 196.6" stroke="#000"/>
   <g stroke-linejoin="round">
    <path d="m415.2 431.1c26-18.5 117.7-83.1 149.5-117.8 33.8-36.9 57.1-71 40.6-76.7-14.6-5.1-40.2 9-87.4 87.7" stroke="#010000"/>
    <path d="m517.9 324.2c-46 79.5-42.2 106.5-22.7 105.6 6-.3 15-2.4 23-7.4" stroke="#000"/>
    <path d="m518.1 422.5c21.8-10.6 30.3-7.9 36-6.9 11.4 1.8 25.3 4.5 21.7 11.5-.1.2-.1.4-.1.7-.4 1.4-1.3 2.4-3.1 3.1-3.5 1.3-6.9-1.3-8-2.9-3-1.4 2-11 2.6-9.4 1 2.8 2.8.3 8.1 4.5.2.1.2.4.2.6.1.2.2.7.3 1 .1.6.2 1 .2 1.8" stroke="#00001f"/>
    <path d="m675.3 239.9a5.5 1.8 0 0 1 -5.5 1.8 5.5 1.8 0 0 1 -5.5-1.8 5.5 1.8 0 0 1 5.4-1.8 5.5 1.8 0 0 1 5.5 1.8h-5.5z" stroke="#000" transform="matrix(.95621278 .29267239 -.29267239 .95621278 0 0)"/>
   </g>
  </g>
 </g>
</svg>
