<svg height="210mm" viewBox="0 0 1052.4 744.1" width="297mm" xmlns="http://www.w3.org/2000/svg">
 <g fill="none" stroke-linecap="round">
  <g transform="translate(0 -308.26772)">
   <path d="m57.6 742.2h948.8" stroke="#969696" stroke-width="1.875"/>
   <g stroke="#000" stroke-dasharray="3.75 7.5" stroke-miterlimit="2" stroke-width=".9375">
    <path d="m58.3 844.1h948.8"/>
    <path d="m58.3 641.8h948.8"/>
    <path d="m58.3 540.6h948.8"/>
   </g>
  </g>
  <g stroke-linejoin="round" stroke-width="5.625">
   <path d="m367 386.8c24.4-4.3 50.6.9 61.7 7.5" stroke="#000"/>
   <ellipse cx="38.685566" cy="547.20532" rx="25.728558" ry="20.371416" stroke="#000" transform="matrix(.79083574 -.61202846 .61202846 .79083574 0 0)"/>
   <path d="m427.6 394.1c.7.1 1.2.2 1.7.4.2.1.3.2.4.3.8.6 1.1 1.7.7 3.5-.9 3.4-4.7 5.3-6.6 6-3.8 1.4-6.6-1.7-4.4-5.1 1.3-2.1 3.7-4.4 6.5-5 .2 0 .4-.1.6-.1h.7c.5 0 1.1.1 1.6.2" stroke="#030002"/>
   <path d="m637.2 337.1c26.8-5.2 44.7 11.5 33.9 46.1" stroke="#000"/>
   <path d="m637.2 337.1c-13.9 1.8-196.4 49-213.2 57" stroke="#060000"/>
   <g stroke="#000">
    <path d="m671.1 383.2 58.6-47.3c1-.8-25.9 49.6-25.9 49.6"/>
    <path d="m736.7 338.7-25.3 46.6"/>
    <path d="m715.8 385.2-12 .2"/>
    <path d="m743.6 335.7-27.7 49.5"/>
    <path d="m743.6 335.7-14.1-.1"/>
    <path d="m734.8 336.9-25.3 46.6"/>
   </g>
  </g>
 </g>
</svg>
