<svg height="210mm" viewBox="0 0 1052.4 744.1" width="297mm" xmlns="http://www.w3.org/2000/svg">
 <g fill="none" stroke-linecap="round">
  <g transform="translate(0 -308.26772)">
   <path d="m57.6 742.2h948.8" stroke="#969696" stroke-width="1.875"/>
   <g stroke="#000" stroke-dasharray="3.75 7.5" stroke-miterlimit="2" stroke-width=".9375">
    <path d="m58.3 844.1h948.8"/>
    <path d="m58.3 641.8h948.8"/>
    <path d="m58.3 540.6h948.8"/>
   </g>
  </g>
  <g stroke="#000">
   <g stroke-linejoin="round">
    <g stroke-width="5.625">
     <path d="m337.4 336c-45.3 11.8-85 97.3-53.1 95.4 23.8-2.4 50.5-32.7 62.8-47"/>
     <path d="m347.1 384.5c19.7-23.5 103.5-113.5 137.9-140.8 83-65-28.8 162.3-88.2 186.6-47.4 12.5 102.2-79.3 124.3-93.7"/>
     <path d="m513 251.9-91.7 157.9"/>
    </g>
    <path d="m507.2 268.2-73 125.6" stroke-width="8.4375"/>
    <path d="m404.5 425.7c6.6-8.2 16.4-19 22.5-27.9" stroke-width="3.75"/>
    <g stroke-width="5.625">
     <path d="m496.2 295.8-40.2 67.9"/>
     <path d="m514.7 238.3c.7 14-5.4 18.6-14.3 37.1"/>
     <path d="m712.7 391 91.4-55"/>
    </g>
    <path d="m530.4 336.9-47.8 86.7" stroke-width="6.5625"/>
    <path d="m521.1 336.6-39 72.4c-6.7 12.5.6 21.8 12.4 22.9 25 3.6 211.1-40.6 229-44.8" stroke-width="5.625"/>
    <path d="m525.7 336.9-44.7 81.9" stroke-width="6.5625"/>
   </g>
   <path d="m487.5 417.5c-1.6 4.1-2.6 6.5.8 11.9" stroke-width="3.75"/>
   <g stroke-linejoin="round">
    <path d="m530.4 336.9-9.3-.4" stroke-width="6.5625"/>
    <g stroke-width="5.625">
     <path d="m532.4 416c.8.1 1.5.2 2.1.5.2.1.4.2.5.3 1 .8 1.4 2.1.8 4.2-1.1 4.1-5.8 6.5-8 7.4-4.6 1.7-8-2.1-5.4-6.2 1.6-2.5 4.5-5.4 7.9-6.1.2-.1.5-.1.7-.1.3 0 .6-.1.9-.1.6 0 1.3.1 2 .3"/>
     <path d="m813.5 479.9c14.8-7.7 32.2-16.2 28.9-34.4-.9-14.2-55-41.3-61.8-64.1-3.5-11.7 8.2-28.9 23.4-45.3"/>
     <ellipse cx="321.15695" cy="766.06329" rx="25.728558" ry="20.371416" transform="matrix(.79083574 -.61202846 .61202846 .79083574 0 0)"/>
    </g>
   </g>
   <path d="m745.3 398.2c.3 9.3-.4 14.6-6.3 21.9-3.6 4.5-8.8 8.3-16 11.1" stroke-width="5.624961"/>
   <path d="m741.7 393c2 6.9 1.8 6.4.7 11.6-1.6 7.6-6.1 13.5-12.5 18.7-3.2 2.6-6.9 5-10.9 7.3" stroke-width="6.599955"/>
   <g stroke-width="2.849979">
    <path d="m724.6 424.9c-5.3 3.7-10.3 5.7-16.3 3.5"/>
    <path d="m730.9 388.3c7.4 1.6 9 4 10.4 10.8"/>
   </g>
  </g>
 </g>
</svg>
