<svg height="210mm" viewBox="0 0 1052.4 744.1" width="297mm" xmlns="http://www.w3.org/2000/svg">
 <g fill="none" stroke-linecap="round">
  <g transform="translate(0 -308.26772)">
   <path d="m57.6 742.2h948.8" stroke="#969696" stroke-width="1.875"/>
   <g stroke="#000" stroke-dasharray="3.75 7.5" stroke-miterlimit="2" stroke-width=".9375">
    <path d="m58.3 844.1h948.8"/>
    <path d="m58.3 641.8h948.8"/>
    <path d="m58.3 540.6h948.8"/>
   </g>
  </g>
  <g stroke="#000">
   <g stroke-linejoin="round">
    <g stroke-width="5.625">
     <path d="m538.6 382.5c58.8 2.8 93.8-21.5 87.2-42.1-2.8-7.3-35-8.7-59.1 31-26.6 43.5-19 60-2.7 59.9 5.4-.6 10.8-2.2 16-4.5"/>
     <path d="m580 426.8c12.5-7.4 31.7-27.4 45.6-43.3"/>
     <path d="m659 431.4c27.9-31.7 60.7-76.4 82.5-90.6"/>
     <path d="m741.5 340.8c22-10.8 49.3-3.5 29.1 21.5-27.4 33.8-45.5 50.2-39.4 63.9 2.5 5.8 10 6.4 18.8 4.3 8.3-2 16.6-8.1 22.7-14.7"/>
    </g>
    <g stroke-width="5.624959">
     <path d="m625.7 383.5 33.3 47.8"/>
     <path d="m625.7 383.5 23.9 47.9"/>
     <path d="m635.1 383.5 23.8 47.8"/>
     <path d="m631.2 383.4 23.9 48"/>
    </g>
   </g>
   <path d="m626.1 382.5h9" stroke-width="3.749972"/>
   <path d="m649.5 432.4h9" stroke-width="3.749972"/>
   <g stroke-linejoin="round" stroke-width="5.625">
    <path d="m383.7 386.4c40 3 59.7-35.8 56.6-44.3-5.4-14.5-29.3-4.3-53.1 35-29.5 48.3-21.2 58.1-3 52.4 19-7.6 34.2-18.6 57.4-47.8"/>
    <path d="m441.6 381.9c50.4-65.5 115.5-58.4 97 .6"/>
   </g>
  </g>
 </g>
</svg>
