<svg height="210mm" viewBox="0 0 1052.4 744.1" width="297mm" xmlns="http://www.w3.org/2000/svg">
 <g fill="none" stroke-linecap="round">
  <g transform="translate(0 -308.26772)">
   <path d="m57.6 742.2h948.8" stroke="#969696" stroke-width="1.875"/>
   <g stroke="#000" stroke-dasharray="3.75 7.5" stroke-miterlimit="2" stroke-width=".9375">
    <path d="m58.3 844.1h948.8"/>
    <path d="m58.3 641.8h948.8"/>
    <path d="m58.3 540.6h948.8"/>
   </g>
  </g>
  <g stroke="#000" stroke-linejoin="round">
   <g stroke-width="5.625">
    <path d="m551.9 336.6c-47.3 58.8-65.5 83.2-86.3 92.3"/>
    <path d="m313.7 431.1c-5.5 1.8-7-3.4-3.4-5.4 25.2-11.5 81.3-27 104.1-27.3 26.4-.4 28.9 41 51.2 30.5"/>
    <path d="m402.3 399.5c18-2.7 20.5 5.8 34 21.4 7.9 9.7 10.2 10.2 15.8 10.2 1.9 0 4.4 0 6.5-.2"/>
    <path d="m425.3 402.2c6.9 6.1 5.3 1.6 20.6 25.1"/>
    <path d="m397.4 260.2c6.4-13.7 27.9-26.8 41.5-25.5 7.7.7 15.6 7.9 11.3 18.6-6.4 14.1-15.9 21.3-33.7 32-9.7 5.8-24.5 14.9-32.9 26.6-5 7-7.7 15.6-6 27.3 6.3 42.7-45.5 80.6-63.9 91.9"/>
    <path d="m551.9 336.6-49.2 94.9"/>
   </g>
   <path d="m726.7 336.6c-11.8 10.1-21.6 18.1-36.7 26.7-21.8 12.5-37.1 18.6-53.6 18.3-8.3-.2-13.4-4.6-15.8-13.1-10.7-37.9 21.1-139.8 102.2-183.7" stroke-width="5.624999"/>
   <path d="m685.8 211.2c-32.4 30.7-98.6 117-112.8 134.4-20.3 25-45 56.7-70.2 85.8" stroke-width="5.625"/>
  </g>
 </g>
</svg>
