<svg height="210mm" viewBox="0 0 1052.4 744.1" width="297mm" xmlns="http://www.w3.org/2000/svg">
 <g fill="none" stroke-linecap="round">
  <g transform="translate(0 -308.26772)">
   <path d="m57.6 742.2h948.8" stroke="#969696" stroke-width="1.875"/>
   <g stroke="#000" stroke-dasharray="3.75 7.5" stroke-miterlimit="2" stroke-width=".9375">
    <path d="m58.3 844.1h948.8"/>
    <path d="m58.3 641.8h948.8"/>
    <path d="m58.3 540.6h948.8"/>
   </g>
  </g>
  <g stroke="#000" stroke-linejoin="round" stroke-width="5.625">
   <path d="m427.6 424 114.9-88.3 17.4 46.9"/>
   <path d="m559.9 382.6c8.4-4.2 70.4-38.9 87.8-37.3 23.3 3 16.5 36.9 32.9 36.5 5.6-.1 14.1-7.8 18.3-12.7"/>
   <path d="m427.6 424c-67.9 50.5-87.1 90.1-85.1 100.5 2.7 14.1 22.4 17.8 58.3-33.2 15.6-21.4 13-68.9 26-84.5 8.9-15.1 19.8-25.3 30.8-32.5 40.7-26.9 19.6-60.1-21.6-20.5"/>
  </g>
 </g>
</svg>
