<svg height="210mm" viewBox="0 0 1052.4 744.1" width="297mm" xmlns="http://www.w3.org/2000/svg">
 <g fill="none" stroke-linecap="round">
  <g transform="translate(0 -308.26772)">
   <path d="m57.6 742.2h948.8" stroke="#969696" stroke-width="1.875"/>
   <g stroke="#000" stroke-dasharray="3.75 7.5" stroke-miterlimit="2" stroke-width=".9375">
    <path d="m58.3 844.1h948.8"/>
    <path d="m58.3 641.8h948.8"/>
    <path d="m58.3 540.6h948.8"/>
   </g>
  </g>
  <g stroke="#000" stroke-linejoin="round" stroke-width="5.625">
   <ellipse cx="146.6059" cy="630.38098" rx="25.728558" ry="20.371416" transform="matrix(.79083574 -.61202846 .61202846 .79083574 0 0)"/>
   <path d="m562.9 430.6c-18.5 10.2-39.6 29.2-45.3 35-25.9 26.2-41.4 50.5-41.3 58.7.1 8.3 18.1 27.5 57.6-36.2l83.3-151.7-122.8 52.7"/>
   <path d="m562.9 430.6c15.9-8 42.6-19 90.8-43.6"/>
   <path d="m401.1 430.9c-5.2 2.6-8.5-2.5-5-6 3.3-3.3 98.3-35.7 98.3-35.7"/>
   <path d="m653.7 387 19.5 44.5"/>
   <path d="m481.9 331.2c33.5-13.6 89.2-81.1 69-95.4-37.8-13.7-77.8 131-100.2 155.8-9.7 14.6-27.1 28.1-49.6 39.3"/>
  </g>
 </g>
</svg>
