<svg height="210mm" viewBox="0 0 1052.4 744.1" width="297mm" xmlns="http://www.w3.org/2000/svg">
 <g fill="none" stroke-linecap="round" transform="translate(0 -308.26772)">
  <path d="m57.6 742.2h948.8" stroke="#969696" stroke-width="1.875"/>
  <g stroke="#000" stroke-dasharray="3.75 7.5" stroke-miterlimit="2" stroke-width=".9375">
   <path d="m58.3 844.1h948.8"/>
   <path d="m58.3 641.8h948.8"/>
   <path d="m58.3 540.6h948.8"/>
  </g>
 </g>
 <g fill="none">
  <g stroke="#000" stroke-linecap="round">
   <g stroke-width="5.625">
    <g stroke-linejoin="round">
     <path d="m319.8 431.2s107.1-100.6 140.7-134.2c30.2-30.2 49.4-56.4 34.3-61.6-14.6-5-42.6 12.2-89.8 90.1-46 79.4-42.2 106.7-22.8 105.8 8.8-.4 25.5-8.9 41.3-22.1 13.8-11.5 28.2-22.4 28.2-22.4"/>
     <path d="m298.9 387.3 21 43.9"/>
     <path d="m462.7 386.8c23.8 35.6 58.9 71.8 62.4 95.4.7 5.4-1 14-3.6 21.9"/>
     <path d="m486.7 533.7c24.4-11 37.7-23.5 37-43.2-.6-15.2-13.1-36.3-21.1-45.8-9.5-11.7-46.9-57.8-46.9-57.8"/>
     <path d="m451.9 386.8c12.2 20 42.6 51.3 59.5 79.1 7 11.6 15.5 30.8 7.1 44.2"/>
    </g>
    <path d="m462.7 386.8h-10.8"/>
   </g>
   <path d="m652.3 430.9 66-153.4c2.6-6.4 4.3-12 5.2-16.8 1.4-7.2.8-14.1-2.8-18.9-3.1-4.2-8.4-6.8-16.5-6.8-21.3 1.9-29.4 20.8-51.2 63.8-47.7 94-104.5 207.6-104.5 207.6" stroke-linejoin="round" stroke-width="5.62496"/>
   <g stroke-width="5.625">
    <path d="m840.9 434.7c-15.7 11.3-34.2 24.3-52.1 33.6-6.4 3.3-11.9 5.6-18.8 8.3-9.4 3.5-27 9-34.9-4.5-2-3.6-3.2-8.3-3.6-13.9-3.6-43.8 38.3-140.8 101.7-175" stroke-linejoin="round"/>
    <path d="m820.1 291.3c-13.7 9.4-167.8 139.6-167.8 139.6" stroke-linejoin="round"/>
    <path d="m306.6 235.6-96.4 166.7"/>
    <path d="m249.8 396.5a19.2 25.1 41.6 0 1 -14.3 31.3 19.2 25.1 41.6 0 1 -27.6-6.8 19.2 25.1 41.6 0 1 14.3-31.3 19.2 25.1 41.6 0 1 27.6 6.8z" stroke-linejoin="round"/>
    <path d="m230.7 460.9c24.8 33.5 76.4 32.1 103.1 0"/>
    <g stroke-linejoin="round">
     <path d="m564.6 490s-73.2 29-81.8 39.9c-1.8 2.3-.3 5.8 3.9 3.8"/>
     <path d="m589.3 496.4c3.7 10.5-2.8 26.4-14.3 33.2-11.6 6.8-23.9 3.7-27.6-6.8s2.8-24.6 14.3-31.3c11.6-6.8 23.9-5.6 27.6 5z"/>
    </g>
   </g>
  </g>
  <path d="m295.3 216.8 478.7 334.4" stroke="#d10000" stroke-linecap="square" stroke-opacity=".560748" stroke-width="28.125002"/>
 </g>
 <g fill="#d10000" fill-opacity=".560748" fill-rule="evenodd">
  <path d="m774.1 195.7-11.5 8.1c-73.6 51.4-157.4 109.5-231 160.9l26.1 18.2c73.5-51.4 147.5-104.6 221-156.1l11.5-8.1z"/>
  <path d="m291.9 570.1 11.5-8.1c73.6-51.4 157.4-109.6 231-161l-26.1-18.2c-73.5 51.5-147.4 104.7-221 156.2l-11.5 8.1z"/>
 </g>
</svg>
