<svg height="210mm" viewBox="0 0 1052.4 744.1" width="297mm" xmlns="http://www.w3.org/2000/svg">
 <g fill="none" stroke-linecap="round">
  <g transform="translate(0 -308.26772)">
   <path d="m57.6 742.2h948.8" stroke="#969696" stroke-width="1.875"/>
   <g stroke="#000" stroke-dasharray="3.75 7.5" stroke-miterlimit="2" stroke-width=".9375">
    <path d="m58.3 844.1h948.8"/>
    <path d="m58.3 641.8h948.8"/>
    <path d="m58.3 540.6h948.8"/>
   </g>
  </g>
  <g stroke-linejoin="round" stroke-width="5.625">
   <path d="m652.3 431.5c-4.9.2-9.4-1.2-12.9-9.1-6.6-15-9.6-18.2-21.4-18.8-4.5-.2-12.4 1.2-19 7.9-20.5 20.8-41.8 50.7-56.4 75-5.7 11.1-30.4 44.8-8.1 45.9 8.8.3 24.4-7.4 50-43.4 26.9-36.9 53.2-75.3 67.9-118.3 10.3-20 7.3-35.2-9.2-33.9-18.5 1.4-30.6 15.5-42.3 24.9" stroke="#060000"/>
   <g stroke="#030002">
    <path d="m716.9 415.6c1 .1 1.8.3 2.5.7.2.1.4.2.6.4 1.2.9 1.7 2.6 1 5.2-1.3 5.1-7.1 8-9.8 9-5.7 2-9.8-2.6-6.6-7.6 2-3.1 5.5-6.6 9.7-7.5.3-.1.6-.1.9-.1s.7-.1 1-.1c.8 0 1.6.1 2.4.3"/>
    <path d="m652.3 431.5 56.8-.2"/>
    <path d="m688.1 415.5c1 .1 1.8.3 2.5.7.2.1.4.2.6.4 1.2.9 1.7 2.6 1 5.2-1.3 5.1-7.1 8-9.8 9-5.7 2-9.8-2.6-6.6-7.6 2-3.1 5.5-6.6 9.7-7.5.3-.1.6-.1.9-.1s.7-.1 1-.1c.8 0 1.6.1 2.4.3"/>
   </g>
   <path d="m561.6 388.4c15.9-9.2 30-19.4 39.2-26.6" stroke="#000"/>
   <path d="m561.6 388.4c-129.1 61.7-241.3 51.2-244.9-.3" stroke="#000"/>
  </g>
 </g>
</svg>
