<svg height="210mm" viewBox="0 0 1052.4 744.1" width="297mm" xmlns="http://www.w3.org/2000/svg">
 <g fill="none" stroke-linecap="round">
  <g transform="translate(0 -308.26772)">
   <path d="m57.6 742.2h948.8" stroke="#969696" stroke-width="1.875"/>
   <g stroke="#000" stroke-dasharray="3.75 7.5" stroke-miterlimit="2" stroke-width=".9375">
    <path d="m58.3 844.1h948.8"/>
    <path d="m58.3 641.8h948.8"/>
    <path d="m58.3 540.6h948.8"/>
   </g>
  </g>
  <g stroke="#000">
   <g stroke-linejoin="round" stroke-width="5.625">
    <path d="m409.7 347.2c23.7-19.2 60.9-14.6 37.5 14.4-27.4 33.8-45.5 50.2-39.4 63.9 2.4 5.6 9.4 6.3 17.6 4.3"/>
    <path d="m425.3 429.8c15.5-4.7 75.4-48.7 75.4-48.7"/>
    <path d="m509.9 432c-6.7-3 94.5-41.4 94.5-41.4l18 40.8"/>
    <path d="m488.2 355.8c.7 10.1 2.9 16 12.6 23.5 10.8 6.3 25.9 17.1 29.2 21.3s4.9 11-2.2 21.9"/>
    <path d="m490.3 365.5c.4 10.9 19 22.1 31.1 30.7 8.9 7.4 15.6 14 6.3 26.3"/>
   </g>
   <path d="m517.6 427.6c6.1-2.6 11.5-9.5 12.2-12" stroke-width="2.8125"/>
   <path d="m509.9 432c17.9-4.9 27.5-16.7 27.3-25.9-1.1-20.7-47.4-26.8-49-48.9-.3-8.7 9.9-17.8 19.6-20.3 15.9-4 23.4 4.5 19.6 15.9-2 6-6.2 14.2-17.1 21.8l-9.5 6.6" stroke-linejoin="round" stroke-width="5.625"/>
  </g>
 </g>
</svg>
