<svg height="210mm" viewBox="0 0 1052.4 744.1" width="297mm" xmlns="http://www.w3.org/2000/svg">
 <g fill="none" stroke-linecap="round">
  <g transform="translate(0 -308.26772)">
   <path d="m57.6 742.2h948.8" stroke="#969696" stroke-width="1.875"/>
   <g stroke="#000" stroke-dasharray="3.75 7.5" stroke-miterlimit="2" stroke-width=".9375">
    <path d="m58.3 844.1h948.8"/>
    <path d="m58.3 641.8h948.8"/>
    <path d="m58.3 540.6h948.8"/>
   </g>
  </g>
  <g stroke="#000" stroke-linejoin="round" stroke-width="5.625">
   <path d="m496.1 431.3s225.7-173.1 190.9-195.4c-14.8-5.1-39.3 7.4-87.4 86.7-60.5 104.6-34.6 120.7-1.4 101.7"/>
   <path d="m598.3 424.3c33.2-19.1 116.8-134.5 149-171.5 22.8-23.5 36.1-17.1 40.5-14.6 5.8 3.3 7.4 11.8 1.4 26.6-4.9 11.2-33.5 67-33.5 67"/>
   <path d="m325.3 401.8c58.3-108.5 201.4-73.4 170.7 29.5"/>
   <path d="m755.7 331.8 62.7-38.7"/>
   <path d="m825.1 431.3c28.5-22.6 35.5-31.4 39-55.7 1.8-12.5-2.6-28-12.8-37.6-5-4.7-11-8.4-17-11.7-8.5-4.8-11.8-5.8-17.2-11.5-6-6.3-5-21.2 9.8-27.5"/>
   <path d="m305.9 336.3c-13.8 25.3-29 53.8-37.4 73-7.9 17.4 5.1 22.2 13.9 22.1 19.5.3 26.7-1.9 43-29.6"/>
  </g>
 </g>
</svg>
