<svg height="210mm" viewBox="0 0 1240.2 744.1" width="350mm" xmlns="http://www.w3.org/2000/svg">
 <g fill="none" stroke-linecap="round">
  <g transform="translate(0 -308.26772)">
   <path d="m14 742.2h1212.1" stroke="#969696" stroke-width="1.875"/>
   <g stroke="#000" stroke-dasharray="3.75 7.5" stroke-miterlimit="2" stroke-width=".9375">
    <path d="m14.7 844.1h1212.2"/>
    <path d="m14.7 641.8h1212.2"/>
    <path d="m14.7 540.6h1212.2"/>
   </g>
  </g>
  <g stroke="#000">
   <path d="m328.9 237.7c-48 60-85.6 120.5-108.4 181.8" stroke-width="5.624959"/>
   <path d="m315.9 249.8c-38.2 44.8-70.9 94.9-92.8 154.8" stroke-width="7.499945"/>
   <path d="m345.7 238.5c-14-7.3-23.9 9.4-26.4 12.4" stroke-width="3.749972"/>
   <path d="m226.1 405.3c-5.8 21.1-2 22.9 11.8 22.7.4 0 7.1-.6 7.5-.6" stroke-width="5.624959"/>
   <g stroke-linejoin="round">
    <g stroke-width="5.624959">
     <path d="m175.5 426.5c40.5-35.1 81.4-73.2 115-107.2 38.8-39.4 71.3-76.4 52.6-82.9-14.6-4.9-40.3 8.9-87.4 86.8-60.3 104.1-33.5 122.2-1.8 98.3l16.4-12.4"/>
     <path d="m169.4 428.2c-7.8 2.5-131.6 2.1-146.9 2"/>
     <path d="m176.5 416.3c.8.1 1.4.2 1.9.5.2.1.4.1.5.3.9.8 1.3 1.9.7 4-1 3.9-5.5 6.1-7.6 7-4.3 1.6-7.5-2-5-5.9 1.5-2.4 4.2-5 7.4-5.7.1 0 .4-.1.6-.1.3-.1.5-.1.8-.1.6 0 1.2.1 1.9.2"/>
     <path d="m323.6 431.1c56.6-73.1 127.9-65.2 107.1.7"/>
     <path d="m507.6 385.9-23.6 45.4"/>
     <path d="m602.7 431.1 70.4-20.8"/>
     <path d="m621.5 336.6-42.4 73c-9.2 16 4.2 25.4 23.6 21.4"/>
     <path d="m673.1 410.2 88.8-25.3 21.4 47.1"/>
     <path d="m783.4 432 47.5-47.2 21.4 47.2"/>
    </g>
    <g stroke-width="5.625">
     <path d="m890.6 431.3c9.6-13.2 29.4-29.3 48.2-30 17.8.1 21.2 29.6 42.8 29.9 31.1 2.2 67.3-93.4 109.1-95 15-1.1 24.6 7.4 9.7 25.8-27.4 33.8-45.5 50.2-39.4 63.9 2 4.4 7.7 5.1 13.8 4.5"/>
     <path d="m1074.7 430.5c21.9-1.9 61-30.4 82.3-30 16-.6 18.3 30.3 32.6 30.7 7.2.2 14.9-7.4 19.3-11.8"/>
    </g>
   </g>
  </g>
 </g>
</svg>
