<svg height="210mm" viewBox="0 0 1052.4 744.1" width="297mm" xmlns="http://www.w3.org/2000/svg">
 <g fill="none" stroke-linecap="round">
  <g transform="translate(0 -308.26772)">
   <path d="m57.6 742.2h948.8" stroke="#969696" stroke-width="1.875"/>
   <g stroke="#000" stroke-dasharray="3.75 7.5" stroke-miterlimit="2" stroke-width=".9375">
    <path d="m58.3 844.1h948.8"/>
    <path d="m58.3 641.8h948.8"/>
    <path d="m58.3 540.6h948.8"/>
   </g>
  </g>
  <g stroke="#000">
   <g stroke-linejoin="round">
    <g stroke-width="5.625">
     <path d="m423.5 333.5c53.3-10.8 97-78.6 90.8-95-5.4-14.1-39.5 8.7-85.7 85.1l-60.4 107.6"/>
     <path d="m489.3 430.8 91.2-94.7-56.7 94.9 67.8-44.6"/>
     <path d="m747.9 431.9c5.4-3.3 11.7-10.5 6.5-17.1-2.6-3.3-4-4.5-11.9-4.4l-135 .6c-5.8 0-12.7.1-15.9-.7-9.6-2.4-7.9-13.2 0-24"/>
     <path d="m368.1 431.3c35.3-29.9 66.3-44.4 87.6-45.5 24.2-1.2 37.5 7.9 33.6 45"/>
    </g>
    <path d="m474.4 392.1c10.4 5.8 12.6 28.6 10 38.1" stroke-width="6.5625"/>
    <path d="m461.8 385.7c16.4 3.3 19.2 32.7 18.3 45.3" stroke-width="4.6875"/>
   </g>
   <path d="m480.4 430.7 8.9.1" stroke-width="5.625"/>
   <path d="m449.2 387.4c13.6-2.1 22 2.5 25.4 11" stroke-linejoin="round" stroke-width="3.75"/>
  </g>
 </g>
</svg>
