<svg height="210mm" viewBox="0 0 1052.4 744.1" width="297mm" xmlns="http://www.w3.org/2000/svg">
 <g fill="none" stroke-linecap="round">
  <g transform="translate(0 -308.26772)">
   <path d="m57.6 742.2h948.8" stroke="#969696" stroke-width="1.875"/>
   <g stroke="#000" stroke-dasharray="3.75 7.5" stroke-miterlimit="2" stroke-width=".9375">
    <path d="m58.3 844.1h948.8"/>
    <path d="m58.3 641.8h948.8"/>
    <path d="m58.3 540.6h948.8"/>
   </g>
  </g>
  <g stroke="#000" stroke-linejoin="round" stroke-width="5.625">
   <path d="m616 431.6s67.5-31.4 84-31.3c19.3.1 13 30.5 28.9 30.6 9.3 0 14.1-7.9 17.8-11.7"/>
   <path d="m408.9 435s201.8-89.4 226.1-98.1c21-5.4 34.4 2.1 12.3 40.5l-31.2 54.1"/>
   <path d="m413.1 434.1c-17.4-1.6-46.1-3.1-62 5.9-15 8.4-28 18.9-38.9 27.4-32.5 23.2-40.2 52.7-38 60 .9 3 16.3 22.9 59.8-38.1 26.9-36.9 52.8-74.7 67.5-117.8 15.5-30.1-1.4-56.7-44.4-11.6"/>
   <path d="m413.1 434.1c.6.1 1 .2 1.4.4.1.1.2.1.4.2.7.5.9 1.4.6 2.9-.8 2.9-4 4.5-5.5 5.1-3.2 1.1-5.5-1.5-3.7-4.3 1.1-1.8 3.1-3.7 5.4-4.2.2 0 .3-.1.5-.1h.6c.4 0 .9.1 1.4.2"/>
  </g>
 </g>
</svg>
