<svg height="210mm" viewBox="0 0 1052.4 744.1" width="297mm" xmlns="http://www.w3.org/2000/svg">
 <g fill="none" stroke-linecap="round">
  <g transform="translate(0 -308.26772)">
   <path d="m57.6 742.2h948.8" stroke="#969696" stroke-width="1.875"/>
   <g stroke="#000" stroke-dasharray="3.75 7.5" stroke-miterlimit="2" stroke-width=".9375">
    <path d="m58.3 844.1h948.8"/>
    <path d="m58.3 641.8h948.8"/>
    <path d="m58.3 540.6h948.8"/>
   </g>
  </g>
  <g stroke="#000">
   <g stroke-linejoin="round">
    <g stroke-width="5.625">
     <path d="m177.6 430.8c88.5-59.2 253.5-59.1 233.6-.2"/>
     <path d="m411.2 430.6 99.1-94"/>
     <path d="m501.9 407.1s16.7-8.3 22.7-11.2c47.6-22.4 79-8.5 66.9 34.6"/>
    </g>
    <path d="m582.1 392.3c7.1 5.9 8.1 27.1 3.2 37.8" stroke-width="6.5625"/>
    <path d="m569.5 385.9c16.4 3.3 16.8 35.2 10.1 45.2" stroke-width="4.6875"/>
   </g>
   <g stroke-width="5.625">
    <path d="m580.3 431.2 9.8.1"/>
    <g stroke-linejoin="round">
     <path d="m510.3 336.6-57 94.7 48.6-24.2"/>
     <path d="m591.4 430.5 197-231.8"/>
     <path d="m788.4 198.7c29.5-31.4 49.3-58 33.7-63.4-14.6-5-40.2 8.9-87.4 86.8-45.8 79.1-39.7 109.4-21 108.5"/>
     <path d="m713.6 330.7c12.3-.3 79.2-44.1 83.3-46.6 13.3-8.1 42.9-32.6 36.9-44.4-4.9-7.8-34.7-8.6-58.5 30.7-26.3 43.1-18.8 60.4-2.7 60.3 5.3-.6 11.5-3.2 15.8-5.4"/>
     <path d="m788.4 325.3c7.7-4 17.6-11.5 17.6-11.5l38.1-29.6 21.7 45.9"/>
    </g>
   </g>
  </g>
 </g>
</svg>
