<svg height="210mm" viewBox="0 0 1052.4 744.1" width="297mm" xmlns="http://www.w3.org/2000/svg">
 <g fill="none" stroke-linecap="round">
  <g transform="translate(0 -308.26772)">
   <path d="m57.6 742.2h948.8" stroke="#969696" stroke-width="1.875"/>
   <g stroke="#000" stroke-dasharray="3.75 7.5" stroke-miterlimit="2" stroke-width=".9375">
    <path d="m58.3 844.1h948.8"/>
    <path d="m58.3 641.8h948.8"/>
    <path d="m58.3 540.6h948.8"/>
   </g>
  </g>
  <g stroke="#000" stroke-width="5.625">
   <path d="m296.2 336-42.4 72.8c-8.6 14.8 4.6 23.5 21.5 22.2 8.8-.7 14.3-6.7 18.3-11 5-5.4 49.9-58.8 49.9-58.8" stroke-linejoin="round"/>
   <path d="m343.6 361.2 113.4-126.7" stroke-linejoin="round"/>
   <path d="m457 234.5-113.1 196.5"/>
   <g stroke-linejoin="round">
    <path d="m343.9 431 160.1-147.4"/>
    <ellipse cx="298.10245" cy="545.5921" rx="20.646757" ry="16.347736" transform="matrix(.89236516 -.45131411 .45131411 .89236516 0 0)"/>
    <path d="m504 283.6-35.2 60.7c-25.7 46.5 17.5 39.7 47.9 24.2"/>
    <path d="m589.2 335.5c-47.8 12.5-89.4 107.4-47.1 94.7 14.2-5.6 25.5-7 65.3-51.1"/>
    <path d="m607.5 379.1 34.3-43.3 27.8 46.4"/>
    <path d="m669.5 382.3c82.8-74.3 104.4-88.7 119.7-107 9-10.8 16.7-22.4 16.2-29.9-1.1-16.6-10.3-12.5-16.9-8.2-10.9 8.2-46.9 73.5-66.8 108.5-38.2 67.2-82.3 151.5-102.6 187.7"/>
    <path d="m521 366.2s54.7-27.7 68.1-30.7"/>
   </g>
  </g>
 </g>
</svg>
