<svg height="210mm" viewBox="0 0 1052.4 744.1" width="297mm" xmlns="http://www.w3.org/2000/svg">
 <g fill="none" stroke-linecap="round">
  <g transform="translate(0 -308.26772)">
   <path d="m57.6 742.2h948.8" stroke="#969696" stroke-width="1.875"/>
   <g stroke="#000" stroke-dasharray="3.75 7.5" stroke-miterlimit="2" stroke-width=".9375">
    <path d="m58.3 844.1h948.8"/>
    <path d="m58.3 641.8h948.8"/>
    <path d="m58.3 540.6h948.8"/>
   </g>
  </g>
  <g stroke="#000">
   <g stroke-linejoin="round">
    <g stroke-width="5.625">
     <path d="m407 336.5c-40.3 12.4-79.3 77.9-61.1 91.1 7.4 6.3 22.1 3.9 44.3.5 35.4-5.3 193.9-42.6 193.9-42.6"/>
     <path d="m584.1 385.5 22.1 45.9"/>
     <path d="m265.9 432.2c7.1-2.5 11.3-4.8 17.5-9.1 11.5-9.3 22-21.1 32.2-36.4l30.9-50"/>
     <path d="m339.4 336.8-43.3 72.8"/>
    </g>
    <path d="m306.8 388.9c-13.9 21.2-18 30.2-29.7 37.8" stroke-width="2.8125"/>
    <path d="m346.6 336.7-7.3.1" stroke-width="5.625"/>
    <path d="m342 339.3c-13.9 21.2-22 34.5-22 34.5" stroke-width="2.8125"/>
   </g>
   <path d="m339.4 336.8c-22.6 27.1-81.2 76.4-110.8 90-7.4 3.3-14.2 4.9-20 5-18.9.3-28.2-15.7-20.8-41.2" stroke-width="5.625"/>
   <g stroke-linejoin="round">
    <path d="m265.9 432.2c-16.9 1 117.9-84.6 129-90.5" stroke-width="5.625"/>
    <path d="m731.6 235.9c-12.8 3.1-25 21.3-32.6 33.1-8.2 13.9-24.1 41.7-40.5 70.5-25.6 44.8-52.3 91.9-52.3 91.9" stroke-width="5.625"/>
    <path d="m518 577.1a5.9 5.9 0 0 1 -5.9 5.9 5.9 5.9 0 0 1 -5.9-5.9 5.9 5.9 0 0 1 5.9-5.9 5.9 5.9 0 0 1 5.9 5.8h-5.9z" stroke-width="6.571438" transform="matrix(.86496534 -.5018316 .5018316 .86496534 0 0)"/>
    <path d="m732 236.5c29.9-5 83.7-12.5 98.3-9.7 18.5 2 24.3 37.9 37.6 38.1 8.5.1 18.5-7.8 22.6-12.1" stroke-width="5.624999"/>
   </g>
  </g>
 </g>
</svg>
