<svg height="210mm" viewBox="0 0 1052.4 744.1" width="297mm" xmlns="http://www.w3.org/2000/svg">
 <g stroke-linecap="round">
  <g fill="none" transform="translate(0 -308.26772)">
   <path d="m57.6 742.2h948.8" stroke="#969696" stroke-width="1.875"/>
   <g stroke="#000" stroke-dasharray="3.75 7.5" stroke-miterlimit="2" stroke-width=".9375">
    <path d="m58.3 844.1h948.8"/>
    <path d="m58.3 641.8h948.8"/>
    <path d="m58.3 540.6h948.8"/>
   </g>
  </g>
  <g stroke="#000">
   <g fill="none" stroke-width="5.625">
    <path d="m552.6 428.5c-11 7.4-44-.1-54.6 7.5-25.9 18.6-44.3 33.7-53.5 48.4-12.2 19.6-18.8 37.6-14.7 45 2.9 5.3 34.7 12.4 62.3-63.3 15.8-47.4 16.5-113.3 70.8-131.6" stroke-linejoin="round"/>
    <path d="m713.4 235.3-153.3 187.6"/>
    <path d="m535.4 351.6c-19.9 11.3-158.7 181.8-158.7 181.8"/>
   </g>
   <g stroke-linejoin="round">
    <g fill="#eb0000" fill-rule="evenodd" transform="matrix(1.7715894 0 0 1.7715894 -741.73069 79.036078)">
     <path d="m732.1 185.5c.8.1 1.4.2 1.9.5.2.1.3.2.5.3.9.7 1.3 2 .8 4-1 3.9-5.4 6.1-7.5 6.9-4.3 1.6-7.6-2-5.1-5.9 1.6-2.4 4.2-5.1 7.4-5.7.2 0 .4-.1.7-.1h.8c.6 0 1.2.1 1.9.3" stroke-width="5.625"/>
     <path d="m729.3 188.3c.3 0 .6.1.9.2.1 0 .2.1.2.1.4.3.6.9.4 1.8-.4 1.7-2.4 2.8-3.3 3.1-1.9.7-3.4-.9-2.3-2.6.7-1.1 1.9-2.3 3.3-2.6h.3.4c.3 0 .6 0 .8.1" stroke-width="4.981044"/>
    </g>
    <path d="m713.4 235.3-49.2 94.9" fill="none" stroke-width="5.625"/>
   </g>
  </g>
 </g>
</svg>
