<svg height="210mm" viewBox="0 0 1052.4 744.1" width="297mm" xmlns="http://www.w3.org/2000/svg">
 <g fill="none" stroke-linecap="round">
  <g transform="translate(0 -308.26772)">
   <path d="m57.6 742.2h948.8" stroke="#969696" stroke-width="1.875"/>
   <g stroke="#000" stroke-dasharray="3.75 7.5" stroke-miterlimit="2" stroke-width=".9375">
    <path d="m58.3 844.1h948.8"/>
    <path d="m58.3 641.8h948.8"/>
    <path d="m58.3 540.6h948.8"/>
   </g>
  </g>
  <g stroke="#000" stroke-linejoin="round">
   <g stroke-width="5.625">
    <ellipse cx="783.48309" cy="-267.38647" rx="4.609393" ry="6.862875" transform="matrix(.72846687 .68508103 -.68508103 .72846687 0 0)"/>
    <path d="m287 260.2c6.4-13.7 27.9-26.8 41.5-25.5 7.7.7 15.6 7.9 11.3 18.6-6.4 14.1-15.9 21.3-33.7 32-9.7 5.8-24.5 14.9-32.9 26.6-5 7-7.7 15.6-6 27.3 6.3 42.7-45.5 80.6-63.9 91.9"/>
    <path d="m203.4 431.1c-2.9 1.3-6.3-3.1-3-5.8 4.7-3.9 94.7-25.1 103.7-25.3 16.7-.3 16.4 29.4 34.5 31.1 7.7.7 16.7-.8 25.8-3.1 25.1-6.3 219.6-57.7 325.3-93.9"/>
   </g>
   <g stroke-width="5.624999">
    <path d="m689.6 334c54.3-11 97.7-78.3 91.4-95-5.5-14.4-40.8 8.6-87.4 86.8-15.5 26-25.6 48.2-31.1 65.5-8.2 25.5-8.6 40.2 7 40.2 18 0 46.7-35.5 87.3-85.4"/>
    <path d="m810.7 282.7c-35.6 50.5-48.5 67.8-58.6 65.3"/>
   </g>
  </g>
 </g>
</svg>
