<svg height="210mm" viewBox="0 0 1052.4 744.1" width="297mm" xmlns="http://www.w3.org/2000/svg">
 <g fill="none" stroke="#000" stroke-linecap="round">
  <g transform="translate(0 -308.26772)">
   <path d="m57.6 742.2h948.8" stroke-width="1.875"/>
   <g stroke-dasharray="3.75 7.5" stroke-miterlimit="2" stroke-width=".9375">
    <path d="m58.3 844.1h948.8"/>
    <path d="m58.3 641.8h948.8"/>
    <path d="m58.3 540.6h948.8"/>
   </g>
  </g>
  <g stroke-linejoin="round" stroke-width="5.625">
   <path d="m372 431.1c11.2-23.8 37.5-41.1 61.9-43.7 30.4-3.3 45.4 10.1 35.5 43.9"/>
   <path d="m469.4 431.3s51.6-43.6 63.5-45.5c16.1-2.6 28.1 5.8 12.4 25.3-27.4 33.8-44.3 49.8-38.3 63.4 5.4 12.3 32 2.7 46.5-12.2 1-1 21.1-29.1-1.7-34.2-22.7-5.1-48.7 6.5-50.6 20.9-.8 5.8 11.5 24.8 27.6 26.5 19.8 2.1 38.7-8.2 69.9-26.6"/>
   <path d="m598.6 448.9c10.8-6.8 26.8-15.9 33.1-11 6.1 4.7 8 33.9 20.2 36.1 12.6 2.3 26.4-8.6 35.2-14.7"/>
   <path d="m620 437.8c11.6-4.7 13.4 6.8 14.9 23.4 1 10.8 7.8 13.7 20.1 13.3"/>
   <path d="m620 437.8c5.4-2.4 19-3.6 22.7 15 2.6 13.3 5.7 21.2 12.3 21.6"/>
   <path d="m632 440.5c6.8 12.3 1 30.9 15.5 31.8"/>
  </g>
 </g>
</svg>
