<svg height="210mm" viewBox="0 0 1052.4 744.1" width="297mm" xmlns="http://www.w3.org/2000/svg">
 <g fill="none" stroke-linecap="round">
  <g transform="translate(0 -308.26772)">
   <path d="m57.6 742.2h948.8" stroke="#969696" stroke-width="1.875"/>
   <g stroke="#000" stroke-dasharray="3.75 7.5" stroke-miterlimit="2" stroke-width=".9375">
    <path d="m58.3 844.1h948.8"/>
    <path d="m58.3 641.8h948.8"/>
    <path d="m58.3 540.6h948.8"/>
   </g>
  </g>
  <g stroke="#000">
   <g stroke-width="5.625">
    <path d="m691.7 362.7 34-27.5 22.7 47.9" stroke-linejoin="round"/>
    <path d="m706.2 288.4c-56.6 14.8-104.6 143.3-14.6 74.3" stroke-linejoin="round"/>
    <path d="m681.7 301.7-91.4 81.2"/>
    <g stroke-linejoin="round">
     <path d="m305.1 334.9-42.4 73.1c-7.5 12.9.6 22.2 13.7 22.9 17 .4 29.6-11.5 38.3-21.3 6.9-7.6 57.9-73.2 57.9-73.2"/>
     <path d="m372.5 336.4 31.4 47.9 35.8-49.4"/>
     <path d="m372.5 336.4 24 48"/>
     <path d="m380.1 336.4 23.8 47.9"/>
     <path d="m376.2 336.3 24 48"/>
    </g>
   </g>
   <path d="m372.9 335.3h7.1" stroke-width="3.75"/>
   <path d="m396.3 385.3h7.1" stroke-width="3.75"/>
   <g stroke-linejoin="round" stroke-width="5.625">
    <path d="m465.5 382.8 101-46.9 23.7 47.1"/>
    <path d="m439.8 334.9c15.4-18.9 22.7-35.3 44.7-44.9 19.6-8.3 35 2.5 12.3 40.5l-31.2 52.3"/>
   </g>
  </g>
 </g>
</svg>
