<svg height="210mm" viewBox="0 0 1052.4 744.1" width="297mm" xmlns="http://www.w3.org/2000/svg">
 <g fill="none" stroke-linecap="round">
  <g transform="translate(0 -308.26772)">
   <path d="m57.6 742.2h948.8" stroke="#969696" stroke-width="1.875"/>
   <g stroke="#000" stroke-dasharray="3.75 7.5" stroke-miterlimit="2" stroke-width=".9375">
    <path d="m58.3 844.1h948.8"/>
    <path d="m58.3 641.8h948.8"/>
    <path d="m58.3 540.6h948.8"/>
   </g>
  </g>
  <g stroke="#000">
   <g stroke-linejoin="round">
    <path d="m443.4 419.9s-29 16.6-32.5 18.4c-36.6 18.6-68.9 82.9-64 91.1 0 0 18.2 27.1 57.1-39.7 15.6-21.4 15.8-67 28.8-84 10.3-13.2 19.8-22.6 30.8-29.8 28.2-18.6 26.8-41.3 9.6-40.4-12.4.7-21.5 3.6-34.5 19.5" stroke-width="5.625"/>
    <path d="m443.4 419.9c23.5-13.4 49.8-29.1 70.7-32.8 29.5-5.2 44.9 10.7 35.6 43.5" stroke-width="5.625"/>
    <path d="m540.4 392.5c7.1 5.9 8.1 27.1 3.2 37.8" stroke-width="6.5625"/>
    <path d="m527.8 386.1c16.4 3.3 16.8 35.2 10.1 45.2" stroke-width="4.6875"/>
   </g>
   <path d="m538.6 431.4 9.8.1" stroke-width="5.625"/>
   <g stroke-linejoin="round">
    <path d="m601.8 431.1c3 .3 9.7-4.3 11-5 48.9-28.1 71.8-129.9 9.4-74.1-2.3 2.1-17.4 18.4-20 21" stroke-width="5.431899"/>
    <g stroke-width="5.638243">
     <path d="m656.5 339.7c-.7 31-18.1 61.6-38.1 82.5"/>
     <path d="m659.1 342c5.2 34.8-19.9 69.4-45 83.3"/>
     <path d="m651.8 338.4c3.6 34.1-21.2 69-37.7 86.9"/>
    </g>
    <path d="m644.4 338.2c7.9-3.1 5.9 10.5 5.9 15.8" stroke-width="2.819122"/>
    <path d="m620.6 415.6c-5.5 6.9-9.4 9.8-15.3 13.2" stroke-width="2.819122"/>
    <path d="m602.3 372.9-53.9 58.5" stroke-width="5.625"/>
   </g>
  </g>
 </g>
</svg>
