<svg height="210mm" viewBox="0 0 1052.4 744.1" width="297mm" xmlns="http://www.w3.org/2000/svg">
 <g fill="none" stroke-linecap="round">
  <g transform="translate(0 -308.26772)">
   <path d="m57.6 742.2h948.8" stroke="#969696" stroke-width="1.875"/>
   <g stroke="#000" stroke-dasharray="3.75 7.5" stroke-miterlimit="2" stroke-width=".9375">
    <path d="m58.3 844.1h948.8"/>
    <path d="m58.3 641.8h948.8"/>
    <path d="m58.3 540.6h948.8"/>
   </g>
  </g>
  <g stroke-linejoin="round">
   <g stroke-width="5.625">
    <path d="m442.9 412.2c1.1.1 2.1.3 2.8.7.3.1.5.3.7.4 1.4 1.1 1.9 2.9 1.1 5.8-1.5 5.7-7.9 8.9-11 10.1-6.3 2.3-11-2.9-7.4-8.5 2.3-3.5 6.2-7.4 10.8-8.3.3-.1.6-.1.9-.2.4 0 .8-.1 1.2-.1.9 0 1.8.1 2.7.4" stroke="#000"/>
    <path d="m323.6 431.2c48.2-61.4 98.5-47.1 84.7.3" stroke="#000"/>
    <path d="m598.1 248.8c-12.1 5.2-120.1 140.1-120.1 140.1l-35.4 42.6" stroke="#00000c"/>
    <path d="m408.3 431.6s28.7.2 34.2 0" stroke="#000a00"/>
    <g stroke="#00000c">
     <path d="m516.1 431.3c-38.5-.5 43.4-142 85.3-186.3 4.7-5 11.2-10.7 18.9-11.9"/>
     <path d="m589.1 260.2-82.8 155.6"/>
     <path d="m569.6 291.4-53.8 98.9"/>
    </g>
   </g>
   <g stroke="#00000c">
    <path d="m511.7 429.3c-7.4-6.7-3-16.4 2.6-27.7" stroke-width="3.75"/>
    <path d="m547.5 316.3c-12.9 24.9-30.1 54.1-38.9 86.4" stroke-width="5.625"/>
   </g>
  </g>
  <g stroke="#000">
   <path d="m549 321.9-36.6 76.4" stroke-width="3.75"/>
   <g stroke-linejoin="round" stroke-width="5.625">
    <path d="m601.1 245c-19 21-43.7 49.4-62.8 87.6"/>
    <path d="m598.1 248.8c-5.6 6.3-36.4 63.6-36.4 63.6"/>
    <path d="m516.1 431.3c18.6 2 65.8-30.2 82.6-31 16-.6 21.6 31 32.6 30.7 7.2-.2 12.4-7.6 16.7-13"/>
   </g>
  </g>
 </g>
</svg>
