<svg height="210mm" viewBox="0 0 1052.4 744.1" width="297mm" xmlns="http://www.w3.org/2000/svg">
 <g fill="none" stroke-linecap="round">
  <g transform="translate(0 -308.26772)">
   <path d="m57.6 742.2h948.8" stroke="#969696" stroke-width="1.875"/>
   <g stroke="#000" stroke-dasharray="3.75 7.5" stroke-miterlimit="2" stroke-width=".9375">
    <path d="m58.3 844.1h948.8"/>
    <path d="m58.3 641.8h948.8"/>
    <path d="m58.3 540.6h948.8"/>
   </g>
  </g>
  <g stroke="#000">
   <g stroke-linejoin="round">
    <path d="m477.8 333.6c39.8-2.9 87-4.8 97.7-3.3 14.4 2 18.7 14.1 4.6 39.2l-35.3 62.5 55.3-54.8" stroke-width="5.625"/>
    <path d="m649.9 336.8-47.8 86.7" stroke-width="6.5625"/>
    <path d="m600 377.2 40.5-40.8-39 72.4c-8.4 15.5 5 26 21.5 22.2 10.1-2.1 46.3-23.3 76-41.9" stroke-width="5.625"/>
    <path d="m645.2 336.7-44.7 81.9" stroke-width="6.5625"/>
   </g>
   <path d="m607 417.3c-1.6 4.1-2.6 6.5.8 11.8" stroke-width="3.75"/>
   <g stroke-linejoin="round">
    <path d="m649.9 336.8-9.3-.4" stroke-width="6.5625"/>
    <g stroke-width="5.625">
     <path d="m318.6 357.2c4.7-5.1 8.5-9 10.2-10.4 23.7-19.2 60.9-14.6 37.5 14.4-27.4 33.8-45.5 50.2-39.4 63.9 4.2 9.5 22.6 6.5 36.5-3.7 6.5-4.7 11.8-9.8 17.1-14.8"/>
     <ellipse cx="234.39484" cy="559.74689" rx="62.130169" ry="44.633743" transform="matrix(.88109295 -.47294313 .47294313 .88109295 0 0)"/>
    </g>
   </g>
   <path d="m528 360.4c-13.8 27.9-38.1 52.4-66.8 70.7" stroke-width="5.385754"/>
   <path d="m529.1 369.4c-15.9 21.3-33.1 41.5-54 58.5" stroke-width="5.385754"/>
   <path d="m528.2 375.8c-14.3 21.6-19.7 29.6-41.7 46.5" stroke-width="7.181006"/>
   <path d="m476.8 419c-10.1 9.6-24.3 12.2-31.1 10.7" stroke-width="3.590503"/>
   <path d="m519.9 346.5c2.2 2.5 8.7 12.2 1.3 24.5" stroke-width="3.590503"/>
   <path d="m430.8 357-50.4 49.6" stroke-linejoin="round" stroke-width="5.625"/>
  </g>
 </g>
</svg>
