<svg height="210mm" viewBox="0 0 1311 744.1" width="370mm" xmlns="http://www.w3.org/2000/svg">
 <g fill="none" stroke-linecap="round">
  <g transform="translate(0 -308.26772)">
   <path d="m25.7 742.2h1263.8" stroke="#969696" stroke-width="1.875"/>
   <g stroke="#000" stroke-dasharray="3.75 7.5" stroke-miterlimit="2" stroke-width=".9375">
    <path d="m26.4 844.1h1263.9"/>
    <path d="m26.4 641.8h1263.9"/>
    <path d="m26.4 540.6h1263.9"/>
   </g>
  </g>
  <g stroke="#000">
   <g stroke-width="5.625">
    <path d="m715.8 431 60.6-108.1c26.4-48.6 52-72.9 91.2-88.5" stroke-linejoin="round"/>
    <path d="m715.8 431c4.5-2.5 468.5-195.3 471.5-196.4-20.6 36-41.4 71.9-62.1 107.8-24.8 39-59.7 78.8-86.9 88.3-4.1 1.2-7.2-3.7-2.8-7.2 6.5-5.2 82.1-39.7 104.7-42 22.1-2.5 30.4 17.7 24.1 49.9" stroke-linejoin="round"/>
    <path d="m1275 234.9-110.6 196.5"/>
    <path d="m837.7 249.5c-47.5 28.8-169.6 184.6-218 226.9"/>
   </g>
   <g stroke-linejoin="round">
    <path d="m48.3 431.3c40.7-36.2 149.4-136.4 159.9-146.7 19.5-19.3 41-44.4 32.9-49-8-4.5-40.3 8.9-87.4 86.8l-61.8 109.2" stroke-width="5.625"/>
    <path d="m41.8 398.5 33.9-16-27.4 48.9" stroke-width="5.625"/>
    <g stroke-width="4.30181">
     <path d="m159.1 394.5c.8-.5-19.8 37.9-19.8 37.9"/>
     <path d="m164.4 396.7-19.4 35.6"/>
     <path d="m148.5 432.2-9.1.2"/>
     <path d="m169.7 394.3-21.2 37.9"/>
     <path d="m169.7 394.3-10.8-.1"/>
     <path d="m163 395.2-19.4 35.6"/>
    </g>
    <g stroke-width="5.625">
     <path d="m159.1 394.9-67.2 36.7"/>
     <path d="m325.2 254.6-176.7 176.9"/>
     <path d="m249.5 433.6c29.5-7.4 59.9-3.6 70.4-1.6 22.6 4.3 45.2 15.1 38.5 47.4"/>
     <path d="m249.5 433.6c-3.3 1.4-6.6 3-9.9 4.9-3.1 1.7-6.2 3.6-9.2 5.6-37.6 25-72.4 72.2-66.2 86.6 5.8 13.4 71.7-24.7 98.3-136.6 20.6-91.8 56.8-148 92.1-159.8"/>
     <path d="m358.3 479.4 90.1-95.1-56.7 94.9 67.3-42.6"/>
     <path d="m615.3 479.4c5.8-2.9 8.1-6.5 7.6-11.6-1-8.1-6.6-9.2-13-9.2l-135 2.7c-5.8.1-12.7.1-15.9-.7-9.6-2.4-7.9-13.2 0-24"/>
    </g>
   </g>
  </g>
 </g>
</svg>
