<svg height="210mm" viewBox="0 0 1052.4 744.1" width="297mm" xmlns="http://www.w3.org/2000/svg">
 <g fill="none" stroke-linecap="round">
  <g transform="translate(0 -308.26772)">
   <path d="m57.6 742.2h948.8" stroke="#969696" stroke-width="1.875"/>
   <g stroke="#000" stroke-dasharray="3.75 7.5" stroke-miterlimit="2" stroke-width=".9375">
    <path d="m58.3 844.1h948.8"/>
    <path d="m58.3 641.8h948.8"/>
    <path d="m58.3 540.6h948.8"/>
   </g>
  </g>
  <path d="m440.7 424.9 63.2-65.8" stroke="#010000" stroke-linejoin="round" stroke-width="5.625"/>
  <g stroke="#000">
   <g stroke-linejoin="round">
    <g stroke-width="5.625">
     <path d="m488 419.7c21.6-11 118.3-82.9 144.9-84.8"/>
     <path d="m632.9 335c17.6-3.4 34.8 7.6 34.5 48.6-.2 33.3 15.8 47.8 30.1 47.7 13.5-.1 25.8-3.1 36.9-11.4"/>
     <path d="m637.3 334.3c12.3-1.3 35.4 13.9 35.2 45.8-.2 30.1 8.2 53 28.3 51.2"/>
     <path d="m637.3 334.3c17-.9 25 18 24.8 49.9-.2 30.1 13.3 47.8 38.7 47.1"/>
    </g>
    <path d="m488 419.7c-5.6 4.3-2.4 10.6 2.8 11.3 11 2.5 32.5-22.8 38.8-31.6 28.4-40.2 30.6-95.6-25.7-40.3" stroke-width="5.419139"/>
    <g stroke-width="5.625">
     <path d="m343.6 501.9c-1.4 10.2.3 19.7 3.1 23.1 1.8 2.2 18.5 21.4 41.4-6.5 13.4-14.5 61-103.7 61-103.7"/>
     <ellipse cx="89.097023" cy="585.05731" rx="25.728558" ry="20.371416" transform="matrix(.79083574 -.61202846 .61202846 .79083574 0 0)"/>
    </g>
   </g>
   <path d="m407.5 418.8c-.3-9.3.4-14.6 6.3-22 3.6-4.5 8.8-8.3 16-11.1" stroke-width="5.624961"/>
   <path d="m411.1 424.1c-2-6.9-1.8-6.4-.7-11.6 1.6-7.6 6.1-13.5 12.5-18.7 3.2-2.6 6.9-5 10.9-7.3" stroke-width="6.599955"/>
   <g stroke-width="2.849979">
    <path d="m428.2 392.2c5.3-3.7 10.3-5.8 16.3-3.5"/>
    <path d="m422.4 430c-7.4-1.6-9.5-5.3-10.9-12.1"/>
   </g>
  </g>
 </g>
</svg>
