<svg height="210mm" viewBox="0 0 1052.4 744.1" width="297mm" xmlns="http://www.w3.org/2000/svg">
 <g fill="none" stroke-linecap="round">
  <g transform="translate(0 -308.26772)">
   <path d="m57.6 742.2h948.8" stroke="#969696" stroke-width="1.875"/>
   <g stroke="#000" stroke-dasharray="3.75 7.5" stroke-miterlimit="2" stroke-width=".9375">
    <path d="m58.3 844.1h948.8"/>
    <path d="m58.3 641.8h948.8"/>
    <path d="m58.3 540.6h948.8"/>
   </g>
  </g>
  <g stroke="#000" stroke-linejoin="round" stroke-width="5.625">
   <path d="m461.1 430.2c6.3.1 12.4 1.4 22.7-6.2 10.7-7.8 28.2-37.2 32.5-44.8"/>
   <path d="m466 416.5c.9.1 1.6.3 2.2.6l.6.3c1.1.8 1.5 2.3.9 4.6-1.2 4.5-6.2 7-8.6 7.9-5 1.8-8.7-2.3-5.8-6.7 1.8-2.8 4.9-5.8 8.5-6.6.2 0 .5-.1.7-.1.3 0 .6-.1.9-.1.7 0 1.4.1 2.1.3"/>
   <path d="m516.2 379.3c14.4-23.3 25.7-43.3 47.7-43.5 15.5.8 21.6 8 4.7 42.5l-25.6 52.3"/>
   <path d="m543.1 430.5c.5.3 50.2-25.8 60.1-26.5 21.1-1.3 19.3 29.7 38.8 26.7 7.9-1.2 19.4-10.9 19.4-10.9"/>
   <path d="m661.4 419.8c10.6-9.1 96.5-79.6 99-80.7 69.4-29.8-29 197.1-85.7 193.7"/>
   <path d="m403.4 424.2 37.6-27.8-66.9 138.5"/>
   <path d="m295.9 431.9s44.6-32.4 61.8-29.2 16 46.2 45.6 21.5"/>
   <path d="m339.4 406.7c5.4-2.4 18.6-2.2 26.5 15 5.6 12.2 13.9 9.5 20.5 9.9"/>
   <path d="m354 404.8c6.7 5.9 6.3.5 21.2 23.1"/>
  </g>
 </g>
</svg>
