<svg height="210mm" viewBox="0 0 1052.4 744.1" width="297mm" xmlns="http://www.w3.org/2000/svg">
 <g fill="none" stroke-linecap="round" transform="translate(0 -308.26772)">
  <path d="m57.6 742.2h948.8" stroke="#969696" stroke-width="1.875"/>
  <g stroke="#000" stroke-dasharray="3.75 7.5" stroke-miterlimit="2" stroke-width=".9375">
   <path d="m58.3 844.1h948.8"/>
   <path d="m58.3 641.8h948.8"/>
   <path d="m58.3 540.6h948.8"/>
  </g>
 </g>
 <circle cx="550.06915" cy="364.45493" r="10.653955"/>
 <circle cx="534.68048" cy="413.47055" r="10.653955"/>
 <g fill="none" stroke="#000" stroke-linecap="round" stroke-linejoin="round">
  <g stroke-width="5.625">
   <path d="m190.7 431.1 81.5-46.3"/>
   <path d="m95.2 431.3c39-64.7 104.7-56.6 95.5-.1"/>
   <path d="m272.2 384.9 20.5 46.3"/>
   <path d="m292.6 431.2c25-11.8 63.9-31.5 81.6-32.4 16.8-.7 22.7 32.6 34.2 32.2 7.5-.2 13.1-6.2 18.3-10.8"/>
   <path d="m744.7 431.5 98.9-48.6 24 48"/>
   <path d="m867.7 430.9c13.5-14.6 30.4-32.3 48.9-33.3 17.6-.7 22 33.8 35.8 33.8 9 0 13.8-4.7 20.3-10.5"/>
  </g>
  <path d="m642.3 431c41.8-69.4 112.3-60.1 102.4.6" stroke-width="5.624999"/>
 </g>
</svg>
