<svg height="210mm" viewBox="0 0 1052.4 744.1" width="297mm" xmlns="http://www.w3.org/2000/svg">
 <g fill="none" stroke-linecap="round">
  <g transform="translate(0 -308.26772)">
   <path d="m57.6 742.2h948.8" stroke="#969696" stroke-width="1.875"/>
   <g stroke="#000" stroke-dasharray="3.75 7.5" stroke-miterlimit="2" stroke-width=".9375">
    <path d="m58.3 844.1h948.8"/>
    <path d="m58.3 641.8h948.8"/>
    <path d="m58.3 540.6h948.8"/>
   </g>
  </g>
  <g stroke="#000" stroke-linejoin="round" stroke-width="5.625">
   <path d="m504.8 431.6 39.5-33.2"/>
   <path d="m544.3 398.4c-1.2 23.7.5 31.3 13.4 33 12.2 1.5 40.8-1.3 40.8-1.3"/>
   <path d="m604.4 419.4c.7.1 1.2.2 1.7.4.2.1.3.2.4.3.8.6 1.1 1.7.7 3.5-.9 3.4-4.8 5.4-6.6 6.1-3.8 1.4-6.6-1.8-4.4-5.1 1.4-2.1 3.7-4.4 6.5-5 .2 0 .4-.1.6-.1h.7c.5 0 1.1.1 1.6.2"/>
   <path d="m582.8 419.8c.7.1 1.2.2 1.7.4.2.1.3.2.4.3.8.6 1.1 1.7.7 3.5-.9 3.4-4.8 5.4-6.6 6.1-3.8 1.4-6.6-1.8-4.4-5.1 1.4-2.1 3.7-4.4 6.5-5 .2 0 .4-.1.6-.1h.7c.5 0 1.1.1 1.6.2"/>
   <path d="m483.7 385.7 21.1 45.9"/>
  </g>
 </g>
</svg>
