<svg height="210mm" viewBox="0 0 1052.4 744.1" width="297mm" xmlns="http://www.w3.org/2000/svg">
 <g fill="none" stroke-linecap="round">
  <g transform="translate(0 -308.26772)">
   <path d="m57.6 742.2h948.8" stroke="#969696" stroke-width="1.875"/>
   <g stroke="#000" stroke-dasharray="3.75 7.5" stroke-miterlimit="2" stroke-width=".9375">
    <path d="m58.3 844.1h948.8"/>
    <path d="m58.3 641.8h948.8"/>
    <path d="m58.3 540.6h948.8"/>
   </g>
  </g>
  <g stroke="#000" stroke-linejoin="round">
   <path d="m386.5 431.2s13.7-33.2 37.5-26.3c20.4 5.9 24.4 45.7 48.5 15.6 9.5-11.8 28.4-35.8 36.9-46.2" stroke-width="5.625"/>
   <path d="m627.9 336.1c-38.3 28.4-143.2 99.3-118.9 96.1 3 .3 9.7-4.2 11-5 44.2-25.3 67.2-110.4 25.2-85.7-4.5 2.6-9.7 6.5-15.7 11.9-2.3 2.1-12.8 12.3-20 20.9" stroke-width="5.625"/>
   <g stroke-width="5.638243">
    <path d="m561.1 340.8c2.3 32.7-17.1 62.2-38.1 82.5"/>
    <path d="m563.7 343.1c5.2 34.8-19.9 69.4-45 83.3"/>
    <path d="m556.4 339.5c3.6 34.1-21.2 69-37.7 86.9"/>
   </g>
   <path d="m549 339.2c7.9-3.1 5.9 10.5 5.9 15.8" stroke-width="2.819121"/>
   <path d="m525.2 416.7c-5.5 6.9-8.3 10.7-14.3 14.1" stroke-width="2.819121"/>
   <path d="m473.4 490.1c-3.7 5.6-5.7 12.5-6.2 17.7-.7 7.4 1.5 13.5 3.8 16.3 2.8 3.4 5.2 9.1 19 9.1 7 0 16.4-6.5 22.9-15.7 22.1-26.8 76.8-120.8 115.1-181.2" stroke-width="5.625"/>
  </g>
 </g>
</svg>
