<svg height="210mm" viewBox="0 0 1052.4 744.1" width="297mm" xmlns="http://www.w3.org/2000/svg">
 <g fill="none" stroke-linecap="round">
  <g transform="translate(0 -308.26772)">
   <path d="m57.6 742.2h948.8" stroke="#969696" stroke-width="1.875"/>
   <g stroke="#000" stroke-dasharray="3.75 7.5" stroke-miterlimit="2" stroke-width=".9375">
    <path d="m58.3 844.1h948.8"/>
    <path d="m58.3 641.8h948.8"/>
    <path d="m58.3 540.6h948.8"/>
   </g>
  </g>
  <g stroke-linejoin="round">
   <path d="m280.8 383.4 18.9 47.6" stroke="#00000a" stroke-width="5.625"/>
   <g stroke="#000">
    <path d="m299.7 431c33.1-17.7 64.2-37.7 88.4-58.6 12.8-11.2 18.6-26.1 16.7-30.9-2.8-7.3-34.7-8.6-58.5 30.7-26.3 43.1-18.8 59.4-2.7 59.3 9.1-.2 24.6-4.3 34.3-11" stroke-width="5.625"/>
    <path d="m378 420.5c67.8-51.3 116.1-42 101.2 10.5l101.6-94.5" stroke-width="5.625"/>
    <path d="m469.9 392.8c7.1 5.9 8.1 27.1 3.2 37.8" stroke-width="6.5625"/>
    <path d="m457.4 386.5c16.4 3.3 16.8 35.2 10.1 45.2" stroke-width="4.6875"/>
   </g>
  </g>
  <g stroke-width="5.625">
   <path d="m468.1 431.7 9.8.1" stroke="#000"/>
   <g stroke-linejoin="round">
    <path d="m580.8 336.5-56.7 94.9" stroke="#0a0000"/>
    <path d="m806.5 337.1c-41.9 53.3-176.2 74.7-175.1-.3l-107.3 94.6" stroke="#000"/>
   </g>
  </g>
 </g>
</svg>
