<svg height="210mm" viewBox="0 0 1098.4 744.1" width="310mm" xmlns="http://www.w3.org/2000/svg">
 <g fill="none" stroke-linecap="round">
  <g transform="translate(0 -308.26772)">
   <path d="m8.7 742.2h1076.1" stroke="#969696" stroke-width="1.875"/>
   <g stroke="#000" stroke-dasharray="3.75 7.5" stroke-miterlimit="2" stroke-width=".9375">
    <path d="m9.4 844.1h1076.1"/>
    <path d="m9.4 641.8h1076.1"/>
    <path d="m9.4 540.6h1076.1"/>
   </g>
  </g>
  <g stroke-linejoin="round" stroke-width="5.625">
   <path d="m725.4 376.7 156.8-90.6 184.9-106.8" stroke="#000001"/>
   <g stroke="#000">
    <path d="m660.6 337-53.5 94.7"/>
    <path d="m588.4 335.8-53.4 94.7"/>
    <path d="m534.9 430.5 125.7-93.5"/>
    <path d="m607.1 431.7 78.4-91.9"/>
    <path d="m685.5 339.7c39-49.6 45.8-56.1 56.9-59.8 10.7-2.7 14.3.7 18.7 3.2 7.6 4.3 8 17.2-6 41.5l-29.8 52.1"/>
    <path d="m37.7 431.4c8.3.7 242.7-47.7 242.7-47.7l18.3 47.9"/>
    <path d="m64 334.7c54.3-11 95.5-79.5 89.2-96.2-5.5-14.4-40.2 8.9-87.4 86.8-47.5 82-47 109.4-28.1 106.1"/>
    <path d="m358.4 361.7c-14.7 16.6-46.5 54.8-59.8 69.9"/>
   </g>
   <path d="m459.7 388.5c-24.1 10.6-130.6 66.9-154.4 89.9-20.2 19.4-33.4 43.1-31.5 49.3.9 3 16.3 22.9 59.8-38.1 26.9-36.9 54.6-73.4 69.3-116.4 13.8-32 .4-59.4-44.4-11.6" stroke="#060000"/>
   <g stroke="#000">
    <path d="m457.9 533.4c28.5-22.6 35.5-32.3 39-56.6 1.8-12.5-2.6-28-12.8-37.6-5-4.7-11-8.4-17-11.7-8.5-4.8-11.8-5.8-17.2-11.5-6-6.3-5-21.2 9.8-27.5"/>
    <ellipse cx="104.11429" cy="726.59491" rx="25.728558" ry="20.371416" transform="matrix(.79083574 -.61202846 .61202846 .79083574 0 0)"/>
    <path d="m457.9 533.4c-23.8 6 48.2-36.9 63.2-42.5"/>
   </g>
  </g>
 </g>
</svg>
