<svg height="210mm" viewBox="0 0 1052.4 744.1" width="297mm" xmlns="http://www.w3.org/2000/svg">
 <g fill="none" stroke-linecap="round">
  <g transform="translate(0 -308.26772)">
   <path d="m57.6 742.2h948.8" stroke="#969696" stroke-width="1.875"/>
   <g stroke="#000" stroke-dasharray="3.75 7.5" stroke-miterlimit="2" stroke-width=".9375">
    <path d="m58.3 844.1h948.8"/>
    <path d="m58.3 641.8h948.8"/>
    <path d="m58.3 540.6h948.8"/>
   </g>
  </g>
  <g stroke="#000" stroke-linejoin="round" stroke-width="5.625">
   <path d="m259.8 486.8c-13.7 18.6-21.7 35.6-19.7 40.9 1.1 2.9 17.7 21.8 57.3-41.8l88-150.7"/>
   <path d="m259.8 486.8c6.6-9 168.2-177.1 209.7-199.5 8.2-4.4 14.8-7.7 18.8-9.1 24.7-7.1 39.8 1.2 12.9 46.2l-31.2 52.3"/>
   <path d="m470 376.7c19.1-14.7 59.4-39 83.5-40.1 24-.8 22.2 36 41.7 44.4 9.9 4.3 16.2 7.8 52.5-.7"/>
   <path d="m647.8 380.3c3.7-1.6 7.3-2.6 10.7-3 24.4-2.8 41.3 21.6 31.1 54.3-.4 1.2 74.9-43 74.9-43"/>
   <ellipse cx="360.28366" cy="795.06024" rx="25.728558" ry="20.371416" transform="matrix(.79083574 -.61202846 .61202846 .79083574 0 0)"/>
   <path d="m828 361.6-60.9 25.9"/>
  </g>
 </g>
</svg>
