<svg height="210mm" viewBox="0 0 1052.4 744.1" width="297mm" xmlns="http://www.w3.org/2000/svg">
 <g fill="none" stroke-linecap="round">
  <g transform="translate(0 -308.26772)">
   <path d="m57.6 742.2h948.8" stroke="#969696" stroke-width="1.875"/>
   <g stroke="#000" stroke-dasharray="3.75 7.5" stroke-miterlimit="2" stroke-width=".9375">
    <path d="m58.3 844.1h948.8"/>
    <path d="m58.3 641.8h948.8"/>
    <path d="m58.3 540.6h948.8"/>
   </g>
  </g>
  <g stroke="#000">
   <g stroke-width="5.625">
    <ellipse cx="194.79102" cy="667.67151" rx="25.728558" ry="20.371416" stroke-linejoin="round" transform="matrix(.79083574 -.61202846 .61202846 .79083574 0 0)"/>
    <path d="m617.9 431.9c-15.3 11.2-33.6 28-39.4 33.7-25.9 26.2-48.6 55.7-45.7 63.4 1.1 2.9 22.5 22.8 62-40.9l83.3-151.7-13.2.5-109.6 52.2" stroke-linejoin="round"/>
    <path d="m664.9 337-90.5 178.4"/>
    <path d="m672.1 339.9-83.7 157.4"/>
    <path d="m669.1 338.8-90.8 170.6"/>
   </g>
   <path d="m583.2 495.9c-6.5 14.2-13.9 23.4-21.7 30.4" stroke-width="3.75"/>
   <g stroke-width="5.625">
    <path d="m429.2 257.6c24.3-33 69.3-34.5 37.2 20l-90 153.8 20.3-14.8" stroke-linejoin="round"/>
    <path d="m396.7 416.7c13.8-11.3 20.7-16.8 28.6-22 21.7-13.4 27.9-13.6 34.3-1 6.5 12.7 5.3 17.1 12.3 27.2 20.1 29.1 43.1-26.4 34.5-34.3-9.6-8.9-31.9 5.2-51.8 41.3-32 58.8-14.2 61.2 10.3 47.3 3.2-1.8 6.4-3.9 9.7-6.1" stroke-linejoin="round"/>
    <path d="m545.9 396.8s-52.6 57.5-71.3 72.3"/>
   </g>
  </g>
 </g>
</svg>
