<svg height="210mm" viewBox="0 0 1052.4 744.1" width="297mm" xmlns="http://www.w3.org/2000/svg">
 <g fill="none" stroke-linecap="round">
  <g transform="translate(0 -308.26772)">
   <path d="m57.6 742.2h948.8" stroke="#969696" stroke-width="1.875"/>
   <g stroke="#000" stroke-dasharray="3.75 7.5" stroke-miterlimit="2" stroke-width=".9375">
    <path d="m58.3 844.1h948.8"/>
    <path d="m58.3 641.8h948.8"/>
    <path d="m58.3 540.6h948.8"/>
   </g>
  </g>
  <g stroke="#000" stroke-linejoin="round" stroke-width="5.625">
   <path d="m438.5 336.1c61.7-39.7 114.3-92.2 92.7-100.2-14.4-5.3-38.9 10.9-86.1 88.8-51.5 89-40.8 108.4-14.5 106.7 5.5-.5 12.4-3.2 20-7.7 6.8-4.1 39.5-25.8 50.2-33.8"/>
   <path d="m447.8 416.9c.6.1 1.1.2 1.6.4.1.1.3.2.4.2.8.6 1 1.6.6 3.2-.8 3.1-4.3 4.9-6 5.5-3.5 1.3-6-1.6-4.1-4.7 1.2-1.9 3.4-4.1 5.9-4.6.2 0 .3-.1.5-.1s.4-.1.6-.1c.5 0 1 .1 1.5.2"/>
   <path d="m500.8 389.9-52.4 96"/>
   <path d="m451.1 472c9.6-2.2 23.4-8.5 34-21.5"/>
   <path d="m485.1 450.5c6.4-5.4 116.1-178.5 116.1-178.5 6.5-10.1 14-19.8 22.1-27.4 10.9-10.3 23.7-10.1 29.2-9.8 17.2 1 8.9 25.9-3.6 41.2-24.5 34.4-88.7 123.7-75.6 146.3 10.1 18.2 32.5 5.7 52.7-13.1"/>
   <path d="m454 462c.6.1 1.1.2 1.6.4.1.1.3.2.4.2.8.6 1 1.6.6 3.2-.8 3.1-4.3 4.9-6 5.5-3.5 1.3-6-1.6-4.1-4.7 1.2-1.9 3.4-4.1 5.9-4.6.2 0 .3-.1.5-.1s.4-.1.6-.1c.5 0 1 .1 1.5.2"/>
  </g>
 </g>
</svg>
