<svg height="210mm" viewBox="0 0 1052.4 744.1" width="297mm" xmlns="http://www.w3.org/2000/svg">
 <g fill="none" stroke-linecap="round">
  <g transform="translate(0 -308.26772)">
   <path d="m57.6 742.2h948.8" stroke="#969696" stroke-width="1.875"/>
   <g stroke="#000" stroke-dasharray="3.75 7.5" stroke-miterlimit="2" stroke-width=".9375">
    <path d="m58.3 844.1h948.8"/>
    <path d="m58.3 641.8h948.8"/>
    <path d="m58.3 540.6h948.8"/>
   </g>
  </g>
  <path d="m416 330.4c9-1.2 39.3-38.2 63.4-44.7 28.7-7.5 48.7 9.2 37.4 45.3" stroke="#000" stroke-linejoin="round" stroke-width="5.625"/>
  <g stroke="#00000c">
   <g stroke-linejoin="round" stroke-width="5.625">
    <path d="m516.7 331 64.7-95.9 33.3 47.9"/>
    <path d="m581.4 235 24 48"/>
    <path d="m590.9 235 23.8 47.9"/>
    <path d="m587 234.9 24 48"/>
   </g>
   <g stroke-width="3.75">
    <path d="m581.8 234h9"/>
    <path d="m605.2 283.9h9"/>
   </g>
  </g>
  <g stroke="#000" stroke-width="5.625">
   <path d="m376.1 330.6h37.1"/>
   <path d="m421 319.9c.6.1 1.2.2 1.7.4.1.1.3.2.4.3.8.6 1.1 1.7.7 3.4-.9 3.3-4.7 5.3-6.5 5.9-3.7 1.3-6.5-1.7-4.3-5 1.3-2.1 3.6-4.3 6.3-4.9.2 0 .4-.1.6-.1h.7c.5 0 1.1.1 1.6.2" stroke-linejoin="round"/>
  </g>
 </g>
</svg>
