<svg height="210mm" viewBox="0 0 1052.4 744.1" width="297mm" xmlns="http://www.w3.org/2000/svg">
 <g fill="none" stroke-linecap="round">
  <g transform="translate(0 -308.26772)">
   <path d="m57.6 742.2h948.8" stroke="#969696" stroke-width="1.875"/>
   <g stroke="#000" stroke-dasharray="3.75 7.5" stroke-miterlimit="2" stroke-width=".9375">
    <path d="m58.3 844.1h948.8"/>
    <path d="m58.3 641.8h948.8"/>
    <path d="m58.3 540.6h948.8"/>
   </g>
  </g>
  <g stroke-linejoin="round" stroke-width="5.625">
   <path d="m259.6 384.1 20 47.9" stroke="#060000"/>
   <g stroke="#000">
    <path d="m449.5 431.7 99.3-95.1-51.1 94.9 94.8-95.5"/>
    <path d="m592.6 335.9 24.7 47.9 29-27.3"/>
    <path d="m646.3 356.5c16.4-15.6 23.6-20 37.5-21.5 29.6-2.3 16.2 49.3 43.4 44.2 11.2-2.1 16.1-6.9 23.7-16.1"/>
    <path d="m346.7 420.6c-1.8 1.1-26.6 17.8-28.5 19.1-32.5 22-71.6 74.4-63.5 89.5 4.9 9.2 23 5.6 42.9-26.4 8.5-13.7 22.4-32.4 25.3-59.8 7.3-69.4 41.1-122.1 68-104.4 7.9 5.2-6.8 27.5-27.1 39.4-8.5 4.9-66.5 44.6-84.1 53.9"/>
    <path d="m346.7 420.6c14.7-9 33.8-20.3 47.8-26.7"/>
    <path d="m394.5 393.9c41.5-16.7 65.8-1.7 55.1 37.8"/>
   </g>
  </g>
 </g>
</svg>
