<svg height="210mm" viewBox="0 0 1052.4 744.1" width="297mm" xmlns="http://www.w3.org/2000/svg">
 <g fill="none" stroke-linecap="round">
  <g transform="translate(0 -308.26772)">
   <path d="m57.6 742.2h948.8" stroke="#969696" stroke-width="1.875"/>
   <g stroke="#000" stroke-dasharray="3.75 7.5" stroke-miterlimit="2" stroke-width=".9375">
    <path d="m58.3 844.1h948.8"/>
    <path d="m58.3 641.8h948.8"/>
    <path d="m58.3 540.6h948.8"/>
   </g>
  </g>
  <g stroke="#000">
   <g stroke-linejoin="round" stroke-width="5.625">
    <ellipse cx="293.98706" cy="744.60962" rx="25.728558" ry="20.371416" transform="matrix(.79083574 -.61202846 .61202846 .79083574 0 0)"/>
    <path d="m719.9 330.1-51.9 71.2"/>
    <path d="m719.9 330.1c10.6-12.1 23.1-29.4 40-30.3 16-.6 21.6 31 32.6 30.7 7.2-.2 12.4-7.6 16.7-13"/>
    <path d="m387.8 409.8c14-11.2 32.2-26.1 32.2-26.1l33.3 47.9"/>
    <path d="m420.1 383.8 24 48"/>
    <path d="m429.6 383.8 23.8 47.9"/>
    <path d="m425.6 383.6 24 48"/>
   </g>
   <path d="m422.3 382.7h7.1" stroke-width="3.75"/>
   <path d="m445.8 432.6h7.1" stroke-width="3.75"/>
   <g stroke-width="5.625">
    <path d="m378.8 335.2c54.3-11 95.5-79.5 89.2-96.2-5.5-14.4-40.3 8.9-87.4 86.8-69.6 120.2-36 123.1 7.3 84" stroke-linejoin="round"/>
    <path d="m535 336.6-81.6 95"/>
    <g stroke-linejoin="round">
     <path d="m535 336.6-39 72.4c-7.6 14.1 2.7 24 17 22.9"/>
     <path d="m512.9 432c15.2 0 62.4-30.1 79.2-30.9 16-.6 14.5 31.3 32.6 30.7 17.6-.6 38.2-26.7 47.1-35.7"/>
    </g>
   </g>
  </g>
 </g>
</svg>
