<svg height="210mm" viewBox="0 0 1052.4 744.1" width="297mm" xmlns="http://www.w3.org/2000/svg">
 <g fill="none" stroke-linecap="round">
  <g transform="translate(0 -308.26772)">
   <path d="m57.6 742.2h948.8" stroke="#969696" stroke-width="1.875"/>
   <g stroke="#000" stroke-dasharray="3.75 7.5" stroke-miterlimit="2" stroke-width=".9375">
    <path d="m58.3 844.1h948.8"/>
    <path d="m58.3 641.8h948.8"/>
    <path d="m58.3 540.6h948.8"/>
   </g>
  </g>
  <g stroke="#000" stroke-linejoin="round">
   <path d="m628 256.1c-.8 5.4-.7 9.8-5.7 20l-93.8 134.9-.8 14.1" stroke-width="5.625"/>
   <path d="m625 266.4-67.9 98.8-28.6 41.8-2.2 10.7" stroke-width="8.4375"/>
   <path d="m541.8 393.5c-5.1 7.7-12.6 18.7-12.6 25.6-.2 9.7 1.9 12 9.4 11.5" stroke-width="3.75"/>
   <path d="m630.4 242.5c1 14.1 0 24.9-11.3 39.8" stroke-width="3.75"/>
   <g stroke-width="5.625">
    <path d="m432.6 385.6c26.6-2.9 36.1-8.4 42.7-15 13-13.2 17-25.7 15.1-30.6-2.8-7.4-29.3-8.1-53.6 32-11.7 22.6-22.5 60-1.6 59 26.8-.6 68.3-66.6 92.2-100.1 31.2-43.7 65.8-96.7 89.4-96.4 20.2.3 14.2 18.9-1.7 40.4-15 20.3-24.5 36.8-43.1 61.9-26.3 35.4-55 68-47.8 86.2 3.2 6.2 8.1 7.8 13.7 8.3 1.9.1 3.7.2 5.5.1"/>
    <path d="m543.4 431.5c15.9-1.1 69.6-31.5 87.2-32.4 16.8-.7 22.7 32.6 34.2 32.2 7.5-.2 13.1-6.2 18.3-10.8"/>
   </g>
  </g>
 </g>
</svg>
