<svg height="210mm" viewBox="0 0 1052.4 744.1" width="297mm" xmlns="http://www.w3.org/2000/svg">
 <g fill="none" stroke-linecap="round">
  <g transform="translate(0 -308.26772)">
   <path d="m57.6 742.2h948.8" stroke="#969696" stroke-width="1.875"/>
   <g stroke="#000" stroke-dasharray="3.75 7.5" stroke-miterlimit="2" stroke-width=".9375">
    <path d="m58.3 844.1h948.8"/>
    <path d="m58.3 641.8h948.8"/>
    <path d="m58.3 540.6h948.8"/>
   </g>
  </g>
  <g stroke="#000">
   <g stroke-width="5.624959">
    <g stroke-linejoin="round">
     <path d="m188 333.7c54.3-10.9 97.6-78.3 91.3-95-5.5-14.4-40.3 8.9-87.4 86.8-41.1 70.2-45.9 105.4-16.7 105.7 32.2.3 286-45.7 286-45.7"/>
     <path d="m461.1 385.4 22 46.2"/>
     <path d="m468.3 385.3 22.1 46.2"/>
    </g>
    <path d="m461.1 385.4 7.2-.2"/>
    <path d="m465.2 386.7 20.9 43.9" stroke-linejoin="round"/>
    <path d="m483.2 431.6 7.3-.2"/>
   </g>
   <g stroke-linejoin="round">
    <path d="m490.4 431.5c19.4-26.2 33.8-47 53.4-72.4 4.2-5.7 10.4-13.7 18.2-18.3 9.7-5.7 21.3-6.6 28.3 1.5 3.7 5.2 3.1 13.5-5.1 23.4-24.4 29.4-44.9 42.3-37.7 57.8 2.6 5.6 9 8 16.3 7.4" stroke-width="5.624999"/>
    <path d="m626.9 424.7a5.9 5.9 0 0 1 -5.9 5.9 5.9 5.9 0 0 1 -5.9-5.9 5.9 5.9 0 0 1 5.9-5.9 5.9 5.9 0 0 1 5.9 5.8h-5.9z" stroke-width="6.571438"/>
    <path d="m563.9 431c14.1.3 30.5-7.1 44.1-10.8 6.1-1.6 11.8-3.3 16.7-.6" stroke-width="5.624999"/>
    <path d="m617.5 420.8c49.9-31.4 241.2-146.9 306.7-185.9" stroke-width="5.625"/>
   </g>
  </g>
 </g>
</svg>
