<svg height="210mm" viewBox="0 0 1505.9 744.1" width="425mm" xmlns="http://www.w3.org/2000/svg">
 <g fill="none" stroke-linecap="round">
  <g transform="translate(0 -308.26772)">
   <path d="m14.4 548h1472" stroke="#969696" stroke-width="1.875"/>
   <g stroke="#000" stroke-dasharray="3.75 7.5" stroke-miterlimit="2" stroke-width=".9375">
    <path d="m15.2 650h1471.9"/>
    <path d="m15.2 447.6h1471.9"/>
    <path d="m15.2 346.4h1471.9"/>
   </g>
   <path d="m14.4 930.8h1472" stroke="#969696" stroke-width="1.875"/>
   <g stroke="#000" stroke-dasharray="3.75 7.5" stroke-miterlimit="2" stroke-width=".9375">
    <path d="m15.2 1032.7h1471.9"/>
    <path d="m15.2 830.3h1471.9"/>
    <path d="m15.2 729.1h1471.9"/>
   </g>
  </g>
  <g stroke="#000">
   <path d="m1093.8 525.5-37.3 64.5" stroke-width="5.625"/>
   <g stroke-linejoin="round">
    <path d="m505 609.3-15.3 25.8" stroke-width="5.625"/>
    <path d="m112.2 619.4c87.7-60.6 255.6-63.9 247.5.4" stroke-width="5.625"/>
    <path d="m273.4 576.1c45.5-.5 80.8 15.6 81.5 41.6" stroke-width="8.4375"/>
    <path d="m259.4 575.2c35.6 3.1 88.8 16.4 89.4 44.8" stroke-width="5.625"/>
   </g>
   <path d="m359.7 619.8-11 .1" stroke-width="5.625"/>
   <path d="m230.7 576.4c15-2.7 64.4 4.3 72 7.2" stroke-width="4.6875"/>
   <path d="m328.2 589.3c8.8 7.8 18.5 15.1 22.7 24.8" stroke-width="5.625"/>
   <g stroke-linejoin="round">
    <g stroke-width="5.625">
     <path d="m126 523.7c-39.4 9.7-46.7 24.2-56.8 40.7l-28.7 55"/>
     <path d="m531.3 619.6 66.1-94.6 24 46.3"/>
     <path d="m359.7 619.8s44.6-32.4 61.8-29.2 16 46.2 45.6 21.5"/>
     <path d="m652 619.4c87.7-60.6 255.6-63.9 247.5.4"/>
    </g>
    <path d="m813.2 576.1c45.5-.5 80.8 15.6 81.5 41.6" stroke-width="8.4375"/>
    <path d="m799.2 575.2c35.6 3.1 88.8 16.4 89.4 44.8" stroke-width="5.625"/>
   </g>
   <path d="m899.5 619.8-11 .1" stroke-width="5.625"/>
   <path d="m770.5 576.4c15-2.7 64.4 4.3 72 7.2" stroke-width="4.6875"/>
   <path d="m868 589.3c8.8 7.8 18.5 15.1 22.7 24.8" stroke-width="5.625"/>
   <g stroke-linejoin="round">
    <path d="m956.4 525.4-56.9 94.4" stroke-width="5.625"/>
    <path d="m1112.6 620.5c87.7-60.6 255.6-63.9 247.5.4" stroke-width="5.625"/>
    <path d="m1273.8 577.2c45.5-.5 80.8 15.6 81.5 41.6" stroke-width="8.4375"/>
    <path d="m1259.8 576.3c35.6 3.1 88.8 16.4 89.4 44.8" stroke-width="5.625"/>
   </g>
   <path d="m1360.1 620.9-11 .1" stroke-width="5.625"/>
   <path d="m1231.1 577.5c15-2.7 64.4 4.3 72 7.2" stroke-width="4.6875"/>
   <g stroke-width="5.625">
    <path d="m1328.6 590.4c8.8 7.8 18.5 15.1 22.7 24.8"/>
    <g stroke-linejoin="round">
     <path d="m1360.1 620.9s44.6-32.4 61.8-29.2 16 46.2 45.6 21.5"/>
     <ellipse cx="485.80188" cy="1131.4529" rx="25.728558" ry="20.371416" transform="matrix(.79083574 -.61202846 .61202846 .79083574 0 0)"/>
     <path d="m201.3 236.7c56.6-73.1 127.8-65.2 107.1.6"/>
     <path d="m162.5 204.1 33.9-16-27.4 48.9"/>
     <path d="m698.6 192.2c40 3 57.6-35.3 56.6-44.3-1.4-12.3-29.3-4.3-53.1 35-30.8 50.4-20.4 58.9-.6 51.6 7.3-2.7 22.1-10.9 30.4-16.5"/>
    </g>
   </g>
  </g>
  <g stroke-linejoin="round" stroke-width="5.625">
   <path d="m701.7 289.2c16.8-.5 33-21.3 35-47.2 2.1-26.8 46.7-54.9 36.3-48.7l-41.1 24.7" stroke="#060000"/>
   <g stroke="#000">
    <path d="m1231.8 186.1 22.8 50.6"/>
    <path d="m787.5 236.7c56.6-73.1 127.8-65.2 107.1.6"/>
    <path d="m1283 236.7c56.6-73.1 127.8-65.2 107.1.6"/>
    <path d="m522.7 226.8-15.3 25.8"/>
    <path d="m1013.5 226.8-15.3 25.8"/>
    <path d="m995.5 609.3-15.3 25.8"/>
   </g>
  </g>
 </g>
</svg>
