<svg height="210mm" viewBox="0 0 1052.4 744.1" width="297mm" xmlns="http://www.w3.org/2000/svg">
 <g fill="none" stroke-linecap="round">
  <g transform="translate(0 -308.26772)">
   <path d="m57.6 742.2h948.8" stroke="#969696" stroke-width="1.875"/>
   <g stroke="#000" stroke-dasharray="3.75 7.5" stroke-miterlimit="2" stroke-width=".9375">
    <path d="m58.3 844.1h948.8"/>
    <path d="m58.3 641.8h948.8"/>
    <path d="m58.3 540.6h948.8"/>
   </g>
  </g>
  <path d="m449.9 392.2s60.4-81.6 62.6-84.3c2.6-3.2 5-5.8 7.4-7.8 51.1-39.9 27.3 33.2-11.4 99-24.1 39.8-54.2 77.7-77.3 87.7-10.7 2.4-15.5-1.8-16.7-7.8" stroke="#000" stroke-linejoin="round" stroke-width="5.625"/>
  <path d="m431.2 337.4-42 78.2c-11.3 21.1 25.3 19.8 38.2 5.3 11.6-12.6 23.7-30.4 23.7-30.4" stroke="#1f001d" stroke-linejoin="round" stroke-width="5.625"/>
  <g stroke="#000">
   <g stroke-linejoin="round">
    <path d="m670.5 336.7c-18.3 14.6-125.9 103.8-154.1 132.7-29.7 36.7-31.6 52.4-26.4 61.8 2.9 5.3 34.7 12.4 62.3-63.3 15.8-47.4 16.5-113.3 70.8-131.6" stroke-width="5.625"/>
    <path d="m679.7 337.1-47.8 86.7" stroke-width="6.5625"/>
    <path d="m670.5 336.7-39 72.4c-8.4 15.5 5 26.1 21.5 22.2 10.1-2.1 46.3-23.3 76-41.9" stroke-width="5.625"/>
    <path d="m675.1 337.1-44.7 81.9" stroke-width="6.5625"/>
   </g>
   <path d="m636.9 417.7c-1.6 4.2-2.6 6.5.8 11.9" stroke-width="3.75"/>
   <g stroke-linejoin="round">
    <path d="m679.7 337.1-9.3-.4" stroke-width="6.5625"/>
    <path d="m414.4 478.9c.1-3.3 2.1-6.7 5.7-10.1 9.7-9.1 171.9-133.6 202.9-132.4" stroke-width="5.625"/>
   </g>
  </g>
 </g>
</svg>
