<svg height="210mm" viewBox="0 0 1052.4 744.1" width="297mm" xmlns="http://www.w3.org/2000/svg">
 <g fill="none" stroke-linecap="round">
  <g transform="translate(0 -308.26772)">
   <path d="m57.6 742.2h948.8" stroke="#969696" stroke-width="1.875"/>
   <g stroke="#000" stroke-dasharray="3.75 7.5" stroke-miterlimit="2" stroke-width=".9375">
    <path d="m58.3 844.1h948.8"/>
    <path d="m58.3 641.8h948.8"/>
    <path d="m58.3 540.6h948.8"/>
   </g>
  </g>
  <g stroke="#000" stroke-linejoin="round">
   <g stroke-width="5.625">
    <path d="m368.7 431.1c29.9-34.8 47-96.2 75.7-95.3 5.1.1 10.6 3.3 13.2 8.1 6.8 12.6 4 18.2 12.3 27.2 15.9 17.3 43.8-27.8 34.5-34.3-6.3-4.4-25.9 3.2-49.4 42-24.7 40.4-20.8 52.9-3.8 52.6 20.4 0 49.5-46 87.7-101.5 37.5-54.5 62-97.8 86.1-95.2 5 .5 8.7 2.3 11.3 4.7 2.9 2.7 4.4 6.3 4.7 10.6.3 4.5-.7 9.7-2.8 15.2-2 5.2-4.9 10.7-8.5 16.2l-65.3 106.2c-7.4 12.6-10.3 23.1-7.7 30.8 2.4 6.9 6.3 12.1 16.8 12.9 7.1.2 14-1.7 20.4-5.5 6.8-4 13.1-10.1 18.6-18"/>
    <path d="m432.6 339.1c13.6-8.1 17.5 7.1 21 18.8 3.2 10.5 8.7 18 23.9 17.1"/>
    <path d="m446.5 337.8c11.3 6.9 12.5 28.9 19.5 30.6"/>
    <path d="m639.5 256.1s-69.9 121.6-75.8 143.7"/>
    <path d="m638.4 261.2c-2.4 5.3-81.7 132.6-79.2 156.1"/>
   </g>
   <path d="m637.4 261.2-26.6 49.4" stroke-width="5.624999"/>
   <g stroke-width="3.75">
    <path d="m575.6 382.3c-3.9 8.3-22.7 37.2-9 46.2 2.1 1.4 7.2 2.3 12.9 1.4"/>
    <path d="m626.8 235.9c10.6 2.2 17.7 9.5 6.3 29.4"/>
    <path d="m637.6 268.9c-17.8 36.3-58.1 99.1-74.7 141.4"/>
    <path d="m627.5 275.2c-22.6 35.8-52.4 85.2-69.2 122.2"/>
   </g>
  </g>
 </g>
</svg>
