<svg height="210mm" viewBox="0 0 1052.4 744.1" width="297mm" xmlns="http://www.w3.org/2000/svg">
 <g fill="none" stroke-linecap="round">
  <g transform="translate(0 -308.26772)">
   <path d="m57.6 742.2h948.8" stroke="#969696" stroke-width="1.875"/>
   <g stroke="#000" stroke-dasharray="3.75 7.5" stroke-miterlimit="2" stroke-width=".9375">
    <path d="m58.3 844.1h948.8"/>
    <path d="m58.3 641.8h948.8"/>
    <path d="m58.3 540.6h948.8"/>
   </g>
  </g>
  <g stroke="#000">
   <g stroke-linejoin="round">
    <path d="m688.8 379.3s19.9-41.4 29.9-62.7c4.6-9.5 5.9-16.6 5.2-21.6-.6-4.3-2.8-7.2-5.7-8.9-1.9-1.1-4.2-1.8-6.6-2-3.5-.4-7.4.5-11.4 2.2-6.2 2.7-19.2 13.1-26.9 19.9-9.6 8.7-46.9 42.4-57.7 52.2-21.3 19.5-77.9 69.4-82 73-37.2 32.8-57.1 77.9-53.1 93.6 3.9 15.2 29.5 18.6 57.1-57.2 15.7-47.2 25.8-112.5 71.5-132.1" stroke-width="5.62496"/>
    <g stroke-width="5.625">
     <path d="m688.8 379.3c25-11.8 60.2-31.5 77.8-32.4 16.8-.7 22.7 32.6 34.2 32.2 7.5-.2 13.1-6.2 18.3-10.8"/>
     <path d="m358.2 489.7c-3.7 5.6-5.7 12.5-6.2 17.7-.7 7.4 1.5 13.5 3.7 16.3 1.6 2 3.9 4.9 8 6.9 3 1.4 7.5 2.3 11 2.2 4.1-.2 9.2-2 14-5.5 3.8-2.8 9-8.4 12.2-12.2 8.5-9.7 98.6-128.2 98.6-128.2"/>
    </g>
   </g>
   <path d="m499.5 386.7-76.3 146.6" stroke-width="5.625"/>
  </g>
 </g>
</svg>
