<svg height="210mm" viewBox="0 0 1052.4 744.1" width="297mm" xmlns="http://www.w3.org/2000/svg">
 <g fill="none" stroke-linecap="round">
  <g transform="translate(0 -308.26772)">
   <path d="m57.6 742.2h948.8" stroke="#969696" stroke-width="1.875"/>
   <g stroke="#000" stroke-dasharray="3.75 7.5" stroke-miterlimit="2" stroke-width=".9375">
    <path d="m58.3 844.1h948.8"/>
    <path d="m58.3 641.8h948.8"/>
    <path d="m58.3 540.6h948.8"/>
   </g>
  </g>
  <g stroke="#000" stroke-linejoin="round">
   <path d="m557.9 322.3c-9.9 6.5-24.6 8.4-34.7 4.9" stroke-width="5.624999"/>
   <ellipse cx="622.6344" cy="-149.64514" rx="4.609393" ry="6.862875" stroke-width="5.625" transform="matrix(.72846687 .68508103 -.68508103 .72846687 0 0)"/>
   <ellipse cx="598.64154" cy="-128.13954" rx="5.271423" ry="7.848564" stroke-width="14.034715" transform="matrix(.72846687 .68508103 -.68508103 .72846687 0 0)"/>
   <path d="m381.9 431.2c21.4-20.3 45.9-43.2 55.9-52.6 23.4-22 37.6-39.6 46-53.1 11.9-19.3 15.1-31.2 4.4-36.9-10.9-4.4-27.1 14.7-36.4 35.5-19.1 42.5-13.4 67.2.4 67.8 21.1.9 50.9-30.7 76.6-66.4" stroke-width="5.802585"/>
   <path d="m554.6 325.7c13.2 19.7 56.2-32.1 77.8-61.6 18.1-24.7 36.1-45.6 41.6-52.3 10.9-13.2 20.6-22.6 29.1-27.6 4.8-2.8 9.1-4.2 13.1-4.1 7.8.3 10.7 5.7 10.9 13.1.1 6.6-2 14.8-4.9 22.4-14.7 43-41.1 81.5-68 118.4-30.2 41-50.1 47.2-57.1 40.9-13.5-11.4 4.2-35.9 29.2-55.1 13.2-11.3 45.9-34.3 65.4-41.7" stroke-width="5.624999"/>
  </g>
 </g>
</svg>
