<svg height="210mm" viewBox="0 0 1052.4 744.1" width="297mm" xmlns="http://www.w3.org/2000/svg">
 <g fill="none" stroke-linecap="round">
  <g transform="translate(0 -308.26772)">
   <path d="m57.6 742.2h948.8" stroke="#969696" stroke-width="1.875"/>
   <g stroke="#000" stroke-dasharray="3.75 7.5" stroke-miterlimit="2" stroke-width=".9375">
    <path d="m58.3 844.1h948.8"/>
    <path d="m58.3 641.8h948.8"/>
    <path d="m58.3 540.6h948.8"/>
   </g>
  </g>
  <g stroke="#000">
   <g stroke-linejoin="round">
    <g stroke-width="5.625">
     <path d="m400.9 260.6-76.7 85.5"/>
     <path d="m414.2 368.8c-13.2 12.2-44.9 50.9-78.9 61.7-5 1.6-8.8 1.7-11.5.6-27.7-10.7 49.3-143.2 89.4-185.7 4.7-5 11.2-10.7 18.9-11.9"/>
     <path d="m400.9 260.6-82.8 155.6"/>
     <path d="m381.4 291.7-53.8 98.9"/>
    </g>
    <path d="m323.5 429.7c-7.4-6.7-3-16.4 2.6-27.7" stroke-width="3.75"/>
    <g stroke-width="5.625">
     <path d="m409.2 251-35.7 61.7"/>
     <path d="m363.5 313.9c-16.6 26.2-36.9 57.9-43 89.1"/>
    </g>
   </g>
   <path d="m360.9 322.2-36.6 76.4" stroke-width="3.75"/>
   <g stroke-linejoin="round" stroke-width="5.625">
    <path d="m324.2 346.1c-26.9 28.2-73.4 67.6-89.1 75.9-9.1 4.8-17.3 7.6-20.1 8.5-55 17.3 33.8-138.4 77.9-185.1 4.7-5 11.2-10.7 18.9-11.9"/>
    <path d="m414.2 368.8 30.3-32.7"/>
    <path d="m513.1 337.7 182.4-54.6"/>
   </g>
  </g>
  <g stroke-linejoin="round" stroke-width="5.625">
   <path d="m695.5 283.1 20.2 47.9" stroke="#060000"/>
   <path d="m799.4 203.2-83.7 127.8" stroke="#000005"/>
   <g stroke="#000">
    <path d="m475.1 375.9c-.9 3.4-3.6 6.4-6.8 8.8-8.7 6.7-21.1 4.9-26.5-2-5.3-6.9-2.8-15.4 5.9-22.1 0 0 8.4-4.9 9.5-5.6 12.1-5.8 42.3-13.6 55.8-17.4"/>
    <path d="m444.5 336.1 28.1 31.9s3.8 4.4 2.6 7.9"/>
    <path d="m799.4 203.2s26.4-38.9 29.2-42.6c9-12.3 17.4-24.1 33.1-24.6 12.2-.4 16.3 25.1 31.9 24.2 8.7-.5 14.1-5.1 21.4-14.5"/>
   </g>
  </g>
 </g>
</svg>
