<svg height="210mm" viewBox="0 0 1052.4 744.1" width="297mm" xmlns="http://www.w3.org/2000/svg">
 <g fill="none" stroke-linecap="round">
  <g transform="translate(0 -308.26772)">
   <path d="m57.6 742.2h948.8" stroke="#969696" stroke-width="1.875"/>
   <g stroke="#000" stroke-dasharray="3.75 7.5" stroke-miterlimit="2" stroke-width=".9375">
    <path d="m58.3 844.1h948.8"/>
    <path d="m58.3 641.8h948.8"/>
    <path d="m58.3 540.6h948.8"/>
   </g>
  </g>
  <g stroke="#000" stroke-linejoin="round" stroke-width="5.625">
   <path d="m352.8 257.5c24.3-33 69.3-34.5 37.2 20l-90 153.8 20.3-14.8"/>
   <path d="m320.3 416.6c13.8-11.3 20.7-16.8 28.6-22 21.7-13.4 27.9-13.6 34.3-1 6.5 12.7 5.3 17.1 12.3 27.2 20.1 29.1 43.1-26.4 34.5-34.3-9.6-8.9-31.9 5.2-51.8 41.3-32 58.8-14.2 61.2 10.3 47.3 3.2-1.8 6.4-3.9 9.7-6.1"/>
   <path d="m398.1 469c27.5-18 125-184.8 125-184.8l51.2 93.9"/>
   <path d="m708.9 254.5c-12.3 17.6-46.1 31.6-52.1 17.9s12.1-30 39.4-63.9c16.2-20 2-28.6-15.6-25.8-36.3 9.1-42.6 52.5-106.4 195.4"/>
  </g>
 </g>
</svg>
