<svg height="210mm" viewBox="0 0 1052.4 744.1" width="297mm" xmlns="http://www.w3.org/2000/svg">
 <g fill="none" stroke-linecap="round">
  <g stroke="#969696" transform="translate(0 -308.26772)">
   <path d="m57.6 742.2h948.8" stroke-width="1.875"/>
   <g stroke-dasharray="3.75 7.5" stroke-miterlimit="2" stroke-width=".9375">
    <path d="m58.3 844.1h948.8"/>
    <path d="m58.3 641.8h948.8"/>
    <path d="m58.3 540.6h948.8"/>
   </g>
  </g>
  <g stroke="#000">
   <g stroke-linejoin="round">
    <path d="m602.1 234.7s-63.8 121.1-81 154.4c-7.8 15.1-24.3 50.7-41.4 37.6" stroke-width="5.625"/>
    <path d="m602.1 234.7 20.5 46.3" stroke-width="5.625"/>
    <path d="m480.5 426.7c-10.1 2.2-103.1 4.5-119.8 4.6-16.3.1-92.6 4.8-108.4-18.6-34.4-35.5 47.7-159 100.8-181.1" stroke-width="5.624959"/>
    <ellipse cx="639.83984" cy="-24.091455" rx="4.609393" ry="6.862875" stroke-width="5.625" transform="matrix(.72846687 .68508103 -.68508103 .72846687 0 0)"/>
    <g stroke-width="6.562499">
     <path d="m726.3 186.3-47.5 81.9"/>
     <path d="m721.7 186.3-38.7 70.9-3.8 16.5"/>
     <path d="m726.3 186.3h-9.3"/>
    </g>
    <path d="m622.6 281.1 94.3-95.2-38.9 72.5c-7.2 13.4 1.8 23.1 15 23 1 0 1.9-.1 2.9-.2" stroke-width="5.624999"/>
   </g>
   <path d="m688.2 254.9c-6 9.6-9.9 25.1 3.6 25.5" stroke-width="3.749999"/>
   <path d="m695.9 281.2c50.3-9.8 71.4-94.1 103.2-96.2 17.6 0 25.4 36 44.3 35.8s28.7-15.2 27.6-23.9c-.6-8.7-9.2-12.4-22-12-24.1 4-36.3 31.6-43 42.6-19.7 34.1-12.7 51.8-1.5 53.1 13.4 1.4 28.3-7.8 42-21.1" stroke-linejoin="round" stroke-width="5.625"/>
  </g>
 </g>
</svg>
