<svg height="210mm" viewBox="0 0 1052.4 744.1" width="297mm" xmlns="http://www.w3.org/2000/svg">
 <g fill="none" stroke-linecap="round">
  <g transform="translate(0 -308.26772)">
   <path d="m57.6 742.2h948.8" stroke="#969696" stroke-width="1.875"/>
   <g stroke="#000" stroke-dasharray="3.75 7.5" stroke-miterlimit="2" stroke-width=".9375">
    <path d="m58.3 844.1h948.8"/>
    <path d="m58.3 641.8h948.8"/>
    <path d="m58.3 540.6h948.8"/>
   </g>
  </g>
  <g stroke="#000">
   <g stroke-linejoin="round">
    <path d="m552.2 430.9c72.2-10.8 86.4 9.6 75.7 48" stroke-width="5.625"/>
    <path d="m584.6 394.4c40.8-25.9 56.8-42.7 50.8-55.1-3.6-7.5-30.6-10.2-53.4 35.5l-29.9 56.2" stroke-width="5.625"/>
    <path d="m535.5 336.3-43.2 78.1-3.3 9.2" stroke-width="6.562501"/>
    <path d="m530.7 336.3-44.6 81.7" stroke-width="6.562501"/>
    <g stroke-width="5.625">
     <path d="m535.5 335.9h-9.3"/>
     <path d="m405.1 431.3c33.1-.7 47.6-23.6 121.1-95.4l-39 72.3c-8.4 15.5 5 26.1 21.5 22.2 10.1-2.1 46.3-17.4 76-36"/>
    </g>
   </g>
   <path d="m496.1 410.5c-4.3 7.3-5.9 18.8 4 19.7" stroke-width="3.75"/>
   <ellipse cx="99.704506" cy="566.59351" rx="28.499964" ry="23.779261" stroke-linejoin="round" stroke-width="5.625" transform="matrix(.81758868 -.5758027 .5758027 .81758868 0 0)"/>
  </g>
 </g>
</svg>
