<svg height="210mm" viewBox="0 0 1052.4 744.1" width="297mm" xmlns="http://www.w3.org/2000/svg">
 <g fill="none" stroke-linecap="round">
  <g transform="translate(0 -308.26772)">
   <path d="m57.6 742.2h948.8" stroke="#969696" stroke-width="1.875"/>
   <g stroke="#000" stroke-dasharray="3.75 7.5" stroke-miterlimit="2" stroke-width=".9375">
    <path d="m58.3 844.1h948.8"/>
    <path d="m58.3 641.8h948.8"/>
    <path d="m58.3 540.6h948.8"/>
   </g>
  </g>
  <g stroke-linejoin="round" stroke-width="5.625">
   <path d="m379.3 434.6c-53.2 7.3-100.2 80.3-96.4 92.6.9 3 16.3 22.9 59.8-38.1 26.9-36.9 54.6-73.4 69.3-116.4 15.5-30.1-1.4-56.7-44.4-11.6" stroke="#000"/>
   <path d="m379.3 434.6c.1-1.7 6.8-6 6.7-9.5-.1-5-.2-8.8-1.4-9.8-1.3-1.2-3.1-1.4-4-.7-2.4 1.8-2.1 3-1.9 4.9.4 3.5 2.1 2.2 5.4 1.5 4.1-2.1 4.1-4.2 7.1-4.8" stroke="#000"/>
   <path d="m391.2 416.3 241.6-80.2" stroke="#000001"/>
   <path d="m669.8 335.8c-22.2 18.2-49.5 40.5-37 .4" stroke="#000"/>
  </g>
 </g>
</svg>
