<svg height="210mm" viewBox="0 0 1052.4 744.1" width="297mm" xmlns="http://www.w3.org/2000/svg">
 <g fill="none" stroke-linecap="round">
  <g transform="translate(0 -308.26772)">
   <path d="m57.6 742.2h948.8" stroke="#969696" stroke-width="1.875"/>
   <g stroke="#000" stroke-dasharray="3.75 7.5" stroke-miterlimit="2" stroke-width=".9375">
    <path d="m58.3 844.1h948.8"/>
    <path d="m58.3 641.8h948.8"/>
    <path d="m58.3 540.6h948.8"/>
   </g>
  </g>
  <g stroke-linejoin="round" stroke-width="5.625">
   <path d="m518.9 288.4c-.7.6-118.6 120.6-131.1 127.6-6.6 3.7-15.6 7.7-21.9 8.8-39.2 6.9-144.5 5.6-152 3.7-50.4-12.7 27.4-129.7 71.1-175.9 4.7-4.9 15.9-14.6 23-17.4" stroke="#000"/>
   <path d="m383.8 418c-11.9 5.9-13.1 4.1-16.6-.3-.3-1.1-.8-5.3 1.9-7.4 3.8-2.9 7.2-2.1 10-.7 3.5 2.1 6.5 8 2.4 9.7-1.5.6-9.9 4.3-14.3 5.4" stroke="#000"/>
   <path d="m491 373c-8.3 3.6-23.5 11.2-38.9 19.8-16.9 9.5-33.9 20.2-41.6 27.9-25.9 26.2-39.9 52.6-36.9 60.3 1.1 2.9 17.7 21.8 57.3-41.8l88-150.7" stroke="#060000"/>
   <path d="m491 373 168.5-88.5" stroke="#000001"/>
  </g>
  <g stroke="#000">
   <g stroke-width="5.625">
    <path d="m679.6 342c8.8-10.8 33.2-43.1 50.7-55.3 22.2-10.3 46.2-3.3 26.2 21.4-27.4 33.8-45.5 50.2-39.4 63.9 4.2 9.6 23.6 9.8 36.4-2.8 2-1.9 6.7-6.7 9.8-10.4 4-4 9.2-12.3 9.2-12.3" stroke-linejoin="round"/>
    <path d="m757.4 285.2c14.5 10.1 4.3 27.8-12.4 44.2-14.4 14-23.4 26.4-29.5 38.7"/>
    <path d="m757.4 285.2c.8-1.1 3.9 6.1.7 14.2-3.2 8.4-12.8 17.8-18.3 22.9-10.8 10.1-30.6 29-24.3 45.7"/>
   </g>
   <g stroke-width="2.8125">
    <path d="m748.9 283.5c11.3 1.3 8.8 6.5 9.1 11"/>
    <path d="m720.6 360.8c-2.7 4.9-3.8 12 2.3 14.5"/>
    <path d="m712.9 362.2c-.1 5.7 2.9 11.5 4.9 13.1"/>
   </g>
   <g stroke-width="5.625">
    <path d="m867.3 182.5-94.9 163.9"/>
    <g stroke-linejoin="round">
     <path d="m659.5 284.5-42.4 73.1c-11.9 20.5 8.4 28.4 31.3 14.4 13.8-9.8 31.2-30 31.2-30"/>
     <path d="m915.9 184.4c-35.9 22.6-66.9 56.8-48.6-1.9"/>
    </g>
   </g>
  </g>
 </g>
</svg>
