<svg height="210mm" viewBox="0 0 1052.4 744.1" width="297mm" xmlns="http://www.w3.org/2000/svg">
 <g fill="none" stroke-linecap="round">
  <g transform="translate(0 -308.26772)">
   <path d="m57.6 742.2h948.8" stroke="#969696" stroke-width="1.875"/>
   <g stroke="#000" stroke-dasharray="3.75 7.5" stroke-miterlimit="2" stroke-width=".9375">
    <path d="m58.3 844.1h948.8"/>
    <path d="m58.3 641.8h948.8"/>
    <path d="m58.3 540.6h948.8"/>
   </g>
  </g>
  <g stroke="#000" stroke-linejoin="round">
   <g stroke-width="5.625">
    <path d="m638.8 431.5c9-.8 13.9-7 18-12.3 7.3-10 18-22.9 29.2-28.3 8.6-4.1 17.2-5.1 24.7-4.3s14 3.8 18.9 8.9c7.4 7.6 11.1 20 8.4 36.3"/>
    <path d="m523.7 433.2c9.9-4.3 18.2-8.6 34.9-15.8 18.7-8.2 40.8-16.5 50-14.8 13.5 2.5 15.4 29.1 30.2 28.9"/>
    <path d="m587.5 406.2c13.3-4.5 20.4-2.4 29.3 15.5 6 12 14.1 9.8 22 9.8"/>
    <path d="m604.9 404.7c6.7 5.9 6.3.5 21.2 23.1"/>
    <path d="m347.8 336.6c-43.9 12.6-80.5 92.7-51.2 94.8 2.3.2 5-.2 8.2-1.1 13.1-4.3 28.9-12.7 55.2-45.4"/>
    <path d="m396.3 342.1c9.6-6.8 18 4.1 21.6 15.8 3.2 10.5 8.7 18 23.9 17.1"/>
    <path d="m408.2 338.3c13.6.7 15.1 28.3 22.1 30"/>
   </g>
   <path d="m523.6 433c-50 22.1-94.3 83-75.4 98.3 16.2 11.2 39.6-31 47.3-44.2 40.3-74.6 83.9-180.3 99.6-220.8 4.1-12 7.3-30.3-8.2-31.6-38.3-3.1-64.7 88.4-144.2 178.7-10.6 12-24.3 18.7-34.7 17.9-11.8-.8-13.7-12 11.1-52.6 23.5-38.8 43.1-46.4 49.4-42 9.3 6.5-18.6 51.6-34.5 34.3-8.3-9-5.8-14.5-12.3-27.2-6.5-12.6-16.4-12.2-33.4 5.7-1.8 1.9-3.8 4.1-5.8 6.4-2.5 2.9-5 6.1-7.7 9.6-.7 1-7 9.1-14.9 19.4" stroke-width="5.388435"/>
  </g>
 </g>
</svg>
