<svg height="210mm" viewBox="0 0 1052.4 744.1" width="297mm" xmlns="http://www.w3.org/2000/svg">
 <g fill="none" stroke-linecap="round">
  <g transform="translate(0 -308.26772)">
   <path d="m57.6 742.2h948.8" stroke="#969696" stroke-width="1.875"/>
   <g stroke="#000" stroke-dasharray="3.75 7.5" stroke-miterlimit="2" stroke-width=".9375">
    <path d="m58.3 844.1h948.8"/>
    <path d="m58.3 641.8h948.8"/>
    <path d="m58.3 540.6h948.8"/>
   </g>
  </g>
  <g stroke="#000">
   <path d="m392.5 431.3c3.3.4 8.2-3.6 9.6-4.4 48-27.8 71.8-130.3 9.4-74.8-2.3 2.1-17.4 18.4-20 20.9" stroke-linejoin="round" stroke-width="5.419139"/>
   <path d="m619.7 234.6c-43.1 81-67.6 114.7-86.8 142.9-19.3 28.3-41.4 55.6-61.4 53.7-30.3-4.9 14.8-89.4 22.4-107.8 47.2-78.7 72.9-92.7 87.4-87.7 17 5.9-22.5 50-40.1 67.4-14.3 14.4-160.1 130.2-148.7 128.2" stroke-width="5.625"/>
  </g>
 </g>
</svg>
