<svg height="210mm" viewBox="0 0 1052.4 744.1" width="297mm" xmlns="http://www.w3.org/2000/svg">
 <g fill="none" stroke-linecap="round" transform="translate(0 -308.26772)">
  <path d="m57.6 742.2h948.8" stroke="#969696" stroke-width="1.875"/>
  <g stroke="#000" stroke-dasharray="3.75 7.5" stroke-miterlimit="2" stroke-width=".9375">
   <path d="m58.3 844.1h948.8"/>
   <path d="m58.3 641.8h948.8"/>
   <path d="m58.3 540.6h948.8"/>
  </g>
 </g>
 <g fill="none" stroke="#000" stroke-linecap="round" stroke-linejoin="round">
  <g stroke-width="5.625">
   <path d="m116.9 431c22.5-8.9 52.2-48.9 60.4-86.1s38.8-97.2 73.8-110.6"/>
   <path d="m211.7 431.2 87.1-47.4"/>
   <path d="m298.9 383.8 19.1 48.4"/>
  </g>
  <g stroke-width="5.624999">
   <path d="m258.3 335.8-46.6 95.4"/>
   <path d="m258.3 335.8s-137.8 82.1-144.8 92.1c-1.2 1.8 1.2 4.1 3.4 3.1"/>
  </g>
 </g>
 <circle cx="451.80197" cy="362.80096" r="10.653956"/>
 <circle cx="436.41232" cy="411.81659" r="10.653956"/>
 <g fill="none" stroke="#000" stroke-linecap="round" stroke-linejoin="round">
  <path d="m636.1 334.2c54.3-11 92.1-78.3 85.7-95-5.5-14.4-42.7 11.2-81.8 86.8-30.4 59.5-42.8 107.3-22.4 106.4 15.9-.7 44.7-29.7 104.4-96.4" stroke-width="5.624999"/>
  <path d="m722.1 335.9-48.1 96.1" stroke-width="5.624998"/>
  <g stroke-width="5.624999">
   <path d="m674 432 94.7-44.8"/>
   <path d="m768.8 387.2 21.3 44.2"/>
  </g>
 </g>
</svg>
