<svg height="210mm" viewBox="0 0 1052.4 744.1" width="297mm" xmlns="http://www.w3.org/2000/svg">
 <g fill="none" stroke-linecap="round">
  <g transform="translate(0 -308.26772)">
   <path d="m57.6 742.2h948.8" stroke="#969696" stroke-width="1.875"/>
   <g stroke="#000" stroke-dasharray="3.75 7.5" stroke-miterlimit="2" stroke-width=".9375">
    <path d="m58.3 844.1h948.8"/>
    <path d="m58.3 641.8h948.8"/>
    <path d="m58.3 540.6h948.8"/>
   </g>
  </g>
  <g stroke-linejoin="round">
   <path d="m279.1 431.6s309.3-41.1 349.2-49.5" stroke="#000001" stroke-width="5.625"/>
   <g stroke="#000">
    <path d="m628.3 382.1c54.3-11 97.7-78.3 91.4-95-3.4-8.9-18.1-3.3-40.1 20.9-13.4 14.8-29.4 36.3-47.2 65.8-20.2 34.9-30.2 57.7-34 74.2-3.7 18.3.1 29.3 20.3 31.2 8 .7 22.5-1.3 32.9-5.5" stroke-width="5.625001"/>
    <ellipse cx="795.16675" cy="-105.26431" rx="4.609393" ry="6.862875" stroke-width="5.625" transform="matrix(.72846687 .68508103 -.68508103 .72846687 0 0)"/>
    <path d="m325.6 336.2-46.5 95.4" stroke-width="5.624999"/>
   </g>
  </g>
 </g>
</svg>
