<svg height="210mm" viewBox="0 0 1052.4 744.1" width="297mm" xmlns="http://www.w3.org/2000/svg">
 <g fill="none" stroke-linecap="round" transform="translate(0 -308.26772)">
  <path d="m57.6 742.2h948.8" stroke="#969696" stroke-width="1.875"/>
  <g stroke="#000" stroke-dasharray="3.75 7.5" stroke-miterlimit="2" stroke-width=".9375">
   <path d="m58.3 844.1h948.8"/>
   <path d="m58.3 641.8h948.8"/>
   <path d="m58.3 540.6h948.8"/>
  </g>
 </g>
 <g fill="none" stroke="#000" stroke-linecap="round" stroke-linejoin="round" stroke-width="5.625">
  <ellipse cx="330.1163" cy="709.16718" rx="25.728558" ry="20.371416" transform="matrix(.79083574 -.61202846 .61202846 .79083574 0 0)"/>
  <ellipse cx="456.63486" cy="614.63019" rx="25.728558" ry="20.371416" transform="matrix(.79083574 -.61202846 .61202846 .79083574 0 0)"/>
  <path d="m756.7 215.3-130.1 215.7"/>
 </g>
 <path d="m333.8 325.3a8 8 0 0 1 -7.9 8 8 8 0 0 1 -8-7.9 8 8 0 0 1 7.9-8 8 8 0 0 1 8 7.9"/>
 <circle cx="489.83768" cy="356.97507" r="10.653955"/>
 <circle cx="474.44803" cy="405.99069" r="10.653955"/>
</svg>
