<svg height="210mm" viewBox="0 0 1052.4 744.1" width="297mm" xmlns="http://www.w3.org/2000/svg">
 <g fill="none" stroke-linecap="round">
  <g transform="translate(0 -308.26772)">
   <path d="m57.6 742.2h948.8" stroke="#969696" stroke-width="1.875"/>
   <g stroke="#000" stroke-dasharray="3.75 7.5" stroke-miterlimit="2" stroke-width=".9375">
    <path d="m58.3 844.1h948.8"/>
    <path d="m58.3 641.8h948.8"/>
    <path d="m58.3 540.6h948.8"/>
   </g>
  </g>
  <g stroke-linejoin="round" stroke-width="5.625">
   <path d="m204.1 383.3 18.9 47.6" stroke="#00000a"/>
   <path d="m223.1 430.9c33.1-17.7 64.2-37.7 88.4-58.6 12.8-11.2 18.6-26.1 16.7-30.9-2.8-7.3-34.7-8.6-58.5 30.7-26.3 43.1-18.8 59.4-2.7 59.3 11.4-1.2 32.8-9.9 42-15.9" stroke="#000"/>
   <path d="m309.1 415.4c14.1-8.6 32.4-15.4 42-13.6 17.2 3.2 16 46.2 45.6 21.5" stroke="#000"/>
  </g>
 </g>
 <circle cx="530.01575" cy="366.01526" r="10.653955"/>
 <circle cx="514.62708" cy="415.03088" r="10.653955"/>
 <g fill="none" stroke="#000" stroke-linecap="round" stroke-linejoin="round" stroke-width="5.625">
  <path d="m659.7 383.4 18.9 47.6"/>
  <path d="m678.6 431c33.1-17.7 64.2-37.7 88.4-58.6 12.8-11.2 18.6-26.1 16.7-30.9-2.8-7.3-34.7-8.6-58.5 30.7-26.3 43.1-18.8 59.4-2.7 59.3 11.4-1.2 15-6 22.4-12.5"/>
  <path d="m745 418.9c9.7-9.6 17-14.6 26.6-12.8 17.2 3.2 12.5 41.9 42.1 17.3"/>
  <path d="m813.7 423.4 59.5-38.3 20.7 46.3"/>
 </g>
</svg>
