<svg height="210mm" viewBox="0 0 1052.4 744.1" width="297mm" xmlns="http://www.w3.org/2000/svg">
 <g fill="none" stroke-linecap="round">
  <g transform="translate(0 -308.26772)">
   <path d="m57.6 742.2h948.8" stroke="#969696" stroke-width="1.875"/>
   <g stroke="#000" stroke-dasharray="3.75 7.5" stroke-miterlimit="2" stroke-width=".9375">
    <path d="m58.3 844.1h948.8"/>
    <path d="m58.3 641.8h948.8"/>
    <path d="m58.3 540.6h948.8"/>
   </g>
  </g>
  <g stroke="#000">
   <g stroke-linejoin="round">
    <path d="m470.9 431.5c5.3-8.1 19.3-23.4 32.3-23.8 18.3-.5 16.4 23.7 34.6 23.7 19.3 0 31.6-22 40.1-36.3 2.4-4 4.9-8.5 7.7-13.2 8.3-14.1 18.1-24.6 28-32 11.7-8.8 23.8-13.2 34.4-13.5 21.9-.7 37.9 15.6 33 45.4" stroke-width="5.625"/>
    <path d="m775.6 185.6-94.5 196.1" stroke-width="5.624999"/>
    <path d="m402.8 336.1-43.2 78.1-3.3 9.2" stroke-width="6.562499"/>
    <path d="m398 336.1-44.6 81.7" stroke-width="6.562499"/>
    <g stroke-width="5.625">
     <path d="m402.8 335.6h-9.3"/>
     <path d="m307.3 431.1 86.3-95.5-39 72.3c-8.4 15.5 5 26.1 21.5 22.2 10.1-2.1 46.3-23.3 76-41.9"/>
    </g>
   </g>
   <path d="m363.5 410.3c-4.3 7.3-5.9 18.8 4 19.7" stroke-width="3.749999"/>
   <path d="m452 388.2-66.8 145.1" stroke-width="5.625"/>
  </g>
 </g>
</svg>
