<svg height="210mm" viewBox="0 0 1052.4 744.1" width="297mm" xmlns="http://www.w3.org/2000/svg">
 <g fill="none" stroke-linecap="round">
  <g transform="translate(0 -308.26772)">
   <path d="m57.6 742.2h948.8" stroke="#969696" stroke-width="1.875"/>
   <g stroke="#000" stroke-dasharray="3.75 7.5" stroke-miterlimit="2" stroke-width=".9375">
    <path d="m58.3 844.1h948.8"/>
    <path d="m58.3 641.8h948.8"/>
    <path d="m58.3 540.6h948.8"/>
   </g>
  </g>
  <g stroke="#000" stroke-linejoin="round">
   <path d="m634.2 336 24 48" stroke-width="5.625"/>
   <path d="m579.5 288.6c-13.7 23-33.6 61.1-38.8 72-6.8 14.3 2.4 23.8 16.6 22.9 21.1-.2 64.7-38 77-47.6" stroke-width="5.625"/>
   <path d="m658.2 383.9 53.7-48" stroke-width="5.624999"/>
   <path d="m579.5 288.6s-50.4 64-57.6 70.4c-6 6-10.6 10.1-17.1 14.8-4.4 3.2-9.2 5.7-13.9 7.3-3.7 1.3-6.2 2-10.6 2.1-3.5 0-6.3.1-9-.9-3.3-1.2-5.9-3.4-7.3-6.5-7.2-15.5 13.3-29.1 37.7-58.6 8.2-9.9 8.8-18.2 5.1-23.4-1.5-2.2-3.8-3.8-6.6-4.7-2.6-.9-5.7-1.2-9-.9-14.1 1-30.3 17.6-46.5 32.9-13.9 13.8-107.4 100.7-110.4 105.8-1.7 2.9-.4 5 2.2 4.2" stroke-width="5.624999"/>
   <path d="m336.5 431.4c43.9-15.9 71.5-94.7 46.6-94.9-7.2-.1-18.9 6.5-35.8 23.2" stroke-width="5.419139"/>
  </g>
 </g>
</svg>
