<svg height="210mm" viewBox="0 0 1052.4 744.1" width="297mm" xmlns="http://www.w3.org/2000/svg">
 <g fill="none" stroke-linecap="round">
  <g transform="translate(0 -308.26772)">
   <path d="m57.6 742.2h948.8" stroke="#969696" stroke-width="1.875"/>
   <g stroke="#000" stroke-dasharray="3.75 7.5" stroke-miterlimit="2" stroke-width=".9375">
    <path d="m58.3 844.1h948.8"/>
    <path d="m58.3 641.8h948.8"/>
    <path d="m58.3 540.6h948.8"/>
   </g>
  </g>
  <g stroke="#000">
   <path d="m425.9 346.7a19.2 25.1 41.6 0 1 -14.3 31.3 19.2 25.1 41.6 0 1 -27.6-6.8 19.2 25.1 41.6 0 1 14.3-31.3 19.2 25.1 41.6 0 1 27.6 6.8z" stroke-linejoin="round" stroke-width="5.625"/>
   <ellipse cx="542.52252" cy="-64.93222" rx="4.609393" ry="6.862875" stroke-linejoin="round" stroke-width="5.625" transform="matrix(.72846687 .68508103 -.68508103 .72846687 0 0)"/>
   <path d="m560.9 237.5c.8-1.1 3.5 6.2.4 14.1-3.2 8.2-12.5 19.1-17.8 24.2-10.5 9.9-29.8 30.2-23.7 46.5" stroke-width="5.472634"/>
   <path d="m550.3 236.2c13.9-1.2 11 7.7 10.3 13.7" stroke-width="2.736317"/>
   <path d="m438.4 330.2c4.2.6 14-10.4 18.7-15.1 14.5-14.3 26.5-26.8 43.4-45.3 7.7-8.4 13.6-16 26.2-25.7 7.1-5.5 14.9-9.1 23.8-9.2 14.3-.3 24.4 8.5 10.2 26.1-27.1 33.5-45.1 49.8-39.1 63.3 1.9 4.3 6.9 6.3 12.9 6.2 7.4-.1 16.9-5.1 24.5-11.3" stroke-linejoin="round" stroke-width="5.569707"/>
   <path d="m560.7 236.5c15.4 6.8 4.1 30.2-12.2 46.1-14 13.6-22.7 27.7-28.7 39.7" stroke-width="5.472634"/>
   <path d="m527.1 311.7c-3.4 4.9-7.1 14.7 2.5 16.9" stroke-width="2.736317"/>
   <path d="m517.3 316.4c-.1 5.5 3.9 14.3 10.9 14.6" stroke-width="2.736317"/>
   <g stroke-linejoin="round">
    <path d="m387.8 349.5-49.4 81.7" stroke-width="5.625"/>
    <path d="m438.4 330.2c-9 .9-26.3 4.1-34 7" stroke-width="5.625"/>
    <g stroke-width="6.5625">
     <path d="m656.4 235.6-47.5 81.9"/>
     <path d="m651.8 235.6-38.7 70.9-3.8 16.5"/>
     <path d="m656.4 235.6h-9.3"/>
    </g>
    <path d="m559 319.2c23-18.5 88-83.9 88-83.9l-38.9 72.5c-7.2 13.4 1.8 23.1 15 23" stroke-width="5.625"/>
   </g>
   <path d="m618.3 304.2c-6 9.6-9.9 25.1 3.6 25.5" stroke-width="3.75"/>
   <path d="m735.1 236.7c-14.4 10.7-26 21.2-37.2 39.5-8.8 14.1-17.7 28.7-20 46.7" stroke-linejoin="round" stroke-width="5.625"/>
   <path d="m749.7 237c-9.9-2.9-18.2 4.1-25.7 10.3" stroke-width="2.8125"/>
   <path d="m623.1 330.7c10.5.3 28.5-8.2 39.5-14.2 23.4-12.8 64.7-35.4 82-52.2 10.8-10.5 12.4-22 7.9-27-5.4-6-30.7-3.9-55.3 36.8-25.4 41.6-22.8 55.9-10.2 56.1 12.5-.2 25.8-5.6 40.4-16.8" stroke-linejoin="round" stroke-width="5.624999"/>
   <path d="m743.8 234.8c-13.1 1.2-26.3 9.8-34.4 19-9.1 10.3-11.9 13.6-18 22.9-10.2 17.6-22.2 41.6-10.2 51.9" stroke-linejoin="round" stroke-width="5.625"/>
   <g stroke-width="2.8125">
    <path d="m747.1 236.3c-7-1.3-13.2 2.5-18.2 7"/>
    <path d="m691.6 289.2c-8.6 16.5-11.5 26.3-11.4 32 0 2.2.6 3.9 1.4 5 .6.9 1.5 1.7 2.4 2.1.5.2 1 .2 1.6.3"/>
   </g>
  </g>
 </g>
</svg>
