<svg height="210mm" viewBox="0 0 1052.4 744.1" width="297mm" xmlns="http://www.w3.org/2000/svg">
 <g fill="none" stroke-linecap="round">
  <g transform="translate(0 -308.26772)">
   <path d="m57.6 742.2h948.8" stroke="#969696" stroke-width="1.875"/>
   <g stroke="#000" stroke-dasharray="3.75 7.5" stroke-miterlimit="2" stroke-width=".9375">
    <path d="m58.3 844.1h948.8"/>
    <path d="m58.3 641.8h948.8"/>
    <path d="m58.3 540.6h948.8"/>
   </g>
  </g>
  <g stroke="#000">
   <g stroke-linejoin="round" stroke-width="5.625">
    <path d="m366.4 434.9c-53.2 7.3-100.2 80.3-96.4 92.6.9 3 16.3 22.9 59.8-38.1 26.9-36.9 55.6-74.7 69.3-112.7 7.5-21.4 9.4-43.9-7.9-39.8-3.8.9-11.7 3.5-19.1 10.6-5 4.8-8.2 7.2-18.6 21.3"/>
    <path d="m378.7 420.3s3.9-1.8 7.7-3.8c6.5-3.3 20-15.6 39-36.1"/>
    <path d="m425.5 380.5c14.8-15.5 28.7-32.2 50.7-41.8 19.6-8.3 35 2.5 12.3 40.5l-31.2 52.3"/>
    <path d="m498.6 345.1-49.2 86.2"/>
    <path d="m498.8 351.3-45.6 79.9"/>
    <path d="m449.4 431.3 7.9.2"/>
   </g>
   <path d="m494.6 338.9c1.8 1.7 2.3 5.7.7 9.9" stroke-width="3.75"/>
   <g stroke-linejoin="round">
    <g stroke-width="5.625">
     <path d="m374.8 412.1c.7.1 1.3.2 1.8.5.2.1.3.2.4.3.9.7 1.2 1.8.7 3.7-.9 3.6-5 5.6-6.9 6.4-4 1.4-6.9-1.8-4.7-5.4 1.4-2.2 3.9-4.6 6.8-5.2.2 0 .4-.1.6-.1h.7c.6 0 1.1.1 1.7.2"/>
     <path d="m451 420.8 147.7-84.2"/>
     <path d="m454.5 409.7c.7.1 1.3.2 1.8.5.2.1.3.2.4.3.9.7 1.2 1.8.7 3.7-.9 3.6-5 5.6-6.9 6.4-4 1.4-6.9-1.8-4.7-5.4 1.4-2.2 3.9-4.6 6.8-5.2.2 0 .4-.1.6-.1h.7c.6 0 1.1.1 1.7.2"/>
     <path d="m598.7 336.6s80.4-44.1 137.8-76.5"/>
     <path d="m736.5 260.1c18.2-11.8 44.8-23.5 54.1-26.2 4.4-1.3 8.5-1.8 11.8-1.5 15.9 1.9-5.5 59.3-35.4 110.1-24.1 39.8-54.2 77.7-77.3 87.7-36.1 9.7 91.5-47 91.5-47l22.6 48.4"/>
     <path d="m806.2 251.7-91.8 157.9"/>
    </g>
    <path d="m800.4 268-73 125.6" stroke-width="8.4375"/>
    <path d="m697.7 425.5c6.6-8.2 16.4-19.1 22.5-27.9" stroke-width="3.75"/>
    <g stroke-width="5.625">
     <path d="m789.3 295.6-40.2 67.9"/>
     <path d="m807 238.2c.1 1.7.4 3.7.2 5.2-.8 10.6-5.9 15.6-13.7 31.8"/>
    </g>
   </g>
  </g>
 </g>
</svg>
