<svg height="210mm" viewBox="0 0 1052.4 744.1" width="297mm" xmlns="http://www.w3.org/2000/svg">
 <g fill="none" stroke-linecap="round">
  <g transform="translate(0 -308.26772)">
   <path d="m57.6 742.2h948.8" stroke="#969696" stroke-width="1.875"/>
   <g stroke="#000" stroke-dasharray="3.75 7.5" stroke-miterlimit="2" stroke-width=".9375">
    <path d="m58.3 844.1h948.8"/>
    <path d="m58.3 641.8h948.8"/>
    <path d="m58.3 540.6h948.8"/>
   </g>
  </g>
  <g stroke="#000006" stroke-linejoin="round">
   <g stroke-width="5.625">
    <path d="m544.2 428c-24.3 5.2-51.6 7.5-57.2-10.3-9-31.7 47.4-150.2 109.5-182.8"/>
    <path d="m565.3 393.7a19.2 25.1 41.6 0 1 -14.3 31.3 19.2 25.1 41.6 0 1 -27.6-6.8 19.2 25.1 41.6 0 1 14.3-31.3 19.2 25.1 41.6 0 1 27.6 6.8z"/>
    <path d="m406 383.7 23.9 47.9s90.2-134.6 133.8-171.1"/>
   </g>
   <g stroke-width="4.6875">
    <path d="m503.7 430.3c-15.6-4.3-13.6-17.4-12-32.5 1.9-18.1 14.8-42.5 24-63 14.8-32.8 50-81.1 75.6-96.8"/>
    <path d="m510 431.2c-41.3-3.7-1.2-70.8 8.5-92.2 15.1-31.1 47.4-87.3 77.9-104.1"/>
   </g>
  </g>
 </g>
</svg>
