<svg height="210mm" viewBox="0 0 1052.4 744.1" width="297mm" xmlns="http://www.w3.org/2000/svg">
 <g fill="none" stroke-linecap="round">
  <g transform="translate(0 -308.26772)">
   <path d="m57.6 742.2h948.8" stroke="#969696" stroke-width="1.875"/>
   <g stroke="#000" stroke-dasharray="3.75 7.5" stroke-miterlimit="2" stroke-width=".9375">
    <path d="m58.3 844.1h948.8"/>
    <path d="m58.3 641.8h948.8"/>
    <path d="m58.3 540.6h948.8"/>
   </g>
  </g>
  <g stroke="#000">
   <g stroke-linejoin="round">
    <path d="m739.3 431c-2.9 1.3-6.3-3.1-3-5.8 4.7-3.9 72.2-24.6 81.2-24.8 16.7-.3 19.8 30.7 32.6 30.7 7.2 0 11.9-5.2 16.7-9.2" stroke-width="5.625"/>
    <path d="m739.3 431c27.3-8.4 63.9-52.6 90.3-97.3 22.4-39.6 35.8-75.2 28.6-90.5-2.4-5-7-7.9-14.2-8-2.7 0-5.8.2-9.3 1.1-4.5 1.1-11.5 3.8-23.1 9.1-85 38.5-328.3 167.5-358.5 185.4-40.2 23.9-68.5 49.3-80.6 68.4-9.2 14.5-12.2 27.2-2.3 32.5 15.1 5.9 33.2-15.2 46.8-38.3 5.9-10 12.6-23.7 19.2-38.9 14.3-32.8 29.6-76.3 33.9-92.2 27.4-101 71.3-136.5 87.3-124.8 12.4 9.1-21 81.4-77.9 97.1" stroke-width="5.625"/>
    <path d="m326.8 335.7-43.2 78.1-3.3 9.2" stroke-width="6.562499"/>
    <path d="m322 335.7-44.6 81.7" stroke-width="6.562499"/>
    <g stroke-width="5.625">
     <path d="m326.8 335.3h-9.3"/>
     <path d="m231.3 430.7 86.3-95.5-39 72.3c-8.4 15.5 5 26.1 21.5 22.2 10.1-2.1 46.3-23.3 76-41.9"/>
    </g>
   </g>
   <path d="m287.4 409.9c-4.3 7.3-5.9 18.8 4 19.7" stroke-width="3.749999"/>
   <path d="m376 387.9-66.8 145" stroke-width="5.625"/>
  </g>
 </g>
</svg>
