<svg height="210mm" viewBox="0 0 1052.4 744.1" width="297mm" xmlns="http://www.w3.org/2000/svg">
 <g fill="none" stroke-linecap="round">
  <g transform="translate(0 -308.26772)">
   <path d="m57.6 742.2h948.8" stroke="#969696" stroke-width="1.875"/>
   <g stroke="#000" stroke-dasharray="3.75 7.5" stroke-miterlimit="2" stroke-width=".9375">
    <path d="m58.3 844.1h948.8"/>
    <path d="m58.3 641.8h948.8"/>
    <path d="m58.3 540.6h948.8"/>
   </g>
  </g>
  <g stroke="#000" stroke-linejoin="round">
   <path d="m435.4 431.6 58.2-59" stroke-width="5.625"/>
   <path d="m551.5 407.2c-22.7 6.5-87.7 26.4-58.6 24.8 3 .3 9.9-5.8 11.3-6.6 48.9-28 71.8-129.3 9.4-73.8-2.3 2.1-17.4 18.4-20 20.9" stroke-width="5.419139"/>
   <g stroke-width="5.625">
    <path d="m551.5 407.2c13.3-3.1 22-5.7 27.6-5.9 17.5-.5 15.5 47.6 45.2 22.9"/>
    <path d="m426.8 360.7c9.3-12.6 18-18.1 26.2-21.7 24.8-6.9 35 2.5 12.3 40.5l-29.8 52.1"/>
    <path d="m266 431.4s44.6-32.4 61.8-29.2 16 46.2 45.6 21.5"/>
    <path d="m309.5 406.2c5.4-2.4 18.6-2.2 26.5 15 5.6 12.2 13.9 9.5 20.5 9.9"/>
    <path d="m324.1 404.3c6.7 5.9 6.3.5 21.2 23.1"/>
    <path d="m426.8 360.7c-14.2 20.8-37.3 52.2-53.4 63.1"/>
   </g>
  </g>
 </g>
</svg>
