<svg height="210mm" viewBox="0 0 1052.4 744.1" width="297mm" xmlns="http://www.w3.org/2000/svg">
 <g fill="none" stroke-linecap="round">
  <g transform="translate(0 -308.26772)">
   <path d="m57.6 742.2h948.8" stroke="#969696" stroke-width="1.875"/>
   <g stroke="#000" stroke-dasharray="3.75 7.5" stroke-miterlimit="2" stroke-width=".9375">
    <path d="m58.3 844.1h948.8"/>
    <path d="m58.3 641.8h948.8"/>
    <path d="m58.3 540.6h948.8"/>
   </g>
  </g>
  <g stroke="#000" stroke-linejoin="round" stroke-width="5.625">
   <path d="m437.4 409.9 34.3-26.7 24 48"/>
   <path d="m187.2 430.3 239.1-93.8-42.5 71.3c-9 15.1 5 26 21.5 22.2 2.8-.7 9.4-2.3 14-6l18.1-14.2"/>
  </g>
 </g>
 <path d="m604.6 321.8a11.6 11.6 0 0 1 -11.6 11.6 11.6 11.6 0 0 1 -11.6-11.6 11.6 11.6 0 0 1 11.6-11.7 11.6 11.6 0 0 1 11.7 11.6"/>
 <g fill="none" stroke="#000" stroke-linecap="round" stroke-linejoin="round" stroke-width="5.625">
  <path d="m117.4 281.7 21.1 48.8"/>
  <path d="m767.3 383.6 18.9 47.6 105.5-97.9-55.8 97.2"/>
  <path d="m835.9 430.5 68.5-46.1 20.7 46.3"/>
  <path d="m687.8 283.5 20.7 46.3"/>
 </g>
</svg>
