<svg height="210mm" viewBox="0 0 1052.4 744.1" width="297mm" xmlns="http://www.w3.org/2000/svg">
 <g fill="none" stroke-linecap="round">
  <g transform="translate(0 -308.26772)">
   <path d="m57.6 742.2h948.8" stroke="#969696" stroke-width="1.875"/>
   <g stroke="#000" stroke-dasharray="3.75 7.5" stroke-miterlimit="2" stroke-width=".9375">
    <path d="m58.3 844.1h948.8"/>
    <path d="m58.3 641.8h948.8"/>
    <path d="m58.3 540.6h948.8"/>
   </g>
  </g>
  <g stroke="#000">
   <path d="m153.4 431.1c50.4-65.5 115.5-58.4 97 .6-.4 1.2 78.7-40 78.7-40" stroke-linejoin="round" stroke-width="5.625"/>
   <ellipse cx="19.706816" cy="531.79901" rx="25.728558" ry="20.371416" stroke-linejoin="round" stroke-width="5.625" transform="matrix(.79083574 -.61202846 .61202846 .79083574 0 0)"/>
   <path d="m363.5 397.5c.3 9.3-.4 14.6-6.3 21.9-3.6 4.5-8.8 8.3-16 11.1" stroke-width="5.624961"/>
   <path d="m360 392.2c2 6.9 1.8 6.4.7 11.6-1.6 7.6-6.1 13.5-12.5 18.7-3.2 2.6-6.9 5-10.9 7.3" stroke-width="6.599955"/>
   <path d="m342.9 424.1c-5.3 3.7-10.3 5.7-16.3 3.5" stroke-width="2.849979"/>
   <path d="m349.1 387.5c7.4 1.6 9 4 10.4 10.8" stroke-width="2.849979"/>
   <g stroke-linejoin="round">
    <g stroke-width="5.625">
     <path d="m329.1 391.8c13.8-18.7 33.7-43 57.3-52.2 31.9-11.5 55.5 4.9 43.4 43.4l196.2.5"/>
     <path d="m713 394.6 104.2-130"/>
     <ellipse cx="325.80835" cy="769.03247" rx="25.728558" ry="20.371416" transform="matrix(.79083574 -.61202846 .61202846 .79083574 0 0)"/>
     <path d="m817.2 264.6c24.9-31.2 39.4-51.4 60.6-68.2 51.1-40 27.3 33.2-11.4 98.9-24.1 39.8-54.2 77.7-77.3 87.7-16.3 3.6-19-7.9-15.9-18.3 3.1-10.3 43.5-16 60.9-20.7l15-4.6 12.9-3.4"/>
    </g>
    <path d="m710.5 397.9c-3 3.1-8.4 9.3-13.5 13.6-9.2 7.8-17.9 13.2-26.1 16.3-10.7 4.1-20.2 4.2-27.3 1-11.7-5.2-23.4-25.6-17.6-45.3" stroke-width="5.62496"/>
    <path d="m861.9 335.9 28.7 41.3c12.2 16.6 12 33 10.1 43.7-2.5 17.4-5.1 27-33 51.5" stroke-width="5.625"/>
   </g>
  </g>
 </g>
</svg>
