<svg height="210mm" viewBox="0 0 1052.4 744.1" width="297mm" xmlns="http://www.w3.org/2000/svg">
 <g fill="none" stroke-linecap="round">
  <g transform="translate(0 -308.26772)">
   <path d="m57.6 742.2h948.8" stroke="#969696" stroke-width="1.875"/>
   <g stroke="#000" stroke-dasharray="3.75 7.5" stroke-miterlimit="2" stroke-width=".9375">
    <path d="m58.3 844.1h948.8"/>
    <path d="m58.3 641.8h948.8"/>
    <path d="m58.3 540.6h948.8"/>
   </g>
  </g>
  <g stroke="#000">
   <g stroke-linejoin="round">
    <path d="m258.5 431.3c3 .3 9.7-4.2 11-5 10.7-6.1 20.2-15.8 27.8-26.6 28.4-40.2 30.6-95.6-25.7-40.3" stroke-width="5.419139"/>
    <g stroke-width="5.625">
     <path d="m481.4 190.8c-29.5 24.1-232.3 245.3-222.9 240.5"/>
     <path d="m444.2 354.3c-26.4 20.7-38.1 24.5-45.7 26.9-55 17.3 33.8-138.4 77.9-185.1 4.7-5 11.2-10.7 18.9-11.9"/>
     <path d="m464.1 211.3-82.8 155.6"/>
     <path d="m444.6 242.5-53.8 98.9"/>
    </g>
    <path d="m386.7 380.4c-7.4-6.7-3-16.4 2.6-27.7" stroke-width="3.75"/>
    <path d="m422.5 267.4c-12.9 24.9-30.1 54.1-38.9 86.4" stroke-width="5.625"/>
   </g>
   <path d="m424.1 273-36.6 76.4" stroke-width="3.75"/>
   <g stroke-width="5.625">
    <g stroke-linejoin="round">
     <path d="m476.2 196.2c-19 21-43.7 49.4-62.8 87.6"/>
     <path d="m473.1 200c-5.6 6.3-36.4 63.6-36.4 63.6"/>
     <path d="m444.2 354.3 23.5-18.3 18.7 47.9"/>
     <path d="m486.4 383.9 45.1-47.5"/>
     <path d="m531.4 336.4-41.7 94.8"/>
     <path d="m637.1 261.3c12.6-15.8 22.8-23 32-25.3 8.1-2 15.3-2.1 21-.6 6.2 1.6 11.2 6.4 8.7 18.1-6.4 14.1-15.9 21.3-33.7 32-15.8 12.8-43.5 22.6-38.9 53.9 6.3 42.7-45.5 80.6-63.9 91.9"/>
     <path d="m562.5 431.2c-17.2 4.3 33.6-10.6 58.4-36.7"/>
     <path d="m637.1 261.3-147.4 169.9"/>
    </g>
    <path d="m734.6 234.2s-95.8 145.7-113.8 160.3"/>
   </g>
  </g>
 </g>
</svg>
