<svg height="210mm" viewBox="0 0 1052.4 744.1" width="297mm" xmlns="http://www.w3.org/2000/svg">
 <g fill="none" stroke-linecap="round">
  <g transform="translate(0 -308.26772)">
   <path d="m57.6 742.2h948.8" stroke="#969696" stroke-width="1.875"/>
   <g stroke="#000" stroke-dasharray="3.75 7.5" stroke-miterlimit="2" stroke-width=".9375">
    <path d="m58.3 844.1h948.8"/>
    <path d="m58.3 641.8h948.8"/>
    <path d="m58.3 540.6h948.8"/>
   </g>
  </g>
  <g stroke-linejoin="round">
   <path d="m297.4 431.2c10.6-12.1 23.1-29.4 40-30.3 16-.6 21.6 31 32.6 30.7 7.2-.2 13.2-6.2 18.6-13" stroke="#000" stroke-width="5.625"/>
   <path d="m569.7 190.3c-7.7 6.6-127.7 164.8-181.2 228.5" stroke="#060000" stroke-width="5.625"/>
   <g stroke="#000">
    <path d="m569.7 190.3c11.2-10 20.1-9.6 25.5-8.3 19.1 4.5 11.2 19.6-4.7 41-15 20.3-24.5 36.8-43.1 61.9-26.3 35.4-55 68-47.8 86.2 4.6 8.9 12.2 10.7 21.2 8.3 9.7-2.7 42.7-18 42.7-18" stroke-width="5.625"/>
    <path d="m605.3 204.1c-.8 5.4-.7 9.8-5.7 20l-93.8 134.9-1.8 13.5" stroke-width="5.625"/>
    <path d="m600.4 214.4-67.9 98.8-28.6 41.8-2.2 10.7" stroke-width="8.4375"/>
    <path d="m516.5 345.2c-5.1 7.7-10 15.6-10 22.5 0 3.1 0 6.1 2.7 8.3 1.9 1.5 3.7 4.1 9.9 2.9" stroke-width="3.75"/>
    <path d="m606.1 187.8c2.8 5.2 2.1 16.5-1 26.4-1.6 5.2-4.3 10.6-8.7 16.2" stroke-width="3.75"/>
    <g stroke-width="5.625">
     <path d="m563.5 361.3 48.3-25.6 16.3 44.1"/>
     <path d="m628 379.8c10.4-13.7 23.9-27.6 33.3-34.6 3.6-2.6 7.4-4.9 11.3-6.7 5-2.4 10.2-3.9 15.3-4.1 24-1 32.4 46.5 48.8 46 10.8-.3 18.5-11.3 25.1-19.4"/>
    </g>
   </g>
  </g>
 </g>
</svg>
