<svg height="210mm" viewBox="0 0 1052.4 744.1" width="297mm" xmlns="http://www.w3.org/2000/svg">
 <g fill="none" stroke-linecap="round">
  <g transform="translate(0 -308.26772)">
   <path d="m57.6 742.2h948.8" stroke="#969696" stroke-width="1.875"/>
   <g stroke="#000" stroke-dasharray="3.75 7.5" stroke-miterlimit="2" stroke-width=".9375">
    <path d="m58.3 844.1h948.8"/>
    <path d="m58.3 641.8h948.8"/>
    <path d="m58.3 540.6h948.8"/>
   </g>
  </g>
  <g stroke-linejoin="round" stroke-width="5.625">
   <path d="m387 429.2s14.9-26.7 37.2-23.4c20.8 3.1 18.8 42.8 46.9 16 5.2-5 15.3-17.3 15.3-17.3" stroke="#000"/>
   <path d="m336.1 533.9s44.2-95.7 50.9-104.8" stroke="#000"/>
   <g stroke="#000003">
    <path d="m486.5 404.4c6.3-8.5 25.4-39 31.4-47.6 13.7-19.8 33.8-47.7 49.4-59.2 2.8-2.1 5.7-4 8.7-5.9 5.2-3.3 10.6-6.2 16.4-8.7 19.6-8.3 35 2.5 12.3 40.5l-29.8 52.1"/>
    <path d="m614.7 289.3-49.2 86.2"/>
    <path d="m615 295.6-45.6 79.9"/>
    <path d="m565.5 375.5 9.3.1"/>
   </g>
  </g>
  <path d="m610.8 283.2c1.8 1.7 2.3 5.7.7 9.9" stroke="#000003" stroke-width="3.75"/>
  <path d="m574.8 375.6c19.1-14.7 49.5-39 73.6-40.1 24-.8 32.4 41.1 48.8 40.7 10.8-.3 18.5-10 25.1-17.1" stroke="#000" stroke-linejoin="round" stroke-width="5.625"/>
 </g>
</svg>
