<svg height="210mm" viewBox="0 0 1052.4 744.1" width="297mm" xmlns="http://www.w3.org/2000/svg">
 <g fill="none" stroke-linecap="round">
  <g transform="translate(0 -308.26772)">
   <path d="m57.6 742.2h948.8" stroke="#969696" stroke-width="1.875"/>
   <g stroke="#000" stroke-dasharray="3.75 7.5" stroke-miterlimit="2" stroke-width=".9375">
    <path d="m58.3 844.1h948.8"/>
    <path d="m58.3 641.8h948.8"/>
    <path d="m58.3 540.6h948.8"/>
   </g>
  </g>
  <g stroke="#000">
   <path d="m770.6 183.3-101.1 180.2" stroke-width="5.625"/>
   <g stroke-linejoin="round">
    <path d="m770.6 183.3 20.5 46.3" stroke-width="5.625"/>
    <path d="m524 387.9c19.2-22.2 40-51.8 59.6-52 26 0 17.7 60.6 69.3 41" stroke-width="5.625"/>
    <path d="m672.8 342.9a19.2 25.1 41.6 0 1 -14.3 31.3 19.2 25.1 41.6 0 1 -27.6-6.8 19.2 25.1 41.6 0 1 14.3-31.3 19.2 25.1 41.6 0 1 27.6 6.8z" stroke-width="5.625003"/>
    <path d="m459.6 431.1c18.3.8 43.6-18.9 64.4-43.3" stroke-width="5.625"/>
    <path d="m791 229.7c13.5-14.6 28.5-30.4 47-31.4 17.6-.7 17.3 30 37.7 31.9" stroke-width="5.625001"/>
    <g stroke-width="5.625">
     <path d="m993.5 144.4c4 11.5-3 26.7-15.6 34.1s-26 4-30-7.4c-4-11.5 3-26.7 15.6-34.1s26-4 30 7.5z"/>
     <path d="m951 149.4c-29.6 49.6-50.6 82.1-75.3 80.7"/>
     <path d="m-324.4-800.3c53.7-37.8 175.6-142.8 143.6-153.8-14.6-5-42.6 12.2-89.8 90.1-46 79.4-42.2 106.5-22.8 105.6 14.7-.8 32.6-16 44.1-27.5"/>
     <path d="m459.6 431.1c-1.5.1-2.7 0-3.9-.2-1.3-.2-2.4-.6-3.5-1.3-11.1-7.2-7.2-36.4 31.4-103.1 47.2-77.9 75.2-96.6 89.8-91.5 32 11-96.8 123.8-139.6 157.8-9.1 7.2-49.2 39-68.2 38.5-11.9-.3-13.9-12.8 11-53.6 23.5-38.8 43.1-46.3 49.4-42 13.8 9.6-11.3 47.7-26.8 33-8.9-8.4-13.1-15.5-20-25.8-2.3-3.4-4.9-5.7-8-7s-6.7-1.6-10.6-1c-4.5 1-10.2 2.8-17.7 5.8-28 11.1-212.8 84-232.6 89.4-4.3 1.2-7.4 1.4-8.9 1.5-2.5.1-6 .1-8.7-.9-2.8-1-5-2.6-6.6-4.7-3.7-5.2-3.1-13.5 5.1-23.4 24.4-29.4 45.3-42.8 38-58.3-2.6-5.6-9-8.2-16.3-7.4-11.8 1.4-20.1 7.7-27.8 15"/>
    </g>
    <path d="m-356.5-511.7c3.3-.2 6.8-1 10.3-2.6 39.9-17.4 119.6-79.6 160.9-121.9 35-34 55.3-65.7 38.8-71.4-14.6-5-41.5 12.1-88.8 89.9-44.1 76.3-43.7 106.4-28 106.4 8.7-.1 23.2-8.1 39-22.4" stroke-width="5.624959"/>
    <path d="m-523.2-775.5c-12 10.3-26.5 15.9-36.6 16.2-33.8 1 16.6-91 24-103.9 47.2-77.9 74.9-95.7 89.8-91.6 42.9 12-130.6 151.7-181.1 196" stroke-width="5.625002"/>
   </g>
  </g>
 </g>
</svg>
