<svg height="210mm" viewBox="0 0 1052.4 744.1" width="297mm" xmlns="http://www.w3.org/2000/svg">
 <g fill="none" stroke-linecap="round">
  <g transform="translate(0 -308.26772)">
   <path d="m57.6 742.2h948.8" stroke="#969696" stroke-width="1.875"/>
   <g stroke="#000" stroke-dasharray="3.75 7.5" stroke-miterlimit="2" stroke-width=".9375">
    <path d="m58.3 844.1h948.8"/>
    <path d="m58.3 641.8h948.8"/>
    <path d="m58.3 540.6h948.8"/>
   </g>
  </g>
  <g stroke="#000" stroke-linejoin="round" stroke-width="5.625">
   <path d="m374.6 334.9-42.4 73.1c-5.5 9.5-2.3 17.2 4.9 20.8 4.1 2 9.2 3 15.2.1 12.8-6.3 20.6-11 37.5-21.7"/>
   <path d="m389.7 407.1 32.4-19.9-56.7 94.9 46.4-25.5"/>
   <path d="m411.7 456.5 40.7-21.9 19.1 48.4"/>
   <path d="m471.6 483c50.4-65.5 115.5-58.4 97 .6"/>
   <path d="m568.6 483.6c51.7-61.5 139.6-58.4 121.1.6-.4 1.2 47.4-37.8 47.4-37.8"/>
   <ellipse cx="313.17624" cy="824.42499" rx="25.728558" ry="20.371416" transform="matrix(.79083574 -.61202846 .61202846 .79083574 0 0)"/>
  </g>
 </g>
</svg>
