<svg height="210mm" viewBox="0 0 1052.4 744.1" width="297mm" xmlns="http://www.w3.org/2000/svg">
 <g fill="none" stroke-linecap="round">
  <g transform="translate(0 -308.26772)">
   <path d="m57.6 742.2h948.8" stroke="#969696" stroke-width="1.875"/>
   <g stroke="#000" stroke-dasharray="3.75 7.5" stroke-miterlimit="2" stroke-width=".9375">
    <path d="m58.3 844.1h948.8"/>
    <path d="m58.3 641.8h948.8"/>
    <path d="m58.3 540.6h948.8"/>
   </g>
  </g>
  <g stroke="#000">
   <g stroke-linejoin="round">
    <path d="m514.7 336-49 95.3" stroke-width="5.625"/>
    <path d="m465.8 431.3c42-50.3 72.1-93.1 96.2-94.8 2.7-.3 5.1-.1 7.1.7 7.8 3.3 10.1 15.8-1.5 40.6l-25 53.3" stroke-width="5.625"/>
    <path d="m572.1 358.1-36.9 73.3" stroke-width="5.440072"/>
    <path d="m558.6 390.3-20.2 40.7" stroke-width="3.626714"/>
    <path d="m535.2 431.4 7.4-.2" stroke-width="5.440072"/>
   </g>
   <path d="m569.5 338.4c4.1 1.7 6.9 9.7-.3 23.7" stroke-width="3.626714"/>
  </g>
 </g>
</svg>
