<svg height="210mm" viewBox="0 0 1052.4 744.1" width="297mm" xmlns="http://www.w3.org/2000/svg">
 <g fill="none" stroke-linecap="round">
  <g transform="translate(0 -308.26772)">
   <path d="m57.6 742.2h948.8" stroke="#969696" stroke-width="1.875"/>
   <g stroke="#000" stroke-dasharray="3.75 7.5" stroke-miterlimit="2" stroke-width=".9375">
    <path d="m58.3 844.1h948.8"/>
    <path d="m58.3 641.8h948.8"/>
    <path d="m58.3 540.6h948.8"/>
   </g>
  </g>
  <g stroke="#000" stroke-linejoin="round">
   <path d="m314.3 431.3c-3.1 1.4-5.8-1.7-3.4-4.7 5.2-6.3 277.7-120.1 337.3-144.1" stroke-width="5.624999"/>
   <g stroke-width="5.625">
    <path d="m314.3 431.3c43.9-15.9 71.5-94.7 46.6-94.9-7.2-.1-18.9 6.5-35.8 23.2"/>
    <path d="m591.5 379.4c-52.8 28.2-107.3 83.2-81.8 98.7 9.9 5.5 23.1-1.1 49.3-43.2l89.2-152.4"/>
    <path d="m591.5 379.4 88.2-44.1"/>
   </g>
   <path d="m685.4 479.7c14.8-7.7 30.4-16 28.9-34.4-1.8-21.5-51.2-39.8-58-62.6-3.5-11.7 8.2-30.9 23.4-47.3" stroke-width="5.624998"/>
  </g>
 </g>
</svg>
