<svg height="210mm" viewBox="0 0 1052.4 744.1" width="297mm" xmlns="http://www.w3.org/2000/svg">
 <g fill="none" stroke-linecap="round">
  <g transform="translate(0 -308.26772)">
   <path d="m57.6 742.2h948.8" stroke="#969696" stroke-width="1.875"/>
   <g stroke="#000" stroke-dasharray="3.75 7.5" stroke-miterlimit="2" stroke-width=".9375">
    <path d="m58.3 844.1h948.8"/>
    <path d="m58.3 641.8h948.8"/>
    <path d="m58.3 540.6h948.8"/>
   </g>
  </g>
  <g stroke-linejoin="round">
   <g stroke="#000">
    <g stroke-width="5.625">
     <path d="m223.3 431.3s44.6-32.4 61.8-29.2 16 46.2 45.6 21.5"/>
     <path d="m270.7 404.4c5.4-2.4 14.4-.8 22.3 16.5 5.6 12.2 16.2 10.3 22.8 10.3"/>
     <path d="m281.8 404.1c7.6 3.9 5 .9 19.8 23.5"/>
    </g>
    <path d="m330.8 423.6c3.8-3.5 6.1-5.6 10.3-10.5 17.8-21 38.6-30.4 55.6-30.2 22.5.4 38.7 16.8 33.6 47.9" stroke-width="5.624999"/>
    <ellipse cx="624.04358" cy="-3.808343" rx="4.609393" ry="6.862874" stroke-width="5.625" transform="matrix(.72846687 .68508103 -.68508103 .72846687 0 0)"/>
   </g>
   <g stroke-width="5.625">
    <path d="m430.2 430.9 24.3-.3" stroke="#030002"/>
    <path d="m456.1 430.6c19.9 4 241.5-85.8 251.3-92.8 7.2-4.5 15.1-9 20.2-13.4 12.8-11.2 19.5-22.7 16.7-30.9-4.2-12.7-34.7-8.6-58.5 30.7-26.3 43.1-15.6 58.4-3.5 59" stroke="#000"/>
    <path d="m682.3 383.2c16.3.9 69.6-31.5 87.2-32.4 16.8-.7 22.7 32.6 34.2 32.2 7.5-.2 13.1-6.2 18.3-10.8" stroke="#000"/>
   </g>
  </g>
 </g>
</svg>
