<svg height="210mm" viewBox="0 0 1052.4 744.1" width="297mm" xmlns="http://www.w3.org/2000/svg">
 <g fill="none" stroke-linecap="round">
  <g transform="translate(0 -308.26772)">
   <path d="m57.6 742.2h948.8" stroke="#969696" stroke-width="1.875"/>
   <g stroke="#000" stroke-dasharray="3.75 7.5" stroke-miterlimit="2" stroke-width=".9375">
    <path d="m58.3 844.1h948.8"/>
    <path d="m58.3 641.8h948.8"/>
    <path d="m58.3 540.6h948.8"/>
   </g>
  </g>
  <g stroke="#000" stroke-width="5.625">
   <g stroke-linejoin="round">
    <path d="m581.8 346.9c50.5-45.8 100.6-101.9 78.1-109.6-14.6-5-42.6 12.2-89.8 90.1-42.5 73.3-43.2 100.2-27.6 103.5 6 1.6 11 .5 33.5.1"/>
    <path d="m518.5 399.3c25.9-20.3 58.2-46.4 63.3-52.4"/>
    <path d="m272.6 431.1c16.9-15.5 55.5-36.1 83.7-37.2 39.8-1.5 60.3 36.7 94.6 36.8 2.9 0 5.7-.2 8.3-.7 21-3.4 42.3-15.5 59.2-30.8"/>
   </g>
   <path d="m698.7 258.9c-5.7 6.4-106.9 164.2-113.2 166.2"/>
   <g stroke-linejoin="round">
    <path d="m582.5 418.6c.8.1 1.4.2 1.9.5.2.1.3.2.5.3.9.7 1.3 2 .8 4-1 3.9-5.4 6.1-7.5 6.9-4.3 1.6-7.6-2-5.1-5.9 1.6-2.4 4.2-5.1 7.4-5.7.2 0 .4-.1.7-.1s.5-.1.8-.1c.6 0 1.2.1 1.9.3"/>
    <path d="m698.7 258.9c24.3-33 69.8-34.2 37.2 20l-31.1 51.6"/>
   </g>
  </g>
 </g>
</svg>
