<svg height="210mm" viewBox="0 0 1052.4 744.1" width="297mm" xmlns="http://www.w3.org/2000/svg">
 <g fill="none" stroke-linecap="round">
  <g transform="translate(0 -308.26772)">
   <path d="m57.6 742.2h948.8" stroke="#969696" stroke-width="1.875"/>
   <g stroke="#000" stroke-dasharray="3.75 7.5" stroke-miterlimit="2" stroke-width=".9375">
    <path d="m58.3 844.1h948.8"/>
    <path d="m58.3 641.8h948.8"/>
    <path d="m58.3 540.6h948.8"/>
   </g>
  </g>
  <g stroke="#000" stroke-linejoin="round" stroke-width="5.625">
   <path d="m468.1 400.9s-48.9 48-71.9 75.6c-25.1 30.2-34.2 43.9-28.1 55 2.9 5.3 34.7 12.4 62.3-63.4 15.7-47.2 25.8-112.5 71.5-132.1"/>
   <path d="m543.1 430.2c-54.3 8.3 72.4-37.4 90.3-36.9 17.7-.2 13.6 38.5 30.4 37.8 5-.2 11.9-3.7 21.9-12.5"/>
   <path d="m468.1 400.9c25-28.7 127.3-128.1 161.7-155.5 83-65-27.4 160.4-86.7 184.7"/>
   <path d="m405.5 335.9-39 72.4c-8.4 15.5 5 26 21.5 22.2 34-12.3 64.8-63 94.4-81.7"/>
  </g>
 </g>
</svg>
