<svg height="210mm" viewBox="0 0 1052.4 744.1" width="297mm" xmlns="http://www.w3.org/2000/svg">
 <g fill="none" stroke-linecap="round">
  <g transform="translate(0 -308.26772)">
   <path d="m57.6 742.2h948.8" stroke="#969696" stroke-width="1.875"/>
   <g stroke="#000" stroke-dasharray="3.75 7.5" stroke-miterlimit="2" stroke-width=".9375">
    <path d="m58.3 844.1h948.8"/>
    <path d="m58.3 641.8h948.8"/>
    <path d="m58.3 540.6h948.8"/>
   </g>
  </g>
  <g stroke="#000" stroke-linejoin="round" stroke-width="5.625">
   <path d="m465.1 404.6c15.4-14.9 31.1-39 47-55.8 16.9-17.9 26.9-18.3 33.4-5.7 6.5 12.7 4 18.2 12.3 27.2 15.9 17.3 43.8-27.8 34.5-34.3-6.3-4.4-25.9 3.2-49.4 42-24.8 40.5-22.9 54-11.2 53.6"/>
   <path d="m447.4 334.7c76.1-9.8 139.9-82.8 91.8-98.2-14.7-4.7-42.9 10.9-90.1 88.8-71.6 121.9-34.5 124.2 16 79.4"/>
   <path d="m531.7 431.6c17.6-2.4 69.6-30 86.4-30.8 16-.6 21.6 31 32.6 30.7 7.2-.2 12.4-7.6 16.7-13"/>
  </g>
 </g>
</svg>
