<svg height="210mm" viewBox="0 0 1052.4 744.1" width="297mm" xmlns="http://www.w3.org/2000/svg">
 <g fill="none" stroke-linecap="round">
  <g transform="translate(0 -308.26772)">
   <path d="m57.6 742.2h948.8" stroke="#969696" stroke-width="1.875"/>
   <g stroke="#000" stroke-dasharray="3.75 7.5" stroke-miterlimit="2" stroke-width=".9375">
    <path d="m58.3 844.1h948.8"/>
    <path d="m58.3 641.8h948.8"/>
    <path d="m58.3 540.6h948.8"/>
   </g>
  </g>
  <g stroke="#000">
   <g stroke-width="5.625">
    <g stroke-linejoin="round">
     <ellipse cx="172.90384" cy="652.47363" rx="25.728558" ry="20.371416" transform="matrix(.79083574 -.61202846 .61202846 .79083574 0 0)"/>
     <path d="m523.1 394.5c17.5-12.9 50-36.2 65.8-46.9"/>
     <path d="m588.9 347.5c23.7-19.2 60.9-14.6 37.5 14.4-27.4 33.8-45.5 50.2-39.4 63.9 4.2 9.6 22.9 6.9 36.5-3.7l10.2-7.9c12.2-11 30.4-42.1 32.4-44.1"/>
    </g>
    <path d="m627.2 339.1c14.5 10.1 4.3 27.8-12.4 44.2-14.4 14-23.4 26.4-29.5 38.7"/>
    <path d="m627.2 339.1c.8-1.1 3.9 6.1.7 14.2-3.2 8.4-12.8 17.8-18.3 22.9-10.8 10.1-30.6 29-24.3 45.7"/>
   </g>
   <g stroke-width="2.8125">
    <path d="m618.7 337.4c11.3 1.3 8.8 6.5 9.1 11"/>
    <path d="m590.5 414.7c-2.7 4.9-3.8 12 2.3 14.5"/>
    <path d="m582.7 416c-.1 5.7 2.9 11.5 4.9 13.1"/>
   </g>
   <g stroke-width="5.625">
    <path d="m360.3 398.3 33.9-16-27.4 48.9 53.5-38.3" stroke-linejoin="round"/>
    <ellipse cx="92.587822" cy="588.33929" rx="25.728558" ry="20.371416" stroke-linejoin="round" transform="matrix(.79083574 -.61202846 .61202846 .79083574 0 0)"/>
    <path d="m492.4 385.9-77.5 147.6"/>
    <path d="m437 385.9h55.4" stroke-linejoin="round"/>
    <path d="m739.9 236-73.9 134"/>
   </g>
  </g>
 </g>
</svg>
