<svg height="210mm" viewBox="0 0 1052.4 744.1" width="297mm" xmlns="http://www.w3.org/2000/svg">
 <g fill="none" stroke-linecap="round">
  <g transform="translate(0 -308.26772)">
   <path d="m57.6 742.2h948.8" stroke="#969696" stroke-width="1.875"/>
   <g stroke="#000" stroke-dasharray="3.75 7.5" stroke-miterlimit="2" stroke-width=".9375">
    <path d="m58.3 844.1h948.8"/>
    <path d="m58.3 641.8h948.8"/>
    <path d="m58.3 540.6h948.8"/>
   </g>
  </g>
  <g stroke="#000" stroke-linejoin="round" stroke-width="5.625">
   <path d="m400 417.9c-10.8 6.7-18.1 12.6-28.9 13.1s-14.1-21.6-32.1-22.3c-18.2-.4-20.1 21.6-3.5 22.4 8.5.4 19.6-3.7 43.1-42.5 45-73.7-8-54.1-28.4-32.3"/>
   <path d="m400 417.9c31.2-20.7 76-41.9 95.6-57.5 10.4-8.3 12.4-17.8 10.9-21.9-2.8-7.4-28.8-4.4-52.7 35.9l-31.4 56.8"/>
   <path d="m544.6 338.8c24.8-6.9 35 2.5 12.3 40.5l-29.8 52.1"/>
   <path d="m422.5 431.2s105.7-87.3 122.1-92.4"/>
   <path d="m599.8 430.6c43.9-12.2 77.8-94.1 46.7-94.3-16.9 1.2-29 9-50.4 28.5"/>
   <path d="m527 431.4 69.1-66.7"/>
   <path d="m599.8 430.6c-36.4 7.4 72-32.3 90.5-33.2 17.6-.7 23.8 34.2 35.9 33.8 7.9-.2 13.6-8.3 18.5-14.3"/>
  </g>
 </g>
</svg>
