<svg height="210mm" viewBox="0 0 1052.4 744.1" width="297mm" xmlns="http://www.w3.org/2000/svg">
 <g fill="none" stroke-linecap="round">
  <g transform="translate(0 -308.26772)">
   <path d="m57.6 742.2h948.8" stroke="#969696" stroke-width="1.875"/>
   <g stroke="#000" stroke-dasharray="3.75 7.5" stroke-miterlimit="2" stroke-width=".9375">
    <path d="m58.3 844.1h948.8"/>
    <path d="m58.3 641.8h948.8"/>
    <path d="m58.3 540.6h948.8"/>
   </g>
  </g>
  <g stroke="#000" stroke-linejoin="round">
   <path d="m483 360c10.9-14.3 25.2-24.8 36.4-23.6 10.5 1.1 18.1 9.6 7.1 32.6-10 21.3-29.9 62.7-29.9 62.7" stroke-width="5.62496"/>
   <path d="m496.6 431.6c13.3-11.9 35.5-34 45.2-40.4 6.4-4.2 12.1-7.2 19.4-7.4 8.6-.4 13.8 2.3 16.3 6.3 3.4 5.6 2 14-3 20.3-27.1 34-45.5 50.3-39.4 63.9 1.4 3.1 4 5.2 7.2 6.4 2.7 1 7.7 1.3 11 1 26.2-2.6 43-22.9 87.2-99" stroke-width="5.625"/>
  </g>
 </g>
</svg>
