<svg height="210mm" viewBox="0 0 1052.4 744.1" width="297mm" xmlns="http://www.w3.org/2000/svg">
 <g fill="none" stroke-linecap="round">
  <g transform="translate(0 -308.26772)">
   <path d="m57.6 742.2h948.8" stroke="#969696" stroke-width="1.875"/>
   <g stroke="#000" stroke-dasharray="3.75 7.5" stroke-miterlimit="2" stroke-width=".9375">
    <path d="m58.3 844.1h948.8"/>
    <path d="m58.3 641.8h948.8"/>
    <path d="m58.3 540.6h948.8"/>
   </g>
  </g>
  <g stroke="#000" stroke-linejoin="round">
   <g stroke-width="5.625">
    <path d="m491.3 430.8c8.3.7 138.3-.7 138.3-.7"/>
    <path d="m556.1 304.6c41.5-37.1 45.9-57.9 42.3-67.1-5.5-14.4-40.3 8.9-87.4 86.8-22.5 38.9-34.2 65.5-38.3 82.4-4.5 18.7 10.4 24.8 18.6 24.1"/>
    <path d="m638.2 418.3c.7.1 1.4.2 1.9.5.2.1.3.2.5.3.9.7 1.3 2 .7 3.9-1 3.8-5.4 6-7.4 6.8-4.3 1.5-7.4-2-5-5.8 1.5-2.4 4.2-5 7.3-5.6.2 0 .4-.1.6-.1h.8c.6 0 1.2.1 1.8.3"/>
    <path d="m641 424.1c11.9-17.3 37.4-56.5 57.1-71 2.8-2.1 5.7-4 8.7-5.9 5.2-3.3 10.6-6.2 16.4-8.7 19.6-8.3 35 2.5 12.3 40.5l-29.8 52.1"/>
    <path d="m705.6 431.1c12.1-7.7 82.5-46.9 82.5-46.9l20.2 47"/>
    <path d="m239.1 430c10.6-12.1 23.1-29.4 40-30.3 16-.6 21.6 31 32.6 30.7 7.2-.2 12.4-7.6 16.7-13"/>
    <path d="m328.3 417.5s124.1-162.6 126.3-165.3c2.6-3.2 5-5.8 7.4-7.8 83-65-26.7 159.9-88.2 186.6-43.2 7.2 146.9-96.3 182.2-126.5"/>
    <path d="m490 252.8-91.7 157.8"/>
   </g>
   <path d="m484.3 269.1-73.1 125.6" stroke-width="8.4375"/>
   <path d="m381.5 426.5c6.6-8.2 16.4-19 22.5-27.9" stroke-width="3.75"/>
   <g stroke-width="5.625">
    <path d="m473.2 296.6-40.2 67.9"/>
    <path d="m491.7 239.1c.7 14-5.4 18.6-14.3 37.1"/>
   </g>
  </g>
 </g>
</svg>
