<svg height="210mm" viewBox="0 0 1052.4 744.1" width="297mm" xmlns="http://www.w3.org/2000/svg">
 <g fill="none" stroke-linecap="round">
  <g transform="translate(0 -308.26772)">
   <path d="m57.6 742.2h948.8" stroke="#969696" stroke-width="1.875"/>
   <g stroke="#000" stroke-dasharray="3.75 7.5" stroke-miterlimit="2" stroke-width=".9375">
    <path d="m58.3 844.1h948.8"/>
    <path d="m58.3 641.8h948.8"/>
    <path d="m58.3 540.6h948.8"/>
   </g>
  </g>
  <g stroke="#000" stroke-linejoin="round">
   <g stroke-width="5.625">
    <path d="m438.9 422.9c13.7 20.5 28.3-2.1 123.5-86.6l-47 95.1"/>
    <ellipse cx="609.01379" cy=".800444" rx="4.609393" ry="6.862875" transform="matrix(.72846687 .68508103 -.68508103 .72846687 0 0)"/>
    <path d="m434 335.5s-34.3 61.7-37.7 71.8c-4.7 13.8 4.6 21 12.7 22.7 11.4 2.2 21.7 1.5 35.2-7.3"/>
   </g>
   <path d="m515.4 431.4 94.4-44.2 21.3 44.2" stroke-width="5.624999"/>
   <path d="m740.6 235.3-109.5 196.1" stroke-width="5.624999"/>
   <path d="m434 335.5-137.6 197.5" stroke-width="5.625"/>
  </g>
 </g>
</svg>
