<svg height="210mm" viewBox="0 0 1559.1 744.1" width="440mm" xmlns="http://www.w3.org/2000/svg">
 <g fill="none" stroke-linecap="round">
  <g transform="translate(0 -308.26772)">
   <path d="m14 742.2h1528.4" stroke="#969696" stroke-width="1.875"/>
   <g stroke="#000" stroke-dasharray="3.75 7.5" stroke-miterlimit="2" stroke-width=".9375">
    <path d="m14.7 844.1h1528.5"/>
    <path d="m14.7 641.8h1528.5"/>
    <path d="m14.7 540.6h1528.5"/>
   </g>
  </g>
  <g stroke="#000" stroke-width="5.625">
   <g stroke-linejoin="round">
    <path d="m1254.5 412.7c3.6-3.6 29.7-24.9 39.5-17.4 6.1 4.7 8.9 37.6 21.2 36.1 8.8-1.1 10.4-1.4 17.1-5.6 4.4-2.8 14.8-12.6 14.8-12.6"/>
    <path d="m1282.2 395.2c11.6-4.7 11.4 6.3 12.9 22.9 1 10.8 7.8 13.7 20.1 13.3"/>
    <path d="m1282.2 395.2c5.4-2.4 19-3.6 22.7 15 2.6 13.3 4.7 19.7 13.9 20.5"/>
    <path d="m1294.3 397.9c6.8 12.3 1 30.9 15.5 31.8"/>
    <path d="m1131.9 432.2c50.4-65.5 116.6-60.3 98.2-1.3-.4 1.2 24.4-18.2 24.4-18.2"/>
    <path d="m1347.1 413.2c7.5-5.2 91.3-147 94-150.7 9-12.3 18.4-28.1 34.4-27.3 13.3.7 15.9 26.9 31.9 27.9 5.5.3 12.6-3.8 22.2-15.5"/>
   </g>
   <path d="m1098.5 335.6-37.3 64.5"/>
   <g stroke-linejoin="round">
    <ellipse cx="605.04846" cy="984.51862" rx="25.728558" ry="20.371416" transform="matrix(.79083574 -.61202846 .61202846 .79083574 0 0)"/>
    <path d="m246.7 412.1c3.6-3.6 29.7-24.9 39.5-17.4 6.1 4.7 8.9 37.6 21.2 36.1 8.8-1.1 10.4-1.4 17.1-5.6 4.4-2.8 14.8-12.6 14.8-12.6"/>
    <path d="m274.4 394.6c11.6-4.7 11.4 6.3 12.9 22.9 1 10.8 7.8 13.7 20.1 13.3"/>
    <path d="m274.4 394.6c5.4-2.4 19-3.6 22.7 15 2.6 13.3 4.7 19.7 13.9 20.5"/>
    <path d="m286.4 397.3c6.8 12.3 1 30.9 15.5 31.8"/>
    <path d="m124.1 431.6c25.6-33.4 55.4-48.2 76-46.9 19.9 1.3 31.2 17.5 22.2 46.4l24.4-19.1"/>
    <path d="m339.2 412.6c7.5-5.2 91.3-147 94-150.7 9-12.3 18.4-28.1 34.4-27.3 17.9.9 16 70.9 53.9 25.2"/>
    <path d="m108.9 335.3c-39.4 9.7-46.7 24.2-56.8 40.7l-28.7 55"/>
    <path d="m800.4 413.4c3.6-3.6 29.7-24.9 39.5-17.4 6.1 4.7 8.9 37.6 21.2 36.1 8.8-1.1 10.4-1.4 17.1-5.6 4.4-2.8 14.8-12.6 14.8-12.6"/>
    <path d="m828.1 395.9c11.6-4.7 11.4 6.3 12.9 22.9 1 10.8 7.8 13.7 20.1 13.3"/>
    <path d="m828.1 395.9c5.4-2.4 19-3.6 22.7 15 2.6 13.3 4.7 19.7 13.9 20.5"/>
    <path d="m840.1 398.6c6.8 12.3 1 30.9 15.5 31.8"/>
    <path d="m1028.8 235s-124.3 173.1-135.9 178.9"/>
    <path d="m677.8 432.9c50.4-65.5 116.6-60.3 98.2-1.3-.4 1.2 24.4-18.2 24.4-18.2"/>
    <path d="m1028.8 235-39.4 96.6"/>
    <path d="m543.8 431.3 66.1-94.6 24 46.3"/>
   </g>
   <path d="m1026.8 419.4c-1.9 9.2-7.2 20-15.2 26.7"/>
   <path d="m499.1 419.4c-1.9 9.2-7.2 20-15.2 26.7"/>
  </g>
 </g>
</svg>
