<svg height="210mm" viewBox="0 0 1052.4 744.1" width="297mm" xmlns="http://www.w3.org/2000/svg">
 <g fill="none" stroke="#000" stroke-linecap="round">
  <g transform="translate(0 -308.26772)">
   <path d="m57.6 742.2h948.8" stroke-width="1.875"/>
   <g stroke-dasharray="3.75 7.5" stroke-miterlimit="2" stroke-width=".9375">
    <path d="m58.3 844.1h948.8"/>
    <path d="m58.3 641.8h948.8"/>
    <path d="m58.3 540.6h948.8"/>
   </g>
  </g>
  <g stroke-linejoin="round" stroke-width="5.625">
   <path d="m482 335.9c-47.8 12.5-89.4 106-47.1 93.4 14.2-5.6 25.5-7 65.3-51.1"/>
   <path d="m500.2 378.1 34.3-43.3 27.8 46.4"/>
   <path d="m562.3 381.3c82.8-74.3 104.4-88.7 119.7-107 9-10.8 16.7-22.4 16.2-29.9-1.1-16.6-10.3-12.5-16.9-8.2-10.9 8.2-46.9 73.5-66.8 108.5-38.2 67.2-84.2 149.6-104.5 185.8"/>
   <path d="m510 530.4s51.7-29.4 68.5-30.3c16-.6 21.6 31 32.6 30.7 7.2-.2 12.4-7.6 16.7-13"/>
  </g>
 </g>
</svg>
