<svg height="210mm" viewBox="0 0 1052.4 744.1" width="297mm" xmlns="http://www.w3.org/2000/svg">
 <g fill="none" stroke-linecap="round">
  <g transform="translate(0 -308.26772)">
   <path d="m57.6 742.2h948.8" stroke="#969696" stroke-width="1.875"/>
   <g stroke="#000" stroke-dasharray="3.75 7.5" stroke-miterlimit="2" stroke-width=".9375">
    <path d="m58.3 844.1h948.8"/>
    <path d="m58.3 641.8h948.8"/>
    <path d="m58.3 540.6h948.8"/>
   </g>
  </g>
  <g stroke="#000" stroke-linejoin="round" stroke-width="5.625">
   <path d="m379.3 431.3c20.3-9.9 72.5-32.2 84.4-31.2 24.4 2.1 20.9 31.1 44.6 31.2"/>
   <path d="m358.8 385 20.5 46.3"/>
   <path d="m720.6 247.8c-8.5 9.5-14.8 13.2-19.6 13.3-15.1.5-17.9-26.7-31.3-26.1-12.4.5-22.2 13-30.6 25.8-13.1 19.8-39.3 65.4-49.7 82.2-25.3 41.2-50.8 89.7-81.1 88.3"/>
  </g>
 </g>
</svg>
