<svg height="210mm" viewBox="0 0 1052.4 744.1" width="297mm" xmlns="http://www.w3.org/2000/svg">
 <g fill="none" stroke-linecap="round">
  <g transform="translate(0 -308.26772)">
   <path d="m57.6 742.2h948.8" stroke="#969696" stroke-width="1.875"/>
   <g stroke="#000" stroke-dasharray="3.75 7.5" stroke-miterlimit="2" stroke-width=".9375">
    <path d="m58.3 844.1h948.8"/>
    <path d="m58.3 641.8h948.8"/>
    <path d="m58.3 540.6h948.8"/>
   </g>
  </g>
  <g stroke="#000" stroke-linejoin="round" stroke-width="5.625">
   <path d="m333.4 431s27.4-39.6 48-59.8c19.2-18.8 36.7-34.5 61.9-35.1 20.3-.5 32.2 15.6 41.1 34.3 7.7 16.9 14.5 36 22.5 47.4 6.5 9.2 15.1 13.6 23.7 13.6"/>
   <path d="m530.6 431.5c42.8-.6 81.2-96.8 118.3-95.1 7.2.3 13.4 1.8 15.9 7.2 5.4 11.7-5.4 22.6-21.5 40.1s-26.9 28.4-21.5 40.1c2.5 5.5 8.8 8 15.9 7.2 11.5-1.3 19.6-7.5 27.1-14.6"/>
  </g>
 </g>
</svg>
