<svg height="210mm" viewBox="0 0 1052.4 744.1" width="297mm" xmlns="http://www.w3.org/2000/svg">
 <g fill="none" stroke-linecap="round">
  <g transform="translate(0 -308.26772)">
   <path d="m57.6 742.2h948.8" stroke="#969696" stroke-width="1.875"/>
   <g stroke="#000" stroke-dasharray="3.75 7.5" stroke-miterlimit="2" stroke-width=".9375">
    <path d="m58.3 844.1h948.8"/>
    <path d="m58.3 641.8h948.8"/>
    <path d="m58.3 540.6h948.8"/>
   </g>
  </g>
  <g stroke="#000">
   <g stroke-linejoin="round" stroke-width="5.625">
    <path d="m303 405.5 19.7-22.7 31.4 47.9 43.5-47.3"/>
    <path d="m322.8 382.8 24 48"/>
    <path d="m330.4 382.8 23.8 47.9"/>
    <path d="m326.4 382.7 24 48"/>
   </g>
   <path d="m323.1 381.8h7.1" stroke-width="3.75"/>
   <path d="m346.6 431.7h7.1" stroke-width="3.75"/>
   <g stroke-linejoin="round" stroke-width="5.625">
    <path d="m397.5 383.7 46.5-47.8-39 72.4c-8.4 15.5 3.5 25.6 20 21.7 2.8-.7 11.2-4.9 16.2-8.1l22.1-14.3"/>
    <path d="m463.3 407.6 275.7-172.7"/>
    <path d="m739 234.9-56.7 94.9"/>
    <path d="m291.6 335.9-42.4 73.1c-8.7 15 4.1 25.4 20.3 22.3 10.1-2 24.7-15.4 33.5-25.7"/>
    <path d="m682.3 329.8 54.9-35.8"/>
    <path d="m744 432.3c28.5-22.6 35.5-31.4 39-55.7 1.8-12.5-2.6-28-12.8-37.6-5-4.7-11-8.4-17-11.7-8.5-4.8-11.8-5.8-17.2-11.5-6-6.3-5-21.2 9.8-27.5"/>
   </g>
  </g>
 </g>
</svg>
