<svg height="210mm" viewBox="0 0 1052.4 744.1" width="297mm" xmlns="http://www.w3.org/2000/svg">
 <g fill="none" stroke-linecap="round">
  <g transform="translate(0 -308.26772)">
   <path d="m57.6 742.2h948.8" stroke="#969696" stroke-width="1.875"/>
   <g stroke="#000" stroke-dasharray="3.75 7.5" stroke-miterlimit="2" stroke-width=".9375">
    <path d="m58.3 844.1h948.8"/>
    <path d="m58.3 641.8h948.8"/>
    <path d="m58.3 540.6h948.8"/>
   </g>
  </g>
  <g stroke="#000" stroke-linejoin="round" stroke-width="5.625">
   <path d="m336.9 336.1-54.8 94.9s166.1-27.7 198.1-27.8c18.2.9 17.1 27.5 34.8 27.9 13.6.3 21.6-3.1 47.8-44.7 24.5-39 44-50.7 71.8-50.3 20.1.3 31.6 17.6 22.4 47"/>
   <path d="m657 383.1c8.5-10 20.3-24.5 29.5-32.9 2.2-2 4.6-4.1 7.2-5.9 5.1-3.7 11-6.6 18.1-7.5 3.3-.4 6.4-.1 9 .9 2.8 1 5 2.6 6.6 4.7 3.7 5.2 3.1 13.5-5.1 23.4-24.4 29.4-45.3 42.3-38 57.8 2.6 5.6 9 8.2 16.3 7.4 11.8-1.4 20.1-7.7 27.8-15"/>
  </g>
 </g>
</svg>
