<svg height="210mm" viewBox="0 0 1052.4 744.1" width="297mm" xmlns="http://www.w3.org/2000/svg">
 <g fill="none" stroke-linecap="round">
  <g transform="translate(0 -308.26772)">
   <path d="m57.6 742.2h948.8" stroke="#969696" stroke-width="1.875"/>
   <g stroke="#000" stroke-dasharray="3.75 7.5" stroke-miterlimit="2" stroke-width=".9375">
    <path d="m58.3 844.1h948.8"/>
    <path d="m58.3 641.8h948.8"/>
    <path d="m58.3 540.6h948.8"/>
   </g>
  </g>
  <g stroke-width="5.625">
   <g stroke-linejoin="round">
    <path d="m689.8 433.2c14.6-6.7 62.3-32 79.1-32.8 16-.6 21.6 31 32.6 30.7 7.2-.2 18.3-11.9 25-20.3" stroke="#000"/>
    <path d="m689.8 433.2c-18.2 8.2-32.1 14.7-46.7 29.4-25.9 26.2-43.9 58.1-40.9 65.8 1.1 2.9 17.7 21.8 57.3-41.8l88-150.7" stroke="#060000"/>
    <path d="m826.5 410.8 146.9-177.4-110.9 198" stroke="#000"/>
    <path d="m401.2 432.1c88.5-59.2 253.5-59.1 233.6-.2" stroke="#0a0001"/>
    <path d="m747.5 335.8-112.8 96.1" stroke="#000"/>
    <path d="m862.5 431.4 118.5-97.8" stroke="#000"/>
    <path d="m991.6 333.6-55.8 97.2" stroke="#00000c"/>
    <path d="m991.6 333.6h-10.6" stroke="#00000a"/>
    <path d="m986.1 333.6-55.8 97.2" stroke="#00000c"/>
    <path d="m935.8 430.8h-10.6" stroke="#00000c"/>
    <path d="m981 333.6-55.8 97.2 11-.1" stroke="#000"/>
    <g stroke="#111">
     <path d="m211.2 408.5c1 .1 1.9.3 2.6.7.2.1.5.3.7.4 1.3 1 1.8 2.7 1 5.4-1.4 5.3-7.4 8.4-10.3 9.4-5.9 2.1-10.3-2.7-6.9-8 2.1-3.3 5.8-6.9 10.1-7.8.3-.1.6-.1.9-.1.4 0 .7-.1 1.1-.1.8 0 1.7.1 2.5.3"/>
     <path d="m81 431.9c57.8-38.1 146-97.3 183.9-141.1 15.2-17.5 23.5-35.3 19.4-45.4-2.2-5.5-6.6-8.4-17.7-8.7-15.4-.4-42.9 10.9-90.1 88.8-46.6 79.3-46.4 104.9-27.2 104.9 11.8-.8 24.2-.9 33.4-2.1 9-1.2 13.2-1.9 18.8-3"/>
    </g>
   </g>
   <path d="m248.2 242.8c-48 60-85.6 120.5-108.4 181.8" stroke="#111"/>
  </g>
  <g stroke="#111">
   <path d="m238.6 251c-6.9 7.8-15 16.6-21.7 25.1-31 39.4-59.4 87.3-76 139" stroke-width="7.5"/>
   <path d="m267.6 238c-9-2.7-14.6 1.4-19.6 6.4-5 5.1-9.2 11.2-14.7 19" stroke-width="3.75"/>
   <path d="m145.4 410.4c-3.2 11.3-2.9 14.1-1.1 16.1 1.7 1.8 4.7 3.7 11.8 3.5" stroke-width="5.625"/>
  </g>
  <g stroke="#000">
   <path d="m406.9 306.8c10.3-11.6 16.8-21.5 21.9-27.7 19.8-24 27.6-45 10.5-43.9-15.4 1-42.6 12.2-89.8 90.1-60.3 104.2-32 117.7 2.2 97.7 7.6-5.3 14.6-11.1 20.9-18" stroke-linejoin="round" stroke-width="5.625"/>
   <path d="m422.8 240.2c-48 60-84.8 118.1-107.6 179.3" stroke-width="5.625"/>
   <path d="m409.7 251.9c-38.3 44.9-70.9 94.9-92.8 154.8" stroke-width="7.5"/>
   <path d="m440.5 236c-13.1-.9-24.8 14.1-27.3 17.1" stroke-width="3.75"/>
   <g stroke-width="5.625">
    <path d="m320 407.5c-6.1 21.8-1.8 23 13.1 22.7"/>
    <path d="m477.8 235.7s-50.3 99.6-83.4 144.2c-7.8 10.5-21.8 25-21.8 25"/>
    <g stroke-linejoin="round">
     <path d="m277.9 421.2c47.3-27.5 95.6-76.7 129-114.4"/>
     <ellipse cx="-43.723015" cy="483.35614" rx="25.728558" ry="20.371416" transform="matrix(.79083574 -.61202846 .61202846 .79083574 0 0)"/>
     <path d="m255.2 431.6s-51.2 4.4-53.8-6.3"/>
    </g>
   </g>
  </g>
 </g>
</svg>
