<svg height="210mm" viewBox="0 0 1052.4 744.1" width="297mm" xmlns="http://www.w3.org/2000/svg">
 <g fill="none" stroke-linecap="round">
  <g transform="translate(0 -308.26772)">
   <path d="m57.6 742.2h948.8" stroke="#969696" stroke-width="1.875"/>
   <g stroke="#000" stroke-dasharray="3.75 7.5" stroke-miterlimit="2" stroke-width=".9375">
    <path d="m58.3 844.1h948.8"/>
    <path d="m58.3 641.8h948.8"/>
    <path d="m58.3 540.6h948.8"/>
   </g>
  </g>
  <g stroke="#000">
   <g stroke-linejoin="round">
    <g stroke-width="6.5625">
     <path d="m492 336.4-47.5 81.9"/>
     <path d="m487.4 336.4-38.7 70.9-3.8 16.5"/>
     <path d="m492 336.4h-9.3"/>
    </g>
    <path d="m388.3 431.2 94.3-95.2-38.9 72.5c-7.2 13.4 1.8 23.1 15 23 17 0 45.7-24.5 75.2-49.3 46.1-41.6 147.9-134.5 123.9-146.4-9.9-5-27.7 4.3-54.6 39.1-9.4 12.2-23 31.8-34.4 51-20.5 34.7-30.2 57.7-34 74.2-3.7 18.3.1 29.3 20.3 31.2 8 .7 40.7.4 52.9-4" stroke-width="5.625"/>
   </g>
   <path d="m453.9 404.9c-6 9.6-9.9 25.1 3.6 25.5" stroke-width="3.75"/>
   <g stroke-linejoin="round">
    <ellipse cx="757.0213" cy="-132.06943" rx="4.609393" ry="6.862875" stroke-width="5.625" transform="matrix(.72846687 .68508103 -.68508103 .72846687 0 0)"/>
    <path d="m608.1 427.1c6.6 3.9 16.7 6.7 34.8.4" stroke-width="5.625001"/>
    <ellipse cx="732.95868" cy="-111.96024" rx="4.609393" ry="6.862875" stroke-width="5.625" transform="matrix(.72846687 .68508103 -.68508103 .72846687 0 0)"/>
    <path d="m639.5 428.9c13 7.6 43.3-12.7 73.2-37.7" stroke-width="5.625001"/>
   </g>
  </g>
 </g>
</svg>
