<svg height="210mm" viewBox="0 0 1052.4 744.1" width="297mm" xmlns="http://www.w3.org/2000/svg">
 <g fill="none" stroke-linecap="round">
  <g transform="translate(0 -308.26772)">
   <path d="m57.6 742.2h948.8" stroke="#969696" stroke-width="1.875"/>
   <g stroke="#000" stroke-dasharray="3.75 7.5" stroke-miterlimit="2" stroke-width=".9375">
    <path d="m58.3 844.1h948.8"/>
    <path d="m58.3 641.8h948.8"/>
    <path d="m58.3 540.6h948.8"/>
   </g>
  </g>
  <g stroke="#000">
   <path d="m344.5 383.9c53.5-12 58.7-34.4 55.8-43.4-3.2-9.6-26.7-7-51.4 33.8-13.9 22.7-19 33.5-20.5 44.2-2.3 20.6 21.3 11.1 30.4 5.3 64.4-41.2 177-201.1 222.9-232.6" stroke-linejoin="round" stroke-width="5.625"/>
   <path d="m460.6 380.7c22.5-8.9 52.2-48.9 60.4-86.1s38.8-97.2 73.8-110.6" stroke-linejoin="round" stroke-width="5.625"/>
   <path d="m585.8 289.8s-118.1 75.5-128.2 87c-2.2 2.5-2.5 5.4 3 4" stroke-width="5.625003"/>
   <g stroke-linejoin="round" stroke-width="5.625">
    <path d="m810.8 192.8c-35.6 38.8-168.8 57.5-175.1-.3l-60.9 110"/>
    <path d="m585.8 289.8c4.7-3.2 10.9-4.5 13.1-4.6 7.3-.3 13.6 3.4 16 10.4 3.7 10.5-2.8 24.6-14.3 31.3-11.6 6.8-23.9 3.7-27.6-6.8-.7-2.1-1-4.3-1-6.5 0-2.4.5-7.2 2.8-11"/>
   </g>
  </g>
 </g>
</svg>
