<svg height="210mm" viewBox="0 0 1052.4 744.1" width="297mm" xmlns="http://www.w3.org/2000/svg">
 <g fill="none" stroke-linecap="round">
  <g transform="translate(0 -308.26772)">
   <path d="m57.6 742.2h948.8" stroke="#969696" stroke-width="1.875"/>
   <g stroke="#000" stroke-dasharray="3.75 7.5" stroke-miterlimit="2" stroke-width=".9375">
    <path d="m58.3 844.1h948.8"/>
    <path d="m58.3 641.8h948.8"/>
    <path d="m58.3 540.6h948.8"/>
   </g>
  </g>
  <g stroke="#000" stroke-linejoin="round">
   <path d="m632.8 235.3s-155.3 170.6-165.6 190.8c-1.7 3.3-.6 5.3 4.4 5.4 3 0 9.3-5 10.6-5.9 46.4-32.1 60.6-134.9 3.2-74.3" stroke-width="5.419139"/>
   <g stroke-width="5.638243">
    <path d="m515.7 336c5 32.4-11.8 63.4-31 85.5"/>
    <path d="m518.5 338.1c8.1 34.3-14 70.8-37.8 86.8"/>
    <path d="m510.9 335.1c6.4 33.6-15.3 70.5-30.2 89.8"/>
   </g>
   <path d="m503.5 335.5c7.6-3.8 6.8 10 7.2 15.3" stroke-width="2.819121"/>
   <path d="m486.4 414.6c-4.9 7.3-7.4 11.4-13.1 15.3" stroke-width="2.819121"/>
   <path d="m485.2 351.3c-1.6 1.4-9 9.4-14.4 15.1" stroke-width="5.431899"/>
  </g>
 </g>
</svg>
