<svg height="210mm" viewBox="0 0 1052.4 744.1" width="297mm" xmlns="http://www.w3.org/2000/svg">
 <g fill="none" stroke-linecap="round">
  <g transform="translate(0 -308.26772)">
   <path d="m57.6 742.2h948.8" stroke="#969696" stroke-width="1.875"/>
   <g stroke="#000" stroke-dasharray="3.75 7.5" stroke-miterlimit="2" stroke-width=".9375">
    <path d="m58.3 844.1h948.8"/>
    <path d="m58.3 641.8h948.8"/>
    <path d="m58.3 540.6h948.8"/>
   </g>
  </g>
  <g stroke-linejoin="round">
   <g stroke="#000">
    <g stroke-width="5.625">
     <path d="m235.4 385.5 21.1 45.9 94.9-47"/>
     <path d="m351.4 384.4c30.7-16 71-37.3 75.4-39.6 27.1-14.3 63.6-12 40.2 17.1-27.4 33.8-44 49.8-38 63.4 4.2 9.5 22.5 12 65.9-21.3"/>
     <path d="m494.8 404.1c9.4-7.3 23.6-17.1 30.9-11.9 7.1 5.1 15 36.8 27.7 38.8 4.8.8 9.7.5 14.3-.2 8.2-1.3 14.3-6.2 20-12.1"/>
    </g>
    <g stroke-width="4.864733">
     <path d="m512.7 392.8c10.7-5 16 6.5 20.9 24.4 3.2 11.7 10.6 14.8 22.8 14.3"/>
     <path d="m515 391.9c4.9-2.6 16.5-3.2 25.4 16.4 6.3 13.9 9.4 22.8 16 23.2"/>
     <path d="m526.5 394.9c9.3 13.2 7.4 33.2 22.1 34.2"/>
    </g>
    <path d="m587.7 418.8c24.9-28.2 94.1-127.1 125.6-159.5" stroke-width="5.625"/>
   </g>
   <g stroke-width="5.625">
    <path d="m725 332.8c-49.7 18.9-100.2 80.3-96.4 92.6.9 3 16.3 22.9 59.8-38.1 26.9-36.9 49.1-71.4 71.2-116.4 15.8-32.7-3.3-56.7-46.3-11.6" stroke="#060000"/>
    <path d="m725 332.8 68-29.2" stroke="#000"/>
   </g>
  </g>
 </g>
</svg>
