<svg height="210mm" viewBox="0 0 1052.4 744.1" width="297mm" xmlns="http://www.w3.org/2000/svg">
 <g fill="none" stroke-linecap="round">
  <g transform="translate(0 -308.26772)">
   <path d="m57.6 742.2h948.8" stroke="#969696" stroke-width="1.875"/>
   <g stroke="#000" stroke-dasharray="3.75 7.5" stroke-miterlimit="2" stroke-width=".9375">
    <path d="m58.3 844.1h948.8"/>
    <path d="m58.3 641.8h948.8"/>
    <path d="m58.3 540.6h948.8"/>
   </g>
  </g>
  <g stroke-linejoin="round" stroke-width="5.625">
   <path d="m605.5 367.8 35.2-31.7 17.8 40.1" stroke="#000"/>
   <path d="m481 336.7c-40.3 12.4-78.8 79.1-60.6 92.3 2.3 2 7.4 2.3 14.6.7 5.6-1.3 14.4-5.2 25.3-13.8" stroke="#000"/>
   <path d="m460.3 416c14.6-12.1 43.9-46.2 48.1-49.7" stroke="#060000"/>
   <path d="m508.5 366.3c10.6-12.1 23.1-29.4 40-30.3 16-.6 27 39.5 37.9 39.8 6.7.2 10.2-.5 19.1-7.9" stroke="#000"/>
  </g>
 </g>
</svg>
