<svg height="210mm" viewBox="0 0 1052.4 744.1" width="297mm" xmlns="http://www.w3.org/2000/svg">
 <g fill="none" stroke-linecap="round">
  <g transform="translate(0 -308.26772)">
   <path d="m57.6 742.2h948.8" stroke="#969696" stroke-width="1.875"/>
   <g stroke="#000" stroke-dasharray="3.75 7.5" stroke-miterlimit="2" stroke-width=".9375">
    <path d="m58.3 844.1h948.8"/>
    <path d="m58.3 641.8h948.8"/>
    <path d="m58.3 540.6h948.8"/>
   </g>
  </g>
  <g stroke="#000">
   <g stroke-width="5.625">
    <path d="m520.8 432 166.5-144.4-41.7 94.9" stroke-linejoin="round"/>
    <path d="m655.6 347.3a14.6 19.1 41.6 0 1 -10.9 23.9 14.6 19.1 41.6 0 1 -21-5.2 14.6 19.1 41.6 0 1 10.9-23.9 14.6 19.1 41.6 0 1 21 5.2z" stroke-linejoin="round"/>
    <path d="m633.8 235.5-113 196.5"/>
    <path d="m633.8 235.5c-148.2 151.2-171.9 195.4-240.5 195.7-52.2.2-54.8-33-111-31.6-56.1 1.3-104.4 32.6-104.4 32.6"/>
   </g>
   <g stroke-linejoin="round">
    <path d="m679.6 359.6c10.9-14.3 25.2-24.8 36.4-23.6 10.5 1.1 18.1 9.6 7.1 32.6-10 21.3-29.9 62.7-29.9 62.7" stroke-width="5.62496"/>
    <g stroke-width="5.625">
     <ellipse cx="827.80377" cy="-199.22269" rx="4.609393" ry="6.862875" transform="matrix(.72846687 .68508103 -.68508103 .72846687 0 0)"/>
     <path d="m693.1 431.3s41.8.9 46.5-3.9"/>
     <path d="m840.4 410.3c-13.6 12.8-24.4 21.3-36.8 21.2-11.2-.1-17.6-18.5 2.7-57.4 21.5-41 48.8-41.6 53.5-35.3 8.1 10.9-14 32.3-44.6 55-18.3 13.6-63 47.7-79.5 34.5"/>
    </g>
   </g>
  </g>
 </g>
</svg>
