<svg height="210mm" viewBox="0 0 1052.4 744.1" width="297mm" xmlns="http://www.w3.org/2000/svg">
 <g fill="none" stroke-linecap="round">
  <g transform="translate(0 -308.26772)">
   <path d="m57.6 742.2h948.8" stroke="#969696" stroke-width="1.875"/>
   <g stroke="#000" stroke-dasharray="3.75 7.5" stroke-miterlimit="2" stroke-width=".9375">
    <path d="m58.3 844.1h948.8"/>
    <path d="m58.3 641.8h948.8"/>
    <path d="m58.3 540.6h948.8"/>
   </g>
  </g>
  <g stroke="#000" stroke-linejoin="round" stroke-width="5.625">
   <path d="m413.8 431.4c11.2-23.8 26.7-41.1 51.1-43.7 30.4-3.3 45.4 10.1 35.5 43.9"/>
   <path d="m500.4 431.5 18.3-.1c1.7-.6 4.3-1.7 5.9-2.8l81.3-44.6"/>
   <path d="m525.7 415.8c1 .1 1.8.3 2.5.7.2.1.4.2.6.4 1.2.9 1.7 2.6 1 5.2-1.3 5.1-7.1 8-9.8 9-5.7 2-9.8-2.6-6.6-7.6 2-3.1 5.5-6.6 9.7-7.5.3-.1.6-.1.9-.1s.7-.1 1-.1c.8 0 1.6.1 2.4.3"/>
   <ellipse cx="244.38139" cy="765.63934" rx="27.651083" ry="21.893637" transform="matrix(.79083574 -.61202846 .61202846 .79083574 0 0)"/>
   <path d="m605.9 384.1 20 47.9 40-.2"/>
  </g>
 </g>
</svg>
