<svg height="210mm" viewBox="0 0 1052.4 744.1" width="297mm" xmlns="http://www.w3.org/2000/svg">
 <g fill="none" stroke-linecap="round">
  <g transform="translate(0 -308.26772)">
   <path d="m57.6 742.2h948.8" stroke="#969696" stroke-width="1.875"/>
   <g stroke="#000" stroke-dasharray="3.75 7.5" stroke-miterlimit="2" stroke-width=".9375">
    <path d="m58.3 844.1h948.8"/>
    <path d="m58.3 641.8h948.8"/>
    <path d="m58.3 540.6h948.8"/>
   </g>
  </g>
  <g stroke="#000" stroke-linejoin="round">
   <path d="m355.2 331.8c54.3-11 95.5-79.5 89.2-96.2-5.5-14.4-40.2 8.9-87.4 86.8l-61.6 109.7 64.6-61.4" stroke-width="5.625"/>
   <path d="m419.3 377.1c3 .3 9.7-4.2 11-5 48.9-28 71.8-129.3 9.4-73.8-2.3 2.1-77.1 70-79.7 72.5" stroke-width="5.625"/>
   <g stroke-width="5.638243">
    <path d="m471.4 285.6c2.3 32.7-17.1 62.2-38.1 82.5"/>
    <path d="m474 287.9c5.2 34.8-19.9 69.4-45 83.3"/>
    <path d="m466.7 284.3c3.6 34.1-21.2 69-37.7 86.9"/>
   </g>
   <path d="m435.5 361.5c-5.5 6.9-8.3 10.7-14.3 14.1" stroke-width="2.819121"/>
   <g stroke-width="5.625">
    <path d="m434.7 352.8c.7.1 1.2.2 1.7.4.2.1.3.2.4.3.8.6 1.1 1.8.7 3.5-.9 3.4-4.8 5.4-6.7 6.1-3.8 1.4-6.7-1.8-4.5-5.2 1.4-2.1 3.7-4.5 6.5-5.1.2 0 .4-.1.6-.1h.7c.5 0 1.1.1 1.7.2"/>
    <path d="m570.5 281.5-53.9 95.4"/>
    <path d="m570.5 281.5h-10.6"/>
    <path d="m565 281.6-53.9 95.4"/>
    <path d="m516.6 376.9h-10.6"/>
    <path d="m430.6 363.9c23.1.1 64.9-28.4 129.4-82.3l-53.9 95.4 11-.1"/>
    <path d="m517 376.8s48.2-38.7 104.4-40.1c56.1-1.3 71.3 40.1 111 39.1 23.6-.6 46.5-11.3 63.9-20.4"/>
   </g>
  </g>
 </g>
</svg>
