<svg height="210mm" viewBox="0 0 1052.4 744.1" width="297mm" xmlns="http://www.w3.org/2000/svg">
 <g fill="none" stroke-linecap="round">
  <g transform="translate(0 -308.26772)">
   <path d="m57.6 742.2h948.8" stroke="#969696" stroke-width="1.875"/>
   <g stroke="#000" stroke-dasharray="3.75 7.5" stroke-miterlimit="2" stroke-width=".9375">
    <path d="m58.3 844.1h948.8"/>
    <path d="m58.3 641.8h948.8"/>
    <path d="m58.3 540.6h948.8"/>
   </g>
  </g>
  <g stroke="#000" stroke-linejoin="round" stroke-width="5.625">
   <path d="m592.5 335.8-55.5 96"/>
   <path d="m536.9 431.8 99.1-49.5 19.5 48.9"/>
   <path d="m592.5 335.8c-28.3 28.8-79.3 76.7-92.3 86.4-7.8 5.8-17.1 9.2-24.5 9.4-7.3.8-13.7-1.8-16.3-7.4-7.2-15.5 13.7-29.8 38-59.3 8.2-9.9 8.8-18.2 5.1-23.4-1.5-2.2-3.8-3.8-6.6-4.7-2.6-.9-5.7-1.2-9-.9-14.5 1.8-23.9 12.1-32 19.7"/>
  </g>
 </g>
</svg>
