<svg height="210mm" viewBox="0 0 1052.4 744.1" width="297mm" xmlns="http://www.w3.org/2000/svg">
 <g fill="none" stroke-linecap="round">
  <g transform="translate(-16.687564 -521.16511)">
   <path d="m57.6 742.2h948.8" stroke="#969696" stroke-width="1.875"/>
   <g stroke="#000" stroke-dasharray="3.75 7.5" stroke-miterlimit="2" stroke-width=".9375">
    <path d="m58.3 844.1h948.8"/>
    <path d="m58.3 641.8h948.8"/>
    <path d="m58.3 540.6h948.8"/>
   </g>
  </g>
  <g transform="translate(-16.687564 -116.97075)">
   <path d="m57.6 742.2h948.8" stroke="#969696" stroke-width="1.875"/>
   <g stroke="#000" stroke-dasharray="3.75 7.5" stroke-miterlimit="2" stroke-width=".9375">
    <path d="m58.3 844.1h948.8"/>
    <path d="m58.3 641.8h948.8"/>
    <path d="m58.3 540.6h948.8"/>
   </g>
  </g>
  <g stroke-linejoin="round">
   <g stroke="#000" stroke-width="5.625">
    <path d="m125.9 598.5 24.6-23.1 29.6 47.9"/>
    <path d="m65.1 544.3c19.6-25.9 70.3-22.6 44.6 9-27.4 33.9-47.1 52.6-39.4 63.9 3.1 4.6 8.5 6.1 14.7 5.5 11.6-1.2 27.3-11.6 41-24.1"/>
    <path d="m180 623.3 54.9-47.9 29.2 47.3 45.9-46.2"/>
    <path d="m477.5 598c-6.8 5.3-9.8 6.9-14.9 10.3-14.5 9.6-22.4 12.2-27.9 14-55 17.3 33.8-138.4 77.9-185.1 4.7-5 11.2-10.7 18.9-11.9"/>
    <path d="m477.5 598c3.3-2.1 6.6-4 9.7-5.7 1.8-1 3.7-2 5.5-2.9 48.7-24.7 79-10.7 66.9 32.4"/>
   </g>
   <g stroke="#000001">
    <path d="m550.2 583.6c7.1 5.9 8.1 27.1 3.2 37.8" stroke-width="6.5625"/>
    <path d="m537.6 577.2c16.4 3.3 16.8 35.2 10.1 45.2" stroke-width="4.6875"/>
   </g>
  </g>
  <g stroke-width="5.625">
   <path d="m548.4 622.5 9.8.1" stroke="#000001"/>
   <g stroke="#000" stroke-linejoin="round">
    <path d="m559.5 621.8 103-93.8-56.7 94.9"/>
    <path d="m605.8 622.9 65.1-36.9"/>
    <path d="m748.8 622.7s44.6-32.4 61.8-29.2c16.2 3 15.6 40.6 40.7 25.2.8-.5 3.5-2.2 7.3-4.5"/>
    <path d="m792.4 597.6c5.4-2.4 18.6-2.2 26.5 15 5.6 12.2 13.9 9.5 20.5 9.9"/>
    <path d="m807 595.7c6.7 5.9 6.3.5 21.2 23.1"/>
    <path d="m279.9 218.4c19.4-19.8 67-84.8 91.3-93.5 21-5.4 35 2.5 12.3 40.5l-31.2 52.3"/>
    <path d="m73.1 216.9c8 .7 177.3-46.4 177.3-46.4l29.6 47.9"/>
    <path d="m44.9 145.1c15.9-32 75.6-30.6 48.2 3.3s-47.1 52.6-39.4 63.9c3.9 5.7 11.2 6.7 19.4 4.6"/>
    <path d="m352.3 217.7c18.7-7.7 65.9-32.2 84.3-33.1 17.5-.7 15 34.2 31.9 33.6 7.9-.3 13.5-8.1 18.3-12.3"/>
    <path d="m520.1 217.8c50.4-65.5 115.5-58.4 97 .6"/>
    <path d="m830.6 123.9s-3.1 1.2 3.3-1.1c16.3-5.7 36.1 3.9 18.7 25.5-27.4 33.8-45.7 41.5-40.4 59.2 1.5 5 4.7 11.8 19.1 11"/>
    <path d="m617.1 218.4 213.5-94.5"/>
    <path d="m831.4 218.5c18.8.2 67.7-34.2 86.8-35.2 18.3-.7 18.7 36.1 37.2 35.1 8.2-.5 14.2-5.4 21-11"/>
   </g>
  </g>
 </g>
</svg>
