<svg height="210mm" viewBox="0 0 1052.4 744.1" width="297mm" xmlns="http://www.w3.org/2000/svg">
 <g fill="none" stroke-linecap="round">
  <g transform="translate(0 -308.26772)">
   <path d="m57.6 742.2h948.8" stroke="#969696" stroke-width="1.875"/>
   <g stroke="#000" stroke-dasharray="3.75 7.5" stroke-miterlimit="2" stroke-width=".9375">
    <path d="m58.3 844.1h948.8"/>
    <path d="m58.3 641.8h948.8"/>
    <path d="m58.3 540.6h948.8"/>
   </g>
  </g>
  <g stroke-linejoin="round">
   <path d="m457.1 405.9c-13.5 8.1-30.2 19.1-46.6 24.2-55 17.3 33.8-138.4 77.9-185.1 4.7-5 11.2-10.7 18.9-11.9" stroke="#000" stroke-width="5.625"/>
   <path d="m457.1 405.9c3.3-2.1 6.6-4 9.7-5.7 1.8-1 3.7-2 5.5-2.9 48.7-24.7 79-10.7 66.9 32.4" stroke="#000" stroke-width="5.625"/>
   <g stroke="#000001">
    <path d="m529.8 391.4c7.1 5.9 8.1 27.1 3.2 37.8" stroke-width="6.5625"/>
    <path d="m517.2 385.1c16.4 3.3 16.8 35.2 10.1 45.2" stroke-width="4.6875"/>
   </g>
  </g>
  <g stroke-width="5.625">
   <path d="m528 430.4 9.8.1" stroke="#000001"/>
   <path d="m539.1 429.7c14.3-16.6 75-85.6 83.2-90.6 9.1-5.6 15.3-3.2 19.8 5.5 6.4 12.5 3.9 17.8 12 26.7 15.6 17 43-27.3 33.8-33.7-6.2-4.3-25.4 3.2-48.5 41.2-44.2 72.3-2 56.8 27.8 31.7" stroke="#000" stroke-linejoin="round"/>
  </g>
 </g>
</svg>
