<svg height="210mm" viewBox="0 0 1052.4 744.1" width="297mm" xmlns="http://www.w3.org/2000/svg">
 <g fill="none" stroke="#000" stroke-linecap="round">
  <g transform="translate(0 -308.26772)">
   <path d="m57.6 742.2h948.8" stroke-width="1.875"/>
   <g stroke-dasharray="3.75 7.5" stroke-miterlimit="2" stroke-width=".9375">
    <path d="m58.3 844.1h948.8"/>
    <path d="m58.3 641.8h948.8"/>
    <path d="m58.3 540.6h948.8"/>
   </g>
  </g>
  <g stroke-linejoin="round">
   <path d="m573.4 336.1-47.8 95.3" stroke-width="5.62496"/>
   <g stroke-width="5.625">
    <path d="m525.6 431.3 76.8-48 33.3 47.9"/>
    <path d="m602.4 383.3 24 48"/>
    <path d="m611.9 383.4 23.8 47.9"/>
    <path d="m608 383.2 24 48"/>
   </g>
  </g>
  <path d="m602.8 382.3h9" stroke-width="3.75"/>
  <path d="m626.2 432.2h9" stroke-width="3.75"/>
  <g stroke-linejoin="round">
   <path d="m418.4 335.9-47.8 95.2" stroke-width="5.62496"/>
   <g stroke-width="5.625">
    <path d="m370.6 431.1 76.8-48 33.3 47.9"/>
    <path d="m447.4 383.1 24 48"/>
    <path d="m456.9 383.1 23.8 47.9"/>
    <path d="m453 383 24 48"/>
   </g>
  </g>
  <path d="m447.8 382.1h9" stroke-width="3.75"/>
  <path d="m471.2 432h9" stroke-width="3.75"/>
  <path d="m573.4 336.1-92.7 94.9" stroke-linejoin="round" stroke-width="5.62496"/>
 </g>
</svg>
