<svg height="210mm" viewBox="0 0 1052.4 744.1" width="297mm" xmlns="http://www.w3.org/2000/svg">
 <g fill="none" stroke-linecap="round">
  <g transform="translate(0 -308.26772)">
   <path d="m57.6 742.2h948.8" stroke="#969696" stroke-width="1.875"/>
   <g stroke="#000" stroke-dasharray="3.75 7.5" stroke-miterlimit="2" stroke-width=".9375">
    <path d="m58.3 844.1h948.8"/>
    <path d="m58.3 641.8h948.8"/>
    <path d="m58.3 540.6h948.8"/>
   </g>
  </g>
  <g stroke="#000">
   <g stroke-linejoin="round" stroke-width="5.624999">
    <path d="m523.7 336.1s-32 60.6-36 70.9c-5.5 14.2 4.8 25.5 21.5 24.3 40.8-2.8 67.1-96.2 95.8-95.3 5.1.1 10.6 3.3 13.2 8.1 6.8 12.6 4 18.2 12.3 27.2 15.9 17.3 43.8-27.8 34.5-34.3-6.3-4.4-25.9 3.2-49.4 42-24.7 40.4-22.9 52.9-11.3 52.6 11.3 0 22.9-7.6 33-16.1"/>
    <path d="m593.8 340.2c13.2-9.1 16.9 6.3 20.4 17.9 3.2 10.5 8.7 18 23.9 17.1"/>
    <path d="m607.1 338.1c11.3 6.9 12.5 28.9 19.5 30.6"/>
   </g>
   <path d="m523.7 336.1c-31.3 34.6-61.4 75.6-92.2 90.3-7.4 3.3-14.2 4.9-20 5-18.9.3-28.2-15.7-20.8-41.2" stroke-width="5.625"/>
  </g>
 </g>
</svg>
