<svg height="210mm" viewBox="0 0 1052.4 744.1" width="297mm" xmlns="http://www.w3.org/2000/svg">
 <g fill="none" stroke-linecap="round">
  <g transform="translate(0 -308.26772)">
   <path d="m57.6 742.2h948.8" stroke="#969696" stroke-width="1.875"/>
   <g stroke="#000" stroke-dasharray="3.75 7.5" stroke-miterlimit="2" stroke-width=".9375">
    <path d="m58.3 844.1h948.8"/>
    <path d="m58.3 641.8h948.8"/>
    <path d="m58.3 540.6h948.8"/>
   </g>
  </g>
  <g stroke="#000" stroke-linejoin="round">
   <path d="m183.6 430.3 61.3-46.6 21 47.3" stroke-width="5.625"/>
   <path d="m265.9 431s61.5-35.2 81.8-34.9c20.6.2 17.9 35.2 39 34.7 17.8.4 28.4-20.9 40-39.9" stroke-width="5.625"/>
   <path d="m521.2 389.1c-17.9 11.8-105.7 41.5-86.2 43.1 3 .3 9.7-4.2 11-5 48.9-28 71.8-129.3 9.4-73.8-2.3 2.1-20.9 23.5-28.8 37.4" stroke-width="5.419139"/>
   <g stroke-width="5.638243">
    <path d="m487.1 340.8c2.3 32.7-17.1 62.2-38.1 82.5"/>
    <path d="m489.7 343.1c5.2 34.8-19.9 69.4-45 83.3"/>
    <path d="m482.4 339.5c3.6 34.1-21.2 69-37.7 86.9"/>
   </g>
   <path d="m475 339.2c7.9-3.1 5.9 10.5 5.9 15.8" stroke-width="2.819121"/>
   <path d="m451.2 416.7c-5.5 6.9-8.3 10.7-14.3 14.1" stroke-width="2.819121"/>
   <g stroke-width="5.625">
    <path d="m613.8 348c23.7-19.2 60.9-14.6 37.5 14.4-27.4 33.8-45.5 50.2-39.4 63.9 1.9 4.4 6.7 5.9 12.7 5.3"/>
    <path d="m763.5 413.6 28.6-27.8 21.4 46.2"/>
    <path d="m624.6 431.6c18.7-1.5 58-29.5 74.8-30.3 16-.6 15.2 30.5 32.6 30.7 12 .1 22.6-10.4 31.6-18.4"/>
   </g>
  </g>
 </g>
</svg>
