<svg height="210mm" viewBox="0 0 1052.4 744.1" width="297mm" xmlns="http://www.w3.org/2000/svg">
 <g stroke-linecap="round">
  <g fill="none" transform="translate(0 -308.26772)">
   <path d="m57.6 742.2h948.8" stroke="#969696" stroke-width="1.875"/>
   <g stroke="#000" stroke-dasharray="3.75 7.5" stroke-miterlimit="2" stroke-width=".9375">
    <path d="m58.3 844.1h948.8"/>
    <path d="m58.3 641.8h948.8"/>
    <path d="m58.3 540.6h948.8"/>
   </g>
  </g>
  <g stroke="#000" stroke-linejoin="round">
   <g fill="none" stroke-width="5.625">
    <ellipse cx="323.40854" cy="766.95898" rx="25.728558" ry="20.371416" transform="matrix(.79083574 -.61202846 .61202846 .79083574 0 0)"/>
    <path d="m641.3 430.8c12.5 0 68.6-36.4 68.6-36.4"/>
    <path d="m666.5 336.4-42.4 73.1c-7.6 13.1-2.1 21 8.9 21.4 1.8.1 6.1.2 8.2-.1"/>
    <path d="m719.7 387.8c27.1-24.2 70.3-59.6 104.7-86.9 83-65-28.8 162.3-88.2 186.6-9.8 4.2-13.3 2.7-13.8-.6"/>
    <path d="m206.6 348c23.7-19.2 60.9-14.6 37.5 14.4-27.4 33.8-45.5 50.2-39.4 63.9 1.5 3.4 4.8 4.6 8.8 4.7 5 .1 49.6 1.6 56.9-3.5"/>
   </g>
   <g fill="#eb0000" fill-rule="evenodd" transform="matrix(1.7715894 0 0 1.7715894 -1029.8097 77.507151)">
    <path d="m732.1 185.5c.8.1 1.4.2 1.9.5.2.1.3.2.5.3.9.7 1.3 2 .8 4-1 3.9-5.4 6.1-7.5 6.9-4.3 1.6-7.6-2-5.1-5.9 1.6-2.4 4.2-5.1 7.4-5.7.2 0 .4-.1.7-.1h.8c.6 0 1.2.1 1.9.3" stroke-width="5.625"/>
    <path d="m729.3 188.3c.3 0 .6.1.9.2.1 0 .2.1.2.1.4.3.6.9.4 1.8-.4 1.7-2.4 2.8-3.3 3.1-1.9.7-3.4-.9-2.3-2.6.7-1.1 1.9-2.3 3.3-2.6h.3.4c.3 0 .6 0 .8.1" stroke-width="4.981044"/>
   </g>
   <g fill="none" stroke-width="5.625">
    <path d="m357.5 337.7s-3.1 1.2 3.3-1.1c16.3-5.7 36.1 3.9 18.7 25.5-27.4 33.8-45.5 50.2-39.4 63.9 2.4 5.5 10 6.7 19.5 4.9"/>
    <path d="m268.7 428.5c7.3-2.1 75.6-85.5 88.8-90.7"/>
    <path d="m359.6 430.9c5.4-1.3 208.4-49.1 208.4-49.1 1.2-.3-25.9 49.6-25.9 49.6"/>
    <path d="m575 384.6-25.3 46.6"/>
    <path d="m554.1 431.1-12 .2"/>
    <path d="m581.8 381.5-27.7 49.5"/>
    <path d="m581.8 381.5-14.1-.1"/>
    <path d="m573.1 382.7-25.3 46.6"/>
    <path d="m666.5 336.4-112.5 94.6"/>
   </g>
  </g>
 </g>
</svg>
