<svg height="210mm" viewBox="0 0 1052.4 744.1" width="297mm" xmlns="http://www.w3.org/2000/svg">
 <g fill="none" stroke-linecap="round">
  <g transform="translate(0 -308.26772)">
   <path d="m57.6 742.2h948.8" stroke="#969696" stroke-width="1.875"/>
   <g stroke="#000" stroke-dasharray="3.75 7.5" stroke-miterlimit="2" stroke-width=".9375">
    <path d="m58.3 844.1h948.8"/>
    <path d="m58.3 641.8h948.8"/>
    <path d="m58.3 540.6h948.8"/>
   </g>
  </g>
  <g stroke="#000">
   <g stroke-width="5.625">
    <path d="m471.9 383.7c27.3-8.4 63.9-52.6 90.3-97.3 12.2-21.6 21.8-42 26.7-58.6 4.1-13.8 5.1-24.9 1.8-31.9-2.4-5.6-6.1-8.4-10.7-9-11.5-1.5-26.7 6-47.7 25.1-19.4 17.7-60 58.4-87.6 86.2-31.9 32.1-155.2 152.6-188.8 188.6-19.3 20.7-27.1 44.7-13 48.4 11.2 2.5 33.1-7.6 54.5-66.3 15.7-47.2 16.4-112.8 70.4-130.9" stroke-linejoin="round"/>
    <path d="m644.5 288.2c-46.1 12-84.6 95.5-45.6 95.3 11.7-.1 23.5-7.3 40.4-19.9 36.3-27.1 108.7-79.6 143-114.1 28.4-28.5 44.6-53.8 26.5-61.9-14-6.3-42.6 13.7-89.8 91.6-6.2 11.5-60.7 103.4-20.3 104.6 30.6.9 62.5-18.6 99.2-46.2" stroke-linejoin="round"/>
    <path d="m792.4 192.2c-48 60-85.3 116.9-108.1 178.2"/>
   </g>
   <path d="m781.4 202.2c-38.3 44.9-72.9 96.9-94.8 156.8" stroke-width="7.500001"/>
   <path d="m810.6 189.5c-12-5.1-22.3 10.8-27.8 15.9" stroke-width="3.75"/>
   <g stroke-width="5.625">
    <path d="m692 351.2c-4.5 9.9-5.9 18.3-4.8 23.6 1 4.7 3.7 8.3 9.7 8.7"/>
    <path d="m471.9 383.7c-3.9 1.1-4.4-1.4-2.9-3.4 5.1-7.2 153.4-86.1 175.5-92.1"/>
   </g>
  </g>
 </g>
</svg>
