<svg height="210mm" viewBox="0 0 1052.4 744.1" width="297mm" xmlns="http://www.w3.org/2000/svg">
 <g fill="none" stroke-linecap="round">
  <g transform="translate(0 -308.26772)">
   <path d="m57.6 742.2h948.8" stroke="#969696" stroke-width="1.875"/>
   <g stroke="#000" stroke-dasharray="3.75 7.5" stroke-miterlimit="2" stroke-width=".9375">
    <path d="m58.3 844.1h948.8"/>
    <path d="m58.3 641.8h948.8"/>
    <path d="m58.3 540.6h948.8"/>
   </g>
  </g>
  <path d="m395 431.5c15.4-9.4 45.8-34.9 70.4-31.6 18.1 2.4 23.1 33 38.4 31.3 4-.4 8.7-3.1 14.4-8.9 4-4 15.4-16.5 44.1-60.1 0 0 61.2-92.2 67.3-101.1 8.6-12.6 18.2-25.3 30.6-25.8 13.4-.6 16.2 26.6 31.3 26.1 4.8-.1 11.1-3.9 19.6-13.3" stroke="#000" stroke-linejoin="round" stroke-width="5.625"/>
 </g>
</svg>
