<svg height="210mm" viewBox="0 0 1052.4 744.1" width="297mm" xmlns="http://www.w3.org/2000/svg">
 <g fill="none" stroke-linecap="round" transform="translate(0 -308.26772)">
  <path d="m57.6 742.2h948.8" stroke="#969696" stroke-width="1.875"/>
  <g stroke="#000">
   <g stroke-dasharray="3.75 7.5" stroke-miterlimit="2" stroke-width=".9375">
    <path d="m58.3 844.1h948.8"/>
    <path d="m58.3 641.8h948.8"/>
    <path d="m58.3 540.6h948.8"/>
   </g>
   <g stroke-linejoin="round" stroke-width="5.625">
    <path d="m301.8 739.5c50.4-65.5 115.5-58.4 97 .6l53.6-.6"/>
    <path d="m459.2 727.2c.8.1 1.4.2 1.9.5.2.1.3.2.5.3.9.7 1.3 2 .8 4-1 3.9-5.4 6.1-7.5 6.9-4.3 1.6-7.6-2-5.1-5.9 1.6-2.4 4.2-5.1 7.4-5.7.2 0 .4-.1.7-.1s.5-.1.8-.1c.6 0 1.2.1 1.9.3"/>
    <path d="m462.2 732.5 105.3-189.5"/>
    <path d="m665.7 504.8c-25.9 17.2-71.2 77.2-86.7 77.9-8.4.4-13.9-11.7-11.5-39.6"/>
    <path d="m687.5 493c-40.3 12.4-78.4 76.4-60.2 89.6 6.3 5.3 55 6.8 69.4 3.3 8-1.9 33.7-23.1 49.8-42.3"/>
    <path d="m696.5 576.8c.6.2 1.1.4 1.5.7l.3.3c.6.7.7 1.8 0 3.3-1.4 3-5.3 4.1-7.1 4.4-3.7.6-5.7-2.7-3.2-5.4 1.6-1.7 4.1-3.4 6.8-3.5h.5c.2 0 .4 0 .6.1.5.1 1 .3 1.5.5"/>
    <path d="m677.1 578.2c.6.2 1.1.4 1.5.7l.3.3c.6.7.7 1.8 0 3.3-1.4 3-5.3 4.1-7.1 4.4-3.7.6-5.7-2.7-3.2-5.4 1.6-1.7 4.1-3.4 6.8-3.5h.5c.2 0 .4 0 .6.1.5.1 1 .3 1.5.5"/>
   </g>
  </g>
 </g>
</svg>
