<svg height="210mm" viewBox="0 0 1052.4 744.1" width="297mm" xmlns="http://www.w3.org/2000/svg">
 <g fill="none" stroke-linecap="round">
  <g transform="translate(0 -308.26772)">
   <path d="m57.6 742.2h948.8" stroke="#969696" stroke-width="1.875"/>
   <g stroke="#000" stroke-dasharray="3.75 7.5" stroke-miterlimit="2" stroke-width=".9375">
    <path d="m58.3 844.1h948.8"/>
    <path d="m58.3 641.8h948.8"/>
    <path d="m58.3 540.6h948.8"/>
   </g>
  </g>
  <g stroke="#000">
   <g stroke-linejoin="round">
    <g stroke-width="5.625">
     <path d="m154.4 430.8c88.5-59.2 253.5-59.1 233.6-.2"/>
     <path d="m388 430.6 75.4-94.7-39.4 94.9 252.7-97.4"/>
     <path d="m676.7 333.4c54.3-11 95.5-79.5 89.2-96.2-5.5-14.4-40.2 8.9-87.4 86.8-66.8 115.3-38.6 122.7 2.1 88.6 1.7-1.4 21.8-19.9 29.7-28.6"/>
    </g>
    <path d="m710.2 384c10.9-10.9 39.3-48.5 39.3-48.5" stroke-width="5.624959"/>
    <g stroke-width="5.625">
     <path d="m755 335.5 28.3 41.1c12.2 16.6 12 33 10.1 43.7-1.6 11-3.2 18.9-11.2 29.4-4.7 6.1-18.9 26.8-29.1 35.8"/>
     <path d="m749.5 335.5 15.2 21.2c10.6 14.4 12.6 16.7 20.7 31.3 6.8 15 10.2 29.5 3.6 49.8"/>
     <path d="m760.4 335.5s26.7 39.5 28.7 42.6c8 15.7 9.2 26.6 7.4 37.3-2.2 12.2-5.6 22.9-13.8 33.5"/>
    </g>
   </g>
   <path d="m760.4 335.5h-10.9" stroke-width="5.625"/>
  </g>
 </g>
</svg>
