<svg height="210mm" viewBox="0 0 1052.4 744.1" width="297mm" xmlns="http://www.w3.org/2000/svg">
 <g fill="none" stroke-linecap="round">
  <g transform="translate(0 -308.26772)">
   <path d="m57.6 742.2h948.8" stroke="#969696" stroke-width="1.875"/>
   <g stroke="#000" stroke-dasharray="3.75 7.5" stroke-miterlimit="2" stroke-width=".9375">
    <path d="m58.3 844.1h948.8"/>
    <path d="m58.3 641.8h948.8"/>
    <path d="m58.3 540.6h948.8"/>
   </g>
  </g>
  <g stroke="#000">
   <g stroke-linejoin="round" stroke-width="6.5625">
    <path d="m412.9 336.4-47.5 81.9"/>
    <path d="m408.2 336.4-38.7 70.9-3.8 16.5"/>
    <path d="m412.9 336.4h-9.3"/>
   </g>
   <path d="m374.7 405c-6 9.6-9.9 25.1 3.6 25.5" stroke-width="3.75"/>
   <g stroke-linejoin="round">
    <path d="m661.9 281.4c-11.5 21.5-39 69.9-54.2 94.8" stroke-width="8.4375"/>
    <path d="m551 429.3c17.6-7.4 30.5-22.8 43.2-39.5 5.5-7.3 12-16.7 20.5-29.8" stroke-width="3.75"/>
    <path d="m656.4 294.9-54.8 90.9" stroke-width="5.625"/>
    <path d="m670.2 236.4c5.1 7.4-2.4 28.2-11.3 46.7" stroke-width="4.6875"/>
    <path d="m549.3 430.8c56.5-18.2 133.1-164.6 122.4-192.5-1.1-2.8-3.1-4.4-6.1-4.6-9.1-1.9-22.2 4.4-35.4 15.9-8.8 7.6-20.4 18.4-31 28.9-27.4 27.3-82.9 80.9-129.7 125.4-39.1 37.2-75.5 68.4-92.6 95.4-9.2 14.5-12.2 27.2-2.3 32.5 15.1 5.9 33.2-15.2 46.8-38.3 5.9-10 12.6-23.7 19.2-38.9 14.3-32.8 28.4-72 33.9-92.3 27.2-101 70.2-134.9 87.3-124.8 9.6 5.7 6.3 33.3-16 59.3-11.9 13.8-39.8 37.9-65.1 61.7-39.4 37-71.3 73.8-101.1 72.9-13.2.1-22.2-9.6-15-23l38.9-72.5-94.3 95.2" stroke-width="5.625"/>
    <path d="m549.3 430.8c-4.1 1.5-7-2.5-2.9-5 17-10.2 102.1-33.6 114.1-30.4 15.7 4.3 13.6 35.7 29.5 35.9 5.5 0 13.1-3.7 24.4-13.5" stroke-width="5.624999"/>
   </g>
  </g>
 </g>
</svg>
