<svg height="210mm" viewBox="0 0 1052.4 744.1" width="297mm" xmlns="http://www.w3.org/2000/svg">
 <g fill="none" stroke-linecap="round">
  <g transform="translate(0 -308.26772)">
   <path d="m57.6 742.2h948.8" stroke="#969696" stroke-width="1.875"/>
   <g stroke="#000" stroke-dasharray="3.75 7.5" stroke-miterlimit="2" stroke-width=".9375">
    <path d="m58.3 844.1h948.8"/>
    <path d="m58.3 641.8h948.8"/>
    <path d="m58.3 540.6h948.8"/>
   </g>
  </g>
  <g stroke="#000" stroke-linejoin="round">
   <path d="m331.6 431c9.4-1 242.7-30.1 255.7-31.3" stroke-width="5.624959"/>
   <path d="m357.9 334.2c54.3-11 95.5-79.5 89.2-96.2-5.5-14.4-40.3 8.9-87.4 86.8-47.5 82-46.9 109.4-28 106.1" stroke-width="5.625"/>
   <path d="m587.4 399.5c5.3-1.1 10.1-1.2 13.7.6 7.1 4 15 29.4 27.7 30.9 13.4 1.7 27.9-2.2 35.8-7" stroke-width="5.625"/>
   <g stroke-width="4.342993">
    <path d="m587.3 399.6c10.7-4 16.8 6.2 21.8 20.5 3.2 9.3 10.6 11.8 22.8 11.4"/>
    <path d="m590.3 399c5.3-1 16.6-1.6 25.5 14 6.3 11 9.4 18.1 16 18.5"/>
    <path d="m601.9 402.3c9.3 10.5 7.4 26.5 22.1 27.3"/>
   </g>
   <path d="m664.6 424.1c17.6-8.6 40.3-24.2 55.3-24.9 17.7-.7 19.9 31 38.6 32.1 9.8.6 15.8-3.9 20.9-10" stroke-width="5.625"/>
  </g>
 </g>
</svg>
