<svg height="210mm" viewBox="0 0 1052.4 744.1" width="297mm" xmlns="http://www.w3.org/2000/svg">
 <g fill="none" stroke-linecap="round">
  <g transform="translate(0 -308.26772)">
   <path d="m57.6 742.2h948.8" stroke="#969696" stroke-width="1.875"/>
   <g stroke="#000" stroke-dasharray="3.75 7.5" stroke-miterlimit="2" stroke-width=".9375">
    <path d="m58.3 844.1h948.8"/>
    <path d="m58.3 641.8h948.8"/>
    <path d="m58.3 540.6h948.8"/>
   </g>
  </g>
  <g stroke="#000" stroke-linejoin="round" stroke-width="5.625">
   <path d="m480.2 408.8c8-4.1 15.2-7.2 18.8-7.5 24.4-1.9 10.8 34.4 33.3 30.2"/>
   <path d="m532.3 431.4c16.7-.9 64.8-29 75.5-29.7 18.6-.6 11.6 33.4 34.1 29.2 9.2-1.7 16.3-8.1 22.6-15.6"/>
   <path d="m519.7 234.5c-34.9 58.9-69.6 117.8-104 177-11.9 20.5 10 23.2 29 16.4 6.3-1.7 14.9-6.7 35.5-19.2"/>
   <ellipse cx="483.11603" cy="694.38159" rx="60.527184" ry="43.482174" transform="matrix(.88109295 -.47294313 .47294313 .88109295 0 0)"/>
   <path d="m712.2 361.4-47.6 53.9"/>
   <path d="m819.8 320.6c.8.1 1.4.2 1.9.5.2.1.3.2.5.3.9.7 1.3 2 .8 4-1 3.9-5.4 6.1-7.5 6.9-4.3 1.6-7.6-2-5.1-5.9 1.6-2.4 4.2-5.1 7.4-5.7.2 0 .4-.1.7-.1s.5-.1.8-.1c.6 0 1.2.1 1.9.3"/>
   <path d="m813 332.9-47.8 2.8"/>
  </g>
 </g>
</svg>
