<svg height="210mm" viewBox="0 0 1052.4 744.1" width="297mm" xmlns="http://www.w3.org/2000/svg">
 <g fill="none" stroke-linecap="round">
  <g transform="translate(0 -308.26772)">
   <path d="m57.6 742.2h948.8" stroke="#969696" stroke-width="1.875"/>
   <g stroke="#000" stroke-dasharray="3.75 7.5" stroke-miterlimit="2" stroke-width=".9375">
    <path d="m54.5 838.5h948.9"/>
    <path d="m58.3 641.8h948.8"/>
    <path d="m58.3 540.6h948.8"/>
   </g>
  </g>
  <g stroke-width="5.625">
   <path d="m335.6 353.2c-24.1 13.4-156.4 175.1-156.4 175.1" stroke="#000"/>
   <g stroke-linejoin="round">
    <path d="m363.3 337.1c-51.9 13.5-96.5 122.6-34.3 87.6 5.7-3.2 23.3-12.6 40.2-39.4" stroke="#000"/>
    <path d="m369.2 385.4c4.9-8.9 12.7-20 14.9-23.1 9-12.3 20.2-29.2 36.4-26.6 12.9 2.1 16 30 30.8 29.5 9-.3 16.2-5.4 27.4-13" stroke="#010000"/>
    <path d="m500.4 430.1c4.7-.9 282-91.8 282-91.8l-55.9 92.8 73.1-42" stroke="#000"/>
    <path d="m478.7 352.1c19.1-13.2 115.9-77 127.6-89.4 8.2-8.7 12.3-18.3 5-24.4-14.4-12.1-36.8-2.1-45.5 22.4-4.9 13.8-3.1 34.6-6.7 53.9-3.7 20-43.6 46.6-64.3 69.8-23.6 26.4-24.4 54 5.6 45.6" stroke="#000"/>
   </g>
  </g>
 </g>
</svg>
