<svg height="210mm" viewBox="0 0 1052.4 744.1" width="297mm" xmlns="http://www.w3.org/2000/svg">
 <g fill="none" stroke-linecap="round">
  <g transform="translate(0 -308.26772)">
   <path d="m57.6 742.2h948.8" stroke="#969696" stroke-width="1.875"/>
   <g stroke="#000" stroke-dasharray="3.75 7.5" stroke-miterlimit="2" stroke-width=".9375">
    <path d="m58.3 844.1h948.8"/>
    <path d="m58.3 641.8h948.8"/>
    <path d="m58.3 540.6h948.8"/>
   </g>
  </g>
  <g stroke-linejoin="round">
   <path d="m537.2 429.6c-3 .6-7.2 1.3-12.9 1.6-19.5 1-67.7 0-70.4.1l-58.2.1" stroke="#02000c" stroke-width="5.625"/>
   <g stroke="#000">
    <path d="m395.7 431.4c43.9-15.9 71.5-94.7 46.6-94.9-7.2-.1-18.9 6.5-35.8 23.2" stroke-width="5.625001"/>
    <ellipse cx="623.18036" cy="-10.330492" rx="5.271423" ry="7.848564" stroke-width="14.034715" transform="matrix(.72846687 .68508103 -.68508103 .72846687 0 0)"/>
    <g stroke-width="5.625">
     <path d="m559.8 395.1a19.2 25.1 41.6 0 1 -14.3 31.3 19.2 25.1 41.6 0 1 -27.6-6.8 19.2 25.1 41.6 0 1 14.3-31.3 19.2 25.1 41.6 0 1 27.6 6.8z"/>
     <path d="m627.5 381.6-83 45.3"/>
    </g>
   </g>
  </g>
 </g>
</svg>
