<svg height="210mm" viewBox="0 0 1052.4 744.1" width="297mm" xmlns="http://www.w3.org/2000/svg">
 <g fill="none" stroke-linecap="round">
  <g transform="translate(0 -308.26772)">
   <path d="m57.6 742.2h948.8" stroke="#969696" stroke-width="1.875"/>
   <g stroke="#000" stroke-dasharray="3.75 7.5" stroke-miterlimit="2" stroke-width=".9375">
    <path d="m58.3 844.1h948.8"/>
    <path d="m58.3 641.8h948.8"/>
    <path d="m58.3 540.6h948.8"/>
   </g>
  </g>
  <g stroke-linejoin="round" stroke-width="5.625">
   <path d="m614.3 192.4-159.2 225.5" stroke="#000"/>
   <path d="m469.6 338.2c-52.1 13.6-95.6 119.1-33.5 87.2 23.1-13 39.9-28.4 53.9-34.5" stroke="#000"/>
   <path d="m377.7 336.4-39 72.4c-6.8 12.6.8 22 12.7 22.9 26.6 2 69.1-62.5 90.2-77.5" stroke="#000700"/>
   <g stroke="#000">
    <ellipse cx="242.22043" cy="620.74292" rx="62.130169" ry="44.633743" transform="matrix(.88109295 -.47294313 .47294313 .88109295 0 0)"/>
    <path d="m791.9 184.8-180.6 10.5"/>
    <ellipse cx="496.85107" cy="646.66083" rx="25.728558" ry="20.371416" transform="matrix(.79083574 -.61202846 .61202846 .79083574 0 0)"/>
    <ellipse cx="574.66595" cy="-280.12598" rx="4.609393" ry="6.862874" transform="matrix(.72846687 .68508103 -.68508103 .72846687 0 0)"/>
   </g>
  </g>
 </g>
</svg>
