<svg height="210mm" viewBox="0 0 1052.4 744.1" width="297mm" xmlns="http://www.w3.org/2000/svg">
 <g fill="none" stroke-linecap="round">
  <g transform="translate(0 -308.26772)">
   <path d="m57.6 742.2h948.8" stroke="#969696" stroke-width="1.875"/>
   <g stroke="#000" stroke-dasharray="3.75 7.5" stroke-miterlimit="2" stroke-width=".9375">
    <path d="m58.3 844.1h948.8"/>
    <path d="m58.3 641.8h948.8"/>
    <path d="m58.3 540.6h948.8"/>
   </g>
  </g>
  <g stroke-linejoin="round" stroke-width="5.625">
   <g stroke="#000">
    <path d="m620.3 382.7 25.2-37.6"/>
    <path d="m593.7 335-42.8 75c-11.8 20.6 8.4 28.4 31.3 14.4 13.8-9.8 30.4-30.4 38.1-41.6"/>
    <path d="m642.7 335.8c1 .1 1.8.3 2.5.7.2.1.4.2.6.4 1.2.9 1.7 2.6 1 5.2-1.3 5.1-7.1 8-9.8 9-5.7 2-9.8-2.6-6.6-7.6 2-3.1 5.5-6.6 9.7-7.5.3-.1.6-.1.9-.1s.7-.1 1-.1c.8 0 1.6.1 2.4.3"/>
    <path d="m635.5 352c26-4 70.2-15.4 75.9-18.9 13.3-8.1 42.2-26.6 36.9-44.3"/>
   </g>
   <path d="m714 377.8c9-4.5 39.2-10.8 37.2.5 0 .2.1.4.1.7 0 1.4-.6 2.7-2.1 3.8-2.9 2.2-6.9.8-8.5-.4-3.3-.5-1-11.9 0-10.6 1.7 2.4 0 0 8.8 2.8.2.1.3.3.4.5.2.2.4.7.6.9.3.5.4.9.7 1.6" stroke="#00001f"/>
   <path d="m748.3 288.7c-3.2-7.1-35.1-6.6-56.6 34-23.8 44.5-14.4 60.4-.8 60.6 12.1-1.8 17.7-4 29.2-7.7" stroke="#000"/>
   <path d="m750.9 378.4a5.5 1.8 0 0 1 -5.5 1.8 5.5 1.8 0 0 1 -5.5-1.8 5.5 1.8 0 0 1 5.4-1.8 5.5 1.8 0 0 1 5.5 1.8h-5.5z" stroke="#000"/>
   <path d="m519 389.3c28.1-16.3 64.1-44.7 74.7-54.3" stroke="#000008"/>
   <path d="m519 389.3c-129.1 61.7-241.3 51.2-244.9-.3" stroke="#000"/>
  </g>
 </g>
</svg>
