<svg height="210mm" viewBox="0 0 1052.4 744.1" width="297mm" xmlns="http://www.w3.org/2000/svg">
 <g fill="none" stroke-linecap="round">
  <g transform="translate(0 -308.26772)">
   <path d="m57.6 742.2h948.8" stroke="#969696" stroke-width="1.875"/>
   <g stroke="#000" stroke-dasharray="3.75 7.5" stroke-miterlimit="2" stroke-width=".9375">
    <path d="m58.3 844.1h948.8"/>
    <path d="m58.3 641.8h948.8"/>
    <path d="m58.3 540.6h948.8"/>
   </g>
  </g>
  <g stroke="#000">
   <g stroke-linejoin="round">
    <path d="m407.9 431c-4.9 1.2-7.2-3.3-2.8-5.5 15.3-7.7 289.2-39.6 289.2-39.6" stroke-width="5.625001"/>
    <path d="m407.9 431c43.9-15.9 71.5-94.7 46.6-94.9-7.2-.1-18.9 6.5-35.8 23.2" stroke-width="5.419139"/>
    <g stroke-width="5.625">
     <path d="m248.2 431.3s44.6-32.4 61.8-29.2 16 46.2 45.6 21.5"/>
     <path d="m295.6 404.4c5.4-2.4 14.4-.8 22.3 16.5 5.6 12.2 16.2 10.3 22.8 10.3"/>
     <path d="m306.7 404.1c7.6 3.9 5 .9 19.8 23.5"/>
    </g>
    <path d="m355.7 423.6c13.5-12.5 51-52.3 63-64.4" stroke-width="5.624999"/>
    <g stroke-width="5.625">
     <path d="m705.1 386c23.8 35.6 58.9 71.8 62.4 95.4.7 5.4-1 14-3.6 21.9"/>
     <path d="m729.1 532.8c24.4-11 37.7-23.5 37-43.2-.6-15.2-13.1-36.3-21.1-45.8-9.5-11.7-46.9-57.8-46.9-57.8"/>
     <path d="m694.3 386c12.2 20 42.6 51.3 59.5 79.1 7 11.6 15.5 30.8 7.1 44.2"/>
    </g>
   </g>
   <path d="m705.1 386h-10.9" stroke-width="5.625"/>
  </g>
 </g>
</svg>
