<svg height="210mm" viewBox="0 0 1052.4 744.1" width="297mm" xmlns="http://www.w3.org/2000/svg">
 <g fill="none" stroke-linecap="round">
  <g transform="translate(0 -308.26772)">
   <path d="m57.6 742.2h948.8" stroke="#969696" stroke-width="1.875"/>
   <g stroke="#000" stroke-dasharray="3.75 7.5" stroke-miterlimit="2" stroke-width=".9375">
    <path d="m58.3 844.1h948.8"/>
    <path d="m58.3 641.8h948.8"/>
    <path d="m58.3 540.6h948.8"/>
   </g>
  </g>
  <g stroke="#000">
   <g stroke-linejoin="round">
    <path d="m348.6 383.5c4.4-.8 10.1-2.1 13.8-3.2 37.6-10.8 45.6-32.4 42.9-40.5-3.2-9.6-26.7-7-51.4 33.8-26.7 43.6-24.1 56.7-10.9 56.6 18.1-.2 51.5-19.9 89-49.1" stroke-width="5.624999"/>
    <path d="m405.4 340c-2.1-7.2-17.1-7.3-31.3 4.2-7.5 6-15.8 15.6-24.4 29.6-26.7 43.6-24 57.7-10.9 56.6" stroke-width="5.624999"/>
    <path d="m328.9 420.7c-.8 8.5 5.6 11.4 12.1 10.9 3.6-.3 6.1-.3 12.5-2.6" stroke-width="4.6875"/>
    <path d="m405.4 340c-1.6-4.5-6.5-6.5-15.8-2-9.4 4.5-21.5 15.4-33.9 35.8-9.7 15.8-15.5 27.7-18.3 36.4-2.8 8.5-2.8 13.9-.8 17 1.6 2.5 4.1 4 12.1 2.4" stroke-width="5.624999"/>
   </g>
   <path d="m432 381.1-84.2 152" stroke-width="5.625"/>
   <g stroke-linejoin="round">
    <path d="m483.3 335.8s-27.1 59-32.8 73.1c-1.9 4.9-2 10-.4 14 1.5 3.5 4.4 6.2 7.2 7.2 6.4 2.3 23.5.5 39.2-5.4" stroke-width="5.624999"/>
    <ellipse cx="648.80048" cy="-34.572216" rx="4.609393" ry="6.862875" stroke-width="5.625" transform="matrix(.72846687 .68508103 -.68508103 .72846687 0 0)"/>
    <path d="m611.9 284.3s-31.1 62.1-35.1 72.5c-5.5 14.2 4 23.1 17.2 23" stroke-width="5.624999"/>
    <g stroke-width="5.625">
     <path d="m493.5 425.7c11.1 11.1 30-23.6 118.4-141.4"/>
     <path d="m594 379.7c28.2 1 60.9-30.8 81.8-30.9 16-.6 18.8 30.9 32.6 30.7 8.7-.1 14.1-5.3 19.4-11.5"/>
    </g>
   </g>
  </g>
 </g>
</svg>
