<svg height="210mm" viewBox="0 0 1052.4 744.1" width="297mm" xmlns="http://www.w3.org/2000/svg">
 <g fill="none" stroke-linecap="round">
  <g transform="translate(0 -308.26772)">
   <path d="m57.6 742.2h948.8" stroke="#969696" stroke-width="1.875"/>
   <g stroke="#000" stroke-dasharray="3.75 7.5" stroke-miterlimit="2" stroke-width=".9375">
    <path d="m58.3 844.1h948.8"/>
    <path d="m58.3 641.8h948.8"/>
    <path d="m58.3 540.6h948.8"/>
   </g>
  </g>
  <g stroke="#000">
   <g stroke-linejoin="round" stroke-width="5.625">
    <path d="m591.1 414.6c8 1.3 13.9-1.7 37.9-13.1 70.9-33.6 209.2-99.2 216.8-103.2 10.4-5.4 28.7-12.9 33.7-14.7 6.6-2.4 11.7-3.2 15.5-2.7 5.5.7 8.4 4.1 9.1 9.3.6 4.2-.2 9.6-2.2 15.6-7.9 24.2-34.2 59.1-60.8 71.5"/>
    <path d="m595.1 413.7c-16.5 12.6-33.9 17.7-54.9 17.5-20.1-.2-37.2-14.5-38.4-39.4"/>
    <ellipse cx="712.47748" cy="-109.18943" rx="4.609393" ry="6.862874" transform="matrix(.72846687 .68508103 -.68508103 .72846687 0 0)"/>
   </g>
   <path d="m501.7 391.8-80.4 39.6" stroke-width="5.625001"/>
   <g stroke-width="5.625">
    <path d="m351.7 385 23.5 46" stroke-linejoin="round"/>
    <path d="m351.7 385-81.2 149.1"/>
    <path d="m375.2 431 87.2-94.4-41.1 94.9" stroke-linejoin="round"/>
   </g>
  </g>
 </g>
</svg>
