<svg height="210mm" viewBox="0 0 1052.4 744.1" width="297mm" xmlns="http://www.w3.org/2000/svg">
 <g fill="none" stroke-linecap="round">
  <g transform="translate(0 -308.26772)">
   <path d="m57.6 742.2h948.8" stroke="#969696" stroke-width="1.875"/>
   <g stroke="#000" stroke-dasharray="3.75 7.5" stroke-miterlimit="2" stroke-width=".9375">
    <path d="m58.3 844.1h948.8"/>
    <path d="m58.3 641.8h948.8"/>
    <path d="m58.3 540.6h948.8"/>
   </g>
  </g>
  <path d="m277.5 430.8c12.4-24.5 24.9-35.3 41.2-41.9 33.1-13.3 58.2 3 45.9 42.5" stroke="#000" stroke-linejoin="round" stroke-width="5.625"/>
  <g stroke="#00000c">
   <g stroke-linejoin="round" stroke-width="5.625">
    <path d="m364.6 431.4 80.3-48.2 33.3 47.9"/>
    <path d="m444.9 383.2 24 48"/>
    <path d="m454.3 383.2 23.8 47.9"/>
    <path d="m450.4 383.1 24 48"/>
   </g>
   <g stroke-width="3.75">
    <path d="m447.1 382.1h7.1"/>
    <path d="m470.6 432.1h7.1"/>
   </g>
  </g>
  <g stroke="#000" stroke-linejoin="round" stroke-width="5.625">
   <path d="m478.6 430.6 103.3-94.3"/>
   <path d="m581.9 336.3-56.7 94.9 72.3-12.7"/>
   <path d="m597.5 418.5c44-7.2 71.6-13.5 82.7-13.2 16.9.3 16.7 44.6 48.6 16.9"/>
  </g>
 </g>
</svg>
