<svg height="210mm" viewBox="0 0 1052.4 744.1" width="297mm" xmlns="http://www.w3.org/2000/svg">
 <g fill="none" stroke-linecap="round">
  <g stroke="#969696" transform="translate(0 -308.26772)">
   <path d="m57.6 742.2h948.8" stroke-width="1.875"/>
   <g stroke-dasharray="3.75 7.5" stroke-miterlimit="2" stroke-width=".9375">
    <path d="m58.3 844.1h948.8"/>
    <path d="m58.3 641.8h948.8"/>
    <path d="m58.3 540.6h948.8"/>
   </g>
  </g>
  <g stroke="#000">
   <g stroke-linejoin="round">
    <path d="m402.1 431.5c27.5-31.1 92.4-106.3 103.6-119.2 15-17.8 32.5-29.3 43.2-29.1 12.4.2 12.3 17.3 5.9 36-14.7 43-41.1 81.5-68 118.4-30.2 41-50.1 47.2-57.1 40.9-13.5-11.4 4.2-35.9 29.2-55.1 13.2-11.3 45.9-34.3 65.4-41.7" stroke-width="5.625001"/>
    <path d="m448.6 336.1-46.6 95.4" stroke-width="5.624999"/>
    <g stroke-width="5.625">
     <path d="m524.5 373.1c17.7-2.3 35.5-20 53.8-31.7 3.7-2.4 7.7-3.9 13.6-4.7 7.1-1 13.4 1.8 15.9 7.2 5.4 11.7-5.4 22.6-21.5 40.1s-26.9 28.4-21.5 40.1c2.5 5.5 8.8 8 15.9 7.2 11.5-1.3 17.7-9.1 20.6-16.9 2.5-6.8 4.9-22.9-1.4-33.1-5.3-8.4-11.3-9.1-18-8.1-10.4 1.6-19.7 9.4-21.2 16-2.7 11.7 7.1 21.3 20.8 21.7 12.1.3 38.8-3.5 70.6-24.9"/>
     <ellipse cx="634.90826" cy="-92.980049" rx="4.609393" ry="6.862875" transform="matrix(.72846687 .68508103 -.68508103 .72846687 0 0)"/>
    </g>
   </g>
   <path d="m605.1 340.1c10.6 10.8 4.4 27.5-12.2 43.6-14.2 13.9-23.1 26.1-29.2 38.3" stroke-width="5.559495"/>
   <path d="m606.6 342.1c.8 2.6 1.2 7.2-.7 12.1-3.2 8.3-12.7 17.6-18.1 22.7-10.6 10-30.2 28.6-24.1 45.2" stroke-width="5.559495"/>
   <g stroke-width="2.779747">
    <path d="m593.9 337.9c11.2-.1 12.8 7.6 11.4 13.5"/>
    <path d="m569.9 413.9c-3.2 4.6-4.3 13.8 4.1 15.7"/>
    <path d="m561.2 416.1c-.2 7 4.4 12.2 6.4 13.5"/>
   </g>
  </g>
 </g>
</svg>
