<svg height="210mm" viewBox="0 0 1052.4 744.1" width="297mm" xmlns="http://www.w3.org/2000/svg">
 <g fill="none" stroke-linecap="round">
  <g stroke="#969696" transform="translate(0 -308.26772)">
   <path d="m57.6 742.2h948.8" stroke-width="1.875"/>
   <g stroke-dasharray="3.75 7.5" stroke-miterlimit="2" stroke-width=".9375">
    <path d="m58.3 844.1h948.8"/>
    <path d="m58.3 641.8h948.8"/>
    <path d="m58.3 540.6h948.8"/>
   </g>
  </g>
  <g stroke="#000" stroke-linejoin="round">
   <ellipse cx="628.51581" cy="-7.152001" rx="4.609393" ry="6.862875" stroke-width="5.625" transform="matrix(.72846687 .68508103 -.68508103 .72846687 0 0)"/>
   <path d="m462.2 431.3c8.9-1 13-9.1 17.6-15.5 7.5-10.5 13.5-19.9 17.6-25.5 17.8-24.8 39.4-52.1 64.3-53.8 20.3-.1 32.2 15.6 41.1 34.3 7.7 16.9 14.5 36 22.5 47.4 6.5 9.2 15.1 13.4 23.7 13.1 31.6-1 58.7-27.1 70.4-43.6" stroke-width="5.625"/>
   <path d="m347.1 431.5c16.2-35.9 38.5-48.4 65.2-46.7 20.2 1.3 35.2 17.9 28.1 46.4h21.9" stroke-width="5.624999"/>
  </g>
 </g>
</svg>
