<svg height="210mm" viewBox="0 0 1052.4 744.1" width="297mm" xmlns="http://www.w3.org/2000/svg">
 <g fill="none" stroke-linecap="round">
  <g transform="translate(0 -308.26772)">
   <path d="m57.6 742.2h948.8" stroke="#969696" stroke-width="1.875"/>
   <g stroke="#000" stroke-dasharray="3.75 7.5" stroke-miterlimit="2" stroke-width=".9375">
    <path d="m58.3 844.1h948.8"/>
    <path d="m58.3 641.8h948.8"/>
    <path d="m58.3 540.6h948.8"/>
   </g>
  </g>
  <g stroke-linejoin="round">
   <g stroke="#000">
    <path d="m491.4 336.8c-36.1 11.7-76.7 91.2-52.3 94.1 6.6.8 19.1-2.5 35.2-17.1l29.4-26.5" stroke-width="5.475465"/>
    <path d="m503.8 387.3s17.6-17.1 18.3-17.8c57.9-51.3 106-43.9 88.5 10.6" stroke-width="5.475465"/>
    <path d="m369.6 424.5c12.5-8.3 65.2-59.3 113.8-83.4" stroke-width="5.625"/>
   </g>
   <g stroke="#010000">
    <path d="m382.5 336.2-47.8 86.7" stroke-width="6.5625"/>
    <path d="m278.8 431 94.4-95.2-39 72.4c-8.4 15.5 5 26.1 21.5 22.2 2.8-.7 9.4-2.3 14-6" stroke-width="5.625"/>
    <path d="m377.8 336.2-44.7 81.9" stroke-width="6.5625"/>
   </g>
  </g>
  <path d="m339.6 416.8c-1.6 4.1-2.6 6.5.8 11.9" stroke="#010000" stroke-width="3.75"/>
  <g stroke-linejoin="round">
   <path d="m382.5 336.2-9.3-.4" stroke="#010000" stroke-width="6.5625"/>
   <g stroke="#000">
    <path d="m610.6 380.1 60.8-1.7" stroke-width="5.475465"/>
    <g stroke-width="5.625">
     <path d="m694.9 480.8c27-19.9 33.6-27.6 37-49 1.7-11-4.8-25.5-12.2-33.1-10.1-9.9-37.3-10.2-48.3-20.2"/>
     <path d="m684 360.4c1.1.1 2.1.4 2.9.8.3.1.5.3.7.5 1.4 1.1 1.9 3 1.1 6-1.5 5.8-8.1 9.2-11.3 10.4-6.5 2.4-11.3-3-7.6-8.8 2.3-3.6 6.3-7.6 11.1-8.6.3-.1.6-.1 1-.2s.8-.1 1.2-.1c.9 0 1.8.1 2.8.4"/>
    </g>
   </g>
  </g>
 </g>
</svg>
