<svg height="210mm" viewBox="0 0 1052.4 744.1" width="297mm" xmlns="http://www.w3.org/2000/svg">
 <g fill="none" stroke-linecap="round">
  <g transform="translate(0 -308.26772)">
   <path d="m57.6 742.2h948.8" stroke="#969696" stroke-width="1.875"/>
   <g stroke="#000" stroke-dasharray="3.75 7.5" stroke-miterlimit="2" stroke-width=".9375">
    <path d="m58.3 844.1h948.8"/>
    <path d="m58.3 641.8h948.8"/>
    <path d="m58.3 540.6h948.8"/>
   </g>
  </g>
  <g stroke="#000" stroke-linejoin="round" stroke-width="5.625">
   <path d="m510.5 396.3a19.2 25.1 41.6 0 1 -14.3 31.3 19.2 25.1 41.6 0 1 -27.6-6.8 19.2 25.1 41.6 0 1 14.3-31.3 19.2 25.1 41.6 0 1 27.6 6.8z"/>
   <path d="m480.8 390.8 162.4-110.2"/>
   <path d="m484 388.7c-139.3 61.4-241.3 51.2-244.9-.3"/>
   <path d="m643.2 280.6-89.2 152.4c-26.1 42.1-39.4 48.7-49.3 43.2-15.9-9.7 4.3-39.2 31.9-63.2 17.6-15.4 163.6-131.8 168-132.3 5.2-.6 9.2 2.5 12.4 8.6 6.5 12.7 4 17.8 12.3 26.9 15.9 17.3 43.8-27.8 34.5-34.3-6.3-4.4-25.9 3.2-49.4 42-28.9 47.3-22.2 55-4.6 52.3 13.3-2 42.8-18 68.4-41.9"/>
  </g>
 </g>
</svg>
