<svg height="210mm" viewBox="0 0 1052.4 744.1" width="297mm" xmlns="http://www.w3.org/2000/svg">
 <g fill="none" stroke-linecap="round">
  <g transform="translate(0 -308.26772)">
   <path d="m57.6 742.2h948.8" stroke="#969696" stroke-width="1.875"/>
   <g stroke="#000">
    <g stroke-dasharray="3.75 7.5" stroke-miterlimit="2" stroke-width=".9375">
     <path d="m58.3 844.1h948.8"/>
     <path d="m58.3 641.8h948.8"/>
     <path d="m58.3 540.6h948.8"/>
    </g>
    <g stroke-linejoin="round" stroke-width="5.625">
     <path d="m557.6 740.3 30-40.8"/>
     <path d="m587.6 699.5c21.6-28.9 36.1-52.4 56.9-56.8 10.7-2.7 14.3.7 18.7 3.2 7.6 4.3 8 17.2-6 41.5l-29.8 52.1"/>
    </g>
   </g>
  </g>
  <g stroke="#010000">
   <g stroke-linejoin="round">
    <path d="m526.3 390.2-47.8 86.7" stroke-width="6.5625"/>
    <path d="m517 389.8-39 72.4c-8.4 15.5 5 26.1 21.5 22.2 2.8-.7 9.6-2.1 14-6 3.8-3.3 19.5-15.7 44.1-46.4" stroke-width="5.625"/>
    <path d="m521.7 390.1-44.7 81.9" stroke-width="6.5625"/>
   </g>
   <path d="m483.5 470.7c-1.6 4.1-2.6 6.5.8 11.9" stroke-width="3.75"/>
   <path d="m526.3 390.2-9.3-.4" stroke-linejoin="round" stroke-width="6.5625"/>
  </g>
  <path d="m517 389.8s-115.6 71.1-132.2 93c-13.3 17.5-25 37.6-19.2 47.9 3 5.3 34.7 12.4 62.3-63.3 15.8-47.4 16.5-113.3 70.8-131.6" stroke="#000" stroke-linejoin="round" stroke-width="5.625"/>
 </g>
</svg>
