<svg height="210mm" viewBox="0 0 1052.4 744.1" width="297mm" xmlns="http://www.w3.org/2000/svg">
 <g fill="none" stroke-linecap="round">
  <g transform="translate(0 -308.26772)">
   <path d="m57.6 742.2h948.8" stroke="#969696" stroke-width="1.875"/>
   <g stroke="#000" stroke-dasharray="3.75 7.5" stroke-miterlimit="2" stroke-width=".9375">
    <path d="m58.3 844.1h948.8"/>
    <path d="m58.3 641.8h948.8"/>
    <path d="m58.3 540.6h948.8"/>
   </g>
  </g>
  <g stroke="#000">
   <g stroke-linejoin="round">
    <path d="m423.5 431c4.9-1 9.7-4.3 11-5 38.7-22.3 61.1-90.2 37.9-90.6-10-.2-19.6 7.2-28.8 16.1-6 5.8-13.1 13.8-19.7 21.3" stroke-width="5.625002"/>
    <g stroke-width="5.625">
     <path d="m709.8 385.1 22.1 46.2"/>
     <path d="m717.1 384.9 22.1 46.2"/>
    </g>
   </g>
   <g stroke-width="5.625001">
    <path d="m709.8 385.1 7.2-.1"/>
    <path d="m713.9 386.4 21 43.9" stroke-linejoin="round"/>
    <path d="m731.9 431.3 7.2-.1"/>
    <path d="m423.5 431c-4.9 1.2-7.2-3.3-2.8-5.5 15.3-7.7 289.2-40.5 289.2-40.5" stroke-linejoin="round"/>
   </g>
   <path d="m833.7 235.1-94.5 196.1" stroke-linejoin="round" stroke-width="5.624999"/>
   <g stroke-width="5.625">
    <path d="m244.9 489.9c-3.7 5.6-5.7 12.5-6.2 17.7-.7 7.4 1.5 13.5 3.7 16.3 1.6 2 3.9 4.9 8 6.9 3 1.4 7.5 2.3 11 2.2 4.1-.2 9.2-2 14-5.5 3.8-2.8 9-8.4 12.2-12.2 8.5-9.7 98.6-128.2 98.6-128.2" stroke-linejoin="round"/>
    <path d="m386.2 386.9-76.3 146.6"/>
   </g>
  </g>
 </g>
</svg>
