<svg height="210mm" viewBox="0 0 1052.4 744.1" width="297mm" xmlns="http://www.w3.org/2000/svg">
 <g fill="none" stroke-linecap="round">
  <g transform="translate(0 -308.26772)">
   <path d="m57.6 742.2h948.8" stroke="#969696" stroke-width="1.875"/>
   <g stroke="#000" stroke-dasharray="3.75 7.5" stroke-miterlimit="2" stroke-width=".9375">
    <path d="m58.3 844.1h948.8"/>
    <path d="m58.3 641.8h948.8"/>
    <path d="m58.3 540.6h948.8"/>
   </g>
  </g>
  <g stroke="#000" stroke-linejoin="round" stroke-width="5.625">
   <ellipse cx="187.79735" cy="662.25903" rx="25.728558" ry="20.371416" transform="matrix(.79083574 -.61202846 .61202846 .79083574 0 0)"/>
   <path d="m615 430.6c-17.5 11.2-39.6 29.2-45.3 35-25.9 26.2-48.6 55.7-45.7 63.4 1.1 2.9 22.5 22.8 62-40.9l83.3-151.7-122.8 52.7"/>
   <path d="m615 430.6c17.9-11.4 56.3-29.4 73.1-30.3 16-.6 21.6 31 32.6 30.7 7.2-.2 12.4-7.6 16.7-13"/>
   <path d="m314.9 489.8c-5.5 13.8-3.8 30 .1 34.6 1.8 2.2 18.5 21.4 41.4-6.5 22.2-24.1 96-131.3 96-131.3"/>
   <path d="m445.9 431.3 100.6-42.1"/>
   <path d="m507.5 430.5-55.2-43.9"/>
  </g>
 </g>
</svg>
