<svg height="210mm" viewBox="0 0 1052.4 744.1" width="297mm" xmlns="http://www.w3.org/2000/svg">
 <g fill="none" stroke-linecap="round">
  <g transform="translate(0 -308.26772)">
   <path d="m57.6 742.2h948.8" stroke="#969696" stroke-width="1.875"/>
   <g stroke="#000" stroke-dasharray="3.75 7.5" stroke-miterlimit="2" stroke-width=".9375">
    <path d="m58.3 844.1h948.8"/>
    <path d="m58.3 641.8h948.8"/>
    <path d="m58.3 540.6h948.8"/>
   </g>
  </g>
  <g stroke="#000">
   <g stroke-linejoin="round">
    <path d="m427.1 431.7c43.5-.8 50.8.7 61.8-7.1" stroke-width="5.625"/>
    <path d="m627.3 234.5 22 48.5" stroke-width="5.625"/>
    <ellipse cx="638.11871" cy="-29.198879" rx="5.271423" ry="7.848564" stroke-width="14.034714" transform="matrix(.72846687 .68508103 -.68508103 .72846687 0 0)"/>
   </g>
   <path d="m627.3 234.5s-49.6 90.3-61.4 109.4c-33 53.2-63.1 103.3-86.8 82.5" stroke-width="5.624999"/>
   <path d="m427.1 431.7c43.9-15.9 71.5-94.7 46.6-94.9-7.2-.1-18.9 6.5-35.8 23.2" stroke-linejoin="round" stroke-width="5.625"/>
  </g>
 </g>
</svg>
