<svg height="210mm" viewBox="0 0 1052.4 744.1" width="297mm" xmlns="http://www.w3.org/2000/svg">
 <g fill="none" stroke-linecap="round">
  <g transform="translate(0 -308.26772)">
   <path d="m57.6 742.2h948.8" stroke="#969696" stroke-width="1.875"/>
   <g stroke="#000" stroke-dasharray="3.75 7.5" stroke-miterlimit="2" stroke-width=".9375">
    <path d="m58.3 844.1h948.8"/>
    <path d="m58.3 641.8h948.8"/>
    <path d="m58.3 540.6h948.8"/>
   </g>
  </g>
  <g stroke="#000" stroke-width="5.625">
   <g stroke-linejoin="round">
    <path d="m396.9 333.8c54.3-11 97.2-78.8 90.8-95.5-5.5-14.4-40.2 8.9-87.4 86.8-41.2 71.2-46.2 101.2-34.5 105.8 2.9 1.1 6.8.7 11.5-1 3.2-1.2 6.8-3 10.6-5.4 26.5-18.8 48.7-52.6 67.5-80.1"/>
    <path d="m450.1 349.3c13 5.5 150.1-168.2 150.1-168.2"/>
    <path d="m489.1 379 100.5-97"/>
    <path d="m589.6 282 20.9 48.4"/>
   </g>
   <path d="m600.2 181.1-111.1 197.9"/>
   <ellipse cx="561.88232" cy="-59.533161" rx="4.609393" ry="6.862874" stroke-linejoin="round" transform="matrix(.72846687 .68508103 -.68508103 .72846687 0 0)"/>
   <path d="m721.6 132.6-111.1 197.8"/>
  </g>
 </g>
</svg>
