<svg height="210mm" viewBox="0 0 1052.4 744.1" width="297mm" xmlns="http://www.w3.org/2000/svg">
 <g fill="none" stroke-linecap="round">
  <g transform="translate(0 -308.26772)">
   <path d="m57.6 742.2h948.8" stroke="#969696" stroke-width="1.875"/>
   <g stroke="#000" stroke-dasharray="3.75 7.5" stroke-miterlimit="2" stroke-width=".9375">
    <path d="m58.3 844.1h948.8"/>
    <path d="m58.3 641.8h948.8"/>
    <path d="m58.3 540.6h948.8"/>
   </g>
  </g>
  <g stroke="#000" stroke-linejoin="round" stroke-width="5.625">
   <path d="m541.2 431.2c75.2-59.3 187-171.1 175.9-192.6-4.4-8.5-18.1-3.3-40.1 20.9-13.4 14.8-29.4 36.3-47.2 65.8-29 50.1-38.3 77.4-36.2 92.1 1.7 11.3 12.2 13.6 21.7 13.9 4.5.1 8.7-.1 12.5-.4"/>
   <ellipse cx="749.89624" cy="-122.17853" rx="4.609393" ry="6.862874" transform="matrix(.72846687 .68508103 -.68508103 .72846687 0 0)"/>
   <path d="m760.8 277.9c27.8-34.8 48.2-44 57.6-43.1 41.5 3.9-56.8 178.9-113.5 196.4"/>
   <path d="m627.7 430.8c23.5 7.7 102.1-117.5 133.1-152.9"/>
   <path d="m482.9 410 34.3-26.7 24 48"/>
   <path d="m189.7 430.4 282.2-93.8-42.5 71.3c-9 15.1 5 26 21.5 22.2 13.3-3.3 26.2-15.9 32.1-20.1"/>
  </g>
 </g>
</svg>
