<svg height="210mm" viewBox="0 0 1052.4 744.1" width="297mm" xmlns="http://www.w3.org/2000/svg">
 <g fill="none" stroke-linecap="round">
  <g transform="translate(0 -308.26772)">
   <path d="m57.6 742.2h948.8" stroke="#969696" stroke-width="1.875"/>
   <g stroke="#000" stroke-dasharray="3.75 7.5" stroke-miterlimit="2" stroke-width=".9375">
    <path d="m58.3 844.1h948.8"/>
    <path d="m58.3 641.8h948.8"/>
    <path d="m58.3 540.6h948.8"/>
   </g>
  </g>
  <g stroke="#000" stroke-width="5.625">
   <g stroke-linejoin="round">
    <path d="m384.3 432.1s57.4-73 70.9-83.7c10-7.9 26.8-15.9 33.1-11 6.1 4.7 8 33.9 20.2 36.1"/>
    <path d="m476.6 337.2c11.6-4.7 13.4 6.8 14.9 23.4 1 10.8 7.8 13.7 20.1 13.3"/>
    <path d="m476.6 337.2c5.4-2.4 19-3.6 22.7 15 2.6 13.3 5.7 21.2 12.3 21.6"/>
    <path d="m488.7 339.9c6.8 12.3 1 30.9 15.5 31.8"/>
    <ellipse cx="208.23306" cy="610.04883" rx="21.695156" ry="17.177841" transform="matrix(.79083574 -.61202846 .61202846 .79083574 0 0)"/>
    <path d="m511.6 373.9c8.3 1.1 29.2 4.1 40.3-8.7"/>
    <path d="m551.9 365.2c31.4-39.6 75.9-108.5 87.3-123.6"/>
    <path d="m639.2 241.6c21.6-28.9 37.7-54.4 58.6-58.8 19.3-2.6 28.3 6.5 20.4 29.2l-31.6 69.6"/>
    <path d="m691 266.8c34.5-30.5 122.6-171.8 130.1-184.5"/>
    <ellipse cx="380.0679" cy="612.90173" rx="25.728558" ry="20.371416" transform="matrix(.79083574 -.61202846 .61202846 .79083574 0 0)"/>
    <path d="m869.7 84.2c-35.9 22.6-66.9 56.8-48.6-1.9"/>
    <path d="m376.3 358.6c24.3-33 67.5-35.6 37.2 20l-29.2 53.5"/>
   </g>
   <path d="m376.3 358.6s-79.7 110.2-87.6 123.1c-2.7 4.5-9.6 15.9-12 22.1-5.3 19 1.5 29.7 14.7 30 15.4.4 25.1-13.3 33.6-22.6"/>
  </g>
 </g>
</svg>
