<svg height="210mm" viewBox="0 0 1052.4 744.1" width="297mm" xmlns="http://www.w3.org/2000/svg">
 <g fill="none" stroke-linecap="round">
  <g transform="translate(0 -308.26772)">
   <path d="m57.6 742.2h948.8" stroke="#969696" stroke-width="1.875"/>
   <g stroke="#000" stroke-dasharray="3.75 7.5" stroke-miterlimit="2" stroke-width=".9375">
    <path d="m58.3 844.1h948.8"/>
    <path d="m58.3 641.8h948.8"/>
    <path d="m58.3 540.6h948.8"/>
   </g>
  </g>
  <g stroke="#000">
   <g stroke-width="5.625">
    <path d="m601.2 235.1-113.1 196.6"/>
    <path d="m601.2 235.1-142.1 160.8"/>
    <g stroke-linejoin="round">
     <path d="m488.1 431.7 60.1-53.7"/>
     <path d="m440.7 336.7-42.4 73.1c-11.9 20.5 8.4 28.4 31.3 14.4 13.8-9.8 29.5-28.3 29.5-28.3"/>
     <path d="m548.3 378c20.7-17.8 43-41.2 66.3-42.1 2.7-.1 5.2.4 7.2 1.5 7.7 4.2 8.7 17.4-5.8 41.6l-31.2 52.3"/>
     <path d="m622.7 359.3-45.9 71.8"/>
    </g>
   </g>
   <path d="m605.5 390.9-25 39.7" stroke-linejoin="round" stroke-width="3.75"/>
   <path d="m576.8 431.1 7.9.2" stroke-linejoin="round" stroke-width="5.625"/>
   <path d="m622.1 338.7c4 2.2 6.1 10.8-2.8 24.3" stroke-width="3.75"/>
  </g>
 </g>
</svg>
