<svg height="210mm" viewBox="0 0 1052.4 744.1" width="297mm" xmlns="http://www.w3.org/2000/svg">
 <g fill="none" stroke-linecap="round">
  <g transform="translate(0 -308.26772)">
   <path d="m57.6 742.2h948.8" stroke="#969696" stroke-width="1.875"/>
   <g stroke="#000" stroke-dasharray="3.75 7.5" stroke-miterlimit="2" stroke-width=".9375">
    <path d="m58.3 844.1h948.8"/>
    <path d="m58.3 641.8h948.8"/>
    <path d="m58.3 540.6h948.8"/>
   </g>
  </g>
  <g stroke="#000" stroke-linejoin="round">
   <path d="m617.8 234.9c22.2 2.9 19 24.9 4.7 46.6l-65.3 106.2c-7.4 12.6-10.3 23.1-7.7 30.8 2.4 6.9 6.3 12.1 16.8 12.9 7.1.2 14-1.7 20.4-5.5 6.8-4 13.1-10.1 18.6-18" stroke-width="5.624999"/>
   <path d="m632.4 256.3s-69.9 121.6-75.8 143.7" stroke-width="5.625"/>
   <path d="m631.2 261.4c-2.4 5.3-77.8 131.1-79.3 155" stroke-width="5.625"/>
   <path d="m630.3 261.4-26.6 49.4" stroke-width="5.624999"/>
   <g stroke-width="3.75">
    <path d="m566.4 381.3c-3.5 8.5-20.6 38.3-6.8 47.4 2.1 1.4 7.2 2.3 12.9 1.4"/>
    <path d="m619.6 236.2c10.6 2.2 17.7 9.5 6.3 29.4"/>
    <path d="m620.4 275.4c-22.6 35.8-52.4 85.2-69.2 122.2"/>
   </g>
   <path d="m331.3 532.4c40.3-46.5 112-132 127.1-149.8 19.3-22.2 23.2-41.4 12.1-46-9.9-4.5-24.9 13.6-35.4 34.5-14.2 33.6-9.8 60.5.7 60.3 25.5-.4 52.4-44.8 87.7-93.6 39.3-54.2 70.1-106.8 94.3-102.9" stroke-width="5.625"/>
  </g>
 </g>
</svg>
