<svg height="210mm" viewBox="0 0 1052.4 744.1" width="297mm" xmlns="http://www.w3.org/2000/svg">
 <g fill="none" stroke-linecap="round">
  <g transform="translate(0 -308.26772)">
   <path d="m57.6 742.2h948.8" stroke="#969696" stroke-width="1.875"/>
   <g stroke="#000" stroke-dasharray="3.75 7.5" stroke-miterlimit="2" stroke-width=".9375">
    <path d="m58.3 844.1h948.8"/>
    <path d="m58.3 641.8h948.8"/>
    <path d="m58.3 540.6h948.8"/>
   </g>
  </g>
  <g stroke="#000">
   <g stroke-linejoin="round">
    <g stroke-width="5.625">
     <path d="m610 337c-21.1 4.5-59.8 33.6-83.3 51"/>
     <path d="m541.4 382.4s-230.6 53.7-239.1 49.4"/>
     <path d="m306.4 420.6c.7.1 1.3.2 1.8.5.2.1.3.2.4.3.9.7 1.2 1.8.7 3.7-.9 3.6-5 5.6-6.9 6.4-4 1.4-6.9-1.8-4.7-5.4 1.4-2.2 3.9-4.6 6.8-5.2.2 0 .4-.1.6-.1h.7c.6 0 1.1.1 1.7.2"/>
     <ellipse cx="177.83885" cy="652.3952" rx="28.309935" ry="22.415304" transform="matrix(.79083574 -.61202846 .61202846 .79083574 0 0)"/>
     <path d="m587.1 434.8c-37 11.9-113.9 84-94 97.1 7.2 3.5 24 1.6 55.4-42.4 26.9-36.9 55.6-74.7 69.3-112.7 4.7-13.4 7.2-27.3 4.2-34.7-.9-2.3-2.4-4-4.6-4.9-1-.4-2.2-.7-3.6-.7-1.2 0-2.5.1-3.9.5"/>
     <path d="m677.4 431.1c24.1-11.9 56.3-29.4 73.1-30.3 16-.6 21.6 31 32.6 30.7 7.2-.2 12.4-7.6 16.7-13"/>
     <path d="m714.4 359.2-45.9 71.8"/>
    </g>
    <path d="m697.3 390.9-25 39.7" stroke-width="3.75"/>
    <g stroke-width="5.625">
     <path d="m668.5 431 7.9.2"/>
     <path d="m587.9 424.8c24.7 4.1 77.1-94.9 120.3-89.4 1.7.3 3.2.7 4.6 1.3 9.1 3.9 11 14.7-4.2 40.7l-31.2 53.7"/>
    </g>
   </g>
   <path d="m713 337.8c6.1 2.8 6.9 11.6-1.9 25.1" stroke-width="3.75"/>
   <path d="m592.2 415.2c.6.1 1.1.2 1.5.4.1.1.3.2.4.2.7.6 1 1.6.6 3.1-.8 3.1-4.3 4.8-5.9 5.5-3.4 1.2-6-1.6-4-4.6 1.2-1.9 3.3-4 5.8-4.5.2 0 .3-.1.5-.1s.4-.1.6-.1c.5 0 1 .1 1.5.2" stroke-linejoin="round" stroke-width="5.625"/>
  </g>
 </g>
</svg>
