<svg height="210mm" viewBox="0 0 1052.4 744.1" width="297mm" xmlns="http://www.w3.org/2000/svg">
 <g fill="none" stroke-linecap="round">
  <g transform="translate(0 -308.26772)">
   <path d="m57.6 742.2h948.8" stroke="#969696" stroke-width="1.875"/>
   <g stroke="#000" stroke-dasharray="3.75 7.5" stroke-miterlimit="2" stroke-width=".9375">
    <path d="m58.3 844.1h948.8"/>
    <path d="m58.3 641.8h948.8"/>
    <path d="m58.3 540.6h948.8"/>
   </g>
  </g>
  <g stroke="#000">
   <g stroke-linejoin="round">
    <g stroke-width="5.625">
     <path d="m553.1 337.2c-29.3 18.3-172.7 95.8-148.2 94.1 4.5 0 10.9-4.3 12.3-5.1"/>
     <path d="m553.1 337.2c30.7-16 71-37.3 75.4-39.6 27.1-14.3 63.6-12 40.2 17.1-27.4 33.8-44 49.8-38 63.4 3.1 7.1 16.4 6.4 26.4 2.2"/>
     <path d="m657 380.3c10.6-5 20.8-7.5 26.2-8.5 11.4-2.1 25.6-1.2 23.7 6.5v.7c-.1 1.4-.8 2.7-2.4 3.7-3.1 2-7 .3-8.4-1.1-3.2-.8-.1-12 .7-10.6 1.6 2.5 0 0 8.6 3.4.2.1.2.3.4.5.1.2.4.7.5.9.3.6.4 1 .5 1.7"/>
     <path d="m732.8 324.9a5.5 1.8 0 0 1 -5.5 1.8 5.5 1.8 0 0 1 -5.5-1.8 5.5 1.8 0 0 1 5.4-1.8 5.5 1.8 0 0 1 5.5 1.8h-5.5z" transform="matrix(.99725546 .07403753 -.07403753 .99725546 0 0)"/>
    </g>
    <path d="m417.2 426.2c26.6-27.3 61.8-90.5 30.2-89.9-20.8.4-34 16.7-53.2 42.5" stroke-width="5.419139"/>
   </g>
   <path d="m394.2 378.8c-22.3 30.3-57.5 89.7-65.4 102.5-2.7 4.5-7.7 13-10.1 19.2-13.1 23.3-.4 32.5 12.8 32.9 9.3.2 17.9-4.2 26.1-11.6 5.4-4.9 10.7-11 16-17.9" stroke-width="5.625"/>
  </g>
 </g>
</svg>
