<svg height="210mm" viewBox="0 0 1052.4 744.1" width="297mm" xmlns="http://www.w3.org/2000/svg">
 <g fill="none" stroke-linecap="round">
  <g transform="translate(0 -308.26772)">
   <path d="m57.6 742.2h948.8" stroke="#969696" stroke-width="1.875"/>
   <g stroke="#000" stroke-dasharray="3.75 7.5" stroke-miterlimit="2" stroke-width=".9375">
    <path d="m58.3 844.1h948.8"/>
    <path d="m58.3 641.8h948.8"/>
    <path d="m58.3 540.6h948.8"/>
   </g>
  </g>
  <g stroke="#000" stroke-linejoin="round">
   <path d="m480.3 404.3c1.4.1 2.7.4 3.6 1 .3.2.6.4.9.6 1.8 1.4 2.4 3.7 1.4 7.5-1.9 7.3-10.2 11.5-14.1 13-8.1 2.9-14.2-3.8-9.5-11 2.9-4.5 8-9.5 13.9-10.7.4-.1.8-.2 1.2-.2.5-.1 1-.1 1.5-.1 1.1 0 2.3.2 3.5.5" stroke-width="10.905816"/>
   <path d="m516.3 403.2c-3.2 2.9-9.8 10.1-16.9 16.5-4.7 4.3-11 7.5-14.1 8.5-7.8 2.6-30.4 3.3-43.5 2.1" stroke-width="5.625"/>
   <path d="m476.7 412.8c.5 0 .8.1 1.2.3.1.1.2.1.3.2.6.4.8 1.2.5 2.4-.6 2.3-3.3 3.7-4.5 4.2-2.6.9-4.5-1.2-3.1-3.5.9-1.4 2.5-3 4.5-3.4.1 0 .3 0 .4-.1h.5c.4 0 .7 0 1.1.2" stroke-width="11.88091"/>
   <g stroke-width="5.625">
    <path d="m426.9 334.5c54.3-11 95.5-79.5 89.2-96.2-5.5-14.4-40.3 8.9-87.4 86.8-33.7 58.2-43.5 86.2-39.5 98 1.3 3.8 2.8 8.3 8.2 8.4 8.7.2 31.1-.7 44.3-1.3"/>
    <path d="m516.3 403.2c43.5-34.1 85.5-20.8 70.3 28l65.2-44.5"/>
   </g>
  </g>
 </g>
</svg>
