<svg height="210mm" viewBox="0 0 1052.4 744.1" width="297mm" xmlns="http://www.w3.org/2000/svg">
 <g fill="none" stroke-linecap="round">
  <g stroke="#969696" transform="translate(0 -308.26772)">
   <path d="m57.6 742.2h948.8" stroke-width="1.875"/>
   <g stroke-dasharray="3.75 7.5" stroke-miterlimit="2" stroke-width=".9375">
    <path d="m58.3 844.1h948.8"/>
    <path d="m58.3 641.8h948.8"/>
    <path d="m58.3 540.6h948.8"/>
   </g>
  </g>
  <path d="m700.6 430.5s-212.2 1.4-219 .8c-8.1-.7-14.4-6.5-11.6-18.4 1.9-8.1 7-18.7 16.5-34.6 23.3-38.8 43.1-46.4 49.4-42 9.3 6.5-18.6 51.6-34.5 34.3-8.3-9-5.8-14.5-12.3-27.2-6.5-12.6-16.4-12.1-33.4 5.7-1.8 1.9-3.8 4.1-5.8 6.4-2.5 2.9-5 6.1-7.7 9.6-2.1 2.7-48.9 63.4-51.1 66.5" stroke="#000" stroke-linejoin="round" stroke-width="5.625"/>
 </g>
</svg>
