<svg height="210mm" viewBox="0 0 1052.4 744.1" width="297mm" xmlns="http://www.w3.org/2000/svg">
 <g fill="none" stroke-linecap="round">
  <g transform="translate(0 -308.26772)">
   <path d="m57.6 742.2h948.8" stroke="#969696" stroke-width="1.875"/>
   <g stroke="#000" stroke-dasharray="3.75 7.5" stroke-miterlimit="2" stroke-width=".9375">
    <path d="m58.3 844.1h948.8"/>
    <path d="m58.3 641.8h948.8"/>
    <path d="m58.3 540.6h948.8"/>
   </g>
  </g>
  <g stroke="#000" stroke-linejoin="round" stroke-width="5.625">
   <path d="m616.8 333.4-55.8 97.2"/>
   <path d="m616.8 333.4h-10.6"/>
   <path d="m611.3 333.4-55.8 97.2"/>
   <path d="m561 430.7h-10.6"/>
   <path d="m499.2 423.5c6.7-6 107.1-90.1 107.1-90.1l-55.8 97.2 11-.1 51.6-27.8"/>
   <path d="m613.2 402.8s103-53.7 110-57.5c27.1-14.3 63.6-12 40.2 17.1-27.4 33.8-45.5 50.2-39.4 63.9 4.2 9.5 21.8 5.3 36.5-3.7l19.7-12"/>
   <path d="m370 431.2c5.4-3.3 11.7-10.5 6.5-17.1-2.6-3.3-4-4.5-11.9-4.4l-98.8.6c-6.7.1-14.3.2-15.9-.7-10.5-5.8-7.4-13.7.5-24.6"/>
   <path d="m370 431.2c29.9-11.6 55.7-33.1 83.6-29.2 17.2 3.2 16 46.2 45.6 21.5"/>
   <path d="m430.4 403.9c5.4-2.4 23.5 0 31.4 17.2 5.6 12.2 13.9 9.5 20.5 9.9"/>
   <path d="m449.9 404.1c6.7 5.9 6.3.5 21.2 23.1"/>
  </g>
 </g>
</svg>
