<svg height="210mm" viewBox="0 0 1052.4 744.1" width="297mm" xmlns="http://www.w3.org/2000/svg">
 <g fill="none" stroke-linecap="round">
  <g transform="translate(0 -308.26772)">
   <path d="m57.6 742.2h948.8" stroke="#969696" stroke-width="1.875"/>
   <g stroke="#000" stroke-dasharray="3.75 7.5" stroke-miterlimit="2" stroke-width=".9375">
    <path d="m58.3 844.1h948.8"/>
    <path d="m58.3 641.8h948.8"/>
    <path d="m58.3 540.6h948.8"/>
   </g>
  </g>
  <g stroke-linejoin="round">
   <path d="m429.2 335.6s-31.1 62.1-35.1 72.5c-5.5 14.2 4 23.1 17.2 23 3.3 0 6.2-.3 9.4-.9 12.9-2.3 28.6-13.1 67-40" stroke="#010000" stroke-width="5.624999"/>
   <g stroke="#000" stroke-width="5.625">
    <path d="m487.8 390.2c3.2-2.2 7.4-3.4 8.7-3.7 1.6-.4 3.1-.6 4.6-.6 1.4 0 2.8.1 4.1.4 5.3 1.1 9.6 4.6 11.5 10.1 3.7 10.5-2.8 24.6-14.3 31.3-11.6 6.8-23.9 3.7-27.6-6.8-.9-2.5-1.2-5.1-1-7.8.1-1.1.2-2.3.5-3.4.3-1.3.6-2.5 1.1-3.8.4-1.1.8-2.1 1.4-3.1"/>
    <path d="m476.8 402.7c1.9-6.2 67.7-122.8 78.9-140.5 8.2-12.9 18.2-27.3 34.4-27.3 25.2 0 25.4 59 74.4 39.1"/>
    <path d="m681.6 241.2c3.7 10.5-2.8 24.6-14.3 31.3-11.6 6.8-23.9 3.7-27.6-6.8s2.8-24.6 14.3-31.3c11.6-6.8 23.9-3.7 27.6 6.8z"/>
   </g>
  </g>
 </g>
</svg>
