<svg height="210mm" viewBox="0 0 1052.4 744.1" width="297mm" xmlns="http://www.w3.org/2000/svg">
 <g fill="none" stroke-linecap="round">
  <g transform="translate(0 -308.26772)">
   <path d="m57.6 742.2h948.8" stroke="#969696" stroke-width="1.875"/>
   <g stroke="#000" stroke-dasharray="3.75 7.5" stroke-miterlimit="2" stroke-width=".9375">
    <path d="m58.3 844.1h948.8"/>
    <path d="m58.3 641.8h948.8"/>
    <path d="m58.3 540.6h948.8"/>
   </g>
  </g>
  <g stroke="#000" stroke-width="5.625">
   <ellipse cx="319.16171" cy="765.52069" rx="25.728558" ry="20.371416" stroke-linejoin="round" transform="matrix(.79083574 -.61202846 .61202846 .79083574 0 0)"/>
   <path d="m769.4 359.1-57.9 32.7"/>
   <g stroke-linejoin="round">
    <path d="m587.2 410.6 135.5-22.8"/>
    <path d="m587.2 410.6c-7.4 1.3-61 6.8-59 16.2.1 3 3.3 4.9 5.6 4.9 3 0 11-4.3 12.4-5.2 29.8-18.7 59.4-96.5 29.5-89.3-16.8 4-28.8 15.1-38.4 23.7"/>
    <path d="m370.9 335.3-42.4 73.1c-12.3 21.2 14.8 33.7 40.7 10.9 3.8-3.4 10.5-10.1 17.5-19.4"/>
    <path d="m386.8 399.8c16.9-17.9 26.9-18.3 33.4-5.7 6.5 12.7 5.3 17.1 12.3 27.2 20.1 29.1 43.1-26.4 34.5-34.3-9.6-8.9-31.9 5.2-51.8 41.3-32 58.8-14.2 61.2 10.3 47.3 3.2-1.8 6.4-3.9 9.7-6.1"/>
    <path d="m537.2 360.9c-10.4 9.4-75.4 86.8-102.1 108.6"/>
   </g>
  </g>
 </g>
</svg>
