<svg height="210mm" viewBox="0 0 1052.4 744.1" width="297mm" xmlns="http://www.w3.org/2000/svg">
 <g fill="none" stroke-linecap="round">
  <g transform="translate(0 -308.26772)">
   <path d="m57.6 742.2h948.8" stroke="#969696" stroke-width="1.875"/>
   <g stroke="#000" stroke-dasharray="3.75 7.5" stroke-miterlimit="2" stroke-width=".9375">
    <path d="m58.3 844.1h948.8"/>
    <path d="m58.3 641.8h948.8"/>
    <path d="m58.3 540.6h948.8"/>
   </g>
  </g>
  <g stroke="#000" stroke-linejoin="round">
   <path d="m315.2 431.1 210.9-93.3" stroke-width="5.625"/>
   <ellipse cx="200.45303" cy="608.64862" rx="25.728558" ry="20.371416" stroke-width="5.625" transform="matrix(.79083574 -.61202846 .61202846 .79083574 0 0)"/>
   <path d="m602.6 410.6 22.6-23.3" stroke-width="5.475465"/>
   <path d="m625.3 387.3s17.6-17.1 18.3-17.8c57.9-51.3 106-43.9 88.5 10.6l42.3-35.3" stroke-width="5.475465"/>
   <path d="m775.6 335.4c.7.1 1.3.2 1.8.5.2.1.3.2.5.3.9.7 1.2 1.9.7 3.8-1 3.7-5.1 5.8-7.1 6.5-4.1 1.5-7.1-1.9-4.8-5.5 1.5-2.3 4-4.8 7-5.4.2 0 .4-.1.6-.1h.8c.6 0 1.2.1 1.8.2" stroke-width="5.625"/>
   <path d="m602.6 410.6c-10.7 10.1-20.6 17.3-28.1 19.6-55 17.3 33.8-137 77.9-183.7 4.7-5 11.2-10.7 18.9-11.9" stroke-width="5.625"/>
   <path d="m520.5 340.4s125.2-94.9 144.6-103.9" stroke-width="5.475465"/>
  </g>
 </g>
</svg>
