<svg height="210mm" viewBox="0 0 1052.4 744.1" width="297mm" xmlns="http://www.w3.org/2000/svg">
 <g fill="none" stroke-linecap="round" transform="translate(0 -308.26772)">
  <path d="m57.6 742.2h948.8" stroke="#969696" stroke-width="1.875"/>
  <g stroke="#000" stroke-dasharray="3.75 7.5" stroke-miterlimit="2" stroke-width=".9375">
   <path d="m58.3 844.1h948.8"/>
   <path d="m58.3 641.8h948.8"/>
   <path d="m58.3 540.6h948.8"/>
  </g>
 </g>
 <g fill="none" stroke="#000" stroke-linecap="round" stroke-linejoin="round" stroke-width="5.625">
  <path d="m622.3 383.7 17.5 47.4 69.8-111.7"/>
  <ellipse cx="514.58136" cy="650.7583" rx="62.130169" ry="44.633743" transform="matrix(.88109295 -.47294313 .47294313 .88109295 0 0)"/>
  <path d="m726.5 299.6 86-65.1"/>
  <path d="m325 387.8 20.9 43.6 59.7-83.7"/>
  <ellipse cx="114.81247" cy="542.7395" rx="25.728558" ry="20.371416" transform="matrix(.79083574 -.61202846 .61202846 .79083574 0 0)"/>
  <path d="m408.8 344.2 71.5-54.4"/>
 </g>
 <circle cx="539.3808" cy="360.39932" r="10.653955"/>
 <circle cx="523.99115" cy="409.41495" r="10.653955"/>
</svg>
