<svg height="210mm" viewBox="0 0 1052.4 744.1" width="297mm" xmlns="http://www.w3.org/2000/svg">
 <g fill="none" stroke="#000" stroke-linecap="round">
  <g transform="translate(0 -308.26772)">
   <path d="m57.6 742.2h948.8" stroke-width="1.875"/>
   <g stroke-dasharray="3.75 7.5" stroke-miterlimit="2" stroke-width=".9375">
    <path d="m58.3 844.1h948.8"/>
    <path d="m58.3 641.8h948.8"/>
    <path d="m58.3 540.6h948.8"/>
   </g>
  </g>
  <g stroke-linejoin="round" stroke-width="5.625">
   <path d="m273.5 431.1c11.2-23.8 37.5-41.1 61.9-43.7 30.4-3.3 45.4 10.1 35.5 43.9"/>
   <path d="m370.8 431.3s255.3-92.5 267.2-94.4c16.1-2.6 28.1 5.8 12.4 25.3-27.4 33.8-44.3 49.8-38.3 63.4 5.4 12.3 32 2.7 46.5-12.2 1-1 21.1-29.1-1.7-34.2-22.7-5.1-48.7 6.5-50.6 20.9-1.3 10.2 6.6 14.4 17.6 15 8.9.5 19.8-1.3 29.5-4.2 12-3.6 66.5-23.5 66.5-23.5"/>
   <path d="m719.9 387.4-56.7 94.9 46.4-25.5"/>
   <path d="m709.7 456.8 40.7-21.9 19.1 48.4"/>
  </g>
 </g>
</svg>
