<svg height="210mm" viewBox="0 0 1052.4 744.1" width="297mm" xmlns="http://www.w3.org/2000/svg">
 <g fill="none" stroke-linecap="round">
  <g transform="translate(0 -308.26772)">
   <path d="m57.6 742.2h948.8" stroke="#969696" stroke-width="1.875"/>
   <g stroke="#000" stroke-dasharray="3.75 7.5" stroke-miterlimit="2" stroke-width=".9375">
    <path d="m58.3 844.1h948.8"/>
    <path d="m58.3 641.8h948.8"/>
    <path d="m58.3 540.6h948.8"/>
   </g>
  </g>
  <g stroke="#000" stroke-linejoin="round" stroke-width="5.625">
   <path d="m217.2 431.3c-3.5 1.6-6.2-2.4-2.8-4.9 3.5-2.7 183.3-162.7 200.4-174.6"/>
   <path d="m217.2 431.3c18.4-11.3 70.3-49.2 63.9-91.9-4.7-31.3 24.5-44.6 38.9-53.9 17.8-10.7 29.8-19 33.7-32 2.5-11.7-2.5-16.5-8.7-18.1-5.8-1.5-12.9-1.4-21 .6-9.3 2.3-19.5 9.6-32 25.3l-140.1 170"/>
   <path d="m439.8 234.7c-57.6 31-98.3 110.5-102.4 158.1-.5 6-.5 11.3.2 16 .8 5.4 2.7 9.6 4.7 13 7.1 11.8 21.9 9.9 50.6 7.5 24.5-2 205-26.8 220.4-28.7 9.9-1.2 23.2-2.2 31.5-2.5 28.6-1.2 22.8 32.7 45.9 32.9 15.6.1 56.7-32.3 72.1-31.8 24.5.7 23.3 31.3 47 32.1 30.3 1 53.4-37.6 83-88.3 11.3-19.4 61.4-109.4 61.4-109.4"/>
  </g>
 </g>
</svg>
