<svg height="210mm" viewBox="0 0 1052.4 744.1" width="297mm" xmlns="http://www.w3.org/2000/svg">
 <g fill="none" stroke-linecap="round">
  <g transform="translate(0 -308.26772)">
   <path d="m57.6 742.2h948.8" stroke="#969696" stroke-width="1.875"/>
   <g stroke="#000" stroke-dasharray="3.75 7.5" stroke-miterlimit="2" stroke-width=".9375">
    <path d="m58.3 844.1h948.8"/>
    <path d="m58.3 641.8h948.8"/>
    <path d="m58.3 540.6h948.8"/>
   </g>
  </g>
  <g stroke="#000" stroke-width="5.625">
   <g stroke-linejoin="round">
    <path d="m537.6 430.5c4.1-.3 8.8-1.7 15.1-6.2 10.7-7.8 28.2-37.2 32.5-44.8"/>
    <path d="m540.5 419.8c.7.1 1.2.2 1.7.4.2.1.3.2.4.3.8.6 1.1 1.7.7 3.5-.9 3.4-4.7 5.3-6.5 6-3.8 1.4-6.6-1.7-4.4-5.1 1.3-2.1 3.7-4.4 6.4-5 .2 0 .4-.1.6-.1s.5-.1.7-.1c.5 0 1.1.1 1.6.2"/>
    <path d="m585.1 379.5c14.4-23.3 25.7-43.3 47.7-43.5 15.5.8 21.6 8 4.7 42.5l-25.6 52.3"/>
    <path d="m611.9 430.7 129.8-195.6"/>
    <path d="m348.8 430c3.3 1 188-93.2 188-93.2"/>
    <path d="m367.6 335.6-42.4 73.1c-9.3 16 4.2 25.4 23.6 21.3"/>
   </g>
   <path d="m536.8 336.8-93.7 196.7"/>
  </g>
 </g>
</svg>
