<svg height="210mm" viewBox="0 0 1052.4 744.1" width="297mm" xmlns="http://www.w3.org/2000/svg">
 <g fill="none" stroke-linecap="round">
  <g transform="translate(0 -308.26772)">
   <path d="m57.6 742.2h948.8" stroke="#969696" stroke-width="1.875"/>
   <g stroke="#000" stroke-dasharray="3.75 7.5" stroke-miterlimit="2" stroke-width=".9375">
    <path d="m58.3 844.1h948.8"/>
    <path d="m58.3 641.8h948.8"/>
    <path d="m58.3 540.6h948.8"/>
   </g>
  </g>
  <g stroke="#000" stroke-linejoin="round" stroke-width="5.625">
   <path d="m657.1 384.8 21.8 46 43.5-42.8"/>
   <path d="m762.9 431s56.2-35.2 79-36.1c17.7-.7 16.2 38 32.7 35.8 4.7-.6 10.9-4.6 19.5-13.8"/>
   <path d="m722.4 387.9c16-14.5 26.9-26.8 40.2-37.7 26.4-23.8 61.3-21.3 31.5 28.5l-31.2 52.3"/>
   <path d="m296.8 233.6-111.2 197.6"/>
   <path d="m185.6 431.2 409.3-195.9"/>
   <path d="m533.4 412.5c-9.9 5.7-31.8 15.3-39.2 17.6-54.4 17.1 34.1-131.2 77.7-177.4 4.7-4.9 15.9-14.6 23-17.4"/>
   <path d="m533.4 412.5c9.4-5 29.6-18.8 38.9-19 18.3-.9 17.3 37.7 32.7 38.2 8.9.5 17-6.6 22.9-13.5"/>
   <path d="m627.9 418.2c9.9-11.8 29.2-33.5 29.2-33.5"/>
  </g>
 </g>
</svg>
