<svg height="210mm" viewBox="0 0 1052.4 744.1" width="297mm" xmlns="http://www.w3.org/2000/svg">
 <g fill="none" stroke-linecap="round">
  <g transform="translate(0 -308.26772)">
   <path d="m57.6 742.2h948.8" stroke="#969696" stroke-width="1.875"/>
   <g stroke="#000" stroke-dasharray="3.75 7.5" stroke-miterlimit="2" stroke-width=".9375">
    <path d="m58.3 844.1h948.8"/>
    <path d="m58.3 641.8h948.8"/>
    <path d="m58.3 540.6h948.8"/>
   </g>
  </g>
  <g stroke-linejoin="round" stroke-width="5.625">
   <g stroke="#000">
    <ellipse cx="-33.295662" cy="491.1539" rx="25.728558" ry="20.371416" transform="matrix(.79083574 -.61202846 .61202846 .79083574 0 0)"/>
    <path d="m259.1 395 118.9-106.9-56.7 94.9"/>
    <path d="m321.3 382.9c10.2-5.8 20.2-9 25.5-10.4 11.2-3 25.5-3.1 24.1 4.7 0 .2.1.4.1.7 0 1.4-.6 2.7-2.1 3.8-2.9 2.2-6.9.8-8.5-.4-3.3-.5-1-11.9 0-10.6 1.7 2.4 0 0 8.8 2.8.2.1.3.3.4.5.2.2.4.7.6.9.3.5.4.9.7 1.6"/>
    <path d="m370.7 377.2a5.5 1.8 0 0 1 -5.5 1.8 5.5 1.8 0 0 1 -5.5-1.8 5.5 1.8 0 0 1 5.4-1.8 5.5 1.8 0 0 1 5.5 1.8h-5.5z"/>
   </g>
   <path d="m361.4 370.8 137.3-79.3 116.7-67.7" stroke="#000001"/>
   <g stroke="#000">
    <path d="m627.7 193.9a19.2 25.1 41.6 0 1 -14.3 31.3 19.2 25.1 41.6 0 1 -27.6-6.8 19.2 25.1 41.6 0 1 14.3-31.3 19.2 25.1 41.6 0 1 27.6 6.8z"/>
    <path d="m511.7 384.1c41.5 3.1 62.1-37.2 58.8-46-2.9-7.5-30.4-4.4-55.2 36.4-23.3 38.1-22.7 51.5-13.5 55.4 11 4.7 27.5 2 42.5-2.7"/>
    <path d="m549.4 415.8c.7.1 1.2.2 1.7.4.2.1.3.2.4.3.8.6 1.1 1.7.7 3.5-.9 3.4-4.7 5.3-6.5 6-3.8 1.4-6.6-1.7-4.4-5.1 1.3-2.1 3.7-4.4 6.4-5 .2 0 .4-.1.6-.1h.7c.5 0 1.1.1 1.6.2"/>
    <path d="m544.3 427.3c7.6 5.9 22.7-8.2 51.8-47.2"/>
    <path d="m596 380.1c50.4-65.5 115.5-58.4 97 .6l122.3-200.8"/>
   </g>
  </g>
 </g>
</svg>
