<svg height="210mm" viewBox="0 0 1052.4 744.1" width="297mm" xmlns="http://www.w3.org/2000/svg">
 <g fill="none" stroke-linecap="round">
  <g transform="translate(0 -308.26772)">
   <path d="m57.6 742.2h948.8" stroke="#969696" stroke-width="1.875"/>
   <g stroke="#000" stroke-dasharray="3.75 7.5" stroke-miterlimit="2" stroke-width=".9375">
    <path d="m58.3 844.1h948.8"/>
    <path d="m58.3 641.8h948.8"/>
    <path d="m58.3 540.6h948.8"/>
   </g>
  </g>
  <g stroke="#000">
   <g stroke-linejoin="round" stroke-width="5.625">
    <path d="m108.2 387.6 256.1-100.2"/>
    <path d="m132.2 396.3c3.7 10.5-2.8 24.6-14.3 31.3-11.6 6.8-23.9 3.7-27.6-6.8s2.8-24.6 14.3-31.3c11.6-6.8 23.9-3.7 27.6 6.8z"/>
    <path d="m389.1 295.8c3.7 10.5-2.8 24.6-14.3 31.3-11.6 6.8-23.9 3.7-27.6-6.8s2.8-24.6 14.3-31.3c11.6-6.8 23.9-3.7 27.6 6.8z"/>
    <ellipse cx="694.44073" cy="-208.17694" rx="4.609393" ry="6.862875" transform="matrix(.72846687 .68508103 -.68508103 .72846687 0 0)"/>
    <path d="m647.1 330c6.7 1.5 157-65.7 217.6-89.6 7-2.8 10-3.8 17.1-4.9 8.8-.6 14.6 0 18.6 4.5 2.5 2.8 3.8 7.2 2.6 13.4-1.2 6.1-4.9 13.9-10.8 24.5l-29.4 52.3"/>
   </g>
   <path d="m948.5 235.6-85.7 94.5" stroke-width="5.625002"/>
   <path d="m357.3 291.8c20.8-17.7 38.9-32 53.9-44 6.5-5.1 15.3-11.4 25.6-13.1 3.3-.4 6.4-.1 9 .9 2.8 1 5 2.6 6.6 4.7 3.7 5.2 3.1 13.5-5.1 23.4-24.4 29.4-44.4 37.2-35.9 55.6 2.6 5.6 9.4 10 17 10.6 2.5.2 13.3.3 19.5.2 14.7-.2 168.7-.2 196.4-.2" stroke-linejoin="round" stroke-width="5.625"/>
  </g>
 </g>
</svg>
