<svg height="210mm" viewBox="0 0 1052.4 744.1" width="297mm" xmlns="http://www.w3.org/2000/svg">
 <g fill="none" stroke-linecap="round">
  <g transform="translate(0 -308.26772)">
   <path d="m57.6 742.2h948.8" stroke="#969696" stroke-width="1.875"/>
   <g stroke="#000" stroke-dasharray="3.75 7.5" stroke-miterlimit="2" stroke-width=".9375">
    <path d="m58.3 844.1h948.8"/>
    <path d="m58.3 641.8h948.8"/>
    <path d="m58.3 540.6h948.8"/>
   </g>
  </g>
  <g stroke="#000" stroke-linejoin="round">
   <path d="m566.5 318.9c-13.8 16.8-44.2 57.2-60.8 58.3-18 .5-19-40.3-40.1-42-17 1.7-29.6 18.9-36.1 30.1" stroke-width="5.625"/>
   <path d="m388.3 431.9s36.9-61.2 41.1-66.5" stroke-width="5.625"/>
   <path d="m566 376.8c3 .3 9.7-4.2 11-5 48.9-28 71.8-129.3 9.4-73.8-2.3 2.1-17.4 18.4-20 20.9" stroke-width="5.419139"/>
   <g stroke-width="5.638243">
    <path d="m618.2 285.4c2.3 32.7-17.1 62.2-38.1 82.5"/>
    <path d="m620.7 287.7c5.2 34.8-19.9 69.4-45 83.3"/>
    <path d="m613.4 284c3.6 34.1-21.2 69-37.7 86.9"/>
   </g>
   <path d="m606 283.8c7.9-3.1 5.9 10.5 5.9 15.8" stroke-width="2.819121"/>
   <path d="m582.3 361.2c-5.5 6.9-8.3 10.7-14.3 14.1" stroke-width="2.819121"/>
   <path d="m566 376.8c-17.7-3.1 83.3-32.6 93-30.6 17.3 3.7 12 30.9 26.7 30.6 7.1-.2 12.6-7.9 16.2-12.6" stroke-width="5.625"/>
  </g>
 </g>
</svg>
