<svg height="210mm" viewBox="0 0 1052.4 744.1" width="297mm" xmlns="http://www.w3.org/2000/svg">
 <g fill="none" stroke-linecap="round">
  <g transform="translate(0 -308.26772)">
   <path d="m57.6 742.2h948.8" stroke="#969696" stroke-width="1.875"/>
   <g stroke="#000" stroke-dasharray="3.75 7.5" stroke-miterlimit="2" stroke-width=".9375">
    <path d="m58.3 844.1h948.8"/>
    <path d="m58.3 641.8h948.8"/>
    <path d="m58.3 540.6h948.8"/>
   </g>
  </g>
  <g stroke="#000" stroke-width="5.625">
   <g stroke-linejoin="round">
    <path d="m585.4 336.6-42.4 73.1c-14.1 24.3 26.9 35.7 51.9 1.6l27-31.5"/>
    <path d="m579.1 417.5c.7.1 1.2.2 1.7.4.2.1.3.2.4.3.8.6 1.1 1.7.7 3.5-.9 3.4-4.7 5.3-6.6 6-3.8 1.4-6.6-1.7-4.4-5.1 1.3-2.1 3.7-4.4 6.5-5 .2 0 .4-.1.6-.1h.7c.5 0 1.1.1 1.6.2"/>
    <path d="m622 379.8 78.6-94.3"/>
    <path d="m161.6 360.4c9.3-12.6 18-18.1 26.2-21.7 24.8-6.9 35 2.5 12.3 40.5l-29.8 52.1"/>
    <path d="m175.8 419.5s306.7-205.4 346-227.1c11.2-5.5 18.7-7.5 23.6-6.8 8.5 1.2 9.6 10.4 6.5 22.1-17.6 66.3-48.9 157.8-125.1 186.8"/>
    <path d="m176.2 408.6c.8.1 1.4.2 1.9.5.2.1.3.2.5.3.9.7 1.3 2 .8 4-1 3.9-5.4 6.1-7.5 6.9-4.3 1.6-7.6-2-5.1-5.9 1.6-2.4 4.2-5.1 7.4-5.7.2 0 .4-.1.7-.1s.5-.1.8-.1c.6 0 1.2.1 1.9.3"/>
   </g>
   <path d="m543.3 335.9-102.2 197.6"/>
   <path d="m543.3 335.9s-135.3 50.9-116.4 58.5"/>
   <g stroke-linejoin="round">
    <path d="m700.5 285.4-39 72.4c-7.3 13.6 2 23.3 15.4 23"/>
    <path d="m676.9 380.9c17.3-1.7 44.5-26.7 63.9-26.1 14.7.1 12.5 27 26.3 26.6 7.5-.5 10.8-6.2 14.1-10.6"/>
   </g>
  </g>
 </g>
</svg>
