<svg height="210mm" viewBox="0 0 1052.4 744.1" width="297mm" xmlns="http://www.w3.org/2000/svg">
 <g fill="none" stroke-linecap="round">
  <g transform="translate(0 -308.26772)">
   <path d="m57.6 742.2h948.8" stroke="#969696" stroke-width="1.875"/>
   <g stroke="#000" stroke-dasharray="3.75 7.5" stroke-miterlimit="2" stroke-width=".9375">
    <path d="m58.3 844.1h948.8"/>
    <path d="m58.3 641.8h948.8"/>
    <path d="m58.3 540.6h948.8"/>
   </g>
  </g>
  <g stroke="#000" stroke-linejoin="round">
   <path d="m609.6 383.2-38.9 72.5c-7.2 13.4 2.4 23.2 15.6 23.3 27.1.1 79.7-38 99.9-34.3 20.2 3.8 18.7 54.1 53.5 25.2" stroke-width="5.625"/>
   <path d="m663.6 449.3c2.8-1.2 7.6-2.1 12.7-.7 6.4 1.8 13.2 7.5 18.4 18.8 4.3 9.4 10.3 11.2 16 11.5 3 .1 7.6 0 10.4 0" stroke-width="5.625"/>
   <path d="m680.7 447.4c7.8 4.9 8.8 2 26.1 28.6" stroke-width="6.587558"/>
   <g stroke-width="5.625">
    <path d="m363.5 383.1-53.9 94.7"/>
    <path d="m363.5 383.1h-10.6"/>
    <path d="m358 383.2-53.9 94.7"/>
    <path d="m309.6 477.8h-10.6"/>
    <path d="m281.9 431.5 71.1-48.4-53.9 94.7 11-.1 299.6-94.6"/>
   </g>
  </g>
 </g>
</svg>
