<svg height="210mm" viewBox="0 0 1052.4 744.1" width="297mm" xmlns="http://www.w3.org/2000/svg">
 <g fill="none" stroke-linecap="round">
  <g transform="translate(0 -308.26772)">
   <path d="m57.6 742.2h948.8" stroke="#969696" stroke-width="1.875"/>
   <g stroke="#000" stroke-dasharray="3.75 7.5" stroke-miterlimit="2" stroke-width=".9375">
    <path d="m58.3 844.1h948.8"/>
    <path d="m58.3 641.8h948.8"/>
    <path d="m58.3 540.6h948.8"/>
   </g>
  </g>
  <g stroke="#000" stroke-linejoin="round" stroke-width="5.625">
   <path d="m482 431.3c23.7-.9 60.3-28.6 76.4-28.9 24.5-.3 23.3 28.8 47 28.9"/>
   <path d="m605.4 431.3c21 .5 56.3-29.3 69.8-29.4 24.5-.1 21.1 30.2 44.8 29.7 11.3-.2 17.7-6.5 23.1-10.1"/>
   <path d="m548.6 235s-71.3 136.4-85.7 164.6c-8.4 18.4 3.7 31.5 19.1 31.7"/>
   <path d="m350 385.5c7.5-.9 20.7-7.3 21.8-8 28.7-16.8 38.8-32.1 36.4-37.6-3.2-7.1-28.8-4.3-52.7 35l-31.8 56.4c39-14.9 134.3-114.2 224.9-196.3"/>
  </g>
 </g>
</svg>
