<svg height="210mm" viewBox="0 0 1052.4 744.1" width="297mm" xmlns="http://www.w3.org/2000/svg">
 <g fill="none" stroke-linecap="round">
  <g transform="translate(0 -308.26772)">
   <path d="m57.6 742.2h948.8" stroke="#969696" stroke-width="1.875"/>
   <g stroke="#000" stroke-dasharray="3.75 7.5" stroke-miterlimit="2" stroke-width=".9375">
    <path d="m58.3 844.1h948.8"/>
    <path d="m58.3 641.8h948.8"/>
    <path d="m58.3 540.6h948.8"/>
   </g>
  </g>
  <g stroke="#000">
   <g stroke-width="5.625">
    <path d="m646.9 234.6-113.1 196.5"/>
    <g stroke-linejoin="round">
     <path d="m533.9 431.1 88.9-87.2"/>
     <path d="m622.8 343.9c5.8-5.9 11.3-8.3 18.7-9.3 11.9-.6 14.3.7 18.7 3.2 7.6 4.3 8 17.2-6 41.5l-29.8 52.1"/>
     <path d="m664.1 346.5-48.9 84.8"/>
     <path d="m664.7 351.4-45.6 79.9"/>
     <path d="m615.2 431.4 9.3.1"/>
    </g>
   </g>
   <path d="m657.8 337.5c3.7 2.9 3.4 12.6 1.1 16.3" stroke-width="3.75"/>
   <g stroke-width="5.625">
    <g stroke-linejoin="round">
     <path d="m451.4 431.1c11.3-3.6 29-14.3 32.2-40.1s20.9-53.1 39.1-55.8"/>
     <path d="m472.7 417.2c10.2-4 174.3-182.6 174.3-182.6"/>
     <path d="m426.4 337-42.4 73.1c-11.9 20.5 8.4 28.4 31.3 14.4 13.8-9.8 33.2-28.3 33.2-28.3"/>
     <path d="m448.6 396.2s52-48.6 60.3-54"/>
    </g>
    <path d="m787 233.7-162.5 197.8"/>
    <path d="m835.6 235.7c-35.9 22.6-66.9 56.8-48.6-1.9" stroke-linejoin="round"/>
    <ellipse cx="36.538025" cy="521.78986" rx="28.499964" ry="23.779261" stroke-linejoin="round" transform="matrix(.81758868 -.5758027 .5758027 .81758868 0 0)"/>
    <path d="m426.4 337-75.9 82.6"/>
   </g>
  </g>
 </g>
</svg>
