<svg height="210mm" viewBox="0 0 1052.4 744.1" width="297mm" xmlns="http://www.w3.org/2000/svg">
 <g fill="none" stroke-linecap="round">
  <g transform="translate(0 -308.26772)">
   <path d="m57.6 742.2h948.8" stroke="#969696" stroke-width="1.875"/>
   <g stroke="#000" stroke-dasharray="3.75 7.5" stroke-miterlimit="2" stroke-width=".9375">
    <path d="m58.3 844.1h948.8"/>
    <path d="m58.3 641.8h948.8"/>
    <path d="m58.3 540.6h948.8"/>
   </g>
  </g>
  <g stroke="#000" stroke-linejoin="round" stroke-width="5.625">
   <path d="m330.6 430.9c43.9-15.9 71.5-94.7 46.6-94.9-7.2-.1-18.9 6.5-35.8 23.2"/>
   <path d="m330.6 430.9c-7 5 67.9-75.1 97.9-90.1 7.2-3.6 14.7-5.3 22.8-4.5 15.9 3 18.8 36.6 35.2 37 9.8.2 18.3-4.9 27.5-11 14.2-9.5 34.1-26.8 34.1-26.8"/>
   <path d="m434.8 338.2c10.8-3.8 18 .7 27.6 21.6 6.8 14.8 16.6 13.4 24.5 13.6"/>
   <path d="m447.9 338.8c8.1 7.1 7.7 1.1 25.6 28.5"/>
   <path d="m548.1 335.6 24.3 18.5"/>
   <path d="m572.4 354c1.6.9 3.1 2 4.2 3.5 1.3 1.7 2.2 3.7 2.5 5.8.4 2.5.2 5.3-.7 7.9-.7 2.1-1.8 4.3-3.3 6.2-1.3 1.7-2.8 3.3-4.7 4.7-1.8 1.4-3.7 2.5-5.7 3.3-1.3.5-2.6.9-3.9 1.2-1.8.4-3.6.5-5.3.4-2.3-.1-4.4-.7-6.3-1.7-1.6-.9-3.1-2-4.2-3.5-2.4-3.2-3.2-7.2-2.5-11.2.5-2.9 1.8-5.9 3.8-8.5"/>
   <path d="m701.6 385.2c-15.7 11.3-34.2 24.3-52.1 33.6-6.4 3.3-11.9 5.6-18.8 8.3-9.4 3.5-27 9-34.9-4.5-2-3.6-3.2-8.3-3.6-13.9-3.6-43.8 38.3-140.8 101.7-175"/>
   <path d="m676.5 245.1c-12.2 8.8-51 42.6-75.7 64.8-18.3 16.5-53.6 51.1-53.6 51.1"/>
  </g>
 </g>
</svg>
