<svg height="210mm" viewBox="0 0 1052.4 744.1" width="297mm" xmlns="http://www.w3.org/2000/svg">
 <g fill="none" stroke-linecap="round">
  <g transform="translate(0 -308.26772)">
   <path d="m57.6 742.2h948.8" stroke="#969696" stroke-width="1.875"/>
   <g stroke="#000" stroke-dasharray="3.75 7.5" stroke-miterlimit="2" stroke-width=".9375">
    <path d="m58.3 844.1h948.8"/>
    <path d="m58.3 641.8h948.8"/>
    <path d="m58.3 540.6h948.8"/>
   </g>
  </g>
  <g stroke="#000">
   <g stroke-linejoin="round">
    <path d="m544.7 336-49 95.3" stroke-width="5.625"/>
    <path d="m374.2 430.5 60.6-.1" stroke-width="5.624999"/>
    <ellipse cx="605.77527" cy="6.06264" rx="5.271423" ry="7.848564" stroke-width="14.034714" transform="matrix(.72846687 .68508103 -.68508103 .72846687 0 0)"/>
    <path d="m435.8 429.9c16.1 6.9 30.5-15.5 108.9-93.9" stroke-width="5.625"/>
    <path d="m495.8 431.3c42-50.3 72.1-93.1 96.2-94.8 2.7-.3 5.1-.1 7.1.7 7.8 3.3 10.1 15.8-1.5 40.6l-25 53.3" stroke-width="5.625"/>
    <path d="m602.1 358.1-36.9 73.3" stroke-width="5.440072"/>
    <path d="m588.6 390.3-20.2 40.7" stroke-width="3.626714"/>
    <path d="m565.2 431.4 7.4-.2" stroke-width="5.440072"/>
   </g>
   <path d="m599.5 338.4c4.1 1.7 6.9 9.7-.3 23.7" stroke-width="3.626714"/>
  </g>
 </g>
</svg>
