<svg height="210mm" viewBox="0 0 1052.4 744.1" width="297mm" xmlns="http://www.w3.org/2000/svg">
 <g fill="none" stroke-linecap="round">
  <g transform="translate(0 -308.26772)">
   <path d="m57.6 742.2h948.8" stroke="#969696" stroke-width="1.875"/>
   <g stroke="#000" stroke-dasharray="3.75 7.5" stroke-miterlimit="2" stroke-width=".9375">
    <path d="m58.3 844.1h948.8"/>
    <path d="m58.3 641.8h948.8"/>
    <path d="m58.3 540.6h948.8"/>
   </g>
  </g>
  <g stroke="#000" stroke-linejoin="round" stroke-width="5.625">
   <path d="m533.1 388.8-56.7 94.9"/>
   <path d="m476.4 483.7s173.9-47.1 202-47.2c31.6-.2 24.8 63.6 62.3 29.2"/>
   <path d="m393 257.2c24.3-33 69.3-34.5 37.2 20l-90 153.8 20.3-14.8"/>
   <path d="m360.5 416.3c13.8-11.3 20.7-16.8 28.6-22 21.7-13.4 27.9-13.6 34.3-1 6.5 12.7 5.3 17.1 12.3 27.2 20.1 29.1 43.1-26.4 34.5-34.3-9.6-8.9-31.9 5.2-51.8 41.3-32 58.8-14.2 61.2 10.3 47.3 3.2-1.8 6.4-3.9 9.7-6.1"/>
   <path d="m438.4 468.7c9.9-6.6 94.8-79.8 94.8-79.8"/>
  </g>
 </g>
</svg>
