<svg height="210mm" viewBox="0 0 1052.4 744.1" width="297mm" xmlns="http://www.w3.org/2000/svg">
 <g fill="none" stroke-linecap="round">
  <g transform="translate(0 -308.26772)">
   <path d="m57.6 742.2h948.8" stroke="#969696" stroke-width="1.875"/>
   <g stroke="#000" stroke-dasharray="3.75 7.5" stroke-miterlimit="2" stroke-width=".9375">
    <path d="m58.3 844.1h948.8"/>
    <path d="m58.3 641.8h948.8"/>
    <path d="m58.3 540.6h948.8"/>
   </g>
  </g>
  <g stroke="#000" stroke-linejoin="round" stroke-width="5.625">
   <path d="m232.6 430.7c22.5-8.9 52.2-48.9 60.4-86.1s38.8-97.2 73.8-110.6"/>
   <path d="m232.6 430.7c-2.8 1.8-5.5-1.1-3.8-4 9.8-16 209.5-71 265.7-86.1 8-1.8 13.7-3.4 20.9-4.6 8.8-1.2 14.6 0 18.6 4.5 2.5 2.8 3.8 7.2 2.6 13.4-1.2 6.1-4.9 13.9-10.8 24.5l-29.4 52.3"/>
   <path d="m496.4 430.7 42.5-.2"/>
   <ellipse cx="685.27319" cy="-61.810314" rx="4.609393" ry="6.862875" transform="matrix(.72846687 .68508103 -.68508103 .72846687 0 0)"/>
   <path d="m582.4 435.4c-37.7 35.2-76.8 76.5-68.3 92.5 4.9 9.2 28.4 7.7 48.3-24.3 8.5-13.7 17.7-31 19.9-61.8"/>
   <path d="m782.1 336.4c-19.5 20.7-35.6 40.9-56.3 39.7-20.1-1.2-17.7-33-37-32.3-19.4.7-36.2 24.6-106.4 91.5"/>
   <path d="m582.3 441.7c4.4-61.4 30.6-107.8 55.8-106.1 20.5 2.6 7.1 25.2-4.6 33.9-10.6 8.8-89.5 58.9-89.5 58.9"/>
  </g>
 </g>
</svg>
