<svg height="210mm" viewBox="0 0 1052.4 744.1" width="297mm" xmlns="http://www.w3.org/2000/svg">
 <g fill="none" stroke-linecap="round">
  <g transform="translate(0 -308.26772)">
   <path d="m57.6 742.2h948.8" stroke="#969696" stroke-width="1.875"/>
   <g stroke="#000" stroke-dasharray="3.75 7.5" stroke-miterlimit="2" stroke-width=".9375">
    <path d="m58.3 844.1h948.8"/>
    <path d="m58.3 641.8h948.8"/>
    <path d="m58.3 540.6h948.8"/>
   </g>
  </g>
  <g stroke-linejoin="round" stroke-width="5.625">
   <ellipse cx="285.30099" cy="737.46759" rx="25.728558" ry="20.371416" stroke="#000" transform="matrix(.79083574 -.61202846 .61202846 .79083574 0 0)"/>
   <path d="m798.8 290.4-135.2 102.4" stroke="#02000c"/>
   <path d="m802.1 440.7c-27.8 24.1-70.8 38.9-90.7 41.9-57 8.7 33.8-137 77.9-183.7 4.7-5 11.2-10.7 18.9-11.9" stroke="#02000c"/>
   <g stroke="#000">
    <path d="m424.8 431.6c5.4-3.3 11.7-10.5 6.5-17.1-2.6-3.3-4-4.5-11.9-4.4l-98.8.6c-6.7.1-14.3.2-15.9-.7-10.5-5.8-7.4-13.7.5-24.6"/>
    <path d="m433 422.3c49.2-56.5 107.8-47.4 90.2 8.9"/>
    <path d="m228 359.1c24.3-33 69.8-34.2 37.2 20l-31.5 52.1 71.6-45.8"/>
    <path d="m523.2 431.2c17.9-11.4 43-29.4 59.8-30.3 16-.6 19 29.8 32.6 30.2 10.6.3 37.9-28.8 44.2-34.5"/>
   </g>
  </g>
 </g>
</svg>
