<svg height="210mm" viewBox="0 0 1052.4 744.1" width="297mm" xmlns="http://www.w3.org/2000/svg">
 <g fill="none" stroke-linecap="round">
  <g transform="translate(0 -308.26772)">
   <path d="m57.6 742.2h948.8" stroke="#969696" stroke-width="1.875"/>
   <g stroke="#000" stroke-dasharray="3.75 7.5" stroke-miterlimit="2" stroke-width=".9375">
    <path d="m58.3 844.1h948.8"/>
    <path d="m58.3 641.8h948.8"/>
    <path d="m58.3 540.6h948.8"/>
   </g>
  </g>
  <g stroke="#000">
   <g stroke-linejoin="round" stroke-width="5.625">
    <path d="m516.4 431.4c43.7-15.9 71.6-92.7 48.9-95.7-12.5-1.6-24.1 9.7-38.1 28.2-18.1 24-39.5 60.7-51.9 66.1-5.3 2.3-9.6 1.7-12.7-1.9"/>
    <path d="m516.4 431.4 57.4 2.3"/>
    <ellipse cx="170.93066" cy="709.22223" rx="25.728559" ry="20.371418" transform="matrix(.79083574 -.61202846 .61202846 .79083574 0 0)"/>
   </g>
   <path d="m591.7 445.2c.3 9.3-.4 14.6-6.3 21.9-3.1 3.8-7.2 7.1-12.7 9.7" stroke-width="5.624961"/>
   <path d="m588.1 440c5.4 18.3-4.6 29.6-17.3 35.9" stroke-width="6.599955"/>
   <path d="m572.3 473c-7.1 4.1-13.9 5.6-20.5.2" stroke-width="2.849979"/>
   <path d="m574.4 435.2c8.3 0 13.2 3.6 13.4 13.9" stroke-width="2.849979"/>
   <g stroke-width="5.625">
    <g stroke-linejoin="round">
     <path d="m266 345.9c-48.7 26.5-98.8 51.1-145.7 72.6-28 12.8-78.6 34.1-33-43.4 23.8-40.7 50.4-43.8 53.1-36.3 3.2 8.7-16.6 49-56.6 45.9"/>
     <path d="m465.3 428.2c-7.3 1.6-21.6 3.1-30 3-24.8-.3-35.3-4.7-40.2-21.1-10-27.1 27.6-135.2 90.9-175"/>
     <ellipse cx="629.14166" cy="-11.744209" rx="4.609393" ry="6.862875" transform="matrix(.72846687 .68508103 -.68508103 .72846687 0 0)"/>
     <path d="m485.9 235.1-219.9 110.8"/>
     <ellipse cx="807.20276" cy="-175.3611" rx="4.609393" ry="6.862875" transform="matrix(.72846687 .68508103 -.68508103 .72846687 0 0)"/>
    </g>
    <path d="m939.8 234.4c-39.1 62.6-74.9 118-92.5 142.9s-41.4 55.6-61.4 53.7c-30.3-4.9 14.5-90.5 24.3-107.8 45.1-79.9 70.8-92.1 85.6-87.7 15.3 4.6-21.8 46.4-43.8 67.4-14.6 14-124 128.1-145 128"/>
    <path d="m642.8 431.1c43.9-15.9 71.5-94.7 46.6-94.9-7.2-.1-18.9 6.5-35.8 23.2" stroke-linejoin="round"/>
   </g>
   <g stroke-linejoin="round" stroke-width="5.624999">
    <path d="m990.3 234.5c-25.6 28.5-68.8 58.6-50.5 0"/>
    <path d="m705.9 431.1h-63.1"/>
   </g>
  </g>
 </g>
</svg>
