<svg height="210mm" viewBox="0 0 1052.4 744.1" width="297mm" xmlns="http://www.w3.org/2000/svg">
 <g fill="none" stroke-linecap="round">
  <g transform="translate(0 -308.26772)">
   <path d="m57.6 742.2h948.8" stroke="#969696" stroke-width="1.875"/>
   <g stroke="#000" stroke-dasharray="3.75 7.5" stroke-miterlimit="2" stroke-width=".9375">
    <path d="m58.3 844.1h948.8"/>
    <path d="m58.3 641.8h948.8"/>
    <path d="m58.3 540.6h948.8"/>
   </g>
  </g>
  <g stroke="#000" stroke-width="5.625">
   <path d="m651.7 290.6 112.7-55.3" stroke-linejoin="round"/>
   <ellipse cx="428.95016" cy="607.21252" rx="60.146576" ry="43.208748" stroke-linejoin="round" transform="matrix(.88109295 -.47294313 .47294313 .88109295 0 0)"/>
   <path d="m718.8 309.4c.7 2.8.2 12.3-.3 13.7-4.6 13.5-9.8 20.7-17.2 28.9-8.8 9.7-22.1 15.7-32.4 24.1"/>
   <path d="m699.3 287.9c11 3.2 13.8 13.8 14.8 17.6 5.3 20.3-6.7 35.7-14.9 44.9-8.3 9.3-25 27.4-57.1 28.7"/>
   <path d="m377.6 335.8-39 72.4c-7.3 13.6 2 23.4 15.5 23 1.9-.1 3.9-.3 5.9-.8 15.7-1.8 260.1-126.4 291.7-139.8" stroke-linejoin="round"/>
  </g>
 </g>
</svg>
