<svg height="210mm" viewBox="0 0 1052.4 744.1" width="297mm" xmlns="http://www.w3.org/2000/svg">
 <g fill="none" stroke-linecap="round">
  <g transform="translate(0 -308.26772)">
   <path d="m57.6 742.2h948.8" stroke="#969696" stroke-width="1.875"/>
   <g stroke="#000" stroke-dasharray="3.75 7.5" stroke-miterlimit="2" stroke-width=".9375">
    <path d="m58.3 844.1h948.8"/>
    <path d="m58.3 641.8h948.8"/>
    <path d="m58.3 540.6h948.8"/>
   </g>
  </g>
  <g stroke="#000" stroke-linejoin="round">
   <path d="m171.6 431.7s378.8-196.3 381.8-197.3" stroke-width="5.625001"/>
   <path d="m171.6 431.7 60.6-108.1c26.4-48.6 52-72.9 91.2-88.5" stroke-width="5.625"/>
   <path d="m553.3 235.4s-42.5 79.8-60.8 107.6c-23 34.9-52 72.9-91.2 88.5" stroke-width="5.625001"/>
   <g stroke-width="5.625">
    <path d="m700.3 330.4c22.5-10.4 54.6-29.8 72.8-30.5 17.5-.7 20 30.3 33.6 30.7 8.1.2 13.2-5.6 18.6-12.4"/>
    <path d="m677.5 286.9 22.8 43.5"/>
    <path d="m401.3 431.4c-27.1 4.7 215.5-146.2 215.5-146.2"/>
    <path d="m677.5 286.9c-32.6 26.7-76.2 61.5-103.1 84.9-17 14.8-55.2 46.8-68.7 58.5-20.4 17.5-41.1 44.1-21.7 51.7 7.6 2.8 24.1-.6 52.3-46 6.7-10.8 80.5-150.7 80.5-150.7"/>
   </g>
  </g>
 </g>
</svg>
