<svg height="210mm" viewBox="0 0 1052.4 744.1" width="297mm" xmlns="http://www.w3.org/2000/svg">
 <g fill="none" stroke-linecap="round">
  <g transform="translate(0 -308.26772)">
   <path d="m57.6 742.2h948.8" stroke="#969696" stroke-width="1.875"/>
   <g stroke="#000" stroke-dasharray="3.75 7.5" stroke-miterlimit="2" stroke-width=".9375">
    <path d="m58.3 844.1h948.8"/>
    <path d="m58.3 641.8h948.8"/>
    <path d="m58.3 540.6h948.8"/>
   </g>
  </g>
  <g stroke="#000" stroke-linejoin="round">
   <path d="m584.7 482.1c35-2.4 73-28.8 92-45.1" stroke-width="5.625"/>
   <path d="m362 430.7c17.1 1.4 68.5-32.4 99.3-51.4 62.2-38.4 138.1-84.4 154.1-88.8 4.1-1.1 9.4-2 12.3-1.6 6.1.8 9.7 3.4 11.4 7.1 1.3 2.9 1.5 6.6.9 10.7-.7 4.5-2.3 9.5-4.5 14.7-2.6 6.1-5.9 12.4-9.3 18.4l-59.2 102c-7.4 12.6-10.3 19.3-7.7 27 2.4 6.9 11.6 14.1 25.2 13.3" stroke-width="5.624999"/>
   <ellipse cx="555.54834" cy="60.719082" rx="4.609393" ry="6.862874" stroke-width="5.625" transform="matrix(.72846687 .68508103 -.68508103 .72846687 0 0)"/>
  </g>
 </g>
</svg>
