<svg height="210mm" viewBox="0 0 1052.4 744.1" width="297mm" xmlns="http://www.w3.org/2000/svg">
 <g fill="none" stroke-linecap="round">
  <g transform="translate(0 -308.26772)">
   <path d="m57.6 742.2h948.8" stroke="#969696" stroke-width="1.875"/>
   <g stroke="#000" stroke-dasharray="3.75 7.5" stroke-miterlimit="2" stroke-width=".9375">
    <path d="m58.3 844.1h948.8"/>
    <path d="m58.3 641.8h948.8"/>
    <path d="m58.3 540.6h948.8"/>
   </g>
  </g>
  <g stroke="#000">
   <path d="m607.8 264.2c10.7-13.9 19.6-26.5 35.1-28.7 10.2-1.5 18.6 4.7 19.9 13.9.9 6.8-.7 16.1-5.8 28.5l-66 153.4" stroke-linejoin="round" stroke-width="5.624959"/>
   <g stroke-width="5.625">
    <ellipse cx="499.02881" cy="644.19104" rx="60.146576" ry="43.208748" stroke-linejoin="round" transform="matrix(.88109295 -.47294313 .47294313 .88109295 0 0)"/>
    <path d="m798 308.8c.7 2.8.2 12.3-.3 13.7-4.6 13.5-9.8 20.7-17.2 28.9-8.8 9.7-22.1 15.7-32.4 24.1"/>
    <path d="m778.5 287.3c11 3.2 13.8 13.8 14.8 17.6 5.3 20.3-6.7 35.7-14.9 44.9-8.3 9.3-25 27.4-57.1 28.7"/>
   </g>
   <g stroke-linejoin="round">
    <path d="m714.1 299.7 92.9-64.5" stroke-width="5.624999"/>
    <path d="m590.9 431.2 112.9-122.4" stroke-width="5.624999"/>
    <g stroke-width="6.562499">
     <path d="m326.6 336.7-47.5 81.9"/>
     <path d="m322 336.7-38.7 70.9-3.8 16.5"/>
     <path d="m326.6 336.7h-9.3"/>
    </g>
    <path d="m222.9 431.5 94.3-95.2-38.9 72.5c-7.2 13.4 1.8 23.1 15 23 6.2-.1 11.6-1.5 16.4-3.7 17.9-9.7 30.8-26.4 43.1-40 14.5-16 26.3-32.2 41.8-44.1 5.9-4.5 11.8-7.2 17.4-6.9 12.5.8 15.3 16.3 7.8 37.8-14.7 43-44.9 84.5-69.3 116.9-27.6 34.1-40.8 46.8-51.6 39-26.4-19.6 53.7-78.3 87.5-104" stroke-width="5.624999"/>
   </g>
   <path d="m288.5 405.3c-6 9.6-9.9 25.1 3.6 25.5" stroke-width="3.749999"/>
   <g stroke-linejoin="round">
    <path d="m386.4 426.9c23.5-16.9 82.1-70.3 97.7-88.7 19.9-22.9 23.8-42.6 12.4-47.3-10.2-4.7-25.6 14-36.4 35.5-6 14.2-8.8 27.1-9.2 37.5-.6 14.9 4.5 26.1 15.9 26.9 16.7 1.2 40.5-5.5 55.1-12.5" stroke-width="5.802584"/>
    <ellipse cx="298.10489" cy="552.74774" rx="25.728558" ry="20.371416" stroke-width="5.625" transform="matrix(.89236516 -.45131411 .45131411 .89236516 0 0)"/>
    <path d="m534.5 369.5c12.8-13.7 56.6-81.2 73.3-105.3" stroke-width="5.624999"/>
   </g>
  </g>
 </g>
</svg>
