<svg height="210mm" viewBox="0 0 1052.4 744.1" width="297mm" xmlns="http://www.w3.org/2000/svg">
 <g fill="none" stroke-linecap="round">
  <g transform="translate(0 -308.26772)">
   <path d="m57.6 742.2h948.8" stroke="#969696" stroke-width="1.875"/>
   <g stroke="#000" stroke-dasharray="3.75 7.5" stroke-miterlimit="2" stroke-width=".9375">
    <path d="m58.3 844.1h948.8"/>
    <path d="m58.3 641.8h948.8"/>
    <path d="m58.3 540.6h948.8"/>
   </g>
  </g>
  <g stroke="#000" stroke-linejoin="round">
   <g stroke-width="5.625">
    <path d="m404.4 481c39-64.7 104.7-56.6 95.5-.1"/>
    <path d="m499.8 480.9 79.8-95.5"/>
    <path d="m579.7 385.4 20.5 46.3"/>
   </g>
   <path d="m600.1 431.7c20.4-27.3 40.2-53.5 51.4-66.4 18.1-20.8 30.2-29.3 40.9-29.1 12.4.2 12.3 17.3 5.9 36-14.7 43-41.1 81.5-68 118.4-30.2 41-50.1 47.2-57.1 40.9-13.5-11.4 4.2-35.9 29.2-55.1 13.2-11.3 46.2-31 65.4-41.7" stroke-width="5.625001"/>
   <path d="m289.5 397.6c3.5 10.2-2.7 23.8-13.9 30.3s-23.1 3.6-26.7-6.6c-3.5-10.2 2.7-23.8 13.9-30.3s23.1-3.6 26.7 6.6z" stroke-width="5.625"/>
   <g stroke-width="5.625" transform="translate(204.34566 233.10541)">
    <path d="m80.3 249.7c16.8-.5 33-21.3 35-47.2 2.1-26.8 36.3-48.7 36.3-48.7"/>
    <path d="m140.7 162c-14.4 12.2-18.6 35.8-22.4 47.9-3.5 11.7-12.1 25.9-24.2 34.7"/>
    <path d="m140.7 162c-2.9 2.2-11.1 10.3-13 12.6-6.5 8-13.3 18.9-16.5 30-4.1 14.4-4.3 33.3-22.5 43.1"/>
   </g>
   <path d="m355.9 386.9-80.8.6" stroke-width="5.625002"/>
   <path d="m284.7 482.8c-2.7.1-3.4-2.9-1.8-4.7 4.6-5 100.2-41.3 100.2-41.3l21.3 44.2" stroke-width="5.624999"/>
   <path d="m667.9 434.7c25-11.8 71-35.3 88.6-36.2 16.8-.7 22.7 32.6 34.2 32.2 7.5-.2 13.1-6.2 18.3-10.8" stroke-width="5.625"/>
  </g>
 </g>
</svg>
