<svg height="210mm" viewBox="0 0 1052.4 744.1" width="297mm" xmlns="http://www.w3.org/2000/svg">
 <g fill="none" stroke-linecap="round">
  <g transform="translate(0 -308.26772)">
   <path d="m57.6 742.2h948.8" stroke="#969696" stroke-width="1.875"/>
   <g stroke="#000" stroke-dasharray="3.75 7.5" stroke-miterlimit="2" stroke-width=".9375">
    <path d="m58.3 844.1h948.8"/>
    <path d="m58.3 641.8h948.8"/>
    <path d="m58.3 540.6h948.8"/>
   </g>
  </g>
  <g stroke="#000" stroke-linejoin="round">
   <path d="m176 398.4 33.9-16-27.4 48.9" stroke-width="5.625"/>
   <path d="m182.5 431.3c58.9-19.2 145-71 129.4-92.1-4.8-6.5-30.3-4.4-55 36.3-25.4 41.6-20.8 56-6.4 56 17.4-.1 43.3-23.8 69.6-50.9 29.2-30.2 63.1-69.1 82.6-81.8" stroke-width="5.625"/>
   <path d="m422.9 288.1c-31.4 12-59.4 43.8-62.7 72-1.7 15 6.8 23.1 17.2 23 24.9.1 48-24.4 68.1-43.9" stroke-width="5.625002"/>
   <path d="m445.5 339.3c5.4-5.7 9.9-10.5 13.3-13.7 23.4-22 39.5-39.6 50.2-52.7 14.4-17.5 15.1-31.2 4.4-36.9-10.9-4.4-27.1 14.7-36.4 35.5-19.1 42.5-13.8 59.3-2.9 59.4" stroke-width="5.802585"/>
   <path d="m474.1 330.9c24.3 0 71.1-43.7 96.9-47.7" stroke-width="5.625"/>
   <path d="m499.7 379.1c11.3-3.6 29-14.3 32.2-40.1s20.9-53.1 39.1-55.8" stroke-width="5.625001"/>
   <path d="m499.7 379.1 63.6-.1" stroke-width="5.625"/>
   <ellipse cx="664.2356" cy="-119.53058" rx="5.271423" ry="7.848564" stroke-width="14.034715" transform="matrix(.72846687 .68508103 -.68508103 .72846687 0 0)"/>
   <g stroke-width="5.625">
    <path d="m611.7 336.3c-8.2 25.8 2.6 47.4 28.2 48.2 16.2.5 36.3-10.9 52.2-22.9 25.2-19 37.2-24.7 51.3-25.1 22.2-.7 34.5 17.1 24.7 48.4"/>
    <path d="m768.1 384.8 96-49.1 23.7 49"/>
    <path d="m563.3 379c14 3.1 48.4-42.7 48.4-42.7"/>
   </g>
  </g>
 </g>
</svg>
