<svg height="210mm" viewBox="0 0 1052.4 744.1" width="297mm" xmlns="http://www.w3.org/2000/svg">
 <g fill="none" stroke-linecap="round">
  <g transform="translate(0 -308.26772)">
   <path d="m57.6 742.2h948.8" stroke="#969696" stroke-width="1.875"/>
   <g stroke="#000" stroke-dasharray="3.75 7.5" stroke-miterlimit="2" stroke-width=".9375">
    <path d="m58.3 844.1h948.8"/>
    <path d="m58.3 641.8h948.8"/>
    <path d="m58.3 540.6h948.8"/>
   </g>
  </g>
  <g stroke="#000" stroke-linejoin="round">
   <g stroke-width="5.625">
    <path d="m714.6 335.5-52.3 95.3"/>
    <path d="m714.6 335.5h-10.6"/>
    <path d="m709.1 335.5-52.3 95.3"/>
    <path d="m662.3 430.8h-10.6"/>
    <path d="m704 335.5-52.3 95.3 11-.1"/>
   </g>
   <path d="m662.7 430.7 60.8-43.3" stroke-width="5.624999"/>
   <g stroke-width="5.625">
    <path d="m270.7 430.8c43.9-15.9 71.5-94.7 46.6-94.9-7.2-.1-18.9 6.5-35.8 23.2"/>
    <path d="m270.7 430.8c-16 5.5 41.5-42.6 63.2-59.9 20.8-16.7 41.4-34.5 66.6-35.1 20.3-.5 32.2 15.6 41.1 34.3 7.7 16.9 14.5 36 22.5 47.4 6.5 9.2 15.1 13 23.7 13.1 28.3.5 72.1-57.2 88.5-74.4 7.5-7.9 17.3-17.7 31.5-19.4 3.3-.4 6.3 0 8.9.9 2.7.9 5 2.5 6.5 4.7 3.6 5.1 3.1 13.3-5 23.1-24 29-44.6 43.1-37.5 58.4 2.6 5.5 8.9 8.1 16.1 7.3 7.2-.2 16.4-3.6 24.1-9.3 6.4-4.7 11.7-9.6 16.8-14.6 6.9-6.4 66.3-71.7 66.3-71.7"/>
   </g>
  </g>
 </g>
</svg>
