<svg height="210mm" viewBox="0 0 1052.4 744.1" width="297mm" xmlns="http://www.w3.org/2000/svg">
 <g fill="none" stroke-linecap="round">
  <g transform="translate(0 -308.26772)">
   <path d="m57.6 742.2h948.8" stroke="#969696" stroke-width="1.875"/>
   <g stroke="#000" stroke-dasharray="3.75 7.5" stroke-miterlimit="2" stroke-width=".9375">
    <path d="m28.3 844.1h948.8"/>
    <path d="m28.3 641.8h948.8"/>
    <path d="m28.3 540.6h948.8"/>
   </g>
  </g>
  <g stroke="#000" stroke-linejoin="round">
   <path d="m359.6 426.7c17.3 12.8 65.8-40 173.5-142.1" stroke-width="5.866431"/>
   <path d="m359.6 426.7c-10.1 2.2-103.1 4.5-119.8 4.6-16.3.1-92.6 4.8-108.4-18.6-34.4-35.5 43.9-157.1 97-179.2" stroke-width="5.624959"/>
   <g stroke-width="5.625">
    <ellipse cx="552.34955" cy="57.799488" rx="4.609393" ry="6.862874" transform="matrix(.72846687 .68508103 -.68508103 .72846687 0 0)"/>
    <path d="m476.4 381.5c-52.8 22.2-107.3 83.2-81.8 98.7 9.9 5.5 23.1-1.1 49.3-43.2l89.2-152.4"/>
    <path d="m476.4 381.5 218.7-96.2"/>
    <path d="m774 286.4c-32.1-2-52.6 15-60.3 31.6-10.1 21.6-2.7 42.5 24.4 36.9 29.7-8.6 26.3-23.5 5-22.7-17.8 0-41.1 20.2-52.9 40.3-11.6 18.6-16.3 57.2 9 59"/>
    <path d="m699.1 431.4c21.7.4 39.3-23.5 62.9-52.1 30.2-36.7 62.2-81.2 85.7-92.9 4.4-1.9 8.9-2.7 13.6-2.3 10.5 1.2 16.5 8.2 15.8 17-.4 3.7-1.6 8.3-3.7 13.7-9.9 21.8-22.7 42.9-34.9 64.9"/>
   </g>
  </g>
 </g>
</svg>
