<svg height="210mm" viewBox="0 0 1052.4 744.1" width="297mm" xmlns="http://www.w3.org/2000/svg">
 <g fill="none" stroke-linecap="round">
  <g transform="translate(0 -308.26772)">
   <path d="m57.6 742.2h948.8" stroke="#969696" stroke-width="1.875"/>
   <g stroke="#000" stroke-dasharray="3.75 7.5" stroke-miterlimit="2" stroke-width=".9375">
    <path d="m58.3 844.1h948.8"/>
    <path d="m58.3 641.8h948.8"/>
    <path d="m58.3 540.6h948.8"/>
   </g>
  </g>
  <g stroke="#000">
   <g stroke-linejoin="round" stroke-width="5.625">
    <path d="m456.7 410.4 30.5-26.9 33.3 47.9"/>
    <path d="m487.2 383.5 24 48"/>
    <path d="m496.7 383.5 23.8 47.9"/>
    <path d="m492.8 383.3 24 48"/>
   </g>
   <path d="m487.1 382.5 9.5-.1" stroke-width="3.75"/>
   <path d="m512.9 432.3h7.1" stroke-width="3.75"/>
   <g stroke-width="5.625">
    <path d="m398.2 358.1c15.9-32 75.6-30.6 48.2 3.3-27.4 33.8-47.2 52.6-39.4 63.9 9 13.2 36.1 1.2 49.7-14.9" stroke-linejoin="round"/>
    <path d="m520.5 431.3c4.5-5.5 7.1-8.4 7.9-9.3 48.9-54.4 107-46.6 89.6 9.1" stroke-linejoin="round"/>
    <path d="m708.3 265.7-90.3 165.4"/>
    <ellipse cx="498.88309" cy="539.08392" rx="25.728558" ry="20.371416" stroke-linejoin="round" transform="matrix(.89236516 -.45131411 .45131411 .89236516 0 0)"/>
   </g>
  </g>
 </g>
</svg>
