<svg height="210mm" viewBox="0 0 1052.4 744.1" width="297mm" xmlns="http://www.w3.org/2000/svg">
 <g fill="none" stroke-linecap="round">
  <g transform="translate(0 -308.26772)">
   <path d="m57.6 742.2h948.8" stroke="#969696" stroke-width="1.875"/>
   <g stroke="#000" stroke-dasharray="3.75 7.5" stroke-miterlimit="2" stroke-width=".9375">
    <path d="m58.3 844.1h948.8"/>
    <path d="m58.3 641.8h948.8"/>
    <path d="m58.3 540.6h948.8"/>
   </g>
  </g>
  <g stroke="#000" stroke-linejoin="round" stroke-width="5.625">
   <path d="m332.2 387.5 20.9 43.6 53.7-98.1"/>
   <ellipse cx="110.89449" cy="539.41113" rx="25.728558" ry="20.371416" transform="matrix(.79083574 -.61202846 .61202846 .79083574 0 0)"/>
   <path d="m406.7 333c14.8-22.9 31.5-33.4 48-35.7 20.8-2.9 34.2 10.3 28.8 33.7"/>
   <path d="m483.5 331 61.5-95.5"/>
   <path d="m545.1 235.5 24.7 47.9 29-27.3"/>
   <path d="m598.8 256.1c16.4-15.6 23.6-20 37.5-21.5 29.6-2.3 16.2 49.3 43.4 44.2 11.2-2.1 16.1-6.9 23.7-16.1"/>
  </g>
 </g>
</svg>
