<svg height="210mm" viewBox="0 0 1052.4 744.1" width="297mm" xmlns="http://www.w3.org/2000/svg">
 <g fill="none" stroke-linecap="round">
  <g transform="translate(0 -308.26772)">
   <path d="m57.6 742.2h948.8" stroke="#969696" stroke-width="1.875"/>
   <g stroke="#000" stroke-dasharray="3.75 7.5" stroke-miterlimit="2" stroke-width=".9375">
    <path d="m58.3 844.1h948.8"/>
    <path d="m58.3 641.8h948.8"/>
    <path d="m58.3 540.6h948.8"/>
   </g>
  </g>
  <g stroke="#000">
   <g stroke-width="5.625">
    <path d="m410.1 381 27.5 20.1" stroke-linejoin="round"/>
    <path d="m419.3 397.7c15.5-10.6 45.8-15 56.5-27.7" stroke-linejoin="round"/>
    <path d="m419.3 397.7c-4.4 2.6-8.2 6-9.3 7.2-2.3 2.3-3.9 5-4.7 7.8-1.2 3.9-.8 7.9 1.4 11.4 1 1.7 2.4 3 4 4.1 1.8 1.3 4 2.2 6.3 2.7 1.8.4 3.6.5 5.5.5 1.4-.1 2.8-.2 4.2-.6 2.1-.5 4.2-1.2 6.1-2.3 2-1.1 3.8-2.4 5.3-3.9 1.7-1.7 3-3.6 4-5.6 1.2-2.5 1.7-5.1 1.5-7.7-.2-2.1-.8-4.2-2-6.1-1-1.6-2.4-3-4-4.1"/>
   </g>
   <g stroke-linejoin="round">
    <path d="m467 373.2c16 17.2 79.6-68.4 144.5-138" stroke-width="5.625"/>
    <g stroke-width="5.624999">
     <path d="m834.6 183.7-46.6 95.4"/>
     <path d="m834.6 183.7h-8.2"/>
     <path d="m830.7 184.6-45.7 93.9"/>
     <path d="m788 279.1h-8.2"/>
     <path d="m826.4 183.8-46.6 95.4"/>
     <path d="m564.9 330.6 261.5-146.8"/>
    </g>
    <path d="m611.5 235.2-46.6 95.4" stroke-width="5.624998"/>
    <ellipse cx="590.95416" cy="-58.269917" rx="5.271423" ry="7.848564" stroke-width="14.034715" transform="matrix(.72846687 .68508103 -.68508103 .72846687 0 0)"/>
    <g stroke-width="5.625">
     <path d="m328.5 431.2c-3 1.3-5.2-2.2-3.2-4.6 5.6-6.8 84.8-45.6 84.8-45.6"/>
     <path d="m328.5 431.2c22.5-8.9 52.2-48.9 60.4-86.1s38.8-97.2 73.8-110.6"/>
    </g>
   </g>
   <path d="m462.7 234.5c-69.6 30.5-151.5 186.5-178.1 218.6-5.9 7-12.5 14.1-19.9 18.8-5.6 3.7-11.6 6-18 6-21.6.1-17.9-35.7-40.7-49.4-15.7-9.4-43.2-2.7-68.9 3" stroke-width="5.624999"/>
  </g>
 </g>
</svg>
