<svg height="210mm" viewBox="0 0 1052.4 744.1" width="297mm" xmlns="http://www.w3.org/2000/svg">
 <g fill="none" stroke-linecap="round">
  <g transform="translate(0 -308.26772)">
   <path d="m57.6 742.2h948.8" stroke="#969696" stroke-width="1.875"/>
   <g stroke="#000" stroke-dasharray="3.75 7.5" stroke-miterlimit="2" stroke-width=".9375">
    <path d="m58.3 844.1h948.8"/>
    <path d="m58.3 641.8h948.8"/>
    <path d="m58.3 540.6h948.8"/>
   </g>
  </g>
  <g stroke-linejoin="round" stroke-width="5.625">
   <path d="m448.7 360.5c9.3-12.6 18-18.1 26.2-21.7 24.8-6.9 35 2.5 12.3 40.5l-29.8 52.1" stroke="#000"/>
   <path d="m457.4 431.5 65.1-41.3-52.4 96" stroke="#0a0000"/>
   <path d="m470.1 486.3c37.3-35.1 90.1-82.5 102.7-91.2 21.7-13.4 45.5-1.7 26.5 21.8-27.4 33.8-45.5 50.2-39.4 63.9 4.2 9.6 23.2 7.2 36.5-3.7" stroke="#000"/>
  </g>
 </g>
</svg>
