<svg height="210mm" viewBox="0 0 1052.4 744.1" width="297mm" xmlns="http://www.w3.org/2000/svg">
 <g fill="none" stroke-linecap="round">
  <g transform="translate(0 -308.26772)">
   <path d="m57.6 742.2h948.8" stroke="#969696" stroke-width="1.875"/>
   <g stroke="#000" stroke-dasharray="3.75 7.5" stroke-miterlimit="2" stroke-width=".9375">
    <path d="m58.3 844.1h948.8"/>
    <path d="m58.3 641.8h948.8"/>
    <path d="m58.3 540.6h948.8"/>
   </g>
  </g>
  <g stroke="#000">
   <g stroke-linejoin="round">
    <path d="m758 458.7c2.8-1.2 8-2.1 13.1-.7 6.4 1.8 11.8 7.8 17.8 18.6 4.8 8.7 10.3 11.2 16 11.5 3 .1 7.6 0 10.4 0" stroke-width="5.625"/>
    <path d="m774.9 456.8c7.8 4.9 8.8 2 26.1 28.6" stroke-width="6.587558"/>
    <path d="m541.4 431.4c21.1-8.3 63.3-28.7 85.8-45.7 14.6-11.1 26.2-22.8 35-31.6 10.2-10.3 18.9-20.2 24.9-29 10.7-15.6 13.1-27.8 1.6-33-14-6.3-42.6 13.7-89.8 91.6-38.6 66.7-42.5 95.9-31.4 103.1 1.1.7 2.2 1.1 3.5 1.3 1.2.2 2.5.3 3.9.2" stroke-width="5.625"/>
   </g>
   <path d="m672.2 296.8c-48 60-85.3 117-108.1 178.2" stroke-width="5.625"/>
   <path d="m661.2 306.8c-38.3 44.9-72.9 96.9-94.8 156.8" stroke-width="7.500001"/>
   <path d="m690.4 294.1c-12-5.1-22.3 10.8-27.8 15.9" stroke-width="3.75"/>
   <g stroke-width="5.625">
    <path d="m568.8 462.5c-3 9.2-6.3 20-.7 24.5"/>
    <g stroke-linejoin="round">
     <path d="m445.9 431.6c39-64.7 104.7-56.6 95.5-.1"/>
     <path d="m574.8 488.2c3.4 0 7.8-1.3 12.8-3.7 4-1.9 8.8-4.1 13.1-8 19.4-17.2 46.7-55 60.5-68.8 5.5-5.5 12.1-12.1 20.5-16.2 3.5-1.7 7.3-2.9 11.5-3.5 3.3-.4 6.4-.1 9 .9 2.8 1 5 2.6 6.6 4.7 3.7 5.2 3.1 13.5-5.1 23.4-24.4 29.4-45.3 47.5-38 63 2.6 5.6 8.4 7.9 18.1 7.7 29.3-.6 76.5-37.7 96.7-34 20.2 3.8 18.7 54.1 53.5 25.2"/>
     <path d="m394.7 235-60.8 107.6c-24.8 38.8-52 72.9-91.2 88.5"/>
     <path d="m242.7 431.1c-3.3 1.1-5.4-2.2-3.9-4.5 3.5-5.3 79.4-37.4 101.4-36.9 8.9.2 16.2 2.2 21.8 6.1 11.3 7.8 18.8 22 25.1 36.8"/>
     <path d="m387 432.6c10.5 24.8 17.6 51.3 33 51.8 13.8.8 27.5-12.4 37.9-24.8"/>
    </g>
   </g>
  </g>
 </g>
</svg>
