<svg height="210mm" viewBox="0 0 1052.4 744.1" width="297mm" xmlns="http://www.w3.org/2000/svg">
 <g fill="none" stroke-linecap="round">
  <g transform="translate(0 -308.26772)">
   <path d="m57.6 742.2h948.8" stroke="#969696" stroke-width="1.875"/>
   <g stroke="#000" stroke-dasharray="3.75 7.5" stroke-miterlimit="2" stroke-width=".9375">
    <path d="m58.3 844.1h948.8"/>
    <path d="m58.3 641.8h948.8"/>
    <path d="m58.3 540.6h948.8"/>
   </g>
  </g>
  <g stroke="#000" stroke-linejoin="round" stroke-width="5.625">
   <path d="m486.1 431.2c-27.2-1 108.6-48.4 108.6-48.4l22.6 48.4"/>
   <path d="m415.2 384.3c40 3 59.8-35.8 56.6-44.3-2.8-7.3-29.3-4.3-53.1 35-24.8 40.5-20.5 57.5-8.5 57.4 32.9-2.2 63.1-43.3 80.3-67.7 0 0 65.6-98.5 72.1-105.9 6.8-8.1 20.7-24 35.7-23.4 32.6 1.4-46.7 181.2-112.2 195.7"/>
  </g>
 </g>
</svg>
