<svg height="210mm" viewBox="0 0 1052.4 744.1" width="297mm" xmlns="http://www.w3.org/2000/svg">
 <g fill="none" stroke-linecap="round">
  <g transform="translate(0 -308.26772)">
   <path d="m57.6 742.2h948.8" stroke="#969696" stroke-width="1.875"/>
   <g stroke="#000" stroke-dasharray="3.75 7.5" stroke-miterlimit="2" stroke-width=".9375">
    <path d="m58.3 844.1h948.8"/>
    <path d="m58.3 641.8h948.8"/>
    <path d="m58.3 540.6h948.8"/>
   </g>
  </g>
  <g stroke="#000" stroke-linejoin="round">
   <path d="m604.2 382.4s29.9-59.2 34.5-70.3c5.9-14.1-3.5-25.4-18.3-24.7-4.1.2-7.4 1-12.2 2.5-7.8 2.8-23.1 8.9-34.3 14.1-24.5 11.2-217.1 104.4-260.3 129.5" stroke-width="5.624999"/>
   <g stroke-width="5.625">
    <path d="m604.2 382.4 96.9-45.9"/>
    <path d="m313.6 433.4c-27 16.7-90.2 91.8-63 99 11.2 2.5 33.1-7.6 54.5-66.3 15.7-47.2 16.4-112.8 70.4-130.9"/>
    <path d="m725.7 483c24.4-11 37.7-23.5 37-43.2-.9-26.6-61.5-103.3-61.5-103.3"/>
    <path d="m214.7 389.6c-7.4 25.6 5.1 42.3 24.3 41.6 16.4-.6 32.8-10.4 60.3-37.4 23.1-22.8 52.4-45.8 57.3-48.9"/>
   </g>
  </g>
 </g>
</svg>
