<svg height="210mm" viewBox="0 0 1052.4 744.1" width="297mm" xmlns="http://www.w3.org/2000/svg">
 <g fill="none" stroke-linecap="round">
  <g transform="translate(0 -308.26772)">
   <path d="m57.6 742.2h948.8" stroke="#969696" stroke-width="1.875"/>
   <g stroke="#000" stroke-dasharray="3.75 7.5" stroke-miterlimit="2" stroke-width=".9375">
    <path d="m58.3 844.1h948.8"/>
    <path d="m58.3 641.8h948.8"/>
    <path d="m58.3 540.6h948.8"/>
   </g>
  </g>
  <g stroke="#000" stroke-linejoin="round" stroke-width="5.625">
   <path d="m454.5 285.4-111.2 110.1"/>
   <path d="m454.5 285.4c-9 16-18.6 33.2-27.9 49.3-4.8 8.3-9.6 17-14.2 26.2-8.1 14-.3 20.3 11.5 20.3 21.6-.2 36.8-19.3 47.6-33"/>
   <ellipse cx="33.3965" cy="543.12982" rx="25.728558" ry="20.371416" transform="matrix(.79083574 -.61202846 .61202846 .79083574 0 0)"/>
   <path d="m471.5 348.2 47.1-64.1"/>
   <path d="m538.6 330.6 59.6-95.3"/>
   <path d="m518.6 284 20 46.5"/>
   <path d="m706.8 257.5c-4.6 4.6-9.8 11.4-17.7 11.5-13.9 0-14.2-24.9-27.4-25.3-19-.7-38.4 24.9-58.8 25.9-10.6.2-12.9-10-4.6-34.3"/>
  </g>
 </g>
</svg>
