<svg height="210mm" viewBox="0 0 1052.4 744.1" width="297mm" xmlns="http://www.w3.org/2000/svg">
 <g fill="none" stroke-linecap="round">
  <g transform="translate(0 -308.26772)">
   <path d="m57.6 742.2h948.8" stroke="#969696" stroke-width="1.875"/>
   <g stroke="#000" stroke-dasharray="3.75 7.5" stroke-miterlimit="2" stroke-width=".9375">
    <path d="m58.3 844.1h948.8"/>
    <path d="m58.3 641.8h948.8"/>
    <path d="m58.3 540.6h948.8"/>
   </g>
  </g>
  <g stroke="#000">
   <g stroke-linejoin="round" stroke-width="5.625">
    <path d="m605.5 409.3c14-11.2 32.2-26.1 32.2-26.1l33.3 47.9"/>
    <path d="m637.7 383.2 24 48"/>
    <path d="m647.2 383.3 23.8 47.9"/>
    <path d="m643.3 383.1 24 48"/>
   </g>
   <path d="m640 382.2h7.1" stroke-width="3.75"/>
   <path d="m663.4 432.1h7.1" stroke-width="3.75"/>
   <g stroke-width="5.625">
    <path d="m566.8 431.7c8.7.4 23.1-8.2 38.7-22.3" stroke-linejoin="round"/>
    <path d="m782.8 234.2-111.8 196.9"/>
    <g stroke-linejoin="round">
     <path d="m600.7 347.5c50.5-45.8 100.6-101.9 78.1-109.6-14.6-5-42.6 12.2-89.8 90.1-42.5 73.3-43.2 100.2-27.6 103.5 1 .3 2.8.4 5.3.2"/>
     <path d="m537.4 399.9c25.9-20.3 58.2-46.4 63.3-52.4"/>
     <path d="m291.5 431.7c16.9-15.5 55.5-36.1 83.7-37.2 39.8-1.5 60.3 36.7 94.6 36.8 2.9 0 5.7-.2 8.3-.7 21-3.4 42.3-15.5 59.2-30.8"/>
    </g>
   </g>
  </g>
 </g>
</svg>
