<svg height="210mm" viewBox="0 0 1052.4 744.1" width="297mm" xmlns="http://www.w3.org/2000/svg">
 <g fill="none" stroke-linecap="round">
  <g transform="translate(0 -308.26772)">
   <path d="m57.6 742.2h948.8" stroke="#969696" stroke-width="1.875"/>
   <g stroke="#000" stroke-dasharray="3.75 7.5" stroke-miterlimit="2" stroke-width=".9375">
    <path d="m58.3 844.1h948.8"/>
    <path d="m58.3 641.8h948.8"/>
    <path d="m58.3 540.6h948.8"/>
   </g>
  </g>
  <g stroke="#000">
   <path d="m303.9 350.2c7.6-7.2 15.8-13.4 27.4-14.8 7.2-.8 13.5 1.8 16.1 7.3 5.5 11.8-5.5 22.9-21.8 40.6s-27.2 28.8-21.7 40.6c2.6 5.5 8.8 7.4 16.1 7.3 14.6-.3 27.5-7.1 80.1-47.3" stroke-linejoin="round" stroke-width="5.624999"/>
   <g stroke-width="5.625">
    <path d="m400.1 383.8 21.8 47.1" stroke-linejoin="round"/>
    <path d="m407.3 383.7 21.8 47.1" stroke-linejoin="round"/>
    <path d="m400.1 383.8 7.2-.1"/>
    <path d="m404.1 385.1 20.7 44.7" stroke-linejoin="round"/>
    <path d="m421.9 430.9 7.2-.1"/>
   </g>
   <path d="m429.2 430.8c20.4-27.3 41.5-53.6 52.7-66.5 15-17.8 30.2-29.3 40.9-29.1 12.4.2 12.3 17.3 5.9 36-14.7 43-40.7 81.4-67.8 118.2-44.1 60-60.7 41.1-61.7 38.1-4.9-8.2.9-20.2 10.3-31.5 22.7-27.4 138.7-113.2 176.2-140.3" stroke-linejoin="round" stroke-width="5.625001"/>
   <path d="m585.7 355.7c9-5.9 23.2-17.9 37.6-19.7 3.3-.4 6.4-.1 9 .9 2.8 1 5 2.6 6.6 4.7 3.7 5.2 3.1 13.5-5.1 23.4-5.6 6.8-11.9 13.7-16.9 19.1-4.9 5.2-10.2 11.1-15.8 17.8-8.2 9.9-8.8 18.2-5.1 23.4 1.5 2.2 3.8 3.8 6.6 4.7 2.6.9 6.2 1.4 8.7 1.3 5.1-.1 13.2-1.1 17.6-.7 5 .4 12 2.1 17.2 4.8" stroke-linejoin="round" stroke-width="5.624999"/>
   <path d="m617.6 445.7c-2.4 3.8-3.7 7.6-4.4 11.1-.9 4.9 0 9.9 3.2 13.9 1.5 1.9 3.4 3.4 5.5 4.6 2.4 1.3 5.2 2.2 8.1 2.5 2.2.3 4.5.2 6.9-.1 1.7-.2 3.4-.7 5.1-1.2 2.5-.8 5-2 7.3-3.6s4.4-3.4 6-5.4c1.9-2.3 3.3-4.8 4.2-7.4 1.1-3.2 1.4-6.5.9-9.6-.5-2.6-1.5-5.1-3.3-7.2-2.9-3.4-5.9-5.9-10.8-7.8" stroke-width="5.625003"/>
   <path d="m617.6 445.7c8.2-12.5 20.8-24.9 33.2-39.5 14.5-17.1 34.7-40.6 42.8-48.6 10.8-10.7 22.4-20.2 35.4-21.3 4.4-.4 8.5-.1 12.1.8 3.7.9 7.1 2.4 9.9 4.6 9.5 7.3 12.9 21.9 5.8 42.7" stroke-linejoin="round" stroke-width="5.692855"/>
  </g>
 </g>
</svg>
