<svg height="210mm" viewBox="0 0 1052.4 744.1" width="297mm" xmlns="http://www.w3.org/2000/svg">
 <g fill="none" stroke-linecap="round">
  <g transform="translate(0 -308.26772)">
   <path d="m57.6 742.2h948.8" stroke="#969696" stroke-width="1.875"/>
   <g stroke="#000" stroke-dasharray="3.75 7.5" stroke-miterlimit="2" stroke-width=".9375">
    <path d="m58.3 844.1h948.8"/>
    <path d="m58.3 641.8h948.8"/>
    <path d="m58.3 540.6h948.8"/>
   </g>
  </g>
  <g stroke="#000" stroke-linejoin="round">
   <path d="m468.6 235.2s-59.4 127.4-77.2 165.7c-7.5 18.8 3.3 31 18.7 30.5 8.4-.6 15.3-3.6 21.7-8 7.3-5 27.5-26.6 38.6-42.6 34.8-50.2 128.8-205.7 169.5-197.4 3 .1 5 1.7 6.1 4.6 10.7 27.9-65.8 174.3-122.4 192.5" stroke-width="5.625"/>
   <path d="m636.1 231.1c-11.5 21.5-39 69.9-54.2 94.8" stroke-width="8.4375"/>
   <path d="m525.2 379c17.6-7.4 30.5-22.8 43.2-39.5 5.5-7.3 12-16.7 20.5-29.8" stroke-width="3.75"/>
   <path d="m630.6 244.6-54.8 90.9" stroke-width="5.625"/>
   <path d="m644.4 186.1c5.1 7.4-2.4 28.2-11.3 46.7" stroke-width="4.6875"/>
   <path d="m523.5 380.5c-19.2 4 109.2-102.3 133.3-122.3 17.8-14.8 30.2-23.2 42.8-23 8.1.1 14.9 5.5 14.2 16.3-.5 6.7-5 15.5-11.7 26.8l-31.2 52.3" stroke-width="5.625001"/>
  </g>
 </g>
</svg>
