<svg height="210mm" viewBox="0 0 1052.4 744.1" width="297mm" xmlns="http://www.w3.org/2000/svg">
 <g fill="none" stroke-linecap="round">
  <g transform="translate(0 -308.26772)">
   <path d="m57.6 742.2h948.8" stroke="#969696" stroke-width="1.875"/>
   <g stroke="#000" stroke-dasharray="3.75 7.5" stroke-miterlimit="2" stroke-width=".9375">
    <path d="m58.3 844.1h948.8"/>
    <path d="m58.3 641.8h948.8"/>
    <path d="m58.3 540.6h948.8"/>
   </g>
  </g>
  <g stroke-width="5.625">
   <g stroke-linejoin="round">
    <path d="m456.9 417.9c30.3-33.3 186.2-168.6 154.2-179.5-14.6-5-40.2 8.9-87.4 86.8-44.7 77.2-42.7 104.1-26.8 105.3" stroke="#000"/>
    <path d="m496.9 430.4 166.3.2" stroke="#030002"/>
    <path d="m672.9 414.9c1 .1 1.8.3 2.5.7.2.1.4.2.6.4 1.2.9 1.7 2.6 1 5.2-1.3 5.1-7.1 8-9.8 9-5.7 2-9.8-2.6-6.6-7.6 2-3.1 5.5-6.6 9.7-7.5.3-.1.6-.1.9-.1s.7-.1 1-.1c.8 0 1.6.1 2.4.3" stroke="#030002"/>
    <path d="m674.4 425.8c8.6-11.6 42.4-60.8 58.5-72.3 2.8-2 5.7-4 8.7-5.9 5.2-3.2 10.6-6.2 16.4-8.7 19.6-8.3 35 2.5 12.3 40.5l-29.8 52.1" stroke="#000003"/>
    <g stroke="#000">
     <path d="m740.4 431.5 77.4-30.6"/>
     <path d="m346 384.9 20 46 43.5-47.3"/>
     <path d="m409.5 383.6 46.5-47.8-39 72.4c-8.4 15.5 4.9 25.3 21.5 21.9 1.3-.3 2.7-.7 4-1.3"/>
    </g>
   </g>
   <g stroke="#000">
    <path d="m456.9 417.9c-6.8 6.1-12 10.2-14.4 10.8"/>
    <path d="m304.9 431.3 41.1-46.4" stroke-linejoin="round"/>
   </g>
  </g>
 </g>
</svg>
