<svg height="210mm" viewBox="0 0 1052.4 744.1" width="297mm" xmlns="http://www.w3.org/2000/svg">
 <g fill="none" stroke-linecap="round">
  <g transform="translate(0 -308.26772)">
   <path d="m57.6 742.2h948.8" stroke="#969696" stroke-width="1.875"/>
   <g stroke="#000" stroke-dasharray="3.75 7.5" stroke-miterlimit="2" stroke-width=".9375">
    <path d="m58.3 844.1h948.8"/>
    <path d="m58.3 641.8h948.8"/>
    <path d="m58.3 540.6h948.8"/>
   </g>
  </g>
  <g stroke="#000" stroke-linejoin="round" stroke-width="5.625">
   <path d="m631.6 381.5c12.7-.8 14.5.6 27.5-7.5 6.8-4.2 22.4-18.2 33.1-26.1"/>
   <path d="m692.2 347.9c13.9-9.6 21.6-13.4 31-11.2 11.7 3 16.7 12.9-.5 42.9l-29.8 52.1"/>
   <ellipse cx="726.87207" cy="-171.19724" rx="4.609393" ry="6.862874" transform="matrix(.72846687 .68508103 -.68508103 .72846687 0 0)"/>
   <path d="m344.6 383.6 17.5 47.4 202.9-93.9"/>
   <path d="m585.8 342.7c6.2 9 3 23.3-7.1 32.1s-23.3 8.6-29.5-.4-3-23.3 7.1-32.1 23.3-8.6 29.5.4z"/>
   <path d="m564.3 337.5s92.1-45 129.8-81.2c34.9-33.4 63.5-63.5 50.7-73.3-12.2-9.4-42.6 13.7-89.8 91.6-38.6 66.7-42.5 98.3-31.4 105.5 2.5 1.4 4.7 1.6 8.1 1.5"/>
  </g>
 </g>
</svg>
