<svg height="210mm" viewBox="0 0 1052.4 744.1" width="297mm" xmlns="http://www.w3.org/2000/svg">
 <g fill="none" stroke-linecap="round">
  <g transform="translate(0 -308.26772)">
   <path d="m57.6 742.2h948.8" stroke="#969696" stroke-width="1.875"/>
   <g stroke="#000" stroke-dasharray="3.75 7.5" stroke-miterlimit="2" stroke-width=".9375">
    <path d="m58.3 844.1h948.8"/>
    <path d="m58.3 641.8h948.8"/>
    <path d="m58.3 540.6h948.8"/>
   </g>
  </g>
  <g stroke="#000" stroke-linejoin="round">
   <path d="m315.6 385.7c40-.1 61.2-34.2 56.6-44.3-5.4-11.8-29.3-4.3-53.1 35.1-26.6 43.6-21.3 55.1-9.1 54.9 19.3-1.2 39.4-19.8 62.3-38.5" stroke-width="5.625"/>
   <ellipse cx="54.25631" cy="558.85626" rx="25.728558" ry="20.371416" stroke-width="5.625" transform="matrix(.79083574 -.61202846 .61202846 .79083574 0 0)"/>
   <g stroke-width="5.459193">
    <path d="m761.4 336.9s-263.2 88.5-285.8 93"/>
    <path d="m532.3 246.4c-9.7 5.7-166.6 152.4-166.6 152.4"/>
    <path d="m761.4 336.9-54.2 94.4"/>
   </g>
   <path d="m475.6 429.9c-3.2.7-6.5 1.2-9.7 1.3-8.7.4-16.6-1.6-20.1-6.1-34.5-35.6 53-168.5 106.1-190.7" stroke-width="5.625"/>
  </g>
 </g>
</svg>
