<svg height="210mm" viewBox="0 0 1052.4 744.1" width="297mm" xmlns="http://www.w3.org/2000/svg">
 <g fill="none" stroke-linecap="round">
  <g transform="translate(0 -308.26772)">
   <path d="m57.6 742.2h948.8" stroke="#969696" stroke-width="1.875"/>
   <g stroke="#000" stroke-dasharray="3.75 7.5" stroke-miterlimit="2" stroke-width=".9375">
    <path d="m58.3 844.1h948.8"/>
    <path d="m58.3 641.8h948.8"/>
    <path d="m58.3 540.6h948.8"/>
   </g>
  </g>
  <g stroke="#000" stroke-linejoin="round" stroke-width="5.625">
   <ellipse cx="75.108284" cy="574.58521" rx="25.728558" ry="20.371416" transform="matrix(.79083574 -.61202846 .61202846 .79083574 0 0)"/>
   <path d="m409.6 386.9 190.8-49.7"/>
   <path d="m600.4 337.2c25.1-7.2 42.6-10.8 57.8-23.7 10.2-8.7 14.6-21.2 13.1-25.2-2.8-7.3-29.3-4.3-53.1 35-27.6 45.1-21.8 54-6.5 53.4 19.1-1.2 30.9-7.8 55.1-27.1"/>
  </g>
 </g>
</svg>
