<svg height="210mm" viewBox="0 0 1052.4 744.1" width="297mm" xmlns="http://www.w3.org/2000/svg">
 <g fill="none" stroke-linecap="round">
  <g transform="translate(0 -308.26772)">
   <path d="m57.6 742.2h948.8" stroke="#969696" stroke-width="1.875"/>
   <g stroke="#000" stroke-dasharray="3.75 7.5" stroke-miterlimit="2" stroke-width=".9375">
    <path d="m58.3 844.1h948.8"/>
    <path d="m58.3 641.8h948.8"/>
    <path d="m58.3 540.6h948.8"/>
   </g>
  </g>
  <g stroke-linejoin="round">
   <path d="m482.7 371.5s-93.1 32.5-111.1 38.9c-8 3.5-14.4 7.4-17.1 11.5-1.9 3.1-1.1 8.1 3.9 8.6 3 .3 9.7-4.2 11-5 10.7-6.1 20.2-15.8 27.8-26.6 28.4-40.2 30.6-95.6-25.7-40.3" stroke="#010000" stroke-width="5.625"/>
   <g stroke="#000">
    <path d="m648 391.1s-85.6 25.9-90.5 27.2c-5.2 1.4-8 4.3-8 6.9 0 3.7-.1 5 4.9 5.5 3 .3 15.4-10.4 16.7-11.2 12.1-14.1 16.3-19.8 23.4-33.8 13.2-25.9 19.6-49.7 2.9-50.7-4.2-.3-9.3-1-17.4 1.7-30.5 11-87.8 31.2-97.4 34.7" stroke-width="5.419139"/>
    <path d="m604.9 338.3c10.5 12-15.7 72.6-40.8 86.5" stroke-width="5.638243"/>
    <path d="m601.9 337.9c3.6 34.1-21.2 69-37.7 86.9" stroke-width="5.638243"/>
    <path d="m594.6 336.2c9.9-.9 5.8 12 5.7 17.3" stroke-width="2.819121"/>
    <path d="m570.7 415.1c-5.5 6.9-8.3 10.7-14.3 14.1" stroke-width="2.819121"/>
    <path d="m602.7 336.4c20.8 17.6-10.4 77.2-40.7 90.3" stroke-width="5.638243"/>
    <path d="m648 391.1 18.8 40.2" stroke-width="5.625"/>
   </g>
  </g>
 </g>
</svg>
