<svg height="210mm" viewBox="0 0 1052.4 744.1" width="297mm" xmlns="http://www.w3.org/2000/svg">
 <g fill="none" stroke-linecap="round">
  <g transform="translate(0 -308.26772)">
   <path d="m57.6 742.2h948.8" stroke="#969696" stroke-width="1.875"/>
   <g stroke="#000" stroke-dasharray="3.75 7.5" stroke-miterlimit="2" stroke-width=".9375">
    <path d="m58.3 844.1h948.8"/>
    <path d="m58.3 641.8h948.8"/>
    <path d="m58.3 540.6h948.8"/>
   </g>
  </g>
  <g stroke="#000">
   <g stroke-width="5.625">
    <path d="m592.3 394.9c3-4.3 37.2-43.3 43.4-48.3 23.7-19.2 60.9-14.6 37.5 14.4-27.4 33.8-45.5 50.2-39.4 63.9 1.5 3.4 4.9 5.3 9.2 5.8 2.7.3 5.8.1 9.1-.6 18.4-3.7 44.4-14.1 68.7-34.4" stroke-linejoin="round"/>
    <path d="m674 338.2c14.5 10.1 4.3 27.8-12.4 44.2-14.4 14-23.4 26.4-29.5 38.7"/>
    <path d="m674 338.2c.8-1.1 3.9 6.1.7 14.2-3.2 8.4-12.8 17.8-18.3 22.9-10.8 10.1-30.6 29-24.3 45.7"/>
   </g>
   <g stroke-width="2.8125">
    <path d="m665.4 336.5c11.3 1.3 8.8 6.5 9.1 11"/>
    <path d="m637.2 413.8c-2.7 4.9-3.8 12 2.3 14.5"/>
    <path d="m629.5 415.2c-.1 5.7 2.9 11.5 4.9 13.1"/>
   </g>
   <g stroke-linejoin="round">
    <g stroke-width="5.625">
     <path d="m435.8 431.6c-18-4.7 59.6-25 77.6-27.5 2.9-.4 6.1-.2 9.5.7 20.4 5.9 24.2 45.5 48.5 15.6l20.7-25.5"/>
     <path d="m305.9 431.3c10.6-12.1 23.1-30.8 40-31.7 16-.6 21.6 31 32.6 30.7 7.2-.2 12.4-7.6 16.7-13"/>
     <path d="m395.2 417.4s124.1-162.6 126.3-165.3c2.6-3.2 5-5.8 7.4-7.8 83-65-26.7 159.9-88.2 186.6-1.8.4-3.4.6-4.9.7"/>
     <path d="m556.8 252.7-91.7 157.8"/>
    </g>
    <path d="m551.1 268.9-73.1 125.7" stroke-width="8.4375"/>
    <path d="m448.3 426.4c6.6-8.2 16.4-19 22.5-27.9" stroke-width="3.75"/>
    <g stroke-width="5.625">
     <path d="m540 296.5-40.2 67.9"/>
     <path d="m558.6 239c.7 14-5.4 18.6-14.3 37.1"/>
    </g>
   </g>
  </g>
 </g>
</svg>
