<svg height="210mm" viewBox="0 0 1052.4 744.1" width="297mm" xmlns="http://www.w3.org/2000/svg">
 <g fill="none" stroke-linecap="round">
  <g transform="translate(0 -308.26772)">
   <path d="m57.6 742.2h948.8" stroke="#969696" stroke-width="1.875"/>
   <g stroke="#000" stroke-dasharray="3.75 7.5" stroke-miterlimit="2" stroke-width=".9375">
    <path d="m58.3 844.1h948.8"/>
    <path d="m58.3 641.8h948.8"/>
    <path d="m58.3 540.6h948.8"/>
   </g>
  </g>
  <g stroke="#000">
   <g stroke-linejoin="round" stroke-width="5.625">
    <path d="m282 335.9c-13.8 25.3-25 48-37.4 72.9-7.6 16.6-.3 23.4 13.1 22.1"/>
    <path d="m257.8 430.9c17.8-3.4 59.5-23.6 87.5-40.1 15.4-9.1 30.3-19.3 43.6-30.8 7.2-6.4 9.4-13.1 4.9-19.5-2.1-3.3-7.1-4.4-10.6-4.4-21.7 1.1-38.3 26.7-46.3 39.7-47.4 77.5-2.2 59.5 29.8 32.6"/>
    <path d="m372.1 339.1c-4 2.4-12.8 10.7-18.1 16.7-5.4 6.1-8.5 11.6-14.1 20.4-14 23-21.3 32.2-23.7 45.9"/>
    <path d="m377.8 336.8c-11.5 1.2-23.1 10.3-31.4 19.3-8 8.7-11.8 14.5-15.1 20.1-12.5 20.4-21.9 46.7-12.3 53.8"/>
   </g>
   <path d="m381.8 337.6c-7.2.7-11.7 4.5-15.8 8.1" stroke-width="2.8125"/>
   <g stroke-linejoin="round" stroke-width="5.625">
    <path d="m509.5 364.8c12.7-15.1 26.7-27.1 40.2-27.2 23-.4 21.9 42.7 43.4 41.8 11.4-.5 16.1-4.5 23.7-13.7"/>
    <path d="m616.9 365.7c14.2-14.7 65.7-93.5 65.7-93.5"/>
    <path d="m682.6 272.2s26.4-38.9 29.2-42.6c9-12.3 17.4-24.1 33.1-24.6 12.2-.4 16.3 25.1 31.9 24.2 8.7-.5 14.1-5.1 21.4-14.5"/>
    <path d="m366.6 408.3c37.3-31 60.3-73.6 87.5-72 17.5 1.1 17.6 16.9 6.1 31.3-27.4 33.8-41.9 45.3-35.9 58.9 2 4.4 7.9 6 14.6 5.6 15.2-.5 25.1-13.9 34.8-24.7l35.8-42.6"/>
   </g>
  </g>
 </g>
</svg>
