<svg height="210mm" viewBox="0 0 1052.4 744.1" width="297mm" xmlns="http://www.w3.org/2000/svg">
 <g fill="none" stroke-linecap="round">
  <g transform="translate(0 -308.26772)">
   <path d="m57.6 742.2h948.8" stroke="#969696" stroke-width="1.875"/>
   <g stroke="#000" stroke-dasharray="3.75 7.5" stroke-miterlimit="2" stroke-width=".9375">
    <path d="m58.3 844.1h948.8"/>
    <path d="m58.3 641.8h948.8"/>
    <path d="m58.3 540.6h948.8"/>
   </g>
  </g>
  <g stroke="#000">
   <path d="m625.7 413.4c21.7-11.6 45.8-24.5 48.8-26.4 7.2-4.5 15.1-9 20.2-13.4 12.8-11.2 18.6-26.1 16.7-30.9-2.8-7.3-34.7-8.6-58.5 30.7-26.3 43.1-17.7 60.3-4.2 58.6 9.2-1.4 15.1-5.1 15.1-5.1 13.2-9.2 19.8-16.7 25.1-22.8" stroke-linejoin="round" stroke-width="5.625"/>
   <path d="m691.6 344c-30.3 19.2-39.8 50.5-52.2 79" stroke-width="4.6875"/>
   <path d="m684.5 344c-17.9 10.4-41.1 45.1-46.5 68.6" stroke-width="4.6875"/>
   <path d="m645.2 411.6c-4 10.7-6.4 18.8 3.6 20.4" stroke-width="2.8125"/>
   <path d="m706 340.8c-7.4-2.4-11 2.2-15.8 5.2" stroke-width="2.8125"/>
   <path d="m681.1 348.8c-28 20.5-28.9 42.2-43.4 69.6" stroke-width="4.6875"/>
   <g stroke-linejoin="round" stroke-width="5.625">
    <path d="m570.9 386.4 20.5 45 34.3-18"/>
    <path d="m531.2 421.3c6.3-4.9 39.7-35 39.7-35"/>
    <path d="m260.8 354.6c30.2-38 75.4-13.4 1.7 29 44.6-18 9.4 21.5-8.4 47.2"/>
    <path d="m254.1 430.9c16.4-2.9 204-36 214.7-36 24.9-.2 12.9 38 38.8 36.3 7.8-.5 15.9-4.4 23.6-9.7"/>
   </g>
  </g>
 </g>
</svg>
