<svg height="210mm" viewBox="0 0 1052.4 744.1" width="297mm" xmlns="http://www.w3.org/2000/svg">
 <g fill="none" stroke-linecap="round">
  <g transform="translate(0 -308.26772)">
   <path d="m57.6 742.2h948.8" stroke="#969696" stroke-width="1.875"/>
   <g stroke="#000" stroke-dasharray="3.75 7.5" stroke-miterlimit="2" stroke-width=".9375">
    <path d="m58.3 844.1h948.8"/>
    <path d="m58.3 641.8h948.8"/>
    <path d="m58.3 540.6h948.8"/>
   </g>
  </g>
  <g stroke="#000" stroke-linejoin="round">
   <path d="m385.5 336c-9.6-.9-22.8 2.3-35.1 4.6-19.2 3.8-265.9 63.1-292.3 85.7-2.5 2.1-1.3 6.3 2.1 5.1" stroke-width="5.625"/>
   <path d="m392.8 345.4c-3.5 30.5-22.5 59.5-39.7 77.4" stroke-width="5.638243"/>
   <path d="m336.5 431.6c4.9-1 9.7-4.3 11-5 38.7-22.3 61.1-90.1 37.9-90.6" stroke-width="5.625001"/>
   <path d="m355.8 416.1c-4.9 5.9-8.2 9.5-15.8 13" stroke-width="2.819122"/>
   <path d="m392.5 346.4c-1.9 20.3-21 56.1-43.7 79.4" stroke-width="5.638243"/>
   <path d="m375.7 337.5c11.2-1 21.8 4.7 6.5 37.1" stroke-width="2.819122"/>
   <path d="m60.2 431.4c4.9-1 9.7-4.3 11-5 38.7-22.3 61.1-90.2 37.9-90.6-10-.2-19.6 7.2-28.8 16.1-6 5.8-13.1 13.8-19.7 21.3" stroke-width="5.625002"/>
   <path d="m386.9 337.9c2.3 2.7 4 5.8 4.2 8.9" stroke-width="2.819122"/>
   <g stroke-width="5.625">
    <path d="m336.5 431.6c-4.2.9-5.7-3.2-3.2-4.8 9-5.5 76.3-26.1 92.4-26.1 16-.6 18.8 30.9 32.6 30.7 8.7-.1 16.7-8.4 21.7-14.8 8.7-11.2 16.5-22.7 22.8-30 33.1-38.7 73.7-52 103.6-50.8 37.4 1.5 65.7 38.1 55.9 95.5"/>
    <path d="m783.1 431c9-.8 13.9-7 18-12.3 7.3-10 18-22.9 29.2-28.3 8.6-4.1 17.2-5.1 24.7-4.3s14 3.8 18.9 8.9c7.4 7.6 11.1 20 8.4 36.3"/>
    <path d="m662.5 431.3c30.7-14.5 59.4-29.9 80.3-30.4 3.5-.1 6.8.3 10 1.2 14 3.9 15.4 29.1 30.2 28.9"/>
    <path d="m730.9 402.5c13.9-3.4 21.3.8 30.2 18.7 6 12 14.1 9.8 22 9.8"/>
    <path d="m749.2 404.2c6.7 5.9 6.3.5 21.2 23.1"/>
    <path d="m882.4 431.3s28.3-35.7 42.3-51.8c12-13.8 36-41.8 53.9-43.4 5.2-.3 8.3 2.5 9.6 7.8 1.4 5.5.8 13.7-1.4 23.6-11.5 51.7-67.4 150.9-118.9 166.9"/>
   </g>
  </g>
 </g>
</svg>
