<svg height="210mm" viewBox="0 0 1052.4 744.1" width="297mm" xmlns="http://www.w3.org/2000/svg">
 <g fill="none" stroke-linecap="round">
  <g transform="translate(0 -308.26772)">
   <path d="m57.6 742.2h948.8" stroke="#969696" stroke-width="1.875"/>
   <g stroke="#000" stroke-dasharray="3.75 7.5" stroke-miterlimit="2" stroke-width=".9375">
    <path d="m58.3 844.1h948.8"/>
    <path d="m58.3 641.8h948.8"/>
    <path d="m58.3 540.6h948.8"/>
   </g>
  </g>
  <g stroke-width="5.625">
   <g stroke-linejoin="round">
    <g stroke="#000004">
     <path d="m617 393.6 25.7-9.1c1.2-.4-27.7 46.5-27.7 46.5"/>
     <path d="m615.8 234.9-57.1 109.3c-24.8 39-64.2 79.9-90.4 88.2-15.5 5.6 139.6-117.3 158.1-133.1"/>
     <path d="m647.7 384.6-27.2 46.4"/>
     <path d="m625 430.9-9.9.2"/>
     <path d="m653.9 381.3-28.9 49.5"/>
     <path d="m653.9 381.3-10.2 2.8"/>
    </g>
    <path d="m617 393.6s-32.9 16.2-36.1 17.8c-4.3 2.2-14.7 7.9-16.6 11.7-3.4 6.4 4.9 8.8 6.4 8.4 15.1-4.5 47.4-44.7 52.6-82 5.7-40.6 44.3-104.4 80-114.7-18 3.2-76.8 64.4-76.9 64.4" stroke="#000"/>
   </g>
   <path d="m661.5 267.2c-4 6.8-7.9 16.4-10.8 21.8-20.5 37.5-18 44.6-29.9 76.5-2.7 7.2-7.2 15.1-12.8 25" stroke="#000004"/>
   <path d="m674.5 253.7c-4.3 6.5-27.4 38.4-29.2 44.5-6.6 21.7-8.3 19.5-10.6 25.5-15.2 19.5-6.7 31.7-26.7 66.9" stroke="#000026"/>
  </g>
  <g stroke="#000">
   <path d="m653.4 285.8c-13.4 28.2-24.4 58.4-33.8 84.9" stroke-opacity=".86385" stroke-width="3.75"/>
   <path d="m625.8 335.2c-4.3 18.4-9.8 36.9-17.9 55.3" stroke-linejoin="round" stroke-width="5.625"/>
  </g>
 </g>
</svg>
