<svg height="210mm" viewBox="0 0 1052.4 744.1" width="297mm" xmlns="http://www.w3.org/2000/svg">
 <g fill="none" stroke-linecap="round">
  <g stroke="#000" transform="translate(0 -308.26772)">
   <path d="m57.6 742.2h948.8" stroke-width="1.875"/>
   <g stroke-dasharray="3.75 7.5" stroke-miterlimit="2" stroke-width=".9375">
    <path d="m58.3 844.1h948.8"/>
    <path d="m58.3 641.8h948.8"/>
    <path d="m58.3 540.6h948.8"/>
   </g>
  </g>
  <g stroke-linejoin="round">
   <g stroke="#000">
    <g stroke-width="5.625">
     <path d="m223.5 431.4c1.9-.1 4.1-.4 6.5-1.2 15.2-3.3 71-38.9 88.1-48.8l22.4 50.2"/>
     <path d="m340.5 431.6c18.7-16.7 34.3-33.4 49.7-34.3 20.1-.2 16.5 32.9 34.6 34.3 4.2 0 17.3-1.2 20.5-1.3"/>
     <path d="m252.2 334.4c54.3-11 95.5-79.5 89.2-96.2-5.5-14.4-40.3 8.9-87.4 86.8-45.4 78.3-46.9 106.9-30.5 106.4"/>
     <path d="m469.7 383.7c2.9.3 5.4.9 7.5 2 .7.3 1.3.7 1.9 1.2 3.6 2.8 4.9 7.6 2.9 15.3-3.9 15-20.9 23.6-29 26.7-16.7 6-29.1-7.7-19.5-22.5 6-9.3 16.3-19.5 28.5-22 .8-.2 1.7-.3 2.5-.4 1-.1 2-.2 3.1-.2 2.4 0 4.8.3 7.2 1"/>
     <path d="m548.9 338.4c-12.4 8-75.7 77.6-75.7 77.6"/>
    </g>
    <path d="m516.6 411.7c-8.8 7.3-12.2 11.4-12.2 14 0 3.7.8 5.8 5.8 6.3 10.8-.7 34.8-26.4 41.7-37 20.9-32.2 25.1-71.2-3-56.5" stroke-width="5.419139"/>
   </g>
   <g stroke-width="5.624959">
    <g stroke="#00000c">
     <path d="m630.4 420.3 14.8-13.2 9.5-7.9 18.3-16.7 33.3 47.9 46.6-49.4"/>
     <path d="m673.1 382.5 23.9 48"/>
     <path d="m682.6 382.5 23.8 47.9"/>
    </g>
    <path d="m688.5 251-171.9 160.7" stroke="#000"/>
   </g>
  </g>
  <g stroke="#00000c">
   <path d="m678.7 382.4 23.9 47.9" stroke-linejoin="round" stroke-width="5.624959"/>
   <path d="m675.4 381.4h7.1" stroke-width="3.749973"/>
   <path d="m698.8 431.4h7" stroke-width="3.749973"/>
   <g stroke-linejoin="round">
    <g stroke-width="5.624959">
     <path d="m642.7 409.4c-10.7 10-20.6 18.7-28.1 21-55 17.3 33.7-138.4 77.9-185 4.6-5 11.2-10.7 18.8-11.9"/>
     <path d="m753.1 381 44.5-46.4-55.8 97.2"/>
     <path d="m808.2 334.6-55.8 97.2"/>
     <path d="m808.2 334.6h-10.6"/>
     <path d="m802.6 334.6-55.8 97.2"/>
     <path d="m752.4 431.8h-10.6"/>
     <path d="m680.2 260.5-82.8 155.7"/>
     <path d="m660.7 291.7-53.8 98.9"/>
    </g>
    <path d="m602.8 429.7c-7.3-6.7-2.9-16.4 2.6-27.7" stroke-width="3.749973"/>
    <path d="m688.5 251-35.7 61.7" stroke-width="5.624959"/>
   </g>
  </g>
  <g stroke="#000">
   <path d="m661.9 282c-13.2 24.1-55.5 83.1-62.2 121" stroke-linejoin="round" stroke-width="5.624959"/>
   <path d="m640.2 322.2-36.7 76.3" stroke-width="3.749973"/>
  </g>
 </g>
</svg>
