<svg height="210mm" viewBox="0 0 1052.4 744.1" width="297mm" xmlns="http://www.w3.org/2000/svg">
 <g fill="none" stroke-linecap="round">
  <g transform="translate(0 -308.26772)">
   <path d="m57.6 742.2h948.8" stroke="#969696" stroke-width="1.875"/>
   <g stroke="#000" stroke-dasharray="3.75 7.5" stroke-miterlimit="2" stroke-width=".9375">
    <path d="m58.3 844.1h948.8"/>
    <path d="m58.3 641.8h948.8"/>
    <path d="m58.3 540.6h948.8"/>
   </g>
  </g>
  <g stroke-linejoin="round">
   <g stroke="#000">
    <path d="m258 431.6s9.7-26.3 37.2-26.5c23.1-.2 24.7 48.4 51.5 15.5l6.2-7.7c18.5-22.4 33.1-47.9 49-72.2" stroke-width="5.625"/>
    <path d="m513.6 255.3c-.8 5.4-.7 9.8-5.7 20l-93.8 134.9-1.8 13.5" stroke-width="5.625"/>
    <path d="m508.7 265.5-67.9 98.8-28.6 41.8-2.2 10.7" stroke-width="8.4375"/>
    <g stroke-width="3.75">
     <path d="m424.8 396.3c-5.1 7.7-10 15.6-10 22.5 0 3.1 0 6.1 2.7 8.3 1.9 1.5 3.7 4.1 9.9 2.9"/>
     <path d="m514.4 238.9c2.8 5.2 2.1 16.5-1 26.4-1.6 5.1-4.3 10.5-8.7 16.2"/>
    </g>
   </g>
   <g stroke="#000006">
    <path d="m548.3 372.2s-46.2 34.1-55.3 41.4c-8.6 7-10.1 8.6-9.4 12.3.6 3.6 1.9 4.8 5.3 5.2 3.3.4 8.2-3.6 9.6-4.4 40.7-23.3 63.4-95.3 35.6-90.6-27.4 7.3-75.6 80.4-95.3 90.3-3.6 1.9-7.1 3.4-10.4 4.2-8.7 2.3-16.2.3-20.7-8.4-7.2-18.2 21.5-50.8 47.8-86.2 18.6-25.1 28.1-41.6 43.1-61.9 15.9-21.5 23.9-36.6 4.7-41-5.4-1.3-14.3-1.6-25.5 8.3-8.3 7.4-15.7 15.5-26.8 27.5l-49.2 71.8" stroke-width="5.419139"/>
    <g stroke-width="5.625">
     <path d="m548.3 372.2 36.3-27.4c22.9-17.3 54.4-6.9 34.6 16.8-28 33.4-47.1 52.6-39.4 63.9 4.4 6.4 13.1 7.1 22.5 4.1 5-1.6 15.4-7 20.2-10.3"/>
     <path d="m620.9 420.1s57.3-31.6 62.6-35.3c6.8-4.7 14.1-9.5 18.8-14.1 11.8-11.6 16.5-26.3 14.5-30.9-3.1-6.9-34.1-6.4-55 33-23.1 43.2-14 58.7-.7 58.8 11.8-1.7 17.2-3.9 28.3-7.5"/>
    </g>
   </g>
  </g>
 </g>
</svg>
