<svg height="210mm" viewBox="0 0 1052.4 744.1" width="297mm" xmlns="http://www.w3.org/2000/svg">
 <g fill="none" stroke-linecap="round">
  <g transform="translate(0 -308.26772)">
   <path d="m57.6 742.2h948.8" stroke="#969696" stroke-width="1.875"/>
   <g stroke="#000" stroke-dasharray="3.75 7.5" stroke-miterlimit="2" stroke-width=".9375">
    <path d="m58.3 844.1h948.8"/>
    <path d="m58.3 641.8h948.8"/>
    <path d="m58.3 540.6h948.8"/>
   </g>
  </g>
  <g stroke-linejoin="round" stroke-width="5.625">
   <path d="m404.2 320.8c12.6-15.8 22.8-23 32-25.3 8.1-2 15.3-2.1 21-.6 6.2 1.6 11.2 6.4 8.7 18.1-6.4 14.1-15.9 21.3-33.7 32-15.8 12.8-43.5 22.6-38.9 53.9 6.3 42.7-45.5 80.6-63.9 91.9" stroke="#000"/>
   <path d="m404.2 320.8-88.3 107.4" stroke="#000"/>
   <path d="m315.9 416.1c1 .1 1.8.3 2.5.7.2.1.4.2.6.4 1.2.9 1.7 2.6 1 5.2-1.3 5.1-7.1 8-9.8 9-5.7 2-9.8-2.6-6.6-7.6 2-3.1 5.5-6.6 9.7-7.5.3-.1.6-.1.9-.1s.7-.1 1-.1c.8 0 1.6.1 2.4.3" stroke="#030002"/>
   <g stroke="#000">
    <ellipse cx="-3.461212" cy="644.12274" rx="25.728558" ry="20.371416" transform="matrix(.79083574 -.61202846 .61202846 .79083574 0 0)"/>
    <path d="m393.7 489-64.1 1.8"/>
    <path d="m481.7 383.9-104.1 112.4"/>
    <path d="m481.7 383.9 17.5 47.4 202.9-93.9"/>
    <path d="m702.2 337.4 48.5-47.5"/>
    <path d="m723 343a19.4 24.5 38 0 1 -7.1 32.1 19.4 24.5 38 0 1 -29.5-.4 19.4 24.5 38 0 1 7.1-32.1 19.4 24.5 38 0 1 29.5.4z"/>
   </g>
  </g>
 </g>
</svg>
