<svg height="210mm" viewBox="0 0 1052.4 744.1" width="297mm" xmlns="http://www.w3.org/2000/svg">
 <g fill="none" stroke-linecap="round">
  <g transform="translate(0 -308.26772)">
   <path d="m57.6 742.2h948.8" stroke="#969696" stroke-width="1.875"/>
   <g stroke="#000" stroke-dasharray="3.75 7.5" stroke-miterlimit="2" stroke-width=".9375">
    <path d="m58.3 844.1h948.8"/>
    <path d="m58.3 641.8h948.8"/>
    <path d="m58.3 540.6h948.8"/>
   </g>
  </g>
  <g stroke="#000">
   <g stroke-linejoin="round">
    <path d="m429.4 292.9c-21.1 23.1-173.9 175.7-197.2 202.6-10.4 12.1-16.6 23.5-13.9 31.7 1.4 4 18.2 22.9 61.7-38.1 26.9-36.9 52.8-73.4 67.5-116.4 2.2-6.5 3.5-12.2 4.1-17.2 1.5-12.5-6.5-19.5-15.9-19.2-8.1.3-20.4 7.4-36.9 24.7" stroke-width="5.624999"/>
    <path d="m429.4 292.9c61.2-67.3 92.3-112.1 116.5-109.5 5 .5 8.7 2.3 11.3 4.7 2.9 2.7 4.4 6.3 4.7 10.6.3 4.5-.7 9.7-2.8 15.2-2 5.2-5 10.6-8.5 16.2l-65.3 106.2c-7.4 12.6-10.3 23.1-7.7 30.8 2.4 6.9 6.3 12.1 16.8 12.9 7.1.2 14-1.7 20.4-5.5 6.8-4 13.1-10.1 18.6-18" stroke-width="5.624999"/>
    <g stroke-width="5.625">
     <path d="m562.2 384.6c41.4 3.1 61.9-37.1 58.6-45.8-2.9-7.5-30.3-4.4-55 36.3-27.8 45.5-21.9 58.3-6.5 55.8 28-6.5 50.7-27.9 64.4-43.3"/>
     <ellipse cx="502.211" cy="654.57001" rx="25.728558" ry="20.371416" transform="matrix(.89236516 -.45131411 .45131411 .89236516 0 0)"/>
    </g>
   </g>
   <g stroke-width="5.625">
    <path d="m868.3 186-102.5 177.3"/>
    <path d="m623.7 387.6c19.2-22.2 38.1-51.8 57.7-52 26 0 17.7 60.6 69.3 41" stroke-linejoin="round"/>
   </g>
  </g>
 </g>
</svg>
