<svg height="210mm" viewBox="0 0 1052.4 744.1" width="297mm" xmlns="http://www.w3.org/2000/svg">
 <g fill="none" stroke-linecap="round">
  <g transform="translate(0 -308.26772)">
   <path d="m57.6 742.2h948.8" stroke="#969696" stroke-width="1.875"/>
   <g stroke="#000" stroke-dasharray="3.75 7.5" stroke-miterlimit="2" stroke-width=".9375">
    <path d="m58.3 844.1h948.8"/>
    <path d="m58.3 641.8h948.8"/>
    <path d="m58.3 540.6h948.8"/>
   </g>
  </g>
  <g stroke="#000" stroke-linejoin="round">
   <path d="m341.1 431.2 108.1-42.8" stroke-width="5.625"/>
   <path d="m449.2 388.4 19.9 43.3" stroke-width="5.625"/>
   <path d="m387.7 336.7-46.6 94.5" stroke-width="5.624999"/>
   <path d="m469.1 431.7s129.9-158.8 170.7-187.6" stroke-width="5.624959"/>
   <path d="m661.4 335.9c-28.9 52.2-58.5 93.9-86 96-2.7.2-4.5.2-6.9 0-42.8-1.9 3.2-152.5 85.6-196.9" stroke-width="5.625"/>
   <path d="m654.1 235.1c-36.3 29.6-59.8 62.6-75.9 97.1-9.8 21-16.3 39.9-22.8 64.2" stroke-width="5.624999"/>
   <path d="m558.3 427.3c-12.2-16.3 1.7-55.7 17.6-93.6 16-38 48.8-80.2 74.4-95.9" stroke-width="4.687499"/>
   <path d="m575.4 338.4c-8.2 18.2-14.3 37-18 50.4-2.9 10.3-4.3 21.6-2.6 29.9 1.3 6.5 4.9 11.2 10 12.5" stroke-width="5.624999"/>
  </g>
 </g>
</svg>
