<svg height="210mm" viewBox="0 0 1052.4 744.1" width="297mm" xmlns="http://www.w3.org/2000/svg">
 <g fill="none" stroke-linecap="round">
  <g transform="translate(0 -308.26772)">
   <path d="m57.6 742.2h948.8" stroke="#969696" stroke-width="1.875"/>
   <g stroke="#000" stroke-dasharray="3.75 7.5" stroke-miterlimit="2" stroke-width=".9375">
    <path d="m58.3 844.1h948.8"/>
    <path d="m58.3 641.8h948.8"/>
    <path d="m58.3 540.6h948.8"/>
   </g>
  </g>
  <g stroke="#000" stroke-linejoin="round">
   <path d="m374 355.6c8.1-7.6 17.5-17.9 32-19.7 3.3-.4 6.4-.1 9 .9 2.8 1 5 2.6 6.6 4.7 3.7 5.2 3.1 13.5-5.1 23.4-24.4 29.4-45.3 43.7-38 59.3 2.6 5.6 10.2 8.5 18.2 7.4 10.8-1.9 19.7-8.3 28.1-15.4 31.9-27.2 55.7-36.9 80.7-30.3 16.1 4.3 25.3 20.2 18 46.1" stroke-width="5.625"/>
   <g stroke-width="5.625001">
    <path d="m523.3 432 80.6-42.4 21 42"/>
    <path d="m625 431.6c13.5-14.6 32.3-32.3 50.8-33.3 17.6-.7 20.1 33.8 33.9 33.8 9 0 13.8-4.7 20.3-10.5"/>
   </g>
  </g>
 </g>
</svg>
