<svg height="210mm" viewBox="0 0 1052.4 744.1" width="297mm" xmlns="http://www.w3.org/2000/svg">
 <g fill="none" stroke-linecap="round">
  <g transform="translate(0 -308.26772)">
   <path d="m57.6 742.2h948.8" stroke="#969696" stroke-width="1.875"/>
   <g stroke="#000" stroke-dasharray="3.75 7.5" stroke-miterlimit="2" stroke-width=".9375">
    <path d="m58.3 844.1h948.8"/>
    <path d="m58.3 641.8h948.8"/>
    <path d="m58.3 540.6h948.8"/>
   </g>
  </g>
  <g stroke="#000" stroke-linejoin="round">
   <path d="m439.7 311c9.2-14.3 25.1-25.6 37.3-25.3 16.7.5 20.9 16 1.3 42-26.7 35.5-36.4 51-45.5 64.6-5.3 8.3-7.2 19-3.7 26 10.4 18.4 47.3 13.5 57.9 6.6" stroke-width="5.625"/>
   <ellipse cx="642.02142" cy="-28.432123" rx="4.609393" ry="6.862874" stroke-width="5.625" transform="matrix(.72846687 .68508103 -.68508103 .72846687 0 0)"/>
   <path d="m484 425.5c10.2 20.6 38.7-48.2 76.5-80.5 6.2-5.1 12.3-8.4 18.7-8.9 3.3-.4 6.4-.1 9 .9 2.8 1 5 2.6 6.6 4.7 3.7 5.2 3.1 13.5-5.1 23.4-24.4 29.4-44.9 43-37.7 58.6 2.6 5.6 8.9 7.8 16.3 7.4 14.6-.7 27.5-7.1 80.1-47.3l22.1 47.1" stroke-width="5.624999"/>
  </g>
 </g>
</svg>
