<svg height="210mm" viewBox="0 0 1052.4 744.1" width="297mm" xmlns="http://www.w3.org/2000/svg">
 <g stroke-linecap="round">
  <g fill="none" transform="translate(0 -308.26772)">
   <path d="m57.6 742.2h948.8" stroke="#969696" stroke-width="1.875"/>
   <g stroke="#000" stroke-dasharray="3.75 7.5" stroke-miterlimit="2" stroke-width=".9375">
    <path d="m58.3 844.1h948.8"/>
    <path d="m58.3 641.8h948.8"/>
    <path d="m58.3 540.6h948.8"/>
   </g>
  </g>
  <g stroke="#000" stroke-linejoin="round">
   <g fill="none" stroke-width="5.625">
    <ellipse cx="67.739944" cy="569.89594" rx="25.728558" ry="20.371416" transform="matrix(.79083574 -.61202846 .61202846 .79083574 0 0)"/>
    <path d="m383.6 399.8c9.5-12 32.5-39.2 42.4-49.6 16.9-17.9 26.9-18.3 33.4-5.7 6.5 12.7 4 16.5 12.3 25.5 15.9 17.3 43.8-26.2 34.5-32.6-6.3-4.4-25.9 1.6-49.4 40.3-13.6 22.3-14.6 31.9-14.6 40 0 15.3 18.8 20.6 42.4 11.6"/>
    <path d="m433.8 342.7c9.6-6.8 18.9 3.9 22.4 15.6 3.2 10.5 7.8 16.5 23.1 15.6"/>
    <path d="m445.7 338.9c13.6.7 15.1 26.7 22.1 28.3"/>
   </g>
   <g fill="#eb0000" fill-rule="evenodd" transform="matrix(1.1266744 0 0 1.1266744 -336.68904 207.01179)">
    <path d="m732.1 185.5c.8.1 1.4.2 1.9.5.2.1.3.2.5.3.9.7 1.3 2 .8 4-1 3.9-5.4 6.1-7.5 6.9-4.3 1.6-7.6-2-5.1-5.9 1.6-2.4 4.2-5.1 7.4-5.7.2 0 .4-.1.7-.1h.8c.6 0 1.2.1 1.9.3" stroke-width="5.625"/>
    <path d="m729.3 188.3c.3 0 .6.1.9.2.1 0 .2.1.2.1.4.3.6.9.4 1.8-.4 1.7-2.4 2.8-3.3 3.1-1.9.7-3.4-.9-2.3-2.6.7-1.1 1.9-2.3 3.3-2.6h.3.4c.3 0 .6 0 .8.1" stroke-width="4.981044"/>
   </g>
   <path d="m480.1 430.9c27.2 6.6 66.4-29.7 83.2-30.5 16-.6 21.6 31 32.6 30.7 7.2-.2 12.4-7.6 16.7-13" fill="none" stroke-width="5.625"/>
  </g>
 </g>
</svg>
