<svg height="210mm" viewBox="0 0 1052.4 744.1" width="297mm" xmlns="http://www.w3.org/2000/svg">
 <g fill="none" stroke-linecap="round">
  <g transform="translate(0 -308.26772)">
   <path d="m57.6 742.2h948.8" stroke="#969696" stroke-width="1.875"/>
   <g stroke="#000" stroke-dasharray="3.75 7.5" stroke-miterlimit="2" stroke-width=".9375">
    <path d="m58.3 844.1h948.8"/>
    <path d="m58.3 641.8h948.8"/>
    <path d="m58.3 540.6h948.8"/>
   </g>
  </g>
  <g stroke="#000" stroke-width="5.625">
   <g stroke-linejoin="round">
    <path d="m721 479.2c13.4-11.7 29.4-23.5 34.7-26.8 5.9-3.7 12.3-6.2 20.6-5.7 20.5 1.3 15.8 56.7 57.3 21.3"/>
    <path d="m833.6 468.1 41.2-32.3"/>
    <path d="m418 423.7c-2.3 14.3 330.8-40.1 334.5-39.9 3.8.2 6.9 1.7 8.9 4.4 4.3 6.1 2.9 18.6-9.1 38.6l-31.2 52.3"/>
    <path d="m426.8 411.7c.8.1 1.4.2 1.9.5.2.1.3.2.5.3.9.7 1.3 2 .8 4-1 3.9-5.4 6.1-7.5 6.9-4.3 1.6-7.6-2-5.1-5.9 1.6-2.4 4.2-5.1 7.4-5.7.2 0 .4-.1.7-.1s.5-.1.8-.1c.6 0 1.2.1 1.9.3"/>
    <path d="m421.7 423.7c-24 7-42.1 7.7-53.3 7.2-20.4-.9-31.6-15.9-23.9-42.1"/>
    <path d="m884.4 579.7c14.8-7.7 32.2-16.2 28.9-34.4-.9-14.2-55-41.3-61.8-64.1-3.5-11.7 8.2-28.9 23.4-45.3"/>
   </g>
   <path d="m375 234.6-96.4 166.7"/>
   <ellipse cx="-13.716675" cy="506.1886" rx="25.728558" ry="20.371416" stroke-linejoin="round" transform="matrix(.79083574 -.61202846 .61202846 .79083574 0 0)"/>
   <path d="m270.6 457.4c24.8 33.5 76.4 32.1 103.1 0"/>
  </g>
 </g>
</svg>
