<svg height="210mm" viewBox="0 0 1052.4 744.1" width="297mm" xmlns="http://www.w3.org/2000/svg">
 <g fill="none" stroke-linecap="round">
  <g transform="translate(0 -308.26772)">
   <path d="m57.6 742.2h948.8" stroke="#969696" stroke-width="1.875"/>
   <g stroke="#000" stroke-dasharray="3.75 7.5" stroke-miterlimit="2" stroke-width=".9375">
    <path d="m58.3 844.1h948.8"/>
    <path d="m58.3 641.8h948.8"/>
    <path d="m58.3 540.6h948.8"/>
   </g>
  </g>
  <g stroke="#000" stroke-linejoin="round">
   <path d="m233 430.8c19.7-30.4 58.5-94.5 78.6-121.4 5.9-7.9 11.3-13.3 17.2-17.2 6.4-4.2 12.1-7.2 19.4-7.4 20.5-1 21.4 15.5 13.3 26.6-26.2 34.8-45.5 50.2-39.4 63.9 2.4 5.5 9.7 8.2 18 6.8 5.2-.9 13.1-2.5 26-12.8 18.9-15.1 41-32.8 60.9-33.1 8.8-.1 16.6 2.2 22.5 7.1 8.9 7.4 13.4 20.4 10.5 38.3" stroke-width="5.625"/>
   <path d="m460 381.6 90.7-45.2 21.3 45.2" stroke-width="5.624999"/>
   <path d="m708.7 335.5-46.6 95.4" stroke-width="5.624999"/>
   <path d="m708.7 335.5s-96.4 35.2-101.3 41.4c-2.4 3 .3 5.6 4 4.2" stroke-width="5.419139"/>
   <path d="m611.5 381.1c30.6-11.1 53.3-52.7 55.8-77 .6-6 0-10.9-2-14-1.5-2.4-3.9-3.8-7.2-3.9-3.1 0-6.9 1.1-11.7 3.8-13.2 7.4-23.7 19.7-32.3 30.8-15.3 19.6-27.4 41.4-42.1 60.9" stroke-width="5.625"/>
  </g>
 </g>
</svg>
