<svg height="210mm" viewBox="0 0 1052.4 744.1" width="297mm" xmlns="http://www.w3.org/2000/svg">
 <g fill="none" stroke-linecap="round">
  <g transform="translate(0 -308.26772)">
   <path d="m57.6 742.2h948.8" stroke="#969696" stroke-width="1.875"/>
   <g stroke="#000" stroke-dasharray="3.75 7.5" stroke-miterlimit="2" stroke-width=".9375">
    <path d="m58.3 844.1h948.8"/>
    <path d="m58.3 641.8h948.8"/>
    <path d="m58.3 540.6h948.8"/>
   </g>
  </g>
  <g stroke="#000">
   <path d="m468.6 433.4c-27 16.7-90.2 91.8-63 99 11.2 2.5 33.1-7.6 54.5-66.3 15.7-47.2 16.4-112.8 70.4-130.9" stroke-linejoin="round" stroke-width="5.625"/>
   <path d="m468.6 433.4 120.4-96.9 21 42" stroke-linejoin="round" stroke-width="5.625001"/>
   <g stroke-width="5.625">
    <path d="m343.2 533.8c88.8-119.2 123.1-164.8 171.5-191.1"/>
    <path d="m610 378.4c13.5-14.6 30.4-32.3 48.9-33.3 21.6-1 19.3 34.2 43.2 33.8 19.4-.3 31.5-6.4 80.1-47.3" stroke-linejoin="round"/>
   </g>
  </g>
 </g>
</svg>
