<svg height="210mm" viewBox="0 0 1052.4 744.1" width="297mm" xmlns="http://www.w3.org/2000/svg">
 <g fill="none" stroke-linecap="round">
  <g transform="translate(0 -308.26772)">
   <path d="m57.6 742.2h948.8" stroke="#969696" stroke-width="1.875"/>
   <g stroke="#000" stroke-dasharray="3.75 7.5" stroke-miterlimit="2" stroke-width=".9375">
    <path d="m58.3 844.1h948.8"/>
    <path d="m58.3 641.8h948.8"/>
    <path d="m58.3 540.6h948.8"/>
   </g>
  </g>
  <g stroke="#000">
   <g stroke-linejoin="round">
    <path d="m692.1 235.2s-66.1 127.2-85.7 164.6c-8.4 18.4 1.8 31.1 17.2 31.3 18.2-.5 26.7-8.2 44.5-26.2 6.1-6.2 13.9-15.3 20.1-22.2 28.7-31.7 39-47 67.4-46.4 26.2-.4 33.6 31.6 33.6 45" stroke-width="5.625"/>
    <path d="m781.1 353.9c1.2 7.1 5.2 21.5 4 26" stroke-width="5.625001"/>
    <path d="m752.7 337.3c13-.1 22.2 8.8 25.1 17 3.4 9.6 4.7 20.4 4.2 26.9" stroke-width="4.6875"/>
   </g>
   <path d="m782.5 381.2 6.7.1" stroke-width="5.625001"/>
   <path d="m730 342.4c8.7-4.3 15.6-4.7 19.7-4.7 6.9.1 11.7.7 16.7 3.7" stroke-linejoin="round" stroke-width="3.75"/>
   <path d="m846.8 335.8-57.6 45.5" stroke-width="5.625001"/>
   <g stroke-linejoin="round" stroke-width="5.625">
    <path d="m261 431.3 176.4-.4"/>
    <ellipse cx="611.8028" cy="7.968457" rx="4.609393" ry="6.862875" transform="matrix(.72846687 .68508103 -.68508103 .72846687 0 0)"/>
    <path d="m261 431.3c43.9-15.9 71.5-94.7 46.6-94.9-7.2-.1-18.9 6.5-35.8 23.2"/>
    <path d="m444.1 427.8 108.8-92.4"/>
    <path d="m692.1 235.2-112.3 110.3c-26.4 26-110.4 102.8-141.8 135.9-22.4 23.6-37.5 42.6-21.7 50.7 7.6 2.8 24.1-.6 52.3-46 6.7-10.8 84.3-150.7 84.3-150.7"/>
   </g>
  </g>
 </g>
</svg>
