<svg height="210mm" viewBox="0 0 1052.4 744.1" width="297mm" xmlns="http://www.w3.org/2000/svg">
 <g fill="none" stroke-linecap="round">
  <g transform="translate(0 -308.26772)">
   <path d="m57.6 742.2h948.8" stroke="#969696" stroke-width="1.875"/>
   <g stroke="#000" stroke-dasharray="3.75 7.5" stroke-miterlimit="2" stroke-width=".9375">
    <path d="m58.3 844.1h948.8"/>
    <path d="m58.3 641.8h948.8"/>
    <path d="m58.3 540.6h948.8"/>
   </g>
  </g>
  <g stroke="#000" stroke-linejoin="round" stroke-width="5.625">
   <path d="m523.5 423.7c23.3-20.5 40.7-40.1 74.1-40 21.6.3 39.4 6.6 33.2 47.7"/>
   <path d="m400.8 431.6c-9 0 41.2-19.1 61.2-26.6 6.2-2.3 11.8-3.6 15.9-2.8 17.2 3.2 16 46.2 45.6 21.5"/>
   <path d="m459.5 406.2c5.4-2.4 18.6-2.2 26.5 15 5.6 12.2 13.9 9.5 20.5 9.9"/>
   <path d="m474.1 404.3c6.7 5.9 6.3.5 21.2 23.1"/>
   <path d="m630.8 431.3 87.5-47.1"/>
   <path d="m400.8 431.6c17.9-4.9 27.5-16.7 27.3-25.9-1.1-20.7-47.4-26.8-49-48.9-.3-8.7 9.9-17.8 19.6-20.3 15.9-4 23.4 4.5 19.6 15.9-2 6.1-6.7 13.8-17.4 22-2.4 1.8-4.8 2.9-4.8 2.9"/>
  </g>
 </g>
</svg>
