<svg height="210mm" viewBox="0 0 1052.4 744.1" width="297mm" xmlns="http://www.w3.org/2000/svg">
 <g fill="none" stroke-linecap="round">
  <g transform="translate(0 -308.26772)">
   <path d="m57.6 742.2h948.8" stroke="#969696" stroke-width="1.875"/>
   <g stroke="#000" stroke-dasharray="3.75 7.5" stroke-miterlimit="2" stroke-width=".9375">
    <path d="m58.3 844.1h948.8"/>
    <path d="m58.3 641.8h948.8"/>
    <path d="m58.3 540.6h948.8"/>
   </g>
  </g>
  <g stroke="#000" stroke-linejoin="round" stroke-width="5.625">
   <path d="m255.8 430.4 61.3-46.6 21 47.3 151.7-123.2"/>
   <path d="m593.5 432.2c5.4-3.3 11.7-10.5 6.5-17.1-2.6-3.3-4-4.5-11.9-4.4l-98.8.6c-6.7.1-14.3.2-15.9-.7-10.5-5.8-7.4-13.7.5-24.6"/>
   <path d="m489.8 307.9c42-41.9 44-57.4 39.7-68.7-5.5-14.4-40.3 8.9-87.4 86.8-66.8 115.3-38.6 122.7 2.1 88.5 1.7-1.4 21.8-19.9 29.7-28.6"/>
   <path d="m599.4 427s45.5-55.5 82.9-101.2"/>
   <path d="m679.8 328.7 52.8-57.6c11.1-11.9 18.5-20.1 26.8-27.5 11.2-10 20.1-9.6 25.5-8.3 19.1 4.5 11.2 19.6-4.7 41-15 20.3-24.5 34.9-43.1 60-26.3 35.4-55 68-47.8 86.2 9.6 18.5 32.3 6.5 53-11.7"/>
  </g>
 </g>
</svg>
