<svg height="210mm" viewBox="0 0 1052.4 744.1" width="297mm" xmlns="http://www.w3.org/2000/svg">
 <g fill="none" stroke-linecap="round">
  <g transform="translate(0 -308.26772)">
   <path d="m57.6 742.2h948.8" stroke="#969696" stroke-width="1.875"/>
   <g stroke="#000" stroke-dasharray="3.75 7.5" stroke-miterlimit="2" stroke-width=".9375">
    <path d="m58.3 844.1h948.8"/>
    <path d="m58.3 641.8h948.8"/>
    <path d="m58.3 540.6h948.8"/>
   </g>
  </g>
  <g stroke="#000">
   <g stroke-linejoin="round">
    <g stroke-width="5.625">
     <path d="m662.1 351.7c10.3-6.6 15.4-9.4 22.8-13 20.3-9.9 44.8-3.6 44.4 45.2-.5 62.7 43.7 53.9 61.3 30.3"/>
     <path d="m699 334.8c14.1-1.8 35.4 14 35.2 45.9-.2 30.1 8.2 53 28.3 51.2"/>
     <path d="m699 334.8c17-.9 25 18.1 24.8 50-.2 30.1 11.9 49.3 38.7 46.9"/>
     <path d="m551.1 430.6 111-78.9"/>
     <path d="m277.4 415.8 60.6-31.6"/>
    </g>
    <path d="m312.7 398-35.9 18.1c-4.8 2.4-7.7 5.2-8.3 6.2-1.9 3.1-1.1 8.1 3.9 8.6 3 .3 9.7-4.2 11-5 50.8-29 73.5-137 2.1-66.9" stroke-width="5.419139"/>
    <g stroke-width="5.625">
     <path d="m339.7 382.9 33.3 47.9"/>
     <path d="m339.7 382.9 24 48"/>
     <path d="m349.2 383 23.8 47.9"/>
     <path d="m345.2 382.8 24 48"/>
    </g>
   </g>
   <path d="m341.9 381.9h7.1" stroke-width="3.75"/>
   <path d="m365.4 431.8h7.1" stroke-width="3.75"/>
   <g stroke-linejoin="round" stroke-width="5.625">
    <path d="m373.9 430.9c32.3-14.7 60.1-29.4 76.9-30.3 16-.6 15.7 30.4 32.6 30.7 9.6.2 25.2-9.4 41.4-17.8"/>
    <path d="m524.8 413.6c26.6-13.2 81.2-42.9 97.7-52.9 7.8-4.2 16.4-11.7 12.9-21.6-2.8-7.3-28.8-4.3-52.7 35l-31.8 56.4"/>
   </g>
  </g>
 </g>
</svg>
