<svg height="210mm" viewBox="0 0 1052.4 744.1" width="297mm" xmlns="http://www.w3.org/2000/svg">
 <g fill="none" stroke-linecap="round">
  <g transform="translate(0 -308.26772)">
   <path d="m57.6 742.2h948.8" stroke="#969696" stroke-width="1.875"/>
   <g stroke="#000" stroke-dasharray="3.75 7.5" stroke-miterlimit="2" stroke-width=".9375">
    <path d="m58.3 844.1h948.8"/>
    <path d="m58.3 641.8h948.8"/>
    <path d="m58.3 540.6h948.8"/>
   </g>
  </g>
  <g stroke-linejoin="round" stroke-width="5.625">
   <path d="m429 485.9c-17.1-2.3 168.4-99.9 177.8-107" stroke="#000"/>
   <path d="m224.9 432.7c-23.9 6.9-40.2 25.1-54.8 42-19.9 23.2-33.5 46.9-29.4 56.6 5.7 13.2 69.5-28.4 95.8-138.9 17.5-80 53.4-142.9 90.7-155.8" stroke="#000"/>
   <path d="m429 485.9c16.8-.5 33-21.3 35-47.2 2.1-26.8 36.3-48.7 36.3-48.7l-275.4 42.7" stroke="#060000"/>
   <g stroke="#000">
    <path d="m785.7 388.2s-188.7 44.7-208.6 43.1c-16 1.2-22.9-9.9 4.3-56 23.8-40.7 50.4-43.8 53.1-36.3 2.3 6.3-7.3 28.8-27.8 39.9"/>
    <ellipse cx="373.04572" cy="806.41931" rx="25.728558" ry="20.371416" transform="matrix(.79083574 -.61202846 .61202846 .79083574 0 0)"/>
    <path d="m831.6 358.3-53.6 32.6"/>
   </g>
  </g>
 </g>
</svg>
