<svg height="210mm" viewBox="0 0 1052.4 744.1" width="297mm" xmlns="http://www.w3.org/2000/svg">
 <g fill="none" stroke-linecap="round">
  <g transform="translate(0 -308.26772)">
   <path d="m57.6 742.2h948.8" stroke="#969696" stroke-width="1.875"/>
   <g stroke="#000" stroke-dasharray="3.75 7.5" stroke-miterlimit="2" stroke-width=".9375">
    <path d="m58.3 844.1h948.8"/>
    <path d="m58.3 641.8h948.8"/>
    <path d="m58.3 540.6h948.8"/>
   </g>
  </g>
  <g stroke="#000" stroke-linejoin="round">
   <g stroke-width="5.625">
    <path d="m418.4 431.6 354-95.5"/>
    <path d="m418.4 431.6 60.6-108.1c26.4-48.6 52-72.9 91.2-88.5"/>
    <path d="m772.4 336.1s-32.2 58.1-38.9 72.5c-6.4 13.6 1.8 22.8 15 23 23.4.4 42.5-13.1 79.3-47.2"/>
   </g>
   <path d="m314 335.6s-31.1 62.1-35.1 72.5c-5.5 14.2 4 23.1 17.2 23 15-.4 25-10.2 32.6-20.9" stroke-width="5.624999"/>
   <path d="m308.1 472.2-15.8 38.1" stroke-width="5.625"/>
  </g>
 </g>
</svg>
