<svg height="210mm" viewBox="0 0 1052.4 744.1" width="297mm" xmlns="http://www.w3.org/2000/svg">
 <g fill="none" stroke-linecap="round">
  <g transform="translate(0 -308.26772)">
   <path d="m57.6 742.2h948.8" stroke="#969696" stroke-width="1.875"/>
   <g stroke="#000" stroke-dasharray="3.75 7.5" stroke-miterlimit="2" stroke-width=".9375">
    <path d="m58.3 844.1h948.8"/>
    <path d="m58.3 641.8h948.8"/>
    <path d="m58.3 540.6h948.8"/>
   </g>
  </g>
  <g stroke="#000">
   <g stroke-width="5.625">
    <ellipse cx="79.104393" cy="578.14148" rx="25.728558" ry="20.371416" stroke-linejoin="round" transform="matrix(.79083574 -.61202846 .61202846 .79083574 0 0)"/>
    <path d="m471.6 431.9c-15.3 11.2-33.6 28-39.4 33.7-25.9 26.2-48.6 55.7-45.7 63.4 1.1 2.9 22.5 22.8 62-40.9l83.3-151.7-13.2.5-109.6 52.2" stroke-linejoin="round"/>
    <path d="m518.7 337-90.5 178.4"/>
    <path d="m525.8 339.9-83.7 157.4"/>
    <path d="m522.8 338.8-90.8 170.6"/>
   </g>
   <path d="m437 495.9c-6.5 14.2-13.9 23.4-21.7 30.4" stroke-width="3.75"/>
   <g stroke-linejoin="round">
    <path d="m476.8 430.4 54.9-35.8" stroke-width="5.625"/>
    <path d="m561.8 438.8c-5-4.7-8.2-7.6-14.2-10.9-8.5-4.8-11.8-5.8-17.2-11.5-6-6.3-5-21.2 9.8-27.5" stroke-width="5.625"/>
    <path d="m561.8 438.8c12.2 16.6 11.9 33 10 43.6-2 14.1-4 23-19.5 38.9-2.8 2.8-12.2 11.8-17.1 12.7-9.9 1.7-17.8-6.9-3.7-16.4" stroke-width="5.62496"/>
    <path d="m531.5 517.6c17.4-12 41.9-18.5 66-19.6 24-.8 27.7 35.7 44.1 35.3 10.8-.3 18.5-10 25.1-17.1" stroke-width="5.625"/>
   </g>
  </g>
 </g>
</svg>
