<svg height="210mm" viewBox="0 0 1052.4 744.1" width="297mm" xmlns="http://www.w3.org/2000/svg">
 <g fill="none" stroke-linecap="round">
  <g transform="translate(0 -308.26772)">
   <path d="m57.6 742.2h948.8" stroke="#969696" stroke-width="1.875"/>
   <g stroke="#000" stroke-dasharray="3.75 7.5" stroke-miterlimit="2" stroke-width=".9375">
    <path d="m58.3 844.1h948.8"/>
    <path d="m58.3 641.8h948.8"/>
    <path d="m58.3 540.6h948.8"/>
   </g>
  </g>
  <g stroke="#000">
   <g stroke-width="5.625">
    <path d="m492.8 336-61 56.3"/>
    <g stroke-linejoin="round">
     <path d="m342.7 358.6c15.9-32 75.6-30.6 48.2 3.3-27.4 33.8-45.5 50.2-39.4 63.9 2.4 5.5 9.4 6.6 17.6 4.6 24-5.8 40.8-19.9 60.5-36.2"/>
     <ellipse cx="101.16534" cy="594.9649" rx="25.728558" ry="20.371416" transform="matrix(.79083574 -.61202846 .61202846 .79083574 0 0)"/>
    </g>
   </g>
   <path d="m466.6 397.6c.3 9.3-.4 14.6-6.3 21.9-3.6 4.5-8.8 8.3-16 11.1" stroke-width="5.624961"/>
   <path d="m463 392.3c2 6.9 1.8 6.4.7 11.6-1.6 7.6-6.1 13.5-12.5 18.7-3.2 2.6-6.9 5-10.9 7.3" stroke-width="6.599955"/>
   <path d="m445.9 424.2c-5.3 3.7-10.3 5.7-16.3 3.5" stroke-width="2.849979"/>
   <path d="m452.2 387.6c7.4 1.6 9 4 10.4 10.8" stroke-width="2.849979"/>
   <g stroke-linejoin="round" stroke-width="5.625">
    <path d="m662.9 385.1c18.2-7.8 67.9-32.3 91.8-33.5 20.1 1.1 23.7 32.5 39.3 32 7.6-.2 13.6-6 18.7-12.1"/>
    <path d="m662.9 385.1c5.8-3.7 12.8-11.7 7.1-19-2.8-3.6-4.4-5-13-4.9l-147.1.6c-7.4 0-15.4-.2-17.4-.8-9.6-2.9-8.5-13.1.2-25.1"/>
   </g>
  </g>
 </g>
</svg>
