<svg height="210mm" viewBox="0 0 1052.4 744.1" width="297mm" xmlns="http://www.w3.org/2000/svg">
 <g fill="none" stroke-linecap="round">
  <g transform="translate(0 -308.26772)">
   <path d="m57.6 742.2h948.8" stroke="#969696" stroke-width="1.875"/>
   <g stroke="#000" stroke-dasharray="3.75 7.5" stroke-miterlimit="2" stroke-width=".9375">
    <path d="m58.3 844.1h948.8"/>
    <path d="m58.3 641.8h948.8"/>
    <path d="m58.3 540.6h948.8"/>
   </g>
  </g>
  <g stroke="#000" stroke-linejoin="round" stroke-width="5.625">
   <path d="m354.6 502.4c-12 13.3-11 22-9.4 26.2 1.1 2.9 17.7 21.8 57.3-41.8l89-158.8-79.7 8.7"/>
   <path d="m633.7 210.6c-53.9 51.9-271.1 282.2-279.1 291.8"/>
   <path d="m308.6 387.5c40 3 58.3-35.4 56.6-44.3-3.1-16.6-29.3-4.3-53.1 35-42.2 69.1 3.7 57.4 23.6 38.4 10.8-7.4 31-34.1 52.7-64.2"/>
   <ellipse cx="102.8021" cy="538.90326" rx="30.775183" ry="24.367247" transform="matrix(.79083574 -.61202846 .61202846 .79083574 0 0)"/>
   <path d="m610.9 370.2c-14.1 8.1-36.2 8.6-42.6.1-34.5-35.6 53-168.5 106.1-190.7"/>
   <ellipse cx="694.78412" cy="-152.6235" rx="4.609393" ry="6.862874" transform="matrix(.72846687 .68508103 -.68508103 .72846687 0 0)"/>
   <path d="m606.7 370.8c9.7 13.2 41.7-31.6 48.4-40.4 11.5-15.2 16.7-24.1 28.5-24.3 14-.2 13 25.3 30.8 24.7 10.1-1.4 15.1-7.4 20.4-13.2"/>
  </g>
 </g>
</svg>
