<svg height="210mm" viewBox="0 0 1052.4 744.1" width="297mm" xmlns="http://www.w3.org/2000/svg">
 <g fill="none" stroke-linecap="round">
  <g transform="translate(0 -308.26772)">
   <path d="m57.6 742.2h948.8" stroke="#969696" stroke-width="1.875"/>
   <g stroke="#000" stroke-dasharray="3.75 7.5" stroke-miterlimit="2" stroke-width=".9375">
    <path d="m58.3 844.1h948.8"/>
    <path d="m58.3 641.8h948.8"/>
    <path d="m58.3 540.6h948.8"/>
   </g>
  </g>
  <g stroke="#000" stroke-width="5.625">
   <g stroke-linejoin="round">
    <path d="m444.1 431.2c26.5-6.1 42.2-34.8 64.8-44.8 8.2-3.5 14.3-.7 18.4 7.2 6.5 12.7 5 17.4 12.3 27.2 24 32.2 43.2-26.3 34.5-34.3-9.6-8.9-31.9 5.2-51.8 41.3-32 58.8-14.2 61.2 10.3 47.3"/>
    <path d="m532.6 475.1c6-3.9 9.3-5.6 13.4-8.8 18.2-13.7 43.3-30.6 53.3-28.2 16.5 4 23 69.3 57.8 35"/>
    <path d="m437.6 432.4c1.9-.1 4.1-.4 6.5-1.2"/>
    <path d="m526.9 297.4c20.6-22.8 32.1-48.8 28.6-58.2-5.5-14.4-40.3 8.9-87.4 86.8-45.4 78.3-46.9 106.9-30.5 106.4"/>
   </g>
   <path d="m526.9 297.4-217.8 237.9"/>
  </g>
 </g>
</svg>
