<svg height="210mm" viewBox="0 0 1052.4 744.1" width="297mm" xmlns="http://www.w3.org/2000/svg">
 <g fill="none" stroke-linecap="round">
  <g transform="translate(0 -308.26772)">
   <path d="m57.6 742.2h948.8" stroke="#969696" stroke-width="1.875"/>
   <g stroke="#000" stroke-dasharray="3.75 7.5" stroke-miterlimit="2" stroke-width=".9375">
    <path d="m58.3 844.1h948.8"/>
    <path d="m58.3 641.8h948.8"/>
    <path d="m58.3 540.6h948.8"/>
   </g>
  </g>
  <g stroke="#000" stroke-linejoin="round">
   <g stroke-width="5.625">
    <path d="m726.3 356.8c5.5 3.3 22.2 1.9 29.9-.9"/>
    <path d="m605 377.9c18-23.5 36-41.6 55.6-42.9 7.9-.5 14.2 2.9 16.5 8.2 1.9 4.5.9 10.7-4.5 18.1-25.9 35-47.3 50.2-41.3 63.9 2 4.4 6.8 6.2 12.9 5.9 18.7-.8 31.1-11.6 43.9-26.3 18.1-20.8 33.9-41.1 47.7-59"/>
    <ellipse cx="791.38403" cy="-264.13254" rx="4.609393" ry="6.862874" transform="matrix(.72846687 .68508103 -.68508103 .72846687 0 0)"/>
   </g>
   <ellipse cx="765.93964" cy="-245.7316" rx="5.271423" ry="7.848564" stroke-width="14.034715" transform="matrix(.72846687 .68508103 -.68508103 .72846687 0 0)"/>
   <g stroke-width="5.625">
    <path d="m554.6 335.8c8.2-.1 14.7 3.1 16.7 8.8 1.6 4.4.4 10.4-4.8 17.4-25.9 35-47.3 50.2-41.3 63.9 2 4.4 6.8 6.2 12.9 5.9 18.7-.8 31.1-11.6 43.9-26.3 8.2-9.4 15.9-18.7 23.1-27.7"/>
    <path d="m367.6 336.4-55.8 94.9"/>
    <path d="m367.6 336.4h-10.6"/>
    <path d="m362.1 336.4-55.8 94.9"/>
    <path d="m311.8 431.3h-10.6"/>
    <path d="m256.3 431.2 100.7-94.8-55.8 94.9 11-.1c171.4-70.3 214.6-97.2 242.4-95.3"/>
   </g>
  </g>
 </g>
</svg>
