<svg height="210mm" viewBox="0 0 1052.4 744.1" width="297mm" xmlns="http://www.w3.org/2000/svg">
 <g fill="none" stroke-linecap="round">
  <g transform="translate(0 -308.26772)">
   <path d="m57.6 742.2h948.8" stroke="#969696" stroke-width="1.875"/>
   <g stroke="#000" stroke-dasharray="3.75 7.5" stroke-miterlimit="2" stroke-width=".9375">
    <path d="m58.3 844.1h948.8"/>
    <path d="m58.3 641.8h948.8"/>
    <path d="m58.3 540.6h948.8"/>
   </g>
  </g>
  <g stroke-linejoin="round">
   <g stroke-width="5.625">
    <path d="m242 432.9c-39.4 19.7-107.3 83.2-81.8 98.7 9.9 5.5 23.1-1.1 49.3-43.2l89.2-152.4" stroke="#000"/>
    <path d="m240.9 433.5 156.8-90.6 184.9-106.8" stroke="#000001"/>
    <path d="m689.3 343.8 117.3-61.5 20 47.9" stroke="#000"/>
    <ellipse cx="441.23627" cy="672.078" rx="60.146576" ry="43.208752" stroke="#000" transform="matrix(.88109295 -.47294313 .47294313 .88109295 0 0)"/>
   </g>
   <path d="m669 357.7-49.5 49.2c-5.2 5-10.5 9.9-16.9 14.6-7.8 5.7-17 9-24.3 9.5s-13.6-1.8-16.2-7.3c-7.2-15.4 13.6-29.6 37.7-58.8 8.1-9.8 8.7-18.1 5.1-23.2-1.5-2.1-3.8-3.7-6.5-4.7-2.6-.9-5.7-1.2-9-.9-14.3 1.8-23.7 12-31.7 19.6" stroke="#000" stroke-width="5.625001"/>
  </g>
 </g>
</svg>
