<svg height="210mm" viewBox="0 0 1052.4 744.1" width="297mm" xmlns="http://www.w3.org/2000/svg">
 <g fill="none" stroke-linecap="round">
  <g transform="translate(0 -308.26772)">
   <path d="m57.6 742.2h948.8" stroke="#969696" stroke-width="1.875"/>
   <g stroke="#000" stroke-dasharray="3.75 7.5" stroke-miterlimit="2" stroke-width=".9375">
    <path d="m58.3 844.1h948.8"/>
    <path d="m58.3 641.8h948.8"/>
    <path d="m58.3 540.6h948.8"/>
   </g>
  </g>
  <g stroke-linejoin="round" stroke-width="5.625">
   <path d="m342.2 466.9c-25.9 26.2-39.9 52.6-36.9 60.3 1.1 2.9 17.7 21.8 57.3-41.8l88-150.7" stroke="#060000"/>
   <path d="m342.2 466.9c23.6-18.4 103.6-67.8 125.6-77.4 19.6-8.3 35 2.5 12.3 40.5l-31.2 52.3" stroke="#000008"/>
   <path d="m561.1 420c-1.8 1.1-26.6 17.8-28.5 19.1-32.5 22-71.6 74.4-63.5 89.5 4.9 9.2 28.4 7.7 48.3-24.3 8.5-13.7 17.7-31 19.9-61.8 5-69.6 43.9-122.4 69-102.2 4.6 3.7 3.8 15.9-5.1 25.4-17 16.1-140.4 108.1-152.2 116.7" stroke="#000"/>
   <path d="m742.8 366.2c-22.9 5.9-57.2 17.3-72.5 25.9-16.9 9.5-33.9 20.2-41.6 27.9-25.9 26.2-39.9 52.6-36.9 60.3 1.1 2.9 17.7 21.8 57.3-41.8l88-150.7-176.1 132.2" stroke="#060000"/>
  </g>
 </g>
</svg>
