<svg height="210mm" viewBox="0 0 1052.4 744.1" width="297mm" xmlns="http://www.w3.org/2000/svg">
 <g fill="none" stroke-linecap="round">
  <g transform="translate(0 -308.26772)">
   <path d="m57.6 742.2h948.8" stroke="#969696" stroke-width="1.875"/>
   <g stroke="#000" stroke-dasharray="3.75 7.5" stroke-miterlimit="2" stroke-width=".9375">
    <path d="m58.3 844.1h948.8"/>
    <path d="m58.3 641.8h948.8"/>
    <path d="m58.3 540.6h948.8"/>
   </g>
  </g>
  <g stroke="#000">
   <g stroke-linejoin="round" stroke-width="5.625">
    <path d="m585.1 431.9 60.7-.2"/>
    <path d="m648.3 421.2c.6.1 1.2.2 1.6.4.1.1.3.2.4.2.8.6 1.1 1.6.6 3.3-.8 3.2-4.5 5-6.2 5.7-3.6 1.3-6.2-1.6-4.2-4.8 1.3-2 3.5-4.2 6.1-4.7.2 0 .4-.1.5-.1h.7c.5 0 1 .1 1.5.2"/>
    <path d="m534.8 396.3c37.2-31.4 62.8-58.7 82.3-59.7 12.8.6 18.8 14 .1 43l-33.6 52.1"/>
    <path d="m645.8 431.7 33.9-19.5c22.3-11.9 49.8-30.8 53-32.8 22.6-16.6 36-34 21.6-41.1-9.2-4.4-24.1 1.8-41.4 30.4-27 44.2-23.3 64.3-9.5 62.5 9.5-1.4 17.4-4.6 22.6-8.1"/>
    <path d="m551 386.8s-212.6 47.7-217.9 44.2"/>
    <path d="m338.1 420.6c.7.1 1.2.2 1.7.4.2.1.3.2.4.3.8.6 1.1 1.7.7 3.4-.9 3.4-4.7 5.3-6.5 6-3.7 1.4-6.5-1.7-4.4-5 1.3-2.1 3.6-4.4 6.4-4.9.2 0 .4-.1.6-.1h.7c.5 0 1.1.1 1.6.2"/>
    <ellipse cx="186.00327" cy="660.8465" rx="25.728558" ry="20.371416" transform="matrix(.79083574 -.61202846 .61202846 .79083574 0 0)"/>
   </g>
   <path d="m574 397.7c.3 9.3-.4 14.6-6.3 21.9-3.6 4.5-8.8 8.3-16 11.1" stroke-width="5.624961"/>
   <path d="m570.4 392.5c2 6.9 1.8 6.4.7 11.6-1.6 7.6-6.1 13.5-12.5 18.7-3.2 2.6-6.9 5-10.9 7.3" stroke-width="6.599955"/>
   <g stroke-width="2.849979">
    <path d="m553.3 424.4c-5.3 3.7-10.3 5.7-16.3 3.5"/>
    <path d="m559.6 387.8c7.4 1.6 9 4 10.4 10.8"/>
   </g>
  </g>
 </g>
</svg>
