<svg height="210mm" viewBox="0 0 1052.4 744.1" width="297mm" xmlns="http://www.w3.org/2000/svg">
 <g fill="none" stroke-linecap="round" transform="translate(0 -308.26772)">
  <path d="m57.6 742.2h948.8" stroke="#969696" stroke-width="1.875"/>
  <g stroke="#000" stroke-dasharray="3.75 7.5" stroke-miterlimit="2" stroke-width=".9375">
   <path d="m58.3 844.1h948.8"/>
   <path d="m58.3 641.8h948.8"/>
   <path d="m58.3 540.6h948.8"/>
  </g>
 </g>
 <g fill="none" stroke="#000" stroke-linecap="round" stroke-linejoin="round" stroke-width="5.625">
  <path d="m116.4 430.3 61.3-46.6 21 47.3"/>
  <path d="m552.3 431.1 31.4.3 59.1-46.6 21 46.7"/>
  <path d="m663.8 431.5s19.1-37.1 39.4-36.8c27.2 3.8 17 36.1 42.4 36.4 13.2-1.1 22.9-7.8 40.9-21.4"/>
 </g>
 <circle cx="448.57721" cy="367.46738" r="10.653954"/>
 <circle cx="433.18814" cy="416.47556" r="10.653955"/>
 <g fill="none" stroke="#000" stroke-linecap="round" stroke-linejoin="round" stroke-width="5.625">
  <path d="m198.7 431s57.6-37.1 77.9-36.8c20.7.3 18.4 26.6 26.4 34 5.7 5.2 23.5 4.3 34.4-17.5"/>
  <path d="m557.1 415.5c1 .1 1.8.3 2.5.7.2.1.4.2.6.4 1.2.9 1.7 2.6 1 5.2-1.3 5.1-7.1 8-9.8 9-5.7 2-9.8-2.6-6.6-7.6 2-3.1 5.5-6.6 9.7-7.5.3-.1.6-.1.9-.1s.7-.1 1-.1c.8 0 1.6.1 2.4.3"/>
  <path d="m786.6 409.6c12.5-9.4 24.9-17.6 39.1-15.4 15.9 4.3 15.3 36.8 31.1 37.2 12.2.3 17.5-8.4 23.7-16.3"/>
 </g>
</svg>
