<svg height="210mm" viewBox="0 0 1052.4 744.1" width="297mm" xmlns="http://www.w3.org/2000/svg">
 <g fill="none" stroke-linecap="round">
  <g transform="translate(0 -308.26772)">
   <path d="m57.6 742.2h948.8" stroke="#969696" stroke-width="1.875"/>
   <g stroke="#000" stroke-dasharray="3.75 7.5" stroke-miterlimit="2" stroke-width=".9375">
    <path d="m58.3 844.1h948.8"/>
    <path d="m58.3 641.8h948.8"/>
    <path d="m58.3 540.6h948.8"/>
   </g>
  </g>
  <path d="m657.5 380.7c12.2-22 25-43.1 34.9-64.9 2.1-5.4 3.3-9.9 3.7-13.7.4-10.1-7.5-16-15.8-17-23.6-1.2-33.3 22.1-55.6 51.3-62 81.4-95.7 93.8-139.2 94.3-46.8.5-54.8-29.2-111-27.9-56.1 1.3-104.4 28.8-104.4 28.8" stroke="#020000" stroke-linejoin="round" stroke-width="5.625"/>
  <path d="m745.4 337.2-87.9 43.5" stroke="#000" stroke-width="5.625002"/>
 </g>
</svg>
