<svg height="210mm" viewBox="0 0 1052.4 744.1" width="297mm" xmlns="http://www.w3.org/2000/svg">
 <g fill="none" stroke-linecap="round">
  <g transform="translate(0 -308.26772)">
   <path d="m57.6 742.2h948.8" stroke="#969696" stroke-width="1.875"/>
   <g stroke="#000" stroke-dasharray="3.75 7.5" stroke-miterlimit="2" stroke-width=".9375">
    <path d="m58.3 844.1h948.8"/>
    <path d="m58.3 641.8h948.8"/>
    <path d="m58.3 540.6h948.8"/>
   </g>
  </g>
  <g stroke-width="5.625">
   <g stroke-linejoin="round">
    <g stroke="#000">
     <path d="m491.1 431.2c4.5-5.5 7.1-8.4 7.9-9.3 48.9-54.4 107-46.6 89.6 9.1"/>
     <path d="m431.1 410.6 30.5-26.9 29.6 47.9"/>
     <path d="m392 339.9c22-10.5 48.8-3.1 28.7 21.7-27.4 33.8-47.2 52.6-39.4 63.9 9 13.2 36.1 1.2 49.7-14.9"/>
    </g>
    <path d="m392 339.9c-14 6.4-115.8 95.4-101.3 92 11.3-3.6 29-14.3 32.2-40.1s20.9-53.1 39.1-55.8" stroke="#000400"/>
    <g stroke="#000">
     <path d="m588.6 430.9 55.5-37.4"/>
     <ellipse cx="269.55707" cy="726.00677" rx="25.728558" ry="20.371416" transform="matrix(.79083574 -.61202846 .61202846 .79083574 0 0)"/>
     <path d="m644.5 393.5c17.5-12.9 50-36.2 65.8-46.9"/>
     <path d="m710.4 346.5c23.7-19.2 60.9-14.6 37.5 14.4-27.4 33.8-45.5 50.2-39.4 63.9 4.2 9.6 22.9 6.9 36.5-3.7"/>
    </g>
   </g>
   <g stroke="#000">
    <path d="m748.7 338.1c14.5 10.1 4.3 27.8-12.4 44.2-14.4 14-23.4 26.4-29.5 38.7"/>
    <path d="m748.7 338.1c.8-1.1 3.9 6.1.7 14.2-3.2 8.4-12.8 17.8-18.3 22.9-10.8 10.1-30.6 29-24.3 45.7"/>
   </g>
  </g>
  <g stroke="#000" stroke-width="2.8125">
   <path d="m740.1 336.4c11.3 1.3 8.8 6.5 9.1 11"/>
   <path d="m711.9 413.7c-2.7 4.9-3.8 12 2.3 14.5"/>
   <path d="m704.2 415c-.1 5.7 2.9 11.5 4.9 13.1"/>
  </g>
 </g>
</svg>
