<svg height="210mm" viewBox="0 0 1052.4 744.1" width="297mm" xmlns="http://www.w3.org/2000/svg">
 <g fill="none" stroke-linecap="round">
  <g transform="translate(0 -308.26772)">
   <path d="m57.6 742.2h948.8" stroke="#969696" stroke-width="1.875"/>
   <g stroke="#000" stroke-dasharray="3.75 7.5" stroke-miterlimit="2" stroke-width=".9375">
    <path d="m58.3 844.1h948.8"/>
    <path d="m58.3 641.8h948.8"/>
    <path d="m58.3 540.6h948.8"/>
   </g>
  </g>
  <g stroke="#000" stroke-width="5.625">
   <path d="m514.7 335c.9.1 1.6.3 2.2.6l.6.3c1.1.8 1.5 2.3.9 4.6-1.2 4.5-6.2 7-8.6 7.9-5 1.8-8.7-2.3-5.8-6.7 1.8-2.8 4.9-5.8 8.5-6.6.2 0 .5-.1.7-.1.3 0 .6-.1.9-.1.7 0 1.4.1 2.1.3" stroke-linejoin="round"/>
   <path d="m561.2 336.3s-43.3 15.8-52.6 13.6"/>
   <path d="m514.3 345.9c-4.3 6.3-266.6 85.2-266.6 85.2"/>
   <g stroke-linejoin="round">
    <path d="m561.2 336.3-42.4 73.1c-11.9 20.5.8 30 31.3 14.4 14-6 31.5-15.2 31.5-15.2"/>
    <path d="m581.6 408.6 150.2-73.9-60.4 95.5 64.3-30.1"/>
   </g>
  </g>
 </g>
</svg>
