<svg height="210mm" viewBox="0 0 1052.4 744.1" width="297mm" xmlns="http://www.w3.org/2000/svg">
 <g fill="none" stroke-linecap="round">
  <g transform="translate(0 -308.26772)">
   <path d="m57.6 742.2h948.8" stroke="#969696" stroke-width="1.875"/>
   <g stroke="#000" stroke-dasharray="3.75 7.5" stroke-miterlimit="2" stroke-width=".9375">
    <path d="m58.3 844.1h948.8"/>
    <path d="m58.3 641.8h948.8"/>
    <path d="m58.3 540.6h948.8"/>
   </g>
  </g>
  <g stroke="#000" stroke-linejoin="round" stroke-width="5.625">
   <path d="m621.6 316.6c-27.4 33.8-47.2 52.6-39.4 63.9 9 13.2 36.1 1.2 49.7-14.9"/>
   <path d="m417.7 431 109-140.8"/>
   <path d="m584.1 302.2c23.7-19.2 60.9-14.6 37.5 14.4"/>
   <path d="m584.1 302.2c-17.3 15.7-49.7 59.5-49.7 59.5"/>
   <path d="m526.7 290.2-42.4 73.1c-8 13.7 2.2 23.7 16.4 22.8 1.8-.1 3.7-.4 5.7-.9 9.6-2.4 20.1-9.6 28-23.4"/>
  </g>
 </g>
</svg>
