<svg height="210mm" viewBox="0 0 1052.4 744.1" width="297mm" xmlns="http://www.w3.org/2000/svg">
 <g fill="none" stroke-linecap="round">
  <g transform="translate(0 -308.26772)">
   <path d="m57.6 742.2h948.8" stroke="#969696" stroke-width="1.875"/>
   <g stroke="#000" stroke-dasharray="3.75 7.5" stroke-miterlimit="2" stroke-width=".9375">
    <path d="m58.3 844.1h948.8"/>
    <path d="m58.3 641.8h948.8"/>
    <path d="m58.3 540.6h948.8"/>
   </g>
  </g>
  <g stroke="#000" stroke-linejoin="round" stroke-width="5.625">
   <path d="m555.2 431 81.5-46.3"/>
   <path d="m343.8 431.4c8.5-10 17.9-21 27.1-29.4 2.2-2 4.6-4.1 7.2-5.9 5.1-3.7 11-6.6 18.1-7.5 3.3-.4 6.4-.1 9 .9 2.8 1 5 2.6 6.6 4.7 3.7 5.2 3.1 13.5-5.1 23.4-24.4 29.4-45.3 43.7-38 59.3 2.6 5.6 9 8.2 16.3 7.4 11.8-1.4 20.6-7.2 27.8-15 16.5-17.8 61.7-84.9 110.7-83.7 3.2.1 6.3.4 9.2 1.1 7.1 1.8 13.1 5.7 17.2 11.7 5.4 7.7 7.7 18.7 5.4 32.7"/>
   <path d="m661.3 532.6c24.4-11 37.7-24.2 37-43.9-.9-26.6-61.5-104-61.5-104"/>
  </g>
 </g>
</svg>
