<svg height="210mm" viewBox="0 0 1052.4 744.1" width="297mm" xmlns="http://www.w3.org/2000/svg">
 <g fill="none" stroke-linecap="round">
  <g transform="translate(0 -308.26772)">
   <path d="m57.6 742.2h948.8" stroke="#969696" stroke-width="1.875"/>
   <g stroke="#000" stroke-dasharray="3.75 7.5" stroke-miterlimit="2" stroke-width=".9375">
    <path d="m58.3 844.1h948.8"/>
    <path d="m58.3 641.8h948.8"/>
    <path d="m58.3 540.6h948.8"/>
   </g>
  </g>
  <g stroke="#000" stroke-linejoin="round">
   <path d="m493.7 486.6c-19.4 20.3-22.1 31.9-19.7 40.9.8 3 17.7 21.8 57.3-41.8l88-150.7" stroke-width="5.625"/>
   <path d="m706.8 287.9c-9.2 6.4-197 179.8-213.1 198.7" stroke-width="5.625"/>
   <path d="m668.1 381.4c8.8.6 35-26.8 42-37.4 20.7-32.1 24.7-70.8-3.3-56" stroke-width="5.419139"/>
   <g stroke-width="5.625">
    <path d="m561 394.8c17.3-17.1 42.2-44.3 58.3-59.8"/>
    <path d="m542.8 333.8-46.2 76.6c-12.2 20.3 8.4 28.4 31.3 14.4 13.8-9.8 33.1-30 33.1-30"/>
    <path d="m668.1 381.4c-19.9-.5 90.7-46 90.7-46"/>
    <path d="m757 479.3c28.5-22.6 35.5-31.4 39-55.7 1.8-12.5-2.6-28-12.8-37.6-5-4.7-11-8.4-17-11.7-8.5-4.8-11.8-5.8-17.2-11.5-6-6.3-5-21.2 9.8-27.5"/>
    <path d="m482.2 336.1 60.6-2.3"/>
    <path d="m311.9 421.2c.7.1 1.3.2 1.7.5.2.1.3.2.4.3.8.7 1.1 1.8.7 3.6-.9 3.5-4.9 5.5-6.7 6.2-3.9 1.4-6.8-1.8-4.5-5.2 1.4-2.1 3.8-4.5 6.6-5.1.2 0 .4-.1.6-.1h.7c.5 0 1.1.1 1.7.2"/>
    <path d="m311 430.3c37.1-29.9 64.7-71.9 124.7-145"/>
    <path d="m435.7 285.4-42.4 73.1c-5.1 8.8-2.8 16.1 3.3 19.9 3.2 2 7.3 3 12 2.9 11.1-.3 38.8-21.1 54.9-36.7"/>
    <ellipse cx="159.32695" cy="576.42322" rx="25.728558" ry="20.371416" transform="matrix(.79083574 -.61202846 .61202846 .79083574 0 0)"/>
   </g>
  </g>
 </g>
</svg>
