<svg height="210mm" viewBox="0 0 1052.4 744.1" width="297mm" xmlns="http://www.w3.org/2000/svg">
 <g fill="none" stroke-linecap="round">
  <g transform="translate(0 -308.26772)">
   <path d="m57.6 742.2h948.8" stroke="#969696" stroke-width="1.875"/>
   <g stroke="#000" stroke-dasharray="3.75 7.5" stroke-miterlimit="2" stroke-width=".9375">
    <path d="m58.3 844.1h948.8"/>
    <path d="m58.3 641.8h948.8"/>
    <path d="m58.3 540.6h948.8"/>
   </g>
  </g>
  <g stroke="#000" stroke-linejoin="round" stroke-width="5.625">
   <path d="m279 433.7c-14.4 5.6-30 22.7-47 43.3-18.2 24.9-26.4 43.9-21.7 52.9 24.3 11 64.7-63.1 68.2-86.1 9.6-69.1 41.1-122.1 68-104.4 11.2 7.4-22.9 49.1-54.2 46.7"/>
   <path d="m458.8 381.4 24 51.3"/>
   <path d="m458.8 381.4-179.8 52.3"/>
   <path d="m482.8 432.7 111.7-196.7"/>
   <path d="m678.8 251.1c14.9-6.9 43.7-15.3 57.4-15.8 39.8-1.5 60.7 40 95 40.1 15 .1 33.5-5.1 51.2-13.8"/>
   <path d="m594.5 236c-7.9 27 6 40.7 29.6 39.6 17.1-.8 38.3-17.5 54.7-24.5"/>
  </g>
 </g>
</svg>
