<svg height="210mm" viewBox="0 0 1052.4 744.1" width="297mm" xmlns="http://www.w3.org/2000/svg">
 <g fill="none" stroke-linecap="round">
  <g transform="translate(0 -308.26772)">
   <path d="m57.6 742.2h948.8" stroke="#969696" stroke-width="1.875"/>
   <g stroke="#000" stroke-dasharray="3.75 7.5" stroke-miterlimit="2" stroke-width=".9375">
    <path d="m58.3 844.1h948.8"/>
    <path d="m58.3 641.8h948.8"/>
    <path d="m58.3 540.6h948.8"/>
   </g>
  </g>
  <g stroke="#000">
   <path d="m147.3 335.9c-46.1 12-84.6 95.5-45.6 95.3 11.7-.1 23.5-7.3 40.4-19.9 36.3-27.1 108.7-79.6 143-114.1 28.4-28.5 44.6-53.8 26.5-61.9-14-6.3-42.6 13.7-89.8 91.6-6.2 11.5-60.7 103.4-20.3 104.6" stroke-linejoin="round" stroke-width="5.625"/>
   <path d="m295.2 239.9c-48.1 60-85.3 117-108.1 178.2" stroke-width="5.625"/>
   <path d="m284.2 250c-38.3 44.9-72.9 96.9-94.8 156.8" stroke-width="7.500001"/>
   <path d="m313.4 237.2c-12-5.1-22.3 10.8-27.8 15.9" stroke-width="3.75"/>
   <g stroke-width="5.625">
    <path d="m194.8 398.9c-4.5 9.9-5.9 18.3-4.8 23.6 1 4.7 3.7 8.3 9.7 8.7"/>
    <g stroke-linejoin="round">
     <path d="m201.6 431.4c33 .6 73.4-29.1 94.2-29.2 16-.6 15.1 29.2 32.6 28.8 20.9-.4 41.2-27.5 99.6-95.3"/>
     <path d="m597.9 383c-43.3 10.6-114 77.8-88.4 93.3 9.9 5.5 23.1-1.1 49.3-43.2l89.2-152.4"/>
     <path d="m515.3 396.4a19.2 25.1 41.6 0 1 -14.3 31.3 19.2 25.1 41.6 0 1 -27.6-6.8 19.2 25.1 41.6 0 1 14.3-31.3 19.2 25.1 41.6 0 1 27.6 6.8z"/>
     <path d="m485.6 390.9 162.4-110.2"/>
    </g>
   </g>
  </g>
  <path d="m428 335.8s-31.1 62.1-35.1 72.5c-5.5 14.2 4 23.1 17.2 23 3.3 0 6.2-.3 9.4-.9 12.9-2.3 28.6-13.1 67-40" stroke="#010000" stroke-linejoin="round" stroke-width="5.624999"/>
  <g stroke="#000" stroke-width="5.625">
   <g stroke-linejoin="round">
    <path d="m597.9 383c12.2-3 32.6-6.1 47.5-4.8 8 .7 15.4 3.4 21.4 8.6 10.3 8.8 16.6 23.8 14.9 43.6"/>
    <path d="m681.7 430.4 66-46.1"/>
    <path d="m747.7 384.3 22.1 46.2"/>
    <path d="m754.9 384.2 22.1 46.2"/>
   </g>
   <path d="m747.7 384.3 7.2-.1"/>
   <path d="m751.7 385.6 21 43.9" stroke-linejoin="round"/>
   <path d="m769.8 430.5 7.2-.1"/>
   <g stroke-linejoin="round">
    <path d="m777 430.4c39.8-57.9 124.3-196.7 124.3-196.7"/>
    <path d="m971.3 233.1c-40 35.1-107 87.3-70.1.6"/>
   </g>
  </g>
 </g>
</svg>
