<svg height="210mm" viewBox="0 0 1052.4 744.1" width="297mm" xmlns="http://www.w3.org/2000/svg">
 <g fill="none" stroke-linecap="round">
  <g transform="translate(0 -308.26772)">
   <path d="m57.6 742.2h948.8" stroke="#969696" stroke-width="1.875"/>
   <g stroke="#000" stroke-dasharray="3.75 7.5" stroke-miterlimit="2" stroke-width=".9375">
    <path d="m58.3 844.1h948.8"/>
    <path d="m58.3 641.8h948.8"/>
    <path d="m58.3 540.6h948.8"/>
   </g>
  </g>
  <g stroke="#000">
   <g stroke-linejoin="round" stroke-width="5.625">
    <path d="m387 429.2s14.9-26.7 37.2-23.4c20.8 3.1 18.8 42.8 46.9 16 5.2-5 15.3-17.3 15.3-17.3"/>
    <path d="m336.1 533.9s44.2-95.7 50.9-104.8"/>
    <path d="m486.5 404.4c6.3-8.5 25.4-39 31.4-47.6 13.7-19.8 33.8-47.7 49.4-59.2 2.8-2.1 5.7-4 8.7-5.9 5.2-3.3 10.6-6.2 16.4-8.7 19.6-8.3 35 2.5 12.3 40.5l-29.8 52.1"/>
    <path d="m614.7 289.3-49.2 86.2"/>
    <path d="m615 295.6-45.6 79.9"/>
    <path d="m565.5 375.5 9.3.1"/>
   </g>
   <path d="m610.8 283.2c1.8 1.7 2.3 5.7.7 9.9" stroke-width="3.75"/>
   <g stroke-width="5.625">
    <path d="m637 336.7-62.2 38.9"/>
    <path d="m637 336.7c21.7-15.5 55.1-45.7 80.3-54.3 20.4-6.8 39.1.9 20.7 23.5-27.4 33.8-45.5 50.2-39.4 63.9 4.2 9.6 23.1 7.2 36.5-3.7" stroke-linejoin="round"/>
    <path d="m738.8 283.2c14.5 10.1 4.3 27.8-12.4 44.2-14.4 14-23.4 26.4-29.5 38.7"/>
    <path d="m738.8 283.2c.8-1.1 3.9 6.1.7 14.2-3.2 8.4-12.8 17.8-18.3 22.9-10.8 10.1-30.6 29-24.3 45.7"/>
   </g>
   <g stroke-width="2.8125">
    <path d="m730.3 281.5c11.3 1.3 8.8 6.5 9.1 11"/>
    <path d="m702 358.7c-2.7 4.9-3.8 12 2.3 14.5"/>
    <path d="m694.3 360.1c-.1 5.7 2.9 11.5 4.9 13.1"/>
   </g>
   <ellipse cx="297.6116" cy="676.50092" rx="25.728558" ry="20.371416" stroke-linejoin="round" stroke-width="5.625" transform="matrix(.79083574 -.61202846 .61202846 .79083574 0 0)"/>
  </g>
 </g>
</svg>
