<svg height="210mm" viewBox="0 0 1052.4 744.1" width="297mm" xmlns="http://www.w3.org/2000/svg">
 <g fill="none" stroke-linecap="round">
  <g transform="translate(0 -308.26772)">
   <path d="m57.6 742.2h948.8" stroke="#969696" stroke-width="1.875"/>
   <g stroke="#000" stroke-dasharray="3.75 7.5" stroke-miterlimit="2" stroke-width=".9375">
    <path d="m58.3 844.1h948.8"/>
    <path d="m58.3 641.8h948.8"/>
    <path d="m58.3 540.6h948.8"/>
   </g>
  </g>
  <g stroke="#010000">
   <g stroke-linejoin="round">
    <path d="m536.9 281.7-47.8 86.7" stroke-width="6.5625"/>
    <path d="m527.7 281.4-39 72.4c-8.4 15.5 4.1 27.8 21.5 22.2" stroke-width="5.625"/>
    <path d="m532.3 281.7-44.7 81.9" stroke-width="6.5625"/>
   </g>
   <path d="m494.1 362.3c-1.6 4.1-2.6 6.5.8 11.9" stroke-width="3.75"/>
  </g>
  <g stroke-linejoin="round">
   <path d="m536.9 281.7-9.3-.4" stroke="#010000" stroke-width="6.5625"/>
   <path d="m510.1 376c15.3-.2 49.3-37.8 68.7-63.3" stroke="#000" stroke-width="5.625"/>
   <path d="m629.9 366.1c-28.9 17.9-104.2 55.7-121.6 80.8-10.2 14.6-15.6 27.4-14.2 31.9.9 3 16.3 22.9 59.8-38.1 26.9-36.9 47.8-67.7 71.2-116.4 18.2-36.9-3.9-65.8-46.3-11.6" stroke="#060000" stroke-width="5.625"/>
   <g stroke="#000">
    <path d="m527.7 281.4s-166.9 130-168.8 144.8c.6 3.6 1.9 4.8 5.3 5.2 3.3.4 8.2-3.6 9.6-4.4 41.2-23.6 63-101.6 32.9-89.3-9.8 4-24.1 14.2-36.7 23" stroke-width="5.419139"/>
    <g stroke-width="5.625">
     <path d="m629.9 366.1c29.8-16 49.7-29 73.8-30 24-.8 32.4 41.1 48.8 40.7 10.8-.3 18.5-10 25.1-17.1"/>
     <path d="m370.1 360.7c-19.2 13-51.8 36.1-67.1 45.6-15.8 10.7-15.1 20.6-6.3 25.1 7.2 2.6 29-14.3 32.2-40.1s20.9-53.1 39.1-55.8"/>
    </g>
   </g>
  </g>
 </g>
</svg>
