<svg height="210mm" viewBox="0 0 1052.4 744.1" width="297mm" xmlns="http://www.w3.org/2000/svg">
 <g fill="none" stroke-linecap="round">
  <g transform="translate(0 -308.26772)">
   <path d="m57.6 742.2h948.8" stroke="#969696" stroke-width="1.875"/>
   <g stroke="#000" stroke-dasharray="3.75 7.5" stroke-miterlimit="2" stroke-width=".9375">
    <path d="m58.3 844.1h948.8"/>
    <path d="m58.3 641.8h948.8"/>
    <path d="m58.3 540.6h948.8"/>
   </g>
  </g>
  <g stroke="#000" stroke-linejoin="round" stroke-width="5.625">
   <path d="m379.9 398.7c5.3-7.9 89.4-98.3 91.2-99.7 10.9-8.4 27.2-19.8 35.7-13.7 8.2 5.9 17.4 42.2 32 44.9 1.7.3 3.4.8 5 .8 1.6-.1 5.1.1 5.1.1"/>
   <path d="m491.8 286c12.3-5.8 18.5 7.5 24.2 28.2 3.7 13.5 12.3 17.1 26.4 16.5"/>
   <path d="m494.5 284.9c5.7-3 19.1-3.7 29.4 18.9 7.3 16 10.8 26.3 18.6 26.9"/>
   <path d="m507.7 288.4c10.8 15.3 8.5 38.4 25.5 39.6"/>
   <ellipse cx="64.915787" cy="566.92291" rx="25.728558" ry="20.371416" transform="matrix(.79083574 -.61202846 .61202846 .79083574 0 0)"/>
   <path d="m549 331c12.2 0 72.5-47.5 96.6-48.5 24-.8 26.9 45.3 46.7 48 10.7 1.4 18.5-10 25.1-17.1"/>
  </g>
 </g>
</svg>
