<svg height="210mm" viewBox="0 0 1133.9 744.1" width="320mm" xmlns="http://www.w3.org/2000/svg">
 <g fill="none" stroke-linecap="round">
  <g stroke="#969696" transform="translate(0 -308.26772)">
   <path d="m28.1 742.2h1065.4" stroke-width="1.875"/>
   <g stroke-dasharray="3.75 7.5" stroke-miterlimit="2" stroke-width=".9375">
    <path d="m28.8 844.1h1065.4"/>
    <path d="m28.8 641.8h1065.4"/>
    <path d="m28.8 540.6h1065.4"/>
   </g>
  </g>
  <g stroke="#000" stroke-linejoin="round">
   <g stroke-width="5.625">
    <path d="m369.9 347.2c50.5-45.8 100.6-102.6 78.1-110.3-11.1-3.8-30.1 6-59.6 45.4-8.1 10.8-19.9 28-29.2 43.8-24.1 40.9-30.3 56.7-32.8 79.5-.8 9.8 4.8 19.4 14.9 22.8 17.8 5.9 46.4 1.9 65.3-1.9"/>
    <path d="m306.6 399.6c25.9-20.3 58.2-46.4 63.3-52.4"/>
    <path d="m55.1 431.4c24.3-17.6 63.4-29.4 91.2-29.7 41.2-.4 58.4 29.2 92.7 29.3 2.9 0 5.7-.2 8.3-.7 21-3.4 43.6-18.2 59.2-30.8"/>
    <ellipse cx="586.08215" cy="26.156174" rx="4.609393" ry="6.862874" transform="matrix(.72846687 .68508103 -.68508103 .72846687 0 0)"/>
   </g>
   <ellipse cx="563.31287" cy="43.25766" rx="5.271423" ry="7.848564" stroke-width="14.034715" transform="matrix(.72846687 .68508103 -.68508103 .72846687 0 0)"/>
   <g stroke-width="5.625">
    <ellipse cx="111.51604" cy="602.94781" rx="25.728559" ry="20.371418" transform="matrix(.79083574 -.61202846 .61202846 .79083574 0 0)"/>
    <path d="m454.2 431c-11.7 1.1-35 1.2-47.6-4.4"/>
    <path d="m519.2 387.6 20.9 43.8"/>
    <path d="m519.2 387.6-48.1 36.2"/>
    <path d="m540.1 431.4c350.2-219 361.3-226.3 378.7-235.3 11.2-5.9 18.6-8 23.1-9.1 3.5-.8 6.6-1.1 9.3-1.1 7.2.1 11.8 3 14.2 8 7.2 15.3-6.2 50.9-28.6 90.5-26.3 44.8-62.9 88.9-90.3 97.3"/>
   </g>
   <path d="m1070.1 266.5c-7.6 7.2-15.8 13.4-27.4 14.8-7.2.8-13.5-1.8-16.1-7.3-5.5-11.8 5.4-22.9 21.7-40.6s27.3-28.8 21.8-40.6c-2.6-5.5-8.5-7.3-16.1-7.3-2.6 0-7.6.8-12.7 3.2-5.4 2.5-10.9 6.7-13.9 9.1-66.8 57.5-188 183.4-180.8 184" stroke-width="5.624999"/>
  </g>
 </g>
</svg>
