<svg height="210mm" viewBox="0 0 1052.4 744.1" width="297mm" xmlns="http://www.w3.org/2000/svg">
 <g fill="none" stroke-linecap="round">
  <g transform="translate(0 -308.26772)">
   <path d="m57.6 742.2h948.8" stroke="#969696" stroke-width="1.875"/>
   <g stroke="#000" stroke-dasharray="3.75 7.5" stroke-miterlimit="2" stroke-width=".9375">
    <path d="m58.3 844.1h948.8"/>
    <path d="m58.3 641.8h948.8"/>
    <path d="m58.3 540.6h948.8"/>
   </g>
  </g>
  <g stroke="#000" stroke-linejoin="round" stroke-width="5.625">
   <path d="m549.1 402c16-2.3 20.4.4 31 18 5.6 9.3 9.7 12.1 22.8 11"/>
   <path d="m565.1 399.7c1.8-.2 3.5-.1 5 .1 14.4 2.7 16.6 30.6 31.9 31.2"/>
   <path d="m568.5 401.7c7.2 6.4 4.5.9 20.5 25.4"/>
   <path d="m330.8 385.3c40 3.1 59.8-37.1 56.6-45.9-2.8-7.5-29.3-4.4-53.1 36.3-23.4 39.7-21.2 52-10.3 55.3 3.8 1.1 15.7.5 20.8.1 8.3-.6 18.1-1.9 27.7-3.3l192.7-28.1"/>
   <path d="m602.9 431.1c19.4-.3 48.1-19.3 91.3-47.5l22.1 47.1"/>
  </g>
 </g>
</svg>
