<svg height="210mm" viewBox="0 0 1052.4 744.1" width="297mm" xmlns="http://www.w3.org/2000/svg">
 <g fill="none" stroke-linecap="round">
  <g transform="translate(0 -308.26772)">
   <path d="m57.6 742.2h948.8" stroke="#969696" stroke-width="1.875"/>
   <g stroke="#000" stroke-dasharray="3.75 7.5" stroke-miterlimit="2" stroke-width=".9375">
    <path d="m58.3 844.1h948.8"/>
    <path d="m58.3 641.8h948.8"/>
    <path d="m58.3 540.6h948.8"/>
   </g>
  </g>
  <g stroke="#000" stroke-linejoin="round" stroke-width="5.625">
   <path d="m470.7 262.4c15.5-14.1 38.6-25.3 42.6-27.1 30-13 7.5 50.7-26.6 108.6-24.1 39.8-54.2 77.7-77.3 87.7-30.5 1.6 79-40.4 95.3-47.1l22.6 46"/>
   <path d="m664.6 297.6c-24.6 19.8-137.3 133-137.3 133"/>
   <path d="m630.6 388.6c-3.7 1.5-7.2 3.3-10.6 5.5-18.5 17.3-74.6 66.1-65.2 85.1 2.9 5.3 32.4 15 60.1-60.7 15.8-47.4 16.5-113.3 70.8-131.6"/>
   <path d="m630.6 388.6c10.2-5.8 20.2-9 25.5-10.4 11.2-3 25.5-3.1 24.1 4.7 0 .2.1.4.1.7 0 1.4-.6 2.7-2.1 3.8-2.9 2.2-6.9.8-8.5-.4-3.3-.5-1-11.9 0-10.6 1.7 2.4 0 0 8.8 2.8.2.1.3.3.4.5.2.2.4.7.6.9.3.5.4.9.7 1.6"/>
   <path d="m679.9 382.9a5.5 1.8 0 0 1 -5.5 1.8 5.5 1.8 0 0 1 -5.5-1.8 5.5 1.8 0 0 1 5.4-1.8 5.5 1.8 0 0 1 5.5 1.8h-5.5z"/>
  </g>
 </g>
</svg>
