<svg height="210mm" viewBox="0 0 1052.4 744.1" width="297mm" xmlns="http://www.w3.org/2000/svg">
 <g fill="none" stroke-linecap="round">
  <g stroke="#969696" transform="translate(0 -308.26772)">
   <path d="m57.6 742.2h948.8" stroke-width="1.875"/>
   <g stroke-dasharray="3.75 7.5" stroke-miterlimit="2" stroke-width=".9375">
    <path d="m58.3 844.1h948.8"/>
    <path d="m58.3 641.8h948.8"/>
    <path d="m58.3 540.6h948.8"/>
   </g>
  </g>
  <g stroke="#000">
   <path d="m610.3 336.3-81.6 95" stroke-width="5.625"/>
   <g stroke-linejoin="round">
    <path d="m610.3 336.3-39 72.4c-7.6 14.1 2.7 23.8 17 22.9 20.2-1.3 36.6-13.7 79.7-46.8" stroke-width="5.625"/>
    <path d="m422.7 334.7c54.3-11 97.7-78.3 91.4-95-5.5-14.4-40.3 8.9-87.4 86.8-41.1 70.2-45.9 104.4-16.7 104.9 26.5.5 94.8-48 94.8-48l24 47.9" stroke-width="5.624999"/>
    <path d="m677.4 533.5c14.8-7.7 30.4-16 28.9-34.4-1.8-21.5-55-44-61.8-66.9-3.5-11.7 8.2-30.9 23.4-47.3" stroke-width="5.624998"/>
   </g>
  </g>
 </g>
</svg>
