<svg height="210mm" viewBox="0 0 1052.4 744.1" width="297mm" xmlns="http://www.w3.org/2000/svg">
 <g fill="none" stroke-linecap="round">
  <g transform="translate(0 -308.26772)">
   <path d="m57.6 742.2h948.8" stroke="#969696" stroke-width="1.875"/>
   <g stroke="#000" stroke-dasharray="3.75 7.5" stroke-miterlimit="2" stroke-width=".9375">
    <path d="m58.3 844.1h948.8"/>
    <path d="m58.3 641.8h948.8"/>
    <path d="m58.3 540.6h948.8"/>
   </g>
  </g>
  <g stroke="#000" stroke-linejoin="round">
   <path d="m428.5 435.8c-53.2 7.3-100.2 80.3-96.4 92.6.9 3 16.3 22.9 59.8-38.1 26.9-36.9 54.6-73.4 69.3-116.4 15.5-30.1-1.4-56.7-44.4-11.6" stroke-width="5.625"/>
   <path d="m428.5 435.8c.1-1.7 6.8-6 6.7-9.5-.1-5-.2-8.8-1.4-9.8-1.3-1.2-3.1-1.4-4-.7-2.4 1.8-2.1 3-1.9 4.9.4 3.5 2.1 2.2 5.4 1.5 4.1-2.1.9-2.7-.1.2-1.6 4.9 21.5-7.1 30-16.3" stroke-width="5.625"/>
   <path d="m432.1 417.5c-.1-.2-.3-.4-.4-.5 0 0-.1-.1-.2-.1-.3-.2-.8-.1-1.3.3-1 .8-1 2.4-1 3.1.1 1.5 1.6 1.9 2.4.7.5-.8.9-1.9.6-2.9 0-.1 0-.1-.1-.2 0-.1-.1-.2-.1-.2-.1-.2-.2-.3-.3-.5" stroke-width="3.586069"/>
   <g stroke-width="5.625">
    <path d="m463.2 406.2c18.9-18.8 36.2-39.2 45.6-51.9"/>
    <path d="m508.7 354.2c18.4-24.8 63.9-37.1 63.4 29.4-.3 39.5 17.2 50.7 34.5 47.5 1.4-.3 2.9-.6 4.3-1.1 22.2-7 48.8-28 63.6-44.3"/>
    <path d="m541.8 334.5c14.1-1.8 35.4 14 35.2 45.9-.2 30.1 8.2 53 28.3 51.2"/>
    <path d="m541.8 334.5c17-.9 25 18.1 24.8 50-.2 30.1 11.9 49.3 38.7 46.9"/>
   </g>
  </g>
 </g>
</svg>
