<svg height="210mm" viewBox="0 0 1052.4 744.1" width="297mm" xmlns="http://www.w3.org/2000/svg">
 <g fill="none" stroke-linecap="round">
  <g transform="translate(0 -308.26772)">
   <path d="m57.6 742.2h948.8" stroke="#969696" stroke-width="1.875"/>
   <g stroke="#000" stroke-dasharray="3.75 7.5" stroke-miterlimit="2" stroke-width=".9375">
    <path d="m58.3 844.1h948.8"/>
    <path d="m58.3 641.8h948.8"/>
    <path d="m58.3 540.6h948.8"/>
   </g>
  </g>
  <g stroke="#000">
   <g stroke-linejoin="round" stroke-width="5.625">
    <path d="m405.4 407.5c14-11.2 28.6-24.4 28.6-24.4l33.3 47.9"/>
    <path d="m434 383.1 24 48"/>
    <path d="m443.5 383.1 23.8 47.9"/>
    <path d="m439.6 382.9 24 48"/>
   </g>
   <path d="m434.4 382h9" stroke-width="3.75"/>
   <path d="m457.8 432h9" stroke-width="3.75"/>
   <g stroke-linejoin="round" stroke-width="5.625">
    <path d="m467.3 430.9c25.4-12.1 60.7-33.7 79.1-34 18.5-.3 13.7 33.8 30.8 34.6 5.4.2 12.3-3 21.6-11.8"/>
    <path d="m390.9 334.5c54.3-11 97.4-79.5 91-96.2-5.5-14.4-40.3 8.9-87.4 86.8-43.8 75.6-46.8 105.6-32.1 106.3 14.6.7 32.2-15.8 43.1-24"/>
    <path d="m598.8 419.8c19.1-18.2 71.3-85.5 96-84.6 51.3.1-55.7 166.9-102 197.5"/>
   </g>
  </g>
 </g>
</svg>
