<svg height="210mm" viewBox="0 0 1052.4 744.1" width="297mm" xmlns="http://www.w3.org/2000/svg">
 <g fill="none" stroke-linecap="round" transform="translate(0 -308.26772)">
  <path d="m57.6 742.2h948.8" stroke="#969696" stroke-width="1.875"/>
  <g stroke="#000" stroke-dasharray="3.75 7.5" stroke-miterlimit="2" stroke-width=".9375">
   <path d="m58.3 844.1h948.8"/>
   <path d="m58.3 641.8h948.8"/>
   <path d="m58.3 540.6h948.8"/>
  </g>
 </g>
 <g fill="none" stroke="#000" stroke-linecap="round" stroke-linejoin="round" stroke-width="5.625">
  <path d="m573.5 410.1c2.5-1.7 9.4-6.5 11.8-8 7.5-4.7 14.7-9.6 24.7-9.4 24.5.5 8.7 38.3 31.6 38.1 10.9-.1 147.5-9.8 147.5-9.8"/>
  <path d="m555.2 335.7c-9 16-18.6 33.2-27.9 49.3-4.8 8.3-9.6 17-14.2 26.2-11.9 20.5 10 23.2 29 16.4 6.3-1.7 16.8-7.6 31.3-17.4"/>
  <path d="m414.2 334.3c54.3-11 95.5-79.5 89.2-96.2-5.5-14.4-40.2 8.9-87.4 86.8-69.6 120.2-36 123.1 7.3 84"/>
 </g>
 <path d="m196.5 321.4a11.6 11.6 0 0 1 -11.6 11.6 11.6 11.6 0 0 1 -11.6-11.6 11.6 11.6 0 0 1 11.6-11.7 11.6 11.6 0 0 1 11.7 11.6"/>
 <path d="m258.9 384.5c41.3 3.1 61.9-37.1 58.5-45.8-2.9-7.5-30.3-4.4-54.9 36.2-47.2 77.3-2.2 60.6 29.7 33.8" fill="none" stroke="#000" stroke-linecap="round" stroke-linejoin="round" stroke-width="5.625"/>
 <circle cx="854.1391" cy="407.48083" r="8.049653"/>
 <path d="m840.6 310c46.9-41.4 58.7-19.1 52.4 1.1-2.6 8.2-26.1 30.4-31.7 36.5-35.3 38 .5 60.5 40.5 14.3" fill="none" stroke="#000" stroke-linecap="round" stroke-linejoin="round" stroke-width="5.625"/>
</svg>
