<svg height="210mm" viewBox="0 0 1052.4 744.1" width="297mm" xmlns="http://www.w3.org/2000/svg">
 <g fill="none" stroke-linecap="round">
  <g transform="translate(0 -308.26772)">
   <path d="m57.6 742.2h948.8" stroke="#969696" stroke-width="1.875"/>
   <g stroke="#000" stroke-dasharray="3.75 7.5" stroke-miterlimit="2" stroke-width=".9375">
    <path d="m58.3 844.1h948.8"/>
    <path d="m58.3 641.8h948.8"/>
    <path d="m58.3 540.6h948.8"/>
   </g>
  </g>
  <g stroke="#000">
   <path d="m598.7 336.3-211.3 160.4" stroke-width="5.625"/>
   <g stroke-linejoin="round">
    <path d="m76.3 430.4c-36.7-11.4 307.4-87.6 333.7-93.4 43-9.4 26.1 44.7-9.8 105.8-24.1 39.8-51.8 79.7-75 89.7-1.6.5-3.2.8-4.6.9" stroke-width="5.625"/>
    <path d="m76.3 430.4c3 .3 9.7-4.2 11-5 10.7-6.1 20.2-15.8 27.8-26.6 28.4-40.2 30.6-95.6-25.7-40.3" stroke-width="5.419139"/>
    <g stroke-width="5.625">
     <ellipse cx="5.960623" cy="650.92639" rx="25.728558" ry="20.371416" transform="matrix(.79083574 -.61202846 .61202846 .79083574 0 0)"/>
     <path d="m320.6 533.4c-16.8-2 76.9-42.4 76.9-42.4"/>
     <path d="m719.8 317.4s-202.2 124.5-225.4 145.7c-34.6 31.6-43.9 58.1-40.9 65.8 1.1 2.9 17.7 21.8 57.3-41.8l88-150.7"/>
     <path d="m855.4 378.4c-16.2-6.2 103-35.8 111.8-34.4 15.8 4.3 15.5 32.1 32.2 33.7 5.5.5 10.3-2.8 21.2-12.3"/>
     <path d="m719.8 317.4c22.8-13.4 161.2-116.3 211.9-132.7 27.9-7.8 45.5-4.1 39.5 20-12.2 49.4-75.8 157.4-115.7 173.7"/>
    </g>
   </g>
  </g>
 </g>
</svg>
