<svg height="210mm" viewBox="0 0 1052.4 744.1" width="297mm" xmlns="http://www.w3.org/2000/svg">
 <g fill="none" stroke-linecap="round">
  <g transform="translate(0 -308.26772)">
   <path d="m57.6 742.2h948.8" stroke="#969696" stroke-width="1.875"/>
   <g stroke="#000" stroke-dasharray="3.75 7.5" stroke-miterlimit="2" stroke-width=".9375">
    <path d="m58.3 844.1h948.8"/>
    <path d="m58.3 641.8h948.8"/>
    <path d="m58.3 540.6h948.8"/>
   </g>
  </g>
  <g stroke="#000">
   <g stroke-width="5.625">
    <path d="m351.9 432.3c48.2-61.4 98.5-47.1 84.7.3" stroke-linejoin="round"/>
    <path d="m436.6 432.6s146.6-64.7 230.3-110.3c8.7-4.7 35.4-23.7 40.8-29.9 15.2-17.5 23.5-35.3 19.4-45.4-2.2-5.5-6.6-8.4-17.7-8.7-15.4-.4-42.9 10.9-90.1 88.8-58.3 99.2-44.5 119.2-10.1 99 7.8-4.6 37.6-24.1 60.2-43.3" stroke-linejoin="round"/>
    <path d="m689.9 244.4c-48 60-85.6 120.6-108.4 181.8"/>
   </g>
   <path d="m680.3 252.7c-6.9 7.8-15 16.6-21.7 25.1-31 39.4-59.4 87.3-76 139" stroke-width="7.5"/>
   <path d="m709.3 239.6c-11.5 1.9-16.8 3.9-21.7 8.9-5 5.1-7 8.7-12.6 16.4" stroke-width="3.75"/>
   <path d="m587.1 412c-3.2 11.3-2.9 14.1-1.1 16.1 1.7 1.8 4.7 3.2 11.8 3" stroke-width="5.625"/>
  </g>
 </g>
</svg>
