<svg height="210mm" viewBox="0 0 1052.4 744.1" width="297mm" xmlns="http://www.w3.org/2000/svg">
 <g fill="none" stroke-linecap="round">
  <g stroke="#969696" transform="translate(0 -308.26772)">
   <path d="m57.6 742.2h948.8" stroke-width="1.875"/>
   <g stroke-dasharray="3.75 7.5" stroke-miterlimit="2" stroke-width=".9375">
    <path d="m58.3 844.1h948.8"/>
    <path d="m58.3 641.8h948.8"/>
    <path d="m58.3 540.6h948.8"/>
   </g>
  </g>
  <g stroke="#000" stroke-width="5.625">
   <path d="m623.7 347.9s-267.1 59-292.4 78.4c-2.8 2.1-1.7 6.1 2.1 5"/>
   <g stroke-linejoin="round">
    <ellipse cx="689.22113" cy="-178.30714" rx="4.609393" ry="6.862875" transform="matrix(.72846687 .68508103 -.68508103 .72846687 0 0)"/>
    <path d="m333.4 431.3c43.9-15.9 71.5-94.7 46.6-94.9-7.2-.1-18.9 6.5-35.8 23.2"/>
    <path d="m789.5 216.3c-8.5 9.5-14.8 13.2-19.6 13.3-15.1.5-17.2-26.2-30.6-25.6-12.4.5-19 12.7-26.9 25.8-7.6 12.6-29.9 51.2-56.5 93.3-8.5 12.9-18.5 25.7-32.3 24.8"/>
   </g>
  </g>
 </g>
</svg>
