<svg height="210mm" viewBox="0 0 1052.4 744.1" width="297mm" xmlns="http://www.w3.org/2000/svg">
 <g fill="none" stroke-linecap="round">
  <g stroke="#969696" transform="translate(0 -308.26772)">
   <path d="m57.6 742.2h948.8" stroke-width="1.875"/>
   <g stroke-dasharray="3.75 7.5" stroke-miterlimit="2" stroke-width=".9375">
    <path d="m58.3 844.1h948.8"/>
    <path d="m58.3 641.8h948.8"/>
    <path d="m58.3 540.6h948.8"/>
   </g>
  </g>
  <g stroke="#000" stroke-linejoin="round">
   <path d="m610.8 430.7c27.3-8.4 63.9-52.6 90.3-97.3 22.4-39.6 35.8-75.2 28.6-90.5-2.4-5-7-7.9-14.2-8-2.7 0-5.8.2-9.3 1.1-4.5 1.1-11.9 3-23.1 9.1-60.4 32.9-272.3 151.8-302.9 168-22.2 11.8-37.1 18.6-53.6 18.3-8.3-.2-13.4-4.6-15.8-13.1-10.7-37.9 21.1-139.8 102.2-183.7" stroke-width="5.624999"/>
   <path d="m610.8 430.7c-4.1 1.5-7-2.5-2.9-5 17-10.2 95-33.4 114.1-30.4 17.8 3.1 17.3 35.7 33.2 35.9 5.5 0 13.1-3.7 24.4-13.5" stroke-width="5.625"/>
  </g>
 </g>
</svg>
