<svg height="210mm" viewBox="0 0 1052.4 744.1" width="297mm" xmlns="http://www.w3.org/2000/svg">
 <g fill="none" stroke-linecap="round">
  <g transform="translate(0 -308.26772)">
   <path d="m57.6 742.2h948.8" stroke="#969696" stroke-width="1.875"/>
   <g stroke="#000" stroke-dasharray="3.75 7.5" stroke-miterlimit="2" stroke-width=".9375">
    <path d="m58.3 844.1h948.8"/>
    <path d="m58.3 641.8h948.8"/>
    <path d="m58.3 540.6h948.8"/>
   </g>
  </g>
  <g stroke="#000">
   <g stroke-linejoin="round">
    <g stroke-width="5.625">
     <path d="m337.7 394.3s90.4-82.4 131.1-115.7c5-4.1 12.3-10.3 17.8-14.9 9.2-8.2 8.8-20.3 3.8-26.3-6.2-5.2-25.9-1.6-34.6 22.9-4.9 13.8-3.1 34.6-6.7 53.9-3.7 20-43.6 46.6-64.3 69.8-22 24.6-24.3 49.7-.3 46.8 24.4-2.9 77.9-65.5 96.6-85.2"/>
     <path d="m315.7 336.8-42.4 73.1c-11.9 20.5 8.4 28.4 31.3 14.4 13.8-9.8 33.1-30 33.1-30"/>
     <path d="m481.1 345.5c18.8-17.3 56.9-11.1 34.4 16.7"/>
     <path d="m515.5 362.2c-27.4 33.8-44 49.8-38 63.4 3.1 7.1 16.4 6.4 26.4 2.2"/>
     <path d="m504 427.8c10.6-5 20.8-7.5 26.2-8.5 11.4-2.1 25.6-1.2 23.7 6.5v.7c-.1 1.4-.8 2.7-2.4 3.7-3.1 2-7 .3-8.4-1.1-3.2-.8-.1-12 .7-10.6 1.6 2.5 0 0 8.6 3.4.2.1.2.3.4.5.1.2.4.7.5.9.3.6.4 1 .5 1.7"/>
    </g>
    <path d="m583.6 383.6a5.5 1.8 0 0 1 -5.5 1.8 5.5 1.8 0 0 1 -5.5-1.8 5.5 1.8 0 0 1 5.4-1.8 5.5 1.8 0 0 1 5.5 1.8h-5.5z" stroke-width="5.625001" transform="matrix(.99725546 .07403753 -.07403753 .99725546 0 0)"/>
    <g stroke-width="5.625">
     <path d="m545.7 417.5 264.7-152.3"/>
     <path d="m810.4 265.2c17.9-11.4 43-29.4 59.8-30.3 16-.6 21.6 31 32.6 30.7 7.2-.2 12.4-7.6 16.7-13"/>
    </g>
   </g>
   <path d="m315.7 336.8-123.8 147.6c-13 15.5-15.5 24.9-14.7 32.8.5 13.7 7.1 19.1 17.8 19.3 15.4.4 28.9-12.2 42.1-29.5" stroke-width="5.625"/>
  </g>
 </g>
</svg>
