<svg height="210mm" viewBox="0 0 1052.4 744.1" width="297mm" xmlns="http://www.w3.org/2000/svg">
 <g fill="none" stroke-linecap="round">
  <g transform="translate(0 -308.26772)">
   <path d="m57.6 742.2h948.8" stroke="#969696" stroke-width="1.875"/>
   <g stroke="#000" stroke-dasharray="3.75 7.5" stroke-miterlimit="2" stroke-width=".9375">
    <path d="m58.3 844.1h948.8"/>
    <path d="m58.3 641.8h948.8"/>
    <path d="m58.3 540.6h948.8"/>
   </g>
  </g>
  <g stroke-linejoin="round" stroke-width="5.625">
   <g stroke="#000">
    <path d="m386.8 427.6c5.5-3 13.2-7.6 16-9.3 14.2-8.6 32.4-18 42.1-16.2 17.2 3.2 16 46.2 45.6 21.5"/>
    <path d="m426.6 406.2c5.4-2.4 18.6-2.2 26.5 15 5.6 12.2 13.9 9.5 20.5 9.9"/>
    <path d="m441.2 404.3c6.7 5.9 6.3.5 21.2 23.1"/>
   </g>
   <path d="m567.2 319.1s-65.2 97.2-76.7 104.6" stroke="#000005"/>
   <path d="m567.2 319.1s36.4-53.1 39.1-56.8c9-12.3 18.4-28.1 34.4-27.3 17.9.9 16 70.9 53.9 25.2" stroke="#000"/>
   <path d="m426.9 337c-44.7 11.7-84 94.2-54.3 94.5 3.6 0 8.3-1.2 14.2-3.9" stroke="#000"/>
  </g>
 </g>
</svg>
