<svg height="210mm" viewBox="0 0 1052.4 744.1" width="297mm" xmlns="http://www.w3.org/2000/svg">
 <g fill="none" stroke-linecap="round">
  <g transform="translate(0 -308.26772)">
   <path d="m57.6 742.2h948.8" stroke="#969696" stroke-width="1.875"/>
   <g stroke="#000" stroke-dasharray="3.75 7.5" stroke-miterlimit="2" stroke-width=".9375">
    <path d="m58.3 844.1h948.8"/>
    <path d="m58.3 641.8h948.8"/>
    <path d="m58.3 540.6h948.8"/>
   </g>
  </g>
  <g stroke-width="5.625">
   <path d="m538.6 334.5-35.3 60.2c-7.5 12.8-18.2 30.5 2 34.8 15.1 3.3 24.5-4 38.1-18 .9-1 21.1-29.1-1.7-34.2-22.7-5.1-48.7 6.5-50.6 20.9-3.7 28.6 44.1 23.9 98.6-6.9" stroke="#010000" stroke-linejoin="round"/>
   <g stroke="#000">
    <ellipse cx="224.71758" cy="690.58203" rx="25.728558" ry="20.371416" stroke-linejoin="round" transform="matrix(.79083574 -.61202846 .61202846 .79083574 0 0)"/>
    <path d="m491.6 263.7-96.4 166.7"/>
    <ellipse cx="215.69145" cy="491.14438" rx="25.728558" ry="20.371416" stroke-linejoin="round" transform="matrix(.79083574 -.61202846 .61202846 .79083574 0 0)"/>
   </g>
  </g>
 </g>
</svg>
