<svg height="210mm" viewBox="0 0 1052.4 744.1" width="297mm" xmlns="http://www.w3.org/2000/svg">
 <g fill="none" stroke-linecap="round">
  <g transform="translate(0 -308.26772)">
   <path d="m57.6 742.2h948.8" stroke="#969696" stroke-width="1.875"/>
   <g stroke="#000" stroke-dasharray="3.75 7.5" stroke-miterlimit="2" stroke-width=".9375">
    <path d="m58.3 844.1h948.8"/>
    <path d="m58.3 641.8h948.8"/>
    <path d="m58.3 540.6h948.8"/>
   </g>
  </g>
  <g stroke="#000">
   <g stroke-linejoin="round" stroke-width="5.625">
    <path d="m383.3 398.4s-5.5 4.8-15.6 11.5"/>
    <path d="m489.4 336.9s-130.1 101.8-132 103.1c-32.5 22-71.6 74.4-63.5 89.5 4.9 9.2 28.4 7.7 48.3-24.3 8.5-13.7 17.7-31 19.9-61.8 5-69.6 43.9-122.4 69-102.2 4.6 3.7 3.8 15.9-5.1 25.4-17 16.1-30.8 23.4-42.6 32"/>
    <path d="m489.4 336.9 33.3 47.9"/>
    <path d="m489.4 336.9 24 48"/>
    <path d="m498.9 336.9 23.8 47.9"/>
    <path d="m495 336.8 24 48"/>
   </g>
   <path d="m489.8 335.8h9" stroke-width="3.75"/>
   <path d="m513.2 385.8h9" stroke-width="3.75"/>
   <path d="m522.7 384.8c23.5-30.6 75.7-104.7 105.6-105.8 16.1-.6 7.8 37.9-11.9 65.9-7.6 10.8-20.8 29.8-31.5 35.9-1.4.8-7.4 3.1-10.4 2.8-8.6.1 47.2-47.5 67-46.5 1.1.1 2.3.2 3.5.5 14.3 2.8 22.1 24.6 37.3 33.1 8.1 4.6 30.1 2.9 36.1-10.4 5-11-3-23.7-21.4-23.5-9.7.1-22.7 1.9-42.6 38.1-32.4 59.1-8.9 64.9 19.7 48 3.1-1.9 18.3-11.2 21.6-13.5" stroke-linejoin="round" stroke-width="5.625"/>
  </g>
 </g>
</svg>
