<svg height="210mm" viewBox="0 0 1052.4 744.1" width="297mm" xmlns="http://www.w3.org/2000/svg">
 <g fill="none" stroke-linecap="round">
  <g transform="translate(0 -308.26772)">
   <path d="m57.6 742.2h948.8" stroke="#969696" stroke-width="1.875"/>
   <g stroke="#000" stroke-dasharray="3.75 7.5" stroke-miterlimit="2" stroke-width=".9375">
    <path d="m58.3 844.1h948.8"/>
    <path d="m58.3 641.8h948.8"/>
    <path d="m58.3 540.6h948.8"/>
   </g>
  </g>
  <g stroke="#000">
   <g stroke-linejoin="round" stroke-width="5.624999">
    <path d="m382.5 431.6c43.7-20.6 90.1-42.5 114.3-66 10.8-10.5 12.4-22 7.9-27-5.4-6-30.7-3.9-55.3 36.8-25.4 41.6-22.8 55.9-10.2 56.1"/>
    <path d="m496 336.1c-13.1 1.2-26.3 9.8-34.4 19-9.1 10.3-11.9 13.6-18 22.9-10.2 17.6-22.2 41.6-10.2 51.9"/>
    <path d="m487.2 338c-4 2.4-12.8 10.7-18.1 16.7-5.4 6.1-11.6 14-17.2 22.8-18.5 27.6-20 29.4-22 48"/>
   </g>
   <path d="m499.3 337.6c-7-1.3-13.2 2.5-18.2 7" stroke-width="2.8125"/>
   <path d="m444.8 390.5c-20.2 34.5-10.9 40.5-2.5 39.4" stroke-width="2.8125"/>
   <g stroke-linejoin="round">
    <path d="m361.1 387.4 21.3 44.2" stroke-width="5.624999"/>
    <g stroke-width="5.625">
     <path d="m439.2 431.5c38.4-.9 80.6-53.9 108.8-94.9"/>
     <path d="m558.4 370.7c-10.5-.4-11.6-10.4-10.4-34.1"/>
     <path d="m558.4 370.7c20.5.8 62-34 78.8-34.8 16-.6 21.6 31 32.6 30.7 7.2-.2 12.4-7.6 16.7-13"/>
    </g>
   </g>
  </g>
 </g>
</svg>
