<svg height="210mm" viewBox="0 0 1052.4 744.1" width="297mm" xmlns="http://www.w3.org/2000/svg">
 <g fill="none" stroke-linecap="round">
  <g stroke="#969696" transform="translate(0 -308.26772)">
   <path d="m57.6 742.2h948.8" stroke-width="1.875"/>
   <g stroke-dasharray="3.75 7.5" stroke-miterlimit="2" stroke-width=".9375">
    <path d="m58.3 844.1h948.8"/>
    <path d="m58.3 641.8h948.8"/>
    <path d="m58.3 540.6h948.8"/>
   </g>
  </g>
  <g stroke="#000" stroke-linejoin="round">
   <path d="m615.5 346.9c3.7 10.5-2.8 24.6-14.3 31.3-11.6 6.8-23.9 3.7-27.6-6.8s2.8-24.6 14.3-31.3c11.6-6.8 23.9-3.7 27.6 6.8z" stroke-width="5.625"/>
   <g stroke-width="5.624999">
    <path d="m383.4 335.9c-33 8.6-63.5 54.8-62.8 79.6.1 3.5.8 6.6 2.3 9.1 3.6 6.3 10.8 7.3 18.1 6.3 5.4-.7 12.8-2.5 16.7-3.8 9.7-2.9 193.7-73.4 236.6-90"/>
    <path d="m681.6 369.8c-7.6 6.2-17.1 11.1-24.5 11.3-7.3.8-13.7-1.8-16.3-7.4-7.2-15.5 13.3-29.1 37.7-58.6 8.2-9.9 8.8-18.2 5.1-23.4-1.5-2.2-3.8-3.8-6.6-4.7-10-3-17.2-1.2-24.2 2.4-4.1 2.1-10.5 6.3-18.9 12.5-17.6 13-41 32.2-50.1 40.4"/>
   </g>
  </g>
 </g>
</svg>
