<svg height="210mm" viewBox="0 0 1052.4 744.1" width="297mm" xmlns="http://www.w3.org/2000/svg">
 <g fill="none" stroke-linecap="round">
  <g transform="translate(0 -308.26772)">
   <path d="m57.6 742.2h948.8" stroke="#969696" stroke-width="1.875"/>
   <g stroke="#000" stroke-dasharray="3.75 7.5" stroke-miterlimit="2" stroke-width=".9375">
    <path d="m58.3 844.1h948.8"/>
    <path d="m58.3 641.8h948.8"/>
    <path d="m58.3 540.6h948.8"/>
   </g>
  </g>
  <g stroke="#000" stroke-linejoin="round" stroke-width="5.625">
   <path d="m364.1 423.4c10.4-5.4 123.5-55.4 207.2-101.1 8.7-4.7 35.4-23.7 40.8-29.9 15.2-17.5 23.5-35.3 19.4-45.4-2.2-5.5-7.1-12.2-18.2-12.5-15.4-.4-42.5 14.7-89.6 92.6-29.6 50.4-39.4 76.3-38.6 90.9.8 14.2 22.2 17.7 35.4 12.5"/>
   <path d="m174 430.8c62.4-68.1 112.7-56.3 98.9.3"/>
   <path d="m272.9 431.1s25.2-38.7 42.4-35.5 4.7 54.8 48.7 27.8"/>
   <path d="m524.7 416.4c.9.1 1.7.3 2.4.6.2.1.4.2.6.4 1.2.9 1.6 2.4.9 4.9-1.3 4.8-6.7 7.5-9.2 8.5-5.3 1.9-9.3-2.5-6.2-7.2 1.9-3 5.2-6.2 9.1-7 .3-.1.5-.1.8-.1s.7-.1 1-.1c.8 0 1.5.1 2.3.3"/>
   <path d="m520.4 430.5 164.4-93.8"/>
   <path d="m684.8 336.7s144.8-87.8 172-99.2c77.1-32.5-34.7 168.5-93.3 193.9"/>
  </g>
 </g>
</svg>
