<svg height="210mm" viewBox="0 0 1052.4 744.1" width="297mm" xmlns="http://www.w3.org/2000/svg">
 <g fill="none" stroke-linecap="round">
  <g transform="translate(0 -308.26772)">
   <path d="m57.6 742.2h948.8" stroke="#969696" stroke-width="1.875"/>
   <g stroke="#000" stroke-dasharray="3.75 7.5" stroke-miterlimit="2" stroke-width=".9375">
    <path d="m58.3 844.1h948.8"/>
    <path d="m58.3 641.8h948.8"/>
    <path d="m58.3 540.6h948.8"/>
   </g>
  </g>
  <g stroke="#000" stroke-linejoin="round" stroke-width="5.625">
   <path d="m642.8 351.4c8.9-2.5 17.1-4.3 25.9-2.9 21.1 5.8 7.3 62.3 51.1 23.9"/>
   <path d="m558.6 329.8c20.2-24.9 79.2-103.7 113.6-131 83-65-28.8 162.3-88.2 186.6-16.3 3.7-17.4-2.3-12.1-8.1 15.8-12 25.7-14.6 70.9-25.9"/>
   <path d="m434.2 345.6s-4.5 6.3 3.2-4.2 15.5-21.2 15.9-21.6c2.7-3.5 5.3-6.7 7.7-9.6 2-2.4 3.9-4.5 5.8-6.4 16.9-17.9 26.9-18.3 33.4-5.7 6.5 12.7 4.8 17.5 12.3 27.2 18.7 24.4 44.2-26.9 34.5-34.3-6.1-4.6-25.9 3.2-49.4 42-24.3 39.8-19.6 52.5-6.3 52.9 21.8 0 44.9-28.4 67.4-56"/>
   <path d="m277.6 432.7c50.4-65.5 116.6-59.6 98.2-.6-.4 1.2 58.4-86.5 58.4-86.5"/>
  </g>
 </g>
</svg>
