<svg height="210mm" viewBox="0 0 1052.4 744.1" width="297mm" xmlns="http://www.w3.org/2000/svg">
 <g fill="none" stroke-linecap="round">
  <g transform="translate(0 -308.26772)">
   <path d="m57.6 742.2h948.8" stroke="#969696" stroke-width="1.875"/>
   <g stroke="#000" stroke-dasharray="3.75 7.5" stroke-miterlimit="2" stroke-width=".9375">
    <path d="m58.3 844.1h948.8"/>
    <path d="m58.3 641.8h948.8"/>
    <path d="m58.3 540.6h948.8"/>
   </g>
  </g>
  <g stroke="#000">
   <g stroke-linejoin="round">
    <path d="m354.9 431.2c29.5-17.4 50.7-32.8 80.3-48 31.1-17.7 46.3-36.3 43.5-43.7-2.8-7.3-32.7-5.1-56.5 34.3-10.9 18.5-21.9 37.4-32.8 57.2l11.7-.1" stroke-width="5.625"/>
    <path d="m437.5 354-36.5 76.9" stroke-width="5.625"/>
    <path d="m427.8 368.9-30.8 57" stroke-width="7.5"/>
    <path d="m448.7 345.9c-9.4 7-13.6 16.3-17.8 25.6" stroke-width="2.8125"/>
    <g stroke-width="5.625">
     <path d="m401 431 93.3-45.6"/>
     <ellipse cx="389.71167" cy="627.30548" rx="25.728558" ry="20.371416" transform="matrix(.79083574 -.61202846 .61202846 .79083574 0 0)"/>
    </g>
   </g>
   <g stroke-width="5.625">
    <path d="m506.1 389.3s-22.5 12.3-25 14.3c-2.6 1.9-4.6 4.3-5.8 6.9-1.7 3.6-1.9 7.7-.3 11.4.8 1.8 1.9 3.3 3.3 4.7 1.6 1.5 3.6 2.7 5.8 3.5 1.7.6 3.5 1.1 5.4 1.3 1.4.1 2.8.2 4.2.1 2.1-.2 4.3-.6 6.4-1.4s4.1-1.8 5.7-3c1.9-1.4 3.5-3.1 4.7-4.9 1.5-2.3 2.4-4.8 2.6-7.3.2-2.1-.2-4.2-1.1-6.3-.8-1.8-1.9-3.3-3.3-4.6l-14.4-18.6"/>
    <path d="m506.1 389.3 198.4-115.4" stroke-linejoin="round"/>
   </g>
  </g>
 </g>
</svg>
