<svg height="210mm" viewBox="0 0 1052.4 744.1" width="297mm" xmlns="http://www.w3.org/2000/svg">
 <g fill="none" stroke-linecap="round">
  <g transform="translate(0 -308.26772)">
   <path d="m57.6 742.2h948.8" stroke="#969696" stroke-width="1.875"/>
   <g stroke="#000" stroke-dasharray="3.75 7.5" stroke-miterlimit="2" stroke-width=".9375">
    <path d="m58.3 844.1h948.8"/>
    <path d="m58.3 641.8h948.8"/>
    <path d="m58.3 540.6h948.8"/>
   </g>
  </g>
  <g stroke-linejoin="round">
   <path d="m320.8 430.9c56.7-20.6 86.2-145 10.8-71" stroke="#000" stroke-width="5.419139"/>
   <g stroke-width="5.625">
    <path d="m251.2 385.6 21.8 46c19.6-23.9 33.8-46.7 58.7-71.6" stroke="#160800"/>
    <g stroke="#000">
     <path d="m320.8 430.9h164.3"/>
     <path d="m508.3 533.4c22.4-9.5 34.3-29.9 37.3-49.2 1.7-11-4.8-25.5-12.2-33.1-10.1-9.9-37.3-10.2-48.3-20.2"/>
     <path d="m497.6 412.8c1.1.1 2.1.4 2.9.8.3.1.5.3.7.5 1.4 1.1 1.9 3 1.1 6-1.5 5.8-8.1 9.2-11.3 10.4-6.5 2.4-11.3-3-7.6-8.8 2.3-3.6 6.3-7.6 11.1-8.6.3-.1.6-.1 1-.2s.8-.1 1.2-.1c.9 0 1.8.1 2.8.4"/>
     <ellipse cx="145.2348" cy="757.81305" rx="25.728558" ry="20.371416" transform="matrix(.79083574 -.61202846 .61202846 .79083574 0 0)"/>
     <path d="m572.9 490.3s-85.7 43.8-64.7 43.1"/>
     <path d="m712.6 430.8c5.8-3.7 12.8-11.7 7.1-19-2.8-3.6-4.4-5-13-4.9l-107.7.6c-7.4 0-15.4-.2-17.4-.8-9.6-2.9-8.5-13.1.2-25.1"/>
     <path d="m739.1 430.9 12.9-4.6"/>
    </g>
   </g>
   <g stroke="#010000">
    <path d="m820.1 387-47.8 86.7" stroke-width="6.5625"/>
    <path d="m752 426.3 58.8-39.7-39 72.4c-8.4 15.5 5 26.1 21.5 22.2 2.8-.6 11.9-3.3 19.9-11.9" stroke-width="5.625"/>
    <path d="m815.4 387-44.7 81.9" stroke-width="6.5625"/>
   </g>
  </g>
  <path d="m777.2 467.5c-1.6 4.1-2.6 6.5.8 11.9" stroke="#010000" stroke-width="3.75"/>
  <g stroke-linejoin="round">
   <path d="m820.1 387-9.3-.4" stroke="#000" stroke-width="6.5625"/>
   <g stroke-width="5.625">
    <path d="m743.3 415.9c1 .1 1.8.3 2.5.7.2.1.4.2.6.4 1.2.9 1.7 2.6 1 5.2-1.3 5.1-7.1 8-9.8 9-5.7 2-9.8-2.6-6.6-7.6 2-3.1 5.5-6.6 9.7-7.5.3-.1.6-.1.9-.1s.7-.1 1-.1c.8 0 1.6.1 2.4.3" stroke="#000"/>
    <path d="m733.3 431.4-20.7-.6" stroke="#010000"/>
   </g>
  </g>
 </g>
</svg>
