<svg height="210mm" viewBox="0 0 1052.4 744.1" width="297mm" xmlns="http://www.w3.org/2000/svg">
 <g fill="none" stroke-linecap="round">
  <g transform="translate(0 -308.26772)">
   <path d="m57.6 742.2h948.8" stroke="#969696" stroke-width="1.875"/>
   <g stroke="#000" stroke-dasharray="3.75 7.5" stroke-miterlimit="2" stroke-width=".9375">
    <path d="m58.3 844.1h948.8"/>
    <path d="m58.3 641.8h948.8"/>
    <path d="m58.3 540.6h948.8"/>
   </g>
  </g>
  <g stroke-linejoin="round" stroke-width="5.625">
   <path d="m141.4 431.4c8.3.7 240.8-47.7 240.8-47.7l20.2 47.9" stroke="#000"/>
   <path d="m165.8 334.7c54.3-11 97.4-79.5 91-96.2-5.5-14.4-40.3 8.9-87.4 86.8-47.5 82-46.9 109.4-28 106.1" stroke="#000"/>
   <path d="m559.5 314.8c32.7-37.9 142.3-181.5 174.1-183.8 18.6-2.4 32.7 10 16.2 30.3-27.4 33.8-45.9 46.9-39.9 60.6 2.2 4.9 6.7 8.5 15.3 8.3" stroke="#000002"/>
   <g stroke="#000">
    <path d="m725.3 230.3c22.6 1.3 188-2.3 223.6-11.9"/>
    <path d="m402.4 431.6 91-95-56.7 94.9 122.8-116.6"/>
    <ellipse cx="365.00549" cy="582.61646" rx="60.269478" ry="43.297039" transform="matrix(.88109295 -.47294313 .47294313 .88109295 0 0)"/>
   </g>
  </g>
 </g>
</svg>
