<svg height="210mm" viewBox="0 0 1052.4 744.1" width="297mm" xmlns="http://www.w3.org/2000/svg">
 <g fill="none" stroke-linecap="round">
  <g transform="translate(0 -308.26772)">
   <path d="m57.6 742.2h948.8" stroke="#969696" stroke-width="1.875"/>
   <g stroke="#000" stroke-dasharray="3.75 7.5" stroke-miterlimit="2" stroke-width=".9375">
    <path d="m58.3 844.1h948.8"/>
    <path d="m58.3 641.8h948.8"/>
    <path d="m58.3 540.6h948.8"/>
   </g>
  </g>
  <g stroke-linejoin="round" stroke-width="5.625">
   <path d="m494.9 234.8-84.4 174.4c-6.8 14.1.4 23.5 14.1 23 20.6-.2 35.7-20.6 47.6-35.2" stroke="#000"/>
   <path d="m472.2 397.1c3-4.3 37.2-43.3 43.4-48.3 23.7-19.2 60.9-14.6 37.5 14.4" stroke="#040000"/>
   <path d="m553 363.2c-27.4 33.8-45.5 50.2-39.4 63.9 4.2 9.5 21.6 5 36.5-3.7l16.2-9.5" stroke="#040000"/>
   <path d="m566.3 413.9 43-30 20 47.9" stroke="#000"/>
  </g>
 </g>
</svg>
