<svg height="210mm" viewBox="0 0 1052.4 744.1" width="297mm" xmlns="http://www.w3.org/2000/svg">
 <g fill="none" stroke-linecap="round">
  <g transform="translate(0 -308.26772)">
   <path d="m57.6 742.2h948.8" stroke="#969696" stroke-width="1.875"/>
   <g stroke="#000" stroke-dasharray="3.75 7.5" stroke-miterlimit="2" stroke-width=".9375">
    <path d="m58.3 844.1h948.8"/>
    <path d="m58.3 641.8h948.8"/>
    <path d="m58.3 540.6h948.8"/>
   </g>
  </g>
  <g stroke="#000" stroke-linejoin="round">
   <path d="m582.7 430.8c10.3.7 26.7-1.4 37-5.6" stroke-width="5.625002"/>
   <path d="m648.9 255.6s-69.9 121.6-75.8 143.7" stroke-width="5.625"/>
   <path d="m647.7 260.7c-2.4 5.3-81.7 132.6-79.2 156.1" stroke-width="5.625"/>
   <path d="m646.8 260.7-26.6 49.4" stroke-width="5.624999"/>
   <g stroke-width="3.75">
    <path d="m585 381.8c-3.9 8.3-22.7 37.2-9 46.2 2.1 1.4 4.3 2 12.9 1.9"/>
    <path d="m636.1 235.4c10.6 2.2 17.7 9.5 6.3 29.4"/>
    <path d="m646.9 268.3c-17.8 36.3-58.1 99.1-74.7 141.4"/>
    <path d="m636.8 274.7c-22.6 35.8-52.4 85.2-69.2 122.2"/>
   </g>
   <g stroke-width="5.625">
    <path d="m439.8 418.8c45-45.1 163.6-189.9 194.4-184.6 5 .7 8.7 2.3 11.3 4.7 2.9 2.7 4.4 6.3 4.7 10.6.3 4.5-.7 9.7-2.8 15.2-2 5.2-4.9 10.7-8.5 16.2l-65.3 106.2c-7.4 12.6-10.3 23.1-7.7 30.8 2.4 6.9 6.3 12.1 16.8 12.9"/>
    <path d="m439.8 418.8c-33.4 29.1-124.6 96.9-95.9 113.2 7.1 3.8 23.5-7.5 51.1-41.6 24.4-32.4 54.6-73.9 69.3-116.9 7.5-21.6 4.8-37-7.8-37.8"/>
    <ellipse cx="739.02753" cy="-118.87314" rx="4.609393" ry="6.862875" transform="matrix(.72846687 .68508103 -.68508103 .72846687 0 0)"/>
   </g>
   <path d="m616.2 425.3c14.5 17 42.6-46.9 124.3-190.4" stroke-width="5.625001"/>
   <path d="m294.7 390.7c-7.6 26.1 4.6 41.6 26.6 40.9 32.3-1.1 66.5-43.5 90.7-70.1 18.2-20 33.3-26.3 44.6-25.9" stroke-width="5.625"/>
  </g>
 </g>
</svg>
