<svg height="210mm" viewBox="0 0 1052.4 744.1" width="297mm" xmlns="http://www.w3.org/2000/svg">
 <g fill="none" stroke-linecap="round" transform="translate(0 -308.26772)">
  <path d="m57.6 742.2h948.8" stroke="#969696" stroke-width="1.875"/>
  <g stroke="#000" stroke-dasharray="3.75 7.5" stroke-miterlimit="2" stroke-width=".9375">
   <path d="m58.3 844.1h948.8"/>
   <path d="m58.3 641.8h948.8"/>
   <path d="m58.3 540.6h948.8"/>
  </g>
 </g>
 <circle cx="532.40283" cy="357.81705" r="10.653955"/>
 <circle cx="517.01318" cy="406.83267" r="10.653955"/>
 <g fill="none" stroke="#000" stroke-linecap="round">
  <g stroke-linejoin="round">
   <g stroke-width="5.625">
    <path d="m130.3 280.5 22.8 50.6"/>
    <path d="m618.1 385.7-23.6 45.3"/>
    <path d="m342.2 360.1-44.3 70.8"/>
   </g>
   <path d="m325 391.8-23.4 38.7" stroke-width="3.75"/>
   <g stroke-width="5.625">
    <path d="m297.9 430.9 7.9.2"/>
    <path d="m219.8 431.4c45 1 72.9-100.6 116.1-95.1 1.7.3 3.2.7 4.6 1.3 9.1 3.9 10.6 14.5-4.2 40.7l-29.6 52.7"/>
   </g>
  </g>
  <path d="m340.7 338.7c6.1 2.8 6.9 11.6-1.9 25.1" stroke-width="3.75"/>
  <g stroke-linejoin="round">
   <g stroke-width="5.625">
    <path d="m306.8 431.1s68.4-33.5 85.6-30.3c13.4 2.5 14.4 31.4 29.2 30.6 4.2-.2 9.9-2.4 16.4-9.1"/>
    <path d="m266.5 335.9c-45.6 11.9-86.4 95.8-46.7 95.4"/>
    <path d="m858.5 360-44.3 70.8"/>
   </g>
   <path d="m841.4 391.6-23.4 38.7" stroke-width="3.75"/>
   <g stroke-width="5.625">
    <path d="m814.3 430.8 7.9.2"/>
    <path d="m747.5 431.2c20-17.3 29.1-27 44.7-46.1 13.8-16.9 23.8-31.6 38.5-42.7 3.6-2.7 7.3-4.4 10.6-5.4 3.6-1 7.2-1.3 11-.9 1.7.3 3.2.7 4.6 1.3 9.1 3.9 10.6 14.5-4.2 40.7l-29.6 52.7"/>
   </g>
  </g>
  <path d="m857.1 338.6c6.1 2.8 6.9 11.6-1.9 25.1" stroke-width="3.75"/>
  <g stroke-linejoin="round">
   <path d="m823.2 430.9s68.4-33.5 85.6-30.3c13.4 2.5 14.4 31.4 29.2 30.6 4.2-.2 9.9-2.4 16.4-9.1" stroke-width="5.625"/>
   <path d="m740.9 336c-45.6 11.9-86.4 96.1-46.7 95.4 13.6-.2 27.2-11.5 61.2-32.6" stroke-width="5.625"/>
   <g stroke-width="5.624999">
    <path d="m755.3 398.9-15.6 32.4"/>
    <path d="m758.2 400.9-15.1 30.2"/>
    <path d="m763.2 398.7-15.7 32.5"/>
    <path d="m763.2 398.7-7.9.1"/>
   </g>
  </g>
  <path d="m739.7 431.2h7.8" stroke-width="5.625"/>
 </g>
</svg>
