<svg height="210mm" viewBox="0 0 1052.4 744.1" width="297mm" xmlns="http://www.w3.org/2000/svg">
 <g fill="none" stroke-linecap="round">
  <g transform="translate(0 -308.26772)">
   <path d="m57.6 742.2h948.8" stroke="#969696" stroke-width="1.875"/>
   <g stroke="#000" stroke-dasharray="3.75 7.5" stroke-miterlimit="2" stroke-width=".9375">
    <path d="m58.3 844.1h948.8"/>
    <path d="m58.3 641.8h948.8"/>
    <path d="m58.3 540.6h948.8"/>
   </g>
  </g>
  <g stroke-linejoin="round">
   <g stroke="#000">
    <g stroke-width="5.625">
     <path d="m628.3 336.8c-28.9 8.9-54.3 46.6-56.3 71.6-4.2 24.1 61.7 39.4 91.9 1.4"/>
     <path d="m553.1 385.6c19.7-13.2 56.7-43.1 75.3-48.8"/>
     <path d="m370.6 430.8c9.4 1.1 53.9-31 73.5-37.1 4.2-1.1 7.7-1.2 10 .6 6.1 4.7 8 33.9 20.2 36.1 12.6 2.3 26.4-8.6 35.2-14.7l43.6-30.1"/>
     <path d="m442.4 394.1c11.6-4.7 13.4 6.8 14.9 23.4 1 10.8 7.8 13.7 20.1 13.3"/>
     <path d="m442.4 394.1c5.4-2.4 19-3.6 22.7 15 2.6 13.3 5.7 21.2 12.3 21.6"/>
     <path d="m454.4 396.8c6.8 12.3 1 30.9 15.5 31.8"/>
     <path d="m663.9 409.8 96.3-175.3"/>
     <path d="m216.4 382.8 18.2 48.1 128.3-158.4c7.8-9 16.9-18.7 24.9-26.4 10.8-10.4 23.2-10.8 28.5-10.7 16.5.2 10.7 17.9-4.7 39.7-14.6 20.5-23.8 37-41.8 62.4-25.5 35.8-53.3 69.1-46.4 86 3.2 10.3 33.4 9.5 48.1 6.2"/>
    </g>
    <ellipse cx="43.532276" cy="550.17273" rx="24.746365" ry="19.593733" stroke-width="5.215408" transform="matrix(.79083574 -.61202846 .61202846 .79083574 0 0)"/>
   </g>
   <g stroke-width="5.625">
    <path d="m642.1 413.1c1 .1 1.8.3 2.5.7.2.1.4.2.6.4 1.2.9 1.7 2.6 1 5.2-1.3 5.1-7.1 8-9.8 9-5.7 2-9.8-2.6-6.6-7.6 2-3.1 5.5-6.6 9.7-7.5.3-.1.6-.1.9-.1s.7-.1 1-.1c.8 0 1.6.1 2.4.3" stroke="#030002"/>
    <path d="m808.8 236.3c-35.9 22.6-66.9 56.8-48.6-1.9" stroke="#000"/>
   </g>
  </g>
 </g>
</svg>
