<svg height="210mm" viewBox="0 0 1052.4 744.1" width="297mm" xmlns="http://www.w3.org/2000/svg">
 <g fill="none" stroke-linecap="round">
  <g transform="translate(0 -308.26772)">
   <path d="m57.6 742.2h948.8" stroke="#969696" stroke-width="1.875"/>
   <g stroke="#000" stroke-dasharray="3.75 7.5" stroke-miterlimit="2" stroke-width=".9375">
    <path d="m58.3 844.1h948.8"/>
    <path d="m58.3 641.8h948.8"/>
    <path d="m58.3 540.6h948.8"/>
   </g>
  </g>
  <g stroke="#000">
   <path d="m480.2 396.5a19.2 25.1 41.6 0 1 -14.3 31.3 19.2 25.1 41.6 0 1 -27.6-6.8 19.2 25.1 41.6 0 1 14.3-31.3 19.2 25.1 41.6 0 1 27.6 6.8z" stroke-linejoin="round" stroke-width="5.625"/>
   <path d="m603.3 337.9c9.3 1.2 23.5 6.5 26.3 22.3" stroke-width="3.75"/>
   <ellipse cx="330.17279" cy="613.19202" rx="60.146576" ry="43.208752" stroke-linejoin="round" stroke-width="5.625" transform="matrix(.88109295 -.47294313 .47294313 .88109295 0 0)"/>
   <path d="m567.8 429.2c-11.1 2-22.6-1-31.8-8.1" stroke-width="3.75"/>
   <g stroke-width="5.625">
    <path d="m634.6 361.4c.7 2.8.2 12.3-.3 13.7-4.6 13.5-9.8 20.7-17.2 28.9-8.8 9.7-22.1 15.7-32.4 24.1"/>
    <path d="m615.1 339.8c11 3.2 13.8 13.8 14.8 17.6 5.3 20.3-6.6 35.7-14.9 44.9-8.3 9.3-25 27.4-57.1 28.7"/>
   </g>
  </g>
  <g stroke-linejoin="round">
   <path d="m569 342.1-112.8 45.8" stroke="#020000" stroke-width="5.625"/>
   <g stroke="#010000">
    <path d="m375.1 431.2c3.3-.1 6.2-.3 9.4-.9 12.9-2.3 28.6-13.1 67-40" stroke-width="5.625"/>
    <path d="m393 335.8s-31.1 62.1-35.1 72.5c-5.5 14.2 4 23.1 17.2 23" stroke-width="5.624999"/>
   </g>
  </g>
 </g>
</svg>
