<svg height="210mm" viewBox="0 0 1052.4 744.1" width="297mm" xmlns="http://www.w3.org/2000/svg">
 <g fill="none" stroke-linecap="round">
  <g transform="translate(0 -308.26772)">
   <path d="m57.6 742.2h948.8" stroke="#969696" stroke-width="1.875"/>
   <g stroke="#000" stroke-dasharray="3.75 7.5" stroke-miterlimit="2" stroke-width=".9375">
    <path d="m58.3 844.1h948.8"/>
    <path d="m58.3 641.8h948.8"/>
    <path d="m58.3 540.6h948.8"/>
   </g>
  </g>
  <g stroke="#000">
   <g stroke-width="5.625">
    <g stroke-linejoin="round">
     <ellipse cx="244.59001" cy="641.69977" rx="25.728558" ry="20.371416" transform="matrix(.79083574 -.61202846 .61202846 .79083574 0 0)"/>
     <path d="m571.3 343.7-94.8 88"/>
     <path d="m696.4 283.7-55.8 97.2"/>
     <path d="m696.4 283.7h-10.6"/>
     <path d="m690.9 283.7-55.9 97.3"/>
     <path d="m640.6 380.9h-10.6"/>
     <path d="m579.5 338.1 106.3-54.4-55.8 97.2 11-.1"/>
     <path d="m916.6 284.2c-42.3 51.1-178.9 71.2-177 .2l-98.7 96.5"/>
     <path d="m141.2 431.6c13.5-21.5 54.3-84.7 76.4-92.6 20.7-7.3 40.1.3 21.6 23.3-27.4 33.8-45.5 50.2-39.4 63.9 1.5 3.4 4.7 4.9 8.9 5.3 24.9 2.1 210.9-47.6 210.9-47.6"/>
    </g>
    <path d="m240 339.4c14.5 10.1 4.3 27.8-12.4 44.2-14.4 14-23.4 26.4-29.5 38.7"/>
    <path d="m240 339.4c.8-1.1 3.9 6.1.7 14.2-3.2 8.4-12.8 17.8-18.3 22.9-10.8 10.1-30.6 29-24.3 45.7"/>
   </g>
   <g stroke-width="2.8125">
    <path d="m231.5 337.7c11.3 1.3 8.8 6.5 9.1 11"/>
    <path d="m203.2 415c-2.7 4.9-3.8 12 2.3 14.5"/>
    <path d="m195.5 416.3c-.1 5.7 2.9 11.5 4.9 13.1"/>
   </g>
  </g>
  <g stroke-linejoin="round" stroke-width="5.625">
   <path d="m419.5 383.8 20 47.9" stroke="#060000"/>
   <path d="m439.6 431.7 91.8-95.5-54.8 95.5" stroke="#000"/>
  </g>
 </g>
</svg>
