<svg height="210mm" viewBox="0 0 1052.4 744.1" width="297mm" xmlns="http://www.w3.org/2000/svg">
 <g fill="none" stroke-linecap="round">
  <g transform="translate(0 -308.26772)">
   <path d="m57.6 742.2h948.8" stroke="#969696" stroke-width="1.875"/>
   <g stroke="#000" stroke-dasharray="3.75 7.5" stroke-miterlimit="2" stroke-width=".9375">
    <path d="m58.3 844.1h948.8"/>
    <path d="m58.3 641.8h948.8"/>
    <path d="m58.3 540.6h948.8"/>
   </g>
  </g>
  <g stroke="#000">
   <g stroke-linejoin="round">
    <path d="m522.5 336-46.6 95.4" stroke-width="5.624999"/>
    <path d="m442.1 431.6 80.4-95.6" stroke-width="5.624999"/>
    <path d="m476 431.4c39.3-47.3 52-60.7 67.8-74.1 12.7-10.7 29.9-20.2 42.9-21.3 4.4-.4 8.5-.1 12.1.8 3.7.9 7.1 2.4 9.9 4.6 9.5 7.3 11.8 22.6 9.1 38.4" stroke-width="5.692855"/>
   </g>
   <path d="m377.2 336.4-47.7 95" stroke-width="5.625"/>
   <g stroke-linejoin="round">
    <path d="m329.5 431.4c18-20.9 50.6-45.4 79.1-44.8 26.2-.4 33.6 31.6 33.6 45" stroke-width="5.624999"/>
    <path d="m434 404.2c1.2 7.1 5.2 21.5 4 26" stroke-width="5.625"/>
    <path d="m405.6 387.6c13-.1 22.2 8.8 25.1 17 3.4 9.6 4.7 20.4 4.2 26.9" stroke-width="4.6875"/>
   </g>
   <path d="m435.4 431.5 6.7.1" stroke-width="5.625"/>
   <g stroke-linejoin="round">
    <path d="m382.9 392.8c6.8-3.1 15.6-4.4 19.7-4.6 6.4-.5 11.7.6 16.7 3.6" stroke-width="3.749999"/>
    <path d="m617.7 379.8 88.8-44.2 21.3 44.2" stroke-width="5.624999"/>
   </g>
  </g>
 </g>
</svg>
