<svg height="210mm" viewBox="0 0 1052.4 744.1" width="297mm" xmlns="http://www.w3.org/2000/svg">
 <g fill="none" stroke="#000" stroke-linecap="round">
  <g transform="translate(0 -308.26772)">
   <path d="m57.6 742.2h948.8" stroke-width="1.875"/>
   <g stroke-dasharray="3.75 7.5" stroke-miterlimit="2" stroke-width=".9375">
    <path d="m58.3 844.1h948.8"/>
    <path d="m58.3 641.8h948.8"/>
    <path d="m58.3 540.6h948.8"/>
   </g>
  </g>
  <g stroke-linejoin="round" stroke-width="5.625">
   <path d="m465.1 337.3c17.4-7 42.7-3.8 54.8 42.4 8.5 32.7 21.7 46 35.8 48 19.2 5.8 144.2 3.6 144.2 3.6"/>
   <path d="m155.2 431.4c50.4-65.5 115.5-58.4 97 .6l212.9-94.7"/>
   <ellipse cx="366.86603" cy="796.30182" rx="29.466991" ry="23.331442" transform="matrix(.79083574 -.61202846 .61202846 .79083574 0 0)"/>
   <path d="m707.6 419.3c.8.1 1.4.2 1.9.5.2.1.3.2.5.3.9.7 1.3 2 .8 4-1 3.9-5.4 6.1-7.5 6.9-4.3 1.6-7.6-2-5.1-5.9 1.6-2.4 4.2-5.1 7.4-5.7.2 0 .4-.1.7-.1s.5-.1.8-.1c.6 0 1.2.1 1.9.3"/>
   <path d="m767.6 383.3c19.1-14.7 59.4-46.1 83.5-47.2 24-.8 32.4 41.1 48.8 40.7 10.8-.3 18.5-10 25.1-17.1"/>
   <path d="m708.1 428.6c7.9-3.2 50-40.3 59.5-45.3"/>
  </g>
 </g>
</svg>
