<svg height="210mm" viewBox="0 0 1052.4 744.1" width="297mm" xmlns="http://www.w3.org/2000/svg">
 <g fill="none" stroke-linecap="round">
  <g transform="translate(0 -308.26772)">
   <path d="m57.6 742.2h948.8" stroke="#969696" stroke-width="1.875"/>
   <g stroke="#000" stroke-dasharray="3.75 7.5" stroke-miterlimit="2" stroke-width=".9375">
    <path d="m58.3 844.1h948.8"/>
    <path d="m58.3 641.8h948.8"/>
    <path d="m58.3 540.6h948.8"/>
   </g>
  </g>
  <g stroke="#000" stroke-linejoin="round">
   <ellipse cx="606.42896" cy="3.246042" rx="4.609393" ry="6.862875" stroke-width="5.625" transform="matrix(.72846687 .68508103 -.68508103 .72846687 0 0)"/>
   <path d="m425.7 359.5c10.9-14.3 25.2-24.8 36.4-23.6 10.5 1.1 18.1 9.6 7.1 32.6-10 21.3-29.9 62.7-29.9 62.7" stroke-width="5.62496"/>
   <path d="m589.9 295.5c-3.5 30.5-22.5 59.5-39.7 77.4" stroke-width="5.638243"/>
   <path d="m533.7 381.7c4.9-1 9.7-4.3 11-5 38.7-22.3 61.1-90.1 37.9-90.6-8.5-.2-19.6 7.2-28.8 16.1-6 5.8-13.3 13.6-19.7 21.3-16.3 19.8-76.9 93.7-95 99.9" stroke-width="5.625003"/>
   <path d="m552.9 366.2c-4.9 5.9-8.2 9.5-15.8 13" stroke-width="2.819122"/>
   <path d="m591.5 296.5c-1.9 20.3-22.8 56.1-45.6 79.4" stroke-width="5.638243"/>
   <path d="m576.3 288.7c9.1-3.2 18.6.2 4.4 36" stroke-width="2.819122"/>
   <path d="m533.7 381.7c-4 1.6-4.5-2.7-2.6-4.7 9-9.4 69.6-27 84.1-27.7 16.8-.7 22.7 32.6 34.2 32.2 7.5-.2 13.1-6.2 18.3-10.8" stroke-width="5.625"/>
  </g>
 </g>
</svg>
