<svg height="210mm" viewBox="0 0 1052.4 744.1" width="297mm" xmlns="http://www.w3.org/2000/svg">
 <g fill="none" stroke-linecap="round">
  <g transform="translate(0 -308.26772)">
   <path d="m57.6 742.2h948.8" stroke="#969696" stroke-width="1.875"/>
   <g stroke="#000" stroke-dasharray="3.75 7.5" stroke-miterlimit="2" stroke-width=".9375">
    <path d="m58.3 844.1h948.8"/>
    <path d="m58.3 641.8h948.8"/>
    <path d="m58.3 540.6h948.8"/>
   </g>
  </g>
  <g stroke="#000">
   <path d="m575.3 430.8c21.1-8.3 63.3-28.7 85.8-45.7 14.6-11.1 26.2-22.8 35-31.6 10.2-10.3 18.9-20.2 24.9-29 10.7-15.6 13.1-27.8 1.6-33-14-6.3-42.6 13.7-89.8 91.6-38.6 66.7-42.5 95.9-31.4 103.1 1.1.7 2.2 1.1 3.5 1.3 1.2.2 2.5.3 3.9.2" stroke-linejoin="round" stroke-width="5.625"/>
   <path d="m706.1 296.1c-48 60-85.3 117-108.1 178.2" stroke-width="5.625"/>
   <path d="m695.1 306.2c-38.3 44.9-72.9 96.9-94.8 156.8" stroke-width="7.500001"/>
   <path d="m724.3 293.5c-12-5.1-22.3 10.8-27.8 15.9" stroke-width="3.75"/>
   <g stroke-width="5.625">
    <path d="m602.7 461.8c-3 9.2-6.3 20-.7 24.5"/>
    <g stroke-linejoin="round">
     <path d="m608.8 487.6c8.7 0 23.2-8 39-22.3"/>
     <path d="m414.5 389.9c-4 21.6 5.6 35.8 22.4 39.9 3.4.8 7.1 1.2 11 1.2 20.3-2 31.7-11.7 44.7-23.1 17.3-15.2 31.8-25 49.1-25 6.5.1 12.5 1.5 17.5 4.3 12.5 6.8 19.7 21.5 16 43.7"/>
    </g>
   </g>
  </g>
 </g>
</svg>
