<svg height="210mm" viewBox="0 0 1052.4 744.1" width="297mm" xmlns="http://www.w3.org/2000/svg">
 <g fill="none" stroke-linecap="round">
  <g transform="translate(0 -308.26772)">
   <path d="m57.6 742.2h948.8" stroke="#969696" stroke-width="1.875"/>
   <g stroke="#000" stroke-dasharray="3.75 7.5" stroke-miterlimit="2" stroke-width=".9375">
    <path d="m58.3 844.1h948.8"/>
    <path d="m58.3 641.8h948.8"/>
    <path d="m58.3 540.6h948.8"/>
   </g>
  </g>
  <g stroke="#000" stroke-linejoin="round">
   <path d="m366.4 335.8-38.9 72.9c-7.2 13.5 1.8 23.1 15 23 22.2-.6 41.8-25 58.5-47.4 24.8-33.4 46.5-48 68-47.7 22.7.4 43.6 16.6 34.4 48.2" stroke-width="5.624999"/>
   <path d="m503.3 384.9c27.8-42.5 33.8-49.3 43-61.1 3.5-4.6 7.8-9 12.1-12.9 6.6-6 14-10.6 22.5-11 18.8.4 18.3 30.6 34.5 30.7 11.2 0 29.5-27.5 36.3-38 8.2-12.6 18.5-29.7 34.9-57.6" stroke-width="5.625"/>
  </g>
 </g>
</svg>
