<svg height="210mm" viewBox="0 0 1204.7 744.1" width="340mm" xmlns="http://www.w3.org/2000/svg">
 <g fill="none" stroke-linecap="round">
  <g transform="translate(0 -308.26772)">
   <path d="m14 742.2h1176.1" stroke="#969696" stroke-width="1.875"/>
   <g stroke="#000" stroke-dasharray="3.75 7.5" stroke-miterlimit="2" stroke-width=".9375">
    <path d="m14.7 844.1h1176.2"/>
    <path d="m14.7 641.8h1176.2"/>
    <path d="m14.7 540.6h1176.2"/>
   </g>
  </g>
  <g stroke="#00000c">
   <g stroke-linejoin="round" stroke-width="5.625">
    <path d="m230 354.2 42-18.3 33.3 47.9"/>
    <path d="m272 335.9 24 48"/>
    <path d="m281.5 335.9 23.8 47.9"/>
    <path d="m277.6 335.8 24 48"/>
   </g>
   <g stroke-width="3.75">
    <path d="m274.3 334.9h7.1"/>
    <path d="m297.7 384.8h7.1"/>
   </g>
  </g>
  <g stroke="#000" stroke-linejoin="round" stroke-width="5.625">
   <path d="m67.4 335.6-39 72.4c-8.4 15.5 5 26 21.5 22.2 11.3-1.5 180.2-76 180.2-76"/>
   <path d="m305.3 383.8s65.3-46.1 89.3-46.9c27-.9 22.8 52.4 47.6 47.2 8.4-1.8 15.1-7.3 21.2-14.4"/>
   <path d="m506.2 415c1 .1 1.8.3 2.5.7.2.1.4.2.6.4 1.2.9 1.7 2.6 1 5.2-1.3 5.1-7.1 8-9.8 9-5.7 2-9.8-2.6-6.6-7.6 2-3.1 5.5-6.6 9.7-7.5.3-.1.6-.1.9-.1s.7-.1 1-.1c.8 0 1.6.1 2.4.3"/>
   <path d="m503 429.4c37.1-29.9 63.7-74.5 123.7-147.6"/>
   <path d="m644 355.7c12.7-8.1 25.7-18.7 37.2-19.9 24.4-1.9 16.7 44.2 39.2 40 9.2-1.7 16.3-6.2 22.6-13.8"/>
   <path d="m626.7 281.8c-13.8 25.3-27.6 47.3-42 72.2-13.1 23.6 9 26.5 29 17.9 6.3-3.1 15.8-6.4 30.3-16.2"/>
   <path d="m783.6 431.8c-21.9-6.7 186.2-36.8 196.8-36.9 24.9-.2 12.9 38.3 38.8 36.6"/>
   <path d="m783.6 431.8c57.9-21 88-148.1 11-72.5"/>
   <path d="m1019.3 431.5c4.2 0 9-2.5 14.9-8.1 5.2-5 15.3-17.3 15.3-17.3"/>
   <path d="m1049.5 406 42.7-63.7"/>
   <path d="m1092.2 342.3c21.6-28.9 36.1-52.4 56.9-56.8 10.7-2.7 14.3.7 18.7 3.2 7.6 4.3 8 17.2-6 41.5l-29.8 52.1"/>
  </g>
 </g>
</svg>
