<svg height="210mm" viewBox="0 0 1052.4 744.1" width="297mm" xmlns="http://www.w3.org/2000/svg">
 <g fill="none" stroke-linecap="round">
  <g transform="translate(0 -308.26772)">
   <path d="m57.6 742.2h948.8" stroke="#969696" stroke-width="1.875"/>
   <g stroke="#000" stroke-dasharray="3.75 7.5" stroke-miterlimit="2" stroke-width=".9375">
    <path d="m58.3 844.1h948.8"/>
    <path d="m58.3 641.8h948.8"/>
    <path d="m58.3 540.6h948.8"/>
   </g>
  </g>
  <g stroke="#000" stroke-linejoin="round" stroke-width="5.625">
   <path d="m784.4 384.7-25.3 46.6"/>
   <path d="m763.5 431.2-12 .2"/>
   <path d="m791.2 381.6-27.7 49.5"/>
   <path d="m791.2 381.6-14.1-.1"/>
   <path d="m782.5 382.8-25.3 46.6"/>
   <path d="m159.3 430.8 173.2 1 22.7 48.5s215.3-158.7 275.5-189.5"/>
   <path d="m751.6 431.4 25.6-49.8s-197.6 106-230.2 106c-44.3-.1.4-151.8 83.8-196.8"/>
   <path d="m763.5 431.2 92.7-49.5 21.2 50.1"/>
  </g>
 </g>
</svg>
