<svg height="210mm" viewBox="0 0 1052.4 744.1" width="297mm" xmlns="http://www.w3.org/2000/svg">
 <g fill="none" stroke-linecap="round">
  <g transform="translate(0 -308.26772)">
   <path d="m57.6 742.2h948.8" stroke="#969696" stroke-width="1.875"/>
   <g stroke="#000" stroke-dasharray="3.75 7.5" stroke-miterlimit="2" stroke-width=".9375">
    <path d="m58.3 844.1h948.8"/>
    <path d="m58.3 641.8h948.8"/>
    <path d="m58.3 540.6h948.8"/>
   </g>
  </g>
  <g stroke-linejoin="round" stroke-width="5.625">
   <path d="m536.3 428.9c-1.1.5-20.6 2-27 2.7-11.3 1.2-29.3-.3-41 6.3-14.4 8.1-22.6 15.9-34.8 29.2-24.9 27.2-38.9 53.7-35.9 61.5 1.1 2.9 17.7 21.8 57.3-41.8l88-150.7" stroke="#060000"/>
   <path d="m536.3 428.9c34.3-6.9 50.9-34.2 67.2-39.4" stroke="#000002"/>
   <g stroke="#000">
    <path d="m539 412.1c1 .1 1.8.3 2.5.7.2.1.4.2.6.4 1.2.9 1.7 2.6 1 5.2-1.3 5.1-7.1 8-9.8 9-5.7 2-9.8-2.6-6.6-7.6 2-3.1 5.5-6.6 9.7-7.5.3-.1.6-.1.9-.1s.7-.1 1-.1c.8 0 1.6.1 2.4.3"/>
    <path d="m587.7 533.5c18.1-10.6 38.1-32.4 41.7-56.7 2.1-26.4-17.6-41-35.7-59.8-6-6.3-5-21.2 9.8-27.5"/>
   </g>
  </g>
 </g>
</svg>
