<svg height="210mm" viewBox="0 0 1052.4 744.1" width="297mm" xmlns="http://www.w3.org/2000/svg">
 <g fill="none" stroke-linecap="round">
  <g transform="translate(0 -308.26772)">
   <path d="m57.6 742.2h948.8" stroke="#969696" stroke-width="1.875"/>
   <g stroke="#000" stroke-dasharray="3.75 7.5" stroke-miterlimit="2" stroke-width=".9375">
    <path d="m58.3 844.1h948.8"/>
    <path d="m58.3 641.8h948.8"/>
    <path d="m58.3 540.6h948.8"/>
   </g>
  </g>
  <g stroke="#000" stroke-linejoin="round" stroke-width="5.625">
   <path d="m477 435.4c33.5-26.5 76.1-75.4 105.6-92.8 6.2-3.5 12.6-5.7 19.1-6.2 23.4-.2 35.6 20.7 45 42.9 10.5 24.8 17.6 51.3 33 51.8"/>
   <path d="m604.9 336.5c12.6.1 28 16.8 38.6 46.9 9.1 25.7 19 48.7 38.4 47.7"/>
   <path d="m608.7 337c16.2 2.5 31.7 14.4 43.2 44.1 9.2 23.9 10.5 44 22.6 48.8"/>
   <path d="m477 435.4c-19.4 17-85.6 73.6-76.8 95.2 5.4 13.3 70.8-24.4 97.1-134.9 20.3-90.7 58-149.8 92.8-161.4"/>
   <path d="m681.9 431.1c13.8.8 27.5-12.4 37.9-24.8"/>
  </g>
 </g>
</svg>
