<svg height="210mm" viewBox="0 0 1052.4 744.1" width="297mm" xmlns="http://www.w3.org/2000/svg">
 <g fill="none" stroke-linecap="round">
  <g transform="translate(0 -308.26772)">
   <path d="m57.6 742.2h948.8" stroke="#969696" stroke-width="1.875"/>
   <g stroke="#000" stroke-dasharray="3.75 7.5" stroke-miterlimit="2" stroke-width=".9375">
    <path d="m58.3 844.1h948.8"/>
    <path d="m58.3 641.8h948.8"/>
    <path d="m58.3 540.6h948.8"/>
   </g>
  </g>
  <g stroke="#000" stroke-linejoin="round" stroke-width="5.625">
   <path d="m163.8 532.5c146-70.7 289.1-140.4 452-216.8 26.7-12.5 60-37.3 88.4-64.2 16.4-15.5 58-56.9 37.2-70-12-4.1-46.1 22-87.5 90.3-44.4 76.6-43.3 106.8-27.6 106.6 27.9-.4 56.6-21.4 86.4-42.2"/>
   <path d="m733.1 382.4 93-197"/>
   <path d="m712.6 336.1 20.5 46.3"/>
  </g>
 </g>
</svg>
