<svg height="210mm" viewBox="0 0 1052.4 744.1" width="297mm" xmlns="http://www.w3.org/2000/svg">
 <g fill="none" stroke-linecap="round">
  <g transform="translate(0 -308.26772)">
   <path d="m57.6 742.2h948.8" stroke="#969696" stroke-width="1.875"/>
   <g stroke="#000" stroke-dasharray="3.75 7.5" stroke-miterlimit="2" stroke-width=".9375">
    <path d="m58.3 844.1h948.8"/>
    <path d="m58.3 641.8h948.8"/>
    <path d="m58.3 540.6h948.8"/>
   </g>
  </g>
  <g stroke="#000">
   <g stroke-linejoin="round">
    <path d="m277.5 335.1-43 77.4" stroke-width="5.625"/>
    <path d="m280.7 337.9-35.9 59.7" stroke-width="7.5"/>
    <path d="m245.5 389.8c-8.3 16.5-17.6 28.2-27 35" stroke-width="2.8125"/>
   </g>
   <g stroke-width="5.625">
    <g stroke-linejoin="round">
     <path d="m206.5 431.6c3.5-1.3 6.9-2 10.1-3.8 2.2-1.2 4.3-2.5 6.3-4 13.5-9.6 24.3-23.7 34.5-39.1l30.9-50"/>
     <path d="m288.3 334.8-10.9.3"/>
     <path d="m475.8 427.9c10.4 11.4 97.2-24.5 144.2-41.1 46.9-16.6 139.1-48.9 139.1-48.9"/>
    </g>
    <path d="m740.2 430.6 93.8-94.1"/>
    <path d="m759.1 337.9c21-5.4 35 2.5 12.3 40.5l-31.2 52.3" stroke-linejoin="round"/>
    <path d="m206.5 431.6s138.5 1.7 205.7-1.2c41.7-1.8 68.7.6 70.9-6.9"/>
    <ellipse cx="637.3208" cy="-21.498531" rx="4.609393" ry="6.862874" stroke-linejoin="round" transform="matrix(.72846687 .68508103 -.68508103 .72846687 0 0)"/>
   </g>
  </g>
 </g>
</svg>
