<svg height="210mm" viewBox="0 0 1052.4 744.1" width="297mm" xmlns="http://www.w3.org/2000/svg">
 <g fill="none" stroke-linecap="round">
  <g transform="translate(0 -308.26772)">
   <path d="m57.6 742.2h948.8" stroke="#969696" stroke-width="1.875"/>
   <g stroke="#000" stroke-dasharray="3.75 7.5" stroke-miterlimit="2" stroke-width=".9375">
    <path d="m58.3 844.1h948.8"/>
    <path d="m58.3 641.8h948.8"/>
    <path d="m58.3 540.6h948.8"/>
   </g>
  </g>
  <g stroke="#000" stroke-linejoin="round" stroke-width="5.625">
   <path d="m594.6 263.3c17.9-22.5 33.1-28.8 46.1-29.2 16.5-.5 26.7 12.4 9.9 43.6l-82.5 152.9 236.7-1.3"/>
   <path d="m278.1 431.2c14.2-21.3 24.9-35.2 37.5-52.4 15.6-21.4 34.7-40.9 55.6-42.3 23.4-.2 35.6 20.7 45 42.9 10.5 24.8 17.6 51.3 33 51.8 13.8.8 27.5-12.4 37.9-24.8"/>
   <path d="m374.4 336.6c12.6.1 28 16.8 38.6 46.9 9.1 25.7 19 48.7 38.4 47.7"/>
   <path d="m378.3 337.1c16.2 2.5 31.7 14.4 43.2 44.1 9.2 23.9 10.5 44 22.6 48.8"/>
   <path d="m487.1 406.3c16.1-16.6 107.5-143 107.5-143"/>
  </g>
 </g>
</svg>
