<svg height="210mm" viewBox="0 0 1052.4 744.1" width="297mm" xmlns="http://www.w3.org/2000/svg">
 <g fill="none" stroke-linecap="round">
  <g transform="translate(0 -308.26772)">
   <path d="m57.6 742.2h948.8" stroke="#969696" stroke-width="1.875"/>
   <g stroke="#000" stroke-dasharray="3.75 7.5" stroke-miterlimit="2" stroke-width=".9375">
    <path d="m58.3 844.1h948.8"/>
    <path d="m58.3 641.8h948.8"/>
    <path d="m58.3 540.6h948.8"/>
   </g>
  </g>
  <g stroke-width="5.625">
   <g stroke-linejoin="round">
    <path d="m428.5 431c5.4-3.3 11.7-10.5 6.5-17.1-2.6-3.3-4-4.5-11.9-4.4l-98.8.6c-6.7.1-14.3.2-15.9-.7-10.5-5.8-7.4-13.7.5-24.6" stroke="#001a00"/>
    <path d="m168.7 431.5c50.4-65.5 115.5-58.4 97 .6-.4 1.2 43.7-48.5 43.7-48.5" stroke="#000"/>
    <path d="m484.4 433.1c-16.4 12.6-44.7 34.5-59.2 49.2-25.9 26.2-32.5 37.8-29.5 45.6 1.1 2.9 17.7 21.8 57.3-41.8l88-150.7s-94.4 90.3-112.4 95.6" stroke="#060000"/>
    <g stroke="#000">
     <path d="m702.4 357.6 101.7-104.5"/>
     <path d="m804.1 253.1c29.5-31.4 49.3-58 33.7-63.4-14.6-5-40.2 8.9-87.4 86.8-60.3 104.2-33.5 122.2-1.8 98.4l16.4-12.4"/>
    </g>
   </g>
   <path d="m827.7 277.6c-21.1 33.7-44.8 69.2-62.6 84.9" stroke="#000"/>
   <g stroke-linejoin="round">
    <path d="m702.4 357.6s-46.6 50-80.5 69c-11.8 6.6-21.8 14.3-23.3 15.1-41.6 23.7-75.8 71.5-70.5 85 1.2 2.9 9.6 22.2 53.1-38.8 48.1-67.3 86.2-138.1 121.9-209.8 15.5-26.5 11.8-44.5-2.5-44.2-14.4.3-33.9 18.1-54.9 39" stroke="#000"/>
    <path d="m900.1 192.4c-.5-.5-.8-.8-1.4-1.1-.2-.1-.7-.4-.9-.5s-.4-.2-.6-.2c-9 1.9-6.3 3.2-9 1.9-1.5-.7 2.2 10.4 5.3 9.2 2 .3 6.1-.4 7.6-3.8.7-1.7.6-3.2-.1-4.4-.1-.2-.3-.3-.4-.6-2.6-7.5-15-.3-23.3 7.8-3.9 3.8-11.1 11.6-17.1 21.7-5 8.1-18.4 30.8-32.6 55.2" stroke="#00001f"/>
    <path d="m687.6 612.5a5.5 1.8 0 0 1 -5.5 1.8 5.5 1.8 0 0 1 -5.5-1.8 5.5 1.8 0 0 1 5.4-1.8 5.5 1.8 0 0 1 5.5 1.8h-5.5z" stroke="#000" transform="matrix(.86958032 -.49379153 .49379153 .86958032 0 0)"/>
   </g>
   <path d="m645.7 272.9c-31.2 28.3-143.4 144.4-161.3 160.2" stroke="#000"/>
  </g>
 </g>
</svg>
