<svg height="210mm" viewBox="0 0 1052.4 744.1" width="297mm" xmlns="http://www.w3.org/2000/svg">
 <g fill="none" stroke-linecap="round">
  <g transform="translate(0 -308.26772)">
   <path d="m57.6 742.2h948.8" stroke="#969696" stroke-width="1.875"/>
   <g stroke="#000" stroke-dasharray="3.75 7.5" stroke-miterlimit="2" stroke-width=".9375">
    <path d="m58.3 844.1h948.8"/>
    <path d="m58.3 641.8h948.8"/>
    <path d="m58.3 540.6h948.8"/>
   </g>
  </g>
  <g stroke="#000" stroke-linejoin="round">
   <path d="m542.2 386.9 21.3 44.2" stroke-width="5.624999"/>
   <path d="m382.4 355.1c8.1-7.6 17.5-17.9 32-19.7 3.3-.4 6.4-.1 9 .9 2.8 1 5 2.6 6.6 4.7 3.7 5.2 3.1 13.5-5.1 23.4-19.3 23.3-36.4 34.4-39.1 46.8-4.6 27.4 35.3 22 52.1 11.5" stroke-width="5.624999"/>
   <ellipse cx="599.90503" cy="1.894625" rx="5.271423" ry="7.848564" stroke-width="14.034714" transform="matrix(.72846687 .68508103 -.68508103 .72846687 0 0)"/>
   <path d="m430.6 423.5c7 4.2 11.1 7.3 20.9 7.4 17.9.2 44.7-17.5 90.7-44" stroke-width="5.625002"/>
   <path d="m563.5 431.1 171.8-96.2" stroke-width="5.625"/>
  </g>
 </g>
</svg>
