<svg height="210mm" viewBox="0 0 1052.4 744.1" width="297mm" xmlns="http://www.w3.org/2000/svg">
 <g fill="none" stroke-linecap="round">
  <g transform="translate(0 -308.26772)">
   <path d="m57.6 742.2h948.8" stroke="#969696" stroke-width="1.875"/>
   <g stroke="#000" stroke-dasharray="3.75 7.5" stroke-miterlimit="2" stroke-width=".9375">
    <path d="m58.3 844.1h948.8"/>
    <path d="m58.3 641.8h948.8"/>
    <path d="m58.3 540.6h948.8"/>
   </g>
  </g>
  <g stroke="#000002">
   <path d="m434.8 392.7c-23.5 16.7-42.6 26.7-42 32.4.4 3.7 1.9 4.8 5.3 5.2 3.3.4 8.2-3.6 9.6-4.4 48-27.8 71.8-129.3 9.4-73.8-2.3 2.1-17.4 18.4-20 20.9" stroke-linejoin="round" stroke-width="5.419139"/>
   <g stroke-width="5.625">
    <path d="m434.8 392.7c61.3-39.5 92.1-75.3 106.5-89.5 17.5-17.4 57.1-61.5 40.1-67.4-14.6-5.1-40.2 9-87.4 87.7-9.4 16.4-50.2 108.8-15.7 107.8" stroke-linejoin="round"/>
    <path d="m632.4 234.6s-125.7 196.4-154.2 196.7"/>
   </g>
  </g>
  <path d="m681.1 236.5c-35.9 22.6-66.9 56.8-48.6-1.9" stroke="#000" stroke-linejoin="round" stroke-width="5.625"/>
 </g>
</svg>
