<svg height="210mm" viewBox="0 0 1052.4 744.1" width="297mm" xmlns="http://www.w3.org/2000/svg">
 <g fill="none" stroke-linecap="round">
  <g transform="translate(0 -308.26772)">
   <path d="m57.6 742.2h948.8" stroke="#969696" stroke-width="1.875"/>
   <g stroke="#000" stroke-dasharray="3.75 7.5" stroke-miterlimit="2" stroke-width=".9375">
    <path d="m58.3 844.1h948.8"/>
    <path d="m58.3 641.8h948.8"/>
    <path d="m58.3 540.6h948.8"/>
   </g>
  </g>
  <g stroke-width="5.625">
   <path d="m345.3 430.9 78.4.3" stroke="#030002" stroke-linejoin="round"/>
   <g stroke="#000">
    <g stroke-linejoin="round">
     <ellipse cx="196.45566" cy="558.54614" rx="25.728558" ry="20.371416" transform="matrix(.89236516 -.45131411 .45131411 .89236516 0 0)"/>
     <ellipse cx="568.98676" cy="46.6525" rx="4.609393" ry="6.862874" transform="matrix(.72846687 .68508103 -.68508103 .72846687 0 0)"/>
     <ellipse cx="305.96997" cy="599.77844" rx="60.146576" ry="43.208748" transform="matrix(.88109295 -.47294313 .47294313 .88109295 0 0)"/>
    </g>
    <path d="m606.9 361c.7 2.8.2 12.3-.3 13.7-4.6 13.5-9.8 20.7-17.2 28.9-8.8 9.7-22.1 15.7-32.4 24.1"/>
    <path d="m587.4 339.5c11 3.2 13.8 13.8 14.8 17.6 5.3 20.3-6.6 35.7-14.9 44.9-8.3 9.3-25 27.4-57.1 28.7"/>
    <path d="m442.9 423.7 75.8-68.5" stroke-linejoin="round"/>
   </g>
  </g>
 </g>
</svg>
