<svg height="210mm" viewBox="0 0 1052.4 744.1" width="297mm" xmlns="http://www.w3.org/2000/svg">
 <g fill="none" stroke-linecap="round">
  <g transform="translate(0 -308.26772)">
   <path d="m57.6 742.2h948.8" stroke="#969696" stroke-width="1.875"/>
   <g stroke="#000" stroke-dasharray="3.75 7.5" stroke-miterlimit="2" stroke-width=".9375">
    <path d="m58.3 844.1h948.8"/>
    <path d="m58.3 641.8h948.8"/>
    <path d="m58.3 540.6h948.8"/>
   </g>
  </g>
  <g stroke-linejoin="round" stroke-width="5.625">
   <path d="m356.7 388.1c-13.8 25.3-28.6 50-43 74.9-13.1 23.6 9 26.5 29 17.9 4.8-2.6 9-5.7 12.9-9.5" stroke="#000"/>
   <path d="m201.9 495.2c23.8-31.8 154.8-107.1 154.8-107.1" stroke="#000001"/>
   <path d="m201.9 495.2c-10.2 14.7-15.7 27.5-14.2 32 .9 3 16.3 22.9 59.8-38.1 26.9-36.9 54.6-73.4 69.3-116.4 15.5-30.1-1.4-56.7-44.4-11.6" stroke="#060000"/>
  </g>
  <g stroke="#000">
   <g stroke-width="5.625">
    <path d="m355.5 471.3c30.7-35.7 65.2-74.6 84.5-89.2 18-13.7 39.1-25.7 60.1-34.1 63.9-25.7 127.1-19.2 101 67-1.3 4.4-4.8 11.8-6.9 16.5-.3.6 33.2-28.8 33.2-28.8" stroke-linejoin="round"/>
    <path d="m627.4 402.8c55.3-40.9 184.4-170.5 138.9-167.6-15.4 1-42.6 12.2-89.8 90.1-60.3 104.2-32 117.7 2.2 97.7 7.6-5.3 14.6-11.1 20.9-18" stroke-linejoin="round"/>
    <path d="m749.8 240.2c-48 60-84.9 118.1-107.7 179.3"/>
   </g>
   <path d="m736.8 251.9c-38.3 44.9-70.9 94.9-92.8 154.8" stroke-width="7.5"/>
   <path d="m767.5 236c-13.1-.9-24.8 14.1-27.3 17.1" stroke-width="3.75"/>
   <g stroke-width="5.625">
    <path d="m647 407.4c-6.1 21.8-1.8 23 13.1 22.7"/>
    <path d="m804.8 235.7s-50.3 99.6-83.4 144.2c-7.8 10.5-21.8 25-21.8 25"/>
   </g>
  </g>
 </g>
</svg>
