<svg height="210mm" viewBox="0 0 1052.4 744.1" width="297mm" xmlns="http://www.w3.org/2000/svg">
 <g fill="none" stroke-linecap="round">
  <g transform="translate(0 -308.26772)">
   <path d="m57.6 742.2h948.8" stroke="#969696" stroke-width="1.875"/>
   <g stroke="#000" stroke-dasharray="3.75 7.5" stroke-miterlimit="2" stroke-width=".9375">
    <path d="m58.3 844.1h948.8"/>
    <path d="m58.3 641.8h948.8"/>
    <path d="m58.3 540.6h948.8"/>
   </g>
  </g>
  <g stroke="#000" stroke-linejoin="round">
   <path d="m453.7 430.9c14.1-13.2 21.5-23.7 38-37.1 6.3-5.1 12.9-8.7 20.4-8.9 4.8-.1 8.5 2.9 11.5 8.7 6.5 12.7 4 18.2 12.3 27.2 15.9 17.3 45.2-28.6 35.9-35.1-6.3-4.4-27.3 4-50.8 42.8-25.1 40.2-17.1 50.8-3.6 51.1" stroke-width="5.624999"/>
   <path d="m351.3 430.3c41.8-69.4 112.3-60.1 102.4.6" stroke-width="5.624999"/>
   <g stroke-width="5.625">
    <path d="m330 386.1 21.3 44.2"/>
    <path d="m627.3 431.2c28.1-11.9 55.6-29.4 73.1-29.2 14.1.2 13.7 29.1 28.7 29.1 5.6 0 13.2-3.3 19.4-8.5"/>
    <path d="m517.4 479.5c29.5-2.1 69.9-69.8 92.3-103.7 14.2-21.5 30.5-39.6 48.2-40 8.1-.2 13.2 6.7 11.6 16.3-1.1 6.7-4.3 15.5-11 26.8l-31.2 52.3"/>
   </g>
  </g>
 </g>
</svg>
