<svg height="400mm" viewBox="0 0 1948.8 1417.3" width="550mm" xmlns="http://www.w3.org/2000/svg">
 <g fill="none" stroke-linecap="round" stroke-miterlimit="2.5" transform="translate(0 364.96062)">
  <path d="m60.2-72.8h1838.2" stroke="#969696" stroke-width="1.875"/>
  <g stroke="#000" stroke-dasharray="11.25 11.25" stroke-width=".9375">
   <path d="m59.8 28.3h1838.1"/>
   <path d="m59.8-173.9h1838.1"/>
   <path d="m59.8-275h1838.1"/>
  </g>
  <path d="m60.2 371.4h1838.2" stroke="#969696" stroke-width="1.875"/>
  <g stroke="#000" stroke-dasharray="11.25 11.25" stroke-width=".9375">
   <path d="m59.8 472.5h1838.1"/>
   <path d="m59.8 270.3h1838.1"/>
   <path d="m59.8 169.2h1838.1"/>
  </g>
  <path d="m60.2 829.7h1838.2" stroke="#969696" stroke-width="1.875"/>
  <g stroke="#000" stroke-dasharray="11.25 11.25" stroke-width=".9375">
   <path d="m59.8 930.8h1838.1"/>
   <path d="m59.8 728.6h1838.1"/>
   <path d="m59.8 627.5h1838.1"/>
  </g>
 </g>
 <g transform="translate(0 673.22834)">
  <g fill="none" stroke-linecap="round">
   <g stroke="#000">
    <g stroke-width="5.625">
     <path d="m214.3-581-81.8 196.5"/>
     <g stroke-linejoin="round">
      <path d="m172.3-436-39.2 51.7"/>
      <path d="m281.1-445.5c28.2-26 45.4-34.5 61.9-35 19.7-.6 31.1 15.4 23.6 41.1"/>
      <path d="m172.3-436c21.3-28.2 37.3-43.4 51.1-44 24-.8 28.1 40.1 44.6 39.7 5-.1 9.3-2.3 13.2-5.2"/>
      <path d="m564-479.4c-35.4 9.2-67.2 60.8-64.8 84 4.3 31.4 57.5-10.5 78.2-26.6"/>
      <ellipse cx="715.56628" cy="40.232864" rx="25.728558" ry="20.371418" transform="matrix(.79083574 -.61202846 .61202846 .79083574 0 0)"/>
     </g>
    </g>
    <path d="m613-417.2c.3 9.3-.4 14.6-6.3 21.9-3.6 4.5-8.8 8.3-16 11.1" stroke-width="5.624961"/>
    <path d="m609.4-422.4c2 6.9 1.8 6.4.7 11.6-1.6 7.6-6.1 13.5-12.5 18.7-3.2 2.6-6.9 5-10.9 7.3" stroke-width="6.599955"/>
    <path d="m592.3-390.5c-5.3 3.7-10.3 5.7-16.3 3.5" stroke-width="2.849979"/>
    <path d="m598.6-427.1c7.4 1.6 9 4 10.4 10.8" stroke-width="2.849979"/>
    <g stroke-linejoin="round" stroke-width="5.625">
     <path d="m705.3-383.9c27-39.1 61.4-47.9 78.6-47.7 21.6.3 32.3 1.9 33.2 47 0 .3 3.9.1 9.5-.2 9-.5 11.7.8 18.5-4.4"/>
     <path d="m845.4-404.3c1.1.1 2.1.3 2.8.7.3.1.5.3.7.4 1.4 1.1 1.9 2.9 1.1 5.8-1.5 5.7-7.9 8.9-11 10.1-6.3 2.3-11-2.9-7.4-8.5 2.3-3.5 6.2-7.4 10.8-8.3.3-.1.6-.1.9-.2.4 0 .8-.1 1.2-.1.9 0 1.8.1 2.7.4"/>
     <path d="m707.2-385.8c27-39.1 61.4-47.9 78.6-47.7 21.6.3 32.3 1.9 33.2 47 0 .3 3.9.1 9.5-.2 9-.5 11.7.8 18.5-4.4"/>
     <path d="m847.3-406.2c1.1.1 2.1.3 2.8.7.3.1.5.3.7.4 1.4 1.1 1.9 2.9 1.1 5.8-1.5 5.7-7.9 8.9-11 10.1-6.3 2.3-11-2.9-7.4-8.5 2.3-3.5 6.2-7.4 10.8-8.3.3-.1.6-.1.9-.2.4 0 .8-.1 1.2-.1.9 0 1.8.1 2.7.4"/>
     <path d="m845.2-389.2 48.8-42.9 33.3 47.9"/>
    </g>
   </g>
   <g stroke="#00000c">
    <g stroke-linejoin="round" stroke-width="5.625">
     <path d="m893.9-432.1 24 48"/>
     <path d="m903.4-432.1 23.8 47.9"/>
     <path d="m899.5-432.3 24 48"/>
    </g>
    <g stroke-width="3.75">
     <path d="m896.2-433.2h7.1"/>
     <path d="m919.6-383.2h7.1"/>
    </g>
   </g>
  </g>
  <path d="m1029.8-493.4a11.6 11.6 0 0 1 -11.6 11.6 11.6 11.6 0 0 1 -11.6-11.6 11.6 11.6 0 0 1 11.6-11.7 11.6 11.6 0 0 1 11.7 11.6"/>
  <g fill="none" stroke="#000" stroke-linecap="round">
   <g stroke-width="5.625">
    <path d="m1084-398c-1.3 12.5-8.3 28.3-20.8 34.2"/>
    <path d="m439.4-398.5c-1.3 12.5-8.3 28.3-20.8 34.2"/>
    <path d="m866.4 47.1c-1.3 12.5-8.3 28.3-20.8 34.2"/>
    <path d="m1420.1 41.4c-1.3 12.5-8.3 28.3-20.8 34.2"/>
    <path d="m705.6-50.2-67.1 110.4" stroke-linejoin="round"/>
    <ellipse cx="684.26294" cy="324.32382" rx="62.130169" ry="44.633743" stroke-linejoin="round" transform="matrix(.88109295 -.47294313 .47294313 .88109295 0 0)"/>
    <path d="m1000.8-34.9c-35.4 9.2-67.2 60.8-64.8 84 4.3 31.4 57.5-10.5 78.2-26.6" stroke-linejoin="round"/>
    <ellipse cx="788.93091" cy="659.12811" rx="25.728558" ry="20.371418" stroke-linejoin="round" transform="matrix(.79083574 -.61202846 .61202846 .79083574 0 0)"/>
   </g>
   <path d="m1049.8 27.4c.3 9.3-.4 14.6-6.3 21.9-3.6 4.5-8.8 8.3-16 11.1" stroke-width="5.624961"/>
   <path d="m1046.2 22.1c2 6.9 1.8 6.4.7 11.6-1.6 7.6-6.1 13.5-12.5 18.7-3.2 2.6-6.9 5-10.9 7.3" stroke-width="6.599955"/>
   <path d="m1029.1 54c-5.3 3.7-10.3 5.7-16.3 3.5" stroke-width="2.849979"/>
   <path d="m1035.4 17.4c7.4 1.6 9 4 10.4 10.8" stroke-width="2.849979"/>
  </g>
  <path d="m1356.8-48.9a11.6 11.6 0 0 1 -11.6 11.6 11.6 11.6 0 0 1 -11.6-11.6 11.6 11.6 0 0 1 11.6-11.7 11.6 11.6 0 0 1 11.7 11.6"/>
  <g fill="none" stroke-linecap="round">
   <path d="m1155.1-18.2c7.4-5.6 15.3-10.8 24.4-14.8 19.6-8.3 35 2.5 12.3 40.5l-31.2 52.3" stroke="#000" stroke-linejoin="round" stroke-width="5.625"/>
   <g stroke="#00000c">
    <g stroke-linejoin="round" stroke-width="5.625">
     <path d="m1160.6 59.8 64.2-47.9 33.3 47.9"/>
     <path d="m1224.7 12 24 48"/>
     <path d="m1234.2 12 23.8 47.9"/>
     <path d="m1230.3 11.8 24 48"/>
    </g>
    <path d="m1227 10.9h7.1" stroke-width="3.75"/>
    <path d="m1250.4 60.8h7.1" stroke-width="3.75"/>
   </g>
   <g stroke="#000">
    <path d="m1216.1 505.2c-1.3 12.5-8.3 28.3-20.8 34.2" stroke-width="5.625"/>
    <path d="m1363.7 423.2c-35.4 9.2-67.2 60.8-64.8 84 4.3 31.4 57.5-10.5 78.2-26.6" stroke-linejoin="round" stroke-width="5.624999"/>
    <ellipse cx="795.51111" cy="1243.4965" rx="25.728558" ry="20.371418" stroke-linejoin="round" stroke-width="5.625" transform="matrix(.79083574 -.61202846 .61202846 .79083574 0 0)"/>
    <path d="m1412.7 485.5c.3 9.3-.4 14.6-6.3 21.9-3.6 4.5-8.8 8.3-16 11.1" stroke-width="5.624961"/>
    <path d="m1409.1 480.3c2 6.9 1.8 6.4.7 11.6-1.6 7.6-6.1 13.5-12.5 18.7-3.2 2.6-6.9 5-10.9 7.3" stroke-width="6.599955"/>
    <g stroke-width="2.849979">
     <path d="m1392 512.1c-5.3 3.7-10.3 5.7-16.3 3.5"/>
     <path d="m1398.3 475.5c7.4 1.6 9 4 10.4 10.8"/>
    </g>
   </g>
  </g>
  <path d="m1712.8 409.2a11.6 11.6 0 0 1 -11.6 11.6 11.6 11.6 0 0 1 -11.6-11.6 11.6 11.6 0 0 1 11.6-11.7 11.6 11.6 0 0 1 11.7 11.6"/>
  <g fill="none" stroke-linecap="round">
   <g stroke-linejoin="round" stroke-width="5.625">
    <ellipse cx="539.35815" cy="1045.903" rx="25.728558" ry="20.371418" stroke="#000701" transform="matrix(.79083574 -.61202846 .61202846 .79083574 0 0)"/>
    <path d="m1053.7 481.3c26.1-19.1 73.2-45.6 95.2-55.2" stroke="#000701"/>
    <g stroke="#000008">
     <path d="m1148.9 426.2c19.6-8.3 35 2.5 12.3 40.5l-31.2 52.3"/>
     <path d="m1171.3 432.5-49.2 86.2"/>
     <path d="m1171.5 438.7-45.6 79.9"/>
     <path d="m1122 518.7 7.9.2"/>
    </g>
   </g>
   <path d="m1167.3 426.3c1.8 1.7 2.3 5.7.7 9.9" stroke="#000008" stroke-width="3.75"/>
   <g stroke-linejoin="round" stroke-width="5.625">
    <path d="m1562.5 423.7c-53.4 13.9-99.2 129.2-28.4 84.1" stroke="#000"/>
    <path d="m1534.1 507.9 14.8-13.2 9.5-7.9 18.3-16.7 33.3 47.9" stroke="#000"/>
    <path d="m1576.7 470.1 24 48" stroke="#00000c"/>
    <path d="m1586.2 470.1 23.8 47.9" stroke="#00000c"/>
    <path d="m1582.3 470 24 48" stroke="#00000c"/>
   </g>
   <path d="m1579 469.1h7.1" stroke="#00000c" stroke-width="3.75"/>
   <path d="m1602.4 519h7.1" stroke="#00000c" stroke-width="3.75"/>
  </g>
  <circle cx="1784.6554" cy="513.02209" r="8.049654"/>
 </g>
</svg>
