<svg height="210mm" viewBox="0 0 1052.4 744.1" width="297mm" xmlns="http://www.w3.org/2000/svg">
 <g fill="none" stroke-linecap="round">
  <g transform="translate(0 -308.26772)">
   <path d="m57.6 742.2h948.8" stroke="#969696" stroke-width="1.875"/>
   <g stroke="#000" stroke-dasharray="3.75 7.5" stroke-miterlimit="2" stroke-width=".9375">
    <path d="m58.3 844.1h948.8"/>
    <path d="m58.3 641.8h948.8"/>
    <path d="m58.3 540.6h948.8"/>
   </g>
  </g>
  <g stroke="#000">
   <path d="m434.4 385.1 22.1 46.2" stroke-linejoin="round" stroke-width="5.625"/>
   <path d="m441.6 385 22.1 46.2" stroke-linejoin="round" stroke-width="5.625"/>
   <g stroke-width="5.625001">
    <path d="m434.4 385.1 7.2-.1"/>
    <path d="m438.4 386.4 21 43.9" stroke-linejoin="round"/>
    <path d="m456.5 431.3 7.2-.1"/>
   </g>
   <g stroke-linejoin="round">
    <path d="m395.1 430.9 39.3-45.9" stroke-width="5.625001"/>
    <path d="m463.7 431.2 54.4-67.8c17.9-22.3 34.9-29.6 44.6-26.4 8.8 2.9 12.9 14.2-3.4 42.6l-29.4 51.2" stroke-width="5.625"/>
    <path d="m529.9 430.9c69.4-75.6 82.7-94 100.7-94.3s17.5 29.7 35.8 30 29-18 44.1-36.5c12.5-15.4 21.5-28.7 39.5-29.5s22.5 30.1 33.9 30 13.8-4.7 20.3-10.5" stroke-width="5.625001"/>
    <ellipse cx="518.00983" cy="97.459023" rx="4.609393" ry="6.862875" stroke-width="5.625" transform="matrix(.72846687 .68508103 -.68508103 .72846687 0 0)"/>
   </g>
   <path d="m330.3 485.6h-45.8" stroke-width="5.625002"/>
  </g>
 </g>
</svg>
