<svg height="210mm" viewBox="0 0 1052.4 744.1" width="297mm" xmlns="http://www.w3.org/2000/svg">
 <g fill="none" stroke-linecap="round">
  <g transform="translate(0 -308.26772)">
   <path d="m57.6 742.2h948.8" stroke="#969696" stroke-width="1.875"/>
   <g stroke="#000" stroke-dasharray="3.75 7.5" stroke-miterlimit="2" stroke-width=".9375">
    <path d="m58.3 844.1h948.8"/>
    <path d="m58.3 641.8h948.8"/>
    <path d="m58.3 540.6h948.8"/>
   </g>
  </g>
  <g stroke="#000">
   <path d="m653.8 336.2-38.9 72.5c-7.2 13.4 1.8 23.1 15 23 17.5-.4 34.9-17.3 44.5-26" stroke-linejoin="round" stroke-width="5.625"/>
   <path d="m674.4 405.6c10.9-9.9 21.5-14.6 30.5-17 3-.8 5.9-1 8.6-1 13 .1 20.7 10.2 7.1 27-26.6 32.9-44.6 48.9-38.7 62.2 2.1 4.7 8 6.3 15 6 9.8-.4 24.3-7.6 32.5-19.2" stroke-linejoin="round" stroke-width="5.624999"/>
   <path d="m721 389.3c15.4 7.9 4.2 30.4-12.1 46.3-14 13.6-22.7 25.7-28.7 37.7" stroke-width="5.472633"/>
   <path d="m721.2 390.8c.8-1.1 3.6 6 .5 13.9-3.2 8.2-12.5 19.1-17.8 24.2-10.5 9.9-29.8 28.2-23.7 44.5" stroke-width="5.472633"/>
   <g stroke-width="2.736317">
    <path d="m710.8 389.2c13.9-1.2 10.5 8.5 10.3 13.7"/>
    <path d="m687.5 463.3c-3.2 4.4-7.2 16.1 2.6 17.8"/>
    <path d="m677.7 467.5c-.1 5.5 2.8 11.2 4.7 12.8"/>
   </g>
   <g stroke-linejoin="round">
    <g stroke-width="5.625">
     <path d="m571.2 422c19.3-16.4 58.3-60.2 82.6-85.8"/>
     <path d="m362.3 335.8-56.7 94.9"/>
     <path d="m305.6 430.7c26.2-15.5 71-38.3 91.1-34.5 15.4 2.9 18.2 32.7 34 34.1"/>
     <path d="m378 397.7c8.7-2.3 18 .9 27.2 21.2 6.6 14.3 16.3 11.1 24 11.6"/>
    </g>
    <path d="m391.2 399c7.8 4.9 8.8 2 26.1 28.6" stroke-width="6.587559"/>
    <path d="m429.3 430.5c25.1-.7 68.3-38.2 88.5-34.4 16.3 3 18.5 37 37.1 34.6 4.4-.6 9.7-3.2 16.3-8.7" stroke-width="5.625"/>
   </g>
  </g>
 </g>
</svg>
