<svg height="210mm" viewBox="0 0 1052.4 744.1" width="297mm" xmlns="http://www.w3.org/2000/svg">
 <g fill="none" stroke-linecap="round">
  <g transform="translate(0 -308.26772)">
   <path d="m57.6 742.2h948.8" stroke="#969696" stroke-width="1.875"/>
   <g stroke="#000" stroke-dasharray="3.75 7.5" stroke-miterlimit="2" stroke-width=".9375">
    <path d="m58.3 844.1h948.8"/>
    <path d="m58.3 641.8h948.8"/>
    <path d="m58.3 540.6h948.8"/>
   </g>
  </g>
  <g stroke="#000">
   <g stroke-linejoin="round" stroke-width="5.625">
    <path d="m93.7 397.8 33.9-16-27.4 48.9 54.9-39.6"/>
    <ellipse cx="-117.85616" cy="424.51813" rx="25.728558" ry="20.371416" transform="matrix(.79083574 -.61202846 .61202846 .79083574 0 0)"/>
    <path d="m340.2 260.5c27-42.5 69.5-29.1 41.4 18.5l-90 152.7 68.5-39.6"/>
    <ellipse cx="43.10947" cy="550.79633" rx="25.728558" ry="20.371416" transform="matrix(.79083574 -.61202846 .61202846 .79083574 0 0)"/>
   </g>
   <path d="m393.7 398.2c.3 9.3-.4 14.6-6.3 21.9-3.6 4.5-8.8 8.3-16 11.1" stroke-width="5.624961"/>
   <path d="m390.1 392.9c2 6.9 1.8 6.4.7 11.6-1.6 7.6-6.1 13.5-12.5 18.7-3.2 2.6-6.9 5-10.9 7.3" stroke-width="6.599955"/>
   <path d="m373 424.8c-5.3 3.7-10.3 5.7-16.3 3.5" stroke-width="2.849979"/>
   <path d="m379.3 388.2c7.4 1.6 9 4 10.4 10.8" stroke-width="2.849979"/>
   <g stroke-linejoin="round" stroke-width="5.625">
    <path d="m824 290.2c-32.3 18.8-254.6 133.3-281.3 137.4"/>
    <path d="m556.3 336.8-43 74.1c-12.1 20.8 10.1 23.5 29.4 16.7"/>
    <path d="m824 290.2c15.7-8.8 92.5-55.7 112.6-55.3 21.6.4 21 32.8 38.2 33.5 7.4.3 15.1-6.8 19.3-12.5"/>
    <ellipse cx="586.94617" cy="690.25214" rx="62.130169" ry="44.633743" transform="matrix(.88109295 -.47294313 .47294313 .88109295 0 0)"/>
   </g>
  </g>
 </g>
</svg>
