<svg height="210mm" viewBox="0 0 1052.4 744.1" width="297mm" xmlns="http://www.w3.org/2000/svg">
 <g fill="none" stroke-linecap="round">
  <g transform="translate(0 -308.26772)">
   <path d="m57.6 742.2h948.8" stroke="#969696" stroke-width="1.875"/>
   <g stroke="#000" stroke-dasharray="3.75 7.5" stroke-miterlimit="2" stroke-width=".9375">
    <path d="m58.3 844.1h948.8"/>
    <path d="m58.3 641.8h948.8"/>
    <path d="m58.3 540.6h948.8"/>
   </g>
  </g>
  <g stroke-linejoin="round" stroke-width="5.625">
   <g stroke="#000">
    <path d="m249.6 355.8 13-11.2c21.7-18.7 54.4-6.9 34.6 16.8-28 33.4-47.2 52.6-39.4 63.9 4.4 6.4 13.1 7.1 22.5 4.1 5-1.6 15.4-7 20.2-10.4"/>
    <path d="m298.9 419.9s57.3-31.6 62.6-35.3c6.8-4.7 14.1-9.6 18.8-14.1 11.9-11.4 20.1-20.4 14.5-30.9-3.5-6.7-34.1-6.4-55 33-23.1 43.2-14 58.7-.7 58.8 17.6 1.1 53.3-28.8 76.5-56.7"/>
    <path d="m415.6 374.7c24.9-28.4 45.7-35.9 66.9-38.3 26.4-2.9 39.8 13 31.3 44.2"/>
   </g>
   <path d="m622.1 283.8-55.8 97.2" stroke="#00000c"/>
   <path d="m622.1 283.8h-10.6" stroke="#00000a"/>
   <path d="m616.5 283.8-55.8 97.2" stroke="#00000c"/>
   <path d="m566.3 381.1h-10.6" stroke="#00000c"/>
   <path d="m513.9 380.6 97.6-96.8-55.8 97.2 11-.1" stroke="#000"/>
   <path d="m832 283.7c-43.5 51.4-177.8 72.9-175.1-.3l-90.3 97.6" stroke="#000"/>
  </g>
 </g>
</svg>
