<svg height="210mm" viewBox="0 0 1052.4 744.1" width="297mm" xmlns="http://www.w3.org/2000/svg">
 <g fill="none" stroke-linecap="round">
  <g transform="translate(0 -308.26772)">
   <path d="m57.6 742.2h948.8" stroke="#969696" stroke-width="1.875"/>
   <g stroke="#000" stroke-dasharray="3.75 7.5" stroke-miterlimit="2" stroke-width=".9375">
    <path d="m58.3 844.1h948.8"/>
    <path d="m58.3 641.8h948.8"/>
    <path d="m58.3 540.6h948.8"/>
   </g>
  </g>
  <g stroke="#000" stroke-linejoin="round">
   <path d="m564.3 378.1c-6.3 9.5-16.8 24.4-29.7 39.2" stroke-width="5.624959"/>
   <g stroke-width="5.625">
    <path d="m346.7 335.8-56.7 94.9 95.7-95.5"/>
    <path d="m457.6 396.3c8.9-2.5 17.1-4.3 25.9-2.9 21.1 5.8 9 63.4 51.1 23.9"/>
    <path d="m385.7 335.2c30.1-29 66.8-64.1 101.3-91.5 83-65-28.8 162.3-88.2 186.6-16.3 3.7-17.4-2.3-12.1-8.1 15.8-12 25.7-14.6 70.9-25.9"/>
    <path d="m632.3 384.7c-15.6 10.7-56.6 43.5-69.2 53.5-19 14.9-33 34.6-30.7 42 .9 3 16.3 22.9 59.8-38.1 26.9-36.9 54.6-73.4 69.3-116.4 14.3-27.7 1.1-52.4-34.7-21-1.5 1.4-3.2 2.8-4.8 4.4-8.6 8.7-47.8 55.5-57.9 69"/>
    <path d="m705 335.9-72.7 48.9"/>
    <path d="m705 335.9 18.8 40.2"/>
   </g>
  </g>
 </g>
</svg>
