<svg height="210mm" viewBox="0 0 1052.4 744.1" width="297mm" xmlns="http://www.w3.org/2000/svg">
 <g fill="none" stroke-linecap="round">
  <g transform="translate(0 -308.26772)">
   <path d="m57.6 742.2h948.8" stroke="#969696" stroke-width="1.875"/>
   <g stroke="#000" stroke-dasharray="3.75 7.5" stroke-miterlimit="2" stroke-width=".9375">
    <path d="m58.3 844.1h948.8"/>
    <path d="m58.3 641.8h948.8"/>
    <path d="m58.3 540.6h948.8"/>
   </g>
  </g>
  <g stroke="#000">
   <path d="m469.8 336.1c-44.5 16.9-71.4 95.4-40 95.1 31.5-.1 50.1-32.7 81-80" stroke-linejoin="round" stroke-width="5.625"/>
   <ellipse cx="200.37161" cy="608.88507" rx="25.728559" ry="20.371418" stroke-linejoin="round" stroke-width="5.625" transform="matrix(.79083574 -.61202846 .61202846 .79083574 0 0)"/>
   <path d="m553.6 347.9c.3 9.3-.4 14.6-6.3 21.9-3.1 3.8-7.2 7.1-12.7 9.7" stroke-width="5.624961"/>
   <path d="m550 342.6c5.4 18.3-4.6 29.6-17.3 35.9" stroke-width="6.599955"/>
   <path d="m534.2 375.6c-7.1 4.1-13.9 5.6-20.5.2" stroke-width="2.849979"/>
   <path d="m536.2 337.8c8.3 0 13.2 3.6 13.4 13.9" stroke-width="2.849979"/>
   <path d="m507.3 356.7c29-47.5 72.5-118.5 79-127.8 8.7-12.5 18.2-25.3 30.6-25.8 13.4-.6 16.2 26.6 31.3 26.1 4.8-.1 11.1-3.9 19.6-13.3" stroke-linejoin="round" stroke-width="5.625"/>
  </g>
 </g>
</svg>
