<svg height="210mm" viewBox="0 0 1052.4 744.1" width="297mm" xmlns="http://www.w3.org/2000/svg">
 <g fill="none" stroke-linecap="round">
  <g transform="translate(0 -308.26772)">
   <path d="m57.6 742.2h948.8" stroke="#969696" stroke-width="1.875"/>
   <g stroke="#000" stroke-dasharray="3.75 7.5" stroke-miterlimit="2" stroke-width=".9375">
    <path d="m58.3 844.1h948.8"/>
    <path d="m58.3 641.8h948.8"/>
    <path d="m58.3 540.6h948.8"/>
   </g>
  </g>
  <g stroke="#000" stroke-linejoin="round">
   <g stroke-width="5.625">
    <path d="m309.7 437.9c-33.7 19.3-82.6 88.2-62.1 94.7 11.2 2.5 33.1-7.6 54.5-66.3 15.7-47.2 16.4-112.8 70.4-130.9"/>
    <path d="m563.7 377.9c32-38.4 48.1-65.4 70.3-97.4 14.5-20.9 31.3-47.4 51.2-45.5 10.5 1.2 16.5 8.2 15.8 17-.4 3.7-1.6 8.3-3.7 13.7-9.9 21.8-20.9 42.9-33.1 64.9"/>
    <path d="m664.2 330.6c25-11.8 60.2-31.5 77.8-32.4 16.8-.7 22.7 32.6 34.2 32.2 7.5-.2 13.1-6.2 18.3-10.8"/>
    <path d="m272.3 336.2s-31.6 58.9-37.3 73.4c-5.8 14.7.3 21.7 12.2 21.4 8.3 0 16.2-3 24.6-8.6 18.5-12.3 59.2-60.1 77.9-74.4"/>
   </g>
   <g stroke-width="5.624999">
    <path d="m610.3 282.5-46.6 95.4"/>
    <path d="m610.3 282.5h-8.2"/>
    <path d="m606.4 283.3-45.7 93.9"/>
    <path d="m563.7 377.9h-8.2"/>
    <path d="m602 282.5-46.6 95.4"/>
   </g>
   <path d="m309.7 437.9 292.3-155.4" stroke-width="5.625"/>
  </g>
 </g>
</svg>
