<svg height="210mm" viewBox="0 0 1052.4 744.1" width="297mm" xmlns="http://www.w3.org/2000/svg">
 <g fill="none" stroke-linecap="round">
  <g transform="translate(0 -308.26772)">
   <path d="m57.6 742.2h948.8" stroke="#969696" stroke-width="1.875"/>
   <g stroke="#000" stroke-dasharray="3.75 7.5" stroke-miterlimit="2" stroke-width=".9375">
    <path d="m58.3 844.1h948.8"/>
    <path d="m58.3 641.8h948.8"/>
    <path d="m58.3 540.6h948.8"/>
   </g>
  </g>
  <g stroke="#000" stroke-linejoin="round" stroke-width="5.625">
   <path d="m667.8 327.8 32.3-45.7 22.7 49.3"/>
   <path d="m722.9 331s44.4-23.9 67.2-24.7c22.8-.9 17.8 52 56.1 10.7"/>
   <path d="m530.4 391.5c43.9-30.1 103.4-63.9 109-68.3 14.3-11.3 26.8-27.1 25.8-32.5-3.1-16.6-29.3-4.3-53.1 35-42.2 69.1 3.7 57.4 23.6 38.4 7.2-5 18.8-18.7 32.1-36.3"/>
   <path d="m240.1 431.8c53.3-14.1 157.2-42.5 210.7-45.1 22.2.1 32.9 16.2 25.1 44.9"/>
   <ellipse cx="176.99571" cy="654.56519" rx="25.728558" ry="20.371416" transform="matrix(.79083574 -.61202846 .61202846 .79083574 0 0)"/>
   <path d="m525.8 395-49.9 36.6"/>
  </g>
 </g>
</svg>
