<svg height="210mm" viewBox="0 0 1052.4 744.1" width="297mm" xmlns="http://www.w3.org/2000/svg">
 <g fill="none" stroke-linecap="round">
  <g transform="translate(0 -308.26772)">
   <path d="m57.6 742.2h948.8" stroke="#969696" stroke-width="1.875"/>
   <g stroke="#000" stroke-dasharray="3.75 7.5" stroke-miterlimit="2" stroke-width=".9375">
    <path d="m58.3 844.1h948.8"/>
    <path d="m58.3 641.8h948.8"/>
    <path d="m58.3 540.6h948.8"/>
   </g>
  </g>
  <g stroke="#000" stroke-width="5.625">
   <g stroke-linejoin="round">
    <path d="m433.7 389.7c-1.2.5-12.3 7.6-19.6 13.3-12.7 10.1-29.4 23.6-31.5 24.8-3 1.7-18.8 15.6-18.8 15.6-34.9 27.8-66.5 73.3-60.4 87.5 5.7 13.2 69.5-28.4 95.8-138.9 17.5-80 53.4-142.9 90.7-155.8"/>
    <path d="m433.7 389.7c18.4-11.9 41.6 1.1 19.8 28.1-27.4 33.8-122 152-101.9 163.9 25.4 15 69.5-71.3 74.6-80.8 0 0 14.9-33 7.3-41.2-12.8-13.7-38.3-1.1-40.8 9.8-3.1 13.6 8.5 15.3 22.5 11.2 8.2-2.4 17.2-6.8 24.4-11.9 6.6-4.7 81.3-95.9 81.3-95.9"/>
    <ellipse cx="309.54144" cy="757.66626" rx="25.728558" ry="20.371416" transform="matrix(.79083574 -.61202846 .61202846 .79083574 0 0)"/>
   </g>
   <path d="m731.7 359.4-32.6 32.1"/>
   <g stroke-linejoin="round">
    <path d="m574.8 410.3 135.5-22.8"/>
    <path d="m574.8 410.3c-7.4 1.3-61 6.8-59 16.2.1 3 3.3 4.9 5.6 4.9 3 0 11-4.3 12.4-5.2 35.2-22.1 69.5-129.8 7.1-74.3-2.3 2.1-17.4 18.4-20 20.9"/>
   </g>
  </g>
 </g>
</svg>
