<svg height="210mm" viewBox="0 0 1052.4 744.1" width="297mm" xmlns="http://www.w3.org/2000/svg">
 <g fill="none" stroke-linecap="round">
  <g transform="translate(0 -308.26772)">
   <path d="m57.6 742.2h948.8" stroke="#969696" stroke-width="1.875"/>
   <g stroke="#000" stroke-dasharray="3.75 7.5" stroke-miterlimit="2" stroke-width=".9375">
    <path d="m58.3 844.1h948.8"/>
    <path d="m58.3 641.8h948.8"/>
    <path d="m58.3 540.6h948.8"/>
   </g>
  </g>
  <g stroke="#000" stroke-linejoin="round" stroke-width="5.625">
   <ellipse cx="70.556969" cy="491.50873" rx="28.378248" ry="22.469395" transform="matrix(.89236516 -.45131411 .45131411 .89236516 0 0)"/>
   <path d="m267.8 391.1c19.1-14.7 74.9-53.7 99-54.8 24-.8 26.3 32.2 50.8 41.3 9.5 3.5 20.6 2 31.8-.9"/>
   <ellipse cx="237.00195" cy="519.49622" rx="25.164034" ry="19.924437" transform="matrix(.89236516 -.45131411 .45131411 .89236516 0 0)"/>
   <path d="m462.3 369.3c12.9-13.7 117.3-134.3 117.3-134.3"/>
   <path d="m579.6 235-50.2 96.2"/>
   <path d="m529.4 331.2 167.6-186.5"/>
   <path d="m697.1 197.5c6.1-43.4 47.3-111.5 85.4-122.5-10.2-3.4-49 32.3-85.5 69.7"/>
   <path d="m640.3 278.2c1.7.9 3.5 1.3 4.2 1.3 13.3.2 47.4-44.7 52.6-82"/>
  </g>
 </g>
</svg>
