<svg height="210mm" viewBox="0 0 1052.4 744.1" width="297mm" xmlns="http://www.w3.org/2000/svg">
 <g fill="none" stroke-linecap="round">
  <g transform="translate(0 -308.26772)">
   <path d="m57.6 742.2h948.8" stroke="#969696" stroke-width="1.875"/>
   <g stroke="#000" stroke-dasharray="3.75 7.5" stroke-miterlimit="2" stroke-width=".9375">
    <path d="m58.3 844.1h948.8"/>
    <path d="m58.3 641.8h948.8"/>
    <path d="m58.3 540.6h948.8"/>
   </g>
  </g>
  <g stroke="#000" stroke-linejoin="round">
   <path d="m717.6 325.1c-30.6 52.8-41.2 80.1-39.9 94 .6 5.9 3.3 8.9 7.5 9.4 8.6 1.1 48.5 6.5 78-5.2" stroke-width="5.625"/>
   <path d="m741.7 408.5c1.2.1 2.2.4 3.1.8.3.1.5.3.8.5 1.5 1.2 2 3.1 1.2 6.3-1.6 6.2-8.6 9.7-11.9 11-6.9 2.5-12-3.2-8-9.3 2.5-3.8 6.7-8 11.7-9.1.3-.1.7-.1 1-.2.4 0 .8-.1 1.3-.1 1 0 2 .1 3 .4" stroke-width="5.625"/>
   <path d="m739.3 414c.6.1 1.1.2 1.5.4.1.1.3.1.4.2.7.5 1 1.5.6 3-.8 2.9-4.1 4.6-5.6 5.2-3.3 1.2-5.7-1.5-3.8-4.4 1.2-1.8 3.2-3.8 5.6-4.3.2 0 .3-.1.5-.1h.6c.5 0 .9.1 1.4.2" stroke-width="10.3125"/>
   <path d="m770.9 410.4c.8.1 1.5.2 2 .5.2.1.4.2.5.3 1 .8 1.3 2.1.8 4.2-1.1 4.1-5.7 6.4-7.9 7.3-4.6 1.6-7.9-2.1-5.3-6.1 1.6-2.5 4.4-5.3 7.8-6 .2 0 .5-.1.7-.1h.8c.6 0 1.3.1 2 .3" stroke-width="4.6875"/>
   <g stroke-width="5.625">
    <path d="m777.7 296.1c20-22.6 31.3-48 27.7-57.3-5.5-14.4-40.6 8.4-87.8 86.3"/>
    <path d="m599.4 414.9s123.9-62.4 178.4-118.8"/>
    <path d="m641.6 431.9c11.2-27.4-9.2-38.1-20.9-44.2-32.6-16.9-29.7-38.2-22.8-51.3"/>
    <path d="m340.8 336.5c-13.9 25.5-28.8 50.5-43.4 75.7-11.9 20.5 10 23.2 29 16.4 3.5-.9 8.3-3.2 14.4-6.7"/>
    <path d="m340.8 421.9c12.9-7.6 41.5-24.9 55.9-23.6 19.5 3.6 18.2 52.4 51.8 24.4"/>
    <path d="m376 403.3c6.1-2.7 21.1-3 30.1 16.6 6.4 13.9 15.8 10.7 23.3 11.2"/>
   </g>
   <path d="m392.6 400.7c7.6 6.7 7.2.5 24 26.2" stroke-width="6.380773"/>
   <g stroke-width="5.625">
    <path d="m448.5 422.7c20.3-19.4 42.4-31.6 59-32.1 19.7-.6 31.1 15.4 23.6 41.1"/>
    <path d="m597.9 336.4-66.7 95.4"/>
   </g>
  </g>
 </g>
</svg>
