<svg height="210mm" viewBox="0 0 1052.4 744.1" width="297mm" xmlns="http://www.w3.org/2000/svg">
 <g fill="none" stroke-linecap="round">
  <g transform="translate(0 -308.26772)">
   <path d="m57.6 742.2h948.8" stroke="#969696" stroke-width="1.875"/>
   <g stroke="#000" stroke-dasharray="3.75 7.5" stroke-miterlimit="2" stroke-width=".9375">
    <path d="m58.3 844.1h948.8"/>
    <path d="m58.3 641.8h948.8"/>
    <path d="m58.3 540.6h948.8"/>
   </g>
  </g>
  <g stroke-linejoin="round" stroke-width="5.625">
   <g stroke="#000">
    <path d="m567.3 482.7c16.8-.5 33-21.3 35-47.2 2.1-26.8 36.3-48.7 36.3-48.7s-230 44.4-239.4 44.4"/>
    <path d="m622.1 400.1c-18.7 24.9-13 30.7-16.8 42.9-3.5 11.7-12.1 25.9-24.2 34.7"/>
    <path d="m618.5 405c-7.6 7.8-16.1 18.3-20.2 32.6-4.1 14.4-5.5 33.4-22.5 43.1"/>
    <path d="m406.1 336.1-32.7 68.7c-7.8 20.6 11 27.9 25.7 26.4"/>
    <path d="m405.8 418c.8.1 1.4.2 1.9.5.2.1.3.2.5.3.9.7 1.3 2 .8 4-1 3.9-5.4 6.1-7.5 6.9-4.3 1.6-7.6-2-5.1-5.9 1.6-2.4 4.2-5.1 7.4-5.7.2 0 .4-.1.7-.1s.5-.1.8-.1c.6 0 1.2.1 1.9.3"/>
   </g>
   <path d="m567.3 482.7c10.9-4.3 43-11.1 48.4-11.7 11.5-1.3 25.7.6 23.2 8.1-.1.2 0 .4 0 .7-.2 1.4-1 2.6-2.6 3.5-3.2 1.8-7-.2-8.3-1.7-3.2-1 .7-12 1.5-10.5 1.4 2.6 0 0 8.3 4 .2.1.2.4.3.5.1.2.3.7.4 1 .2.6.3 1 .4 1.7" stroke="#00001f"/>
   <path d="m701.2 381.7a5.5 1.8 0 0 1 -5.5 1.8 5.5 1.8 0 0 1 -5.5-1.8 5.5 1.8 0 0 1 5.4-1.8 5.5 1.8 0 0 1 5.5 1.8h-5.5z" stroke="#000" transform="matrix(.98949002 .14460116 -.14460116 .98949002 0 0)"/>
  </g>
 </g>
</svg>
