<svg height="210mm" viewBox="0 0 1052.4 744.1" width="297mm" xmlns="http://www.w3.org/2000/svg">
 <g fill="none" stroke-linecap="round">
  <g transform="translate(0 -308.26772)">
   <path d="m57.6 742.2h948.8" stroke="#969696" stroke-width="1.875"/>
   <g stroke="#000" stroke-dasharray="3.75 7.5" stroke-miterlimit="2" stroke-width=".9375">
    <path d="m58.3 844.1h948.8"/>
    <path d="m58.3 641.8h948.8"/>
    <path d="m58.3 540.6h948.8"/>
   </g>
  </g>
  <g stroke="#000" stroke-linejoin="round" stroke-width="5.625">
   <path d="m328.4 337.3c-40.3 12.4-78.1 79.1-59.9 92.3 9.3 2.5 17 1.7 24.7.1 13-2.7 333.6-194.2 333.6-194.2"/>
   <path d="m626.9 235.5 18.8 40.2"/>
   <path d="m612 360.5c9.3-12.6 18-18.1 26.2-21.7 24.8-6.9 35 2.5 12.3 40.5l-29.8 52.1"/>
   <path d="m620.6 431.4 58.2-59"/>
   <path d="m721.7 408.9c-16.4 3-61.1 20.5-43.6 23 3 .3 9.9-5.8 11.3-6.6 48.9-28 71.8-129.3 9.4-73.8-2.3 2.1-17.4 18.4-20 20.9"/>
   <path d="m721.7 408.9c13.3-3.1 27.6-7.6 33.2-7.7 17.5-.5 15.5 47.6 45.2 22.9"/>
   <path d="m477.1 489.8c-3.7 5.6-5.7 12.5-6.2 17.7-.7 7.4 1.5 13.5 3.8 16.3 2.8 3.4 5.2 9.1 19 9.1 7 0 16.8-6.2 22.9-15.7 17.5-22.5 86.2-144.5 95.5-156.6"/>
  </g>
 </g>
</svg>
