<svg height="210mm" viewBox="0 0 1052.4 744.1" width="297mm" xmlns="http://www.w3.org/2000/svg">
 <g fill="none" stroke-linecap="round">
  <g transform="translate(0 -308.26772)">
   <path d="m57.6 742.2h948.8" stroke="#969696" stroke-width="1.875"/>
   <g stroke="#000" stroke-dasharray="3.75 7.5" stroke-miterlimit="2" stroke-width=".9375">
    <path d="m58.3 844.1h948.8"/>
    <path d="m58.3 641.8h948.8"/>
    <path d="m58.3 540.6h948.8"/>
   </g>
  </g>
  <g stroke="#000" stroke-linejoin="round">
   <ellipse cx="159.6514" cy="703.93066" rx="25.728558" ry="20.371418" stroke-width="5.625" transform="matrix(.79083574 -.61202846 .61202846 .79083574 0 0)"/>
   <path d="m449.4 483.4c-4.1 1.5-7-2.5-2.9-5 17-10.2 107.3-40.5 107.3-40.5" stroke-width="5.624999"/>
   <g stroke-width="5.625">
    <path d="m416.2 333c54.3-11 97.7-78.3 91.4-95-5.5-14.4-40.3 8.9-87.4 86.8-44.1 76.2-43.7 105.5-28 106.4 18.2.9 42.3-22.2 64.8-50.6 21.6-27.1 40.5-50 58.7-68.9 19-19.7 44.2-36.1 52.6-16.2 7.2 15.3-6.2 50.9-28.6 90.5-26.3 44.8-62.9 88.9-90.3 97.3"/>
    <path d="m628.9 484.1c9.3-.3 17.8-6.8 24.2-17 5.2-8.2 6.5-19.5 10.8-30.3 2.7-6.8 7.3-21.5 14.6-29.8 10.1-11.5 21.7-18.9 21.7-18.9"/>
    <path d="m639.5 336.5-38.4 72.5c-8.2 15.6 5 26.1 21.5 22.2 10.1-2.1 46.3-23.3 76-41.9"/>
    <path d="m689.3 396.4c-14.4 12.2-18.6 35.8-22.4 47.9-3.5 11.7-12.1 25.9-24.2 34.7"/>
    <path d="m681.8 403.6c-7.6 7.8-17.8 21.1-21.8 35.4-4.1 14.4-4.3 33.3-22.5 43.1"/>
   </g>
   <path d="m545 442.1 94.5-105.6" stroke-width="5.624999"/>
  </g>
 </g>
</svg>
