<svg height="210mm" viewBox="0 0 1052.4 744.1" width="297mm" xmlns="http://www.w3.org/2000/svg">
 <g fill="none" stroke-linecap="round">
  <g transform="translate(0 -308.26772)">
   <path d="m57.6 742.2h948.8" stroke="#969696" stroke-width="1.875"/>
   <g stroke="#000" stroke-dasharray="3.75 7.5" stroke-miterlimit="2" stroke-width=".9375">
    <path d="m58.3 844.1h948.8"/>
    <path d="m58.3 641.8h948.8"/>
    <path d="m58.3 540.6h948.8"/>
   </g>
  </g>
  <g stroke="#000">
   <g stroke-width="5.625">
    <path d="m790 246.3c-110.5 52.2-188.2 38.6-188.7-11.9" stroke-linejoin="round"/>
    <ellipse cx="740.26807" cy="-365.37485" rx="4.609393" ry="6.862874" stroke-linejoin="round" transform="matrix(.72846687 .68508103 -.68508103 .72846687 0 0)"/>
    <path d="m601.4 234.4-107.1 196.9"/>
    <path d="m369.3 431.8c37.6-29.2 72-43.8 92.5-45.7 24.7-2.3 32 16.4 32.4 45.3" stroke-linejoin="round"/>
   </g>
   <path d="m480.9 392.6c7.1 5.9 11.1 26.2 8.7 38" stroke-linejoin="round" stroke-width="6.5625"/>
   <path d="m460.4 386.5c6.1-.7 10.6-.8 14.5 1.8 7.3 4.8 11.4 17.4 11.8 43.3" stroke-linejoin="round" stroke-width="5.15625"/>
   <g stroke-width="5.625">
    <path d="m486.6 431.5 7.6-.2"/>
    <path d="m421.6 335.7-52.3 96.1"/>
   </g>
  </g>
 </g>
</svg>
