<svg height="210mm" viewBox="0 0 1052.4 744.1" width="297mm" xmlns="http://www.w3.org/2000/svg">
 <g fill="none" stroke-linecap="round">
  <g transform="translate(0 -308.26772)">
   <path d="m57.6 742.2h948.8" stroke="#969696" stroke-width="1.875"/>
   <g stroke="#000" stroke-dasharray="3.75 7.5" stroke-miterlimit="2" stroke-width=".9375">
    <path d="m58.3 844.1h948.8"/>
    <path d="m58.3 641.8h948.8"/>
    <path d="m58.3 540.6h948.8"/>
   </g>
  </g>
  <g stroke="#000" stroke-linejoin="round">
   <path d="m608.6 431.8c75.6-64.2 131.2-57.8 114.4-.8" stroke-width="5.625"/>
   <path d="m714.9 392.6c7.1 5.9 8.1 27.1 3.2 37.8" stroke-width="6.5625"/>
   <path d="m702.3 386.3c16.4 3.3 16.8 35.2 10.1 45.2" stroke-width="4.6875"/>
  </g>
  <g stroke-width="5.625">
   <path d="m712.4 431.6 10.7-.5" stroke="#000"/>
   <g stroke-linejoin="round">
    <path d="m577.2 430.9 31.5 1" stroke="#000"/>
    <path d="m583.1 415.2c1 .1 1.8.3 2.5.7.2.1.4.2.6.4 1.2.9 1.7 2.6 1 5.2-1.3 5.1-7.1 8-9.8 9-5.7 2-9.8-2.6-6.6-7.6 2-3.1 5.5-6.6 9.7-7.5.3-.1.6-.1.9-.1s.7-.1 1-.1c.8 0 1.6.1 2.4.3" stroke="#030002"/>
    <g stroke="#000">
     <path d="m475.1 431s51.4 1 55.8-.7"/>
     <path d="m322.9 431.3s13.3-34.2 38.8-34.1c23.1.1 22.1 57.2 50.3 22.7l23-28.3"/>
     <path d="m434.9 391.7c15.4-18.9 37.2-43.8 59.2-53.4 19.6-8.3 35 2.5 12.3 40.5l-31.2 52.3"/>
     <path d="m516.5 344.6-49.2 86.2"/>
     <path d="m516.7 350.8-45.6 79.9"/>
     <path d="m467.2 430.8 7.9.2"/>
    </g>
   </g>
  </g>
  <path d="m512.5 338.4c1.8 1.7 2.3 5.7.7 9.9" stroke="#000" stroke-width="3.75"/>
  <g stroke-linejoin="round" stroke-width="5.625">
   <path d="m537.5 414.7c1 .1 1.8.3 2.5.7.2.1.4.2.6.4 1.2.9 1.7 2.6 1 5.2-1.3 5.1-7.1 8-9.8 9-5.7 2-9.8-2.6-6.6-7.6 2-3.1 5.5-6.6 9.7-7.5.3-.1.6-.1.9-.1s.7-.1 1-.1c.8 0 1.6.1 2.4.3" stroke="#030002"/>
   <path d="m528.6 430.3c9.2 2.8 36.5 3.3 49.3.3" stroke="#000"/>
  </g>
 </g>
</svg>
