<svg height="210mm" viewBox="0 0 1052.4 744.1" width="297mm" xmlns="http://www.w3.org/2000/svg">
 <g fill="none" stroke-linecap="round">
  <g transform="translate(0 -308.26772)">
   <path d="m57.6 742.2h948.8" stroke="#969696" stroke-width="1.875"/>
   <g stroke="#000" stroke-dasharray="3.75 7.5" stroke-miterlimit="2" stroke-width=".9375">
    <path d="m58.3 844.1h948.8"/>
    <path d="m58.3 641.8h948.8"/>
    <path d="m58.3 540.6h948.8"/>
   </g>
  </g>
  <path d="m634.6 234.2-113.1 196.6" stroke="#000" stroke-width="5.625"/>
  <g stroke-linejoin="round">
   <g stroke-width="5.625">
    <g stroke="#000">
     <path d="m521.5 430.8s44.6-32.4 61.8-29.2c13.6 2.5 15.7 29.8 30.5 29.1 4-.2 36.8 3.1 43.1-2.1"/>
     <path d="m565 405.6c5.4-2.4 18.6-2.2 26.5 15 5.6 12.2 13.9 9.5 20.5 9.9"/>
     <path d="m579.6 403.7c6.7 5.9 6.3.5 21.2 23.1"/>
     <ellipse cx="264.91092" cy="721.55054" rx="25.728558" ry="20.371416" transform="matrix(.79083574 -.61202846 .61202846 .79083574 0 0)"/>
     <path d="m814.1 246.5c-66.8 47.2-131.3 161.8-143.7 171.3"/>
     <path d="m842.4 399.9c-16 5-99.9 25.6-107.2 28.5-66.7 26.7 27.4-127.5 70.7-174 8.3-8.9 19.3-17.3 31.4-20.8"/>
     <path d="m842.4 399.9 63.2-16.8 21 49.3"/>
    </g>
    <path d="m926.6 432.5 108.2-96-43.8 95.4" stroke="#0a0000"/>
    <path d="m103.5 416.8c-7.5 4.9-15 9.4-22.4 11.6-7.4 2.3-14.5 4.3-21.2 3.3-33.2-5.1 46.4-141.4 87.4-184.9 4.7-5 11.2-10.7 18.9-11.9" stroke="#02000c"/>
   </g>
   <g stroke="#000">
    <path d="m156.3 401.3c11.6-7.8 156.7-60 180.5-65.4 3.2-.6 6.4-.8 9.6-.6 16.3 1.2 16.3 38.7 37 38.3 7.2-.2 12.8-5.8 18.3-11.1" stroke-width="5.318918"/>
    <path d="m401.7 362.5c14.1-13.4 40.1-28.3 55.9-27.1 20.5 1.5 15.8 66 57.3 24.8" stroke-width="5.318918"/>
    <g stroke-width="5.625">
     <ellipse cx="-122.46406" cy="428.91428" rx="19.945965" ry="15.792861" transform="matrix(.79083574 -.61202846 .61202846 .79083574 0 0)"/>
     <path d="m103.5 416.8 49-37.2 24.3 18.5"/>
    </g>
   </g>
  </g>
  <path d="m515 360.2c8.3-6.4 119.6-126 119.6-126" stroke="#000" stroke-width="5.625"/>
 </g>
</svg>
