<svg height="210mm" viewBox="0 0 1052.4 744.1" width="297mm" xmlns="http://www.w3.org/2000/svg">
 <g fill="none" stroke-linecap="round">
  <g transform="translate(0 -308.26772)">
   <path d="m57.6 742.2h948.8" stroke="#969696" stroke-width="1.875"/>
   <g stroke="#000" stroke-dasharray="3.75 7.5" stroke-miterlimit="2" stroke-width=".9375">
    <path d="m58.3 844.1h948.8"/>
    <path d="m58.3 641.8h948.8"/>
    <path d="m58.3 540.6h948.8"/>
   </g>
  </g>
  <g stroke-linejoin="round">
   <g stroke="#000" stroke-width="5.625">
    <path d="m290.7 413.4 30-26.3-56.7 94.9 46.4-25.5"/>
    <path d="m310.4 456.5 40.7-21.9 19.1 48.4"/>
    <path d="m217.9 358.3c15.9-32 75.6-30.6 48.2 3.3-27.4 33.8-47.2 52.6-39.4 63.9 9 13.2 37.6 9.7 64-12.1"/>
    <path d="m370.3 483 97.7-77.3"/>
    <path d="m467.9 405.7c44.2-33.8 86.7-69.2 111.4-98.7 19.8-21.8 49.7-68.6 23.5-71.9-15.7-1.2-25.4 5.7-39.3 28.6-31.2 53.5-119.6 214.8-150.2 269.5"/>
    <path d="m689 430.9c5.8-3.7 12.8-11.7 7.1-19-2.8-3.6-4.4-5-13-4.9l-107.7.6c-7.4 0-15.4-.2-17.4-.8-9.6-2.9-8.5-13.1.2-25.1"/>
    <path d="m715.6 431.1 12.9-4.6"/>
   </g>
   <g stroke="#010000">
    <path d="m796.5 387.1-47.8 86.7" stroke-width="6.5625"/>
    <path d="m728.5 426.4 58.8-39.7-39 72.4c-8.4 15.5 5 26.1 21.5 22.2 2.8-.6 11.9-3.3 19.9-11.9" stroke-width="5.625"/>
    <path d="m791.9 387.1-44.7 81.9" stroke-width="6.5625"/>
   </g>
  </g>
  <path d="m753.7 467.7c-1.6 4.1-2.6 6.5.8 11.9" stroke="#010000" stroke-width="3.75"/>
  <g stroke-linejoin="round">
   <path d="m796.5 387.1-9.3-.4" stroke="#000" stroke-width="6.5625"/>
   <g stroke-width="5.625">
    <path d="m719.8 416.1c1 .1 1.8.3 2.5.7.2.1.4.2.6.4 1.2.9 1.7 2.6 1 5.2-1.3 5.1-7.1 8-9.8 9-5.7 2-9.8-2.6-6.6-7.6 2-3.1 5.5-6.6 9.7-7.5.3-.1.6-.1.9-.1s.7-.1 1-.1c.8 0 1.6.1 2.4.3" stroke="#000"/>
    <path d="m709.7 431.5-20.7-.6" stroke="#010000"/>
    <ellipse cx="15.726394" cy="645.31213" rx="25.728558" ry="20.371416" stroke="#000" transform="matrix(.79083574 -.61202846 .61202846 .79083574 0 0)"/>
   </g>
  </g>
 </g>
</svg>
