<svg height="210mm" viewBox="0 0 1052.4 744.1" width="297mm" xmlns="http://www.w3.org/2000/svg">
 <g fill="none" stroke-linecap="round">
  <g transform="translate(0 -308.26772)">
   <path d="m57.6 742.2h948.8" stroke="#969696" stroke-width="1.875"/>
   <g stroke="#000" stroke-dasharray="3.75 7.5" stroke-miterlimit="2" stroke-width=".9375">
    <path d="m58.3 844.1h948.8"/>
    <path d="m58.3 641.8h948.8"/>
    <path d="m58.3 540.6h948.8"/>
   </g>
  </g>
  <g stroke="#000" stroke-linejoin="round">
   <path d="m454.9 235.2c-9 24.1-38.3 79.3-56 107.7-24.8 39-64.2 79.9-90.4 88.2-1.2.4-5.8-.3-6.6-5.4-.6-3.7 5.9-10.1 17.8-13.8" stroke-width="5.625"/>
   <path d="m621.9 336.2c-30.7 2.4-302.3 75.7-302.3 75.7" stroke-width="5.419139"/>
   <g stroke-width="5.625">
    <path d="m594.8 430.7s50.7-25.1 68.2-25.8c23.5-1.5 14.5 26.7 30.6 26 7.9-.4 13.2-6.1 17.3-10.7"/>
    <path d="m621.9 336.2c15.2-2.2 23.6 10.4 4.1 42.9l-31.1 51.6"/>
   </g>
  </g>
 </g>
</svg>
