<svg height="210mm" viewBox="0 0 1052.4 744.1" width="297mm" xmlns="http://www.w3.org/2000/svg">
 <g fill="none" stroke-linecap="round">
  <g transform="translate(0 -308.26772)">
   <path d="m57.6 742.2h948.8" stroke="#969696" stroke-width="1.875"/>
   <g stroke="#000" stroke-dasharray="3.75 7.5" stroke-miterlimit="2" stroke-width=".9375">
    <path d="m58.3 844.1h948.8"/>
    <path d="m58.3 641.8h948.8"/>
    <path d="m58.3 540.6h948.8"/>
   </g>
  </g>
  <g stroke="#000">
   <g stroke-linejoin="round">
    <path d="m236.9 432.1 60.6-108.1c26.4-48.6 52-72.9 91.2-88.5" stroke-width="5.625"/>
    <path d="m236.9 432.1c75.2-63.8 130.8-57.2 115.5-1l83.4-91.9-50.8 92.8 58.5-52.9" stroke-width="5.625"/>
    <path d="m343.1 392.9c7.1 5.9 8.1 27.1 3.2 37.8" stroke-width="6.5625"/>
    <path d="m330.5 386.6c16.4 3.3 16.8 35.2 10.1 45.2" stroke-width="4.6875"/>
   </g>
   <g stroke-width="5.625">
    <path d="m341.3 431.8 9.8.1"/>
    <g stroke-linejoin="round">
     <path d="m538.1 334.5c-.4.4-3.3 3.1-3.8 3.6-15.4 14.4-67 60.9-80.1 74-25.9 26.2-49.1 51.4-45.7 63.4 1.8 6.4 22.5 22.8 62-40.9l83.3-151.7-110.4 96.1"/>
     <path d="m539.3 333.6 55.4-50.9 24 48"/>
     <path d="m618.8 330.3c12.1-4.7 61.8-40.6 84.6-41.4 22.8-.9 17.2 72.1 59.5 27.4"/>
    </g>
   </g>
  </g>
 </g>
</svg>
