<svg height="210mm" viewBox="0 0 1052.4 744.1" width="297mm" xmlns="http://www.w3.org/2000/svg">
 <g fill="none" stroke-linecap="round">
  <g transform="translate(0 -308.26772)">
   <path d="m57.6 742.2h948.8" stroke="#969696" stroke-width="1.875"/>
   <g stroke="#000" stroke-dasharray="3.75 7.5" stroke-miterlimit="2" stroke-width=".9375">
    <path d="m58.3 844.1h948.8"/>
    <path d="m58.3 641.8h948.8"/>
    <path d="m58.3 540.6h948.8"/>
   </g>
  </g>
  <g stroke-linejoin="round" stroke-width="5.625">
   <path d="m571.3 419.4 179.2-225.2c11.2-10 20.1-9.6 25.5-8.3 19.1 4.5 11.2 19.6-4.7 41-15 20.3-24.5 36.8-43.1 61.9-26.3 35.4-55 68-47.8 86.2 3.6 7 9.2 8.8 15.7 9.2 3.5.3 10.1-1 16.9-4.5" stroke="#000"/>
   <ellipse cx="187.66335" cy="663.43732" rx="23.308517" ry="18.455271" stroke="#000" transform="matrix(.79083574 -.61202846 .61202846 .79083574 0 0)"/>
   <path d="m713 379.7c10.2-5.8 20.2-9 25.5-10.4 11.2-3 25.5-3.1 24.1 4.7 0 .2.1.4.1.7 0 1.4-.6 2.7-2.1 3.8-2.9 2.2-6.9.8-8.5-.4-3.3-.5-1-11.9 0-10.6 1.7 2.4 0 0 8.8 2.8.2.1.3.3.4.5.2.2.4.7.6.9.3.5.4.9.7 1.6" stroke="#00001f"/>
   <g stroke="#000">
    <path d="m762.4 374a5.5 1.8 0 0 1 -5.5 1.8 5.5 1.8 0 0 1 -5.5-1.8 5.5 1.8 0 0 1 5.4-1.8 5.5 1.8 0 0 1 5.5 1.8h-5.5z"/>
    <path d="m241.3 430.3 161.7-76.5c94.4-44.7 144.1-92.7 123-118.2-9.8-11.9-40.2 9-87.4 87.7-60.3 105.2-36 119.7-1.8 99.4 2.3-1.4 13.4-8.2 26-15.9"/>
    <path d="m462.8 406.7c12.2-6.8 24.9-17.8 39.1-15.6 16.2 4.5 10.3 33 25.2 39.2 6.6 2.8 23.8.3 23.8.3"/>
   </g>
  </g>
 </g>
</svg>
