<svg height="210mm" viewBox="0 0 1052.4 744.1" width="297mm" xmlns="http://www.w3.org/2000/svg">
 <g fill="none" stroke="#000" stroke-linecap="round">
  <g transform="translate(0 -308.26772)">
   <path d="m57.6 742.2h948.8" stroke-width="1.875"/>
   <g stroke-dasharray="3.75 7.5" stroke-miterlimit="2" stroke-width=".9375">
    <path d="m58.3 844.1h948.8"/>
    <path d="m58.3 641.8h948.8"/>
    <path d="m58.3 540.6h948.8"/>
   </g>
  </g>
  <g stroke-linejoin="round" stroke-width="5.625">
   <path d="m160.1 418.4c.6.1 1.1.2 1.6.4.1.1.3.2.4.2.8.6 1 1.6.6 3.2-.8 3.1-4.4 4.9-6 5.5-3.5 1.3-6.1-1.6-4.1-4.7 1.2-1.9 3.4-4.1 5.9-4.6.2 0 .3-.1.5-.1h.6c.5 0 1 .1 1.5.2"/>
   <path d="m156.1 428.1c13.1 10 32.4-14.9 41.5-26.6"/>
   <path d="m197.6 401.5c18.4-24.1 59.2-34.1 73.2 29.9 7.7 35.3 17.7 47 36.7 47 14.4 0 42.1-7.6 65.7-26.3"/>
   <path d="m373.2 452.1c10.2-8.9 21.2-16.3 34.2-16.8 24.5-.6 24.5 42.7 51.7 42.6 29.5-.1 95.1-70.4 166.4-141.6"/>
   <path d="m551.2 433.1c3.5-1.3 6.9-2 10.1-3.8 2.2-1.2 4.3-2.5 6.3-4 13.5-9.6 24.3-23.7 34.5-39.1l23.4-50"/>
   <path d="m717.3 343.9c-15.4 14.4-103 107.3-116.1 120.4-25.9 26.2-49.1 51.4-45.7 63.4 1.8 6.4 22.5 22.8 62-40.9l83.3-151.7s-167.8 97.3-149.7 97.9"/>
   <path d="m862 482.2c40.2-28.5 44.2-50.3 45.6-67.2 2.7-33.5-85.1-27.2-60.9-79.8"/>
   <path d="m717.3 343.9c15-15.4 29.2-30.7 43.5-43.8 13.8-12.6 22.4-11.8 28.1-.5 6.5 12.7 4 18.2 12.3 27.2 15.9 17.3 43.8-27.8 34.5-34.3-6.3-4.4-25.9 3.2-49.4 42-24.7 40.4-22.9 53.9-11.3 53.6 24-2.8 55.2-33.3 71.7-52.8"/>
   <path d="m763.4 297.8c9.6-6.8 18 4.1 21.6 15.8 3.2 10.5 8.7 18 23.9 17.1"/>
   <path d="m775.3 294c13.6.7 15.1 28.3 22.1 30"/>
  </g>
 </g>
</svg>
