<svg height="210mm" viewBox="0 0 1052.4 744.1" width="297mm" xmlns="http://www.w3.org/2000/svg">
 <g fill="none" stroke-linecap="round">
  <g transform="translate(0 -308.26772)">
   <path d="m57.6 742.2h948.8" stroke="#969696" stroke-width="1.875"/>
   <g stroke="#000" stroke-dasharray="3.75 7.5" stroke-miterlimit="2" stroke-width=".9375">
    <path d="m58.3 844.1h948.8"/>
    <path d="m58.3 641.8h948.8"/>
    <path d="m58.3 540.6h948.8"/>
   </g>
  </g>
  <g stroke="#000">
   <path d="m716.8 181.9-90.6 196.5" stroke-width="5.625"/>
   <g stroke-linejoin="round">
    <path d="m626.2 378.5c48.8-64.2 70.5-93.5 92.7-94.7 1.6-.1 3.3-.1 5.1.1 7 .3 9.9 7 9.7 12-.3 6.8-3.7 16.8-10.6 30.8l-25.6 52.3" stroke-width="5.625"/>
    <path d="m729.8 307-40.3 71.8" stroke-width="5.625"/>
    <path d="m712.6 338.6-19.4 39.7" stroke-width="3.75"/>
    <path d="m689.5 378.8 7.9.2" stroke-width="5.625"/>
   </g>
   <path d="m729.2 286.4c4 2.2 5.8 10.2-2.4 24.3" stroke-width="3.75"/>
   <path d="m326.4 336-42.8 75.7c-11.9 21 10.1 23.5 29.5 16.7 21.6-5.8 403.7-246.4 403.7-246.4" stroke-linejoin="round" stroke-width="5.625"/>
  </g>
 </g>
</svg>
