<svg height="210mm" viewBox="0 0 1052.4 744.1" width="297mm" xmlns="http://www.w3.org/2000/svg">
 <g fill="none" stroke-linecap="round">
  <g transform="translate(0 -308.26772)">
   <path d="m57.6 742.2h948.8" stroke="#969696" stroke-width="1.875"/>
   <g stroke="#000" stroke-dasharray="3.75 7.5" stroke-miterlimit="2" stroke-width=".9375">
    <path d="m58.3 844.1h948.8"/>
    <path d="m58.3 641.8h948.8"/>
    <path d="m58.3 540.6h948.8"/>
   </g>
  </g>
  <g stroke="#000" stroke-linejoin="round" stroke-width="5.625">
   <path d="m434.2 428.9c6.7-1.6 28.8-24.3 53.7-52.1"/>
   <path d="m435.8 418.4c.7.1 1.3.2 1.8.5.2.1.3.2.5.3.9.7 1.2 1.9.7 3.8-1 3.7-5.2 5.8-7.1 6.6-4.1 1.5-7.2-1.9-4.8-5.5 1.5-2.3 4-4.8 7-5.4.2 0 .4-.1.6-.1h.8c.6 0 1.2.1 1.8.2"/>
   <path d="m487.9 376.7c17.6-20.9 94.4-114.7 116.8-132.4 83-65-28.8 162.3-88.2 186.6-3.1 1.1-6.2.2-6.2.2l53.3-.7"/>
   <path d="m569.8 418.8c.7.1 1.3.2 1.8.5.2.1.3.2.5.3.9.7 1.2 1.9.7 3.8-1 3.7-5.2 5.8-7.1 6.6-4.1 1.5-7.2-1.9-4.8-5.5 1.5-2.3 4-4.8 7-5.4.2 0 .4-.1.6-.1h.8c.6 0 1.2.1 1.8.2"/>
   <path d="m565.3 431.3c14.7 4.5 63.1-30.9 81.9-33.1 17.5-.7 23.6 33.9 35.6 33.6 7.9-.2 13.5-8.3 18.3-14.2"/>
   <path d="m436.3 336-39.4 73.1c-8.4 15.5 5.3 23.4 21.5 22.2.5 0 5.1 0 12.2-1.3"/>
  </g>
 </g>
</svg>
