<svg height="210mm" viewBox="0 0 1052.4 744.1" width="297mm" xmlns="http://www.w3.org/2000/svg">
 <g fill="none" stroke-linecap="round">
  <g transform="translate(0 -308.26772)">
   <path d="m57.6 742.2h948.8" stroke="#969696" stroke-width="1.875"/>
   <g stroke="#000" stroke-dasharray="3.75 7.5" stroke-miterlimit="2" stroke-width=".9375">
    <path d="m58.3 844.1h948.8"/>
    <path d="m58.3 641.8h948.8"/>
    <path d="m58.3 540.6h948.8"/>
   </g>
  </g>
  <g stroke="#000" stroke-linejoin="round" stroke-width="5.625">
   <path d="m445.2 431.4 49.8-46.3"/>
   <path d="m495 385.1 20.9 46.6"/>
   <path d="m515.9 431.7s160.9-121.9 181.6-137.2c40-25.1 102.8-79.6 142.1-101.4 30.6-15.2 36.1-8.8 30.1 15.3-12.2 49.4-76.5 164-115.7 173.7"/>
   <path d="m247.5 332.8c53.3-10.8 93.7-77.9 87.4-94.3-5.4-14.1-39.5 8.7-85.7 85.1l-60.3 107.6"/>
   <path d="m188.9 431.2c40.4-20.2 90.7-44.6 107.1-34.4 7.1 5.1 13.1 31.2 25.8 33.2 3.4.7 6.9.5 10.5-.5 5.1-1.4 8.3-1.6 15.6-7.7 19.9-16.1 30.2-40.6 67.6-40.3 14.5.3 39.8 10.5 29.7 50"/>
   <path d="m277.3 394.9c11.2-1.1 21.7 5.8 26.6 23.6 1.7 6.1 3.6 11.9 13.2 12.2 3.3.1 0 0 7.8-.3"/>
   <path d="m283 394.4c7.9-.6 19.4-1.6 27.4 18.4 4.6 11.7 4.3 17.1 16.3 17.6"/>
   <path d="m296.7 399.5c9.3 13.2 5.5 27.6 20.2 28.6"/>
  </g>
 </g>
</svg>
