<svg height="210mm" viewBox="0 0 1052.4 744.1" width="297mm" xmlns="http://www.w3.org/2000/svg">
 <g fill="none" stroke-linecap="round">
  <g transform="translate(0 -308.26772)">
   <path d="m57.6 742.2h948.8" stroke="#969696" stroke-width="1.875"/>
   <g stroke="#000" stroke-dasharray="3.75 7.5" stroke-miterlimit="2" stroke-width=".9375">
    <path d="m58.3 844.1h948.8"/>
    <path d="m58.3 641.8h948.8"/>
    <path d="m58.3 540.6h948.8"/>
   </g>
  </g>
  <g stroke="#000" stroke-width="5.625">
   <g stroke-linejoin="round">
    <path d="m587.7 296c-15.8 9.2-156.6 148.9-183.3 182.2-22.1 27.7-32.9 47.3-27.8 52.1 4.4 4.2 34.7 12.4 62.3-63.3 15.8-47.4 16.5-113.3 70.8-131.6"/>
    <path d="m481.3 352.6s-68.3 63.3-81.7 71.5c-4.6 3.6-11.2 5.3-14 5.9-16.5 3.8-29.8-6.7-21.5-22.2l39-72.4"/>
    <path d="m587.7 296c23.7-19.2 60.9-14.6 37.5 14.4-27.4 33.8-45.5 50.2-39.4 63.9 2.4 5.5 9.7 8.2 18 6.8 6.2-1 16-3.5 34.2-19.7"/>
   </g>
   <path d="m668.4 325.7c-8.5 12.5-24.3 30.5-30.4 35.7"/>
   <path d="m668.4 325.7c12.1-15.6 25.3-32.5 45.3-34.5 49.5-4.7-54.7 166.6-101.2 197.4" stroke-linejoin="round"/>
  </g>
 </g>
</svg>
