<svg height="210mm" viewBox="0 0 1052.4 744.1" width="297mm" xmlns="http://www.w3.org/2000/svg">
 <g fill="none" stroke-linecap="round">
  <g transform="translate(0 -308.26772)">
   <path d="m57.6 742.2h948.8" stroke="#969696" stroke-width="1.875"/>
   <g stroke="#000" stroke-dasharray="3.75 7.5" stroke-miterlimit="2" stroke-width=".9375">
    <path d="m58.3 844.1h948.8"/>
    <path d="m58.3 641.8h948.8"/>
    <path d="m58.3 540.6h948.8"/>
   </g>
  </g>
  <g stroke="#000" stroke-width="5.625">
   <g stroke-linejoin="round">
    <ellipse cx="365.96765" cy="736.55078" rx="25.728558" ry="20.371416" transform="matrix(.79083574 -.61202846 .61202846 .79083574 0 0)"/>
    <path d="m718.9 352.7s-49.5 62-62.3 72.3"/>
    <path d="m480 431.8 29.4-39.1"/>
    <path d="m509.3 392.7c12-15.9 44.8-64.7 75.6-53.7 4.8 2.7 6.7 9 3.9 19.5-9.6 25.8-25.1 48.7-39.6 74.1"/>
    <path d="m549.1 432.7s44.6-32.4 61.8-29.2 16 46.2 45.6 21.5"/>
    <path d="m592.7 407.5c5.4-2.4 18.6-2.2 26.5 15 5.6 12.2 13.9 9.5 20.5 9.9"/>
    <path d="m607.3 405.6c6.7 5.9 6.3.5 21.2 23.1"/>
    <path d="m795.7 234.6-80.9 123.8"/>
    <path d="m795.7 234.6 22.4 50.2"/>
   </g>
   <path d="m929.2 86.9-111.1 197.9"/>
   <path d="m459.9 385.1 20 46.7" stroke-linejoin="round"/>
   <path d="m166.7 482.1 293.2-97" stroke-linejoin="round"/>
   <path d="m166.7 482.1c-18.3 8.6-24.5 16.1-27.2 23.5-5.3 12.6-1.6 20.3 8 25 9.8 4.8 19.7 2.4 32.5-2.5"/>
  </g>
 </g>
</svg>
