<svg height="210mm" viewBox="0 0 1052.4 744.1" width="297mm" xmlns="http://www.w3.org/2000/svg">
 <g fill="none" stroke="#000" stroke-linecap="round">
  <g transform="translate(0 -308.26772)">
   <path d="m57.6 742.2h948.8" stroke-width="1.875"/>
   <g stroke-dasharray="3.75 7.5" stroke-miterlimit="2" stroke-width=".9375">
    <path d="m58.3 844.1h948.8"/>
    <path d="m58.3 641.8h948.8"/>
    <path d="m58.3 540.6h948.8"/>
   </g>
  </g>
  <g stroke-width="5.625">
   <g stroke-linejoin="round">
    <path d="m552.4 381.3c58.4-66.3 109.8-55 98.9.3"/>
    <path d="m651.4 381.6c10.2-5.8 20.2-9 25.5-10.4 11.2-3 25.5-3.1 24.1 4.7 0 .2.1.4.1.7 0 1.4-.6 2.7-2.1 3.8-2.9 2.2-6.9.8-8.5-.4-3.3-.5-1-11.9 0-10.6 1.7 2.4 0 0 8.8 2.8.2.1.3.3.4.5.2.2.4.7.6.9.3.5.4.9.7 1.6"/>
    <path d="m700.7 375.9a5.5 1.8 0 0 1 -5.5 1.8 5.5 1.8 0 0 1 -5.5-1.8 5.5 1.8 0 0 1 5.4-1.8 5.5 1.8 0 0 1 5.5 1.8h-5.5z"/>
    <path d="m472.1 335.9c-47.8 12.5-89.4 106-47.1 93.4 14.2-5.6 25.5-7 65.3-51.1"/>
    <path d="m490.4 378.1 34.3-43.3 27.8 46.4"/>
    <path d="m400.4 390.5c7.7-9.6 35.5-36.5 45-39.9"/>
    <path d="m400.4 390.5c-48.2 61.4-98.5 47.1-84.7-.3"/>
   </g>
   <path d="m797.1 182.1-108 192.6"/>
  </g>
 </g>
</svg>
