<svg height="210mm" viewBox="0 0 1052.4 744.1" width="297mm" xmlns="http://www.w3.org/2000/svg">
 <g fill="none" stroke-linecap="round">
  <g transform="translate(0 -308.26772)">
   <path d="m57.6 742.2h948.8" stroke="#969696" stroke-width="1.875"/>
   <g stroke="#000" stroke-dasharray="3.75 7.5" stroke-miterlimit="2" stroke-width=".9375">
    <path d="m58.3 844.1h948.8"/>
    <path d="m58.3 641.8h948.8"/>
    <path d="m58.3 540.6h948.8"/>
   </g>
  </g>
  <g stroke-width="5.625">
   <path d="m170.7 430.9c-52.7 6.6 43.3-181.1 96.6-196.2" stroke="#000001" stroke-linejoin="round"/>
   <path d="m313.1 430.4c12.6-1.5 163.9-47.4 163.9-47.4l21.2 47.9 26.3-31.2" stroke="#000" stroke-linejoin="round"/>
   <g stroke="#000001">
    <path d="m524.5 399.7c3-4.3 36.8-46.4 42.9-51.3 23.5-19 60.3-14.5 37.1 14.2-27.1 33.5-45 49.7-39 63.2 4.2 9.4 22.8 7.1 36.1-3.6l18.5-14.9" stroke-linejoin="round"/>
    <path d="m606.7 339.6c11.5 11.1 2.8 28-13.7 44.1-14.2 13.9-23.1 26.1-29.2 38.3"/>
    <path d="m605.3 340c.8-1.1 3.8 6.1.7 14.1-3.2 8.3-12.7 17.6-18.1 22.7-10.6 10-30.3 28.7-24.1 45.2"/>
    <path d="m597.4 336.9c11.4 2.4 8.8 11.1 9.4 15"/>
    <path d="m568.9 413.1c-2.7 4.9-3.6 15.1 2.4 17.5"/>
    <path d="m563 413.6c-1 4.8 1.8 13.1 4.6 15.4"/>
    <g stroke-linejoin="round">
     <path d="m620.1 407.2 30.7-26.3-25.7 50.2 11.5.1"/>
     <path d="m657.7 383.7-25.5 47.5"/>
     <path d="m636.6 431.1-11.8.2"/>
     <path d="m664.4 380.7-27.9 50.4"/>
     <path d="m664.4 380.7-13.9-.1"/>
     <path d="m655.8 381.9-25.5 47.5"/>
     <path d="m636.6 431.1c73.7-71.7 214-171.1 182.3-192.9-12.5-8.7-36.5 10.2-83.2 87.3l-59.2 105.8c51.9-30.5 102.8-56 154.2-84.7"/>
     <path d="m830.6 346.6c1.4-1.3 80.4-47.1 81.9-48.2 115.2-74 2.7 157.5-81.1 186.2"/>
    </g>
   </g>
   <g stroke="#000" stroke-linejoin="round">
    <path d="m170.7 430.9c27-2.8 81.8-39.2 102.7-35.4 17.2 3.2 19.2 39.4 39.7 34.8"/>
    <path d="m258.8 397.1c11.4-2.7 16 1 25.6 21.9 6.8 14.8 16.9 11.5 24.8 12"/>
    <path d="m271.5 397.2c8.1 7.1 6.1 1.9 24.1 29.3"/>
   </g>
  </g>
 </g>
</svg>
