<svg height="210mm" viewBox="0 0 1052.4 744.1" width="297mm" xmlns="http://www.w3.org/2000/svg">
 <g fill="none" stroke-linecap="round">
  <g transform="translate(0 -308.26772)">
   <path d="m57.6 742.2h948.8" stroke="#969696" stroke-width="1.875"/>
   <g stroke="#000" stroke-dasharray="3.75 7.5" stroke-miterlimit="2" stroke-width=".9375">
    <path d="m58.3 844.1h948.8"/>
    <path d="m58.3 641.8h948.8"/>
    <path d="m58.3 540.6h948.8"/>
   </g>
  </g>
  <g stroke="#000" stroke-linejoin="round">
   <path d="m85 432.4c13.4-18.8 28.2-26.9 42.2-27.1 13.5-.2 21.2 12.1 30.3 20.4 7.8 7.3 19.6 6 30.1 3.1 27.2-8.7 136.9-65.5 302.3-145.9" stroke-width="5.625"/>
   <g stroke-width="5.624999">
    <path d="m498.1 282.8-46.6 95.4"/>
    <path d="m498.1 282.8h-8.2"/>
    <path d="m494.2 283.7-45.7 93.9"/>
    <path d="m451.5 378.2h-8.2"/>
    <path d="m489.9 282.9-46.6 95.4"/>
   </g>
   <g stroke-width="5.625">
    <path d="m451.5 378.2c25-11.8 67.7-31.5 85.3-32.4 16.8-.7 22.7 32.6 34.2 32.2 7.5-.2 13.1-6.2 18.3-10.8"/>
    <path d="m720.9 431c6.9-7.3 20.8-25.6 40.1-25.1 19.4.4 13.1 25 34.2 25.2 20.2-.8 34.6-20 116-95.4"/>
    <path d="m911.2 335.8-53.8 95.5"/>
   </g>
   <path d="m857.4 431.3c25-11.8 60.2-31.5 77.8-32.4 16.8-.7 22.7 32.6 34.2 32.2 7.5-.2 13.1-6.2 18.3-10.8" stroke-width="5.624999"/>
  </g>
 </g>
 <circle cx="665.39886" cy="359.00958" r="10.653956"/>
 <circle cx="650.00922" cy="408.02521" r="10.653956"/>
</svg>
