<svg height="210mm" viewBox="0 0 1052.4 744.1" width="297mm" xmlns="http://www.w3.org/2000/svg">
 <g fill="none" stroke-linecap="round">
  <g transform="translate(0 -308.26772)">
   <path d="m57.6 742.2h948.8" stroke="#969696" stroke-width="1.875"/>
   <g stroke="#000" stroke-dasharray="3.75 7.5" stroke-miterlimit="2" stroke-width=".9375">
    <path d="m58.3 844.1h948.8"/>
    <path d="m58.3 641.8h948.8"/>
    <path d="m58.3 540.6h948.8"/>
   </g>
  </g>
  <g stroke="#000">
   <g stroke-linejoin="round" stroke-width="5.625">
    <path d="m313.7 352.3c29.7-37.3 74.1-13.2 1.7 28.6 44.8-17.8 10.8 21.8-10.1 50.5-.8 1.1 116.5-55.5 115.8-54.5"/>
    <path d="m421.2 376.9c16.1-8 55.5-31.1 79.9-39.8 21-5.4 35 2.5 12.3 40.5l-31.2 52.3"/>
    <path d="m606.4 400.3s21.7-29.1 26.1-34.1c5.4-6.1 12.1-13.5 14.9-16.1 5.4-5.1 11-10.1 12.4-11.1 20.6-14.7 57.4 3.3-11.1 40.5 48.5-19.3 15.5 22.5.8 50.3"/>
   </g>
   <path d="m669.8 380-25.9 47.2" stroke-width="8.4375"/>
   <path d="m665.8 379.1-31.4 51.3" stroke-width="5.625"/>
   <path d="m649.6 429.9-15.2.5" stroke-width="5.625"/>
   <path d="m660.2 386.5c4.5-6.9 1.1-10-2.7-9.1" stroke-width="3.75"/>
   <path d="m482.1 429.9c.6.4 47.2-36.7 58.6-37.6 24.4-1.9 9.8 42.1 32.3 37.9 14.8-2.8 24.2-17.4 33.4-29.9" stroke-linejoin="round" stroke-width="5.625"/>
  </g>
 </g>
</svg>
