<svg height="210mm" viewBox="0 0 1052.4 744.1" width="297mm" xmlns="http://www.w3.org/2000/svg">
 <g fill="none" stroke-linecap="round">
  <g transform="translate(0 -308.26772)">
   <path d="m57.6 742.2h948.8" stroke="#969696" stroke-width="1.875"/>
   <g stroke="#000" stroke-dasharray="3.75 7.5" stroke-miterlimit="2" stroke-width=".9375">
    <path d="m58.3 844.1h948.8"/>
    <path d="m58.3 641.8h948.8"/>
    <path d="m58.3 540.6h948.8"/>
   </g>
  </g>
  <g stroke="#000">
   <g stroke-linejoin="round">
    <g stroke-width="5.625">
     <path d="m564.7 382c22.8-1.2 42.8 15.9 36.3 49.4"/>
     <path d="m259.7 431.3c2.3-3.1 49-62.3 51.1-65.1 2.7-3.5 5.3-6.7 7.7-9.6 2-2.4 3.9-4.5 5.8-6.4 16.9-17.9 26.9-18.3 33.4-5.7 6.5 12.7 4 18.2 12.3 27.2 15.9 17.3 43.8-27.8 34.5-34.3-6.3-4.4-25.9 3.2-49.4 42-25.1 41.1-24.9 49.6-10.7 52.2 51.4 5.3 182.8-48.3 220.2-49.6"/>
     <path d="m697.6 431.1c7.2-.7 17.2-7.3 28.1-16.6"/>
     <path d="m600.9 431.4 63.1-95.2s7.8 43.5 24.9 47.7c4.8 1.2 10.6 1.2 15.4.7 14.9-1.3 25.9-6.1 35-12.3 23.3-14.2 23.3-36.9 14.1-37.2-7.7-.3-25.9 3.2-49.4 42-26.8 43.8-21.4 55.1-6.3 54"/>
    </g>
    <path d="m670 339.3 6.6 26.7" stroke-width="7.5"/>
    <path d="m676.5 336.2c-1.3 13.6 4.2 27.1 4.8 40.7" stroke-width="5.625"/>
   </g>
   <path d="m679.2 355.9c-.3 10.4 6.8 27.1 13 27.9" stroke-width="3.75"/>
   <path d="m664 336.2h12.5" stroke-width="5.625"/>
  </g>
 </g>
</svg>
