<svg height="210mm" viewBox="0 0 1052.4 744.1" width="297mm" xmlns="http://www.w3.org/2000/svg">
 <g fill="none" stroke-linecap="round">
  <g transform="translate(0 -308.26772)">
   <path d="m57.6 742.2h948.8" stroke="#969696" stroke-width="1.875"/>
   <g stroke="#000" stroke-dasharray="3.75 7.5" stroke-miterlimit="2" stroke-width=".9375">
    <path d="m58.3 844.1h948.8"/>
    <path d="m58.3 641.8h948.8"/>
    <path d="m58.3 540.6h948.8"/>
   </g>
  </g>
  <g stroke-linejoin="round" stroke-width="5.625">
   <g stroke="#000">
    <path d="m258.3 387c40 3 59.7-35.8 56.6-44.3-5.4-14.5-29.3-4.3-53.1 35-29.5 48.3-21.2 58.1-3 52.4"/>
    <path d="m258.8 430.2c23.6-7.7 224.2-184.1 191.6-195.3-14.8-5.1-41 9-89 88.4-44 76.1-43.8 105.1-27.3 107.9 22.7 2.7 96.9-66.6 183.3-141.3"/>
    <path d="m391.7 441.4c-13.7 15.3-21.7 35.6-19.7 40.9 1.1 2.9 17.7 21.8 57.3-41.8l88-150.7"/>
    <path d="m391.7 441.4c7.7-9.7 42.9-42.8 67.4-53.3 16.2-6.9 160.3-153.7 160.3-153.7"/>
   </g>
   <g stroke="#00000c">
    <path d="m619.5 234.4-50.6 97"/>
    <path d="m568.8 331.4 237.5-96.1 33.3 47.9"/>
    <path d="m806.4 235.3 24 48"/>
    <path d="m815.8 235.3 23.8 47.9"/>
    <path d="m811.9 235.2 24 48"/>
   </g>
  </g>
  <g stroke="#00000c" stroke-width="3.75">
   <path d="m808.6 234.2h7.1"/>
   <path d="m832.1 284.2h7.1"/>
  </g>
 </g>
</svg>
