<svg height="210mm" viewBox="0 0 1098.4 744.1" width="310mm" xmlns="http://www.w3.org/2000/svg">
 <g fill="none" stroke-linecap="round">
  <g transform="translate(0 -308.26772)">
   <path d="m14.7 742.2h1068.1" stroke="#969696" stroke-width="1.875"/>
   <g stroke="#000" stroke-dasharray="3.75 7.5" stroke-miterlimit="2" stroke-width=".9375">
    <path d="m15.4 844.1h1068.1"/>
    <path d="m15.4 641.8h1068.1"/>
    <path d="m15.4 540.6h1068.1"/>
   </g>
  </g>
  <path d="m372.8 336.2c-56.6 14.8-104.6 143.3-14.6 74.3" stroke="#000" stroke-linejoin="round" stroke-width="5.625"/>
  <path d="m462.4 286.7s-57.8 82.7-104.2 123.9" stroke="#060000" stroke-linejoin="round" stroke-width="5.625"/>
  <g stroke="#000">
   <g stroke-linejoin="round">
    <path d="m462.4 286.7s4 43.5 21.1 47.7c4.8 1.2 10.6 1.2 15.4.7 14.9-1.3 25.9-6.1 35-12.3 23.3-14.2 23.3-36.9 14.1-37.2-7.7-.3-25.9 3.2-49.4 42-29.1 47.5-20.5 58-2.5 55.2 15-2.3 44-12.3 72.8-48.9" stroke-width="5.625"/>
    <path d="m468.5 289.7 2.9 26.7" stroke-width="7.5"/>
    <path d="m475 286.7c-1.3 13.6.4 27.1 1.1 40.7" stroke-width="5.625"/>
   </g>
   <path d="m475.7 306.4c-.3 10.4 4.9 27.1 11.1 27.9" stroke-width="3.75"/>
   <path d="m462.4 286.7h12.5" stroke-width="5.625"/>
   <g stroke-linejoin="round">
    <g stroke-width="5.625">
     <path d="m568.9 333.9 30-40.7"/>
     <path d="m598.9 293.2c21.6-28.9 36.1-52.4 56.9-56.8 10.7-2.7 14.3.7 18.7 3.2 7.6 4.3 7 16.6-6 41.5l-26.1 50.2"/>
     <path d="m267.5 422.8c32.3-32 86.7-84.7 105.4-86.3"/>
     <ellipse cx="38.082672" cy="479.01361" rx="25.728558" ry="20.371416" transform="matrix(.89236516 -.45131411 .45131411 .89236516 0 0)"/>
     <path d="m193.6 401.8c23.3-1.3 24.5 29.9 47.3 29.5"/>
     <path d="m164.5 338.3-114.5 51.6"/>
    </g>
    <path d="m193.6 401.8c-15 1.5-60.9 15-64.4 16-5.2 1.4-9.2 5.1-9.2 7.7 0 3.7.8 5.8 5.8 6.3 3 .3 9.9-5.8 11.3-6.6 43.4-24.8 66.3-107.4 27.4-86.9" stroke-width="5.419139"/>
    <g stroke-width="5.625">
     <ellipse cx="-205.04735" cy="358.80484" rx="25.728558" ry="20.371416" transform="matrix(.79083574 -.61202846 .61202846 .79083574 0 0)"/>
     <path d="m642.5 331.3 285.9-165.1"/>
     <path d="m928.4 166.2c17.9-11.4 43-29.4 59.8-30.3 16-.6 21.6 31 32.6 30.7 7.2-.2 12.4-7.6 16.7-13"/>
    </g>
   </g>
  </g>
 </g>
</svg>
