<svg height="210mm" viewBox="0 0 1052.4 744.1" width="297mm" xmlns="http://www.w3.org/2000/svg">
 <g stroke-linecap="round">
  <g fill="none" transform="translate(0 -308.26772)">
   <path d="m57.6 742.2h948.8" stroke="#969696" stroke-width="1.875"/>
   <g stroke="#000" stroke-dasharray="3.75 7.5" stroke-miterlimit="2" stroke-width=".9375">
    <path d="m58.3 844.1h948.8"/>
    <path d="m58.3 641.8h948.8"/>
    <path d="m58.3 540.6h948.8"/>
   </g>
  </g>
  <g stroke="#000">
   <g fill="none" stroke-width="5.625">
    <path d="m582.5 337.5-109.2 195.8"/>
    <g stroke-linejoin="round">
     <path d="m501.6 298.5c-11.5 7.6-234.1 134.5-217.9 132.2 4.5 0 10.9-4.3 12.3-5.1 39.5-22.6 60.3-92.7 33.9-89.4-3.4.4-7.5 2-12.4 5.1"/>
     <path d="m501.6 298.5c26.4-15.6 63.4-12.4 40.2 17.1-27 34.2-46.2 38.4-39.9 58.9 1.4 4.6 7.4 9.4 14 10 19.7 1.3 55.1-35.7 66.5-46.9"/>
     <path d="m317.5 341.2c-1.5 1-7.5 4.9-15.5 10.3"/>
     <path d="m662 428.7c-1.1.5-20.6 2-27 2.7-11.3 1.2-29.3-.3-41 6.3-14.4 8.1-22.6 15.9-34.8 29.2-24.9 27.2-38.9 53.7-35.9 61.5 1.1 2.9 17.7 21.8 57.3-41.8l88-150.7"/>
    </g>
   </g>
   <g fill="#eb0000" fill-rule="evenodd" stroke-linejoin="round" transform="matrix(1.7715894 0 0 1.7715894 -627.29961 77.148209)">
    <path d="m732.1 185.5c.8.1 1.4.2 1.9.5.2.1.3.2.5.3.9.7 1.3 2 .8 4-1 3.9-5.4 6.1-7.5 6.9-4.3 1.6-7.6-2-5.1-5.9 1.6-2.4 4.2-5.1 7.4-5.7.2 0 .4-.1.7-.1h.8c.6 0 1.2.1 1.9.3" stroke-width="5.625"/>
    <path d="m729.3 188.3c.3 0 .6.1.9.2.1 0 .2.1.2.1.4.3.6.9.4 1.8-.4 1.7-2.4 2.8-3.3 3.1-1.9.7-3.4-.9-2.3-2.6.7-1.1 1.9-2.3 3.3-2.6h.3.4c.3 0 .6 0 .8.1" stroke-width="4.981044"/>
   </g>
   <path d="m781.2 235.1-106.4 186.5" fill="none" stroke-width="5.625"/>
  </g>
 </g>
</svg>
