<svg height="210mm" viewBox="0 0 1052.4 744.1" width="297mm" xmlns="http://www.w3.org/2000/svg">
 <g fill="none" stroke-linecap="round">
  <g transform="translate(0 -308.26772)">
   <path d="m57.6 742.2h948.8" stroke="#969696" stroke-width="1.875"/>
   <g stroke="#000" stroke-dasharray="3.75 7.5" stroke-miterlimit="2" stroke-width=".9375">
    <path d="m58.3 844.1h948.8"/>
    <path d="m58.3 641.8h948.8"/>
    <path d="m58.3 540.6h948.8"/>
   </g>
  </g>
  <g stroke="#000" stroke-linejoin="round" stroke-width="5.625">
   <path d="m284 358.3c15.9-32 75.6-30.6 48.2 3.3-27.4 33.8-45.5 50.2-39.4 63.9 4.4 9.9 23.3 5.3 38.1-4.7 5.6-3.8 16.7-14.3 22.5-19.5"/>
   <path d="m353.4 401.3 73.5-65.5-52.2 94.8"/>
   <path d="m374.7 430.6s219.4-34.2 251.8-57.6"/>
   <path d="m626.5 373.1c13.5-11.6 19.6-27.1 16.9-31.7-6.6-11.3-29.3-4.3-53.1 35.5-28.6 47.4-22.4 58-5.9 54.2 30.2-6.9 129.1-120.2 147.7-133.6"/>
   <path d="m695.6 374.5c-43.3 18.4-81 88.1-72.2 103.9 2.9 5.3 34.7 12.4 62.3-63.3 15.8-47.4 16.5-113.3 70.8-131.6"/>
  </g>
 </g>
</svg>
