<svg height="210mm" viewBox="0 0 1052.4 744.1" width="297mm" xmlns="http://www.w3.org/2000/svg">
 <g fill="none" stroke-linecap="round">
  <g transform="translate(0 -308.26772)">
   <path d="m57.6 742.2h948.8" stroke="#969696" stroke-width="1.875"/>
   <g stroke="#000" stroke-dasharray="3.75 7.5" stroke-miterlimit="2" stroke-width=".9375">
    <path d="m58.3 844.1h948.8"/>
    <path d="m58.3 641.8h948.8"/>
    <path d="m58.3 540.6h948.8"/>
   </g>
  </g>
  <g stroke="#000">
   <g stroke-linejoin="round">
    <path d="m371.2 430c-30.6 25.1-82.4 86.2-74.6 100.3 2.9 5.3 34.7 12.4 62.3-63.4 15.7-47.2 25.8-112.5 71.5-132.1" stroke-width="5.625"/>
    <path d="m435.2 358.6-64 71.4" stroke-width="5.625"/>
    <path d="m419.9 431.9c3 .3 11.8-5.7 13.2-6.4 10.7-6.1 20.2-15.8 27.8-26.6 28.4-40.2 30.6-95.6-25.7-40.3" stroke-width="5.419139"/>
   </g>
   <g stroke-width="5.625">
    <path d="m419.9 431.9c-18.1 11.6 158.2-165.4 183.6-186.7" stroke-linejoin="round"/>
    <path d="m617 417.4c-21.9 17.6-44.6 38-54.3 47.7-25.9 26.2-48.6 55.7-45.7 63.4 1.1 2.9 22.5 22.8 62-40.9l83.3-151.7-13.2.5-63.4 56.6" stroke-linejoin="round"/>
    <path d="m649.2 336.5-90.5 178.4"/>
    <path d="m656.3 339.4-83.7 157.4"/>
    <path d="m653.3 338.3-90.7 170.5"/>
   </g>
   <path d="m567.5 495.4c-6.5 14.2-13.9 23.4-21.7 30.4" stroke-width="3.75"/>
   <g stroke-linejoin="round" stroke-width="5.625">
    <path d="m585.8 393.1c-21.8 17.4-45.6 35-54.4 36.7-26.2 5-22-13.7-10.6-43.9 15.1-39.9 45.9-101 71.7-129.1 4.6-5 15.6-18.1 23.5-22"/>
    <path d="m551 419.2c-14.9 8.5-21.4 9.7-25.3 4.8-.4-1.1-.2-6.2 1.3-7.5 3.6-3.1 7-2.7 9.9-1.6 3.7 1.8 7.1 7.5 3.2 9.5-1.5.8-8.7 5.2-12.7 5.6"/>
   </g>
  </g>
 </g>
</svg>
