<svg height="210mm" viewBox="0 0 1052.4 744.1" width="297mm" xmlns="http://www.w3.org/2000/svg">
 <g fill="none" stroke-linecap="round">
  <g transform="translate(0 -308.26772)">
   <path d="m57.6 742.2h948.8" stroke="#969696" stroke-width="1.875"/>
   <g stroke="#000" stroke-dasharray="3.75 7.5" stroke-miterlimit="2" stroke-width=".9375">
    <path d="m58.3 844.1h948.8"/>
    <path d="m58.3 641.8h948.8"/>
    <path d="m58.3 540.6h948.8"/>
   </g>
  </g>
  <g stroke="#000" stroke-linejoin="round" stroke-width="5.625">
   <path d="m618.2 285.7s-73.5 38.2-87.3 48.1"/>
   <path d="m618.2 285.7 20.2 46"/>
   <path d="m530.8 333.7c-27 16.7-90.2 91.8-63 99 11.2 2.5 33.1-7.6 54.5-66.3 15.7-47.2 16.4-112.8 70.4-130.9"/>
   <path d="m570.6 247.6c-12.5 9.4-31.7 30.4-54 55.1-50.6 56-62.9 76.9-83.1 77.2-21.9.3-27.2-42.9-51.2-42.9-24.2-.1-43.8 28-59.6 45.3-11.8 13-24 28.8-38.6 39.8-7.7 5.8-17 9-24.3 9.5s-13.6-1.8-16.2-7.3c-7.2-15.4 13.6-29.6 37.7-58.8 8.1-9.8 8.7-18.1 5.1-23.2-1.5-2.1-3.8-3.7-6.5-4.7-2.6-.9-5.7-1.2-9-.9-14.3 1.8-23.7 12-31.7 19.6"/>
   <path d="m709.4 236.2-71 95.4"/>
   <path d="m748.1 272c-39.3 7.9-45.4-2.8-38.7-35.8"/>
   <ellipse cx="744.28094" cy="-334.41165" rx="4.609393" ry="6.862875" transform="matrix(.72846687 .68508103 -.68508103 .72846687 0 0)"/>
   <path d="m744.8 272.9c6.6 3.9 19.4 2.5 28.4-1.9"/>
   <ellipse cx="726.86823" cy="-317.9823" rx="4.609393" ry="6.862875" transform="matrix(.72846687 .68508103 -.68508103 .72846687 0 0)"/>
   <path d="m768.8 272.9c13 7.6 61.9-39.8 61.9-39.8"/>
  </g>
 </g>
</svg>
