<svg height="210mm" viewBox="0 0 1052.4 744.1" width="297mm" xmlns="http://www.w3.org/2000/svg">
 <g fill="none" stroke-linecap="round">
  <g transform="translate(0 -308.26772)">
   <path d="m57.6 742.2h948.8" stroke="#969696" stroke-width="1.875"/>
   <g stroke="#000" stroke-dasharray="3.75 7.5" stroke-miterlimit="2" stroke-width=".9375">
    <path d="m58.3 844.1h948.8"/>
    <path d="m58.3 641.8h948.8"/>
    <path d="m58.3 540.6h948.8"/>
   </g>
  </g>
  <g stroke="#000">
   <ellipse cx="383.78729" cy="577.25342" rx="62.130169" ry="44.633743" stroke-linejoin="round" stroke-width="5.625" transform="matrix(.88109295 -.47294313 .47294313 .88109295 0 0)"/>
   <path d="m667.9 305.1c-13.8 27.9-38.1 52.4-66.8 70.7" stroke-width="5.385754"/>
   <path d="m669.1 314.1c-15.9 21.3-33.1 41.5-54 58.5" stroke-width="5.385754"/>
   <path d="m668.1 320.6c-14.3 21.6-19.7 29.6-41.7 46.5" stroke-width="7.181006"/>
   <path d="m616.7 363.7c-10.1 9.6-24.3 12.2-31.1 10.7" stroke-width="3.590503"/>
   <path d="m659.8 291.3c2.2 2.5 8.7 12.2 1.3 24.5" stroke-width="3.590503"/>
   <g stroke-linejoin="round">
    <path d="m461.7 434.7c-53.2 7.3-100.2 80.3-96.4 92.6.9 3 16.3 22.9 59.8-38.1 26.9-36.9 53-76.9 70.7-116.7 10.3-21.3 4.4-41-15.5-33.9-7.9 2.8-21.7 10.5-51 37.1" stroke-width="5.625"/>
    <path d="m461.7 434.7c.1-1.7 6.8-6 6.7-9.5-.1-5-.2-8.8-1.4-9.8-1.3-1.2-3.1-1.4-4-.7-2.4 1.8-2.1 3-1.9 4.9.4 3.5 2.1 2.2 5.4 1.5 4.1-2.1 4.1-4.2 7.1-4.8l94.6-112.3" stroke-width="5.625"/>
    <path d="m465.3 416.4c-.1-.2-.3-.4-.4-.5-.1 0-.1-.1-.2-.1-.3-.2-.8-.1-1.3.3-1 .8-1 2.4-1 3.1.1 1.5 1.6 1.9 2.4.7.5-.8.9-1.9.6-2.9 0-.1 0-.1-.1-.2 0-.1-.1-.2-.1-.2-.1-.2-.2-.3-.3-.5" stroke-width="3.586069"/>
    <path d="m568.1 304c15.1-18.1 98-132.3 115.6-149.8 12-11.9 23.3-19.5 32.1-21 10.7-2.7 14.3.7 18.7 3.2 7.6 4.3 8 17.2-6 41.5l-29.8 52.1" stroke-width="5.625"/>
   </g>
   <path d="m429.2 375.7s-110 93.3-127.9 120.7c-16.8 24.6-6.9 34.8 6.1 36.8 15.2 2.4 30.2-8.3 45.6-23.7" stroke-width="5.625"/>
  </g>
 </g>
</svg>
