<svg height="210mm" viewBox="0 0 1052.4 744.1" width="297mm" xmlns="http://www.w3.org/2000/svg">
 <g fill="none" stroke-linecap="round">
  <g transform="translate(0 -308.26772)">
   <path d="m57.6 742.2h948.8" stroke="#969696" stroke-width="1.875"/>
   <g stroke="#000" stroke-dasharray="3.75 7.5" stroke-miterlimit="2" stroke-width=".9375">
    <path d="m58.3 844.1h948.8"/>
    <path d="m58.3 641.8h948.8"/>
    <path d="m58.3 540.6h948.8"/>
   </g>
  </g>
  <g stroke="#000">
   <g stroke-width="5.625">
    <g stroke-linejoin="round">
     <path d="m634.1 430.3c10.2-5.8 20.2-9 25.5-10.4 11.2-3 25.5-3.1 24.1 4.7 0 .2.1.4.1.7 0 1.4-.6 2.7-2.1 3.8-2.9 2.2-6.9.8-8.5-.4-3.3-.5-1-11.9 0-10.6 1.7 2.4 0 0 8.8 2.8.2.1.3.3.4.5.2.2.4.7.6.9.3.5.4.9.7 1.6"/>
     <path d="m683.4 424.6a5.5 1.8 0 0 1 -5.5 1.8 5.5 1.8 0 0 1 -5.5-1.8 5.5 1.8 0 0 1 5.4-1.8 5.5 1.8 0 0 1 5.5 1.8h-5.5z"/>
     <path d="m370.6 429.8c-59 7.4-63.7-13.4-51.2-43.1 18.2-43.4 59.9-106.8 85.8-134.3 4.7-4.9 15.9-14.6 23-17.4"/>
     <path d="m378.3 413.4c1 .1 1.8.3 2.5.7.2.1.4.2.6.4 1.2.9 1.7 2.6 1 5.2-1.3 5.1-7.1 8-9.8 9-5.7 2-9.8-2.6-6.6-7.6 2-3.1 5.5-6.6 9.7-7.5.3-.1.6-.1.9-.1s.7-.1 1-.1c.8 0 1.6.1 2.4.3"/>
     <path d="m634.1 430.3c-17 9.6-44.5 32.2-49.6 37.2-25.9 26.2-42.9 53.1-40 60.8 1.1 2.9 22.5 22.8 62-40.9l83.3-151.7-13.2.5-306.1 93.5"/>
    </g>
    <path d="m676.6 336.3-90.5 178.4"/>
    <path d="m683.7 339.3-83.7 157.3"/>
    <path d="m680.7 338.2-90.7 170.5"/>
   </g>
   <path d="m594.9 495.2c-6.5 14.2-13.9 23.4-21.7 30.4" stroke-width="3.75"/>
  </g>
 </g>
</svg>
