<svg height="210mm" viewBox="0 0 1052.4 744.1" width="297mm" xmlns="http://www.w3.org/2000/svg">
 <g fill="none" stroke-linecap="round">
  <g transform="translate(0 -308.26772)">
   <path d="m57.6 742.2h948.8" stroke="#969696" stroke-width="1.875"/>
   <g stroke="#000" stroke-dasharray="3.75 7.5" stroke-miterlimit="2" stroke-width=".9375">
    <path d="m58.3 844.1h948.8"/>
    <path d="m58.3 641.8h948.8"/>
    <path d="m58.3 540.6h948.8"/>
   </g>
  </g>
  <g stroke="#000">
   <g stroke-linejoin="round" stroke-width="5.625">
    <path d="m662.8 309.5c14-11.2 32.2-26.1 32.2-26.1l33.3 47.9"/>
    <path d="m695 283.5 24 48"/>
    <path d="m704.5 283.5 23.8 47.9"/>
    <path d="m700.6 283.3 24 48"/>
   </g>
   <path d="m695.4 282.4h9" stroke-width="3.75"/>
   <path d="m718.8 332.3h9" stroke-width="3.75"/>
   <g stroke-linejoin="round">
    <g stroke-width="5.625">
     <path d="m603 291.1c44.8-39.5 114.8-93.7 129.8-119.2 8.5-14.4 12.3-27.1 10.1-33.1-5.5-14.4-40.2 8.9-87.4 86.8-69.6 120.2-36 123.1 7.3 84"/>
     <path d="m603 291.1c-79.1 65.3-111.2 41.6-98.3-7.9"/>
     <path d="m231.7 431s44.6-32.4 61.8-29.2c12.7 2.4 16.3 23.4 27.6 28.9 5.9 2.9 18.4 1.5 26.9-1.9"/>
     <path d="m275.3 405.5c6.5-3.1 18.6-1.9 26.5 15.3 5.6 12.2 15.8 12 26.5 11.3"/>
     <path d="m289.9 403.9c6.7 5.9 8 1.3 22.8 23.9"/>
     <path d="m344.3 428.8c18.3 16.7 55.7-47.5 78.4-80.7"/>
     <path d="m425.6 344.8 79.2-61.7"/>
    </g>
    <ellipse cx="540.84064" cy="64.888412" rx="5.271423" ry="7.848564" stroke-width="14.034715" transform="matrix(.72846687 .68508103 -.68508103 .72846687 0 0)"/>
    <ellipse cx="128.24112" cy="553.60504" rx="25.728558" ry="20.371416" stroke-width="5.625" transform="matrix(.79083574 -.61202846 .61202846 .79083574 0 0)"/>
   </g>
   <path d="m462.7 348.3c.3 9.3-.4 14.6-6.3 21.9-3.6 4.5-8.8 8.3-16 11.1" stroke-width="5.624961"/>
   <path d="m459.1 343.1c2 6.9 1.8 6.4.7 11.6-1.6 7.6-6.1 13.5-12.5 18.7-3.2 2.6-6.9 5-10.9 7.3" stroke-width="6.599955"/>
   <path d="m442 374.9c-5.3 3.7-10.3 5.7-16.3 3.5" stroke-width="2.849979"/>
   <path d="m448.3 338.3c6.2 1.3 8.4 3.3 9.7 7.9.3.9.9 2.9.4 5.9" stroke-width="2.849979"/>
   <path d="m728.3 331.3c20.5-7.7 57.5-28.4 74.3-29.3 16-.6 21.6 31 32.6 30.7 7.2-.2 12.4-7.6 16.7-13" stroke-linejoin="round" stroke-width="5.625"/>
  </g>
 </g>
</svg>
