<svg height="210mm" viewBox="0 0 1052.4 744.1" width="297mm" xmlns="http://www.w3.org/2000/svg">
 <g fill="none" stroke-linecap="round">
  <g transform="translate(0 -308.26772)">
   <path d="m57.6 742.2h948.8" stroke="#969696" stroke-width="1.875"/>
   <g stroke="#000" stroke-dasharray="3.75 7.5" stroke-miterlimit="2" stroke-width=".9375">
    <path d="m58.3 844.1h948.8"/>
    <path d="m58.3 641.8h948.8"/>
    <path d="m58.3 540.6h948.8"/>
   </g>
  </g>
  <g stroke-width="5.625">
   <g stroke-linejoin="round">
    <ellipse cx="130.56647" cy="617.96802" rx="25.728558" ry="20.371416" stroke="#000" transform="matrix(.79083574 -.61202846 .61202846 .79083574 0 0)"/>
    <path d="m466.3 395 118.9-106.9-56.7 94.9" stroke="#0a0000"/>
    <path d="m540.7 431.7c16.6-.5 32.6-21.1 34.6-46.7 2.1-26.5 46.4-54 35.9-48.1l-82.6 46" stroke="#060000"/>
    <path d="m896 336c-41.9 53.3-176.2 74.7-175.1-.3l-94.3 95.7" stroke="#000"/>
    <path d="m682 334.2-55.8 97.2" stroke="#00000c"/>
    <path d="m682 334.2h-10.6" stroke="#00000a"/>
    <path d="m676.5 334.2-55.8 97.2" stroke="#00000c"/>
    <path d="m626.2 431.4h-10.6" stroke="#00000c"/>
    <path d="m671.4 334.2-55.8 97.2 11-.1" stroke="#000"/>
    <path d="m671.4 334.2s-115.4 93.8-119.6 94.5" stroke="#0a0000"/>
    <path d="m348.3 395.1c3-4.3 37.2-43.3 43.4-48.3 23.7-19.2 60.9-14.6 37.5 14.4-27.4 33.8-45.5 50.2-39.4 63.9 2.1 4.8 8 6.4 15.1 5.8 12.6-1.1 39.1-15.5 61.5-36" stroke="#000"/>
   </g>
   <g stroke="#000">
    <path d="m430 338.5c14.5 10.1 4.3 27.8-12.4 44.2-14.4 14-23.4 26.4-29.5 38.7"/>
    <path d="m430 338.5c.8-1.1 3.9 6.1.7 14.2-3.2 8.4-12.8 17.8-18.3 22.9-10.8 10.1-30.6 29-24.3 45.7"/>
   </g>
  </g>
  <g stroke="#000">
   <g stroke-width="2.8125">
    <path d="m421.4 336.8c11.3 1.3 8.8 6.5 9.1 11"/>
    <path d="m393.2 414c-2.7 4.9-3.8 12 2.3 14.5"/>
    <path d="m385.4 415.4c-.1 5.7 2.9 11.5 4.9 13.1"/>
   </g>
   <g stroke-linejoin="round" stroke-width="5.625">
    <path d="m206.2 431.1c23.7-.9 46-26.2 65.4-26.9 18.4-.5 27.2 26.5 39.6 27.6 4.3.1 9.4-2.9 16.1-11l20.7-25.5"/>
    <ellipse cx="-85.121803" cy="451.10077" rx="25.728558" ry="20.371416" transform="matrix(.79083574 -.61202846 .61202846 .79083574 0 0)"/>
    <path d="m202.8 431.2-68.7-.3"/>
   </g>
  </g>
 </g>
</svg>
