<svg height="210mm" viewBox="0 0 1052.4 744.1" width="297mm" xmlns="http://www.w3.org/2000/svg">
 <g fill="none" stroke-linecap="round">
  <g transform="translate(0 -308.26772)">
   <path d="m57.6 742.2h948.8" stroke="#969696" stroke-width="1.875"/>
   <g stroke="#000" stroke-dasharray="3.75 7.5" stroke-miterlimit="2" stroke-width=".9375">
    <path d="m58.3 844.1h948.8"/>
    <path d="m58.3 641.8h948.8"/>
    <path d="m58.3 540.6h948.8"/>
   </g>
  </g>
  <g stroke="#000" stroke-linejoin="round">
   <path d="m610.8 433c-30.5 15.6-110.6 79.5-81.8 98.7 9.9 5.5 23.1-1.1 49.3-43.2l89.2-152.4" stroke-width="5.625"/>
   <g stroke-width="5.624999">
    <path d="m420.3 428.5c9.8 5.3 16 1 34.7-7.3 13.2-5.9 27.5-13.8 39.1-18.4 12.3-4.8 23.5-7.9 30.1-6.7 18.7 3.5 19.4 45.5 45.1 32.8"/>
    <path d="m510 397.5c3.9-1 5.9-1 8.4-.3 5.9 1.5 10.1 7.8 16.8 22.4 5 11 11.9 12 18.4 12 2.2 0 5.2 0 7.5-.2"/>
    <path d="m522.3 397.8c8.1 7.1 6.1 1.9 24.1 29.3"/>
   </g>
   <g stroke-width="5.625">
    <path d="m667.5 336.1c-69.1 71-83.1 85.6-98.2 92.8"/>
    <path d="m400.7 333.2c37.2-4.7 74.7-21.9 95.2-41.9 21.5-21 23.7-52-3.7-56.2-15.2-2.3-40.6 11.9-87.8 89.8-20.1 34.2-31.6 59-36.7 76-6.4 21.4-1.1 29.9 14.8 30.1 11.7.2 30.1-1.1 39.2-3"/>
    <ellipse cx="597.22504" cy="17.904303" rx="4.609393" ry="6.862875" transform="matrix(.72846687 .68508103 -.68508103 .72846687 0 0)"/>
   </g>
   <path d="m610.8 433 95.9-46.1 21.3 44.2" stroke-width="5.624999"/>
  </g>
 </g>
</svg>
