<svg height="210mm" viewBox="0 0 1052.4 744.1" width="297mm" xmlns="http://www.w3.org/2000/svg">
 <g fill="none" stroke-linecap="round">
  <g transform="translate(0 -308.26772)">
   <path d="m57.6 742.2h948.8" stroke="#969696" stroke-width="1.875"/>
   <g stroke="#000" stroke-dasharray="3.75 7.5" stroke-miterlimit="2" stroke-width=".9375">
    <path d="m58.3 844.1h948.8"/>
    <path d="m58.3 641.8h948.8"/>
    <path d="m58.3 540.6h948.8"/>
   </g>
  </g>
  <g stroke="#000" stroke-linejoin="round" stroke-width="5.625">
   <path d="m435.7 383.5 24.2 47.9"/>
   <path d="m381 336.6c-13.7 23-33.6 61.1-38.8 72-6.8 14.3 2.4 23.8 16.6 22.9 21.1-.2 64.7-38.5 77-48"/>
   <path d="m207.8 489.6c-3.7 5.6-5.7 12.5-6.2 17.7-.7 7.4 1.5 13.5 3.7 16.3 1.6 2 3.9 4.9 8 6.9 3 1.4 7.5 2.3 11 2.2 4.1-.2 9.2-2 14-5.5 3.8-2.8 9-8.4 12.2-12.2 8.5-9.7 130.4-178.3 130.4-178.3"/>
   <path d="m459.9 431.3c81.9-46.2 322-196.4 322-196.4"/>
   <path d="m805.5 375.7c60.1-75.3-82.8-56.1-23.6-140.8"/>
  </g>
 </g>
</svg>
