<svg height="210mm" viewBox="0 0 1052.4 744.1" width="297mm" xmlns="http://www.w3.org/2000/svg">
 <g fill="none" stroke-linecap="round">
  <g transform="translate(0 -308.26772)">
   <path d="m57.6 742.2h948.8" stroke="#969696" stroke-width="1.875"/>
   <g stroke="#000" stroke-dasharray="3.75 7.5" stroke-miterlimit="2" stroke-width=".9375">
    <path d="m58.3 844.1h948.8"/>
    <path d="m58.3 641.8h948.8"/>
    <path d="m58.3 540.6h948.8"/>
   </g>
  </g>
  <g stroke="#000" stroke-linejoin="round">
   <path d="m367.1 333.8c54.3-11 97.7-78.3 91.4-95-3.4-8.9-18.1-3.3-40.1 20.9-13.4 14.8-29.4 36.3-47.2 65.8-29 50.1-38.3 77.4-36.2 92.1 1.7 11.3 12.2 13.6 21.7 13.9 4.5.1 8.7-.1 12.5-.4" stroke-width="5.625"/>
   <ellipse cx="561.64929" cy="55.124512" rx="4.609393" ry="6.862875" stroke-width="5.625" transform="matrix(.72846687 .68508103 -.68508103 .72846687 0 0)"/>
   <path d="m429.3 483.9s29.9-59.2 34.5-70.3c3.8-9.5 2-16.5-3.1-20.6-3.7-2.9-9.1-4.7-15.2-4.1-17.1 1.7-30.9 16.6-44.2 27.3-11.3 9.2-21.5 16.5-32.1 14.8" stroke-width="5.624999"/>
   <g stroke-width="5.625">
    <ellipse cx="635.66632" cy="48.462334" rx="4.609393" ry="6.862875" transform="matrix(.72846687 .68508103 -.68508103 .72846687 0 0)"/>
    <path d="m431.6 476.3c15.2-3.4 31.3-28.2 46.7-45.1 16.3-17.8 23.8-25.1 37.1-25 19.3.1 17.2 25.3 37.4 25.1 21.3-.2 49-66.3 68.2-95.1"/>
    <path d="m670.3 336.6c-17.8 36.3-67.3 71-49.3-.3"/>
   </g>
  </g>
 </g>
</svg>
