<svg height="210mm" viewBox="0 0 1052.4 744.1" width="297mm" xmlns="http://www.w3.org/2000/svg">
 <g fill="none" stroke-linecap="round">
  <g transform="translate(0 -308.26772)">
   <path d="m57.6 742.2h948.8" stroke="#969696" stroke-width="1.875"/>
   <g stroke="#000" stroke-dasharray="3.75 7.5" stroke-miterlimit="2" stroke-width=".9375">
    <path d="m58.3 844.1h948.8"/>
    <path d="m58.3 641.8h948.8"/>
    <path d="m58.3 540.6h948.8"/>
   </g>
  </g>
  <g stroke="#010000">
   <g stroke-linejoin="round">
    <path d="m473.9 383.5-47.8 86.7" stroke-width="6.5625"/>
    <path d="m423.3 403.5 41.3-20.3-39 72.4c-8.4 15.5 4.1 27.8 21.5 22.2" stroke-width="5.625"/>
    <path d="m469.3 383.5-44.7 81.9" stroke-width="6.5625"/>
   </g>
   <path d="m431.1 464.1c-1.6 4.1-2.6 6.5.8 11.9" stroke-width="3.75"/>
  </g>
  <g stroke-linejoin="round">
   <path d="m473.9 383.5-9.3-.4" stroke="#010000" stroke-width="6.5625"/>
   <g stroke-width="5.625">
    <path d="m447.1 477.8c40.7-7.6 65.8-42.7 88.3-66.3" stroke="#000"/>
    <path d="m390.7 349.8c4.3-3.9 9.7-7.4 17.8-10.9 24.8-6.9 35 2.5 12.3 40.5l-29.8 52.1" stroke="#000"/>
    <path d="m395.3 423.6c-.1-5-.2-8.8-1.4-9.8-1.3-1.2-3.1-1.4-4-.7-2.4 1.8-2.1 3-1.9 4.9.4 3.5 2.1 2.2 5.4 1.5 4.1-2.1 4.1-4.2 7.1-4.8 4.4-.9 22.8-11.3 22.8-11.3" stroke="#000200"/>
   </g>
   <path d="m392.2 414.8c-.1-.2-.3-.4-.4-.5 0 0-.1-.1-.2-.1-.3-.2-.8-.1-1.3.3-1 .8-1 2.4-1 3.1.1 1.5 1.6 1.9 2.4.7.5-.8.9-1.9.6-2.9 0-.1 0-.1-.1-.2 0-.1-.1-.2-.1-.2-.1-.2-.2-.3-.3-.5" stroke="#000200" stroke-width="3.586069"/>
   <g stroke="#000" stroke-width="5.625">
    <path d="m343.5 336.8-42.4 73.1c-11.9 20.5 8.4 28.4 31.3 14.4 15.7-9.1 42.7-57.9 58.3-74.5"/>
    <path d="m535.4 411.4c18.9-21.2 36.6-40 48.2-52.8"/>
    <path d="m583.6 358.6c15-14.2 31.6-29.3 48-21.3 7.6 4.3 8 17.2-6 41.5l-29.8 52.1"/>
    <path d="m595.8 430.9s63.4-32.7 80.6-29.5 16 46.2 45.6 21.5"/>
   </g>
  </g>
 </g>
</svg>
