<svg height="210mm" viewBox="0 0 1052.4 744.1" width="297mm" xmlns="http://www.w3.org/2000/svg">
 <g fill="none" stroke-linecap="round">
  <g transform="translate(0 -308.26772)">
   <path d="m57.6 742.2h948.8" stroke="#969696" stroke-width="1.875"/>
   <g stroke="#000" stroke-dasharray="3.75 7.5" stroke-miterlimit="2" stroke-width=".9375">
    <path d="m58.3 844.1h948.8"/>
    <path d="m58.3 641.8h948.8"/>
    <path d="m58.3 540.6h948.8"/>
   </g>
  </g>
  <g stroke="#000" stroke-width="5.625">
   <path d="m599.4 334.7-36.8 73.1c-12.6 25.1 23.6 37.2 51.9-1.5" stroke-linejoin="round"/>
   <path d="m614.6 406.3 102.4-122-55.8 97.2" stroke-linejoin="round"/>
   <path d="m599.4 334.7-133.8 198.2"/>
   <g stroke-linejoin="round">
    <path d="m386.8 336.1c-47.8 12.5-89.4 106-47.1 93.4 14.2-5.6 25.5-7 65.3-51.1"/>
    <path d="m405.1 378.3 34.3-43.3 27.8 46.4"/>
    <path d="m467.2 381.4c82.8-74.3 104.4-88.7 119.7-107 9-10.8 16.7-22.4 16.2-29.9-1.1-16.6-10.3-12.5-16.9-8.2-10.9 8.2-46.9 73.5-66.8 108.5-38.2 67.2-86.1 151.5-106.3 187.7"/>
    <ellipse cx="16.958775" cy="642.64697" rx="25.728558" ry="20.371416" transform="matrix(.79083574 -.61202846 .61202846 .79083574 0 0)"/>
   </g>
  </g>
 </g>
</svg>
