<svg height="210mm" viewBox="0 0 1052.4 744.1" width="297mm" xmlns="http://www.w3.org/2000/svg">
 <g fill="none" stroke-linecap="round">
  <g transform="translate(0 -308.26772)">
   <path d="m57.6 742.2h948.8" stroke="#969696" stroke-width="1.875"/>
   <g stroke="#000" stroke-dasharray="3.75 7.5" stroke-miterlimit="2" stroke-width=".9375">
    <path d="m58.3 844.1h948.8"/>
    <path d="m58.3 641.8h948.8"/>
    <path d="m58.3 540.6h948.8"/>
   </g>
  </g>
  <g stroke="#000">
   <g stroke-linejoin="round" stroke-width="5.625">
    <path d="m197.3 430.8 51.9-48 31.4 47.9 43.5-47.3"/>
    <path d="m249.2 382.9 24 48"/>
    <path d="m256.8 382.9 23.8 47.9"/>
    <path d="m252.9 382.7 24 48"/>
   </g>
   <path d="m249.6 381.8h7.1" stroke-width="3.75"/>
   <g stroke-linejoin="round" stroke-width="5.625">
    <path d="m323.9 383.8 46.5-47.8-39 72.4c-8.4 15.5 3.5 25.6 20 21.7 2.8-.6 11.2-4.9 16.2-8.1l22.1-14.3"/>
    <path d="m389.7 407.6 188.1-134"/>
    <ellipse cx="289.80249" cy="549.54291" rx="25.728558" ry="20.371416" transform="matrix(.79083574 -.61202846 .61202846 .79083574 0 0)"/>
   </g>
   <path d="m273.2 431.8h7.1" stroke-width="3.75"/>
   <g stroke-linejoin="round" stroke-width="5.625">
    <path d="m467 430.8c15.4-42.9 57.9-83.7 109.7-93.5 52-9.9 75.5 19.7 53 92.3"/>
    <path d="m629.7 430 196-93.2"/>
    <ellipse cx="439.03836" cy="790.74042" rx="25.728558" ry="20.371416" transform="matrix(.79083574 -.61202846 .61202846 .79083574 0 0)"/>
   </g>
  </g>
 </g>
</svg>
