<svg height="210mm" viewBox="0 0 1052.4 744.1" width="297mm" xmlns="http://www.w3.org/2000/svg">
 <g fill="none" stroke-linecap="round">
  <g transform="translate(0 -308.26772)">
   <path d="m57.6 742.2h948.8" stroke="#969696" stroke-width="1.875"/>
   <g stroke="#000" stroke-dasharray="3.75 7.5" stroke-miterlimit="2" stroke-width=".9375">
    <path d="m58.3 844.1h948.8"/>
    <path d="m58.3 641.8h948.8"/>
    <path d="m58.3 540.6h948.8"/>
   </g>
  </g>
  <g stroke="#000" stroke-linejoin="round" stroke-width="5.625">
   <path d="m196.7 383.5 21.8 47.4 241.5-92.8-55.9 92.8 78.2-46.9"/>
   <path d="m482.3 384 21.8 47.4"/>
   <path d="m579.3 347.7c23.7-19.2 60.9-14.6 37.5 14.4-27.4 33.8-45.5 50.2-39.4 63.9 4.2 9.6 40.7 3.7 57.6.3l34.6-6.8"/>
   <path d="m669.6 419.4c44.9-10.8 104.6-25.8 115.6-24.8 18.3 1.7 5.7 71.1 51.4 15"/>
  </g>
 </g>
</svg>
