<svg height="210mm" viewBox="0 0 1052.4 744.1" width="297mm" xmlns="http://www.w3.org/2000/svg">
 <g fill="none" stroke-linecap="round">
  <g transform="translate(0 -308.26772)">
   <path d="m57.6 742.2h948.8" stroke="#969696" stroke-width="1.875"/>
   <g stroke="#000" stroke-dasharray="3.75 7.5" stroke-miterlimit="2" stroke-width=".9375">
    <path d="m58.3 844.1h948.8"/>
    <path d="m58.3 641.8h948.8"/>
    <path d="m58.3 540.6h948.8"/>
   </g>
  </g>
  <g stroke="#000">
   <g stroke-width="5.625">
    <g stroke-linejoin="round">
     <path d="m779.9 295.8c3.7 10.5-2.8 24.6-14.3 31.3-11.6 6.8-23.9 3.7-27.6-6.8s2.8-24.6 14.3-31.3c11.6-6.8 23.9-3.7 27.6 6.8z"/>
     <path d="m452.8 336.8 22.1 46.2"/>
     <path d="m460.1 336.7 22.1 46.2"/>
    </g>
    <path d="m452.8 336.8 7.2-.1"/>
    <path d="m456.8 338.2 21 43.9" stroke-linejoin="round"/>
    <path d="m474.9 383.1 7.2-.1"/>
    <path d="m280.2 335.7-38.4 72.5c-7.4 14 2.6 23.5 16.7 22.9 28.5-.2 66-24.2 90.7-39.7 31.4-19.8 56.6-41.8 48.3-52.9-4.8-6.5-33.2-6-55 36.3-22 42.7-16.7 56.7-.5 56.9 25.6.3 72.6-52.3 110.7-94.9" stroke-linejoin="round"/>
   </g>
   <path d="m482.1 382.9c49-45.2 221.3-184.5 178.4-196.5-14.8-4.1-42.6 13.7-89.8 91.6-25.2 43.5-35.6 71.1-36.7 87-.6 8.5 1.5 13.6 5.3 16.1 2 1.3 4.8 1.4 7.4 1.5 28.2.7 60.9-30.8 81.8-30.9 16-.6 16.3 30.5 32.6 30.7 13.4.1 26.7-17 35.9-28.1 7.5-9.1 37.4-44.4 45.3-55.9" stroke-linejoin="round" stroke-width="5.625002"/>
  </g>
 </g>
</svg>
