<svg height="210mm" viewBox="0 0 1052.4 744.1" width="297mm" xmlns="http://www.w3.org/2000/svg">
 <g fill="none" stroke-linecap="round">
  <g transform="translate(0 -308.26772)">
   <path d="m57.6 742.2h948.8" stroke="#969696" stroke-width="1.875"/>
   <g stroke="#000" stroke-dasharray="3.75 7.5" stroke-miterlimit="2" stroke-width=".9375">
    <path d="m58.3 844.1h948.8"/>
    <path d="m58.3 641.8h948.8"/>
    <path d="m58.3 540.6h948.8"/>
   </g>
  </g>
  <g stroke="#000" stroke-linejoin="round">
   <path d="m529.5 427.3 102.6-125.3" stroke-width="5.625"/>
   <path d="m632.1 302c24.3-33 69.2-34.6 37.2 20l-33 56.2" stroke-width="5.625"/>
   <g stroke-width="4.30181">
    <path d="m708.3 335.5c.8-.5-23.5 43.2-23.5 43.2"/>
    <path d="m713.7 337.7-23.1 40.9"/>
    <path d="m694 378.6-9.1.2"/>
    <path d="m718.9 335.4-25 43.2"/>
    <path d="m718.9 335.4-10.8-.1"/>
    <path d="m712.2 336.3-23.1 40.9"/>
   </g>
   <g stroke-width="5.625">
    <path d="m708.3 335.9-72 42.3"/>
    <path d="m527.8 419.4c.8.1 1.4.2 1.9.5.2.1.3.2.5.3.9.7 1.3 2 .8 4-1 3.9-5.4 6.1-7.5 6.9-4.3 1.6-7.6-2-5.1-5.9 1.6-2.4 4.2-5.1 7.4-5.7.2 0 .4-.1.7-.1s.5-.1.8-.1c.6 0 1.2.1 1.9.3"/>
    <path d="m368.8 335.2-42.4 73.1c-12.3 21.2 14.8 33.7 40.7 10.9 3.8-3.4 10.5-10.1 17.5-19.4"/>
    <path d="m384.6 399.8c16.9-17.9 26.9-18.3 33.4-5.7 6.5 12.7 5.3 17.1 12.3 27.2 20.1 29.1 43.1-26.4 34.5-34.3-9.6-8.9-31.9 5.2-51.8 41.3-32 58.8-14.2 61.2 10.3 47.3 3.2-1.8 6.4-3.9 9.7-6.1"/>
    <path d="m484.4 436.1 38.4-4.5"/>
    <ellipse cx="101.12848" cy="657.72961" rx="25.728558" ry="20.371416" transform="matrix(.79083574 -.61202846 .61202846 .79083574 0 0)"/>
    <path d="m471.6 440.9s-30 22.5-38.7 28.5"/>
    <path d="m738.4 420.2c-1.8 1.1-26.6 17.8-28.5 19.1-32.5 22-71.6 74.4-63.5 89.5 4.9 9.2 28.4 7.7 48.3-24.3 8.5-13.7 17.7-31 19.9-61.8 5-69.6 49.8-120.3 68-104.4 10.9 9.5-23.7 40.3-87.8 39.6"/>
    <path d="m824.1 345.4c-23.6 28.1-60.9 57.7-85.7 74.8"/>
    <path d="m823.4 336c.6-.1 1.2-.2 1.7-.1.2 0 .3.1.5.1.9.3 1.5 1.3 1.6 3 .1 3.3-2.8 6.2-4.3 7.3-3.1 2.3-6.5.2-5.4-3.4.6-2.3 2.1-5 4.5-6.3.2-.1.3-.2.5-.2.2-.1.4-.2.6-.2.5-.1 1-.2 1.5-.3"/>
   </g>
  </g>
 </g>
</svg>
