<svg height="210mm" viewBox="0 0 1052.4 744.1" width="297mm" xmlns="http://www.w3.org/2000/svg">
 <g fill="none" stroke-linecap="round">
  <g transform="translate(0 -308.26772)">
   <path d="m57.6 742.2h948.8" stroke="#969696" stroke-width="1.875"/>
   <g stroke="#000" stroke-dasharray="3.75 7.5" stroke-miterlimit="2" stroke-width=".9375">
    <path d="m58.3 844.1h948.8"/>
    <path d="m58.3 641.8h948.8"/>
    <path d="m58.3 540.6h948.8"/>
   </g>
  </g>
  <g stroke="#000">
   <g stroke-width="5.625">
    <path d="m439 421.9c.6.1 1.2.2 1.6.4.1.1.3.2.4.2.8.6 1.1 1.6.6 3.3-.8 3.2-4.5 5-6.2 5.7-3.6 1.3-6.2-1.6-4.2-4.8 1.3-2 3.5-4.2 6.1-4.7.2 0 .4-.1.5-.1h.7c.5 0 1 .1 1.5.2" stroke-linejoin="round"/>
    <path d="m436.8 431.1c22-7.9 61.9-32.1 93-61 39.6-36.8 70-72.4 52-78.6-14.6-5-42.6 12.2-89.8 90.1-60.3 104.2-35 118.2-1.1 97.4" stroke-linejoin="round"/>
    <path d="m565.3 296.1c-48 60-85.6 120.6-108.4 181.8"/>
   </g>
   <path d="m554.3 306.2c-38.3 44.9-72.9 96.9-94.8 156.9" stroke-width="7.5"/>
   <path d="m583.5 293.5c-14-7.4-25.3 13-27.8 15.9" stroke-width="3.75"/>
   <g stroke-width="5.625">
    <path d="m462.5 463.8c-6.1 21.8-1.8 23 13.1 22.7"/>
    <g stroke-linejoin="round">
     <path d="m490.9 479c7.7-4 25.6-22.9 43.7-51.3"/>
     <path d="m534.6 427.8c29.8-40.7 44.8-47.4 53.4-30.4 6.5 12.7 4 18.2 12.3 27.2 15.9 17.3 43.8-27.8 34.5-34.3-6.3-4.4-25.9 3.2-49.4 42-40.9 67-9.2 60 19.8 38.9"/>
    </g>
   </g>
  </g>
 </g>
</svg>
