<svg height="210mm" viewBox="0 0 1052.4 744.1" width="297mm" xmlns="http://www.w3.org/2000/svg">
 <g fill="none" stroke-linecap="round">
  <g transform="translate(0 -308.26772)">
   <path d="m57.6 742.2h948.8" stroke="#969696" stroke-width="1.875"/>
   <g stroke="#000" stroke-dasharray="3.75 7.5" stroke-miterlimit="2" stroke-width=".9375">
    <path d="m58.3 844.1h948.8"/>
    <path d="m58.3 641.8h948.8"/>
    <path d="m58.3 540.6h948.8"/>
   </g>
  </g>
  <g stroke="#000" stroke-linejoin="round">
   <g stroke-width="5.625">
    <path d="m372.8 431.3c43.9-15.9 71.5-94.7 46.6-94.9-7.2-.1-18.9 6.5-35.8 23.2"/>
    <path d="m481.5 431.7 72.5-95.8"/>
    <path d="m372.8 431.3c-4.9 1.5-6.9-1.1-3.9-4 7.4-7.3 90.7-40.5 90.7-40.5"/>
   </g>
   <path d="m459.6 386.8 22 44.9" stroke-width="5.624999"/>
   <g stroke-width="5.625">
    <path d="m554.1 336s-29.9 59.2-34.5 70.3c-2.6 6.3-2.6 11.4-1 15.3 1.4 3.5 4.1 6 7.3 7.5 12.1 6.4 38.9-1.8 45.6-3.8"/>
    <ellipse cx="203.35851" cy="667.95819" rx="25.728559" ry="20.371418" transform="matrix(.79083574 -.61202846 .61202846 .79083574 0 0)"/>
    <path d="m704.8 234.8c-12.8 3.1-25 21.3-32.6 33.1-8.2 13.9-24.1 41.7-40.5 70.5-25.6 44.8-41.8 72.8-41.8 72.8"/>
   </g>
   <path d="m495.3 562.7a5.9 5.9 0 0 1 -5.9 5.9 5.9 5.9 0 0 1 -5.9-5.9 5.9 5.9 0 0 1 5.9-5.9 5.9 5.9 0 0 1 5.9 5.8h-5.9z" stroke-width="6.571438" transform="matrix(.86496534 -.5018316 .5018316 .86496534 0 0)"/>
  </g>
 </g>
</svg>
