<svg height="210mm" viewBox="0 0 1052.4 744.1" width="297mm" xmlns="http://www.w3.org/2000/svg">
 <g fill="none" stroke-linecap="round">
  <g transform="translate(0 -308.26772)">
   <path d="m57.6 742.2h948.8" stroke="#969696" stroke-width="1.875"/>
   <g stroke="#000" stroke-dasharray="3.75 7.5" stroke-miterlimit="2" stroke-width=".9375">
    <path d="m58.3 844.1h948.8"/>
    <path d="m58.3 641.8h948.8"/>
    <path d="m58.3 540.6h948.8"/>
   </g>
  </g>
  <g stroke="#000" stroke-linejoin="round">
   <path d="m361.8 431.6c39.3-47.3 52-60.7 67.8-74.1 12.7-10.7 29.9-20.2 42.9-21.3 4.4-.4 8.5-.1 12.1.8 3.7.9 7.1 2.4 9.9 4.6 8.7 6.7 12.2 22.6 7.4 40.6" stroke-width="5.692855"/>
   <path d="m456.3 235.5-94.5 196.1" stroke-width="5.624999"/>
   <path d="m501.9 382.2 46.3-38" stroke-width="5.625"/>
   <path d="m581.3 347a19.2 25.1 41.6 0 1 -14.3 31.3 19.2 25.1 41.6 0 1 -27.6-6.8 19.2 25.1 41.6 0 1 14.3-31.3 19.2 25.1 41.6 0 1 27.6 6.8z" stroke-width="5.625"/>
   <path d="m558 338.1 104-52.4 21.3 45.2" stroke-width="5.624999"/>
  </g>
 </g>
</svg>
