<svg height="210mm" viewBox="0 0 1052.4 744.1" width="297mm" xmlns="http://www.w3.org/2000/svg">
 <g fill="none" stroke-linecap="round">
  <g transform="translate(0 -308.26772)">
   <path d="m57.6 742.2h948.8" stroke="#969696" stroke-width="1.875"/>
   <g stroke="#000" stroke-dasharray="3.75 7.5" stroke-miterlimit="2" stroke-width=".9375">
    <path d="m58.3 844.1h948.8"/>
    <path d="m58.3 641.8h948.8"/>
    <path d="m58.3 540.6h948.8"/>
   </g>
  </g>
  <g stroke-linejoin="round">
   <path d="m597.3 313c12.6-12.5 21.5-21.1 37.6-24.3 15.8-3.1 29.3 9.2 10.9 31.9-27.4 33.8-122 152-101.9 163.9 25.4 15 69.5-71.3 74.6-80.8 0 0 14.9-33 7.3-41.2-12.8-13.7-38.3-1.1-40.8 9.8-3.6 15.4 11.9 15.5 28.2 9.2" stroke="#010000" stroke-width="5.625"/>
   <g stroke="#000">
    <g stroke-width="5.625">
     <path d="m495.5 440.6c34.6-45.8 67.1-81.8 101.7-127.6"/>
     <path d="m613.2 381.6c12.9-4 64-45.7 64-45.7"/>
     <path d="m679.2 479.7c28.5-22.6 35.5-31.4 39-55.7 1.8-12.5-2.6-28-12.8-37.6-5-4.7-11-8.4-17-11.7-8.5-4.8-12.6-5.2-17.2-11.5s-6.2-18.4 6.1-27.5"/>
     <path d="m367.7 336.6-55.4 94.7 112.3-95.8-52.1 96.3"/>
    </g>
    <path d="m372.4 431.7c48.5-32.6 71.7-36.4 82.8-36.1 12.8.3 15.4 33.8 35.4 34.8" stroke-width="6.509767"/>
    <path d="m434 399c7.5-1.8 19.5-3.9 27.4 19.2 5.6 16.4 22.4 12.2 29.3 12.3" stroke-width="6.509767"/>
    <path d="m454.5 398.5c0 .2 15.1 23.4 17.6 27.4" stroke-width="9.764649"/>
    <g stroke-width="5.625">
     <ellipse cx="124.71735" cy="672.09113" rx="25.728558" ry="20.371416" transform="matrix(.79083574 -.61202846 .61202846 .79083574 0 0)"/>
     <path d="m513.9 432-23.2-1.4"/>
    </g>
   </g>
  </g>
 </g>
</svg>
