<svg height="210mm" viewBox="0 0 1052.4 744.1" width="297mm" xmlns="http://www.w3.org/2000/svg">
 <g fill="none" stroke-linecap="round">
  <g transform="translate(0 -308.26772)">
   <path d="m57.6 742.2h948.8" stroke="#969696" stroke-width="1.875"/>
   <g stroke="#000" stroke-dasharray="3.75 7.5" stroke-miterlimit="2" stroke-width=".9375">
    <path d="m58.3 844.1h948.8"/>
    <path d="m58.3 641.8h948.8"/>
    <path d="m58.3 540.6h948.8"/>
   </g>
  </g>
  <g stroke="#000" stroke-linejoin="round" stroke-width="5.625">
   <path d="m399.2 410.1c-37.9 25.5-77.6 53.6-90.6 74.4-12.2 19.6-18.8 37.6-14.7 45 2.9 5.3 34.7 12.4 62.3-63.3 15.8-47.4 16.5-113.3 70.8-131.6"/>
   <path d="m399.2 410.1 36.7-26.1 24 48"/>
   <path d="m460 431.5 85.2-95.4"/>
   <path d="m545.2 336.1c-9.2 16.4-18.5 33-28.1 49.5-4.8 8.3-9.6 17-14.2 26.2-8.6 14.9.4 20.3 13.3 19.7"/>
   <path d="m516.3 431.5c15.2-.3 56.6-30.2 73.4-31 16-.6 21.6 31 32.6 30.7 7.2-.2 12.4-7.6 16.7-13"/>
  </g>
 </g>
</svg>
