<svg height="210mm" viewBox="0 0 1052.4 744.1" width="297mm" xmlns="http://www.w3.org/2000/svg">
 <g fill="none" stroke-linecap="round">
  <g transform="translate(0 -308.26772)">
   <path d="m57.6 742.2h948.8" stroke="#969696" stroke-width="1.875"/>
   <g stroke="#000" stroke-dasharray="3.75 7.5" stroke-miterlimit="2" stroke-width=".9375">
    <path d="m58.3 844.1h948.8"/>
    <path d="m58.3 641.8h948.8"/>
    <path d="m58.3 540.6h948.8"/>
   </g>
  </g>
  <g stroke-linejoin="round" stroke-width="5.625">
   <path d="m453 360.7-156.2 173.2" stroke="#000"/>
   <path d="m537.8 416.3c-12.2 7.6-24.9 15.1-33.2 15-14.7.1-27.2-27.1-43-28.2-4.5-.2-12.4 1.2-19 7.9-20.5 20.8-41.8 50.7-56.4 75-5.7 11.1-30.4 44.8-8.1 45.9 8.8.3 24.4-7.4 50-43.4 26.9-36.9 53.2-75.3 67.9-118.3 15.5-30.1 0-54.8-43-9.7" stroke="#060000"/>
   <path d="m537.8 416.3c43.3-25 86.6-50.1 130-75.1l184.9-106.8" stroke="#000001"/>
  </g>
 </g>
</svg>
