<svg height="210mm" viewBox="0 0 1052.4 744.1" width="297mm" xmlns="http://www.w3.org/2000/svg">
 <g fill="none" stroke-linecap="round">
  <g transform="translate(0 -308.26772)">
   <path d="m57.6 742.2h948.8" stroke="#969696" stroke-width="1.875"/>
   <g stroke="#000" stroke-dasharray="3.75 7.5" stroke-miterlimit="2" stroke-width=".9375">
    <path d="m58.3 844.1h948.8"/>
    <path d="m58.3 641.8h948.8"/>
    <path d="m58.3 540.6h948.8"/>
   </g>
  </g>
  <g stroke-linejoin="round">
   <path d="m376.6 366.4c15.2-17.3 27.8-25.1 37.8-28 19.1-5.5 37.7 4.1 16.9 29.7-27.4 33.8-122 152-101.9 163.9 25.4 15 69.5-71.3 74.6-80.8 0 0 14.9-33.1 7.3-41.2-12.8-13.7-38.3-1.1-40.8 9.8-2.7 11.9 5.8 14.6 17.3 12.4 17.7-3.2 27.2-8.6 42.8-22.7" stroke="#010000" stroke-width="5.625"/>
   <g stroke="#000">
    <g stroke-width="5.625">
     <path d="m328.6 431.4s38.1-53.2 48-65.1"/>
     <path d="m481.2 357.2c-13.4 13.8-40.2 42.7-50.6 52.2"/>
     <path d="m481.2 357.2c16.7-15.2 29.5-20.8 44.5-21.9 18.2-1.3 35.6 9.8 34.9 48.7-.7 35.5 16.9 47.5 35.5 47.5"/>
    </g>
    <path d="m530.7 335.3c12.3-1.3 35.4 13.7 35.2 45.3-.2 29.7 8.2 52.5 28.3 50.7" stroke-width="5.592409"/>
    <path d="m530.7 335.3c17-.9 25 17.7 24.8 49.3-.2 29.7 15 45.7 38.7 46.9" stroke-width="5.592409"/>
    <path d="m596.1 431.4c24 .4 70.5-34.5 89.5-35.5 18.1-.7 24.5 35.1 36.9 34.7 8.1-.2 13.5-5.1 20.8-10.9" stroke-width="5.625"/>
   </g>
  </g>
 </g>
</svg>
