<svg height="210mm" viewBox="0 0 1052.4 744.1" width="297mm" xmlns="http://www.w3.org/2000/svg">
 <g fill="none" stroke="#000" stroke-linecap="round">
  <g transform="translate(0 -308.26772)">
   <path d="m57.6 742.2h948.8" stroke-width="1.875"/>
   <g stroke-dasharray="3.75 7.5" stroke-miterlimit="2" stroke-width=".9375">
    <path d="m58.3 844.1h948.8"/>
    <path d="m58.3 641.8h948.8"/>
    <path d="m58.3 540.6h948.8"/>
   </g>
  </g>
  <ellipse cx="-70.813072" cy="-582.97577" rx="25.728558" ry="20.371416" stroke-linejoin="round" stroke-width="5.625" transform="matrix(.60206512 -.79844699 -.79844699 -.60206512 0 0)"/>
  <path d="m433.6 384.9c-9.3-.2-14.6.6-21.9 6.6-4.4 3.7-8.2 8.9-10.9 16.1" stroke-width="5.624961"/>
  <path d="m438.9 388.4c-6.9-2-6.4-1.7-11.6-.6-7.5 1.7-13.5 6.3-18.5 12.7-2.6 3.3-5 7-7.2 11" stroke-width="6.599955"/>
  <path d="m407.2 405.9c-3.6 5.3-5.6 10.4-3.3 16.3" stroke-width="2.849979"/>
  <path d="m443.7 399.2c-1.4-6.2-3.4-8.3-8.1-9.6-.9-.2-2.9-.9-5.9-.3" stroke-width="2.849979"/>
  <g stroke-linejoin="round">
   <path d="m340.6 489.6c-3.7 5.6-5.7 12.5-6.2 17.7-.7 7.4 1.5 13.5 3.8 16.3 2.8 3.4 6.9 8.8 19 9.1 9 .2 16.1-6.7 22.9-15.7 9.7-13.1 14.7-21.2 21-32 3.4-5.5 20.6-34.7 38.9-65.8" stroke-width="5.624999"/>
   <g stroke-width="5.625">
    <path d="m580.4 429.5c-49.7.7-63.5 1.5-109.7 46.4-23.7 26.3-36.3 44.3-32.3 54.4 2.2 5.6 34.7 12.4 62.3-63.3 15.8-47.4 16.5-113.3 70.8-131.6"/>
    <g transform="matrix(.72846687 .68508103 -.68508103 .72846687 0 0)">
     <ellipse cx="716.0022" cy="-92.079018" rx="4.609393" ry="6.862874"/>
     <ellipse cx="700.39026" cy="-78.204277" rx="4.609393" ry="6.862874"/>
    </g>
   </g>
   <path d="m581.6 429.5c34.6 8.9 72.3-30 94.7-30.5 16.8-.4 20.5 31.5 33.7 31.7 8.5.1 14.1-6.5 18.3-10.8" stroke-width="5.624999"/>
   <path d="m430.6 428c26.2-12.6 118.8-91.6 140.9-92.6" stroke-width="5.625"/>
  </g>
 </g>
</svg>
