<svg height="210mm" viewBox="0 0 1052.4 744.1" width="297mm" xmlns="http://www.w3.org/2000/svg">
 <g fill="none" stroke-linecap="round">
  <g transform="translate(0 -308.26772)">
   <path d="m57.6 742.2h948.8" stroke="#969696" stroke-width="1.875"/>
   <g stroke="#000" stroke-dasharray="3.75 7.5" stroke-miterlimit="2" stroke-width=".9375">
    <path d="m58.3 844.1h948.8"/>
    <path d="m58.3 641.8h948.8"/>
    <path d="m58.3 540.6h948.8"/>
   </g>
  </g>
  <g stroke="#000" stroke-linejoin="round" stroke-width="5.625">
   <path d="m591.4 404.1c2.2-5.9 108-169 108-169"/>
   <path d="m615.9 386.4c1.6-.2 3.2-.2 4.8 0 .7.1 1.5.2 2.2.3.9.2 1.7.4 2.5.7s1.5.6 2.2.9c.6.3 1.2.6 1.8 1 .7.5 1.4 1 2.1 1.6s1.3 1.3 1.9 2.1c.9 1.1 1.6 2.4 2.1 3.7.7 1.6 1.1 3.3 1.3 5 .3 3.1-.1 6.5-1.3 9.7-1.8 4.9-5.2 9.7-10 13.4-5.7 4.4-12.4 6.6-18.4 6.4-5.8-.2-11-2.4-14.4-6.8-1.5-2-2.5-4.2-3.1-6.6-.3-1.2-.4-2.5-.4-3.8 0-1.6.1-3.2.5-4.9.2-.9.4-1.8.8-2.7.3-.8.6-1.7 1-2.5"/>
   <path d="m615.9 386.4c-9.2 0-178.9 30.7-241.8 41.5-28.3 4.8-43.5 5.9-50.6-5.9-2.1-3.4-4-7.6-4.7-13-.6-4.7-.7-10.1-.2-16 4.1-47.7 44.8-127.1 102.4-158.1"/>
  </g>
 </g>
</svg>
