<svg height="210mm" viewBox="0 0 1052.4 744.1" width="297mm" xmlns="http://www.w3.org/2000/svg">
 <g stroke-linecap="round">
  <g fill="none" stroke="#000" transform="translate(0 -308.26772)">
   <path d="m57.6 742.2h948.8" stroke-width="1.875"/>
   <g stroke-dasharray="3.75 7.5" stroke-miterlimit="2" stroke-width=".9375">
    <path d="m58.3 844.1h948.8"/>
    <path d="m58.3 641.8h948.8"/>
    <path d="m58.3 540.6h948.8"/>
   </g>
  </g>
  <g stroke-linejoin="round">
   <g fill="none" stroke-width="5.625">
    <path d="m360.5 415.5c1 .1 1.8.3 2.5.7.2.1.4.2.6.4 1.2.9 1.7 2.6 1 5.2-1.3 5.1-7.1 8-9.8 9-5.7 2-9.8-2.6-6.6-7.6 2-3.1 5.5-6.6 9.7-7.5.3-.1.6-.1.9-.1s.7-.1 1-.1c.8 0 1.6.1 2.4.3" stroke="#000"/>
    <path d="m471.9 334.2-55.8 97.2" stroke="#00000c"/>
    <path d="m471.9 334.2h-10.6" stroke="#00000a"/>
    <path d="m466.3 334.2-55.8 97.2" stroke="#00000c"/>
    <path d="m416.1 431.4h-10.6" stroke="#00000c"/>
    <path d="m354 431.3c23.1.1 39.2-25.1 107.4-97.1l-55.8 97.2 11-.1 104.2-48.2" stroke="#000"/>
    <path d="m520.6 383.1 20 47.9 31.9.1" stroke="#060000"/>
   </g>
   <g fill="#eb0000" fill-rule="evenodd" stroke="#000" transform="matrix(1.7715894 0 0 1.7715894 -712.88613 79.02903)">
    <path d="m732.1 185.5c.8.1 1.4.2 1.9.5.2.1.3.2.5.3.9.7 1.3 2 .8 4-1 3.9-5.4 6.1-7.5 6.9-4.3 1.6-7.6-2-5.1-5.9 1.6-2.4 4.2-5.1 7.4-5.7.2 0 .4-.1.7-.1h.8c.6 0 1.2.1 1.9.3" stroke-width="5.625"/>
    <path d="m729.3 188.3c.3 0 .6.1.9.2.1 0 .2.1.2.1.4.3.6.9.4 1.8-.4 1.7-2.4 2.8-3.3 3.1-1.9.7-3.4-.9-2.3-2.6.7-1.1 1.9-2.3 3.3-2.6h.3.4c.3 0 .6 0 .8.1" stroke-width="4.981044"/>
   </g>
   <g fill="none" stroke-width="5.625">
    <path d="m237.9 357.1c15.9-32 75.6-30.6 48.2 3.3-27.4 33.8-47.1 52.6-39.4 63.9 2.1 3.1 5.2 4.8 8.9 5.4 12 1.9 20.3 2.4 31.9 2.7" stroke="#000"/>
    <path d="m287.5 432.3c1 .1 1.8.3 2.5.7.2.1.4.2.6.4 1.2.9 1.7 2.6 1 5.2-1.3 5.1-7.1 8-9.8 9-5.7 2-9.8-2.6-6.6-7.6 2-3.1 5.5-6.6 9.7-7.5.3-.1.6-.1.9-.1s.7-.1 1-.1c.8 0 1.6.1 2.4.3" stroke="#030002"/>
    <path d="m277.7 435.5 67.3-50.2-56.7 94.9" stroke="#000"/>
    <path d="m358.5 429.6-70.2 50.6" stroke="#02000c"/>
    <g stroke="#000">
     <ellipse cx="299.51691" cy="687.44775" rx="27.325703" ry="21.636007" transform="matrix(.79083574 -.61202846 .61202846 .79083574 0 0)"/>
     <path d="m636.9 349.4s-37.9 72.3-59.8 81.6"/>
     <path d="m636.9 349.4c21.9-25.3 61.6-56.8 74-63.1 5.6-2.8 11.5-3.6 16.6-3.8 14.8-.5 23.6 8.5 8.5 27.1-28.6 35.4-47.6 52.5-41.3 66.8 2.6 6 11.2 6.5 20.8 6 16.6-.6 22.7-4 35.9 4.5"/>
     <ellipse cx="329.33032" cy="769.00977" rx="28.011555" ry="22.179054" transform="matrix(.79083574 -.61202846 .61202846 .79083574 0 0)"/>
    </g>
   </g>
  </g>
 </g>
</svg>
