<svg height="210mm" viewBox="0 0 1052.4 744.1" width="297mm" xmlns="http://www.w3.org/2000/svg">
 <g fill="none" stroke-linecap="round">
  <g transform="translate(0 -308.26772)">
   <path d="m57.6 742.2h948.8" stroke="#969696" stroke-width="1.875"/>
   <g stroke="#000" stroke-dasharray="3.75 7.5" stroke-miterlimit="2" stroke-width=".9375">
    <path d="m58.3 844.1h948.8"/>
    <path d="m58.3 641.8h948.8"/>
    <path d="m58.3 540.6h948.8"/>
   </g>
  </g>
  <g stroke-linejoin="round" stroke-width="5.625">
   <g stroke="#00000c">
    <path d="m521.3 383.2-55.8 97.2"/>
    <path d="m531.9 383.2-55.8 97.2"/>
    <path d="m531.9 383.2h-10.6"/>
    <path d="m526.4 383.2-55.8 97.2"/>
    <path d="m476.1 480.4h-10.6"/>
   </g>
   <path d="m491.6 337.5-56.7 94.9 86.5-49.2" stroke="#0a0000"/>
   <path d="m476.1 480.4c29.5-23 52-44.2 79-45.5 24-1 36.2 45.1 52.6 44.6 10.8-.3 18.5-11.3 25.1-19.4" stroke="#000"/>
  </g>
 </g>
</svg>
