<svg height="210mm" viewBox="0 0 1052.4 744.1" width="297mm" xmlns="http://www.w3.org/2000/svg">
 <g fill="none" stroke-linecap="round">
  <g transform="translate(0 -308.26772)">
   <path d="m57.6 742.2h948.8" stroke="#969696" stroke-width="1.875"/>
   <g stroke="#000" stroke-dasharray="3.75 7.5" stroke-miterlimit="2" stroke-width=".9375">
    <path d="m58.3 844.1h948.8"/>
    <path d="m58.3 641.8h948.8"/>
    <path d="m58.3 540.6h948.8"/>
   </g>
  </g>
  <g stroke="#000">
   <g stroke-width="5.625">
    <g stroke-linejoin="round">
     <path d="m374.2 431.1c4.9.6 10.6-4.5 14.7-7.4 13.5-9.6 24.3-23.7 34.5-39.1l30.9-50"/>
     <path d="m419.1 431.5c-20.2-1.5-44.9-.4-44.9-.4"/>
     <path d="m498.7 336.6-79.5 94.5"/>
     <ellipse cx="1423.8472" cy="1180.1055" rx="19.945965" ry="15.792861" transform="matrix(.79083574 -.61202846 .61202846 .79083574 0 0)"/>
     <path d="m1802 54.2 33.1-26.9 24.3 18.5"/>
     <path d="m1845.8 45.5c12.1-5.8 21.6-10.1 34.7-9.7"/>
    </g>
    <path d="m420.7 430.8s-14.5 19.1-15.5 22.9c-1 3.9-1.1 7.7-.3 11.1 1.1 4.8 4 8.9 8.5 11.3 2.1 1.1 4.4 1.8 6.8 2 2.7.2 5.5-.1 8.3-1 2.1-.7 4.2-1.6 6.2-2.9 1.4-.9 2.8-2 4.1-3.1 1.9-1.8 3.7-3.9 5.1-6.2 1.5-2.4 2.6-4.9 3.2-7.3.8-2.8 1.1-5.7.8-8.4-.3-3.3-1.3-6.5-3.1-9.1-1.5-2.2-3.4-4-5.9-5.2-2.1-1.1-4.4-1.8-6.8-2l-11.6-2.1"/>
    <g stroke-linejoin="round">
     <path d="m547.3 338.6c-35.9 22.6-66.9 56.8-48.6-1.9"/>
     <ellipse cx="218.44737" cy="622.27515" rx="25.728558" ry="20.371416" transform="matrix(.79083574 -.61202846 .61202846 .79083574 0 0)"/>
    </g>
   </g>
   <path d="m576.1 347.4c.3 9.3-.4 14.6-6.3 21.9-3.6 4.5-8.8 8.3-16 11.1" stroke-width="5.624961"/>
   <path d="m572.5 342.2c2 6.9 1.8 6.4.7 11.6-1.6 7.6-6.1 13.5-12.5 18.7-3.2 2.6-6.9 5-10.9 7.3" stroke-width="6.599955"/>
   <path d="m555.4 374c-5.3 3.7-10.3 5.7-16.3 3.5" stroke-width="2.849979"/>
   <path d="m561.7 337.4c7.4 1.6 9 4 10.4 10.8" stroke-width="2.849979"/>
   <path d="m630.1 178.4-96 171" stroke-width="5.625"/>
  </g>
 </g>
</svg>
