<svg height="210mm" viewBox="0 0 1052.4 744.1" width="297mm" xmlns="http://www.w3.org/2000/svg">
 <g fill="none" stroke-linecap="round">
  <g transform="translate(0 -308.26772)">
   <path d="m57.6 742.2h948.8" stroke="#969696" stroke-width="1.875"/>
   <g stroke="#000" stroke-dasharray="3.75 7.5" stroke-miterlimit="2" stroke-width=".9375">
    <path d="m58.3 844.1h948.8"/>
    <path d="m58.3 641.8h948.8"/>
    <path d="m58.3 540.6h948.8"/>
   </g>
  </g>
  <g stroke="#000" stroke-linejoin="round">
   <path d="m414.7 332.7c54.3-11 97.4-77.6 91-94.3-5.5-14.4-40.3 8.9-87.4 86.8l-58.5 105.9" stroke-width="5.625"/>
   <path d="m477.1 364.7c-24.4 29.4-45.3 43.7-38 59.3 2.6 5.6 10.2 7.6 16.3 7.4 19.3-.7 69.5-29.9 96.8-48.9 24.3-16.9 39.5-33.7 32.2-43.6-4.8-6.5-30.3-4.4-55 36.3-25.4 41.6-22.8 55.9-10.2 56.1" stroke-width="5.624999"/>
   <path d="m519.1 431.2c18.3-.8 29.6-7.1 84.9-39.3" stroke-width="5.625"/>
   <path d="m477.1 364.7c8.2-9.9 8.8-18.2 5.1-23.4-1.5-2.2-3.8-3.8-6.6-4.7-10-3-17.2-1.2-24.2 2.4-12.7 6.6-30 23.6-42.3 37-9.4 10.2-24.1 26.6-49.3 55.2" stroke-width="5.624999"/>
   <ellipse cx="236.69827" cy="700.06561" rx="25.728558" ry="20.371418" stroke-width="5.625" transform="matrix(.79083574 -.61202846 .61202846 .79083574 0 0)"/>
  </g>
 </g>
</svg>
