<svg height="210mm" viewBox="0 0 1052.4 744.1" width="297mm" xmlns="http://www.w3.org/2000/svg">
 <g fill="none" stroke-linecap="round">
  <g transform="translate(0 -308.26772)">
   <path d="m57.6 742.2h948.8" stroke="#969696" stroke-width="1.875"/>
   <g stroke="#000" stroke-dasharray="3.75 7.5" stroke-miterlimit="2" stroke-width=".9375">
    <path d="m58.3 844.1h948.8"/>
    <path d="m58.3 641.8h948.8"/>
    <path d="m58.3 540.6h948.8"/>
   </g>
  </g>
  <g stroke="#000" stroke-linejoin="round" stroke-width="5.625">
   <path d="m471.9 428.3c-7.8 2.6-28.2 2.1-43.5 2.1-28.9-.2-40.8.5-40.8.5 3.7.6 13.7-3.8 15.1-4.6 10.9-6.3 20.6-16.1 28.3-27.1 27.6-39.1 30.9-92.3-18.7-48.1"/>
   <path d="m469 417.5c.8.1 1.4.2 1.9.5.2.1.3.2.5.3.9.7 1.3 2 .8 4-1 3.9-5.4 6.1-7.5 6.9-4.3 1.6-7.6-2-5.1-5.9 1.6-2.4 4.2-5.1 7.4-5.7.2 0 .4-.1.7-.1s.5-.1.8-.1c.6 0 1.2.1 1.9.3"/>
   <path d="m471.9 428.3c21.3-8 74.7-39.7 80.3-43.3 13.2-8.3 42.2-27.2 36.9-45.4-2.8-7.4-34.7-8.8-58.5 31.4-26.3 44.1-19.1 59.9-4.2 60 6.2-.3 12.5-.8 20.8-5.7"/>
   <path d="m547.2 425.3c26.4-15.2 45.4-23.7 62.2-24.5 16-.6 21.6 31 32.6 30.7 7.2-.2 12.4-7.6 16.7-13"/>
  </g>
 </g>
</svg>
