<svg height="210mm" viewBox="0 0 1052.4 744.1" width="297mm" xmlns="http://www.w3.org/2000/svg">
 <g fill="none" stroke-linecap="round">
  <g transform="translate(0 -308.26772)">
   <path d="m57.6 742.2h948.8" stroke="#969696" stroke-width="1.875"/>
   <g stroke="#000" stroke-dasharray="3.75 7.5" stroke-miterlimit="2" stroke-width=".9375">
    <path d="m58.3 844.1h948.8"/>
    <path d="m58.3 641.8h948.8"/>
    <path d="m58.3 540.6h948.8"/>
   </g>
  </g>
  <g stroke="#000" stroke-width="5.625">
   <path d="m404.5 414.3 101.2-29.2 22.1 45.9" stroke-linejoin="round"/>
   <path d="m380.4 337.5c-40.3 12.4-78.1 79.1-59.9 92.3 16.4 4.4 27.7-1.1 43.4-4.7 18.9-4.4 40.6-10.8 40.6-10.8" stroke-linejoin="round"/>
   <path d="m651.1 235.4-123.3 195.6"/>
   <g stroke-linejoin="round">
    <path d="m683.7 281.2 25.2-37.6"/>
    <path d="m651.1 235.4-36.8 73.1c-10.7 21.2 8.4 28.4 31.3 14.4 13.8-9.8 30.4-30.4 38.1-41.6"/>
    <path d="m708.4 234.9c.7.1 1.3.2 1.8.5.2.1.3.2.4.3.9.7 1.2 1.8.7 3.6-.9 3.6-5 5.6-6.9 6.3-4 1.4-6.9-1.8-4.6-5.4 1.4-2.2 3.9-4.6 6.8-5.2.2 0 .4-.1.6-.1h.7c.6 0 1.1.1 1.7.2"/>
    <path d="m703.5 246c12 .8 49.1-2.6 70.7-15.8 13.3-8.1 42.2-26.6 36.9-44.3-2.6-13.1-34.7-8.6-58.5 30.7-26.3 43.1-17.7 60.3-4.2 58.6 6.4-.6 13.2-1.8 23-7.8"/>
   </g>
  </g>
 </g>
</svg>
