<svg height="210mm" viewBox="0 0 1052.4 744.1" width="297mm" xmlns="http://www.w3.org/2000/svg">
 <g fill="none" stroke-linecap="round">
  <g transform="translate(0 -308.26772)">
   <path d="m57.6 742.2h948.8" stroke="#969696" stroke-width="1.875"/>
   <g stroke="#000" stroke-dasharray="3.75 7.5" stroke-miterlimit="2" stroke-width=".9375">
    <path d="m58.3 844.1h948.8"/>
    <path d="m58.3 641.8h948.8"/>
    <path d="m58.3 540.6h948.8"/>
   </g>
  </g>
  <g stroke-linejoin="round">
   <g stroke="#000">
    <g stroke-width="5.625">
     <path d="m361.3 407.1c11.2-15 80.4-172.1 80.4-172.1"/>
     <path d="m361.3 407.1c-10.9 12.2-20.8 22.7-34.7 23"/>
     <path d="m101.3 430.5c53.3-73.4 122.3-65.4 102.7.6"/>
    </g>
    <path d="m204.1 431.1c48.5-32.6 71.7-36.4 82.8-36.1 13.7.4 15.7 39.1 40.3 34.5" stroke-width="6.509767"/>
    <path d="m265.7 398.4c7.5-1.8 19.5-3.9 27.4 19.2 5.6 16.4 22.4 12.2 29.3 12.3" stroke-width="6.509767"/>
    <path d="m286.2 398c0 .2 15.1 23.4 17.6 27.4" stroke-width="9.764649"/>
    <path d="m476.2 279.9c-46.9 11.1-40.4-15.6-34.4-44.8" stroke-width="5.625"/>
    <path d="m476.2 279.9s166.4-38.7 190.3-44.1c3.2-.6 6.4-.8 9.6-.6" stroke-width="5.318918"/>
    <g stroke-width="5.625">
     <path d="m676 235.2c20.2 1.8 27.4 41.4 59.9 43 10.8.5 26.9-6.1 35.2-11.6"/>
     <ellipse cx="445.88309" cy="665.28601" rx="22.017828" ry="17.433327" transform="matrix(.79083574 -.61202846 .61202846 .79083574 0 0)"/>
    </g>
   </g>
   <path d="m893.1 230.5c-19.5 7.9-44.7 21.3-58.1 31.7-32.5 23.2-40.2 52.7-38 60 .9 3 16.3 22.9 59.8-38.1 26.9-36.9 51.6-73.7 70-112.7 10.4-20.1 5.6-42.3-11.1-39-32.1 5.3-134.4 122.2-144.6 134.2" stroke="#060000" stroke-width="5.625"/>
  </g>
 </g>
</svg>
