<svg height="210mm" viewBox="0 0 1052.4 744.1" width="297mm" xmlns="http://www.w3.org/2000/svg">
 <g fill="none" stroke-linecap="round">
  <g transform="translate(0 -308.26772)">
   <path d="m57.6 742.2h948.8" stroke="#969696" stroke-width="1.875"/>
   <g stroke="#000" stroke-dasharray="3.75 7.5" stroke-miterlimit="2" stroke-width=".9375">
    <path d="m58.3 844.1h948.8"/>
    <path d="m58.3 641.8h948.8"/>
    <path d="m58.3 540.6h948.8"/>
   </g>
  </g>
  <g stroke="#000">
   <g stroke-width="5.625">
    <path d="m424.3 347c23.7-19.2 60.9-14.6 37.5 14.4-27.4 33.8-45.5 50.3-39.4 63.9 2.3 5.2 9.1 7 17 6 4.9-.6 10.4-2.2 15.1-5 3.7-2.2 8.7-5.6 10.4-6.9" stroke-linejoin="round"/>
    <path d="m462.6 338.6c14.5 10.1 4.3 27.8-12.4 44.2-14.4 14-23.4 26.4-29.5 38.7"/>
    <path d="m462.6 338.6c.8-1.1 3.9 6.1.7 14.2-3.2 8.4-12.8 17.8-18.3 22.9-10.8 10.1-30.6 29-24.3 45.7"/>
   </g>
   <g stroke-width="2.8125">
    <path d="m454.1 336.9c11.3 1.3 8.8 6.5 9.1 11"/>
    <path d="m425.8 414.2c-2.7 4.9-3.8 12 2.3 14.5"/>
    <path d="m418.1 415.5c-.1 5.7 2.9 11.5 4.9 13.1"/>
   </g>
   <g stroke-linejoin="round">
    <path d="m337.5 435.5c-53.2 7.3-100.2 80.3-96.4 92.6.9 3 16.3 22.9 59.8-38.1 26.9-36.9 54.6-73.4 69.3-116.4 15.5-30.1-1.4-56.7-44.4-11.6" stroke-width="5.625"/>
    <path d="m337.5 435.5c.1-1.7 6.8-6 6.7-9.5-.1-5-.2-8.8-1.4-9.8-1.3-1.2-3.1-1.4-4-.7-2.4 1.8-2.1 3-1.9 4.9.4 3.5 2.1 2.2 5.4 1.5 4.1-2.1.9-2.7-.1.2-1.6 4.9 21.5-7.1 30-16.3" stroke-width="5.625"/>
    <path d="m341.1 417.1c-.1-.2-.3-.4-.4-.5 0 0-.1-.1-.2-.1-.3-.2-.8-.1-1.3.3-1 .8-1 2.4-1 3.1.1 1.5 1.6 1.9 2.4.7.5-.8.9-1.9.6-2.9 0-.1 0-.1-.1-.2 0-.1-.1-.2-.1-.2-.1-.2-.2-.3-.3-.5" stroke-width="3.586069"/>
    <g stroke-width="5.625">
     <path d="m372.2 405.8c5.2-4 43.3-52 52.1-58.8"/>
     <path d="m464.8 419.4c16.1-14.2 45-52.5 51.9-59.6"/>
     <path d="m565.2 394c14.4-11.8 27.9-26 41.1-40.9l75.1-83c11.1-11.9 18.5-20.1 26.8-27.5 11.2-10 20.1-9.6 25.5-8.3 19.1 4.5 11.2 19.6-4.7 41-15 20.3-24.5 36.8-43.1 61.9-26.3 35.4-55 68-47.8 86.2 7.9 15.3 30 6.6 51-4.5"/>
     <path d="m743.8 256.4c-.8 5.4-.7 9.8-5.7 20l-93.8 134.9-1.8 13.5"/>
    </g>
    <path d="m738.9 266.6-67.9 98.8-28.6 41.8-2.2 10.7" stroke-width="8.4375"/>
    <path d="m655 397.5c-5.1 7.7-10 15.6-10 22.5 0 3.1 0 6.1 2.7 8.3 1.9 1.5 3.7 4.1 9.9 2.9" stroke-width="3.75"/>
    <path d="m744.7 240c2.8 5.2 2.1 16.5-1 26.4-1.6 5.1-4.3 10.5-8.7 16.2" stroke-width="3.75"/>
    <path d="m528.4 433.3c-53.2 7.3-100.2 80.3-96.4 92.6.9 3 16.3 22.9 59.8-38.1 26.9-36.9 54.6-73.4 69.3-116.4 15.5-30.1-1.4-56.7-44.4-11.6" stroke-width="5.625"/>
   </g>
  </g>
  <g stroke="#000200" stroke-linejoin="round">
   <path d="m528.4 433.3c.1-1.7 6.8-6 6.7-9.5-.1-5-.2-8.8-1.4-9.8-1.3-1.2-3.1-1.4-4-.7-2.4 1.8-2.1 3-1.9 4.9.4 3.5 2.1 2.2 5.4 1.5 4.1-2.1 4.1-4.2 7.1-4.8 4.4-.9 24.9-21 24.9-21" stroke-width="5.625"/>
   <path d="m532 415c-.1-.2-.3-.4-.4-.5 0 0-.1-.1-.2-.1-.3-.2-.8-.1-1.3.3-1 .8-1 2.4-1 3.1.1 1.5 1.6 1.9 2.4.7.5-.8.9-1.9.6-2.9 0-.1 0-.1-.1-.2 0-.1-.1-.2-.1-.2-.1-.2-.2-.3-.3-.5" stroke-width="3.586069"/>
  </g>
 </g>
</svg>
