<svg height="210mm" viewBox="0 0 1052.4 744.1" width="297mm" xmlns="http://www.w3.org/2000/svg">
 <g fill="none" stroke-linecap="round">
  <g transform="translate(0 -308.26772)">
   <path d="m57.6 742.2h948.8" stroke="#969696" stroke-width="1.875"/>
   <g stroke="#000" stroke-dasharray="3.75 7.5" stroke-miterlimit="2" stroke-width=".9375">
    <path d="m58.3 844.1h948.8"/>
    <path d="m58.3 641.8h948.8"/>
    <path d="m58.3 540.6h948.8"/>
   </g>
  </g>
  <g stroke="#000">
   <g stroke-linejoin="round">
    <g stroke-width="5.625">
     <path d="m274.4 379.6 24.3 18.5"/>
     <path d="m298.7 398.1c2.8 2.2 6.1 6 6.7 9.3.4 2.5.2 5.3-.7 7.9-.7 2.1-1.8 4.3-3.3 6.2-1.3 1.7-2.8 3.3-4.7 4.7-1.8 1.4-3.7 2.5-5.7 3.3-1.3.5-2.6.9-3.9 1.2-1.8.4-3.6.5-5.3.4-2.3-.1-4.4-.7-6.3-1.7-1.6-.9-3.1-2-4.2-3.5-2.4-3.2-3.2-7.2-2.5-11.2.5-2.9 1.8-5.9 3.8-8.5"/>
     <path d="m272.7 406.2c10.3-14.9 22.2-16.5 62.8-26.7 9.7-2.4 20.8-4.7 32.6-7.3 67.5-15.3 158.9-36 166.1-36 24.9-.2 12.9 36.8 38.8 36.3 10.2-.2 30.4-4 42-12.8"/>
     <path d="m274.4 379.6c-17.1 13.9-32.3 27.9-53 39.1-6.3 3.4-11.9 5.6-18.8 8.3-9.4 3.5-27 9-34.9-4.5-2-3.6-3.2-8.3-3.6-13.9-3.6-43.8 38.3-140.8 101.7-175"/>
    </g>
    <ellipse cx="685.49835" cy="-162.99886" rx="5.271423" ry="7.848564" stroke-width="14.034714" transform="matrix(.72846687 .68508103 -.68508103 .72846687 0 0)"/>
    <path d="m607.2 361c7.8 4.6 14.8-3.5 20.7-7.2 2.2-1.4 4.2-2.8 6.4-4.1 3-1.8 6-3.5 9-5 10.7-5.3 21.8-8.6 32.3-8.4 26.2-.4 33.6 31.6 33.6 45" stroke-width="5.624999"/>
    <path d="m701.1 354c1.2 7.1 5.2 21.5 4 26" stroke-width="5.625"/>
    <path d="m672.7 337.4c13-.1 22.2 8.8 25.1 17 3.4 9.6 4.7 20.4 4.2 26.9" stroke-width="4.6875"/>
   </g>
   <path d="m702.5 381.3 6.7.1" stroke-width="5.625"/>
   <g stroke-linejoin="round">
    <path d="m650 342.7c6.8-3.1 15.6-4.5 19.7-4.8 6.4-.5 11.7.6 16.7 3.6" stroke-width="3.749999"/>
    <g stroke-width="5.624999">
     <path d="m803.7 185.2-94.5 196.1"/>
     <path d="m864.5 185.6c-22.5 37.2-79.1 73.3-60.8-.4"/>
    </g>
   </g>
  </g>
 </g>
</svg>
