<svg height="210mm" viewBox="0 0 1052.4 744.1" width="297mm" xmlns="http://www.w3.org/2000/svg">
 <g fill="none" stroke-linecap="round">
  <g transform="translate(0 -308.26772)">
   <path d="m57.6 742.2h948.8" stroke="#969696" stroke-width="1.875"/>
   <g stroke="#000" stroke-dasharray="3.75 7.5" stroke-miterlimit="2" stroke-width=".9375">
    <path d="m58.3 844.1h948.8"/>
    <path d="m58.3 641.8h948.8"/>
    <path d="m58.3 540.6h948.8"/>
   </g>
  </g>
  <g stroke="#000" stroke-linejoin="round" stroke-width="5.625">
   <ellipse cx="47.375038" cy="553.71375" rx="25.728558" ry="20.371416" transform="matrix(.79083574 -.61202846 .61202846 .79083574 0 0)"/>
   <path d="m360.6 395.8c46.2-52.5 109.7-142.4 176.9-195.8 51.1-40 27.3 33.2-11.4 98.9-24.1 39.8-52.5 73.5-75.7 83.5-9.6 4.7-17.8 3.2-14.6-6.5s73-27.7 90.3-32.4l15-4.6 12.9-3.4 22.6 48.4"/>
   <path d="m576.6 383.7 42.8-43"/>
   <path d="m626.2 478.9c28.5-22.6 35.5-31.4 39-55.7 1.8-12.5-2.6-28-12.8-37.6-5-4.7-11-8.4-17-11.7-8.5-4.8-11.8-5.8-17.2-11.5-6-6.3-5-21.2 9.8-27.5"/>
  </g>
 </g>
</svg>
