<svg height="210mm" viewBox="0 0 1052.4 744.1" width="297mm" xmlns="http://www.w3.org/2000/svg">
 <g fill="none" stroke-linecap="round">
  <g transform="translate(0 -308.26772)">
   <path d="m57.6 742.2h948.8" stroke="#969696" stroke-width="1.875"/>
   <g stroke="#000" stroke-dasharray="3.75 7.5" stroke-miterlimit="2" stroke-width=".9375">
    <path d="m58.3 844.1h948.8"/>
    <path d="m58.3 641.8h948.8"/>
    <path d="m58.3 540.6h948.8"/>
   </g>
  </g>
  <g stroke="#000">
   <g stroke-width="5.625">
    <ellipse cx="328.10156" cy="770.84058" rx="25.728558" ry="20.371416" stroke-linejoin="round" transform="matrix(.79083574 -.61202846 .61202846 .79083574 0 0)"/>
    <path d="m786.5 431.9c-15.3 11.2-33.6 28-39.4 33.7-25.9 26.2-48.6 55.7-45.7 63.4 1.1 2.9 22.5 22.8 62-40.9l83.3-151.7-13.2.5-109.6 52.2" stroke-linejoin="round"/>
    <path d="m833.5 337-90.5 178.4"/>
    <path d="m840.6 339.9-83.7 157.4"/>
    <path d="m837.6 338.8-90.7 170.6"/>
   </g>
   <path d="m751.8 495.9c-6.5 14.2-13.9 23.4-21.7 30.4" stroke-width="3.75"/>
   <g stroke-linejoin="round" stroke-width="5.625">
    <path d="m791.7 430.4 54.9-35.8"/>
    <path d="m853.3 532.9c28.5-22.6 35.5-31.4 39-55.7 1.8-12.5-2.6-28-12.8-37.6-5-4.7-11-8.4-17-11.7-8.5-4.8-11.8-5.8-17.2-11.5-6-6.3-5-21.2 9.8-27.5"/>
    <path d="m675.9 335.7-39 72.4c-8.4 15.5 5 26.1 21.5 22.2 10.1-2.1 30.9-12.7 56.8-34.7"/>
    <path d="m218.7 342.1c64-35.1 128.7-93.9 97.7-104.6-14.6-5-40.2 8.9-87.4 86.8-51.5 89-40.8 108.4-14.5 106.7 5.5-.5 12.4-3.2 20-7.7 6.8-4.1 22.4-15.8 33.1-23.8"/>
    <path d="m267.6 399.5c5.2-3.3 10.6-6.2 16.4-8.7 19.6-8.3 35 2.5 12.3 40.5l-29.8 52.1"/>
    <path d="m236.2 411.5c.9.1 1.6.3 2.2.6.2.1.4.2.6.3 1.1.8 1.5 2.3.9 4.6-1.2 4.5-6.2 7-8.6 7.9-5 1.8-8.7-2.3-5.8-6.7 1.8-2.8 4.9-5.8 8.5-6.6.2 0 .5-.1.7-.1.3 0 .6-.1.9-.1.7 0 1.4.1 2.1.3"/>
   </g>
  </g>
  <g stroke-linejoin="round" stroke-width="5.625">
   <path d="m401.5 428.3c-26.1 8-52.9 21.4-74.4 39.3-25.9 26.2-39.9 52.6-36.9 60.3 1.1 2.9 17.7 21.8 57.3-41.8l88-150.7" stroke="#060000"/>
   <path d="m401.5 428.3 157.4-37.3c2.4-1-2.2.4 0 0 15.8-3 25.2 9.3 5.2 42.7l-31.2 52.3" stroke="#000"/>
   <path d="m266.5 483.4 169-148" stroke="#060000"/>
   <path d="m675.9 335.7-143 150.2" stroke="#000"/>
  </g>
 </g>
</svg>
