<svg height="210mm" viewBox="0 0 1052.4 744.1" width="297mm" xmlns="http://www.w3.org/2000/svg">
 <g fill="none" stroke-linecap="round">
  <g transform="translate(0 -308.26772)">
   <path d="m57.6 742.2h948.8" stroke="#969696" stroke-width="1.875"/>
   <g stroke="#000" stroke-dasharray="3.75 7.5" stroke-miterlimit="2" stroke-width=".9375">
    <path d="m58.3 844.1h948.8"/>
    <path d="m58.3 641.8h948.8"/>
    <path d="m58.3 540.6h948.8"/>
   </g>
  </g>
  <g stroke="#000">
   <g stroke-linejoin="round">
    <ellipse cx="684.68945" cy="-67.380424" rx="4.609393" ry="6.862875" stroke-width="5.625" transform="matrix(.72846687 .68508103 -.68508103 .72846687 0 0)"/>
    <path d="m652.1 359.2-38.4 71.8" stroke-width="5.624999"/>
    <path d="m636.8 390.9-19.4 39.7" stroke-width="3.749999"/>
    <path d="m613.7 431 7.9.2" stroke-width="5.624999"/>
   </g>
   <path d="m646.5 336.9c11.2-.7 10.4 11.9 2 27" stroke-width="3.749999"/>
   <path d="m545 425.7c9 3 29.1-26.7 45.8-47.1 18.2-22.2 34.1-40.8 52.3-42.7 2.4-.2 3.3-.1 5.1.1 7 .3 9.9 7 9.7 12-.3 6.8-3.7 16.8-10.6 30.8l-25.6 52.3" stroke-linejoin="round" stroke-width="5.624999"/>
   <path d="m635.9 338.5c8.1-2.6 14.8-1.4 17 3.3 3.6 7.7-5.8 23.5-11 34.6" stroke-width="3.75"/>
   <path d="m372 488.9c-4.1 5.3-6.6 12-7.5 17.1-1.2 7.3.5 13.6 2.5 16.5 1.4 2.1 3.5 5.2 7.5 7.4 2.9 1.7 7.3 2.9 10.8 3 4.1.2 9.4-1.1 14.4-4.5 3.4-2.4 7.7-6.9 10.8-10.3 16.9-20.6 92.4-128.3 117.6-156.8 15.8-18 28.8-24.4 36.9-24.8 13-.5 15.2 13.3 7.5 36.3-14.7 43-42.4 79.5-69.3 116.4-43.5 61-58.9 41.1-59.8 38.1-8.6-26.3 74.6-86.8 97.4-92.3" stroke-linejoin="round" stroke-width="5.625"/>
  </g>
 </g>
</svg>
