<svg height="210mm" viewBox="0 0 1052.4 744.1" width="297mm" xmlns="http://www.w3.org/2000/svg">
 <g fill="none" stroke-linecap="round">
  <g transform="translate(0 -308.26772)">
   <path d="m57.6 742.2h948.8" stroke="#969696" stroke-width="1.875"/>
   <g stroke="#000" stroke-dasharray="3.75 7.5" stroke-miterlimit="2" stroke-width=".9375">
    <path d="m58.3 844.1h948.8"/>
    <path d="m58.3 641.8h948.8"/>
    <path d="m58.3 540.6h948.8"/>
   </g>
  </g>
  <g stroke="#000" stroke-linejoin="round">
   <g stroke-width="5.625">
    <path d="m573.6 340.2c8.9-3 16.6-4.6 21.7-3.6 16.6 3.1 19 36.5 37.3 35.2"/>
    <path d="m581.1 337.9c3.9-1 5.9-1 8.4-.3 5.9 1.5 10.1 7.8 16.8 22.4 5 11 11.9 12 18.4 12 2.2 0 5.2 0 7.5-.2"/>
    <path d="m593.4 338.2c8.1 7.1 6.1 1.9 24.1 29.3"/>
    <path d="m632.6 371.7c13.5-1.5 22.5-12.6 37.9-13.7 5.9-.4 11.4.1 15.7 2.2"/>
   </g>
   <path d="m740.6 247.4a5.9 5.9 0 0 1 -5.9 5.9 5.9 5.9 0 0 1 -5.9-5.9 5.9 5.9 0 0 1 5.9-5.9 5.9 5.9 0 0 1 5.9 5.8h-5.9z" stroke-width="6.571438" transform="matrix(.98610517 .16612222 -.16612222 .98610517 0 0)"/>
   <path d="m368.3 431.2s196.1-88.1 205.4-91.1" stroke-width="5.625"/>
  </g>
 </g>
</svg>
