<svg height="210mm" viewBox="0 0 1052.4 744.1" width="297mm" xmlns="http://www.w3.org/2000/svg">
 <g fill="none" stroke-linecap="round">
  <g transform="translate(0 -308.26772)">
   <path d="m57.6 742.2h948.8" stroke="#969696" stroke-width="1.875"/>
   <g stroke="#000" stroke-dasharray="3.75 7.5" stroke-miterlimit="2" stroke-width=".9375">
    <path d="m58.3 844.1h948.8"/>
    <path d="m58.3 641.8h948.8"/>
    <path d="m58.3 540.6h948.8"/>
   </g>
  </g>
  <g stroke-linejoin="round" stroke-width="5.625">
   <g stroke="#000">
    <path d="m260.7 337.3c-40.3 12.4-78.1 79.1-59.9 92.3 9.3 2.5 17 1.7 24.7.1 13-2.7 333.6-194.2 333.6-194.2"/>
    <path d="m559.1 235.5 18.8 40.2"/>
    <path d="m511 431.3c4.5-.1 7.4-1 12-2.8"/>
    <path d="m516.7 417.1c.9.3 1.8.6 2.4 1.1.2.2.4.3.5.5 1 1.2 1.2 2.8 0 5.3-2.3 4.7-8.4 6.5-11.3 7.1-5.9 1-9.2-4.4-5.1-8.7 2.6-2.7 6.7-5.5 10.9-5.5h.9c.3 0 .7.1 1 .1.8.1 1.6.4 2.3.8"/>
   </g>
   <g stroke="#0a0000">
    <path d="m522.9 428.4c34.4-19.4 95-56.4 153.8-92.9"/>
    <path d="m676.8 335.3c39.7-25 76.4-48.8 119.2-74.3m0 0c23.7-15.7 44.6-27.3 55.3-27.1 16.8.5 13.7 38.4 29 38.7 8.7.2 13.3-7.4 25.3-18.7"/>
   </g>
  </g>
 </g>
</svg>
