<svg height="210mm" viewBox="0 0 1052.4 744.1" width="297mm" xmlns="http://www.w3.org/2000/svg">
 <g fill="none" stroke-linecap="round">
  <g transform="translate(0 -308.26772)">
   <path d="m57.6 742.2h948.8" stroke="#969696" stroke-width="1.875"/>
   <g stroke="#000" stroke-dasharray="3.75 7.5" stroke-miterlimit="2" stroke-width=".9375">
    <path d="m58.3 844.1h948.8"/>
    <path d="m58.3 641.8h948.8"/>
    <path d="m58.3 540.6h948.8"/>
   </g>
  </g>
  <g stroke-linejoin="round" stroke-width="5.625">
   <g stroke="#030002">
    <path d="m340.7 431.5c1.6-1.1 42.7-37.5 44.4-38.7 55-40.7 155.2-144.1 124.1-154.8-14.6-5-40.2 8.9-87.4 86.8-43.6 75.4-43 103.7-26.3 106 3.8.5 12.9.6 18-1.3"/>
    <path d="m345.1 414.7c1 .1 1.8.3 2.5.7.2.1.4.2.6.4 1.2.9 1.7 2.6 1 5.2-1.3 5.1-7.1 8-9.8 9-5.7 2-9.8-2.6-6.6-7.6 2-3.1 5.5-6.6 9.7-7.5.3-.1.6-.1.9-.1s.7-.1 1-.1c.8 0 1.6.1 2.4.3"/>
    <path d="m335.9 336.2-56.7 94.9 61.5.4"/>
    <path d="m413.5 429.4s134.8-31.2 153-30.8c16.9.3 22.5 52.9 54.4 25.2"/>
   </g>
   <path d="m620.9 423.7c10-5.7 61.9-87.4 61.9-87.4l22 48.5" stroke="#000"/>
   <path d="m704.8 384.7c15.6-22.2 29.8-47.4 47.4-48.5 22.9-.3 17.2 45 37.8 46.6 12.3-.3 19.2-12.1 26.7-21.3" stroke="#000"/>
  </g>
 </g>
</svg>
