<svg height="210mm" viewBox="0 0 1052.4 744.1" width="297mm" xmlns="http://www.w3.org/2000/svg">
 <g fill="none" stroke-linecap="round">
  <g transform="translate(0 -308.26772)">
   <path d="m57.6 742.2h948.8" stroke="#969696" stroke-width="1.875"/>
   <g stroke="#000" stroke-dasharray="3.75 7.5" stroke-miterlimit="2" stroke-width=".9375">
    <path d="m58.3 844.1h948.8"/>
    <path d="m58.3 641.8h948.8"/>
    <path d="m58.3 540.6h948.8"/>
   </g>
  </g>
  <g stroke="#000" stroke-linejoin="round">
   <path d="m513.2 336.3c-46 19.2-88.8 33.9-110.5 34" stroke-width="5.624999"/>
   <path d="m303.5 431.2c73.5-123.3 83.9-141.8 105.4-144.8 7.1-.8 13.4 1.8 15.9 7.2 5.4 11.7-5.4 22.6-21.5 40.1s-26.9 28.4-21.5 40.1c2.5 5.5 8.8 8 15.9 7.2 11.5-1.3 17.7-9.1 20.6-16.9 2.5-6.8 4.9-22.9-1.4-33.1-5.3-8.4-11.3-9.1-18-8.1-10.4 1.6-18 12-18.3 22.7-.6 16.4 1.8 24.9 22.2 24.8" stroke-width="5.625001"/>
   <g stroke-width="5.625">
    <path d="m617.9 287.5c-19.8 30.4-13.7 42.1-3 42.7 11.5.7 22.8-10.2 33.1-20.9 10.6-11.1 19-18.1 32-19.2 3.3-.4 6.4-.1 9 .9 2.8 1 5 2.6 6.6 4.7 3.7 5.2 3.1 13.3-5.1 23.2-24.4 29.4-45.3 43.4-38 58.9 2.6 5.6 9 8.2 16.3 7.4 11.8-1.4 20.1-7.7 27.8-15"/>
    <path d="m535.3 383.5 82.6-96"/>
    <path d="m513.2 336.3 22.1 47.1"/>
   </g>
  </g>
 </g>
</svg>
