<svg height="210mm" viewBox="0 0 1052.4 744.1" width="297mm" xmlns="http://www.w3.org/2000/svg">
 <g fill="none" stroke-linecap="round">
  <g transform="translate(0 -308.26772)">
   <path d="m57.6 742.2h948.8" stroke="#969696" stroke-width="1.875"/>
   <g stroke="#000" stroke-dasharray="3.75 7.5" stroke-miterlimit="2" stroke-width=".9375">
    <path d="m58.3 844.1h948.8"/>
    <path d="m58.3 641.8h948.8"/>
    <path d="m58.3 540.6h948.8"/>
   </g>
  </g>
  <g stroke="#000" stroke-linejoin="round">
   <path d="m701.3 336.9c3.6 9.4 13.8 40.4 39.1 42.3 44.4 3.4 52.5-38.2 37.8-43-7.2-2.4-25.6 2.2-48.8 40.4-25.5 41.6-21.4 54.9-4.5 54.7 21.2-.2 48.5-18.8 83.8-45.8l22.1 45.3" stroke-width="5.625001"/>
   <path d="m651.3 335.8c-34.4 9-65.5 60.5-64.6 83.9.3 8 4.3 11.4 13.4 11.4 34.8-.1 64.1-41.9 101.2-94.2" stroke-width="5.625001"/>
   <path d="m244.3 333.8c54.3-11 97.7-78.3 91.4-95-5.5-14.4-40.3 8.9-87.4 86.8-41.1 70.2-45.9 106.9-16.7 106.4 38.3-.7 59.2-84.2 85.4-85 18.1-.5 20.1 29.6 36.6 30.4 7 .3 12.3-2.7 18.3-8.5 21.9-23.3 30.7-31.2 55.3-32.1 19.2-.7 31.5 16.7 27.4 40.8" stroke-width="5.624999"/>
   <path d="m454.4 377.6c25-11.8 60.2-31.5 77.8-32.4 16.8-.7 18.2 32.6 34.2 32.2 18.3-.4 58.1-30 72.7-36.7" stroke-width="5.625"/>
  </g>
 </g>
</svg>
