<svg height="210mm" viewBox="0 0 1052.4 744.1" width="297mm" xmlns="http://www.w3.org/2000/svg">
 <g fill="none" stroke-linecap="round">
  <g transform="translate(0 -308.26772)">
   <path d="m57.6 742.2h948.8" stroke="#969696" stroke-width="1.875"/>
   <g stroke="#000" stroke-dasharray="3.75 7.5" stroke-miterlimit="2" stroke-width=".9375">
    <path d="m58.3 844.1h948.8"/>
    <path d="m58.3 641.8h948.8"/>
    <path d="m58.3 540.6h948.8"/>
   </g>
  </g>
  <g stroke="#000" stroke-linejoin="round">
   <path d="m447.5 348.3c13.4-.6 28.1-20.8 44.5-39.7 6.8-7.8 12.3-13.7 20.1-18.3 4.6-2.7 9.6-4.3 14.3-4.4 5.3-.1 10.3 1.6 14 5.9 3.7 5.2 3.1 13.5-5.1 23.4" stroke-width="5.624999"/>
   <g stroke-width="5.625">
    <path d="m384.9 332.9c54.3-11 97.7-78.3 91.4-95-5.5-14.4-40.3 8.9-87.4 86.8-44.1 76.2-47.2 106-26.1 106.4 27.1.5 69.3-58.3 89.8-85.9"/>
    <ellipse cx="561.35297" cy="-58.358463" rx="4.609393" ry="6.862875" transform="matrix(.72846687 .68508103 -.68508103 .72846687 0 0)"/>
    <path d="m655.6 187.4c-12.7 24.1-49.9 83-64.6 106.7-30.9 49.9-49.9 84.9-76.9 86.3-7 .4-12.5-1.5-15-6-9.3-17.2 10.2-32.1 36.2-59.2"/>
    <path d="m712.6 187.7c-28.8 33.2-81.4 75.3-57.1-.4"/>
   </g>
  </g>
 </g>
</svg>
