<svg height="210mm" viewBox="0 0 1052.4 744.1" width="297mm" xmlns="http://www.w3.org/2000/svg">
 <g fill="none" stroke-linecap="round">
  <g stroke="#000" transform="translate(0 -308.26772)">
   <path d="m57.6 742.2h948.8" stroke-width="1.875"/>
   <g stroke-dasharray="3.75 7.5" stroke-miterlimit="2" stroke-width=".9375">
    <path d="m58.3 844.1h948.8"/>
    <path d="m58.3 641.8h948.8"/>
    <path d="m58.3 540.6h948.8"/>
   </g>
  </g>
  <g stroke-linejoin="round">
   <g stroke="#000" stroke-width="5.625">
    <path d="m513.6 392c-43.4 40.7-66.8 44.9-95.9 94.6-11.2 19.3-16.6 36.4-12.6 43.5 2.9 5.3 34.7 12.4 62.3-63.4 15.7-47.2 25.8-112.5 71.5-132.1"/>
    <path d="m513.6 392c26.3-20.8 48.2-43.5 76-56.6 7.7-3.6 13.2-.8 17.3 7.2 6.5 12.7 4 18.2 12.3 27.2 15.9 17.3 43.8-27.8 34.5-34.3-6.3-4.4-25.9 3.2-49.4 42-41.8 68.4-7.7 59.6 21.7 37.5 1.1-.8 6.2-5.5 12.5-11.7"/>
    <path d="m579.6 340.4c14.3-7.5 19.9 4.4 23.4 16.1 3.2 10.5 8.7 18 23.9 17.1"/>
    <path d="m593.3 337c13.6.7 15.1 28.3 22.1 30"/>
    <path d="m432.4 412.7 88-66.1"/>
   </g>
   <g stroke="#010000">
    <path d="m428.3 336.9-47.8 86.7" stroke-width="6.5625"/>
    <path d="m324.6 431.7 94.4-95.2-39 72.4c-8.4 15.5 5 26.1 21.5 22.2 2.8-.7 9.3-2.5 14-6l16.9-12.5" stroke-width="5.625"/>
    <path d="m423.6 336.9-44.7 81.9" stroke-width="6.5625"/>
   </g>
  </g>
  <g stroke="#010000">
   <path d="m385.4 417.5c-1.6 4.1-2.6 6.5.8 11.9" stroke-width="3.75"/>
   <path d="m428.3 336.9-9.3-.4" stroke-linejoin="round" stroke-width="6.5625"/>
  </g>
 </g>
</svg>
