<svg height="210mm" viewBox="0 0 1052.4 744.1" width="297mm" xmlns="http://www.w3.org/2000/svg">
 <g stroke-linecap="round">
  <g fill="none" transform="translate(0 -308.26772)">
   <path d="m57.6 742.2h948.8" stroke="#969696" stroke-width="1.875"/>
   <g stroke="#000" stroke-dasharray="3.75 7.5" stroke-miterlimit="2" stroke-width=".9375">
    <path d="m58.3 844.1h948.8"/>
    <path d="m58.3 641.8h948.8"/>
    <path d="m58.3 540.6h948.8"/>
   </g>
  </g>
  <g fill="none">
   <g stroke-linejoin="round">
    <g stroke="#000">
     <path d="m235 382.9 18.1 48.1 128.4-158.4c7.8-9 16.9-18.7 24.9-26.4 10.8-10.4 23.2-10.8 28.5-10.7 16.5.2 10.7 17.9-4.7 39.7-14.6 20.5-23.8 37-41.8 62.4-25.5 35.8-51.8 61-45 78 6.5 23.5 32 17.5 46.6 14.3" stroke-width="5.625"/>
     <ellipse cx="58.116535" cy="561.62762" rx="24.746365" ry="19.593733" stroke-width="5.215408" transform="matrix(.79083574 -.61202846 .61202846 .79083574 0 0)"/>
     <path d="m389.9 429.8c8.3 2.3 20.7 3.6 36.1 1.7" stroke-width="5.625"/>
    </g>
    <path d="m426 431.4s261.2-29.6 272.3-35.6" stroke="#000001" stroke-width="5.625"/>
   </g>
   <g stroke="#000">
    <g stroke-width="5.625">
     <path d="m698.3 395.8c8.5-2.5 16.9-5.7 24.9-9.3" stroke-linejoin="round"/>
     <path d="m430.2 419.6c.8.1 1.4.2 1.9.5.2.1.3.2.5.3.9.7 1.3 2 .8 4-1 3.9-5.4 6.1-7.5 6.9-4.3 1.6-7.6-2-5.1-5.9 1.6-2.4 4.2-5.1 7.4-5.7.2 0 .4-.1.7-.1s.5-.1.8-.1c.6 0 1.2.1 1.9.3" stroke-linejoin="round"/>
     <path d="m799.3 293.3c-48 60-85.6 120.6-108.4 181.8"/>
    </g>
    <path d="m788.3 303.4c-38.3 44.9-72.9 96.9-94.8 156.9" stroke-width="7.5"/>
    <path d="m815 287.1c-13.2.2-22.8 16.5-25.3 19.4" stroke-width="3.75"/>
    <g stroke-width="5.625">
     <path d="m696.5 460.9c-3.7 13.4-3.6 19 .6 21.3"/>
     <g stroke-linejoin="round">
      <path d="m728.8 385.6c54.3-11 95.5-79.5 89.2-96.2-5.5-14.4-40.3 8.9-87.4 86.8-46.6 80.5-46.9 108.4-29.1 106.3 17.3-2.4 27.4-8.1 49.1-23.9"/>
      <path d="m750.6 458.6c6.4-5 19.5-18.4 23.5-23.8"/>
     </g>
    </g>
   </g>
  </g>
  <g stroke="#000" stroke-linejoin="round" stroke-width="5.625">
   <path d="m774.1 434.8 30-40.8" fill="#d3bc5f" fill-rule="evenodd"/>
   <path d="m804.1 394.1c21.6-28.9 36.1-52.4 56.9-56.8 10.7-2.7 14.3.7 18.7 3.2 7.6 4.3 8.1 17.2-6 41.5l-28.5 49.4" fill="none"/>
  </g>
 </g>
</svg>
