<svg height="210mm" viewBox="0 0 1052.4 744.1" width="297mm" xmlns="http://www.w3.org/2000/svg">
 <g fill="none" stroke-linecap="round">
  <g transform="translate(0 -308.26772)">
   <path d="m57.6 742.2h948.8" stroke="#969696" stroke-width="1.875"/>
   <g stroke="#000" stroke-dasharray="3.75 7.5" stroke-miterlimit="2" stroke-width=".9375">
    <path d="m58.3 844.1h948.8"/>
    <path d="m58.3 641.8h948.8"/>
    <path d="m58.3 540.6h948.8"/>
   </g>
  </g>
  <g stroke="#000">
   <g stroke-linejoin="round">
    <path d="m435.5 429.6c5.9 2.9 18.4 1.5 26.9-1.9" stroke-width="5.625"/>
    <ellipse cx="622.41595" cy="-12.993695" rx="5.271423" ry="7.848564" stroke-width="14.034715" transform="matrix(.72846687 .68508103 -.68508103 .72846687 0 0)"/>
    <g stroke-width="5.625">
     <path d="m323.8 431.5s72.7-32.4 90-29.2c13.5 2.5 15.4 29.1 30.2 28.9"/>
     <path d="m396.4 404.5c13.8-3.6 17.6-.8 28.2 16.2 7.4 12 9.7 10.5 17.7 10.5"/>
     <path d="m413.9 404.9c6.7 5.9 2.5 0 17.3 22.6"/>
     <path d="m539.1 431.6c7.1-5.4 14.5-12 14.2-21.2-.9-14.2-21-14.4-31.2-28.3-11.2-18 13.7-41.1 29.6-45.6 3.4-.9 6.4-1 8.5 0 5.3 3.3 6.5 9.6 2.1 17.2-2.7 4.7-15.8 16.6-23.2 21.8"/>
    </g>
   </g>
   <path d="m689.5 337.1-76.2 54.4" stroke-width="5.625001"/>
   <g stroke-linejoin="round">
    <path d="m643.4 396.8a19.2 25.1 41.6 0 1 -14.3 31.3 19.2 25.1 41.6 0 1 -27.6-6.8 19.2 25.1 41.6 0 1 14.3-31.3 19.2 25.1 41.6 0 1 27.6 6.8z" stroke-width="5.625001"/>
    <path d="m619.9 386.9s-79.5 29-84.6 40.8c-1.2 2.8 1.2 5.1 3.9 3.9" stroke-width="5.625"/>
   </g>
  </g>
  <path d="m466.8 425.5 72.3-50.1" stroke="#000002" stroke-linejoin="round" stroke-width="5.625"/>
 </g>
</svg>
