<svg height="210mm" viewBox="0 0 1052.4 744.1" width="297mm" xmlns="http://www.w3.org/2000/svg">
 <g fill="none" stroke-linecap="round">
  <g transform="translate(0 -308.26772)">
   <path d="m57.6 742.2h948.8" stroke="#969696" stroke-width="1.875"/>
   <g stroke="#000" stroke-dasharray="3.75 7.5" stroke-miterlimit="2" stroke-width=".9375">
    <path d="m58.3 844.1h948.8"/>
    <path d="m58.3 641.8h948.8"/>
    <path d="m58.3 540.6h948.8"/>
   </g>
  </g>
  <g stroke-linejoin="round" stroke-width="5.625">
   <g stroke="#000">
    <path d="m283.8 407 58.8-48.8"/>
    <path d="m334.6 431.6c11.2-27.4-9.2-39-20.9-45.1-32.6-16.9-29.7-38.2-22.8-51.3"/>
    <path d="m388.8 433.1c-17.7 8.6-37.3 19.8-51.9 34.5-25.9 26.2-39.9 52.6-36.9 60.3 1.1 2.9 17.7 21.8 57.3-41.8l88-150.7-110.7 96.3"/>
    <path d="m384.8 425.4c4.5-.1 7.4-1 12-2.8"/>
   </g>
   <path d="m396.7 422.5c21.1-10.9 246.8-145.7 275.5-160.8" stroke="#0a0000"/>
   <path d="m672.2 261.7c23.7-15.7 44.6-27.3 55.3-27.1 16.8.5 17.3 29 32.7 29.3 8.7.2 13.3-7.4 25.3-18.7" stroke="#0a0000"/>
   <path d="m390 415c.6.1 1.2.2 1.6.4.1.1.3.2.4.3.8.6 1.1 1.7.6 3.4-.9 3.3-4.6 5.2-6.3 5.8-3.7 1.3-6.4-1.7-4.3-4.9 1.3-2 3.6-4.3 6.2-4.8.2 0 .4-.1.5-.1.2 0 .4-.1.7-.1.5 0 1 .1 1.6.2" stroke="#000"/>
  </g>
 </g>
</svg>
