<svg height="210mm" viewBox="0 0 1052.4 744.1" width="297mm" xmlns="http://www.w3.org/2000/svg">
 <g fill="none" stroke-linecap="round">
  <g transform="translate(0 -308.26772)">
   <path d="m57.6 742.2h948.8" stroke="#969696" stroke-width="1.875"/>
   <g stroke="#000" stroke-dasharray="3.75 7.5" stroke-miterlimit="2" stroke-width=".9375">
    <path d="m58.3 844.1h948.8"/>
    <path d="m58.3 641.8h948.8"/>
    <path d="m58.3 540.6h948.8"/>
   </g>
  </g>
  <g stroke-width="5.625">
   <g stroke-linejoin="round">
    <path d="m632.7 390.1 182.5-54.6" stroke="#000"/>
    <ellipse cx="382.41797" cy="653.84796" rx="25.728558" ry="20.371416" stroke="#000" transform="matrix(.89236516 -.45131411 .45131411 .89236516 0 0)"/>
    <path d="m815.2 335.5 23.9 47.9" stroke="#060000"/>
   </g>
   <g stroke="#000">
    <path d="m839.1 383.4 30-40.8" stroke-linejoin="round"/>
    <path d="m869.1 342.6c21.6-28.9 36.1-52.4 56.9-56.8 10.7-2.7 14.3.7 18.7 3.2s6.4 7.8 4.6 16.6c-8.3 24.3-35.2 79.9-35.2 79.9" stroke-linejoin="round"/>
    <path d="m997.6 338.1-83.5 47.3"/>
    <path d="m632.7 390.1c-128.6 60-236.3 48.5-240.2-2" stroke-linejoin="round"/>
    <path d="m151.5 406.4-65.1 131.4"/>
    <g stroke-linejoin="round">
     <ellipse cx="-116.53178" cy="432.21075" rx="25.728558" ry="20.371416" transform="matrix(.79083574 -.61202846 .61202846 .79083574 0 0)"/>
     <path d="m176.1 389.8 39.5-.9c5.2-.1 9.1 2.5 12.2 8.6 6.5 12.7 4 18.2 12.3 27.2 15.9 17.3 43.8-27.8 34.5-34.3-6.3-4.4-25.9 3.2-49.4 42-27.1 44.3-22.4 56.2-7.7 53.2 9.7-2 22.9-13.5 35.1-23.7"/>
     <path d="m252.6 461.9c33.9-32.1 51.2-57.3 76.6-69.5 80.2-30-38.2 161.1-88.1 194.1"/>
     <ellipse cx="-74.016144" cy="657.14819" rx="25.728558" ry="20.371416" transform="matrix(.79083574 -.61202846 .61202846 .79083574 0 0)"/>
     <path d="m342.8 542.3s-134.8 39.9-101.7 44.2"/>
    </g>
   </g>
  </g>
 </g>
</svg>
