<svg height="210mm" viewBox="0 0 1052.4 744.1" width="297mm" xmlns="http://www.w3.org/2000/svg">
 <g fill="none" stroke-linecap="round">
  <g transform="translate(0 -308.26772)">
   <path d="m57.6 742.2h948.8" stroke="#969696" stroke-width="1.875"/>
   <g stroke="#000" stroke-dasharray="3.75 7.5" stroke-miterlimit="2" stroke-width=".9375">
    <path d="m58.3 844.1h948.8"/>
    <path d="m58.3 641.8h948.8"/>
    <path d="m58.3 540.6h948.8"/>
   </g>
  </g>
  <g stroke="#000">
   <g stroke-linejoin="round" stroke-width="5.625">
    <path d="m397.7 387.5-80.5 43.3"/>
    <path d="m456.9 354.9c8.8-4.2 19.4-10.4 30.8-10.7 16.5.1 16.7 30.3 33 30.7 10.7.2 17.9-4.5 26.7-14.2"/>
    <path d="m397.7 387.5s52-29.8 59.2-32.7"/>
    <ellipse cx="162.56964" cy="574.0318" rx="62.130169" ry="44.633743" transform="matrix(.88109295 -.47294313 .47294313 .88109295 0 0)"/>
   </g>
   <path d="m471.4 406.9c-13.8 27.9-38.1 52.4-66.8 70.7" stroke-width="5.385754"/>
   <path d="m472.6 415.9c-15.9 21.3-33.1 41.5-54 58.5" stroke-width="5.385754"/>
   <path d="m471.7 422.4c-14.3 21.6-19.7 29.6-41.7 46.5" stroke-width="7.181006"/>
   <path d="m420.3 465.5c-10.1 9.6-24.3 12.2-31.1 10.7" stroke-width="3.590503"/>
   <path d="m463.4 393.1c2.2 2.5 8.7 12.2 1.3 24.5" stroke-width="3.590503"/>
   <g stroke-linejoin="round" stroke-width="5.625">
    <path d="m547.4 360.7c14.3-15.6 34.5-43.8 44.3-54.7 12.3-13.5 24.5-23.8 37.1-26.1 22.7-4.2-3.2 67-37.8 92.3-1.4 1-5 4.3-8.5 4.8"/>
    <path d="m582.5 377c-17.7 2.5 95.1-87.1 107.2-94 11.1-3.4 16.6-4.2 21 4.4 6.5 12.7 4 18.2 12.3 27.2 15.9 17.3 43.8-27.8 34.5-34.3-6.3-4.4-25.9 3.2-49.4 42-26 42.5-22.8 53-9.4 53.4 9.6.3 29.9.9 36.4-2.8"/>
    <path d="m685.7 285.6c9.6-6.8 18 4.1 21.6 15.8 3.2 10.5 8.7 18 23.9 17.1"/>
    <path d="m697.6 281.9c13.6.7 15.1 28.3 22.1 30"/>
    <path d="m738.3 364.2c.6.1 1.1.2 1.5.4.1.1.3.1.4.2.7.5 1 1.5.6 3-.8 2.9-4.1 4.6-5.7 5.2-3.3 1.2-5.7-1.5-3.8-4.4 1.2-1.8 3.2-3.8 5.6-4.3.2 0 .3-.1.5-.1h.6c.5 0 .9.1 1.4.2"/>
   </g>
  </g>
 </g>
</svg>
