<svg height="210mm" viewBox="0 0 1052.4 744.1" width="297mm" xmlns="http://www.w3.org/2000/svg">
 <g fill="none" stroke-linecap="round">
  <g transform="translate(0 -308.26772)">
   <path d="m57.6 742.2h948.8" stroke="#969696" stroke-width="1.875"/>
   <g stroke="#000" stroke-dasharray="3.75 7.5" stroke-miterlimit="2" stroke-width=".9375">
    <path d="m58.3 844.1h948.8"/>
    <path d="m58.3 641.8h948.8"/>
    <path d="m58.3 540.6h948.8"/>
   </g>
  </g>
  <g stroke="#000">
   <path d="m418.5 328.6c-30 22.9-59.9 32.1-73.9 20.3" stroke-width="5.625"/>
   <path d="m350.7 346c-4.3 6.3-265.7 85.3-265.7 85.3" stroke-width="5.625"/>
   <g stroke-linejoin="round">
    <ellipse cx="487.92953" cy="10.534458" rx="4.609393" ry="6.862875" stroke-width="5.625" transform="matrix(.72846687 .68508103 -.68508103 .72846687 0 0)"/>
    <path d="m898.6 347.8c25.8 9 64.3-23.3 64.3-23.3" stroke-width="5.625"/>
    <path d="m699.4 336.3c-33 8.6-63.5 54.8-62.8 79.6.1 3.5.8 6.6 2.3 9.1 4.3 8.9 21.9 6.7 36 2.8 20.3-5.3 183.7-64.1 226.6-80.7" stroke-width="5.624999"/>
    <g stroke-width="5.625">
     <ellipse cx="890.59106" cy="-368.522" rx="4.609393" ry="6.862875" transform="matrix(.72846687 .68508103 -.68508103 .72846687 0 0)"/>
     <path d="m507.5 310.9c7.9-12 20.4-25.6 37.3-25.3 17.7.3 23.9 19.3 5 42-28.5 34.1-41.2 55.5-50.2 69.2-9.1 14.2-7.2 33.6 12.4 34.3 14.9 0 26.6-10.8 36.5-21.9"/>
    </g>
   </g>
  </g>
 </g>
</svg>
