<svg height="210mm" viewBox="0 0 1052.4 744.1" width="297mm" xmlns="http://www.w3.org/2000/svg">
 <g fill="none" stroke-linecap="round">
  <g transform="translate(0 -308.26772)">
   <path d="m57.6 742.2h948.8" stroke="#969696" stroke-width="1.875"/>
   <g stroke="#000" stroke-dasharray="3.75 7.5" stroke-miterlimit="2" stroke-width=".9375">
    <path d="m58.3 844.1h948.8"/>
    <path d="m58.3 641.8h948.8"/>
    <path d="m58.3 540.6h948.8"/>
   </g>
  </g>
  <g stroke-linejoin="round" stroke-width="5.625">
   <path d="m570.6 336.8c-40.3 12.4-78.8 79.1-60.6 92.3 4.1 3.5 16.9 2 34.9-6.9" stroke="#000"/>
   <path d="m544.9 422.2 182.2-84.1" stroke="#060000"/>
   <ellipse cx="359.23276" cy="731.88715" rx="25.728558" ry="20.371416" stroke="#000" transform="matrix(.79083574 -.61202846 .61202846 .79083574 0 0)"/>
   <path d="m725.2 339c23.3-13.1 72.3-38.3 89.1-39.1 16-.6 21.6 31 32.6 30.7 7.2-.2 12.4-7.6 16.7-13" stroke="#000"/>
   <path d="m537.7 355.3c14-11.2 23.5-15.6 32.9-18.5" stroke="#000700"/>
   <path d="m256.9 431.2c16.9-15.5 55.5-36.1 83.7-37.2 39.8-1.5 60.3 36.7 94.6 36.8 27.6-.5 77.6-51.1 102.5-75.6" stroke="#000"/>
  </g>
 </g>
</svg>
