<svg height="210mm" viewBox="0 0 1052.4 744.1" width="297mm" xmlns="http://www.w3.org/2000/svg">
 <g fill="none" stroke-linecap="round">
  <g transform="translate(0 -308.26772)">
   <path d="m57.6 742.2h948.8" stroke="#969696" stroke-width="1.875"/>
   <g stroke="#000" stroke-dasharray="3.75 7.5" stroke-miterlimit="2" stroke-width=".9375">
    <path d="m58.3 844.1h948.8"/>
    <path d="m58.3 641.8h948.8"/>
    <path d="m58.3 540.6h948.8"/>
   </g>
  </g>
  <g stroke="#000">
   <g stroke-width="5.625">
    <path d="m326.3 431.3s309.6-167.1 370.1-191c7-2.8 10-3.8 17.1-4.9 23.9-1.1 22.8 16.1 18.1 31.2-4.6 15.2-78.3 165.2-78.3 165.2" stroke-linejoin="round"/>
    <path d="m653.3 431.8c38.5-33.8 125.2-99.9 159.5-134.4 28.4-28.5 44.6-53.8 26.5-61.9-14-6.3-42.6 13.7-89.8 91.6-38.6 66.7-42.5 95.9-31.4 103.1 1.1.7 2.2 1.1 3.5 1.3 1.2.2 2.5.3 3.9.2 21.2-1.2 38.9-9.8 108.9-95.7" stroke-linejoin="round"/>
    <path d="m822.9 240.1c-48 60-85.3 117-108.1 178.2"/>
   </g>
   <path d="m811.9 250.2c-38.3 44.9-72.9 96.9-94.8 156.8" stroke-width="7.500001"/>
   <path d="m841.1 237.4c-12-5.1-22.3 10.8-27.8 15.9" stroke-width="3.75"/>
   <path d="m719.5 405.8c-3 9.2-6.3 20-.7 24.5" stroke-width="5.625"/>
   <g stroke-linejoin="round">
    <path d="m284.7 260.5c6.4-13.7 27.9-26.8 41.5-25.5 7.7.7 15.6 7.9 11.3 18.6-6.4 14.1-15.9 21.3-33.7 32-9.7 5.8-24.5 14.9-32.9 26.6-5 7-7.7 15.6-6 27.3 6.3 42.7-45.5 80.6-63.9 91.9" stroke-width="5.625"/>
    <path d="m201 431.4c-2.1 1.4-5.6-2-3.4-4.9 7.1-9.2 107.3-39.4 107.3-39.4l21.3 44.2" stroke-width="5.624999"/>
   </g>
  </g>
 </g>
</svg>
