<svg height="210mm" viewBox="0 0 1052.4 744.1" width="297mm" xmlns="http://www.w3.org/2000/svg">
 <g fill="none" stroke-linecap="round">
  <g transform="translate(0 -308.26772)">
   <path d="m57.6 742.2h948.8" stroke="#969696" stroke-width="1.875"/>
   <g stroke="#000" stroke-dasharray="3.75 7.5" stroke-miterlimit="2" stroke-width=".9375">
    <path d="m58.3 844.1h948.8"/>
    <path d="m58.3 641.8h948.8"/>
    <path d="m58.3 540.6h948.8"/>
   </g>
  </g>
  <g stroke="#000" stroke-linejoin="round">
   <path d="m517.1 425.6c7-3.5 14.5-7.3 24.2-12.7 15.8-8.6 33.6-17.5 43.7-15.6 20.2 3.8 18.7 54.1 53.5 25.2" stroke-width="5.625"/>
   <path d="m562.4 402.4c6.3-2.8 21.8-2.6 31.1 17.6 3.7 8 8.3 10.3 13.1 11 3.7.6 9.9.4 13.5.4" stroke-width="5.625"/>
   <path d="m579.5 400.2c7.8 4.9 8.8 2 26.1 28.6" stroke-width="6.587558"/>
   <g stroke-width="5.625">
    <path d="m517.1 425.6c-14.1 8.1-34.3 8.6-42.6.1-34.7-35.4 53-168.5 106.1-190.7"/>
    <ellipse cx="661.55438" cy="-44.800793" rx="4.609393" ry="6.862874" transform="matrix(.72846687 .68508103 -.68508103 .72846687 0 0)"/>
    <path d="m719.4 336.1c-29 32.2-63.5 71.9-80.9 86.4"/>
    <path d="m563.2 245.2c-70 57.9-159.2 167.1-170.2 176.8"/>
   </g>
   <path d="m322.7 235.3-94.5 196.1" stroke-width="5.624999"/>
   <g stroke-width="5.625">
    <path d="m228.2 431.4s72.7-32.4 90-29.2c13.5 2.5 11.7 25.9 30.2 28.9"/>
    <path d="m318.3 404.8c6.7 5.9 2.5 0 17.3 22.6"/>
    <path d="m402.5 394.1a19.2 25.1 41.6 0 1 -14.3 31.3 19.2 25.1 41.6 0 1 -27.6-6.8 19.2 25.1 41.6 0 1 14.3-31.3 19.2 25.1 41.6 0 1 27.6 6.8z"/>
    <path d="m348.3 431.1c6.3 1 22.5.9 33.9-3.1"/>
    <path d="m300.8 404.3c13.8-3.6 16.9-.6 27.4 16.4 7.4 12 16.8 10.4 24.1 10.7"/>
   </g>
   <g stroke-width="5.624999">
    <path d="m784.1 335.9-46.6 95.4"/>
    <path d="m784.1 335.9h-8.2"/>
    <path d="m780.3 336.7-45.7 93.9"/>
    <path d="m737.6 431.3h-8.2"/>
    <path d="m775.9 335.9-46.6 95.4"/>
    <path d="m719.4 336.1-46.6 95.4"/>
    <path d="m775.9 335.9-103.1 95.6"/>
   </g>
  </g>
 </g>
</svg>
