<svg height="210mm" viewBox="0 0 1052.4 744.1" width="297mm" xmlns="http://www.w3.org/2000/svg">
 <g fill="none" stroke-linecap="round">
  <g transform="translate(0 -308.26772)">
   <path d="m57.6 742.2h948.8" stroke="#969696" stroke-width="1.875"/>
   <g stroke="#000" stroke-dasharray="3.75 7.5" stroke-miterlimit="2" stroke-width=".9375">
    <path d="m58.3 844.1h948.8"/>
    <path d="m58.3 641.8h948.8"/>
    <path d="m58.3 540.6h948.8"/>
   </g>
  </g>
  <g stroke="#000" stroke-linejoin="round" stroke-width="5.625">
   <path d="m195.2 430.6c50.4-65.5 115.5-58.4 97 .6"/>
   <path d="m505.7 336.6s-3.1 1.2 3.3-1.1c16.3-5.7 36.1 3.9 18.7 25.5-27.4 33.8-45.7 41.5-40.4 59.2 1.5 5 4.7 11.8 19.1 11"/>
   <path d="m292.2 431.2 213.5-94.5"/>
   <path d="m506.4 431.2c18.8.2 67.7-34.2 86.8-35.2 18.3-.7 18.7 36.1 37.2 35.1 8.2-.5 14.2-5.4 21-11"/>
   <path d="m753.9 335.6c-35.5 10.2-63.2 61.6-58.2 83.3 2.9 9.3 10 11.6 16.6 12.7 7.3.9 28.7 1.1 49.7.5 21.6-.6 42.8-1.8 47.5-3.8"/>
   <ellipse cx="389.83521" cy="816.04742" rx="25.728558" ry="20.371416" transform="matrix(.79083574 -.61202846 .61202846 .79083574 0 0)"/>
   <path d="m651.5 420.1s51.7-52.2 81.6-73.4"/>
   <ellipse cx="847.99042" cy="-214.3587" rx="4.609393" ry="6.862874" transform="matrix(.72846687 .68508103 -.68508103 .72846687 0 0)"/>
  </g>
 </g>
</svg>
