<svg height="210mm" viewBox="0 0 1052.4 744.1" width="297mm" xmlns="http://www.w3.org/2000/svg">
 <g fill="none" stroke-linecap="round">
  <g transform="translate(0 -308.26772)">
   <path d="m57.6 742.2h948.8" stroke="#969696" stroke-width="1.875"/>
   <g stroke="#000" stroke-dasharray="3.75 7.5" stroke-miterlimit="2" stroke-width=".9375">
    <path d="m58.3 844.1h948.8"/>
    <path d="m58.3 641.8h948.8"/>
    <path d="m58.3 540.6h948.8"/>
   </g>
  </g>
  <g stroke-linejoin="round" stroke-width="5.625">
   <path d="m434.9 334.5c54.3-11 95.5-79.5 89.2-96.2-5.5-14.4-40.3 8.9-87.4 86.8-33.7 58.2-43.5 86.2-39.5 98 1.3 3.8 2.8 8.3 8.2 8.4" stroke="#000"/>
   <path d="m528.8 445.5c38-21.6 70.2-6.4 56.5 37.3" stroke="#000"/>
   <path d="m405.5 431.5c10.7-.5 14.6 0 25.6 1.5 24.3 3.2 29.1 44.1 52 43.9 8.8-.1 30.7-22.3 45.8-31.4" stroke="#010000"/>
  </g>
 </g>
</svg>
