<svg height="210mm" viewBox="0 0 1052.4 744.1" width="297mm" xmlns="http://www.w3.org/2000/svg">
 <g fill="none" stroke-linecap="round">
  <g transform="translate(0 -308.26772)">
   <path d="m57.6 742.2h948.8" stroke="#969696" stroke-width="1.875"/>
   <g stroke="#000" stroke-dasharray="3.75 7.5" stroke-miterlimit="2" stroke-width=".9375">
    <path d="m58.3 844.1h948.8"/>
    <path d="m58.3 641.8h948.8"/>
    <path d="m58.3 540.6h948.8"/>
   </g>
  </g>
  <g stroke="#000">
   <g stroke-linejoin="round">
    <path d="m267.2 431.3c13.6.1 31.5-13.1 48.4-25.3 15.8-11.4 34.1-20 50.8-19.7 26.2-.4 33.6 31.6 33.6 45" stroke-width="5.624999"/>
    <path d="m391.8 404c1.2 7.1 5.2 21.5 4 26" stroke-width="5.625"/>
    <path d="m363.5 387.4c13-.1 22.2 8.8 25.1 17 3.4 9.6 4.7 20.4 4.2 26.9" stroke-width="4.6875"/>
   </g>
   <path d="m393.3 431.3 6.7.1" stroke-width="5.625"/>
   <g stroke-linejoin="round">
    <path d="m340.8 392.7c6.8-3.1 15.6-4.5 19.7-4.8 6.4-.5 11.7.6 16.7 3.6" stroke-width="3.75"/>
    <path d="m280 333.2c54.3-11 97.7-78.3 91.4-95-5.5-14.4-40.3 8.9-87.4 86.8-41.1 70.2-45.9 107.1-16.7 106.4" stroke-width="5.624999"/>
    <path d="m498.7 336.5-98.7 94.9" stroke-width="5.624999"/>
    <g stroke-width="5.625">
     <path d="m498.7 336.5-52.4 94.7 216.5-47 20.3 47.6"/>
     <path d="m683.1 431.8 51.9-95.6"/>
     <path d="m810.5 352.6c-48.5 4.9-81.4 21.7-75.5-16.4"/>
     <g transform="matrix(.72846687 .68508103 -.68508103 .72846687 0 0)">
      <ellipse cx="829.6369" cy="-304.23376" rx="4.609393" ry="6.862874"/>
      <ellipse cx="816.13867" cy="-288.61743" rx="4.609393" ry="6.862874"/>
     </g>
    </g>
   </g>
  </g>
 </g>
</svg>
