<svg height="210mm" viewBox="0 0 1052.4 744.1" width="297mm" xmlns="http://www.w3.org/2000/svg">
 <g fill="none" stroke-linecap="round">
  <g transform="translate(0 -308.26772)">
   <path d="m57.6 742.2h948.8" stroke="#969696" stroke-width="1.875"/>
   <g stroke="#000" stroke-dasharray="3.75 7.5" stroke-miterlimit="2" stroke-width=".9375">
    <path d="m58.3 844.1h948.8"/>
    <path d="m58.3 641.8h948.8"/>
    <path d="m58.3 540.6h948.8"/>
   </g>
  </g>
  <g stroke-linejoin="round">
   <path d="m369 430.9c56.7-20.6 86.2-145 10.8-71" stroke="#000" stroke-width="5.419139"/>
   <g stroke-width="5.625">
    <path d="m369 430.9 172.4-.4" stroke="#160800"/>
    <g stroke="#000">
     <path d="m549.7 414.7c1 .1 1.8.3 2.5.7.2.1.4.2.6.4 1.2.9 1.7 2.6 1 5.2-1.3 5.1-7.1 8-9.8 9-5.7 2-9.8-2.6-6.6-7.6 2-3.1 5.5-6.6 9.7-7.5.3-.1.6-.1.9-.1s.7-.1 1-.1c.8 0 1.6.1 2.4.3"/>
     <path d="m616.7 430.2 31.2-52.3c19.5-32.6 11-45.1-4.1-42.9-37 5.6-77.8 96.9-102.4 95.5"/>
     <path d="m616.7 430.2 84.7-41.2 19.4 42"/>
    </g>
   </g>
  </g>
 </g>
</svg>
