<svg height="210mm" viewBox="0 0 1052.4 744.1" width="297mm" xmlns="http://www.w3.org/2000/svg">
 <g fill="none" stroke="#000" stroke-linecap="round">
  <g transform="translate(0 -308.26772)">
   <path d="m57.6 742.2h948.8" stroke-width="1.875"/>
   <g stroke-dasharray="3.75 7.5" stroke-miterlimit="2" stroke-width=".9375">
    <path d="m58.3 844.1h948.8"/>
    <path d="m58.3 641.8h948.8"/>
    <path d="m58.3 540.6h948.8"/>
   </g>
  </g>
  <g stroke-width="5.625">
   <g stroke-linejoin="round">
    <path d="m374.8 422.1c.6.1 1.2.2 1.6.4.1.1.3.2.4.2.8.6 1 1.6.6 3.3-.8 3.2-4.4 5-6.1 5.7-3.5 1.3-6.2-1.6-4.1-4.8 1.3-2 3.5-4.1 6.1-4.7.2 0 .4-.1.5-.1h.7c.5 0 1 .1 1.5.2"/>
    <path d="m374.3 430c5.2-1.6 10.3-4.6 14.2-9.3l55.8-67.1"/>
    <path d="m444.3 353.7c18.4-24.8 63.9-37.1 63.4 29.4-.2 33.3 15.8 48 30.1 47.7 22.1-.6 40.6-16.4 59-35.5"/>
    <path d="m477.7 333.9c12.3-1.3 35.4 13.9 35.2 45.8-.2 30.1 8.2 53 28.3 51.2"/>
    <path d="m477.7 333.9c17-.9 25 18 24.8 49.9-.2 30.1 13.3 47.8 38.7 47.1"/>
    <ellipse cx="235.12495" cy="698.10406" rx="25.728558" ry="20.371416" transform="matrix(.79083574 -.61202846 .61202846 .79083574 0 0)"/>
    <path d="m596.9 395.3c3-4.3 51.6-43.1 57.7-48.1 23.7-19.2 60.9-14.6 37.5 14.4-27.4 33.8-45.5 50.2-39.4 63.9 4.2 9.6 21.6 5 36.5-3.7"/>
   </g>
   <path d="m692.9 338.7c14.5 10.1 4.3 27.8-12.4 44.2-14.4 14-23.4 26.4-29.5 38.7"/>
   <path d="m692.9 338.7c.8-1.1 3.9 6.1.7 14.2-3.2 8.4-12.8 17.8-18.3 22.9-10.8 10.1-30.6 29-24.3 45.7"/>
  </g>
  <g stroke-width="2.8125">
   <path d="m684.4 337c11.3 1.3 8.8 6.5 9.1 11"/>
   <path d="m656.1 414.3c-2.7 4.9-3.8 12 2.3 14.5"/>
   <path d="m648.4 415.6c-.1 5.7 2.9 11.5 4.9 13.1"/>
  </g>
 </g>
</svg>
