<svg height="210mm" viewBox="0 0 1052.4 744.1" width="297mm" xmlns="http://www.w3.org/2000/svg">
 <g fill="none" stroke-linecap="round">
  <g transform="translate(0 -308.26772)">
   <path d="m57.6 742.2h948.8" stroke="#969696" stroke-width="1.875"/>
   <g stroke="#000" stroke-dasharray="3.75 7.5" stroke-miterlimit="2" stroke-width=".9375">
    <path d="m58.3 844.1h948.8"/>
    <path d="m58.3 641.8h948.8"/>
    <path d="m58.3 540.6h948.8"/>
   </g>
  </g>
  <g stroke-linejoin="round">
   <g stroke-width="5.625">
    <g stroke="#000">
     <path d="m337.9 378.6s39.2-31.4 64-32.2c24 0 17.6 29.6 44.2 29.6 13.5 0 22.5-12 29.6-17.7"/>
     <ellipse cx="-30.371401" cy="494.34125" rx="25.728558" ry="20.371416" transform="matrix(.79083574 -.61202846 .61202846 .79083574 0 0)"/>
     <path d="m331.8 307-71.7 92.5"/>
     <path d="m331.8 307c24.3-33 69.8-34.2 37.2 20l-31.1 51.6"/>
     <path d="m710.4 378.9 67.4-42.6"/>
    </g>
    <path d="m464.9 362.3c50.1 26.5 55.6 9.4 82.5-3.7 2.7-1.3 5.3-2.7 7.9-3.8 8.1-3.6 15.7-5.8 20.8-4.8 11.2 2.1 14.6 20.9 23.7 27.1 4.9 3.4 13 3.1 21.8.9" stroke="#040000"/>
    <g stroke="#000">
     <path d="m557.9 353.6c6.1-2.8 18.6-2 26.5 15.3 5.6 12.2 15 10.8 23.9 10.6"/>
     <path d="m572.5 352c6.7 5.9 6.3.5 21.2 23.1"/>
     <path d="m746.6 307.8-45.1 71"/>
    </g>
   </g>
   <g stroke="#000">
    <path d="m729.4 339.5-24.2 38.9" stroke-width="3.75"/>
    <g stroke-width="5.625">
     <path d="m701.6 378.8 7.9.2"/>
     <path d="m621.6 377.9c9.3 2.9 15.5.4 24.1-7 27-23.4 63.4-90.4 94.7-87 1.7.3 3.2.7 4.6 1.3 9.1 3.9 10.9 14.6-4.2 40.7l-30.4 52.8"/>
    </g>
   </g>
  </g>
  <g stroke="#000">
   <path d="m745.2 286.4c6.1 2.8 6.9 11.6-1.9 25.1" stroke-width="3.75"/>
   <g stroke-linejoin="round" transform="matrix(.72846687 .68508103 -.68508103 .72846687 0 0)">
    <ellipse cx="708.53534" cy="-156.05817" rx="4.609393" ry="6.862874" stroke-width="5.625"/>
    <ellipse cx="582.78979" cy="-65.767258" rx="5.271423" ry="7.848564" stroke-width="14.034715"/>
   </g>
  </g>
 </g>
</svg>
