<svg height="210mm" viewBox="0 0 1052.4 744.1" width="297mm" xmlns="http://www.w3.org/2000/svg">
 <g fill="none" stroke-linecap="round">
  <g transform="translate(0 -308.26772)">
   <path d="m57.6 742.2h948.8" stroke="#969696" stroke-width="1.875"/>
   <g stroke="#000" stroke-dasharray="3.75 7.5" stroke-miterlimit="2" stroke-width=".9375">
    <path d="m58.3 844.1h948.8"/>
    <path d="m58.3 641.8h948.8"/>
    <path d="m58.3 540.6h948.8"/>
   </g>
  </g>
  <g stroke="#000" stroke-linejoin="round" stroke-width="5.625">
   <path d="m497.3 336.4-47.3 94.9"/>
   <path d="m450 431.3c50.4-47.9 85.4-90.9 109.1-94.8 16.1-2.6 28.1 5.8 12.4 25.3-27.4 33.8-44.3 49.8-38.3 63.4 5.4 12.3 32 2.7 46.5-12.2 1-1 21.1-29.1-1.7-34.2-22.7-5.1-48.7 6.5-50.6 20.9-1.3 10.2 11.8 17.4 22.1 21.4 9.8 3.8 29.3 8.8 48 6.4"/>
   <path d="m605 415.4c.8.1 1.4.2 1.9.5.2.1.3.2.5.3.9.7 1.3 2 .8 4-1 3.9-5.4 6.1-7.5 6.9-4.3 1.6-7.6-2-5.1-5.9 1.6-2.4 4.2-5.1 7.4-5.7.2 0 .4-.1.7-.1s.5-.1.8-.1c.6 0 1.2.1 1.9.3"/>
   <path d="m597.5 427.6c10.4 9 26.1-5.3 84-44.2l20 47.9"/>
  </g>
 </g>
</svg>
