<svg height="210mm" viewBox="0 0 1052.4 744.1" width="297mm" xmlns="http://www.w3.org/2000/svg">
 <g fill="none" stroke-linecap="round">
  <g transform="translate(0 -308.26772)">
   <path d="m57.6 742.2h948.8" stroke="#969696" stroke-width="1.875"/>
   <g stroke="#000" stroke-dasharray="3.75 7.5" stroke-miterlimit="2" stroke-width=".9375">
    <path d="m58.3 844.1h948.8"/>
    <path d="m58.3 641.8h948.8"/>
    <path d="m58.3 540.6h948.8"/>
   </g>
  </g>
  <g stroke="#000" stroke-linejoin="round">
   <path d="m360.2 431.1s81.9-64 100.2-83.1" stroke-width="5.625"/>
   <ellipse cx="160.04869" cy="576.3092" rx="25.728558" ry="20.371416" stroke-width="5.625" transform="matrix(.79083574 -.61202846 .61202846 .79083574 0 0)"/>
   <path d="m415.4 333.3c53.6-10.8 96.9-77.7 90.7-94.2-5.4-14.2-39.7 8.8-86.3 85.6l-59.6 106.4" stroke-width="5.55124"/>
   <g stroke-width="5.625">
    <path d="m518.3 330.6c6.5.3 10.2-3.5 12.4-5.8 12.5-13.4 32.9-62.3 46.6-76.8 16.9-17.9 26.9-18.3 33.4-5.7 6.5 12.7 4 18.2 12.3 27.2 15.9 17.3 43.8-27.8 34.5-34.3-6.3-4.4-25.9 3.2-49.4 42-35.3 57.8-14.2 56.8 9.8 52.2 3.3-.6 8.8-2.2 15.2-4.4"/>
    <path d="m585.1 240.6c9.6-6.8 18 4.1 21.6 15.8 3.2 10.5 8.7 18 23.9 17.1"/>
    <path d="m597 236.8c13.6.7 15.1 28.3 22.1 30"/>
    <path d="m524.1 316.3c.9.1 1.7.3 2.4.6.2.1.4.2.6.4 1.2.9 1.6 2.4.9 4.9-1.3 4.8-6.7 7.5-9.2 8.5-5.3 1.9-9.3-2.5-6.2-7.2 1.9-3 5.2-6.2 9.1-7 .3-.1.5-.1.8-.1s.7-.1 1-.1c.8 0 1.5.1 2.3.3"/>
    <path d="m484.2 335.3c12.8-.8 31.8-.7 36-4.6"/>
   </g>
  </g>
 </g>
</svg>
