<svg height="210mm" viewBox="0 0 1052.4 744.1" width="297mm" xmlns="http://www.w3.org/2000/svg">
 <g fill="none" stroke-linecap="round">
  <g transform="translate(0 -308.26772)">
   <path d="m57.6 742.2h948.8" stroke="#969696" stroke-width="1.875"/>
   <g stroke="#000" stroke-dasharray="3.75 7.5" stroke-miterlimit="2" stroke-width=".9375">
    <path d="m58.3 844.1h948.8"/>
    <path d="m58.3 641.8h948.8"/>
    <path d="m58.3 540.6h948.8"/>
   </g>
  </g>
  <g stroke="#000">
   <g stroke-linejoin="round" stroke-width="5.625">
    <path d="m325.5 458.1s306.1-177 384.8-223.1"/>
    <path d="m654.1 403.2c-17.6 15.3-31.4 22.9-44.6 26.6-54.9 15.4 34-131.2 77.7-177.4 4.7-4.9 15.9-14.6 23-17.4"/>
    <path d="m654.1 403.2 82.9-66.7-56.7 94.9"/>
    <path d="m124 431.3c16.7-21.7 21-32.9 45.4-41.6 21-5.4 35 2.5 12.3 40.5l-31.2 52.3"/>
    <path d="m150.5 482.5c.6.4 82.6-45.2 94.1-45.3 20.1-.2 19.9 43.9 34.7 43.9 10.1 0 35.2-15.4 46.2-22.9"/>
    <path d="m191.8 396.1-49.2 86.2"/>
    <path d="m192.1 402.3-45.6 79.9"/>
    <path d="m142.6 482.2 7.9.3"/>
   </g>
   <path d="m187.9 389.9c1.8 1.7 2.3 5.7.7 9.9" stroke-width="3.75"/>
   <g stroke-linejoin="round">
    <path d="m680.3 431.3c9.3-4.3 89.3-86.1 116.4-93.9 37.1-9.9 57.7 6.1 49.9 44.2" stroke-width="5.5833"/>
    <path d="m846.5 381.6 71.5-46.6 20 46.7" stroke-width="5.625"/>
   </g>
  </g>
 </g>
</svg>
