<svg height="210mm" viewBox="0 0 1052.4 744.1" width="297mm" xmlns="http://www.w3.org/2000/svg">
 <g fill="none" stroke-linecap="round">
  <g transform="translate(0 -308.26772)">
   <path d="m57.6 742.2h948.8" stroke="#969696" stroke-width="1.875"/>
   <g stroke="#000" stroke-dasharray="3.75 7.5" stroke-miterlimit="2" stroke-width=".9375">
    <path d="m58.3 844.1h948.8"/>
    <path d="m58.3 641.8h948.8"/>
    <path d="m58.3 540.6h948.8"/>
   </g>
  </g>
  <g stroke="#000">
   <g stroke-linejoin="round">
    <path d="m315.9 431.3c7.6-5.7 91.5-76.9 104.1-85.3" stroke-width="5.625"/>
    <path d="m440.7 335.9c-33 8.6-63.5 54.8-62.8 79.6.1 3.5.8 6.6 2.3 9.1 6.3 11.1 23.6 5.6 32.9 2.5 10.2-3.5 26.8-12.3 47.8-23.4 17.9-9.4 269.6-168.4 269.6-168.4" stroke-width="5.624999"/>
    <path d="m791.4 235.6c-32.5 38.5-92.6 86-60.8-.4" stroke-width="5.625"/>
    <path d="m228.8 431.2c18-14.4 34.2-33.8 47.6-47.9 11.5-12 21.3-22.1 30.2-30.3 10.5-9.7 20-15.7 28.7-16.3 2.7-.3 5.1-.1 7.1.7 7.8 3.3 10.1 15.8-1.5 40.6l-25 53.3" stroke-width="5.625"/>
    <path d="m345.5 358.3-36.9 73.3" stroke-width="5.440073"/>
    <path d="m332 390.4-20.2 40.7" stroke-width="3.626714"/>
    <path d="m308.5 431.6 7.4-.2" stroke-width="5.440073"/>
   </g>
   <path d="m342.9 338.6c4.1 1.7 6.9 9.7-.3 23.7" stroke-width="3.626714"/>
   <path d="m325.6 235.3-96.8 195.9" stroke-width="5.624959"/>
  </g>
 </g>
</svg>
