<svg height="210mm" viewBox="0 0 1052.4 744.1" width="297mm" xmlns="http://www.w3.org/2000/svg">
 <g fill="none" stroke-linecap="round">
  <g transform="translate(0 -308.26772)">
   <path d="m57.6 742.2h948.8" stroke="#969696" stroke-width="1.875"/>
   <g stroke="#000" stroke-dasharray="3.75 7.5" stroke-miterlimit="2" stroke-width=".9375">
    <path d="m58.3 844.1h948.8"/>
    <path d="m58.3 641.8h948.8"/>
    <path d="m58.3 540.6h948.8"/>
   </g>
  </g>
  <g stroke-width="5.625">
   <g stroke="#000">
    <g stroke-linejoin="round">
     <path d="m206.9 384.8c41.4 3.1 61.9-37.1 58.6-45.8-2.9-7.5-30.3-4.4-55 36.3-27.8 45.5-21.9 58.3-6.5 55.8 30.3-9.5 50.7-27.9 64.4-43.3"/>
     <path d="m268.4 387.9c19.2-22.2 40.1-50.1 57.7-52 15.7 0 25.1 42.8 43.3 44.1 7.8.6 15.4-.2 22.2-1.9"/>
     <ellipse cx="185.04259" cy="494.49362" rx="25.728558" ry="20.371416" transform="matrix(.89236516 -.45131411 .45131411 .89236516 0 0)"/>
    </g>
    <path d="m513 186.3-102.5 177.3"/>
    <g stroke-linejoin="round">
     <path d="m526.7 384.7 21.3 47.3"/>
     <path d="m497.2 335.6c-13.8 25.3-26.7 48.1-41.1 73-13.1 23.6 9 26.5 29 17.9 9.6-5.1 24.1-21 41.6-41.7"/>
    </g>
   </g>
   <g stroke-linejoin="round">
    <path d="m548 432.1c116.6-65.8 240.8-136.4 349.3-197.1" stroke="#000001"/>
    <path d="m945.9 237c-35.9 22.6-66.9 56.8-48.6-1.9" stroke="#000"/>
   </g>
  </g>
 </g>
</svg>
