<svg height="210mm" viewBox="0 0 1052.4 744.1" width="297mm" xmlns="http://www.w3.org/2000/svg">
 <g fill="none" stroke-linecap="round">
  <g transform="translate(0 -308.26772)">
   <path d="m57.6 742.2h948.8" stroke="#969696" stroke-width="1.875"/>
   <g stroke="#000" stroke-dasharray="3.75 7.5" stroke-miterlimit="2" stroke-width=".9375">
    <path d="m58.3 844.1h948.8"/>
    <path d="m58.3 641.8h948.8"/>
    <path d="m58.3 540.6h948.8"/>
   </g>
  </g>
  <g stroke="#000">
   <g stroke-linejoin="round" stroke-width="5.625">
    <path d="m541.1 234.4c-34.8 11.6-72.5 70.8-92.8 161.4-25.3 100.5-88.6 146.5-97.1 134.9-13.2-15.1 38.4-63.4 75.6-99.3 42.3-40.8 89.4-82.8 117.2-96 7.7-3.6 13.2-.8 17.3 7.2 6.5 12.7 4 18.2 12.3 27.2 15.9 17.3 43.8-27.8 34.5-34.3-6.3-4.4-25.9 3.2-49.4 42-25 40.9-22.9 53.5-10.8 53.6"/>
    <path d="m534 341c16-8.6 17-.3 25.2 15.7 5.1 9.9 6.9 18 22.2 17.1"/>
    <path d="m547.7 337.2c13.6.7 15.1 28.3 22.1 30"/>
   </g>
   <g stroke-width="5.624999">
    <path d="m655.1 335.6c-56.6 63.9-82.2 97-107.3 95.6"/>
    <path d="m655.1 335.6-46.6 95.4" stroke-linejoin="round"/>
   </g>
  </g>
 </g>
</svg>
