<svg height="210mm" viewBox="0 0 1052.4 744.1" width="297mm" xmlns="http://www.w3.org/2000/svg">
 <g fill="none" stroke-linecap="round">
  <g transform="translate(0 -308.26772)">
   <path d="m57.6 742.2h948.8" stroke="#969696" stroke-width="1.875"/>
   <g stroke="#000" stroke-dasharray="3.75 7.5" stroke-miterlimit="2" stroke-width=".9375">
    <path d="m58.3 844.1h948.8"/>
    <path d="m58.3 641.8h948.8"/>
    <path d="m58.3 540.6h948.8"/>
   </g>
  </g>
  <g stroke="#000">
   <g stroke-width="5.625">
    <path d="m430.4 429c14.9-3.8 62.7-87.8 92.3-92.4 16.1-2.5 28.1 5.8 12.4 25.3-27.4 33.8-44.3 49.8-38.3 63.4 5.4 12.3 32 2.7 46.5-12.2 1-1 20.1-25.6-1.7-34.2-22-8.6-52.9 1.5-53.1 21.2-.1 10.3 6 21.3 16.9 21.2 5.6-.1 13.6 0 18.3-1.7" stroke-linejoin="round"/>
    <path d="m536.4 338.7c14.5 10.1 4.3 27.8-12.4 44.2-14.4 14-23.4 26.4-29.5 38.7"/>
    <path d="m536.4 338.7c.8-1.1 3.9 6.1.7 14.2-3.2 8.4-12.8 17.8-18.3 22.9-10.8 10.1-30.6 29-24.3 45.7"/>
   </g>
   <g stroke-width="2.8125">
    <path d="m527.9 337c11.3 1.3 8.8 6.5 9.1 11"/>
    <path d="m499.6 414.3c-2.7 4.9-3.8 12 2.3 14.5"/>
    <path d="m491.9 415.6c-.1 5.7 2.9 11.5 4.9 13.1"/>
   </g>
   <g stroke-linejoin="round" stroke-width="5.625">
    <path d="m431.6 418.6c.8.1 1.4.2 1.9.5.2.1.3.2.5.3.9.7 1.3 2 .8 4-1 3.9-5.4 6.1-7.5 6.9-4.3 1.6-7.6-2-5.1-5.9 1.6-2.4 4.2-5.1 7.4-5.7.2 0 .4-.1.7-.1s.5-.1.8-.1c.6 0 1.2.1 1.9.3"/>
    <path d="m523.7 419.7c10.1-2.9 68.8-27.8 92.9-28.8 24-.8 24.8 40.6 41.3 40.2 10.8-.3 18.5-10 25.1-17.1"/>
   </g>
  </g>
 </g>
</svg>
