<svg height="210mm" viewBox="0 0 1052.4 744.1" width="297mm" xmlns="http://www.w3.org/2000/svg">
 <g fill="none" stroke-linecap="round">
  <g transform="translate(0 -308.26772)">
   <path d="m57.6 742.2h948.8" stroke="#969696" stroke-width="1.875"/>
   <g stroke="#000" stroke-dasharray="3.75 7.5" stroke-miterlimit="2" stroke-width=".9375">
    <path d="m58.3 844.1h948.8"/>
    <path d="m58.3 641.8h948.8"/>
    <path d="m58.3 540.6h948.8"/>
   </g>
  </g>
  <g stroke="#000" stroke-linejoin="round">
   <g stroke-width="5.624999">
    <path d="m467.9 336.1-46.6 95.4"/>
    <path d="m467.9 336.1h-8.2"/>
    <path d="m464 336.9-45.7 93.9"/>
    <path d="m421.3 431.5h-8.2"/>
    <path d="m459.7 336.1-46.6 95.4"/>
    <path d="m363 432 96.7-95.9"/>
    <path d="m707.8 336.1-46.6 95.4"/>
    <path d="m707.8 336.1h-8.2"/>
    <path d="m703.9 337-45.7 93.9"/>
    <path d="m661.2 431.5h-8.2"/>
    <path d="m699.6 336.2-46.6 95.4"/>
   </g>
   <g stroke-width="5.625">
    <path d="m589.6 431.8 110-95.6"/>
    <path d="m641.6 336.2-52 95.5"/>
    <path d="m421.3 431.5c19.8-9.4 66-32.1 83.5-32.4 17.1-.2 17.6 31.8 34.2 32.2 13.7.4 32.8-21.3 102.6-95.1"/>
   </g>
  </g>
 </g>
</svg>
