<svg height="210mm" viewBox="0 0 1052.4 744.1" width="297mm" xmlns="http://www.w3.org/2000/svg">
 <g fill="none" stroke-linecap="round">
  <g transform="translate(0 -308.26772)">
   <path d="m57.6 742.2h948.8" stroke="#969696" stroke-width="1.875"/>
   <g stroke="#000" stroke-dasharray="3.75 7.5" stroke-miterlimit="2" stroke-width=".9375">
    <path d="m58.3 844.1h948.8"/>
    <path d="m58.3 641.8h948.8"/>
    <path d="m58.3 540.6h948.8"/>
   </g>
  </g>
  <g stroke="#000" stroke-linejoin="round">
   <path d="m388.3 434.2c-27 16.7-90.2 91.8-63 99 11.2 2.5 33.1-7.6 54.5-66.3 15.7-47.2 16.4-112.8 70.4-130.9" stroke-width="5.624999"/>
   <path d="m388.3 434.2c21.9-17.3 92-67.6 103.9-81.8" stroke-width="5.624999"/>
   <path d="m479.7 357c15.7 7.9 40.4-17 66.5-51.2" stroke-width="5.625002"/>
   <ellipse cx="590.62714" cy="-78.968437" rx="5.271423" ry="7.848564" stroke-width="14.034715" transform="matrix(.72846687 .68508103 -.68508103 .72846687 0 0)"/>
   <g stroke-width="5.624999">
    <path d="m546.2 305.7c25.3-34.8 47.6-64.7 59-79.1 13.4-18.5 36.1-42.8 51.1-42.1 5.4.5 8.4 4.4 9.3 10.8 1.1 7.4-.5 18.1-4.2 30.7-16.1 54.4-71.5 144.1-117.3 154.1"/>
    <path d="m544.1 380.1c-4.1 1.5-7-2.5-2.9-5 17-10.2 99.3-32.7 114.1-30.4 15.7 4.3 13.6 35.7 29.5 35.9 5.5 0 13.1-3.7 24.4-13.5"/>
   </g>
  </g>
 </g>
</svg>
