<svg height="210mm" viewBox="0 0 1052.4 744.1" width="297mm" xmlns="http://www.w3.org/2000/svg">
 <g fill="none" stroke-linecap="round">
  <g transform="translate(0 -308.26772)">
   <path d="m57.6 742.2h948.8" stroke="#969696" stroke-width="1.875"/>
   <g stroke="#000" stroke-dasharray="3.75 7.5" stroke-miterlimit="2" stroke-width=".9375">
    <path d="m58.3 844.1h948.8"/>
    <path d="m58.3 641.8h948.8"/>
    <path d="m58.3 540.6h948.8"/>
   </g>
  </g>
  <g stroke-linejoin="round" stroke-width="5.625">
   <g stroke="#000">
    <path d="m347.9 407.7c-14.1 13.1-27.5 19.3-38.6 22.5-59.2 15.4 33.8-137 77.9-183.7 4.7-5 11.2-10.7 18.9-11.9"/>
    <path d="m423.5 336.2c-25.1 25.1-62.2 59.4-75.6 71.5"/>
    <path d="m472.1 338.1c-25 25.5-66.9 56.8-48.6-1.9"/>
    <path d="m472.1 338.1 55.7-53.5-55.8 97.2"/>
   </g>
   <g stroke="#00000a">
    <path d="m746.5 233.7-55.8 97.2"/>
    <path d="m746.5 233.7h-10.6"/>
    <path d="m741 233.7-55.8 97.2"/>
    <path d="m690.7 330.9h-10.6"/>
    <path d="m472 381.9 263.9-148.1-55.8 97.2 11-.1"/>
   </g>
  </g>
 </g>
</svg>
