<svg height="210mm" viewBox="0 0 1052.4 744.1" width="297mm" xmlns="http://www.w3.org/2000/svg">
 <g fill="none" stroke-linecap="round">
  <g transform="translate(0 -308.26772)">
   <path d="m57.6 742.2h948.8" stroke="#969696" stroke-width="1.875"/>
   <g stroke="#000" stroke-dasharray="3.75 7.5" stroke-miterlimit="2" stroke-width=".9375">
    <path d="m58.3 844.1h948.8"/>
    <path d="m58.3 641.8h948.8"/>
    <path d="m58.3 540.6h948.8"/>
   </g>
  </g>
  <g stroke="#000" stroke-linejoin="round" stroke-width="5.625">
   <path d="m492.5 431.9s11.4-.4 16.5-2.6c9.5-4.1 99.1-93.4 99.1-93.4"/>
   <path d="m500.5 417.6c.9.3 1.8.6 2.4 1.1.2.2.4.3.5.5 1 1.2 1.2 2.8 0 5.3-2.3 4.7-8.4 6.5-11.3 7.1-5.9 1-9.2-4.4-5.1-8.7 2.6-2.7 6.7-5.5 10.9-5.5h.9c.3 0 .7.1 1 .1.8.1 1.6.4 2.3.8"/>
   <path d="m620.2 410.5c14.9-11.2 22.4-16.2 33-16.3 24.9-.2 11.1 38 37 36.3 7.3-.4 14.5-4.7 21.7-10.3"/>
   <path d="m608.1 336c-13.8 25.3-28.6 50-43 74.9-13.1 23.6 9.4 24.7 29.4 16 6.5-2.9 16.6-10.4 25.7-16.4"/>
   <path d="m445.8 385.5 21.1 45.9h19.9"/>
  </g>
 </g>
</svg>
