<svg height="210mm" viewBox="0 0 1052.4 744.1" width="297mm" xmlns="http://www.w3.org/2000/svg">
 <g fill="none" stroke-linecap="round">
  <g transform="translate(0 -308.26772)">
   <path d="m57.6 742.2h948.8" stroke="#969696" stroke-width="1.875"/>
   <g stroke="#000" stroke-dasharray="3.75 7.5" stroke-miterlimit="2" stroke-width=".9375">
    <path d="m58.3 844.1h948.8"/>
    <path d="m58.3 641.8h948.8"/>
    <path d="m58.3 540.6h948.8"/>
   </g>
  </g>
  <g stroke="#000">
   <path d="m582.1 421.2c20.4.4 87-31.7 92.7-35.2 7.2-4.5 15.1-9 20.2-13.4 12.8-11.2 18.6-26.1 16.7-30.9-2.8-7.3-34.7-8.6-58.5 30.7-26.3 43.1-17.7 60.3-4.2 58.6 5.2-.3 8.5-1.1 11.8-2.2 2.2-.7 3.7-1 6.4-2.3" stroke-linejoin="round" stroke-width="5.625"/>
   <path d="m691.8 343c-30.3 19.2-39.8 50.5-52.2 79" stroke-width="4.6875"/>
   <path d="m684.8 343c-17.9 10.4-41.1 45.1-46.5 68.6" stroke-width="4.6875"/>
   <path d="m645.4 410.5c-4 10.7-6.4 18.8 3.6 20.4" stroke-width="2.8125"/>
   <path d="m706.2 339.7c-7.4-2.4-11 2.2-15.8 5.2" stroke-width="2.8125"/>
   <path d="m681.3 347.7c-28 20.5-28.9 42.2-43.4 69.6" stroke-width="4.6875"/>
   <g stroke-linejoin="round" stroke-width="5.625">
    <path d="m667.2 426.4c2.9-1.5 2.6-1.2 7.1-4.1 15.8-10.2 33.9-21.3 47-21.9 16-.6 21.6 31 32.6 30.7 7.2-.2 12.4-7.6 16.7-13"/>
    <path d="m301.1 431.7s51.1-33.5 99.6-34.8 71 33.7 105.3 33.9c15.2.1 26.3-6.1 35.9-13 6.6-4.8 62.4-52.1 94.6-81.9"/>
    <path d="m579.6 433.6c-28.5 21.5-51.6 39.4-56.5 44.4-25.9 26.2-34.6 42.2-31.7 49.9 1.1 2.9 17.7 21.8 57.3-41.8l88-150.2"/>
    <path d="m586.9 409.3c.8.1 1.4.2 1.9.5.2.1.3.2.5.3.9.7 1.3 2 .8 4-1 3.9-5.4 6.1-7.5 6.9-4.3 1.6-7.6-2-5.1-5.9 1.6-2.4 4.2-5.1 7.4-5.7.2 0 .4-.1.7-.1s.5-.1.8-.1c.6 0 1.2.1 1.9.3"/>
   </g>
  </g>
 </g>
</svg>
