<svg height="210mm" viewBox="0 0 1052.4 744.1" width="297mm" xmlns="http://www.w3.org/2000/svg">
 <g fill="none" stroke-linecap="round">
  <g stroke="#000" transform="translate(0 -308.26772)">
   <path d="m57.6 742.2h948.8" stroke-width="1.875"/>
   <g stroke-dasharray="3.75 7.5" stroke-miterlimit="2" stroke-width=".9375">
    <path d="m58.3 844.1h948.8"/>
    <path d="m58.3 641.8h948.8"/>
    <path d="m58.3 540.6h948.8"/>
   </g>
  </g>
  <g stroke-width="5.625">
   <path d="m352.9 381c8.2-13.7 22.4-44.3 44-45.2 21.8.5 26.3 38.9 44.8 41.6 9.5 2 26.1-1.7 36.7-6.5" stroke="#000" stroke-linejoin="round"/>
   <path d="m352.9 381-28.7 52" stroke="#000"/>
   <g stroke-linejoin="round">
    <ellipse cx="154.45674" cy="568.25757" rx="22.501837" ry="17.816555" stroke="#000" transform="matrix(.79083574 -.61202846 .61202846 .79083574 0 0)"/>
    <path d="m506.3 379.9c1 .1 1.8.3 2.5.7.2.1.4.2.6.4 1.2.9 1.7 2.6 1 5.2-1.3 5.1-7.1 8-9.8 9-5.7 2-9.8-2.6-6.6-7.6 2-3.1 5.5-6.6 9.7-7.5.3-.1.6-.1.9-.1s.7-.1 1-.1c.8 0 1.6.1 2.4.3" stroke="#030002"/>
    <path d="m458.8 373.3c17.4 4.3 45-1.3 50.5 7.1" stroke="#030002"/>
    <g stroke="#000">
     <path d="m623.1 424.8c14.2-8 78.9-39.7 78.9-39.7l22.1 46.5"/>
     <path d="m502.6 379.9c16.3-4.3 34.3-3.7 41.6-1.7 14.3 4 19.7 5.9 33.5 19.3s12.7 47.7 45.4 27.3"/>
     <path d="m542.6 377.9c9.6 1.3 20.7 13.8 33.6 30.6 9.3 12.1 14.8 23.2 29.9 22.8"/>
    </g>
   </g>
  </g>
  <path d="m562.2 390.1c6.7 7.6 15.3 7.3 28.7 34.9" stroke="#000" stroke-linejoin="round" stroke-width="6.380773"/>
 </g>
</svg>
