<svg height="210mm" viewBox="0 0 1052.4 744.1" width="297mm" xmlns="http://www.w3.org/2000/svg">
 <g fill="none" stroke-linecap="round">
  <g transform="translate(0 -308.26772)">
   <path d="m57.6 742.2h948.8" stroke="#969696" stroke-width="1.875"/>
   <g stroke="#000" stroke-dasharray="3.75 7.5" stroke-miterlimit="2" stroke-width=".9375">
    <path d="m58.3 844.1h948.8"/>
    <path d="m58.3 641.8h948.8"/>
    <path d="m58.3 540.6h948.8"/>
   </g>
  </g>
  <g stroke="#000">
   <g stroke-linejoin="round" stroke-width="5.625">
    <path d="m220.5 430.8c50.4-65.5 115.5-58.4 97 .6"/>
    <path d="m369.7 474.9s52.8-33 67.9-36.8"/>
    <path d="m437.6 438.1c19.6-5.3 38 3 20.4 24.8-27.4 33.8-47.2 52.6-39.4 63.9 9 13.2 36.1 1.2 49.7-14.9 6.6-7.1 58.1-75.2 58.1-75.2"/>
    <path d="m317.5 431.4s49.1-39.7 71.2-49.3c19.6-8.3 35 2.5 12.3 40.5l-31.2 52.3"/>
    <path d="m411.1 388.4-49.2 86.2"/>
    <path d="m411.3 394.7-45.6 79.9"/>
    <path d="m361.8 474.6 7.9.2"/>
   </g>
   <path d="m407.1 382.3c1.8 1.7 2.3 5.7.7 9.9" stroke-width="3.75"/>
   <g stroke-linejoin="round" stroke-width="5.625">
    <path d="m589.3 382.8-55.8 97.2"/>
    <path d="m589.3 382.8h-10.6"/>
    <path d="m583.8 382.8-55.8 97.2"/>
    <path d="m533.5 480h-10.6"/>
    <path d="m578.7 382.8-55.8 97.2 11-.1c55.8-21.4 153.3-61.5 200.4-81.7"/>
    <path d="m734.4 398.3c11.3-4.7 28.8-12.4 46.6-13.4 15.3-.9 20 7.4 4.8 26.2-27.4 33.8-45.5 50.2-39.4 63.9 4.2 9.6 23.1 7.2 36.5-3.7l8-6.5"/>
    <path d="m875.6 386.1-55.8 97.2"/>
    <path d="m875.6 386.1h-10.6"/>
    <path d="m870.1 386.2-55.8 97.2"/>
    <path d="m819.8 483.4h-10.6"/>
    <path d="m790.8 464.8c7-5.7 74.3-78.6 74.3-78.6l-55.8 97.2 10.6-.1"/>
    <path d="m578.7 382.8-72 48.8"/>
   </g>
  </g>
 </g>
</svg>
