<svg height="210mm" viewBox="0 0 1052.4 744.1" width="297mm" xmlns="http://www.w3.org/2000/svg">
 <g fill="none" stroke-linecap="round">
  <g transform="translate(0 -308.26772)">
   <path d="m57.6 742.2h948.8" stroke="#969696" stroke-width="1.875"/>
   <g stroke="#000" stroke-dasharray="3.75 7.5" stroke-miterlimit="2" stroke-width=".9375">
    <path d="m58.3 844.1h948.8"/>
    <path d="m58.3 641.8h948.8"/>
    <path d="m58.3 540.6h948.8"/>
   </g>
  </g>
  <g stroke="#000" stroke-linejoin="round" stroke-width="5.625">
   <path d="m601.6 336.2c-34 8.9-68.8 56.9-65.1 80.2 1.6 10 9 15.8 22.7 14.9 26.4-1.6 61.3-26.4 111.9-27.9 50.5-1.4 58.8 28.1 111 27.9 15.3-.1 37.8-6.6 54.4-12.6"/>
   <path d="m392.5 235.3-60.8 107.6c-24.8 38.8-52 72.9-91.2 88.5"/>
   <path d="m240.5 431.3c-3.3 1.1-5.4-2.2-3.9-4.5 3.5-5.3 79.4-37.4 101.4-36.9 8.9.2 16.2 2.2 21.8 6.1 11.3 7.8 18.8 22 25.1 36.8"/>
   <path d="m384.9 432.9c10.5 24.8 14.5 49.2 38.6 49.9 37.5 1.2 119.9-108.6 151.4-132"/>
  </g>
 </g>
</svg>
