<svg height="210mm" viewBox="0 0 1052.4 744.1" width="297mm" xmlns="http://www.w3.org/2000/svg">
 <g fill="none" stroke-linecap="round">
  <g transform="translate(0 -308.26772)">
   <path d="m57.6 742.2h948.8" stroke="#969696" stroke-width="1.875"/>
   <g stroke="#000" stroke-dasharray="3.75 7.5" stroke-miterlimit="2" stroke-width=".9375">
    <path d="m58.3 844.1h948.8"/>
    <path d="m58.3 641.8h948.8"/>
    <path d="m58.3 540.6h948.8"/>
   </g>
  </g>
  <g stroke="#000" stroke-width="5.625">
   <g stroke-linejoin="round">
    <path d="m579.9 431.2 79.4-47.5 19 47.5"/>
    <path d="m489.9 431.1c17.1-32.6 38.2-41.9 57.8-45.2 25.8-4.4 42.7 11.8 32.2 45.4"/>
    <path d="m776.7 234.8-98.4 196.4"/>
    <path d="m321 431.2c8.5-10 17.9-21 27.1-29.4 2.2-2 4.6-4.1 7.2-5.9 5.1-3.7 11-6.6 18.1-7.5 3.3-.4 6.4-.1 9 .9 2.8 1 5 2.6 6.6 4.7 3.7 5.2 3.1 13.5-5.1 23.4-19.5 23.6-37.1 37.5-39.5 50-.6 3.1 0 6.1 1.5 9.2 1.3 2.8 3.3 4.4 6.1 5.6 2.7 1.1 6.2 1.8 10.2 1.8 5.2.1 9.7-.8 14.4-3 5.1-2.4 10.3-6.3 15.8-12 16.9-17.4 72.1-80.6 72.1-80.6"/>
   </g>
   <path d="m464.5 388.5-78.5 144"/>
  </g>
 </g>
</svg>
