<svg height="210mm" viewBox="0 0 1052.4 744.1" width="297mm" xmlns="http://www.w3.org/2000/svg">
 <g fill="none" stroke-linecap="round">
  <g transform="translate(0 -308.26772)">
   <path d="m57.6 742.2h948.8" stroke="#969696" stroke-width="1.875"/>
   <g stroke="#000" stroke-dasharray="3.75 7.5" stroke-miterlimit="2" stroke-width=".9375">
    <path d="m58.3 844.1h948.8"/>
    <path d="m58.3 641.8h948.8"/>
    <path d="m58.3 540.6h948.8"/>
   </g>
  </g>
  <g stroke="#000">
   <g stroke-width="5.625">
    <ellipse cx="238.22926" cy="701.28839" rx="25.728558" ry="20.371416" stroke-linejoin="round" transform="matrix(.79083574 -.61202846 .61202846 .79083574 0 0)"/>
    <path d="m672.8 431.9c-15.3 11.2-33.6 28-39.4 33.7-25.9 26.2-48.6 55.7-45.7 63.4 1.1 2.9 22.5 22.8 62-40.9l83.3-151.7-13.2.5-109.6 52.4" stroke-linejoin="round"/>
    <path d="m719.9 337-90.5 178.4"/>
    <path d="m727 339.9-83.7 157.4"/>
    <path d="m724 338.8-90.8 170.6"/>
   </g>
   <path d="m638.2 495.9c-6.5 14.2-13.9 23.4-21.7 30.4" stroke-width="3.75"/>
   <g stroke-linejoin="round" stroke-width="5.625">
    <path d="m362.1 385.3c40.9 3.1 61.2-36.7 58-45.3-2.8-7.4-30-4.4-54.4 35.9-43.2 70.8-8.4 62 22.1 39.3 2.5-1.9 17.3-15.9 19.7-17.9"/>
    <path d="m479.8 334-55.8 97.2"/>
    <path d="m479.8 334h-10.6"/>
    <path d="m474.2 334-55.8 97.2"/>
    <path d="m424 431.2h-10.6"/>
    <path d="m407.4 397.2c17.2-16.6 44.5-46.6 61.7-63.2l-55.8 97.2 11-.1"/>
    <path d="m425 431.1s82-36.7 93.5-37.6c24.4-1.9 16.9 38.5 39.8 37.9 15.2-.4 27.1-15.2 43.3-35.5"/>
   </g>
  </g>
 </g>
</svg>
