<svg height="210mm" viewBox="0 0 1052.4 744.1" width="297mm" xmlns="http://www.w3.org/2000/svg">
 <g fill="none" stroke-linecap="round">
  <g transform="translate(0 -308.26772)">
   <path d="m57.6 742.2h948.8" stroke="#969696" stroke-width="1.875"/>
   <g stroke="#000" stroke-dasharray="3.75 7.5" stroke-miterlimit="2" stroke-width=".9375">
    <path d="m58.3 844.1h948.8"/>
    <path d="m58.3 641.8h948.8"/>
    <path d="m58.3 540.6h948.8"/>
   </g>
  </g>
  <g stroke="#000" stroke-linejoin="round" stroke-width="5.625">
   <path d="m516.6 336.2c-34 8.9-68.8 56.9-65.1 80.2 1.6 10 9 15.8 22.7 14.9 26.4-1.6 61.3-26.4 111.9-27.9 50.5-1.4 58.8 28.1 111 27.9 15.3-.1 37.8-6.6 54.4-12.6"/>
   <path d="m297.2 431.6c6.5.3 10.2-3.5 12.4-5.8 12.5-13.4 32.9-61.4 46.6-75.8 16.9-17.9 26.9-18.3 33.4-5.7 6.5 12.7 4 18.2 12.3 27.2 15.9 17.3 43.1-27.8 33.8-34.3-6.3-4.4-25.2 3.2-48.7 42-24.7 40.4-21.1 52.9-9.4 52.6 31.3.2 87.7-68.2 117.1-84.6"/>
   <path d="m364.1 342.4c9.6-6.8 18 4.1 21.6 15.8 3.2 10.5 8.7 18 23.9 17.1"/>
   <path d="m376 338.7c13.6.7 15.1 28.3 22.1 30"/>
   <ellipse cx="509.39407" cy="104.95287" rx="4.609393" ry="6.862874" transform="matrix(.72846687 .68508103 -.68508103 .72846687 0 0)"/>
  </g>
 </g>
</svg>
