<svg height="210mm" viewBox="0 0 1052.4 744.1" width="297mm" xmlns="http://www.w3.org/2000/svg">
 <g fill="none" stroke-linecap="round">
  <g transform="translate(0 -308.26772)">
   <path d="m57.6 742.2h948.8" stroke="#969696" stroke-width="1.875"/>
   <g stroke="#000" stroke-dasharray="3.75 7.5" stroke-miterlimit="2" stroke-width=".9375">
    <path d="m58.3 844.1h948.8"/>
    <path d="m58.3 641.8h948.8"/>
    <path d="m58.3 540.6h948.8"/>
   </g>
  </g>
  <g stroke="#000">
   <path d="m561.7 336.8-72.8 54" stroke-linejoin="round" stroke-width="5.625"/>
   <path d="m518.5 396.3a19.2 25.1 41.6 0 1 -14.3 31.3 19.2 25.1 41.6 0 1 -27.6-6.8 19.2 25.1 41.6 0 1 14.3-31.3 19.2 25.1 41.6 0 1 27.6 6.8z" stroke-linejoin="round" stroke-width="5.625"/>
   <path d="m559.9 482.3h-77.8" stroke-width="5.625001"/>
   <g stroke-linejoin="round" stroke-width="5.625">
    <path d="m561.7 336.8-23.8 48.4"/>
    <path d="m568.9 339.9-23.5 45.1"/>
    <path d="m549.9 385-12 .2"/>
    <path d="m573.6 336.6-23.7 48.3"/>
    <path d="m564.4 337.7-23.5 45.1"/>
    <path d="m573.6 336.6-12 .2"/>
   </g>
  </g>
 </g>
</svg>
