<svg height="210mm" viewBox="0 0 1052.4 744.1" width="297mm" xmlns="http://www.w3.org/2000/svg">
 <g fill="none" stroke-linecap="round">
  <g transform="translate(0 -308.26772)">
   <path d="m57.6 742.2h948.8" stroke="#969696" stroke-width="1.875"/>
   <g stroke="#000" stroke-dasharray="3.75 7.5" stroke-miterlimit="2" stroke-width=".9375">
    <path d="m58.3 844.1h948.8"/>
    <path d="m58.3 641.8h948.8"/>
    <path d="m58.3 540.6h948.8"/>
   </g>
  </g>
  <g stroke="#000" stroke-linejoin="round">
   <path d="m486.4 325.4c-41.1 70.2-45.9 106.7-16.7 105.7 33.6-1.3 123.1-45.2 181.8-73.3s120.3-56.9 144.4-67.9c6.9-3.1 14.8-5.7 21.4-6.4 8.8-.6 14.6 0 18.6 4.5 2.5 2.8 3.8 7.2 2.6 13.4-1.2 6.1-4.9 13.9-10.8 24.5l-29.4 52.3" stroke-width="5.624999"/>
   <path d="m798.2 378.1c25-11.8 60.2-31.5 77.8-32.4 16.8-.7 22.7 32.6 34.2 32.2 7.5-.2 13.1-6.2 18.3-10.8" stroke-width="5.625"/>
   <path d="m141.6 431.1 233.8-46.3 21 46.7" stroke-width="5.625"/>
   <path d="m397.1 430.1s195.9-169.5 180.4-193.3c-8.4-12.9-43.9 10.6-91.1 88.5" stroke-width="5.625003"/>
  </g>
 </g>
</svg>
