<svg height="210mm" viewBox="0 0 1052.4 744.1" width="297mm" xmlns="http://www.w3.org/2000/svg">
 <g fill="none" stroke-linecap="round">
  <g transform="translate(0 -308.26772)">
   <path d="m57.6 742.2h948.8" stroke="#969696" stroke-width="1.875"/>
   <g stroke="#000" stroke-dasharray="3.75 7.5" stroke-miterlimit="2" stroke-width=".9375">
    <path d="m58.3 844.1h948.8"/>
    <path d="m58.3 641.8h948.8"/>
    <path d="m58.3 540.6h948.8"/>
   </g>
  </g>
  <g stroke="#000">
   <g stroke-linejoin="round">
    <path d="m483.1 385.7-47.5 81.9" stroke-width="6.5625"/>
    <path d="m406.1 431.4 67.7-46-39 72.4c-7.2 13.4 1.8 23.1 15 23 1.6 0 3.1-.2 4.5-.3" stroke-width="5.625"/>
    <path d="m478.4 385.7-44.7 81.9" stroke-width="6.5625"/>
   </g>
   <path d="m439.6 463.4c-3.1 6.1-3.4 13.5 3.2 15.5" stroke-width="3.75"/>
   <g stroke-linejoin="round">
    <path d="m483.1 385.7-9.3-.4" stroke-width="6.5625"/>
    <g stroke-width="5.625">
     <path d="m309.1 431.5c50.4-65.5 115.5-59.1 97-.1"/>
     <path d="m621.7 532.8c16.8-.5 33-21.3 35-47.2 2.1-26.8 36.3-48.7 36.3-48.7s-230.7 43.1-238.7 43.6"/>
    </g>
   </g>
  </g>
 </g>
</svg>
