<svg height="210mm" viewBox="0 0 1052.4 744.1" width="297mm" xmlns="http://www.w3.org/2000/svg">
 <g fill="none" stroke-linecap="round">
  <g transform="translate(0 -308.26772)">
   <path d="m57.6 742.2h948.8" stroke="#969696" stroke-width="1.875"/>
   <g stroke="#000" stroke-dasharray="3.75 7.5" stroke-miterlimit="2" stroke-width=".9375">
    <path d="m58.3 844.1h948.8"/>
    <path d="m58.3 641.8h948.8"/>
    <path d="m58.3 540.6h948.8"/>
   </g>
  </g>
  <g stroke="#000" stroke-linejoin="round">
   <path d="m363.3 433.1s25.9-32.6 47.9-30.3c13.8 1.5 16.8 29.1 31.7 28.7 17.4 1.3 130.6-82.3 195.7-124.7" stroke-width="5.625"/>
   <path d="m714.7 354.6s-69.2 10.5-74.1 11.8c-5.2 1.4-8 4.3-8 6.9 0 3.7-.1 5 4.9 5.5 3 .3 9.7-4.2 11-5 39.7-22.7 62.2-93.6 36.1-90-14-1.3-33 14-45.9 23.1" stroke-width="5.419139"/>
   <g stroke-width="5.638243">
    <path d="m689.6 287.3c2.3 32.7-17.1 62.2-38.1 82.5"/>
    <path d="m692.2 289.6c5.2 34.8-19.9 69.4-45 83.3"/>
    <path d="m684.9 286c3.6 34.1-21.2 69-37.7 86.9"/>
   </g>
   <g stroke-width="2.819121">
    <path d="m677.5 285.7c7.9-3.1 5.9 10.5 5.9 15.8"/>
    <path d="m653.7 363.2c-5.5 6.9-8.3 10.7-14.3 14.1"/>
   </g>
  </g>
 </g>
</svg>
