<svg height="210mm" viewBox="0 0 1052.4 744.1" width="297mm" xmlns="http://www.w3.org/2000/svg">
 <g fill="none" stroke-linecap="round">
  <g transform="translate(0 -308.26772)">
   <path d="m57.6 742.2h948.8" stroke="#969696" stroke-width="1.875"/>
   <g stroke="#000" stroke-dasharray="3.75 7.5" stroke-miterlimit="2" stroke-width=".9375">
    <path d="m58.3 844.1h948.8"/>
    <path d="m58.3 641.8h948.8"/>
    <path d="m58.3 540.6h948.8"/>
   </g>
  </g>
  <g stroke="#000" stroke-linejoin="round" stroke-width="5.625">
   <path d="m421.7 432.4c165.9-75.2 202-81.6 244.9-111.8 20.1-14.2 34.5-27.4 46.1-40.8 8.6-10 26.1-31 14.5-42.1-12.6-11.7-37.8 29.1-41.5 35.4-32.6 53.5-113.5 204.5-144.1 259.2"/>
   <path d="m400.5 385.1 21.3 47.3"/>
   <path d="m362.1 336.4s-21.5 47.6-36 72.5c-8.3 15-1.1 22.5 10.9 22.2 7-.2 15.5-3 23.7-8.6 12.9-10.7 26-24.2 39.7-37.5"/>
  </g>
 </g>
</svg>
