<svg height="210mm" viewBox="0 0 1052.4 744.1" width="297mm" xmlns="http://www.w3.org/2000/svg">
 <g fill="none" stroke-linecap="round">
  <g transform="translate(0 -308.26772)">
   <path d="m57.6 742.2h948.8" stroke="#969696" stroke-width="1.875"/>
   <g stroke="#000" stroke-dasharray="3.75 7.5" stroke-miterlimit="2" stroke-width=".9375">
    <path d="m58.3 844.1h948.8"/>
    <path d="m58.3 641.8h948.8"/>
    <path d="m58.3 540.6h948.8"/>
   </g>
  </g>
  <g stroke="#000" stroke-linejoin="round">
   <g stroke-width="5.625">
    <path d="m574.6 381.8c17.4 11.6 41.3-27.5 62.2-27.5 16-.6 18.8 30.9 32.6 30.7 8.7-.1 14.1-5.3 19.4-11.5"/>
    <ellipse cx="678.11145" cy="-122.41154" rx="4.609393" ry="6.862875" transform="matrix(.72846687 .68508103 -.68508103 .72846687 0 0)"/>
    <path d="m524.6 384.9c9.9.5 47.6.8 54.4-4.5"/>
    <path d="m359.6 431.1c29.7-1.8 57.4-27.6 77.5-53.1 17.5-22.2 33-38.6 59.7-41.2 4.4-.4 8.5-.1 12.1.8 3.7.9 7.1 2.4 9.9 4.6 9.5 7.3 12.9 21.9 5.8 42.7"/>
   </g>
   <path d="m404.6 335.7c-37.7 9.8-72.1 68.6-60.5 88.7 1.3 2.3 3.3 4.2 5.9 5.3 2.4 1 5.8 1.6 9.6 1.4" stroke-width="5.624999"/>
  </g>
 </g>
</svg>
