<svg height="210mm" viewBox="0 0 1052.4 744.1" width="297mm" xmlns="http://www.w3.org/2000/svg">
 <g fill="none" stroke-linecap="round">
  <g transform="translate(0 -308.26772)">
   <path d="m57.6 742.2h948.8" stroke="#969696" stroke-width="1.875"/>
   <g stroke="#000" stroke-dasharray="3.75 7.5" stroke-miterlimit="2" stroke-width=".9375">
    <path d="m58.3 844.1h948.8"/>
    <path d="m58.3 641.8h948.8"/>
    <path d="m58.3 540.6h948.8"/>
   </g>
  </g>
  <g stroke="#000" stroke-linejoin="round">
   <g stroke-width="5.625">
    <path d="m458.2 430.8c11.4-1.5 244-44.1 244-44.1"/>
    <path d="m466.7 336.5s-29.9 59.2-34.5 70.3c-6.6 16.3 3.7 24.4 14.5 24.7 2.1.1 6.5-.2 11.5-.7"/>
    <path d="m387.2 431.2 79.4-94.7"/>
    <path d="m365.9 387 21.3 44.2"/>
   </g>
   <g stroke-width="5.624999">
    <path d="m710.4 386.6-46.5 95.4"/>
    <path d="m710.4 386.6h-8.2"/>
    <path d="m706.5 387.4-45.7 93.9"/>
    <path d="m663.9 482h-8.2"/>
    <path d="m702.2 386.6-46.6 95.4"/>
   </g>
  </g>
 </g>
</svg>
