<svg height="210mm" viewBox="0 0 1052.4 744.1" width="297mm" xmlns="http://www.w3.org/2000/svg">
 <g fill="none" stroke-linecap="round">
  <g transform="translate(0 -308.26772)">
   <path d="m57.6 742.2h948.8" stroke="#969696" stroke-width="1.875"/>
   <g stroke="#000" stroke-dasharray="3.75 7.5" stroke-miterlimit="2" stroke-width=".9375">
    <path d="m58.3 844.1h948.8"/>
    <path d="m58.3 641.8h948.8"/>
    <path d="m58.3 540.6h948.8"/>
   </g>
  </g>
  <g stroke="#000" stroke-width="5.625">
   <g stroke-linejoin="round">
    <path d="m334.4 333.3c76.1-9.8 140.9-81 92.8-96.3-14.7-4.7-42.9 10.9-90.1 88.8-43.9 74.6-46.5 103.4-30.6 105.2 13.4 1.5 27.9.8 47.4-18.9"/>
    <path d="m340.7 413c.8.1 1.5.3 2.1.5.2.1.4.2.5.3 1 .8 1.4 2.1.8 4.2-1.1 4.1-5.8 6.5-8 7.3-4.6 1.7-8-2.1-5.4-6.2 1.6-2.5 4.5-5.4 7.9-6.1.2 0 .5-.1.7-.1h.8c.6 0 1.3.1 2 .3"/>
    <path d="m400.4 432.2 74.1-43.9"/>
    <path d="m354 412.1c16.6-20.1 33-47.7 47-59.8 24.9-25.2 60.4-22.2 30.7 27.6l-31.2 52.3"/>
   </g>
   <path d="m467.8 431.4 28.7-.3"/>
   <g stroke-linejoin="round">
    <path d="m637 235.2s-118.5 190.1-121.2 192.8c-4.4 3.7-19.4 3.1-19.4 3.1"/>
    <path d="m658.9 284.3-21.9-49.1"/>
    <path d="m658.9 284.3s24.2-35.3 44.1-35c19.6 1 18 36.6 34.4 36.1 6.7-.2 12.2-4.8 17-10.4"/>
    <path d="m516.1 416.3c.7.1 1.4.2 1.9.5.2.1.3.2.5.3.9.7 1.3 2 .8 3.9-1 3.9-5.4 6.1-7.5 6.9-4.3 1.6-7.5-2-5-5.8 1.5-2.4 4.2-5 7.3-5.7.2 0 .4-.1.6-.1h.8c.6 0 1.2.1 1.9.3"/>
   </g>
  </g>
 </g>
</svg>
