<svg height="210mm" viewBox="0 0 1052.4 744.1" width="297mm" xmlns="http://www.w3.org/2000/svg">
 <g fill="none" stroke-linecap="round">
  <g transform="translate(-16.687564 -521.16511)">
   <path d="m57.6 742.2h948.8" stroke="#969696" stroke-width="1.875"/>
   <g stroke="#000" stroke-dasharray="3.75 7.5" stroke-miterlimit="2" stroke-width=".9375">
    <path d="m58.3 844.1h948.8"/>
    <path d="m58.3 641.8h948.8"/>
    <path d="m58.3 540.6h948.8"/>
   </g>
  </g>
  <g transform="translate(-16.687564 -116.97075)">
   <path d="m57.6 742.2h948.8" stroke="#969696" stroke-width="1.875"/>
   <g stroke="#000" stroke-dasharray="3.75 7.5" stroke-miterlimit="2" stroke-width=".9375">
    <path d="m58.3 844.1h948.8"/>
    <path d="m58.3 641.8h948.8"/>
    <path d="m58.3 540.6h948.8"/>
   </g>
  </g>
  <g stroke="#000">
   <g stroke-linejoin="round">
    <g stroke-width="5.625002">
     <path d="m708 122.3c54.3-11 97.7-78.3 91.4-95-3.4-8.9-18.1-3.3-40.1 20.9-13.4 14.8-29.4 36.3-47.2 65.8-29 50.1-38.3 77.4-36.2 92.1 1.7 11.3 12.2 13.6 21.7 13.9 4.5.1 8.7-.1 12.5-.4"/>
     <ellipse cx="665.08276" cy="-332.54248" rx="4.609395" ry="6.862876" transform="matrix(.72846687 .68508103 -.68508103 .72846687 0 0)"/>
     <path d="m710.1 219.5c10.2.7 177.1.9 206.2-4.8"/>
    </g>
    <g stroke-width="5.625001">
     <path d="m341.7 123.7c12.6.1 28 16.8 38.6 46.9 9.1 25.7 19 48.7 38.4 47.7"/>
     <path d="m345.5 124.2c16.2 2.5 31.7 14.4 43.2 44.1 9.2 23.9 10.5 44 22.6 48.8"/>
     <path d="m418.8 218.3c28.3-1.5 59.5-30.8 79.7-32.4 21 .5 20 32.7 45.5 32.2 39.5-.7 59.4-26.3 80-43.2"/>
     <path d="m69.3 319.7s190.4-198.6 208.6-217.2c16.4-16.7 63.9-71.1 44.3-79.9-12.1-3.5-47.1 24.3-83.7 90.3-43 77.1-44.4 107.1-19.4 105.6 20-1.2 37.2-23.7 61.8-52.6 17.2-20.2 36.6-40.9 57.5-42.3 23.4-.2 35.6 20.7 45 42.9 10.5 24.8 17.6 51.3 33 51.8"/>
     <path d="m52.1 72.8 20.5 46.4"/>
    </g>
   </g>
   <path d="m193.7 336.3h-94.6" stroke-width="5.625002"/>
  </g>
 </g>
 <circle cx="980.50037" cy="148.38184" r="10.653958"/>
 <circle cx="965.11072" cy="197.39749" r="10.653958"/>
 <g fill="none" stroke="#000" stroke-linecap="round">
  <g stroke-linejoin="round">
   <path d="m773.4 526.1c54.3-11 97.7-78.3 91.4-95-3.4-8.9-18.1-3.3-40.1 20.9-13.4 14.8-29.4 36.3-47.2 65.8-29 50.1-38.3 77.4-36.2 92.1 1.7 11.3 12.2 13.6 21.7 13.9 4.5.1 8.7-.1 12.5-.4" stroke-width="5.625003"/>
   <g stroke-width="5.625002">
    <ellipse cx="989.35529" cy="-83.116745" rx="4.609395" ry="6.862876" transform="matrix(.72846687 .68508103 -.68508103 .72846687 0 0)"/>
    <path d="m775.4 623.3c10.2.7 177.1.9 206.2-4.8"/>
    <path d="m386.4 527.6c12.6.1 28 16.8 38.6 46.9 9.1 25.7 19 48.7 38.4 47.7"/>
    <path d="m390.3 528.1c16.2 2.5 31.7 14.4 43.2 44.1 9.2 23.9 10.5 44 22.6 48.8"/>
    <path d="m463.5 622.1c28.3-1.5 59.5-30.8 79.7-32.4 21 .5 20 32.7 45.5 32.2 39.5-.7 59.4-26.3 80-43.2"/>
    <path d="m114 723.6s190.4-198.6 208.6-217.2c16.4-16.7 63.9-71.1 44.3-79.9-12.1-3.5-47.1 24.3-83.7 90.3-43 77.1-44.4 107.1-19.4 105.6 20-1.2 37.2-23.7 61.8-52.6 17.2-20.2 36.6-40.9 57.5-42.3 23.4-.2 35.6 20.7 45 42.9 10.5 24.8 17.6 51.3 33 51.8"/>
    <path d="m61.2 476.7 20.5 46.3"/>
   </g>
  </g>
  <path d="m806.4 660.6h-94.6" stroke-width="5.625003"/>
 </g>
</svg>
