<svg height="210mm" viewBox="0 0 1052.4 744.1" width="297mm" xmlns="http://www.w3.org/2000/svg">
 <g fill="none" stroke-linecap="round">
  <g transform="translate(0 -308.26772)">
   <path d="m57.6 742.2h948.8" stroke="#969696" stroke-width="1.875"/>
   <g stroke="#000" stroke-dasharray="3.75 7.5" stroke-miterlimit="2" stroke-width=".9375">
    <path d="m58.3 844.1h948.8"/>
    <path d="m58.3 641.8h948.8"/>
    <path d="m58.3 540.6h948.8"/>
   </g>
  </g>
  <g stroke="#000" stroke-linejoin="round">
   <path d="m403.8 433.8c-27 16.7-90.2 91.8-63 99 11.2 2.5 33.1-7.6 54.5-66.3 15.7-47.2 16.4-112.8 70.4-130.9" stroke-width="5.625"/>
   <path d="m403.8 433.8c12-7.4 106.4-46.6 106.4-46.6l21.3 44.2" stroke-width="5.624999"/>
   <path d="m531.5 431.4c39-64.7 104.7-56.6 95.5-.1" stroke-width="5.625"/>
   <path d="m626.9 431.3 67.8-42" stroke-width="5.625"/>
   <path d="m700.5 533.7c14.8-7.7 30.4-16 28.9-34.4-1.8-21.5-51.2-39.8-58-62.6-3.5-11.7 8.2-30.9 23.4-47.3" stroke-width="5.624998"/>
  </g>
 </g>
</svg>
