<svg height="210mm" viewBox="0 0 1052.4 744.1" width="297mm" xmlns="http://www.w3.org/2000/svg">
 <g fill="none" stroke-linecap="round">
  <g transform="translate(0 -308.26772)">
   <path d="m57.6 742.2h948.8" stroke="#969696" stroke-width="1.875"/>
   <g stroke="#000" stroke-dasharray="3.75 7.5" stroke-miterlimit="2" stroke-width=".9375">
    <path d="m58.3 844.1h948.8"/>
    <path d="m58.3 641.8h948.8"/>
    <path d="m58.3 540.6h948.8"/>
   </g>
  </g>
  <g stroke="#000" stroke-linejoin="round" stroke-width="5.625">
   <path d="m599.8 346.6c23.9-24.8 39.2-38.9 56.7-52.9 83-65-26.7 159.9-88.2 186.6"/>
   <path d="m317.6 430.7c7.1-1.9 26-6.1 48-18.2 12.1-6.7 25.2-12.3 32.8-10.8 17.2 3.2 16 46.2 45.6 21.5"/>
   <path d="m380.2 405.7c5.4-2.4 18.6-2.2 26.5 15 5.6 12.2 13.9 9.5 20.5 9.9"/>
   <path d="m394.8 403.8c6.7 5.9 6.3.5 21.2 23.1"/>
   <path d="m599.8 346.6c-6.4 6-120.5 111.1-135.4 127.8-21.1 23.6-33.7 49.8-25.2 56.1 15.8 11.6 35.8-11.1 50.6-36.2 18.6-31.4 45.6-101.5 53.1-131.4 22-88.4 71.4-137 88.3-126.6 6.8 4.2-.5 27.7-17.6 51-14.6 19.9-156.5 124.1-169.6 136"/>
   <path d="m568.4 480.3c-17.3-7.4 82.5-29.4 99.3-30.3 16-.6 21.6 31 32.6 30.7 7.2-.2 12.4-7.6 16.7-13"/>
   <path d="m335.1 336.1-39 72.4c-8.4 15.5 5 26 21.5 22.2"/>
  </g>
 </g>
</svg>
