<svg height="210mm" viewBox="0 0 1052.4 744.1" width="297mm" xmlns="http://www.w3.org/2000/svg">
 <g fill="none" stroke-linecap="round">
  <g transform="translate(0 -308.26772)">
   <path d="m57.6 742.2h948.8" stroke="#969696" stroke-width="1.875"/>
   <g stroke="#000" stroke-dasharray="3.75 7.5" stroke-miterlimit="2" stroke-width=".9375">
    <path d="m58.3 844.1h948.8"/>
    <path d="m58.3 641.8h948.8"/>
    <path d="m58.3 540.6h948.8"/>
   </g>
  </g>
  <g stroke="#000">
   <g stroke-width="5.625">
    <path d="m313 392.7-74.8 140.3"/>
    <g stroke-linejoin="round">
     <path d="m374.2 427.5c9.5-4 15-7.5 15.8-8.1 16.6-11.5 43.7-26.4 73.3-27.2 48.5-1.3 61.6 39.5 96 39.5 31.4 0 33.9-2.6 45.8-6.3"/>
     <path d="m313 392.7c24.8-43 37.8-49.8 46.9-53.4 21.3-8.6 45.2-.9 25.9 22.9-27.4 33.8-45.5 50.2-39.4 63.9 3.4 7.6 15.8 6.8 27.9 1.4"/>
     <ellipse cx="224.40988" cy="686.87769" rx="25.728558" ry="20.371416" transform="matrix(.79083574 -.61202846 .61202846 .79083574 0 0)"/>
     <path d="m615.9 416.6c4.7-4.3 46.9-61.3 56.4-68.9 23.8-19 60.9-14.6 37.5 14.4-27.4 33.8-45.5 50.2-39.4 63.9 4.2 9.5 21.6 5 36.5-3.7"/>
    </g>
    <path d="m710.6 339.3c14.5 10.1 4.3 27.8-12.4 44.2-14.4 14-23.4 26.4-29.5 38.7"/>
    <path d="m710.6 339.3c.8-1.1 3.9 6.1.7 14.2-3.2 8.4-12.8 17.8-18.3 22.9-10.8 10.1-30.6 29-24.3 45.7"/>
   </g>
   <g stroke-width="2.8125">
    <path d="m702.1 337.6c11.3 1.3 8.8 6.5 9.1 11"/>
    <path d="m673.8 414.9c-2.7 4.9-3.8 12 2.3 14.5"/>
    <path d="m666.1 416.3c-.1 5.7 2.9 11.5 4.9 13.1"/>
   </g>
  </g>
 </g>
</svg>
