<svg height="210mm" viewBox="0 0 1052.4 744.1" width="297mm" xmlns="http://www.w3.org/2000/svg">
 <g fill="none" stroke-linecap="round">
  <g transform="translate(0 -308.26772)">
   <path d="m57.6 742.2h948.8" stroke="#969696" stroke-width="1.875"/>
   <g stroke="#000" stroke-dasharray="3.75 7.5" stroke-miterlimit="2" stroke-width=".9375">
    <path d="m58.3 844.1h948.8"/>
    <path d="m58.3 641.8h948.8"/>
    <path d="m58.3 540.6h948.8"/>
   </g>
  </g>
  <g stroke="#000">
   <g stroke-linejoin="round" stroke-width="5.625">
    <path d="m475.6 233.5-58.9 109.3c-24.8 38.8-52 72.9-91.2 88.5"/>
    <path d="m325.5 431.3c-39.5-6 316.2-48.1 316.2-48.1l31.4 47.9 52.7-71.4"/>
    <path d="m641.7 383.1 24 48"/>
    <path d="m649.3 383.1 23.8 47.9"/>
    <path d="m645.4 383 24 48"/>
   </g>
   <path d="m642.1 382.1h7.1" stroke-width="3.75"/>
   <path d="m725.8 359.5c24.3-33 69.8-34.2 37.2 20l-31.1 51.6" stroke-linejoin="round" stroke-width="5.625"/>
  </g>
 </g>
</svg>
