<svg height="210mm" viewBox="0 0 1052.4 744.1" width="297mm" xmlns="http://www.w3.org/2000/svg">
 <g fill="none" stroke-linecap="round">
  <g stroke="#969696" transform="translate(0 -308.26772)">
   <path d="m57.6 742.2h948.8" stroke-width="1.875"/>
   <g stroke-dasharray="3.75 7.5" stroke-miterlimit="2" stroke-width=".9375">
    <path d="m58.3 844.1h948.8"/>
    <path d="m58.3 641.8h948.8"/>
    <path d="m58.3 540.6h948.8"/>
   </g>
  </g>
  <g stroke="#000">
   <g stroke-linejoin="round">
    <ellipse cx="587.8399" cy="31.319275" rx="4.609393" ry="6.862875" stroke-width="5.625" transform="matrix(.72846687 .68508103 -.68508103 .72846687 0 0)"/>
    <path d="m406.5 431.2c14.3-.9 35.1-31 121.2-147.9" stroke-width="5.625"/>
    <path d="m527.7 283.2s-35.5 62.5-38.8 71.3c-4.5 11.9 1.3 17.9 7.2 21 4 2.1 11.4 3 22.7.9 6.5-1.2 14.4-3.3 23.8-6.8" stroke-width="5.625001"/>
    <g stroke-width="5.625" transform="matrix(.72846687 .68508103 -.68508103 .72846687 0 0)">
     <ellipse cx="644.78198" cy="-106.72565" rx="4.609393" ry="6.862875"/>
     <ellipse cx="664.99506" cy="-125.3023" rx="4.609393" ry="6.862875"/>
    </g>
   </g>
   <path d="m571.4 369.2c-7.2 4.3-25.7 5.5-32.7 0" stroke-width="5.625002"/>
   <path d="m566.7 370.8c20.8 9 64.3-29.2 85.1-29.2 16-.6 18.8 30.9 32.6 30.7 8.7-.1 14.1-5.3 19.4-11.5" stroke-linejoin="round" stroke-width="5.625"/>
  </g>
 </g>
</svg>
