<svg height="210mm" viewBox="0 0 1052.4 744.1" width="297mm" xmlns="http://www.w3.org/2000/svg">
 <g fill="none" stroke-linecap="round">
  <g transform="translate(0 -308.26772)">
   <path d="m57.6 742.2h948.8" stroke="#969696" stroke-width="1.875"/>
   <g stroke="#000" stroke-dasharray="3.75 7.5" stroke-miterlimit="2" stroke-width=".9375">
    <path d="m58.3 844.1h948.8"/>
    <path d="m58.3 641.8h948.8"/>
    <path d="m58.3 540.6h948.8"/>
   </g>
  </g>
  <g stroke="#000">
   <g stroke-linejoin="round">
    <g stroke-width="5.625">
     <path d="m533.2 482.4c-20.7 11.3-55.6 36.4-66.3 46.5-16 14.6-37 45.2-34.1 52.9 1.1 2.9 17.7 21.8 57.3-41.8l88-150.7"/>
     <path d="m460.6 410.6c11.2-7.6 17.9-11.5 29-11.4 19.5 2.4 7 31 29.9 32.2 17.6.9 53.1-37 58.7-42"/>
     <path d="m533.2 482.4 65.4-39.9"/>
     <path d="m605.4 580.7c28.5-22.6 35.5-31.4 39-55.7 1.8-12.5-2.6-28-12.8-37.6-5-4.7-11-8.4-17-11.7-8.5-4.8-11.8-5.8-17.2-11.5-6-6.3-5-21.2 9.8-27.5"/>
    </g>
    <path d="m455.1 336.5-47.8 86.7" stroke-width="6.5625"/>
    <path d="m351.4 431.3 94.4-95.2-39 72.4c-8.4 15.5 5 26 21.5 22.2 2.8-.7 9.4-2.3 14-6l18.1-14.2" stroke-width="5.625"/>
    <path d="m450.5 336.4-44.7 81.9" stroke-width="6.5625"/>
   </g>
   <path d="m412.3 417c-1.6 4.1-2.6 6.5.8 11.8" stroke-width="3.75"/>
   <path d="m455.1 336.5-9.3-.4" stroke-linejoin="round" stroke-width="6.5625"/>
  </g>
 </g>
</svg>
