<svg height="210mm" viewBox="0 0 1052.4 744.1" width="297mm" xmlns="http://www.w3.org/2000/svg">
 <g fill="none" stroke-linecap="round">
  <g transform="translate(0 -308.26772)">
   <path d="m57.6 742.2h948.8" stroke="#969696" stroke-width="1.875"/>
   <g stroke="#000" stroke-dasharray="3.75 7.5" stroke-miterlimit="2" stroke-width=".9375">
    <path d="m58.3 844.1h948.8"/>
    <path d="m58.3 641.8h948.8"/>
    <path d="m58.3 540.6h948.8"/>
   </g>
  </g>
  <g stroke="#000">
   <path d="m521.3 421.8s-31.6 7.7-39.8 12.7c-26.9 16.7-34.2 26.6-47 45.8-14.3 21.4-22.3 42-17.9 50 2.9 5.3 34.7 12.4 62.3-63.3 15.8-47.4 16.5-113.3 70.8-131.6" stroke-linejoin="round" stroke-width="5.625"/>
   <path d="m544.6 463.1c11.4-7 27.8-22.6 51.2-46.3" stroke-linejoin="round" stroke-width="6.200544"/>
   <g stroke-width="5.625">
    <g stroke-linejoin="round">
     <path d="m521.3 421.8c44.3-7.8 59.8-31.7 56.5-40.5-2.9-7.5-30.4-4.4-55.2 36.4-23.3 38.1-23.3 53.8-13.5 55.4 11 1.8 17.4.3 35.5-10"/>
     <path d="m656.4 405.4c-27.4 29.5-65.1 31.8-25.7-25.7"/>
     <path d="m595.8 416.7 34.9-36.9"/>
     <path d="m656.4 405.4c2.5-2.6 11.2-10 16.8-13.8 22.7-17 61.2-13.6 37.7 15.4-27.4 33.8-45.5 50.3-39.4 63.9 4.3 9.7 24.5 7.6 37.4-2.5 6.9-5.4 12.9-11.4 17.7-16.9"/>
    </g>
    <path d="m504 234.4-96.4 166.7"/>
    <ellipse cx="88.486267" cy="585.0061" rx="25.728558" ry="20.371416" stroke-linejoin="round" transform="matrix(.79083574 -.61202846 .61202846 .79083574 0 0)"/>
    <path d="m369.3 544.3c24.8 33.5 76.4 32.1 103.1 0"/>
   </g>
  </g>
 </g>
</svg>
