<svg height="210mm" viewBox="0 0 1052.4 744.1" width="297mm" xmlns="http://www.w3.org/2000/svg">
 <g fill="none" stroke-linecap="round">
  <g transform="translate(0 -308.26772)">
   <path d="m57.6 742.2h948.8" stroke="#969696" stroke-width="1.875"/>
   <g stroke="#000" stroke-dasharray="3.75 7.5" stroke-miterlimit="2" stroke-width=".9375">
    <path d="m58.3 844.1h948.8"/>
    <path d="m58.3 641.8h948.8"/>
    <path d="m58.3 540.6h948.8"/>
   </g>
  </g>
  <g stroke="#000" stroke-linejoin="round">
   <path d="m551.8 382.9-21.4-46.2c-24.6 22.5-67.3 46.3-80.8 46.2-41.4-.2-.8-151.5 83.1-196.7" stroke-width="5.625"/>
   <path d="m311 431.5c43.9-15.9 65.9-94.7 41-94.9-7.2-.1-18.9 6.5-35.8 23.2" stroke-width="5.625"/>
   <path d="m532.7 186.1c-36.3 29.6-59.8 62.6-75.9 97.1-9.8 21-16.3 39.9-22.8 64.2" stroke-width="5.624999"/>
   <path d="m435.1 340.1c3.9-16.7 11.4-36.3 19.5-55.4 16-38 48.8-80.2 74.4-95.9" stroke-width="4.6875"/>
   <path d="m454 289.5c-7.6 21.3-30.4 84.1-8.7 92.7" stroke-width="5.624999"/>
   <path d="m505 206.6c-40.4 38.8-194 224.9-194 224.9" stroke-width="5.625"/>
   <path d="m703.2 376.5c-10-.2-33.1-.6-40.7-.4-38.1 1.3-51 8.5-78.8 28.4-29.7 21.4-61.4 52-55.9 68.8.9 3 16.3 22.9 59.8-38.1 26.9-36.9 54.6-73.4 69.3-116.4 4.2-12.5 5.4-22.3 3.6-28.6-1.5-5.3-5.2-8.4-11.1-7.8-10.4 1.2-21.8 11.7-31.7 22.2-14.5 15.4-35.9 39.8-65.9 78" stroke-width="5.624999"/>
   <g transform="matrix(.72846687 .68508103 -.68508103 .72846687 0 0)">
    <ellipse cx="745.92413" cy="-203.1082" rx="5.271424" ry="7.848564" stroke-width="14.034715"/>
    <ellipse cx="769.09369" cy="-214.25505" rx="4.609393" ry="6.862875" stroke-width="5.625"/>
   </g>
  </g>
 </g>
</svg>
