<svg height="210mm" viewBox="0 0 1052.4 744.1" width="297mm" xmlns="http://www.w3.org/2000/svg">
 <g fill="none" stroke-linecap="round">
  <g transform="translate(0 -308.26772)">
   <path d="m57.6 742.2h948.8" stroke="#969696" stroke-width="1.875"/>
   <g stroke="#000" stroke-dasharray="3.75 7.5" stroke-miterlimit="2" stroke-width=".9375">
    <path d="m58.3 844.1h948.8"/>
    <path d="m58.3 641.8h948.8"/>
    <path d="m58.3 540.6h948.8"/>
   </g>
  </g>
  <g stroke="#000" stroke-linejoin="round" stroke-width="5.625">
   <path d="m304.3 235.8-99.8 172c-14.1 24.3 23.6 37.2 51.9-1.5"/>
   <path d="m256.5 406.3s30.3-41.4 31.1-42.4c2.7-3.5 5.3-6.7 7.7-9.6 2-2.4 3.9-4.5 5.8-6.4 16.9-17.9 26.9-18.3 33.4-5.7 6.5 12.7 4 18.2 12.3 27.2 15.9 17.3 43.8-27.8 34.5-34.3-6.3-4.4-25.9 3.2-49.4 42-25.7 42.1-22.7 55-9.8 53.5"/>
   <path d="m308.9 340.4c9.6-6.8 18 4.1 21.6 15.8 3.2 10.5 8.7 18 23.9 17.1"/>
   <path d="m320.8 336.6c13.6.7 15.1 28.3 22.1 30"/>
   <path d="m322 430.5c12.6-.5 62.3-26.5 79.4-27 13.9-.4 29.1 28.3 43 27.5 16.4-1 26.8-11.6 42.3-22.6"/>
   <path d="m723.9 431c5.4-3.3 11.7-10.5 6.5-17.1-2.6-3.3-4-4.5-11.9-4.4l-98.8.6c-6.7.1-14.3.2-15.9-.7-10.5-5.8-7.4-13.7.5-24.6"/>
   <path d="m579.1 335.6-42.4 73.1c-13.3 22.9 23.8 35.3 46.3 4.4 1.3-1.8 15.3-18.9 16.5-21"/>
   <path d="m731.9 421.9c13.7-19.9 31.4-50.6 53.3-69.3 4.4-3.8 5.7-4 8.7-5.9 5.2-3.3 10.6-6.2 16.4-8.7 19.6-8.3 35 2.5 12.3 40.5l-29.8 52.1"/>
   <path d="m579.1 335.6-92.4 72.8"/>
  </g>
 </g>
</svg>
