<svg height="210mm" viewBox="0 0 1052.4 744.1" width="297mm" xmlns="http://www.w3.org/2000/svg">
 <g fill="none" stroke-linecap="round">
  <g transform="translate(0 -308.26772)">
   <path d="m57.6 742.2h948.8" stroke="#969696" stroke-width="1.875"/>
   <g stroke="#000" stroke-dasharray="3.75 7.5" stroke-miterlimit="2" stroke-width=".9375">
    <path d="m58.3 844.1h948.8"/>
    <path d="m58.3 641.8h948.8"/>
    <path d="m58.3 540.6h948.8"/>
   </g>
  </g>
  <g stroke="#000" stroke-linejoin="round">
   <path d="m588.9 405.3c32.9-46.6 61-96.5 93.9-143.1 9-12.3 17.1-27.4 30.4-27.3 22.7.1 11.3 32 30.4 33.5 4.5.3 11.1-3.5 14.9-10.1" stroke-width="5.625"/>
   <path d="m557.1 404.3c1.4.1 2.7.4 3.6 1 .3.2.6.4.9.6 1.8 1.4 2.4 3.7 1.4 7.5-1.9 7.3-10.2 11.5-14.1 13-8.1 2.9-14.2-3.8-9.5-11 2.9-4.5 8-9.5 13.9-10.7.4-.1.8-.2 1.2-.2.5-.1 1-.1 1.5-.1 1.1 0 2.3.2 3.5.5" stroke-width="10.905816"/>
   <path d="m553.5 412.8c.5 0 .8.1 1.2.3.1.1.2.1.3.2.6.4.8 1.2.5 2.4-.6 2.3-3.3 3.7-4.5 4.2-2.6.9-4.5-1.2-3.1-3.5.9-1.4 2.5-3 4.5-3.4.1 0 .3 0 .4-.1h.5c.4 0 .7 0 1.1.2" stroke-width="11.88091"/>
   <g stroke-width="5.625">
    <path d="m588.9 405.3c-2.1 3.5-5.6 8-12.7 14.4-4.7 4.3-11 7.5-14.1 8.5-7.8 2.6-28.8 2-43.5 2.1s-33.1.8-33.1.8l-5.6-.2 3.3.1s8.4-4 9.8-4.8c10.9-6.3 20.6-16.1 28.3-27.1 27.6-39.1 30.9-92.3-18.7-48.1"/>
    <path d="m307.8 431s43.1-64.9 45.8-68.6c9-12.3 19.9-25.7 33.2-25.8 15.9-.1 17.2 33 35.3 34.6 20.5 1.9 43.4-25.4 55.7-34.5"/>
    <path d="m477.8 336.8-96.8 196.2"/>
   </g>
  </g>
 </g>
</svg>
