<svg height="210mm" viewBox="0 0 1052.4 744.1" width="297mm" xmlns="http://www.w3.org/2000/svg">
 <g fill="none" stroke-linecap="round">
  <g transform="translate(0 -308.26772)">
   <path d="m57.6 742.2h948.8" stroke="#969696" stroke-width="1.875"/>
   <g stroke="#000" stroke-dasharray="3.75 7.5" stroke-miterlimit="2" stroke-width=".9375">
    <path d="m58.3 844.1h948.8"/>
    <path d="m58.3 641.8h948.8"/>
    <path d="m58.3 540.6h948.8"/>
   </g>
  </g>
  <g stroke="#000" stroke-linejoin="round" stroke-width="5.625">
   <path d="m359 431 232.1-95.3"/>
   <path d="m386.9 383.9c40.7 3 61-36.5 57.7-45.1-2.8-7.4-29.4-4.4-53.7 35.7l-32 56.5"/>
   <path d="m513 431.3c34.1-28.9 58.9-43.4 79.4-45.3 24.7-2.3 32 16.4 32.4 45.3"/>
   <path d="m624.8 431.3 63.1-90.1c5.4-7.5 10.9-15.2 16.4-22.5 15.2-20.1 31-36.9 48.4-35.3 10.5 1.2 16.5 8.2 15.8 17-.4 3.7-1.6 8.3-3.7 13.7-9.9 21.8-22.7 42.9-34.9 64.9"/>
  </g>
 </g>
</svg>
