<svg height="210mm" viewBox="0 0 1052.4 744.1" width="297mm" xmlns="http://www.w3.org/2000/svg">
 <g fill="none" stroke-linecap="round">
  <g transform="translate(0 -308.26772)">
   <path d="m57.6 742.2h948.8" stroke="#969696" stroke-width="1.875"/>
   <g stroke="#000" stroke-dasharray="3.75 7.5" stroke-miterlimit="2" stroke-width=".9375">
    <path d="m58.3 844.1h948.8"/>
    <path d="m58.3 641.8h948.8"/>
    <path d="m58.3 540.6h948.8"/>
   </g>
  </g>
  <g stroke="#000">
   <g stroke-linejoin="round">
    <g stroke-width="5.625">
     <path d="m300.2 420.2c-1.8 1.1-26.6 17.8-28.5 19.1-32.5 22-71.6 74.4-63.5 89.5 1.3 2.5 3.5 4 6.2 4.1 7.3.5 22.4-7.8 35.9-27.8 9-13.4 24.2-39.4 26.1-62.5 4.4-61.4 30.6-107.8 55.8-106.1 20.5 2.6 7.1 25.2-4.6 33.9-3.8 3.2-24.1 15.1-39.1 16.7"/>
     <path d="m300.2 420.2c14.7-9 33.8-20.3 47.8-26.7"/>
     <path d="m348 393.5c41.5-16.7 65.8-1.7 55.1 37.8"/>
     <ellipse cx="736.75134" cy="-83.118431" rx="4.609393" ry="6.862874" transform="matrix(.72846687 .68508103 -.68508103 .72846687 0 0)"/>
     <path d="m558.2 430.4c20.5.3 34.1-1.9 39.8 8.1"/>
     <path d="m403 431.3 88.9-95.2-54.8 94.9"/>
     <path d="m437 430.9c35.3-29.9 66.3-44.4 87.6-45.5 24.2-1.2 37.5 7.9 33.6 45"/>
    </g>
    <path d="m543.3 391.7c10.4 5.8 12.6 28.6 10 38.1" stroke-width="6.5625"/>
    <path d="m530.7 385.4c16.4 3.3 19.2 32.7 18.3 45.3" stroke-width="4.6875"/>
   </g>
   <path d="m549.5 430.4 8.7.1" stroke-width="5.625"/>
   <g stroke-linejoin="round">
    <path d="m518.1 387c13.6-2.1 22 2.5 25.4 11" stroke-width="3.75"/>
    <g stroke-width="5.625">
     <path d="m590.7 440.9c16.6-13.9 15.9-16.1 182.5-56.9l33.3 47.9"/>
     <path d="m773.2 384 24 48"/>
     <path d="m782.7 384 23.8 47.9"/>
     <path d="m778.8 383.9 24 48"/>
    </g>
   </g>
   <path d="m773.6 383h9" stroke-width="3.75"/>
   <path d="m797 432.9h9" stroke-width="3.75"/>
   <path d="m841.4 384.1-34.9 47.8" stroke-linejoin="round" stroke-width="5.625"/>
  </g>
 </g>
</svg>
