<svg height="210mm" viewBox="0 0 1052.4 744.1" width="297mm" xmlns="http://www.w3.org/2000/svg">
 <g fill="none" stroke-linecap="round">
  <g stroke="#969696" transform="translate(0 -308.26772)">
   <path d="m57.6 742.2h948.8" stroke-width="1.875"/>
   <g stroke-dasharray="3.75 7.5" stroke-miterlimit="2" stroke-width=".9375">
    <path d="m58.3 844.1h948.8"/>
    <path d="m58.3 641.8h948.8"/>
    <path d="m58.3 540.6h948.8"/>
   </g>
  </g>
  <g stroke="#000">
   <g stroke-linejoin="round">
    <g stroke-width="5.625">
     <ellipse cx="439.73187" cy="169.69841" rx="4.609393" ry="6.862874" transform="matrix(.72846687 .68508103 -.68508103 .72846687 0 0)"/>
     <path d="m203 430.8c18.8-.5 58.4-82.1 78.2-114.8 7.7-12.8 17.1-22.2 27.2-22.3 24.5-.1 24 32.5 40.1 33.3 5.6.3 10.4-1.8 15-5"/>
     <path d="m363.1 321.8c16.4-10.8 19.7-23.7 17.7-29.6-3.2-9.6-26.7-7-51.4 33.8-26.7 43.6-21.6 56.2-7.1 56.6 28.2.8 60.9-30.8 81.8-30.9 16-.6 18.8 30.9 32.6 30.7 8.7-.1 14.1-5.3 19.4-11.5"/>
     <ellipse cx="652.9469" cy="-40.497013" rx="4.609393" ry="6.862875" transform="matrix(.72846687 .68508103 -.68508103 .72846687 0 0)"/>
     <path d="m494.3 335.5s-34.3 61.7-37.7 71.8c-4.7 13.8 4.6 21 12.7 22.7 11.4 2.2 21.7 1.5 35.2-7.3"/>
     <path d="m630.8 284.6c-94.4 117.3-118.3 151.3-131.1 138.9"/>
    </g>
    <g stroke-width="5.624999">
     <path d="m639 284.6-46.6 95.4"/>
     <path d="m639 284.6h-8.2"/>
     <path d="m635.1 285.4-45.7 93.9"/>
     <path d="m592.5 380h-8.2"/>
     <path d="m630.8 284.6-46.6 95.4"/>
    </g>
    <path d="m592.5 380c25-11.8 60.2-31.5 77.8-32.4 16.8-.7 22.7 32.6 34.2 32.2 7.5-.2 13.1-6.2 18.3-10.8" stroke-width="5.625"/>
    <path d="m765.2 336.3-46.6 95.4" stroke-width="5.624999"/>
   </g>
   <path d="m796.1 383.3-77.5 48.3" stroke-width="5.625001"/>
  </g>
 </g>
</svg>
