<svg height="210mm" viewBox="0 0 1052.4 744.1" width="297mm" xmlns="http://www.w3.org/2000/svg">
 <g fill="none" stroke-linecap="round">
  <g transform="translate(0 -308.26772)">
   <path d="m57.6 742.2h948.8" stroke="#969696" stroke-width="1.875"/>
   <g stroke="#000" stroke-dasharray="3.75 7.5" stroke-miterlimit="2" stroke-width=".9375">
    <path d="m58.3 844.1h948.8"/>
    <path d="m58.3 641.8h948.8"/>
    <path d="m58.3 540.6h948.8"/>
   </g>
  </g>
  <g stroke="#000">
   <g stroke-linejoin="round">
    <path d="m515 336.4c-33.6 8.8-64.4 58-64.8 82-.1 8.4 3.3 13.4 11.7 12.9 14.3-1 23.5-9.1 31.1-16.3 14.7-15 22-25.5 36.2-42.3 9.5-11.2 18.6-23.8 30.7-31.1 5.8-3.4 11.4-5.3 16-5.4 10.5-.2 17.2 7.3 7.8 29.8-1.7 4-3.6 8.7-6.3 13.7l-27.1 51.8" stroke-width="5.625"/>
    <path d="m550.3 431.6c25-11.8 67.7-31.5 85.3-32.4 16.8-.7 22.7 32.6 34.2 32.2 7.5-.2 13.1-6.2 18.3-10.8" stroke-width="5.624999"/>
    <g stroke-width="6.562499">
     <path d="m422.9 336.4-47.5 81.9"/>
     <path d="m418.3 336.4-38.7 70.9-3.8 16.5"/>
     <path d="m422.9 336.4h-9.3"/>
    </g>
    <path d="m319.2 431.2 94.3-95.2-38.9 72.5c-7.2 13.4 1.8 23.1 15 23 6.2-.1 11.6-1.5 16.4-3.7 8.8-4.1 18.1-10.6 28.7-20.1 12.8-11.5 31.3-34.6 45.4-48.1" stroke-width="5.624999"/>
   </g>
   <path d="m384.8 405c-6 9.6-9.9 25.1 3.6 25.5" stroke-width="3.749999"/>
  </g>
 </g>
</svg>
