<svg height="210mm" viewBox="0 0 1052.4 744.1" width="297mm" xmlns="http://www.w3.org/2000/svg">
 <g fill="none" stroke-linecap="round">
  <g transform="translate(0 -308.26772)">
   <path d="m57.6 742.2h948.8" stroke="#969696" stroke-width="1.875"/>
   <g stroke="#000" stroke-dasharray="3.75 7.5" stroke-miterlimit="2" stroke-width=".9375">
    <path d="m58.3 844.1h948.8"/>
    <path d="m58.3 641.8h948.8"/>
    <path d="m58.3 540.6h948.8"/>
   </g>
  </g>
  <path d="m375.8 336.5s-23.3 44.6-35.8 69.8c-7.8 17 1.3 24.9 14.3 25 24.3.2 49.4-28.4 68.3-28.5 24.5-.1 23.3 28.6 47 28.6 15 0 51.7-28.8 67.1-28.4 24.5.7 23.3 28.1 47 28.4 17.7.3 51.9-29.1 69.8-28.9 21.8.2 18.9 29.1 37.6 28.9 10.3-.1 17.5-5.2 23.3-10.2" stroke="#000" stroke-linejoin="round" stroke-width="5.625"/>
 </g>
</svg>
