<svg height="210mm" viewBox="0 0 1052.4 744.1" width="297mm" xmlns="http://www.w3.org/2000/svg">
 <g fill="none" stroke-linecap="round">
  <g transform="translate(0 -308.26772)">
   <path d="m57.6 742.2h948.8" stroke="#969696" stroke-width="1.875"/>
   <g stroke="#000" stroke-dasharray="3.75 7.5" stroke-miterlimit="2" stroke-width=".9375">
    <path d="m58.3 844.1h948.8"/>
    <path d="m58.3 641.8h948.8"/>
    <path d="m58.3 540.6h948.8"/>
   </g>
  </g>
  <g stroke-linejoin="round" stroke-width="5.625">
   <path d="m399.1 336.1-42.4 73.1c-11.9 20.5 8.4 28.4 31.3 14.4 15.7-9.1 38.4-35.4 38.4-35.4 15.4-18.4 35.8-40.9 56.4-49.9 19.6-8.3 35 2.5 12.3 40.5l-31.2 52.3" stroke="#000"/>
   <path d="m463.9 431s49.1-67.4 80.8-87.2c3.5-2.1 7.1-4 11-5.7 19.6-8.3 35 2.5 12.3 40.5l-31.2 52.3" stroke="#000008"/>
   <g stroke="#000">
    <path d="m536.7 430.9c13.4-11.7 29.4-23.5 34.7-26.8 5.9-3.7 12.3-6.2 20.6-5.7 20.5 1.3 15.8 56.7 57.3 21.3"/>
    <path d="m649.4 419.8c13.8-12.1 22.7-22.3 38.5-21.3 20.5 1.3 15.8 56.7 57.3 21.3"/>
   </g>
  </g>
 </g>
</svg>
