<svg height="210mm" viewBox="0 0 1052.4 744.1" width="297mm" xmlns="http://www.w3.org/2000/svg">
 <g fill="none" stroke-linecap="round">
  <g transform="translate(0 -308.26772)">
   <path d="m57.6 742.2h948.8" stroke="#969696" stroke-width="1.875"/>
   <g stroke="#000" stroke-dasharray="3.75 7.5" stroke-miterlimit="2" stroke-width=".9375">
    <path d="m58.3 844.1h948.8"/>
    <path d="m58.3 641.8h948.8"/>
    <path d="m58.3 540.6h948.8"/>
   </g>
  </g>
  <g stroke-linejoin="round">
   <path d="m422.8 393.6 17.7 37.9 23.8-.2" stroke="#060000" stroke-width="5.625"/>
   <g stroke="#000">
    <path d="m471.5 419.2c.8.1 1.4.2 1.9.5.2.1.3.2.5.3.9.7 1.3 2 .8 4-1 3.9-5.4 6.1-7.5 6.9-4.3 1.6-7.6-2-5.1-5.9 1.6-2.4 4.2-5.1 7.4-5.7.2 0 .4-.1.7-.1s.5-.1.8-.1c.6 0 1.2.1 1.9.3" stroke-width="5.625"/>
    <g stroke-width="4.30181">
     <path d="m526 393.8c.8-.5-19.8 37.9-19.8 37.9"/>
     <path d="m531.3 396-19.4 35.6"/>
     <path d="m515.4 431.6-9.1.2"/>
     <path d="m536.6 393.7-21.2 37.9"/>
     <path d="m536.6 393.7-10.8-.1"/>
     <path d="m529.9 394.6-19.4 35.6"/>
    </g>
    <g stroke-width="5.625">
     <path d="m526 394.2s-53.6 39.2-57.9 36.7"/>
     <ellipse cx="265.30252" cy="658.4953" rx="25.728558" ry="20.371416" transform="matrix(.79083574 -.61202846 .61202846 .79083574 0 0)"/>
     <path d="m595.6 346.7-80.2 84.8"/>
    </g>
   </g>
  </g>
 </g>
</svg>
