<svg height="210mm" viewBox="0 0 1052.4 744.1" width="297mm" xmlns="http://www.w3.org/2000/svg">
 <g fill="none" stroke-linecap="round">
  <g transform="translate(0 -308.26772)">
   <path d="m57.6 742.2h948.8" stroke="#969696" stroke-width="1.875"/>
   <g stroke="#000" stroke-dasharray="3.75 7.5" stroke-miterlimit="2" stroke-width=".9375">
    <path d="m58.3 844.1h948.8"/>
    <path d="m58.3 641.8h948.8"/>
    <path d="m58.3 540.6h948.8"/>
   </g>
  </g>
  <g stroke="#000" stroke-linejoin="round" stroke-width="5.625">
   <path d="m473.2 385-226.1 50.2"/>
   <path d="m493.7 431.4 98.6-196.8"/>
   <path d="m247.1 435.2c-33.4 19.3-76.8 76.5-68.3 92.5 4.9 9.2 28.4 7.7 48.3-24.3 8.5-13.7 17.7-31 19.9-61.8 4.4-61.4 30.6-107.8 55.8-106.1 20.5 2.6 7.1 25.2-4.6 33.9-3.8 3.2-24.1 15.1-39.1 16.7"/>
   <path d="m473.2 385 20.5 46.3"/>
   <path d="m573.5 391.3c-5.5 24.3 6 39.4 29.6 39.6 28.4-.3 74-26.3 114.3-28.2 40.3 0 61.8 28.1 96.2 28.1 25.8.1 45.7-8.8 64.2-18.4"/>
  </g>
 </g>
</svg>
