<svg height="210mm" viewBox="0 0 1052.4 744.1" width="297mm" xmlns="http://www.w3.org/2000/svg">
 <g fill="none" stroke-linecap="round">
  <g transform="translate(0 -308.26772)">
   <path d="m57.6 742.2h948.8" stroke="#969696" stroke-width="1.875"/>
   <g stroke="#000" stroke-dasharray="3.75 7.5" stroke-miterlimit="2" stroke-width=".9375">
    <path d="m58.3 844.1h948.8"/>
    <path d="m58.3 641.8h948.8"/>
    <path d="m58.3 540.6h948.8"/>
   </g>
  </g>
  <g stroke="#000" stroke-linejoin="round" stroke-width="5.625">
   <path d="m471.3 429.2s14.9-26.7 37.2-23.4c20.8 3.1 18.8 42.8 46.9 16 5.2-5 15.3-17.3 15.3-17.3"/>
   <path d="m570.8 404.4c7.8-9.8 11.2-13.8 19.4-19.1 4.3-2.8 8.7-4.8 13.4-5.9 10.7-2.7 14.9-.4 19.1 2.3 7.1 4.6 7.6 18-6.4 42.4l-29.8 52.1"/>
   <path d="m420.4 533.9s44.2-95.7 50.9-104.8"/>
  </g>
 </g>
</svg>
