<svg height="210mm" viewBox="0 0 1052.4 744.1" width="297mm" xmlns="http://www.w3.org/2000/svg">
 <g fill="none" stroke-linecap="round">
  <g transform="translate(0 -308.26772)">
   <path d="m57.6 742.2h948.8" stroke="#969696" stroke-width="1.875"/>
   <g stroke="#000" stroke-dasharray="3.75 7.5" stroke-miterlimit="2" stroke-width=".9375">
    <path d="m58.3 844.1h948.8"/>
    <path d="m58.3 641.8h948.8"/>
    <path d="m58.3 540.6h948.8"/>
   </g>
  </g>
  <path d="m645.1 371.9c-6.9 7.8-20.4 12.3-28.2 11.4-12.5-1.3-18.2-18.5 7.2-60.2 24.6-40.7 46.5-42.4 51.3-35.9 8.6 11.6-13.8 36.8-45.9 62.3-48.6 38.6-129.3 94.2-167.8 140.9-9.3 11.9-25.1 33.6-14.9 40.8 6.9 4.1 26.2 1.4 56.5-41.2 18-24.6 28.5-44.9 43.1-71.2 10.4-18.8 42.4-80.5 14.5-82.5-11.3-.8-23 6-41.2 26-24.2 26.6-50.9 68.1-83.2 69.2-22 .7-34.2-14.8-26.6-40.9" stroke="#000" stroke-linejoin="round" stroke-width="5.625"/>
 </g>
</svg>
