<svg height="210mm" viewBox="0 0 1052.4 744.1" width="297mm" xmlns="http://www.w3.org/2000/svg">
 <g fill="none" stroke-linecap="round">
  <g transform="translate(0 -308.26772)">
   <path d="m57.6 742.2h948.8" stroke="#969696" stroke-width="1.875"/>
   <g stroke="#000" stroke-dasharray="3.75 7.5" stroke-miterlimit="2" stroke-width=".9375">
    <path d="m58.3 844.1h948.8"/>
    <path d="m58.3 641.8h948.8"/>
    <path d="m58.3 540.6h948.8"/>
   </g>
  </g>
  <g stroke="#000">
   <g stroke-linejoin="round">
    <path d="m240.3 355c7.9-7.4 17.1-17.5 31.2-19.2 3.2-.4 6.2-.1 8.8.9 2.7.9 4.9 2.5 6.4 4.6 3.6 5.1 3 13.2-5 22.8-6 7.3-11.8 13.6-17 19.3-5.3 5.7-11.2 12.1-17.3 19.5-8 9.7-8.6 17.8-5 22.8 1.5 2.1 3.7 3.7 6.4 4.6 2.6.9 5.6 1 8.8.8 19.4-.7 27.5-7.1 80.1-47.3" stroke-width="5.624999"/>
    <path d="m337.7 383.8-45.5 94.9" stroke-width="5.625"/>
    <path d="m292.2 478.7c42-50.3 72.1-93.1 96.2-94.8 2.7-.3 5.1-.1 7.1.7 7.8 3.3 10.1 15.8-1.5 40.6l-25 53.3" stroke-width="5.625"/>
    <path d="m396.5 412.5-35.4 65.8" stroke-width="5.624999"/>
    <path d="m384.2 438.2-19.4 39.7" stroke-width="3.75"/>
    <path d="m361.1 478.3 7.9.2" stroke-width="5.624999"/>
   </g>
   <path d="m374.4 389.8c15.6-9.2 21.8-3.3 24 1.4 3.6 7.7-4.4 23.5-10.4 35.5" stroke-width="3.75"/>
   <path d="m625.6 335.8s-99.2 112.5-103.5 117.3c-9.2 10.3-21 25.3-33.6 25.3-12.9 0-17.4-32.9-34.2-32.2-17.6.9-60.3 20.6-85.3 32.4" stroke-width="5.625"/>
   <g stroke-linejoin="round">
    <g stroke-width="5.624999">
     <path d="m865.5 284.3-46.6 95.4"/>
     <path d="m865.5 284.3h-8.2"/>
     <path d="m861.7 285.2-45.7 93.9"/>
     <path d="m819 379.7h-8.2"/>
     <path d="m857.3 284.4-46.6 95.4"/>
     <path d="m579 431.2 278.3-146.8"/>
    </g>
    <path d="m625.6 335.8-46.6 95.4" stroke-width="5.624998"/>
   </g>
  </g>
 </g>
</svg>
