<svg height="210mm" viewBox="0 0 1052.4 744.1" width="297mm" xmlns="http://www.w3.org/2000/svg">
 <g fill="none" stroke-linecap="round">
  <g transform="translate(0 -308.26772)">
   <path d="m57.6 742.2h948.8" stroke="#969696" stroke-width="1.875"/>
   <g stroke="#000" stroke-dasharray="3.75 7.5" stroke-miterlimit="2" stroke-width=".9375">
    <path d="m58.3 844.1h948.8"/>
    <path d="m58.3 641.8h948.8"/>
    <path d="m58.3 540.6h948.8"/>
   </g>
  </g>
  <g stroke="#000" stroke-linejoin="round">
   <path d="m267.4 431.8 66.5-46.6" stroke-width="5.625"/>
   <path d="m490.2 430.8c5.4-3.3 11.7-10.5 6.5-17.1-2.6-3.3-4-4.5-11.9-4.4l-135 .6c-5.8 0-12.7.1-15.9-.7-9.6-2.4-7.9-13.2 0-24" stroke-width="5.625"/>
   <g stroke-width="5.624999">
    <path d="m313.9 336.4-46.5 95.4"/>
    <path d="m313.9 336.4h-8.2"/>
    <path d="m310.1 337.2-45.7 93.9"/>
    <path d="m267.4 431.8h-8.2"/>
    <path d="m305.7 336.4-46.6 95.4"/>
   </g>
   <path d="m115.4 431.6c6.9-7.3 20.8-25.6 40.1-25.1 19.4.4 13.1 25 34.2 25.2 20.2-.8 34.6-20 116-95.4" stroke-width="5.625"/>
   <g stroke-width="5.624999">
    <path d="m595.8 431.8c14.1-13.2 21.5-23.7 38-37.1 6.3-5.1 12.9-8.7 20.4-8.9 4.8-.1 8.5 2.9 11.5 8.7 6.5 12.7 4 18.2 12.3 27.2 15.9 17.3 45.2-28.6 35.9-35.1-6.3-4.4-27.3 4-50.8 42.8-25.1 40.2-17.1 50.8-3.6 51.1"/>
    <path d="m659.5 480.5c26.7-1.5 59.5-48.8 85.2-77.9 7.3-8.3 17.5-17.9 32-19.7 3.3-.4 6.4-.1 9 .9 2.8 1 5 2.6 6.6 4.7 3.7 5.2 3.1 13.5-5.1 23.4-25.8 28.5-52.5 47.8-39.5 64 3.9 4.9 10.8 6.2 19.9 5.8 9.7-.3 13.4 2.8 19.4 3.6"/>
    <path d="m495.5 426.4c8.9-8.7 32.3-41.8 65-43.7 8.7-.5 16.5 2.1 22.7 6.7 10.4 7.8 16 22.3 12.7 42.4"/>
   </g>
   <ellipse cx="303.20557" cy="876.20618" rx="25.728558" ry="20.371416" stroke-width="5.625" transform="matrix(.79083574 -.61202846 .61202846 .79083574 0 0)"/>
   <path d="m825.1 447.5-58.4 41.7" stroke-width="5.62496"/>
   <path d="m931.5 510.3c-11.6 11.5-22.2 22.3-39.6 23-6.1 0-11.1-2-13-6.3-6.1-13.6 12.1-30 39.4-63.9 6.6-8.1 8-14.4 6.2-18.8-2.1-5.2-8.7-7.7-16.5-7.6-8.2.1-17.1 4.8-24.8 11.3-17.8 14.9-28.1 31.9-45.8 32.3-10.5.2-16-7.2-12.4-32.9" stroke-width="5.624999"/>
  </g>
 </g>
</svg>
