<svg height="210mm" viewBox="0 0 1052.4 744.1" width="297mm" xmlns="http://www.w3.org/2000/svg">
 <g fill="none" stroke-linecap="round">
  <g transform="translate(0 -308.26772)">
   <path d="m57.6 742.2h948.8" stroke="#969696" stroke-width="1.875"/>
   <g stroke="#000" stroke-dasharray="3.75 7.5" stroke-miterlimit="2" stroke-width=".9375">
    <path d="m58.3 844.1h948.8"/>
    <path d="m58.3 641.8h948.8"/>
    <path d="m58.3 540.6h948.8"/>
   </g>
  </g>
  <g stroke="#000" stroke-linejoin="round">
   <path d="m445.8 430.9c12-2.3 27.7-17.4 54.5-37.2 5.6-3.5 11.1-6.3 18.2-7.2 7.1-.8 13.4 1.8 15.9 7.2 5.4 11.7-5.4 22.6-21.5 40.1s-26.9 28.4-21.5 40.1c2.5 5.5 8.8 8 15.9 7.2" stroke-width="5.625"/>
   <path d="m507.4 481.1c11.5-1.3 17.7-9.1 20.6-16.9 2.5-6.8 3.2-18.6-1.6-25.7-5.6-8.2-11.3-9.1-18-8.1-10.4 1.6-17.2 10.8-18.4 17.3-2.1 11.8 7.4 29 39.5 27.8 20.1-.8 57.1-23.2 74.3-25.2 16-.6 22.5 29 36.3 28.8 8.7-.1 14.1-5.3 19.4-11.5" stroke-width="5.62496"/>
   <ellipse cx="616.86566" cy="3.464845" rx="4.609393" ry="6.862875" stroke-width="5.625" transform="matrix(.72846687 .68508103 -.68508103 .72846687 0 0)"/>
  </g>
 </g>
</svg>
