<svg height="210mm" viewBox="0 0 1052.4 744.1" width="297mm" xmlns="http://www.w3.org/2000/svg">
 <g fill="none" stroke-linecap="round">
  <g transform="translate(0 -308.26772)">
   <path d="m57.6 742.2h948.8" stroke="#969696" stroke-width="1.875"/>
   <g stroke="#000" stroke-dasharray="3.75 7.5" stroke-miterlimit="2" stroke-width=".9375">
    <path d="m58.3 844.1h948.8"/>
    <path d="m58.3 641.8h948.8"/>
    <path d="m58.3 540.6h948.8"/>
   </g>
  </g>
  <g stroke="#000">
   <g stroke-width="5.625">
    <path d="m320.5 336.6c-14.3 3.7-28.4 14.7-39.8 27.9-24.4 28.3-36.3 66.8-11.9 66.6 29-.3 64.2-30.1 92.8-50l22.4 50.2" stroke-linejoin="round"/>
    <path d="m482.6 235.5-98.6 195.9"/>
    <g stroke-linejoin="round">
     <path d="m677.2 263c-17.8 3.7-34.1 4.6-52 6.2-30.4 2-69.5 4.5-102-3.2-20.3-5-35.9-16.7-40.6-30.5"/>
     <ellipse cx="670.36304" cy="-277.32684" rx="4.609393" ry="6.862874" transform="matrix(.72846687 .68508103 -.68508103 .72846687 0 0)"/>
    </g>
   </g>
   <g stroke-linejoin="round">
    <path d="m674.7 263c9.7 8.9 22.2 2.4 96.2-35.6" stroke-width="5.624999"/>
    <path d="m794.8 236.2c3.7 10.5-2.8 24.6-14.3 31.3-11.6 6.8-23.9 3.7-27.6-6.8s2.8-24.6 14.3-31.3c11.6-6.8 23.9-3.7 27.6 6.8z" stroke-width="5.625"/>
   </g>
  </g>
 </g>
</svg>
