<svg height="210mm" viewBox="0 0 1052.4 744.1" width="297mm" xmlns="http://www.w3.org/2000/svg">
 <g fill="none" stroke-linecap="round">
  <g transform="translate(0 -308.26772)">
   <path d="m57.6 742.2h948.8" stroke="#969696" stroke-width="1.875"/>
   <g stroke="#000" stroke-dasharray="3.75 7.5" stroke-miterlimit="2" stroke-width=".9375">
    <path d="m58.3 844.1h948.8"/>
    <path d="m58.3 641.8h948.8"/>
    <path d="m58.3 540.6h948.8"/>
   </g>
  </g>
  <g stroke="#000" stroke-linejoin="round">
   <path d="m415.1 399.1 34-16-27.4 48.9s153.1-173.8 168.3-185.6" stroke-width="5.62496"/>
   <path d="m558.4 334.1c17.8-20.3 44.7-46.8 61.4-47.5 14.9-.6 22.1 11.4-1 42.3-42.2 56.4-58.1 70.3-56.5 85.2 1.3 11.9 13.5 18.4 18.9 18.2 12.1-.4 18.5-7.8 28.4-18.9" stroke-width="5.625"/>
   <path d="m475.4 431.5c22.5-8.9 52.2-48.9 60.4-86.1s38.8-98.1 73.8-111.6" stroke-opacity=".987623" stroke-width="5.625"/>
   <path d="m475.4 431.5c-10.5 4.5 77.6-92.9 83-97.4" stroke-width="5.62496"/>
  </g>
 </g>
</svg>
