<svg height="210mm" viewBox="0 0 1052.4 744.1" width="297mm" xmlns="http://www.w3.org/2000/svg">
 <g fill="none" stroke-linecap="round">
  <g transform="translate(0 -308.26772)">
   <path d="m57.6 742.2h948.8" stroke="#969696" stroke-width="1.875"/>
   <g stroke="#000" stroke-dasharray="3.75 7.5" stroke-miterlimit="2" stroke-width=".9375">
    <path d="m58.3 844.1h948.8"/>
    <path d="m58.3 641.8h948.8"/>
    <path d="m58.3 540.6h948.8"/>
   </g>
  </g>
  <g stroke="#000">
   <path d="m333.9 337.9c9.3 1.2 23.5 6.5 26.3 22.3" stroke-width="3.75"/>
   <ellipse cx="92.810707" cy="485.76453" rx="60.146576" ry="43.208752" stroke-linejoin="round" stroke-width="5.625" transform="matrix(.88109295 -.47294313 .47294313 .88109295 0 0)"/>
   <path d="m298.4 429.2c-11.1 2-22.6-1-31.8-8.1" stroke-width="3.75"/>
   <g stroke-width="5.625">
    <path d="m365.2 361.4c.7 2.8.2 12.3-.3 13.7-4.6 13.5-9.8 20.7-17.2 28.9-8.8 9.7-22.1 15.7-32.4 24.1"/>
    <path d="m345.7 339.8c11 3.2 13.8 13.8 14.8 17.6 5.3 20.3-6.7 35.7-14.9 44.9-8.3 9.3-25 27.4-57.1 28.7"/>
    <g stroke-linejoin="round">
     <path d="m274.3 358-49.5 49.2c-5.2 5-10.5 9.9-16.9 14.6-7.8 5.7-17 9-24.3 9.5s-13.6-1.8-16.2-7.3c-7.2-15.4 13.6-29.6 37.7-58.8 8.1-9.8 8.7-18.1 5.1-23.2-1.5-2.1-3.8-3.7-6.5-4.7-2.6-.9-5.7-1.2-9-.9-14.3 1.8-23.7 12-31.7 19.6"/>
     <path d="m276.9 355.6c18.3-17 60.4-52.5 82-52.7s23.2 27.3 41.2 27.5c9.8.1 16.9-7.5 21.7-11.7"/>
    </g>
   </g>
   <ellipse cx="396.64484" cy="-1.478277" rx="3.366329" ry="5.01209" stroke-linejoin="round" stroke-width="8.900769" transform="matrix(.72846687 .68508103 -.68508103 .72846687 0 0)"/>
  </g>
 </g>
 <circle cx="508.42822" cy="358.06253" r="10.653956"/>
 <circle cx="493.03854" cy="407.07816" r="10.653956"/>
 <g fill="none" stroke="#000" stroke-linecap="round">
  <path d="m784.3 337.6c9.3 1.2 23.5 6.5 26.3 22.3" stroke-width="3.75"/>
  <ellipse cx="489.84991" cy="698.45715" rx="60.146576" ry="43.208752" stroke-linejoin="round" stroke-width="5.625" transform="matrix(.88109295 -.47294313 .47294313 .88109295 0 0)"/>
  <path d="m748.8 428.8c-11.1 2-22.6-1-31.8-8.1" stroke-width="3.75"/>
  <g stroke-width="5.625">
   <path d="m815.6 361c.7 2.8.2 12.3-.3 13.7-4.6 13.5-9.8 20.7-17.2 28.9-8.8 9.7-22.1 15.7-32.4 24.1"/>
   <path d="m796.1 339.4c11 3.2 13.8 13.8 14.8 17.6 5.3 20.3-6.6 35.7-14.9 44.9-8.3 9.3-25 27.4-57.1 28.7"/>
   <g stroke-linejoin="round">
    <path d="m724.7 357.6-49.5 49.2c-5.2 5-10.5 9.9-16.9 14.6-7.8 5.7-17 9-24.3 9.5s-13.6-1.8-16.2-7.3c-7.2-15.4 13.6-29.6 37.7-58.8 8.1-9.8 8.7-18.1 5.1-23.2-1.5-2.1-3.8-3.7-6.5-4.7-2.6-.9-5.7-1.2-9-.9-14.3 1.8-23.7 12-31.7 19.6"/>
    <path d="m727.3 355.2c18.3-17 60.4-52.5 82-52.7s23.2 27.3 41.2 27.5c9.8.1 16.9-7.5 21.7-11.7"/>
   </g>
  </g>
 </g>
</svg>
