<svg height="210mm" viewBox="0 0 1052.4 744.1" width="297mm" xmlns="http://www.w3.org/2000/svg">
 <g fill="none" stroke-linecap="round">
  <g transform="translate(0 -308.26772)">
   <path d="m57.6 742.2h948.8" stroke="#969696" stroke-width="1.875"/>
   <g stroke="#000" stroke-dasharray="3.75 7.5" stroke-miterlimit="2" stroke-width=".9375">
    <path d="m58.3 844.1h948.8"/>
    <path d="m58.3 641.8h948.8"/>
    <path d="m58.3 540.6h948.8"/>
   </g>
  </g>
  <g stroke="#000" stroke-width="5.625">
   <path d="m522.5 431.4c-30.6 25.1-82.4 86.2-74.6 100.3 2.9 5.3 34.7 12.4 62.3-63.4 15.7-47.2 25.8-112.5 71.5-132.1" stroke-linejoin="round"/>
   <path d="m513.4 390.1c-55.9 62.4-102.3 47.1-88.5-.3" stroke-linejoin="round"/>
   <path d="m513.4 390.1c36-35.3 48.5-41.9 53.4-45.1"/>
   <path d="m522.5 431.4c30.1-31.9 58.2-43.4 76.4-46.2 24.7-3.8 38 13.9 30 46.5" stroke-linejoin="round"/>
  </g>
 </g>
</svg>
