<svg height="210mm" viewBox="0 0 1052.4 744.1" width="297mm" xmlns="http://www.w3.org/2000/svg">
 <g fill="none" stroke-linecap="round">
  <g transform="translate(0 -308.26772)">
   <path d="m57.6 742.2h948.8" stroke="#969696" stroke-width="1.875"/>
   <g stroke="#000" stroke-dasharray="3.75 7.5" stroke-miterlimit="2" stroke-width=".9375">
    <path d="m58.3 844.1h948.8"/>
    <path d="m58.3 641.8h948.8"/>
    <path d="m58.3 540.6h948.8"/>
   </g>
  </g>
  <g stroke="#000">
   <g stroke-linejoin="round" stroke-width="5.625">
    <path d="m426 382.6 31.4 47.9 43.5-47.3"/>
    <path d="m426 382.6 24 48"/>
    <path d="m433.7 382.6 23.8 47.9"/>
    <path d="m429.7 382.5 24 48"/>
   </g>
   <path d="m426.4 381.5h7.1" stroke-width="3.75"/>
   <path d="m449.9 431.5h7.1" stroke-width="3.75"/>
   <g stroke-linejoin="round" stroke-width="5.625">
    <path d="m500.8 383.5 46.5-47.8-39 72.4c-8.4 15.5 3.5 25.6 20 21.7 2.8-.6 11.2-4.9 16.2-8.1l22.1-14.3"/>
    <path d="m566.6 407.3 242.2-172.6"/>
   </g>
  </g>
  <g stroke-linejoin="round" stroke-width="5.625">
   <path d="m373.2 434.8 52.8-52.2" stroke="#010000"/>
   <g stroke="#000">
    <path d="m377.1 434.2c-17.4-1.6-46.1-3.1-62 5.9-15 8.4-29.9 17.6-40.8 26.1-32.5 23.2-40.2 52.7-38 60 .9 3 16.3 22.9 59.8-38.1 26.9-36.9 54.6-73.4 69.3-116.4 15.5-30.1-1.4-56.7-44.4-11.6"/>
    <path d="m377.9 434.3c.8.1 1.4.2 1.9.5.2.1.3.2.5.3.9.7 1.3 2 .8 4-1 3.9-5.4 6.1-7.5 6.9-4.3 1.6-7.6-2-5.1-5.9 1.6-2.4 4.2-5.1 7.4-5.7.2 0 .4-.1.7-.1s.5-.1.8-.1c.6 0 1.2.1 1.9.3"/>
   </g>
  </g>
 </g>
</svg>
