<svg height="210mm" viewBox="0 0 1052.4 744.1" width="297mm" xmlns="http://www.w3.org/2000/svg">
 <g fill="none" stroke-linecap="round">
  <g transform="translate(0 -308.26772)">
   <path d="m57.6 742.2h948.8" stroke="#969696" stroke-width="1.875"/>
   <g stroke="#000" stroke-dasharray="3.75 7.5" stroke-miterlimit="2" stroke-width=".9375">
    <path d="m58.3 844.1h948.8"/>
    <path d="m58.3 641.8h948.8"/>
    <path d="m58.3 540.6h948.8"/>
   </g>
  </g>
  <g stroke="#000" stroke-linejoin="round">
   <g stroke-width="5.625">
    <path d="m433.3 335.9c-13.9 25.6-28.8 50.5-43.4 75.7-8.5 14.6.2 20.2 12.8 19.7 11.4-.7 19.5-4 30.7-10"/>
    <path d="m433.3 421.3c12.9-7.6 41.5-24.9 55.9-23.6 14.6 2.7 17.5 30.5 32 32.9 2 .3 4.1.2 6.6-.6 3.7-1.1 12.6-5.4 17.8-9.6 13.8-11.3 32.2-23.4 46.6-22.2 12.7 2.4 16.6 23.9 26.9 30.9 2.7 1.9 5.9 2.7 9.8 1.9 6.5-1.4 12.3-2.1 31.9-15.1 11.4-7.6 25.8-17.4 38.9-17.9 16.9-.7 17.1 34.2 36.7 33.1 6.6-.1 13.3-4.9 18.3-9"/>
    <path d="m468.4 402.6c4-1.6 7.6-2.6 12.6-1.3 6.1 1.7 12.6 7.2 17.5 18 3.1 6.9 7 9.6 11.1 10.6 4.1 1.1 9.5 1.1 13.8.8"/>
   </g>
   <path d="m485 400.1c7.6 6.7 7.2.5 24 26.2" stroke-width="6.380773"/>
   <path d="m573.7 402.1c2.6-1.1 6.6-2.4 11.2-1.5 6.4 1.4 11.4 7.7 16.6 19.1 3.3 7.2 7.4 9.8 11.6 10.7 4 .9 10 .9 13.3.7" stroke-width="5.625"/>
   <path d="m588 400.5c7.6 6.7 7.2.5 24 26.2" stroke-width="6.380773"/>
  </g>
 </g>
</svg>
