<svg height="210mm" viewBox="0 0 1052.4 744.1" width="297mm" xmlns="http://www.w3.org/2000/svg">
 <g fill="none" stroke-linecap="round">
  <g transform="translate(0 -308.26772)">
   <path d="m57.6 742.2h948.8" stroke="#969696" stroke-width="1.875"/>
   <g stroke="#000" stroke-dasharray="3.75 7.5" stroke-miterlimit="2" stroke-width=".9375">
    <path d="m58.3 844.1h948.8"/>
    <path d="m58.3 641.8h948.8"/>
    <path d="m58.3 540.6h948.8"/>
   </g>
  </g>
  <g stroke="#000" stroke-linejoin="round" stroke-width="5.625">
   <path d="m545 335.5-54.9 96.2 42-42.7"/>
   <path d="m340.4 431.4c50.4-65.5 115.5-58.4 97 .6l107.6-96.5"/>
   <path d="m573.1 433.4c-37.9 15.9-119.9 82.9-91.2 99.1 7.1 3.8 23.5-7.5 51.1-41.6 24.4-32.4 54.6-73.9 69.3-116.9 7.5-21.6 6.7-37.7-5.9-37.8-16.1-.1-39.8 27.9-64.4 52.9"/>
   <path d="m573.1 433.4 95.6-49.7 20 47.9"/>
  </g>
 </g>
</svg>
