<svg height="210mm" viewBox="0 0 1052.4 744.1" width="297mm" xmlns="http://www.w3.org/2000/svg">
 <g fill="none" stroke-linecap="round">
  <g transform="translate(0 -308.26772)">
   <path d="m57.6 742.2h948.8" stroke="#969696" stroke-width="1.875"/>
   <g stroke="#000" stroke-dasharray="3.75 7.5" stroke-miterlimit="2" stroke-width=".9375">
    <path d="m58.3 844.1h948.8"/>
    <path d="m58.3 641.8h948.8"/>
    <path d="m58.3 540.6h948.8"/>
   </g>
  </g>
  <g stroke="#000">
   <g stroke-linejoin="round">
    <g stroke-width="5.625">
     <path d="m712.9 364c-26.3 32.5-44 37.9-38.7 56.8 1.3 4.8 6.3 10.9 18.3 10.6 19.2-.5 64.9-31 83.3-31.9 17.5-.7 17.9 32.8 35.7 31.8 7.9-.4 13.6-5.1 20.2-10.6"/>
     <path d="m385 431.6c39-64.7 104.7-56.6 95.5-.1"/>
     <path d="m480.4 431.5s184.8-84 206.9-92.4c3-1.1 5.7-1.8 8.4-2.3 2.4-.4 4.8-.7 7.4-.8 2.4-.1 5.8.2 8.3 1.1 2.6.9 4.8 2.5 6.3 4.5 3.5 5 3 12.9-4.9 22.5"/>
    </g>
    <path d="m375.6 386c-46.4 64.7-72.9 90.9-99.4 95.4-3.3.4-8.3 0-11-1-3.2-1.2-5.7-3.4-7.2-6.4-7.2-15.5 13.7-29.8 38-59.3 8.2-9.9 8.8-18.2 5.1-23.4-1.5-2.2-3.8-3.8-6.6-4.7-2.6-.9-5.7-1.2-9-.9-8 1-14.5 4.6-20 8.9-3.5 2.7-6.7 5.5-9.5 8.4-6 6.5-12.6 15.2-20.9 28.2" stroke-width="5.624999"/>
   </g>
   <path d="m375.6 386-76.6 148.1" stroke-width="5.625"/>
  </g>
 </g>
</svg>
