<svg height="210mm" viewBox="0 0 1052.4 744.1" width="297mm" xmlns="http://www.w3.org/2000/svg">
 <g fill="none" stroke-linecap="round" transform="translate(0 -308.26772)">
  <path d="m57.6 742.2h948.8" stroke="#969696" stroke-width="1.875"/>
  <g stroke="#000" stroke-dasharray="3.75 7.5" stroke-miterlimit="2" stroke-width=".9375">
   <path d="m58.3 844.1h948.8"/>
   <path d="m58.3 641.8h948.8"/>
   <path d="m58.3 540.6h948.8"/>
  </g>
 </g>
 <circle cx="957.43524" cy="424.47592" r="8.049653"/>
 <g fill="none" stroke="#000" stroke-linecap="round">
  <g stroke-linejoin="round">
   <g stroke-width="5.625">
    <path d="m132.1 390.7 18.8 40.2"/>
    <path d="m280.6 347.4c23.7-19.2 60.9-14.6 37.5 14.4-27.4 33.8-45.5 50.2-39.4 63.9 4.2 9.5 23.2 7.2 36.5-3.7l25.3-20.6"/>
    <path d="m340.4 401.4 82.2-66.1-57.4 97 76.5-48.5"/>
   </g>
   <path d="m751.9 376.5c-21.3 14-84.6 60.1-68.1 54 3 .3 9.7-4.2 11-5 48.9-28 71.8-129.3 9.4-73.8-1.2 1.1-6.1 6.2-10.7 11.1" stroke-width="5.419139"/>
   <path d="m751.9 376.5c53.7-37.8 162.2-128.3 130.2-139.3-14.6-5-41.6 10.9-88.8 88.8-60.3 104.2-36 118.4-1.8 98.4 2.3-1.4 22.9-15.2 32.2-25.2" stroke-width="5.625"/>
  </g>
  <path d="m866.6 240.5c-48 60-85.6 120.6-108.4 181.8" stroke-width="5.625"/>
  <path d="m854.8 251.4c-38.3 44.9-72.2 96-94.1 156" stroke-width="7.5"/>
  <path d="m884.8 240.2c-14-7.4-25.3 10.6-27.8 13.6" stroke-width="3.75"/>
  <g stroke-width="5.625">
   <path d="m763.8 408.2c-6.1 21.8-1.8 23 13.1 22.7"/>
   <g stroke-linejoin="round">
    <path d="m823.6 399.2 19.2-15.8 20 47.9"/>
    <path d="m519 330.4c6.1-12.6 21.5-26.2 37.5-26.2 24.5-.1 24.2 25.8 40.3 26.5 10.7.5 19.9-7.9 27.2-15.6"/>
   </g>
  </g>
 </g>
</svg>
