<svg height="210mm" viewBox="0 0 1052.4 744.1" width="297mm" xmlns="http://www.w3.org/2000/svg">
 <g fill="none" stroke-linecap="round">
  <g transform="translate(0 -308.26772)">
   <path d="m57.6 742.2h948.8" stroke="#969696" stroke-width="1.875"/>
   <g stroke="#000" stroke-dasharray="3.75 7.5" stroke-miterlimit="2" stroke-width=".9375">
    <path d="m58.3 844.1h948.8"/>
    <path d="m58.3 641.8h948.8"/>
    <path d="m58.3 540.6h948.8"/>
   </g>
  </g>
  <g stroke="#000" stroke-linejoin="round">
   <path d="m608.4 396.7c8.9-2.5 17.1-4.3 25.9-2.9 16.5 4.5 12 40.6 30.1 37.6 5-.9 11.5-5.3 21-13.7" stroke-width="5.625"/>
   <path d="m476.7 404c20.4-33.9 126.7-132.6 161.1-159.9 81.6-56.5-28.8 162.3-88.2 186.6-16.3 3.7-17.4-2.3-12.1-8.1 15.8-12 25.7-14.6 70.9-25.9" stroke-width="5.625"/>
   <path d="m498.2 387.4c-34.1 9.8-101.6 27.7-100.6 39.8.3 2.1 1.8 4 4.8 4.3s9.7-4.2 11-5c10.7-6.1 20.2-15.8 27.8-26.6 28.4-40.2 30.6-95.6-25.7-40.3" stroke-width="5.419139"/>
   <ellipse cx="143.34662" cy="628.51971" rx="25.728558" ry="20.371416" stroke-width="5.625" transform="matrix(.79083574 -.61202846 .61202846 .79083574 0 0)"/>
  </g>
 </g>
</svg>
