<svg height="210mm" viewBox="0 0 1052.4 744.1" width="297mm" xmlns="http://www.w3.org/2000/svg">
 <g fill="none" stroke-linecap="round">
  <g transform="translate(0 -308.26772)">
   <path d="m57.6 742.2h948.8" stroke="#969696" stroke-width="1.875"/>
   <g stroke="#000" stroke-dasharray="3.75 7.5" stroke-miterlimit="2" stroke-width=".9375">
    <path d="m58.3 844.1h948.8"/>
    <path d="m58.3 641.8h948.8"/>
    <path d="m58.3 540.6h948.8"/>
   </g>
  </g>
  <g stroke="#000" stroke-linejoin="round">
   <g stroke-width="5.625">
    <ellipse cx="606.42212" cy="-101.70558" rx="4.609393" ry="6.862875" transform="matrix(.72846687 .68508103 -.68508103 .72846687 0 0)"/>
    <path d="m445.9 336.6s-33.2 63.9-35.3 72c-5.3 17.9 5.1 24 18.9 23.9 28.2-.1 47.7-38.2 84-86.5"/>
    <path d="m510.4 347.2c45-9.7 73.9-25.2 86.2-41.7 5.2-7 6.2-13.7 4.9-17.4-1.3-3.8-5.7-5.7-12.1-4.1-9.9 2.5-24.4 13.2-39.3 37.8-22.9 38.9-15.8 60.7-1.5 61 20.3.3 35.9-15.8 74.1-46.8"/>
   </g>
   <path d="m632.2 484.6c14.8-7.7 30.4-16 28.9-34.4-1.8-21.5-55-44-61.8-66.9-3.5-11.7 8.2-30.9 23.4-47.3" stroke-width="5.624998"/>
  </g>
 </g>
</svg>
