<svg height="210mm" viewBox="0 0 1052.4 744.1" width="297mm" xmlns="http://www.w3.org/2000/svg">
 <g fill="none" stroke-linecap="round">
  <g transform="translate(0 -308.26772)">
   <path d="m57.6 742.2h948.8" stroke="#969696" stroke-width="1.875"/>
   <g stroke="#000" stroke-dasharray="3.75 7.5" stroke-miterlimit="2" stroke-width=".9375">
    <path d="m58.3 844.1h948.8"/>
    <path d="m58.3 641.8h948.8"/>
    <path d="m58.3 540.6h948.8"/>
   </g>
  </g>
  <g stroke="#000" stroke-linejoin="round">
   <path d="m418.2 384.5c48.1-9.2 58-34.4 55.1-43.4-3.2-9.6-26.7-7-51.4 33.8-10.6 17.4-16.6 30.1-19.1 39-3.8 13.4 2.5 17.3 10.2 17.7 4.9.2 9.4-1.4 11.6-2.1 3.5-1.2 7.1-2.8 10.8-4.9 9.1-4.9 18.7-12 28-18.7 15.8-11.4 34.1-20 50.8-19.7 26.2-.4 33.6 31.6 33.6 45" stroke-width="5.625"/>
   <path d="m547.8 431.3 63.4-41.4" stroke-width="5.625"/>
   <path d="m616.9 534.2c14.8-7.7 30.4-16 28.9-34.4-1.8-21.5-51.2-39.8-58-62.6-3.5-11.7 8.2-30.9 23.4-47.3" stroke-width="5.624998"/>
  </g>
 </g>
</svg>
