<svg height="210mm" viewBox="0 0 1052.4 744.1" width="297mm" xmlns="http://www.w3.org/2000/svg">
 <g fill="none" stroke-linecap="round">
  <g transform="translate(0 -308.26772)">
   <path d="m57.6 742.2h948.8" stroke="#969696" stroke-width="1.875"/>
   <g stroke="#000" stroke-dasharray="3.75 7.5" stroke-miterlimit="2" stroke-width=".9375">
    <path d="m58.3 844.1h948.8"/>
    <path d="m58.3 641.8h948.8"/>
    <path d="m58.3 540.6h948.8"/>
   </g>
  </g>
  <g stroke="#000">
   <g stroke-linejoin="round" stroke-width="5.625">
    <path d="m310.3 433.1 147.9-61.8"/>
    <path d="m458.2 371.3s68-25.4 93-32.9c21-5.4 35 2.5 12.3 40.5l-31.2 52.3"/>
    <path d="m573.5 344.8-49.2 86.2"/>
    <path d="m573.7 351-45.6 79.9"/>
    <path d="m524.3 431 7.9.3"/>
   </g>
   <path d="m569.5 338.7c1.8 1.7 2.3 5.7.7 9.9" stroke-width="3.75"/>
  </g>
  <g stroke-linejoin="round" stroke-width="5.625">
   <path d="m310.3 433.1c-52.7 10.7-93.2 82.1-88.6 94.2 1.1 2.9 16.1 26.2 55.6-37.5l89.2-154.1" stroke="#060000"/>
   <g stroke="#000">
    <path d="m678.3 304.8c16.9-14.4 29.7-20 41.3-20.6 16.3-.8 31.7 9.7 31.4 47.9-.4 52 30 54.8 50.4 40.8"/>
    <path d="m525.2 407.2c1 .1 1.8.3 2.5.7.2.1.4.2.6.4 1.2.9 1.7 2.6 1 5.2-1.3 5.1-7.1 8-9.8 9-5.7 2-9.8-2.6-6.6-7.6 2-3.1 5.5-6.6 9.7-7.5.3-.1.6-.1.9-.1s.7-.1 1-.1c.8 0 1.6.1 2.4.3"/>
    <path d="m519.1 423c39.9-2.8 77.5-24 99.3-45.9 19-19.2 38.7-53 60-72.3"/>
   </g>
  </g>
 </g>
</svg>
