<svg height="210mm" viewBox="0 0 1052.4 744.1" width="297mm" xmlns="http://www.w3.org/2000/svg">
 <g fill="none" stroke-linecap="round">
  <g transform="translate(0 -308.26772)">
   <path d="m57.6 742.2h948.8" stroke="#969696" stroke-width="1.875"/>
   <g stroke="#000" stroke-dasharray="3.75 7.5" stroke-miterlimit="2" stroke-width=".9375">
    <path d="m58.3 844.1h948.8"/>
    <path d="m58.3 641.8h948.8"/>
    <path d="m58.3 540.6h948.8"/>
   </g>
  </g>
  <g stroke="#000" stroke-width="5.625">
   <g stroke-linejoin="round">
    <path d="m424.5 402.9c-35.2 18.2-78.7 27.1-109.1 27.8-42.5 1-77.1-8.4-85.5-34.7"/>
    <path d="m428.4 393.6c.6.1 1.1.2 1.5.4.1.1.3.1.4.2.7.6 1 1.5.6 3-.8 3-4.1 4.6-5.7 5.3-3.3 1.2-5.7-1.5-3.8-4.4 1.2-1.8 3.2-3.8 5.6-4.3.2 0 .3-.1.5-.1h.6c.5 0 .9.1 1.4.2"/>
    <path d="m580.2 471.1c28.2-26 45.4-34.5 61.9-35 19.7-.6 31.1 15.4 23.6 41.1"/>
   </g>
   <path d="m580.5 234.7-113.1 196.5"/>
   <path d="m580.5 234.7s-135.5 173.4-155.9 168.2"/>
   <g stroke-linejoin="round">
    <path d="m467.4 431.2s63.9-10.2 72.1 12.1c4.2 11.3 8.9 47.7 40.7 27.8"/>
    <path d="m665.8 477.2s70.3-39 94.4-40.1c24-.8 25.8 41.1 42.2 40.7 10.8-.3 18.5-10 25.1-17.1"/>
   </g>
  </g>
 </g>
</svg>
