<svg height="210mm" viewBox="0 0 1052.4 744.1" width="297mm" xmlns="http://www.w3.org/2000/svg">
 <g fill="none" stroke-linecap="round">
  <g transform="translate(0 -308.26772)">
   <path d="m57.6 742.2h948.8" stroke="#969696" stroke-width="1.875"/>
   <g stroke="#000" stroke-dasharray="3.75 7.5" stroke-miterlimit="2" stroke-width=".9375">
    <path d="m58.3 844.1h948.8"/>
    <path d="m58.3 641.8h948.8"/>
    <path d="m58.3 540.6h948.8"/>
   </g>
  </g>
  <g stroke="#000">
   <g stroke-width="5.625">
    <g stroke-linejoin="round">
     <path d="m255.9 430.4c50.4-65.5 115.5-58.4 97 .6l110.6-95.1"/>
     <path d="m474.1 335.9-53.9 95.4"/>
     <path d="m474.1 335.9h-10.6"/>
     <path d="m468.5 335.9-53.9 95.4"/>
     <path d="m420.1 431.3h-10.6"/>
     <path d="m463.5 336-53.9 95.4 11-.1"/>
     <path d="m532.5 341.3c-19.7 11.5-111.9 89.9-111.9 89.9"/>
     <path d="m484.8 434.6c-48.4 27.2-81 79.8-72.2 95.6 2.9 5.3 34.7 12.4 62.3-63.3 15.8-47.4 16.5-113.3 70.8-131.6"/>
    </g>
    <path d="m524.4 346.7c-27.4 24.6-28.9 58.7-39.7 100.9-7.5 29.4-23.1 69.4-55.3 83.9"/>
    <path d="m514.7 357.2c-22.2 34.7-16.3 49.9-25.9 88.3-10 39.9-19.2 60.3-50.1 80.6"/>
    <path d="m489.6 433.9 92-50.9 20.5 48.3" stroke-linejoin="round"/>
    <path d="m602.1 431.3c2.1-3 22.7-39.6 37.6-63.5 12.3-19.8 23.1-27.2 41.4-31.2 1.8-.2 3.5-.3 5.2-.2 12.9.4 19.9 9 6.2 25.9-27.4 33.8-44.8 48.6-38.8 62.2 2.1 4.8 8.1 7.3 15.1 6.9 17.8-2.7 30.5-17.2 40.1-32.4 4.3-6.6 94.8-164 94.8-164" stroke-linejoin="round"/>
    <path d="m693.4 339.5c14.5 10.1 4.3 27.8-12.4 44.2-14.4 14-22.7 24.7-28.8 37"/>
    <path d="m693.4 339.5c.8-1.1 3.9 6.1.7 14.2-3.2 8.4-12.8 17.8-18.3 22.9-10.8 10.1-29.9 27.3-23.7 44"/>
   </g>
   <g stroke-width="2.8125">
    <path d="m684.9 337.7c11.3 1.3 8.8 6.5 9.1 11"/>
    <path d="m657.3 413.4c-2.7 4.9-3.8 12.5 2.3 15"/>
    <path d="m649.6 414.7c-.1 5.7 2.9 11.5 4.9 13.1"/>
   </g>
  </g>
 </g>
</svg>
