<svg height="210mm" viewBox="0 0 1052.4 744.1" width="297mm" xmlns="http://www.w3.org/2000/svg">
 <g fill="none" stroke-linecap="round">
  <g transform="translate(0 -308.26772)">
   <path d="m57.6 742.2h948.8" stroke="#969696" stroke-width="1.875"/>
   <g stroke="#000" stroke-dasharray="3.75 7.5" stroke-miterlimit="2" stroke-width=".9375">
    <path d="m58.3 844.1h948.8"/>
    <path d="m58.3 641.8h948.8"/>
    <path d="m58.3 540.6h948.8"/>
   </g>
  </g>
  <g stroke="#000" stroke-linejoin="round">
   <path d="m408.8 396.2a19.2 25.1 41.6 0 1 -14.3 31.3 19.2 25.1 41.6 0 1 -27.6-6.8 19.2 25.1 41.6 0 1 14.3-31.3 19.2 25.1 41.6 0 1 27.6 6.8z" stroke-width="5.625"/>
   <g stroke-width="5.624999">
    <path d="m374.3 395c10.1-12 30.4-30.2 41-37.9 16.1-11.8 34.8-20.8 52-20.5 26.2-.4 33.6 31.6 33.6 45"/>
    <path d="m500.7 381.6c119.7-165.1 136.8-197.5 164.2-196.7 5.4.5 8.4 4.4 9.3 10.8 1.1 7.4-.5 18.1-4.2 30.7-16.1 54.4-71.5 144.1-117.3 154.1"/>
    <path d="m552.6 380.6c-4.1 1.5-7-2.5-2.9-5 17-10.2 102.1-33.6 114.1-30.4 15.7 4.3 13.6 35.7 29.5 35.9 5.5 0 13.1-3.7 24.4-13.5"/>
   </g>
  </g>
 </g>
</svg>
