<svg height="210mm" viewBox="0 0 1052.4 744.1" width="297mm" xmlns="http://www.w3.org/2000/svg">
 <g fill="none" stroke-linecap="round">
  <g transform="translate(0 -308.26772)">
   <path d="m57.6 742.2h948.8" stroke="#969696" stroke-width="1.875"/>
   <g stroke="#000" stroke-dasharray="3.75 7.5" stroke-miterlimit="2" stroke-width=".9375">
    <path d="m58.3 844.1h948.8"/>
    <path d="m58.3 641.8h948.8"/>
    <path d="m58.3 540.6h948.8"/>
   </g>
  </g>
  <g stroke-linejoin="round">
   <path d="m516.5 421.2c-45 27.6-88.2 53-104.1 69.7-13.1 13.8-17.1 29.2-15.6 34 1.5 7.4 16.6 24.4 59.8-38.1 27-36.9 54.7-73.4 69.4-116.4 15.5-30.1-1.4-56.7-44.5-11.5" stroke="#060000" stroke-width="5.624959"/>
   <g stroke="#000" stroke-width="5.625">
    <path d="m501 477.9c16.8-.5 33-21.3 35-47.2 2.1-26.8 46.2-55.7 36.3-48.7l-55.7 39.2"/>
    <path d="m555.8 397.1c-18.7 24.9-13 28.9-16.8 41.1-3.5 11.7-12.1 25.9-24.2 34.7"/>
    <path d="m552.9 400.2c-7.6 7.8-16.9 18.3-21 32.6-4.1 14.4-5.5 33.4-22.5 43.1"/>
    <path d="m501 477.9c-.3-10.4 101.7-40.5 125.8-41.5 24-.8 22.9 34 39.4 33.6 10.8-.3 18.5-10 25.1-17.1"/>
   </g>
  </g>
 </g>
</svg>
