<svg height="210mm" viewBox="0 0 1052.4 744.1" width="297mm" xmlns="http://www.w3.org/2000/svg">
 <g fill="none" stroke="#000" stroke-linecap="round">
  <g transform="translate(0 -308.26772)">
   <path d="m57.6 742.2h948.8" stroke-width="1.875"/>
   <g stroke-dasharray="3.75 7.5" stroke-miterlimit="2" stroke-width=".9375">
    <path d="m58.3 844.1h948.8"/>
    <path d="m58.3 641.8h948.8"/>
    <path d="m58.3 540.6h948.8"/>
   </g>
  </g>
  <g stroke-width="5.625">
   <path d="m393.2 422.3c.6.1 1.1.2 1.5.4.1.1.3.1.4.2.7.6 1 1.5.6 3.1-.8 3-4.2 4.8-5.9 5.4-3.4 1.2-5.9-1.6-3.9-4.5 1.2-1.9 3.3-3.9 5.8-4.4.2 0 .3-.1.5-.1h.6c.5 0 1 .1 1.5.2" stroke-linejoin="round"/>
   <path d="m392.7 429.9c37.1-29.9 64.7-67.2 124.7-140.2" stroke-linejoin="round"/>
   <path d="m660.1 188.2-126.3 186.3"/>
   <g stroke-linejoin="round">
    <ellipse cx="295.70773" cy="561.27502" rx="20.732254" ry="16.415432" transform="matrix(.89236516 -.45131411 .45131411 .89236516 0 0)"/>
    <path d="m517.4 289.7-34.6 75c-7.4 16 6.8 20.5 16.7 20.3 7.9-.1 14.5.5 21.8-1.4"/>
   </g>
  </g>
 </g>
</svg>
