<svg height="210mm" viewBox="0 0 1052.4 744.1" width="297mm" xmlns="http://www.w3.org/2000/svg">
 <g fill="none" stroke-linecap="round">
  <g transform="translate(0 -308.26772)">
   <path d="m57.6 742.2h948.8" stroke="#969696" stroke-width="1.875"/>
   <g stroke="#000" stroke-dasharray="3.75 7.5" stroke-miterlimit="2" stroke-width=".9375">
    <path d="m58.3 844.1h948.8"/>
    <path d="m58.3 641.8h948.8"/>
    <path d="m58.3 540.6h948.8"/>
   </g>
  </g>
  <g stroke-linejoin="round">
   <path d="m489.9 213.2c10.4-12.2 20.5-22.5 32.5-26.7 24.8-6.9 35 2.5 12.3 40.5l-29.8 52.1" stroke="#000" stroke-width="5.625"/>
   <path d="m504.8 279c-.1-5-.2-8.8-1.4-9.8-1.3-1.2-3.1-1.4-4-.7-2.4 1.8-2.1 3-1.9 4.9.4 3.5 2.1 2.2 5.4 1.5 4.1-2.1 4.1-4.2 7.1-4.8" stroke="#000200" stroke-width="5.625"/>
   <path d="m501.7 270.2c-.1-.2-.3-.4-.4-.5 0 0-.1-.1-.2-.1-.3-.2-.8-.1-1.3.3-1 .8-1 2.4-1 3.1.1 1.5 1.6 1.9 2.4.7.5-.8.9-1.9.6-2.9 0-.1 0-.1-.1-.2 0-.1-.1-.2-.1-.2-.1-.2-.2-.3-.3-.5" stroke="#000200" stroke-width="3.586069"/>
   <g stroke="#000" stroke-width="5.625">
    <path d="m502.9 274.9 222.4-39"/>
    <path d="m725.3 235.9c30.1-4 52.9 7.5 45.4 43.8"/>
    <path d="m770.7 279.7c14.1-6 66.9-42.8 95.1-45 21.3 0 27.3 45.7 38.3 45.4 7.2-.2 12.4-7.6 16.7-13"/>
    <path d="m141.5 431s184.9-40.9 194.1-43"/>
    <path d="m435.9 283 54.1-69.8"/>
    <ellipse cx="16.018734" cy="529.38177" rx="25.728558" ry="20.371416" transform="matrix(.79083574 -.61202846 .61202846 .79083574 0 0)"/>
    <path d="m315.5 402.9 98.4-168.4 22 48.5"/>
   </g>
  </g>
 </g>
</svg>
