<svg height="210mm" viewBox="0 0 1052.4 744.1" width="297mm" xmlns="http://www.w3.org/2000/svg">
 <g fill="none" stroke-linecap="round">
  <g stroke="#969696" transform="translate(0 -308.26772)">
   <path d="m57.6 742.2h948.8" stroke-width="1.875"/>
   <g stroke-dasharray="3.75 7.5" stroke-miterlimit="2" stroke-width=".9375">
    <path d="m58.3 844.1h948.8"/>
    <path d="m58.3 641.8h948.8"/>
    <path d="m58.3 540.6h948.8"/>
   </g>
  </g>
  <g stroke="#000">
   <g stroke-linejoin="round">
    <path d="m442.9 433.7c-27 16.7-90.2 91.8-63.1 99 11.2 2.5 33.1-7.6 54.5-66.2 15.7-47.2 16.4-112.9 70.4-130.9" stroke-width="5.624959"/>
    <path d="m442.9 433.7c54.3-54.1 114.9-115.3 152-155 10.2-10.9 21.5-21.3 30.3-28.9 13.2-11.5 25-17.8 34.1-15.9 3 .1 5 1.7 6.1 4.6 10.7 27.9-65.8 174.3-122.4 192.5" stroke-width="5.625"/>
    <path d="m655.6 281.6c-11.5 21.5-39 69.9-54.2 94.8" stroke-width="8.4375"/>
    <path d="m544.7 429.5c17.6-7.4 30.5-22.8 43.2-39.5 5.5-7.3 12-16.7 20.5-29.8" stroke-width="3.75"/>
    <path d="m650.1 295.1-54.8 90.9" stroke-width="5.625"/>
    <path d="m663.8 236.6c5.1 7.4-2.4 28.2-11.3 46.7" stroke-width="4.6875"/>
    <path d="m608.1 426c-2.6 2.8-6.2 3.6-8 1.9-1.9-1.7-1.3-5.4 1.3-8.2s6.2-3.6 8-1.8c1.9 1.7 1.3 5.3-1.4 8.1z" stroke-width="5.624959"/>
   </g>
   <path d="m606 427.8c-7.2 4.3-38.6 3.8-62.9 3.1" stroke-width="5.624959"/>
   <g stroke-linejoin="round">
    <path d="m601 428.8c14.5 1.5 5.9 28.5 144.2-193.3" stroke-width="5.624999"/>
    <g stroke-width="5.625">
     <path d="m261.3 430.9s44.6-32.4 61.8-29.2 16 46.2 45.6 21.5c18.4-15.4 24.6-22.4 36.6-33.4l-66.9 144.1"/>
     <path d="m308.7 404c5.4-2.4 14.4-.8 22.3 16.5 5.6 12.2 16.2 10.3 22.8 10.3"/>
     <path d="m319.8 403.8c7.6 3.9 5 .9 19.8 23.5"/>
    </g>
   </g>
  </g>
 </g>
</svg>
