<svg height="210mm" viewBox="0 0 1052.4 744.1" width="297mm" xmlns="http://www.w3.org/2000/svg">
 <g fill="none" stroke-linecap="round">
  <g transform="translate(0 -308.26772)">
   <path d="m57.6 742.2h948.8" stroke="#969696" stroke-width="1.875"/>
   <g stroke="#000" stroke-dasharray="3.75 7.5" stroke-miterlimit="2" stroke-width=".9375">
    <path d="m58.3 844.1h948.8"/>
    <path d="m58.3 641.8h948.8"/>
    <path d="m58.3 540.6h948.8"/>
   </g>
  </g>
  <g stroke="#000" stroke-linejoin="round" stroke-width="5.625">
   <path d="m371.8 431.9s11.5-.2 16.5-2.6c7.7-3.5 21.4-16.4 36-30.1"/>
   <path d="m640.5 400.9c-19.7-.8-173.4 31.5-208.3 29.8-6.1-.3-15.4-7.3-7.8-31.6"/>
   <ellipse cx="563.18219" cy="54.939026" rx="4.609393" ry="6.862874" transform="matrix(.72846687 .68508103 -.68508103 .72846687 0 0)"/>
   <path d="m640.5 400.9c20.7-.1 10.8 31.6 32.3 30.2 6.5-.4 13.3-3.7 19.6-8.1"/>
  </g>
 </g>
</svg>
