<svg height="210mm" viewBox="0 0 1052.4 744.1" width="297mm" xmlns="http://www.w3.org/2000/svg">
 <g fill="none" stroke-linecap="round">
  <g transform="translate(0 -308.26772)">
   <path d="m57.6 742.2h948.8" stroke="#969696" stroke-width="1.875"/>
   <g stroke="#000" stroke-dasharray="3.75 7.5" stroke-miterlimit="2" stroke-width=".9375">
    <path d="m58.3 844.1h948.8"/>
    <path d="m58.3 641.8h948.8"/>
    <path d="m58.3 540.6h948.8"/>
   </g>
  </g>
  <g stroke="#000" stroke-width="5.625">
   <g stroke-linejoin="round">
    <path d="m526.2 272.8c-36.7 15.5-81 88.1-72.2 103.9 2.9 5.3 34.7 12.4 62.3-63.3 15.8-47.4 16.5-113.3 70.8-131.6"/>
    <path d="m526.2 272.8c20.4-8 53-26.6 72.9-27.2 17.1-.4 23.9 30.4 40.3 30 5.2-.1 9.6-2.4 13.6-5.6 4.3-3.4 8.4-7.5 11.5-11.6 23.9-31.5 101-179.8 101-179.8"/>
    <ellipse cx="142.79631" cy="512.29004" rx="60.146576" ry="43.208748" transform="matrix(.88109295 -.47294313 .47294313 .88109295 0 0)"/>
   </g>
   <path d="m421.8 361.1c.7 2.8.2 12.3-.3 13.7-4.6 13.5-9.8 20.7-17.2 28.9-8.8 9.7-22.1 15.7-32.4 24.1"/>
   <path d="m402.3 339.6c11 3.2 13.8 13.8 14.8 17.6 5.3 20.3-6.6 35.7-14.9 44.9-8.3 9.3-25 27.4-57.1 28.7"/>
   <g stroke-linejoin="round">
    <path d="m268.4 430.8 57.7-68.3"/>
    <path d="m336.6 352.8 230.4-160.8"/>
   </g>
  </g>
 </g>
</svg>
