<svg height="210mm" viewBox="0 0 1052.4 744.1" width="297mm" xmlns="http://www.w3.org/2000/svg">
 <g fill="none" stroke-linecap="round">
  <g transform="translate(0 -308.26772)">
   <path d="m57.6 742.2h948.8" stroke="#969696" stroke-width="1.875"/>
   <g stroke="#000" stroke-dasharray="3.75 7.5" stroke-miterlimit="2" stroke-width=".9375">
    <path d="m58.3 844.1h948.8"/>
    <path d="m58.3 641.8h948.8"/>
    <path d="m58.3 540.6h948.8"/>
   </g>
  </g>
  <g stroke="#000" stroke-linejoin="round" stroke-width="5.625">
   <path d="m563.5 431.9c15-.9 26.5-9.2 43.6-30.4l54.1-64.9"/>
   <path d="m661.2 336.6-50.1 94.9"/>
   <path d="m727.3 335.5-55.8 97.2"/>
   <path d="m727.3 335.5h-10.6"/>
   <path d="m721.8 335.5-55.8 97.2"/>
   <path d="m671.5 432.7h-10.6"/>
   <path d="m611.1 431.4 105.6-95.9-55.8 97.2 11-.1"/>
   <path d="m671.9 432.7 209-47 20 45.6"/>
   <path d="m128.2 431.4c50.4-65.5 115.5-58.4 97 .6"/>
   <path d="m438.7 337.4s-3.1 1.2 3.3-1.1c16.3-5.7 36.1 3.9 18.7 25.5-27.4 33.8-45.7 41.5-40.4 59.2 1.5 5 4.7 11.8 19.1 11"/>
   <path d="m225.2 432 213.5-94.6"/>
   <path d="m439.4 432c18.8.2 67.7-34.2 86.8-35.2 18.3-.7 18.7 36.1 37.2 35.1"/>
  </g>
 </g>
</svg>
