<svg height="210mm" viewBox="0 0 1052.4 744.1" width="297mm" xmlns="http://www.w3.org/2000/svg">
 <g fill="none" stroke-linecap="round">
  <g transform="translate(0 -308.26772)">
   <path d="m57.6 742.2h948.8" stroke="#969696" stroke-width="1.875"/>
   <g stroke="#000" stroke-dasharray="3.75 7.5" stroke-miterlimit="2" stroke-width=".9375">
    <path d="m58.3 844.1h948.8"/>
    <path d="m58.3 641.8h948.8"/>
    <path d="m58.3 540.6h948.8"/>
   </g>
  </g>
  <g stroke="#000" stroke-linejoin="round" stroke-width="5.625">
   <path d="m331 431.3c24.5-40.1 76.4-119.5 87.7-133.2 5.8-7.1 12.3-9.3 16.9-9.5 4.8-.2 8.6 2.9 11.5 8.7 6.5 12.7 4 18.2 12.3 27.2 15.9 17.3 43.8-27.8 34.5-34.3-6.3-4.4-25.9 3.2-49.4 42-7 11.8-11.7 21.6-14.2 29.3-1.5 4.7-1.8 8.6-1.4 11.8.3 2.3.9 4.3 1.7 5.9.9 1.7 2.3 3.3 4.3 4.3 1.9.9 4.3 1.3 6.4 1.3"/>
   <path d="m441.3 384.7c48.5-2.5 103.3-126.9 145.2-147.7 4.4-1.9 8.9-2.7 13.6-2.3 10.5 1.2 16.5 8.2 15.8 17-.4 3.7-1.6 8.3-3.7 13.7-9.9 21.8-22.7 42.9-34.9 64.9"/>
   <path d="m577.2 330.3c25-11.8 67.7-31.5 85.3-32.4 16.8-.7 22.7 32.6 34.2 32.2 7.5-.2 13.1-6.2 18.3-10.8"/>
  </g>
 </g>
</svg>
