<svg height="210mm" viewBox="0 0 1052.4 744.1" width="297mm" xmlns="http://www.w3.org/2000/svg">
 <g fill="none" stroke-linecap="round">
  <g transform="translate(0 -308.26772)">
   <path d="m57.6 742.2h948.8" stroke="#969696" stroke-width="1.875"/>
   <g stroke="#000" stroke-dasharray="3.75 7.5" stroke-miterlimit="2" stroke-width=".9375">
    <path d="m58.3 844.1h948.8"/>
    <path d="m58.3 641.8h948.8"/>
    <path d="m58.3 540.6h948.8"/>
   </g>
  </g>
  <g stroke="#000">
   <g stroke-linejoin="round" stroke-width="5.625">
    <path d="m379.3 334.6c-13.8 25.3-28.6 50-43 74.9-10.4 18.8 6.4 23.8 30 21.7"/>
    <path d="m717.5 436.4 31.4 44.1"/>
    <path d="m717.5 436.4 22.1 44.2"/>
    <path d="m727 436.5 21.9 44.1"/>
    <path d="m723.1 436.3 22.1 44.2"/>
   </g>
   <path d="m717.9 435.4h9" stroke-width="3.75"/>
   <path d="m739.5 481.6h9" stroke-width="3.75"/>
   <g stroke-linejoin="round" stroke-width="5.625">
    <path d="m366.3 431.2c21.4-1.8 69.5-6.6 91.9-18.1 15.7-8.1 23.7-21.9 19.7-31.2-4.9-11.6-38.5-9.6-64.9 34.1-29.2 47.8-20.3 65.1-4.7 65"/>
    <path d="m408.3 480.9c20-.1 72.5-10.9 253.9-44.5"/>
    <path d="m717.5 436.4c-24.3 38.4-61.8 76.6-55.3 0"/>
   </g>
  </g>
 </g>
</svg>
