<svg height="210mm" viewBox="0 0 1052.4 744.1" width="297mm" xmlns="http://www.w3.org/2000/svg">
 <g fill="none" stroke-linecap="round">
  <g transform="translate(0 -308.26772)">
   <path d="m57.6 742.2h948.8" stroke="#969696" stroke-width="1.875"/>
   <g stroke="#000" stroke-dasharray="3.75 7.5" stroke-miterlimit="2" stroke-width=".9375">
    <path d="m58.3 844.1h948.8"/>
    <path d="m58.3 641.8h948.8"/>
    <path d="m58.3 540.6h948.8"/>
   </g>
  </g>
  <g stroke="#000" stroke-linejoin="round" stroke-width="5.625">
   <path d="m742.2 432.3c5.4-3.3 11.7-10.5 6.5-17.1-2.6-3.3-4-4.5-11.9-4.4l-98.8.6c-6.7.1-14.3.2-15.9-.7-10.5-5.8-7.4-13.7.5-24.6"/>
   <path d="m591.8 336.8-36.8 73.1c-11.3 22.5 23 32 46.3 4.4 1.4-1.7 15.3-18.9 16.5-21"/>
   <path d="m750.3 423.1c13.7-19.9 35.7-51.6 51.4-69.3 13.1-15.4 32-24.4 39.4-11.9 7.1 12.9-21.9 61.1-35.9 89.9"/>
   <path d="m278.9 334.8c-40.3 12.4-74.7 63.7-58.2 82.9 18.9 21.4 140.8 16.4 152 9.5"/>
   <path d="m377.2 412.3c1 .1 1.8.3 2.5.7.2.1.4.2.6.4 1.2.9 1.7 2.6 1 5.2-1.3 5.1-7.1 8-9.8 9-5.7 2-9.8-2.6-6.6-7.6 2-3.1 5.5-6.6 9.7-7.5.3-.1.6-.1.9-.1s.7-.1 1-.1c.8 0 1.6.1 2.4.3"/>
   <path d="m376.4 425.1c5.4-2.2 41.5-30.6 43.2-31.9 55-40.7 155.2-144.1 124.1-154.8-14.6-5-40.3 8.9-87.4 86.8-45 77.7-42.9 105.4-24.7 106.1 6.2.2 60.1 6.8 81.1-15.3"/>
   <path d="m591.8 336.8-79.1 79.1"/>
   <ellipse cx="133.08102" cy="619.05267" rx="25.728558" ry="20.371416" transform="matrix(.79083574 -.61202846 .61202846 .79083574 0 0)"/>
  </g>
 </g>
</svg>
