<svg height="210mm" viewBox="0 0 1052.4 744.1" width="297mm" xmlns="http://www.w3.org/2000/svg">
 <g fill="none" stroke-linecap="round">
  <g transform="translate(0 -308.26772)">
   <path d="m57.6 742.2h948.8" stroke="#969696" stroke-width="1.875"/>
   <g stroke="#000" stroke-dasharray="3.75 7.5" stroke-miterlimit="2" stroke-width=".9375">
    <path d="m58.3 844.1h948.8"/>
    <path d="m58.3 641.8h948.8"/>
    <path d="m58.3 540.6h948.8"/>
   </g>
  </g>
  <g stroke-linejoin="round" stroke-width="5.625">
   <path d="m534.3 266.9c-37.1 44-75.7 88.6-118.4 128.8-25.4 24-44.7 38.5-36.2 35.9 11.3-3.6 27.6-14.3 30.8-40.1s20.9-53.1 39.1-55.8" stroke="#000400"/>
   <g stroke="#000">
    <path d="m534.3 266.9c42.8-43.9 93-44 60.9 10.5l-90 153.8 20.3-14.8"/>
    <path d="m525.5 416.5c13.8-11.3 20.7-16.8 28.6-22 21.7-13.4 27.9-13.6 34.3-1 6.5 12.7 5.3 17.1 12.3 27.2 20.1 29.1 43.1-26.4 34.5-34.3-9.6-8.9-31.9 5.2-51.8 41.3-32 58.8-14.2 61.2 10.3 47.3 3.2-1.8 6.4-3.9 9.7-6.1"/>
   </g>
  </g>
 </g>
</svg>
