<svg height="210mm" viewBox="0 0 1052.4 744.1" width="297mm" xmlns="http://www.w3.org/2000/svg">
 <g fill="none" stroke-linecap="round">
  <g stroke="#969696" transform="translate(0 -308.26772)">
   <path d="m57.6 742.2h948.8" stroke-width="1.875"/>
   <g stroke-dasharray="3.75 7.5" stroke-miterlimit="2" stroke-width=".9375">
    <path d="m58.3 844.1h948.8"/>
    <path d="m58.3 641.8h948.8"/>
    <path d="m58.3 540.6h948.8"/>
   </g>
  </g>
  <g stroke="#000">
   <g stroke-linejoin="round">
    <path d="m965.2 430.9c5.4-3.3 11.7-10.5 6.5-17.1-2.6-3.3-4-4.5-11.9-4.4l-135 .6c-5.8 0-12.7.1-15.9-.7-9.6-2.4-7.9-13.2 0-24" stroke-width="5.625"/>
    <g stroke-width="5.624999">
     <path d="m784.8 336-46.6 95.4"/>
     <path d="m784.8 336h-8.2"/>
     <path d="m780.9 336.8-45.7 93.9"/>
     <path d="m738.2 431.4h-8.2"/>
     <path d="m776.6 336-46.6 95.4"/>
    </g>
    <path d="m681.8 431 94.8-95" stroke-width="5.625"/>
    <path d="m738.2 431.4 70.7-46.1" stroke-width="5.625"/>
    <path d="m552.8 336-44.7 95.4" stroke-width="5.624999"/>
    <path d="m660.4 386.8 21.3 44.2" stroke-width="5.625002"/>
    <path d="m610 335.4c7.1-.8 13.4 1.8 15.9 7.2 5.4 11.7-5.4 24-21.5 41.5s-26.9 28.4-21.5 40.1c2.5 5.5 8.8 8 15.9 7.2 11.5-1.3 17.7-9.1 20.6-16.9 2.5-6.8 4.9-22.9-1.4-33.1-5.3-8.4-11.3-9.1-18-8.1-10.3 1.6-19.7 9.4-21.2 16-2.7 11.7 10.3 18.5 21.8 17.5 15.6-1.2 33.1-8.7 59.9-20.1" stroke-width="5.625001"/>
    <path d="m508.1 431.4c21.7-22.5 42.4-46.9 64.4-70.8 6-6.5 12.1-12.7 17.9-16.8 6.7-4.8 12.9-8.1 19.7-8.4" stroke-width="5.625003"/>
    <path d="m485.6 397c3.7 10.5-2.8 24.6-14.3 31.3-11.6 6.8-23.9 3.7-27.6-6.8s2.8-24.6 14.3-31.3c11.6-6.8 23.9-3.7 27.6 6.8z" stroke-width="5.625"/>
   </g>
   <path d="m557.4 232.8-109.4 166.6" stroke-width="5.625"/>
  </g>
  <g stroke-linejoin="round">
   <path d="m353.5 431.4c-15.8-3.6 109.6-43.5 109.6-43.5" stroke="#060000" stroke-width="5.625"/>
   <g stroke="#000">
    <path d="m97.7 431.4c-3.2 1.1-5-1.8-2.6-4.4 22.3-23.3 253.8-147.7 330.1-182.3 11.5-5.2 19-7.1 23.5-8.2 3.5-.8 6.6-1 9.3-1 7.2.1 11.8 3 14.2 8 7.2 15.3-6.2 50.9-28.6 90.5-26.3 44.8-62.9 88.9-90.3 97.3" stroke-width="5.625"/>
    <path d="m464.4 283.5c-11.5 21.5-39 69.9-54.2 94.8" stroke-width="8.4375"/>
    <path d="m357.1 429.1c17.6-7.4 27-20.5 39.7-37.3 5.5-7.3 12-16.7 20.5-29.8" stroke-width="3.75"/>
    <path d="m458.9 297s-53.6 91.2-59.3 95.6" stroke-width="5.625"/>
    <path d="m471.7 243.2c4.6 10.6-1.4 23.6-10.3 42.1" stroke-width="4.6875"/>
    <path d="m97.7 431.4c43.9-15.9 71.5-94.7 46.6-94.9-7.2-.1-18.9 6.5-35.8 23.2" stroke-width="5.625"/>
   </g>
  </g>
 </g>
</svg>
