<svg height="210mm" viewBox="0 0 1052.4 744.1" width="297mm" xmlns="http://www.w3.org/2000/svg">
 <g fill="none" stroke-linecap="round">
  <g stroke="#000" transform="translate(0 -308.26772)">
   <path d="m57.6 742.2h948.8" stroke-width="1.875"/>
   <g stroke-dasharray="3.75 7.5" stroke-miterlimit="2" stroke-width=".9375">
    <path d="m58.3 844.1h948.8"/>
    <path d="m58.3 641.8h948.8"/>
    <path d="m58.3 540.6h948.8"/>
   </g>
  </g>
  <g stroke-width="5.625">
   <g stroke="#000">
    <path d="m487.4 358.5 101.8-104.4" stroke-linejoin="round"/>
    <path d="m589.2 254.1c29.5-31.4 49.3-58 33.7-63.4-14.6-5-40.2 8.9-87.4 86.8-60.3 104.2-33.5 122.2-1.8 98.4l16.4-12.4" stroke-linejoin="round"/>
    <path d="m612.7 278.5c-21.1 33.7-44.8 69.2-62.6 84.9"/>
    <path d="m487.4 358.5s-46.6 50-80.5 69c-11.8 6.6-21.8 14.3-23.3 15.1-41.6 23.7-75.8 71.5-70.5 85 1.2 2.9 9.6 22.2 53.1-38.8 48.1-67.3 86.2-138.1 121.9-209.8 15.5-26.5 11.8-44.5-2.5-44.2-14.4.3-18.5 4.7-39.5 28.3" stroke-linejoin="round"/>
   </g>
   <g stroke-linejoin="round">
    <path d="m685.2 193.3c-.5-.5-.8-.8-1.4-1.1-.2-.1-.7-.4-.9-.5s-.4-.2-.6-.2c-9 1.9-6.3 3.2-9 1.9-1.5-.7 2.2 10.4 5.3 9.2 2 .3 6.1-.4 7.6-3.8.7-1.7.6-3.2-.1-4.4-.1-.2-.3-.3-.4-.6-2.6-7.5-15-.3-23.3 7.8-3.9 3.8-11.1 11.6-17.1 21.7-5 8.1-18.4 30.8-32.6 55.2" stroke="#00001f"/>
    <path d="m500.3 507.1a5.5 1.8 0 0 1 -5.5 1.8 5.5 1.8 0 0 1 -5.5-1.8 5.5 1.8 0 0 1 5.4-1.8 5.5 1.8 0 0 1 5.5 1.8h-5.5z" stroke="#000" transform="matrix(.86958032 -.49379153 .49379153 .86958032 0 0)"/>
   </g>
  </g>
 </g>
</svg>
