<svg height="210mm" viewBox="0 0 1052.4 744.1" width="297mm" xmlns="http://www.w3.org/2000/svg">
 <g fill="none" stroke-linecap="round">
  <g stroke="#969696" transform="translate(0 -308.26772)">
   <path d="m57.6 742.2h948.8" stroke-width="1.875"/>
   <g stroke-dasharray="3.75 7.5" stroke-miterlimit="2" stroke-width=".9375">
    <path d="m58.3 844.1h948.8"/>
    <path d="m58.3 641.8h948.8"/>
    <path d="m58.3 540.6h948.8"/>
   </g>
  </g>
  <g stroke="#000" stroke-linejoin="round" stroke-width="5.625">
   <ellipse cx="625.77258" cy="-13.560799" rx="4.609393" ry="6.862874" transform="matrix(.72846687 .68508103 -.68508103 .72846687 0 0)"/>
   <path d="m452.3 336.5-33.3 70c-6.5 14.7 2.5 24.9 14.3 24.9 10.3 0 24.9-1.8 32.9-7.7"/>
   <path d="m463.3 425.2c7.3 13.1 22.5-.6 71.7-34.4"/>
   <path d="m535 390.8-54.8 94.9"/>
   <path d="m480.1 485.6c27.9-25.5 74.9-81.6 103.6-116.2 15.3-18.5 28.2-32.6 45.9-32.9 8.1-.2 13.2 6.7 11.6 16.3-1.1 6.7-4.3 15.5-11 26.8l-31.2 52.3"/>
   <ellipse cx="294.57568" cy="745.78101" rx="25.728558" ry="20.371418" transform="matrix(.79083574 -.61202846 .61202846 .79083574 0 0)"/>
   <path d="m681.6 390.3-82.6 41.6"/>
  </g>
 </g>
</svg>
