<svg height="210mm" viewBox="0 0 1052.4 744.1" width="297mm" xmlns="http://www.w3.org/2000/svg">
 <g fill="none" stroke-linecap="round">
  <g transform="translate(0 -308.26772)">
   <path d="m57.6 742.2h948.8" stroke="#969696" stroke-width="1.875"/>
   <g stroke="#000" stroke-dasharray="3.75 7.5" stroke-miterlimit="2" stroke-width=".9375">
    <path d="m58.3 844.1h948.8"/>
    <path d="m58.3 641.8h948.8"/>
    <path d="m58.3 540.6h948.8"/>
   </g>
  </g>
  <g stroke="#000">
   <g stroke-width="5.625">
    <g stroke-linejoin="round">
     <path d="m748.3 431.3c5.4-3.3 11.7-10.5 6.5-17.1-2.6-3.3-4-4.5-11.9-4.4l-140 .6c-6.7 0-14.3.2-15.9-.7-10.5-5.8-7.4-13.7.5-24.6"/>
     <path d="m562.3 335.9-42.4 73.1c-13.3 22.9 23.8 35.3 46.3 4.4 1.3-1.8 15.3-18.9 16.5-21"/>
     <path d="m397.8 336.1-52.3 95.3"/>
     <path d="m345.5 431.4s55.4-48 81.2-69.9"/>
     <path d="m426.7 361.5c7.6-7.7 13.9-12.5 15.6-13.9 23.7-19.2 60.9-14.6 37.5 14.4-27.4 33.8-45.5 50.2-39.4 63.9 2.2 2.3 4.5 4 7.1 5 2.9 1.2 6.1 1.7 9.5 1.6 27.1-.8 87.5-76.4 105.3-96.6"/>
    </g>
    <path d="m480.7 339.2c14.5 10.1 4.3 27.8-12.4 44.2-14.4 14-23.4 26.4-29.5 38.7"/>
    <path d="m480.7 339.2c.8-1.1 3.9 6.1.7 14.2-3.2 8.4-12.8 17.8-18.3 22.9-10.8 10.1-30.6 29-24.3 45.7"/>
   </g>
   <g stroke-width="2.8125">
    <path d="m472.1 337.5c11.3 1.3 8.8 6.5 9.1 11"/>
    <path d="m443.9 414.8c-2.7 4.9-3.8 12 2.3 14.5"/>
    <path d="m436.2 416.1c-.1 5.7 2.9 11.5 4.9 13.1"/>
   </g>
  </g>
 </g>
</svg>
