<svg height="210mm" viewBox="0 0 1052.4 744.1" width="297mm" xmlns="http://www.w3.org/2000/svg">
 <g stroke-linecap="round">
  <g fill="none" transform="translate(0 -308.26772)">
   <path d="m57.6 742.2h948.8" stroke="#969696" stroke-width="1.875"/>
   <g stroke="#000" stroke-dasharray="3.75 7.5" stroke-miterlimit="2" stroke-width=".9375">
    <path d="m58.3 844.1h948.8"/>
    <path d="m58.3 641.8h948.8"/>
    <path d="m58.3 540.6h948.8"/>
   </g>
  </g>
  <g stroke="#000" stroke-linejoin="round">
   <g fill="none" stroke-width="5.625">
    <path d="m385.8 397.7c2.3-3.1 25.8-30.7 27.9-33.4 2.7-3.5 5.3-6.7 7.7-9.6 2-2.4 3.9-4.5 5.8-6.4 16.9-17.9 26.9-18.3 33.4-5.7 6.5 12.7 4 18.2 12.3 27.2 15.9 17.3 43.8-27.8 34.5-34.3-6.3-4.4-25.9 3.2-49.4 42-25.9 42.4-22.7 55.1-9.5 53.5 35.6-4.4 57.1-22.2 93.4-48.1"/>
    <path d="m435.1 340.8c9.6-6.8 18 4.1 21.6 15.8 3.2 10.5 8.7 18 23.9 17.1"/>
    <path d="m446.9 337.1c13.6.7 15.1 28.3 22.1 30"/>
    <path d="m385.8 397.7c-12.2 15.2-24.3 29.4-36.1 32.9-10.4 3.1-13.2-5.7-2.7-39.3"/>
    <path d="m226.2 431.5c10.6-12.1 23.1-29.4 40-30.3 16-.6 26.3 30.6 37.3 30.4 12.6-.2 29.8-24.5 43.6-40.3"/>
    <path d="m541.8 382.8 20 47.9"/>
    <path d="m561.9 430.7 116.4-93.8-56.7 94.9 41-.9"/>
   </g>
   <g fill="#eb0000" fill-rule="evenodd" transform="matrix(1.4376953 0 0 1.4376953 -381.31411 145.58578)">
    <path d="m732.1 185.5c.8.1 1.4.2 1.9.5.2.1.3.2.5.3.9.7 1.3 2 .8 4-1 3.9-5.4 6.1-7.5 6.9-4.3 1.6-7.6-2-5.1-5.9 1.6-2.4 4.2-5.1 7.4-5.7.2 0 .4-.1.7-.1h.8c.6 0 1.2.1 1.9.3" stroke-width="5.625"/>
    <path d="m729.3 188.3c.3 0 .6.1.9.2.1 0 .2.1.2.1.4.3.6.9.4 1.8-.4 1.7-2.4 2.8-3.3 3.1-1.9.7-3.4-.9-2.3-2.6.7-1.1 1.9-2.3 3.3-2.6h.3.4c.3 0 .6 0 .8.1" stroke-width="4.981044"/>
   </g>
   <g fill="none" stroke-width="5.625">
    <path d="m750.5 383.7 20 47.9"/>
    <path d="m750.5 383.7c-61.4 42.7-62.5 49.7-88 47.2"/>
   </g>
  </g>
 </g>
</svg>
