<svg height="210mm" viewBox="0 0 1133.9 744.1" width="320mm" xmlns="http://www.w3.org/2000/svg">
 <g fill="none" stroke-linecap="round">
  <g transform="translate(0 -308.26772)">
   <path d="m16.2 742.2h1094.7" stroke="#969696" stroke-width="1.875"/>
   <g stroke="#000" stroke-dasharray="3.75 7.5" stroke-miterlimit="2" stroke-width=".9375">
    <path d="m16.9 844.1h1094.7"/>
    <path d="m16.9 641.8h1094.7"/>
    <path d="m16.9 540.6h1094.7"/>
   </g>
  </g>
  <path d="m44 348.2c23.7-19.2 60.9-14.6 37.5 14.4-27.4 33.8-45.5 50.2-39.4 63.9 2 4.6 7 5.9 13.4 5.1 17-4.3 31.9-14.2 44.7-24.5" stroke="#000001" stroke-linejoin="round" stroke-width="5.625"/>
  <g stroke="#000">
   <g stroke-linejoin="round">
    <path d="m100.1 407.1c26.8-20.3 48.9-36.1 70.9-46.7 70.7-33.8 154.9-40.4 118.5 55.4-1.6 4.3-4.6 10.1-6.8 14.8" stroke-width="5.625"/>
    <path d="m270.1 340.9c37.7 14.8 18.9 65.9 7.3 88.1" stroke-width="8.4375"/>
    <path d="m254.6 336.6c43.3 8.7 32.1 73.3 12.4 93.8" stroke-width="5.625"/>
   </g>
   <path d="m267 430.4 15.7.3" stroke-width="5.625"/>
   <path d="m266.5 340.4c37.7 14.8 18.9 65.9 7.3 88.1" stroke-linejoin="round" stroke-width="4.6875"/>
   <path d="m246.4 337.7c4.9.2 8.8-.4 15.5 2.6" stroke-width="2.8125"/>
   <g stroke-linejoin="round" stroke-width="5.625">
    <path d="m282.7 430.7 251.7-49.5"/>
    <path d="m512.3 396.3c24.5-36 60.9-64 85.1-65.9 21-1.7 36.3 16 30.2 45.2"/>
    <ellipse cx="173.68044" cy="649.19482" rx="30.294554" ry="23.986691" transform="matrix(.79083574 -.61202846 .61202846 .79083574 0 0)"/>
    <path d="m627.6 375.6s371.8-195.1 389.9-198.1"/>
    <path d="m1017.5 177.4c-12.1 3.5-23.1 11.8-31.4 20.8-40.2 43.1-126.5 181.8-83.4 179.2 30.4 0 87.4-75.8 127.2-115.2"/>
   </g>
  </g>
  <path d="m1048.1 332.6c-53.2 7.3-100.2 80.3-96.4 92.6.9 3 16.3 22.9 59.8-38.1 26.9-36.9 47.9-70.1 69.3-116.4 11.3-21.8 5.4-41.8-15.1-33.9-7.7 3-18.7 9-35.8 25.3" stroke="#060000" stroke-linejoin="round" stroke-width="5.625"/>
 </g>
</svg>
