<svg height="210mm" viewBox="0 0 1052.4 744.1" width="297mm" xmlns="http://www.w3.org/2000/svg">
 <g fill="none" stroke="#000" stroke-linecap="round">
  <g transform="translate(0 -308.26772)">
   <path d="m57.6 742.2h948.8" stroke-width="1.875"/>
   <g stroke-dasharray="3.75 7.5" stroke-miterlimit="2" stroke-width=".9375">
    <path d="m58.3 844.1h948.8"/>
    <path d="m58.3 641.8h948.8"/>
    <path d="m58.3 540.6h948.8"/>
   </g>
  </g>
  <g stroke-linejoin="round" stroke-width="5.625">
   <path d="m502.9 431.4c1.9-.1 4.1-.4 6.5-1.2 15.2-3.3 48.3-41.1 54.3-48.8"/>
   <path d="m531.6 334.4c54.3-11 95.5-79.5 89.2-96.2-5.5-14.4-40.3 8.9-87.4 86.8-45.4 78.3-46.9 106.9-30.5 106.4"/>
   <path d="m563.7 381.4c18.8-22.2 31.3-33.5 53.3-43.1 19.6-8.3 35 2.5 12.3 40.5l-31.2 52.3"/>
   <path d="m598.1 431 78.6-35.4"/>
   <path d="m400.2 398.1 33.9-16-27.4 48.9"/>
  </g>
 </g>
</svg>
