<svg height="210mm" viewBox="0 0 1052.4 744.1" width="297mm" xmlns="http://www.w3.org/2000/svg">
 <g fill="none" stroke="#000" stroke-linecap="round">
  <g transform="translate(0 -308.26772)">
   <path d="m57.6 742.2h948.8" stroke-width="1.875"/>
   <g stroke-dasharray="3.75 7.5" stroke-miterlimit="2" stroke-width=".9375">
    <path d="m58.3 844.1h948.8"/>
    <path d="m58.3 641.8h948.8"/>
    <path d="m58.3 540.6h948.8"/>
   </g>
  </g>
  <g stroke-linejoin="round">
   <g stroke-width="5.625">
    <path d="m598.4 429.1c-58.4-.4-99.5 15.9-135.9 50.8-23.7 26.3-31.9 40.6-27.9 50.7 2.2 5.6 34.7 12.4 62.3-63.3 15.8-47.4 16.5-113.3 70.8-131.6"/>
    <path d="m594.6 412.3c1 .1 1.8.3 2.5.7.2.1.4.2.6.4 1.2.9 1.7 2.6 1 5.2-1.3 5.1-7.1 8-9.8 9-5.7 2-9.8-2.6-6.6-7.6 2-3.1 5.5-6.6 9.7-7.5.3-.1.6-.1.9-.1s.7-.1 1-.1c.8 0 1.6.1 2.4.3"/>
    <path d="m566.8 414.7c1 .1 1.8.3 2.5.7.2.1.4.2.6.4 1.2.9 1.7 2.6 1 5.2-1.3 5.1-7.1 8-9.8 9-5.7 2-9.8-2.6-6.6-7.6 2-3.1 5.5-6.6 9.7-7.5.3-.1.6-.1.9-.1s.7-.1 1-.1c.8 0 1.6.1 2.4.3"/>
   </g>
   <path d="m422.4 390 27.4 38.9" stroke-width="8.4375"/>
   <g stroke-width="5.625">
    <path d="m422.7 400.6 21.5 30.3"/>
    <path d="m427.7 384.6c31.7-.6 60.1-36.4 56.9-44.8-2.5-6.7-27.1-5.3-45.7 15.7-7.9 9-17.8 26.4-16 25.9 0 12.3 23.9 32.9 36 49.4"/>
    <path d="m442.2 351.9c-3.8 2.7-10 9.5-15 16.3-4.7 6.5-8.5 13-8.3 16.2.2 3.7.2 7.8 2.2 12.7 1.5 3.6 4.1 7.5 8 12.3"/>
    <path d="m444.1 430.8h14.7"/>
    <path d="m458.9 430.9s74-79.7 90.1-85.7"/>
    <path d="m598.4 429.1c21.2-1.6 43-27.6 59.8-28.4 16-.6 21.6 31 32.6 30.7 7.2-.2 12.4-7.6 16.7-13"/>
   </g>
  </g>
 </g>
</svg>
