<svg height="210mm" viewBox="0 0 1052.4 744.1" width="297mm" xmlns="http://www.w3.org/2000/svg">
 <g fill="none" stroke-linecap="round">
  <g transform="translate(0 -308.26772)">
   <path d="m57.6 742.2h948.8" stroke="#969696" stroke-width="1.875"/>
   <g stroke="#000" stroke-dasharray="3.75 7.5" stroke-miterlimit="2" stroke-width=".9375">
    <path d="m58.3 844.1h948.8"/>
    <path d="m58.3 641.8h948.8"/>
    <path d="m58.3 540.6h948.8"/>
   </g>
  </g>
  <g stroke="#000" stroke-linejoin="round" stroke-width="5.625">
   <path d="m587.9 405.8s81.3-102.6 83.5-105.3c2.6-3.2 5-5.8 7.4-7.8 83-65-26.7 159.9-88.2 186.6"/>
   <path d="m635.7 235.4-99.8 172c-14.1 24.3 23.6 37.2 51.9-1.5"/>
   <path d="m372.3 431.2s44.6-32.4 61.8-29.2 16 46.2 45.6 21.5"/>
   <path d="m415.8 406c5.4-2.4 18.6-2.2 26.5 15 5.6 12.2 13.9 9.5 20.5 9.9"/>
   <path d="m430.4 404.1c6.7 5.9 6.3.5 21.2 23.1"/>
   <path d="m635.7 235.4s-141.7 179.6-156 188.1"/>
  </g>
 </g>
</svg>
