<svg height="210mm" viewBox="0 0 1052.4 744.1" width="297mm" xmlns="http://www.w3.org/2000/svg">
 <g fill="none" stroke-linecap="round">
  <g transform="translate(0 -308.26772)">
   <path d="m57.6 742.2h948.8" stroke="#969696" stroke-width="1.875"/>
   <g stroke="#000" stroke-dasharray="3.75 7.5" stroke-miterlimit="2" stroke-width=".9375">
    <path d="m58.3 844.1h948.8"/>
    <path d="m58.3 641.8h948.8"/>
    <path d="m58.3 540.6h948.8"/>
   </g>
  </g>
  <g stroke="#000" stroke-linejoin="round" stroke-width="5.625">
   <path d="m642.9 357.7 23.2-21.4"/>
   <path d="m373.6 396.4s-104.2 45.5-109.6 48.5c-41.6 23.7-75.8 71.5-70.5 85 1.2 2.9 9.6 22.2 53.1-38.8 48.1-67.3 86.2-138.1 121.9-209.8 25.1-47.3-12.7-68.3-49.9-17.5"/>
   <path d="m373.6 396.4 251.8-107.9-42.5 71.3c-9 15.2 5 26 21.5 22.2 14.9-4 27.3-14.2 38.5-24.4"/>
   <path d="m666.1 336.3-56.7 94.9 92.7-103.9"/>
   <path d="m702.1 327.3c10.6-10.8 31.7-29.7 33.3-31.1 35.8-31.5 45.9-4.3 36.1 21.2-16.1 43-43.8 79.3-70.8 116.2-46.6 60.3-56.2 43.4-58.1 40.9-7.2-9.2 3.8-39.6 36.3-62.9 16.7-13 42.8-27.6 64-38.6"/>
  </g>
 </g>
</svg>
