<svg height="210mm" viewBox="0 0 1052.4 744.1" width="297mm" xmlns="http://www.w3.org/2000/svg">
 <g fill="none" stroke-linecap="round">
  <g transform="translate(0 -308.26772)">
   <path d="m57.6 742.2h948.8" stroke="#969696" stroke-width="1.875"/>
   <g stroke="#000" stroke-dasharray="3.75 7.5" stroke-miterlimit="2" stroke-width=".9375">
    <path d="m58.3 844.1h948.8"/>
    <path d="m58.3 641.8h948.8"/>
    <path d="m58.3 540.6h948.8"/>
   </g>
  </g>
  <g stroke="#000">
   <g stroke-linejoin="round">
    <g stroke-width="5.625">
     <path d="m470.9 402.9c-35.2 18.2-78.7 27.1-109.1 27.8-42.5 1-77.1-8.4-85.5-34.7"/>
     <path d="m474.3 391.7c.8.1 1.4.2 1.9.5.2.1.3.2.5.3.9.7 1.3 2 .8 4-1 3.9-5.4 6.1-7.5 6.9-4.3 1.6-7.6-2-5.1-5.9 1.6-2.4 4.2-5.1 7.4-5.7.2 0 .4-.1.7-.1s.5-.1.8-.1c.6 0 1.2.1 1.9.3"/>
     <path d="m467.1 404c13.8 9 128.7-86.9 143.8-102 24-24 38-53.8 34.1-64-5.5-14.4-40.2 8.9-87.4 86.8-66.8 115.3-38.6 122.7 2.1 88.6 1.7-1.4 21.8-19.9 29.7-28.6"/>
    </g>
    <g stroke-width="5.624959">
     <path d="m589.4 384.8c10.9-10.9 39.3-48.5 39.3-48.5l33.3 47.8"/>
     <path d="m628.7 336.3 23.9 47.9"/>
     <path d="m638.1 336.3 23.8 47.8"/>
     <path d="m634.2 336.2 23.9 48"/>
    </g>
   </g>
   <path d="m629.1 335.3h8.9" stroke-width="3.749973"/>
   <path d="m652.5 385.1h9" stroke-width="3.749973"/>
   <path d="m662.5 384.1c17-7.9 63.5-35.4 84.3-36.4 19.8-.8 24.9 38.4 38.5 38.1 8.9-.2 15.3-9.4 20.8-16" stroke-linejoin="round" stroke-width="5.625"/>
  </g>
 </g>
</svg>
