<svg height="210mm" viewBox="0 0 1052.4 744.1" width="297mm" xmlns="http://www.w3.org/2000/svg">
 <g fill="none" stroke-linecap="round">
  <g transform="translate(0 -308.26772)">
   <path d="m57.6 742.2h948.8" stroke="#969696" stroke-width="1.875"/>
   <g stroke="#000" stroke-dasharray="3.75 7.5" stroke-miterlimit="2" stroke-width=".9375">
    <path d="m58.3 844.1h948.8"/>
    <path d="m58.3 641.8h948.8"/>
    <path d="m58.3 540.6h948.8"/>
   </g>
  </g>
  <g stroke="#000" stroke-width="5.625">
   <g stroke-linejoin="round">
    <path d="m391 337.5c-56.6 14.8-104.6 143.3-14.6 74.3"/>
    <path d="m376.4 411.8c18.8-15.6 57.7-61.6 79.8-89.4"/>
    <path d="m456.2 322.4c29.8-40.7 44.8-47.4 53.4-30.4 6.5 12.7 4 18.2 12.3 27.2 15.9 17.3 43.8-27.8 34.5-34.3-6.3-4.4-25.9 3.2-49.4 42-28.2 46.1-21.9 57.2-5.8 52.7 3.9-1.1 16.2-10.4 24.8-17.2"/>
    <ellipse cx="312.1944" cy="759.52856" rx="25.728558" ry="20.371416" transform="matrix(.79083574 -.61202846 .61202846 .79083574 0 0)"/>
   </g>
   <path d="m734.9 359.3-32.6 32.1"/>
   <g stroke-linejoin="round">
    <path d="m578 410.1 135.5-22.8"/>
    <path d="m578 410.1c-7.4 1.3-61 6.8-59 16.2.1 3 3.3 4.9 5.6 4.9 3 0 11-4.3 12.4-5.2 28.8-18.1 57.2-92.7 32-89.9-10.5 1.2-22.5 5.6-43 26.1"/>
   </g>
  </g>
 </g>
</svg>
