<svg height="210mm" viewBox="0 0 1052.4 744.1" width="297mm" xmlns="http://www.w3.org/2000/svg">
 <g fill="none" stroke-linecap="round">
  <g stroke="#969696" transform="translate(0 -308.26772)">
   <path d="m57.6 742.2h948.8" stroke-width="1.875"/>
   <g stroke-dasharray="3.75 7.5" stroke-miterlimit="2" stroke-width=".9375">
    <path d="m58.3 844.1h948.8"/>
    <path d="m58.3 641.8h948.8"/>
    <path d="m58.3 540.6h948.8"/>
   </g>
  </g>
  <g stroke="#000" stroke-linejoin="round">
   <path d="m313.5 435c-22.9 5.5-106.1 66-97.4 92.3.9 3 16.3 22.9 59.8-38.1 26.9-36.9 54.6-73.4 69.3-116.4 7.7-23 5.5-36.8-7.5-36.3-8.1.3-20.4 7.4-36.9 24.8" stroke-width="5.624999"/>
   <path d="m313.5 435c8.3-2.6 24-4.7 69.5-11.9 71.5-11.4 171-22.7 171-22.7" stroke-width="5.625"/>
   <path d="m553.9 400.4c26.7-2.1 29.5 32.5 49.6 31.1" stroke-width="5.625"/>
   <path d="m603.5 431.5c29.3 1.2 67.4-95.8 96.1-95.7 5.4 0 9.4 2.3 12.6 8.6 6.5 12.7 4 18.2 12.3 27.2 15.9 17.3 43.8-27.8 34.5-34.3-6.3-4.4-25.9 3.2-49.4 42-20.1 35.4-19.6 51.8-4.6 52.3" stroke-width="5.624999"/>
   <path d="m705.1 431.6c28.8.7 59.7-43.1 87.6-75.3 7.3-8.4 17.5-17.9 32-19.7 3.3-.4 6.4-.1 9 .9 2.8 1 5 2.6 6.6 4.7 3.7 5.2 3.1 13.5-5.1 23.4-24.4 29.4-45.3 43.1-38 58.6 2.6 5.6 9 8.2 16.3 7.4 11.8-1.4 20.1-7.7 27.8-15" stroke-width="5.625003"/>
  </g>
 </g>
</svg>
