<svg height="210mm" viewBox="0 0 1052.4 744.1" width="297mm" xmlns="http://www.w3.org/2000/svg">
 <g fill="none" stroke-linecap="round">
  <g transform="translate(0 -308.26772)">
   <path d="m57.6 742.2h948.8" stroke="#969696" stroke-width="1.875"/>
   <g stroke="#000" stroke-dasharray="3.75 7.5" stroke-miterlimit="2" stroke-width=".9375">
    <path d="m58.3 844.1h948.8"/>
    <path d="m58.3 641.8h948.8"/>
    <path d="m58.3 540.6h948.8"/>
   </g>
  </g>
  <g stroke="#000" stroke-linejoin="round">
   <g stroke-width="5.625">
    <path d="m355.5 421.9c58.1-57.5 103-44.2 89.9 9.7"/>
    <path d="m445.4 431.6s64-32.6 81.3-29.4c13.3 2.5 7.4 27.9 22.6 29.5 4.4.5 10.4-1.6 18.7-7.9"/>
    <path d="m247.6 421.6s46-30.5 63.2-26.5c17.1 3.9 15.9 56.4 45.4 26.3"/>
   </g>
   <path d="m292.6 398.1c5.4-2.9 18.5-.8 26.4 20.2 5.6 15 13.9 11.6 20.4 12.1" stroke-width="6.200544"/>
   <path d="m307.1 397.7c6.6 7.2 6.3.6 21 28.2" stroke-width="6.200544"/>
   <g stroke-width="5.625">
    <path d="m133.3 533.1c86.6-171.8 110.1-190.4 91.6-197.9-20.2-1.9-45.4 87.6-12.8 96.1 11 1.8 17.4.3 35.5-10"/>
    <path d="m604.7 463c-27.3 29.7-43.3 58.6-32 68.1 11 9.2 69.5-28.4 95.8-138.9 17.5-80 53.4-142.9 90.7-155.8"/>
    <path d="m604.7 463c37.1-34 265.4-291.5 298.8-288.9"/>
    <path d="m903.5 174.1c39.4-7.1-55.5 176.3-108.5 198"/>
    <path d="m567.9 423.9c15.5-7.8 154.9-160.7 163.9-169.6"/>
   </g>
  </g>
 </g>
</svg>
