<svg height="210mm" viewBox="0 0 1052.4 744.1" width="297mm" xmlns="http://www.w3.org/2000/svg">
 <g fill="none" stroke-linecap="round">
  <g transform="translate(0 -308.26772)">
   <path d="m57.6 742.2h948.8" stroke="#969696" stroke-width="1.875"/>
   <g stroke="#000" stroke-dasharray="3.75 7.5" stroke-miterlimit="2" stroke-width=".9375">
    <path d="m58.3 844.1h948.8"/>
    <path d="m58.3 641.8h948.8"/>
    <path d="m58.3 540.6h948.8"/>
   </g>
  </g>
  <g stroke="#000" stroke-width="5.625">
   <path d="m432.7 431s91.4-129.5 101.7-139.9c7.6-7.7 15.2-12.9 24-14.8 10.7-2.7 14.3.7 18.7 3.2 7.6 4.3 8 17.2-6 41.5l-29.8 52.1" stroke-linejoin="round"/>
   <path d="m346 397.8 29.6-15.9-23.5 49 180.4-197.4" stroke-linejoin="round"/>
   <path d="m532.6 233.5-99.9 197.5"/>
   <path d="m759 180s-85.8 166.9-97.1 175.5"/>
   <g stroke-linejoin="round">
    <path d="m541.4 373s24.9-21.1 30.8-24.7c10.8-6.8 26.8-15.9 33.1-11 6.1 4.7 8 33.9 20.2 36.1 4.7.8 9.6-.1 14.3-2 7.9-3.2 17.8-10.7 22.1-15.7"/>
    <path d="m593.5 337.1c11.6-4.7 13.4 6.8 14.9 23.4 1 10.8 7.8 13.7 20.1 13.3"/>
    <path d="m593.5 337.1c5.4-2.4 19-3.6 22.7 15 2.6 13.3 5.7 21.2 12.3 21.6"/>
    <path d="m605.6 339.8c6.8 12.3 1 30.9 15.5 31.8"/>
   </g>
  </g>
 </g>
</svg>
