<svg height="210mm" viewBox="0 0 1052.4 744.1" width="297mm" xmlns="http://www.w3.org/2000/svg">
 <g fill="none" stroke-linecap="round">
  <g transform="translate(0 -308.26772)">
   <path d="m57.6 742.2h948.8" stroke="#969696" stroke-width="1.875"/>
   <g stroke="#000" stroke-dasharray="3.75 7.5" stroke-miterlimit="2" stroke-width=".9375">
    <path d="m58.3 844.1h948.8"/>
    <path d="m58.3 641.8h948.8"/>
    <path d="m58.3 540.6h948.8"/>
   </g>
  </g>
  <g stroke="#000" stroke-linejoin="round" stroke-width="5.625">
   <path d="m409.5 335.2c54.3-11 95.5-79.5 89.2-96.2-5.5-14.4-40.3 8.9-87.4 86.8-48.8 84.3-46.9 110.9-26.4 105.8 8.7-2.2 33.5-10 55.2-21.2"/>
   <path d="m547.7 415.6 99-181.2 22 48.5"/>
   <ellipse cx="284.47113" cy="602.44385" rx="25.728558" ry="20.371416" transform="matrix(.89236516 -.45131411 .45131411 .89236516 0 0)"/>
   <path d="m440 410.4c9.6-5.1 20.1-8.9 31.8-9.2 23.3-1.3 24.5 29.9 47.3 29.5"/>
  </g>
 </g>
</svg>
