<svg height="210mm" viewBox="0 0 1052.4 744.1" width="297mm" xmlns="http://www.w3.org/2000/svg">
 <g fill="none" stroke-linecap="round">
  <g transform="translate(0 -308.26772)">
   <path d="m57.6 742.2h948.8" stroke="#969696" stroke-width="1.875"/>
   <g stroke="#000" stroke-dasharray="3.75 7.5" stroke-miterlimit="2" stroke-width=".9375">
    <path d="m58.3 844.1h948.8"/>
    <path d="m58.3 641.8h948.8"/>
    <path d="m58.3 540.6h948.8"/>
   </g>
  </g>
  <g stroke="#000" stroke-linejoin="round" stroke-width="5.625">
   <path d="m368.3 335.6-42.4 73.1c-11.9 20.5 8.4 28.3 31.3 14.4"/>
   <path d="m357.4 422.9c23.6-12.6 66.8-35.6 71-38.2 13.5-8.2 43-27.1 37.6-45.2-2.8-7.4-35.3-8.8-59.6 31.3-26.8 43.9-18 61.5-4.3 59.7 15.5-.9 30.5-13.3 44.2-24.9"/>
   <path d="m521.3 312c17.8-19.4 28.6-22.5 40.2-23.1 16.3-.8 31.2 10.9 30.9 49.1-.4 52 30 54.8 50.4 40.8"/>
   <path d="m446.4 405.6c11.8-11.6 55-70.6 74.9-93.6"/>
   <path d="m642.8 378.8c16.1-10.4 52.1-42.9 52.1-42.9"/>
   <path d="m694.9 335.9c29.7-29.8 48.1-42.8 52.5-45 3-1.5 5.7-2.7 8.2-3.7 71.8-27.4-41.9 162.3-91.2 194.8"/>
  </g>
 </g>
</svg>
