<svg height="210mm" viewBox="0 0 1052.4 744.1" width="297mm" xmlns="http://www.w3.org/2000/svg">
 <g fill="none" stroke-linecap="round">
  <g transform="translate(0 -308.26772)">
   <path d="m57.6 742.2h948.8" stroke="#969696" stroke-width="1.875"/>
   <g stroke="#000" stroke-dasharray="3.75 7.5" stroke-miterlimit="2" stroke-width=".9375">
    <path d="m58.3 844.1h948.8"/>
    <path d="m58.3 641.8h948.8"/>
    <path d="m58.3 540.6h948.8"/>
   </g>
  </g>
  <g stroke="#000" stroke-linejoin="round">
   <path d="m425.4 431.3c4.9-1 9.7-4.3 11-5 38.7-22.3 61.1-90.2 37.9-90.6-10-.2-19.6 7.2-28.8 16.1-6 5.8-13.1 13.8-19.7 21.3" stroke-width="5.625002"/>
   <ellipse cx="610.77051" cy="-104.23315" rx="4.609393" ry="6.862875" stroke-width="5.625" transform="matrix(.72846687 .68508103 -.68508103 .72846687 0 0)"/>
   <path d="m425.4 431.3s91.3-80.9 94.6-86" stroke-width="5.625"/>
   <path d="m518.8 346.6c74.5-55.8 191.4-149.9 156.5-164.1-14.2-5.8-42.6 13.6-89.8 91.6-35.8 61.9-41.8 91.6-33.5 101.2.6.7 1.3 1.4 2.1 1.9 20 8.2 71.6-19.8 91.7-40.2" stroke-width="5.624959"/>
  </g>
 </g>
</svg>
