<svg height="210mm" viewBox="0 0 1052.4 744.1" width="297mm" xmlns="http://www.w3.org/2000/svg">
 <g fill="none" stroke-linecap="round">
  <g transform="translate(0 -308.26772)">
   <path d="m57.6 742.2h948.8" stroke="#969696" stroke-width="1.875"/>
   <g stroke="#000" stroke-dasharray="3.75 7.5" stroke-miterlimit="2" stroke-width=".9375">
    <path d="m58.3 844.1h948.8"/>
    <path d="m58.3 641.8h948.8"/>
    <path d="m58.3 540.6h948.8"/>
   </g>
  </g>
  <g stroke="#000" stroke-linejoin="round" stroke-width="5.625">
   <path d="m467.5 360.5c9.3-12.6 18-18.1 26.2-21.7 24.8-6.9 35 2.5 12.3 40.5l-29.8 52.1"/>
   <path d="m476.1 431.5s52.8-33 67.9-36.8"/>
   <path d="m544.1 394.7c19.6-5.3 38 3 20.4 24.8-27.4 33.8-47.2 52.6-39.4 63.9 3.2 4.7 8.7 6.2 15.1 5.4 11.5-1.3 25.9-10 34.7-20.3 6.6-7.1 53.6-77.1 53.6-77.1"/>
  </g>
 </g>
</svg>
