<svg height="210mm" viewBox="0 0 1052.4 744.1" width="297mm" xmlns="http://www.w3.org/2000/svg">
 <g stroke-linecap="round">
  <g fill="none" transform="translate(0 -308.26772)">
   <path d="m57.6 742.2h948.8" stroke="#969696" stroke-width="1.875"/>
   <g stroke="#000" stroke-dasharray="3.75 7.5" stroke-miterlimit="2" stroke-width=".9375">
    <path d="m58.3 844.1h948.8"/>
    <path d="m58.3 641.8h948.8"/>
    <path d="m58.3 540.6h948.8"/>
   </g>
  </g>
  <g stroke="#000" stroke-linejoin="round">
   <g fill="none">
    <path d="m588.8 386.6 25.8 44.1 71-43.6" stroke-width="5.625"/>
    <path d="m685.6 387.1-54.7 96.5 84.1-33.6" stroke-width="5.625"/>
    <path d="m588.8 386.6c-20.6 29.9-29.8 39.6-42.5 42.9" stroke-width="6.5625"/>
   </g>
   <g fill="#eb0000" fill-rule="evenodd" transform="matrix(1.7715894 0 0 1.7715894 -987.25562 75.932858)">
    <path d="m732.1 185.5c.8.1 1.4.2 1.9.5.2.1.3.2.5.3.9.7 1.3 2 .8 4-1 3.9-5.4 6.1-7.5 6.9-4.3 1.6-7.6-2-5.1-5.9 1.6-2.4 4.2-5.1 7.4-5.7.2 0 .4-.1.7-.1h.8c.6 0 1.2.1 1.9.3" stroke-width="5.625"/>
    <path d="m729.3 188.3c.3 0 .6.1.9.2.1 0 .2.1.2.1.4.3.6.9.4 1.8-.4 1.7-2.4 2.8-3.3 3.1-1.9.7-3.4-.9-2.3-2.6.7-1.1 1.9-2.3 3.3-2.6h.3.4c.3 0 .6 0 .8.1" stroke-width="4.981044"/>
   </g>
   <g fill="none">
    <path d="m295.9 429c23.3 8.3 30.2-5.1 45.7-22.9 14.4-16.5 23.2-22.4 45.7-26.6 28.5-5.3 47.3 12.9 35.8 51.6" stroke-width="5.625"/>
    <path d="m423.2 431.1c48.5-32.6 71.7-36.4 82.8-36.1 13.7.4 15.7 39.1 40.3 34.5" stroke-width="6.509767"/>
    <path d="m484.8 398.4c7.5-1.8 19.5-3.9 27.4 19.2 5.6 16.4 22.4 12.2 29.3 12.3" stroke-width="6.509767"/>
    <path d="m505.4 397.9c0 .2 15.1 23.4 17.6 27.4" stroke-width="9.764649"/>
    <path d="m296.1 335.5-35.7 66c-12.6 36.4 26.8 31.7 43.5 25.9" stroke-width="5.625"/>
   </g>
  </g>
 </g>
</svg>
