<svg height="210mm" viewBox="0 0 1052.4 744.1" width="297mm" xmlns="http://www.w3.org/2000/svg">
 <g fill="none" stroke-linecap="round">
  <g transform="translate(0 -308.26772)">
   <path d="m57.6 742.2h948.8" stroke="#969696" stroke-width="1.875"/>
   <g stroke="#000" stroke-dasharray="3.75 7.5" stroke-miterlimit="2" stroke-width=".9375">
    <path d="m58.3 844.1h948.8"/>
    <path d="m58.3 641.8h948.8"/>
    <path d="m58.3 540.6h948.8"/>
   </g>
  </g>
  <path d="m480.1 434.9c11.6-3.7 23.1-1.8 35.8-3.6" stroke="#000" stroke-width="5.625"/>
  <g stroke-linejoin="round">
   <path d="m453.9 431.1c16.5-2.2 24.7-1.8 29.9 4.3" stroke="#0a0a0a" stroke-width="5.625"/>
   <g stroke="#000">
    <path d="m453.9 431.1c-31.2 2.5-116.1 66.6-105.1 94.6 2.9 7.4 16.3 22.9 59.8-38.1 26.9-36.9 54.6-73.4 69.3-116.4 7.9-20 5.5-36.8-7.5-36.3-8.1.3-20.4 7.4-36.9 24.8" stroke-width="5.624999"/>
    <g stroke-width="5.625">
     <ellipse cx="651.32361" cy="-7.246855" rx="4.609393" ry="6.862875" transform="matrix(.72846687 .68508103 -.68508103 .72846687 0 0)"/>
     <path d="m515.8 431.4c45.7-6.8 55.9-32.8 52.9-41.7-3.2-9.6-26.7-7-51.4 33.8-26.7 43.6-23.4 56.6-10.9 56.6 35.7.1 62.8-30.8 83.6-30.9 16-.6 16.9 30.6 30.7 30.7 7.8.1 14.7-6.4 19.4-11.5"/>
    </g>
   </g>
  </g>
 </g>
</svg>
