<svg height="210mm" viewBox="0 0 1052.4 744.1" width="297mm" xmlns="http://www.w3.org/2000/svg">
 <g stroke-linecap="round">
  <g fill="none" transform="translate(0 -308.26772)">
   <path d="m14.4 742.2h1020.1" stroke="#969696" stroke-width="1.875"/>
   <g stroke="#000" stroke-dasharray="3.75 7.5" stroke-miterlimit="2" stroke-width=".9375">
    <path d="m15.2 844.1h1020.1"/>
    <path d="m15.2 641.8h1020.1"/>
    <path d="m15.2 540.6h1020.1"/>
   </g>
  </g>
  <g stroke="#000">
   <g fill="none">
    <g stroke-width="5.625">
     <path d="m439.4 430.4c6.3.1 12.4 1.4 22.7-6.2 3.7-2.7 7.9-7.6 7.9-7.6l4.7-6.3c16.7-24.5 58.4-97.9 69-111.2 7.3-9.6 15.9-14 25.2-16 10.7-2.7 14.5-.4 18.7 3.2 6.6 5.6 4.3 15.4-6 41.5l-20.5 52.1" stroke-linejoin="round"/>
     <path d="m444.3 416.8c.9.1 1.6.3 2.2.6.2.1.4.2.6.3 1.1.8 1.5 2.3.9 4.6-1.2 4.5-6.2 7-8.6 7.9-5 1.8-8.7-2.3-5.8-6.7 1.8-2.8 4.9-5.8 8.5-6.6.2 0 .5-.1.7-.1.3 0 .6-.1.9-.1.7 0 1.4.1 2.1.3" stroke-linejoin="round"/>
     <path d="m678.7 184.3-117.5 195.7"/>
     <g stroke-linejoin="round">
      <path d="m53.6 335.4c-8.1 16.2-20.9 44.8-33.6 73-11.3 26.6 7.1 26.5 27.1 17.9 6.3-3.1 22.2-8.9 40-18.4"/>
      <path d="m87 407.9c23.8-13.4 56.6-24.6 77-42.1 12.8-11.2 14-19.6 12.2-24.4-2.8-7.3-34.7-8.6-58.5 30.7-26.3 43.1-17.7 60.3-4.2 58.6 9.2-1.4 15.1-5.1 15.1-5.1 3.5-2.4 6.5-4.7 9.1-6.9"/>
     </g>
    </g>
    <path d="m156.4 342.6c-30.3 19.2-39.8 50.5-52.2 79" stroke-width="4.6875"/>
    <path d="m149.4 342.6c-17.9 10.4-41.1 45.1-46.5 68.6" stroke-width="4.6875"/>
    <path d="m110 410.2c-4 10.7-6.4 18.8 3.6 20.4" stroke-width="2.8125"/>
    <path d="m170.8 339.4c-7.4-2.4-11 2.2-15.8 5.2" stroke-width="2.8125"/>
    <path d="m145.9 347.4c-28 20.5-28.9 42.2-43.4 69.6" stroke-width="4.6875"/>
    <g stroke-linejoin="round">
     <path d="m665.7 398.5 33.9-16-27.4 48.9 33.8-15.1" stroke-width="5.625"/>
     <path d="m924.3 431.5s17.5-34.9 42.1-31.6c22.9 3 24.7 50.7 52.8 22.4" stroke-width="5.097275"/>
     <g stroke-width="5.625">
      <path d="m827 336.2c-13.9 25.5-28.8 50.5-43.4 75.7-8.2 14.2-5 21.9 7.3 18.6 21.7-9.5 43.3-25.7 61.9-36.4"/>
      <path d="m839.1 422.3c-4 1.9-5.8 5.9-5.5 6.7.4 1.2 1.4 2.6 4.6 2.4 13-.9 31.2-11.9 33.1-28.5 1.8-15.4-7.7-21.8-7.6-31.3.1-13.5 11-27.7 27.5-33.9 16.2-6 15.9 14.1.8 30.3-6.3 6.7-24.9 18-39.2 26"/>
      <path d="m866.6 359.6c-2.6 10.1.8 16.1 4.3 24.8 2.8 7 5.7 20.5.6 29.3s-22.7 15.2-22.7 15.2"/>
      <path d="m872.9 349.9c-9.2 10.8-13.7 21.7-8.1 34.1 4.8 10.1 8 19.3 2.7 28.2s-24.3 18.5-24.3 18.5"/>
     </g>
    </g>
    <path d="m836.4 430c1 0 1.9-.1 2.9-.3 4.6-.8 8.8-3.4 10.1-4.2" stroke-width="2.8125"/>
    <g stroke-linejoin="round" stroke-width="5.625">
     <path d="m838.6 422.2s2.7-2 12.2-7.5 40.4-25.4 40.4-25.4l33.1 42.2"/>
     <ellipse cx="-74.348091" cy="458.93713" rx="25.728558" ry="20.371416" transform="matrix(.79083574 -.61202846 .61202846 .79083574 0 0)"/>
     <path d="m296 384.9-67.5.7"/>
    </g>
   </g>
   <g stroke-linejoin="round">
    <g fill="#eb0000" fill-rule="evenodd" transform="matrix(1.5385122 0 0 1.5385122 -829.80321 101.1978)">
     <path d="m732.1 185.5c.8.1 1.4.2 1.9.5.2.1.3.2.5.3.9.7 1.3 2 .8 4-1 3.9-5.4 6.1-7.5 6.9-4.3 1.6-7.6-2-5.1-5.9 1.6-2.4 4.2-5.1 7.4-5.7.2 0 .4-.1.7-.1h.8c.6 0 1.2.1 1.9.3" stroke-width="5.625"/>
     <path d="m729.3 188.3c.3 0 .6.1.9.2.1 0 .2.1.2.1.4.3.6.9.4 1.8-.4 1.7-2.4 2.8-3.3 3.1-1.9.7-3.4-.9-2.3-2.6.7-1.1 1.9-2.3 3.3-2.6h.3.4c.3 0 .6 0 .8.1" stroke-width="4.981044"/>
    </g>
    <g fill="none" stroke-width="5.625">
     <path d="m281.4 394.7c19-26 32.3-40.8 41.4-48 8.5-6.7 17.4-10.6 24.3-10.7 13 0 18.9 13 1 43.2l-31.1 52.5"/>
     <path d="m329 483.1c16.8-.5 33-21.3 35-47.2 2.1-26.8 47-54.4 36.3-48.7l-83.1 44.5"/>
     <path d="m383.7 402.3c-18.7 24.9-13 28.9-16.8 41.1-3.5 11.7-12.1 25.9-24.2 34.7"/>
     <path d="m380.9 405.4c-7.6 7.8-16.9 18.3-21 32.6-4.1 14.4-5.5 33.4-22.5 43.1"/>
    </g>
   </g>
  </g>
 </g>
</svg>
