<svg height="210mm" viewBox="0 0 1052.4 744.1" width="297mm" xmlns="http://www.w3.org/2000/svg">
 <g fill="none" stroke-linecap="round">
  <g transform="translate(0 -308.26772)">
   <path d="m57.6 742.2h948.8" stroke="#969696" stroke-width="1.875"/>
   <g stroke="#000" stroke-dasharray="3.75 7.5" stroke-miterlimit="2" stroke-width=".9375">
    <path d="m58.3 844.1h948.8"/>
    <path d="m58.3 641.8h948.8"/>
    <path d="m58.3 540.6h948.8"/>
   </g>
  </g>
  <path d="m714.3 383.1 20 47.9" stroke="#060000" stroke-linejoin="round" stroke-width="5.625"/>
  <g stroke="#000">
   <path d="m734.4 431 70.6-73" stroke-linejoin="round" stroke-width="5.625"/>
   <ellipse cx="564.58655" cy="737.31342" rx="62.130169" ry="44.633743" stroke-linejoin="round" stroke-width="5.625" transform="matrix(.88109295 -.47294313 .47294313 .88109295 0 0)"/>
   <path d="m902.9 360.7c-13.8 27.9-38.1 52.4-66.8 70.7" stroke-width="5.385754"/>
   <path d="m904.1 369.7c-15.9 21.3-33.1 41.5-54 58.5" stroke-width="5.385754"/>
   <path d="m903.1 376.1c-14.3 21.6-19.7 29.6-41.7 46.5" stroke-width="7.181006"/>
   <path d="m851.7 419.3c-10.1 9.6-24.3 12.2-31.1 10.7" stroke-width="3.590503"/>
   <path d="m894.8 346.8c2.2 2.5 8.7 12.2 1.3 24.5" stroke-width="3.590503"/>
   <g stroke-linejoin="round" stroke-width="5.625">
    <path d="m816.2 348.5 108.2-56.3"/>
    <path d="m391.8 398.5 93.3-162.9"/>
    <ellipse cx="73.943237" cy="574.37207" rx="25.728558" ry="20.371416" transform="matrix(.79083574 -.61202846 .61202846 .79083574 0 0)"/>
    <path d="m407.7 387.6-206.1 43.7"/>
    <path d="m541.5 217.7 114.5-108.8"/>
    <path d="m656 108.9c1.6-1.6 3.2-3 4.8-4.4 35.8-31.5 49-6.7 34.7 21-14.7 43-42.4 79.5-69.3 116.4-43.5 61-58.9 41.1-59.8 38.1-2.3-7.3 5.5-36.8 38-60 24.1-18.7 67.6-40.8 87.8-50.5 2-.9 44.3-20.8 45.8-21.5"/>
    <path d="m541.5 217.7c-27.5 29.8-76.6 92-56.3 18"/>
    <path d="m110.7 387.1-23.6 45.3"/>
   </g>
  </g>
 </g>
</svg>
