<svg height="210mm" viewBox="0 0 1052.4 744.1" width="297mm" xmlns="http://www.w3.org/2000/svg">
 <g fill="none" stroke-linecap="round">
  <g transform="translate(0 -308.26772)">
   <path d="m57.6 742.2h948.8" stroke="#969696" stroke-width="1.875"/>
   <g stroke="#000" stroke-dasharray="3.75 7.5" stroke-miterlimit="2" stroke-width=".9375">
    <path d="m58.3 844.1h948.8"/>
    <path d="m58.3 641.8h948.8"/>
    <path d="m58.3 540.6h948.8"/>
   </g>
  </g>
  <g stroke="#000" stroke-linejoin="round" stroke-width="5.625">
   <path d="m426.6 394.4 104.2-130"/>
   <ellipse cx="99.432663" cy="593.6239" rx="25.728558" ry="20.371416" transform="matrix(.79083574 -.61202846 .61202846 .79083574 0 0)"/>
   <path d="m530.8 264.4c24.9-31.2 39.4-51.4 60.6-68.2 51.1-40 27.3 33.2-11.4 98.9-24.1 39.8-54.2 77.7-77.3 87.7-20.9-.4 84-47.1 84-47.1l18.1 42"/>
   <path d="m604.8 377.7s19-31.2 41.4-32.1c27.8-.3 23.4 31 39.5 32.9 7.5.2 11.7-4.3 21.4-14.9"/>
  </g>
 </g>
</svg>
