<svg height="210mm" viewBox="0 0 1052.4 744.1" width="297mm" xmlns="http://www.w3.org/2000/svg">
 <g stroke-linecap="round">
  <g fill="none">
   <g transform="translate(0 -308.26772)">
    <path d="m57.6 742.2h948.8" stroke="#969696" stroke-width="1.875"/>
    <g stroke="#000" stroke-dasharray="3.75 7.5" stroke-miterlimit="2" stroke-width=".9375">
     <path d="m58.3 844.1h948.8"/>
     <path d="m58.3 641.8h948.8"/>
     <path d="m58.3 540.6h948.8"/>
    </g>
   </g>
   <g stroke="#000" stroke-linejoin="round" stroke-width="5.625">
    <path d="m585.6 336.8c-42.8 11.2-83.1 84.8-58.6 93 6.7 2.2 71.3 7 93.6-11.1"/>
    <path d="m620.7 418.7c23.1-12.3 55.4-31.4 59.6-33.9 7.2-4.5 15.1-9 20.2-13.4 12.8-11.2 18.6-26.1 16.7-30.9-2.8-7.3-34.7-8.6-58.5 30.7-26.3 43.1-18.8 59.4-2.7 59.3 5.3-.6 10.7-2.2 15.8-4.4"/>
   </g>
  </g>
  <g fill="#eb0000" fill-rule="evenodd" stroke="#000" stroke-linejoin="round" transform="matrix(1.7715894 0 0 1.7715894 -694.1317 76.668533)">
   <path d="m732.1 185.5c.8.1 1.4.2 1.9.5.2.1.3.2.5.3.9.7 1.3 2 .8 4-1 3.9-5.4 6.1-7.5 6.9-4.3 1.6-7.6-2-5.1-5.9 1.6-2.4 4.2-5.1 7.4-5.7.2 0 .4-.1.7-.1h.8c.6 0 1.2.1 1.9.3" stroke-width="5.625"/>
   <path d="m729.3 188.3c.3 0 .6.1.9.2.1 0 .2.1.2.1.4.3.6.9.4 1.8-.4 1.7-2.4 2.8-3.3 3.1-1.9.7-3.4-.9-2.3-2.6.7-1.1 1.9-2.3 3.3-2.6h.3.4c.3 0 .6 0 .8.1" stroke-width="4.981044"/>
  </g>
  <g fill="none">
   <g stroke="#000b00">
    <g stroke-linejoin="round" stroke-width="5.625">
     <path d="m259.9 430.7c10.6-12.1 23.1-29.4 40-30.3 16-.6 21.6 31 32.6 30.7 7.2-.2 13.9-2.7 32.5-12.4"/>
     <path d="m462.3 410.7c1 .1 1.8.3 2.5.7.2.1.4.2.6.4 1.2.9 1.7 2.6 1 5.2-1.3 5.1-7.1 8-9.8 9-5.7 2-9.8-2.6-6.6-7.6 2-3.1 5.5-6.6 9.7-7.5.3-.1.6-.1.9-.1s.7-.1 1-.1c.8 0 1.6.1 2.4.3"/>
     <path d="m365 418.7s61.8-30.2 67.5-33.7c7.2-4.5 15.1-9 20.2-13.4 12.8-11.2 18.6-26.1 16.7-30.9-2.8-7.3-34.7-8.6-58.5 30.7-26.3 43.1-16 57.3-4.2 58.6 5.3.3 30.6 3.2 51-4.3"/>
    </g>
    <path d="m449.6 341.9c-30.3 19.2-39.8 50.5-52.2 79" stroke-width="4.6875"/>
    <path d="m442.5 341.9c-17.9 10.4-41.1 45.1-46.5 68.6" stroke-width="4.6875"/>
    <path d="m403.1 409.5c-4 10.7-6.4 18.8 3.6 20.4" stroke-width="2.8125"/>
    <path d="m464 338.7c-7.4-2.4-11 2.2-15.8 5.2" stroke-width="2.8125"/>
    <path d="m439.1 346.7c-28 20.5-28.9 42.2-43.4 69.6" stroke-width="4.6875"/>
   </g>
   <path d="m561.6 349-99.7 74.2" stroke="#000" stroke-linejoin="round" stroke-width="5.625"/>
  </g>
 </g>
</svg>
