<svg height="210mm" viewBox="0 0 1052.4 744.1" width="297mm" xmlns="http://www.w3.org/2000/svg">
 <g fill="none" stroke-linecap="round">
  <g transform="translate(0 -308.26772)">
   <path d="m57.6 742.2h948.8" stroke="#969696" stroke-width="1.875"/>
   <g stroke="#000" stroke-dasharray="3.75 7.5" stroke-miterlimit="2" stroke-width=".9375">
    <path d="m58.3 844.1h948.8"/>
    <path d="m58.3 641.8h948.8"/>
    <path d="m58.3 540.6h948.8"/>
   </g>
  </g>
  <g stroke="#000" stroke-linejoin="round">
   <path d="m566.3 416.7c-13.7.3-43.3 3-46.9 11.3-1.2 3.6 2.1 3.8 3.8 3.7 3 0 9.7-4.2 11-5 10.7-6.1 20.2-15.8 27.8-26.6 20.4-28.9 27.3-65.7 8.6-63.5-7.1.8-18.6 6.4-32.8 21.7-5.7 6.2-46.1 64.4-50.6 72.5" stroke-width="5.419139"/>
   <g stroke-width="5.625">
    <path d="m566.3 416.7c11.5-.6 26.4 2.7 23.4 10.1-.1.2 0 .4-.1.7-.3 1.4-1.1 2.5-2.8 3.3-3.3 1.6-6.9-.7-8.2-2.2-3.1-1.2 1.5-11.9 2.2-10.4 1.2 2.7 0 0 8 4.5.2.1.2.4.3.6s.3.7.4 1c.2.6.2 1 .3 1.7"/>
    <path d="m664.8 295.8a5.5 1.8 0 0 1 -5.5 1.8 5.5 1.8 0 0 1 -5.5-1.8 5.5 1.8 0 0 1 5.4-1.8 5.5 1.8 0 0 1 5.5 1.8h-5.5z" transform="matrix(.97846633 .20640647 -.20640647 .97846633 0 0)"/>
   </g>
  </g>
 </g>
</svg>
