<svg height="210mm" viewBox="0 0 1052.4 744.1" width="297mm" xmlns="http://www.w3.org/2000/svg">
 <g fill="none" stroke-linecap="round">
  <g transform="translate(0 -308.26772)">
   <path d="m57.6 742.2h948.8" stroke="#969696" stroke-width="1.875"/>
   <g stroke="#000" stroke-dasharray="3.75 7.5" stroke-miterlimit="2" stroke-width=".9375">
    <path d="m58.3 844.1h948.8"/>
    <path d="m58.3 641.8h948.8"/>
    <path d="m58.3 540.6h948.8"/>
   </g>
  </g>
  <g stroke="#000" stroke-linejoin="round" stroke-width="5.625">
   <path d="m423.7 332.9c54.3-11 97.7-78.3 91.4-95-5.5-14.4-40.3 8.9-87.4 86.8-44.1 76.2-43.7 106-28 106.4 27.1.7 63.1-52.3 87.9-85.9 12.4-16.8 39-61 53.3-63.2 5.4-.7 9.4 2.3 12.6 8.6 6.5 12.7 4 18.2 12.3 27.2 15.9 17.3 43.8-27.8 34.5-34.3-6.3-4.4-25.9 3.2-49.4 42-20.1 35.4-19.6 51.8-4.6 52.3 31.2 1.1 66.1-27.7 88.6-41.4"/>
   <path d="m634.8 336.3 20.5 41.6"/>
  </g>
 </g>
</svg>
