<svg height="210mm" viewBox="0 0 1052.4 744.1" width="297mm" xmlns="http://www.w3.org/2000/svg">
 <g fill="none" stroke-linecap="round">
  <g transform="translate(0 -308.26772)">
   <path d="m57.6 742.2h948.8" stroke="#969696" stroke-width="1.875"/>
   <g stroke="#000" stroke-dasharray="3.75 7.5" stroke-miterlimit="2" stroke-width=".9375">
    <path d="m58.3 844.1h948.8"/>
    <path d="m58.3 641.8h948.8"/>
    <path d="m58.3 540.6h948.8"/>
   </g>
  </g>
  <g stroke-linejoin="round">
   <g stroke-width="5.625">
    <path d="m482.1 428.5c-26.4-8.6-25.6-36.7 4.8-42.3 32.9.1 27.2 44.6-14.4 44.1h-74" stroke="#000"/>
    <path d="m552.9 419.3c-1.8 1.1-26.6 17.8-28.5 19.1-32.5 22-71.6 74.4-63.5 89.5 4.9 9.2 28.4 7.7 48.3-24.3 8.5-13.7 17.7-31 19.9-61.8 5-69.6 41.1-122.1 68-104.4 7.7 5.1-6.1 26.5-25.7 38.5-8.8 5.4-62.2 42.3-77.5 49.6" stroke="#000"/>
    <path d="m552.9 419.3 34.5-22.6" stroke="#00000c"/>
   </g>
   <g stroke="#000" stroke-width="5.624959">
    <path d="m592.9 396.8 28.3 41.1c12.2 16.6 11.9 33 10 43.6-2.5 17.4-5 27-32.9 51.4"/>
    <path d="m587.4 396.8 15.2 21.1c10.6 14.4 12.5 16.7 20.6 31.3 6.8 15 10.3 29.5 3.7 49.8"/>
    <path d="m598.3 396.8s26.7 39.5 28.7 42.6c8 15.7 9.2 26.6 7.4 37.3-2.2 12.3-5.6 22.9-13.8 33.5"/>
   </g>
  </g>
  <path d="m598.3 396.8h-10.9" stroke="#000" stroke-width="5.624959"/>
 </g>
</svg>
