<svg height="210mm" viewBox="0 0 1052.4 744.1" width="297mm" xmlns="http://www.w3.org/2000/svg">
 <g fill="none" stroke-linecap="round">
  <g transform="translate(0 -308.26772)">
   <path d="m57.6 742.2h948.8" stroke="#969696" stroke-width="1.875"/>
   <g stroke="#000" stroke-dasharray="3.75 7.5" stroke-miterlimit="2" stroke-width=".9375">
    <path d="m58.3 844.1h948.8"/>
    <path d="m58.3 641.8h948.8"/>
    <path d="m58.3 540.6h948.8"/>
   </g>
  </g>
  <g stroke="#000" stroke-linejoin="round">
   <path d="m345.8 433.5s251.6-93.9 260.4-95.7c4.3-.9 7.4-1.4 8.9-1.5 2.5-.1 6-.1 8.7.9 2.8 1 5 2.6 6.6 4.7 3.7 5.2 3.1 13.5-5.1 23.4-24.4 29.4-45.3 42.8-38 58.3 2.6 5.6 9.3 7.6 16.3 7.4 20.2-.8 69-28.4 91.9-42.3" stroke-width="5.624999"/>
   <path d="m695.3 388.8-20.8 42.5" stroke-width="5.625"/>
   <path d="m701.6 391.5-20.6 39.7" stroke-width="4.941419"/>
   <path d="m705.8 388.6-20.8 42.5" stroke-width="5.625"/>
   <path d="m697.9 389.5-20.6 39.7" stroke-width="4.941419"/>
   <g stroke-width="5.625">
    <path d="m705.8 388.6-10.5.2"/>
    <path d="m685 431.1-10.5.2"/>
    <path d="m345.8 433.5c-27 16.7-90.2 91.8-63 99 11.2 2.5 33.1-7.6 54.5-66.3 15.7-47.2 16.4-112.8 70.4-130.9"/>
   </g>
  </g>
 </g>
</svg>
