<svg height="210mm" viewBox="0 0 1052.4 744.1" width="297mm" xmlns="http://www.w3.org/2000/svg">
 <g fill="none" stroke-linecap="round">
  <g transform="translate(0 -308.26772)">
   <path d="m57.6 742.2h948.8" stroke="#969696" stroke-width="1.875"/>
   <g stroke="#000" stroke-dasharray="3.75 7.5" stroke-miterlimit="2" stroke-width=".9375">
    <path d="m58.3 844.1h948.8"/>
    <path d="m58.3 641.8h948.8"/>
    <path d="m58.3 540.6h948.8"/>
   </g>
  </g>
  <g stroke="#000">
   <g stroke-linejoin="round" stroke-width="5.625">
    <path d="m427.6 487.1c-13.7 18.6-21.7 35.6-19.7 40.9 1.1 2.9 17.7 21.8 57.3-41.8l86.7-150.7"/>
    <path d="m427.6 487.1c6.6-9 162.5-170.5 204-192.8 8.2-4.4 14.8-7.7 18.8-9.1 24.7-7.1 39.8 1.2 12.9 46.2l-31.2 52.3"/>
    <path d="m674.6 293.5-51.5 89.9"/>
    <path d="m675.1 301.6-48.1 81.6"/>
    <path d="m623.1 383.4 7.9.2"/>
   </g>
   <path d="m665.6 284c6.2.7 9 7.6 4.5 15.4" stroke-width="3.75"/>
   <g stroke-linejoin="round" stroke-width="5.625">
    <path d="m551.9 335.5-109.5 88.5"/>
    <path d="m334.9 431.6s44.6-32.4 61.8-29.2 16 46.2 45.6 21.5"/>
    <path d="m378.4 406.5c5.4-2.4 18.6-2.2 26.5 15 5.6 12.2 13.9 9.5 20.5 9.9"/>
    <path d="m393 404.5c6.7 5.9 6.3.5 21.2 23.1"/>
    <path d="m632.1 383.6c10.2-5.8 20.2-9 25.5-10.4 11.2-3 25.5-3.1 24.1 4.7 0 .2.1.4.1.7 0 1.4-.6 2.7-2.1 3.8-2.9 2.2-6.9.8-8.5-.4-3.3-.5-1-11.9 0-10.6 1.7 2.4 0 0 8.8 2.8.2.1.3.3.4.5.2.2.4.7.6.9.3.5.4.9.7 1.6"/>
    <path d="m681.5 377.9a5.5 1.8 0 0 1 -5.5 1.8 5.5 1.8 0 0 1 -5.5-1.8 5.5 1.8 0 0 1 5.4-1.8 5.5 1.8 0 0 1 5.5 1.8h-5.5z"/>
   </g>
  </g>
 </g>
</svg>
