<svg height="210mm" viewBox="0 0 1052.4 744.1" width="297mm" xmlns="http://www.w3.org/2000/svg">
 <g fill="none" stroke-linecap="round">
  <g transform="translate(0 -308.26772)">
   <path d="m57.6 742.2h948.8" stroke="#969696" stroke-width="1.875"/>
   <g stroke="#000" stroke-dasharray="3.75 7.5" stroke-miterlimit="2" stroke-width=".9375">
    <path d="m58.3 844.1h948.8"/>
    <path d="m58.3 641.8h948.8"/>
    <path d="m58.3 540.6h948.8"/>
   </g>
  </g>
  <g stroke="#000" stroke-linejoin="round">
   <ellipse cx="503.7652" cy="110.8199" rx="4.609393" ry="6.862875" stroke-width="5.625" transform="matrix(.72846687 .68508103 -.68508103 .72846687 0 0)"/>
   <path d="m290.6 431.4c184.5-63 260.9-94.1 285.1-117.6 10.8-10.5 12.4-22 7.9-27-5.4-6-30.7-3.9-55.3 36.8-10.3 16.9-16 29.3-18.3 38.1-3.3 12.8 4.5 18.4 14.6 18.2 40.3-.7 77-95.8 105.7-95.6 5.4 0 9.4 2.3 12.6 8.6 6.5 12.7 4 18.2 12.3 27.2 15.9 17.3 43.8-27.8 34.5-34.3-6.3-4.4-25.9 3.2-49.4 42-20.1 35.4-19.6 51.9-4.6 52.3 5.9.2 14.7-4.5 25.1-10.2" stroke-width="5.624999"/>
  </g>
 </g>
</svg>
