<svg height="210mm" viewBox="0 0 1052.4 744.1" width="297mm" xmlns="http://www.w3.org/2000/svg">
 <g fill="none" stroke-linecap="round" transform="translate(0 -308.26772)">
  <path d="m57.6 742.2h948.8" stroke="#969696" stroke-width="1.875"/>
  <g stroke="#000" stroke-dasharray="3.75 7.5" stroke-miterlimit="2" stroke-width=".9375">
   <path d="m58.3 844.1h948.8"/>
   <path d="m58.3 641.8h948.8"/>
   <path d="m58.3 540.6h948.8"/>
  </g>
 </g>
 <circle cx="524.2561" cy="361.01053" r="10.653955"/>
 <circle cx="508.86646" cy="410.02615" r="10.653955"/>
 <g fill="none" stroke="#000" stroke-linecap="round" stroke-linejoin="round">
  <g stroke-width="5.625">
   <path d="m743.6 336.2-51.4 95"/>
   <path d="m743.6 336.2h-10.6"/>
   <path d="m738.1 336.2-51.4 95"/>
   <path d="m692.2 431.2h-10.6"/>
   <path d="m636.7 431.2 96.3-95-51.4 95 10.5-.1"/>
  </g>
  <path d="m692.2 431.2s35.3-29.9 55.8-49.5c20.9-19.2 43.5-42.6 67.8-45.5 3.3-.4 6.4-.1 9 .9 2.8 1 5 2.6 6.6 4.7 3.7 5.2 3.1 13.5-5.1 23.4-24.4 29.4-44.9 43-37.7 58.6 2.6 5.5 8.9 8.1 16.1 7.3 11.6-1.4 19.8-7.6 27.4-14.8" stroke-width="5.624999"/>
  <g stroke-width="5.625">
   <path d="m206.7 336.1-51.4 95"/>
   <path d="m206.7 336.1h-10.6"/>
   <path d="m201.2 336.1-51.4 95"/>
   <path d="m155.3 431.1h-10.6"/>
   <path d="m99.8 431.1 96.3-95-51.4 95 10.5-.1"/>
  </g>
  <path d="m155.3 431.1c11.9-12.1 42.9-47.5 49.2-54.7 16.2-18.2 31.9-38.4 50-40.3 3.3-.4 6.4-.1 9 .9 2.8 1 5 2.6 6.6 4.7 3.7 5.2 3.1 13.5-5.1 23.4-24.4 29.4-44.9 43-37.7 58.6 2.6 5.6 9 8 16.3 7.4 27.9-2.2 59.4-29.7 77-30.5 16.8-.7 20.9 30.2 34.2 30.4 8.5.1 14.1-6.5 18.3-10.8" stroke-width="5.624999"/>
 </g>
</svg>
