<svg height="210mm" viewBox="0 0 1052.4 744.1" width="297mm" xmlns="http://www.w3.org/2000/svg">
 <g fill="none" stroke-linecap="round">
  <g transform="translate(0 -308.26772)">
   <path d="m57.6 742.2h948.8" stroke="#969696" stroke-width="1.875"/>
   <g stroke="#000" stroke-dasharray="3.75 7.5" stroke-miterlimit="2" stroke-width=".9375">
    <path d="m58.3 844.1h948.8"/>
    <path d="m58.3 641.8h948.8"/>
    <path d="m58.3 540.6h948.8"/>
   </g>
  </g>
  <g stroke="#000">
   <g stroke-width="5.625">
    <g stroke-linejoin="round">
     <ellipse cx="218.72292" cy="687.16168" rx="25.728558" ry="20.371416" transform="matrix(.79083574 -.61202846 .61202846 .79083574 0 0)"/>
     <path d="m791.7 293.5c7.6-4.2 14.9-6.7 21.6-6.8 9.8 1.5 18.9 11.8 8.1 25.6-31.3 40.2-47.6 50.6-39.4 63.9 5.4 8.9 21.2 7.3 36.5-3.7"/>
     <path d="m717.5 300.2c-44.2 28.8-89.2 57.5-135.6 92.5"/>
     <path d="m791.7 293.5c-29.3 20-136.6 104.6-162.2 128.3-30.2 31.6-35.1 56-29.6 65.9 2.9 5.3 34.7 12.4 62.3-63.3 15.8-47.4 16.5-113.3 70.8-131.6"/>
    </g>
    <path d="m711.8 304.2c-27.4 24.6-29.1 58.7-39.9 100.9-7.5 29.4-23.1 69.4-55.3 83.9"/>
    <path d="m702 315c-22.2 34.7-16.4 49.6-26 88-10 39.9-19.2 60.3-50.1 80.6"/>
    <g stroke-linejoin="round">
     <path d="m268.2 414.3c.8.1 1.4.2 1.9.5.2.1.3.2.5.3.9.7 1.3 2 .8 4-1 3.9-5.4 6.1-7.5 6.9-4.3 1.6-7.6-2-5.1-5.9 1.6-2.4 4.2-5.1 7.4-5.7.2 0 .4-.1.7-.1s.5-.1.8-.1c.6 0 1.2.1 1.9.3"/>
     <path d="m267.8 425.2c7-3.5 14.5-7.3 24.2-12.7 15.8-8.6 33.6-17.5 43.7-15.6 20.2 3.8 18.7 54.1 53.5 25.2"/>
     <path d="m313.1 402c6.3-2.8 21.8-2.6 31.1 17.6 6.6 14.3 16.3 11.1 24 11.6"/>
    </g>
   </g>
   <g stroke-linejoin="round">
    <path d="m330.2 399.8c7.8 4.9 8.8 2 26.1 28.6" stroke-width="6.587558"/>
    <g stroke-width="5.625">
     <path d="m267.8 425.2c-14.1 8.1-36.2 8.6-42.6.1-34.5-35.6 53-168.5 106.1-190.7"/>
     <path d="m389.2 422.2c21.1-17.3 79.4-86.1 79.4-86.1l-51.1 94.9"/>
     <path d="m417.4 430.9c14.2-5.7 63.5-31.9 81.6-32.8 17.3-.7 16.6 33.2 33.4 33.2 11.6 0 24.4-15 43.3-33.1"/>
    </g>
   </g>
  </g>
 </g>
</svg>
