<svg height="210mm" viewBox="0 0 1052.4 744.1" width="297mm" xmlns="http://www.w3.org/2000/svg">
 <g stroke="#000" stroke-linecap="round">
  <g fill="none" transform="translate(0 -308.26772)">
   <path d="m57.6 742.2h948.8" stroke-width="1.875"/>
   <g stroke-dasharray="3.75 7.5" stroke-miterlimit="2" stroke-width=".9375">
    <path d="m58.3 844.1h948.8"/>
    <path d="m58.3 641.8h948.8"/>
    <path d="m58.3 540.6h948.8"/>
   </g>
  </g>
  <g fill="none">
   <g stroke-linejoin="round" stroke-width="5.625">
    <path d="m616.3 341.9c24.6-2.4 163.8-6.7 163.8-6.7l33.3 47.9 27.9-47.1"/>
    <path d="m780 335.2 24 48"/>
    <path d="m789.5 335.2 23.8 47.9"/>
    <path d="m785.6 335.1 24 48"/>
   </g>
   <path d="m782.3 334.1h7.1" stroke-width="3.75"/>
   <path d="m805.7 384.1h7.1" stroke-width="3.75"/>
   <g stroke-linejoin="round">
    <path d="m432.2 356.1c-16 19.7-29 25-36.4 27.4-54.4 17.1 34-131.2 77.7-177.4 4.7-4.9 15.9-14.6 23-17.4" stroke-width="5.625"/>
    <path d="m432.2 356.1 62-65.6" stroke-width="5.62496"/>
    <g stroke-width="5.625">
     <ellipse cx="-65.240318" cy="466.09784" rx="25.728558" ry="20.371416" transform="matrix(.79083574 -.61202846 .61202846 .79083574 0 0)"/>
     <path d="m307.5 385-67.5.7"/>
    </g>
   </g>
  </g>
  <g stroke-linejoin="round">
   <g fill="#eb0000" fill-rule="evenodd" transform="matrix(1.7715894 0 0 1.7715894 -979.30226 32.949173)">
    <path d="m732.1 185.5c.8.1 1.4.2 1.9.5.2.1.3.2.5.3.9.7 1.3 2 .8 4-1 3.9-5.4 6.1-7.5 6.9-4.3 1.6-7.6-2-5.1-5.9 1.6-2.4 4.2-5.1 7.4-5.7.2 0 .4-.1.7-.1h.8c.6 0 1.2.1 1.9.3" stroke-width="5.625"/>
    <path d="m729.3 188.3c.3 0 .6.1.9.2.1 0 .2.1.2.1.4.3.6.9.4 1.8-.4 1.7-2.4 2.8-3.3 3.1-1.9.7-3.4-.9-2.3-2.6.7-1.1 1.9-2.3 3.3-2.6h.3.4c.3 0 .6 0 .8.1" stroke-width="4.981044"/>
   </g>
   <g fill="none">
    <path d="m312.4 383.3c18.5-4 106.5-134.2 166.2-182" stroke-width="5.625"/>
    <path d="m494.2 290.5-56.9 94.4 58.8-32.8" stroke-width="5.62496"/>
    <g stroke-width="5.625">
     <path d="m496 352.1 27.9-16.1"/>
     <path d="m554.6 375.9c-.9 3.4-3.6 6.4-6.8 8.8-8.7 6.7-21.1 4.9-26.5-2-5.3-6.9-3.1-17 5.6-23.8 18.3-12.8 72.4-14.7 89.3-17.1"/>
     <path d="m523.9 336 28.1 31.9s3.8 4.4 2.6 7.9"/>
    </g>
   </g>
  </g>
 </g>
</svg>
