<svg height="210mm" viewBox="0 0 1052.4 744.1" width="297mm" xmlns="http://www.w3.org/2000/svg">
 <g fill="none" stroke-linecap="round">
  <g transform="translate(0 -308.26772)">
   <path d="m57.6 742.2h948.8" stroke="#969696" stroke-width="1.875"/>
   <g stroke="#000" stroke-dasharray="3.75 7.5" stroke-miterlimit="2" stroke-width=".9375">
    <path d="m58.3 844.1h948.8"/>
    <path d="m58.3 641.8h948.8"/>
    <path d="m58.3 540.6h948.8"/>
   </g>
  </g>
  <g stroke="#000" stroke-linejoin="round" stroke-width="5.625">
   <path d="m494.5 436.3c.7.1 1.3.2 1.8.5.2.1.3.2.5.3.9.7 1.2 1.9.7 3.8-1 3.7-5.1 5.8-7.1 6.5-4.1 1.5-7.1-1.9-4.8-5.5 1.5-2.3 4-4.8 7-5.4.2 0 .4-.1.6-.1h.8c.6 0 1.2.1 1.8.2"/>
   <path d="m472.7 433.2c.7.1 1.3.2 1.8.5.2.1.3.2.5.3.9.7 1.2 1.9.7 3.8-1 3.7-5.1 5.8-7.1 6.5-4.1 1.5-7.1-1.9-4.8-5.5 1.5-2.3 4-4.8 7-5.4.2 0 .4-.1.6-.1h.8c.6 0 1.2.1 1.8.2"/>
   <path d="m358.2 431s44.6-32.4 61.8-29.2c13.1 2.4 15.6 28 29.1 29.1 4.2.3 29.6.9 46.7 5.4"/>
   <path d="m400.8 406.1c5.4-2.4 18.6-2.2 26.5 15 5.6 12.2 13.9 9.5 20.5 9.9"/>
   <path d="m415.4 404.2c6.7 5.9 6.3.5 21.2 23.1"/>
   <path d="m488.8 437.4 41.7-46.6 20 41.3"/>
   <path d="m550.5 432.1c17.9-11.4 45.7-29.7 62.5-30.6 16-.6 21.6 31 32.6 30.7 7.2-.2 12.4-7.6 16.7-13"/>
  </g>
 </g>
</svg>
