<svg height="210mm" viewBox="0 0 1052.4 744.1" width="297mm" xmlns="http://www.w3.org/2000/svg">
 <g fill="none" stroke-linecap="round">
  <g transform="translate(0 -308.26772)">
   <path d="m57.6 742.2h948.8" stroke="#969696" stroke-width="1.875"/>
   <g stroke="#000" stroke-dasharray="3.75 7.5" stroke-miterlimit="2" stroke-width=".9375">
    <path d="m58.3 844.1h948.8"/>
    <path d="m58.3 641.8h948.8"/>
    <path d="m58.3 540.6h948.8"/>
   </g>
  </g>
  <g stroke="#000">
   <path d="m299.8 235.2c-9 24.1-38.3 79.3-56 107.7-24.8 39-64.2 79.9-90.4 88.2-1.2.4-5.8-.3-6.6-5.4-.6-3.7 5.9-10.1 17.8-13.8" stroke-linejoin="round" stroke-width="5.625"/>
   <path d="m466.8 336.2c-30.7 2.4-302.2 75.7-302.2 75.7" stroke-linejoin="round" stroke-width="5.419139"/>
   <g stroke-width="5.625">
    <g stroke-linejoin="round">
     <path d="m466.8 336.2c15.2-2.2 23.6 10.4 4.1 42.9l-31.1 51.6"/>
     <path d="m548.6 310.3c17.8-19.4 28.6-22.5 40.2-23.1 16.3-.8 26.6 12.8 38.4 49.1 15.7 48.2 30 54.8 50.4 40.8"/>
     <path d="m439.8 430.7 108.8-120.4"/>
     <ellipse cx="437.37701" cy="857.19702" rx="25.728558" ry="20.371416" transform="matrix(.79083574 -.61202846 .61202846 .79083574 0 0)"/>
    </g>
    <path d="m918.4 365.6-57.4 26.4"/>
    <g stroke-linejoin="round">
     <path d="m736.8 410.7 135.5-22.7"/>
     <path d="m736.8 410.7c-7.4 1.3-61 6.8-59 16.2.1 3 3.3 4.9 5.6 4.9 3 0 11-4.3 12.4-5.2 35.2-22.1 69.5-129.8 7.1-74.3-2.3 2.1-14.2 15.6-25.3 24.7"/>
    </g>
   </g>
  </g>
 </g>
</svg>
