<svg height="210mm" viewBox="0 0 1052.4 744.1" width="297mm" xmlns="http://www.w3.org/2000/svg">
 <g fill="none" stroke-linecap="round">
  <g transform="translate(0 -308.26772)">
   <path d="m57.6 742.2h948.8" stroke="#969696" stroke-width="1.875"/>
   <g stroke="#000" stroke-dasharray="3.75 7.5" stroke-miterlimit="2" stroke-width=".9375">
    <path d="m58.3 844.1h948.8"/>
    <path d="m58.3 641.8h948.8"/>
    <path d="m58.3 540.6h948.8"/>
   </g>
  </g>
  <g stroke="#000">
   <g stroke-linejoin="round" stroke-width="5.625">
    <path d="m440.8 356.3s-72.2 68-82.7 66.2"/>
    <path d="m457.5 344.1c13.5-8.2 90.1-49 108.9-48.5 24.5.5 16.8 35.4 36 35.2 5.7-.1 16.1-8.4 19.1-14.7"/>
    <ellipse cx="242.01392" cy="564.10138" rx="62.130169" ry="44.633743" transform="matrix(.88109295 -.47294313 .47294313 .88109295 0 0)"/>
   </g>
   <path d="m536.7 360.6c-13.8 27.9-38.1 52.4-66.8 70.7" stroke-width="5.385754"/>
   <path d="m537.9 369.6c-15.9 21.3-33.1 41.5-54 58.5" stroke-width="5.385754"/>
   <path d="m537 376.1c-14.3 21.6-19.7 29.6-41.7 46.5" stroke-width="7.181006"/>
   <path d="m485.6 419.2c-10.1 9.6-24.3 12.2-31.1 10.7" stroke-width="3.590503"/>
   <path d="m528.7 346.7c2.2 2.5 8.7 12.2 1.3 24.5" stroke-width="3.590503"/>
   <g stroke-linejoin="round" stroke-width="5.625">
    <path d="m359.4 412.8c.5.1 1 .2 1.4.4.1.1.2.1.3.2.7.5.9 1.4.5 2.8-.7 2.7-3.8 4.3-5.3 4.9-3.1 1.1-5.3-1.4-3.6-4.1 1.1-1.7 3-3.6 5.2-4 .2 0 .3-.1.5-.1s.4-.1.6-.1c.4 0 .9.1 1.3.2"/>
    <path d="m343 431.2c11.3-3.6 29-14.3 32.2-40.1s20.9-53.1 39.1-55.8"/>
   </g>
  </g>
 </g>
</svg>
