<svg height="210mm" viewBox="0 0 1052.4 744.1" width="297mm" xmlns="http://www.w3.org/2000/svg">
 <g fill="none" stroke-linecap="round">
  <g transform="translate(0 -308.26772)">
   <path d="m57.6 742.2h948.8" stroke="#969696" stroke-width="1.875"/>
   <g stroke="#000" stroke-dasharray="3.75 7.5" stroke-miterlimit="2" stroke-width=".9375">
    <path d="m58.3 844.1h948.8"/>
    <path d="m58.3 641.8h948.8"/>
    <path d="m58.3 540.6h948.8"/>
   </g>
  </g>
  <g stroke="#000" stroke-linejoin="round" stroke-width="5.625">
   <path d="m491.2 383.8c-23.4 16.7-89.1 73.3-81.8 89.7 1.1 2.9 22.5 22.8 62-40.9l83.4-151.7-167 109.7"/>
   <ellipse cx="64.151131" cy="566.89209" rx="25.728558" ry="20.371416" transform="matrix(.79083574 -.61202846 .61202846 .79083574 0 0)"/>
   <path d="m313.8 431.3c12.5 0 68.6-36.4 68.6-36.4"/>
   <path d="m339.1 336.9-42.4 73.1c-7.6 13.1-2.1 21 8.9 21.4 1.8.1 6.1.2 8.2-.1"/>
   <path d="m662.5 199.3-7.9 8.6c-35.9 39.2-121.2 139.7-163.4 175.9"/>
   <path d="m662.5 199.3c23.7-19.2 60.9-14.6 37.5 14.4-27.4 33.8-45.8 50.4-39.4 63.9 3 6.5 25.2 8.1 36.5-3.7l18-18.8"/>
   <path d="m715 255.1 17.8-20.1 22.4 47.8"/>
  </g>
 </g>
</svg>
