<svg height="210mm" viewBox="0 0 1052.4 744.1" width="297mm" xmlns="http://www.w3.org/2000/svg">
 <g fill="none" stroke-linecap="round">
  <g transform="translate(0 -308.26772)">
   <path d="m57.6 742.2h948.8" stroke="#969696" stroke-width="1.875"/>
   <g stroke="#000" stroke-dasharray="3.75 7.5" stroke-miterlimit="2" stroke-width=".9375">
    <path d="m58.3 844.1h948.8"/>
    <path d="m58.3 641.8h948.8"/>
    <path d="m58.3 540.6h948.8"/>
   </g>
  </g>
  <g stroke="#000" stroke-linejoin="round">
   <path d="m353.4 383.8 21.1 47.3" stroke-width="5.625"/>
   <path d="m374.5 431.1 27.5-24.1" stroke-width="5.625"/>
   <path d="m484.2 436.7s-96.8 37.3-96.7 43.1c0 2 1.9 3.6 4.7 3.8 3 .3 9.7-4.2 11-5 10.7-6.1 20.2-15.8 27.8-26.6 28.4-40.2 28.2-94.2-29-45" stroke-width="5.419139"/>
   <g stroke-width="5.625">
    <path d="m580.5 393.5c-43.4 40.7-66.8 44.9-95.9 94.6-11.2 19.3-12 27.8-11.7 36 .6 14.3 33.7 20 61.4-55.8 15.7-47.2 25.8-112.5 71.5-132.1"/>
    <path d="m580.5 393.5c26.3-20.8 48.2-43.5 76-56.6 7.7-3.6 13.2-.8 17.3 7.2 6.5 12.7 4 18.2 12.3 27.2 15.9 17.3 43.8-27.8 34.5-34.3-6.3-4.4-25.9 3.2-49.4 42-41.8 68.4-7.7 59.6 21.7 37.5"/>
    <path d="m646.5 341.9c14.3-7.5 19.9 4.4 23.4 16.1 3.2 10.5 8.7 18 23.9 17.1"/>
    <path d="m660.2 338.5c13.6.7 15.1 28.3 22.1 30"/>
   </g>
  </g>
 </g>
</svg>
