<svg height="210mm" viewBox="0 0 1052.4 744.1" width="297mm" xmlns="http://www.w3.org/2000/svg">
 <g fill="none" stroke-linecap="round">
  <g transform="translate(0 -308.26772)">
   <path d="m57.6 742.2h948.8" stroke="#969696" stroke-width="1.875"/>
   <g stroke="#000" stroke-dasharray="3.75 7.5" stroke-miterlimit="2" stroke-width=".9375">
    <path d="m58.3 844.1h948.8"/>
    <path d="m58.3 641.8h948.8"/>
    <path d="m58.3 540.6h948.8"/>
   </g>
  </g>
  <g stroke="#000">
   <g stroke-linejoin="round" stroke-width="5.625">
    <path d="m492 431.1s23.8-38.1 28.2-45.5c23.1-38.3 47.9-49.6 70-49.4 23.2.2 41.4 17.9 35.6 50"/>
    <path d="m470.6 384.6 21.4 46.5"/>
    <path d="m697.8 339-25.3 46.4"/>
    <path d="m676.9 385.5-12 .2"/>
    <path d="m704.7 336-27.7 49.5"/>
    <path d="m704.7 336-14.1-.1"/>
    <path d="m695.9 337.1-25.3 46.6"/>
   </g>
   <path d="m415.6 338.4c.8-1.1 3.5 6.2.4 14.1-3.2 8.2-12.5 19.1-17.8 24.2-10.5 9.9-29.8 30.2-23.7 46.5" stroke-width="5.472634"/>
   <path d="m405 337.1c13.9-1.2 11 7.7 10.3 13.7" stroke-width="2.736317"/>
   <path d="m317 431.6c12.6-14.6 46-67.4 51.9-74.4 10-11.9 21.8-21.3 36.3-21.4 14.3-.3 24.4 8.5 10.2 26.1-27.1 33.5-45.1 49.8-39.1 63.3 1.9 4.3 6.9 6.2 12.9 6.2 5.1-.2 8.4-.8 13.8-3.1 11.7-5 33.4-17.8 67.5-43.7" stroke-linejoin="round" stroke-width="5.569704"/>
   <path d="m415.4 337.4c15.4 6.8 4.1 30.2-12.2 46.1-14 13.6-22.7 27.7-28.7 39.7" stroke-width="5.472634"/>
   <path d="m381.8 412.6c-3.4 4.9-7.1 14.7 2.5 16.9" stroke-width="2.736317"/>
   <path d="m372 417.4c-.1 5.5 3.9 14.3 10.9 14.6" stroke-width="2.736317"/>
   <path d="m625.8 386.3 64.8-50.4-25.6 49.9" stroke-linejoin="round" stroke-width="5.625"/>
  </g>
 </g>
</svg>
