<svg height="210mm" viewBox="0 0 1052.4 744.1" width="297mm" xmlns="http://www.w3.org/2000/svg">
 <g fill="none" stroke-linecap="round">
  <g transform="translate(0 -308.26772)">
   <path d="m57.6 742.2h948.8" stroke="#969696" stroke-width="1.875"/>
   <g stroke="#000" stroke-dasharray="3.75 7.5" stroke-miterlimit="2" stroke-width=".9375">
    <path d="m58.3 844.1h948.8"/>
    <path d="m58.3 641.8h948.8"/>
    <path d="m58.3 540.6h948.8"/>
   </g>
  </g>
  <g stroke="#000">
   <g stroke-linejoin="round">
    <path d="m217.3 386.7c40 3 59.7-35.8 56.6-44.3-5.4-14.5-29.3-4.3-53.1 35-26.3 43-21.5 53.4-8.6 53.7 29.8.8 66.5-51.1 107.8-95.2" stroke-width="5.625"/>
    <path d="m340.8 382.9c38-39.4 76.2-52.8 97.7-46.2 16.1 4.9 25.5 20.6 17.9 46.8" stroke-width="5.625"/>
    <path d="m550.8 187.4-94.5 196.1" stroke-width="5.624999"/>
    <path d="m320 336.1 20.8 46.9" stroke-width="5.625"/>
    <path d="m638.4 430.4c18-14.4 34.2-33.8 47.6-47.9 11.5-12 21.3-22.1 30.2-30.3 10.5-9.7 20-15.7 28.7-16.3 2.7-.3 5.1-.1 7.1.7 7.8 3.3 10.1 15.8-1.5 40.6l-25 53.3" stroke-width="5.625"/>
    <path d="m755.1 357.5-36.9 73.3" stroke-width="5.440073"/>
    <path d="m741.6 389.6-20.2 40.7" stroke-width="3.626714"/>
    <path d="m718.1 430.8 7.4-.2" stroke-width="5.440073"/>
   </g>
   <path d="m752.5 337.8c4.1 1.7 6.9 9.7-.3 23.7" stroke-width="3.626714"/>
   <path d="m735.2 234.5-96.8 195.9" stroke-width="5.624959"/>
   <path d="m735.2 234.5-184.1 182.6" stroke-width="5.625"/>
   <g stroke-linejoin="round">
    <path d="m594.3 431.4c11.2-27.4-9.2-38.1-20.9-44.2-32.6-16.9-29.7-38.2-22.8-51.3" stroke-width="5.625"/>
    <path d="m725.5 430.6 63.4-41.4" stroke-width="5.625"/>
    <path d="m794.6 533.5c14.8-7.7 30.4-16 28.9-34.4-1.8-21.5-51.2-39.8-58-62.6-3.5-11.7 8.2-30.9 23.4-47.3" stroke-width="5.624998"/>
   </g>
  </g>
 </g>
</svg>
