<svg height="210mm" viewBox="0 0 1052.4 744.1" width="297mm" xmlns="http://www.w3.org/2000/svg">
 <g fill="none" stroke-linecap="round">
  <g transform="translate(0 -308.26772)">
   <path d="m57.6 742.2h948.8" stroke="#969696" stroke-width="1.875"/>
   <g stroke="#000" stroke-dasharray="3.75 7.5" stroke-miterlimit="2" stroke-width=".9375">
    <path d="m58.3 844.1h948.8"/>
    <path d="m58.3 641.8h948.8"/>
    <path d="m58.3 540.6h948.8"/>
   </g>
  </g>
  <g stroke="#000">
   <g stroke-linejoin="round">
    <path d="m172.3 406.6s16.7-8.3 22.7-11.2c47.6-22.4 79-8.5 66.9 34.6" stroke-width="5.625"/>
    <path d="m252.5 391.8c7.1 5.9 8.1 27.1 3.2 37.8" stroke-width="6.5625"/>
    <path d="m240 385.5c16.4 3.3 16.8 35.2 10.1 45.2" stroke-width="4.6875"/>
   </g>
   <g stroke-width="5.625">
    <path d="m250.8 430.8 9.8.1"/>
    <path d="m180.7 336.1-57 94.7 48.6-24.2" stroke-linejoin="round"/>
    <path d="m369.8 234.1-107.1 196.9"/>
    <g stroke-linejoin="round">
     <path d="m514.5 386.3-195.7 45.3"/>
     <path d="m323.8 419.7c.7.1 1.4.2 1.9.5.2.1.3.2.5.3.9.7 1.3 2 .7 3.9-1 3.8-5.4 6.1-7.4 6.8-4.3 1.5-7.5-2-5-5.8 1.5-2.4 4.2-5 7.3-5.6.2 0 .4-.1.6-.1h.8c.6 0 1.2.1 1.8.3"/>
     <path d="m495.9 399 40.7-59.3"/>
    </g>
   </g>
  </g>
  <g stroke-linejoin="round" stroke-width="5.625">
   <path d="m536.6 339.7c21.6-28.9 36.1-52.4 56.9-56.8 10.7-2.7 14.3.7 18.7 3.2 7.6 4.3 8 17.2-6 41.5l-29.8 52.1" stroke="#000200"/>
   <path d="m576.4 379.7 156.8-90.6 184.9-106.8" stroke="#000001"/>
   <path d="m533.8 396.3a19.2 25.1 41.6 0 1 -14.3 31.3 19.2 25.1 41.6 0 1 -27.6-6.8 19.2 25.1 41.6 0 1 14.3-31.3 19.2 25.1 41.6 0 1 27.6 6.8z" stroke="#000"/>
  </g>
 </g>
</svg>
