<svg height="210mm" viewBox="0 0 1052.4 744.1" width="297mm" xmlns="http://www.w3.org/2000/svg">
 <g fill="none" stroke-linecap="round">
  <g transform="translate(0 -308.26772)">
   <path d="m57.6 742.2h948.8" stroke="#969696" stroke-width="1.875"/>
   <g stroke="#000" stroke-dasharray="3.75 7.5" stroke-miterlimit="2" stroke-width=".9375">
    <path d="m58.3 844.1h948.8"/>
    <path d="m58.3 641.8h948.8"/>
    <path d="m58.3 540.6h948.8"/>
   </g>
  </g>
  <g stroke="#000" stroke-linejoin="round" stroke-width="5.625">
   <path d="m194.7 431.9 60.7-.2"/>
   <path d="m257.9 421.2c.6.1 1.2.2 1.6.4.1.1.3.2.4.2.8.6 1.1 1.6.6 3.3-.8 3.2-4.5 5-6.2 5.7-3.6 1.3-6.2-1.6-4.2-4.8 1.3-2 3.5-4.2 6.1-4.7.2 0 .4-.1.5-.1h.7c.5 0 1 .1 1.5.2"/>
   <path d="m255.4 431.7 33.9-19.5c22.3-11.9 49.8-30.8 53-32.8 22.6-16.6 36-34 21.6-41.1-9.2-4.4-24.1 1.8-41.4 30.4-27 44.2-23.3 64.3-9.5 62.5 9.5-1.4 17.4-4.6 22.6-8.1"/>
   <path d="m397 431.4c19.7 1 258.9-95.1 258.9-95.1"/>
   <path d="m335.6 423.2c46.9-24.4 187.9-141.2 176.9-184.7-3.8-14.9-40.2 8.9-87.4 86.8-47.5 82-46.9 109.4-28 106.1"/>
   <path d="m655.9 336.2c13.8 27.3 23.5 50.4 39.2 48.8 57.1-5.8 63.7-49.2 51.2-49.7-7.7-.3-25.9 1.3-49.4 40.1-32.6 53.3-17.7 60.8 4.4 53.5 10.7-3.5 52.2-30.7 74.9-45.5"/>
   <path d="m776.1 383.5 24.1 47.9"/>
   <path d="m801.8 430.8 60.1-48.5"/>
   <path d="m186.1 362.9c10.3-12.8 21.7-20 29.9-23.6 19.6-8.3 36.3 3.3 12.3 40.5l-33.6 52.1"/>
   <path d="m868.6 531.9c14.8-7.7 32.2-16.2 28.9-34.4-.9-14.2-55-41.3-61.8-64.1-3.5-11.7 11-34.6 26.1-51.1"/>
  </g>
 </g>
</svg>
