<svg height="210mm" viewBox="0 0 1052.4 744.1" width="297mm" xmlns="http://www.w3.org/2000/svg">
 <g fill="none" stroke-linecap="round">
  <g transform="translate(0 -308.26772)">
   <path d="m57.6 742.2h948.8" stroke="#969696" stroke-width="1.875"/>
   <g stroke="#000" stroke-dasharray="3.75 7.5" stroke-miterlimit="2" stroke-width=".9375">
    <path d="m58.3 844.1h948.8"/>
    <path d="m58.3 641.8h948.8"/>
    <path d="m58.3 540.6h948.8"/>
   </g>
  </g>
  <path d="m470.2 361.9c56.3-55.3 54.1.2 25.7 40.3-7.6 10.8-17.1 20.4-27.8 26.6-1.4.8-7.4 3.1-10.4 2.8-5-.5-6.5-3.3-4.5-6.4.6-.9 3.4-3.9 8.3-6.2l43.4-20.4c7-2.7 12-5.4 19.7-3.6 14.3 2.8 22.1 24.6 37.3 33.1 8.1 4.6 30.1 2.9 36.1-10.4 5-11-6.7-24.1-25.1-23.9-9.7.1-19.1 2.3-38.9 38.4-21.8 40.1-9.4 55.2 11.6 54.8 15.7-.2 58.6-28.6 71.7-44.4" stroke="#000" stroke-linejoin="round" stroke-width="5.625"/>
 </g>
</svg>
