<svg height="210mm" viewBox="0 0 1052.4 744.1" width="297mm" xmlns="http://www.w3.org/2000/svg">
 <g fill="none" stroke-linecap="round">
  <g transform="translate(0 -308.26772)">
   <path d="m57.6 742.2h948.8" stroke="#969696" stroke-width="1.875"/>
   <g stroke="#000" stroke-dasharray="3.75 7.5" stroke-miterlimit="2" stroke-width=".9375">
    <path d="m58.3 844.1h948.8"/>
    <path d="m58.3 641.8h948.8"/>
    <path d="m58.3 540.6h948.8"/>
   </g>
  </g>
  <g stroke-linejoin="round" stroke-width="5.625">
   <path d="m584.4 313.5c10.2-8.7 14.6-21.2 13.1-25.2-2.8-7.3-29.3-4.3-53.1 35-27.6 45.1-21.8 54-6.5 53.4" stroke="#000"/>
   <path d="m344.6 336.4c-47.2 12.3-91.8 95.8-48.5 94.7 1.2.2 8.2-.6 18.4-3.9 60.1-19.4 249.8-93 269.8-113.6" stroke="#000"/>
   <path d="m537.8 376.7c27.2-1.7 133.5-91.2 133.5-91.2l-56.7 94.9" stroke="#0a0000"/>
  </g>
 </g>
</svg>
