<svg height="210mm" viewBox="0 0 1052.4 744.1" width="297mm" xmlns="http://www.w3.org/2000/svg">
 <g fill="none" stroke-linecap="round">
  <g transform="translate(0 -308.26772)">
   <path d="m57.6 742.2h948.8" stroke="#969696" stroke-width="1.875"/>
   <g stroke="#000" stroke-dasharray="3.75 7.5" stroke-miterlimit="2" stroke-width=".9375">
    <path d="m58.3 844.1h948.8"/>
    <path d="m58.3 641.8h948.8"/>
    <path d="m58.3 540.6h948.8"/>
   </g>
  </g>
  <path d="m728.9 420.4c-4.1 4.2-9.8 10.8-18.3 10.8-13.3-.1-17.4-31-34.2-30.4-17.6.9-49.1 28.3-77 30.5-7.3.6-13.7-1.8-16.3-7.4-7.2-15.5 13.3-29.1 37.7-58.6 8.2-9.9 8.8-18.2 5.1-23.4-1.5-2.2-3.8-3.8-6.6-4.7-2.6-.9-5.7-1.2-9-.9-14.1 1-33.8 22.1-50 40.3-6.2 7.2-20.8 22.1-32.7 34.2-7.4 7.6-22.6 20.6-33.3 20.6-18.8 0-22.5-30.1-42.6-30.7-25.2-.7-53.8 30.5-78.6 30.5-20.6-.2-32.2-16.1-24.2-41.2" stroke="#000" stroke-linejoin="round" stroke-width="5.624999"/>
 </g>
</svg>
