<svg height="210mm" viewBox="0 0 1052.4 744.1" width="297mm" xmlns="http://www.w3.org/2000/svg">
 <g fill="none" stroke-linecap="round">
  <g transform="translate(0 -308.26772)">
   <path d="m57.6 742.2h948.8" stroke="#969696" stroke-width="1.875"/>
   <g stroke="#000" stroke-dasharray="3.75 7.5" stroke-miterlimit="2" stroke-width=".9375">
    <path d="m58.3 844.1h948.8"/>
    <path d="m58.3 641.8h948.8"/>
    <path d="m58.3 540.6h948.8"/>
   </g>
  </g>
  <g stroke="#000">
   <path d="m220 431 362.5-98.3c30.2-8.2 49.4-23.3 66.1-42.6 18.4-21.2 28.7-43.8 25.4-52.6-5.5-14.4-40.3 8.9-87.6 86.9-44.2 76.4-40.1 107.3-24.3 106.5 28-1.3 45.2-30.2 62.8-30.5 19.6-.3 19.2 30.8 38 30.9 21.1.1 27.1-9.7 83.8-47.8l22.1 47.1" stroke-linejoin="round" stroke-width="5.625"/>
   <path d="m655.7 240.6c-43.7 54.6-78.5 106.6-101.5 161.7" stroke-width="5.625"/>
   <path d="m644.7 250.6c-32.6 38.3-62.6 81.8-84.3 130.9" stroke-width="7.5"/>
   <path d="m673.4 239c-4.7-13.1-19.7 5.3-27 14.8" stroke-width="3.75"/>
   <path d="m557.3 395c-6.2 14.2-11.6 39 13.4 34.8" stroke-width="5.625"/>
  </g>
 </g>
</svg>
