<svg height="210mm" viewBox="0 0 1052.4 744.1" width="297mm" xmlns="http://www.w3.org/2000/svg">
 <g fill="none" stroke-linecap="round">
  <g transform="translate(0 -308.26772)">
   <path d="m57.6 742.2h948.8" stroke="#969696" stroke-width="1.875"/>
   <g stroke="#000" stroke-dasharray="3.75 7.5" stroke-miterlimit="2" stroke-width=".9375">
    <path d="m58.3 844.1h948.8"/>
    <path d="m58.3 641.8h948.8"/>
    <path d="m58.3 540.6h948.8"/>
   </g>
  </g>
  <g stroke="#000">
   <path d="m250.5 398.2 33.9-16-27.4 48.9" stroke-linejoin="round" stroke-width="5.625"/>
   <path d="m618.8 403.6c15.7-8.4 29.3-15.7 31.5-17.1 7.2-4.5 15.1-9 20.2-13.4 12.8-11.2 18.6-26.1 16.7-30.9-2.8-7.3-34.7-8.6-58.5 30.7-26.3 43.1-17.7 60.3-4.2 58.6 14-3.8 28.8-9.6 42.4-16.5" stroke-linejoin="round" stroke-width="5.625"/>
   <path d="m667.3 343.4c-30.3 19.2-39.8 50.5-52.2 79" stroke-width="4.6875"/>
   <path d="m660.3 343.4c-17.9 10.4-41.1 45.1-46.5 68.6" stroke-width="4.6875"/>
   <path d="m620.9 411c-4 10.7-6.4 18.8 3.6 20.4" stroke-width="2.8125"/>
   <path d="m681.7 340.2c-7.4-2.4-11 2.2-15.8 5.2" stroke-width="2.8125"/>
   <path d="m656.9 348.2c-28 20.5-28.9 42.2-43.4 69.6" stroke-width="4.6875"/>
   <g stroke-linejoin="round" stroke-width="5.625">
    <path d="m666.9 414.9c34.1-18.5 68.2-44.1 91.1-65.8 49.1-46.6 97.1-104.6 74.2-112.5-14.7-5.1-40.6 9-88.3 87.6-60.9 105.1-36.4 119.6-1.8 99.3"/>
    <path d="m403 336.1c-10.4 19.9-24.4 45.1-39.7 73.8-8 14.3.9 21.8 11.4 21.6 27.1-.4 50-37 70-65.6"/>
    <path d="m444.8 365.9c12.1-17 20.7-29.6 35.1-29.6 16.9.2 15.9 34.3 37.2 34.5 10.2-1.3 16.7-6.9 22.2-13.6"/>
   </g>
  </g>
 </g>
</svg>
