<svg height="210mm" viewBox="0 0 1052.4 744.1" width="297mm" xmlns="http://www.w3.org/2000/svg">
 <g fill="none" stroke-linecap="round">
  <g transform="translate(0 -308.26772)">
   <path d="m57.6 742.2h948.8" stroke="#969696" stroke-width="1.875"/>
   <g stroke="#000" stroke-dasharray="3.75 7.5" stroke-miterlimit="2" stroke-width=".9375">
    <path d="m58.3 844.1h948.8"/>
    <path d="m58.3 641.8h948.8"/>
    <path d="m58.3 540.6h948.8"/>
   </g>
  </g>
  <g stroke-linejoin="round" stroke-width="5.625">
   <path d="m431.5 431 43.5-42.8" stroke="#000"/>
   <path d="m475.1 388.2c16-14.5 26.9-26.8 40.2-37.7 26.4-23.8 61.3-21.3 31.5 28.5l-31.2 52.3" stroke="#000"/>
   <path d="m365.4 404.7 42.1-22 22.6 48.5" stroke="#060000"/>
   <path d="m420.3 335.1c-18.2 2.7-35.9 30-39.1 55.8s-21 36.5-32.2 40.1c-14.3 2.1-9.2-13.4 3.1-19l13.3-7.2" stroke="#000"/>
   <path d="m515.5 431.2s78.9-87.1 87-92.8c10.4-7.3 17.3-5.2 22.1 4.3 6.5 12.7 4 18.2 12.3 27.2 15.9 17.3 43.8-27.8 34.5-34.3-6.3-4.4-25.9 3.2-49.4 42-45 73.7-2.1 57.8 28.4 32.3" stroke="#000"/>
  </g>
 </g>
</svg>
