<svg height="210mm" viewBox="0 0 1052.4 744.1" width="297mm" xmlns="http://www.w3.org/2000/svg">
 <g fill="none" stroke-linecap="round">
  <g transform="translate(0 -308.26772)">
   <path d="m57.6 742.2h948.8" stroke="#969696" stroke-width="1.875"/>
   <g stroke="#000" stroke-dasharray="3.75 7.5" stroke-miterlimit="2" stroke-width=".9375">
    <path d="m58.3 844.1h948.8"/>
    <path d="m58.3 641.8h948.8"/>
    <path d="m58.3 540.6h948.8"/>
   </g>
  </g>
  <g stroke-linejoin="round" stroke-width="5.625">
   <path d="m491.5 337.2s-130.8 67-139.9 74.4c-8.6 7-10 10.9-9.4 14.6.6 3.6 3.3 5.1 6.6 5.2 4.5 0 10.9-4.3 12.3-5.1 48.9-28 69.1-128.6 6.8-73.1" stroke="#000"/>
   <path d="m491.5 337.2c30.7-16 71-37.3 75.4-39.6 27.1-14.3 63.6-12 40.2 17.1-27.4 33.8-44 49.8-38 63.4 4.2 9.5 26.7 5 35.1-3.2 0 0 17.7-12.1 44.9-43.6" stroke="#000"/>
   <g stroke="#00000c">
    <path d="m649 331.4 44.6-46.4-55.8 97.2"/>
    <path d="m704.2 284.9-55.8 97.2"/>
    <path d="m704.2 284.9h-10.6"/>
    <path d="m698.6 284.9-55.8 97.2"/>
    <path d="m648.3 382.2h-10.6"/>
   </g>
  </g>
 </g>
</svg>
