<svg height="210mm" viewBox="0 0 1052.4 744.1" width="297mm" xmlns="http://www.w3.org/2000/svg">
 <g fill="none" stroke-linecap="round">
  <g transform="translate(0 -308.26772)">
   <path d="m57.6 742.2h948.8" stroke="#969696" stroke-width="1.875"/>
   <g stroke="#000" stroke-dasharray="3.75 7.5" stroke-miterlimit="2" stroke-width=".9375">
    <path d="m58.3 844.1h948.8"/>
    <path d="m58.3 641.8h948.8"/>
    <path d="m58.3 540.6h948.8"/>
   </g>
  </g>
  <g stroke="#000" stroke-width="5.625">
   <path d="m638.3 245.3a19.2 25.1 41.6 0 1 -14.3 31.3 19.2 25.1 41.6 0 1 -27.6-6.8 19.2 25.1 41.6 0 1 14.3-31.3 19.2 25.1 41.6 0 1 27.6 6.8z" stroke-linejoin="round"/>
   <path d="m688.4-198.1-96.4 166.7"/>
   <ellipse cx="653.97021" cy="246.39362" rx="25.728558" ry="20.371416" stroke-linejoin="round" transform="matrix(.79083574 -.61202846 .61202846 .79083574 0 0)"/>
   <path d="m635.9 264.3-96.4 166.7"/>
  </g>
 </g>
</svg>
