<svg height="210mm" viewBox="0 0 1052.4 744.1" width="297mm" xmlns="http://www.w3.org/2000/svg">
 <g fill="none" stroke-linecap="round">
  <g transform="translate(0 -308.26772)">
   <path d="m57.6 742.2h948.8" stroke="#969696" stroke-width="1.875"/>
   <g stroke="#000" stroke-dasharray="3.75 7.5" stroke-miterlimit="2" stroke-width=".9375">
    <path d="m58.3 844.1h948.8"/>
    <path d="m58.3 641.8h948.8"/>
    <path d="m58.3 540.6h948.8"/>
   </g>
  </g>
  <g stroke-linejoin="round" stroke-width="5.625">
   <path d="m204.3 360c24.3-33 69.8-34.2 37.2 20l-31.1 51.6" stroke="#000"/>
   <path d="m503.6 390.4c-14.9.7-30.3 3.1-34.9 5.6-13.7 7.5-27.4 16.5-38.3 27.5-25.9 26.2-39.9 52.6-36.9 60.3 1.1 2.9 17.7 21.8 57.3-41.8l88-150.7-328.4 140.4" stroke="#060000"/>
   <g stroke="#000">
    <path d="m503.6 390.4c60.8-60.9 213-93.6 168.1 24.5-1.6 4.3-6.9 16.5-6.9 16.5"/>
    <path d="m664.8 431.5c47.8-50.1 84.7-85.2 109-93.9 21-5.4 35 2.5 12.3 40.5l-31.2 52.3"/>
    <path d="m754.8 430.3c.6.3 59.2-35.8 70.7-35.9 20.1-.2 17.8 36.2 32.6 36.2 10.1 0 21.7-14.2 21.7-14.2"/>
    <path d="m796.2 343.9-49.2 86.2"/>
    <path d="m796.4 350.1-45.6 79.9"/>
    <path d="m746.9 430.1 7.9.3"/>
   </g>
  </g>
  <path d="m792.2 337.7c1.8 1.7 2.3 5.7.7 9.9" stroke="#000" stroke-width="3.75"/>
 </g>
</svg>
