<svg height="210mm" viewBox="0 0 1052.4 744.1" width="297mm" xmlns="http://www.w3.org/2000/svg">
 <g fill="none" stroke-linecap="round">
  <g transform="translate(0 -308.26772)">
   <path d="m57.6 742.2h948.8" stroke="#969696" stroke-width="1.875"/>
   <g stroke="#000" stroke-dasharray="3.75 7.5" stroke-miterlimit="2" stroke-width=".9375">
    <path d="m58.3 844.1h948.8"/>
    <path d="m58.3 641.8h948.8"/>
    <path d="m58.3 540.6h948.8"/>
   </g>
  </g>
  <g stroke="#000" stroke-linejoin="round">
   <g stroke-width="5.625">
    <path d="m479.4 431c-15.2 3.1 121.1-94.1 147.8-96"/>
    <path d="m627.2 335c17.6-3.4 34.8 7.6 34.5 48.6-.2 33.3 15.8 47.8 30.1 47.7 13.5-.1 25.8-3.1 36.9-11.4"/>
    <path d="m631.6 334.3c12.3-1.3 35.4 13.9 35.2 45.8-.2 30.1 8.2 53 28.3 51.2"/>
    <path d="m631.6 334.3c17-.9 25 18 24.8 49.9-.2 30.1 13.3 47.8 38.7 47.1"/>
   </g>
   <path d="m479.4 431c11 2.5 32.5-22.8 38.8-31.6 28.4-40.2 30.6-95.6-25.7-40.3" stroke-width="5.419139"/>
   <g stroke-width="5.625">
    <path d="m433.5 423.6c16.2-12.8 45.8-50.5 59-64.5"/>
    <path d="m326 431.2s44.6-32.4 61.8-29.2 16 46.2 45.6 21.5"/>
    <path d="m369.6 406.1c5.4-2.4 18.6-2.2 26.5 15 5.6 12.2 13.9 9.5 20.5 9.9"/>
    <path d="m384.2 404.1c6.7 5.9 6.3.5 21.2 23.1"/>
   </g>
  </g>
 </g>
</svg>
