<svg height="210mm" viewBox="0 0 1052.4 744.1" width="297mm" xmlns="http://www.w3.org/2000/svg">
 <g fill="none" stroke-linecap="round">
  <g transform="translate(0 -308.26772)">
   <path d="m57.6 742.2h948.8" stroke="#969696" stroke-width="1.875"/>
   <g stroke="#000" stroke-dasharray="3.75 7.5" stroke-miterlimit="2" stroke-width=".9375">
    <path d="m58.3 844.1h948.8"/>
    <path d="m58.3 641.8h948.8"/>
    <path d="m58.3 540.6h948.8"/>
   </g>
  </g>
  <g stroke="#000" stroke-linejoin="round" stroke-width="5.625">
   <path d="m425 431.2c-53.2 7.3-95.5 79.7-96.4 92.6-.8 11.5 15.6 26.6 59.8-38.1 26.9-36.9 54.6-73.4 69.3-116.4 14.8-28.8-4.2-52.1-44.4-11.6"/>
   <path d="m585.3 402c-9.2 5.1-48.3 27-67.3 28.9-43.8 4.3 40.5-133.9 82.7-178.6 4.7-4.9 15.9-14.6 23-17.4"/>
   <path d="m603.8 248.9c-23.4 19.4-157.8 174.4-176.7 173"/>
   <path d="m585.3 402 24.3-12.3 18.6 41.3"/>
   <path d="m431.2 411.9c.6.1 1.2.2 1.7.4.1.1.3.2.4.3.8.6 1.1 1.7.6 3.4-.9 3.3-4.6 5.2-6.4 5.9-3.7 1.3-6.5-1.7-4.3-5 1.3-2.1 3.6-4.3 6.3-4.9.2 0 .4-.1.6-.1h.7c.5 0 1.1.1 1.6.2"/>
  </g>
 </g>
</svg>
