<svg height="210mm" viewBox="0 0 1052.4 744.1" width="297mm" xmlns="http://www.w3.org/2000/svg">
 <g fill="none" stroke-linecap="round">
  <g transform="translate(0 -308.26772)">
   <path d="m57.6 742.2h948.8" stroke="#969696" stroke-width="1.875"/>
   <g stroke="#000" stroke-dasharray="3.75 7.5" stroke-miterlimit="2" stroke-width=".9375">
    <path d="m58.3 844.1h948.8"/>
    <path d="m58.3 641.8h948.8"/>
    <path d="m58.3 540.6h948.8"/>
   </g>
  </g>
  <g stroke="#000">
   <g stroke-linejoin="round">
    <path d="m640.1 335.8-55.5 96" stroke-width="5.625"/>
    <path d="m584.5 431.8 99.1-49.5 19.5 48.9" stroke-width="5.625"/>
    <path d="m296.2 431.4c43.9-15.9 71.5-94.7 46.6-94.9-7.2-.1-18.9 6.5-35.8 23.2" stroke-width="5.625001"/>
    <g stroke-width="5.625">
     <path d="m397 431.2c18.4-11.3 70.3-49.2 63.9-91.9-4.7-31.3 24.5-44.6 38.9-53.9 17.8-10.7 29.8-19 33.7-32 2.5-11.7-2.5-16.5-8.7-18.1-5.8-1.5-12.9-1.4-21 .6-9.3 2.3-23.2 9.1-43.9 31.5-25.1 27-138 161.2-163.6 164"/>
     <path d="m397 431.2c31.9-19.4 48-37.2 71.9-55.8 24-18.7 43.6-33.7 55.2-37.7 20.4-6.8 39.1.9 20.7 23.5-27.4 33.8-45.5 50.2-39.4 63.9 2.1 4.8 8 6.6 15 5.8"/>
    </g>
   </g>
   <path d="m545.6 338.5c14.5 10.1 4.3 27.8-12.4 44.2-14.4 14-23.4 26.4-29.5 38.7" stroke-width="5.625"/>
   <path d="m545.6 338.5c.8-1.1 3.9 6.1.7 14.2-3.2 8.4-12.8 17.8-18.3 22.9-10.8 10.1-30.6 29-24.3 45.7" stroke-width="5.625"/>
   <g stroke-width="2.8125">
    <path d="m537.1 336.7c11.3 1.3 8.8 6.5 9.1 11"/>
    <path d="m508.9 414c-2.7 4.9-3.8 12 2.3 14.5"/>
    <path d="m501.1 415.4c-.1 5.7 2.9 11.5 4.9 13.1"/>
   </g>
   <path d="m520.4 430.9c33.4 0 67.7-44.8 119.7-95.1" stroke-linejoin="round" stroke-width="5.625"/>
  </g>
 </g>
</svg>
