<svg height="210mm" viewBox="0 0 1052.4 744.1" width="297mm" xmlns="http://www.w3.org/2000/svg">
 <g fill="none" stroke-linecap="round">
  <g transform="translate(0 -308.26772)">
   <path d="m57.6 742.2h948.8" stroke="#969696" stroke-width="1.875"/>
   <g stroke="#000" stroke-dasharray="3.75 7.5" stroke-miterlimit="2" stroke-width=".9375">
    <path d="m58.3 844.1h948.8"/>
    <path d="m58.3 641.8h948.8"/>
    <path d="m58.3 540.6h948.8"/>
   </g>
  </g>
  <path d="m469.7 347.3c23.7-19.2 60.9-14.6 37.5 14.4-27.4 33.8-45.5 50.2-39.4 63.9 1.7 3.8 5.5 5.4 10.4 5.3" stroke="#000" stroke-linejoin="round" stroke-width="5.625"/>
  <g stroke="#00000c">
   <g stroke-linejoin="round" stroke-width="5.625">
    <path d="m478.1 430.9c21.1.5 46 2.1 46 2.1l33.3 47.9"/>
    <path d="m524.1 433 24 48"/>
    <path d="m533.6 433 23.8 47.9"/>
    <path d="m529.6 432.9 24 48"/>
   </g>
   <g stroke-width="3.75">
    <path d="m526.3 432h7.1"/>
    <path d="m549.8 481.9h7.1"/>
   </g>
  </g>
  <path d="m557.4 480.9c19.1-14.7 54.8-43.2 79-44.3 24-.8 32.4 41.1 48.8 40.7 10.8-.3 18.5-10 25.1-17.1" stroke="#000" stroke-linejoin="round" stroke-width="5.625"/>
 </g>
</svg>
