<svg height="210mm" viewBox="0 0 1052.4 744.1" width="297mm" xmlns="http://www.w3.org/2000/svg">
 <g fill="none" stroke-linecap="round">
  <g transform="translate(0 -308.26772)">
   <path d="m57.6 742.2h948.8" stroke="#969696" stroke-width="1.875"/>
   <g stroke="#000" stroke-dasharray="3.75 7.5" stroke-miterlimit="2" stroke-width=".9375">
    <path d="m58.3 844.1h948.8"/>
    <path d="m58.3 641.8h948.8"/>
    <path d="m58.3 540.6h948.8"/>
   </g>
  </g>
  <g stroke="#000">
   <g stroke-linejoin="round" stroke-width="5.625">
    <path d="m459.4 335.3-39.4 73.1c-8.4 15.5 5 26.1 21.5 22.2 2.8-.7 9.1-2.7 14-5.9 5.5-3.6 13.2-9.7 18.1-14.2"/>
    <path d="m473.6 410.5 29.4-28 33.3 47.9"/>
    <path d="m503.1 382.5 24 48"/>
    <path d="m512.6 382.6 23.8 47.9"/>
    <path d="m508.6 382.4 24 48"/>
   </g>
   <path d="m505.3 381.5h7.1" stroke-width="3.75"/>
   <path d="m528.8 431.4h7.1" stroke-width="3.75"/>
   <path d="m646 234.6-109.6 195.8" stroke-width="5.625"/>
  </g>
 </g>
</svg>
