<svg height="210mm" viewBox="0 0 1052.4 744.1" width="297mm" xmlns="http://www.w3.org/2000/svg">
 <g fill="none" stroke-linecap="round">
  <g transform="translate(0 -308.26772)">
   <path d="m57.6 742.2h948.8" stroke="#969696" stroke-width="1.875"/>
   <g stroke="#000" stroke-dasharray="3.75 7.5" stroke-miterlimit="2" stroke-width=".9375">
    <path d="m58.3 844.1h948.8"/>
    <path d="m58.3 641.8h948.8"/>
    <path d="m58.3 540.6h948.8"/>
   </g>
  </g>
  <g stroke-linejoin="round" stroke-width="5.625">
   <path d="m414.1 412.2c15.5-9.8 27.9-16.8 36.4-20.6 20.5-9.2 43.2-2.1 23.9 21.8-27.4 33.8-44.3 49.8-38.3 63.4 5.4 12.3 32 2.7 46.5-12.2 1-1 21.1-29.1-1.7-34.2-22.7-5.1-48.7 6.5-50.6 20.9-2.4 18.4 20.8 27.8 40.4 30.1 10.9 1.3 23.1.6 29.3.4" stroke="#010000"/>
   <path d="m395.8 409.6c1 .1 1.8.3 2.5.7.2.1.4.2.6.4 1.2.9 1.7 2.6 1 5.2-1.3 5.1-7.1 8-9.8 9-5.7 2-9.8-2.6-6.6-7.6 2-3.1 5.5-6.6 9.7-7.5.3-.1.6-.1.9-.1s.7-.1 1-.1c.8 0 1.6.1 2.4.3" stroke="#030002"/>
   <g stroke="#000">
    <path d="m414.1 412.2c-16.5 9.5-26.6 16.8-44.6 18.9-42.6 5.2 41-134.1 83.1-178.6 4.7-4.9 15.9-14.6 23-17.4"/>
    <path d="m543.7 474.9c19.9-6.6 55.2-36.7 86.7-38 27.4-.6 29.6 42.3 45.9 42.1 12.2-.1 19-7.6 23.4-13"/>
    <ellipse cx="268.9877" cy="648.43707" rx="25.728558" ry="20.371416" transform="matrix(.89236516 -.45131411 .45131411 .89236516 0 0)"/>
    <path d="m500.1 481.9c8.4-.9 26.8-1.8 34.2-3.7"/>
   </g>
  </g>
 </g>
</svg>
