<svg height="210mm" viewBox="0 0 1052.4 744.1" width="297mm" xmlns="http://www.w3.org/2000/svg">
 <g fill="none" stroke-linecap="round">
  <g transform="translate(0 -308.26772)">
   <path d="m57.6 742.2h948.8" stroke="#969696" stroke-width="1.875"/>
   <g stroke="#000" stroke-dasharray="3.75 7.5" stroke-miterlimit="2" stroke-width=".9375">
    <path d="m58.3 844.1h948.8"/>
    <path d="m58.3 641.8h948.8"/>
    <path d="m58.3 540.6h948.8"/>
   </g>
  </g>
  <g stroke-linejoin="round" stroke-width="5.625">
   <path d="m320.2 416.6c.9.1 1.7.3 2.4.6.2.1.4.2.6.4 1.2.9 1.6 2.5.9 4.9-1.3 4.8-6.7 7.6-9.3 8.6-5.4 1.9-9.3-2.5-6.3-7.2 1.9-3 5.2-6.3 9.2-7.1.3-.1.5-.1.8-.1s.7-.1 1-.1c.8 0 1.5.1 2.3.3" stroke="#030002"/>
   <path d="m316.3 335.7-53.1 95.5 49 .4" stroke="#030002"/>
   <g stroke="#000">
    <path d="m321.7 427.3 51.5-40.4"/>
    <path d="m364.8 395.9c23.2-34.1 57.8-60.7 80.8-62.6 20-1.6 34.5 15.1 28.6 42.9"/>
    <ellipse cx="56.732922" cy="557.43652" rx="28.747063" ry="22.761415" transform="matrix(.79083574 -.61202846 .61202846 .79083574 0 0)"/>
    <path d="m474.2 376.2s352.8-185.2 370-188"/>
    <path d="m770.3 359.9c-11.3 7-20.2 11.9-23.1 13-66 26.5 26-121 67.1-165.1 7.9-8.5 18.3-16.4 29.8-19.7"/>
   </g>
  </g>
 </g>
</svg>
