<svg height="210mm" viewBox="0 0 1052.4 744.1" width="297mm" xmlns="http://www.w3.org/2000/svg">
 <g fill="none" stroke-linecap="round">
  <g transform="translate(0 -308.26772)">
   <path d="m57.6 742.2h948.8" stroke="#969696" stroke-width="1.875"/>
   <g stroke="#000" stroke-dasharray="3.75 7.5" stroke-miterlimit="2" stroke-width=".9375">
    <path d="m58.3 844.1h948.8"/>
    <path d="m58.3 641.8h948.8"/>
    <path d="m58.3 540.6h948.8"/>
   </g>
  </g>
  <g stroke-linejoin="round" stroke-width="5.625">
   <path d="m547.8 431.2s52.9-3.1 57.3 17.3" stroke="#000"/>
   <path d="m325.1 431.5c-27.3 3.3 104.4-47.8 104.4-47.8l22.8 47.6" stroke="#060000"/>
   <g stroke="#000">
    <path d="m325.1 431.5c43.9-15.9 71.5-94.7 46.6-94.9-7.2-.1-18.9 6.5-35.8 23.2"/>
    <path d="m452.4 431.3c39-64.7 104.7-56.6 95.5-.1"/>
    <ellipse cx="747.15344" cy="-80.956604" rx="4.609393" ry="6.862875" transform="matrix(.72846687 .68508103 -.68508103 .72846687 0 0)"/>
    <ellipse cx="250.20619" cy="762.06549" rx="21.395376" ry="16.940479" transform="matrix(.79083574 -.61202846 .61202846 .79083574 0 0)"/>
    <path d="m663.9 431.3c-1.9.4-58.8 10.5-66 17.1"/>
   </g>
  </g>
 </g>
</svg>
