<svg height="210mm" viewBox="0 0 1052.4 744.1" width="297mm" xmlns="http://www.w3.org/2000/svg">
 <g fill="none" stroke-linecap="round">
  <g transform="translate(0 -308.26772)">
   <path d="m57.6 742.2h948.8" stroke="#969696" stroke-width="1.875"/>
   <g stroke="#000" stroke-dasharray="3.75 7.5" stroke-miterlimit="2" stroke-width=".9375">
    <path d="m58.3 844.1h948.8"/>
    <path d="m58.3 641.8h948.8"/>
    <path d="m58.3 540.6h948.8"/>
   </g>
  </g>
  <g stroke="#000">
   <g stroke-linejoin="round">
    <path d="m428.6 431.3c-43.2 5 40.8-141.3 83.3-186.3 4.7-5 11.2-10.7 18.9-11.9" stroke-width="5.625"/>
    <path d="m422.2 429.3c-7.4-6.7-3-16.4 2.6-27.7" stroke-width="3.75"/>
    <g stroke-width="5.625">
     <path d="m507.9 250.7c-28 46.8-58.4 80.1-84.2 151"/>
     <path d="m458 316.3c-12.9 24.9-30.1 54.1-38.9 86.4"/>
    </g>
   </g>
   <path d="m459.6 321.9-36.7 76.3" stroke-width="3.75"/>
   <g stroke-linejoin="round" stroke-width="5.625">
    <path d="m499.6 260.2c-38.7 42.3-62.5 91.1-80.5 142.4"/>
    <path d="m536.3 430.7c10.1-1.6 28.2-13.7 55.3-44.7"/>
    <path d="m428.6 431.3c10.5-.6 27.5-10.8 43.2-19.2 2.7-1.5 5.5-2.9 8.2-4.2 9.1-4.3 17.8-7.1 23.5-6.1 14.3 2.7 15.9 32.6 32.9 28.8"/>
    <path d="m484.2 406.2c5.4-2.4 18.6-2.2 26.5 15 5.6 12.2 13.9 9.5 20.5 9.9"/>
    <path d="m498.8 404.3c6.7 5.9 6.3.5 21.2 23.1"/>
    <path d="m441.5 235.7-57.1 105.5c-24.8 39-61.8 83.2-88.1 91.5-15.8 1.5 156.5-140.7 208-180.6"/>
   </g>
  </g>
  <path d="m662.6 384c-20.2 9.7-40.4 23.7-64.4 42.4-32.5 23.2-37.7 45.7-35.4 53 .9 3 16.3 22.9 59.8-38.1 26.9-36.9 54.6-73.4 69.3-116.4 14.3-27.7 1.1-52.4-34.7-21-1.5 1.4-3.2 2.8-4.8 4.4-8.6 8.7-44 58.1-60.8 77.5" stroke="#060000" stroke-linejoin="round" stroke-width="5.625"/>
 </g>
</svg>
