<svg height="210mm" viewBox="0 0 1052.4 744.1" width="297mm" xmlns="http://www.w3.org/2000/svg">
 <g fill="none" stroke-linecap="round">
  <g transform="translate(0 -308.26772)">
   <path d="m57.6 742.2h948.8" stroke="#969696" stroke-width="1.875"/>
   <g stroke="#000" stroke-dasharray="3.75 7.5" stroke-miterlimit="2" stroke-width=".9375">
    <path d="m58.3 844.1h948.8"/>
    <path d="m58.3 641.8h948.8"/>
    <path d="m58.3 540.6h948.8"/>
   </g>
  </g>
  <g stroke="#000" stroke-linejoin="round" stroke-width="5.625">
   <path d="m340.7 430.9c10.6-12.1 23.1-29.4 40-30.3 16-.6 17.1 30.9 34.9 30.4 7.2-.2 17.4-1.5 26.6-3.9"/>
   <path d="m527.3 486.5c16.8-.5 33-21.3 35-47.2 2.1-26.8 36.3-48.7 36.3-48.7l-156.4 36.6"/>
   <path d="m539.2 478.9c28.7 2 52.9-43.1 82.2-74 16.9-17.9 26.9-18.3 33.4-5.7 6.5 12.7 4 18.2 12.3 27.2 15.9 17.3 43.8-27.8 34.5-34.3-6.3-4.4-25.9 3.2-49.4 42-35.3 57.8-14.2 56.8 9.8 52.2 3.3-.6 8.8-2.2 15.2-4.4"/>
   <path d="m629.3 397.3c9.6-6.8 18 4.1 21.6 15.8 3.2 10.5 8.7 18 23.9 17.1"/>
   <path d="m641.2 393.6c13.6.7 15.1 28.3 22.1 30"/>
   <path d="m543.9 468.6c.6.1 1.2.2 1.7.4.1.1.3.2.4.3.8.6 1.1 1.7.6 3.4-.9 3.3-4.6 5.2-6.4 5.9-3.7 1.3-6.4-1.7-4.3-5 1.3-2 3.6-4.3 6.3-4.9.2 0 .4-.1.6-.1h.7c.5 0 1.1.1 1.6.2"/>
  </g>
 </g>
</svg>
