<svg height="210mm" viewBox="0 0 1052.4 744.1" width="297mm" xmlns="http://www.w3.org/2000/svg">
 <g fill="none" stroke-linecap="round">
  <g transform="translate(0 -308.26772)">
   <path d="m57.6 742.2h948.8" stroke="#969696" stroke-width="1.875"/>
   <g stroke="#000" stroke-dasharray="3.75 7.5" stroke-miterlimit="2" stroke-width=".9375">
    <path d="m58.3 844.1h948.8"/>
    <path d="m58.3 641.8h948.8"/>
    <path d="m58.3 540.6h948.8"/>
   </g>
  </g>
  <g stroke="#000" stroke-linejoin="round" stroke-width="5.625">
   <path d="m554.3 336.5c-5.6 1.5-11.1 4-16.4 7.4-5.2 3.3-10.1 7.4-14.8 12-17.9 17.6-31.2 42.7-33.2 59.1-1.6 12.9 8.1 17 17.1 16.9 39.5-.4 196.1-1.8 215.2-4.3"/>
   <path d="m548.1 338.7c-11.5 4.6-19 14.8-27.4 24.7-7 8.3-11.9 16.3-17.8 25.1-6.1 10.5-16.2 26-10.1 37.9"/>
   <path d="m548.1 338.7c-19.7 6.8-35.1 23.1-45.1 37.3-5.2 7.5-9 14.4-11 19.2-5 11.6-4.3 21.9-1.1 28.6"/>
   <path d="m483.3 235.1s-67.9 127.2-87.6 164.6c-8.9 19.5 3.1 32.6 20 31.2 33-1.7 104.2-78.8 121.3-87.4"/>
  </g>
 </g>
</svg>
