<svg height="210mm" viewBox="0 0 1052.4 744.1" width="297mm" xmlns="http://www.w3.org/2000/svg">
 <g fill="none" stroke-linecap="round">
  <g transform="translate(0 -308.26772)">
   <path d="m57.6 742.2h948.8" stroke="#969696" stroke-width="1.875"/>
   <g stroke="#000" stroke-dasharray="3.75 7.5" stroke-miterlimit="2" stroke-width=".9375">
    <path d="m58.3 844.1h948.8"/>
    <path d="m58.3 641.8h948.8"/>
    <path d="m58.3 540.6h948.8"/>
   </g>
  </g>
  <path d="m361.4 384.2c48.1-9.2 58-34.4 55.1-43.4-3.2-9.6-26.7-7-51.4 33.8-26.7 43.6-21.6 55.3-10.9 56.6 8.8 1.1 22.4-2.6 37-9 36.2-16.3 151.7-85.8 191.6-111.4 12.9-8.3 27.5-16.9 35-19.7 6.3-2.3 11.6-3.3 17.2-3.3 4.8 0 8.8 1.9 11.3 4.5 4.4 4.4 4.4 12.4-4.3 23.1-26.6 32.9-44.6 48.9-38.7 62.2 2.1 4.7 8 6.3 15 6 9.8-.4 24.3-7.6 32.5-19.2" stroke="#000" stroke-linejoin="round" stroke-width="5.625"/>
 </g>
</svg>
