<svg height="210mm" viewBox="0 0 1052.4 744.1" width="297mm" xmlns="http://www.w3.org/2000/svg">
 <g fill="none" stroke-linecap="round">
  <g transform="translate(0 -308.26772)">
   <path d="m57.6 742.2h948.8" stroke="#969696" stroke-width="1.875"/>
   <g stroke="#000" stroke-dasharray="3.75 7.5" stroke-miterlimit="2" stroke-width=".9375">
    <path d="m58.3 844.1h948.8"/>
    <path d="m58.3 641.8h948.8"/>
    <path d="m58.3 540.6h948.8"/>
   </g>
  </g>
  <g stroke="#000" stroke-width="5.625">
   <g stroke-linejoin="round">
    <path d="m276.1 383.8 20 47.9"/>
    <ellipse cx="37.508301" cy="545.7132" rx="25.728558" ry="20.371416" transform="matrix(.79083574 -.61202846 .61202846 .79083574 0 0)"/>
    <path d="m296.2 431.7 59.6-42.2"/>
   </g>
   <path d="m352 392 75.7-55.9"/>
   <g stroke-linejoin="round">
    <path d="m427.8 336.1 25 47.8"/>
    <path d="m638.6 187.8c-55 18.8-185.8 196-185.8 196"/>
    <path d="m624.6 289.8s-134.4 92.8-116.8 94.8c12.3 2 47.4-44.7 52.6-82 5.7-40.6 44.3-104.4 80-114.7"/>
    <path d="m624.6 289.8 20 40.9"/>
   </g>
   <path d="m755.6 132.7-111 197.9"/>
  </g>
 </g>
</svg>
