<svg height="210mm" viewBox="0 0 1052.4 744.1" width="297mm" xmlns="http://www.w3.org/2000/svg">
 <g fill="none" stroke-linecap="round">
  <g transform="translate(0 -308.26772)">
   <path d="m57.6 742.2h948.8" stroke="#969696" stroke-width="1.875"/>
   <g stroke="#000" stroke-dasharray="3.75 7.5" stroke-miterlimit="2" stroke-width=".9375">
    <path d="m58.3 844.1h948.8"/>
    <path d="m58.3 641.8h948.8"/>
    <path d="m58.3 540.6h948.8"/>
   </g>
  </g>
  <g stroke="#000" stroke-linejoin="round" stroke-width="5.625">
   <path d="m249 431.9 60.6-109c26.4-48.6 52-72.9 91.2-88.5"/>
   <path d="m249 431.9 313.9-40.2"/>
   <path d="m562.9 391.7c21.5-2.4 35.6-6.2 51.4-19.8 12.8-11.2 18.6-26.1 16.7-30.9-2.8-7.3-34.7-8.6-58.5 30.7-26.3 43.1-18.8 59.4-2.7 59.3"/>
   <path d="m569.9 430.9c6.5.1 52.8 1.2 62.1 1.6 23 .8 45.2 15.1 38.5 47.4"/>
   <path d="m724.3 389-53.9 90.9"/>
   <path d="m899.4 389.3c-41.4 46-175.5 64.4-175.1-.3"/>
   <path d="m175.3 383.3 20 47.9s144.4-159.2 161.2-170.6"/>
  </g>
 </g>
</svg>
