<svg height="210mm" viewBox="0 0 1052.4 744.1" width="297mm" xmlns="http://www.w3.org/2000/svg">
 <g fill="none" stroke-linecap="round">
  <g transform="translate(0 -308.26772)">
   <path d="m57.6 742.2h948.8" stroke="#969696" stroke-width="1.875"/>
   <g stroke="#000" stroke-dasharray="3.75 7.5" stroke-miterlimit="2" stroke-width=".9375">
    <path d="m58.3 844.1h948.8"/>
    <path d="m58.3 641.8h948.8"/>
    <path d="m58.3 540.6h948.8"/>
   </g>
  </g>
  <g stroke="#000" stroke-linejoin="round" stroke-width="5.625">
   <path d="m284.6 387c40 3 59.7-35.8 56.6-44.3-5.4-14.5-29.3-4.3-53.1 35-29.5 48.3-21.2 58.1-3 52.4 19-7.6 34.2-18.6 57.4-47.8"/>
   <path d="m342.4 382.4c49-63.6 115.4-58.4 98.2-1.3"/>
   <path d="m440.6 381.1 94.4-98.8-53.2 98.8"/>
   <path d="m481.8 381.1 116.1-99.1 22 48.5"/>
   <path d="m619.9 330.5c20.4-8.4 68.1-35.1 88.1-36.1 19.1-.8 16.4 37.3 34.8 36.6 8.6-.3 13.5-5.3 18.8-10"/>
  </g>
 </g>
</svg>
