<svg height="210mm" viewBox="0 0 1052.4 744.1" width="297mm" xmlns="http://www.w3.org/2000/svg">
 <g fill="none" stroke-linecap="round">
  <g transform="translate(0 -308.26772)">
   <path d="m57.6 742.2h948.8" stroke="#969696" stroke-width="1.875"/>
   <g stroke="#000" stroke-dasharray="3.75 7.5" stroke-miterlimit="2" stroke-width=".9375">
    <path d="m58.3 844.1h948.8"/>
    <path d="m58.3 641.8h948.8"/>
    <path d="m58.3 540.6h948.8"/>
   </g>
  </g>
  <g stroke="#000">
   <g stroke-width="5.625">
    <path d="m413.7 386-48.6 29" stroke-linejoin="round"/>
    <path d="m571.4 430.9c17.9-11.4 39.2-32.5 58.4-32.6 19.1-.2 14.5 31.9 38.7 33.1 26.4 1.3 36.1.1 44-4.4 5.7-3.3 10.2-8.4 14.4-13.3" stroke-linejoin="round"/>
    <path d="m888.7 183.4-108.8 165.5"/>
    <g stroke-linejoin="round">
     <ellipse cx="412.50052" cy="772.35004" rx="25.728558" ry="20.371416" transform="matrix(.79083574 -.61202846 .61202846 .79083574 0 0)"/>
     <path d="m727 413.7 51.8-63.3"/>
    </g>
   </g>
   <g stroke-linejoin="round">
    <ellipse cx="800.18158" cy="-181.2021" rx="5.271423" ry="7.848564" stroke-width="14.034715" transform="matrix(.72846687 .68508103 -.68508103 .72846687 0 0)"/>
    <g stroke-width="5.625">
     <path d="m365.2 415c-79.3 49.2-130.7 106.1-113 116.7 10.1 5.8 23.2-6.8 50.8-41 24.4-32.4 54.6-73.9 69.3-116.9 7.5-21.6 4.8-37-7.8-37.8-12.5-.8-26.4 13.6-39.2 28.5"/>
     <path d="m570 431.7c5.4-3.3 11.7-10.5 6.5-17.1-2.6-3.3-4-4.5-11.9-4.4l-135 .6c-5.8 0-12.7.1-15.9-.7-9.6-2.4-7.9-13.2 0-24"/>
    </g>
   </g>
  </g>
 </g>
</svg>
