<svg height="210mm" viewBox="0 0 1052.4 744.1" width="297mm" xmlns="http://www.w3.org/2000/svg">
 <g fill="none" stroke-linecap="round">
  <g transform="translate(0 -308.26772)">
   <path d="m57.6 742.2h948.8" stroke="#969696" stroke-width="1.875"/>
   <g stroke="#000" stroke-dasharray="3.75 7.5" stroke-miterlimit="2" stroke-width=".9375">
    <path d="m58.3 844.1h948.8"/>
    <path d="m58.3 641.8h948.8"/>
    <path d="m58.3 540.6h948.8"/>
   </g>
  </g>
  <g stroke="#000" stroke-width="5.625">
   <g stroke-linejoin="round">
    <path d="m560.6 430.8c22.4-28.5 57.8-83.8 82-92.4 20.6-7.2 39.8.5 21.3 23.3-27.4 33.8-45.5 50.2-39.4 63.9 4.2 9.6 26 7 47.5-13.7"/>
    <path d="m672 411.9c10.8-10 64.8-75.8 64.8-75.8"/>
    <path d="m736.7 336 22 46.4"/>
   </g>
   <path d="m869.8 184.6-111.1 197.9"/>
   <g stroke-linejoin="round">
    <path d="m226.1 384.9 21.4 46.2 47.1-44.9"/>
    <path d="m294.6 386.2c52.5-48 155.8-139.8 123.9-150.8-14.6-5-40.2 11.7-87.4 89.6-47.5 82-46.6 108.8-27.7 105.5"/>
    <path d="m303.3 430.6c8.3.7 235.2-47.7 235.2-47.7l22.1 47.9"/>
   </g>
  </g>
 </g>
</svg>
