<svg height="210mm" viewBox="0 0 1052.4 744.1" width="297mm" xmlns="http://www.w3.org/2000/svg">
 <g fill="none" stroke-linecap="round">
  <g transform="translate(0 -308.26772)">
   <path d="m57.6 742.2h948.8" stroke="#969696" stroke-width="1.875"/>
   <g stroke="#000" stroke-dasharray="3.75 7.5" stroke-miterlimit="2" stroke-width=".9375">
    <path d="m58.3 844.1h948.8"/>
    <path d="m58.3 641.8h948.8"/>
    <path d="m58.3 540.6h948.8"/>
   </g>
  </g>
  <g stroke-linejoin="round" stroke-width="5.625">
   <g stroke="#000">
    <path d="m381.3 382.7 25.1-37.6"/>
    <path d="m354.3 336.9-42.4 73.1c-11.9 20.5 8.4 28.4 31.3 14.4 13.8-9.8 30.4-30.4 38.1-41.6"/>
    <path d="m403.7 335.8c1 .1 1.8.3 2.5.7.2.1.4.2.6.4 1.2.9 1.7 2.6 1 5.2-1.3 5.1-7.1 8-9.8 9-5.7 2-9.8-2.6-6.6-7.6 2-3.1 5.5-6.6 9.7-7.5.3-.1.6-.1.9-.1s.7-.1 1-.1c.8 0 1.6.1 2.4.3"/>
    <path d="m398.9 350.9c26.5-6.9 67.9-23 73.5-26.5 13.3-8.1 42.2-26.6 36.9-44.3-2.8-7.3-34.7-8.6-58.5 30.7-26.3 43.1-17.7 60.3-4.2 58.6 6.4-.6 13.2-1.8 23-7.8"/>
    <path d="m637.4 281.5c-50.8 56.8-136.9 121.8-153.6 138.3-14.5 14.5-44.1 42.5-35.5 53.5.9 3 16.3 22.9 59.8-38.1 26.9-36.9 54.6-73.4 69.3-116.4 7-24.7 2.7-41.6-15.8-36.7-24.7 6.6-70.3 67.1-92 79.4"/>
   </g>
   <g stroke="#000002">
    <path d="m637.4 281.5 22.7 48.5 25.4-32.4"/>
    <path d="m685.5 297.6c3-4.3 35.5-45.3 41.7-50.3 23.7-19.2 60.9-14.6 37.5 14.4-27.4 33.8-45.5 50.2-39.4 63.9 4.2 9.6 21.8 5.3 36.5-3.7l19.7-12"/>
   </g>
  </g>
 </g>
</svg>
