<svg height="210mm" viewBox="0 0 1052.4 744.1" width="297mm" xmlns="http://www.w3.org/2000/svg">
 <g fill="none" stroke-linecap="round">
  <g transform="translate(0 -308.26772)">
   <path d="m57.6 742.2h948.8" stroke="#969696" stroke-width="1.875"/>
   <g stroke="#000" stroke-dasharray="3.75 7.5" stroke-miterlimit="2" stroke-width=".9375">
    <path d="m58.3 844.1h948.8"/>
    <path d="m58.3 641.8h948.8"/>
    <path d="m58.3 540.6h948.8"/>
   </g>
  </g>
  <g stroke="#000" stroke-linejoin="round" stroke-width="5.625">
   <path d="m702.1 392.1c10.5-13.6 19.9-25.8 20.8-27 2.7-3.5 5.3-6.7 7.7-9.6 2-2.4 3.9-4.5 5.8-6.4 16.9-17.9 26.9-18.3 33.4-5.7 6.5 12.7 4 18.2 12.3 27.2 15.9 17.3 43.8-27.8 34.5-34.3-6.3-4.4-25.9 3.2-49.4 42-14.3 23.5-19.8 37.9-19.5 45.7.2 5.7 3.3 8 8.2 7.9 5-.1 31-.8 38.4-5"/>
   <path d="m628.8 358.8c15.9-32 75.6-30.6 48.2 3.3-27.4 33.8-45.5 50.2-39.4 63.9 2.7 6.1 10.8 6.7 20.2 3.9 11.6-3.4 28.8-18 44.4-37.8"/>
   <path d="m799.1 415c.8.1 1.4.2 1.9.5.2.1.3.2.5.3.9.7 1.3 2 .8 4-1 3.9-5.4 6.1-7.5 6.9-4.3 1.6-7.6-2-5.1-5.9 1.6-2.4 4.2-5.1 7.4-5.7.2 0 .4-.1.7-.1s.5-.1.8-.1c.6 0 1.2.1 1.9.3"/>
   <path d="m214.4 268.5c30.5-43.9 89.3-47.7 62.3 9.6l-72.3 152.9"/>
   <path d="m204.4 431.1s49.1-67.4 80.8-87.2c3.5-2.1 7.1-4 11-5.7 19.6-8.3 35 2.5 12.3 40.5l-31.2 52.3"/>
   <path d="m277.3 431 254.8-47 20 47.9"/>
  </g>
 </g>
</svg>
