<svg height="210mm" viewBox="0 0 1052.4 744.1" width="297mm" xmlns="http://www.w3.org/2000/svg">
 <g fill="none" stroke-linecap="round">
  <g transform="translate(0 -308.26772)">
   <path d="m57.6 742.2h948.8" stroke="#969696" stroke-width="1.875"/>
   <g stroke="#000" stroke-dasharray="3.75 7.5" stroke-miterlimit="2" stroke-width=".9375">
    <path d="m58.3 844.1h948.8"/>
    <path d="m58.3 641.8h948.8"/>
    <path d="m58.3 540.6h948.8"/>
   </g>
  </g>
  <g stroke="#000">
   <g stroke-width="5.625">
    <path d="m445.2 394.9c3-4.3 37.2-43.3 43.4-48.3 23.7-19.2 60.9-14.6 37.5 14.4-27.4 33.8-45.5 50.2-39.4 63.9 2.1 4.7 7.8 6.2 13.9 6.4 1.5.1 4.8.1 10.3-2.7" stroke-linejoin="round"/>
    <path d="m526.9 338.2c14.5 10.1 4.3 27.8-12.4 44.2-14.4 14-23.4 26.4-29.5 38.7"/>
    <path d="m526.9 338.2c.8-1.1 3.9 6.1.7 14.2-3.2 8.4-12.8 17.8-18.3 22.9-10.8 10.1-30.6 29-24.3 45.7"/>
   </g>
   <g stroke-width="2.8125">
    <path d="m518.3 336.5c11.3 1.3 8.8 6.5 9.1 11"/>
    <path d="m490.1 413.8c-2.7 4.9-3.8 12 2.3 14.5"/>
    <path d="m482.4 415.2c-.1 5.7 2.9 11.5 4.9 13.1"/>
   </g>
   <g stroke-linejoin="round" stroke-width="5.625">
    <path d="m338.2 431.2s13.7-33.2 37.5-26.3c20.4 5.9 24.2 45.5 48.5 15.6l20.7-25.5"/>
    <path d="m510.7 428.6c11.8-8 38.5-25.2 59.5-25.4 29.3.9 28.6 50.7 57.7 16.9"/>
   </g>
  </g>
  <g stroke-linejoin="round" stroke-width="5.625">
   <path d="m761 237.1c-.5-.5-.8-.8-1.4-1.1-.2-.1-.7-.4-.9-.5s-.4-.2-.6-.2c-9 1.9-6.3 3.2-9 1.9-1.5-.7 2.2 10.4 5.3 9.2 2 .3 6.1-.4 7.6-3.8.7-1.7.6-3.2-.1-4.4-.1-.2-.3-.3-.4-.6-2.6-7.5-15-.3-23.3 7.8-3.9 3.8-11.1 11.6-17.1 21.7-12.5 20.1-82.7 141.6-93.1 153" stroke="#00001f"/>
   <path d="m544.6 582.7a5.5 1.8 0 0 1 -5.5 1.8 5.5 1.8 0 0 1 -5.5-1.8 5.5 1.8 0 0 1 5.4-1.8 5.5 1.8 0 0 1 5.5 1.8h-5.5z" stroke="#000" transform="matrix(.86958032 -.49379153 .49379153 .86958032 0 0)"/>
  </g>
 </g>
</svg>
