<svg height="210mm" viewBox="0 0 1052.4 744.1" width="297mm" xmlns="http://www.w3.org/2000/svg">
 <g fill="none" stroke="#000" stroke-linecap="round">
  <g transform="translate(0 -308.26772)">
   <path d="m57.6 742.2h948.8" stroke-width="1.875"/>
   <g stroke-dasharray="3.75 7.5" stroke-miterlimit="2" stroke-width=".9375">
    <path d="m58.3 844.1h948.8"/>
    <path d="m58.3 641.8h948.8"/>
    <path d="m58.3 540.6h948.8"/>
   </g>
  </g>
  <path d="m530.5 337.7c15.4 7.9 4.2 30.4-12.1 46.3-14 13.6-22.7 25.7-28.7 37.7" stroke-width="5.472634"/>
  <path d="m530.7 339.2c.8-1.1 3.6 6 .5 13.9-3.2 8.2-12.5 19.1-17.8 24.2-10.5 9.9-29.8 28.2-23.7 44.5" stroke-width="5.472634"/>
  <g stroke-width="2.736317">
   <path d="m520.3 337.6c13.9-1.2 10.5 8.5 10.3 13.7"/>
   <path d="m497 411.7c-3.2 4.4-7.2 16.1 2.6 17.8"/>
   <path d="m487.2 415.8c-.1 5.5 2.8 11.2 4.7 12.8"/>
  </g>
  <path d="m436.7 431.3c8.5-14.7 21.9-36.7 31.1-50.7 7.6-11.5 16.6-23.3 22.4-29.4 6.6-7 17.4-15.2 32.7-15.1 13 .1 20.7 10.2 7.1 27-26.6 32.9-44.6 48.9-38.7 62.2 2.1 4.7 8 6.4 15 6 27-1.4 46-36.4 76.9-86.3 14.7-23.7 49-85.9 61.7-110" stroke-linejoin="round" stroke-width="5.625"/>
 </g>
</svg>
