<svg height="210mm" viewBox="0 0 1240.2 744.1" width="350mm" xmlns="http://www.w3.org/2000/svg">
 <g fill="none" stroke="#000" stroke-linecap="round">
  <g transform="translate(0 -308.26772)">
   <path d="m16.3 742.2h1207.6" stroke-width="1.875"/>
   <g stroke-dasharray="3.75 7.5" stroke-miterlimit="2" stroke-width=".9375">
    <path d="m17 844.1h1207.6"/>
    <path d="m17 641.8h1207.6"/>
    <path d="m17 540.6h1207.6"/>
   </g>
  </g>
  <g stroke-linejoin="round">
   <g stroke-width="5.625">
    <path d="m792.4 431.4c1.9-.1 4.1-.4 6.5-1.2 15.2-3.3 71-38.9 88.1-48.8l22.4 50.2"/>
    <path d="m909.5 431.6c18.7-16.7 34.3-33.4 49.7-34.3 20.1-.2 16.5 32.9 34.6 34.3 4.2 0 17.3-1.2 20.5-1.3"/>
    <path d="m821.2 334.4c54.3-11 95.5-79.5 89.2-96.2-5.5-14.4-40.3 8.9-87.4 86.8-45.4 78.3-46.9 106.9-30.5 106.4"/>
    <path d="m1117.9 338.4c-12.4 8-75.7 77.6-75.7 77.6"/>
   </g>
   <path d="m1122.8 407.1c-13 3.5-36.7 9.9-40.2 10.9-5.2 1.4-9.2 5.1-9.2 7.7 0 3.7.8 5.8 5.8 6.3 10.8-.7 34.8-26.4 41.7-37 20.9-32.2 25.1-71.2-3-56.5" stroke-width="5.419139"/>
   <g stroke-width="5.625">
    <path d="m1122.8 407.1c13.3-3.1 22-5.7 27.6-5.9 17.5-.5 15.5 47.6 45.2 22.9"/>
    <ellipse cx="386.19882" cy="690.35614" rx="25.728558" ry="20.371416" transform="matrix(.79083574 -.61202846 .61202846 .79083574 0 0)"/>
    <path d="m717.8 292.2c-39.2 19.6-104 53.3-132.3 73.8-32.5 23.2-40.2 52.7-38 60 .9 3 16.3 22.9 59.8-38.1 26.9-36.9 54.6-73.4 69.3-116.4 12.2-32.4-1.4-56.7-44.4-11.6"/>
    <path d="m543 238s-379.1 188.3-397.9 191.5c-25.3 3.6-51.5 14.5-71 27.7-13.1 9-24.4 19.4-32.1 29.4-16.8 21.9-18.4 41.7 6.1 46.3 0 0 31.7 6.1 62.3-46.2l89.2-152.4"/>
    <g transform="matrix(.79083574 -.61202846 .61202846 .79083574 0 0)">
     <ellipse cx="280.15234" cy="540.98724" rx="25.728558" ry="20.371416"/>
     <ellipse cx="559.52094" cy="948.41559" rx="25.728558" ry="20.371416"/>
    </g>
   </g>
  </g>
 </g>
</svg>
