<svg height="210mm" viewBox="0 0 1052.4 744.1" width="297mm" xmlns="http://www.w3.org/2000/svg">
 <g fill="none" stroke-linecap="round">
  <g transform="translate(0 -308.26772)">
   <path d="m57.6 742.2h948.8" stroke="#969696" stroke-width="1.875"/>
   <g stroke="#000" stroke-dasharray="3.75 7.5" stroke-miterlimit="2" stroke-width=".9375">
    <path d="m58.3 844.1h948.8"/>
    <path d="m58.3 641.8h948.8"/>
    <path d="m58.3 540.6h948.8"/>
   </g>
  </g>
  <g stroke="#000" stroke-linejoin="round" stroke-width="5.625">
   <path d="m243.9 420.6c.7.2 1.3.5 1.7.8.1.1.3.2.4.4.7.8.8 2 0 3.8-1.6 3.4-6 4.7-8.1 5-4.2.7-6.6-3.1-3.6-6.2 1.8-1.9 4.8-3.9 7.8-4h.6c.2 0 .5.1.7.1.6.1 1.1.3 1.7.6"/>
   <path d="m238 430.6c11.1 7.6 246.6-89.2 246.6-89.2"/>
   <path d="m477.3 348.2 46.6-71.5"/>
   <path d="m523.9 276.7s36.4-53.1 39.1-56.8c9-12.3 18.8-23.9 28.8-23.5 13.6.5 14 35.4 30.3 33 4.6-.7 10.5-4.5 18.4-13.2"/>
   <ellipse cx="172.08104" cy="586.90454" rx="25.728558" ry="20.371416" transform="matrix(.79083574 -.61202846 .61202846 .79083574 0 0)"/>
   <path d="m653.4 386.5 20.3 44.3"/>
   <path d="m543.1 437.9 110.3-51.4"/>
   <path d="m543.1 437.9c-36.6 18.6-68.9 82.9-64 91.1 0 0 18.2 27.1 57.1-39.7 16-26.2 15.8-67 28.8-84 10.3-13.2 19.8-22.6 30.8-29.8 28.2-18.6 26.8-41.3 9.6-40.4-12.4.7-21.5 3.6-34.5 19.5"/>
   <path d="m724.5 433.1c-24.1 18.1-98.7 71-91.3 94.4 1.1 2.9 22.5 22.8 62-40.9l83.3-151.6-104.8 95.9"/>
  </g>
 </g>
</svg>
