<svg height="210mm" viewBox="0 0 1052.4 744.1" width="297mm" xmlns="http://www.w3.org/2000/svg">
 <g fill="none" stroke-linecap="round">
  <g transform="translate(0 -308.26772)">
   <path d="m57.6 742.2h948.8" stroke="#969696" stroke-width="1.875"/>
   <g stroke="#000" stroke-dasharray="3.75 7.5" stroke-miterlimit="2" stroke-width=".9375">
    <path d="m58.3 844.1h948.8"/>
    <path d="m58.3 641.8h948.8"/>
    <path d="m58.3 540.6h948.8"/>
   </g>
  </g>
  <g stroke-linejoin="round">
   <path d="m551.3 396.4a19.2 25.1 41.6 0 1 -14.3 31.3 19.2 25.1 41.6 0 1 -27.6-6.8 19.2 25.1 41.6 0 1 14.3-31.3 19.2 25.1 41.6 0 1 27.6 6.8z" stroke="#000" stroke-width="5.625"/>
   <path d="m514.3 398c5.2-6.7 10.5-13.7 15.9-20.7 21.1-27.5 40.5-50 58.7-68.9 19-19.7 44.2-36.1 52.6-16.2 7.2 15.3-6.2 50.9-28.6 90.5-26.3 44.8-62.9 88.9-90.3 97.3" stroke="#000" stroke-width="5.625"/>
   <g stroke-width="5.624999">
    <path d="m463.4 335.9s-31.1 62.1-35.1 72.5c-5.5 14.2 4 23.1 17.2 23 3.3 0 6.2-.3 9.4-.9 12.9-2.3 28.6-13.1 67-40" stroke="#010000"/>
    <path d="m522.7 480c-3.8 1.2-5.4-2-3.1-4.1 11.5-11 98.6-39.4 98.6-39.4l21.3 43.5" stroke="#000"/>
   </g>
  </g>
 </g>
</svg>
