<svg height="210mm" viewBox="0 0 1052.4 744.1" width="297mm" xmlns="http://www.w3.org/2000/svg">
 <g fill="none" stroke-linecap="round">
  <g transform="translate(0 -308.26772)">
   <path d="m57.6 742.2h948.8" stroke="#969696" stroke-width="1.875"/>
   <g stroke="#000" stroke-dasharray="3.75 7.5" stroke-miterlimit="2" stroke-width=".9375">
    <path d="m58.3 844.1h948.8"/>
    <path d="m58.3 641.8h948.8"/>
    <path d="m58.3 540.6h948.8"/>
   </g>
  </g>
  <g stroke="#000" stroke-width="5.625">
   <g stroke-linejoin="round">
    <path d="m443.9 396.3a19.2 25.1 41.6 0 1 -14.3 31.3 19.2 25.1 41.6 0 1 -27.6-6.8 19.2 25.1 41.6 0 1 14.3-31.3 19.2 25.1 41.6 0 1 27.6 6.8z"/>
    <path d="m473.5 336.4 22.1 46.2"/>
    <path d="m480.7 336.3 22.1 46.2"/>
   </g>
   <path d="m473.5 336.4 7.2-.1"/>
   <path d="m477.5 337.7 21 43.9" stroke-linejoin="round"/>
   <path d="m495.5 382.6 7.2-.1"/>
   <path d="m411.8 392.7 61.7-56.3" stroke-linejoin="round"/>
  </g>
 </g>
</svg>
