<svg height="210mm" viewBox="0 0 1052.4 744.1" width="297mm" xmlns="http://www.w3.org/2000/svg">
 <g fill="none" stroke-linecap="round">
  <g transform="translate(0 -308.26772)">
   <path d="m57.6 742.2h948.8" stroke="#969696" stroke-width="1.875"/>
   <g stroke="#000" stroke-dasharray="3.75 7.5" stroke-miterlimit="2" stroke-width=".9375">
    <path d="m58.3 844.1h948.8"/>
    <path d="m58.3 641.8h948.8"/>
    <path d="m58.3 540.6h948.8"/>
   </g>
  </g>
  <g stroke="#000" stroke-linejoin="round">
   <g stroke-width="5.625">
    <path d="m559.5 362.4 34.3-26.7 21.9 48.4"/>
    <path d="m544.9 287.9-39 72.4c-8.4 15.5 5 26 21.5 22.2 2.8-.7 9.4-2.3 14-6l18.1-14.2"/>
    <path d="m274.7 430.9c50.4-65.5 115.5-58.4 97 .6l53.6-.6 119.6-143"/>
    <path d="m420.4 412.4c1.2.1 2.2.4 3.1.8.3.1.5.3.8.5 1.5 1.2 2 3.1 1.2 6.3-1.6 6.2-8.6 9.7-11.9 11-6.9 2.5-12-3.2-8-9.3 2.5-3.8 6.7-8 11.7-9.1.3-.1.7-.1 1-.2.4-.1.8-.1 1.3-.1 1 0 2 .1 3 .4"/>
   </g>
   <path d="m418 417.9c.6.1 1.1.2 1.5.4.1.1.3.1.4.2.7.5 1 1.5.6 3-.8 2.9-4.1 4.6-5.6 5.2-3.3 1.2-5.7-1.5-3.8-4.4 1.2-1.8 3.2-3.8 5.6-4.3.2 0 .3-.1.5-.1h.6c.5 0 .9.1 1.4.2" stroke-width="10.3125"/>
   <g stroke-width="5.625">
    <path d="m615.6 384.1 61.2-100.8"/>
    <path d="m676.8 283.3 24 48"/>
    <path d="m700.9 330.9c37.5-22.8 57.8-33.4 72.9-33.2 17.5.2 14.4 34.3 32.5 33.9 5.8-.1 13.3-6.5 17.8-11.9"/>
   </g>
  </g>
 </g>
</svg>
