<svg height="210mm" viewBox="0 0 1346.5 744.1" width="380mm" xmlns="http://www.w3.org/2000/svg">
 <g fill="none" stroke-linecap="round">
  <g transform="translate(0 -308.26772)">
   <path d="m37.1 529.3h1274.1" stroke="#969696" stroke-width="1.875"/>
   <g stroke="#000" stroke-dasharray="3.75 7.5" stroke-miterlimit="2" stroke-width=".9375">
    <path d="m37.8 631.3h1274.1"/>
    <path d="m37.8 428.9h1274.1"/>
    <path d="m37.8 327.7h1274.1"/>
   </g>
   <path d="m37.1 933.5h1274.1" stroke="#969696" stroke-width="1.875"/>
   <g stroke="#000" stroke-dasharray="3.75 7.5" stroke-miterlimit="2" stroke-width=".9375">
    <path d="m37.8 1035.4h1274.1"/>
    <path d="m37.8 833.1h1274.1"/>
    <path d="m37.8 731.9h1274.1"/>
   </g>
  </g>
  <g stroke="#000">
   <g stroke-linejoin="round">
    <ellipse cx="1139.6675" cy="-226.47015" rx="3.366329" ry="5.01209" stroke-width="8.900769" transform="matrix(.72846687 .68508103 -.68508103 .72846687 0 0)"/>
    <ellipse cx="796.52228" cy="-595.39056" rx="3.366329" ry="5.01209" stroke-width="8.900768" transform="matrix(.72846687 .68508103 -.68508103 .72846687 0 0)"/>
    <g stroke-width="5.625">
     <path d="m59.5 68.6 21.1 48.8"/>
     <path d="m245.9 124.9c-14.4 10.7-26 21.2-37.2 39.5-8.8 14.1-17.7 28.7-20 46.7"/>
    </g>
   </g>
   <path d="m260.6 125.2c-9.9-2.9-18.2 4.1-25.7 10.3" stroke-width="2.8125"/>
   <path d="m137.3 218.6c22.5-.5 60.6-24.2 76-34 16.3-10.4 29.7-20 42.2-32.1 10.8-10.5 12.4-22 7.9-27-5.4-6-30.7-3.9-55.3 36.8-25.4 41.6-22.8 55.9-10.2 56.1" stroke-linejoin="round" stroke-width="5.624999"/>
   <path d="m254.7 123c-13.1 1.2-26.3 9.8-34.4 19-9.1 10.3-11.9 13.6-18 22.9-10.2 17.6-22.2 41.6-10.2 51.9" stroke-linejoin="round" stroke-width="5.625"/>
   <path d="m258 124.5c-7-1.3-13.2 2.5-18.2 7" stroke-width="2.8125"/>
   <path d="m202.5 177.5c-8.6 16.5-11.5 26.3-11.4 32 0 2.2.6 3.9 1.4 5 .6.9 1.5 1.7 2.4 2.1.5.2 1 .2 1.6.3" stroke-width="2.8125"/>
   <path d="m197.8 218.4c27 1 63.2-30.7 84.1-30.8 16-.6 18.8 30.9 32.6 30.7 8.7-.1 14.1-5.3 19.4-11.5" stroke-linejoin="round" stroke-width="5.625"/>
   <ellipse cx="246.34508" cy="60.263058" rx="4.609393" ry="6.862875" stroke-linejoin="round" stroke-width="5.625" transform="matrix(.72846687 .68508103 -.68508103 .72846687 0 0)"/>
   <path d="m483 124.6c15.4 7.9 4.2 30.4-12.1 46.3-14 13.6-22.7 25.7-28.7 37.7" stroke-width="5.472634"/>
   <path d="m483.2 126.1c.8-1.1 3.6 6 .5 13.9-3.2 8.2-12.5 19.1-17.8 24.2-10.5 9.9-29.8 28.2-23.7 44.5" stroke-width="5.472634"/>
   <g stroke-width="2.736317">
    <path d="m472.8 124.6c13.9-1.2 10.5 8.5 10.3 13.7"/>
    <path d="m449.5 198.6c-3.2 4.4-7.2 16.1 2.6 17.8"/>
    <path d="m439.7 202.8c-.1 5.5 2.8 11.2 4.7 12.8"/>
   </g>
   <g stroke-linejoin="round" stroke-width="5.625">
    <path d="m389.2 218.2c8.5-14.7 21.9-36.7 31.1-50.7 7.6-11.5 16.6-23.3 22.4-29.4 6.6-7 17.4-15.2 32.7-15.1 13 .1 20.7 10.2 7.1 27-26.6 32.9-44.6 48.9-38.7 62.2 2.1 4.7 8 6.3 15 6 9.8-.4 24.3-7.6 32.5-19.2"/>
    <path d="m687.4 170.3 33.3 47.9"/>
    <path d="m687.4 170.3 24 48"/>
    <path d="m696.8 170.3 23.8 47.9"/>
    <path d="m692.9 170.2 24 48"/>
   </g>
   <path d="m687.2 169.3 9.5-.1" stroke-width="3.75"/>
   <path d="m711.2 219.2h9" stroke-width="3.75"/>
   <path d="m720.7 218.2c22.8-55 103-72.9 97.5-.3" stroke-linejoin="round" stroke-width="5.625"/>
   <path d="m594 142.2c7.9-7.4 17.1-17.5 31.2-19.2 3.2-.4 6.2-.1 8.8.9 2.7.9 4.9 2.5 6.4 4.6 3.6 5.1 3 13.2-5 22.8-6 7.3-11.8 13.6-17 19.3-5.3 5.7-11.2 12.1-17.3 19.5-8 9.7-8.6 17.8-5 22.8 1.5 2.1 3.7 3.7 6.4 4.6 2.6.9 5.6 1 8.8.8 19.4-.7 23.5-7.8 76-48" stroke-linejoin="round" stroke-width="5.624999"/>
   <g stroke-width="5.625">
    <path d="m818.1 217.9 102.1-195.7" stroke-linejoin="round"/>
    <path d="m1123.3 64.1c18.1-23.7 46-42.5 61-41.8 42 .5-38.3 190.9-93.5 195.7-26.8.8-21.5-26.6-45.9-26.5-16 .1-29.5 13-39.3 26.3" stroke-linejoin="round"/>
    <path d="m1297.5 21.7-108 196.9"/>
    <path d="m87.1 622.2 362.5-98.3c30.2-8.2 49.4-23.3 66.1-42.6 18.4-21.2 28.7-43.8 25.4-52.6-5.5-14.4-40.3 8.9-87.6 86.9-44.2 76.4-40.1 107.3-24.3 106.5 28-1.3 45.2-30.2 62.8-30.5 19.6-.3 17.3 30.3 36.1 30.4 22.3 0 45.7-20.8 115.6-94.6l-48.3 94.7" stroke-linejoin="round"/>
    <path d="m522.8 431.7c-43.7 54.6-78.5 106.7-101.5 161.8"/>
   </g>
   <path d="m511.8 441.8c-32.6 38.3-62.7 81.7-84.4 130.9" stroke-width="7.5"/>
   <path d="m540.5 430.1c-4.7-13.1-19.7 5.3-27 14.8" stroke-width="3.75"/>
   <g stroke-width="5.625">
    <path d="m424.4 586.2c-6.2 14.2-11.6 39 13.4 34.8"/>
    <g stroke-linejoin="round">
     <path d="m66.6 575.8 20.5 46.3"/>
     <path d="m956.4 479.3c-139.3 61.4-241.3 51.2-244.9-.3"/>
    </g>
   </g>
  </g>
 </g>
</svg>
