<svg height="210mm" viewBox="0 0 1052.4 744.1" width="297mm" xmlns="http://www.w3.org/2000/svg">
 <g fill="none" stroke-linecap="round">
  <g transform="translate(0 -308.26772)">
   <path d="m57.6 742.2h948.8" stroke="#969696" stroke-width="1.875"/>
   <g stroke="#000" stroke-dasharray="3.75 7.5" stroke-miterlimit="2" stroke-width=".9375">
    <path d="m58.3 844.1h948.8"/>
    <path d="m58.3 641.8h948.8"/>
    <path d="m58.3 540.6h948.8"/>
   </g>
  </g>
  <g stroke="#000" stroke-width="5.625">
   <path d="m628.2 235.5-113.1 196.5"/>
   <path d="m515.1 432 166.5-144.4-41.7 94.9" stroke-linejoin="round"/>
   <path d="m628.2 235.5s-112.4 148.3-156 175.2c-14.3 10.6-40.4 19.9-63.9 20.4-39.7 1-54.8-40.5-111-39.1-56.1 1.3-104.4 40.1-104.4 40.1"/>
   <g stroke-linejoin="round">
    <path d="m702.2 315c-23.9 23.3-53.7 52.6-66.1 57.6"/>
    <path d="m649.9 347.3a14.6 19.1 41.6 0 1 -10.9 23.9 14.6 19.1 41.6 0 1 -21-5.2 14.6 19.1 41.6 0 1 10.9-23.9 14.6 19.1 41.6 0 1 21 5.2z"/>
    <path d="m716 382.3 60.7-.2"/>
    <path d="m779.2 371.5c.6.1 1.2.2 1.6.4.1.1.3.2.4.2.8.6 1.1 1.6.6 3.3-.8 3.2-4.5 5-6.2 5.7-3.6 1.3-6.2-1.6-4.2-4.8 1.3-2 3.5-4.2 6.1-4.7.2 0 .4-.1.5-.1h.7c.5 0 1 .1 1.5.2"/>
    <path d="m702.2 315c14.3-14.2 25.4-21.9 33.6-25.5 3.8-1.6 7.5-2.5 10.9-2.5 13.7-.3 20.7 13.1 1.4 43l-33.6 52.1"/>
    <path d="m776.7 382.1 33.9-19.5c22.3-11.9 49.8-30.8 53-32.8 22.6-16.6 36-34 21.6-41.1-9.2-4.4-24.1 1.8-41.4 30.4-27 44.2-23.3 64.3-9.5 62.5 9.5-1.4 17.4-4.6 22.6-8.1"/>
   </g>
  </g>
 </g>
</svg>
