<svg height="210mm" viewBox="0 0 1052.4 744.1" width="297mm" xmlns="http://www.w3.org/2000/svg">
 <g fill="none" stroke="#000" stroke-linecap="round">
  <g transform="translate(0 -308.26772)">
   <path d="m57.6 742.2h948.8" stroke-width="1.875"/>
   <g stroke-dasharray="3.75 7.5" stroke-miterlimit="2" stroke-width=".9375">
    <path d="m58.3 844.1h948.8"/>
    <path d="m58.3 641.8h948.8"/>
    <path d="m58.3 540.6h948.8"/>
   </g>
  </g>
  <g stroke-width="5.625">
   <path d="m471.6 399.6c3-4.3 32.6-45.1 40.6-53.2 21.6-21.6 60.9-14.6 37.5 14.4-27.4 33.8-45.5 50.2-39.4 63.9 4.2 9.6 28.5 7.2 41.9-3.7 6.9-5.2 36.8-34.3 36.8-34.3" stroke-linejoin="round"/>
   <path d="m550.6 338c14.5 10.1 4.3 27.8-12.4 44.2-14.4 14-23.4 26.4-29.5 38.7"/>
   <path d="m550.6 338c.8-1.1 3.9 6.1.7 14.2-3.2 8.4-12.8 17.8-18.3 22.9-10.8 10.1-30.6 29-24.3 45.7"/>
  </g>
  <g stroke-width="2.8125">
   <path d="m542 336.2c11.3 1.3 8.8 6.5 9.1 11"/>
   <path d="m513.8 413.5c-2.7 4.9-3.8 12 2.3 14.5"/>
   <path d="m506.1 414.9c-.1 5.7 2.9 11.5 4.9 13.1"/>
  </g>
  <path d="m343.2 431.9c54.4-65.5 120.8-57.2 105.5-1l22.9-31.3" stroke-linejoin="round" stroke-width="5.625"/>
  <path d="m643.8 413.7c21.7-11.6 45.8-24.5 48.8-26.4 7.2-4.5 15.1-9 20.2-13.4 12.8-11.2 18.6-26.1 16.7-30.9-2.8-7.3-34.7-8.6-58.5 30.7-26.3 43.1-17.7 60.3-4.2 58.6 9.2-1.4 15.1-5.1 15.1-5.1 13.2-9.2 19.8-16.7 25.1-22.8" stroke-linejoin="round" stroke-width="5.625"/>
  <path d="m709.6 344.3c-30.3 19.2-39.8 50.5-52.2 79" stroke-width="4.6875"/>
  <path d="m702.6 344.3c-17.9 10.4-41.1 45.1-46.5 68.6" stroke-width="4.6875"/>
  <path d="m663.2 411.9c-4 10.7-6.4 18.8 3.6 20.4" stroke-width="2.8125"/>
  <path d="m724 341c-7.4-2.4-11 2.2-15.8 5.2" stroke-width="2.8125"/>
  <path d="m699.2 349c-28 20.5-28.9 42.2-43.4 69.6" stroke-width="4.6875"/>
  <path d="m588.9 386.6 20.5 45 34.3-18" stroke-linejoin="round" stroke-width="5.625"/>
 </g>
</svg>
