<svg height="210mm" viewBox="0 0 1052.4 744.1" width="297mm" xmlns="http://www.w3.org/2000/svg">
 <g fill="none" stroke-linecap="round">
  <g transform="translate(0 -308.26772)">
   <path d="m57.6 742.2h948.8" stroke="#969696" stroke-width="1.875"/>
   <g stroke="#000" stroke-dasharray="3.75 7.5" stroke-miterlimit="2" stroke-width=".9375">
    <path d="m58.3 844.1h948.8"/>
    <path d="m58.3 641.8h948.8"/>
    <path d="m58.3 540.6h948.8"/>
   </g>
  </g>
  <g stroke="#000">
   <g stroke-linejoin="round" stroke-width="5.625">
    <path d="m770.2 344.4 83.8-50.7"/>
    <path d="m710.7 392.6c-1.2.5-7.1 5.1-14.4 10.8-12.7 10.1-29.4 23.6-31.5 24.8-3 1.7-18.8 15.6-18.8 15.6-34.9 27.8-66.5 73.3-60.4 87.5 5.7 13.2 69.5-28.4 95.8-138.9 17.5-80 53.4-142.9 90.7-155.8"/>
    <ellipse cx="517.35413" cy="712.94507" rx="62.130169" ry="44.633743" transform="matrix(.88109295 -.47294313 .47294313 .88109295 0 0)"/>
    <path d="m710.7 392.6 46.4-38.6"/>
   </g>
   <path d="m849.7 361.5c-13.8 27.9-38.1 52.4-66.8 70.7" stroke-width="5.385754"/>
   <path d="m850.9 370.5c-15.9 21.3-33.1 41.5-54 58.5" stroke-width="5.385754"/>
   <path d="m850 377c-14.3 21.6-19.7 29.6-41.7 46.5" stroke-width="7.181006"/>
   <path d="m798.6 420.1c-10.1 9.6-24.3 12.2-31.1 10.7" stroke-width="3.590503"/>
   <path d="m841.7 347.7c2.2 2.5 8.7 12.2 1.3 24.5" stroke-width="3.590503"/>
   <g stroke-linejoin="round" stroke-width="5.625">
    <path d="m195.5 235.1-42.4 73.1c-14.1 24.3 28.4 36.7 50.1-1.5"/>
    <path d="m283.9 430.7s44.6-32.4 61.8-29.2c16.2 3 15.6 40.6 40.7 25.2.8-.5 3.5-2.2 7.3-4.5"/>
    <path d="m327.4 405.5c5.4-2.4 18.6-2.2 26.5 15 5.6 12.2 13.9 9.5 20.5 9.9"/>
    <path d="m342 403.6c6.7 5.9 6.3.5 21.2 23.1"/>
    <path d="m531.1 386.1-23.6 45.3"/>
   </g>
  </g>
 </g>
</svg>
