<svg height="210mm" viewBox="0 0 1052.4 744.1" width="297mm" xmlns="http://www.w3.org/2000/svg">
 <g fill="none" stroke-linecap="round">
  <g transform="translate(0 -308.26772)">
   <path d="m57.6 742.2h948.8" stroke="#969696" stroke-width="1.875"/>
   <g stroke="#000" stroke-dasharray="3.75 7.5" stroke-miterlimit="2" stroke-width=".9375">
    <path d="m58.3 844.1h948.8"/>
    <path d="m58.3 641.8h948.8"/>
    <path d="m58.3 540.6h948.8"/>
   </g>
  </g>
  <g stroke="#000" stroke-linejoin="round" stroke-width="5.625">
   <path d="m731.4 384.7-25.3 46.6"/>
   <path d="m710.5 431.2-12 .2"/>
   <path d="m738.3 381.6-27.7 49.5"/>
   <path d="m738.3 381.6-14.1-.1"/>
   <path d="m729.5 382.8-25.3 46.6"/>
   <path d="m106.3 430.8 173.2 1 22.7 48.5s215.3-158.7 275.5-189.5"/>
   <path d="m710.5 431.2c79.3-77.3 109.9-141 133.4-141.4 13.1.6 14.2 17.3 7.8 36-14.7 43-41.1 81.5-68 118.4-30.2 41-49.2 44.7-57.1 40.9-26.8-18.2 96.4-110.5 112.6-123.3 12.2-9.7 49.5-39.4 70.7-55.2 9.3-6.9 20.9-15.7 30.9-16.6 3.3-.4 6.4-.1 9 .9 2.8 1 5 2.6 6.6 4.7 3.7 5.2 3.1 13.5-5.1 23.4-24.4 29.4-45.3 43.7-38 59.3 2.6 5.6 9 8.2 16.3 7.4 11.8-1.4 20.1-7.7 27.8-15"/>
   <path d="m698.6 431.4 25.6-49.8s-197.6 106-230.2 106c-44.3-.1.4-151.8 83.8-196.8"/>
  </g>
 </g>
</svg>
