<svg height="210mm" viewBox="0 0 1052.4 744.1" width="297mm" xmlns="http://www.w3.org/2000/svg">
 <g fill="none" stroke-linecap="round">
  <g transform="translate(0 -308.26772)">
   <path d="m57.6 742.2h948.8" stroke="#969696" stroke-width="1.875"/>
   <g stroke="#000" stroke-dasharray="3.75 7.5" stroke-miterlimit="2" stroke-width=".9375">
    <path d="m58.3 844.1h948.8"/>
    <path d="m58.3 641.8h948.8"/>
    <path d="m58.3 540.6h948.8"/>
   </g>
  </g>
  <g stroke-linejoin="round" stroke-width="5.625">
   <g stroke="#000">
    <path d="m398.2 311.4c17.8-19.4 28.6-22.5 40.2-23.1 16.3-.8 26.4 11.8 34.7 49.1 7.5 34.1 23.7 51.5 38.9 52.7 7.2.6 26.2-1.6 26.2-1.6"/>
    <path d="m331.7 396c14.2-17.8 46.5-61.6 66.5-84.6"/>
    <ellipse cx="25.991093" cy="536.22986" rx="25.728558" ry="20.371416" transform="matrix(.79083574 -.61202846 .61202846 .79083574 0 0)"/>
   </g>
   <g stroke="#00000c">
    <path d="m538.2 388.6 183.3-52 33.3 47.9"/>
    <path d="m721.5 336.6 24 48"/>
    <path d="m730.9 336.6 23.8 47.9"/>
    <path d="m727 336.4 24 48"/>
   </g>
  </g>
  <path d="m723.7 335.5h7.1" stroke="#00000c" stroke-width="3.75"/>
  <path d="m747.2 385.5h7.1" stroke="#00000c" stroke-width="3.75"/>
  <path d="m539.3 388.6c.8.1 1.4.2 1.9.5.2.1.3.2.5.3.9.7 1.3 2 .8 4-1 3.9-5.4 6.1-7.5 6.9-4.3 1.6-7.6-2-5.1-5.9 1.6-2.4 4.2-5.1 7.4-5.7.2 0 .4-.1.7-.1s.5-.1.8-.1c.6 0 1.2.1 1.9.3" stroke="#000" stroke-linejoin="round" stroke-width="5.625"/>
 </g>
</svg>
