<svg height="210mm" viewBox="0 0 1052.4 744.1" width="297mm" xmlns="http://www.w3.org/2000/svg">
 <g fill="none" stroke-linecap="round">
  <g transform="translate(0 -308.26772)">
   <path d="m57.6 742.2h948.8" stroke="#969696" stroke-width="1.875"/>
   <g stroke="#000" stroke-dasharray="3.75 7.5" stroke-miterlimit="2" stroke-width=".9375">
    <path d="m58.3 844.1h948.8"/>
    <path d="m58.3 641.8h948.8"/>
    <path d="m58.3 540.6h948.8"/>
   </g>
  </g>
  <g stroke="#000" stroke-linejoin="round">
   <path d="m673.7 337.7-107.3 49.2" stroke-width="5.625"/>
   <path d="m635 431.2c39.3-.3 91.6-117.7 38.7-93.5" stroke-width="5.419139"/>
   <g stroke-width="5.625">
    <path d="m635 431.2c-31.4 3.7 65.6-30.6 71.2-30.7 17.5-.5 15.5 47.6 45.2 22.9"/>
    <path d="m560.3 390.1c-12.6 7.8-90.6 59.4-105.1 74.1-25.9 26.2-48.6 55.7-45.7 63.4 1.1 2.9 22.5 22.8 62-40.9l83.3-151.7-185.9 179"/>
    <path d="m322.3 489.9c-3.7 5.6-5.7 12.5-6.2 17.6-.7 7.4 1.5 13.5 3.8 16.3 2.8 3.4 5.2 8.8 19 9.1 9.9.2 16.7-6.1 30.1-18.8"/>
    <ellipse cx="200.79845" cy="671.64764" rx="25.728558" ry="20.371416" transform="matrix(.79083574 -.61202846 .61202846 .79083574 0 0)"/>
   </g>
  </g>
 </g>
</svg>
