<svg height="210mm" viewBox="0 0 1052.4 744.1" width="297mm" xmlns="http://www.w3.org/2000/svg">
 <g fill="none" stroke-linecap="round">
  <g transform="translate(0 -308.26772)">
   <path d="m57.6 742.2h948.8" stroke="#969696" stroke-width="1.875"/>
   <g stroke="#000" stroke-dasharray="3.75 7.5" stroke-miterlimit="2" stroke-width=".9375">
    <path d="m58.3 844.1h948.8"/>
    <path d="m58.3 641.8h948.8"/>
    <path d="m58.3 540.6h948.8"/>
   </g>
  </g>
  <g stroke="#000" stroke-linejoin="round" stroke-width="5.625">
   <path d="m377.2 336.2c-34 8.9-68.8 56.9-65.1 80.2 1.6 10 9 15.8 22.7 14.9 26.4-1.6 61.3-26.4 111.9-27.9 50.5-1.4 58.8 28.1 111 27.9"/>
   <path d="m557.7 431.4c48.1-.4 109.9-33.3 136.8-32.9 17.3.2 27.4 33.3 40.7 33.4 8.5.1 14.1-6.5 18.3-10.8"/>
  </g>
 </g>
</svg>
