<svg height="210mm" viewBox="0 0 1052.4 744.1" width="297mm" xmlns="http://www.w3.org/2000/svg">
 <g fill="none" stroke-linecap="round">
  <g transform="translate(0 -308.26772)">
   <path d="m57.6 742.2h948.8" stroke="#969696" stroke-width="1.875"/>
   <g stroke="#000" stroke-dasharray="3.75 7.5" stroke-miterlimit="2" stroke-width=".9375">
    <path d="m58.3 844.1h948.8"/>
    <path d="m58.3 641.8h948.8"/>
    <path d="m58.3 540.6h948.8"/>
   </g>
  </g>
  <g stroke="#000" stroke-linejoin="round" stroke-width="5.625">
   <path d="m512.6 431.3c23.3-1.5 49.2-33.3 74-29.9 17.2 3.2 16 46.2 45.6 21.5"/>
   <path d="m569.8 403.7c4.1-1.6 7.5-1.6 11.5.6 4.5 2.5 9.8 8.1 13.5 16.2 3.6 7.8 8.3 9.5 12.9 9.8 2.6.2 6.2.5 8.5.3"/>
   <path d="m582.9 403.6c6.7 5.9 6.3.5 21.2 23.1"/>
   <path d="m742.7 233.5s-82.2 168.4-110.5 189.5"/>
   <path d="m420.4 431.8c18.4-12 43.7-32.7 61-29.5 13.8 2.6 15.8 30.7 31.2 29.1"/>
   <path d="m329.6 431.3 56.8-108.1c26.4-48.6 52-72.9 91.2-88.5"/>
   <path d="m329.6 431.3c37.5-18.4 80.6-102.1 113.6-94.2 13.1 3.5 16.2 14.3 10.2 29.8-9.9 21.8-23.2 45.8-33.1 64.9"/>
  </g>
 </g>
</svg>
