<svg height="210mm" viewBox="0 0 1052.4 744.1" width="297mm" xmlns="http://www.w3.org/2000/svg">
 <g fill="none" stroke-linecap="round">
  <g transform="translate(0 -308.26772)">
   <path d="m57.6 742.2h948.8" stroke="#969696" stroke-width="1.875"/>
   <g stroke="#000" stroke-dasharray="3.75 7.5" stroke-miterlimit="2" stroke-width=".9375">
    <path d="m58.3 844.1h948.8"/>
    <path d="m58.3 641.8h948.8"/>
    <path d="m58.3 540.6h948.8"/>
   </g>
  </g>
  <g stroke="#000">
   <g stroke-width="5.625">
    <g stroke-linejoin="round">
     <path d="m472.5 408.8 107-72.2 56.8 93.9"/>
     <path d="m579.5 336.6 46.3 94.1"/>
     <path d="m590 336.3 46.3 94.1"/>
    </g>
    <path d="m625.8 430.6 10.5-.2"/>
    <path d="m579.5 336.6 10.5-.2"/>
   </g>
   <path d="m585.7 338.4 45 90.4" stroke-linejoin="round" stroke-width="7.5"/>
  </g>
  <g stroke-linejoin="round">
   <path d="m636.3 430.4c10.2-5.8 20.2-9 25.5-10.4 11.2-3 25.5-3.1 24.1 4.7 0 .2.1.4.1.7 0 1.4-.6 2.7-2.1 3.8-2.9 2.2-6.9.8-8.5-.4-3.3-.5-1-11.9 0-10.6 1.7 2.4 0 0 8.8 2.8.2.1.3.3.4.5.2.2.4.7.6.9.3.5.4.9.7 1.6" stroke="#00001f" stroke-width="5.625"/>
   <g stroke="#000">
    <path d="m685.7 424.7a5.5 1.8 0 0 1 -5.5 1.8 5.5 1.8 0 0 1 -5.5-1.8 5.5 1.8 0 0 1 5.4-1.8 5.5 1.8 0 0 1 5.5 1.8h-5.5z" stroke-width="5.625"/>
    <path d="m472.5 408.8-15.4 8.9c-4.7 2.7-7.7 5.2-8.3 6.2-1.9 3.1-1.1 8.1 3.9 8.6 3 .3 9.7-4.2 11-5 10.7-6.1 20.2-15.8 27.8-26.6 22.6-32 30-70.5 1.3-63-8.2 2.1-15.9 5.1-27 22.7" stroke-width="5.419139"/>
    <path d="m424 336.4-39.4 73.1c-8.4 15.5 5 26.1 21.5 22.2 2.8-.7 9.2-2.6 14-6 14-9.7 38.3-53.8 45.7-65.3" stroke-width="5.625"/>
   </g>
  </g>
 </g>
</svg>
