<svg height="210mm" viewBox="0 0 1052.4 744.1" width="297mm" xmlns="http://www.w3.org/2000/svg">
 <g fill="none" stroke-linecap="round">
  <g transform="translate(0 -308.26772)">
   <path d="m57.6 742.2h948.8" stroke="#969696" stroke-width="1.875"/>
   <g stroke="#000" stroke-dasharray="3.75 7.5" stroke-miterlimit="2" stroke-width=".9375">
    <path d="m58.3 844.1h948.8"/>
    <path d="m58.3 641.8h948.8"/>
    <path d="m58.3 540.6h948.8"/>
   </g>
  </g>
  <g stroke-linejoin="round" stroke-width="5.625">
   <path d="m320.2 411.9c-62.4 38.6-94.2 14.9-80-30.1" stroke="#000"/>
   <path d="m320.2 411.9s14.8-8.1 33-17.6c13.8-7.2 25.5-13 27.9-14 8.2-3.4 13.8-6.8 21-10.9 15.2-8.7 21.1-25.4 19.2-30.4-2.8-7.5-29.6-8.1-54.1 32.3-23.9 39.1-17.8 58.2-6.3 59.4 1.1.1 9.4.4 11.8-.6" stroke="#000"/>
   <path d="m372.7 430.2c12.8-.8 229.7-46.5 229.7-46.5l20 47.9" stroke="#010000"/>
   <g stroke="#000">
    <path d="m727.2 408.3c2.5-1.7 9.4-6.5 11.8-8 7.5-4.7 14-8.2 17.4-8.4 24.4-1.9 14 42.1 36.5 37.9 9.2-1.7 16.3-8.1 22.6-15.6"/>
    <path d="m622.4 431.5 87.5-97.1c-13.8 25.3-28.6 50-43 74.9-13.1 23.6 9 26.5 29 17.9 6.3-3.1 16.8-9 31.3-18.9"/>
   </g>
  </g>
 </g>
</svg>
