<svg height="210mm" viewBox="0 0 1052.4 744.1" width="297mm" xmlns="http://www.w3.org/2000/svg">
 <g fill="none" stroke-linecap="round">
  <g transform="translate(0 -308.26772)">
   <path d="m57.6 742.2h948.8" stroke="#969696" stroke-width="1.875"/>
   <g stroke="#000" stroke-dasharray="3.75 7.5" stroke-miterlimit="2" stroke-width=".9375">
    <path d="m58.3 844.1h948.8"/>
    <path d="m58.3 641.8h948.8"/>
    <path d="m58.3 540.6h948.8"/>
   </g>
  </g>
  <g stroke-linejoin="round" stroke-width="5.625">
   <path d="m498.9 337.1-56.7 94.9 81.3-91.1" stroke="#0a0000"/>
   <path d="m523.5 340.8c10.6-10.8 31.7-29.7 33.3-31.1 35.8-31.5 45.9-4.3 36.1 21.2-16.1 43-43.8 79.3-70.8 116.2-46.6 60.3-56.2 43.4-58.1 40.9-7.2-9.2 3.8-39.6 36.3-62.9 16.7-13 121-63.6 145-72.7" stroke="#000"/>
  </g>
 </g>
</svg>
