<svg height="210mm" viewBox="0 0 1052.4 744.1" width="297mm" xmlns="http://www.w3.org/2000/svg">
 <g fill="none" stroke-linecap="round">
  <g transform="translate(0 -308.26772)">
   <path d="m57.6 742.2h948.8" stroke="#969696" stroke-width="1.875"/>
   <g stroke="#000" stroke-dasharray="3.75 7.5" stroke-miterlimit="2" stroke-width=".9375">
    <path d="m58.3 844.1h948.8"/>
    <path d="m58.3 641.8h948.8"/>
    <path d="m58.3 540.6h948.8"/>
   </g>
  </g>
  <g stroke="#000">
   <g stroke-linejoin="round" stroke-width="5.625">
    <path d="m609.9 383.1 33.3 47.9"/>
    <path d="m609.9 383.1 24 48"/>
    <path d="m619.4 383.1 23.8 47.9"/>
    <path d="m615.5 382.9 24 48"/>
   </g>
   <path d="m610.3 382h9" stroke-width="3.75"/>
   <path d="m633.8 431.9h9" stroke-width="3.75"/>
   <g stroke-linejoin="round" stroke-width="5.625">
    <path d="m553.9 419c-1.8 1.1-26.6 17.8-28.5 19.1-32.5 22-71.6 74.4-63.5 89.5 4.9 9.2 28.4 7.7 48.3-24.3 8.5-13.7 17.7-31 19.9-61.8 5-69.6 53.3-127.7 65.1-97.7 12.1 30.6-211.5 140.7-185.1 137.9"/>
    <path d="m553.9 419 56-36"/>
    <path d="m405.7 335.3-39.4 73.1c-8.4 15.5 4.6 23.5 21.5 22.2"/>
    <path d="m410.1 481.6c16.8-.5 33-21.3 35-47.2 2.1-26.8 47.2-53.9 36.3-48.7 0 0-76.1 44.9-93.6 44.9"/>
    <path d="m464.9 400.8c-18.7 24.9-13 28.9-16.8 41.1-3.5 11.7-12.1 25.9-24.2 34.7"/>
    <path d="m462 404c-7.6 7.8-16.9 18.3-21 32.6-4.1 14.4-5.5 33.4-22.5 43.1"/>
    <path d="m643.3 430.9 65.9-47.5 20 47.9"/>
   </g>
  </g>
 </g>
</svg>
