<svg height="210mm" viewBox="0 0 1052.4 744.1" width="297mm" xmlns="http://www.w3.org/2000/svg">
 <g fill="none" stroke-linecap="round">
  <g transform="translate(0 -308.26772)">
   <path d="m57.6 742.2h948.8" stroke="#969696" stroke-width="1.875"/>
   <g stroke="#000" stroke-dasharray="3.75 7.5" stroke-miterlimit="2" stroke-width=".9375">
    <path d="m58.3 844.1h948.8"/>
    <path d="m58.3 641.8h948.8"/>
    <path d="m58.3 540.6h948.8"/>
   </g>
  </g>
  <g stroke="#000">
   <g stroke-width="5.625">
    <ellipse cx="158.34358" cy="639.52704" rx="25.728558" ry="20.371416" stroke-linejoin="round" transform="matrix(.79083574 -.61202846 .61202846 .79083574 0 0)"/>
    <ellipse cx="228.67017" cy="693.95288" rx="25.728558" ry="20.371416" stroke-linejoin="round" transform="matrix(.79083574 -.61202846 .61202846 .79083574 0 0)"/>
    <path d="m513.2 387.8c25.8-7.8 64.6-8 95.7-1.5"/>
    <g stroke-linejoin="round">
     <path d="m357.4 431s5.9.3 11.1-1.9c9.1-3.8 26.2-29.1 30.2-33.6"/>
     <path d="m367.7 416.9c.9.3 1.8.6 2.4 1.1.2.2.4.3.5.5 1 1.2 1.2 2.8 0 5.3-2.3 4.7-8.4 6.5-11.3 7.1-5.9 1-9.2-4.4-5.1-8.7 2.6-2.7 6.7-5.5 10.9-5.5h.9c.3 0 .7.1 1 .1.8.1 1.6.4 2.3.8"/>
     <path d="m509.2 262.3-110.5 133.3"/>
     <path d="m503.4 393.3c-31.7 23.8-49.4 33.6-59.4 36.9-55 17.3 33.4-136.4 77.6-183.1 4.7-5 12.2-11.7 22.6-13.1"/>
     <path d="m509.2 262.3-82.8 155.7"/>
     <path d="m489.7 293.5-53.8 98.9"/>
    </g>
   </g>
   <g stroke-linejoin="round">
    <path d="m431.8 431.4c-7.4-6.7-3-16.4 2.6-27.7" stroke-width="3.75"/>
    <g stroke-width="5.625">
     <path d="m517.9 251.5-36.1 63"/>
     <path d="m467.6 318.4c-12.9 24.9-30.1 54.1-38.9 86.4"/>
    </g>
   </g>
   <path d="m469.2 324-36.6 76.3" stroke-width="3.75"/>
  </g>
 </g>
</svg>
