<svg height="210mm" viewBox="0 0 1052.4 744.1" width="297mm" xmlns="http://www.w3.org/2000/svg">
 <g fill="none" stroke-linecap="round">
  <g transform="translate(0 -308.26772)">
   <path d="m57.6 742.2h948.8" stroke="#969696" stroke-width="1.875"/>
   <g stroke="#000" stroke-dasharray="3.75 7.5" stroke-miterlimit="2" stroke-width=".9375">
    <path d="m58.3 844.1h948.8"/>
    <path d="m58.3 641.8h948.8"/>
    <path d="m58.3 540.6h948.8"/>
   </g>
  </g>
  <g stroke="#000">
   <g stroke-linejoin="round" stroke-width="5.625">
    <path d="m517.4 422.9c18.3-14.3 28.7-22.5 44.7-29.9 45.7-21.3 73.7-3.2 62.3 38.5"/>
    <path d="m524.1 335.4-43.4 73.1c-12 20.1 15.9 32.3 37.9 13.5"/>
    <path d="m624.4 431.5s70-29.4 86.8-30.3c16-.6 21.6 31 32.6 30.7 7.2-.2 12.4-7.6 16.7-13"/>
    <path d="m451.2 396.5 72.9-61.1"/>
    <path d="m451.2 396.5c-33.5 25.6-67.3 49.1-93.6 69.7-32.5 23.2-40.2 52.7-38 60 .9 3 16.3 22.9 59.8-38.1 26.9-36.9 54.6-73.4 69.3-116.4 15.5-30.1-1.4-56.7-44.4-11.6"/>
   </g>
   <path d="m449.2 360.8c-20.5 45.9-64.8 123.2-100.9 158.2" stroke-width="8.4375"/>
   <path d="m452.2 348.8c1.4 8.4-92.8 164.8-114.9 178.5" stroke-width="5.625"/>
   <path d="m444.7 337.3c7 1.1 9.6 9.2 3 20.7" stroke-width="3.75"/>
   <path d="m345 518.9c-6.3 5.5-18.8 17.1-24.4 7.2" stroke-width="3.75"/>
   <g stroke-linejoin="round" stroke-width="5.625">
    <path d="m379.9 336.5c-55.4 14.5-101.9 132.4-22.6 83.6 5.7-4.4 7.5-5.7 15-13.2"/>
    <path d="m372.5 406.4c11.6-11.1 21.3-33.7 31.8-46.2"/>
   </g>
  </g>
 </g>
</svg>
