<svg height="210mm" viewBox="0 0 1052.4 744.1" width="297mm" xmlns="http://www.w3.org/2000/svg">
 <g fill="none" stroke-linecap="round">
  <g transform="translate(0 -308.26772)">
   <path d="m57.6 742.2h948.8" stroke="#969696" stroke-width="1.875"/>
   <g stroke="#000" stroke-dasharray="3.75 7.5" stroke-miterlimit="2" stroke-width=".9375">
    <path d="m58.3 844.1h948.8"/>
    <path d="m58.3 641.8h948.8"/>
    <path d="m58.3 540.6h948.8"/>
   </g>
  </g>
  <g stroke-linejoin="round">
   <g stroke-width="5.625">
    <g stroke="#000">
     <ellipse cx="473.34286" cy="133.85829" rx="4.609393" ry="6.862874" transform="matrix(.72846687 .68508103 -.68508103 .72846687 0 0)"/>
     <path d="m249.9 336-37.7 71.8c-6.3 12 0 20.9 10.8 22.7 3.6.4 7.4.6 10.8.6 7.7-.1 13.3-1.3 18.1-3.3"/>
     <path d="m250 427.8c10.4 5.9 17.3 4 22.6-4.4 8.5-13.3 20.4-32.8 23.6-38.1 5.1-8.4 10.3-15.5 15.5-21.5 5.2-5.9 10.4-10.7 15.5-14.6 7.7-5.7 15.5-9.3 23-11.3 5.5-1.4 10.8-2 16-2 4.6 0 9 .8 13 2.1 16.5 5.6 27.3 22.1 22.6 47.9"/>
    </g>
    <path d="m390.9 431.2c34.1-29.1 89.6-41.9 137.2-44.1 55.9-2.6 103.5 11.7 96.4 43.9" stroke="#0a0001"/>
   </g>
   <g stroke="#000">
    <path d="m721.2 335.1-46.6 96.4" stroke-width="5.624999"/>
    <path d="m624.5 431 96.7-95.9" stroke-width="5.624999"/>
    <path d="m674.6 431.5c13.2-13.7 26.5-25.3 39-32.9 23.5-14.4 44.7-18.6 58.7-14.3 16.1 4.9 25.5 20.6 17.9 46.8" stroke-width="5.625"/>
    <path d="m782.7 392.8c2.4 3.2 6 9.5 5.7 16-.4 7.4-1.4 17.3-2.4 20.8" stroke-width="5.625001"/>
    <path d="m756.7 384.3c5.2-.2 9.5.5 12.9 1.8 3.3 1.2 5.8 3 7.9 5.1 9.7 9.7 10.8 19.7 6 39.9" stroke-width="4.6875"/>
   </g>
  </g>
  <g stroke="#000">
   <path d="m784.1 431 6.1.1" stroke-width="5.625001"/>
   <g stroke-linejoin="round">
    <path d="m733.5 389.6c11.3-4.7 29.8-7.3 39.6-1.5" stroke-width="3.75"/>
    <path d="m884.7 235-94.5 196.1" stroke-width="5.624999"/>
   </g>
  </g>
 </g>
</svg>
