<svg height="210mm" viewBox="0 0 1052.4 744.1" width="297mm" xmlns="http://www.w3.org/2000/svg">
 <g fill="none" stroke-linecap="round">
  <g transform="translate(0 -308.26772)">
   <path d="m57.6 742.2h948.8" stroke="#969696" stroke-width="1.875"/>
   <g stroke="#000" stroke-dasharray="3.75 7.5" stroke-miterlimit="2" stroke-width=".9375">
    <path d="m58.3 844.1h948.8"/>
    <path d="m58.3 641.8h948.8"/>
    <path d="m58.3 540.6h948.8"/>
   </g>
  </g>
  <g stroke="#000" stroke-linejoin="round" stroke-width="5.625">
   <path d="m591.3 431.5c40 3 59.7-35.8 56.6-44.3-5.4-14.5-29.3-4.3-53.1 35-27.5 45-22.2 56.6-6.7 53.4 13.2-2.1 24.6-7.7 35.8-15.8"/>
   <path d="m380.3 333.2c53.3-10.8 93.7-77.9 87.4-94.3-5.4-14.1-39.5 8.7-85.7 85.1l-60.4 107.6 269.7-.1"/>
   <path d="m624 459.9c15.9-11 36.7-22.5 52.1-23.2 24-.8 32.4 41.1 48.8 40.7 10.8-.3 18.5-10 25.1-17.1"/>
  </g>
 </g>
</svg>
