<svg height="210mm" viewBox="0 0 1052.4 744.1" width="297mm" xmlns="http://www.w3.org/2000/svg">
 <g fill="none" stroke-linecap="round">
  <g transform="translate(0 -308.26772)">
   <path d="m57.6 742.2h948.8" stroke="#969696" stroke-width="1.875"/>
   <g stroke="#000" stroke-dasharray="3.75 7.5" stroke-miterlimit="2" stroke-width=".9375">
    <path d="m58.3 844.1h948.8"/>
    <path d="m58.3 641.8h948.8"/>
    <path d="m58.3 540.6h948.8"/>
   </g>
  </g>
  <g stroke-linejoin="round" stroke-width="5.625">
   <path d="m460.3 432.2c14.8-3.3 51.5-50.5 51.5-50.5" stroke="#00000b"/>
   <g stroke="#000003">
    <path d="m574.3 377.9c-11.7 7.7-75 52.6-62.5 54 3 .3 9.7-4.2 11-5 48.9-28 72.5-129.4 12.6-73.8-2.3 2.1-15.3 17.3-23.7 28.6"/>
    <path d="m649 410.2 34.3-26.7 24 48"/>
    <path d="m574.3 377.9 63.7-41.1-42.5 71.3c-9 15.2 5 26.1 21.5 22.2 2.8-.7 9.4-2.4 14-6l18.1-14.2"/>
   </g>
   <path d="m460.3 432.2c5.8-3.7 12.8-11.7 7.1-19-2.8-3.6-4.4-5-13-4.9l-107.7.6c-7.4 0-15.4-.2-17.4-.8-9.6-2.9-8.5-13.1.2-25.1" stroke="#000"/>
  </g>
 </g>
</svg>
