<svg height="210mm" viewBox="0 0 1052.4 744.1" width="297mm" xmlns="http://www.w3.org/2000/svg">
 <g fill="none" stroke-linecap="round">
  <g transform="translate(0 -308.26772)">
   <path d="m57.6 742.2h948.8" stroke="#969696" stroke-width="1.875"/>
   <g stroke="#000" stroke-dasharray="3.75 7.5" stroke-miterlimit="2" stroke-width=".9375">
    <path d="m58.3 844.1h948.8"/>
    <path d="m58.3 641.8h948.8"/>
    <path d="m58.3 540.6h948.8"/>
   </g>
  </g>
  <g stroke="#000" stroke-linejoin="round" stroke-width="5.625">
   <path d="m504.8 411.1c1.1-.2 2-.3 2.8-.1.3 0 .5.1.8.2 1.6.6 2.6 2.1 2.7 5.1.2 5.7-4.8 10.5-7.3 12.5-5.2 3.9-11 .4-9.3-5.8 1.1-3.9 3.6-8.6 7.7-10.8.3-.2.6-.3.8-.4.3-.2.7-.3 1.1-.4.8-.3 1.7-.4 2.6-.4"/>
   <path d="m618.1 428.2 61.6-44.8 26.7 47.9"/>
   <path d="m373.5 431.6c11.2-23.8 27.5-41.1 51.9-43.7 30.4-3.3 45.4 10.1 35.5 43.9"/>
   <path d="m460.9 431.8 77.6-1.4"/>
   <path d="m531.7 411.2c1.1-.2 2-.3 2.8-.1.3 0 .5.1.8.2 1.6.6 2.6 2.1 2.7 5.1.2 5.7-4.8 10.5-7.3 12.5-5.2 3.9-11 .4-9.3-5.8 1.1-3.9 3.6-8.6 7.7-10.8.3-.2.6-.3.8-.4.3-.2.7-.3 1.1-.4.8-.3 1.7-.4 2.6-.4"/>
   <path d="m538.4 430.4c10.6-12.1 23.1-29.4 40-30.3 16-.6 19.6 30.4 30.6 30.7 3.4.1 5.6-.3 9.1-2.6"/>
  </g>
 </g>
</svg>
