<svg height="210mm" viewBox="0 0 1052.4 744.1" width="297mm" xmlns="http://www.w3.org/2000/svg">
 <g fill="none" stroke-linecap="round">
  <g transform="translate(0 -308.26772)">
   <path d="m57.6 742.2h948.8" stroke="#969696" stroke-width="1.875"/>
   <g stroke="#000" stroke-dasharray="3.75 7.5" stroke-miterlimit="2" stroke-width=".9375">
    <path d="m58.3 844.1h948.8"/>
    <path d="m58.3 641.8h948.8"/>
    <path d="m58.3 540.6h948.8"/>
   </g>
  </g>
  <g stroke="#000">
   <path d="m454.9 414.8s128.4-46.8 212.1-92.4c8.7-4.7 37.4-27.7 42.8-33.9 15.2-17.5 23.5-35.3 19.4-45.4-2.2-5.5-6.6-8.4-17.7-8.7-15.4-.4-44.9 14.9-92.1 92.8-42 71.5-44.3 97.6-31.2 102.8 20.3 8.2 59.5-16.9 81.2-40.4" stroke-linejoin="round" stroke-width="5.625"/>
   <path d="m691.9 240.4c-48 60-86.5 120.2-109.3 181.5" stroke-width="5.625"/>
   <path d="m682.3 248.7c-6.9 7.8-15 16.6-21.7 25.1-31 39.4-61.4 91.3-78 143" stroke-width="7.5"/>
   <path d="m709.8 234.9c-12.6 1.5-15.3 4.5-20.2 9.6-5 5.1-7 8.7-12.6 16.4" stroke-width="3.75"/>
   <g stroke-width="5.625">
    <path d="m586.8 410.5c-3.2 11.3-4.4 14.5-.8 17.6"/>
    <g stroke-linejoin="round">
     <path d="m454.9 414.8c-16.8 7.9-66.6 32.4-93 52.9-32.5 23.2-40.2 52.7-38 60 .9 3 16.3 22.9 59.8-38.1 26.9-36.9 54.6-73.4 69.3-116.4 9.7-18.8 6.7-36.3-7.4-35.7-8.4.4-20.7 7.1-36.5 23.6-12.2 12.6-33.3 40.8-54.6 70.8l-28.3-46.2"/>
     <path d="m678.8 533.5c14.8-7.7 32.2-16.2 28.9-34.4-.9-14.2-55-41.3-61.8-64.1-3.5-11.7 8.2-28.9 23.4-45.3"/>
    </g>
   </g>
  </g>
 </g>
</svg>
