<svg height="210mm" viewBox="0 0 1052.4 744.1" width="297mm" xmlns="http://www.w3.org/2000/svg">
 <g fill="none" stroke-linecap="round">
  <g transform="translate(0 -308.26772)">
   <path d="m57.6 742.2h948.8" stroke="#969696" stroke-width="1.875"/>
   <g stroke="#000" stroke-dasharray="3.75 7.5" stroke-miterlimit="2" stroke-width=".9375">
    <path d="m58.3 844.1h948.8"/>
    <path d="m58.3 641.8h948.8"/>
    <path d="m58.3 540.6h948.8"/>
   </g>
  </g>
  <g stroke="#000" stroke-linejoin="round">
   <ellipse cx="654.6463" cy="-38.632378" rx="5.271423" ry="7.848564" stroke-width="14.034715" transform="matrix(.72846687 .68508103 -.68508103 .72846687 0 0)"/>
   <g stroke-width="5.625">
    <path d="m499 431.4c-28.3-1.3-47.6 6.2-84.9 42.9-15.4 15.2-46.3 47.5-30.7 58.2 7 3.6 23.2-.9 52.5-43.5 5.2-7.1 86.2-152.6 86.2-152.6"/>
    <path d="m537.7 533.2c14.8-7.7 32.2-16.2 28.9-34.4-.6-10.3-25.7-28-44-45.3-4.3-4.1-16.9-15-26.1-24.2"/>
    <path d="m537.7 533.2c-2.9 1.3-6.3-3.1-3-5.8 4.7-3.9 70.3-25.1 79.4-25.3 16.7-.3 19.8 30.7 32.6 30.7 7.2 0 11.9-5.2 16.7-9.2"/>
   </g>
  </g>
 </g>
</svg>
