<svg height="210mm" viewBox="0 0 1052.4 744.1" width="297mm" xmlns="http://www.w3.org/2000/svg">
 <g fill="none" stroke-linecap="round">
  <g transform="translate(0 -308.26772)">
   <path d="m57.6 742.2h948.8" stroke="#969696" stroke-width="1.875"/>
   <g stroke="#000" stroke-dasharray="3.75 7.5" stroke-miterlimit="2" stroke-width=".9375">
    <path d="m58.3 844.1h948.8"/>
    <path d="m58.3 641.8h948.8"/>
    <path d="m58.3 540.6h948.8"/>
   </g>
  </g>
  <g stroke="#000" stroke-width="5.625">
   <g stroke-linejoin="round">
    <path d="m518.3 336.4c-52.1 13.6-97.3 122.8-33.5 87.2 4.7-2.6 7.7-6.4 9.8-8.2 3.9-3.2 16.4-18.1 22.6-25.3 1.3-1.5 6.8-7.8 7.4-8.5"/>
    <path d="m524.6 381.6c.7-1 8-9.9 11.5-13.9 6.2-7 14.4-16 15.8-17.4 12.6-12.7 27.8-18.2 36-14.2 6.1 3 8.4 11.2 2.7 25.7-10.8 23.3-31.8 69.4-31.8 69.4"/>
    <path d="m500.5 345c-18.4 12.3-144.9 83.3-127.8 87.3 4.9.6 10.6-4.5 14.7-7.4 13.5-9.6 24.3-23.7 34.5-39.1l30.9-50"/>
   </g>
   <path d="m452.7 335.9c-69.6 47.9-181.5 145.3-181.5 145.3-15.8 12.6-19.5 24-19.3 31.9.3 11.9 7.8 19.2 18.5 20.3s20.9-4.2 31-12.9"/>
   <path d="m696.1 234.7-137.3 196.5"/>
  </g>
 </g>
</svg>
