<svg height="210mm" viewBox="0 0 1052.4 744.1" width="297mm" xmlns="http://www.w3.org/2000/svg">
 <g fill="none" stroke-linecap="round">
  <g transform="translate(0 -308.26772)">
   <path d="m57.6 742.2h948.8" stroke="#969696" stroke-width="1.875"/>
   <g stroke="#000" stroke-dasharray="3.75 7.5" stroke-miterlimit="2" stroke-width=".9375">
    <path d="m58.3 844.1h948.8"/>
    <path d="m58.3 641.8h948.8"/>
    <path d="m58.3 540.6h948.8"/>
   </g>
  </g>
  <g stroke="#000" stroke-linejoin="round" stroke-width="5.625">
   <path d="m495.5 259.6c24.3-33 61.9-38.3 37.2 20l-22.1 52.1"/>
   <path d="m510.6 331.7 66.6-78"/>
   <path d="m577.2 253.7c7.6-8.2 18.9-17.7 30.2-19.5 17.1-2.6 33.5 8.8 33.2 48.8-.2 33.3 15.8 47.8 30.1 47.7 13.5-.1 22.7-7.4 33.8-15.7"/>
   <path d="m610.6 233.9c12.3-1.3 35.4 13.9 35.2 45.8-.2 30.1 8.2 53 28.3 51.2"/>
   <path d="m610.6 233.9c17-.9 25 18 24.8 49.9-.2 30.1 13.3 47.8 38.7 47.1"/>
   <path d="m463.6 235.1c-45.1 11.8-84.6 98.8-53.4 95.9 24.9-2.3 52.1-32.3 85.3-71.4"/>
  </g>
 </g>
</svg>
