<svg height="210mm" viewBox="0 0 1052.4 744.1" width="297mm" xmlns="http://www.w3.org/2000/svg">
 <g fill="none" stroke-linecap="round">
  <g transform="translate(0 -308.26772)">
   <path d="m57.6 742.2h948.8" stroke="#969696" stroke-width="1.875"/>
   <g stroke="#000" stroke-dasharray="3.75 7.5" stroke-miterlimit="2" stroke-width=".9375">
    <path d="m58.3 844.1h948.8"/>
    <path d="m58.3 641.8h948.8"/>
    <path d="m58.3 540.6h948.8"/>
   </g>
  </g>
  <g stroke-linejoin="round">
   <g stroke="#000">
    <path d="m325.9 416.5c-6.9 3.9-16.3 8-22.9 9.2-40.8 7.2-150.7 5.9-158.5 3.9-52.6-13.3 28.6-129.4 74.1-177.6 4.9-5.1 16.6-15.2 24-18.1" stroke-width="5.866431"/>
    <path d="m378.8 431.7c17.9-4.9 27.5-16.7 27.3-25.9-1.1-20.7-47.4-26.8-49-48.9-.3-8.7 9.9-17.8 19.6-20.3 15.9-4 23.4 4.5 19.6 15.9-2 6.1-6.7 13.8-17.4 22-2.4 1.8-4.8 2.9-4.8 2.9" stroke-width="5.625"/>
    <path d="m325.9 416.5c9.7-5.7 48.2-39.1 48.2-39.1" stroke-width="5.866431"/>
   </g>
   <g stroke-width="5.625">
    <path d="m313 409.2c1 .1 1.8.3 2.5.7.2.1.4.2.6.4 1.2.9 1.7 2.6 1 5.2-1.3 5.1-7.1 8-9.8 9-5.7 2-9.8-2.6-6.6-7.6 2-3.1 5.5-6.6 9.7-7.5.3-.1.6-.1.9-.1s.7-.1 1-.1c.8 0 1.6.1 2.4.3" stroke="#030002"/>
    <path d="m378.8 431.7c-20 3.7 152.2-153.9 184.4-175.3" stroke="#040000"/>
    <g stroke="#000">
     <path d="m451.6 431.2 60.6-109c26.4-48.6 52-72.9 91.2-88.5"/>
     <path d="m451.6 431.2s371.8-195.1 389.9-198.1"/>
     <path d="m816.1 377c-27.6 23.3-69.5 47.9-76.7 50.8-69.6 28 27.4-127.5 70.7-174 8.3-8.9 19.3-17.3 31.4-20.8"/>
     <path d="m820.8 431.3c17.9-4.9 27.5-16.7 27.3-25.9-1.1-20.7-47.4-26.8-49-48.9-.3-8.7 9.9-17.8 19.6-20.3 15.9-4 23.4 4.5 19.6 15.9-2 6.1-6.7 13.8-17.4 22-2.4 1.8-4.8 2.9-4.8 2.9"/>
    </g>
    <path d="m836.9 409.3c1 .1 1.8.3 2.5.7.2.1.4.2.6.4 1.2.9 1.7 2.6 1 5.2-1.3 5.1-7.1 8-9.8 9-5.7 2-9.8-2.6-6.6-7.6 2-3.1 5.5-6.6 9.7-7.5.3-.1.6-.1.9-.1s.7-.1 1-.1c.8 0 1.6.1 2.4.3" stroke="#030002"/>
    <path d="m830.1 425.2c18.4-3.9 69.8-23.9 86.6-24.7 16-.6 21.6 31 32.6 30.7 7.2-.2 12.4-7.6 16.7-13" stroke="#000"/>
   </g>
  </g>
 </g>
</svg>
