<svg height="210mm" viewBox="0 0 1052.4 744.1" width="297mm" xmlns="http://www.w3.org/2000/svg">
 <g fill="none" stroke-linecap="round">
  <g transform="translate(0 -308.26772)">
   <path d="m57.6 742.2h948.8" stroke="#969696" stroke-width="1.875"/>
   <g stroke="#000" stroke-dasharray="3.75 7.5" stroke-miterlimit="2" stroke-width=".9375">
    <path d="m58.3 844.1h948.8"/>
    <path d="m58.3 641.8h948.8"/>
    <path d="m58.3 540.6h948.8"/>
   </g>
  </g>
  <g stroke-width="5.625">
   <g stroke-linejoin="round">
    <path d="m600.4 290.4c-.7.6-118.6 120.6-131.1 127.6-6.6 3.7-15.6 7.7-21.9 8.8-39.2 6.9-144.5 5.6-152 3.7-50.4-12.7 27.4-124.1 71.1-170.3 4.7-4.9 22.5-21.9 42.9-26" stroke="#000"/>
    <path d="m465.3 420.1c-11.9 5.9-13.1 4.1-16.6-.3-.3-1.1-.8-5.3 1.9-7.4 3.8-2.9 7.2-2.1 10-.7 3.5 2.1 6.5 8 2.4 9.7-1.5.6-9.9 4.3-14.3 5.4" stroke="#000"/>
    <path d="m617.2 304.7c-43.3 56.7-97.2 107.4-132.4 134.6-25.9 26.2-32.6 35.9-29.6 43.6 1.1 2.9 17.7 21.8 57.3-41.8l88-150.7" stroke="#060000"/>
    <ellipse cx="431.96722" cy="565.48914" rx="25.728558" ry="20.371416" stroke="#000" transform="matrix(.89236516 -.45131411 .45131411 .89236516 0 0)"/>
   </g>
   <path d="m690.6 137.1-73 167.7" stroke="#000"/>
  </g>
 </g>
</svg>
