<svg height="210mm" viewBox="0 0 1052.4 744.1" width="297mm" xmlns="http://www.w3.org/2000/svg">
 <g fill="none" stroke-linecap="round">
  <g transform="translate(0 -308.26772)">
   <path d="m57.6 742.2h948.8" stroke="#969696" stroke-width="1.875"/>
   <g stroke="#000" stroke-dasharray="3.75 7.5" stroke-miterlimit="2" stroke-width=".9375">
    <path d="m58.3 844.1h948.8"/>
    <path d="m58.3 641.8h948.8"/>
    <path d="m58.3 540.6h948.8"/>
   </g>
  </g>
  <g stroke-linejoin="round" stroke-width="5.625">
   <g stroke="#000">
    <path d="m289.9 357.5s6.1-11 14.3-15.4c23.4-14.2 53.3-8.3 31.7 18.5-27.4 33.8-45.5 50.2-39.4 63.9 4.2 9.5 18.7 7.2 35.5 3.4l32.2-7.4"/>
    <path d="m364.2 420.4c44.9-10.8 116.2-27.8 127.3-27.7 16.8.2 2.7 55.5 39 33.9"/>
    <path d="m530.4 426.6c12.7-7.1 34.4-25.5 54-45.7"/>
   </g>
   <g stroke="#00000c">
    <path d="m584.4 381 44.6-46.4-55.8 97.2"/>
    <path d="m639.6 334.5-55.8 97.2"/>
    <path d="m639.6 334.5h-10.6"/>
    <path d="m634 334.5-55.8 97.2"/>
    <path d="m583.7 431.8h-10.6"/>
   </g>
   <path d="m583.7 431.8s67.8-29.4 84.6-30.3c16-.6 21.6 31 32.6 30.7 7.2-.2 12.4-7.6 16.7-13" stroke="#000"/>
  </g>
 </g>
</svg>
