<svg height="210mm" viewBox="0 0 1052.4 744.1" width="297mm" xmlns="http://www.w3.org/2000/svg">
 <g fill="none" stroke-linecap="round">
  <g transform="translate(0 -308.26772)">
   <path d="m57.6 742.2h948.8" stroke="#969696" stroke-width="1.875"/>
   <g stroke="#000" stroke-dasharray="3.75 7.5" stroke-miterlimit="2" stroke-width=".9375">
    <path d="m58.3 844.1h948.8"/>
    <path d="m58.3 641.8h948.8"/>
    <path d="m58.3 540.6h948.8"/>
   </g>
  </g>
  <path d="m631.6 322.5s-250 115.2-262.1 120c-10.2 4.1-20.2 9.6-29.3 15.8-13.1 9-24.4 19.4-32.1 29.4-16.8 21.9-18.4 41.7 6.1 46.3 0 0 31.7 6.1 62.3-46.2l89.2-152.4" stroke="#100" stroke-linejoin="round" stroke-width="5.625"/>
  <path d="m631.6 322.5c16.1-8 55.5-31.1 79.9-39.8 21-5.4 35 2.5 12.3 40.5l-31.2 52.3" stroke="#000800" stroke-linejoin="round" stroke-width="5.625"/>
  <g stroke="#000">
   <g stroke-linejoin="round">
    <path d="m375.8 336.1-47.8 86.7" stroke-width="6.5625"/>
    <path d="m272.1 430.9 94.4-95.2-39 72.4c-8.4 15.5 5 26.1 21.5 22.2 2.8-.6 9.4-2.3 14-5.9l18.1-14.2" stroke-width="5.625"/>
    <path d="m371.1 336.1-44.7 81.9" stroke-width="6.5625"/>
   </g>
   <path d="m332.9 416.6c-1.6 4.1-2.6 6.5.8 11.9" stroke-width="3.75"/>
   <g stroke-linejoin="round">
    <path d="m375.8 336.1-9.3-.4" stroke-width="6.5625"/>
    <path d="m465.7 335.4-84.7 74.8" stroke-width="5.625"/>
   </g>
  </g>
 </g>
</svg>
