<svg height="210mm" viewBox="0 0 1052.4 744.1" width="297mm" xmlns="http://www.w3.org/2000/svg">
 <g fill="none" stroke-linecap="round">
  <g transform="translate(0 -308.26772)">
   <path d="m57.6 742.2h948.8" stroke="#969696" stroke-width="1.875"/>
   <g stroke="#000" stroke-dasharray="3.75 7.5" stroke-miterlimit="2" stroke-width=".9375">
    <path d="m58.3 844.1h948.8"/>
    <path d="m58.3 641.8h948.8"/>
    <path d="m58.3 540.6h948.8"/>
   </g>
  </g>
  <g stroke-linejoin="round" stroke-width="5.625">
   <path d="m412.4 383.3c-1.8.8-56.4 42.9-61.4 46.2-38.6 25.5-75.3 86.2-66.9 101.4 2.9 5.3 34.7 12.4 62.3-63.3 15.8-47.4 16.5-113.3 70.8-131.6" stroke="#000"/>
   <g stroke="#00000c">
    <path d="m412.4 383.3 59-47.7-55.8 97.2"/>
    <path d="m481.9 335.6-55.8 97.2"/>
    <path d="m481.9 335.6h-10.6"/>
    <path d="m476.4 335.6-55.8 97.2"/>
    <path d="m426.1 432.8h-10.6"/>
   </g>
   <path d="m694.9 335.9c-41.9 53.3-176.2 74.7-175.1-.3l-93.6 97.3" stroke="#000"/>
   <path d="m694.9 335.9 22.1 47.9" stroke="#000"/>
  </g>
 </g>
</svg>
