<svg height="210mm" viewBox="0 0 1052.4 744.1" width="297mm" xmlns="http://www.w3.org/2000/svg">
 <g fill="none" stroke-linecap="round">
  <g transform="translate(0 -308.26772)">
   <path d="m57.6 742.2h948.8" stroke="#969696" stroke-width="1.875"/>
   <g stroke="#000" stroke-dasharray="3.75 7.5" stroke-miterlimit="2" stroke-width=".9375">
    <path d="m58.3 844.1h948.8"/>
    <path d="m58.3 641.8h948.8"/>
    <path d="m58.3 540.6h948.8"/>
   </g>
  </g>
  <g stroke="#000">
   <g stroke-linejoin="round">
    <path d="m276.6 431.1c22.5-8.9 52.2-48.9 60.4-86.1s38.8-97.2 73.8-110.6" stroke-width="5.625"/>
    <g stroke-width="5.624999">
     <path d="m456.3 285.2-46.6 95.4"/>
     <path d="m276.6 431.1c-4.5 1.8-7.1-1.4-4-4.6 7.1-7.3 183.6-141.3 183.6-141.3"/>
     <path d="m409.7 380.6s64.6-62.4 77.4-74.1c13.6-12.4 24.4-18.3 33.3-20.6 3-.8 5.9-1 8.6-1 13 .1 20.7 10.2 7.1 27-26.6 32.9-44.6 48.9-38.7 62.2 2.1 4.7 8 6 15 6 12 0 25.8-8.6 43.6-30.3"/>
    </g>
   </g>
   <path d="m536.6 286.5c15.4 7.9 4.2 30.4-12.1 46.3-14 13.6-22.7 25.7-28.7 37.7" stroke-width="5.472634"/>
   <path d="m536.7 288c.8-1.1 3.6 6 .5 13.9-3.2 8.2-12.5 19.1-17.8 24.2-10.5 9.9-29.8 28.2-23.7 44.5" stroke-width="5.472634"/>
   <g stroke-width="2.736317">
    <path d="m526.3 286.5c14.4-1 11.6 11.4 8.1 18.3"/>
    <path d="m503 360.6c-3.2 4.4-7.2 16.1 2.6 17.8"/>
    <path d="m493.3 364.7c-.1 5.5 2.8 11.2 4.7 12.8"/>
   </g>
   <g stroke-linejoin="round">
    <path d="m556 350c22.3-28.6 36-50.5 56.4-51.2 21.3-.4 25.5 32.2 44.3 32.2" stroke-width="5.624999"/>
    <path d="m656.7 331c19.4-.3 31.5-6.4 80.1-47.3" stroke-width="5.625"/>
   </g>
  </g>
 </g>
</svg>
