<svg height="210mm" viewBox="0 0 1052.4 744.1" width="297mm" xmlns="http://www.w3.org/2000/svg">
 <g fill="none" stroke-linecap="round">
  <g transform="translate(0 -308.26772)">
   <path d="m57.6 742.2h948.8" stroke="#969696" stroke-width="1.875"/>
   <g stroke="#000" stroke-dasharray="3.75 7.5" stroke-miterlimit="2" stroke-width=".9375">
    <path d="m58.3 844.1h948.8"/>
    <path d="m58.3 641.8h948.8"/>
    <path d="m58.3 540.6h948.8"/>
   </g>
  </g>
  <path d="m514.9 370.3c-48.5 34.3-118.8 84.4-135.7 97.6-32.5 23.2-40.2 52.7-38 60 .9 3 16.3 22.9 59.8-38.1 26.9-36.9 54.6-73.4 69.3-116.4 15.5-30.1-1.4-56.7-44.4-11.6" stroke="#060000" stroke-linejoin="round" stroke-width="5.625"/>
  <g stroke="#000">
   <g stroke-width="5.625">
    <path d="m514.9 370.3c84.7-59.9 150.8-107.9 129.7-133.4-9.8-11.9-40.2 9-87.4 87.7-60.3 105.2-37.8 114.6-1.9 103.3 2.6-.8 10.3-2.8 22.8-10.6" stroke-linejoin="round"/>
    <path d="m578 417.3c16-9.3 23.5-15.4 37.7-13.2 21.1 5.8 12 46.8 54.6 16.8" stroke-linejoin="round"/>
    <path d="m628.5 240c-48 60-85.1 119.5-107.8 180.8"/>
   </g>
   <path d="m619.1 248.2c-38.3 44.9-74.5 98.7-96.4 158.6" stroke-width="7.5"/>
   <path d="m642.8 236.5c-9.2-6.9-21.3 13.8-23.8 16.7" stroke-width="3.75"/>
   <g stroke-width="5.625">
    <path d="m525.7 407.6c-6.1 21.8-2.5 23.6 11.3 23.9"/>
    <g stroke-linejoin="round">
     <path d="m403.6 390.8c3.6-5.3 13.8-18.5 22.3-28.9"/>
     <path d="m403.6 390.8c-48.2 61.4-98.5 47.1-84.7-.3"/>
    </g>
   </g>
  </g>
 </g>
</svg>
