<svg height="210mm" viewBox="0 0 1052.4 744.1" width="297mm" xmlns="http://www.w3.org/2000/svg">
 <g fill="none" stroke-linecap="round">
  <g transform="translate(0 -308.26772)">
   <path d="m57.6 742.2h948.8" stroke="#969696" stroke-width="1.875"/>
   <g stroke="#000" stroke-dasharray="3.75 7.5" stroke-miterlimit="2" stroke-width=".9375">
    <path d="m58.3 844.1h948.8"/>
    <path d="m58.3 641.8h948.8"/>
    <path d="m58.3 540.6h948.8"/>
   </g>
  </g>
  <g stroke="#000" stroke-width="5.625">
   <g stroke-linejoin="round">
    <path d="m625.5 397.6s160.2-80.3 214.5-109.3c19.6-8.3 32.1.9 12.3 40.5l-26.1 52.1"/>
    <path d="m471.1 431.3s209.3-174.4 195.9-193.5c-11.5-16.4-40.2 8.9-87.4 86.8-50.2 86.7-46.5 112.7-24.4 105.5 3.7-1.2 16.2-6.4 21.1-8.5 5.4-2.3 49.3-23.9 49.3-23.9"/>
    <path d="m91.1 533.3 358.9-148.8 21 46.7"/>
   </g>
   <path d="m980.5 183-154.3 197.8"/>
  </g>
 </g>
</svg>
