<svg height="210mm" viewBox="0 0 1052.4 744.1" width="297mm" xmlns="http://www.w3.org/2000/svg">
 <g fill="none" stroke-linecap="round">
  <g transform="translate(0 -308.26772)">
   <path d="m57.6 742.2h948.8" stroke="#969696" stroke-width="1.875"/>
   <g stroke="#000" stroke-dasharray="3.75 7.5" stroke-miterlimit="2" stroke-width=".9375">
    <path d="m58.3 844.1h948.8"/>
    <path d="m58.3 641.8h948.8"/>
    <path d="m58.3 540.6h948.8"/>
   </g>
  </g>
  <g stroke-linejoin="round" stroke-width="5.625">
   <path d="m469.5 433.6c-18.8 11.1-41.6 29.3-56.3 42.9-19.3 17.2-33 44.8-29 54.2 5.8 13.4 71.7-24.7 98.3-136.6 20.6-91.8 56.8-148 92.1-159.8" stroke="#060000"/>
   <path d="m471.9 432.3c84.9-62.5 134.6-57.2 119.3-1" stroke="#000"/>
   <path d="m370 383.3 23.9 47.9s126-156.2 156.5-182" stroke="#060000"/>
   <path d="m591.2 431.3s54.3-29.4 71.1-30.3c16-.6 21.6 31 32.6 30.7 7.2-.2 12.4-7.6 16.7-13" stroke="#000"/>
  </g>
 </g>
</svg>
