<svg height="210mm" viewBox="0 0 1052.4 744.1" width="297mm" xmlns="http://www.w3.org/2000/svg">
 <g fill="none" stroke-linecap="round">
  <g transform="translate(0 -308.26772)">
   <path d="m57.6 742.2h948.8" stroke="#969696" stroke-width="1.875"/>
   <g stroke="#000" stroke-dasharray="3.75 7.5" stroke-miterlimit="2" stroke-width=".9375">
    <path d="m58.3 844.1h948.8"/>
    <path d="m58.3 641.8h948.8"/>
    <path d="m58.3 540.6h948.8"/>
   </g>
  </g>
  <g stroke="#000" stroke-linejoin="round" stroke-width="5.625">
   <path d="m517 383.8c-17.5 11.2-30.4 20.5-36.1 26.3-25.9 26.2-48.6 55.7-45.7 63.4 1.1 2.9 22.5 22.8 62-40.9l83.3-151.7-167 109.7"/>
   <ellipse cx="84.506241" cy="582.64496" rx="25.728558" ry="20.371416" transform="matrix(.79083574 -.61202846 .61202846 .79083574 0 0)"/>
   <path d="m339.6 431.3c12.5 0 68.6-36.4 68.6-36.4"/>
   <path d="m364.8 336.9-42.4 73.1c-7.6 13.1-2.1 21 8.9 21.4 1.8.1 6.1.2 8.2-.1"/>
   <path d="m517 383.8c12.3-8.8 104.9-48.2 104.9-48.2l18.2 44.1"/>
  </g>
 </g>
</svg>
