<svg height="210mm" viewBox="0 0 1052.4 744.1" width="297mm" xmlns="http://www.w3.org/2000/svg">
 <g fill="none" stroke-linecap="round">
  <g transform="translate(0 -308.26772)">
   <path d="m57.6 742.2h948.8" stroke="#969696" stroke-width="1.875"/>
   <g stroke="#000" stroke-dasharray="3.75 7.5" stroke-miterlimit="2" stroke-width=".9375">
    <path d="m58.3 844.1h948.8"/>
    <path d="m58.3 641.8h948.8"/>
    <path d="m58.3 540.6h948.8"/>
   </g>
  </g>
  <g stroke="#000" stroke-linejoin="round">
   <path d="m450.4 336.3s-99.1 78.8-124.6 101.4c-30.7 28.2-81 85.6-58.3 95.7 10.4 3.4 34.5-6.1 56.1-65.2 15.8-47.4 14.6-113.8 68.9-132.1" stroke-width="5.625"/>
   <g stroke-width="5.624999">
    <path d="m458.6 336.3-46.6 95.4"/>
    <path d="m458.6 336.3h-8.2"/>
    <path d="m454.7 337.1-45.7 93.9"/>
    <path d="m412 431.7h-8.2"/>
    <path d="m450.4 336.3-46.6 95.4"/>
   </g>
   <path d="m496.7 336.4-84.6 95.3" stroke-width="5.625"/>
   <g stroke-width="5.545984">
    <path d="m681.8 346.2c24.5-.1 24.3 25 40.3 25.8 10.7.5 19.9-7.7 27.2-15.2"/>
    <path d="m681.8 346.2c-23.2.4-65.5 25.1-131.2 26-34.7.5-54.9-7.7-53.9-35.9"/>
   </g>
  </g>
 </g>
</svg>
