<svg height="210mm" viewBox="0 0 1052.4 744.1" width="297mm" xmlns="http://www.w3.org/2000/svg">
 <g fill="none" stroke-linecap="round">
  <g transform="translate(0 -308.26772)">
   <path d="m57.6 742.2h948.8" stroke="#969696" stroke-width="1.875"/>
   <g stroke="#000" stroke-dasharray="3.75 7.5" stroke-miterlimit="2" stroke-width=".9375">
    <path d="m58.3 844.1h948.8"/>
    <path d="m58.3 641.8h948.8"/>
    <path d="m58.3 540.6h948.8"/>
   </g>
  </g>
  <g stroke="#000" stroke-width="5.625">
   <g stroke-linejoin="round">
    <path d="m306.4 387.4c40 3 58.3-35.4 56.6-44.3-3.1-16.6-29.3-4.3-53.1 35-26.4 43.2-18.3 54.8-3.7 52.8 21.2-4.6 43.7-34.5 125.2-124.1"/>
    <ellipse cx="259.88449" cy="513.73804" rx="60.146576" ry="43.208748" transform="matrix(.88109295 -.47294313 .47294313 .88109295 0 0)"/>
    <path d="m629.8 229.4c20.4-.2 35.9-13.8 63.7-61.6"/>
    <path d="m528 229.6c22.9 2.6 45.6-30.4 67.3-30 16-.6 20 29.7 34.5 29.9"/>
    <path d="m418 321.7c45-52.4 118.2-126.6 135.7-145.3 19.8-21.3 22.3-36.1 17.7-40.8-5.2-5.2-28 1.1-43.3 41.9-15.1 39.7-9.5 52.4-.2 52.1"/>
   </g>
   <path d="m769.7 31.9-76.3 136"/>
  </g>
 </g>
</svg>
