<svg height="210mm" viewBox="0 0 1052.4 744.1" width="297mm" xmlns="http://www.w3.org/2000/svg">
 <g fill="none" stroke-linecap="round">
  <g transform="translate(0 -308.26772)">
   <path d="m57.6 742.2h948.8" stroke="#969696" stroke-width="1.875"/>
   <g stroke="#000" stroke-dasharray="3.75 7.5" stroke-miterlimit="2" stroke-width=".9375">
    <path d="m58.3 844.1h948.8"/>
    <path d="m58.3 641.8h948.8"/>
    <path d="m58.3 540.6h948.8"/>
   </g>
  </g>
  <g stroke="#000" stroke-linejoin="round" stroke-width="5.625">
   <path d="m530.3 336.6c-51.9 13.5-96.5 122.6-34.3 87.6 5.7-3.2 27.1-22.1 38.4-40.9"/>
   <path d="m400.4 383 19.1 48.4 80-76.3"/>
   <path d="m561.7 431.4s52.4-35.2 75.2-36.1 13.8 63.4 52.2 22"/>
   <path d="m534.4 383.3c9.7-13.2 13.7-21.8 27-32.7 26.4-23.8 61.3-21.3 31.5 28.5l-31.2 52.3"/>
  </g>
 </g>
</svg>
