<svg height="210mm" viewBox="0 0 1052.4 744.1" width="297mm" xmlns="http://www.w3.org/2000/svg">
 <g fill="none" stroke-linecap="round">
  <g transform="translate(0 -308.26772)">
   <path d="m57.6 742.2h948.8" stroke="#969696" stroke-width="1.875"/>
   <g stroke="#000" stroke-dasharray="3.75 7.5" stroke-miterlimit="2" stroke-width=".9375">
    <path d="m58.3 844.1h948.8"/>
    <path d="m58.3 641.8h948.8"/>
    <path d="m58.3 540.6h948.8"/>
   </g>
  </g>
  <g stroke-linejoin="round" stroke-width="5.625">
   <path d="m339.7 412.9c-33.5 23.6-68 29.8-73.5 32-10.2 4.1-18.9 7.6-28 13.8-13.1 9-22.1 19.1-29.8 29.1-16.8 21.9-18.4 41.7 6.1 46.3 0 0 31.7 6.1 62.3-46.2l89.2-152.4" stroke="#060000"/>
   <g stroke="#000">
    <path d="m339.7 412.9c23-13.8 41.9-22.3 57.6-25.2 29.5-5.4 45 10.5 36 43.5"/>
    <path d="m533 335.7-99.8 95.6"/>
    <path d="m557.9 383.6c18.2-28.1 35.6-62.9 51.1-88.4"/>
    <path d="m609 295.1c16.9-17.9 26.9-18.3 33.4-5.7 6.5 12.7 4 18.2 12.3 27.2 15.9 17.3 43.8-27.8 34.5-34.3-6.3-4.4-25.9 3.2-49.4 42-35.3 57.8-15.1 60.5 10.6 47.1 6.2-3.2 14.9-9 21.7-14.1"/>
    <path d="m616.8 287.6c9.6-6.8 18 4.1 21.6 15.8 3.2 10.5 8.7 18 23.9 17.1"/>
    <path d="m628.7 283.9c13.6.7 15.1 28.3 22.1 30"/>
    <path d="m533 335.7-42.4 73.1c-14.1 24.3 23.6 37.2 51.9-1.5 0 0 7.3-11.3 16.3-25.1"/>
    <path d="m671.9 357.3c11.2-6.6 20.5-20.1 34.9-20.2 24.5.5 10.3 41.1 33.2 40.9 10.9-.1 15.6-6.6 21.9-14.2"/>
    <path d="m800.3 303.1c-3.9 5.3-38.4 60.7-38.4 60.7"/>
    <ellipse cx="460.02121" cy="747.35785" rx="25.728558" ry="20.371416" transform="matrix(.79083574 -.61202846 .61202846 .79083574 0 0)"/>
   </g>
  </g>
 </g>
</svg>
