<svg height="210mm" viewBox="0 0 1052.4 744.1" width="297mm" xmlns="http://www.w3.org/2000/svg">
 <g fill="none" stroke-linecap="round">
  <g transform="translate(0 -308.26772)">
   <path d="m57.6 742.2h948.8" stroke="#969696" stroke-width="1.875"/>
   <g stroke="#000" stroke-dasharray="3.75 7.5" stroke-miterlimit="2" stroke-width=".9375">
    <path d="m58.3 844.1h948.8"/>
    <path d="m58.3 641.8h948.8"/>
    <path d="m58.3 540.6h948.8"/>
   </g>
  </g>
  <g stroke="#000" stroke-linejoin="round">
   <g stroke-width="5.625">
    <ellipse cx="117.45122" cy="607.56842" rx="25.728558" ry="20.371416" transform="matrix(.79083574 -.61202846 .61202846 .79083574 0 0)"/>
    <path d="m380.9 430.8c21.6-4.1 68.6-36.4 68.6-36.4"/>
    <path d="m406.1 336.4-42.4 73.1c-7.6 13.1-2.5 21.8 8.5 22.2 1.8.1 6.6-.5 8.7-.9"/>
    <path d="m525.7 299.4c19.3.6 20.6 31.7 38.7 31.8"/>
    <path d="m445.2 399.4c33.5-53.9 56.8-99.5 80.5-100"/>
   </g>
   <path d="m644.9 431.1c14.8-7.7 32.2-16.2 28.9-34.4-.9-14.2-55-41.3-61.8-64.1-3.5-11.7 8.2-28.9 23.4-45.3" stroke-width="5.624998"/>
   <path d="m564.4 331.2c13.4.4 28-10.9 71.1-44" stroke-width="5.625"/>
  </g>
 </g>
</svg>
