<svg height="210mm" viewBox="0 0 1052.4 744.1" width="297mm" xmlns="http://www.w3.org/2000/svg">
 <g fill="none" stroke="#000" stroke-linecap="round">
  <g transform="translate(0 -308.26772)">
   <path d="m57.6 742.2h948.8" stroke-width="1.875"/>
   <g stroke-dasharray="3.75 7.5" stroke-miterlimit="2" stroke-width=".9375">
    <path d="m58.3 844.1h948.8"/>
    <path d="m58.3 641.8h948.8"/>
    <path d="m58.3 540.6h948.8"/>
   </g>
  </g>
  <g stroke-linejoin="round" stroke-width="5.625">
   <path d="m560.4 429.7c4.7-.9 278.3-93.7 278.3-93.7l-52.1 94.7 73.1-42"/>
   <path d="m431.2 460.7c7.3-4.5 222.8-185.6 234.5-197.7 8.6-8.9 13-18.8 5.6-25-14.4-12.1-36.8-2.1-45.5 22.4-4.9 13.8-3.1 34.6-6.7 53.9-3.7 20-43.6 46.6-64.3 69.8-23.6 26.4-24.4 54 5.6 45.6"/>
   <path d="m267.5 337.5s.4-.2 4.3-2.6c20.8-13.1 39.5-27.2 56.3-43.6 23.8-23.3 34.1-45.8 29.2-54.2-7.8-13.3-36.9 10.3-84.1 88.2l-52.6 106"/>
   <path d="m251.8 479.3c16.8-.5 33-21.3 35-47.2 2.1-26.8 47.3-53.8 36.3-48.7l-102.4 48"/>
   <path d="m306.6 398.5c-18.7 24.9-13 28.9-16.8 41.1-3.5 11.7-12.1 25.9-24.2 34.7"/>
   <path d="m303.7 401.6c-7.6 7.8-16.9 18.3-21 32.6-4.1 14.4-5.5 33.4-22.5 43.1"/>
   <path d="m260.3 477.3c26.6-7.7 63.6-41.7 98-40.1 17 .7 22.6 40.4 40.2 39.8 9.3-.3 23.5-9.2 32.7-16.2"/>
  </g>
 </g>
</svg>
