<svg height="210mm" viewBox="0 0 1052.4 744.1" width="297mm" xmlns="http://www.w3.org/2000/svg">
 <g fill="none" stroke-linecap="round">
  <g transform="translate(0 -308.26772)">
   <path d="m57.6 742.2h948.8" stroke="#969696" stroke-width="1.875"/>
   <g stroke="#000" stroke-dasharray="3.75 7.5" stroke-miterlimit="2" stroke-width=".9375">
    <path d="m58.3 844.1h948.8"/>
    <path d="m58.3 641.8h948.8"/>
    <path d="m58.3 540.6h948.8"/>
   </g>
  </g>
  <g stroke="#000">
   <g stroke-linejoin="round" stroke-width="5.625">
    <path d="m369.3 431.4 154.4-153.2"/>
    <path d="m523.7 278.2-53.9 97.8"/>
    <path d="m300.9 431.8c19-28.3 59.4-80.8 86-93 19.6-8.3 35 2.5 12.3 40.5l-29.8 52.1"/>
    <path d="m409.3 345.1-49.2 86.2"/>
    <path d="m409.5 351.4-45.6 79.9"/>
    <path d="m360.1 431.3 9.3.1"/>
   </g>
   <path d="m405.3 339c1.8 1.7 2.3 5.7.7 9.9" stroke-width="3.75"/>
   <g stroke-linejoin="round" stroke-width="5.625">
    <path d="m469.8 376 115.1-93.9-55.8 97.2"/>
    <path d="m595.5 282-55.8 97.2"/>
    <path d="m595.5 282h-10.6"/>
    <path d="m589.9 282-55.8 97.3"/>
    <path d="m539.7 379.2h-10.6"/>
    <path d="m815.9 282.3c-41.9 53.3-176.2 74.7-175.1-.3l-101.1 97.3"/>
   </g>
  </g>
 </g>
</svg>
