<svg height="210mm" viewBox="0 0 1151.6 744.1" width="325mm" xmlns="http://www.w3.org/2000/svg">
 <g fill="none" stroke-linecap="round">
  <g transform="translate(0 -308.26772)">
   <path d="m18.2 742.2h1117" stroke="#969696" stroke-width="1.875"/>
   <g stroke="#000" stroke-dasharray="3.75 7.5" stroke-miterlimit="2" stroke-width=".9375">
    <path d="m18.9 844.1h1117.1"/>
    <path d="m18.9 641.8h1117.1"/>
    <path d="m18.9 540.6h1117.1"/>
   </g>
  </g>
  <g stroke="#000" stroke-linejoin="round">
   <g stroke-width="5.625">
    <path d="m571.2 316c-28.3 23.9-107.3 49.2-121.6 44.9"/>
    <path d="m631.4 379.4c10.5-.4 166.7-81.6 217.7-91.6 48.7-9.5 86.2 8.3 59.9 77.3-1.6 4.3-6.9 16.5-6.9 16.5"/>
    <path d="m558.4 358.8c19.1-17.1 46.3-53.7 46.3-53.7"/>
    <path d="m604.7 305.2c4.3-5.5 9.2-9.6 10.2-10.4 18.8-17.3 56.9-11.1 34.4 16.7-27.4 33.9-45.5 50.2-39.4 63.9 2.6 5.9 12.3 6.6 21.5 4.1"/>
    <path d="m571.2 316c13.2-11 15.6-21.4 12.6-27.4-3.7-7.2-30.4-4.4-55.1 36.4-47.4 77.5-2.2 60.8 29.8 33.9"/>
    <path d="m1025.6 284-55.8 97.2"/>
    <path d="m1025.6 284h-10.6"/>
    <path d="m1020.1 284-55.8 97.2"/>
    <path d="m969.8 381.2h-10.6"/>
    <path d="m902.1 381.7 113-97.7-55.8 97.2 11-.1"/>
    <path d="m459.8 354.6c-16.4 12.5-58.1 21.6-68.6 17.3-7.1-2.9-7.3-13.2 2.2-36.2"/>
    <ellipse cx="-178.54839" cy="378.62726" rx="25.728556" ry="20.371416" transform="matrix(.79083574 -.61202846 .61202846 .79083574 0 0)"/>
    <path d="m393.5 335.7c-45.5 41-117.9 101.3-158.9 139.8-19.5 18.9-43.8 49.1-29.6 57.3 7.3 3.3 23.9 1 52.9-45.7l88-150.7-254.4 50.2"/>
   </g>
   <ellipse cx="568.22467" cy="-56.710396" rx="5.271423" ry="7.848563" stroke-width="14.034715" transform="matrix(.72846687 .68508103 -.68508103 .72846687 0 0)"/>
   <path d="m970.2 381.1 110.2-97.4" stroke-width="5.625"/>
  </g>
 </g>
</svg>
