<svg height="210mm" viewBox="0 0 1052.4 744.1" width="297mm" xmlns="http://www.w3.org/2000/svg">
 <g fill="none" stroke-linecap="round">
  <g transform="translate(0 -308.26772)">
   <path d="m57.6 742.2h948.8" stroke="#969696" stroke-width="1.875"/>
   <g stroke="#000" stroke-dasharray="3.75 7.5" stroke-miterlimit="2" stroke-width=".9375">
    <path d="m58.3 844.1h948.8"/>
    <path d="m58.3 641.8h948.8"/>
    <path d="m58.3 540.6h948.8"/>
   </g>
  </g>
  <g stroke-linejoin="round">
   <g stroke="#000">
    <path d="m333.4 435.6c47.2-39.5 65.5-50.5 85.1-55.5 29.7-7.5 50.1 11.2 38.3 51" stroke-width="5.625"/>
    <path d="m456.8 431.1c48.5-32.6 71.7-36.4 82.8-36.1 13.7.4 15.7 39.1 40.3 34.5" stroke-width="6.509767"/>
    <path d="m518.4 398.4c7.5-1.8 19.5-3.9 27.4 19.2 5.6 16.4 22.4 12.2 29.3 12.3" stroke-width="6.509767"/>
    <path d="m539 398c0 .2 15.1 23.4 17.6 27.4" stroke-width="9.764649"/>
    <path d="m581.3 429.9c61.6-10.7 160.8-26.6 200.3-31.5 15.2 1.1 16.5 32.8 33.2 32.2 5.8-.2 12-3.4 23.6-11.1" stroke-width="5.625"/>
    <path d="m838.5 419.4 35.6-26.2" stroke-width="5.625"/>
    <path d="m205.2 358.3c24.3-33 69.8-34.3 37.1 19.9l-31.5 52.1" stroke-width="5.624959"/>
   </g>
   <g stroke-width="5.624959">
    <path d="m211.6 430.1c11.7-3.2 30.8-1.8 33 3.2" stroke="#030002"/>
    <g stroke="#000">
     <path d="m243.3 433.1c.8.1 1.4.2 1.9.5.2.1.3.2.4.3 1 .7 1.3 2 .8 4-1 3.9-5.4 6.1-7.5 7-4.3 1.6-7.6-2-5.1-5.8 1.6-2.4 4.3-5.1 7.4-5.8.2 0 .4-.1.7-.1.2-.1.5-.1.8-.1.7 0 1.3.1 1.9.3"/>
     <path d="m239 434.2s17.5-16.5 21.8-19"/>
     <path d="m333.4 435.6c-11.1 8.3-135.5 104-141.4 114.6-7 12.4-8.7 22.9-7.5 26.9.9 3 16.3 22.9 59.8-38.1 27-36.9 54.7-73.4 69.4-116.5 12.6-24.4 3.7-46.6-23.1-29.8-6.1 3.9-17.7 12.1-29.8 22.5"/>
    </g>
   </g>
  </g>
  <g stroke="#000">
   <path d="m314.1 411.6c-20.5 46-64.8 123.2-100.8 158.2" stroke-width="8.474937"/>
   <path d="m317.2 399.5c1.4 8.4-92.8 164.9-115 178.6" stroke-width="5.624959"/>
   <g stroke-width="3.749972">
    <path d="m309.7 388.1c6.9 1 9.5 9.1 2.9 20.6"/>
    <path d="m210 569.6c-6.3 5.5-18.8 17.1-24.4 7.2"/>
   </g>
  </g>
 </g>
</svg>
