<svg height="210mm" viewBox="0 0 1052.4 744.1" width="297mm" xmlns="http://www.w3.org/2000/svg">
 <g fill="none" stroke-linecap="round">
  <g stroke="#969696" transform="translate(0 -308.26772)">
   <path d="m57.6 742.2h948.8" stroke-width="1.875"/>
   <g stroke-dasharray="3.75 7.5" stroke-miterlimit="2" stroke-width=".9375">
    <path d="m58.3 844.1h948.8"/>
    <path d="m58.3 641.8h948.8"/>
    <path d="m58.3 540.6h948.8"/>
   </g>
  </g>
  <g stroke="#000">
   <g stroke-linejoin="round">
    <g stroke-width="5.625">
     <path d="m470.5 431.3c7-10.1 26.2-40.2 35.4-52.3 16-21.1 34.7-40.9 55.6-42.3 23.4-.2 35.6 20.7 45 42.9 10.5 24.8 17.6 51.3 33 51.8"/>
     <path d="m564.7 336.8c12.6.1 28 16.8 38.6 46.9 9.1 25.7 19 48.7 38.4 47.7"/>
     <path d="m568.5 337.3c16.2 2.5 31.7 14.4 43.2 44.1 9.2 23.9 10.5 44 22.6 48.8"/>
     <path d="m641.7 431.4c23.5-.2 64.8-31.3 83.5-33.2 18.2-.7 20.7 32.8 36 33.3 8.2.3 12.7-4.7 17.8-9"/>
    </g>
    <path d="m388.4 311c7.9-12 20.4-25.7 37.3-25.3 17.7.3 23.9 19.3 5 42-28.5 34.1-41.2 55.5-50.2 69.2-9.2 14.2-7.2 33.3 12.5 34.3 18.7.9 43.3-12.5 70.8-38.5" stroke-width="5.62496"/>
   </g>
   <path d="m463.6 392.7-72.9 140.3" stroke-width="5.625"/>
  </g>
 </g>
</svg>
