<svg height="210mm" viewBox="0 0 1052.4 744.1" width="297mm" xmlns="http://www.w3.org/2000/svg">
 <g fill="none" stroke-linecap="round">
  <g transform="translate(0 -308.26772)">
   <path d="m57.6 742.2h948.8" stroke="#969696" stroke-width="1.875"/>
   <g stroke="#000" stroke-dasharray="3.75 7.5" stroke-miterlimit="2" stroke-width=".9375">
    <path d="m58.3 844.1h948.8"/>
    <path d="m58.3 641.8h948.8"/>
    <path d="m58.3 540.6h948.8"/>
   </g>
  </g>
  <g stroke="#000">
   <path d="m773.1 431.8c46.6-16.9 75.3-102.6 43.7-95.3-15.9 3.7-32.5 26.1-50.3 49.7-13 17.2-33 44.6-50 45.3-15.5.6-16.2-32.2-34.2-31.8-17.6.9-51.1 15.9-89.1 32.4" stroke-linejoin="round" stroke-width="5.625"/>
   <ellipse cx="372.34576" cy="865.48035" rx="25.728558" ry="20.371416" stroke-linejoin="round" stroke-width="5.625" transform="matrix(.79083574 -.61202846 .61202846 .79083574 0 0)"/>
   <path d="m846.6 445.5c.3 9.3-.4 14.6-6.3 21.9-3.6 4.5-8.8 8.3-16 11.1" stroke-width="5.624961"/>
   <path d="m843 440.3c2 6.9 1.8 6.4.7 11.6-1.6 7.6-6.1 13.5-12.5 18.7-3.2 2.6-6.9 5-10.9 7.3" stroke-width="6.599955"/>
   <path d="m826 472.2c-5.3 3.7-10.3 5.7-16.3 3.5" stroke-width="2.849979"/>
   <path d="m832.2 435.6c6.2 1.3 8.4 3.3 9.7 7.9.3.9.9 2.9.4 5.9" stroke-width="2.849979"/>
   <g stroke-linejoin="round" stroke-width="5.625">
    <path d="m773.1 431.8 57.4 2.3"/>
    <path d="m143 336.2c-14.3 24.3-32.2 52.2-43 72.9-7.6 16.6-.3 23.4 13.1 22.1"/>
    <path d="m113.1 431.2c14.7-1.5 59.5-23.6 87.5-40.1 15.4-9.1 30.3-19.3 43.6-30.8 7.2-6.4 9.4-13.1 4.9-19.5-2.1-3.3-7.1-4.4-10.6-4.4-21.7 1.1-38.3 26.7-46.3 39.7-47.4 77.5-2.2 59.5 29.8 32.6"/>
    <path d="m227.5 339.4c-4 2.4-12.8 10.7-18.1 16.7-5.4 6.1-8.5 11.6-14.1 20.4-14 23-21.3 32.2-23.7 45.9"/>
    <path d="m233.2 337.1c-11.5 1.2-23.1 10.3-31.4 19.3-8 8.7-11.8 14.5-15.1 20.1-12.5 20.4-21.9 46.7-12.3 53.8"/>
   </g>
   <path d="m237.1 337.9c-7.2.7-11.7 4.5-15.8 8.1" stroke-width="2.8125"/>
   <g stroke-linejoin="round" stroke-width="5.625">
    <path d="m393.2 334.1c53.3-10.8 96-78.6 89.8-95-5.4-14.1-39.5 8.7-85.7 85.1l-60.4 107.6"/>
    <path d="m336.9 431.8c40.4-20.2 90.7-44.6 107.1-34.4 7.1 5.1 13.1 31.2 25.8 33.2 3.4.7 7.2 1.5 10.8.6 3.2-.9 5.5-1.7 8.5-3.6 1.9-1.2 4.1-2.8 6.9-5.2 19.9-16.1 30.2-40.6 67.6-40.3 14.5.3 39.8 10.5 29.7 50"/>
    <path d="m431.1 395.1c7.9-.6 19.4-1.6 27.4 18.4 4.6 11.7 5.1 16.8 16.1 17.9"/>
    <path d="m444.8 400.1c9.3 13.2 5.5 27.6 20.2 28.6"/>
    <path d="m426.7 395.5c9.7-1.2 12.8.1 24.2 21.2 9 17.8 19.3 14.6 25 14.8"/>
    <path d="m816.7 437.2c24.2-12.3 69.9-37.5 87.6-38.4 18-.4 19.1 31.6 34.2 32.2 7.5.3 13.1-6.2 18.3-10.8"/>
   </g>
  </g>
 </g>
</svg>
