<svg height="210mm" viewBox="0 0 1052.4 744.1" width="297mm" xmlns="http://www.w3.org/2000/svg">
 <g fill="none" stroke-linecap="round">
  <g transform="translate(0 -308.26772)">
   <path d="m57.6 742.2h948.8" stroke="#969696" stroke-width="1.875"/>
   <g stroke="#000" stroke-dasharray="3.75 7.5" stroke-miterlimit="2" stroke-width=".9375">
    <path d="m58.3 844.1h948.8"/>
    <path d="m58.3 641.8h948.8"/>
    <path d="m58.3 540.6h948.8"/>
   </g>
  </g>
  <g stroke="#000" stroke-width="5.625">
   <path d="m434.7 234.2-113.1 196.6"/>
   <g stroke-linejoin="round">
    <path d="m321.6 430.8s44.6-32.4 61.8-29.2c13.6 2.5 15.7 29.8 30.5 29.1 4-.2 36.8 3.1 43.1-2.1"/>
    <path d="m365.2 405.6c5.4-2.4 18.6-2.2 26.5 15 5.6 12.2 13.9 9.5 20.5 9.9"/>
    <path d="m379.8 403.7c6.7 5.9 6.3.5 21.2 23.1"/>
    <ellipse cx="106.84033" cy="599.21967" rx="25.728558" ry="20.371416" transform="matrix(.79083574 -.61202846 .61202846 .79083574 0 0)"/>
    <path d="m470.6 417.5 127.3-129.3-56.7 94.9"/>
    <path d="m610.4 434.1c-18.8 11.1-41.6 29.3-56.3 42.9-19.3 17.2-33 44.8-29 54.2 5.8 13.4 71.7-24.7 98.3-136.6 20.6-91.8 56.8-148 92.1-159.8"/>
    <path d="m612.8 432.7c84.9-62.5 134.6-57.2 119.3-1"/>
    <path d="m790 387.3-57.9 44.5"/>
    <path d="m685 255.8-143.8 127.2"/>
   </g>
  </g>
 </g>
</svg>
