<svg height="210mm" viewBox="0 0 1052.4 744.1" width="297mm" xmlns="http://www.w3.org/2000/svg">
 <g fill="none" stroke-linecap="round">
  <g transform="translate(0 -308.26772)">
   <path d="m57.6 742.2h948.8" stroke="#969696" stroke-width="1.875"/>
   <g stroke="#000" stroke-dasharray="3.75 7.5" stroke-miterlimit="2" stroke-width=".9375">
    <path d="m58.3 844.1h948.8"/>
    <path d="m58.3 641.8h948.8"/>
    <path d="m58.3 540.6h948.8"/>
   </g>
  </g>
  <g stroke="#000" stroke-linejoin="round" stroke-width="5.625">
   <path d="m341.6 430.3c22.8-2 140.2-44.9 140.2-44.9"/>
   <path d="m271 431s19.3-25.3 37.5-25.5c15.1-.1 16.2 28.2 33.2 24.7"/>
   <path d="m481.9 385.4 105.3-40.1c12.2-4.6 24.5-8.9 33.9-8.8 13.5.2 19.9 7.6 6.3 25.9-26.1 34.9-44 49.8-38 63.4 2.3 5.3 10.4 6.3 18.5 4.6"/>
   <path d="m607.8 430.4c19.8-4 61.8-29.1 80.5-29.8 20.4.8 10.8 31.7 32.5 30.6 7.7-.5 12.5-8.2 17.9-15.5"/>
  </g>
 </g>
</svg>
