<svg height="210mm" viewBox="0 0 1052.4 744.1" width="297mm" xmlns="http://www.w3.org/2000/svg">
 <g fill="none" stroke-linecap="round">
  <g transform="translate(0 -308.26772)">
   <path d="m57.6 742.2h948.8" stroke="#969696" stroke-width="1.875"/>
   <g stroke="#000" stroke-dasharray="3.75 7.5" stroke-miterlimit="2" stroke-width=".9375">
    <path d="m58.3 844.1h948.8"/>
    <path d="m58.3 641.8h948.8"/>
    <path d="m58.3 540.6h948.8"/>
   </g>
  </g>
  <g stroke="#000">
   <g stroke-linejoin="round" stroke-width="5.625">
    <path d="m546.9 385.2-289.5 46.9"/>
    <path d="m515.5 396.4 98.5-59.7"/>
    <ellipse cx="271.04825" cy="637.98419" rx="62.130169" ry="44.633743" transform="matrix(.88109295 -.47294313 .47294313 .88109295 0 0)"/>
   </g>
   <path d="m597.3 412c-13.8 27.9-38.1 52.4-66.8 70.7" stroke-width="5.385754"/>
   <path d="m598.4 421c-15.9 21.3-33.1 41.5-54 58.5" stroke-width="5.385754"/>
   <path d="m597.5 427.4c-14.3 21.6-19.7 29.6-41.7 46.5" stroke-width="7.181006"/>
   <path d="m546.1 470.6c-10.1 9.6-24.3 12.2-31.1 10.7" stroke-width="3.590503"/>
   <path d="m589.2 398.1c2.2 2.5 8.7 12.2 1.3 24.5" stroke-width="3.590503"/>
   <g stroke-linejoin="round" stroke-width="5.625">
    <path d="m614.4 337.1 34.7 44.5c14.8 17.9 14.4 35.6 12.2 47.1-3.1 18.7-6.1 29.1-39.8 55.5"/>
    <path d="m621.5 484.2s87.9-52.1 114.8-48.2c26.8 3.9 23.3 77 70 34"/>
   </g>
  </g>
 </g>
</svg>
