<svg height="210mm" viewBox="0 0 1052.4 744.1" width="297mm" xmlns="http://www.w3.org/2000/svg">
 <g fill="none" stroke-linecap="round">
  <g transform="translate(0 -308.26772)">
   <path d="m57.6 742.2h948.8" stroke="#969696" stroke-width="1.875"/>
   <g stroke="#000" stroke-dasharray="3.75 7.5" stroke-miterlimit="2" stroke-width=".9375">
    <path d="m58.3 844.1h948.8"/>
    <path d="m58.3 641.8h948.8"/>
    <path d="m58.3 540.6h948.8"/>
   </g>
  </g>
  <g stroke="#000" stroke-width="5.625">
   <g stroke-linejoin="round">
    <ellipse cx="341.3089" cy="653.96655" rx="25.728558" ry="20.371416" transform="matrix(.79083574 -.61202846 .61202846 .79083574 0 0)"/>
    <path d="m737.2 259.6c13.1-14.7 23.3-20.4 35.4-23.6 20.4-5.4 34.4 2.5 12.1 40.6l-90 153.8 109.6-38.9"/>
    <path d="m737.2 259.6s-41.9 51.9-49.9 60.4"/>
    <path d="m212.5 328c8.8-5.5 24.6-30.2 54.2-39.9 30.5-10 48.1 8.9 38.9 43"/>
   </g>
   <path d="m167.4 330.8h37.1"/>
   <g stroke-linejoin="round">
    <path d="m212.4 320.1c.6.1 1.2.2 1.7.4.1.1.3.2.4.3.8.6 1.1 1.7.7 3.4-.9 3.3-4.7 5.3-6.5 5.9-3.7 1.3-6.5-1.7-4.3-5 1.3-2.1 3.6-4.3 6.3-4.9.2 0 .4-.1.6-.1h.7c.5 0 1.1.1 1.6.2"/>
    <path d="m516.2 238.3s-3.1 1.2 3.3-1.1c16.3-5.7 36.1 3.9 18.7 25.5-27.4 33.8-42.8 39.6-37.5 57.3 1.5 5 4.7 11.8 19.1 11"/>
    <path d="m305.6 331 210.6-92.7"/>
    <path d="m519.8 331.1c18.8.2 67.7-34.2 86.8-35.2 17.7.1 18.8 22.8 28.2 32.4 5.8 7.4 29.3 4.5 38.9.8"/>
    <ellipse cx="509.01074" cy="767.36652" rx="59.825882" ry="42.978363" transform="matrix(.88109295 -.47294313 .47294313 .88109295 0 0)"/>
   </g>
  </g>
 </g>
</svg>
