<svg height="210mm" viewBox="0 0 1052.4 744.1" width="297mm" xmlns="http://www.w3.org/2000/svg">
 <g fill="none" stroke-linecap="round">
  <g transform="translate(0 -308.26772)">
   <path d="m57.6 742.2h948.8" stroke="#969696" stroke-width="1.875"/>
   <g stroke="#000" stroke-dasharray="3.75 7.5" stroke-miterlimit="2" stroke-width=".9375">
    <path d="m58.3 844.1h948.8"/>
    <path d="m58.3 641.8h948.8"/>
    <path d="m58.3 540.6h948.8"/>
   </g>
  </g>
  <g stroke="#010000">
   <path d="m599.5 239.6c-32.7 27.9-44.6 53.2-61.5 79.5-20.8 32.4-39.2 65.7-46.6 98.7" stroke-width="5.625001"/>
   <path d="m430 431.3c38.5-33.7 125.2-99.9 159.5-134.4 28.4-28.5 44.6-53.8 26.5-61.9-14-6.3-42.6 13.7-89.8 91.6-38.6 66.7-42.5 95.9-31.4 103.1 2.1 1.4 5.1 2 7.4 2" stroke-linejoin="round" stroke-width="5.625001"/>
   <path d="m588.5 249.7c-38.3 44.9-72.9 96.9-94.8 156.8" stroke-width="7.500001"/>
   <path d="m617.8 236.9c-12-5.1-19.3 4.8-29.2 15.6" stroke-width="3.75"/>
   <path d="m495.9 403.5c-4.4 14.3-6.1 21.8-.5 26.3" stroke-width="5.625001"/>
  </g>
  <path d="m502.2 431.6c26.9-.8 68.9-18.7 94.6-44.8" stroke="#000" stroke-linejoin="round" stroke-width="5.625"/>
 </g>
</svg>
