<svg height="210mm" viewBox="0 0 1052.4 744.1" width="297mm" xmlns="http://www.w3.org/2000/svg">
 <g fill="none" stroke-linecap="round">
  <g transform="translate(0 -308.26772)">
   <path d="m57.6 742.2h948.8" stroke="#969696" stroke-width="1.875"/>
   <g stroke="#000" stroke-dasharray="3.75 7.5" stroke-miterlimit="2" stroke-width=".9375">
    <path d="m58.3 844.1h948.8"/>
    <path d="m58.3 641.8h948.8"/>
    <path d="m58.3 540.6h948.8"/>
   </g>
  </g>
  <g stroke="#000" stroke-linejoin="round" stroke-width="5.625">
   <path d="m529.1 357c-21.2 14.9-118.8 88.9-138.8 107.2-34.6 31.6-43.9 58.1-40.9 65.8 1.1 2.9 17.7 21.8 57.3-41.8l88-150.7"/>
   <path d="m529.1 357c11-8.4 19.1-13.3 26.6-16.9 3.9-1.9 8-3.1 12-3.6 16.7-1.9 32.3 9.9 32.1 49-.3 33.3 15.8 47.8 30.1 47.7 13.5-.1 29.1-1.9 36.8-7.7 5.4-3.7 27.3-21 37.3-31"/>
   <path d="m569.7 336.3c12.3-1.3 35.4 13.9 35.2 45.8-.2 30.1 8.2 53 28.3 51.2"/>
   <path d="m569.7 336.3c17-.9 25 18 24.8 49.9-.2 30.1 13.3 47.8 38.7 47.1"/>
  </g>
 </g>
</svg>
