<svg height="210mm" viewBox="0 0 1052.4 744.1" width="297mm" xmlns="http://www.w3.org/2000/svg">
 <g fill="none" stroke-linecap="round">
  <g transform="translate(0 -308.26772)">
   <path d="m57.6 742.2h948.8" stroke="#969696" stroke-width="1.875"/>
   <g stroke="#000" stroke-dasharray="3.75 7.5" stroke-miterlimit="2" stroke-width=".9375">
    <path d="m58.3 844.1h948.8"/>
    <path d="m58.3 641.8h948.8"/>
    <path d="m58.3 540.6h948.8"/>
   </g>
  </g>
  <g stroke="#000" stroke-linejoin="round" stroke-width="5.625">
   <path d="m554.8 336.1-42.4 73.1c-14.1 24.3 26.9 35.7 51.9 1.6l18.2-25.1"/>
   <path d="m546 418.3c.6.1 1.1.2 1.6.4.1.1.3.2.4.2.8.6 1 1.6.6 3.2-.8 3.2-4.4 5-6.1 5.6-3.5 1.3-6.1-1.6-4.1-4.8 1.3-2 3.4-4.1 6-4.7.2 0 .4-.1.5-.1h.7c.5 0 1 .1 1.5.2"/>
   <path d="m582.5 385.7c21.5-31 33-42.2 52.1-47.7 31-8.8 53 4.7 46.5 41.2"/>
   <path d="m681.1 379.2s59.7-35.5 77-31.6c13.7 3 13 32.2 29.2 31.5 4.5-.2 13.4-6.6 16.7-10.5"/>
   <path d="m300.9 430.9c3-4.3 20.9-27.6 26.8-32.9 5-4.5 15.4-12 23.5-13.1 16.4-2.2 27.7 6.2 12.1 25.6-27.4 33.8-45.5 50.2-39.4 63.9 4.2 9.5 23 7 36.5-3.7 38.6-31.7 83.5-135 121-135 29.3 0-.8 78.8-45.9 95.2"/>
   <path d="m554.8 336.1s-139.1 95.7-119.3 94.7"/>
  </g>
 </g>
</svg>
