<svg height="210mm" viewBox="0 0 1052.4 744.1" width="297mm" xmlns="http://www.w3.org/2000/svg">
 <g fill="none" stroke-linecap="round">
  <g transform="translate(0 -308.26772)">
   <path d="m57.6 742.2h948.8" stroke="#969696" stroke-width="1.875"/>
   <g stroke="#000" stroke-dasharray="3.75 7.5" stroke-miterlimit="2" stroke-width=".9375">
    <path d="m58.3 844.1h948.8"/>
    <path d="m58.3 641.8h948.8"/>
    <path d="m58.3 540.6h948.8"/>
   </g>
  </g>
  <g stroke-linejoin="round" stroke-width="5.625">
   <path d="m613.8 431.2s63.3-32.4 80.6-29.2c13.5 2.5 15.4 29.1 30.2 28.9" stroke="#000"/>
   <g stroke="#0b0000">
    <path d="m673.3 405.6c13.3-4.5 20.4-2.4 29.3 15.5 6 12 14.1 9.8 22 9.8"/>
    <path d="m690.7 404.1c6.7 5.9 6.3.5 21.2 23.1"/>
   </g>
  </g>
  <g stroke="#000">
   <path d="m740.3 422.7c-5.7 4.8-11 7.9-15.6 8.2" stroke-width="5.624999"/>
   <g stroke-linejoin="round" stroke-width="5.625">
    <path d="m263.4 431.4 270.5-46.1"/>
    <path d="m533.9 385.3 21.8 46c10.7-14.3 40.2-57.1 51.6-71.5 9.8-12.4 20.8-23.4 33.2-23.6 10.7-.2 17.6 9.8 7.7 29.1-7.6 14-34.3 66-34.3 66"/>
   </g>
  </g>
 </g>
</svg>
