<svg height="210mm" viewBox="0 0 1052.4 744.1" width="297mm" xmlns="http://www.w3.org/2000/svg">
 <g fill="none" stroke-linecap="round">
  <g transform="translate(0 -308.26772)">
   <path d="m57.6 742.2h948.8" stroke="#969696" stroke-width="1.875"/>
   <g stroke="#000" stroke-dasharray="3.75 7.5" stroke-miterlimit="2" stroke-width=".9375">
    <path d="m58.3 844.1h948.8"/>
    <path d="m58.3 641.8h948.8"/>
    <path d="m58.3 540.6h948.8"/>
   </g>
  </g>
  <g stroke="#000">
   <g stroke-linejoin="round">
    <path d="m391 387.2 21.3 44.2" stroke-width="5.625"/>
    <g stroke-width="6.562499">
     <path d="m499.7 383.9-47.5 81.9"/>
     <path d="m495 383.8-38.7 70.9-3.8 16.5"/>
     <path d="m499.7 383.9h-9.3"/>
    </g>
    <path d="m412.3 431.4 77.9-47.9-38.9 72.5c-7.2 13.4 1.8 23.1 15 23 1 0 1.9-.1 2.9-.2" stroke-width="5.624999"/>
   </g>
   <path d="m461.5 452.4c-6 9.6-9.9 25.1 3.6 25.5" stroke-width="3.749999"/>
   <path d="m469.2 478.7c50.3-9.8 71.4-94.1 103.2-96.2 17.6 0 25.4 36 44.3 35.8s28.7-15.2 27.6-23.9c-.6-8.7-9.2-12.4-22-12-24.1 4-36.3 31.6-43 42.6-19.7 34.1-12.7 51.8-1.5 53.1 13.4 1.4 28.3-7.8 42-21.1" stroke-linejoin="round" stroke-width="5.625"/>
  </g>
 </g>
</svg>
