<svg height="210mm" viewBox="0 0 1052.4 744.1" width="297mm" xmlns="http://www.w3.org/2000/svg">
 <g fill="none" stroke-linecap="round">
  <g transform="translate(0 -308.26772)">
   <path d="m57.6 742.2h948.8" stroke="#969696" stroke-width="1.875"/>
   <g stroke="#000" stroke-dasharray="3.75 7.5" stroke-miterlimit="2" stroke-width=".9375">
    <path d="m58.3 844.1h948.8"/>
    <path d="m58.3 641.8h948.8"/>
    <path d="m58.3 540.6h948.8"/>
   </g>
  </g>
  <g stroke="#000" stroke-linejoin="round" stroke-width="5.625">
   <path d="m393.4 431c12.8 2.3 35.5-10.6 37.6-29.1 1.8-15.4-7.7-21.8-7.6-31.3-2.1-15.9 25.4-43.7 40-32.8 21.9 14.6-83.3 86.8-115.4 93.1"/>
   <path d="m321.6 358.6c15.9-32 75.6-30.6 48.2 3.3-27.4 33.8-47.2 52.6-39.4 63.9 3.6 5.3 10.1 6.5 17.6 5"/>
   <path d="m746.6 238.2s-373.1 192.7-353.2 192.7"/>
   <path d="m734.8 336.8c-30.1 60.3-59.4 88.9-75.6 93.3-55.6 15 33.8-137 77.9-183.7 4.7-5 11.2-10.7 18.9-11.9"/>
  </g>
 </g>
</svg>
