<svg height="210mm" viewBox="0 0 1052.4 744.1" width="297mm" xmlns="http://www.w3.org/2000/svg">
 <g fill="none" stroke="#000" stroke-linecap="round">
  <g transform="translate(0 -308.26772)">
   <path d="m57.6 742.2h948.8" stroke-width="1.875"/>
   <g stroke-dasharray="3.75 7.5" stroke-miterlimit="2" stroke-width=".9375">
    <path d="m58.3 844.1h948.8"/>
    <path d="m58.3 641.8h948.8"/>
    <path d="m58.3 540.6h948.8"/>
   </g>
  </g>
  <g stroke-linejoin="round" stroke-width="5.625">
   <path d="m428.5 335.9c-47.8 12.5-89.4 106-47.1 93.4 14.2-5.6 25.5-7 65.3-51.1"/>
   <path d="m446.8 378.1 34.3-43.3 27.8 46.4"/>
   <path d="m508.9 381.3c58.4-66.3 109.8-55 98.9.3"/>
   <path d="m607.8 381.6c19-11.8 69.7-44.6 86.5-45.4 23.1-.2 26.8 45.8 42.1 45.9 12.2 0 16.7-8.1 22.5-15.6"/>
   <path d="m356.9 390.5c7.7-9.6 35.5-36.5 45-39.9"/>
   <path d="m356.9 390.5c-48.2 61.4-98.5 47.1-84.7-.3"/>
  </g>
 </g>
</svg>
