<svg height="210mm" viewBox="0 0 1052.4 744.1" width="297mm" xmlns="http://www.w3.org/2000/svg">
 <g fill="none" stroke-linecap="round">
  <g transform="translate(0 -308.26772)">
   <path d="m57.6 742.2h948.8" stroke="#969696" stroke-width="1.875"/>
   <g stroke="#000" stroke-dasharray="3.75 7.5" stroke-miterlimit="2" stroke-width=".9375">
    <path d="m58.3 844.1h948.8"/>
    <path d="m58.3 641.8h948.8"/>
    <path d="m58.3 540.6h948.8"/>
   </g>
  </g>
  <g stroke="#000">
   <path d="m224.1 431c68.6-18.4 156.2-48.4 219.8-76.5 49.1-18.7 138.4-97.4 123-118.2-9.2-12.4-40.2 9-87.4 87.7-49.8 86.9-41.9 111.9-18.4 106.5" stroke-linejoin="round" stroke-width="5.625"/>
   <path d="m550.9 239.3c-48 60-85.1 119.5-107.8 180.8" stroke-width="5.625"/>
   <path d="m541.4 247.6c-38.3 44.9-74.5 98.7-96.4 158.6" stroke-width="7.5"/>
   <path d="m565.1 235.8c-9.2-6.9-21.3 13.8-23.8 16.7" stroke-width="3.75"/>
   <g stroke-width="5.625">
    <path d="m448.1 406.9c-6.1 21.8-2.5 23.6 11.3 23.9"/>
    <g stroke-linejoin="round">
     <path d="m722.9 236.5c-.5-.5-.8-.8-1.4-1.1-.2-.1-.7-.4-.9-.5s-.4-.2-.6-.2c-9 1.9-6.3 3.2-9 1.9-1.5-.7 2.2 10.4 5.3 9.2 2 .3 6.1-.4 7.6-3.8.7-1.7.6-3.2-.1-4.4-.1-.2-.3-.3-.4-.6-2.6-7.5-15-.3-23.3 7.8-3.9 3.8-11.1 11.6-17.1 21.7-10.8 17.4-59.4 103.3-73.5 125.7"/>
     <path d="m511.7 563.4a5.5 1.8 0 0 1 -5.5 1.8 5.5 1.8 0 0 1 -5.5-1.8 5.5 1.8 0 0 1 5.4-1.8 5.5 1.8 0 0 1 5.5 1.8h-5.5z" transform="matrix(.86958032 -.49379153 .49379153 .86958032 0 0)"/>
     <path d="m461.1 430.4c19.6-1.7 65.2-29.2 82-30 16-.6 17.3 30.9 30.7 30.7 13.3-.1 23.7-17.3 35.8-38.9"/>
     <path d="m775.3 186s-60.3 39.2-62.2 49.6"/>
    </g>
    <path d="m298.9 234.3-111.1 197.9"/>
    <path d="m171.4 441.4c15.8 29.2 48.8 28 65.9 0"/>
    <g stroke-linejoin="round">
     <ellipse cx="386.19592" cy="816.20343" rx="25.728558" ry="20.371416" transform="matrix(.79083574 -.61202846 .61202846 .79083574 0 0)"/>
     <path d="m908.3 375.4c-17.5 11.2-39.6 29.2-45.3 35-25.9 26.2-42.5 40.4-42.3 58.1.1 13.8 19.1 28.1 58.6-35.5l83.3-151.7-167 109.6"/>
     <path d="m908.3 375.4 56.8-39.7"/>
     <path d="m93.9 386.1-23.6 45.3"/>
     <path d="m974.6 479.5c14.8-7.7 32.2-16.2 28.9-34.4-.9-14.2-55-41.3-61.8-64.1-3.5-11.7 8.2-28.9 23.4-45.3"/>
    </g>
   </g>
  </g>
 </g>
</svg>
