<svg height="210mm" viewBox="0 0 1052.4 744.1" width="297mm" xmlns="http://www.w3.org/2000/svg">
 <g fill="none" stroke-linecap="round">
  <g transform="translate(0 -308.26772)">
   <path d="m57.6 742.2h948.8" stroke="#969696" stroke-width="1.875"/>
   <g stroke="#000" stroke-dasharray="3.75 7.5" stroke-miterlimit="2" stroke-width=".9375">
    <path d="m58.3 844.1h948.8"/>
    <path d="m58.3 641.8h948.8"/>
    <path d="m58.3 540.6h948.8"/>
   </g>
  </g>
  <g stroke="#000">
   <g stroke-width="5.625">
    <ellipse cx="170.83421" cy="649.13129" rx="25.728558" ry="20.371416" stroke-linejoin="round" transform="matrix(.79083574 -.61202846 .61202846 .79083574 0 0)"/>
    <path d="m587.6 431.9c-15.3 11.2-33.6 28-39.4 33.7-25.9 26.2-48.6 55.7-45.7 63.4 1.1 2.9 22.5 22.8 62-40.9l83.3-151.7-13.2.5-109.6 52.2" stroke-linejoin="round"/>
    <path d="m634.7 337-90.5 178.4"/>
    <path d="m641.8 339.9-83.7 157.4"/>
    <path d="m638.8 338.8-90.8 170.6"/>
   </g>
   <path d="m553 495.9c-6.5 14.2-13.9 23.4-21.7 30.4" stroke-width="3.75"/>
   <path d="m392.7 431.6c3-4.3 20.9-27.6 26.8-32.9 5-4.5 15.4-12 23.5-13.1 16.4-2.2 27.7 6.2 12.1 25.6-27.4 33.8-45.5 50.2-39.4 63.9 4.2 9.5 22.9 6.9 36.5-3.7 27.9-21.8 58.7-69.2 62.6-73.2" stroke-linejoin="round" stroke-width="5.625"/>
  </g>
 </g>
</svg>
