<svg height="210mm" viewBox="0 0 1052.4 744.1" width="297mm" xmlns="http://www.w3.org/2000/svg">
 <g fill="none" stroke-linecap="round">
  <g transform="translate(0 -308.26772)">
   <path d="m57.6 742.2h948.8" stroke="#969696" stroke-width="1.875"/>
   <g stroke="#000" stroke-dasharray="3.75 7.5" stroke-miterlimit="2" stroke-width=".9375">
    <path d="m58.3 844.1h948.8"/>
    <path d="m58.3 641.8h948.8"/>
    <path d="m58.3 540.6h948.8"/>
   </g>
  </g>
  <g stroke="#000" stroke-linejoin="round" stroke-width="5.625">
   <path d="m511.9 310.6s-149.7 112.7-199.3 146.3c-13.1 9-24.4 19.4-32.1 29.4-16.8 21.9-18.4 41.7 6.1 46.3 0 0 31.7 6.1 62.3-46.2l89.2-152.4"/>
   <path d="m511.9 310.6c16.9-14.4 30.2-21.2 41.7-21.8 16.3-.8 31.2 10.9 30.9 49.1-.4 52 30 54.8 50.4 40.8"/>
   <path d="m634.9 378.7c7.3-3.8 49.6-43.1 49.6-43.1l20 47.9"/>
  </g>
 </g>
</svg>
