<svg height="210mm" viewBox="0 0 1052.4 744.1" width="297mm" xmlns="http://www.w3.org/2000/svg">
 <g fill="none" stroke-linecap="round">
  <g transform="translate(0 -308.26772)">
   <path d="m57.6 742.2h948.8" stroke="#969696" stroke-width="1.875"/>
   <g stroke="#000" stroke-dasharray="3.75 7.5" stroke-miterlimit="2" stroke-width=".9375">
    <path d="m58.3 844.1h948.8"/>
    <path d="m58.3 641.8h948.8"/>
    <path d="m58.3 540.6h948.8"/>
   </g>
  </g>
  <g stroke="#000" stroke-linejoin="round" stroke-width="5.625">
   <path d="m411.6 385.4c41.5 3.1 62-37.2 58.7-45.9-2.9-7.5-30.4-4.4-55.1 36.4-23.5 40.7-19 56-4.2 55.7"/>
   <path d="m411 431.5c18.6.3 59.8-29.9 76.6-30.7 19.8 1 15.9 33.7 43.4 30.9"/>
   <path d="m591.9 253.3c15.5-14.8 27.6-19.6 35.7-17.9 55.7 3.2-41.8 187.6-96.6 196.4"/>
  </g>
 </g>
</svg>
