<svg height="210mm" viewBox="0 0 1052.4 744.1" width="297mm" xmlns="http://www.w3.org/2000/svg">
 <g fill="none" stroke-linecap="round">
  <g transform="translate(0 -308.26772)">
   <path d="m58.5 742.2h948.9" stroke="#969696" stroke-width="1.875"/>
   <g stroke="#000" stroke-dasharray="3.75 7.5" stroke-miterlimit="2" stroke-width=".9375">
    <path d="m58.3 844.1h948.8"/>
    <path d="m58.3 641.8h948.8"/>
    <path d="m58.3 540.6h948.8"/>
   </g>
  </g>
  <g stroke="#000">
   <g stroke-linejoin="round">
    <g stroke-width="5.625">
     <path d="m454.5 336.1c-40.3 12.4-79.3 77.9-61.1 91.1 7.4 6.3 22.1 3.9 44.3.5 35.4-5.3 193.9-42.6 193.9-42.6"/>
     <path d="m631.6 385.1 22.1 45.9"/>
     <path d="m313.4 431.8c7.1-2.5 11.3-4.8 17.5-9.1 11.5-9.3 22-21.1 32.2-36.4l30.9-50"/>
     <path d="m386.9 336.4-43.3 72.8"/>
    </g>
    <path d="m354.3 388.5c-13.9 21.2-18 30.2-29.7 37.8" stroke-width="2.8125"/>
    <path d="m394.1 336.2-7.3.1" stroke-width="5.625"/>
    <path d="m389.5 338.9c-13.9 21.2-22 34.5-22 34.5" stroke-width="2.8125"/>
   </g>
   <g stroke-width="5.625">
    <path d="m386.9 336.4c-22.6 27.1-81.2 76.4-110.8 90-7.4 3.3-14.2 4.9-20 5-18.9.3-28.2-15.7-20.8-41.2"/>
    <g stroke-linejoin="round">
     <path d="m653.7 431 127.7-197.8"/>
     <path d="m805 373.9c60-75.2-82.8-56.1-23.6-140.7"/>
     <path d="m313.4 431.8c-16.9 1 117.9-84.6 129-90.5"/>
    </g>
   </g>
  </g>
 </g>
</svg>
