<svg height="210mm" viewBox="0 0 1052.4 744.1" width="297mm" xmlns="http://www.w3.org/2000/svg">
 <g fill="none" stroke-linecap="round">
  <g transform="translate(0 -308.26772)">
   <path d="m57.6 742.2h948.8" stroke="#969696" stroke-width="1.875"/>
   <g stroke="#000" stroke-dasharray="3.75 7.5" stroke-miterlimit="2" stroke-width=".9375">
    <path d="m58.3 844.1h948.8"/>
    <path d="m58.3 641.8h948.8"/>
    <path d="m58.3 540.6h948.8"/>
   </g>
  </g>
  <g stroke="#000" stroke-linejoin="round" stroke-width="5.625">
   <path d="m279.2 396.4c18.1-20.9 51.6-50.7 82.7-58.3 23-5.6 42.6-3.5 31.2 43.5"/>
   <path d="m393.1 381.6 92.3-99.6-54.8 99.8"/>
   <ellipse cx="-16.038471" cy="504.27374" rx="25.728558" ry="20.371416" transform="matrix(.79083574 -.61202846 .61202846 .79083574 0 0)"/>
   <path d="m430.6 381.8 210.8-46.7"/>
   <path d="m641.4 335.1 22.6 46.9"/>
   <path d="m663.9 382c25-11.8 65.8-31.5 83.5-32.4 16.8-.7 22.7 32.6 34.2 32.2 7.5-.2 13.1-6.2 18.3-10.8"/>
  </g>
 </g>
</svg>
