<svg height="210mm" viewBox="0 0 1052.4 744.1" width="297mm" xmlns="http://www.w3.org/2000/svg">
 <g fill="none" stroke-linecap="round">
  <g transform="translate(0 -308.26772)">
   <path d="m57.6 742.2h948.8" stroke="#969696" stroke-width="1.875"/>
   <g stroke="#000" stroke-dasharray="3.75 7.5" stroke-miterlimit="2" stroke-width=".9375">
    <path d="m58.3 844.1h948.8"/>
    <path d="m58.3 641.8h948.8"/>
    <path d="m58.3 540.6h948.8"/>
   </g>
  </g>
  <g stroke="#000" stroke-linejoin="round" stroke-width="5.625">
   <path d="m468.2 400.7c-16.6-.8-85.9 15.8-90.5 22.5-3.4 6.4 4.9 8.8 6.4 8.4 15.1-4.5 47.4-44.7 52.6-82 5.7-40.6 44.3-104.4 80-114.7"/>
   <path d="m468.2 400.7c16-.6 12.6 30.8 34.7 30.7 4.5 0 8.4-.6 12.1-2.1"/>
   <path d="m515 429.3c24.1-4.2 128.5-195.8 128.5-195.8"/>
   <path d="m318.1 431.2s151.2-173.5 181.9-188.2"/>
  </g>
 </g>
</svg>
