<svg height="210mm" viewBox="0 0 1052.4 744.1" width="297mm" xmlns="http://www.w3.org/2000/svg">
 <g fill="none" stroke-linecap="round">
  <g transform="translate(0 -308.26772)">
   <path d="m57.6 742.2h948.8" stroke="#969696" stroke-width="1.875"/>
   <g stroke="#000" stroke-dasharray="3.75 7.5" stroke-miterlimit="2" stroke-width=".9375">
    <path d="m58.3 844.1h948.8"/>
    <path d="m58.3 641.8h948.8"/>
    <path d="m58.3 540.6h948.8"/>
   </g>
  </g>
  <g stroke="#000" stroke-linejoin="round" stroke-width="5.625">
   <path d="m496.2 465.2c18.5-18.3 55.5-60.8 73.6-79.8"/>
   <ellipse cx="90.000519" cy="587.9812" rx="24.369127" ry="19.295044" transform="matrix(.79083574 -.61202846 .61202846 .79083574 0 0)"/>
   <path d="m497.8 385.3-64.5 3.4"/>
   <path d="m497.8 385.3-42.4 73.1c-11.9 20.5 8.4 28.4 31.3 14.4 3-2.1 6.2-4.7 9.4-7.5"/>
   <path d="m584.1 418.5c.8.1 1.5.3 2.1.6.2.1.4.2.5.3 1 .8 1.4 2.1.8 4.3-1.1 4.2-5.9 6.6-8.2 7.5-4.7 1.7-8.2-2.2-5.5-6.3 1.7-2.6 4.6-5.5 8-6.2.2 0 .5-.1.7-.1.3 0 .6-.1.9-.1.7 0 1.3.1 2 .3"/>
   <path d="m569.7 385.5-47.3 94.9 60.6-50.7"/>
  </g>
 </g>
</svg>
