<svg height="210mm" viewBox="0 0 1052.4 744.1" width="297mm" xmlns="http://www.w3.org/2000/svg">
 <g fill="none" stroke-linecap="round">
  <g transform="translate(0 -308.26772)">
   <path d="m57.6 742.2h948.8" stroke="#969696" stroke-width="1.875"/>
   <g stroke="#000" stroke-dasharray="3.75 7.5" stroke-miterlimit="2" stroke-width=".9375">
    <path d="m58.3 844.1h948.8"/>
    <path d="m58.3 641.8h948.8"/>
    <path d="m58.3 540.6h948.8"/>
   </g>
  </g>
  <g stroke-linejoin="round" stroke-width="5.625">
   <g stroke="#000">
    <path d="m586.8 483.4c-.4 1.2 75.6-46 75.6-46"/>
    <path d="m662.4 437.3 18.8 46.3"/>
    <path d="m530.3 446c38-21.6 70.2-6.4 56.5 37.3"/>
   </g>
   <path d="m401.2 430.1c11.2-3.1 19.7-4.3 30.3-1.1 16.7 5.1 23.5 46.3 46.3 47.2 15.7.6 37.3-21.1 52.4-30.2" stroke="#010000"/>
   <path d="m418.1 336.5-42.4 73.1c-9.9 17 5.6 28.4 25.5 20.5" stroke="#000"/>
  </g>
 </g>
</svg>
