<svg height="210mm" viewBox="0 0 1052.4 744.1" width="297mm" xmlns="http://www.w3.org/2000/svg">
 <g fill="none" stroke-linecap="round">
  <g transform="translate(0 -308.26772)">
   <path d="m57.6 742.2h948.8" stroke="#969696" stroke-width="1.875"/>
   <g stroke="#000" stroke-dasharray="3.75 7.5" stroke-miterlimit="2" stroke-width=".9375">
    <path d="m58.3 844.1h948.8"/>
    <path d="m58.3 641.8h948.8"/>
    <path d="m58.3 540.6h948.8"/>
   </g>
  </g>
  <g stroke-linejoin="round">
   <g stroke="#000">
    <path d="m463.3 400.5c7.4-3 13 1 16.4 3.5 4.2 3.1 8.1 8.3 12.2 15.9 4.8 8.7 9 11.2 14.7 11.5 3 .1 7.6 0 10.4 0" stroke-width="5.625"/>
    <path d="m476.7 400.1c7.8 4.9 8.8 2 26.1 28.6" stroke-width="6.587558"/>
    <path d="m517.2 431.3c6.7.2 12-2.7 18-8.5 26.2-26.1 38-31.9 57.1-32.1 19.2-.2 31.5 16.7 27.4 40.8" stroke-width="5.625"/>
   </g>
   <path d="m401.6 336.2s-29.9 59.2-34.5 70.3c-6.6 16.3 3.5 25.3 18.3 24.7 29.3-1.2 76.5-37.7 96.7-34 15.5 2.9 18.2 33.2 34.4 34.1" stroke="#040000" stroke-width="5.625"/>
  </g>
 </g>
</svg>
