<svg height="210mm" viewBox="0 0 1052.4 744.1" width="297mm" xmlns="http://www.w3.org/2000/svg">
 <g fill="none" stroke-linecap="round">
  <g transform="translate(0 -308.26772)">
   <path d="m57.6 742.2h948.8" stroke="#969696" stroke-width="1.875"/>
   <g stroke="#000" stroke-dasharray="3.75 7.5" stroke-miterlimit="2" stroke-width=".9375">
    <path d="m58.3 844.1h948.8"/>
    <path d="m58.3 641.8h948.8"/>
    <path d="m58.3 540.6h948.8"/>
   </g>
  </g>
  <g stroke="#000" stroke-linejoin="round">
   <path d="m362.6 431.6 79.3-53.2" stroke-width="5.62496"/>
   <g stroke-width="5.625">
    <path d="m472.6 418.2c-.9 3.4-3.6 6.4-6.8 8.8-8.7 6.7-21.1 4.9-26.5-2-5.3-6.9-.9-12.6 6.8-19.3 19.6-17.3 89.6-70.2 89.6-70.2"/>
    <path d="m442 378.4 28.1 31.9s3.8 4.4 2.6 7.9"/>
    <path d="m547.5 410.4 34.3-26.7 24 48"/>
    <path d="m535.8 335.6-41.9 72.6c-8.8 15.3 5 26.1 21.5 22.2 13.3-3.3 24.1-13.8 32.1-20.1"/>
    <path d="m605.8 431.6 30-40.8"/>
    <path d="m635.8 390.8c21.6-28.9 36.3-49.3 57.1-53.7 10.7-2.7 14.3.7 18.7 3.2 7.6 4.3 7.7 15.3-6.2 39.6l-29.8 52.1"/>
    <path d="m357.6 402.8c-14.7 14.3-25 23.4-40.1 27.4-55.1 12.9 11.6-153.4 93.2-195.8"/>
   </g>
   <path d="m357.6 402.8 61.9-67-56.9 95.8" stroke-width="5.62496"/>
  </g>
 </g>
</svg>
