<svg height="210mm" viewBox="0 0 1052.4 744.1" width="297mm" xmlns="http://www.w3.org/2000/svg">
 <g fill="none" stroke-linecap="round">
  <g transform="translate(0 -308.26772)">
   <path d="m57.6 742.2h948.8" stroke="#969696" stroke-width="1.875"/>
   <g stroke="#000" stroke-dasharray="3.75 7.5" stroke-miterlimit="2" stroke-width=".9375">
    <path d="m58.3 844.1h948.8"/>
    <path d="m58.3 641.8h948.8"/>
    <path d="m58.3 540.6h948.8"/>
   </g>
  </g>
  <g stroke="#000" stroke-width="5.625">
   <path d="m182.4 336.3-40.5 72.8c-8.3 14.9 4.6 23.5 21.5 22.2 8.8-.7 14.3-6.7 18.3-11 5-5.4 49.9-58.8 49.9-58.8" stroke-linejoin="round"/>
   <path d="m231.7 361.5 113.4-126.7" stroke-linejoin="round"/>
   <path d="m345.1 234.8-113.1 196.5"/>
   <g stroke-linejoin="round">
    <path d="m232 431.3 160-147.3"/>
    <ellipse cx="190.46284" cy="495.7923" rx="25.728558" ry="20.371416" transform="matrix(.89236516 -.45131411 .45131411 .89236516 0 0)"/>
    <path d="m392 284-39.4 73.1c-8.4 15.5 4.6 23.5 21.5 22.2 3.5-.3 9.2-.6 15.8-1.3"/>
    <path d="m711.2 368.1c-8.3 6.6-18.5 12.8-24.9 14.1-8.2 1.7-16.4.8-18.8-4.6-6-13.7 10.6-29.6 38-63.4 23.5-29-13.1-31.4-40.2-17.1-33.6 17.4-245.8 131.6-217.9 133.7 4.5 0 10.9-4.3 12.3-5.1 48.9-28 69.1-128.6 6.8-73.1"/>
    <path d="m339.5 532.7c17.1-29.1 100.5-159.6 127-180"/>
    <path d="m711.2 368.1c5.7-3.9 11.4-8.5 25.9-17.9 12.6-8.1 26.1-13.9 37.9-14.4 24-.8 32.4 41.1 48.8 40.7 10.8-.3 18.5-10 25.1-17.1"/>
    <path d="m899.8 294.4c-8.1 10.8-43.6 55.6-50.9 64.9"/>
    <ellipse cx="535.9895" cy="803.63495" rx="25.728558" ry="20.371416" transform="matrix(.79083574 -.61202846 .61202846 .79083574 0 0)"/>
   </g>
  </g>
 </g>
</svg>
