<svg height="210mm" viewBox="0 0 1052.4 744.1" width="297mm" xmlns="http://www.w3.org/2000/svg">
 <g fill="none" stroke-linecap="round">
  <g transform="translate(0 -308.26772)">
   <path d="m57.6 742.2h948.8" stroke="#969696" stroke-width="1.875"/>
   <g stroke="#000" stroke-dasharray="3.75 7.5" stroke-miterlimit="2" stroke-width=".9375">
    <path d="m58.3 844.1h948.8"/>
    <path d="m58.3 641.8h948.8"/>
    <path d="m58.3 540.6h948.8"/>
   </g>
  </g>
  <g stroke="#000" stroke-width="5.625">
   <path d="m341.7 430.6c18.4-11.3 69.7-48.6 63.4-91.3-4.7-31.3 27.8-45.8 38.9-53.9 12.1-7.6 31.2-22.4 33.7-32 2.5-11.7-2.5-16.5-8.7-18.1-3.1-.8-6.6-1.2-10.4-1-25 2.4-43.9 24.8-62.7 48l-119.9 149" stroke-linejoin="round"/>
   <path d="m538 233.8s-193.3 183.3-200.3 189.2c-6.1 5.2-.6 10.4 4 7.7" stroke-linejoin="round"/>
   <path d="m538 233.8-111.1 197.9"/>
   <g stroke-linejoin="round">
    <path d="m576.1 431.5 62-44.7"/>
    <path d="m802.6 431.7c5.4-3.3 11.7-10.5 6.5-17.1-2.6-3.3-4-4.5-11.9-4.4l-143.8 1.9c-6.7.1-14.3.2-15.9-.7-10.5-5.8-7.4-13.7.5-24.6"/>
    <path d="m507.5 431.1 119.3-94.5-50.8 94.9"/>
    <path d="m528.4 384.6-25.3 46.6"/>
    <path d="m507.5 431.1-12 .2"/>
    <path d="m535.2 381.6-27.7 49.5"/>
    <path d="m535.2 381.6-14.1-.1"/>
    <path d="m526.5 382.8-25.3 46.6"/>
    <path d="m426.9 431.7 94.2-50.2-25.6 49.9"/>
   </g>
  </g>
 </g>
</svg>
