<svg height="210mm" viewBox="0 0 1052.4 744.1" width="297mm" xmlns="http://www.w3.org/2000/svg">
 <g fill="none" stroke-linecap="round">
  <g transform="translate(0 -308.26772)">
   <path d="m57.6 742.2h948.8" stroke="#969696" stroke-width="1.875"/>
   <g stroke="#000" stroke-dasharray="3.75 7.5" stroke-miterlimit="2" stroke-width=".9375">
    <path d="m58.3 844.1h948.8"/>
    <path d="m58.3 641.8h948.8"/>
    <path d="m58.3 540.6h948.8"/>
   </g>
  </g>
  <g stroke="#000" stroke-linejoin="round">
   <path d="m672.3 405.7 98.6-171" stroke-width="5.625"/>
   <path d="m514 397.6 29.6-15.9-17.8 49s35.8-49.6 54.3-71.2c14.1-16.5 28.8-24.9 35.1-24.7 16.6.5 9.4 36.4-10.7 64.8-7.8 10.9-24.8 32.2-39.6 32.2 17.4-.3 32.2-.3 51.4-.4 7.5 0 15.5.3 21.7 0 20.6 0 24.2-9.3 34.2-25.5" stroke-width="5.625"/>
   <ellipse cx="752.81818" cy="-133.92915" rx="5.271423" ry="7.848564" stroke-width="14.034715" transform="matrix(.72846687 .68508103 -.68508103 .72846687 0 0)"/>
   <path d="m249.1 431c15.4-1.2 27.7-10.8 109.7-95l-39 72.4c-7.5 13.9 2.4 23.8 16.4 23" stroke-width="5.625"/>
   <path d="m336.1 431.4c27.9-2 60.2-30 77.8-30.5 19.4-.6 16.3 20.6 31.6 28.1 8.1 4 23.8 3.6 35.1-2.4" stroke-width="5.624999"/>
   <g stroke-width="5.625">
    <ellipse cx="473.4978" cy="138.26476" rx="4.609393" ry="6.862875" transform="matrix(.72846687 .68508103 -.68508103 .72846687 0 0)"/>
    <ellipse cx="125.4011" cy="613.2486" rx="23.986788" ry="18.992313" transform="matrix(.79083574 -.61202846 .61202846 .79083574 0 0)"/>
   </g>
  </g>
 </g>
</svg>
