<svg height="210mm" viewBox="0 0 1052.4 744.1" width="297mm" xmlns="http://www.w3.org/2000/svg">
 <g fill="none" stroke-linecap="round">
  <g transform="translate(0 -308.26772)">
   <path d="m57.6 742.2h948.8" stroke="#969696" stroke-width="1.875"/>
   <g stroke="#000" stroke-dasharray="3.75 7.5" stroke-miterlimit="2" stroke-width=".9375">
    <path d="m58.3 844.1h948.8"/>
    <path d="m58.3 641.8h948.8"/>
    <path d="m58.3 540.6h948.8"/>
   </g>
  </g>
  <g stroke="#000" stroke-linejoin="round">
   <g stroke-width="5.625">
    <path d="m771.6 336.1-39.4 73.1c-8.4 15.5 4.6 23.5 21.5 22.2"/>
    <path d="m776 482.4c16.8-.5 33-21.3 35-47.2 2.1-26.8 47.2-53.9 36.3-48.7 0 0-76.1 44.9-93.6 44.9"/>
    <path d="m830.7 401.6c-18.7 24.9-13 28.9-16.8 41.1-3.5 11.7-12.1 25.9-24.2 34.7"/>
    <path d="m827.9 404.7c-7.6 7.8-16.9 18.3-21 32.6-4.1 14.4-5.5 33.4-22.5 43.1"/>
    <path d="m771.6 336.1-141.1 162.1"/>
    <path d="m211.8 336c-40.3 12.4-79.3 77.9-61.1 91.1 7.4 6.3 22.1 3.6 44.3.5"/>
   </g>
   <path d="m195 427.6c35.4-5.5 227.6-29.8 242.1-33.1 3.2-.6 16.7-1.8 20-1.6 14.4 1 16.3 32.9 30.5 37.9 3.2 1.1 6.9.9 11.6-1.4" stroke-width="5.318918"/>
   <g stroke-width="5.625">
    <path d="m499.2 429.4c5.2-2.8 53.9-38.1 61.9-40.5"/>
    <path d="m559.3 532.8c28.5-22.6 35.5-31.4 39-55.7 1.8-12.5-2.6-28-12.8-37.6-5-4.7-11-8.4-17-11.7-8.5-4.8-11.8-5.8-17.2-11.5-6-6.3-5-21.2 9.8-27.5"/>
    <path d="m559.3 532.8c-25.6 0 73-42.2 83.7-44.4"/>
    <ellipse cx="200.73495" cy="799.53522" rx="25.728558" ry="20.371416" transform="matrix(.79083574 -.61202846 .61202846 .79083574 0 0)"/>
   </g>
  </g>
 </g>
</svg>
