<svg height="210mm" viewBox="0 0 1052.4 744.1" width="297mm" xmlns="http://www.w3.org/2000/svg">
 <g fill="none" stroke-linecap="round">
  <g transform="translate(0 -308.26772)">
   <path d="m57.6 742.2h948.8" stroke="#969696" stroke-width="1.875"/>
   <g stroke="#000" stroke-dasharray="3.75 7.5" stroke-miterlimit="2" stroke-width=".9375">
    <path d="m58.3 844.1h948.8"/>
    <path d="m58.3 641.8h948.8"/>
    <path d="m58.3 540.6h948.8"/>
   </g>
  </g>
  <g stroke="#000" stroke-linejoin="round">
   <path d="m479.4 435.7c53.7-37.8 182.6-142.8 150.6-153.8-14.6-5-42.6 12.2-89.8 90.1-25.2 43.6-35.5 71.4-36.4 87.5-.4 6.4.8 11 3.1 13.9 1.6 2 3.7 3.3 6.2 3.9 1.3.3 2.8.4 4.3.3" stroke-width="5.625"/>
   <path d="m479.4 435.7c-32.3 24.8-94 85.9-70.4 96.1 13.2 5.2 33.8-6.6 55.2-65.3 15.7-47.2 16.4-112.8 70.4-130.9" stroke-width="5.625"/>
   <path d="m517.5 477.6c27.9-2 60.2-29.6 77.8-30.5 16.8-.7 20.9 30.2 34.2 30.4 8.5.1 14.1-6.5 18.3-10.8" stroke-width="5.624999"/>
  </g>
 </g>
</svg>
