<svg height="210mm" viewBox="0 0 1098.4 744.1" width="310mm" xmlns="http://www.w3.org/2000/svg">
 <g fill="none" stroke-linecap="round">
  <g transform="translate(0 -308.26772)">
   <path d="m20.1 742.2h1055.7" stroke="#969696" stroke-width="1.875"/>
   <g stroke="#000" stroke-dasharray="3.75 7.5" stroke-miterlimit="2" stroke-width=".9375">
    <path d="m20.8 844.1h1055.7"/>
    <path d="m20.8 641.8h1055.7"/>
    <path d="m20.8 540.6h1055.7"/>
   </g>
  </g>
  <g stroke="#000" stroke-linejoin="round">
   <path d="m533.7 334.8c35.2-48.5 88.1-123.6 119.1-152.1 11.2-10 20.1-9.6 25.5-8.3 19.1 4.5 11.2 19.6-4.7 41-15 20.3-24.5 36.8-43.1 61.9-26.3 35.4-55 68-47.8 86.2 5.8 11.2 15.6 12.5 30.4 13.3 7.9.4 15.2.4 29.6-.8" stroke-width="5.625"/>
   <path d="m688.3 196.6c-.8 5.4-.7 9.8-5.7 20l-93.8 134.9-1.8 13.5" stroke-width="5.625"/>
   <path d="m683.4 206.8-67.9 98.8-28.6 41.8-2.2 10.7" stroke-width="8.4375"/>
   <path d="m599.5 337.7c-5.1 7.7-10 15.6-10 22.5 0 3.1 0 6.1 2.7 8.3 1.9 1.5 7.7 6.8 14.8 7.4" stroke-width="3.75"/>
   <path d="m689.1 180.2c2.8 5.2 2.1 16.5-1 26.4-1.6 5.1-4.3 10.5-8.7 16.2" stroke-width="3.75"/>
   <g stroke-width="5.625">
    <ellipse cx="293.01761" cy="674.00128" rx="25.728558" ry="20.371416" transform="matrix(.79083574 -.61202846 .61202846 .79083574 0 0)"/>
    <path d="m811.6 235.1c-37.2 20-140.6 138-164.6 140"/>
    <path d="m98.9 336.8c-40.3 12.4-78.1 79.1-59.9 92.3 7.2 4.9 16.1 2.8 24.7.1 5.8-1.8 323.7-145.2 342.5-150.5"/>
   </g>
   <path d="m362.4 374.4c53.5-17.9 87.7-112.6 43.8-95.7" stroke-width="5.419139"/>
   <g stroke-width="5.625">
    <path d="m362.4 374.4c-21.3-2.4 84.2-38.1 97.9-38.6 19.9-.7 20 35.1 35.1 34.9"/>
    <path d="m495.3 370.6c10.2-.5 25.7-17.2 38.3-35.9"/>
    <path d="m910.4 431.4c-30.7 4.6 80.3-36.6 97.8-36.9 18.2-.5 12 40.6 30.1 37.6 5-.9 11.5-5.3 21-13.7"/>
    <path d="m825 417.3c57.3-51.6 153.6-181 190.2-181.7 46.3-1-53.1 174.7-104.8 195.8"/>
    <path d="m825 417.3c-21.9 17.6-44.6 38-54.3 47.7-25.9 26.2-44.2 51.8-43.7 60.1.5 7.3 20.5 26.1 60-37.5l83.3-151.7s-35.8 35.5-55.4 54.8"/>
    <path d="m814.9 390.7c-40.2 37.8-47.4 40.7-80.6 40.3-67.4-1.8 23.8-164.4 80-196.7"/>
    <path d="m769.9 414.3c.8.1 1.4.2 1.9.5.2.1.3.2.5.3.9.7 1.3 2 .8 4-1 3.9-5.4 6.1-7.5 6.9-4.3 1.6-7.6-2-5.1-5.9 1.6-2.4 4.2-5.1 7.4-5.7.2 0 .4-.1.7-.1s.5-.1.8-.1c.6 0 1.2.1 1.9.3"/>
   </g>
  </g>
 </g>
</svg>
