<svg height="210mm" viewBox="0 0 1052.4 744.1" width="297mm" xmlns="http://www.w3.org/2000/svg">
 <g fill="none" stroke-linecap="round">
  <g transform="translate(0 -308.26772)">
   <path d="m57.6 742.2h948.8" stroke="#969696" stroke-width="1.875"/>
   <g stroke="#000" stroke-dasharray="3.75 7.5" stroke-miterlimit="2" stroke-width=".9375">
    <path d="m58.3 844.1h948.8"/>
    <path d="m58.3 641.8h948.8"/>
    <path d="m58.3 540.6h948.8"/>
   </g>
  </g>
  <g stroke="#000" stroke-linejoin="round" stroke-width="5.625">
   <path d="m314.4 333.9c54.3-11 95.5-79.5 89.2-96.2-5.5-14.4-40.2 8.9-87.4 86.8-50.2 86.7-46.5 110-24.4 105.5 13.4-4 35-15.6 50.5-23.3"/>
   <path d="m342.3 406.7c15.2-7.9 33.9-14.7 53.7-15.3 48.5-1.3 61.6 39.4 96 39.5 30.5.1 42.2-5.1 63.4-13.9"/>
   <path d="m555.3 417c23.3-12.4 53-28.3 56.4-30.4 13.3-8.1 42.2-26.6 36.9-44.4-2.8-7.3-34.7-8.6-58.5 30.7-26.3 43.1-17.7 60.3-4.2 58.6 18.1-3.4 33.2-13.4 49.5-26.1"/>
   <path d="m635.4 405.4c44.2-33.8 86.7-69.2 111.4-98.7 19.8-21.8 49.7-68.6 23.5-71.9-15.7-1.2-25.4 5.7-39.3 28.6-31.2 53.5-119.6 214.8-150.2 269.5"/>
  </g>
 </g>
</svg>
