<svg height="210mm" viewBox="0 0 1052.4 744.1" width="297mm" xmlns="http://www.w3.org/2000/svg">
 <g fill="none" stroke-linecap="round">
  <g transform="translate(0 -308.26772)">
   <path d="m57.6 742.2h948.8" stroke="#969696" stroke-width="1.875"/>
   <g stroke="#000" stroke-dasharray="3.75 7.5" stroke-miterlimit="2" stroke-width=".9375">
    <path d="m58.3 844.1h948.8"/>
    <path d="m58.3 641.8h948.8"/>
    <path d="m58.3 540.6h948.8"/>
   </g>
  </g>
  <g stroke="#000">
   <path d="m531.2 390.7c53.7-37.8 175.6-144.2 143.6-155.2-14.6-5-42.6 13.7-89.8 91.6-38.6 66.7-42.5 95.9-31.4 103.1 1.1.7 2.2 1.1 3.5 1.3 1.2.2 2.5.2 3.9.2" stroke-linejoin="round" stroke-width="5.625"/>
   <path d="m658.3 240.1c-32.4 31.1-29.8 31.7-61.8 80-21.2 31.9-33.8 64.6-46.3 98.3" stroke-width="5.625"/>
   <path d="m647.3 250.2c-38.3 44.9-72.9 96.9-94.8 156.8" stroke-width="7.5"/>
   <path d="m676.5 237.5c-12-5.1-22.4 8.5-29.5 15.9" stroke-width="3.75"/>
   <path d="m554.9 405.8c-3 9.2-6.3 20-.7 24.5" stroke-width="5.625"/>
   <g stroke-linejoin="round">
    <path d="m561 431.6c23.4-.6 61.4-29.9 86.7-29.5 16.3 1.2 18.8 29 32.6 28.8 8.7-.1 12.5-4.3 16.8-8.4" stroke-width="5.625"/>
    <g stroke-width="6.562499">
     <path d="m420.8 336.1-47.5 81.9"/>
     <path d="m416.1 336.1-38.7 70.9-3.8 16.5"/>
     <path d="m420.8 336.1h-9.3"/>
    </g>
    <path d="m317 430.9 94.3-95.2-38.9 72.5c-7.2 13.4 1.8 23.1 15 23 6.2-.1 11.6-1.5 16.4-3.7 17.9-9.7 30.9-26.3 43.1-40 25.3-28.2 41.7-52.9 64-51.4 12.4.8 15.2 13.3 7.5 36.3-14.7 43-42.4 79.5-69.3 116.4-43.5 61-58.9 41.1-59.8 38.1-2.1-6.4 1.2-14.8 7.7-23.9 20.4-28.5 67.3-60.5 87.1-75 17.3-12.7 35.4-28.1 47.1-37.3" stroke-width="5.624999"/>
   </g>
   <path d="m382.6 404.7c-6 9.6-9.9 25.1 3.6 25.5" stroke-width="3.749999"/>
  </g>
 </g>
</svg>
