<svg height="210mm" viewBox="0 0 1052.4 744.1" width="297mm" xmlns="http://www.w3.org/2000/svg">
 <g fill="none" stroke-linecap="round">
  <g transform="translate(0 -308.26772)">
   <path d="m57.6 742.2h948.8" stroke="#969696" stroke-width="1.875"/>
   <g stroke="#000" stroke-dasharray="3.75 7.5" stroke-miterlimit="2" stroke-width=".9375">
    <path d="m58.3 844.1h948.8"/>
    <path d="m58.3 641.8h948.8"/>
    <path d="m58.3 540.6h948.8"/>
   </g>
  </g>
  <g stroke="#000">
   <g stroke-linejoin="round">
    <path d="m159 433.4c-27 16.7-90.2 91.8-63.1 99 11.2 2.5 33.1-7.6 54.5-66.2 15.7-47.2 16.4-112.9 70.4-130.9" stroke-width="5.624959"/>
    <path d="m159 433.4c54.3-54.1 114.9-115.3 152-155 10.2-10.9 21.5-21.3 30.3-28.9 13.2-11.5 25-17.8 34.1-15.9 3 .1 5 1.7 6.1 4.6 10.7 27.9-65.8 174.3-122.4 192.5" stroke-width="5.625"/>
    <path d="m371.7 281.3c-11.5 21.5-39 69.9-54.2 94.8" stroke-width="8.4375"/>
    <path d="m260.8 429.2c17.6-7.4 30.5-22.8 43.2-39.5 5.5-7.3 12-16.7 20.5-29.8" stroke-width="3.75"/>
    <path d="m366.2 294.8-54.8 90.9" stroke-width="5.625"/>
    <path d="m379.9 236.3c5.1 7.4-2.4 28.2-11.3 46.7" stroke-width="4.6875"/>
    <path d="m324.2 425.7c-2.6 2.8-6.2 3.6-8 1.9-1.9-1.7-1.3-5.4 1.3-8.2s6.2-3.6 8-1.8c1.9 1.7 1.3 5.3-1.4 8.1z" stroke-width="5.624959"/>
   </g>
   <path d="m322.1 427.5c-7.2 4.3-38.6 3.8-62.9 3.1" stroke-width="5.624959"/>
   <g stroke-width="5.625">
    <g stroke-linejoin="round">
     <path d="m473.2 383.8 24 48"/>
     <path d="m418.4 336.4c-13.7 23-33.6 61.1-38.8 72-6.8 14.3 2.4 23.8 16.6 22.9 21.1-.2 64.7-38 77-47.6"/>
     <path d="m418.4 336.4c-78.7 81.8-87.8 102.7-101.5 92.5"/>
     <path d="m497.2 431.8c27.5-34.4 47.6-61.4 63.2-76.9 7.7-7.6 17.1-17.5 31.2-19.2 3.2-.4 6.2-.1 8.8.9 2.7.9 4.9 2.5 6.4 4.6 3.6 5.1 3 13.2-5 22.8-6 7.3-11.8 13.6-17 19.3"/>
     <path d="m584.8 383.2c-5.3 5.7-11.2 12.1-17.3 19.5-8 9.7-8.6 17.8-5 22.8 1.5 2.1 3.7 3.7 6.4 4.6 2.6.9 5.6 1 8.8.8 22.1-.7 45.1-16.8 91.3-47.3"/>
     <path d="m669 383.7 21.9 47.3"/>
     <path d="m676.3 383.6 21.9 47.3"/>
    </g>
    <path d="m669 383.7 7.2-.1"/>
    <path d="m673.1 385.1 20.8 44.9" stroke-linejoin="round"/>
    <path d="m691 431 7.2-.1"/>
   </g>
   <g stroke-linejoin="round">
    <path d="m793 365.1c8.2-9.9 8.8-18.2 5.1-23.4-7-8.1-18.6-7.2-28.3-1.5-7.8 4.5-14 12.5-18.2 18.3-19.6 25.4-34.1 46.2-53.4 72.4" stroke-width="5.624999"/>
    <path d="m793 365.1c-24.1 29.2-44.8 43.3-37.7 58.7 2.6 5.5 9.7 7.4 16.1 7.6 8.1.2 20.2-1.4 30.3-7.3" stroke-width="5.625001"/>
    <g stroke-width="5.625">
     <ellipse cx="870.51941" cy="-243.71605" rx="4.609393" ry="6.862875" transform="matrix(.72846687 .68508103 -.68508103 .72846687 0 0)"/>
     <path d="m911.5 337.7c-14.4 10.7-26 21.2-37.2 39.5-8.8 14.1-17.7 28.7-20 46.7"/>
    </g>
   </g>
   <path d="m926.2 337.9c-9.9-2.9-18.2 4.1-25.7 10.3" stroke-width="2.8125"/>
   <path d="m797.7 424.6c11.1 18.4 46.4-3.9 81.2-25.4 16.4-10.1 29.7-21.9 42.2-33.9 10.8-10.5 12.4-22 7.9-27-5.4-6-30.7-3.9-55.3 36.8-25.4 41.6-22.8 55.9-10.2 56.1" stroke-linejoin="round" stroke-width="5.624999"/>
   <path d="m920.3 335.7c-13.1 1.2-26.3 9.8-34.4 19-9.1 10.3-11.9 13.6-18 22.9-10.2 17.6-22.2 41.6-10.2 51.9" stroke-linejoin="round" stroke-width="5.625"/>
   <path d="m923.6 337.3c-7-1.3-13.2 2.5-18.2 7" stroke-width="2.8125"/>
   <path d="m868.1 390.2c-8.6 16.5-11.5 26.3-11.4 32 0 2.2.6 3.9 1.4 5 .6.9 1.5 1.7 2.4 2.1.5.2 1 .2 1.6.3" stroke-width="2.8125"/>
   <path d="m863.5 431.1c36-1.4 59.9-20.7 87.4-46.5" stroke-linejoin="round" stroke-width="5.625"/>
  </g>
 </g>
</svg>
