<svg height="210mm" viewBox="0 0 1052.4 744.1" width="297mm" xmlns="http://www.w3.org/2000/svg">
 <g fill="none" stroke-linecap="round">
  <g transform="translate(0 -308.26772)">
   <path d="m57.6 742.2h948.8" stroke="#969696" stroke-width="1.875"/>
   <g stroke="#000" stroke-dasharray="3.75 7.5" stroke-miterlimit="2" stroke-width=".9375">
    <path d="m58.3 844.1h948.8"/>
    <path d="m58.3 641.8h948.8"/>
    <path d="m58.3 540.6h948.8"/>
   </g>
  </g>
  <g stroke="#000">
   <g stroke-linejoin="round">
    <g stroke-width="5.625">
     <path d="m660.1 245.6c3.7 10.5-2.8 24.6-14.3 31.3-11.6 6.8-23.9 3.7-27.6-6.8-2-5.9-1-12.8 2.4-19 2.7-4.9 6.8-9.3 11.9-12.3 11.6-6.8 23.9-3.7 27.6 6.8z"/>
     <path d="m379.7 431.5c39-64.7 104.7-56.6 95.5-.1"/>
     <path d="m475.2 431.4 53.6-.6"/>
    </g>
    <path d="m620.1 252-83.2 173.2" stroke-width="5.624999"/>
    <ellipse cx="678.35394" cy="-54.694466" rx="4.609393" ry="6.862875" stroke-width="5.625" transform="matrix(.72846687 .68508103 -.68508103 .72846687 0 0)"/>
   </g>
   <g stroke-width="5.625">
    <path d="m708.5 82.4-86.3 165.5"/>
    <path d="m757.2 84.3c-25.6 28.5-66.9 56.8-48.6-1.9" stroke-linejoin="round"/>
   </g>
  </g>
 </g>
</svg>
