<svg height="210mm" viewBox="0 0 1052.4 744.1" width="297mm" xmlns="http://www.w3.org/2000/svg">
 <g fill="none" stroke-linecap="round">
  <g transform="translate(0 -308.26772)">
   <path d="m57.6 742.2h948.8" stroke="#969696" stroke-width="1.875"/>
   <g stroke="#000" stroke-dasharray="3.75 7.5" stroke-miterlimit="2" stroke-width=".9375">
    <path d="m58.3 844.1h948.8"/>
    <path d="m58.3 641.8h948.8"/>
    <path d="m58.3 540.6h948.8"/>
   </g>
  </g>
  <g stroke="#000" stroke-linejoin="round">
   <path d="m250.1 431.4c25.4-35.6 37.5-52.1 52.3-71.5 12.9-16.8 24.7-23.7 38.2-23.6 11.6.1 16.5 12.5 7.1 32.6-10 21.3-33.7 62.7-33.7 62.7" stroke-width="5.624999"/>
   <path d="m314 431.6c13.7-13 45.1-50.7 55.5-62.7 16.2-18.2 28.6-32 42.7-32.9 3.3-.4 6.4-.1 9 .9 2.8 1 5 2.6 6.6 4.7 3.7 5.2 3.1 13.5-5.1 23.4-24.4 29.4-44.9 43-37.7 58.6 2.6 5.6 7.8 8 16.3 7.4 7.7-.6 18.1-2.4 27.7-4.1 54.1-9.4 179.7-23.2 188.7-23.2 24.9-.2 12.9 27.8 38.8 26.9 30.3-1.1 53.4-37.6 83-88.3 11.3-19.4 61.4-109.4 61.4-109.4" stroke-width="5.625"/>
  </g>
 </g>
</svg>
