<svg height="210mm" viewBox="0 0 1052.4 744.1" width="297mm" xmlns="http://www.w3.org/2000/svg">
 <g fill="none" stroke-linecap="round">
  <g transform="translate(0 -308.26772)">
   <path d="m57.6 742.2h948.8" stroke="#969696" stroke-width="1.875"/>
   <g stroke="#000" stroke-dasharray="3.75 7.5" stroke-miterlimit="2" stroke-width=".9375">
    <path d="m58.3 844.1h948.8"/>
    <path d="m58.3 641.8h948.8"/>
    <path d="m58.3 540.6h948.8"/>
   </g>
  </g>
  <g stroke="#000" stroke-width="5.625">
   <g stroke-linejoin="round">
    <path d="m499.9 347.8c23.7-19.2 60.9-14.6 37.5 14.4-27.4 33.8-47.1 47.2-41.1 60.9 2.4 5.4 8.9 8.5 23.7 8"/>
    <path d="m576.6 407.1c.8.1 1.6.3 2.1.6.2.1.4.2.5.3 1 .8 1.4 2.2.8 4.4-1.1 4.3-6 6.8-8.3 7.6-4.8 1.7-8.3-2.2-5.6-6.4 1.7-2.6 4.7-5.6 8.2-6.3.2-.1.5-.1.7-.1.3 0 .6-.1.9-.1.7 0 1.4.1 2.1.3"/>
    <path d="m520 431.1c23.7 0 55.2-5.1 125.8-49.8 36-22.8 41.4-45.1 29.3-45.5-7.5-.3-26.4 4-49.2 41.6-26.3 43-19.9 52.2-4.8 53.6"/>
    <path d="m621 430.9c23-1.5 33.4-16.2 114.5-94.9"/>
    <path d="m735.5 336-56.7 94.9"/>
    <path d="m428.2 423.1 37.6-27.8-66.9 138.5"/>
    <path d="m320.7 430.8s44.6-32.4 61.8-29.2 16 46.2 45.6 21.5"/>
    <path d="m364.3 405.6c5.4-2.4 18.6-2.2 26.5 15 5.6 12.2 13.9 9.5 20.5 9.9"/>
    <path d="m378.9 403.7c6.7 5.9 6.3.5 21.2 23.1"/>
   </g>
   <path d="m320.7 430.8c-8 7.4-26.8 34.8-33.8 48.6-2.7 4.5-5.8 10.2-8.2 16.4-12.2 28.5-2.3 35.4 10.9 35.7 15.4.4 28.9-12.2 42.1-29.5"/>
  </g>
 </g>
</svg>
