<svg height="210mm" viewBox="0 0 1052.4 744.1" width="297mm" xmlns="http://www.w3.org/2000/svg">
 <g fill="none" stroke-linecap="round">
  <g transform="translate(0 -308.26772)">
   <path d="m57.6 742.2h948.8" stroke="#969696" stroke-width="1.875"/>
   <g stroke="#000" stroke-dasharray="3.75 7.5" stroke-miterlimit="2" stroke-width=".9375">
    <path d="m58.3 844.1h948.8"/>
    <path d="m58.3 641.8h948.8"/>
    <path d="m58.3 540.6h948.8"/>
   </g>
  </g>
  <g stroke="#000" stroke-linejoin="round" stroke-width="5.625">
   <path d="m1410.1 337.1c-52.1 13.6-97.3 122.8-33.5 87.2 4.7-2.6 7.7-6.4 9.8-8.2 3.9-3.2 16.4-18.1 22.6-25.3 1.3-1.5 9.5-12.2 10.1-12.9"/>
   <path d="m1590.9 382.6c19.2-20.3 34.7-46 59.3-46 28.4.6 14.8 45.8 41.3 45.6 12.6-.1 18.1-7.7 25.4-16.5"/>
   <path d="m1518.1 371.8 48.8-37.2 24 48"/>
   <path d="m1419.1 378 59.6-78.1c18.5-24.2 60.9-14.6 37.5 14.4-27.4 33.8-45.5 50.2-39.4 63.9 3.4 7.6 16.7 4.6 25.3 2.1 6.1-1.8 11.6-5 16-8.5"/>
   <path d="m416.4 336.1c-45.4 11.9-87 95.2-49.6 95.5 38.7-.1 67.4-54.8 92.7-91 14.9-21.3 37.4-51.4 59-53.3 3.3-.4 6.4-.1 9 .9 2.8 1 5 2.6 6.6 4.7 3.7 5.2 3.1 13.5-5.1 23.4-24.4 29.4-44.9 42.3-37.7 57.8 2.6 5.6 8.9 8.2 16.3 8.1 6.6-.1 13.7-1.6 20.3-4 24.6-9.2 61.4-31.5 79.5-42.4l20.9 46.6"/>
   <path d="m628.4 382.5c13.5-14.6 32.3-32.3 50.8-33.3 17.6-.7 20.1 33.8 33.9 33.8 9 0 13.8-4.7 20.3-10.5"/>
  </g>
 </g>
</svg>
