<svg height="210mm" viewBox="0 0 1052.4 744.1" width="297mm" xmlns="http://www.w3.org/2000/svg">
 <g fill="none" stroke-linecap="round">
  <g transform="translate(0 -308.26772)">
   <path d="m57.6 742.2h948.8" stroke="#969696" stroke-width="1.875"/>
   <g stroke="#000" stroke-dasharray="3.75 7.5" stroke-miterlimit="2" stroke-width=".9375">
    <path d="m58.3 844.1h948.8"/>
    <path d="m58.3 641.8h948.8"/>
    <path d="m58.3 540.6h948.8"/>
   </g>
  </g>
  <g stroke="#000">
   <path d="m205.8 431.1c16.1-9.4 49.9-29.9 74.4-26.6 17.3 2.3 15.6 26.3 30.2 27 4.7.2 10.6-2.4 18.6-9.7" stroke-linejoin="round" stroke-width="5.097275"/>
   <g stroke-width="5.625">
    <path d="m480.8 235s-116.5 150.1-151.9 186.7" stroke-linejoin="round"/>
    <path d="m480.8 235-103.6 196.9"/>
    <g stroke-linejoin="round">
     <path d="m777.3 335.8c-33.9 49.1-66.9 93.3-99.7 95.4-47 3.1 41-139.6 83.6-184.7 4.7-5 11.2-10.7 18.9-11.9"/>
     <path d="m377.2 431.9s372.3-191.9 402.8-197.3"/>
    </g>
   </g>
  </g>
 </g>
</svg>
