<svg height="210mm" viewBox="0 0 1052.4 744.1" width="297mm" xmlns="http://www.w3.org/2000/svg">
 <g fill="none" stroke-linecap="round">
  <g transform="translate(0 -308.26772)">
   <path d="m57.6 742.2h948.8" stroke="#969696" stroke-width="1.875"/>
   <g stroke="#000" stroke-dasharray="3.75 7.5" stroke-miterlimit="2" stroke-width=".9375">
    <path d="m58.3 844.1h948.8"/>
    <path d="m58.3 641.8h948.8"/>
    <path d="m58.3 540.6h948.8"/>
   </g>
  </g>
  <g stroke="#000">
   <g stroke-linejoin="round" stroke-width="5.625">
    <path d="m606.4 337.2-267.4 88.9"/>
    <path d="m324 429.9c3.4-.4 15.1-3.7 15.1-3.7"/>
    <path d="m325.5 418.7c.8.1 1.5.2 2 .5.2.1.3.2.5.3 1 .7 1.3 2 .8 4.1-1.1 4-5.6 6.3-7.7 7.1-4.5 1.6-7.8-2.1-5.2-6 1.6-2.5 4.4-5.2 7.6-5.9.2-.1.4-.1.7-.1s.5-.1.8-.1c.6 0 1.3.1 1.9.3"/>
    <path d="m595.5 431.4c-42.1 28.3-59.4 40-84.4 63-18.5 18.4-21.9 28-20 34.3.9 3 16.3 22.9 59.8-38.1 26.9-36.9 54.6-73.4 69.3-116.4 10.6-20.6 3.5-40.9-13.8-36.9"/>
    <path d="m595.5 431.4c17.9-11.4 43-29.4 59.8-30.3 16-.6 21.6 31 32.6 30.7 7.2-.2 12.4-7.6 16.7-12.9"/>
   </g>
   <path d="m621.9 363.3c-20.5 45.9-64.8 123.2-100.9 158.2" stroke-width="8.4375"/>
   <path d="m625 351.2c1.4 8.4-92.8 164.8-114.9 178.5" stroke-width="5.625"/>
   <g stroke-width="3.75">
    <path d="m617.5 339.8c7 1.1 9.6 9.2 3 20.7"/>
    <path d="m517.8 521.3c-6.3 5.5-18.8 17.1-24.4 7.2"/>
   </g>
  </g>
 </g>
</svg>
