<svg height="210mm" viewBox="0 0 1052.4 744.1" width="297mm" xmlns="http://www.w3.org/2000/svg">
 <g fill="none" stroke-linecap="round">
  <g transform="translate(0 -308.26772)">
   <path d="m57.6 742.2h948.8" stroke="#969696" stroke-width="1.875"/>
   <g stroke="#000" stroke-dasharray="3.75 7.5" stroke-miterlimit="2" stroke-width=".9375">
    <path d="m58.3 844.1h948.8"/>
    <path d="m58.3 641.8h948.8"/>
    <path d="m58.3 540.6h948.8"/>
   </g>
  </g>
  <g stroke="#000" stroke-linejoin="round" stroke-width="5.625">
   <path d="m626.3 374.8s62.9-34.3 76.6-34.7c11.3-.3 12.3 24.2 19.8 32.1 6.6 6.9 16.4 1.7 28.7-8.5"/>
   <path d="m368.5 431.2s252.4-140.5 276.8-149.2c21-5.4 35 2.5 12.3 40.5l-31.2 52.3"/>
   <path d="m751.3 363.6c7.6-5.2 89.3-82.7 89.3-82.7l-56.7 94.9"/>
   <path d="m273.9 532.8 77.4-134.5c-18.9 7.1-156.5 120.6-112.8 133.5 9.5 2.5 15.8.3 29.7-13.3"/>
  </g>
 </g>
</svg>
