<svg height="210mm" viewBox="0 0 1052.4 744.1" width="297mm" xmlns="http://www.w3.org/2000/svg">
 <g fill="none" stroke-linecap="round">
  <g transform="translate(0 -308.26772)">
   <path d="m57.6 742.2h948.8" stroke="#969696" stroke-width="1.875"/>
   <g stroke="#000" stroke-dasharray="3.75 7.5" stroke-miterlimit="2" stroke-width=".9375">
    <path d="m58.3 844.1h948.8"/>
    <path d="m58.3 641.8h948.8"/>
    <path d="m58.3 540.6h948.8"/>
   </g>
  </g>
  <g stroke="#000" stroke-linejoin="round">
   <path d="m181.8 431.5c39-64.7 104.7-56.6 95.5-.1" stroke-width="5.625"/>
   <path d="m161.3 385.2 20.5 46.3" stroke-width="5.625"/>
   <ellipse cx="529.75372" cy="78.114037" rx="5.271423" ry="7.848564" stroke-width="14.034715" transform="matrix(.72846687 .68508103 -.68508103 .72846687 0 0)"/>
   <g stroke-width="5.625">
    <path d="m475.3 381.4c14.8-7.7 32.2-16.2 28.9-34.4-.9-14.2-54.7-50-67.7-65.6-4.9-5.8-7.4-13.4 3.2-46.6"/>
    <path d="m439.6 234.8-97.7 187.8"/>
    <path d="m277.3 431.3 53.6-.6"/>
    <path d="m607.8 310.7c9.2-14.3 25.1-25.6 37.3-25.3 16.7.5 20.9 16 1.3 42-26.7 35.5-36.4 51-45.5 64.6-5.3 8.3-7.2 19-3.7 26 10.4 18.4 47.3 13.5 57.9 6.6"/>
    <ellipse cx="764.31439" cy="-143.83179" rx="4.609393" ry="6.862874" transform="matrix(.72846687 .68508103 -.68508103 .72846687 0 0)"/>
    <ellipse cx="224.47258" cy="627.39825" rx="25.728559" ry="20.371418" transform="matrix(.79083574 -.61202846 .61202846 .79083574 0 0)"/>
    <path d="m556.3 338.4s-76.2 28.3-84.8 39.2c-1.8 2.3-.3 5.8 3.9 3.8"/>
   </g>
  </g>
 </g>
</svg>
