<svg height="210mm" viewBox="0 0 1052.4 744.1" width="297mm" xmlns="http://www.w3.org/2000/svg">
 <g fill="none" stroke-linecap="round">
  <g transform="translate(0 -308.26772)">
   <path d="m57.6 742.2h948.8" stroke="#969696" stroke-width="1.875"/>
   <g stroke="#000" stroke-dasharray="3.75 7.5" stroke-miterlimit="2" stroke-width=".9375">
    <path d="m58.3 844.1h948.8"/>
    <path d="m58.3 641.8h948.8"/>
    <path d="m58.3 540.6h948.8"/>
   </g>
  </g>
  <g stroke="#000" stroke-linejoin="round" stroke-width="5.625">
   <path d="m313.5 409c2.6-1.4 5.2-2.8 7.8-4.1 71-36.4 106.5-30.8 88.1 26.4 0 0 47.9-55.4 64.3-71.5"/>
   <path d="m264 386.2c20 .4 41.3-6.3 60.1-24.8 6.5-6.4 9.6-14.4 7.3-21.8-2.8-7.4-35.3-8.8-59.6 31.3-26.8 43.9-18 61.5-4.3 59.7 15.5-.9 30.8-12.9 45.9-21.6"/>
   <path d="m462.7 431.6c-14.3 3.6 78.1-94.5 114.3-94.9 20.9-.2 33.3 23.4 41 46.8 10.4 31.8 15.8 47.8 30.1 47.7 13.5-.1 17-1.1 21-1.8"/>
   <ellipse cx="283.23459" cy="733.63727" rx="25.728558" ry="20.371416" transform="matrix(.79083574 -.61202846 .61202846 .79083574 0 0)"/>
   <path d="m804.9 235.2-112 179.8"/>
   <path d="m462.7 431.6c57.2-20.8 87.1-146.4 10.9-71.7"/>
  </g>
 </g>
</svg>
