<svg height="210mm" viewBox="0 0 1052.4 744.1" width="297mm" xmlns="http://www.w3.org/2000/svg">
 <g fill="none" stroke="#000" stroke-linecap="round">
  <g transform="translate(0 -308.26772)">
   <path d="m57.6 742.2h948.8" stroke-width="1.875"/>
   <g stroke-dasharray="3.75 7.5" stroke-miterlimit="2" stroke-width=".9375">
    <path d="m58.3 844.1h948.8"/>
    <path d="m58.3 641.8h948.8"/>
    <path d="m58.3 540.6h948.8"/>
   </g>
  </g>
  <g stroke-linejoin="round" stroke-width="5.625">
   <path d="m282.7 358.8s6.1-11 14.3-15.4c23.4-14.2 53.3-8.3 31.7 18.5-27.4 33.8-45.5 50.2-39.4 63.9 4.2 9.5 21.1 5.6 35.5 3.4 34.7-4.8 126.6-30.3 149.8-30.1 14.5.3 17.3 32.4 36.3 32.6"/>
   <path d="m510.8 431.6c19-1 38.7-28.7 53.6-47.1 14.9-18.3 38.3-45.6 55.9-47.2 25.2-2.3 39.3 14.4 29.1 47.5"/>
   <path d="m649.4 384.8 62.3-48.5-23.7 48.5"/>
   <path d="m718.9 339.4-23.5 45.3"/>
   <path d="m699.9 384.6-12 .2"/>
   <path d="m725.8 336.4-25.9 48.3"/>
   <path d="m725.8 336.4-14.1-.1"/>
   <path d="m717 337.6-23.4 45.3"/>
  </g>
 </g>
</svg>
