<svg height="210mm" viewBox="0 0 1052.4 744.1" width="297mm" xmlns="http://www.w3.org/2000/svg">
 <g fill="none" stroke-linecap="round">
  <g transform="translate(0 -308.26772)">
   <path d="m57.6 742.2h948.8" stroke="#969696" stroke-width="1.875"/>
   <g stroke="#000" stroke-dasharray="3.75 7.5" stroke-miterlimit="2" stroke-width=".9375">
    <path d="m58.3 844.1h948.8"/>
    <path d="m58.3 641.8h948.8"/>
    <path d="m58.3 540.6h948.8"/>
   </g>
  </g>
  <g stroke="#000">
   <path d="m577.8 333.7c7.2-4.5 15.1-9 20.2-13.4 12.8-11.2 18.6-26.1 16.7-30.9-2.8-7.3-34.7-8.6-58.5 30.7-26.3 43.1-16.7 59.1-4.2 58.6 6.5.5 14.9.3 23.9-3.9" stroke-linejoin="round" stroke-width="5.625"/>
   <path d="m594.8 290.7c-30.3 19.2-39.8 50.5-52.2 79" stroke-width="4.6875"/>
   <path d="m587.7 290.7c-17.9 10.4-41.1 45.1-46.5 68.6" stroke-width="4.6875"/>
   <path d="m548.4 358.3c-4 10.7-6.4 18.8 3.6 20.4" stroke-width="2.8125"/>
   <path d="m609.2 287.4c-7.4-2.4-11 2.2-15.8 5.2" stroke-width="2.8125"/>
   <path d="m584.3 295.5c-28 20.5-28.9 42.2-43.4 69.6" stroke-width="4.6875"/>
  </g>
  <g stroke-linejoin="round" stroke-width="5.625">
   <path d="m575.8 374.7c3.7-1.3 46.7-27.5 46.7-27.5" stroke="#060000"/>
   <g stroke="#000">
    <path d="m625.8 335.7c.8.1 1.4.2 1.9.5.2.1.3.2.5.3.9.7 1.3 2 .8 4-1 3.9-5.4 6.1-7.5 6.9-4.3 1.6-7.6-2-5.1-5.9 1.6-2.4 4.2-5.1 7.4-5.7.2 0 .4-.1.7-.1s.5-.1.8-.1c.6 0 1.2.1 1.9.3"/>
    <path d="m577.8 333.7c-22.8 13.2-93.1 53.3-109.8 66.5-13.2 10.4-25.6 20.5-38.8 35.7-18.5 21-26.6 35.6-24.7 41.9.9 3 16.3 22.9 59.8-38.1 26.9-36.9 54.6-73.4 69.3-116.4 15.5-30.1-6.8-59.6-43.5-13.3"/>
    <path d="m403.1 335.2c54.3-11 95.5-79.5 89.2-96.2-5.5-14.4-40.2 8.9-87.4 86.8-41.2 71.2-46.2 101.2-34.5 105.8 2.9 1.1 6.8.7 11.5-1 3.2-1.2 6.8-3 10.6-5.4 21.2-15 54.1-55 76.1-84.5 5.5-7.4 17.8-25.1 21.6-30.6"/>
   </g>
   <g stroke="#060000">
    <path d="m648.3 336.4 23.7 44.3"/>
    <path d="m626.3 345.4 22-9"/>
   </g>
  </g>
 </g>
</svg>
