<svg height="210mm" viewBox="0 0 1052.4 744.1" width="297mm" xmlns="http://www.w3.org/2000/svg">
 <g fill="none" stroke-linecap="round">
  <g transform="translate(0 -308.26772)">
   <path d="m57.6 742.2h948.8" stroke="#969696" stroke-width="1.875"/>
   <g stroke="#000" stroke-dasharray="3.75 7.5" stroke-miterlimit="2" stroke-width=".9375">
    <path d="m58.3 844.1h948.8"/>
    <path d="m58.3 641.8h948.8"/>
    <path d="m58.3 540.6h948.8"/>
   </g>
  </g>
  <g stroke="#000" stroke-linejoin="round" stroke-width="5.625">
   <path d="m257.6 334.6c-40.3 12.4-75.5 71-59.7 88.5 13.3 11.1 32.3 8.5 46 7.2 19.4-2.2 68.9-16 68.9-16"/>
   <path d="m167.5 336.9-36.9 66c-11.6 20.7 5.4 33.1 24.4 26.4 25.8-11 49.4-61.6 78-81.6"/>
   <path d="m312.8 414.1c39.2-9.6 83.5-19.9 94.1-20 24.9-.2 12.9 38.9 38.8 37.2 8.1-.5 16.6-5.4 23.2-9 8.8-4.7 56.7-36.7 56.7-36.7"/>
   <path d="m525.7 385.7 21.2 45.5"/>
   <path d="m87 385.6-23.6 45.3"/>
  </g>
 </g>
 <circle cx="997.90167" cy="421.32663" r="8.049653"/>
 <g fill="none" stroke="#000" stroke-linecap="round" stroke-linejoin="round">
  <g stroke-width="5.625">
   <path d="m808 431.2s88.2-149.4 94.9-159.8c6.3-9.7 12.5-19.6 19.9-27.3 10-10.4 22.3-10.8 27.6-10.7 16.5.2 11.5 17.6-1.6 39.7-10.9 18.5-20.8 37-36.9 62.4-22.7 35.8-47.8 69.1-39.6 86 4.3 8.5 10.1 9.8 17 9.4 24.4-1.6 55.9-11.4 96.7-41.4"/>
   <path d="m786 383.1 22 48.1"/>
   <path d="m593.1 432c-12.9-9.6 74.6-32.7 93.7-33.6 18.1-.7 22.6 33.3 35.1 32.9 8.2-.2 14-8.6 19-14.7"/>
  </g>
  <path d="m593.1 432c3 .3 9.7-4.2 11-5 43.6-24.9 66.5-108.1 26.9-86.7-9.8 6.4-20.7 14.8-29 24.9" stroke-width="5.419139"/>
  <g stroke-width="5.638243">
   <path d="m645.2 340.6c2.3 32.7-17.1 62.2-38.1 82.5"/>
   <path d="m647.8 342.9c5.2 34.8-19.9 69.4-45 83.3"/>
   <path d="m640.5 339.2c3.6 34.1-21.2 69-37.7 86.9"/>
  </g>
  <g stroke-width="2.819121">
   <path d="m633.1 339c7.9-3.1 5.9 10.5 5.9 15.8"/>
   <path d="m609.3 416.4c-5.5 6.9-8.3 10.7-14.3 14.1"/>
  </g>
 </g>
</svg>
