<svg height="210mm" viewBox="0 0 1052.4 744.1" width="297mm" xmlns="http://www.w3.org/2000/svg">
 <g fill="none" stroke-linecap="round">
  <g transform="translate(0 -308.26772)">
   <path d="m57.6 742.2h948.8" stroke="#969696" stroke-width="1.875"/>
   <g stroke="#000" stroke-dasharray="3.75 7.5" stroke-miterlimit="2" stroke-width=".9375">
    <path d="m58.3 844.1h948.8"/>
    <path d="m58.3 641.8h948.8"/>
    <path d="m58.3 540.6h948.8"/>
   </g>
  </g>
  <g stroke="#000">
   <g stroke-linejoin="round">
    <path d="m722.6 405.7c-17.9 16.8-31.3 24.5-40.9 25.4-46.8 4.7-.5-151.6 83.3-196.7" stroke-width="5.624959"/>
    <path d="m722.6 405.7c30.2-29.5 103.3-133.8 144.1-162.6" stroke-width="5.624959"/>
    <path d="m899.6 335c-40.7 49.9-69.7 93.9-97.2 96-2.7.2-4.5.2-6.9 0-42.8-1.9 3.2-152.5 85.6-196.9" stroke-width="5.625"/>
    <path d="m881 234.2c-36.3 29.6-59.8 62.6-75.9 97.1-9.8 21-16.3 39.9-22.8 64.2" stroke-width="5.624999"/>
    <path d="m785.2 426.4c-12.2-16.3 1.7-55.7 17.6-93.6 16-38 48.8-80.2 74.4-95.9" stroke-width="4.687499"/>
    <path d="m802.4 337.5c-8.2 18.2-14.3 37-18 50.4-2.9 10.3-4.3 21.6-2.6 29.9 1.3 6.5 4.9 11.2 10 12.5" stroke-width="5.624999"/>
    <g stroke-width="5.625">
     <path d="m899.6 335 19.1 48.4"/>
     <path d="m574.1 431s145.8-162 163.3-176.8"/>
     <path d="m619.8 336.2-45.7 94.9"/>
    </g>
    <path d="m412.5 235.5s-66.1 127.2-85.7 164.6c-8.4 18.4 1.8 31.1 17.2 31.3 4.5.1 8.8-.7 15.5-2.4 44.3-11.7 172.5-61.2 172.5-61.2l87.7-31.6" stroke-width="5.624999"/>
    <path d="m200.5 336.3s-29.9 59.2-34.5 70.3c-6.6 16.3 3.5 25.3 18.3 24.7" stroke-width="5.625"/>
   </g>
   <g stroke-width="5.624999">
    <path d="m260.4 385.2c-23.9 18.6-53.7 46.2-76 46.1"/>
    <g stroke-linejoin="round">
     <path d="m260.4 385.2-46.6 95.4"/>
     <path d="m213.8 480.6 80.8-44.2 21.3 44.2"/>
    </g>
   </g>
  </g>
 </g>
</svg>
