<svg height="210mm" viewBox="0 0 1052.4 744.1" width="297mm" xmlns="http://www.w3.org/2000/svg">
 <g fill="none" stroke-linecap="round">
  <g transform="translate(0 -308.26772)">
   <path d="m57.6 742.2h948.8" stroke="#969696" stroke-width="1.875"/>
   <g stroke="#000" stroke-dasharray="3.75 7.5" stroke-miterlimit="2" stroke-width=".9375">
    <path d="m58.3 844.1h948.8"/>
    <path d="m58.3 641.8h948.8"/>
    <path d="m58.3 540.6h948.8"/>
   </g>
  </g>
  <g stroke="#000" stroke-width="5.625">
   <path d="m618.8 236-90.6 196.5"/>
   <g stroke-linejoin="round">
    <path d="m606.9 432.5c.6.4 67.5-36.7 79-37.6 24.4-1.9 10.5 41.1 32.9 36.9 4.6-.9 16.7-7.4 30.6-16.3"/>
    <path d="m528.2 432.5 135.6-95.3-56.7 94.9"/>
    <path d="m456.5 422.8 37.6-27.8-66.9 138.5"/>
    <path d="m349 430.5s44.6-32.4 61.8-29.2 16 46.2 45.6 21.5"/>
    <path d="m392.6 405.3c5.4-2.4 18.6-2.2 26.5 15 5.6 12.2 13.9 9.5 20.5 9.9"/>
    <path d="m407.2 403.4c6.7 5.9 6.3.5 21.2 23.1"/>
   </g>
  </g>
 </g>
</svg>
