<svg height="210mm" viewBox="0 0 1052.4 744.1" width="297mm" xmlns="http://www.w3.org/2000/svg">
 <g fill="none" stroke-linecap="round">
  <g transform="translate(0 -308.26772)">
   <path d="m57.6 742.2h948.8" stroke="#969696" stroke-width="1.875"/>
   <g stroke="#000" stroke-dasharray="3.75 7.5" stroke-miterlimit="2" stroke-width=".9375">
    <path d="m58.3 844.1h948.8"/>
    <path d="m58.3 641.8h948.8"/>
    <path d="m58.3 540.6h948.8"/>
   </g>
  </g>
  <g stroke="#000" stroke-linejoin="round">
   <path d="m188.2 486.9c-19.4 20.3-22.1 31.9-19.7 40.9.8 3 17.7 21.8 57.3-41.8l88-150.7" stroke-width="5.625"/>
   <path d="m401.3 288.1c-9.2 6.4-197 179.8-213.1 198.7" stroke-width="5.625"/>
   <path d="m362.6 381.6c8.8.6 35-26.8 42-37.4 20.7-32.1 24.7-70.8-3.3-56" stroke-width="5.419139"/>
   <g stroke-width="5.625">
    <path d="m255.6 395.1c17.3-17.1 42.2-44.3 58.3-59.8"/>
    <path d="m233.6 337.6-42.4 73.1c-11.9 20.5 8.4 28.4 31.3 14.4 13.8-9.8 33.1-30 33.1-30"/>
    <path d="m362.6 381.6c-19.9-.5 90.7-46 90.7-46"/>
    <path d="m451.5 479.6c28.5-22.6 35.5-31.4 39-55.7 1.8-12.5-2.6-28-12.8-37.6-5-4.7-11-8.4-17-11.7-8.5-4.8-11.8-5.8-17.2-11.5-6-6.3-5-21.2 9.8-27.5"/>
    <path d="m451.5 479.6c-29.2 6 55.7-35 72.5-41.6"/>
    <ellipse cx="135.08765" cy="685.40826" rx="25.728558" ry="20.371416" transform="matrix(.79083574 -.61202846 .61202846 .79083574 0 0)"/>
    <ellipse cx="400.92087" cy="762.09161" rx="25.728558" ry="20.371416" transform="matrix(.79083574 -.61202846 .61202846 .79083574 0 0)"/>
    <path d="m699.2 431.3s44.7-58.7 65-83.1"/>
    <path d="m513.1 442c34.5-54.1 86-101.8 123.8-106.1 50.3-5.6 80.6 32.3 62.2 95.4"/>
    <path d="m772.5 339.9 75.8-48.3"/>
   </g>
  </g>
 </g>
</svg>
