<svg height="210mm" viewBox="0 0 1052.4 744.1" width="297mm" xmlns="http://www.w3.org/2000/svg">
 <g fill="none" stroke-linecap="round">
  <g transform="translate(0 -308.26772)">
   <path d="m57.6 742.2h948.8" stroke="#969696" stroke-width="1.875"/>
   <g stroke="#000" stroke-dasharray="3.75 7.5" stroke-miterlimit="2" stroke-width=".9375">
    <path d="m58.3 844.1h948.8"/>
    <path d="m58.3 641.8h948.8"/>
    <path d="m58.3 540.6h948.8"/>
   </g>
  </g>
  <g stroke="#000" stroke-linejoin="round" stroke-width="5.625">
   <path d="m436.3 390.2c15.6-17.6 44.7-54.3 61.8-55.1 17.8.8 17.6 27.9 24.7 35.8 3 3.3 6.4 4.3 10 3.8 15.1-2.2 32.1-32.8 24.5-38.1-6.3-4.4-25.9 3.2-49.4 42-26.4 43.1-22.7 54.3-8.8 53.4 19.7-1.3 35.6-11.8 51.5-21.9"/>
   <path d="m550.6 410c6.1-3.6 35-22.8 35-22.8l20 44.1"/>
   <path d="m605.6 431.4c9.5-10.1 27.3-29.4 44.1-30.3 16-.6 21.6 31 32.6 30.7 7.2-.2 12.4-7.6 16.7-13"/>
   <path d="m436.3 390.2c-48.2 61.4-98.5 47.1-84.7-.3"/>
  </g>
 </g>
</svg>
