<svg height="210mm" viewBox="0 0 1052.4 744.1" width="297mm" xmlns="http://www.w3.org/2000/svg">
 <g fill="none" stroke-linecap="round">
  <g transform="translate(0 -308.26772)">
   <path d="m57.6 742.2h948.8" stroke="#969696" stroke-width="1.875"/>
   <g stroke="#000" stroke-dasharray="3.75 7.5" stroke-miterlimit="2" stroke-width=".9375">
    <path d="m58.3 844.1h948.8"/>
    <path d="m58.3 641.8h948.8"/>
    <path d="m58.3 540.6h948.8"/>
   </g>
  </g>
  <g stroke-linejoin="round" stroke-width="5.625">
   <g stroke="#000">
    <path d="m312.4 387.5 24.9 43.6 83-34.6"/>
    <ellipse cx="175.12015" cy="592.44104" rx="62.130169" ry="44.633743" transform="matrix(.88109295 -.47294313 .47294313 .88109295 0 0)"/>
    <path d="m399.4 407.3s168.3-139.3 216.5-171.4"/>
   </g>
   <path d="m610.3 334c-24.2 15.3-103.3 60.2-96.4 92.6.9 3 16.3 22.9 59.8-38.1 26.9-36.9 54.6-73.4 69.3-116.4 10.6-20.6 2-51-27.2-36.3" stroke="#060000"/>
   <path d="m610.3 334c21.2-13.8 72.8-44.2 72.8-44.2" stroke="#000"/>
   <ellipse cx="358.27859" cy="667.22546" rx="25.728558" ry="20.371416" stroke="#000" transform="matrix(.79083574 -.61202846 .61202846 .79083574 0 0)"/>
  </g>
 </g>
</svg>
