<svg height="210mm" viewBox="0 0 1052.4 744.1" width="297mm" xmlns="http://www.w3.org/2000/svg">
 <g fill="none" stroke-linecap="round">
  <g transform="translate(0 -308.26772)">
   <path d="m57.6 742.2h948.8" stroke="#969696" stroke-width="1.875"/>
   <g stroke="#000" stroke-dasharray="3.75 7.5" stroke-miterlimit="2" stroke-width=".9375">
    <path d="m58.3 844.1h948.8"/>
    <path d="m58.3 641.8h948.8"/>
    <path d="m58.3 540.6h948.8"/>
   </g>
  </g>
  <g stroke="#000">
   <ellipse cx="233.34436" cy="697.44977" rx="25.728558" ry="20.371416" stroke-linejoin="round" stroke-width="5.625" transform="matrix(.79083574 -.61202846 .61202846 .79083574 0 0)"/>
   <path d="m633.9 397.7c.3 9.3-.4 14.6-6.3 21.9-3.6 4.5-8.8 8.3-16 11.1" stroke-width="5.624961"/>
   <path d="m630.3 392.5c2 6.9 1.8 6.4.7 11.6-1.6 7.6-6.1 13.5-12.5 18.7-3.2 2.6-6.9 5-10.9 7.3" stroke-width="6.599955"/>
   <path d="m613.2 424.3c-5.3 3.7-10.3 5.7-16.3 3.5" stroke-width="2.849979"/>
   <path d="m619.5 387.8c7.4 1.6 9 4 10.4 10.8" stroke-width="2.849979"/>
   <g stroke-width="5.625">
    <path d="m250.8 359.9c24.3-33 69.8-34.2 37.2 20l-31.1 51.6" stroke-linejoin="round"/>
    <path d="m352.5 431.2c12.5-3.4 20-16.7 19.8-25.9-1.1-20.7-47.4-26.8-49-48.9-.3-8.7 9.9-17.8 19.6-20.3 15.9-4 23.4 4.5 19.6 15.9-2 6.1-6.7 13.8-17.4 22-2.4 1.8-4.8 2.9-4.8 2.9" stroke-linejoin="round"/>
    <path d="m256.9 431.5 83.4-54.6"/>
    <path d="m473.2 412.7c11.1-6.4 21.4-11.4 30.2-11.8 16-.6 17.7 30.7 36.3 30.7 15.2 0 35.1-17.9 56.2-36.7" stroke-linejoin="round"/>
    <path d="m352.5 431.2c-6.7-2.4 60.3-73.8 66-79.3 24.7-24.2 65.1-19.5 41.5 10.1-27.1 34-45.5 50.2-39.4 63.9 4.2 9.6 21.6 5 36.5-3.7l16.2-9.5" stroke-linejoin="round"/>
    <path d="m591 400.6 81.2-113.8"/>
    <g stroke-linejoin="round">
     <path d="m705.5 303c-21.2 23.4-47 27.6-33.3-16.2"/>
     <path d="m705.5 303c22-24.9 64.6-19.6 41.5 10.1-26.7 34.4-45.5 50.2-39.4 63.9 2.2 4.9 7.8 6.1 14.8 4.9 6.6-1.1 17.5-7 28.4-20.3"/>
    </g>
   </g>
  </g>
 </g>
</svg>
