<svg height="210mm" viewBox="0 0 1052.4 744.1" width="297mm" xmlns="http://www.w3.org/2000/svg">
 <g fill="none">
  <g stroke-linecap="round" transform="translate(0 -308.26772)">
   <path d="m57.6 742.2h948.8" stroke="#969696" stroke-width="1.875"/>
   <g stroke="#000" stroke-dasharray="3.75 7.5" stroke-miterlimit="2" stroke-width=".9375">
    <path d="m58.3 844.1h948.8"/>
    <path d="m58.3 641.8h948.8"/>
    <path d="m58.3 540.6h948.8"/>
   </g>
  </g>
  <g stroke="#000" stroke-linejoin="round" stroke-width="5.625">
   <g stroke-linecap="round">
    <path d="m349.5 391.6c21.5-2.4 35.6-6.2 51.4-19.8 12.8-11.2 18.6-26.1 16.7-30.9-2.8-7.3-34.7-8.6-58.5 30.7-26.3 43.1-18.8 59.4-2.7 59.3 5.3-.6 10.7-2.2 15.8-4.4"/>
    <path d="m372.4 426.4c7.7-4 17.6-11.5 17.6-11.5"/>
    <path d="m389.9 414.9c5.2-3.3 30.5-30.2 30.5-30.2l21.4 46.2 40.9-35.4"/>
   </g>
   <path d="m423.1 383.4 20.3 42.2" stroke-linecap="square"/>
   <path d="m425.7 382.1 20.5 42.3" stroke-linecap="square"/>
   <g stroke-linecap="round">
    <path d="m482.8 395.5c24.6-22.7 46.5-44 72.2-70.3 40.5-41.5 76.4-81.3 56.8-88-14.6-5-40.3 8.9-87.4 86.8-44 76.1-42 105.6-24.9 107.4 6.3.7 27.3-.3 36.8-.7"/>
    <path d="m560.6 416.3 125.2-181.9"/>
    <ellipse cx="178.06551" cy="653.5777" rx="25.728558" ry="20.371416" transform="matrix(.79083574 -.61202846 .61202846 .79083574 0 0)"/>
   </g>
  </g>
 </g>
</svg>
