<svg height="210mm" viewBox="0 0 1052.4 744.1" width="297mm" xmlns="http://www.w3.org/2000/svg">
 <g fill="none" stroke-linecap="round">
  <g transform="translate(0 -308.26772)">
   <path d="m57.6 742.2h948.8" stroke="#969696" stroke-width="1.875"/>
   <g stroke="#000" stroke-dasharray="3.75 7.5" stroke-miterlimit="2" stroke-width=".9375">
    <path d="m58.3 844.1h948.8"/>
    <path d="m58.3 641.8h948.8"/>
    <path d="m58.3 540.6h948.8"/>
   </g>
  </g>
  <g stroke="#000" stroke-linejoin="round">
   <path d="m254.2 432.5c-24 14-32.3 21.6-48.3 36.6-23.9 22.4-34.4 52.8-31.8 59.7 1.1 2.9 17.7 21.8 57.3-41.8l89.2-152.4" stroke-width="5.625"/>
   <path d="m254.2 432.5c52.2-23.6 304.6-136.8 304.6-136.8" stroke-width="5.625"/>
   <path d="m545.7 383c3 .3 10.4-3.7 11.8-4.4 41.4-23.7 64.3-89.4 32-91.1-7.8-.4-10.5-.4-30.7 8.2" stroke-width="5.419139"/>
   <g stroke-width="5.638243">
    <path d="m602.6 299.8c-.7 31-18.9 53.7-39 74.7"/>
    <path d="m600.3 295.6c5.2 34.8-15.9 68-41 82"/>
    <path d="m597 290.6c3.6 34.1-21.2 69-37.7 86.9"/>
   </g>
   <path d="m590 288.6c7.9-3.1 5.6 12.3 5.5 17.6" stroke-width="2.819121"/>
   <g stroke-width="5.625">
    <path d="m567.8 364.4 122.9-76.9"/>
    <path d="m566.1 357.2c.6.2 1 .4 1.4.7.1.1.2.2.3.3.6.7.7 1.7 0 3.2-1.3 2.8-5.1 3.9-6.8 4.2-3.6.6-5.5-2.6-3-5.2 1.5-1.6 4-3.3 6.5-3.3h.5c.2 0 .4 0 .6.1.5.1.9.2 1.4.5"/>
    <path d="m731.3 329.8 28.1-37"/>
    <path d="m759.4 292.8c21.6-28.9 36.1-52.4 56.9-56.8 16.9-3.2 25.9 6.2 23 20-1.4 6.3-4.7 14.5-10.3 24.7l-27.8 50.4"/>
    <path d="m690.7 287.5-39 72.4c-8.4 15.5 5 26.1 21.5 22.2 21.3-5.1 48.5-40.5 58.1-52.4"/>
   </g>
  </g>
 </g>
</svg>
