<svg height="210mm" viewBox="0 0 1052.4 744.1" width="297mm" xmlns="http://www.w3.org/2000/svg">
 <g fill="none" stroke-linecap="round">
  <g transform="translate(0 -308.26772)">
   <path d="m57.6 742.2h948.8" stroke="#969696" stroke-width="1.875"/>
   <g stroke="#000" stroke-dasharray="3.75 7.5" stroke-miterlimit="2" stroke-width=".9375">
    <path d="m58.3 844.1h948.8"/>
    <path d="m58.3 641.8h948.8"/>
    <path d="m58.3 540.6h948.8"/>
   </g>
  </g>
  <g stroke="#000" stroke-linejoin="round">
   <g stroke-width="5.625">
    <path d="m494.8 372.8c28.7 13.9 191.9-239.2 227.5-238.8 47.4-1.4-25.4 164.6-106 197.4"/>
    <path d="m439.5 335.9c-45.3 11.8-85.1 96.5-53 94.5 8-.5 20.5-6.4 38.5-20.2 23.3-18.4 124.4-122.1 124.4-122.1"/>
    <path d="m549.4 288.2-56.7 94.9"/>
   </g>
   <g transform="matrix(.72846687 .68508103 -.68508103 .72846687 0 0)">
    <ellipse cx="643.71533" cy="-31.073551" rx="3.366329" ry="5.01209" stroke-width="8.900768"/>
    <ellipse cx="612.40521" cy="-73.185104" rx="4.609393" ry="6.862874" stroke-width="5.625"/>
   </g>
  </g>
 </g>
</svg>
