<svg height="210mm" viewBox="0 0 1052.4 744.1" width="297mm" xmlns="http://www.w3.org/2000/svg">
 <g fill="none" stroke-linecap="round">
  <g transform="translate(0 -308.26772)">
   <path d="m57.6 742.2h948.8" stroke="#969696" stroke-width="1.875"/>
   <g stroke="#000" stroke-dasharray="3.75 7.5" stroke-miterlimit="2" stroke-width=".9375">
    <path d="m58.3 844.1h948.8"/>
    <path d="m58.3 641.8h948.8"/>
    <path d="m58.3 540.6h948.8"/>
   </g>
  </g>
  <g stroke="#000">
   <g stroke-linejoin="round" stroke-width="5.625">
    <path d="m544 336-39 72.4c-8.4 15.5 3.5 25.6 20 21.7 2.8-.7 11.2-4.9 16.2-8.1l22.1-14.3"/>
    <path d="m564 407.3c59.6-39.1 145.3-97.1 225.7-144.9m0 0c15-9.3 44.6-27.3 55.3-27.1 16.8.5 15.3 32 30.7 32.3 9.3.2 15.7-7.8 20.6-14.7"/>
    <path d="m422.8 382.9 31.4 47.9 43.5-47.3"/>
    <path d="m422.8 382.9 24 48"/>
    <path d="m430.4 382.9 23.8 47.9"/>
    <path d="m426.4 382.8 24 48"/>
   </g>
   <path d="m423.1 381.8h7.1" stroke-width="3.75"/>
   <path d="m446.6 431.8h7.1" stroke-width="3.75"/>
   <g stroke-linejoin="round">
    <g stroke-width="5.625">
     <path d="m497.5 383.8 46.5-47.8"/>
     <path d="m189.8 431.2c10.6-12.1 23.1-29.8 40-30.6 16-.6 21.6 31 32.6 30.7 7.2-.2 12.4-7.6 16.7-13"/>
     <path d="m279.1 418.4s125.1-163.6 127.3-166.3c2.6-3.2 5-5.8 7.4-7.8 83-65-26.7 159.9-88.2 186.6-1.9.4-3.6.6-5.2.7"/>
     <path d="m441.7 252.7-91.7 157.8"/>
    </g>
    <path d="m436 268.9-73.1 125.7" stroke-width="8.4375"/>
    <path d="m333.2 426.4c6.6-8.2 16.4-19 22.5-27.9" stroke-width="3.75"/>
    <g stroke-width="5.625">
     <path d="m424.9 296.5-40.2 67.9"/>
     <path d="m443.5 239c.7 14-5.4 18.6-14.3 37.1"/>
     <path d="m320.4 431.6c-21.2 2.4 102.3-48.8 102.3-48.8"/>
    </g>
   </g>
  </g>
 </g>
</svg>
