<svg height="210mm" viewBox="0 0 1052.4 744.1" width="297mm" xmlns="http://www.w3.org/2000/svg">
 <g fill="none" stroke-linecap="round">
  <g transform="translate(0 -308.26772)">
   <path d="m57.6 742.2h948.8" stroke="#969696" stroke-width="1.875"/>
   <g stroke="#000" stroke-dasharray="3.75 7.5" stroke-miterlimit="2" stroke-width=".9375">
    <path d="m58.3 844.1h948.8"/>
    <path d="m58.3 641.8h948.8"/>
    <path d="m58.3 540.6h948.8"/>
   </g>
  </g>
  <g stroke="#000" stroke-width="5.625">
   <path d="m496 288.1-77 42.5" stroke-linejoin="round"/>
   <g transform="translate(-4643.0031 -36934.45900000001)">
    <path d="m4995.8 37218.1-42 216.2"/>
    <g stroke-linejoin="round">
     <path d="m4995.8 37218.1h38.9"/>
     <path d="m4953.8 37434.30000000001h38.9"/>
    </g>
   </g>
   <g transform="translate(-4404.9718 -36934.45900000001)">
    <path d="m5220.9 37217.2-42 216.2"/>
    <g stroke-linejoin="round">
     <path d="m5181.9 37217.2h38.9"/>
     <path d="m5139.9 37433.30000000001h38.9"/>
    </g>
   </g>
   <g stroke-linejoin="round">
    <path d="m591.5 484.1c9.3-.3 17.8-6.8 24.2-17 5.2-8.2 6.5-19.5 10.8-30.3 2.7-6.8 7.3-21.5 14.6-29.8 10.1-11.5 21.7-18.9 21.7-18.9"/>
    <path d="m602.1 336.5-38.4 72.5c-8.2 15.6 5 26.1 21.5 22.2 10.1-2.1 46.3-23.3 76-41.9"/>
    <path d="m651.8 396.4c-14.4 12.2-18.6 35.8-22.4 47.9-3.5 11.7-12.6 25.9-24.7 34.7"/>
    <path d="m644.3 403.6c-7.6 7.8-17.8 21.1-21.8 35.4-4.1 14.4-4.3 33.3-22.5 43.1"/>
    <path d="m522.1 295.9a19.2 25.1 41.6 0 1 -14.3 31.3 19.2 25.1 41.6 0 1 -27.6-6.8 19.2 25.1 41.6 0 1 14.3-31.3 19.2 25.1 41.6 0 1 27.6 6.8z"/>
    <path d="m696.7 446.9a19.2 25.1 41.6 0 1 -14.3 31.3 19.2 25.1 41.6 0 1 -27.6-6.8 19.2 25.1 41.6 0 1 14.3-31.3 19.2 25.1 41.6 0 1 27.6 6.8z"/>
    <path d="m670.1 439.5s-69.3 28.9-80.1 40.9c-1.4 1.6-1.6 3.7 1.4 3.7"/>
   </g>
  </g>
 </g>
</svg>
