<svg height="210mm" viewBox="0 0 1052.4 744.1" width="297mm" xmlns="http://www.w3.org/2000/svg">
 <g fill="none" stroke-linecap="round">
  <g transform="translate(0 -308.26772)">
   <path d="m57.6 742.2h948.8" stroke="#969696" stroke-width="1.875"/>
   <g stroke="#000" stroke-dasharray="3.75 7.5" stroke-miterlimit="2" stroke-width=".9375">
    <path d="m58.3 844.1h948.8"/>
    <path d="m58.3 641.8h948.8"/>
    <path d="m58.3 540.6h948.8"/>
   </g>
  </g>
  <g stroke="#000">
   <g stroke-width="5.625">
    <path d="m186 398.7c17.5-21.5 65-81 88.1-103 11.2-10.7 21.7-15.5 25.6-16.1 16.1-2.6 28.1 5.8 12.4 25.3-27.4 33.8-44.3 49.8-38.3 63.4 5.4 12.3 32 2.7 46.5-12.2 1-1 20.1-25.6-1.7-34.2-22-8.6-50.9 1.6-53.1 21.2-1 9.1 15.3 30.2 43.5 26.6 12.4-1.6 25.1-12.4 107.4-90.1" stroke-linejoin="round"/>
    <path d="m313.4 281.5c14.5 10.1 4.3 27.8-12.4 44.2-14.4 14-23.4 26.4-29.5 38.7"/>
    <path d="m313.4 281.5c.8-1.1 3.9 6.1.7 14.2-3.2 8.4-12.8 17.8-18.3 22.9-10.8 10.1-30.6 29-24.3 45.7"/>
   </g>
   <g stroke-width="2.8125">
    <path d="m304.8 279.8c11.3 1.3 8.8 6.5 9.1 11"/>
    <path d="m276.6 357.1c-2.7 4.9-3.8 12 2.3 14.5"/>
    <path d="m268.9 358.5c-.1 5.7 2.9 11.5 4.9 13.1"/>
   </g>
   <ellipse cx="-88.905922" cy="448.4711" rx="25.728558" ry="20.371416" stroke-linejoin="round" stroke-width="5.625" transform="matrix(.79083574 -.61202846 .61202846 .79083574 0 0)"/>
  </g>
  <g stroke-linejoin="round" stroke-width="5.625">
   <g stroke="#010400">
    <path d="m359.7 374.5s259.6-92.1 271.5-94.4"/>
    <path d="m631.2 280.1c18.7-4.6 33.9 2 17.9 23.1-26.3 34.7-43.8 49.6-39.4 63.9 2 6.4 6.9 7.9 13.1 7.9 18.9.1 43.4-19.6 61.5-36.7"/>
    <path d="m416.4 279.6-56.7 94.9"/>
   </g>
   <path d="m759.8 300.8c18.1-17.8 33.9-21.7 49.9-21.7 22.1.4 38.8 22.7 30.8 51.1" stroke="#000001"/>
   <path d="m684.2 338.2 59.5-56.7-54.4 93 70.5-73.8" stroke="#000"/>
  </g>
 </g>
</svg>
