<svg height="210mm" viewBox="0 0 1052.4 744.1" width="297mm" xmlns="http://www.w3.org/2000/svg">
 <g fill="none" stroke-linecap="round">
  <g transform="translate(0 -308.26772)">
   <path d="m57.6 742.2h948.8" stroke="#969696" stroke-width="1.875"/>
   <g stroke="#000" stroke-dasharray="3.75 7.5" stroke-miterlimit="2" stroke-width=".9375">
    <path d="m58.3 844.1h948.8"/>
    <path d="m58.3 641.8h948.8"/>
    <path d="m58.3 540.6h948.8"/>
   </g>
  </g>
  <g stroke-width="5.625">
   <path d="m341.1 430.7c7.7-13.1 18.7-22 30.2-22.9 24.4-1.9 9.4 23.4 32.3 23.1 17.9-.2 32.4-14.1 50-27.3" stroke="#010000" stroke-linejoin="round"/>
   <g stroke="#000">
    <path d="m562.5 285.3-111.1 197.9"/>
    <g stroke-linejoin="round">
     <path d="m548 379.9-96.5 103.3"/>
     <path d="m600.6 381.4c-38.2 31.2-70.9 57.3-52.6-1.4"/>
     <path d="m562.5 285.3s-89.5 103.6-108.9 118.3"/>
     <path d="m600.6 381.4c1-.8-25.9 49.6-25.9 49.6"/>
     <path d="m607.6 384.2-25.3 46.6"/>
     <path d="m586.7 430.7-12 .2"/>
     <path d="m614.4 381.2-27.7 49.5"/>
     <path d="m614.4 381.2-14.1-.1"/>
     <path d="m605.7 382.4-25.3 46.6"/>
    </g>
   </g>
  </g>
 </g>
</svg>
