<svg height="210mm" viewBox="0 0 1052.4 744.1" width="297mm" xmlns="http://www.w3.org/2000/svg">
 <g fill="none" stroke="#000" stroke-linecap="round">
  <g transform="translate(0 -308.26772)">
   <path d="m57.6 742.2h948.8" stroke-width="1.875"/>
   <g stroke-dasharray="3.75 7.5" stroke-miterlimit="2" stroke-width=".9375">
    <path d="m58.3 844.1h948.8"/>
    <path d="m58.3 641.8h948.8"/>
    <path d="m58.3 540.6h948.8"/>
   </g>
  </g>
  <g stroke-linejoin="round">
   <path d="m436.1 336.1-47.8 95.3" stroke-width="5.62496"/>
   <g stroke-width="5.625">
    <path d="m388.3 431.3 76.8-48 33.3 47.9"/>
    <path d="m465.1 383.3 24 48"/>
    <path d="m474.6 383.4 23.8 47.9"/>
    <path d="m470.6 383.2 24 48"/>
   </g>
  </g>
  <path d="m465.5 382.3h9" stroke-width="3.75"/>
  <path d="m488.9 432.2h9" stroke-width="3.75"/>
  <g stroke-linejoin="round" stroke-width="5.625">
   <path d="m498.4 431.2c50.4-65.5 116.6-58.7 98.2.3"/>
   <path d="m596.6 431.5 76.3-47c-13.6 9.3-33.9 23.3-32.4 50.1s-24.6 43.2-32.9 46.3"/>
  </g>
 </g>
</svg>
