<svg height="210mm" viewBox="0 0 1052.4 744.1" width="297mm" xmlns="http://www.w3.org/2000/svg">
 <g fill="none" stroke-linecap="round">
  <g transform="translate(0 -308.26772)">
   <path d="m57.6 742.2h948.8" stroke="#969696" stroke-width="1.875"/>
   <g stroke="#000" stroke-dasharray="3.75 7.5" stroke-miterlimit="2" stroke-width=".9375">
    <path d="m58.3 844.1h948.8"/>
    <path d="m58.3 641.8h948.8"/>
    <path d="m58.3 540.6h948.8"/>
   </g>
  </g>
  <g stroke="#000" stroke-linejoin="round" stroke-width="5.625">
   <path d="m409.6 344.4c34.6-17.5 56-11.4 33.4 16.5-27.4 33.8-45.5 50.2-39.4 63.9 4.2 9.6 23.1 7.2 36.5-3.7l8-6.5"/>
   <path d="m532.9 336.1-55.8 97.2"/>
   <path d="m532.9 336.1h-10.6"/>
   <path d="m527.3 336.1-55.8 97.2"/>
   <path d="m477 433.3h-10.6"/>
   <path d="m448 414.7 74.3-78.6-55.8 97.2 11-.1"/>
   <path d="m477 433.3 76.1-49.5"/>
   <path d="m553.2 383.8 21.5 49.2 56.7-99.7"/>
   <path d="m716.2 349.8c-48.5 4.9-90.8 21.7-84.8-16.4"/>
   <path d="m689.1 338.5c1 .1 1.8.3 2.5.7.2.1.4.2.6.4 1.2.9 1.7 2.6 1 5.2-1.3 5.1-7.1 8-9.8 9-5.7 2-9.8-2.6-6.6-7.6 2-3.1 5.5-6.6 9.7-7.5.3-.1.6-.1.9-.1s.7-.1 1-.1c.8 0 1.6.1 2.4.3"/>
   <path d="m719 335.2c1 .1 1.8.3 2.5.7.2.1.4.2.6.4 1.2.9 1.7 2.6 1 5.2-1.3 5.1-7.1 8-9.8 9-5.7 2-9.8-2.6-6.6-7.6 2-3.1 5.5-6.6 9.7-7.5.3-.1.6-.1.9-.1s.7-.1 1-.1c.8 0 1.6.1 2.4.3"/>
  </g>
 </g>
</svg>
