<svg height="210mm" viewBox="0 0 1052.4 744.1" width="297mm" xmlns="http://www.w3.org/2000/svg">
 <g fill="none" stroke-linecap="round">
  <g transform="translate(0 -308.26772)">
   <path d="m57.6 742.2h948.8" stroke="#969696" stroke-width="1.875"/>
   <g stroke="#000" stroke-dasharray="3.75 7.5" stroke-miterlimit="2" stroke-width=".9375">
    <path d="m58.3 844.1h948.8"/>
    <path d="m58.3 641.8h948.8"/>
    <path d="m58.3 540.6h948.8"/>
   </g>
  </g>
  <g stroke="#000">
   <g stroke-linejoin="round" stroke-width="5.625">
    <path d="m463.6 431.1 84.6-32.6"/>
    <path d="m618.4 392.2c-11.4 7.1-35.9 22.9-45.3 28.8-23.6 14.7-37.5 18.6-24.9-22.5"/>
    <ellipse cx="248.48703" cy="709.18915" rx="25.728558" ry="20.371416" transform="matrix(.79083574 -.61202846 .61202846 .79083574 0 0)"/>
   </g>
   <path d="m653 397.7c.3 9.3-.4 14.6-6.3 21.9-3.6 4.5-8.8 8.3-16 11.1" stroke-width="5.624961"/>
   <path d="m649.4 392.5c2 6.9 1.8 6.4.7 11.6-1.6 7.6-6.1 13.5-12.5 18.7-3.2 2.6-6.9 5-10.9 7.3" stroke-width="6.599955"/>
   <path d="m632.3 424.4c-5.3 3.7-10.3 5.7-16.3 3.5" stroke-width="2.849979"/>
   <path d="m638.6 387.8c7.4 1.6 9 4 10.4 10.8" stroke-width="2.849979"/>
   <ellipse cx="248.56595" cy="709.44183" rx="25.728558" ry="20.371416" stroke-linejoin="round" stroke-width="5.625" transform="matrix(.79083574 -.61202846 .61202846 .79083574 0 0)"/>
   <path d="m653.3 397.9c.3 9.3-.4 14.6-6.3 21.9-3.6 4.5-8.8 8.3-16 11.1" stroke-width="5.624961"/>
   <path d="m649.7 392.7c2 6.9 1.8 6.4.7 11.6-1.6 7.6-6.1 13.5-12.5 18.7-3.2 2.6-6.9 5-10.9 7.3" stroke-width="6.599955"/>
   <path d="m632.6 424.5c-5.3 3.7-10.3 5.7-16.3 3.5" stroke-width="2.849979"/>
   <path d="m638.9 387.9c7.4 1.6 9 4 10.4 10.8" stroke-width="2.849979"/>
   <g stroke-linejoin="round" stroke-width="5.625">
    <path d="m407 430.6c6.3-8.6 53-71.6 58-77.1 19-20.6 29.7-20.9 37.8-10.3 8.9 11.6 4.1 18.7 12.6 27.9 16.3 17.8 44-25.1 34.4-31.8-6.5-4.5-28.7-.8-52.8 39l-33.5 52.7"/>
    <path d="m488.5 336.7c8.6-1.3 9.1 3.5 16.9 20.7 5.6 12.2 5.4 21.9 22.9 17.8"/>
    <path d="m488.5 336.7c11.9-1.7 16.2-1 24 16.2 5.6 12.2 5.9 28.2 20.9 19.6"/>
   </g>
  </g>
 </g>
</svg>
