<svg height="210mm" viewBox="0 0 1052.4 744.1" width="297mm" xmlns="http://www.w3.org/2000/svg">
 <g fill="none" stroke-linecap="round">
  <g transform="translate(0 -308.26772)">
   <path d="m57.6 742.2h948.8" stroke="#969696" stroke-width="1.875"/>
   <g stroke="#000" stroke-dasharray="3.75 7.5" stroke-miterlimit="2" stroke-width=".9375">
    <path d="m58.3 844.1h948.8"/>
    <path d="m58.3 641.8h948.8"/>
    <path d="m58.3 540.6h948.8"/>
   </g>
  </g>
  <g stroke="#000" stroke-linejoin="round" stroke-width="5.625">
   <path d="m481.5 431.4c-30.6 25.1-82.4 86.2-74.6 100.3 2.9 5.3 34.7 12.4 62.3-63.4 15.7-47.2 25.8-112.5 71.5-132.1"/>
   <path d="m481.5 431.4c30.1-31.9 58.2-43.4 76.4-46.2 24.7-3.8 38 13.9 30 46.5"/>
   <path d="m335.4 430.9s44.6-32.4 61.8-29.2 16 46.2 45.6 21.5"/>
   <path d="m378.9 405.8c5.4-2.4 18.6-2.2 26.5 15 5.6 12.2 13.9 9.5 20.5 9.9"/>
   <path d="m393.5 403.9c6.7 5.9 6.3.5 21.2 23.1"/>
   <path d="m521.6 348.2c-17.1 13.4-78.8 75-78.8 75"/>
   <path d="m587.9 431.7 59.1-36.1"/>
   <path d="m653.8 533.8c28.5-22.6 35.5-31.4 39-55.7 1.8-12.5-2.6-28-12.8-37.6-5-4.7-11-8.4-17-11.7-8.5-4.8-11.8-5.8-17.2-11.5-6-6.3-5-21.2 9.8-27.5"/>
  </g>
 </g>
</svg>
