<svg height="210mm" viewBox="0 0 1052.4 744.1" width="297mm" xmlns="http://www.w3.org/2000/svg">
 <g fill="none" stroke-linecap="round">
  <g transform="translate(0 -308.26772)">
   <path d="m57.6 742.2h948.8" stroke="#969696" stroke-width="1.875"/>
   <g stroke="#000" stroke-dasharray="3.75 7.5" stroke-miterlimit="2" stroke-width=".9375">
    <path d="m58.3 844.1h948.8"/>
    <path d="m58.3 641.8h948.8"/>
    <path d="m58.3 540.6h948.8"/>
   </g>
  </g>
  <g stroke-linejoin="round">
   <g stroke="#000">
    <path d="m415.8 431.5c13.8-1.4 26.2-10.1 37.7-20.8 25.7-24.2 43.9-32.5 69.1-27.7 6 1.2 11.4 3.9 15.7 7.8 8.9 8.2 13.4 21.9 10.4 40.5" stroke-width="5.624999"/>
    <g stroke-width="5.625">
     <path d="m548.7 431.3 98.9-48.6 24 48.6"/>
     <path d="m671.7 431.3c13.5-14.6 29.9-33.5 48.9-34 17.6-.4 20.3 33.7 35.8 33.8 9 0 13.8-4.7 20.3-10.5"/>
    </g>
   </g>
   <path d="m307.3 431.2 86.4-95s17.4 45 37.8 42.8c44.3-4.9 54.1-37.7 39.4-42.6-7.2-2.4-25.6 2.2-48.8 40.4-15.5 25.3-21.3 38.5-19.1 46.1 1.4 4.9 4 9.2 12.7 8.5" stroke="#00001a" stroke-width="5.625"/>
  </g>
 </g>
</svg>
