<svg height="210mm" viewBox="0 0 1052.4 744.1" width="297mm" xmlns="http://www.w3.org/2000/svg">
 <g fill="none" stroke-linecap="round">
  <g transform="translate(0 -308.26772)">
   <path d="m57.6 742.2h948.8" stroke="#969696" stroke-width="1.875"/>
   <g stroke="#000" stroke-dasharray="3.75 7.5" stroke-miterlimit="2" stroke-width=".9375">
    <path d="m58.3 844.1h948.8"/>
    <path d="m58.3 641.8h948.8"/>
    <path d="m58.3 540.6h948.8"/>
   </g>
  </g>
  <g stroke="#000" stroke-linejoin="round" stroke-width="5.625">
   <path d="m431.4 336.5c-47.1 12.3-88.9 100.1-48.9 93.8 23-3.6 65.7-43.3 65.7-43.3"/>
   <path d="m448.3 387 24 44.7"/>
   <path d="m472.3 431.7c2.3-3.1 50.1-62.5 52.2-65.2 2.7-3.5 5.3-6.7 7.7-9.6 2-2.4 3.9-4.5 5.8-6.4 16.9-17.9 26.9-18.3 33.4-5.7 6.5 12.7 4 18.2 12.3 27.2 15.9 17.3 43.8-27.8 34.5-34.3-6.3-4.4-25.9 3.2-49.4 42-26.3 43-19.7 51.9-7.9 51.8 1.4 0 3.5-.2 6-.8"/>
   <ellipse cx="277.80087" cy="731.86554" rx="25.728558" ry="20.371416" transform="matrix(.79083574 -.61202846 .61202846 .79083574 0 0)"/>
   <path d="m661.7 388.4s-84.2 39.2-94.8 42.2"/>
   <path d="m654.2 392.8c24.5-14.3 62.4-37.4 79.6-38.7 17.6.8 11.9 30.4 26.3 31.1 6.2.3 10.8-4.3 14.9-9"/>
  </g>
 </g>
</svg>
