<svg height="210mm" viewBox="0 0 1052.4 744.1" width="297mm" xmlns="http://www.w3.org/2000/svg">
 <g fill="none" stroke-linecap="round">
  <g transform="translate(0 -308.26772)">
   <path d="m57.6 742.2h948.8" stroke="#969696" stroke-width="1.875"/>
   <g stroke="#000" stroke-dasharray="3.75 7.5" stroke-miterlimit="2" stroke-width=".9375">
    <path d="m58.3 844.1h948.8"/>
    <path d="m58.3 641.8h948.8"/>
    <path d="m58.3 540.6h948.8"/>
   </g>
  </g>
  <g stroke="#000">
   <g stroke-linejoin="round">
    <g stroke-width="5.625">
     <path d="m402.5 431.5s28.7-30.5 51.4-31.4c18.1-.7 10.2 30.9 29.9 31 9.6 0 22.2-6 31.3-12.8"/>
     <path d="m305.2 431.3c11.2-23.8 37.5-41.1 61.9-43.7 30.4-3.3 45.4 10.1 35.5 43.9"/>
     <path d="m644.9 260.1-110.1 140c-6.4 7.9-13.3 13.9-19.6 18.3"/>
     <path d="m614.8 410.8c-19.4 14.1-29 17.2-35.5 19.2-55 17.3 33.8-138.4 77.9-185.1 4.7-5 11.2-10.7 18.9-11.9"/>
     <path d="m644.9 260.1-82.8 155.6"/>
     <path d="m625.4 291.2-53.8 98.9"/>
    </g>
    <path d="m567.4 429.2c-7.4-6.7-3-16.4 2.6-27.7" stroke-width="3.75"/>
    <g stroke-width="5.625">
     <path d="m653.2 250.6-35.7 61.7"/>
     <path d="m603.3 316.2c-12.9 24.9-30.1 54.1-38.9 86.4"/>
    </g>
   </g>
   <path d="m604.8 321.7-36.6 76.4" stroke-width="3.75"/>
  </g>
 </g>
</svg>
