<svg height="210mm" viewBox="0 0 1052.4 744.1" width="297mm" xmlns="http://www.w3.org/2000/svg">
 <g fill="none" stroke-linecap="round">
  <g transform="translate(0 -308.26772)">
   <path d="m57.6 742.2h948.8" stroke="#969696" stroke-width="1.875"/>
   <g stroke="#000" stroke-dasharray="3.75 7.5" stroke-miterlimit="2" stroke-width=".9375">
    <path d="m58.3 844.1h948.8"/>
    <path d="m58.3 641.8h948.8"/>
    <path d="m58.3 540.6h948.8"/>
   </g>
  </g>
  <g stroke="#000" stroke-linejoin="round" stroke-width="5.625">
   <path d="m564.9 382c31.8-4.6 55.6-45.4 81.6-45.5 19.2.7 25.6 79.4 73.9 26.9"/>
   <path d="m504.2 352.7s-96.4 77.6-113.1 94.1c-6 6-37.8 35.7-42.6 41.8-4 5.1-7.5 10.2-10.4 14.9-7.5 11.9-8.4 18.2-7.7 22.1.9 5.7 14 26.4 57.5-34.6 26.9-36.9 54.5-73.4 69.2-116.4 11.7-28.7-2.6-57.9-37.8-18.2"/>
   <path d="m504.2 352.7 81.7-64.2-42.5 71.3c-9 15.2 5 26.1 21.5 22.2"/>
  </g>
 </g>
</svg>
