<svg height="210mm" viewBox="0 0 1052.4 744.1" width="297mm" xmlns="http://www.w3.org/2000/svg">
 <g fill="none" stroke-linecap="round">
  <g transform="translate(0 -308.26772)">
   <path d="m57.6 742.2h948.8" stroke="#969696" stroke-width="1.875"/>
   <g stroke="#000" stroke-dasharray="3.75 7.5" stroke-miterlimit="2" stroke-width=".9375">
    <path d="m58.3 844.1h948.8"/>
    <path d="m58.3 641.8h948.8"/>
    <path d="m58.3 540.6h948.8"/>
   </g>
  </g>
  <g stroke="#000" stroke-linejoin="round">
   <path d="m604.7 268.1c11.7-14.9 26-32.1 45-33 17.5 0 22 12.2 19.3 25.6-.9 4.8-2.6 10.4-5.2 16.8l-66 153.4" stroke-width="5.62496"/>
   <g stroke-width="5.625">
    <path d="m597.8 430.9c15-11.9 26.7-23.7 38.4-34.5 6.5-6 11.9-9 16.3-9.4 5.1-.4 9 2.6 12.1 8.7 6.5 12.7 5.2 17.2 12.3 27.2 5.4 7.6 11.3 9 17.1 7.6 20.9-4.9 30.2-33.5 17.4-41.9-7.4-4.9-25.9 3.2-49.4 42-25.1 40.2-17.1 51.3-3.6 51.1"/>
    <path d="m394.4 431c19.7-30.4 58.5-94.5 78.6-121.4 5.9-7.9 11.3-13.3 17.2-17.2 6.4-4.2 12.1-7.2 19.4-7.4 20.5-1 21.4 15.5 13.3 26.6-26.2 34.8-45.5 50.2-39.4 63.9 2.4 5.5 9.7 8.2 18 6.8 5.2-.9 12.9-2.7 26-12.8"/>
    <path d="m736.4 437c-35.3 27.3-56.9 43.1-78.1 44.6"/>
   </g>
  </g>
 </g>
</svg>
