<svg height="210mm" viewBox="0 0 1052.4 744.1" width="297mm" xmlns="http://www.w3.org/2000/svg">
 <g fill="none" stroke-linecap="round">
  <g transform="translate(0 -308.26772)">
   <path d="m57.6 742.2h948.8" stroke="#969696" stroke-width="1.875"/>
   <g stroke="#000" stroke-dasharray="3.75 7.5" stroke-miterlimit="2" stroke-width=".9375">
    <path d="m58.3 844.1h948.8"/>
    <path d="m58.3 641.8h948.8"/>
    <path d="m58.3 540.6h948.8"/>
   </g>
  </g>
  <g stroke="#000">
   <path d="m506.1 336.7-48.6 95.3 37.3-29.2" stroke-linejoin="round" stroke-width="5.625"/>
   <path d="m414.1 552c-4.9 10.3-6.1 18.6-5 22.1.9 3 16.3 22.9 59.8-38.1 26.9-36.9 54.6-73.4 69.3-116.4 10.7-20.7 6-39.8-12.1-34.9-8.1 2.2-13.3 2.7-31.3 18.1" stroke-linejoin="round" stroke-width="5.625"/>
   <path d="m538.7 408.7c-20.5 45.9-64.8 123.2-100.9 158.2" stroke-width="8.4375"/>
   <path d="m541.8 396.6c1.4 8.4-92.8 164.8-114.9 178.5" stroke-width="5.625"/>
   <g stroke-width="3.75">
    <path d="m534.3 385.1c7 1.1 9.6 9.2 3 20.7"/>
    <path d="m434.6 566.7c-6.3 5.5-18.8 17.1-24.4 7.2"/>
   </g>
  </g>
  <g stroke-width="5.625">
   <path d="m678.6 282.4s-253.6 237.9-264.5 269.5" stroke="#001200"/>
   <path d="m506.1 336.7-161.6 196" stroke="#000"/>
  </g>
 </g>
</svg>
