<svg height="210mm" viewBox="0 0 1052.4 744.1" width="297mm" xmlns="http://www.w3.org/2000/svg">
 <g fill="none" stroke="#000" stroke-linecap="round">
  <g transform="translate(0 -308.26772)">
   <path d="m57.6 742.2h948.8" stroke-width="1.875"/>
   <g stroke-dasharray="3.75 7.5" stroke-miterlimit="2" stroke-width=".9375">
    <path d="m58.3 844.1h948.8"/>
    <path d="m58.3 641.8h948.8"/>
    <path d="m58.3 540.6h948.8"/>
   </g>
  </g>
  <g stroke-width="5.625">
   <path d="m475.3 431.7c20.8-.1 61.1-35.3 75.9-47.8" stroke-linejoin="round"/>
   <path d="m564.6 296.7c20.6-22.8 32.1-48.8 28.6-58.2-5.5-14.4-40.2 8.9-87.4 86.8-45.4 78.3-46.9 106.9-30.5 106.4" stroke-linejoin="round"/>
   <path d="m564.6 296.7-217.7 237.9"/>
   <path d="m551.2 383.9 17.5 47.8" stroke-linejoin="round"/>
   <path d="m667.6 236.1-99 195.6"/>
   <path d="m713.6 231.1c-22.4 30.2-64.3 63.7-46 5" stroke-linejoin="round"/>
  </g>
 </g>
</svg>
