<svg height="210mm" viewBox="0 0 1052.4 744.1" width="297mm" xmlns="http://www.w3.org/2000/svg">
 <g fill="none" stroke-linecap="round">
  <g transform="translate(0 -308.26772)">
   <path d="m57.6 742.2h948.8" stroke="#969696" stroke-width="1.875"/>
   <g stroke="#000" stroke-dasharray="3.75 7.5" stroke-miterlimit="2" stroke-width=".9375">
    <path d="m58.3 844.1h948.8"/>
    <path d="m58.3 641.8h948.8"/>
    <path d="m58.3 540.6h948.8"/>
   </g>
  </g>
  <g stroke="#000" stroke-linejoin="round">
   <path d="m357.9 422.3c.6.2 1.1.4 1.5.7.1.1.3.2.4.3.7.8.8 1.9 0 3.5-1.5 3.1-5.5 4.3-7.4 4.6-3.9.6-6-2.9-3.3-5.7 1.7-1.8 4.3-3.6 7.1-3.6h.6c.2 0 .5 0 .7.1.5.1 1 .3 1.5.5" stroke-width="5.625"/>
   <path d="m355.7 430.5 279.2-131.7" stroke-width="5.625"/>
   <path d="m627.4 377.3c47.1-21.9 93-113.8 38.4-93.6-5.1 1.7-20.5 9.7-30.9 15.1" stroke-width="5.419139"/>
   <path d="m627.4 377.3c-17.9.3 73.8-32.5 87.3-32.3 15.4.3 15 30.2 32.8 30.1 6.9 0 12.3-5.7 15.6-11" stroke-width="5.625"/>
  </g>
 </g>
</svg>
