<svg height="210mm" viewBox="0 0 1052.4 744.1" width="297mm" xmlns="http://www.w3.org/2000/svg">
 <g fill="none" stroke-linecap="round">
  <g transform="translate(0 -308.26772)">
   <path d="m57.6 742.2h948.8" stroke="#969696" stroke-width="1.875"/>
   <g stroke="#000" stroke-dasharray="3.75 7.5" stroke-miterlimit="2" stroke-width=".9375">
    <path d="m58.3 844.1h948.8"/>
    <path d="m58.3 641.8h948.8"/>
    <path d="m58.3 540.6h948.8"/>
   </g>
  </g>
  <g stroke-linejoin="round">
   <path d="m500.7 360.7c9.3-12.6 18-18.1 26.2-21.7 24.8-6.9 35 2.5 12.3 40.5l-29.8 52.1" stroke="#000008" stroke-width="5.625"/>
   <path d="m509.3 431.6 58.2-59" stroke="#000008" stroke-width="5.625"/>
   <g stroke="#000">
    <path d="m610.4 407.2c-13 3.5-36.7 9.9-40.2 10.9-5.2 1.4-9.2 5.1-9.2 7.7 0 3.7.8 5.8 5.8 6.3 3 .3 9.9-5.8 11.3-6.6 48.9-28 71.8-129.3 9.4-73.8-2.3 2.1-17.4 18.4-20 20.9" stroke-width="5.419139"/>
    <g stroke-width="5.625">
     <path d="m610.4 407.2c13.3-3.1 22-5.7 27.6-5.9 17.5-.5 15.5 47.6 45.2 22.9"/>
     <path d="m387.8 390.6c-13.8 47.4 51.7 57.5 88.5 6.5 9.7-13.3 24.4-36.4 24.4-36.4"/>
    </g>
   </g>
  </g>
 </g>
</svg>
