<svg height="210mm" viewBox="0 0 1052.4 744.1" width="297mm" xmlns="http://www.w3.org/2000/svg">
 <g fill="none" stroke-linecap="round">
  <g transform="translate(0 -308.26772)">
   <path d="m57.6 742.2h948.8" stroke="#969696" stroke-width="1.875"/>
   <g stroke="#000" stroke-dasharray="3.75 7.5" stroke-miterlimit="2" stroke-width=".9375">
    <path d="m58.3 844.1h948.8"/>
    <path d="m58.3 641.8h948.8"/>
    <path d="m58.3 540.6h948.8"/>
   </g>
  </g>
  <g stroke-linejoin="round">
   <g stroke="#000">
    <g stroke-width="5.625">
     <path d="m537.5 431.5c21.4.7 71-40.2 71-40.2"/>
     <path d="m719.4 319.8c12.6-15.8 22.8-23 32-25.3 8.1-2 15.3-2.1 21-.6 6.2 1.6 11.2 6.4 8.7 18.1-6.4 14.1-15.9 21.3-33.7 32-15.8 12.8-43.5 22.6-38.9 53.9 6.3 42.7-45.5 80.6-63.9 91.9"/>
     <path d="m719.4 319.8-61.1 74.3"/>
    </g>
    <path d="m644.8 489.8c5.4-4.1 14.3-11.1 23.5-20 11.4-10.9 23.5-24.5 30.4-38.6 5.6-11.3 10.6-23 9.4-38.3" stroke-width="4.6875"/>
    <path d="m648.9 487.4c25.2-12.8 45.1-29.5 57.3-53.5 5.6-11.3 6-31.1 2.1-46.7" stroke-width="4.6875"/>
    <path d="m658.3 394.1c-24.3 28.8-68.1 55.9-49.8-2.8" stroke-width="5.625"/>
   </g>
   <g stroke-width="5.625">
    <path d="m274.9 430.4c18.5-4.3 237.8-95.5 237.8-95.5 1.8 8.4 6.1 49.3 29.2 47.1 57.1-5.6 61.6-47.4 49-47.9-7.7-.3-25.9 3.2-49.4 42-28.2 46.1-20.9 56.4-4.1 55.5" stroke="#00001a"/>
    <path d="m293.7 335.9-42.4 73.1c-9.3 16 4.2 25.4 23.6 21.3" stroke="#000"/>
   </g>
  </g>
 </g>
</svg>
