<svg height="210mm" viewBox="0 0 1052.4 744.1" width="297mm" xmlns="http://www.w3.org/2000/svg">
 <g fill="none" stroke-linecap="round">
  <g transform="translate(0 -308.26772)">
   <path d="m57.6 742.2h948.8" stroke="#969696" stroke-width="1.875"/>
   <g stroke="#000" stroke-dasharray="3.75 7.5" stroke-miterlimit="2" stroke-width=".9375">
    <path d="m58.3 844.1h948.8"/>
    <path d="m58.3 641.8h948.8"/>
    <path d="m58.3 540.6h948.8"/>
   </g>
  </g>
  <g stroke-linejoin="round" stroke-width="5.625">
   <g stroke="#000">
    <ellipse cx="232.39587" cy="696.77386" rx="25.728558" ry="20.371416" transform="matrix(.79083574 -.61202846 .61202846 .79083574 0 0)"/>
    <path d="m713.6 375c-17.5 11.2-39.6 29.2-45.3 35-25.9 26.2-48.6 55.7-45.7 63.4 1.1 2.9 22.5 22.8 62-40.9l83.3-151.6-167 109.7"/>
    <path d="m713.6 375 56.8-39.7"/>
    <path d="m768.6 479.2c28.5-22.6 35.5-31.4 39-55.7 1.8-12.5-2.6-28-12.8-37.6-5-4.7-11-8.4-17-11.7-20.7-7.7-22.6-23.4-7.4-38.9"/>
    <path d="m274.2 394.5 159.4-199c11.2-10 20.1-9.6 25.5-8.3 19.1 4.5 11.2 19.6-4.7 41-15 20.3-24.5 36.8-43.1 61.9-26.3 35.4-55 68-47.8 86.2 2.3 4.4 5.3 7 8.8 8.3 1.9.6 3.9.9 5.8.9 9.4-.2 28.7-2.9 31.9-4.1"/>
    <ellipse cx="-21.205404" cy="500.36331" rx="25.728558" ry="20.371416" transform="matrix(.79083574 -.61202846 .61202846 .79083574 0 0)"/>
    <path d="m269.2 336.3c-18.2 2.7-35.9 30-39.1 55.8s-21 36.5-32.2 40.1c-8.2 1.2-9.7-4.3-7.6-9.9 4.8-10.1 14.9-13.3 24.1-16.3"/>
    <path d="m214.2 405.9 75.2-19.5"/>
   </g>
   <g stroke="#00000a">
    <path d="m592.2 334.6-55.8 97.2"/>
    <path d="m592.2 334.6h-10.6"/>
    <path d="m586.7 334.6-55.8 97.2"/>
    <path d="m536.4 431.9h-10.6"/>
    <path d="m393.6 382.1c9 4.7 59.2 1.6 59.2 1.6l23.4 48.9 105.5-97.9-55.8 97.2 11-.1"/>
   </g>
   <ellipse cx="100.54269" cy="533.53595" rx="25.728558" ry="20.371416" stroke="#000" transform="matrix(.79083574 -.61202846 .61202846 .79083574 0 0)"/>
   <ellipse cx="178.26834" cy="636.53113" rx="25.728558" ry="20.371416" stroke="#000" transform="matrix(.79083574 -.61202846 .61202846 .79083574 0 0)"/>
   <path d="m533.5 416.7 67.4-26.1" stroke="#00000a"/>
  </g>
 </g>
</svg>
