<svg height="210mm" viewBox="0 0 1052.4 744.1" width="297mm" xmlns="http://www.w3.org/2000/svg">
 <g fill="none" stroke-linecap="round">
  <g transform="translate(0 -308.26772)">
   <path d="m57.6 742.2h948.8" stroke="#969696" stroke-width="1.875"/>
   <g stroke="#000" stroke-dasharray="3.75 7.5" stroke-miterlimit="2" stroke-width=".9375">
    <path d="m58.3 844.1h948.8"/>
    <path d="m58.3 641.8h948.8"/>
    <path d="m58.3 540.6h948.8"/>
   </g>
  </g>
  <g stroke="#000" stroke-width="5.625">
   <path d="m519.1 379.8c22.5-8.9 52.2-48.9 60.4-86.1s38.8-98.1 73.8-111.6" stroke-linejoin="round" stroke-opacity=".987623"/>
   <path d="m426.5 423c.5.1 1 .2 1.3.3.1.1.2.1.3.2.6.5.9 1.4.5 2.7-.7 2.7-3.7 4.2-5.2 4.8-3 1.1-5.2-1.4-3.5-4 1.1-1.6 2.9-3.5 5.1-3.9.1 0 .3-.1.4-.1h.5c.4 0 .8.1 1.3.2" stroke-linejoin="round"/>
   <path d="m628.1 199.9c-11.9 8.1-180.2 226.8-202.8 231.5"/>
   <g stroke-linejoin="round">
    <path d="m528.9 369.8c28.7 2 52.9-43.1 82.2-74 16.9-17.9 26.9-18.3 33.4-5.7 6.5 12.7 4 18.2 12.3 27.2 15.9 17.3 43.8-27.8 34.5-34.3-6.3-4.4-25.9 3.2-49.4 42-35.3 57.8-14.2 56.8 9.8 52.2 3.3-.6 8.8-2.2 15.2-4.4"/>
    <path d="m619 288.2c9.6-6.8 18 4.1 21.6 15.8 3.2 10.5 8.7 18 23.9 17.1"/>
    <path d="m630.9 284.5c13.6.7 15.1 28.3 22.1 30"/>
    <path d="m533.6 361.2c.5.1 1 .2 1.3.3.1.1.2.1.3.2.6.5.9 1.4.5 2.7-.7 2.7-3.7 4.2-5.2 4.8-3 1.1-5.2-1.4-3.5-4 1.1-1.6 2.9-3.5 5.1-3.9.1 0 .3-.1.4-.1h.5c.4 0 .8.1 1.3.2"/>
   </g>
  </g>
 </g>
</svg>
