<svg height="210mm" viewBox="0 0 1052.4 744.1" width="297mm" xmlns="http://www.w3.org/2000/svg">
 <g fill="none" stroke-linecap="round">
  <g transform="translate(0 -308.26772)">
   <path d="m57.6 742.2h948.8" stroke="#969696" stroke-width="1.875"/>
   <g stroke="#000" stroke-dasharray="3.75 7.5" stroke-miterlimit="2" stroke-width=".9375">
    <path d="m58.3 844.1h948.8"/>
    <path d="m58.3 641.8h948.8"/>
    <path d="m58.3 540.6h948.8"/>
   </g>
  </g>
  <g stroke="#000">
   <g stroke-linejoin="round">
    <g stroke-width="5.625">
     <path d="m663.9 235.4c-13.9 25.6-28.8 50.5-43.4 75.7-11.9 20.5 10 23.2 29 16.4 3.5-.9 8.3-3.2 14.4-6.7"/>
     <path d="m663.9 320.8c12.9-7.6 41.5-24.9 55.9-23.6 19.5 3.6 18.2 52.4 51.8 24.4"/>
     <path d="m699.1 302.2c6.1-2.7 21.1-3 30.1 16.6 6.4 13.9 15.8 10.7 23.3 11.2"/>
    </g>
    <path d="m715.7 299.5c7.6 6.7 7.2.5 24 26.2" stroke-width="6.380773"/>
    <g stroke-width="5.625">
     <path d="m359 392.6c-1.2.5-7.1 5.1-14.4 10.8-12.7 10.1-29.4 23.6-31.5 24.8-3 1.7-18.8 15.6-18.8 15.6-34.9 27.8-66.5 73.3-60.4 87.5 5.7 13.2 69.5-28.4 95.8-138.9 17.5-80 53.4-142.9 90.7-155.8"/>
     <ellipse cx="207.44875" cy="546.59753" rx="62.130169" ry="44.633743" transform="matrix(.88109295 -.47294313 .47294313 .88109295 0 0)"/>
     <path d="m359 392.6 46.4-38.6"/>
    </g>
   </g>
   <path d="m498 361.5c-13.8 27.9-38.1 52.4-66.8 70.7" stroke-width="5.385754"/>
   <path d="m499.2 370.5c-15.9 21.3-33.1 41.5-54 58.5" stroke-width="5.385754"/>
   <path d="m498.2 377c-14.3 21.6-19.7 29.6-41.7 46.5" stroke-width="7.181006"/>
   <path d="m446.9 420.1c-10.1 9.6-24.3 12.2-31.1 10.7" stroke-width="3.590503"/>
   <path d="m489.9 347.7c2.2 2.5 8.7 12.2 1.3 24.5" stroke-width="3.590503"/>
   <g stroke-linejoin="round" stroke-width="5.625">
    <path d="m663.9 235.4-65.5 74.1"/>
    <path d="m421.7 343c21.8-11.2 84.5-53.6 107.3-52.3 18.9.9 22.4 38.9 38.4 39.7 11 .6 20.5-8.3 31-20.9"/>
   </g>
  </g>
 </g>
</svg>
