<svg height="210mm" viewBox="0 0 1052.4 744.1" width="297mm" xmlns="http://www.w3.org/2000/svg">
 <g fill="none" stroke-linecap="round">
  <g transform="translate(0 -308.26772)">
   <path d="m57.6 742.2h948.8" stroke="#969696" stroke-width="1.875"/>
   <g stroke="#000" stroke-dasharray="3.75 7.5" stroke-miterlimit="2" stroke-width=".9375">
    <path d="m58.3 844.1h948.8"/>
    <path d="m58.3 641.8h948.8"/>
    <path d="m58.3 540.6h948.8"/>
   </g>
  </g>
  <g stroke="#000">
   <g stroke-linejoin="round">
    <path d="m656.1 309.9-44.3 70.8" stroke-width="5.625"/>
    <path d="m638.9 341.5-23.4 38.7" stroke-width="3.75"/>
    <g stroke-width="5.625">
     <path d="m611.8 380.7 7.9.2"/>
     <path d="m533.7 381.1c45 1 72.9-100.6 116.1-95.1 1.7.3 3.2.7 4.6 1.3 9.1 3.9 10.6 14.5-4.2 40.7l-29.6 52.7"/>
    </g>
   </g>
   <path d="m654.6 288.5c6.1 2.8 6.9 11.6-1.9 25.1" stroke-width="3.75"/>
   <g stroke-linejoin="round">
    <g stroke-width="5.625">
     <path d="m620.7 380.8s68.4-33.5 85.6-30.3c13.4 2.5 14.4 31.4 29.2 30.6 4.2-.2 9.9-2.4 16.4-9.1"/>
     <path d="m580.4 285.7c-45.6 11.9-86.4 95.8-46.7 95.4"/>
     <path d="m340.1 431.3c26.2-8.3 64.5-91.2 99.2-127.6 9.8-10.5 25.1-21.1 37.3-16.2 4.5 1.9 6.4 7.1 6.2 11.3-.3 6.8-3.7 16.8-10.6 30.8l-25.6 52.3"/>
     <ellipse cx="539.76611" cy="76.759415" rx="4.609393" ry="6.862874" transform="matrix(.72846687 .68508103 -.68508103 .72846687 0 0)"/>
    </g>
    <path d="m446.6 381.8s101.9-81.4 114.7-87.1" stroke-width="5.624999"/>
   </g>
  </g>
 </g>
</svg>
