<svg height="210mm" viewBox="0 0 1052.4 744.1" width="297mm" xmlns="http://www.w3.org/2000/svg">
 <g fill="none" stroke-linecap="round">
  <g transform="translate(0 -308.26772)">
   <path d="m57.6 742.2h948.8" stroke="#969696" stroke-width="1.875"/>
   <g stroke="#000" stroke-dasharray="3.75 7.5" stroke-miterlimit="2" stroke-width=".9375">
    <path d="m58.3 844.1h948.8"/>
    <path d="m58.3 641.8h948.8"/>
    <path d="m58.3 540.6h948.8"/>
   </g>
  </g>
  <g stroke="#000">
   <g stroke-linejoin="round" stroke-width="5.625">
    <path d="m429.3 353.1c41.3-39.5 62.3-6.4 21.6 20.5-11 7.2-21.9 17.5-30.8 32.5-15.2 25.7-6.9 53.6-26 84.5-3.1 4.4-5 8.1-8.1 12.1-4.3 5.6-7.9 10.1-14.4 16-15.1 13.6-23.6 15.7-29.9 13-13.3-7.5 10.3-40.7 34.1-66.5 14.1-15.4 31.8-28.7 48.2-32.1 32.5-6.6 56.1-2.4 68.3 9.5 9.1 8.9 12.2 27.1 7.7 43.5"/>
    <ellipse cx="298.73544" cy="814.42944" rx="28.309935" ry="22.415304" transform="matrix(.79083574 -.61202846 .61202846 .79083574 0 0)"/>
    <ellipse cx="712.26398" cy="-10.572752" rx="4.609393" ry="6.862874" transform="matrix(.72846687 .68508103 -.68508103 .72846687 0 0)"/>
    <path d="m733.7 437.2s-117.6 30.6-180.9 44.6c-13.2 2.9-22.1 5.1-28.2 4.5"/>
   </g>
   <path d="m528.2 485c-9.8 4.2-28.1 1-28.1 1" stroke-width="5.625001"/>
  </g>
 </g>
</svg>
