<svg height="210mm" viewBox="0 0 1052.4 744.1" width="297mm" xmlns="http://www.w3.org/2000/svg">
 <g fill="none" stroke-linecap="round">
  <g transform="translate(0 -308.26772)">
   <path d="m57.6 742.2h948.8" stroke="#969696" stroke-width="1.875"/>
   <g stroke="#000" stroke-dasharray="3.75 7.5" stroke-miterlimit="2" stroke-width=".9375">
    <path d="m58.3 844.1h948.8"/>
    <path d="m58.3 641.8h948.8"/>
    <path d="m58.3 540.6h948.8"/>
   </g>
  </g>
  <g stroke-linejoin="round" stroke-width="5.625">
   <g stroke="#000">
    <path d="m538.8 487.8c70.2-72.7 94.8-88.6 125.2-99 32.9-11.3 57 3.6 44.9 42.3"/>
    <path d="m182.7 411.2 35.1-30.5 22.9 51.4"/>
    <path d="m197.6 335.1c-57.9 15.1-107 146.7-14.9 76.1"/>
    <path d="m240.8 432.1c49.3-62.9 100.8-48.2 86.7.3"/>
   </g>
   <path d="m407.4 430.2c-26.1 8-52.9 21.4-74.4 39.3-25.9 26.2-39.9 52.6-36.9 60.3 1.1 2.9 17.7 21.8 57.3-41.8l88-150.7-113.9 95.1" stroke="#060000"/>
  </g>
  <g stroke="#000">
   <g stroke-linejoin="round" stroke-width="5.625">
    <path d="m407.4 430.2 157.4-37.3c2.4-1-2.2.4 0 0 15.8-3 25.2 9.3 5.2 42.7l-31.2 52.3"/>
    <path d="m708.9 431.1c-.4 1.2 60.2-39 60.2-39"/>
    <ellipse cx="368.59747" cy="801.29858" rx="25.728558" ry="20.371416" transform="matrix(.79083574 -.61202846 .61202846 .79083574 0 0)"/>
   </g>
   <path d="m804.4 397.1c.3 9.3-.4 14.6-6.3 21.9-3.6 4.5-8.8 8.3-16 11.1" stroke-width="5.624961"/>
   <path d="m800.8 391.8c2 6.9 1.8 6.4.7 11.6-1.6 7.6-6.1 13.5-12.5 18.7-3.2 2.6-6.9 5-10.9 7.3" stroke-width="6.599955"/>
   <path d="m783.7 423.7c-5.3 3.7-10.3 5.7-16.3 3.5" stroke-width="2.849979"/>
   <path d="m790 387.1c7.4 1.6 9 4 10.4 10.8" stroke-width="2.849979"/>
   <g stroke-width="5.625">
    <path d="m813.5 321.6-47.5 72.4"/>
    <path d="m813.5 321.6s38.3-55.7 41-59.4c9-12.3 18.4-28.1 34.4-27.3 17.9.9 16 70.9 53.9 25.2" stroke-linejoin="round"/>
   </g>
  </g>
 </g>
</svg>
