<svg height="210mm" viewBox="0 0 1052.4 744.1" width="297mm" xmlns="http://www.w3.org/2000/svg">
 <g fill="none" stroke-linecap="round">
  <g transform="translate(0 -308.26772)">
   <path d="m57.6 742.2h948.8" stroke="#969696" stroke-width="1.875"/>
   <g stroke="#000" stroke-dasharray="3.75 7.5" stroke-miterlimit="2" stroke-width=".9375">
    <path d="m58.3 844.1h948.8"/>
    <path d="m58.3 641.8h948.8"/>
    <path d="m58.3 540.6h948.8"/>
   </g>
  </g>
  <g stroke="#000" stroke-linejoin="round">
   <path d="m615.1 360.2c-64.2 30.4-228.7 65.5-241.5 68.7-8.1 2-18.7 2.6-25 .6-2.8-1-5-2.6-6.6-4.7-3.7-5.2-3.1-13.5 5.1-23.4 24.4-29.4 45.3-42.8 38-58.3-2.6-5.6-9-8.2-16.3-7.4-11.8 1.4-20.1 7.7-27.8 15" stroke-width="5.624999"/>
   <ellipse cx="691.59625" cy="-163.85252" rx="4.609393" ry="6.862874" stroke-width="5.625" transform="matrix(.72846687 .68508103 -.68508103 .72846687 0 0)"/>
   <path d="m612.4 360.6c23.6 12.4 70-23.9 101.2-24.7 19.9.2 16.4 30.7 34.5 30.7 8.7 0 14.1-5.3 19.4-11.5" stroke-width="5.625001"/>
  </g>
 </g>
</svg>
