<svg height="210mm" viewBox="0 0 1052.4 744.1" width="297mm" xmlns="http://www.w3.org/2000/svg">
 <g fill="none" stroke-linecap="round">
  <g transform="translate(0 -308.26772)">
   <path d="m57.6 742.2h948.8" stroke="#969696" stroke-width="1.875"/>
   <g stroke="#000" stroke-dasharray="3.75 7.5" stroke-miterlimit="2" stroke-width=".9375">
    <path d="m58.3 844.1h948.8"/>
    <path d="m58.3 641.8h948.8"/>
    <path d="m58.3 540.6h948.8"/>
   </g>
  </g>
  <g stroke="#000">
   <path d="m610 354.5c-41.8 41.1-75.3 77.4-112 77.3-62.8.5 24.3-139.6 68.4-186.3 4.7-5 11.2-10.7 18.9-11.9" stroke-linejoin="round" stroke-width="5.625"/>
   <ellipse cx="389.35504" cy="643.21802" rx="62.130169" ry="44.633743" stroke-linejoin="round" stroke-width="5.625" transform="matrix(.88109295 -.47294313 .47294313 .88109295 0 0)"/>
   <path d="m704 360.6c-13.8 27.9-38.1 52.4-66.8 70.7" stroke-width="5.385754"/>
   <path d="m705.2 369.6c-15.9 21.3-33.1 41.5-54 58.5" stroke-width="5.385754"/>
   <path d="m704.2 376.1c-14.3 21.6-19.7 29.6-41.7 46.5" stroke-width="7.181006"/>
   <path d="m652.8 419.2c-10.1 9.6-24.3 12.2-31.1 10.7" stroke-width="3.590503"/>
   <path d="m695.9 346.8c2.2 2.5 8.7 12.2 1.3 24.5" stroke-width="3.590503"/>
   <g stroke-width="5.625">
    <g stroke-linejoin="round">
     <path d="m408.6 423.8 37.6-27.8-66.9 138.5"/>
     <path d="m301.2 431.4s44.6-32.4 61.8-29.2 16 46.2 45.6 21.5"/>
     <path d="m344.7 406.3c5.4-2.4 18.6-2.2 26.5 15 5.6 12.2 13.9 9.5 20.5 9.9"/>
     <path d="m359.3 404.4c6.7 5.9 6.3.5 21.2 23.1"/>
    </g>
    <path d="m733.8 133.4-136.5 234.4"/>
   </g>
  </g>
 </g>
</svg>
