<svg height="210mm" viewBox="0 0 1052.4 744.1" width="297mm" xmlns="http://www.w3.org/2000/svg">
 <g fill="none" stroke-linecap="round">
  <g transform="translate(0 -308.26772)">
   <path d="m57.6 742.2h948.8" stroke="#969696" stroke-width="1.875"/>
   <g stroke="#000" stroke-dasharray="3.75 7.5" stroke-miterlimit="2" stroke-width=".9375">
    <path d="m58.3 844.1h948.8"/>
    <path d="m58.3 641.8h948.8"/>
    <path d="m58.3 540.6h948.8"/>
   </g>
  </g>
  <g stroke="#000" stroke-width="5.625">
   <path d="m488.3 385.2 34.8 46" stroke-linejoin="round"/>
   <path d="m488.3 385.2-81.2 149.1"/>
   <g stroke-linejoin="round">
    <path d="m523.1 431.2c15.6-14.2 56-44 65.7-36.5 6.1 4.7 8 33.9 20.2 36.1 12.6 2.3 20.8-4.9 31.4-14.2"/>
    <path d="m577 394.6c11.6-4.7 13.4 6.8 14.9 23.4 1 10.8 7.8 13.7 20.1 13.3"/>
    <path d="m577 394.6c5.4-2.4 19-3.6 22.7 15 2.6 13.3 5.7 21.2 12.3 21.6"/>
    <path d="m589.1 397.3c6.8 12.3 1 30.9 15.5 31.8"/>
   </g>
  </g>
 </g>
</svg>
