<svg height="210mm" viewBox="0 0 1052.4 744.1" width="297mm" xmlns="http://www.w3.org/2000/svg">
 <g fill="none" stroke-linecap="round">
  <g transform="translate(0 -308.26772)">
   <path d="m57.6 742.2h948.8" stroke="#969696" stroke-width="1.875"/>
   <g stroke="#000" stroke-dasharray="3.75 7.5" stroke-miterlimit="2" stroke-width=".9375">
    <path d="m58.3 844.1h948.8"/>
    <path d="m58.3 641.8h948.8"/>
    <path d="m58.3 540.6h948.8"/>
   </g>
  </g>
  <g stroke="#000" stroke-linejoin="round" stroke-width="5.625">
   <path d="m402.5 430.8c4.5-.1 7.4-1 12-2.8"/>
   <path d="m406.1 422.4c.6.2 1.1.4 1.5.7l.3.3c.6.7.7 1.8 0 3.3-1.4 2.9-5.2 4-7 4.3-3.7.6-5.7-2.7-3.1-5.4 1.6-1.7 4.1-3.4 6.7-3.4h.5c.2 0 .4 0 .6.1.5.1 1 .2 1.4.5"/>
   <path d="m414.5 428c81.9-46.3 313.4-193 313.4-193"/>
   <path d="m723.4 385.2c26.6-14.3 43.4-41.3 41-52.4-10-44.7-64.2-45.2-36.4-97.8"/>
   <path d="m292.7 431.6s44.6-32.4 61.8-29.2c12.3 2.3 15.2 24.7 26.5 28.6 2.2.8 15.4 1.5 19.1.3"/>
   <path d="m336.3 406.4c5.4-2.4 18.6-2.2 26.5 15 5.6 12.2 13.9 9.5 20.5 9.9"/>
   <path d="m350.9 404.5c6.7 5.9 6.3.5 21.2 23.1"/>
  </g>
 </g>
</svg>
