<svg height="210mm" viewBox="0 0 1052.4 744.1" width="297mm" xmlns="http://www.w3.org/2000/svg">
 <g fill="none" stroke-linecap="round">
  <g transform="translate(0 -308.26772)">
   <path d="m57.6 742.2h948.8" stroke="#969696" stroke-width="1.875"/>
   <g stroke="#000" stroke-dasharray="3.75 7.5" stroke-miterlimit="2" stroke-width=".9375">
    <path d="m58.3 844.1h948.8"/>
    <path d="m58.3 641.8h948.8"/>
    <path d="m58.3 540.6h948.8"/>
   </g>
  </g>
  <g stroke="#000" stroke-linejoin="round" stroke-width="5.625">
   <path d="m540.2 431.2c8.1-11.2 19.3-24.3 34.3-24.9 14.9-.5 16 24.5 30.4 25.3 16.1.9 38.4-22.4 58.9-39.4"/>
   <path d="m426 431.6c12.8-13.9 30.7-38.1 42.6-40.2 5.5-.9 9.7 2.2 12.9 8.6 6.5 12.7 4 18.2 12.3 27.2 15.9 17.3 43.8-27.8 34.5-34.3-6.3-4.4-25.9 3.2-49.4 42-19.6 32.1-22.8 46-17.3 50.8 2.6 2.2 7.2 2.7 12.8 1.6 22.8-4.4 49.5-29.7 65.9-55.9"/>
  </g>
 </g>
</svg>
