<svg height="210mm" viewBox="0 0 1052.4 744.1" width="297mm" xmlns="http://www.w3.org/2000/svg">
 <g fill="none" stroke-linecap="round">
  <g transform="translate(0 -308.26772)">
   <path d="m57.6 742.2h948.8" stroke="#969696" stroke-width="1.875"/>
   <g stroke="#000" stroke-dasharray="3.75 7.5" stroke-miterlimit="2" stroke-width=".9375">
    <path d="m58.3 844.1h948.8"/>
    <path d="m58.3 641.8h948.8"/>
    <path d="m58.3 540.6h948.8"/>
   </g>
  </g>
  <g stroke-linejoin="round" stroke-width="5.625">
   <path d="m494.6 375.2c-29.7 23-116.5 99.7-124.8 108-25.9 26.2-33.9 38.2-31 45.9 1.1 2.9 17.7 21.8 57.3-41.8l84.3-150.7" stroke="#060000"/>
   <g stroke="#000">
    <path d="m1560.4-79.4 23.3 51.1"/>
    <path d="m1583.7-28.3s42.8-62.6 46.1-67c10.7-14.5 25.2-33.3 40.5-32.2 20.5 1.5 15.8 73.8 57.3 27.7"/>
    <path d="m1110.7-366.1c10.6-12.1 23.1-29.4 40-30.3 16-.6 21.6 31 32.6 30.7 7.2-.2 12.4-7.6 16.7-13"/>
    <path d="m494.6 375.2c11-8.1 43.7-39.4 58.4-38.9 13.6.4 17.9 41.6 33.6 39.9 8.2-.9 27.7-15.3 35.7-20.7"/>
    <path d="m622.2 355.6c2.9-1.9 5.7-3.7 8.4-5.3 1.6-.9 3.2-1.8 4.7-2.7 42.1-22.8 68.3-9.9 57.8 29.8"/>
   </g>
  </g>
 </g>
</svg>
