<svg height="210mm" viewBox="0 0 1052.4 744.1" width="297mm" xmlns="http://www.w3.org/2000/svg">
 <g fill="none" stroke-linecap="round">
  <g transform="translate(0 -308.26772)">
   <path d="m57.6 742.2h948.8" stroke="#969696" stroke-width="1.875"/>
   <g stroke="#000" stroke-dasharray="3.75 7.5" stroke-miterlimit="2" stroke-width=".9375">
    <path d="m58.3 844.1h948.8"/>
    <path d="m58.3 641.8h948.8"/>
    <path d="m58.3 540.6h948.8"/>
   </g>
  </g>
  <g stroke="#000">
   <g stroke-width="5.625">
    <path d="m572.4 355.9c3-4.3 32.6-45.1 40.6-53.2 21.6-21.6 60.9-14.6 37.5 14.4-27.4 33.8-45.5 50.2-39.4 63.9 2.6 5.8 10.5 7.2 19.4 5 5.7-1.4 19.4-6.8 37.1-21.1" stroke-linejoin="round"/>
    <path d="m651.4 294.3c14.5 10.1 4.3 27.8-12.4 44.2-14.4 14-23.4 26.4-29.5 38.7"/>
    <path d="m651.4 294.3c.8-1.1 3.9 6.1.7 14.2-3.2 8.4-12.8 17.8-18.3 22.9-10.8 10.1-30.6 29-24.3 45.7"/>
   </g>
   <g stroke-width="2.8125">
    <path d="m645.1 291.4c6 .9 6.5 7.7 6.8 12.2"/>
    <path d="m614.6 369.8c-2.7 4.9-3.8 12 2.3 14.5"/>
    <path d="m606.9 371.2c-.1 5.7 2.9 11.5 4.9 13.1"/>
   </g>
   <g stroke-width="5.625">
    <g stroke-linejoin="round">
     <path d="m549.5 387.2 22.9-31.3"/>
     <path d="m667.5 364.8 33-28.8"/>
     <path d="m768.1 363.7c27.3-28.2 115.9-100.2 130.5-111.5 13.1-10.1 25.8-17.1 36.5-17.2 9.8 1.5 14.8 12.6 6.5 27.9-20.7 38.3-45.5 50.2-39.4 63.9 4.2 9.5 21.2 7.3 36.5-3.7 3.5-2.5 11.3-8 17.3-14"/>
     <path d="m856.2 242.1c-55.8 41.5-147.2 105.4-157.4 120.5"/>
     <path d="m768.1 363.7c-30.2 31.6-35.1 56-29.6 65.9 2.9 5.3 34.7 12.4 62.3-63.4 15.8-47.4 16.5-113.3 70.8-131.6"/>
    </g>
    <path d="m850.5 246.1c-27.4 24.6-29.1 58.7-39.9 100.9-7.5 29.4-23.1 69.4-55.3 83.9"/>
    <path d="m840.7 256.9c-22.2 34.7-16.4 49.6-26 88-10 39.9-19.2 60.3-50.1 80.6"/>
    <g stroke-linejoin="round">
     <path d="m490.9 344.5c8-2.7 18.6-7.1 29.7-7.9 21.3-2.3 36.4 19.4 28.8 50.7"/>
     <path d="m700.5 336 24.3 18.5"/>
     <path d="m724.8 354.4c1.6.9 3.1 2 4.2 3.5 1.3 1.7 2.2 3.7 2.5 5.8.4 2.5.2 5.3-.7 7.9-.7 2.1-1.8 4.3-3.3 6.2-1.3 1.7-2.8 3.3-4.7 4.7-1.8 1.4-3.7 2.5-5.7 3.3-1.3.5-2.6.9-3.9 1.2-1.8.4-3.6.5-5.3.4-2.3-.1-4.4-.7-6.3-1.7-1.6-.9-3.1-2-4.2-3.5-2.4-3.2-3.2-7.2-2.5-11.2.5-2.9 1.8-5.9 3.8-8.5"/>
    </g>
   </g>
  </g>
  <path d="m490.9 344.5s-272.8 92-284.8 96.8c-10.2 4.1-20.2 9.6-29.3 15.8-13.1 9-24.4 19.4-32.1 29.4-16.8 21.9-18.4 41.7 6.1 46.3 0 0 31.7 6.1 62.3-46.2l89.2-152.4" stroke="#060000" stroke-linejoin="round" stroke-width="5.625"/>
 </g>
</svg>
