<svg height="210mm" viewBox="0 0 1052.4 744.1" width="297mm" xmlns="http://www.w3.org/2000/svg">
 <g fill="none" stroke-linecap="round">
  <g transform="translate(0 -308.26772)">
   <path d="m57.6 742.2h948.8" stroke="#969696" stroke-width="1.875"/>
   <g stroke="#000" stroke-dasharray="3.75 7.5" stroke-miterlimit="2" stroke-width=".9375">
    <path d="m58.3 844.1h948.8"/>
    <path d="m58.3 641.8h948.8"/>
    <path d="m58.3 540.6h948.8"/>
   </g>
  </g>
  <g stroke="#000" stroke-linejoin="round" stroke-width="5.625">
   <path d="m404.4 345c24-19.4 61.6-14.8 37.9 14.5-27.7 34.2-46 50.8-39.9 64.6 2.2 5.1 9.3 7.5 17.1 6.7 7-.7 20.5-4.4 35.7-16.9"/>
   <path d="m455.2 413.9c9.7-8.9 19.6-13.3 32.3-13.7 17.8-.5 25.4 31.1 37.6 31 8-.1 13.7-6.1 19.6-11.9"/>
   <path d="m544.6 419.2 75.1-83.3c.8-.9-25.9 49.6-25.9 49.6"/>
   <path d="m626.7 338.9-25.3 46.6"/>
   <path d="m605.8 385.3-12 .2"/>
   <path d="m633.6 335.8-27.7 49.5"/>
   <path d="m633.6 335.8-14.1-.1"/>
   <path d="m624.8 337-25.3 46.6"/>
   <ellipse cx="317.26035" cy="698.73193" rx="25.728558" ry="20.371416" transform="matrix(.79083574 -.61202846 .61202846 .79083574 0 0)"/>
   <path d="m667.8 340.9-62 44.4"/>
  </g>
 </g>
</svg>
