<svg height="210mm" viewBox="0 0 1052.4 744.1" width="297mm" xmlns="http://www.w3.org/2000/svg">
 <g fill="none" stroke-linecap="round">
  <g transform="translate(0 -308.26772)">
   <path d="m57.6 742.2h948.8" stroke="#969696" stroke-width="1.875"/>
   <g stroke="#000" stroke-dasharray="3.75 7.5" stroke-miterlimit="2" stroke-width=".9375">
    <path d="m58.3 844.1h948.8"/>
    <path d="m58.3 641.8h948.8"/>
    <path d="m58.3 540.6h948.8"/>
   </g>
  </g>
  <g stroke="#000" stroke-width="5.625">
   <path d="m379.5 431.7c71.9-63.3 154.5-126.7 170.7-149.3 13.4-18.6 20.3-36.8 17.4-44.4-5.5-14.4-40.3 8.9-87.4 86.8-62.5 108-41.7 121.3-5.5 94.5 3.3-2.5 6.8-5.3 10.4-8.4.8-.7 20.8-18.2 29-26.4" stroke-linejoin="round"/>
   <path d="m633.6 430.8c5.4-3.3 11.7-10.5 6.5-17.1-2.6-3.3-4-4.5-11.9-4.4l-98.8.6c-6.7.1-14.3.2-15.9-.7-10.5-5.8-7.4-13.7.5-24.6" stroke-linejoin="round"/>
   <path d="m750 234.7-108.8 188.2"/>
   <path d="m358.4 385.9 21.1 45.9" stroke-linejoin="round"/>
  </g>
 </g>
</svg>
