<svg height="210mm" viewBox="0 0 1052.4 744.1" width="297mm" xmlns="http://www.w3.org/2000/svg">
 <g fill="none" stroke-linecap="round">
  <g transform="translate(0 -308.26772)">
   <path d="m57.6 742.2h948.8" stroke="#969696" stroke-width="1.875"/>
   <g stroke="#000" stroke-dasharray="3.75 7.5" stroke-miterlimit="2" stroke-width=".9375">
    <path d="m58.3 844.1h948.8"/>
    <path d="m58.3 641.8h948.8"/>
    <path d="m58.3 540.6h948.8"/>
   </g>
  </g>
  <g stroke="#000" stroke-width="5.625">
   <g stroke-linejoin="round">
    <path d="m661.4 376.1c15.6-8 112-90.5 112-90.5l-56.7 94.9"/>
    <path d="m702.1 289.9c-21.3 9.4-422 141.2-422 141.2"/>
    <path d="m661.4 376.1c-24.4 18.1-53.1 40.8-66.3 60.9-12.4 18.8-18.1 35.2-13.8 42.8 2.9 5.3 34.7 12.4 62.3-63.4 15.8-47.4 16.5-113.3 70.8-131.6"/>
   </g>
   <path d="m693.2 296.3c-27.4 24.6-29.1 58.7-39.9 100.9-7.5 29.4-23.1 69.4-55.3 83.9"/>
   <path d="m683.4 307.1c-22.2 34.7-16.4 49.6-26 88-10 39.9-19.2 60.3-50.1 80.6"/>
   <g stroke-linejoin="round">
    <path d="m716.7 380.4 106.1-99.8"/>
    <path d="m822.8 280.6c10.6-10.8 31.7-29.7 33.3-31.1 35.8-31.5 45.9-4.3 36.1 21.2-16.1 43-43.8 79.3-70.8 116.2-46.6 60.3-56.2 43.4-58.1 40.9-7.2-9.2 3.8-39.6 36.3-62.9 16.7-13 42.8-27.6 64-38.6"/>
    <path d="m280.1 431.1c-52.2 19.1-110.7 61.2-120 82-4.4 9.9-3.5 17.2 5.8 19.9 9.5 2.5 15.8.3 29.7-13.3"/>
   </g>
  </g>
 </g>
</svg>
