<svg height="210mm" viewBox="0 0 1052.4 744.1" width="297mm" xmlns="http://www.w3.org/2000/svg">
 <g fill="none" stroke-linecap="round">
  <g transform="translate(0 -308.26772)">
   <path d="m57.6 742.2h948.8" stroke="#969696" stroke-width="1.875"/>
   <g stroke="#000" stroke-dasharray="3.75 7.5" stroke-miterlimit="2" stroke-width=".9375">
    <path d="m58.3 844.1h948.8"/>
    <path d="m58.3 641.8h948.8"/>
    <path d="m58.3 540.6h948.8"/>
   </g>
  </g>
  <g stroke="#000" stroke-linejoin="round">
   <g stroke-width="5.625">
    <ellipse cx="235.99023" cy="572.95312" rx="25.728559" ry="20.371418" transform="matrix(.79083574 -.61202846 .61202846 .79083574 0 0)"/>
    <path d="m535 331.1c-4.5.2-10.4.4-16.7.4-16.4.1-35.8-.3-41.3-1.6"/>
    <path d="m891 246.1a19.2 25.1 41.6 0 1 -14.3 31.3 19.2 25.1 41.6 0 1 -27.6-6.8 19.2 25.1 41.6 0 1 14.3-31.3 19.2 25.1 41.6 0 1 27.6 6.8z"/>
    <path d="m861.7 240.4 75.6-52.5"/>
   </g>
   <path d="m668 235.2c-33 8.6-63.5 54.8-62.8 79.6.1 3.5.8 6.6 2.3 9.1 6.3 11.1 23.6 5.6 32.9 2.5 49.5-16.8 225.6-88.5 225.6-88.5" stroke-width="5.624999"/>
   <path d="m178.5 335.5s-31.1 62.1-35.1 72.5c-5.5 14.2 4 23.1 17.2 23" stroke-width="5.624999"/>
   <g stroke-width="5.625">
    <path d="m407.7 382.4c-33.4 19.3-76.8 76.5-68.3 92.5 4.9 9.2 28.4 7.7 48.3-24.3 8.5-13.7 17.7-31 19.9-61.8 4.4-61.4 30.6-107.8 55.8-106.1 14.4 1.8 14.2 14.9 7.5 25.9-5.5 8.8-12.3 14.1-22.3 19.6-17.1 9.4-39.9 19.9-61.8 29.6-76.5 33.9-161.6 58.7-198.2 68.3-9.9 2.4-19.6 4.9-28 5"/>
    <ellipse cx="571.75989" cy="-93.229958" rx="4.609393" ry="6.862874" transform="matrix(.72846687 .68508103 -.68508103 .72846687 0 0)"/>
    <path d="m482.6 328c-27.5 21.8-59.4 43.7-74.9 54.4"/>
    <path d="m642.7 249c-9.5 7.1-74.5 61.3-90.5 73.9"/>
   </g>
  </g>
 </g>
</svg>
