<svg height="210mm" viewBox="0 0 1052.4 744.1" width="297mm" xmlns="http://www.w3.org/2000/svg">
 <g fill="none" stroke-linecap="round">
  <g transform="translate(0 -308.26772)">
   <path d="m57.6 742.2h948.8" stroke="#969696" stroke-width="1.875"/>
   <g stroke="#000" stroke-dasharray="3.75 7.5" stroke-miterlimit="2" stroke-width=".9375">
    <path d="m58.3 844.1h948.8"/>
    <path d="m58.3 641.8h948.8"/>
    <path d="m58.3 540.6h948.8"/>
   </g>
  </g>
  <g stroke="#000" stroke-linejoin="round" stroke-width="5.625">
   <path d="m256.8 431.4c6.9-7.3 21.1-25.6 40.5-25.1 15.2.3 16.1 15.3 24.6 22 8.1 7.7 23.7 1.8 58.7-14.1 13.6-6.2 228.7-107.5 238.2-111.6 23.3-10 40.8-18.9 53-11.3 6.6 4.7 6.3 16.8-7.5 39.8l-31.2 52.3"/>
   <path d="m633.2 383.3c19.3-7.5 69.8-28.9 83.9-28.9 23.2 0 12 28.7 35.7 28.9 6.6.1 14.5-5.5 21.3-10.8"/>
  </g>
 </g>
</svg>
