<svg height="210mm" viewBox="0 0 1052.4 744.1" width="297mm" xmlns="http://www.w3.org/2000/svg">
 <g fill="none" stroke-linecap="round">
  <g transform="translate(0 -308.26772)">
   <path d="m57.6 742.2h948.8" stroke="#969696" stroke-width="1.875"/>
   <g stroke="#000" stroke-dasharray="3.75 7.5" stroke-miterlimit="2" stroke-width=".9375">
    <path d="m58.3 844.1h948.8"/>
    <path d="m58.3 641.8h948.8"/>
    <path d="m58.3 540.6h948.8"/>
   </g>
  </g>
  <g stroke="#000">
   <g stroke-linejoin="round" stroke-width="5.625">
    <path d="m699.1 335.6-51.1 95.5 65.8-64.5"/>
    <path d="m713.7 366.6c12.8-12.3 21-20.4 32.3-26.4 21.3-11.2 40.1-1.6 15.9 38.8l-31.2 52.3"/>
    <path d="m772.1 344.8-49.2 86.2"/>
    <path d="m772.3 351-45.6 79.9"/>
    <path d="m722.8 430.9 7.9.2"/>
   </g>
   <path d="m768.1 338.6c1.8 1.7 2.3 5.7.7 9.9" stroke-width="3.75"/>
  </g>
  <g stroke-linejoin="round" stroke-width="5.625">
   <path d="m606.4 311c21.7-33.8 80.8-39.6 38.5 16.8-42.2 56.4-60.9 78.2-56.1 97 3.4 13.1 24.4 4 37.6-5" stroke="#000001"/>
   <path d="m626.5 419.7c27.7-20 72.6-84.1 72.6-84.1" stroke="#000001"/>
   <path d="m369.9 359.5c24.3-33 69.8-34.2 37.2 20l-31.1 51.6" stroke="#000"/>
   <path d="m376 431.1s49.1-67.4 80.8-87.2c3.5-2.1 7.1-4 11-5.7 19.6-8.3 35 2.5 12.3 40.5l-31.2 52.3" stroke="#000008"/>
  </g>
 </g>
</svg>
