<svg height="210mm" viewBox="0 0 1052.4 744.1" width="297mm" xmlns="http://www.w3.org/2000/svg">
 <g fill="none" stroke-linecap="round">
  <g transform="translate(0 -308.26772)">
   <path d="m57.6 742.2h948.8" stroke="#969696" stroke-width="1.875"/>
   <g stroke="#000" stroke-dasharray="3.75 7.5" stroke-miterlimit="2" stroke-width=".9375">
    <path d="m58.3 844.1h948.8"/>
    <path d="m58.3 641.8h948.8"/>
    <path d="m58.3 540.6h948.8"/>
   </g>
  </g>
  <g stroke="#000" stroke-linejoin="round" stroke-width="5.625">
   <path d="m697.3 336.6s-3.1 1.2 3.3-1.1c16.3-5.7 36.1 3.9 18.7 25.5-27.4 33.8-45.5 50.2-39.4 63.9 4.2 9.6 28.5 7.2 41.9-3.7"/>
   <path d="m481 431.9 216.3-95.2"/>
   <path d="m721.7 421.2c20.4-15.3 30.6-22.9 52.8-21 15.3.2 21.6 31 32.6 30.7 7.2-.2 12.4-7.6 16.7-13"/>
   <path d="m369.2 431.9c50.1-65.2 127.1-56.3 111.8 0"/>
   <path d="m308.5 533.7s53.1-91.4 60.7-101.8"/>
  </g>
 </g>
</svg>
