<svg height="210mm" viewBox="0 0 1052.4 744.1" width="297mm" xmlns="http://www.w3.org/2000/svg">
 <g fill="none" stroke-linecap="round">
  <g stroke="#969696" transform="translate(0 -308.26772)">
   <path d="m57.6 742.2h948.8" stroke-width="1.875"/>
   <g stroke-dasharray="3.75 7.5" stroke-miterlimit="2" stroke-width=".9375">
    <path d="m58.3 844.1h948.8"/>
    <path d="m58.3 641.8h948.8"/>
    <path d="m58.3 540.6h948.8"/>
   </g>
  </g>
  <g stroke="#000" stroke-linejoin="round" stroke-width="5.625">
   <path d="m366.9 388.9s253.8-130 272.8-138.4c10.7-4.7 25.8-11.6 30.9-13.3 8-3 13.9-3.3 17.9-2 6.4 2.1 8.1 9 6.2 18.2-4.9 24.1-33.5 64.1-62.5 77.6"/>
   <path d="m393.3 396.4a19.2 25.1 41.6 0 1 -14.3 31.3 19.2 25.1 41.6 0 1 -27.6-6.8 19.2 25.1 41.6 0 1 14.3-31.3 19.2 25.1 41.6 0 1 27.6 6.8z"/>
  </g>
 </g>
</svg>
