<svg height="210mm" viewBox="0 0 1052.4 744.1" width="297mm" xmlns="http://www.w3.org/2000/svg">
 <g fill="none" stroke-linecap="round">
  <g stroke="#969696" transform="translate(0 -308.26772)">
   <path d="m57.6 742.2h948.8" stroke-width="1.875"/>
   <g stroke-dasharray="3.75 7.5" stroke-miterlimit="2" stroke-width=".9375">
    <path d="m58.3 844.1h948.8"/>
    <path d="m58.3 641.8h948.8"/>
    <path d="m58.3 540.6h948.8"/>
   </g>
  </g>
  <g stroke="#000">
   <g stroke-linejoin="round">
    <path d="m715.1 486.7s29.9-59.2 34.5-70.3c6.6-16.3-3.5-25.4-18.3-24.7-4.1.2-7.4 1-12.2 2.5-7.8 2.8-15.1 6.8-21.8 10.8-10.2 6.3-24.4 14.7-47.1 29-28.5 18-107.3 83.2-81.8 98.7 9.9 5.5 23.1-1.1 49.3-43.2l89.2-152.4" stroke-width="5.624999"/>
    <g stroke-width="5.625">
     <path d="m477 431.8c14.2 1 46.8-21.2 67-29.1 12.3-4.8 23.5-7.9 30.1-6.7 18.7 3.5 19.4 45.5 45.1 32.8"/>
     <path d="m559.9 397.4c3.9-1 5.9-1 8.4-.3 5.9 1.5 10.1 7.8 16.8 22.4 5 11 11.9 12 18.4 12 2.2 0 5.2 0 7.5-.2"/>
     <path d="m572.2 397.6c8.1 7.1 6.1 1.9 24.1 29.3"/>
     <path d="m706.9 337.1c-39.8 46.2-69.9 82.5-87.6 91.7"/>
    </g>
    <g stroke-width="5.624999">
     <path d="m350.4 336.4s-33.7 59.2-38.2 70.3c-6.6 16.3 3.9 25.1 18.3 24.7 33.9-1 92.4-42.3 116.6-65.8 10.8-10.5 12.4-22 7.9-27-5.4-6-30.7-3.9-55.3 36.8-25.4 41.6-22.8 55.9-10.2 56.1 1.5 0 3-.1 4.5-.3"/>
     <path d="m446.3 336.1c-13.1 1.2-26.3 9.8-34.4 19-9.1 10.3-11.9 13.6-18 22.9-10.2 17.6-22.2 41.6-10.2 51.9"/>
     <path d="m437.5 338.1c-4 2.4-12.8 10.7-18.1 16.7-5.4 6.1-11.6 14-17.2 22.8-18.5 27.6-20 29.4-22 48"/>
    </g>
   </g>
   <path d="m449.6 337.7c-7-1.3-13.2 2.5-18.2 7" stroke-width="2.8125"/>
   <path d="m395 390.6c-20.2 34.5-10.9 40.5-2.5 39.4" stroke-width="2.8125"/>
   <g stroke-linejoin="round">
    <path d="m393.9 431.3c17.3-2.8 46.3-16.9 74.7-42.8" stroke-width="5.624999"/>
    <path d="m477 431.8c-14.5-.1-18.5-13.7-8.4-43.4" stroke-width="5.625"/>
   </g>
  </g>
 </g>
</svg>
