<svg height="210mm" viewBox="0 0 1052.4 744.1" width="297mm" xmlns="http://www.w3.org/2000/svg">
 <g fill="none" stroke-linecap="round">
  <g transform="translate(0 -308.26772)">
   <path d="m57.6 742.2h948.8" stroke="#969696" stroke-width="1.875"/>
   <g stroke="#000" stroke-dasharray="3.75 7.5" stroke-miterlimit="2" stroke-width=".9375">
    <path d="m58.3 844.1h948.8"/>
    <path d="m58.3 641.8h948.8"/>
    <path d="m58.3 540.6h948.8"/>
   </g>
  </g>
  <g stroke="#000">
   <g stroke-width="5.625">
    <g stroke-linejoin="round">
     <ellipse cx="222.7025" cy="620.17969" rx="20.441614" ry="16.185308" transform="matrix(.79083574 -.61202846 .61202846 .79083574 0 0)"/>
     <path d="m341.8 333.2c54.3-11 89.4-76.8 83-93.6-5.5-14.4-29.6 3.9-76.8 81.8l-61.6 109.7"/>
     <path d="m286.5 431.2s160.4-108 175.6-123.8c9.3-8.1 16-26.4 1-24.3-11.6 3-24.1 15.2-38.4 38.9-27.1 44.3-22.8 56.7-8.4 54"/>
     <path d="m416.2 376c19.6-2.6 58.7-38.6 82.8-39.6 13.8-.5 15.7 12.4 22.7 23.2 12.4 20.7 26.6 15.3 39.3 10.3"/>
    </g>
    <path d="m729.8 234.1-113.1 196.5"/>
    <g stroke-linejoin="round">
     <path d="m616.7 430.7 87.8-85.5"/>
     <path d="m704.5 345.1c5.8-5.9 11.3-8.3 18.7-9.3 11.9-.6 14.3.7 18.7 3.2 7.6 4.3 7.1 16.7-6 41.5l-26.8 51.1"/>
     <path d="m745.8 347.7-45.9 83.9"/>
     <path d="m746.4 352.6-42.6 78.9"/>
     <path d="m699.9 431.6 9.3.1"/>
    </g>
   </g>
   <path d="m739.5 338.7c3.7 2.9 3.4 12.6 1.1 16.3" stroke-width="3.75"/>
   <path d="m729.8 234.1s-76.8 108.2-124.5 157.2c-56.9 58.9-105.7 47.2-94.2 1.1" stroke-linejoin="round" stroke-width="5.625"/>
  </g>
 </g>
</svg>
