<svg height="210mm" viewBox="0 0 1052.4 744.1" width="297mm" xmlns="http://www.w3.org/2000/svg">
 <g fill="none" stroke-linecap="round">
  <g transform="translate(0 -308.26772)">
   <path d="m57.6 742.2h948.8" stroke="#969696" stroke-width="1.875"/>
   <g stroke="#000" stroke-dasharray="3.75 7.5" stroke-miterlimit="2" stroke-width=".9375">
    <path d="m58.3 844.1h948.8"/>
    <path d="m58.3 641.8h948.8"/>
    <path d="m58.3 540.6h948.8"/>
   </g>
  </g>
  <g stroke-linejoin="round">
   <g stroke="#000">
    <path d="m419.3 260.8c12.6-15.8 22.8-23 32-25.3 8.1-2 15.3-2.1 21-.6 6.2 1.6 11.2 6.4 8.7 18.1-6.4 14.1-15.9 21.3-33.7 32-15.8 12.8-43.5 22.6-38.9 53.9 6.3 42.7-45.5 80.6-63.9 91.9" stroke-width="5.625"/>
    <path d="m419.3 260.8-97 115.7" stroke-width="5.625"/>
    <path d="m344.7 430.7c5.4-4.1 14.3-11.1 23.5-20 11.4-10.9 27.8-34.2 34.7-48.3 5.6-11.3-2.6-26.6 7.3-44" stroke-width="4.6875"/>
    <path d="m348.8 428.4c25.2-12.8 45.1-29.5 57.3-53.5 5.6-11.3 6-31.1 2.1-46.7" stroke-width="4.6875"/>
    <g stroke-width="5.625">
     <path d="m235.8 358.7c15.9-32 75.6-30.6 48.2 3.3-27.4 33.8-47.2 52.6-39.4 63.9 9 13.2 36.1 1.2 49.7-14.9l28-34.5"/>
     <path d="m496.8 298.7c23.7-19.2 60.9-14.6 37.5 14.4-27.4 33.8-45.5 50.2-39.4 63.9 3.4 7.6 15.4 5.4 25.2 2.3 9.8-2.8 28.3-20.5 37.2-28.8"/>
     <path d="m344.7 430.7c-19.9 2.9 143.6-128 152.1-132"/>
    </g>
    <path d="m348.8 428.4c5.4-4.1 24.9-11.9 34.2-20.8 11.4-10.9 18.9-16.3 28.4-41.3 4.5-11.8-7.1-37.7 2.8-55" stroke-width="4.6875"/>
    <path d="m670.6 234.3-113.3 116.2" stroke-width="5.625"/>
   </g>
   <path d="m576.4 318.9c.8.1 1.4.2 2 .5.2.1.3.2.5.3 1 .7 1.3 2 .8 4.1-1 4-5.5 6.2-7.7 7.1-4.4 1.6-7.7-2-5.2-6 1.6-2.4 4.3-5.2 7.5-5.8.2 0 .4-.1.7-.1h.8c.6 0 1.3.1 1.9.3" stroke="#030002" stroke-width="5.625"/>
   <g stroke="#000" stroke-width="5.624959">
    <path d="m683.1 265.5c-7.5 1-20.6-5.2-12.4-31.2"/>
    <path d="m683.1 265.5c21.5-2.8 41.8-30.1 67.9-29.4 12.4.4 16 46.2 45.7 21.5"/>
    <path d="m738.9 237.7c6.7-1.2 11.5.5 19.3 17.8 5.6 12.3 17.5 9.9 23.2 9.4"/>
    <path d="m749.9 238.2c6.7 5.8 2.8.8 17.6 23.4"/>
   </g>
  </g>
 </g>
</svg>
