<svg height="210mm" viewBox="0 0 1052.4 744.1" width="297mm" xmlns="http://www.w3.org/2000/svg">
 <g fill="none" stroke-linecap="round">
  <g transform="translate(0 -308.26772)">
   <path d="m57.6 742.2h948.8" stroke="#969696" stroke-width="1.875"/>
   <g stroke="#000" stroke-dasharray="3.75 7.5" stroke-miterlimit="2" stroke-width=".9375">
    <path d="m58.3 844.1h948.8"/>
    <path d="m58.3 641.8h948.8"/>
    <path d="m58.3 540.6h948.8"/>
   </g>
  </g>
  <g stroke="#000" stroke-width="5.625">
   <g stroke-linejoin="round">
    <path d="m426.4 431.6 247.5-95.6c.4 5.9.6 51.2 23.7 48.9 57.1-5.6 63.7-51.1 51.2-51.5-7.7-.3-25.9 3.2-49.4 42-32.6 53.3-17.8 60.3 4.4 53.5 6-1.9 14.4-6.7 22.8-12.4"/>
    <path d="m726.5 416.4c14.2-8.7 30.1-16.4 39.8-14.5 13.6 2.5 15.7 29.4 30.5 29.1 9.4-.2 17.5-5.2 25.2-14.9"/>
    <path d="m846.1 431.5 46.5-95.4-70.5 80"/>
    <path d="m161.8 431.5s41.9-26.3 90.6-27.2 61.9 26.5 96.3 26.5c25.8.1 43.9-11.4 54.8-17.9"/>
   </g>
   <path d="m403.6 413-73.8 121.2"/>
  </g>
 </g>
</svg>
