<svg height="210mm" viewBox="0 0 1052.4 744.1" width="297mm" xmlns="http://www.w3.org/2000/svg">
 <g fill="none" stroke-linecap="round">
  <g transform="translate(0 -308.26772)">
   <path d="m57.6 742.2h948.8" stroke="#969696" stroke-width="1.875"/>
   <g stroke="#000" stroke-dasharray="3.75 7.5" stroke-miterlimit="2" stroke-width=".9375">
    <path d="m58.3 844.1h948.8"/>
    <path d="m58.3 641.8h948.8"/>
    <path d="m58.3 540.6h948.8"/>
   </g>
  </g>
  <g stroke="#000" stroke-linejoin="round" stroke-width="5.625">
   <path d="m686.1 234.8c-12.7 24.1-47 86.3-61.7 110-30.9 49.9-49.9 84.9-76.9 86.3-7 .4-12.5-1.5-15-6-9.3-17.2 10.2-32.1 36.2-59.2 8.9-9.3 8.8-19.6 5.1-24.8-1.5-2.2-3.8-3.8-6.6-4.7-2.6-.9-5.7-1.2-9-.9-14 1.5-23.6 11-37.6 19.7-15.6 9.8-84.6 66.2-89 72.1-2 2.6-.2 4.6 2.8 3.7"/>
   <path d="m434.3 431.1c30.6-11.1 53.3-52.7 55.8-77 .6-6 0-10.9-2-14-1.5-2.4-3.9-3.8-7.2-3.9-3.1 0-6.9 1.1-11.7 3.8-6.4 3.6-11.2 7.9-16.4 13.2-5.6 5.8-11.5 12.8-17.8 21.3-25.5 34.7-73.2 102.8-110.8 159.3"/>
  </g>
 </g>
</svg>
