<svg height="210mm" viewBox="0 0 1052.4 744.1" width="297mm" xmlns="http://www.w3.org/2000/svg">
 <g fill="none" stroke-linecap="round">
  <g stroke="#969696" transform="translate(0 -308.26772)">
   <path d="m57.6 742.2h948.8" stroke-width="1.875"/>
   <g stroke-dasharray="3.75 7.5" stroke-miterlimit="2" stroke-width=".9375">
    <path d="m58.3 844.1h948.8"/>
    <path d="m58.3 641.8h948.8"/>
    <path d="m58.3 540.6h948.8"/>
   </g>
  </g>
  <g stroke="#000" stroke-linejoin="round">
   <path d="m667.4 346.9c3.7 10.5-2.8 24.6-14.3 31.3-11.6 6.8-23.9 3.7-27.6-6.8s2.8-24.6 14.3-31.3c11.6-6.8 23.9-3.7 27.6 6.8z" stroke-width="5.625"/>
   <path d="m435.3 335.9c-33 8.6-63.5 54.8-62.8 79.6.1 3.5.8 6.6 2.3 9.1 3.6 6.3 10.8 7.3 18.1 6.3 5.4-.7 12.8-2.5 16.7-3.8 9.7-2.9 193.7-73.4 236.6-90" stroke-width="5.624999"/>
   <g stroke-width="5.724194">
    <path d="m229.9 431.6s45.4-33 62.9-29.7 16.3 47 46.5 21.9c18.8-15.7 51.5-61.9 73.7-76.6"/>
    <path d="m278.1 404.2c5.5-2.4 14.6-.8 22.7 16.8 5.7 12.5 16.5 10.5 23.2 10.5"/>
    <path d="m289.4 403.9c7.7 4 5.1.9 20.2 23.9"/>
   </g>
   <path d="m651.3 336.5h60.9" stroke-width="5.625"/>
   <path d="m717.9 483.5c14.8-7.7 30.4-16 28.9-34.4-1.8-21.5-51.2-41.6-58-64.5-3.5-11.7 8.2-31.6 23.4-48.1" stroke-width="5.624998"/>
  </g>
 </g>
</svg>
