<svg height="210mm" viewBox="0 0 1052.4 744.1" width="297mm" xmlns="http://www.w3.org/2000/svg">
 <g fill="none" stroke-linecap="round">
  <g transform="translate(0 -308.26772)">
   <path d="m57.6 742.2h948.8" stroke="#969696" stroke-width="1.875"/>
   <g stroke="#000" stroke-dasharray="3.75 7.5" stroke-miterlimit="2" stroke-width=".9375">
    <path d="m58.3 844.1h948.8"/>
    <path d="m58.3 641.8h948.8"/>
    <path d="m58.3 540.6h948.8"/>
   </g>
  </g>
  <g stroke="#000">
   <g stroke-linejoin="round">
    <path d="m295.9 430.4c-31.1 15.3-58 33.5-62.1 36.7-32.5 23.2-40.2 52.7-38 60 .9 3 16.3 22.9 59.8-38.1 26.9-36.9 54.6-73.4 69.3-116.4 11.5-33.2-1-56-42.8-13.3" stroke-width="5.625"/>
    <path d="m301 422.1 191.9-81.6" stroke-width="5.625"/>
    <ellipse cx="274.51141" cy="582.28851" rx="58.397392" ry="43.195755" stroke-width="5.627733" transform="matrix(.87029912 -.49252355 .45370012 .89115442 0 0)"/>
    <g stroke-width="5.625">
     <path d="m300.1 413.6c.6.1 1.1.2 1.6.4.1.1.3.2.4.2.8.6 1 1.6.6 3.2-.8 3.2-4.4 5-6.1 5.6-3.5 1.3-6.1-1.6-4.1-4.8 1.3-2 3.4-4.1 6-4.7.2 0 .4-.1.5-.1h.7c.5 0 1 .1 1.5.2"/>
     <path d="m693.4 382.5 31.4 48.6"/>
     <path d="m693.4 382.5 24 48.7"/>
     <path d="m701 382.5 23.8 48.6"/>
     <path d="m697.1 382.4 24 48.7"/>
    </g>
   </g>
   <path d="m693.8 381.4h7.1" stroke-width="3.75"/>
   <path d="m717.2 432.1h7.1" stroke-width="3.75"/>
   <g stroke-linejoin="round" stroke-width="5.625">
    <path d="m693.4 382.5c-25.7 21.4-57.1 49.6-85.4 48.9-53.5-.6 55-173.4 109.6-197.1"/>
    <path d="m724.8 431.1c26.6-28.3 42.2-46.5 71.6-47.3 22-.6 36.2 17.3 31.2 47.2"/>
    <path d="m717.5 234.3-228.7 107.8"/>
   </g>
  </g>
 </g>
</svg>
