<svg height="210mm" viewBox="0 0 1052.4 744.1" width="297mm" xmlns="http://www.w3.org/2000/svg">
 <g fill="none" stroke-linecap="round">
  <g transform="translate(0 -308.26772)">
   <path d="m57.6 742.2h948.8" stroke="#969696" stroke-width="1.875"/>
   <g stroke="#000" stroke-dasharray="3.75 7.5" stroke-miterlimit="2" stroke-width=".9375">
    <path d="m58.3 844.1h948.8"/>
    <path d="m58.3 641.8h948.8"/>
    <path d="m58.3 540.6h948.8"/>
   </g>
  </g>
  <g stroke="#000">
   <g stroke-linejoin="round">
    <path d="m197.3 415.8 60.6-31.6" stroke-width="5.625"/>
    <path d="m232.7 398-35.9 18.1c-4.8 2.4-7.7 5.2-8.3 6.2-1.9 3.1-1.1 8.1 3.9 8.6 3 .3 9.7-4.2 11-5 50.8-29 73.5-137 2.1-66.9" stroke-width="5.419139"/>
    <g stroke-width="5.625">
     <path d="m259.6 382.9 33.3 47.9"/>
     <path d="m259.6 382.9 24 48"/>
     <path d="m269.1 383 23.8 47.9"/>
     <path d="m265.2 382.8 24 48"/>
    </g>
   </g>
   <path d="m261.9 381.9h7.1" stroke-width="3.75"/>
   <path d="m285.3 431.8h7.1" stroke-width="3.75"/>
   <g stroke-linejoin="round" stroke-width="5.625">
    <path d="m292.9 430.8s73.8-80.4 85.5-86.4"/>
    <path d="m378.4 344.4c7.9-5.7 17.5-8.6 25.5-8.8 14.8-.4 24.7 8.4 10.2 26.3-27.4 33.8-46.2 51.6-40 62.6"/>
    <path d="m374.2 424.5c4.2 9.5 18.7 7.2 35.5 3.4l32.2-7.4"/>
   </g>
  </g>
  <g stroke-linejoin="round" stroke-width="5.625">
   <path d="m594.3 432.1c-16.8.5-21.3-32.6-35.4-32.7-11.1-.1-72 10.2-116.9 21.1" stroke="#060000"/>
   <path d="m594.3 432.1c17.6-.2 35-30.4 77-96.1" stroke="#000"/>
   <path d="m671.3 336 22.7 45.4" stroke="#060000"/>
   <path d="m694 381.4c16.7-9.5 47.2-28.5 64.1-29.2 19.1.5 16 29.1 33.6 28.7 6.4-.2 11.8-3.4 16.6-7.6" stroke="#000"/>
  </g>
 </g>
</svg>
