<svg height="210mm" viewBox="0 0 1052.4 744.1" width="297mm" xmlns="http://www.w3.org/2000/svg">
 <g fill="none" stroke-linecap="round">
  <g transform="translate(0 -308.26772)">
   <path d="m57.6 742.2h948.8" stroke="#969696" stroke-width="1.875"/>
   <g stroke="#000" stroke-dasharray="3.75 7.5" stroke-miterlimit="2" stroke-width=".9375">
    <path d="m58.3 844.1h948.8"/>
    <path d="m58.3 641.8h948.8"/>
    <path d="m58.3 540.6h948.8"/>
   </g>
  </g>
  <g stroke-linejoin="round" stroke-width="5.625">
   <path d="m379.2 335.3-39.4 73.1c-8.4 15.5 5 26.1 21.5 22.2 2.8-.7 9.1-2.7 14-5.9 5.5-3.6 13.2-9.7 18.1-14.2" stroke="#000"/>
   <path d="m440.4 431c29.9-.5 49.4-24.1 101.6-85" stroke="#000"/>
   <path d="m393.4 410.5c7.8-6.9 73.8-74.5 73.8-74.5" stroke="#010000"/>
  </g>
  <g stroke="#000">
   <path d="m476.4 336-47.5 81.9" stroke-linejoin="round" stroke-width="6.5625"/>
   <path d="m471.8 335.9-44.7 81.9" stroke-linejoin="round" stroke-width="6.5625"/>
   <path d="m433 413.7c-3.1 6.1-3.4 13.5 3.2 15.5" stroke-width="3.75"/>
   <g stroke-linejoin="round">
    <path d="m476.4 336h-9.3" stroke-width="6.5625"/>
    <g stroke-width="5.625">
     <path d="m467 335.5-38.9 72.5c-7.2 13.4 1.8 23.1 15 23"/>
     <path d="m577.3 346.5a19.2 25.1 41.6 0 1 -14.3 31.3 19.2 25.1 41.6 0 1 -27.6-6.8 19.2 25.1 41.6 0 1 14.3-31.3 19.2 25.1 41.6 0 1 27.6 6.8z"/>
     <path d="m544.9 343.2 134.7-109.3-57.4 97 104.7-49.5"/>
     <path d="m726.9 281.4 19.5 48.9"/>
    </g>
   </g>
  </g>
 </g>
</svg>
