<svg height="210mm" viewBox="0 0 1052.4 744.1" width="297mm" xmlns="http://www.w3.org/2000/svg">
 <g fill="none" stroke-linecap="round">
  <g transform="translate(0 -308.26772)">
   <path d="m57.6 742.2h948.8" stroke="#969696" stroke-width="1.875"/>
   <g stroke="#000" stroke-dasharray="3.75 7.5" stroke-miterlimit="2" stroke-width=".9375">
    <path d="m58.3 844.1h948.8"/>
    <path d="m58.3 641.8h948.8"/>
    <path d="m58.3 540.6h948.8"/>
   </g>
  </g>
  <g stroke="#000" stroke-linejoin="round" stroke-width="5.625">
   <path d="m555.7 389 23.7 42.2"/>
   <path d="m483.9 431.1c13-.9 31.2-11.9 33.1-28.5 1.8-15.4-7.7-21.8-7.6-31.3.1-13.5 10-32.8 27.5-35 15.6-2 15.9 15.3.8 31.5-6.3 6.7-32.4 25.1-49 35.7"/>
   <path d="m514.8 353c-5.2 11.3-1.5 22.3 2 31.1 2.8 7 5.7 20.5.6 29.3s-22.7 15.2-22.7 15.2"/>
   <path d="m519.3 346.2c-9.2 10.8-14.4 25.1-8.7 37.5 4.8 10.1 8 19.3 2.7 28.2s-24.3 18.5-24.3 18.5"/>
   <path d="m483.9 431.1c-18.8-2.9 71.8-42.1 71.8-42.1"/>
   <path d="m579.4 431.2s21.3-27.5 41.6-28.3c18.6-.7 24.5 28.2 40.6 28.6 7.7.2 14.9-8 20.5-13.7"/>
   <path d="m457.9 336.4-41.8 71.8c-7.9 13.5 2.2 23.6 16.1 23 19.4-.8 42.5-18.6 56.5-27.6"/>
  </g>
 </g>
</svg>
