<svg height="210mm" viewBox="0 0 1052.4 744.1" width="297mm" xmlns="http://www.w3.org/2000/svg">
 <g fill="none" stroke-linecap="round">
  <g transform="translate(0 -308.26772)">
   <path d="m57.6 742.2h948.8" stroke="#969696" stroke-width="1.875"/>
   <g stroke="#000" stroke-dasharray="3.75 7.5" stroke-miterlimit="2" stroke-width=".9375">
    <path d="m58.3 844.1h948.8"/>
    <path d="m58.3 641.8h948.8"/>
    <path d="m58.3 540.6h948.8"/>
   </g>
  </g>
  <g stroke="#000">
   <g stroke-linejoin="round" stroke-width="5.625">
    <path d="m524.9 484.3c3-4.3 55.1-74.7 60.3-80.7 20.1-22.8 60.5-18.2 38.2 12-25.9 35-46.8 51.7-39.4 64.7 2.1 3.7 7.4 4.7 13.7 4"/>
    <path d="m474 457.7 17.6-21.3 33.3 47.9"/>
    <path d="m491.6 436.4 24 48"/>
    <path d="m501.1 436.4 23.8 47.9"/>
    <path d="m497.1 436.3 24 48"/>
   </g>
   <path d="m493.8 435.4h7.1" stroke-width="3.75"/>
   <path d="m517.3 485.3h7.1" stroke-width="3.75"/>
   <g stroke-linejoin="round" stroke-width="5.625">
    <path d="m597.6 484.4c18.8-1.2 69.1-47.2 91.6-47.6 16-.6 23.8 45.2 40.4 45.9 7.2.3 16.1-7.6 20.5-13"/>
    <path d="m413.1 408.5c15.9-32 75.6-30.6 48.2 3.3-27.4 33.8-45.5 50.2-39.4 63.9 3.3 7.4 14.2 10.2 25.4 5.6 9.4-3.9 18.7-13.6 26.7-23.5"/>
    <path d="m402.7 430.8s5.7-13.7 10.3-22.3"/>
   </g>
  </g>
 </g>
</svg>
