<svg height="210mm" viewBox="0 0 1052.4 744.1" width="297mm" xmlns="http://www.w3.org/2000/svg">
 <g fill="none" stroke-linecap="round">
  <g transform="translate(0 -308.26772)">
   <path d="m57.6 742.2h948.8" stroke="#969696" stroke-width="1.875"/>
   <g stroke="#000" stroke-dasharray="3.75 7.5" stroke-miterlimit="2" stroke-width=".9375">
    <path d="m58.3 844.1h948.8"/>
    <path d="m58.3 641.8h948.8"/>
    <path d="m58.3 540.6h948.8"/>
   </g>
  </g>
  <g stroke="#000" stroke-linejoin="round" stroke-width="5.625">
   <path d="m401 431.1 31.4.3 59.1-46.6 21 46.7"/>
   <path d="m512.5 431.5s19.1-37.1 39.4-36.8c27.2 3.8 17 36.1 42.4 36.4 13.2-1.1 22.9-7.8 40.9-21.4"/>
   <path d="m406 414.5c1 .1 1.8.3 2.5.7.2.1.4.2.6.4 1.2.9 1.7 2.6 1 5.2-1.3 5.1-7.1 8-9.8 9-5.7 2-9.8-2.6-6.6-7.6 2-3.1 5.5-6.6 9.7-7.5.3-.1.6-.1.9-.1s.7-.1 1-.1c.8 0 1.6.1 2.4.3"/>
   <path d="m635.2 409.6c12.5-9.4 24.9-17.6 39.1-15.4 15.9 4.3 15.3 36.8 31.1 37.2 12.2.3 17.5-8.4 23.7-16.3"/>
   <path d="m362.6 382.6 23 48.5 15.4-.1"/>
  </g>
 </g>
</svg>
