<svg height="210mm" viewBox="0 0 1052.4 744.1" width="297mm" xmlns="http://www.w3.org/2000/svg">
 <g fill="none" stroke-linecap="round">
  <g transform="translate(0 -308.26772)">
   <path d="m57.6 742.2h948.8" stroke="#969696" stroke-width="1.875"/>
   <g stroke="#000" stroke-dasharray="3.75 7.5" stroke-miterlimit="2" stroke-width=".9375">
    <path d="m58.3 844.1h948.8"/>
    <path d="m58.3 641.8h948.8"/>
    <path d="m58.3 540.6h948.8"/>
   </g>
  </g>
  <g stroke="#000" stroke-linejoin="round" stroke-width="5.625">
   <path d="m263.7 359.5c24.3-33 69.8-34.2 37.2 20l-31.1 51.6"/>
   <path d="m269.8 431.1c12.9-7.6 59.2-30.1 80.5-30.2 17.2-.3 20.4 31.1 38.3 30.5"/>
   <path d="m388.5 431.4c14.7-.5 75.3-46.5 75.3-46.5l20.7 46.3"/>
   <path d="m594.7 335.9-53.8 95.3"/>
   <path d="m594.7 335.9h-10.6"/>
   <path d="m589.1 335.9-53.8 95.3"/>
   <path d="m540.9 431.2h-10.6"/>
   <path d="m484.6 431.2 99.5-95.3-53.8 95.3 11-.1"/>
   <path d="m541.3 431.2 220.9-47.6 20 47.9"/>
  </g>
 </g>
</svg>
