<svg height="210mm" viewBox="0 0 1052.4 744.1" width="297mm" xmlns="http://www.w3.org/2000/svg">
 <g fill="none" stroke-linecap="round">
  <g transform="translate(0 -308.26772)">
   <path d="m57.6 742.2h948.8" stroke="#969696" stroke-width="1.875"/>
   <g stroke="#000" stroke-dasharray="3.75 7.5" stroke-miterlimit="2" stroke-width=".9375">
    <path d="m58.3 844.1h948.8"/>
    <path d="m58.3 641.8h948.8"/>
    <path d="m58.3 540.6h948.8"/>
   </g>
  </g>
  <g stroke="#000">
   <g stroke-linejoin="round">
    <g stroke-width="5.625">
     <path d="m455.2 431 47.9-46.3"/>
     <path d="m107.5 386.2-23.6 45.3"/>
     <path d="m579.8 298.1 33.9-16-27.4 48.9 33.8-15.1"/>
    </g>
    <path d="m204.7 355c8.1-7.6 17.5-17.9 32-19.7 3.3-.4 6.4-.1 9 .9 2.8 1 5 2.6 6.6 4.7 3.7 5.2 3.1 13.5-5.1 23.4-24.4 29.4-45.3 43.7-38 59.3 1.2 2.5 3.1 4.4 5.6 5.7 1.4.7 3 1.2 4.6 1.5 4.9.8 9.8.1 15-.7 33.4-7.1 199.5-46.2 199.5-46.2l21.5 47.1" stroke-width="5.624999"/>
    <g stroke-width="5.625001">
     <path d="m645.1 430.8s151.6-23.3 240.7-45.7c48.3-10.5 81.1-28.7 69.4-45.2-2.1-3.3-7.1-4.4-10.6-4.4-21.7 1.1-38.3 26.7-46.3 39.7-26.7 43.7-24 57.5-10.8 56.3"/>
     <path d="m933.7 338.4c-4 2.4-12.8 10.7-18.1 16.7-5.4 6.1-8.5 11.6-14.1 20.4-14 23-21.3 33.5-23.7 47.2"/>
     <path d="m939.4 336.1c-11.5 1.2-23.1 10.3-31.4 19.3-8 8.7-11.8 14.5-15.1 20.1-12.5 20.4-21.6 47.5-12.1 54.6"/>
    </g>
   </g>
   <path d="m943.3 336.9c-7.2.7-11.7 4.5-15.8 8.1" stroke-width="2.8125"/>
   <path d="m887.5 431.4c23.9-1.6 57-16.5 78.1-35.3" stroke-linejoin="round" stroke-width="5.625001"/>
  </g>
 </g>
</svg>
