<svg height="210mm" viewBox="0 0 1052.4 744.1" width="297mm" xmlns="http://www.w3.org/2000/svg">
 <g fill="none" stroke-linecap="round">
  <g transform="translate(0 -308.26772)">
   <path d="m57.6 742.2h948.8" stroke="#969696" stroke-width="1.875"/>
   <g stroke="#000" stroke-dasharray="3.75 7.5" stroke-miterlimit="2" stroke-width=".9375">
    <path d="m58.3 844.1h948.8"/>
    <path d="m58.3 641.8h948.8"/>
    <path d="m58.3 540.6h948.8"/>
   </g>
  </g>
  <g stroke="#000">
   <g stroke-linejoin="round">
    <path d="m470.7 346.9c50.5-45.8 100.6-101.9 78.1-109.6-14.6-5-42.6 12.2-89.8 90.1-42.5 73.3-43.2 100.2-27.6 103.5 6 1.6 28.8.5 51.2.1 5.4-.1 9.4.2 13.1.2" stroke-width="5.625"/>
    <path d="m374.2 424.4c6.9-3.9 88.1-67.5 96.5-77.4" stroke-width="5.625"/>
    <path d="m387 336-47.8 86.7" stroke-width="6.5625"/>
    <path d="m283.3 430.8 94.4-95.2-39 72.4c-8.4 15.5 5 26.1 21.5 22.2 2.8-.7 9.4-2.3 14-6" stroke-width="5.625"/>
    <path d="m382.4 336-44.7 81.9" stroke-width="6.5625"/>
   </g>
   <path d="m344.2 416.6c-1.6 4.1-2.6 6.5.8 11.9" stroke-width="3.75"/>
   <g stroke-linejoin="round">
    <path d="m387 336-9.3-.4" stroke-width="6.5625"/>
    <path d="m495.8 430.8c8.8 1.6 18.8 2.2 24.8-1.2" stroke-width="5.625"/>
    <ellipse cx="652.47449" cy="-32.667797" rx="4.609393" ry="6.862874" stroke-width="5.625" transform="matrix(.72846687 .68508103 -.68508103 .72846687 0 0)"/>
    <ellipse cx="629.1189" cy="-15.627413" rx="5.271423" ry="7.848564" stroke-width="14.034715" transform="matrix(.72846687 .68508103 -.68508103 .72846687 0 0)"/>
    <path d="m640.2 359.8-45.9 71.8" stroke-width="5.625"/>
    <path d="m623 391.5-25 39.7" stroke-width="3.75"/>
    <g stroke-width="5.625">
     <path d="m594.3 431.6 7.9.2"/>
     <path d="m521.8 431.5c24.7 4.1 69-101 112.2-95.5 1.7.3 3.2.7 4.6 1.3 9.1 3.9 11 14.7-4.2 40.7l-31.2 53.7"/>
     <path d="m603.2 431.7 97.3-49.4"/>
    </g>
   </g>
   <path d="m638.8 338.4c6.1 2.8 6.9 11.6-1.9 25.1" stroke-width="3.75"/>
   <g stroke-linejoin="round" stroke-width="5.625">
    <ellipse cx="668.83936" cy="-48.332233" rx="4.609393" ry="6.862874" transform="matrix(.72846687 .68508103 -.68508103 .72846687 0 0)"/>
    <path d="m700.5 382.3 20.5 48.3"/>
   </g>
  </g>
 </g>
</svg>
