<svg height="210mm" viewBox="0 0 1052.4 744.1" width="297mm" xmlns="http://www.w3.org/2000/svg">
 <g fill="none" stroke-linecap="round">
  <g transform="translate(0 -308.26772)">
   <path d="m57.6 742.2h948.8" stroke="#969696" stroke-width="1.875"/>
   <g stroke="#000" stroke-dasharray="3.75 7.5" stroke-miterlimit="2" stroke-width=".9375">
    <path d="m58.3 844.1h948.8"/>
    <path d="m58.3 641.8h948.8"/>
    <path d="m58.3 540.6h948.8"/>
   </g>
  </g>
  <g stroke="#000">
   <g stroke-linejoin="round">
    <path d="m461.7 431c4.9-1 9.7-4.3 11-5 38.7-22.3 61.1-90.2 37.9-90.6-10-.2-19.6 7.2-28.8 16.1-6 5.8-13.1 13.8-19.7 21.3" stroke-width="5.625002"/>
    <g stroke-width="5.625">
     <path d="m748 385 22.1 46.2"/>
     <path d="m755.3 384.9 22.1 46.2"/>
    </g>
   </g>
   <g stroke-width="5.625001">
    <path d="m748 385 7.2-.1"/>
    <path d="m752.1 386.4 21 43.9" stroke-linejoin="round"/>
    <path d="m770.1 431.3 7.2-.1"/>
   </g>
   <g stroke-linejoin="round">
    <path d="m461.7 431c-4.9 1.2-7.2-3.3-2.8-5.5 15.3-7.7 289.2-40.5 289.2-40.5" stroke-width="5.625001"/>
    <path d="m871.9 235.1-94.5 196" stroke-width="5.624999"/>
    <path d="m366.1 336.4-43.2 78.1-3.3 9.2" stroke-width="6.562499"/>
    <path d="m361.3 336.4-44.6 81.7" stroke-width="6.562499"/>
    <g stroke-width="5.625">
     <path d="m366.1 335.9h-9.3"/>
     <path d="m270.5 431.4 86.3-95.5-39 72.3c-8.4 15.5 5 26.1 21.5 22.2 10.1-2.1 46.3-23.3 76-41.9"/>
    </g>
   </g>
   <path d="m326.7 410.6c-4.3 7.3-5.9 18.8 4 19.7" stroke-width="3.749999"/>
   <path d="m415.2 388.5-66.8 145.1" stroke-width="5.625"/>
  </g>
 </g>
</svg>
