<svg height="210mm" viewBox="0 0 1052.4 744.1" width="297mm" xmlns="http://www.w3.org/2000/svg">
 <g fill="none" stroke-linecap="round">
  <g transform="translate(0 -308.26772)">
   <path d="m57.6 742.2h948.8" stroke="#969696" stroke-width="1.875"/>
   <g stroke="#000" stroke-dasharray="3.75 7.5" stroke-miterlimit="2" stroke-width=".9375">
    <path d="m58.3 844.1h948.8"/>
    <path d="m58.3 641.8h948.8"/>
    <path d="m58.3 540.6h948.8"/>
   </g>
  </g>
  <g stroke-linejoin="round" stroke-width="5.625">
   <g stroke="#000">
    <ellipse cx="152.17641" cy="634.44238" rx="25.728558" ry="20.371416" transform="matrix(.79083574 -.61202846 .61202846 .79083574 0 0)"/>
    <path d="m543.1 348.1c-12.1 11.1-48 45.1-48 45.1"/>
    <path d="m543.1 348.1c23.7-19.2 60.9-14.6 37.5 14.4-27.4 33.8-42.2 45.3-36.6 59.2 5.6 13.6 23.3 14.7 47.2 7.7"/>
   </g>
   <path d="m596.8 414.1c1 .1 1.8.3 2.5.7.2.1.4.2.6.4 1.2.9 1.7 2.6 1 5.2-1.3 5.1-7.1 8-9.8 9-5.7 2-9.8-2.6-6.6-7.6 2-3.1 5.5-6.6 9.7-7.5.3-.1.6-.1.9-.1s.7-.1 1-.1c.8 0 1.6.1 2.4.3" stroke="#030002"/>
  </g>
 </g>
</svg>
