<svg height="210mm" viewBox="0 0 1052.4 744.1" width="297mm" xmlns="http://www.w3.org/2000/svg">
 <g fill="none" stroke-linecap="round">
  <g transform="translate(0 -308.26772)">
   <path d="m57.6 742.2h948.8" stroke="#969696" stroke-width="1.875"/>
   <g stroke="#000" stroke-dasharray="3.75 7.5" stroke-miterlimit="2" stroke-width=".9375">
    <path d="m58.3 844.1h948.8"/>
    <path d="m58.3 641.8h948.8"/>
    <path d="m58.3 540.6h948.8"/>
   </g>
  </g>
  <path d="m347.3 533.4s98.2-160 110-177c9.5-13.6 19.3-20.5 29.8-20.3 4.6.1 8.8.9 11.9 2.8 3.6 2.2 5.8 5.8 5.4 10.5-.3 3.8-2 8.7-6.7 13.7-26.8 28.4-47.2 45.6-39.9 61.2 1.4 3 4 5.2 7.2 6.4 2.7 1 7.7 1.3 11 1 22.1-2.9 32.9-18.5 54.9-46.1 20.4-25.6 45.2-57.7 56.4-70.5 15-17.8 30.2-29.3 40.9-29.1 12.4.2 12.3 17.3 5.9 36-14.7 43-41.1 81.5-68 118.4-30.2 41-50.1 47.2-57.1 40.9-13.5-11.4 4.2-35.9 29.2-55.1 13.2-11.3 45.9-34.3 65.4-41.7" stroke="#000" stroke-linejoin="round" stroke-width="5.625"/>
 </g>
</svg>
