<svg height="210mm" viewBox="0 0 1052.4 744.1" width="297mm" xmlns="http://www.w3.org/2000/svg">
 <g fill="none" stroke-linecap="round">
  <g transform="translate(0 -308.26772)">
   <path d="m57.6 742.2h948.8" stroke="#969696" stroke-width="1.875"/>
   <g stroke="#000" stroke-dasharray="3.75 7.5" stroke-miterlimit="2" stroke-width=".9375">
    <path d="m58.3 844.1h948.8"/>
    <path d="m58.3 641.8h948.8"/>
    <path d="m58.3 540.6h948.8"/>
   </g>
  </g>
  <g stroke-linejoin="round" stroke-width="5.625">
   <g stroke="#000">
    <path d="m339.1 431.7c5.8-.8 26.8-2.5 30.8-2.4 7.6.1 19.7 2.8 25.1 17.5 4.2 11.3 12 26.3 27.4 31.9 4.9 1.8 17.9 4.8 30.2 2.9"/>
    <path d="m602.3 393.5s-32.9 16.2-36.1 17.8c-4.3 2.2-14.7 7.9-16.7 11.7-3.4 6.4 4.9 8.8 6.4 8.4 15.1-4.5 47.4-44.7 52.6-82 5.7-40.6 44.3-104.4 80-114.7"/>
    <ellipse cx="260.81818" cy="725.39911" rx="19.945965" ry="15.792861" transform="matrix(.79083574 -.61202846 .61202846 .79083574 0 0)"/>
    <path d="m602.3 393.5 34.8-14 24.3 18.5"/>
    <path d="m452.7 481.5s16.9-1.6 31.3-15.5 137.2-186.3 184.1-220.9"/>
    <path d="m642.2 400.2c16.9-12.3 40.6-21.7 77.2-24.2"/>
   </g>
   <g stroke="#030002">
    <path d="m702.7 366.2c.8.1 1.4.2 2 .5.2.1.3.2.5.3 1 .7 1.3 2 .8 4.1-1 4-5.5 6.2-7.7 7.1-4.4 1.6-7.7-2-5.2-6 1.6-2.4 4.3-5.2 7.5-5.8.2 0 .4-.1.7-.1h.8c.6 0 1.3.1 1.9.3"/>
    <path d="m725.9 363.6c.8.1 1.4.2 2 .5.2.1.3.2.5.3 1 .7 1.3 2 .8 4.1-1 4-5.5 6.2-7.7 7.1-4.4 1.6-7.7-2-5.2-6 1.6-2.4 4.3-5.2 7.5-5.8.2 0 .4-.1.7-.1h.8c.6 0 1.3.1 1.9.3"/>
   </g>
  </g>
 </g>
</svg>
