<svg height="210mm" viewBox="0 0 1052.4 744.1" width="297mm" xmlns="http://www.w3.org/2000/svg">
 <g fill="none" stroke-linecap="round">
  <g transform="translate(0 -308.26772)">
   <path d="m57.6 742.2h948.8" stroke="#969696" stroke-width="1.875"/>
   <g stroke="#000" stroke-dasharray="3.75 7.5" stroke-miterlimit="2" stroke-width=".9375">
    <path d="m58.3 844.1h948.8"/>
    <path d="m58.3 641.8h948.8"/>
    <path d="m58.3 540.6h948.8"/>
   </g>
  </g>
  <g stroke="#000">
   <g stroke-linejoin="round">
    <path d="m363.8 334.5c-33.4 19.3-76.8 76.5-68.3 92.5 4.9 9.2 28.4 7.7 48.3-24.3 8.5-13.7 17.7-31 19.9-61.8 4.4-61.4 30.6-107.8 55.8-106.1 20.5 2.6 7.1 25.2-4.6 33.9" stroke-width="5.625"/>
    <path d="m363.8 334.5c46.1-29.1 87.1-57.9 112.2-51.3 16.3 4.3 25.5 20.6 17.9 46.8" stroke-width="5.624999"/>
    <g stroke-width="5.625">
     <path d="m493.9 330 168.3-198.1-111 198"/>
     <path d="m797.3 237.8c1.9-.8 3.2-1.4 7.6-2.2 4.6-.8 9.1-.5 12.9.8 8.6 3.2 12.6 12 1.5 25.8"/>
     <path d="m551.2 329.9 246.1-92.1"/>
    </g>
    <path d="m986.9 134.4s-138.1 162.4-147.5 171.9c-5.2 5-10.5 9.9-16.9 14.6-3.8 2.8-8.4 5.3-13 6.8-4.7 1.6-9.4 2.4-13.1 2.6-7.3.5-13.6-1.8-16.2-7.3-7.2-15.4 9.7-28.2 39.3-60.8" stroke-width="5.625003"/>
    <path d="m986.9 134.4-94.5 196.1" stroke-width="5.624999"/>
    <path d="m892.4 330.5 85.4-95" stroke-width="5.625"/>
   </g>
   <path d="m254.1 337.4c9.3 1.2 23.5 6.5 26.3 22.3" stroke-width="3.75"/>
   <ellipse cx="22.722607" cy="447.56467" rx="60.146576" ry="43.208752" stroke-linejoin="round" stroke-width="5.625" transform="matrix(.88109295 -.47294313 .47294313 .88109295 0 0)"/>
   <path d="m218.6 428.7c-11.1 2-22.6-1-31.8-8.1" stroke-width="3.75"/>
   <g stroke-width="5.625">
    <path d="m285.4 360.8c.7 2.8.2 12.3-.3 13.7-4.6 13.5-9.8 20.7-17.2 28.9-8.8 9.7-22.1 15.7-32.4 24.1"/>
    <path d="m265.9 339.3c11 3.2 13.8 13.8 14.8 17.6 5.3 20.3-6.6 35.7-14.9 44.9-8.3 9.3-25 27.4-57.1 28.7"/>
    <g stroke-linejoin="round">
     <path d="m194.5 357.4-49.5 49.2c-5.2 5-10.5 9.9-16.9 14.6-7.8 5.7-17 9-24.3 9.5s-13.6-1.8-16.2-7.3c-7.2-15.4 13.6-29.6 37.7-58.8 8.1-9.8 8.7-18.1 5.1-23.2-1.5-2.1-3.8-3.7-6.5-4.7-2.6-.9-5.7-1.2-9-.9-14.3 1.8-23.7 12-31.7 19.6"/>
     <path d="m197.1 355.1c18.3-17 60.4-52.5 82-52.7s23.2 29 41.2 27.5c22.5-1.9 49-27.5 94.6-61.2"/>
    </g>
   </g>
  </g>
 </g>
</svg>
