<svg height="210mm" viewBox="0 0 1052.4 744.1" width="297mm" xmlns="http://www.w3.org/2000/svg">
 <g fill="none" stroke-linecap="round">
  <g transform="translate(0 -308.26772)">
   <path d="m57.6 742.2h948.8" stroke="#969696" stroke-width="1.875"/>
   <g stroke="#000" stroke-dasharray="3.75 7.5" stroke-miterlimit="2" stroke-width=".9375">
    <path d="m58.3 844.1h948.8"/>
    <path d="m58.3 641.8h948.8"/>
    <path d="m58.3 540.6h948.8"/>
   </g>
  </g>
  <g stroke="#000">
   <g stroke-linejoin="round">
    <g stroke-width="5.625">
     <path d="m365.8 430.7c41.5 3.1 62.1-37.2 58.8-46-2.9-7.5-30.4-4.4-55.2 36.4-23.3 38.1-23.3 53.8-13.5 55.4 11 1.8 44-8.5 64.2-21.5"/>
     <path d="m421.4 441.7c1 .1 1.8.3 2.5.7.2.1.4.2.6.4 1.2.9 1.7 2.6 1 5.2-1.3 5.1-7.1 8-9.8 9-5.7 2-9.8-2.6-6.6-7.6 2-3.1 5.5-6.6 9.7-7.5.3-.1.6-.1.9-.1s.7-.1 1-.1c.8 0 1.6.1 2.4.3"/>
     <path d="m339 430 26.8.7"/>
     <path d="m339 430c-21 1.5-54.3 30.3-69.7 48.7-18.7 22.3-29.2 45.6-21.2 51.4 15.8 11.6 35.8-11.1 50.6-36.2 18.6-31.4 45.6-101.5 53.1-131.4 22-88.4 71.4-137 88.3-126.6 12.7 7.8-23.4 82.2-80.2 97.9"/>
     <path d="m556.6 336.5c-55.4 14.5-101.9 132.4-22.6 83.6 5.7-4.4 7.5-5.7 15-13.2"/>
    </g>
    <path d="m549 406.9s16.1-15.2 24.3-23.2c26.1-25.6 49.5-54.5 99.8-46.5 13.6 8.9 14.4 20.9 14.7 30.6-7.9 43.5-61.2 63.4-81.6 64.2-26.8 1.1-46-21-26.7-50.8 19.6-21.2 26.9-31.3 57-43.8" stroke-width="5.633859"/>
   </g>
   <path d="m684.8 355c-14.4 29.1-41.4 56.2-71.3 75.3" stroke-width="5.625"/>
   <path d="m686.1 364.4c-16.6 22.2-34.5 43.3-56.4 61.1" stroke-width="5.625"/>
   <path d="m685.1 371.1c-14.9 22.5-20.6 30.9-43.5 48.5" stroke-width="7.5"/>
   <path d="m631.4 416.2c-10.5 10-32.1 14.6-39.3 13.1" stroke-width="3.75"/>
   <path d="m675.9 340.6c1.3 2.8 9.6 12.7 1.9 25.5" stroke-width="3.75"/>
   <g stroke-linejoin="round" stroke-width="5.625">
    <path d="m618.6 346 81.8-62.7 19.1 47.9"/>
    <path d="m420.1 454.9c7.9-3 101.8-98 109-102.8"/>
   </g>
  </g>
 </g>
</svg>
