<svg height="210mm" viewBox="0 0 1052.4 744.1" width="297mm" xmlns="http://www.w3.org/2000/svg">
 <g fill="none" stroke-linecap="round">
  <g transform="translate(0 -308.26772)">
   <path d="m57.6 742.2h948.8" stroke="#969696" stroke-width="1.875"/>
   <g stroke="#000" stroke-dasharray="3.75 7.5" stroke-miterlimit="2" stroke-width=".9375">
    <path d="m58.3 844.1h948.8"/>
    <path d="m58.3 641.8h948.8"/>
    <path d="m58.3 540.6h948.8"/>
   </g>
  </g>
  <g stroke="#111">
   <path d="m385.4 418.1c56.5-37.7 129.9-88.8 163.7-127.6 15.2-17.5 23.5-35.3 19.4-45.4-2.2-5.5-6.6-8.4-17.7-8.7-15.4-.4-42.9 10.9-90.1 88.8-46.6 79.3-46.4 104.9-27.2 104.9 4.9-.3 2.3 0 7.1-.2 5.8-.3 17-3.1 31-11.7 2.5-1.5 11.9-8.6 14.5-10.5" stroke-linejoin="round" stroke-width="5.625"/>
   <path d="m532.4 242.3c-48 60.1-85.6 120.6-108.4 181.9" stroke-width="5.625"/>
   <path d="m522.8 250.6c-6.9 7.8-15 16.6-21.7 25.1-31 39.4-59.4 87.3-76 139" stroke-width="7.5"/>
   <path d="m551.8 237.5c-9-2.7-14.6 1.4-19.6 6.4-5 5.1-9.2 11.2-14.7 19" stroke-width="3.75"/>
  </g>
  <g stroke-width="5.625">
   <path d="m429.6 410c-3.2 11.3-2.9 14.1-1.1 16.1 1.7 1.8 4.5 4 11.7 3.9" stroke="#111"/>
   <g stroke="#000" stroke-linejoin="round">
    <path d="m285.6 431.1c10.6-12.1 23.1-29.4 40-30.3 16-.6 21.6 31 32.6 30.7 7.2-.2 18.7-7.4 27.3-13.5"/>
    <path d="m486.1 407.6c12.7-11.5 29.1-19.2 44.7-20.9 30.4-3.3 45.4 10.1 35.5 43.9"/>
    <path d="m566.2 430.6 14.1-19.7"/>
    <path d="m640 454.4c8.9-2.5 17.1-4.3 25.9-2.9 16.5 4.5 12 40.6 30.1 37.6 5-.9 11.5-5.3 21-13.7"/>
    <path d="m580.3 410.9c28.4-40.9 69.2-93.2 89.1-109.1 83-65-28.8 162.3-88.2 186.6-16.3 3.7-17.4-2.3-12.1-8.1 15.8-12 25.7-14.6 70.9-25.9"/>
   </g>
  </g>
 </g>
</svg>
