<svg height="210mm" viewBox="0 0 1052.4 744.1" width="297mm" xmlns="http://www.w3.org/2000/svg">
 <g fill="none" stroke-linecap="round">
  <g transform="translate(0 -308.26772)">
   <path d="m57.6 742.2h948.8" stroke="#969696" stroke-width="1.875"/>
   <g stroke="#000" stroke-dasharray="3.75 7.5" stroke-miterlimit="2" stroke-width=".9375">
    <path d="m58.3 844.1h948.8"/>
    <path d="m58.3 641.8h948.8"/>
    <path d="m58.3 540.6h948.8"/>
   </g>
  </g>
  <g stroke="#000">
   <g stroke-linejoin="round">
    <path d="m495.4 430.8c-21.3 2.6 113.4-94.5 113.4-94.5" stroke-width="5.625"/>
    <path d="m495.4 430.8c3 .3 9.7-4.2 11-5 50.8-29 73.5-137 2.1-66.9" stroke-width="5.419139"/>
    <g stroke-width="5.625">
     <path d="m336.9 354c7.4-5.6 15.3-10.8 24.4-14.8 19.6-8.3 35 2.5 12.3 40.5l-31.2 52.3"/>
     <path d="m342.4 432 87.7-48.6 16.5 48"/>
     <path d="m446.6 431s46.1-56.9 61.9-72.1"/>
     <path d="m608.9 336.3s7.8 43.5 24.9 47.7c4.8 1.2 10.6 1.2 15.4.7 14.9-1.3 25.9-6.1 35-12.3 23.3-14.2 23.3-36.9 14.1-37.2-7.7-.3-25.9 3.2-49.4 42-27.2 44.4-21.2 55.5-5.6 53.9 15.3-1.5 27.2-11.9 37.8-23.6"/>
    </g>
    <path d="m614.9 339.4 6.6 26.7" stroke-width="7.5"/>
    <path d="m621.4 336.3c-1.3 13.6 4.2 27.1 4.8 40.7" stroke-width="5.625"/>
   </g>
   <path d="m624 356c-.3 10.4 6.8 27.1 13 27.9" stroke-width="3.75"/>
   <g stroke-width="5.625">
    <path d="m608.9 336.3h12.5"/>
    <path d="m797.5 234.7s-99.8 154.6-116.5 172.8" stroke-linejoin="round"/>
   </g>
  </g>
 </g>
</svg>
