<svg height="210mm" viewBox="0 0 1052.4 744.1" width="297mm" xmlns="http://www.w3.org/2000/svg">
 <g fill="none" stroke-linecap="round">
  <g transform="translate(0 -308.26772)">
   <path d="m57.6 742.2h948.8" stroke="#969696" stroke-width="1.875"/>
   <g stroke="#000" stroke-dasharray="3.75 7.5" stroke-miterlimit="2" stroke-width=".9375">
    <path d="m58.3 844.1h948.8"/>
    <path d="m58.3 641.8h948.8"/>
    <path d="m58.3 540.6h948.8"/>
   </g>
  </g>
  <g stroke="#000" stroke-linejoin="round" stroke-width="5.625">
   <path d="m464.7 390.1c27.6-31.5 45.9-55.3 66.6-55.1 6.2 0 11 2.2 13.5 5.8 3.4 4.8 2.7 12.3-4.2 20.5-17 20.4-31.6 35.3-37.9 46.4-4.1 7.1-3.9 12.2-1.5 17.5 2 4.5 6.6 5.8 12.9 5.8 19 1.7 37.2-24.3 52.7-43.8 16.2-21.4 27.8-41.2 46.7-42.1 18.6-.1 18.6 37.1 43.1 40.8 8.4 1.3 31-3.4 42.1-5.6"/>
   <path d="m368.2 337-56.7 94.9 98.4-47.4 20.1 47.2 34.8-41.6"/>
   <path d="m719.1 391.7c4.1 11.8-3.1 27.4-16 34.9s-26.7 4.1-30.8-7.6c-4.1-11.8 3.1-27.4 16-34.9s26.7-4.1 30.8 7.6z"/>
  </g>
 </g>
</svg>
