<svg height="210mm" viewBox="0 0 1052.4 744.1" width="297mm" xmlns="http://www.w3.org/2000/svg">
 <g fill="none" stroke-linecap="round">
  <g transform="translate(0 -308.26772)">
   <path d="m57.6 742.2h948.8" stroke="#969696" stroke-width="1.875"/>
   <g stroke="#000" stroke-dasharray="3.75 7.5" stroke-miterlimit="2" stroke-width=".9375">
    <path d="m58.3 844.1h948.8"/>
    <path d="m58.3 641.8h948.8"/>
    <path d="m58.3 540.6h948.8"/>
   </g>
  </g>
  <g stroke="#000" stroke-linejoin="round" stroke-width="5.625">
   <path d="m216.9 398.2 29.6-15.9-23.5 49 105-94.9-52.2 95.2 82.2-40.2"/>
   <path d="m358.1 391.5 19.5 40.3"/>
   <path d="m853.8 335.3c-43.1 47.4-177.6 68-175.1-.3l-82.2 96.8"/>
   <path d="m647.5 335.1-51.1 96.7"/>
   <path d="m471.2 335.5c-46.1 12-86.7 99.6-51.2 95.6 27.8-3.1 60.2-30 77.8-30.8 16.8-.7 18.6 30.9 34.2 31.1 16.8.2 43.6-24.4 115.5-96.4"/>
   <path d="m377.6 431.8s37.9-48.9 54.8-68.7"/>
  </g>
 </g>
</svg>
