<svg height="210mm" viewBox="0 0 1052.4 744.1" width="297mm" xmlns="http://www.w3.org/2000/svg">
 <g fill="none" stroke-linecap="round">
  <g transform="translate(0 -308.26772)">
   <path d="m57.6 742.2h948.8" stroke="#969696" stroke-width="1.875"/>
   <g stroke="#000" stroke-dasharray="3.75 7.5" stroke-miterlimit="2" stroke-width=".9375">
    <path d="m58.3 844.1h948.8"/>
    <path d="m58.3 641.8h948.8"/>
    <path d="m58.3 540.6h948.8"/>
   </g>
  </g>
  <g stroke="#000" stroke-linejoin="round">
   <ellipse cx="516.81427" cy="96.486992" rx="4.609393" ry="6.862875" stroke-width="5.625" transform="matrix(.72846687 .68508103 -.68508103 .72846687 0 0)"/>
   <path d="m307.3 430.1c3.8 1 15.1-.3 24.8-2.7 59-13.6 116.2-30.5 178.4-42.9 7.9-1.5 13.4-2.2 15.9-2.3 3.2-.1 6.1 0 8.8.5 16.7 3.1 23.9 18.8 16.5 48.8" stroke-width="5.625001"/>
   <g stroke-width="5.624999">
    <path d="m551.6 431.5 88.8-44.2 21.3 44.2"/>
    <path d="m661.8 431.5 88.8-44.2 21.3 44.2"/>
   </g>
  </g>
 </g>
</svg>
