<svg height="210mm" viewBox="0 0 1052.4 744.1" width="297mm" xmlns="http://www.w3.org/2000/svg">
 <g fill="none" stroke-linecap="round">
  <g transform="translate(0 -308.26772)">
   <path d="m57.6 742.2h948.8" stroke="#969696" stroke-width="1.875"/>
   <g stroke="#000" stroke-dasharray="3.75 7.5" stroke-miterlimit="2" stroke-width=".9375">
    <path d="m58.3 844.1h948.8"/>
    <path d="m58.3 641.8h948.8"/>
    <path d="m58.3 540.6h948.8"/>
   </g>
  </g>
  <g stroke="#000" stroke-linejoin="round" stroke-width="5.625">
   <path d="m352.8 430.4c6.5.3 10.2-3.5 12.4-5.8 12.5-13.4 32.9-62.3 46.6-76.8 16.9-17.9 26.9-18.3 33.4-5.7 6.5 12.7 4 18.2 12.3 27.2 15.9 17.3 43.8-27.8 34.5-34.3-6.3-4.4-25.9 3.2-49.4 42-25.3 41.4-21.6 52.6-8.7 54 5.1.5 7.1.7 25.9-7.5s59.1-64.1 59.1-64.1"/>
   <path d="m419.6 340.4c9.6-6.8 18 4.1 21.6 15.8 3.2 10.5 8.7 18 23.9 17.1"/>
   <path d="m431.5 336.6c13.6.7 15.1 28.3 22.1 30"/>
   <path d="m358.6 416.1c.9.1 1.7.3 2.4.6.2.1.4.2.6.4 1.2.9 1.6 2.4.9 4.9-1.3 4.8-6.7 7.5-9.2 8.5-5.3 1.9-9.3-2.5-6.2-7.2 1.9-3 5.2-6.2 9.1-7 .3-.1.5-.1.8-.1s.7-.1 1-.1c.8 0 1.5.1 2.3.3"/>
   <path d="m518.7 359.4c24.3-33 69.8-34.2 37.2 20l-31.5 52.1"/>
   <path d="m524.4 431.6 68.5-78"/>
   <path d="m592.9 353.6c18.4-24.8 63.9-37.1 63.4 29.4-.2 33.3 15.8 47.8 30.1 47.7 13.5-.1 25.8.6 36.9-7.6"/>
   <path d="m626.3 333.7c12.3-1.3 35.4 13.9 35.2 45.8-.2 30.1 8.2 53 28.3 51.2"/>
   <path d="m626.3 333.7c17-.9 25 18 24.8 49.9-.2 30.1 13.3 47.8 38.7 47.1"/>
  </g>
 </g>
</svg>
