<svg height="210mm" viewBox="0 0 1052.4 744.1" width="297mm" xmlns="http://www.w3.org/2000/svg">
 <g fill="none" stroke-linecap="round">
  <g transform="translate(0 -308.26772)">
   <path d="m57.6 742.2h948.8" stroke="#969696" stroke-width="1.875"/>
   <g stroke="#000" stroke-dasharray="3.75 7.5" stroke-miterlimit="2" stroke-width=".9375">
    <path d="m58.3 844.1h948.8"/>
    <path d="m58.3 641.8h948.8"/>
    <path d="m58.3 540.6h948.8"/>
   </g>
  </g>
  <g stroke="#000">
   <g stroke-linejoin="round">
    <g stroke-width="5.625">
     <ellipse cx="93.596779" cy="589.41949" rx="25.728558" ry="20.371416" transform="matrix(.79083574 -.61202846 .61202846 .79083574 0 0)"/>
     <path d="m484.8 331.7-65.7 64"/>
     <path d="m534.7 286.9c-2.9 2-23 20.1-49.9 44.8"/>
    </g>
    <path d="m496 380.4c8.8.6 35-26.8 42-37.4 20.7-32.1 24.7-70.8-3.3-56" stroke-width="5.419139"/>
    <g stroke-width="5.625">
     <path d="m496 380.4c-13.4-1.5 64.5-34.8 85-43.1"/>
     <ellipse cx="244.0451" cy="641.42664" rx="25.728558" ry="20.371416" transform="matrix(.79083574 -.61202846 .61202846 .79083574 0 0)"/>
    </g>
   </g>
   <path d="m685.3 147.3-121.2 205.3" stroke-width="5.625"/>
  </g>
 </g>
</svg>
