<svg height="210mm" viewBox="0 0 1052.4 744.1" width="297mm" xmlns="http://www.w3.org/2000/svg">
 <g fill="none" stroke-linecap="round">
  <g transform="translate(0 -308.26772)">
   <path d="m57.6 742.2h948.8" stroke="#969696" stroke-width="1.875"/>
   <g stroke="#000" stroke-dasharray="3.75 7.5" stroke-miterlimit="2" stroke-width=".9375">
    <path d="m58.3 844.1h948.8"/>
    <path d="m58.3 641.8h948.8"/>
    <path d="m58.3 540.6h948.8"/>
   </g>
  </g>
  <g stroke="#000" stroke-linejoin="round" stroke-width="5.625">
   <path d="m459.8 431.8c14.1.5 34.8 0 54.4-19.8"/>
   <path d="m490.8 414.4c1 .1 1.8.3 2.5.7.2.1.4.2.6.4 1.2.9 1.7 2.6 1 5.2-1.3 5.1-7.1 8-9.8 9-5.7 2-9.8-2.6-6.6-7.6 2-3.1 5.5-6.6 9.7-7.5.3-.1.6-.1.9-.1s.7-.1 1-.1c.8 0 1.6.1 2.4.3"/>
   <path d="m514.1 412.1c16.6-20.1 33-47.7 47-59.8 24.9-25.2 60.4-22.2 30.7 27.6l-31.2 52.3"/>
   <path d="m560.6 432.2 54.9-35.8"/>
   <path d="m622.2 534.7c28.5-22.6 35.5-31.4 39-55.7 1.8-12.5-2.6-28-12.8-37.6-5-4.7-11-8.4-17-11.7-8.5-4.8-11.8-5.8-17.2-11.5-6-6.3-5-21.2 9.8-27.5"/>
   <path d="m450.2 390.2c38-34.9 60.8-60.3 72.4-72.5 31.8-37.4 41.6-75.3 16.3-82.3-35.6-5.3-49.7 16.6-68.8 72.9-9.6 31.6-38.1 118.7-10.2 123.5"/>
   <path d="m450.2 390.2c-54.3 61.9-108 48.6-94.2 1.1"/>
  </g>
 </g>
</svg>
