<svg height="210mm" viewBox="0 0 1052.4 744.1" width="297mm" xmlns="http://www.w3.org/2000/svg">
 <g fill="none" stroke-linecap="round">
  <g transform="translate(0 -308.26772)">
   <path d="m57.6 742.2h948.8" stroke="#969696" stroke-width="1.875"/>
   <g stroke="#000" stroke-dasharray="3.75 7.5" stroke-miterlimit="2" stroke-width=".9375">
    <path d="m58.3 844.1h948.8"/>
    <path d="m58.3 641.8h948.8"/>
    <path d="m58.3 540.6h948.8"/>
   </g>
  </g>
  <g stroke="#000">
   <g stroke-linejoin="round">
    <g stroke-width="5.625">
     <path d="m439.2 419.9c-1.8 1.1-26.6 17.8-28.5 19.1-32.5 22-71.6 74.4-63.5 89.5 4.9 9.2 28.4 7.7 48.3-24.3 8.5-13.7 17.7-31 19.9-61.8 5-69.6 61.5-130.8 63.7-98.7 1 14.3-19.5 43.7-53.3 56.7"/>
     <path d="m523.9 346.3c-23.6 28.1-59.9 56.6-84.8 73.6"/>
     <path d="m522.7 335.5c.7-.1 1.4-.2 2-.1.2 0 .4.1.5.1 1.1.4 1.8 1.5 1.9 3.6.2 4-3.4 7.5-5.2 8.8-3.7 2.8-7.8.3-6.6-4.1.8-2.8 2.6-6.1 5.4-7.6l.6-.3c.2-.1.5-.2.8-.3.6-.2 1.2-.3 1.9-.3"/>
     <path d="m139.2 360c9.3-12.6 18-18.1 26.2-21.7 24.8-6.9 35 2.5 12.3 40.5l-29.8 52.1"/>
     <path d="m151 419.4c19.6-4.1 48.8-30.4 57-38.7"/>
     <path d="m208 380.7c21.8-23.2 34.1-35 53.1-41.3 37.3-12.3 58.5 3.2 48 40.3"/>
    </g>
    <path d="m299.8 341.5c7.1 5.9 8.1 27.1 3.2 37.8" stroke-width="6.5625"/>
    <path d="m287.2 335.1c16.4 3.3 16.8 35.2 10.1 45.2" stroke-width="4.6875"/>
   </g>
   <g stroke-width="5.625">
    <path d="m298 380.4 10.5.1"/>
    <g stroke-linejoin="round">
     <path d="m154.9 407.5c.8.1 1.4.2 1.9.5.2.1.3.2.5.3.9.7 1.3 2 .8 4-1 3.9-5.4 6.1-7.5 6.9-4.3 1.6-7.6-2-5.1-5.9 1.6-2.4 4.2-5.1 7.4-5.7.2 0 .4-.1.7-.1s.5-.1.8-.1c.6 0 1.2.1 1.9.3"/>
     <path d="m309.1 379.7s44.9-34.1 58.5-40.6"/>
     <ellipse cx="77.56044" cy="513.26886" rx="25.728558" ry="20.371416" transform="matrix(.79083574 -.61202846 .61202846 .79083574 0 0)"/>
     <path d="m575.3 385.2-55.8 97.2"/>
     <path d="m575.3 385.2h-10.6"/>
     <path d="m569.7 385.2-55.8 97.2"/>
     <path d="m519.4 482.5h-10.6"/>
     <path d="m495.5 430.8 69.2-45.5-55.8 97.2 11-.1c55.8-21.4 162.6-62.7 209.8-82.9"/>
     <path d="m730.4 399.1c37-20.1 60.9-14.6 37.5 14.4-27.4 33.8-45.5 50.2-39.4 63.9 4.2 9.6 23.1 7.2 36.5-3.7l8-6.5"/>
     <path d="m857.8 388.6-55.8 97.2"/>
     <path d="m857.8 388.6h-10.6"/>
     <path d="m852.3 388.6-55.8 97.2"/>
     <path d="m802 485.8h-10.6"/>
     <path d="m773 467.2 74.3-78.6-55.8 97.2 11-.1"/>
    </g>
   </g>
  </g>
 </g>
</svg>
