<svg height="210mm" viewBox="0 0 1052.4 744.1" width="297mm" xmlns="http://www.w3.org/2000/svg">
 <g fill="none" stroke-linecap="round">
  <g transform="translate(0 -308.26772)">
   <path d="m57.6 742.2h948.8" stroke="#969696" stroke-width="1.875"/>
   <g stroke="#000" stroke-dasharray="3.75 7.5" stroke-miterlimit="2" stroke-width=".9375">
    <path d="m58.3 844.1h948.8"/>
    <path d="m58.3 641.8h948.8"/>
    <path d="m58.3 540.6h948.8"/>
   </g>
  </g>
  <g stroke="#000">
   <path d="m72.2 430.1h53" stroke-width="5.625"/>
   <g stroke-linejoin="round">
    <path d="m144.2 413.8c.9.1 1.7.3 2.3.6.2.1.4.2.6.4 1.1.9 1.5 2.4.9 4.7-1.2 4.6-6.5 7.3-8.9 8.2-5.2 1.9-9-2.4-6-6.9 1.8-2.9 5-6 8.8-6.8.3-.1.5-.1.8-.1s.6-.1 1-.1c.7 0 1.5.1 2.2.3" stroke-width="6.673847"/>
    <path d="m140.8 417.2c.4 0 .7.1 1 .3.1 0 .2.1.3.2.5.4.7 1 .4 2.1-.5 2.1-2.8 3.3-4 3.7-2.3.9-4-1-2.7-3.1.8-1.3 2.2-2.7 3.9-3.1.1 0 .2 0 .3-.1h.4c.3 0 .7 0 1 .1" stroke-width="5.909818"/>
    <g stroke-width="5.625">
     <path d="m125.2 430.1 21.3.2c2.1-.3 6.3-1.6 8.4-3.8l40.5-43.6 20 47.9"/>
     <path d="m942.8 398.9c-39.5 20.6-102.1 51.6-130.2 81.4-20.7 21.8-23.2 40-8.9 48.2 0 0 25.5 22.7 69-38.3 26.9-36.9 51.6-77.4 66.3-120.4 15.5-30.1-4.2-56.2-51.5-6.8"/>
    </g>
   </g>
  </g>
  <path d="m942.8 398.9 37-16.3 17.2 48.6" stroke="#060000" stroke-linejoin="round" stroke-width="5.625"/>
 </g>
 <path d="m787.9 321.2a11.6 11.6 0 0 1 -11.6 11.6 11.6 11.6 0 0 1 -11.6-11.6 11.6 11.6 0 0 1 11.6-11.7 11.6 11.6 0 0 1 11.7 11.6"/>
 <g fill="none" stroke="#000" stroke-linecap="round" stroke-linejoin="round">
  <g stroke-width="5.625">
   <path d="m404.6 423.7c60.2-49.4 184.6-166.5 163.9-185-11.5-10.2-40.3 8.9-87.4 86.8-69.6 120.2-36 123.1 7.3 84"/>
   <path d="m538.9 357.3c-13.4 13.8-40.2 42.7-50.6 52.2"/>
   <path d="m538.9 357.3c16.7-15.2 29.5-20.8 44.5-21.9 18.2-1.3 35.6 9.8 34.9 48.7-1.1 59.2 48.5 53.1 68.5 34.9"/>
  </g>
  <path d="m588.4 335.4c12.3-1.3 35.4 13.7 35.2 45.3-.2 29.7 8.2 52.5 28.3 50.7" stroke-width="5.592408"/>
  <path d="m588.4 335.4c17-.9 25 17.7 24.8 49.3-.2 29.7 15 45.7 38.7 46.9" stroke-width="5.592408"/>
  <g stroke-width="5.625">
   <path d="m297.1 431.4s44.6-32.4 61.8-29.2 16 46.2 45.6 21.5"/>
   <path d="m344.5 404.5c5.4-2.4 14.4-.8 22.3 16.5 5.6 12.2 16.2 10.3 22.8 10.3"/>
   <path d="m355.6 404.2c7.6 3.9 5 .9 19.8 23.5"/>
  </g>
 </g>
</svg>
