<svg height="210mm" viewBox="0 0 1052.4 744.1" width="297mm" xmlns="http://www.w3.org/2000/svg">
 <g fill="none" stroke-linecap="round">
  <g transform="translate(0 -308.26772)">
   <path d="m57.6 742.2h948.8" stroke="#969696" stroke-width="1.875"/>
   <g stroke="#000" stroke-dasharray="3.75 7.5" stroke-miterlimit="2" stroke-width=".9375">
    <path d="m58.3 844.1h948.8"/>
    <path d="m58.3 641.8h948.8"/>
    <path d="m58.3 540.6h948.8"/>
   </g>
  </g>
  <g stroke-linejoin="round">
   <g stroke="#000">
    <path d="m633.7 404.3c1.4.1 2.7.4 3.6 1 .3.2.6.4.9.6 1.8 1.4 2.4 3.7 1.4 7.5-1.9 7.3-10.2 11.5-14.1 13-8.1 2.9-14.2-3.8-9.5-11 2.9-4.5 8-9.5 13.9-10.7.4-.1.8-.2 1.2-.2.5-.1 1-.1 1.5-.1 1.1 0 2.3.2 3.5.5" stroke-width="10.905816"/>
    <path d="m665.4 405.3c-.2-.1-5.6 8-12.7 14.4-4.7 4.3-11 7.5-14.1 8.5-7.8 2.6-30.4 3.3-43.5 2.1s-34.5-8.3-34.5-8.3c-5-1.2-6.8 1.6-7.4 2.6-2 3.2-.1 6.3 5 6.8 3 .3 9.8-4.3 11.2-5.1 10.9-6.3 20.6-16.1 28.3-27.1 27.6-39.1 30.9-92.3-18.7-48.1" stroke-width="5.625"/>
    <path d="m630.1 412.8c.5 0 .8.1 1.2.3.1.1.2.1.3.2.6.4.8 1.2.5 2.4-.6 2.3-3.3 3.7-4.5 4.2-2.6.9-4.5-1.2-3.1-3.5.9-1.4 2.5-3 4.5-3.4.1 0 .3 0 .4-.1h.5c.4 0 .7 0 1.1.2" stroke-width="11.88091"/>
    <g stroke-width="5.625">
     <path d="m525.4 335.8-43 72.1c-9 15.2 5 26.1 21.5 22.2 13.3-3.3 21-11.4 30.9-23.4 8.5-9.5 32.9-44.8 44.2-55.6"/>
     <path d="m525.4 335.8c-23.2 31.5-67.3 65.9-97.8 76.9-18 6.5-35.6 10.4-52 13.4-76.3 14.1-130.9-1.9-133.4-37.6"/>
    </g>
   </g>
   <g stroke-width="5.624959">
    <path d="m786.7 237.1c-.5-.5-.9-.8-1.4-1.1-.2-.2-.7-.4-.9-.5s-.4-.3-.6-.3c-9 1.9-6.3 3.2-9 1.9-1.5-.7 2.2 10.4 5.2 9.2 1.9.3 6.1-.4 7.6-3.8.7-1.7.6-3.1-.1-4.3-.2-.2-.3-.4-.5-.5-2.6-7.5-15-.3-23.2 7.8-3.9 3.7-11.1 11.5-17.1 21.6-12.4 20.2-81.4 138.2-81.4 138.2" stroke="#00001f"/>
    <path d="m787 237.8c.5.9-1.3 2.8-3.9 4.3s-5.1 2-5.6 1.1 1.2-2.8 3.8-4.3 5.2-2 5.7-1.1l-4.8 2.7z" stroke="#000"/>
   </g>
  </g>
 </g>
</svg>
