<svg height="210mm" viewBox="0 0 1052.4 744.1" width="297mm" xmlns="http://www.w3.org/2000/svg">
 <g fill="none" stroke-linecap="round">
  <g transform="translate(0 -308.26772)">
   <path d="m57.6 742.2h948.8" stroke="#969696" stroke-width="1.875"/>
   <g stroke="#000" stroke-dasharray="3.75 7.5" stroke-miterlimit="2" stroke-width=".9375">
    <path d="m58.3 844.1h948.8"/>
    <path d="m58.3 641.8h948.8"/>
    <path d="m58.3 540.6h948.8"/>
   </g>
  </g>
  <g stroke="#000" stroke-linejoin="round">
   <path d="m436.2 336.8c-36.1 11.7-76.7 91.2-52.3 94.1 6.6.8 19.1-2.5 35.2-17.1l29.4-26.5" stroke-width="5.475465"/>
   <path d="m448.6 387.3s17.6-17.1 18.3-17.8c57.9-51.3 106-43.9 88.5 10.6" stroke-width="5.475465"/>
   <path d="m276.3 430.9c1.5 1.1 3.2 1 5.7.7 3.5-1.3 6.9-2 10.1-3.8 2.2-1.2 4.3-2.5 6.3-4 29.7-24.7 44.7-55.5 65.4-89" stroke-width="5.625"/>
   <path d="m276.3 430.9c-4.7-2.9 121.7-71.3 149.7-89.2" stroke-width="5.625"/>
   <path d="m555.4 380.1 28.9-1.7" stroke-width="5.475465"/>
   <g stroke-width="5.625">
    <path d="m602.2 492c27-19.9 33.6-38.9 37-60.3 3-34.9-35.1-36.8-54.9-53.3"/>
    <path d="m596.9 360.4c1.1.1 2.1.4 2.9.8.3.1.5.3.7.5 1.4 1.1 1.9 3 1.1 6-1.5 5.8-8.1 9.2-11.3 10.4-6.5 2.4-11.3-3-7.6-8.8 2.3-3.6 6.3-7.6 11.1-8.6.3-.1.6-.1 1-.2s.8-.1 1.2-.1c.9 0 1.8.1 2.8.4"/>
   </g>
  </g>
 </g>
</svg>
