<svg height="210mm" viewBox="0 0 1052.4 744.1" width="297mm" xmlns="http://www.w3.org/2000/svg">
 <g fill="none" stroke-linecap="round">
  <g transform="translate(0 -308.26772)">
   <path d="m57.6 742.2h948.8" stroke="#969696" stroke-width="1.875"/>
   <g stroke="#000" stroke-dasharray="3.75 7.5" stroke-miterlimit="2" stroke-width=".9375">
    <path d="m58.3 844.1h948.8"/>
    <path d="m58.3 641.8h948.8"/>
    <path d="m58.3 540.6h948.8"/>
   </g>
  </g>
  <path d="m219.6 432.3c-39.4 19.7-107.3 83.2-81.8 98.7 9.9 5.5 23.1-1.1 49.3-43.2l89.2-152.4" stroke="#000" stroke-linejoin="round" stroke-width="5.625"/>
  <path d="m218.4 432.9 156.8-90.6 184.9-106.8" stroke="#000001" stroke-linejoin="round" stroke-width="5.625"/>
  <g stroke="#000">
   <path d="m541.3 384.7 20.5 46.3" stroke-linejoin="round" stroke-width="5.625"/>
   <path d="m561.8 431s216.6-38.7 226.9-40.3c7.5-1.2 11.8-1.9 18.5-2.3 2.5-.1 9.8-.1 12.4.9 2.8 1 5 2.6 6.6 4.7 3.7 5.2 3.1 13.5-5.1 23.4-24.4 29.4-45.3 42.8-38 58.3 2.6 5.6 9.3 8 16.3 7.4 27-3.4 51.5-16.6 78.4-46.5" stroke-linejoin="round" stroke-width="5.625"/>
   <path d="m819.7 389.2c18.1 7 7 30.7-9.3 46.5-14 13.6-22.7 27.7-28.7 39.7" stroke-width="5.472634"/>
   <path d="m822.6 391c.8-1.1 3.6 6 .5 13.9-3.2 8.2-12.5 19.1-17.8 24.2-10.5 9.9-29.8 30.2-23.7 46.5" stroke-width="5.472634"/>
   <g stroke-width="2.736317">
    <path d="m806.8 389.9c16.3-1.1 18.1 10.3 13.2 18.4"/>
    <path d="m789.6 464c-4.7 6.9-2.7 17.8 6.4 17.8"/>
    <path d="m779.2 469.7c-.2 9 7 13.4 12.9 14.5"/>
    <path d="m785.2 469.6c-.7 2.8-.5 5.7.3 8.2"/>
   </g>
  </g>
 </g>
</svg>
