<svg height="210mm" viewBox="0 0 1052.4 744.1" width="297mm" xmlns="http://www.w3.org/2000/svg">
 <g fill="none" stroke-linecap="round">
  <g transform="translate(0 -308.26772)">
   <path d="m57.6 742.2h948.8" stroke="#969696" stroke-width="1.875"/>
   <g stroke="#000" stroke-dasharray="3.75 7.5" stroke-miterlimit="2" stroke-width=".9375">
    <path d="m58.3 844.1h948.8"/>
    <path d="m58.3 641.8h948.8"/>
    <path d="m58.3 540.6h948.8"/>
   </g>
  </g>
  <g stroke="#000" stroke-linejoin="round" stroke-width="5.625">
   <path d="m408.9 395.8 94.1-59.3-51.1 94.9"/>
   <path d="m408.9 395.8c-1.8.8-52.1 29.9-57 33.1-38.6 25.5-75.3 86.2-66.9 101.4 2.9 5.3 34.7 12.4 62.3-63.3 15.8-47.4 16.5-113.3 70.8-131.6"/>
   <path d="m451.9 431.4s116.7-141.5 141.8-147.5c10.7-2.7 14.3.7 18.7 3.2 5.8 3.3 5 13.6 1.6 26.2-6.8 20.4-25.4 67.5-25.4 67.5"/>
   <path d="m389.6 352.6s-68.3 63.3-81.7 71.5c-4.6 3.6-11.2 5.3-14 5.9-16.5 3.8-29.8-6.7-21.5-22.2l39-72.4"/>
   <path d="m588.6 380.8 53.9-39.1"/>
   <path d="m649.3 479.9c28.5-22.6 35.5-31.4 39-55.7 1.8-12.5-2.6-28-12.8-37.6-5-4.7-11-8.4-17-11.7-8.5-4.8-11.8-5.8-17.2-11.5-6-6.3-5-21.2 9.8-27.5"/>
  </g>
 </g>
</svg>
