<svg height="210mm" viewBox="0 0 1052.4 744.1" width="297mm" xmlns="http://www.w3.org/2000/svg">
 <g fill="none" stroke-linecap="round">
  <g transform="translate(0 -308.26772)">
   <path d="m57.6 742.2h948.8" stroke="#969696" stroke-width="1.875"/>
   <g stroke="#000" stroke-dasharray="3.75 7.5" stroke-miterlimit="2" stroke-width=".9375">
    <path d="m58.3 844.1h948.8"/>
    <path d="m58.3 641.8h948.8"/>
    <path d="m58.3 540.6h948.8"/>
   </g>
  </g>
  <g stroke-linejoin="round" stroke-width="5.625">
   <path d="m284 355c30.1-37.8 75.1-13.3 1.7 28.9 44.5-17.9 9.4 21.5-8.4 47.1" stroke="#000"/>
   <path d="m459 477.7c8.7-3 87-76.9 87-76.9" stroke="#060000"/>
   <g stroke="#000">
    <path d="m277.4 431 56.5-40.9 51.2 93.9s71.9-64 78.3-79.7"/>
    <path d="m445.8 483.5c17.9-4.9 27.5-16.7 27.3-25.9-1.1-20.7-47.4-26.8-49-48.9-.3-8.7 9.9-17.8 19.6-20.3 15.9-4 23.4 4.5 19.6 15.9"/>
    <path d="m555.3 462.7 28.9-25.8"/>
    <path d="m703.7 483c5.4-3.3 11.7-10.5 6.5-17.1-2.6-3.3-4-4.5-11.9-4.4l-98.8.6c-6.7.1-14.3.2-15.9-.7-10.5-5.8-7.4-13.7.5-24.6"/>
    <path d="m703.7 483 46.5-41.8"/>
    <path d="m569.8 388.3c-56.6 14.8-104.6 143.3-14.6 74.3"/>
    <path d="m750.2 441.3c11.6-4.9 22.7-7.6 29.9-4.4.7.3 3 1.2 4.2 2.8 3.6 2.8 4.3 7.5 2.9 15.3-2.7 14.7-19.7 23.3-29 26.7-16.7 6-29.1-7.7-19.5-22.5 38.7-57.4 76.4-113.8 117.6-173.8"/>
   </g>
  </g>
 </g>
</svg>
