<svg height="210mm" viewBox="0 0 1052.4 744.1" width="297mm" xmlns="http://www.w3.org/2000/svg">
 <g fill="none" stroke-linecap="round">
  <g transform="translate(0 -308.26772)">
   <path d="m57.6 742.2h948.8" stroke="#969696" stroke-width="1.875"/>
   <g stroke="#000" stroke-dasharray="3.75 7.5" stroke-miterlimit="2" stroke-width=".9375">
    <path d="m58.3 844.1h948.8"/>
    <path d="m58.3 641.8h948.8"/>
    <path d="m58.3 540.6h948.8"/>
   </g>
  </g>
  <g stroke="#000" stroke-linejoin="round" stroke-width="5.625">
   <path d="m390.2 273c155.8-137.6 7.9 130.4-47 158.9"/>
   <path d="m343.2 431.9c-10.2-3.5 93.4-77 109-85.6 10.7-5.9 21.5-10.1 31.2-10.5 24-.8 31.7 45.7 52.1 45.6 17-.1 27.6-8.5 43.8-21.6"/>
   <path d="m579.4 359.7 29.9-23.4c1-.8-25.9 49.6-25.9 49.6"/>
   <path d="m616.2 339.1-25.3 46.6"/>
   <path d="m595.4 385.6-12 .2"/>
   <path d="m623.1 336.1-27.7 49.5"/>
   <path d="m623.1 336.1-14.1-.1"/>
   <path d="m614.4 337.3-25.3 46.6"/>
  </g>
 </g>
</svg>
