<svg height="210mm" viewBox="0 0 1052.4 744.1" width="297mm" xmlns="http://www.w3.org/2000/svg">
 <g fill="none" stroke-linecap="round">
  <g transform="translate(0 -308.26772)">
   <path d="m57.6 742.2h948.8" stroke="#969696" stroke-width="1.875"/>
   <g stroke="#000" stroke-dasharray="3.75 7.5" stroke-miterlimit="2" stroke-width=".9375">
    <path d="m58.3 844.1h948.8"/>
    <path d="m58.3 641.8h948.8"/>
    <path d="m58.3 540.6h948.8"/>
   </g>
  </g>
  <g stroke="#000" stroke-linejoin="round" stroke-width="5.625">
   <path d="m516.1 304.8s-132.3 132.9-134.2 134.2c-32.5 22-71.6 74.4-63.5 89.5 4.9 9.2 28.4 7.7 48.3-24.3 8.5-13.7 17.7-31 19.9-61.8 5-69.6 41.1-122.1 68-104.4 11.2 7.4-22.9 49.1-54.2 46.7"/>
   <path d="m574.8 360.4c1.1-.2 2-.3 2.8-.1.3 0 .5.1.8.2 1.6.6 2.6 2.1 2.7 5.1.2 5.7-4.8 10.5-7.3 12.5-5.2 3.9-11 .4-9.3-5.8 1.1-3.9 3.6-8.6 7.7-10.8.3-.2.6-.3.8-.4.3-.2.7-.3 1.1-.4.8-.3 1.7-.4 2.6-.4"/>
   <path d="m516.1 304.8c29.1-31.6 69.8-30.9 37.2 23.3l-31.5 52.1 47.5-.6"/>
   <path d="m659.6 382 25.2-37.6"/>
   <path d="m632.6 336.1-42.4 73.1c-11.9 20.5 8.4 28.4 31.3 14.4 13.8-9.8 30.4-30.4 38.1-41.6"/>
   <path d="m682.1 335c1 .1 1.8.3 2.5.7.2.1.4.2.6.4 1.2.9 1.7 2.6 1 5.2-1.3 5.1-7.1 8-9.8 9-5.7 2-9.8-2.6-6.6-7.6 2-3.1 5.5-6.6 9.7-7.5.3-.1.6-.1.9-.1s.7-.1 1-.1c.8 0 1.6.1 2.4.3"/>
   <path d="m677.2 350.1c26.5-6.9 70.7-27.8 76.4-31.3 13.3-8.1 39.4-21.8 34-39.6-2.8-7.3-34.7-8.6-58.5 30.7-26.3 43.1-17.7 60.3-4.2 58.6 6.4-.6 13.2-1.8 23-7.8"/>
   <path d="m573.7 378.1c3.4-.8 58.9-41.9 58.9-41.9"/>
  </g>
 </g>
</svg>
