<svg height="210mm" viewBox="0 0 1052.4 744.1" width="297mm" xmlns="http://www.w3.org/2000/svg">
 <g fill="none" stroke-linecap="round">
  <g transform="translate(0 -308.26772)">
   <path d="m57.6 742.2h948.8" stroke="#969696" stroke-width="1.875"/>
   <g stroke="#000" stroke-dasharray="3.75 7.5" stroke-miterlimit="2" stroke-width=".9375">
    <path d="m58.3 844.1h948.8"/>
    <path d="m58.3 641.8h948.8"/>
    <path d="m58.3 540.6h948.8"/>
   </g>
  </g>
  <g stroke="#000">
   <g stroke-linejoin="round" stroke-width="5.625">
    <path d="m254.8 430.7c22.5-8.9 52.2-48.9 60.4-86.1s38.8-96.5 73.8-109.9"/>
    <ellipse cx="75.441765" cy="511.30948" rx="25.728558" ry="20.371416" transform="matrix(.79083574 -.61202846 .61202846 .79083574 0 0)"/>
    <path d="m359.1 342.5s-113.6 88.6-104.3 88.3"/>
    <path d="m448.4 235-94.3 111.7"/>
    <path d="m766.8 181.2c-80.8 50.1-203.5 101.3-255.9 100.5-34.8-.6-63.1-12.1-62.6-46.7"/>
    <path d="m766.8 181.2 33.3 47.9"/>
    <path d="m766.8 181.2 24 48"/>
    <path d="m776.3 181.3 23.8 47.9"/>
    <path d="m772.4 181.1 24 48"/>
   </g>
   <g stroke-width="3.75">
    <path d="m769.1 180.2h7.1"/>
    <path d="m792.5 230.1h7.1"/>
   </g>
  </g>
 </g>
</svg>
