<svg height="210mm" viewBox="0 0 1052.4 744.1" width="297mm" xmlns="http://www.w3.org/2000/svg">
 <g fill="none" stroke-linecap="round">
  <g transform="translate(0 -308.26772)">
   <path d="m57.6 742.2h948.8" stroke="#969696" stroke-width="1.875"/>
   <g stroke="#000" stroke-dasharray="3.75 7.5" stroke-miterlimit="2" stroke-width=".9375">
    <path d="m58.3 844.1h948.8"/>
    <path d="m58.3 641.8h948.8"/>
    <path d="m58.3 540.6h948.8"/>
   </g>
  </g>
  <g stroke="#000" stroke-linejoin="round">
   <g stroke-width="5.625">
    <path d="m639.1 312.5s-134.6 125.2-136.5 126.5c-32.5 22-71.6 74.4-63.5 89.5 4.9 9.2 28.4 7.7 48.3-24.3 8.5-13.7 17.7-31 19.9-61.8 5-69.6 41.1-122.1 68-104.4 5.9 3.9-.8 17.4-13.1 28.9"/>
    <ellipse cx="440.28949" cy="617.05927" rx="60.269478" ry="43.297039" transform="matrix(.88109295 -.47294313 .47294313 .88109295 0 0)"/>
    <path d="m366.1 385.4c7.5-.9 13.4-1.7 14.7-1.9 31.1-5.1 46.3-36.3 43.5-43.7-2.8-7.3-28.8-4.3-52.7 35l-31.8 56.4"/>
    <path d="m481.1 337.9c-12.5 3.8-141.2 93.4-141.2 93.4"/>
   </g>
   <path d="m440.4 431.9c45.8-19.2 84.6-108.1 40.7-94" stroke-width="5.419139"/>
   <path d="m562.1 366.9c-16.6 15.6-140.1 64.6-121.7 65" stroke-width="5.625"/>
  </g>
 </g>
</svg>
