<svg height="210mm" viewBox="0 0 1052.4 744.1" width="297mm" xmlns="http://www.w3.org/2000/svg">
 <g fill="none" stroke-linecap="round">
  <g transform="translate(0 -308.26772)">
   <path d="m57.6 742.2h948.8" stroke="#969696" stroke-width="1.875"/>
   <g stroke="#000" stroke-dasharray="3.75 7.5" stroke-miterlimit="2" stroke-width=".9375">
    <path d="m58.3 844.1h948.8"/>
    <path d="m58.3 641.8h948.8"/>
    <path d="m58.3 540.6h948.8"/>
   </g>
  </g>
  <g stroke="#000">
   <g stroke-width="5.625">
    <path d="m369.8 378.8c21.4 1.9 293.4-175.1 299.2-178.4 29.2-16.6 46.1-8.6 22.8 31.1l-92.1 157.2 32.5-28.3" stroke-linejoin="round"/>
    <path d="m632.2 360.5c56.1-42.9 182.5-164.5 146.7-167.5-15.3-1.3-42.6 12.2-89.8 90.1-60.3 104.2-35 118.2-1.1 97.4 2.5-.7 12.4-9.2 22.4-19.3" stroke-linejoin="round"/>
    <path d="m762.4 197.6c-48 60-85.6 120.6-108.4 181.8"/>
   </g>
   <path d="m751.4 207.7c-38.3 44.9-72.9 96.9-94.8 156.8" stroke-width="7.5"/>
   <path d="m780.9 194.1c-14-7.4-25.6 13.8-28 16.8" stroke-width="3.75"/>
   <g stroke-width="5.625">
    <path d="m659.6 365.3c-6.1 21.8-1.8 23 13.1 22.7"/>
    <path d="m760.1 293.6c-6 11.4-35.7 51-49.7 67.7" stroke-linejoin="round"/>
   </g>
  </g>
  <g stroke-linejoin="round" stroke-width="5.625">
   <path d="m369.8 378.8c-14.3 4.1-17.5-5.3 3.1-44.2" stroke="#000005"/>
   <g stroke="#000">
    <path d="m314.6 394.5c17.3-17.1 42.2-44.3 58.3-59.8"/>
    <path d="m292.6 337-42.4 73.1c-11.9 20.5 8.4 28.4 31.3 14.4 13.8-9.8 33.1-30 33.1-30"/>
   </g>
  </g>
 </g>
</svg>
