<svg height="210mm" viewBox="0 0 1052.4 744.1" width="297mm" xmlns="http://www.w3.org/2000/svg">
 <g fill="none" stroke-linecap="round">
  <g transform="translate(0 -308.26772)">
   <path d="m57.6 742.2h948.8" stroke="#969696" stroke-width="1.875"/>
   <g stroke="#000" stroke-dasharray="3.75 7.5" stroke-miterlimit="2" stroke-width=".9375">
    <path d="m58.3 844.1h948.8"/>
    <path d="m58.3 641.8h948.8"/>
    <path d="m58.3 540.6h948.8"/>
   </g>
  </g>
  <g stroke="#000">
   <g stroke-width="5.625">
    <path d="m771.7 280.6s-293.9 157.7-314.2 174c-36.4 29.3-47.7 69.2-42.9 76.3 3.4 5 34.7 12.4 62.3-63.3 15.7-47.2 25.8-112.5 71.5-132.1" stroke-linejoin="round"/>
    <path d="m488.9 235-100.3 164"/>
    <g stroke-linejoin="round">
     <path d="m325.5 383.7 20 47.9"/>
     <ellipse cx="72.336525" cy="572.49243" rx="25.728558" ry="20.371416" transform="matrix(.79083574 -.61202846 .61202846 .79083574 0 0)"/>
    </g>
   </g>
   <path d="m430.1 397.4c.3 9.3-.4 14.6-6.3 21.9-3.6 4.5-8.8 8.3-16 11.1" stroke-width="5.624961"/>
   <path d="m426.5 392.2c2 6.9 1.8 6.4.7 11.6-1.6 7.6-6.1 13.5-12.5 18.7-3.2 2.6-6.9 5-10.9 7.3" stroke-width="6.599955"/>
   <path d="m409.4 424.1c-5.3 3.7-10.3 5.7-16.3 3.5" stroke-width="2.849979"/>
   <path d="m415.7 387.5c7.4 1.6 9 4 10.4 10.8" stroke-width="2.849979"/>
   <g stroke-linejoin="round" stroke-width="5.625">
    <path d="m345.5 431.5 47.2-38.1"/>
    <path d="m782.3 280.6-55.8 97.2"/>
    <path d="m782.3 280.6h-10.6"/>
    <path d="m776.8 280.6-55.8 97.2"/>
    <path d="m726.5 377.8h-10.6"/>
    <path d="m771.7 280.6-55.8 97.2 11-.1 57-41.9"/>
   </g>
  </g>
 </g>
</svg>
