<svg height="210mm" viewBox="0 0 1052.4 744.1" width="297mm" xmlns="http://www.w3.org/2000/svg">
 <g fill="none" stroke-linecap="round">
  <g transform="translate(0 -308.26772)">
   <path d="m57.6 742.2h948.8" stroke="#969696" stroke-width="1.875"/>
   <g stroke="#000" stroke-dasharray="3.75 7.5" stroke-miterlimit="2" stroke-width=".9375">
    <path d="m58.3 844.1h948.8"/>
    <path d="m58.3 641.8h948.8"/>
    <path d="m58.3 540.6h948.8"/>
   </g>
  </g>
  <g stroke="#000">
   <path d="m284.3 359.7c24.3-33 69.8-34.2 37.2 20l-31.5 52.1 57.3-40.3" stroke-linejoin="round" stroke-width="5.625"/>
   <ellipse cx="33.227234" cy="542.39996" rx="25.728558" ry="20.371416" stroke-linejoin="round" stroke-width="5.625" transform="matrix(.79083574 -.61202846 .61202846 .79083574 0 0)"/>
   <path d="m380.7 397.6c.3 9.3-.4 14.6-6.3 21.9-3.6 4.5-8.8 8.3-16 11.1" stroke-width="5.624961"/>
   <path d="m377.1 392.3c2 6.9 1.8 6.4.7 11.6-1.6 7.6-6.1 13.5-12.5 18.7-3.2 2.6-6.9 5-10.9 7.3" stroke-width="6.599955"/>
   <path d="m360 424.2c-5.3 3.7-10.3 5.7-16.3 3.5" stroke-width="2.849979"/>
   <path d="m366.3 387.6c7.4 1.6 9 4 10.4 10.8" stroke-width="2.849979"/>
   <g stroke-linejoin="round" stroke-width="5.625">
    <path d="m395.2 431.8c72.2-10.8 86.4 9.6 75.7 48"/>
    <path d="m362.5 386.1c18.4-1 37.2-1.3 61.9-5.3 41.3-6.2 61.8-23.2 55.1-39.7-4.4-10.9-28.3-5.3-52.4 34.6l-31.8 56.2"/>
    <path d="m471 479.8s228.6-215 216.9-241.1c-6.3-14.1-37.9 8.9-85.1 86.8-50.2 86.7-47 110.6-24.4 105.5 7.3-2.4 14.3-5.6 21.1-8.5"/>
    <path d="m599.5 422.4c18.3-8 67.5-34.5 71.6-37 7.2-4.5 15.1-9 20.2-13.4 12.8-11.2 21.2-22.7 16.7-30.9-3.8-6.8-34.7-8.6-58.5 30.7-26.3 43.1-18.8 59.4-2.7 59.3 5.3-.6 10.7-2.2 15.8-4.4"/>
    <path d="m662.7 426.6c7.7-4 17.6-11.5 17.6-11.5l38.1-29.6 21.7 45.9"/>
   </g>
  </g>
 </g>
</svg>
