<svg height="210mm" viewBox="0 0 1052.4 744.1" width="297mm" xmlns="http://www.w3.org/2000/svg">
 <g fill="none" stroke-linecap="round">
  <g transform="translate(0 -308.26772)">
   <path d="m57.6 742.2h948.8" stroke="#969696" stroke-width="1.875"/>
   <g stroke="#000" stroke-dasharray="3.75 7.5" stroke-miterlimit="2" stroke-width=".9375">
    <path d="m58.3 844.1h948.8"/>
    <path d="m58.3 641.8h948.8"/>
    <path d="m58.3 540.6h948.8"/>
   </g>
  </g>
  <g stroke="#000" stroke-linejoin="round" stroke-width="5.625">
   <path d="m474.2 367.5c10.5-12.1 28.1-31.7 45.8-31.7 14.5 0 25.3 7.8 10.3 26.4-27.4 33.8-45.5 50.2-39.4 63.9 1.6 3.6 4.9 5 9.3 4.9"/>
   <path d="m500.2 431c25.6 2.3 82.1-29.5 98.9-30.3 16-.6 21.6 31 32.6 30.7 7.2-.2 12.4-7.6 16.7-13"/>
   <path d="m406.2 383.3c40 3 59.8-35.8 56.6-44.3-2.8-7.3-29.3-4.3-53.1 35-24.9 41.9-23 57.5-11.2 57.4 8.1-.1 20.9-7.6 32.8-19 10.2-9.9 34.5-35.5 42.8-45"/>
  </g>
 </g>
</svg>
