<svg height="210mm" viewBox="0 0 1052.4 744.1" width="297mm" xmlns="http://www.w3.org/2000/svg">
 <g fill="none" stroke-linecap="round">
  <g transform="translate(0 -308.26772)">
   <path d="m57.6 742.2h948.8" stroke="#969696" stroke-width="1.875"/>
   <g stroke="#000" stroke-dasharray="3.75 7.5" stroke-miterlimit="2" stroke-width=".9375">
    <path d="m58.3 844.1h948.8"/>
    <path d="m58.3 641.8h948.8"/>
    <path d="m58.3 540.6h948.8"/>
   </g>
  </g>
  <g stroke="#000">
   <path d="m356.5 431.4c39-64.7 104.7-56.6 95.5-.1" stroke-linejoin="round" stroke-width="5.625"/>
   <path d="m544.8 346.2c-8.2 4.6-92.9 85-92.9 85" stroke-width="5.625002"/>
   <path d="m535.9 473.7h-42.2" stroke-width="5.625001"/>
   <g stroke-linejoin="round">
    <path d="m641.4 341.1c-19.6 9.8-47.1 32.9-64.9 50.1-16.1 15.6-40.3 39.5-56.1 39.9-3.9.1-7.2-.1-9.6-1.1-2.7-1.1-4.6-3-5.9-5.3-11.6-20.1 22.8-78.9 60.5-88.7" stroke-width="5.625001"/>
    <path d="m592.2 433.8c-27 16.7-90.2 91.8-63 99 11.2 2.5 33.1-7.6 54.5-66.3 15.7-47.2 16.4-112.8 70.4-130.9" stroke-width="5.625"/>
   </g>
  </g>
 </g>
</svg>
