<svg height="210mm" viewBox="0 0 1052.4 744.1" width="297mm" xmlns="http://www.w3.org/2000/svg">
 <g fill="none" stroke-linecap="round">
  <g transform="translate(0 -308.26772)">
   <path d="m57.6 742.2h948.8" stroke="#969696" stroke-width="1.875"/>
   <g stroke="#000" stroke-dasharray="3.75 7.5" stroke-miterlimit="2" stroke-width=".9375">
    <path d="m58.3 844.1h948.8"/>
    <path d="m58.3 641.8h948.8"/>
    <path d="m58.3 540.6h948.8"/>
   </g>
  </g>
  <g stroke="#000" stroke-width="5.625">
   <g stroke-linejoin="round">
    <path d="m452.4 431.6c58.7-59.9 76.6-87.5 102-94.7 16.8-4.7 27.9 7.7 7.1 42.3l-31.5 52.1 55.3-54.8"/>
    <path d="m585.2 376.5 40.5-40.8-39 72.4c-8.4 15.5 5 26 21.5 22.2"/>
    <path d="m608.2 430.2c3.5-.7 6.9-1.9 10.1-3.4"/>
    <path d="m618.3 426.8c12.1-4.7 78.7-43.5 78.7-43.5l20 47.9"/>
    <ellipse cx="59.089924" cy="561.33282" rx="25.728558" ry="20.371416" transform="matrix(.79083574 -.61202846 .61202846 .79083574 0 0)"/>
    <path d="m452.4 431.6c-21.1 20.6-56.9 53.8-62.7 59.5-8 6.9-36.1 41.1-20.4 41.1 4.9-.3 12.1-3.2 21.3-10.8 22.1-22.1 34.8-42.3 46.9-63.6 26.5-46.7 68.2-122.2 68.2-122.2l-122.8 52.7"/>
   </g>
   <path d="m368.2 403.4-68.4 128.5"/>
  </g>
 </g>
</svg>
