<svg height="210mm" viewBox="0 0 1052.4 744.1" width="297mm" xmlns="http://www.w3.org/2000/svg">
 <g fill="none" stroke-linecap="round">
  <g transform="translate(0 -308.26772)">
   <path d="m57.6 742.2h948.8" stroke="#969696" stroke-width="1.875"/>
   <g stroke="#000" stroke-dasharray="3.75 7.5" stroke-miterlimit="2" stroke-width=".9375">
    <path d="m58.3 844.1h948.8"/>
    <path d="m58.3 641.8h948.8"/>
    <path d="m58.3 540.6h948.8"/>
   </g>
  </g>
  <g stroke="#000">
   <g stroke-width="5.625">
    <path d="m516.2 234.3-112.5 196.8" stroke-linejoin="round"/>
    <path d="m403.7 431.1c76-25 137.6-48.2 182.1-88.5 24.7-22.4 37.3-47.2 23.7-51.5-14.7-4.7-42.6 12.2-89.8 90.1-42.5 73.3-43.2 100.2-27.6 103.5 3.9.4 8.1.3 12.3.3 25.6-.4 54-25.6 76.6-45.3" stroke-linejoin="round"/>
    <path d="m593 295.7c-48 60-85.6 120.6-108.4 181.8"/>
   </g>
   <path d="m582 305.7c-38.3 44.9-72.9 96.9-94.8 156.8" stroke-width="7.5"/>
   <path d="m611.2 293c-14-7.4-25.3 12.9-27.8 15.9" stroke-width="3.75"/>
   <path d="m490.2 463.3c-3.3 16.8-.7 19.9 13.2 21.6" stroke-width="5.625"/>
  </g>
 </g>
</svg>
