<svg height="210mm" viewBox="0 0 1052.4 744.1" width="297mm" xmlns="http://www.w3.org/2000/svg">
 <g fill="none" stroke-linecap="round">
  <g transform="translate(0 -308.26772)">
   <path d="m57.6 742.2h948.8" stroke="#969696" stroke-width="1.875"/>
   <g stroke="#000" stroke-dasharray="3.75 7.5" stroke-miterlimit="2" stroke-width=".9375">
    <path d="m58.3 844.1h948.8"/>
    <path d="m58.3 641.8h948.8"/>
    <path d="m58.3 540.6h948.8"/>
   </g>
  </g>
  <g stroke="#000" stroke-width="5.625">
   <g stroke-linejoin="round">
    <path d="m499.9 431c5.4-3.3 11.7-10.5 6.5-17.1-2.6-3.3-4-4.5-11.9-4.4l-98.8.6c-6.7.1-14.3.2-15.9-.7-10.5-5.8-7.4-13.7.5-24.6"/>
    <path d="m336.2 423.9c7.1-3.8 44.1-39.2 44.1-39.2"/>
    <path d="m347.3 336.5-42.4 73.1c-11.9 20.5 8.4 28.3 31.3 14.4"/>
   </g>
   <path d="m347.3 336.5-155.2 196.7"/>
   <g stroke-linejoin="round">
    <path d="m639.1 334.6c54.3-11 95.5-79.5 89.2-96.2-5.5-14.4-40.2 8.9-87.4 86.8-50.2 86.7-54.5 106.4-24.7 106.4 7 0 36.7 1 45.6-4.4"/>
    <path d="m650.9 420.1c.6.1 1.1.2 1.6.4.1.1.3.2.4.2.8.6 1 1.6.6 3.2-.8 3.1-4.4 4.9-6.1 5.6-3.5 1.3-6.1-1.6-4.1-4.7 1.2-1.9 3.4-4.1 6-4.6.2 0 .3-.1.5-.1h.6c.5 0 1 .1 1.5.2"/>
    <path d="m661.8 427.2c7.4-2 56-43.4 56-43.4l20 47.9"/>
   </g>
   <path d="m597.4 266.5-89.2 156.1"/>
   <ellipse cx="399.72913" cy="489.10147" rx="25.728558" ry="20.371416" stroke-linejoin="round" transform="matrix(.89236516 -.45131411 .45131411 .89236516 0 0)"/>
  </g>
 </g>
</svg>
