<svg height="210mm" viewBox="0 0 1052.4 744.1" width="297mm" xmlns="http://www.w3.org/2000/svg">
 <g fill="none" stroke-linecap="round">
  <g transform="translate(0 -308.26772)">
   <path d="m57.6 742.2h948.8" stroke="#969696" stroke-width="1.875"/>
   <g stroke="#000" stroke-dasharray="3.75 7.5" stroke-miterlimit="2" stroke-width=".9375">
    <path d="m58.3 844.1h948.8"/>
    <path d="m58.3 641.8h948.8"/>
    <path d="m58.3 540.6h948.8"/>
   </g>
  </g>
  <g stroke-linejoin="round">
   <g stroke-width="5.625">
    <path d="m447.1 431.7c26.3-15.1 55-38 77.4-38.7 24.2-1.7 20.9 34.3 34.8 38 6.3 1.1 12.9-1 19-4.2s12.4-8.1 16.3-12.5" stroke="#000"/>
    <path d="m674 335.4-79.4 78.9" stroke="#060000"/>
    <path d="m499.9 257.8c24.3-33 69.3-34.5 37.2 20l-90 153.8" stroke="#000"/>
   </g>
   <g stroke="#001600">
    <path d="m404.7 337.1-47.8 86.7" stroke-width="6.5625"/>
    <path d="m301 431.9 94.4-95.2-39 72.4c-8.4 15.5 5 26.1 21.5 22.2 2.8-.7 9.2-2.6 14-6 28.9-28.4 108-167.6 108-167.6" stroke-width="5.625"/>
    <path d="m400.1 337.1-44.7 81.9" stroke-width="6.5625"/>
   </g>
  </g>
  <path d="m361.9 417.7c-1.6 4.1-2.6 6.5.8 11.9" stroke="#001600" stroke-width="3.75"/>
  <g stroke-linejoin="round">
   <path d="m404.7 337.1-9.3-.4" stroke="#001600" stroke-width="6.5625"/>
   <g stroke-width="5.625">
    <path d="m628.7 421.1c-14.4 8.1-52 32.1-64.2 45.3-24.9 27.2-38.9 53.7-35.9 61.5 1.1 2.9 17.7 21.8 57.3-41.8l88-150.7" stroke="#060000"/>
    <path d="m628.7 421.1c13.5-9.8 25.7-23.2 42.9-24.5 21.9-1.7 16.7 61.2 52.4 20.5" stroke="#000002"/>
   </g>
  </g>
 </g>
</svg>
