<svg height="210mm" viewBox="0 0 1052.4 744.1" width="297mm" xmlns="http://www.w3.org/2000/svg">
 <g fill="none" stroke-linecap="round">
  <g transform="translate(0 -308.26772)">
   <path d="m57.6 742.2h948.8" stroke="#969696" stroke-width="1.875"/>
   <g stroke="#000" stroke-dasharray="3.75 7.5" stroke-miterlimit="2" stroke-width=".9375">
    <path d="m58.3 844.1h948.8"/>
    <path d="m58.3 641.8h948.8"/>
    <path d="m58.3 540.6h948.8"/>
   </g>
  </g>
  <g stroke-linejoin="round" stroke-width="5.625">
   <path d="m610.9 294.9-81.1 111.9" stroke="#000"/>
   <path d="m499.3 409.3c5.4-4.3 25.9-24.7 31.3-29.8" stroke="#00000c"/>
   <g stroke="#000">
    <path d="m490.3 334.6c54.3-11 95.5-79.5 89.2-96.2-5.5-14.4-40.3 8.9-87.4 86.8-69.6 120.2-36 123.1 7.3 84"/>
    <path d="m531.5 380.2 24.3 18.5"/>
    <path d="m555.8 398.7c1.6.9 3.1 2 4.2 3.5 1.3 1.7 2.2 3.7 2.5 5.8.4 2.5.2 5.3-.7 7.9-.7 2.1-1.8 4.3-3.3 6.2-1.3 1.7-2.8 3.3-4.7 4.7-1.8 1.4-3.7 2.5-5.7 3.3-1.3.5-2.6.9-3.9 1.2-1.8.4-3.6.5-5.3.4-2.3-.1-4.4-.7-6.3-1.7-1.6-.9-3.1-2-4.2-3.5-2.4-3.2-3.2-7.2-2.5-11.2.5-2.9 1.8-5.9 3.8-8.5"/>
    <path d="m530.2 384.8 24.6 19.4c4.4 4.9 8 10.8 3.6 18.1"/>
   </g>
  </g>
 </g>
</svg>
