<svg height="210mm" viewBox="0 0 1052.4 744.1" width="297mm" xmlns="http://www.w3.org/2000/svg">
 <g fill="none" stroke-linecap="round">
  <g transform="translate(0 -308.26772)">
   <path d="m57.6 742.2h948.8" stroke="#969696" stroke-width="1.875"/>
   <g stroke="#000" stroke-dasharray="3.75 7.5" stroke-miterlimit="2" stroke-width=".9375">
    <path d="m58.3 844.1h948.8"/>
    <path d="m58.3 641.8h948.8"/>
    <path d="m58.3 540.6h948.8"/>
   </g>
  </g>
  <g stroke="#000" stroke-width="5.625">
   <path d="m444 399.2c40.8-8.6 73.2-15.5 73.2-15.5l20.2 47.9" stroke-linejoin="round"/>
   <path d="m271.9 386.9c40 3 57.6-35.3 56.6-44.3-1.5-13.9-28.7-7.5-53.1 35-29.1 47.6-22.7 51.6-5 53.2 19 1.7 173.6-31.6 173.6-31.6" stroke-linejoin="round"/>
   <path d="m648.4 233.7-111 197.9"/>
   <g stroke-linejoin="round">
    <path d="m512.8 490.5c-3.7 5.6-5.7 12.5-6.2 17.7-.7 7.4 1.5 13.5 3.8 16.3 2.8 3.4 5.2 9.1 19 9.1 7 0 16.8-6.2 22.9-15.7 18.5-27.8 35.1-56.9 52.1-85.6"/>
    <path d="m600.9 432.5c6.5.3 9.8-4.8 12.1-7.1 12.5-13.4 32.9-62.3 46.6-76.8 16.9-17.9 26.9-18.3 33.4-5.7 6.5 12.7 4 18.2 12.3 27.2 15.9 17.3 43.8-27.8 34.5-34.3-6.3-4.4-25.9 3.2-49.4 42-16.2 26.5-20.5 40.6-18.1 47.7 2.5 5.2 7 6.7 12.7 6.5 34.8-1.6 64.1-27.1 77.2-41.2"/>
    <path d="m667.4 341.1c9.6-6.8 18 4.1 21.6 15.8 3.2 10.5 8.7 18 23.9 17.1"/>
    <path d="m679.3 337.3c13.6.7 15.1 28.3 22.1 30"/>
    <path d="m604.4 422.8c.6.1 1.1.2 1.5.4.1.1.3.1.4.2.7.6 1 1.6.6 3.1-.8 3.1-4.3 4.8-5.9 5.5-3.4 1.2-5.9-1.6-4-4.6 1.2-1.9 3.3-4 5.8-4.5.2 0 .3-.1.5-.1h.6c.5 0 1 .1 1.5.2"/>
   </g>
  </g>
 </g>
</svg>
