<svg height="210mm" viewBox="0 0 1052.4 744.1" width="297mm" xmlns="http://www.w3.org/2000/svg">
 <g fill="none" stroke-linecap="round">
  <g transform="translate(0 -308.26772)">
   <path d="m57.6 742.2h948.8" stroke="#969696" stroke-width="1.875"/>
   <g stroke="#000" stroke-dasharray="3.75 7.5" stroke-miterlimit="2" stroke-width=".9375">
    <path d="m58.3 844.1h948.8"/>
    <path d="m58.3 641.8h948.8"/>
    <path d="m58.3 540.6h948.8"/>
   </g>
  </g>
  <g stroke-linejoin="round" stroke-width="5.625">
   <path d="m499.6 431.6c11.6-14.2 30.6-42.7 54.8-44.2 12.5-.8 20.4 12.9 4.6 32.5-27.4 33.8-122 152-101.9 163.9 25.4 15 69.5-71.3 74.6-80.8 0 0 14.9-33 7.3-41.2-12.8-13.7-38.3-1.1-40.8 9.8-6.7 28.9 53.4 4 60.4-15.8" stroke="#010000"/>
   <path d="m480.1 387.6 19.4 44" stroke="#000"/>
  </g>
 </g>
</svg>
