<svg height="210mm" viewBox="0 0 1052.4 744.1" width="297mm" xmlns="http://www.w3.org/2000/svg">
 <g fill="none" stroke-linecap="round">
  <g transform="translate(0 -308.26772)">
   <path d="m57.6 742.2h948.8" stroke="#969696" stroke-width="1.875"/>
   <g stroke="#000" stroke-dasharray="3.75 7.5" stroke-miterlimit="2" stroke-width=".9375">
    <path d="m58.3 844.1h948.8"/>
    <path d="m58.3 641.8h948.8"/>
    <path d="m58.3 540.6h948.8"/>
   </g>
  </g>
  <g stroke="#000">
   <path d="m264.8 431.1 45.5-94.6 24 46.3" stroke-linejoin="round" stroke-width="5.625"/>
   <path d="m813.1 390.1-54 41" stroke-width="5.625"/>
   <path d="m439 330.5s220.8-72.4 254.4-93.1c7.2-4.4 15.1-9 20.2-13.4 12.8-11.2 19.5-22.7 16.7-30.9-4.2-12.7-34.7-8.6-58.5 30.7-26.3 43.1-15.6 59.2-3.5 59 10.2-.1 26.5-8 40.7-22.4" stroke-linejoin="round" stroke-width="5.624999"/>
  </g>
 </g>
</svg>
