<svg height="210mm" viewBox="0 0 1052.4 744.1" width="297mm" xmlns="http://www.w3.org/2000/svg">
 <g fill="none" stroke-linecap="round">
  <g transform="translate(0 -308.26772)">
   <path d="m57.6 742.2h948.8" stroke="#969696" stroke-width="1.875"/>
   <g stroke="#000" stroke-dasharray="3.75 7.5" stroke-miterlimit="2" stroke-width=".9375">
    <path d="m58.3 844.1h948.8"/>
    <path d="m58.3 641.8h948.8"/>
    <path d="m58.3 540.6h948.8"/>
   </g>
  </g>
  <g stroke-linejoin="round">
   <path d="m116.9 432.5c116.6-65.8 240.8-136.4 349.3-197" stroke="#000001" stroke-width="5.625"/>
   <path d="m466.2 235.5c98.7-57.1 112.1-52.9 119.8-52.1 31.1 3.2-54.7 174.9-110.5 199.1-10.6 3.7-17.7 1.1-14.9-9.2 12.2-15.1 89-32.9 133.5-37.9" stroke="#000" stroke-width="5.625"/>
   <path d="m661.8 432.8c56.7-20.6 86.2-145 10.8-71" stroke="#000" stroke-width="5.419139"/>
   <g stroke-width="5.625">
    <path d="m661.8 432.8 176.4-.4 113.7-96.6" stroke="#160800"/>
    <path d="m842.5 416.6c1 .1 1.8.3 2.5.7.2.1.4.2.6.4 1.2.9 1.7 2.6 1 5.2-1.3 5.1-7.1 8-9.8 9-5.7 2-9.8-2.6-6.6-7.6 2-3.1 5.5-6.6 9.7-7.5.3-.1.6-.1.9-.1s.7-.1 1-.1c.8 0 1.6.1 2.4.3" stroke="#000"/>
    <path d="m895.7 431.5c-52.7 10.7-94.9 86.5-90.3 98.5 1.1 2.9 17.7 21.8 57.3-41.8l89.2-152.4" stroke="#060000"/>
    <path d="m594.2 335.5c24-.8 27.4 41.2 50.5 40 11.9-.6 21.4-7.9 27.9-13.7" stroke="#000"/>
   </g>
  </g>
 </g>
</svg>
