<svg height="210mm" viewBox="0 0 1052.4 744.1" width="297mm" xmlns="http://www.w3.org/2000/svg">
 <g fill="none" stroke-linecap="round">
  <g transform="translate(0 -308.26772)">
   <path d="m57.6 742.2h948.8" stroke="#969696" stroke-width="1.875"/>
   <g stroke="#000" stroke-dasharray="3.75 7.5" stroke-miterlimit="2" stroke-width=".9375">
    <path d="m58.3 844.1h948.8"/>
    <path d="m58.3 641.8h948.8"/>
    <path d="m58.3 540.6h948.8"/>
   </g>
  </g>
  <g stroke="#000" stroke-linejoin="round" stroke-width="5.625">
   <path d="m560.8 384.8 240.8-48.3 20.2 47.9"/>
   <path d="m616.6 287.5-55.8 97.2"/>
   <path d="m616.6 287.5h-10.6"/>
   <path d="m611.1 287.6-55.8 97.2"/>
   <path d="m560.8 384.8h-10.6"/>
   <path d="m517.9 348.6c10 5 88.1-61 88.1-61l-55.8 97.2 11-.1"/>
   <path d="m281.5 430.7c22.5-8.9 52.2-48.9 60.4-86.1s38.8-97.2 73.8-110.6"/>
   <path d="m281.5 430.7c-21.9-8.1 63.7-29.4 80.5-30.3 16-.6 16.9 31 32.6 30.7 10.5-.2 23.9-13.6 34.4-26.3"/>
   <path d="m429 404.9 55.7-68.7-51.1 94.9 87.9-85.7"/>
   <ellipse cx="611.97504" cy="-106.1257" rx="4.609393" ry="6.862874" transform="matrix(.72846687 .68508103 -.68508103 .72846687 0 0)"/>
  </g>
 </g>
</svg>
