<svg height="210mm" viewBox="0 0 1052.4 744.1" width="297mm" xmlns="http://www.w3.org/2000/svg">
 <g fill="none" stroke-linecap="round">
  <g transform="translate(0 -308.26772)">
   <path d="m57.6 742.2h948.8" stroke="#969696" stroke-width="1.875"/>
   <g stroke="#000" stroke-dasharray="3.75 7.5" stroke-miterlimit="2" stroke-width=".9375">
    <path d="m58.3 844.1h948.8"/>
    <path d="m58.3 641.8h948.8"/>
    <path d="m58.3 540.6h948.8"/>
   </g>
  </g>
  <g stroke="#000" stroke-width="5.625">
   <path d="m301.5 421.9c.6.1 1.1.2 1.6.4.1.1.3.2.4.2.8.6 1 1.6.6 3.2-.8 3.1-4.3 4.9-6 5.5-3.5 1.3-6-1.6-4.1-4.7 1.2-1.9 3.4-4 5.9-4.6.2 0 .3-.1.5-.1h.6c.5 0 1 .1 1.5.2" stroke-linejoin="round"/>
   <path d="m299.6 431 251-47.1-49.2 94.9 62.5-38.4" stroke-linejoin="round"/>
   <path d="m575.5 437 46.3-6"/>
   <g stroke-linejoin="round">
    <path d="m626.9 421c.6.1 1.2.2 1.6.4.1.1.3.2.4.2.8.6 1.1 1.6.6 3.3-.8 3.2-4.4 5-6.2 5.7-3.6 1.3-6.2-1.6-4.2-4.8 1.3-2 3.5-4.2 6.1-4.7.2 0 .4-.1.5-.1h.7c.5 0 1 .1 1.5.2"/>
    <path d="m628.8 426.8c20.4-14.5 66.2-88.1 89.6-121.5 7-10.3 16.5-21.6 32-20.1 10 1.7 18.5 10.9 13.3 22.7-6.8 15.9-39.4 73.1-39.4 73.1"/>
    <ellipse cx="170.79761" cy="713.18396" rx="25.728558" ry="20.371416" transform="matrix(.79083574 -.61202846 .61202846 .79083574 0 0)"/>
   </g>
  </g>
 </g>
</svg>
