<svg height="210mm" viewBox="0 0 1052.4 744.1" width="297mm" xmlns="http://www.w3.org/2000/svg">
 <g fill="none" stroke-linecap="round">
  <g transform="translate(0 -308.26772)">
   <path d="m57.6 742.2h948.8" stroke="#969696" stroke-width="1.875"/>
   <g stroke="#000" stroke-dasharray="3.75 7.5" stroke-miterlimit="2" stroke-width=".9375">
    <path d="m58.3 844.1h948.8"/>
    <path d="m58.3 641.8h948.8"/>
    <path d="m58.3 540.6h948.8"/>
   </g>
  </g>
  <g stroke-linejoin="round" stroke-width="5.625">
   <path d="m304.3 470.6c-22.6 26.6-40.8 57.4-23.8 61.9 11.2 2.5 33.1-7.6 54.5-66.3 15.7-47.2 16.4-112.8 70.4-130.9" stroke="#000"/>
   <path d="m580 482.9c16.8-.5 33-21.3 35-47.2 2.1-26.8 36.3-50.6 36.3-50.6" stroke="#060000"/>
   <g stroke="#000">
    <path d="m580 482.9c-3.8-.2-4.9-2.3-2-4.6 11-8.6 109.5-41.9 109.5-41.9l21 47.3"/>
    <path d="m651.3 385.1c-55.7 12.4-256.1 33.2-306.1 53-18.1 7.2-31 22-41 32.5"/>
   </g>
  </g>
 </g>
</svg>
