<svg height="210mm" viewBox="0 0 1052.4 744.1" width="297mm" xmlns="http://www.w3.org/2000/svg">
 <g fill="none" stroke-linecap="round">
  <g transform="translate(0 -308.26772)">
   <path d="m57.6 742.2h948.8" stroke="#969696" stroke-width="1.875"/>
   <g stroke="#000" stroke-dasharray="3.75 7.5" stroke-miterlimit="2" stroke-width=".9375">
    <path d="m58.3 844.1h948.8"/>
    <path d="m58.3 641.8h948.8"/>
    <path d="m58.3 540.6h948.8"/>
   </g>
  </g>
  <g stroke="#000">
   <g stroke-linejoin="round">
    <g stroke-width="5.625">
     <path d="m581.9 325.6c-25.8 16.1-52.7 37.5-68.1 53.2-24.3 25.2-31.2 43.9-22.2 51.3 11.1 9.2 69.5-29.3 95.8-139.8 17.5-80 53.4-142.9 90.7-155.8"/>
     <path d="m581.9 325.6c15.8-9.3 42.8-29.9 61-22.2 7.1 3.5 15 25.5 27.7 26.9 2.3.2 4.5.3 6.7.2 11-.4 25-21.8 29.6-27.9"/>
     <path d="m630.7 301.9c6.5-.7 21.1-2.5 27 12.7 3.2 8.3 7.2 15.6 16.5 16"/>
    </g>
    <path d="m642.4 304.9c9.3 9.2 7.4 23 22.1 23.7" stroke-width="4.049759"/>
   </g>
   <g stroke-width="5.625">
    <path d="m802.3 132.9s-48.5 103.1-95.4 169.8"/>
    <g stroke-linejoin="round">
     <path d="m628.7 302.3c15.5-3 14.1 9.3 19.2 18.5 4.7 8.3 12.2 10.8 26.2 9.8"/>
     <path d="m258.3 357.3c12.5-25.1 44.6-28.5 47.8-12.9.9 4.3-1 10-6.9 17.3-27.4 33.8-49 52.6-41.3 63.9 3.1 4.6 8.6 6.1 14.9 5.5 26-4.4 43.5-29.9 59.5-49.8"/>
     <path d="m332.2 381.3c14.9-18.1 32.6-44.1 57.7-45.3 24-1 29.3 43.3 51.2 42.9 20.2-.3 51.7-45.1 100.4-102.8 32.4-38.3 90.2-110.1 112.7-126.7"/>
    </g>
   </g>
  </g>
 </g>
</svg>
