<svg height="210mm" viewBox="0 0 1052.4 744.1" width="297mm" xmlns="http://www.w3.org/2000/svg">
 <g fill="none" stroke-linecap="round">
  <g transform="translate(0 -308.26772)">
   <path d="m57.6 742.2h948.8" stroke="#969696" stroke-width="1.875"/>
   <g stroke="#000" stroke-dasharray="3.75 7.5" stroke-miterlimit="2" stroke-width=".9375">
    <path d="m58.3 844.1h948.8"/>
    <path d="m58.3 641.8h948.8"/>
    <path d="m58.3 540.6h948.8"/>
   </g>
  </g>
  <g stroke-linejoin="round" stroke-width="5.625">
   <path d="m175 433.3c-50 2.1-93.6 80.8-90.7 94.6.6 3.1 9.6 22.2 53.1-38.8 48.1-67.3 86.2-138.1 121.9-209.8 24.4-41.7.9-65.2-35.7-18.9" stroke="#060000"/>
   <path d="m667.1 434.9c-3.2 1.4-6.5 3-9.8 4.8-3 1.7-6.1 3.6-9.1 5.6-37.2 24.7-71.5 71.3-65.4 85.5 5.7 13.2 70.8-24.4 97.1-134.9 20.3-90.7 63.2-149 98-160.6" stroke="#060000"/>
   <path d="m412.9 433.8c-41.3 15.7-93.8 86.3-79.2 97 15.8 11.6 35.8-11.1 50.6-36.2 18.6-31.4 45.6-101.5 53.1-131.4 22-88.4 71.4-137 88.3-126.6 12.7 7.8-23.4 82.2-80.2 97.9" stroke="#000"/>
   <path d="m879.8 429.6c-52.7 10.7-94.9 86.5-90.3 98.5 1.1 2.9 17.7 21.8 57.3-41.8l144.9-251.9" stroke="#060000"/>
  </g>
 </g>
</svg>
