<svg height="210mm" viewBox="0 0 1052.4 744.1" width="297mm" xmlns="http://www.w3.org/2000/svg">
 <g fill="none" stroke-linecap="round">
  <g transform="translate(0 -308.26772)">
   <path d="m57.6 742.2h948.8" stroke="#969696" stroke-width="1.875"/>
   <g stroke="#000" stroke-dasharray="3.75 7.5" stroke-miterlimit="2" stroke-width=".9375">
    <path d="m58.3 844.1h948.8"/>
    <path d="m58.3 641.8h948.8"/>
    <path d="m58.3 540.6h948.8"/>
   </g>
  </g>
  <g stroke="#000" stroke-linejoin="round">
   <g stroke-width="5.625">
    <path d="m331.9 398.5 33.9-16-27.4 48.9"/>
    <path d="m338.4 431.4c58.9-19.2 145-71 129.4-92.1-4.8-6.5-30.3-4.4-55 36.3-25.4 41.6-20.8 56-6.4 56"/>
    <path d="m406.4 431.5c21.6-.2 37.4-1.5 54.7 1.3 22.2 3.7 45.2 15.1 38.5 47.4"/>
    <path d="m579.5 390.9-79.9 89.4"/>
   </g>
   <path d="m579.5 390.9-37 91.7" stroke-width="5.624999"/>
   <g stroke-width="5.625">
    <path d="m607.6 391.8-65.1 90.9"/>
    <path d="m782.7 392.1c-41.4 46-175.5 64.4-175.1-.3"/>
   </g>
  </g>
 </g>
</svg>
