<svg height="210mm" viewBox="0 0 1052.4 744.1" width="297mm" xmlns="http://www.w3.org/2000/svg">
 <g fill="none" stroke-linecap="round">
  <g transform="translate(0 -308.26772)">
   <path d="m57.6 742.2h948.8" stroke="#969696" stroke-width="1.875"/>
   <g stroke="#000" stroke-dasharray="3.75 7.5" stroke-miterlimit="2" stroke-width=".9375">
    <path d="m58.3 844.1h948.8"/>
    <path d="m58.3 641.8h948.8"/>
    <path d="m58.3 540.6h948.8"/>
   </g>
  </g>
  <g stroke-linejoin="round" stroke-width="5.625">
   <path d="m674.5 431c5.4-3.3 11.7-10.5 6.5-17.1-2.6-3.3-4-4.5-11.9-4.4l-98.8.6c-6.7.1-14.3.2-15.9-.7-10.5-5.8-7.4-13.7.5-24.6" stroke="#000"/>
   <path d="m414.7 431.5c50.4-65.5 115.5-58.4 97 .6-.4 1.2 43.7-48.5 43.7-48.5" stroke="#000"/>
   <path d="m181 431.7c88.5-59.2 253.5-59.1 233.6-.2" stroke="#0a0001"/>
   <path d="m674.5 431c12.5-.2 51.1-24.7 67.5-25.8 24.4-1.9 15 29.8 37.5 25.5 9.2-1.7 19.9-10.4 24.5-15.6s12.3-14.9 17.3-22.4 22.4-38.3 22.4-38.3l69-120.6" stroke="#000"/>
  </g>
 </g>
</svg>
