<svg height="210mm" viewBox="0 0 1052.4 744.1" width="297mm" xmlns="http://www.w3.org/2000/svg">
 <g fill="none" stroke-linecap="round">
  <g stroke="#969696" transform="translate(0 -308.26772)">
   <path d="m57.6 742.2h948.8" stroke-width="1.875"/>
   <g stroke-dasharray="3.75 7.5" stroke-miterlimit="2" stroke-width=".9375">
    <path d="m58.3 844.1h948.8"/>
    <path d="m58.3 641.8h948.8"/>
    <path d="m58.3 540.6h948.8"/>
   </g>
  </g>
  <g stroke="#000" stroke-linejoin="round">
   <path d="m496.8 320.1c-4.3 10.6-65.2 117.4-69.4 120.2" stroke-width="8.474937"/>
   <path d="m391.2 474c17.1-13.3 32.3-30.5 41.8-45.8" stroke-width="3.749973"/>
   <path d="m487.6 343.4-42.1 71.7" stroke-width="5.624959"/>
   <path d="m501.3 285c5.2 7.4-2.2 26.2-11 44.7" stroke-width="4.724965"/>
   <g stroke-width="5.625">
    <path d="m330.6 434.6c81.1-71.1 136.6-151.3 160.2-152.4 2.1-.3 4.1-.2 6 .2 3 .1 4.9 1.7 6.1 4.6 10.7 27.9-65.8 174.2-122.4 192.4"/>
    <path d="m330.6 434.6c-17.5 8.9-90.1 86.1-68.9 98 6.3 2.8 14.9.6 29.9-13 6.5-5.9 10.1-10.4 14.4-16 3.1-4 4.9-7.6 8.1-12.1 19.1-30.9 10.8-58.8 26-84.5 8.9-15.1 19.8-25.3 30.8-32.5 40.7-26.9 19.6-60.1-21.6-20.5"/>
    <path d="m498.7 435.6c-33.4 19.3-76.8 76.5-68.3 92.5 4.9 9.2 28.4 7.7 48.3-24.3 8.5-13.7 17.7-31 19.9-61.8 4.4-61.4 30.6-107.8 55.8-106.1 20.5 2.6 7.1 25.2-4.6 33.9-3.8 3.2-24.1 15.1-39.1 16.7"/>
    <path d="m498.7 435.6 77.8-50"/>
    <path d="m732.8 431.2c5.4-3.3 11.7-10.5 6.5-17.1-2.6-3.3-4-4.5-11.9-4.4l-135 .6c-5.8 0-12.7.1-15.9-.7-9.6-2.4-7.9-13.2 0-24"/>
    <path d="m732.8 431.2c36.7-9.5 66.6-30.8 87.4-30.9 16-.6 18.8 30.9 32.6 30.7 8.7-.1 14.1-5.3 19.4-11.5"/>
   </g>
  </g>
 </g>
</svg>
