<svg height="210mm" viewBox="0 0 1052.4 744.1" width="297mm" xmlns="http://www.w3.org/2000/svg">
 <g fill="none" stroke-linecap="round">
  <g transform="translate(0 -308.26772)">
   <path d="m57.6 742.2h948.8" stroke="#969696" stroke-width="1.875"/>
   <g stroke="#000" stroke-dasharray="3.75 7.5" stroke-miterlimit="2" stroke-width=".9375">
    <path d="m58.3 844.1h948.8"/>
    <path d="m58.3 641.8h948.8"/>
    <path d="m58.3 540.6h948.8"/>
   </g>
  </g>
  <g stroke="#000" stroke-linejoin="round" stroke-width="5.625">
   <path d="m501.9 410.6 34.3-29.8 22.4 50.2"/>
   <path d="m516.4 336.3c-56.6 14.8-104.6 143.3-14.6 74.3"/>
   <path d="m410.2 424c9.9-5.2 79.6-75 86.4-77.8"/>
   <path d="m660.3 379c28.5-22.6 35.5-31.4 39-55.7 1.8-12.5-2.6-28-12.8-37.6-5-4.7-11-8.4-17-11.7-14.9-8.3-14.2-26.1-7.4-38.9"/>
   <path d="m558.6 431 103.4-195.9"/>
   <path d="m395.2 429c-26.4-8.6-25.6-36.7 4.8-42.3 32.9.1 27.2 44.6-14.4 44.1h-74"/>
  </g>
 </g>
</svg>
