<svg height="210mm" viewBox="0 0 1052.4 744.1" width="297mm" xmlns="http://www.w3.org/2000/svg">
 <g fill="none" stroke-linecap="round">
  <g transform="translate(0 -308.26772)">
   <path d="m57.6 742.2h948.8" stroke="#969696" stroke-width="1.875"/>
   <g stroke="#000" stroke-dasharray="3.75 7.5" stroke-miterlimit="2" stroke-width=".9375">
    <path d="m58.3 844.1h948.8"/>
    <path d="m58.3 641.8h948.8"/>
    <path d="m58.3 540.6h948.8"/>
   </g>
  </g>
  <g stroke="#000">
   <g stroke-linejoin="round" stroke-width="5.625">
    <path d="m474.1 421.6c.6.2 1.2.4 1.6.8.1.1.3.2.4.3.7.8.8 1.9 0 3.6-1.5 3.2-5.7 4.4-7.6 4.8-4 .7-6.2-3-3.4-5.9 1.7-1.8 4.5-3.7 7.3-3.7h.6c.2 0 .5 0 .7.1.5.1 1.1.3 1.6.5"/>
    <path d="m475.3 428s205.6-126.6 331.1-197.4"/>
    <path d="m806.4 230.6c19.3-12.5 40.5-24.9 55.7-33.1 14.8-8 28.5-12 34-11.7 17.2 1 11.7 19.3-3.6 41.2-14.5 20.7-23.5 37.5-41.4 63-25.4 36.1-53.1 69.5-45.4 87.5 10.1 18.2 32.5 5.7 52.7-13.1"/>
    <path d="m858.3 364.4 30.3-28.6"/>
    <path d="m429.2 383.2 20 47.9s13.6.9 19.9-.2"/>
    <path d="m888.6 335.8 28.7 43.2c12.2 16.6 12 34.9 10.1 45.6-2.5 17.4-5.1 28.9-33 53.3"/>
    <path d="m107.3 431.4 51.9-48 31.4 47.9 43.5-47.3"/>
    <path d="m159.2 383.4 24 48"/>
    <path d="m166.8 383.4 23.8 47.9"/>
    <path d="m162.9 383.3 24 48"/>
   </g>
   <path d="m159.6 382.4h7.1" stroke-width="3.75"/>
   <g stroke-linejoin="round" stroke-width="5.625">
    <path d="m234 384.3 46.5-47.8-39 72.4c-8.4 15.5 3.5 25.6 20 21.7 2.8-.6 11.2-4.9 16.2-8.1l22.1-14.3"/>
    <path d="m299.7 408.2 188.1-134.1"/>
    <ellipse cx="218.31131" cy="494.91425" rx="25.728558" ry="20.371416" transform="matrix(.79083574 -.61202846 .61202846 .79083574 0 0)"/>
   </g>
   <path d="m183.2 432.4h7.1" stroke-width="3.75"/>
  </g>
 </g>
</svg>
