<svg height="210mm" viewBox="0 0 1052.4 744.1" width="297mm" xmlns="http://www.w3.org/2000/svg">
 <g fill="none" stroke-linecap="round">
  <g transform="translate(0 -308.26772)">
   <path d="m57.6 742.2h948.8" stroke="#969696" stroke-width="1.875"/>
   <g stroke="#000" stroke-dasharray="3.75 7.5" stroke-miterlimit="2" stroke-width=".9375">
    <path d="m58.3 844.1h948.8"/>
    <path d="m58.3 641.8h948.8"/>
    <path d="m58.3 540.6h948.8"/>
   </g>
  </g>
  <g stroke-linejoin="round">
   <g stroke="#000">
    <g stroke-width="5.625">
     <path d="m573.5 335.6-39.4 73.1c-8.4 15.5 4.6 23.5 21.5 22.2"/>
     <path d="m577.9 482c16.8-.5 33-21.3 35-47.2 2.1-26.8 47.2-53.9 36.3-48.7 0 0-76.1 44.9-93.6 44.9"/>
     <path d="m632.7 401.2c-18.7 24.9-13 28.9-16.8 41.1-3.5 11.7-12.1 25.9-24.2 34.7"/>
     <path d="m629.9 404.3c-7.6 7.8-16.9 18.3-21 32.6-4.1 14.4-5.5 33.4-22.5 43.1"/>
    </g>
    <path d="m443 431.4c-4.1 1.2-5.9-1.5-2.7-4.6s109.9-64.8 133.2-91.2" stroke-width="5.624999"/>
   </g>
   <path d="m443 431.4c11.3-3.6 29-14.3 32.2-40.1s20.9-53.1 39.1-55.8" stroke="#060000" stroke-width="5.625"/>
  </g>
 </g>
</svg>
