<svg height="210mm" viewBox="0 0 1052.4 744.1" width="297mm" xmlns="http://www.w3.org/2000/svg">
 <g fill="none" stroke-linecap="round">
  <g transform="translate(0 -308.26772)">
   <path d="m57.6 742.2h948.8" stroke="#969696" stroke-width="1.875"/>
   <g stroke="#000" stroke-dasharray="3.75 7.5" stroke-miterlimit="2" stroke-width=".9375">
    <path d="m58.3 844.1h948.8"/>
    <path d="m58.3 641.8h948.8"/>
    <path d="m58.3 540.6h948.8"/>
   </g>
  </g>
  <g stroke="#000">
   <g stroke-linejoin="round" stroke-width="5.625">
    <path d="m494.7 405.2c22.1-24.5 48.7-56.3 70.8-65.9"/>
    <path d="m565.5 339.3c19.6-8.3 35 2.5 12.3 40.5l-31.2 52.3"/>
    <path d="m587.9 345.6-49.2 86.2"/>
    <path d="m588.1 351.9-45.6 79.9"/>
    <path d="m538.6 431.8 7.9.2"/>
   </g>
   <path d="m583.9 339.5c1.8 1.7 2.3 5.7.7 9.9" stroke-width="3.75"/>
   <g stroke-linejoin="round" stroke-width="5.625">
    <path d="m465.9 336.2c-53.4 13.9-99.2 129.2-28.4 84.1"/>
    <path d="m546.5 432.1s56.8-30.6 73.6-31.5c16-.6 21.6 31 32.6 30.7 7.2-.2 12.4-7.6 16.7-13"/>
    <path d="m487.8 379.4 31.3 24.2c4.4 4.9 8 10.8 3.6 18.1"/>
    <ellipse cx="148.60023" cy="638.56708" rx="19.945965" ry="15.792861" transform="matrix(.79083574 -.61202846 .61202846 .79083574 0 0)"/>
    <path d="m487.8 379.4 7.3.1 24.3 18.5"/>
    <path d="m437.5 420.3c6.2-4 50.4-40.9 50.4-40.9"/>
   </g>
  </g>
 </g>
</svg>
