<svg height="210mm" viewBox="0 0 1052.4 744.1" width="297mm" xmlns="http://www.w3.org/2000/svg">
 <g fill="none" stroke-linecap="round">
  <g transform="translate(0 -308.26772)">
   <path d="m57.6 742.2h948.8" stroke="#969696" stroke-width="1.875"/>
   <g stroke="#000" stroke-dasharray="3.75 7.5" stroke-miterlimit="2" stroke-width=".9375">
    <path d="m58.3 844.1h948.8"/>
    <path d="m58.3 641.8h948.8"/>
    <path d="m58.3 540.6h948.8"/>
   </g>
  </g>
  <g stroke="#000" stroke-width="5.625">
   <g stroke-linejoin="round">
    <path d="m478.6 362.2c-27.4 33.8-47.1 47.2-41.1 60.9 2.4 5.4 8.9 8.5 23.7 8"/>
    <path d="m517.9 407.1c.8.1 1.6.3 2.1.6.2.1.4.2.5.3 1 .8 1.4 2.2.8 4.4-1.1 4.3-6 6.8-8.3 7.6-4.8 1.7-8.3-2.2-5.6-6.4 1.7-2.6 4.7-5.6 8.2-6.3.2-.1.5-.1.7-.1.3 0 .6-.1.9-.1.7 0 1.4.1 2.1.3"/>
    <path d="m461.2 431.1c23.7 0 55.2-5.1 125.8-49.8 36-22.8 41.4-45.1 29.3-45.5-7.5-.3-26.4 4-49.2 41.6-26.3 43-19.9 52.2-4.8 53.6"/>
    <path d="m562.3 430.9c23-1.5 33.4-16.2 114.5-94.9"/>
    <path d="m676.8 336-56.7 94.9"/>
    <path d="m406.2 393.8c14.1-24.7 32.9-56.3 63-57.8 15-.7 24.3 7.7 9.4 26.2"/>
   </g>
   <path d="m406.2 393.8-74.8 140.3"/>
  </g>
 </g>
</svg>
