<svg height="210mm" viewBox="0 0 1052.4 744.1" width="297mm" xmlns="http://www.w3.org/2000/svg">
 <g fill="none" stroke-linecap="round">
  <g transform="translate(0 -308.26772)">
   <path d="m57.6 742.2h948.8" stroke="#969696" stroke-width="1.875"/>
   <g stroke="#000" stroke-dasharray="3.75 7.5" stroke-miterlimit="2" stroke-width=".9375">
    <path d="m58.3 844.1h948.8"/>
    <path d="m58.3 641.8h948.8"/>
    <path d="m58.3 540.6h948.8"/>
   </g>
  </g>
  <g stroke-linejoin="round" stroke-width="5.625">
   <g stroke="#00000f">
    <path d="m388.1 335.5c11.4-2 22.8-5.1 36.8-15.1 32.8-23.4 66.6-65.4 54.4-81.2-9.4-12.2-40.2 8.9-87.4 86.8-60.3 104.2-36 118.5-1.8 98.4 18.4-11.6 90.5-97.8 102.8-114.5"/>
    <path d="m392.4 410.5c1 .1 1.8.3 2.5.7.2.1.4.2.6.4 1.2.9 1.6 2.5 1 5.1-1.3 5-7 7.9-9.7 8.9-5.6 2-9.7-2.6-6.5-7.5 2-3.1 5.4-6.5 9.5-7.3.3-.1.6-.1.8-.1.3 0 .7-.1 1-.1.8 0 1.6.1 2.4.3"/>
    <ellipse cx="319.29861" cy="544.63068" rx="62.130169" ry="44.633743" transform="matrix(.88109295 -.47294313 .47294313 .88109295 0 0)"/>
   </g>
   <path d="m509.9 294.1s100.1-89.1 135.6-107.5c8.2-4.1 13.9-1.4 18.1 6.8 6.5 12.7 4 18.2 12.3 27.2 15.9 17.3 43.8-27.8 34.5-34.3-6.3-4.4-25.9 3.2-49.4 42-35.3 57.8-16.5 60.5 7.9 46.6 3.2-1.8 6.4-3.9 9.7-6.1" stroke="#000"/>
  </g>
 </g>
</svg>
