<svg height="210mm" viewBox="0 0 1052.4 744.1" width="297mm" xmlns="http://www.w3.org/2000/svg">
 <g fill="none" stroke-linecap="round">
  <g stroke="#000" transform="translate(0 -308.26772)">
   <path d="m57.6 742.2h948.8" stroke-width="1.875"/>
   <g stroke-dasharray="3.75 7.5" stroke-miterlimit="2" stroke-width=".9375">
    <path d="m58.3 844.1h948.8"/>
    <path d="m58.3 641.8h948.8"/>
    <path d="m58.3 540.6h948.8"/>
   </g>
  </g>
  <g stroke-linejoin="round" stroke-width="5.625">
   <g stroke="#000">
    <path d="m394.5 392c-43.4 40.7-66.8 44.9-95.9 94.6-11.2 19.3-16.6 36.4-12.6 43.5 2.9 5.3 34.7 12.4 62.3-63.4 15.7-47.2 25.8-112.5 71.5-132.1"/>
    <path d="m394.5 392c26.3-20.8 48.2-43.5 76-56.6 7.7-3.6 13.2-.8 17.3 7.2 6.5 12.7 4 18.2 12.3 27.2 15.9 17.3 43.8-27.8 34.5-34.3-6.3-4.4-25.9 3.2-49.4 42-41.8 68.4-7.7 59.6 21.7 37.5"/>
    <path d="m460.4 340.4c14.3-7.5 19.9 4.4 23.4 16.1 3.2 10.5 8.7 18 23.9 17.1"/>
    <path d="m474.1 337c13.6.7 15.1 28.3 22.1 30"/>
    <path d="m657.7 352.1 83.5-130.2c6.5-10.1 14-19.8 22.1-27.4 10.9-10.3 23.7-10.1 29.2-9.8 17.2 1 11.7 19.3-3.6 41.2-14.5 20.7-23.5 37.5-41.4 63-25.4 36.1-53.1 69.5-45.4 87.5 7.2 13 20.7 10.3 35.2.9 3.5-2.3 7.1-5 10.7-8"/>
    <path d="m583.2 379.1 21.9 51.8 52.6-78.8"/>
   </g>
   <path d="m497.5 534.2 85.7-155.1" stroke="#060000"/>
  </g>
 </g>
</svg>
