<svg height="210mm" viewBox="0 0 1052.4 744.1" width="297mm" xmlns="http://www.w3.org/2000/svg">
 <g stroke-linecap="round">
  <g fill="none" transform="translate(0 -308.26772)">
   <path d="m57.6 742.2h948.8" stroke="#969696" stroke-width="1.875"/>
   <g stroke="#000" stroke-dasharray="3.75 7.5" stroke-miterlimit="2" stroke-width=".9375">
    <path d="m58.3 844.1h948.8"/>
    <path d="m58.3 641.8h948.8"/>
    <path d="m58.3 540.6h948.8"/>
   </g>
  </g>
  <g stroke="#000" stroke-linejoin="round">
   <g fill="none" stroke-width="5.625">
    <path d="m287.8 431.5 240.8-48.3 20.2 47.9"/>
    <path d="m118.2 431.6s131.8-119.2 172.5-152.5c5-4.1 12.3-10.3 17.8-14.9 9.2-8.2 8.8-20.3 3.8-26.3-6.5-6.9-25.9-1.6-34.6 22.9-4.9 13.8-3.1 34.6-6.7 53.9-3.7 20-43.6 46.6-64.3 69.8-28.7 32.1-23.7 66 29.5 34.6"/>
    <path d="m343.6 334.3-55.8 97.2"/>
    <path d="m343.6 334.3h-10.6"/>
    <path d="m338.1 334.3-55.8 97.2"/>
    <path d="m287.8 431.5h-10.6"/>
    <path d="m236.2 419.1c12.3-7.3 96.8-84.8 96.8-84.8l-55.8 97.2 11-.1"/>
    <path d="m652.1 360.4c-63.6 19-64.3 15.6-55.7-25"/>
   </g>
   <g fill="#eb0000" fill-rule="evenodd" transform="matrix(1.7715894 0 0 1.7715894 -639.641 9.782397)">
    <path d="m732.1 185.5c.8.1 1.4.2 1.9.5.2.1.3.2.5.3.9.7 1.3 2 .8 4-1 3.9-5.4 6.1-7.5 6.9-4.3 1.6-7.6-2-5.1-5.9 1.6-2.4 4.2-5.1 7.4-5.7.2 0 .4-.1.7-.1h.8c.6 0 1.2.1 1.9.3" stroke-width="5.625"/>
    <path d="m729.3 188.3c.3 0 .6.1.9.2.1 0 .2.1.2.1.4.3.6.9.4 1.8-.4 1.7-2.4 2.8-3.3 3.1-1.9.7-3.4-.9-2.3-2.6.7-1.1 1.9-2.3 3.3-2.6h.3.4c.3 0 .6 0 .8.1" stroke-width="4.981044"/>
   </g>
   <g fill="none" stroke-width="5.625">
    <path d="m548.8 431.2 47.6-95.8"/>
    <path d="m658.6 356.5c7.4-2 101.1-105.3 120.2-114.6"/>
    <path d="m789.6 386.5c30.7-16 87.1-38.9 91.4-41.2 27.1-14.3 63.6-12 40.2 17.1-27.4 33.8-44 49.8-38 63.4 4.2 9.6 26.5 4.1 35.1-3.2.8-.6 3-2.5 5.1-4.3"/>
    <path d="m789.6 386.5c-45.7 20-100.7 42.4-132.4 64.7-50 37.5-54.8 65.2-48.7 79.5 5.7 13.2 68.8-30.1 95.1-140.6 17.6-79.9 52.3-137.1 84-153.9 3-1.6 8.8-3.6 8.8-3.6"/>
   </g>
  </g>
 </g>
</svg>
