<svg height="210mm" viewBox="0 0 1052.4 744.1" width="297mm" xmlns="http://www.w3.org/2000/svg">
 <g stroke-linecap="round">
  <g fill="none" transform="translate(0 -308.26772)">
   <path d="m57.6 742.2h948.8" stroke="#969696" stroke-width="1.875"/>
   <g stroke="#000" stroke-dasharray="3.75 7.5" stroke-miterlimit="2" stroke-width=".9375">
    <path d="m58.3 844.1h948.8"/>
    <path d="m58.3 641.8h948.8"/>
    <path d="m58.3 540.6h948.8"/>
   </g>
  </g>
  <path d="m630.5 350.6-68.7 32.6" fill="none" stroke="#000" stroke-linejoin="round" stroke-width="5.625"/>
  <g fill="#eb0000" fill-rule="evenodd" stroke="#000" stroke-linejoin="round" transform="matrix(1.2049524 0 0 1.2049524 -248.88534 113.43633)">
   <path d="m732.1 185.5c.8.1 1.4.2 1.9.5.2.1.3.2.5.3.9.7 1.3 2 .8 4-1 3.9-5.4 6.1-7.5 6.9-4.3 1.6-7.6-2-5.1-5.9 1.6-2.4 4.2-5.1 7.4-5.7.2 0 .4-.1.7-.1h.8c.6 0 1.2.1 1.9.3" stroke-width="5.625"/>
   <path d="m729.3 188.3c.3 0 .6.1.9.2.1 0 .2.1.2.1.4.3.6.9.4 1.8-.4 1.7-2.4 2.8-3.3 3.1-1.9.7-3.4-.9-2.3-2.6.7-1.1 1.9-2.3 3.3-2.6h.3.4c.3 0 .6 0 .8.1" stroke-width="4.981044"/>
  </g>
  <g fill="none">
   <g stroke-linejoin="round">
    <g stroke="#000" stroke-width="5.625">
     <path d="m430.6 431c9 .7 89.6-94.9 89.6-94.9"/>
     <path d="m433.9 418.9c.8.1 1.5.2 2 .5.2.1.4.2.5.3 1 .8 1.3 2.1.8 4.2-1.1 4.1-5.7 6.4-7.9 7.3-4.6 1.6-7.9-2.1-5.3-6.1 1.6-2.5 4.4-5.3 7.8-6 .2 0 .5-.1.7-.1h.8c.6 0 1.3.1 2 .3"/>
     <ellipse cx="329.05429" cy="620.18848" rx="31.224491" ry="24.723" transform="matrix(.89236516 -.45131411 .45131411 .89236516 0 0)"/>
     <path d="m520.2 336.1-42.4 73.1c-13.1 22.6 8.1 29.3 29 16.4 10.1-5.7 32.8-24.8 49.4-38.8"/>
    </g>
    <g stroke-width="6.5625">
     <path d="m529.4 336.5-50.2 89" stroke="#010000"/>
     <path d="m524.8 336.5-47.7 84.6" stroke="#000"/>
    </g>
   </g>
   <g stroke="#010000">
    <path d="m486.7 414.2c-2.4 6.2-5.2 9.6 1.3 16.3" stroke-width="4.6875"/>
    <path d="m529.4 336.5-9.3-.4" stroke-linejoin="round" stroke-width="6.5625"/>
    <path d="m481.7 413.5c-2.4 6.2-5.2 9.6 1.3 16.3" stroke-width="4.6875"/>
   </g>
  </g>
 </g>
</svg>
