<svg height="210mm" viewBox="0 0 1052.4 744.1" width="297mm" xmlns="http://www.w3.org/2000/svg">
 <g fill="none" stroke-linecap="round">
  <g transform="translate(0 -308.26772)">
   <path d="m57.6 839.7h948.8" stroke="#969696" stroke-width="1.875"/>
   <g stroke="#000" stroke-dasharray="3.75 7.5" stroke-miterlimit="2" stroke-width=".9375">
    <path d="m58.3 941.6h948.8"/>
    <path d="m58.3 739.3h948.8"/>
    <path d="m58.3 638.1h948.8"/>
   </g>
  </g>
  <g stroke="#000" stroke-linejoin="round" stroke-width="5.625">
   <path d="m290.4 480.5c-23 28.5-53.3 45.3-60.8 47.6-55 17.3 33.8-137 77.9-183.7 4.7-5 11.2-10.7 18.9-11.9"/>
   <path d="m290.4 480.5s23.8-26.2 29.7-30.8c10.9-8.4 27.2-19.8 35.7-13.7 8.2 5.9 17.4 42.2 32 44.9 15.1 2.8 28.5-10.7 37.2-18.2"/>
   <path d="m340.8 436.7c12.3-5.8 18.5 7.5 24.2 28.2 3.7 13.5 12.3 17.1 26.4 16.5"/>
   <path d="m343.5 435.7c5.7-3 19.1-3.7 29.4 18.9 7.3 16 10.8 26.3 18.6 26.9"/>
   <path d="m356.7 439.2c10.8 15.3 8.5 38.4 25.5 39.6"/>
   <path d="m424.6 463.3c15.1-14.5 31.9-23.6 50.6-27.8 27.7-6.2 46.5 10.5 35.5 45.8"/>
   <path d="m581 374.7-70.4 106.6"/>
   <path d="m703.1 336.5c8.9-2.5 27.3-6.9 36.1-5.5 21.1 5.8 11.1 70.5 54.9 32.2"/>
   <path d="m581 374.7c45.9-70.5 95.2-155.6 147.6-187.5 30.6-15.2 36.1-8.8 30.1 15.3-12.2 49.4-75.8 157.4-115.7 173.7-16.3 3.6-17.4-2.3-12.1-8.1 15.8-12 27.1-20.3 72.3-31.6"/>
  </g>
 </g>
</svg>
