<svg height="210mm" viewBox="0 0 1052.4 744.1" width="297mm" xmlns="http://www.w3.org/2000/svg">
 <g fill="none" stroke-linecap="round">
  <g transform="translate(0 -308.26772)">
   <path d="m57.6 742.2h948.8" stroke="#969696" stroke-width="1.875"/>
   <g stroke="#000" stroke-dasharray="3.75 7.5" stroke-miterlimit="2" stroke-width=".9375">
    <path d="m58.3 844.1h948.8"/>
    <path d="m58.3 641.8h948.8"/>
    <path d="m58.3 540.6h948.8"/>
   </g>
  </g>
  <g stroke-width="5.625">
   <g stroke-linejoin="round">
    <g stroke="#000">
     <ellipse cx="-70.366127" cy="462.46509" rx="25.728558" ry="20.371416" transform="matrix(.79083574 -.61202846 .61202846 .79083574 0 0)"/>
     <path d="m212.2 395 118.9-106.9-56.7 94.9"/>
     <path d="m274.4 382.9c10.2-5.8 20.2-9 25.5-10.4 11.2-3 25.5-3.1 24.1 4.7 0 .2.1.4.1.7 0 1.4-.6 2.7-2.1 3.8-2.9 2.2-6.9.8-8.5-.4-3.3-.5-1-11.9 0-10.6 1.7 2.4 0 0 8.8 2.8.2.1.3.3.4.5.2.2.4.7.6.9.3.5.4.9.7 1.6"/>
     <path d="m323.8 377.2a5.5 1.8 0 0 1 -5.5 1.8 5.5 1.8 0 0 1 -5.5-1.8 5.5 1.8 0 0 1 5.4-1.8 5.5 1.8 0 0 1 5.5 1.8h-5.5z"/>
    </g>
    <path d="m314.5 370.8 137.4-79.3 116.6-67.7" stroke="#000001"/>
   </g>
   <g stroke="#000">
    <path d="m566.6 390.2c-48.2 61.4-98.5 47.1-84.7-.3" stroke-linejoin="round"/>
    <path d="m566.6 390.2 134.5-157.2"/>
    <g stroke-linejoin="round">
     <path d="m653.4 406.5s114.4-150.9 116.6-153.6c2.6-3.2 5-5.8 7.4-7.8 9.2-7.2 15.9-10.8 20.6-11.6 37.8-6.2-57.1 187.3-113.7 197.8"/>
     <path d="m701.3 236-99.8 172c-14.1 24.3 23.6 37.2 51.9-1.5"/>
     <path d="m684.3 431.3c-12.8-5.3 75.7-34.3 95-35.2 18.4-.7 24.8 35.6 37.4 35.3 8.3-.2 14.2-8.7 19.2-14.9"/>
     <path d="m580.9 193.9a19.2 25.1 41.6 0 1 -14.3 31.3 19.2 25.1 41.6 0 1 -27.6-6.8 19.2 25.1 41.6 0 1 14.3-31.3 19.2 25.1 41.6 0 1 27.6 6.8z"/>
    </g>
   </g>
  </g>
 </g>
</svg>
