<svg height="210mm" viewBox="0 0 1052.4 744.1" width="297mm" xmlns="http://www.w3.org/2000/svg">
 <g fill="none" stroke-linecap="round">
  <g transform="translate(0 -308.26772)">
   <path d="m57.6 742.2h948.8" stroke="#969696" stroke-width="1.875"/>
   <g stroke="#000" stroke-dasharray="3.75 7.5" stroke-miterlimit="2" stroke-width=".9375">
    <path d="m58.3 844.1h948.8"/>
    <path d="m58.3 641.8h948.8"/>
    <path d="m58.3 540.6h948.8"/>
   </g>
  </g>
  <g stroke="#000" stroke-width="5.625">
   <path d="m660.6 431c5.4-3.3 11.7-10.5 6.5-17.1-2.6-3.3-4-4.5-11.9-4.4l-98.8.6c-6.7.1-14.3.2-15.9-.7-10.5-5.8-7.4-13.7.5-24.6" stroke-linejoin="round"/>
   <path d="m496.9 423.9c7.1-3.8 44.1-39.2 44.1-39.2" stroke-linejoin="round"/>
   <path d="m772.3 235.2-104.3 187.9"/>
   <g stroke-linejoin="round">
    <path d="m508 336.5-42.4 73.1c-11.9 20.5 8.4 28.3 31.3 14.4"/>
    <path d="m370.6 334.6c54.3-11 95.5-79.5 89.2-96.2-5.5-14.4-40.2 8.9-87.4 86.8-50.2 86.7-54.5 106.4-24.7 106.4 7 0 36.7 1 45.6-4.4"/>
    <path d="m379.2 413c1 .1 1.8.3 2.5.7.2.1.4.2.6.4 1.2.9 1.7 2.6 1 5.2-1.3 5.1-7.1 8-9.8 9-5.7 2-9.8-2.6-6.6-7.6 2-3.1 5.5-6.6 9.7-7.5.3-.1.6-.1.9-.1s.7-.1 1-.1c.8 0 1.6.1 2.4.3"/>
    <path d="m393.3 427.2c7.4-2 49.3-33.9 49.3-33.9"/>
   </g>
   <path d="m442.5 393.4-74.8 140.3"/>
  </g>
 </g>
</svg>
