<svg height="210mm" viewBox="0 0 1052.4 744.1" width="297mm" xmlns="http://www.w3.org/2000/svg">
 <g fill="none" stroke-linecap="round">
  <g transform="translate(0 -308.26772)">
   <path d="m57.6 742.2h948.8" stroke="#969696" stroke-width="1.875"/>
   <g stroke="#000" stroke-dasharray="3.75 7.5" stroke-miterlimit="2" stroke-width=".9375">
    <path d="m58.3 844.1h948.8"/>
    <path d="m58.3 641.8h948.8"/>
    <path d="m58.3 540.6h948.8"/>
   </g>
  </g>
  <g stroke="#000" stroke-linejoin="round">
   <path d="m415.9 431.8c-1.8.6-4.8-2.7-2.5-4.6 4.2-3.4 124.9-82.4 136.1-88 9.6-4.8 19.2-6.4 24.5-1.4 12.6 11.8-9.1 68.4-43.7 88.3-1.4.8-6.1 4.1-11 5" stroke-width="5.625"/>
   <path d="m519.2 431.3c37.2.1 67.8.4 80.1-4" stroke-width="5.625"/>
   <ellipse cx="721.33478" cy="-105.97581" rx="5.271424" ry="7.848564" stroke-width="14.034715" transform="matrix(.72846687 .68508103 -.68508103 .72846687 0 0)"/>
   <path d="m738.8 331.3c12.2-22 25-43.1 34.9-64.9 2.1-5.4 3.3-9.9 3.7-13.7.8-8.9-5.2-15.8-15.8-17-23.8-2.3-43.6 29.8-62.5 60.6-11.1 18.1-26.1 42.5-40.7 66.5-16.7 27.4-47.7 80.4-66.5 64.5" stroke-width="5.625"/>
   <path d="m532.2 272.6c-4.4 10.5-65.2 117.4-69.4 120.2" stroke-width="8.437499"/>
   <path d="m426.6 426.4c17.1-13.4 32.3-30.5 41.8-45.8" stroke-width="3.75"/>
   <path d="m523 295.9-42.1 71.6" stroke-width="5.625"/>
   <path d="m536.7 237.5c5.1 7.4-2.2 26.2-11.1 44.7" stroke-width="4.6875"/>
   <path d="m276.4 431.2c6.8-8.5 16-21 33.4-21.3s21.1 21.4 37.3 21.3 26.9-16.6 32.4-24.3c13.2-18.8 32.1-47 47.8-69 37.5-52.6 81.4-107.8 104.9-103 3 .1 5 1.7 6.1 4.6 10.7 27.9-65.8 174.3-122.4 192.5" stroke-width="5.625"/>
  </g>
 </g>
</svg>
