<svg height="210mm" viewBox="0 0 1052.4 744.1" width="297mm" xmlns="http://www.w3.org/2000/svg">
 <g fill="none" stroke-linecap="round">
  <g transform="translate(0 -308.26772)">
   <path d="m57.6 742.2h948.8" stroke="#969696" stroke-width="1.875"/>
   <g stroke="#000" stroke-dasharray="3.75 7.5" stroke-miterlimit="2" stroke-width=".9375">
    <path d="m58.3 844.1h948.8"/>
    <path d="m58.3 641.8h948.8"/>
    <path d="m58.3 540.6h948.8"/>
   </g>
  </g>
  <g stroke="#000" stroke-width="5.625">
   <g stroke-linejoin="round">
    <path d="m332.4 432.1 60.6-108.1c26.4-48.6 52-72.9 91.2-88.5"/>
    <path d="m332.4 432.1 352.1-96"/>
    <path d="m684.5 336.1-39 72.4c-8.4 15.5 5 26.1 21.5 22.2 27.8-5.8 47.3-27.8 76-70.9"/>
   </g>
   <path d="m819.9 233.7-77 126.2"/>
   <path d="m432.5 268.7c-15.3 12.7-79.1 94.1-132.1 163.1"/>
   <path d="m281.6 391.7 18.8 40.2" stroke-linejoin="round"/>
  </g>
 </g>
</svg>
