<svg height="210mm" viewBox="0 0 1052.4 744.1" width="297mm" xmlns="http://www.w3.org/2000/svg">
 <g fill="none" stroke-linecap="round">
  <g transform="translate(0 -308.26772)">
   <path d="m57.6 742.2h948.8" stroke="#969696" stroke-width="1.875"/>
   <g stroke="#000" stroke-dasharray="3.75 7.5" stroke-miterlimit="2" stroke-width=".9375">
    <path d="m58.3 844.1h948.8"/>
    <path d="m58.3 641.8h948.8"/>
    <path d="m58.3 540.6h948.8"/>
   </g>
  </g>
  <g stroke="#000">
   <ellipse cx="-4.580054" cy="449.97342" rx="25.728558" ry="20.371416" stroke-linejoin="round" stroke-width="5.625" transform="matrix(.79083574 -.61202846 .61202846 .79083574 0 0)"/>
   <path d="m294.3 347.6c.3 9.3-.4 14.6-6.3 21.9-3.6 4.5-8.8 8.3-16 11.1" stroke-width="5.624961"/>
   <path d="m290.7 342.4c2 6.9 1.8 6.4.7 11.6-1.6 7.6-6.1 13.5-12.5 18.7-3.2 2.6-6.9 5-10.9 7.3" stroke-width="6.599955"/>
   <path d="m273.6 374.2c-5.3 3.7-10.3 5.7-16.3 3.5" stroke-width="2.849979"/>
   <path d="m279.9 337.7c7.4 1.6 9 4 10.4 10.8" stroke-width="2.849979"/>
   <g stroke-linejoin="round" stroke-width="5.625">
    <path d="m219.7 335.8c-36.7 11.9-77.9 92.6-53.1 95.5 6.7.8 21.7-.3 35.8-17.4 19.1-23.3 38.2-47.5 48-61.4"/>
    <path d="m305.6 272.8-55.2 79.7"/>
    <path d="m305.6 272.8s36.4-53.1 39.1-56.8c9-12.3 18.4-28.1 34.4-27.3 14.1.7 17.4 39.7 36.4 40.4 11.2.4 22.9-11.6 32.1-20.9"/>
    <path d="m595.7 133.1c-40.3 12.4-78.8 78.6-60.7 91.8 6 5.7 33.2 5.9 47 4.6 19.4-2.2 68.9-16.8 68.9-16.8"/>
    <path d="m511.2 135.5-36.9 66c-11.6 20.7 5.4 33.1 24.4 26.4 20.3-9.8 37.8-58.1 71-79.7"/>
    <path d="m650.8 212.7c39.2-9.6 83.5-19.9 94.1-20 24.9-.2 12.9 38 38.8 36.3 8.1-.5 17-3.8 23.2-8l29.5-19.9"/>
    <path d="m836.5 201.1 27.2-16.8 21.4 46.2"/>
    <path d="m511.2 135.5-63.6 72.8"/>
   </g>
  </g>
 </g>
</svg>
