<svg height="210mm" viewBox="0 0 1052.4 744.1" width="297mm" xmlns="http://www.w3.org/2000/svg">
 <g fill="none" stroke-linecap="round" transform="translate(0 -308.26772)">
  <path d="m57.6 742.2h948.8" stroke="#969696" stroke-width="1.875"/>
  <g stroke="#000" stroke-dasharray="3.75 7.5" stroke-miterlimit="2" stroke-width=".9375">
   <path d="m58.3 844.1h948.8"/>
   <path d="m58.3 641.8h948.8"/>
   <path d="m58.3 540.6h948.8"/>
  </g>
 </g>
 <g fill="none" stroke="#000" stroke-linecap="round" stroke-linejoin="round">
  <g stroke-width="5.625">
   <path d="m393.9 260.8c12.6-15.8 22.8-23 32-25.3 8.1-2 15.3-2.1 21-.6 6.2 1.6 11.2 6.4 8.7 18.1-6.4 14.1-15.9 21.3-33.7 32-15.8 12.8-43.5 22.6-38.9 53.9 6.3 42.7-45.5 80.6-63.9 91.9"/>
   <path d="m319.3 430.7c-5.3 1.2-9.1.8-11.8-.7"/>
   <path d="m393.9 260.8-97 115.7"/>
  </g>
  <path d="m319.3 430.7c5.4-4.1 14.3-11.1 23.5-20 11.4-10.9 23.5-24.5 30.4-38.6 5.6-11.3 10.6-23 9.4-38.3" stroke-width="4.6875"/>
  <path d="m323.4 428.4c25.2-12.8 45.1-29.5 57.3-53.5 5.6-11.3 6-31.1 2.1-46.7" stroke-width="4.6875"/>
  <g stroke-width="5.625">
   <path d="m210.3 358.7c15.9-32 75.6-30.6 48.2 3.3-27.4 33.8-47.2 52.6-39.4 63.9 9 13.2 36.1 1.2 49.7-14.9l28-34.5"/>
   <path d="m601.3 414.9c.8.1 1.4.2 1.9.5.2.1.3.2.5.3.9.7 1.3 2 .8 4-1 3.9-5.4 6.1-7.5 6.9-4.3 1.6-7.6-2-5.1-5.9 1.6-2.4 4.2-5.1 7.4-5.7.2 0 .4-.1.7-.1s.5-.1.8-.1c.6 0 1.2.1 1.9.3"/>
   <path d="m600.9 425.8c7-3.5 14.5-7.3 24.2-12.7 15.8-8.6 33.6-17.5 43.7-15.6 18.5 3.4 18.8 46.2 45.7 30.8"/>
   <path d="m646.3 402.6c6.3-2.8 21.8-2.6 31.1 17.6 6.6 14.3 16.3 11.1 24 11.6"/>
  </g>
  <path d="m663.3 400.3c7.8 4.9 8.8 2 26.1 28.6" stroke-width="6.587558"/>
  <g stroke-width="5.625">
   <path d="m600.9 425.8c-14.1 8.1-36.2 8.6-42.6.1-34.5-35.6 53-168.5 106.1-190.7"/>
   <path d="m714.5 428.2c15-9.3 28.8-36.4 67.6-42.3 26.7-4.1 44.2 11.8 33.4 46.2"/>
  </g>
 </g>
 <circle cx="791.974" cy="338.88171" r="8.049653"/>
 <path d="m731 323.4c-1.9 9.2-7.2 20-15.2 26.7" fill="none" stroke="#000" stroke-linecap="round" stroke-width="5.625"/>
</svg>
