<svg height="210mm" viewBox="0 0 1052.4 744.1" width="297mm" xmlns="http://www.w3.org/2000/svg">
 <g fill="none" stroke="#000" stroke-linecap="round">
  <g transform="translate(0 -308.26772)">
   <path d="m57.6 742.2h948.8" stroke-width="1.875"/>
   <g stroke-dasharray="3.75 7.5" stroke-miterlimit="2" stroke-width=".9375">
    <path d="m58.3 844.1h948.8"/>
    <path d="m58.3 641.8h948.8"/>
    <path d="m58.3 540.6h948.8"/>
   </g>
  </g>
  <g stroke-linejoin="round" stroke-width="5.625">
   <path d="m599.1 357.2s-48.9 52.6-82.8 71.7c-11.8 6.6-21.8 14.3-23.3 15.1-41.6 23.7-75.8 71.5-70.5 85 1.2 2.9 9.6 22.2 53.1-38.8 48.1-67.3 86.2-138.1 121.9-209.8 15.5-26.5 11.8-44.5-2.5-44.2-14.4.3-18.5 4.7-39.5 28.3"/>
   <path d="m649 380.2c8.1-1.2 15.7-4.7 23-9.3"/>
   <path d="m599.1 357.2 71-70.4-42.5 71.3c-9 15.2 5 26.1 21.5 22.2"/>
  </g>
 </g>
</svg>
