<svg height="210mm" viewBox="0 0 1052.4 744.1" width="297mm" xmlns="http://www.w3.org/2000/svg">
 <g fill="none" stroke-linecap="round">
  <g transform="translate(0 -308.26772)">
   <path d="m57.6 742.2h948.8" stroke="#969696" stroke-width="1.875"/>
   <g stroke="#000" stroke-dasharray="3.75 7.5" stroke-miterlimit="2" stroke-width=".9375">
    <path d="m58.3 844.1h948.8"/>
    <path d="m58.3 641.8h948.8"/>
    <path d="m58.3 540.6h948.8"/>
   </g>
  </g>
  <g stroke="#000">
   <path d="m581.8 431.4c13.2-8.7 113.4-72.8 142.9-100.9 22.6-21.5 28.7-43.9 16.6-48.1-14.6-5-40.2 8.9-87.4 86.8-56.4 97.4-38.8 116.2-8.3 101.8 2.1-1 4.4-2 6.5-3.4 14.4-9.7 27.2-30.8 43.6-49.8" stroke-linejoin="round" stroke-width="5.625"/>
   <path d="m727.2 283.8c-48 60-85.6 120.6-108.4 181.8" stroke-width="5.625"/>
   <path d="m714.1 295.8c-38.3 44.9-70.9 94.9-92.8 154.8" stroke-width="7.5"/>
   <path d="m744 284.6c-14-7.4-23.9 9.5-26.4 12.4" stroke-width="3.75"/>
   <g stroke-width="5.625">
    <path d="m624.4 451.4c-6.1 21.8-1.8 23 13.1 22.7"/>
    <g stroke-linejoin="round">
     <path d="m484.8 430.8c50.4-65.5 115.5-58.4 97 .6"/>
     <path d="m695.6 417.8c9.1-11.8 32.6-34 42.6-37.3 20.2-6.7 38.6 1.1 20.4 23.6-27.4 33.8-45.5 50.2-39.4 63.9 4.2 9.6 21.8 5.3 36.5-3.7l19.7-12"/>
     <path d="m771.8 454.9s33.9-24.9 43.6-17.4c6.1 4.7 8.9 37.6 21.2 36.1 8.8-1.1 10.4-1.5 17.1-5.6 4.4-2.8 14.8-12.6 14.8-12.6"/>
     <path d="m803.6 437.4c11.6-4.7 11.4 6.3 12.9 22.9 1 10.8 7.8 13.7 20.1 13.3"/>
     <path d="m803.6 437.4c5.4-2.4 19-3.6 22.7 15 2.6 13.3 4.7 19.7 13.9 20.5"/>
     <path d="m815.7 440.1c6.8 12.3 1 30.9 15.5 31.8"/>
     <path d="m349 385c15.7-2.7 31.2 8.6 35.4 48.6 3.5 33.7 23.4 48.2 37.7 47.7 21.3-.8 41.1-23.2 62.7-50.5"/>
    </g>
   </g>
  </g>
  <path d="m405.4 233.9-60.8 109.3c-24.8 39-64.2 79.9-90.4 88.2-1.2.4-5.8-.3-6.6-5.4-.6-3.7 11-9.8 26.5-15.2 8.2-2.9 65.9-23.8 74.9-25.7" stroke="#000004" stroke-linejoin="round" stroke-width="5.625"/>
 </g>
</svg>
