<svg height="210mm" viewBox="0 0 1052.4 744.1" width="297mm" xmlns="http://www.w3.org/2000/svg">
 <g fill="none" stroke-linecap="round">
  <g transform="translate(0 -308.26772)">
   <path d="m57.6 742.2h948.8" stroke="#969696" stroke-width="1.875"/>
   <g stroke="#000" stroke-dasharray="3.75 7.5" stroke-miterlimit="2" stroke-width=".9375">
    <path d="m58.3 844.1h948.8"/>
    <path d="m58.3 641.8h948.8"/>
    <path d="m58.3 540.6h948.8"/>
   </g>
  </g>
  <g stroke="#000" stroke-linejoin="round">
   <g stroke-width="4.30181">
    <path d="m605.5 394.1c.8-.5-19.8 37.9-19.8 37.9"/>
    <path d="m610.8 396.3-19.4 35.6"/>
    <path d="m594.8 431.9-9.1.2"/>
    <path d="m616 394-21.2 37.9"/>
    <path d="m616 394-10.8-.1"/>
    <path d="m609.3 394.9-19.4 35.6"/>
   </g>
   <path d="m466.2 431.3c17.9-4.9 27.5-16.7 27.3-25.9-1.1-20.7-47.4-26.8-49-48.9-.3-8.7 9.9-17.8 19.6-20.3 15.9-4 23.4 4.5 19.6 15.9-2 6.1-6.7 13.8-17.4 22-2.4 1.8-4.8 2.9-4.8 2.9" stroke-width="5.625"/>
   <path d="m355.7 431.6c56.8-20.8 87.7-148.6 10.8-71" stroke-width="5.419139"/>
   <g stroke-width="5.625">
    <path d="m461.5 377s-119.6 56.9-105.8 54.6"/>
    <path d="m591.9 372c14.3-11.6 20.8-28 18.9-33.1-2.8-7.4-29.5-4.4-53.9 35.9l-32.1 56.8"/>
    <path d="m591.9 372c-17.1 14.4-139.4 61.7-125.7 59.3"/>
    <path d="m605.5 394.6-80.8 37"/>
   </g>
  </g>
 </g>
</svg>
