<svg height="210mm" viewBox="0 0 1052.4 744.1" width="297mm" xmlns="http://www.w3.org/2000/svg">
 <g fill="none" stroke-linecap="round">
  <g transform="translate(0 -308.26772)">
   <path d="m57.6 742.2h948.8" stroke="#969696" stroke-width="1.875"/>
   <g stroke="#000" stroke-dasharray="3.75 7.5" stroke-miterlimit="2" stroke-width=".9375">
    <path d="m58.3 844.1h948.8"/>
    <path d="m58.3 641.8h948.8"/>
    <path d="m58.3 540.6h948.8"/>
   </g>
  </g>
  <g stroke="#000">
   <g stroke-linejoin="round">
    <g stroke-width="5.625">
     <path d="m460.2 331.2c6.1-12.6 21.5-26.2 37.5-26.2 24.5-.1 24.2 25.8 40.3 26.5 10.7.5 19.9-7.9 27.2-15.6"/>
     <path d="m276.2 431.4c13.1-19.8 29.5-43.9 52.8-44.1 14.4-.3 24.6 8.6 10.3 26.4-27.4 33.8-45.5 50.3-39.4 63.9 1.9 4.3 6.9 6.3 13 6.3 17.4-.8 27.9-11.5 39.6-23"/>
     <path d="m695.8 336-38.9 72.5c-7.2 13.4 1.8 23.1 15 23 17.5-.4 34.9-17.3 44.5-26"/>
    </g>
    <path d="m716.4 405.4c10.9-9.9 21.5-14.6 30.5-17 3-.8 5.9-1 8.6-1 13 .1 20.7 10.2 7.1 27-26.6 32.9-44.6 48.9-38.7 62.2 2.1 4.7 8 6.3 15 6 9.8-.4 24.3-7.6 32.5-19.2" stroke-width="5.624999"/>
   </g>
   <path d="m763 389c15.4 7.9 4.2 30.4-12.1 46.3-14 13.6-22.7 25.7-28.7 37.7" stroke-width="5.472633"/>
   <path d="m763.2 390.5c.8-1.1 3.6 6 .5 13.9-3.2 8.2-12.5 19.1-17.8 24.2-10.5 9.9-29.8 28.2-23.7 44.5" stroke-width="5.472633"/>
   <g stroke-width="2.736317">
    <path d="m752.7 389c13.9-1.2 10.5 8.5 10.3 13.7"/>
    <path d="m729.4 463.1c-3.2 4.4-7.2 16.1 2.6 17.8"/>
    <path d="m719.7 467.2c-.1 5.5 2.8 11.2 4.7 12.8"/>
   </g>
  </g>
 </g>
</svg>
