<svg height="210mm" viewBox="0 0 1052.4 744.1" width="297mm" xmlns="http://www.w3.org/2000/svg">
 <g fill="none" stroke-linecap="round">
  <g transform="translate(0 -308.26772)">
   <path d="m57.6 742.2h948.8" stroke="#969696" stroke-width="1.875"/>
   <g stroke="#000" stroke-dasharray="3.75 7.5" stroke-miterlimit="2" stroke-width=".9375">
    <path d="m58.3 844.1h948.8"/>
    <path d="m58.3 641.8h948.8"/>
    <path d="m58.3 540.6h948.8"/>
   </g>
  </g>
  <g stroke="#000">
   <g stroke-linejoin="round">
    <path d="m587.9 390.7c-13.6 9.3-33.9 23.3-32.4 50.1s-24.6 43.2-32.9 46.3" stroke-width="5.625"/>
    <path d="m522.7 487.1c-18.5-1.7 58.6-44.4 68.8-47.6 2.2-.7 4.3-1.2 6.4-1.6 3-.5 6-.7 8.7-.5 3.8.2 7.2 1.2 9.7 2.8 3 1.9 4.8 4.8 4.7 8.6-.1 3.9-2.2 8.9-7.1 14.9-27.4 33.8-45.5 50.2-39.4 63.9 6 13.7 39.8-.4 52.1-17.9" stroke-width="5.625"/>
    <path d="m500.6 392.5c7.1 5.9 11.1 26.2 8.7 38" stroke-width="6.5625"/>
    <path d="m480 386.4c6.1-.7 10.6-.8 14.5 1.8 7.3 4.8 11.4 17.4 11.8 43.3" stroke-width="5.15625"/>
   </g>
   <g stroke-width="5.625">
    <path d="m506.5 431.4 7.4-.2"/>
    <g stroke-linejoin="round">
     <path d="m419.8 419.4c36.2-29.6 47.7-32.2 61.7-33.4 1.1-.1 2.2-.2 3.3-.2 22.1-.4 28.7 17.9 29.2 45.5l74-40.5"/>
     <path d="m449.1 336.2c-45.5 11.9-85.5 97-52.6 95.5 6.3-.3 13.7-5.6 23.3-12.2"/>
    </g>
   </g>
  </g>
 </g>
</svg>
