<svg height="210mm" viewBox="0 0 1052.4 744.1" width="297mm" xmlns="http://www.w3.org/2000/svg">
 <g fill="none" stroke-linecap="round">
  <g transform="translate(0 -308.26772)">
   <path d="m57.6 742.2h948.8" stroke="#969696" stroke-width="1.875"/>
   <g stroke="#000" stroke-dasharray="3.75 7.5" stroke-miterlimit="2" stroke-width=".9375">
    <path d="m58.3 844.1h948.8"/>
    <path d="m58.3 641.8h948.8"/>
    <path d="m58.3 540.6h948.8"/>
   </g>
  </g>
  <g stroke="#000" stroke-linejoin="round" stroke-width="5.625">
   <path d="m375.7 427c46.9-40.6 97.8-71.5 97.8-71.5"/>
   <path d="m348 303.6c15.9-32 75.6-30.6 48.2 3.3s-45.5 50.2-39.4 63.9c2.8 6.4 11.8 6.7 21.8 3.4 11.3-3.7 27.1-10.9 59.2-38.2"/>
   <path d="m375.7 427c-16.9 13.8-45.3 37.7-52.9 45.4-25.9 26.2-33.2 48.3-30.3 56 1.1 2.9 17.7 21.8 57.3-41.8l88-150.7"/>
   <path d="m473.6 355.5c35.6-27.9 128.5-108.6 103.3-119.5-14.1-6.1-42.4 11.7-89.6 89.6-44.7 77.2-44.3 104.1-14.7 105"/>
   <path d="m472.5 430.6 156.1.5"/>
   <path d="m635.9 428.4c15-3.4 50-79 82-89 19.6-8.3 34.3 2 12.3 40.5l-29.8 52.1"/>
   <path d="m700.3 432 65.1-43.4"/>
   <path d="m635.9 420.4c.7.1 1.2.2 1.7.4.2.1.3.2.4.3.8.6 1.1 1.7.7 3.5-.9 3.4-4.8 5.4-6.6 6.1-3.8 1.4-6.6-1.8-4.4-5.1 1.4-2.1 3.7-4.4 6.5-5 .2 0 .4-.1.6-.1h.7c.5 0 1.1.1 1.6.2"/>
  </g>
 </g>
</svg>
