<svg height="210mm" viewBox="0 0 1052.4 744.1" width="297mm" xmlns="http://www.w3.org/2000/svg">
 <g fill="none" stroke-linecap="round">
  <g transform="translate(0 -308.26772)">
   <path d="m57.6 742.2h948.8" stroke="#969696" stroke-width="1.875"/>
   <g stroke="#000" stroke-dasharray="3.75 7.5" stroke-miterlimit="2" stroke-width=".9375">
    <path d="m58.3 844.1h948.8"/>
    <path d="m58.3 641.8h948.8"/>
    <path d="m58.3 540.6h948.8"/>
   </g>
  </g>
  <g stroke="#000">
   <g stroke-linejoin="round" stroke-width="5.625">
    <path d="m240.9 431c24.4-16.4 120.5-87.9 120.5-87.9"/>
    <path d="m268.7 384.2c40.5 3 60.6-36.3 57.4-44.9-2.8-7.4-29.2-4.3-53.4 35.5l-31.8 56.2"/>
    <ellipse cx="76.924446" cy="512.91028" rx="25.728558" ry="20.371416" transform="matrix(.79083574 -.61202846 .61202846 .79083574 0 0)"/>
   </g>
   <path d="m397.2 347.5c.3 9.3-.4 14.6-6.3 21.9-3.6 4.5-8.8 8.3-16 11.1" stroke-width="5.624961"/>
   <path d="m393.6 342.3c2 6.9 1.8 6.4.7 11.6-1.6 7.6-6.1 13.5-12.5 18.7-3.2 2.6-6.9 5-10.9 7.3" stroke-width="6.599955"/>
   <path d="m376.5 374.1c-5.3 3.7-10.3 5.7-16.3 3.5" stroke-width="2.849979"/>
   <path d="m382.8 337.6c7.4 1.6 9 4 10.4 10.8" stroke-width="2.849979"/>
   <g stroke-linejoin="round" stroke-width="5.625">
    <path d="m367.7 339c7.2-4.1 72.4-38 89.2-38.8 16-.6 21.6 31 32.6 30.7 7.2-.2 12.4-7.6 16.7-13"/>
    <path d="m660.9 361.3 30.5-26.7 24 48"/>
    <path d="m649.9 288-42.5 71.3c-9 15.2 5 26.1 21.5 22.2 2.8-.7 9.1-2.7 14-6 5.4-3.5 12.9-9.5 18.1-14.2"/>
    <path d="m521.5 333.3c54.3-11 97.7-78.1 91.3-94.8-5.5-14.4-40.2 8.9-87.4 86.8-41.2 71.2-46.2 101.2-34.5 105.8 2.9 1.1 6.8.7 11.5-1 3.2-1.2 6.8-3 10.6-5.4 26.5-18.8 105.3-104.8 137-136.6"/>
   </g>
  </g>
 </g>
</svg>
