<svg height="210mm" viewBox="0 0 1052.4 744.1" width="297mm" xmlns="http://www.w3.org/2000/svg">
 <g fill="none" stroke-linecap="round">
  <g transform="translate(0 -308.26772)">
   <path d="m57.6 742.2h948.8" stroke="#969696" stroke-width="1.875"/>
   <g stroke="#000" stroke-dasharray="3.75 7.5" stroke-miterlimit="2" stroke-width=".9375">
    <path d="m58.3 844.1h948.8"/>
    <path d="m58.3 641.8h948.8"/>
    <path d="m58.3 540.6h948.8"/>
   </g>
  </g>
  <g stroke="#000" stroke-linejoin="round" stroke-width="5.625">
   <path d="m417.5 411.5c20.8-18.1 80.7-76 80.7-76"/>
   <path d="m432.4 335.4c-57.9 15.1-107 146.7-14.9 76.1"/>
   <path d="m498.3 335.6-39 72.4c-6.9 12.8 1 22.3 13.3 23 2.6.1 5.3-.1 8.2-.7 5.2-1.1 13.6-6 22.1-12.7"/>
   <path d="m502.8 417.5c17-15 35.6-33.8 35.6-33.8"/>
   <path d="m538.4 383.7 20 47.9"/>
   <path d="m558.5 431.6 211.3-95.5"/>
  </g>
 </g>
</svg>
