<svg height="210mm" viewBox="0 0 1052.4 744.1" width="297mm" xmlns="http://www.w3.org/2000/svg">
 <g fill="none" stroke-linecap="round">
  <g transform="translate(0 -308.26772)">
   <path d="m57.6 742.2h948.8" stroke="#969696" stroke-width="1.875"/>
   <g stroke="#000" stroke-dasharray="3.75 7.5" stroke-miterlimit="2" stroke-width=".9375">
    <path d="m58.3 844.1h948.8"/>
    <path d="m58.3 641.8h948.8"/>
    <path d="m58.3 540.6h948.8"/>
   </g>
  </g>
  <g stroke="#000" stroke-linejoin="round" stroke-width="5.625">
   <path d="m496 432.1c22.5-8.9 52.2-48.9 60.4-86.1s38.8-98.1 73.8-111.6"/>
   <path d="m440 426.1c-43.3 18.4-81 88.1-72.2 103.9 2.9 5.3 34.7 12.4 62.3-63.3 15.8-47.4 16.5-113.3 70.8-131.6"/>
   <path d="m723.9 430.1-227.9 2.1"/>
   <path d="m607.8 249.3c-22.8 18.1-167.8 176.8-167.8 176.8"/>
  </g>
 </g>
</svg>
