<svg height="210mm" viewBox="0 0 1052.4 744.1" width="297mm" xmlns="http://www.w3.org/2000/svg">
 <g fill="none" stroke-linecap="round">
  <g transform="translate(0 -308.26772)">
   <path d="m57.6 742.2h948.8" stroke="#969696" stroke-width="1.875"/>
   <g stroke="#000" stroke-dasharray="3.75 7.5" stroke-miterlimit="2" stroke-width=".9375">
    <path d="m58.3 844.1h948.8"/>
    <path d="m58.3 641.8h948.8"/>
    <path d="m58.3 540.6h948.8"/>
   </g>
  </g>
  <g stroke="#000">
   <path d="m500.5 336.5 22.1 46.2" stroke-linejoin="round" stroke-width="5.624999"/>
   <path d="m507.7 336.4 22.1 46.2" stroke-linejoin="round" stroke-width="5.624999"/>
   <g stroke-width="5.625">
    <path d="m500.5 336.5 7.2-.1"/>
    <path d="m504.5 337.8 21 43.9" stroke-linejoin="round"/>
    <path d="m522.6 382.8 7.2-.1"/>
    <g stroke-linejoin="round">
     <path d="m444.2 431.5 56.3-95"/>
     <path d="m649.6 287.2-119.8 95.4"/>
     <path d="m292.7 390.6c-7.5 25.9 4.1 42 24 41.1 15.4-.7 25.6-6.9 36.5-16 5.4-4.5 11.2-9.7 16.8-14.7 12.2-11.7 25.7-17.6 40.6-17.4 22.5.3 38.7 16.8 33.6 47.9"/>
    </g>
   </g>
   <path d="m774.7 186.4c-119.8 150.6-295.9 272-259.9 296.4 14.6 6.9 26.5-1.6 52.6-43.6 18.8-30.1 82.2-151.9 82.2-151.9" stroke-width="5.624999"/>
  </g>
 </g>
</svg>
