<svg height="210mm" viewBox="0 0 1052.4 744.1" width="297mm" xmlns="http://www.w3.org/2000/svg">
 <g fill="none" stroke-linecap="round">
  <g transform="translate(0 -308.26772)">
   <path d="m57.6 742.2h948.8" stroke="#969696" stroke-width="1.875"/>
   <g stroke="#000" stroke-dasharray="3.75 7.5" stroke-miterlimit="2" stroke-width=".9375">
    <path d="m58.3 844.1h948.8"/>
    <path d="m58.3 641.8h948.8"/>
    <path d="m58.3 540.6h948.8"/>
   </g>
  </g>
  <g stroke-linejoin="round">
   <path d="m530.5 406.6c-10.6 6.8-26.5 19.1-42.8 24.2-55 17.3 33.8-138.4 77.9-185.1 4.7-5 11.2-10.7 18.9-11.9" stroke="#000" stroke-width="5.625"/>
   <path d="m530.5 406.6c3.3-2.1 6.6-4 9.7-5.7 1.8-1 3.7-2 5.5-2.9 48.7-24.7 79-10.7 66.9 32.4" stroke="#000" stroke-width="5.625"/>
   <g stroke="#000001">
    <path d="m603.2 392.1c7.1 5.9 8.1 27.1 3.2 37.8" stroke-width="6.5625"/>
    <path d="m590.7 385.8c16.4 3.3 16.8 35.2 10.1 45.2" stroke-width="4.6875"/>
   </g>
  </g>
  <g stroke-width="5.625">
   <path d="m601.4 431 9.8.1" stroke="#000001"/>
   <g stroke="#000" stroke-linejoin="round">
    <path d="m612.6 430.3s73.6-36.4 93.8-35.5c16 .7 16.1 35.4 32.8 35.9 4.5.1 10.2-2.2 17.7-8.3"/>
    <path d="m385.7 336.2-39.4 73.8c-6.7 12.5.9 23.5 17.7 22.2 34.5-.8 153.5-150.1 208.1-192.6"/>
   </g>
  </g>
 </g>
</svg>
