<svg height="210mm" viewBox="0 0 1052.4 744.1" width="297mm" xmlns="http://www.w3.org/2000/svg">
 <g fill="none" stroke-linecap="round" transform="translate(0 -308.26772)">
  <path d="m57.6 742.2h948.8" stroke="#969696" stroke-width="1.875"/>
  <g stroke="#000" stroke-dasharray="3.75 7.5" stroke-miterlimit="2" stroke-width=".9375">
   <path d="m58.3 844.1h948.8"/>
   <path d="m58.3 641.8h948.8"/>
   <path d="m58.3 540.6h948.8"/>
  </g>
 </g>
 <g fill="none" stroke-linecap="round">
  <g stroke="#000">
   <g stroke-linejoin="round">
    <g stroke-width="5.625">
     <path d="m821.8 336s-302.3 92.5-311.8 94.4"/>
     <path d="m575.4 262.4-141.6 168.1"/>
     <path d="m510.1 430.3c-55 17.3 33.4-136.4 77.6-183.1 4.7-5 14.6-17.1 33.3-18.6"/>
     <path d="m575.4 262.4-82.8 155.6"/>
     <path d="m555.8 293.6-53.8 98.9"/>
    </g>
    <path d="m497.9 431.5c-7.4-6.7-3-16.4 2.6-27.7" stroke-width="3.75"/>
    <g stroke-width="5.625">
     <path d="m583.6 252.9-35.7 61.7"/>
     <path d="m535.1 315.2c-12.9 24.9-31.5 57.4-40.2 89.7"/>
    </g>
   </g>
   <path d="m535.3 324.1-36.6 76.4" stroke-width="3.75"/>
  </g>
  <g stroke-width="5.625">
   <path d="m821.8 336-55.8 97.2" stroke="#0a000a" stroke-linejoin="round"/>
   <g stroke="#000">
    <path d="m766 433.2c78.8-64.1 155.2-58.4 136.8.6" stroke-linejoin="round"/>
    <path d="m948.6 393.1-45.7 40.7"/>
    <path d="m24.5-128.8-23.6 45.3" stroke-linejoin="round"/>
    <path d="m133.4-128.9 25.1 45.4" stroke-linejoin="round"/>
    <path d="m325.1-128.9-58.2 45.4"/>
    <g stroke-linejoin="round">
     <path d="m485.5-180.6c54.3-11 95.5-79.5 89.2-96.2-5.5-14.4-40.2 8.9-87.4 86.8-69.6 120.2-36 123.1 7.3 84"/>
     <path d="m629.6-116.6 33.9-16-27.4 48.9"/>
     <path d="m233.9 398.4 33.9-16-27.4 48.9 33.8-15.1"/>
    </g>
   </g>
  </g>
 </g>
 <path d="m176.7 322a11.6 11.6 0 0 1 -11.6 11.6 11.6 11.6 0 0 1 -11.6-11.6 11.6 11.6 0 0 1 11.6-11.7 11.6 11.6 0 0 1 11.7 11.6"/>
 <g fill="none" stroke="#000" stroke-linecap="round" stroke-linejoin="round" stroke-width="5.625">
  <path d="m77.6 385.5 25.1 45.4"/>
  <path d="m352.3 284.8 25.1 45.4"/>
 </g>
</svg>
