<svg height="210mm" viewBox="0 0 1052.4 744.1" width="297mm" xmlns="http://www.w3.org/2000/svg">
 <g fill="none" stroke-linecap="round">
  <g transform="translate(0 -308.26772)">
   <path d="m57.6 742.2h948.8" stroke="#969696" stroke-width="1.875"/>
   <g stroke="#000" stroke-dasharray="3.75 7.5" stroke-miterlimit="2" stroke-width=".9375">
    <path d="m58.3 844.1h948.8"/>
    <path d="m58.3 641.8h948.8"/>
    <path d="m58.3 540.6h948.8"/>
   </g>
  </g>
  <g stroke="#000" stroke-linejoin="round" stroke-width="5.625">
   <path d="m472.6 393.6s-104.2 45.5-109.6 48.5c-41.6 23.7-75.8 71.5-70.5 85 1.2 2.9 9.6 22.2 53.1-38.8 48.1-67.3 86.2-138.1 121.9-209.8 24.4-41.7.9-65.2-35.7-18.9"/>
   <path d="m472.6 393.6 251.8-107.9-42.5 71.3c-9 15.2 5 26 21.5 22.2"/>
   <path d="m703.4 379.2c33.9-7.2 190.9-106.1 173.2-140.3-7.1-13.7-40.2 8.9-87.4 86.8-50.2 86.7-54.5 106.4-24.7 106.4 7 0 36.7 1 45.6-4.4"/>
   <path d="m799.2 420.6c.6.1 1.1.2 1.6.4.1.1.3.2.4.2.8.6 1 1.6.6 3.2-.8 3.1-4.4 4.9-6.1 5.6-3.5 1.3-6.1-1.6-4.1-4.7 1.2-1.9 3.4-4.1 6-4.6.2 0 .3-.1.5-.1h.6c.5 0 1 .1 1.5.2"/>
   <path d="m810.1 427.7c7.4-2 56-43.4 56-43.4l20 47.9"/>
   <path d="m226.2 393 77.5-121.5c6.2-9.7 12.5-19.6 19.9-27.3 10-10.4 22.3-10.8 27.6-10.7 16.5.2 12.1 17.9-1.6 39.7-12.9 20.5-25.4 37.7-42.5 62.4-30.1 43.2-49.7 69.1-41.5 86 4.3 8.5 10.1 9.8 17 9.4 20.1-1.2 40.4-16.7 60.2-42.7l88.9-128.5"/>
   <path d="m179.4 383.2 22 48.1 24.8-38.3"/>
  </g>
 </g>
</svg>
