<svg height="210mm" viewBox="0 0 1052.4 744.1" width="297mm" xmlns="http://www.w3.org/2000/svg">
 <g fill="none" stroke-linecap="round">
  <g transform="translate(0 -308.26772)">
   <path d="m57.6 742.2h948.8" stroke="#969696" stroke-width="1.875"/>
   <g stroke="#000" stroke-dasharray="3.75 7.5" stroke-miterlimit="2" stroke-width=".9375">
    <path d="m58.3 844.1h948.8"/>
    <path d="m58.3 641.8h948.8"/>
    <path d="m58.3 540.6h948.8"/>
   </g>
  </g>
  <g stroke-linejoin="round" stroke-width="5.625">
   <path d="m776.3 293.8c-21.8 6-421.8 140.8-421.8 140.8" stroke="#060000"/>
   <path d="m354.5 434.6c-53.2 7.3-100.2 80.3-96.4 92.6.9 3 16.3 22.9 59.8-38.1 26.9-36.9 54.6-73.4 69.3-116.4 15.5-30.1-1.4-56.7-44.4-11.6" stroke="#060000"/>
   <g stroke="#000">
    <path d="m221.7 390.4c-13.8 47.4 37.9 61.7 94.2-1.1l26.9-28.1"/>
    <path d="m776.3 293.8c25.1-11.7 56.9-3.5 34.7 31.3-13.6 21.3-22.8 37.9-40.2 63.8-24.6 36.6-45.7 68.4-37.7 86.2 10.5 18 45 6.5 59.4-16.9"/>
   </g>
  </g>
 </g>
</svg>
