<svg height="210mm" viewBox="0 0 1052.4 744.1" width="297mm" xmlns="http://www.w3.org/2000/svg">
 <g fill="none" stroke-linecap="round">
  <g transform="translate(0 -308.26772)">
   <path d="m57.6 742.2h948.8" stroke="#969696" stroke-width="1.875"/>
   <g stroke="#000" stroke-dasharray="3.75 7.5" stroke-miterlimit="2" stroke-width=".9375">
    <path d="m58.3 844.1h948.8"/>
    <path d="m58.3 641.8h948.8"/>
    <path d="m58.3 540.6h948.8"/>
   </g>
  </g>
  <g stroke-linejoin="round" stroke-width="5.625">
   <ellipse cx="686.0365" cy="-35.829403" rx="4.609393" ry="6.862875" stroke="#000" transform="matrix(.72846687 .68508103 -.68508103 .72846687 0 0)"/>
   <path d="m489.5 431.4c14.4 0 32.1-1.1 39.4 7.3" stroke="#030002"/>
   <path d="m524.5 437.7c10.5-11.1 29.8-30.8 39-39.2 2.2-2 4.6-4.1 7.2-5.9 5.1-3.7 11-6.6 18.1-7.5 3.3-.4 6.4-.1 9 .9 2.8 1 5 2.6 6.6 4.7 3.7 5.2 3.1 13.5-5.1 23.4-24.4 29.4-45.3 43.7-38 59.3 2.6 5.6 9 8.2 16.3 7.4 11.8-1.4 20.1-7.7 27.8-15" stroke="#000"/>
  </g>
 </g>
</svg>
