<svg height="210mm" viewBox="0 0 1052.4 744.1" width="297mm" xmlns="http://www.w3.org/2000/svg">
 <g fill="none" stroke-linecap="round">
  <g transform="translate(0 -308.26772)">
   <path d="m57.6 742.2h948.8" stroke="#969696" stroke-width="1.875"/>
   <g stroke="#000" stroke-dasharray="3.75 7.5" stroke-miterlimit="2" stroke-width=".9375">
    <path d="m58.3 844.1h948.8"/>
    <path d="m58.3 641.8h948.8"/>
    <path d="m58.3 540.6h948.8"/>
   </g>
  </g>
  <g stroke-width="5.625">
   <g stroke-linejoin="round">
    <path d="m194.8 432.5c-24 14-32.3 21.6-48.3 36.6-23.9 22.4-34.4 52.8-31.8 59.7 1.1 2.9 17.7 21.8 57.3-41.8l89.2-152.4" stroke="#060000"/>
    <path d="m194.8 432.5c116.6-65.8 370.2-198.1 370.2-198.1" stroke="#000001"/>
    <g stroke="#000">
     <path d="m596.8 431.5s-16.7.1-24-1.5c-38.2-8.5 33.3-141.3 74.7-185.1 4.7-5 9.2-8.5 13.7-10.3"/>
     <path d="m651.7 427.6c-18 5.2-54.9 3.9-54.9 3.9"/>
     <path d="m651.7 427.6c5.4-1.5 10.7-2.2 15.7-1.5 23.8 3 24.4 51.1 40.7 53.4 10.7 1.5 20.1-8.2 27.9-15.1"/>
     <path d="m736.1 464.4c15.1-14.5 31.9-23.6 50.6-27.8 27.7-6.2 46.5 10.5 35.5 45.8"/>
    </g>
   </g>
   <path d="m933.2 284.5-111.1 197.9" stroke="#000"/>
  </g>
 </g>
</svg>
