<svg height="210mm" viewBox="0 0 1052.4 744.1" width="297mm" xmlns="http://www.w3.org/2000/svg">
 <g fill="none" stroke-linecap="round">
  <g transform="translate(0 -308.26772)">
   <path d="m57.6 742.2h948.8" stroke="#969696" stroke-width="1.875"/>
   <g stroke="#000" stroke-dasharray="3.75 7.5" stroke-miterlimit="2" stroke-width=".9375">
    <path d="m58.3 844.1h948.8"/>
    <path d="m58.3 641.8h948.8"/>
    <path d="m58.3 540.6h948.8"/>
   </g>
  </g>
  <g stroke="#000" stroke-width="5.625">
   <path d="m426.2 336.4-159.5 196.3"/>
   <g stroke-linejoin="round">
    <path d="m426.2 336.4s-31.6 58.9-37.3 73.4c-5.8 14.7.3 21.7 12.2 21.4 35.2-.5 54.9-34.2 107.3-94.8"/>
    <path d="m508.5 336.4 19.9 46.8"/>
    <path d="m528.3 383.2 54.4-67.8c17.9-22.3 34.9-29.6 44.6-26.4 8.8 2.9 12.9 14.2-3.4 42.6l-29.4 51.2"/>
    <path d="m594.6 382.9c25-11.8 67.7-31.5 85.3-32.4 16.8-.7 22.7 32.6 34.2 32.2 7.5-.2 13.1-6.2 18.3-10.8"/>
   </g>
  </g>
 </g>
</svg>
