<svg height="210mm" viewBox="0 0 1052.4 744.1" width="297mm" xmlns="http://www.w3.org/2000/svg">
 <g fill="none" stroke-linecap="round">
  <g transform="translate(0 -308.26772)">
   <path d="m57.6 742.2h948.8" stroke="#969696" stroke-width="1.875"/>
   <g stroke="#000" stroke-dasharray="3.75 7.5" stroke-miterlimit="2" stroke-width=".9375">
    <path d="m58.3 844.1h948.8"/>
    <path d="m58.3 641.8h948.8"/>
    <path d="m58.3 540.6h948.8"/>
   </g>
  </g>
  <g stroke="#000">
   <g stroke-linejoin="round">
    <path d="m610.8 336.4c-47.4 13.6-86.2 107.4-43.1 95.1 13.1-4.3 15-7.8 30.2-19.2" stroke-width="5.625"/>
    <path d="m598 412.4c13.1-8.6 23.7-20 36.9-20.3 5.5-.9 9.7 2.1 13 8.5 6.5 12.7 4 18.2 12.3 27.2 15.9 17.3 43.8-27.8 34.5-34.3-6.3-4.4-25.9 3.2-49.4 42-20.2 39.5-5.5 51.4 5.6 50.2 22-2.5 76-64.9 117.3-96.3" stroke-width="5.625"/>
    <path d="m529.7 390 65.1-45.9" stroke-width="6.061957"/>
    <g stroke-width="5.625">
     <path d="m529.7 390c-18.7 14.5-47 38-65.8 40.8-22.1 3-35.6-13.4-27.6-40.8"/>
     <path d="m768 389.4-54.3 97.2"/>
    </g>
   </g>
   <path d="m436.2 390c-22.4 38.2-49.7 84.7-54.2 92.1-2.7 4.5-5.8 10.2-8.2 16.4-12.2 28.5-2.3 35.4 10.9 35.7 15.4.4 28.9-12.2 42.1-29.5" stroke-width="5.625"/>
  </g>
 </g>
</svg>
