<svg height="210mm" viewBox="0 0 1052.4 744.1" width="297mm" xmlns="http://www.w3.org/2000/svg">
 <g fill="none" stroke-linecap="round">
  <g transform="translate(0 -308.26772)">
   <path d="m57.6 742.2h948.8" stroke="#969696" stroke-width="1.875"/>
   <g stroke="#000" stroke-dasharray="3.75 7.5" stroke-miterlimit="2" stroke-width=".9375">
    <path d="m58.3 844.1h948.8"/>
    <path d="m58.3 641.8h948.8"/>
    <path d="m58.3 540.6h948.8"/>
   </g>
  </g>
  <g stroke="#000" stroke-linejoin="round">
   <g stroke-width="5.625">
    <path d="m578.1 337.2c17.5-5 28.3 6.3 8 42l-31.5 52.1 133.4-143.1"/>
    <path d="m688 288.2-42.4 73.1c-6.6 11.4-.8 20.8 9.6 22.4 7.2 1.1 18.6.6 29.6-2.5"/>
    <path d="m689.9 371.3c.6.1 1.1.2 1.6.4.1.1.3.2.4.2.8.6 1 1.6.6 3.2-.8 3.1-4.4 4.9-6.1 5.6-3.5 1.3-6.1-1.6-4.1-4.7 1.2-1.9 3.4-4.1 6-4.6.2 0 .3-.1.5-.1h.6c.5 0 1 .1 1.5.2"/>
    <path d="m457.3 430.3c-25.5 10.3 89.4-82.7 120.9-93"/>
   </g>
   <path d="m570.4 268.9-72 125" stroke-width="8.4375"/>
   <path d="m474.9 419.4c13.1-10.8 13.9-14.8 22.9-29.3" stroke-width="3.75"/>
   <g stroke-width="5.625">
    <path d="m560.4 295.8-42.1 71.6"/>
    <path d="m576.5 243.5c-.2 12-3.1 14.3-12 32.8"/>
    <path d="m390.1 383.4c40 3 59.8-35.8 56.6-44.3-2.8-7.3-29.3-4.3-53.1 35-24.8 40.5-20.5 57.5-8.5 57.4 32.9-2.2 63.1-43.3 80.3-67.7 0 0 67.5-100.4 74-107.7 6.8-8.1 18.4-22.2 30.1-21.5 32.6 1.4-53.3 175.1-112.2 195.7"/>
   </g>
  </g>
 </g>
</svg>
