<svg height="210mm" viewBox="0 0 1052.4 744.1" width="297mm" xmlns="http://www.w3.org/2000/svg">
 <g fill="none" stroke-linecap="round">
  <g transform="translate(0 -308.26772)">
   <path d="m57.6 742.2h948.8" stroke="#969696" stroke-width="1.875"/>
   <g stroke="#000" stroke-dasharray="3.75 7.5" stroke-miterlimit="2" stroke-width=".9375">
    <path d="m58.3 844.1h948.8"/>
    <path d="m58.3 641.8h948.8"/>
    <path d="m58.3 540.6h948.8"/>
   </g>
  </g>
  <g stroke-linejoin="round" stroke-width="5.625">
   <path d="m415 360.4c9.3-12.6 18-18.1 26.2-21.7 24.8-6.9 35 2.5 12.3 40.5l-29.8 52.1" stroke="#000"/>
   <path d="m423.7 431.3 79.7-95.6" stroke="#000"/>
   <path d="m503.4 335.8 20 47.9" stroke="#060000"/>
   <g stroke="#000">
    <path d="m523.4 383.6 67.3-92.2"/>
    <path d="m590.7 291.4c21.6-28.9 36.1-52.4 56.9-56.8 10.7-2.7 14.3.7 18.7 3.2 7.6 4.3 8 17.2-6 41.5l-29.8 52.1"/>
   </g>
  </g>
 </g>
</svg>
