<svg height="210mm" viewBox="0 0 1052.4 744.1" width="297mm" xmlns="http://www.w3.org/2000/svg">
 <g fill="none" stroke-linecap="round">
  <g transform="translate(0 -308.26772)">
   <path d="m57.6 742.2h948.8" stroke="#969696" stroke-width="1.875"/>
   <g stroke="#000" stroke-dasharray="3.75 7.5" stroke-miterlimit="2" stroke-width=".9375">
    <path d="m58.3 844.1h948.8"/>
    <path d="m58.3 641.8h948.8"/>
    <path d="m58.3 540.6h948.8"/>
   </g>
  </g>
  <g stroke-linejoin="round" stroke-width="5.625">
   <g stroke="#000">
    <path d="m232 431.5 60.6-109c26.4-48.6 52-72.9 91.2-88.5"/>
    <path d="m232 431.5s386.5-190.6 421-197.6"/>
    <path d="m518.7 431.5c-11.8.4 99.9-93 130-95.3 25.5-1.9 20.8 33.9 38.1 35.3 12.5.1 23.9-12.1 39.6-27.6"/>
    <path d="m739.8 378.8c-17.7 8.6-37.3 19.8-51.9 34.5-25.9 26.2-39.9 52.6-36.9 60.3 1.1 2.9 17.7 21.8 57.3-41.8l88-150.7-70 62.9"/>
   </g>
   <path d="m518.7 431.5c22.5-8.9 52.2-48.9 60.4-86.1s38.8-98.1 73.8-111.6" stroke="#060000"/>
  </g>
 </g>
</svg>
