<svg height="210mm" viewBox="0 0 1052.4 744.1" width="297mm" xmlns="http://www.w3.org/2000/svg">
 <g fill="none" stroke-linecap="round">
  <g transform="translate(0 -308.26772)">
   <path d="m57.6 742.2h948.8" stroke="#969696" stroke-width="1.875"/>
   <g stroke="#000" stroke-dasharray="3.75 7.5" stroke-miterlimit="2" stroke-width=".9375">
    <path d="m58.3 844.1h948.8"/>
    <path d="m58.3 641.8h948.8"/>
    <path d="m58.3 540.6h948.8"/>
   </g>
  </g>
  <g stroke="#000">
   <g stroke-width="5.625">
    <path d="m500.2 431.8s120.2-119.6 136.8-132.9" stroke-linejoin="round"/>
    <path d="m340.6 430.7c15-41.7 52.6-81.1 103.2-92 53.6-11.6 80.8 24.9 56.3 92.1" stroke-linejoin="round"/>
    <path d="m662.1 352.8c-17.7 11.1-42.6 15.4-59.7 21.2"/>
    <g stroke-linejoin="round">
     <path d="m691.1 350.5c-10.3 5-29 10-38.8 7.2"/>
     <path d="m602.5 374.1c-60.4 50.2-77.3 95.5-64.2 107.9 5.6 5.3 26.6 8.4 54.3-67.4 15.8-47.4 16.5-113.3 70.8-131.6"/>
     <ellipse cx="739.24341" cy="-220.97559" rx="4.609393" ry="6.862874" transform="matrix(.72846687 .68508103 -.68508103 .72846687 0 0)"/>
    </g>
   </g>
   <ellipse cx="714.62537" cy="-196.00005" rx="5.271423" ry="7.848564" stroke-linejoin="round" stroke-width="14.034715" transform="matrix(.72846687 .68508103 -.68508103 .72846687 0 0)"/>
  </g>
 </g>
</svg>
