<svg height="210mm" viewBox="0 0 1052.4 744.1" width="297mm" xmlns="http://www.w3.org/2000/svg">
 <g fill="none" stroke-linecap="round">
  <g transform="translate(0 -308.26772)">
   <path d="m57.6 742.2h948.8" stroke="#969696" stroke-width="1.875"/>
   <g stroke="#000" stroke-dasharray="3.75 7.5" stroke-miterlimit="2" stroke-width=".9375">
    <path d="m58.3 844.1h948.8"/>
    <path d="m58.3 641.8h948.8"/>
    <path d="m58.3 540.6h948.8"/>
   </g>
  </g>
  <g stroke-width="5.625">
   <g stroke-linejoin="round">
    <g stroke="#000">
     <path d="m148.4 430.2c-82.5 54.2-94.9 86.5-90.3 98.5 1.1 2.9 17.7 21.8 57.3-41.8l89.2-152.4"/>
     <path d="m148.4 430.2 111.4-93.9c1-.8-25.9 49.6-25.9 49.6"/>
     <path d="m266.8 339.1-25.3 46.6"/>
     <path d="m246 385.6-12 .2"/>
     <path d="m273.7 336.1-27.7 49.5"/>
     <path d="m273.7 336.1-14.1-.1"/>
     <path d="m264.9 337.3-25.3 46.6"/>
     <path d="m246 385.6s38.5-28 46-32.8c14-8.8 34.8-20.6 42.9-14.3 7.9 6.1 10.4 43.9 26.2 46.7 3.7.7 7.4.5 11.2-.3 12.9-2.8 30.7-18.6 47.6-33.7"/>
     <path d="m319.7 338.4c20.7-6.7 16.4 16.2 20.4 30.3 3.9 14 11.8 16.8 24.9 17.2"/>
     <path d="m319.7 338.4c10.9-3.9 22.5-2.8 28.7 20.1 4.5 16.9 2.2 26.5 16.7 27.4"/>
     <path d="m335.3 341.8c5.7 10.3 5.1 24 8.7 32.7 2 4.7 4.7 8.1 11.3 8.5"/>
     <path d="m419.9 351.2c29.2-28.3 67.2-62.9 72.9-71.1 16.6-19.2 30.5-46.9 15.5-44.8-11.6 3-27.5 18.3-41.8 41.9-20.7 33.2-5.4 55.3 10.3 54 29.8-5 50.4-29 63.4-40.8"/>
    </g>
    <path d="m653.1 260.5c6.9-9.5 15.6-19.6 21.7-22.3 19.6-8.3 37.1 2.7 14.4 40.7l-29.8 52.1" stroke="#000001"/>
    <path d="m733.7 260.4-74.4 70.6" stroke="#000001"/>
    <path d="m733.7 260.4c14.2-11.3 72.4-63.4 105.2-95 34.7-33.4 63.7-71 47.3-76.7-14.6-5-47.3 19.3-94.5 97.2-60.3 104.2-35 118.2-1.1 97.4 2.5-.7 12.4-9.2 22.4-19.3" stroke="#000"/>
   </g>
   <g stroke="#000">
    <path d="m948.7 89.1c-20.4 32.9-131 171.6-135.7 175"/>
    <g stroke-linejoin="round">
     <path d="m540.2 290.4c-13.8 47.4 51.7 57.5 88.5 6.5 9.7-13.3 24.4-36.4 24.4-36.4"/>
     <path d="m983.8 229.8c14.8-7.7 32.2-16.2 28.9-34.4-.9-14.2-52.9-53.2-59.2-60.3-4.1-4.7-17.9-26.6-4.8-45.9"/>
    </g>
   </g>
  </g>
 </g>
</svg>
