<svg height="210mm" viewBox="0 0 1052.4 744.1" width="297mm" xmlns="http://www.w3.org/2000/svg">
 <g fill="none" stroke-linecap="round">
  <g transform="translate(0 -308.26772)">
   <path d="m57.6 742.2h948.8" stroke="#969696" stroke-width="1.875"/>
   <g stroke="#000" stroke-dasharray="3.75 7.5" stroke-miterlimit="2" stroke-width=".9375">
    <path d="m58.3 844.1h948.8"/>
    <path d="m58.3 641.8h948.8"/>
    <path d="m58.3 540.6h948.8"/>
   </g>
  </g>
  <g stroke="#000" stroke-linejoin="round" stroke-width="5.625">
   <path d="m546.3 430.1 225.7-96.2-55.8 97.2"/>
   <path d="m565 335.7-42.4 73.1c-9.3 16 3.9 27 22 21.7"/>
   <path d="m433 390.8c-13.8 47.4 37.5 60.1 86.1 3.2 11.8-13.3 40-49.7 46-58"/>
   <path d="m306.9 384.7c41.3 3.1 61.8-37.1 58.5-45.8-2.9-7.5-30.3-4.4-54.9 36.2-47.2 77.3-2.2 60.6 29.7 33.8"/>
  </g>
 </g>
</svg>
