<svg height="210mm" viewBox="0 0 1052.4 744.1" width="297mm" xmlns="http://www.w3.org/2000/svg">
 <g fill="none" stroke-linecap="round">
  <g transform="translate(0 -308.26772)">
   <path d="m57.6 742.2h948.8" stroke="#969696" stroke-width="1.875"/>
   <g stroke="#000" stroke-dasharray="3.75 7.5" stroke-miterlimit="2" stroke-width=".9375">
    <path d="m58.3 844.1h948.8"/>
    <path d="m58.3 641.8h948.8"/>
    <path d="m58.3 540.6h948.8"/>
   </g>
  </g>
  <g stroke="#000" stroke-width="5.625">
   <ellipse cx="210.20015" cy="615.89325" rx="25.728558" ry="20.371416" stroke-linejoin="round" transform="matrix(.79083574 -.61202846 .61202846 .79083574 0 0)"/>
   <path d="m625.1 159.6-142.5 263.4"/>
   <g stroke-linejoin="round">
    <path d="m478.5 419c.8.1 1.5.3 2.1.5.2.1.4.2.5.3 1 .8 1.4 2.1.8 4.3-1.1 4.2-5.8 6.6-8.1 7.4-4.7 1.7-8.1-2.2-5.4-6.3 1.7-2.6 4.5-5.4 7.9-6.1.2 0 .5-.1.7-.1h.9c.7 0 1.3.1 2 .3"/>
    <path d="m673.8 161.5c-35.9 22.6-66.9 56.8-48.6-1.9"/>
   </g>
  </g>
 </g>
</svg>
