<svg height="210mm" viewBox="0 0 1052.4 744.1" width="297mm" xmlns="http://www.w3.org/2000/svg">
 <g fill="none" stroke-linecap="round">
  <g transform="translate(0 -308.26772)">
   <path d="m57.6 742.2h948.8" stroke="#969696" stroke-width="1.875"/>
   <g stroke="#000" stroke-dasharray="3.75 7.5" stroke-miterlimit="2" stroke-width=".9375">
    <path d="m58.3 844.1h948.8"/>
    <path d="m58.3 641.8h948.8"/>
    <path d="m58.3 540.6h948.8"/>
   </g>
  </g>
  <g stroke="#000" stroke-width="5.625">
   <path d="m600.9 334.7-42.4 73.1c-14.1 24.3 23.6 37.2 51.9-1.5" stroke-linejoin="round"/>
   <path d="m610.5 406.3c5.7-5.2 45.6-69.8 45.6-69.8" stroke-linejoin="round"/>
   <path d="m600.9 334.7-161.2 198"/>
   <g stroke-linejoin="round">
    <path d="m656.1 336.4 20 47.9s42.6-68.8 45.5-72.1"/>
    <path d="m721.6 312.2c24.3-33 69.8-34.2 37.2 20l-31.5 52.1 77-36.6"/>
    <path d="m283.5 387.7 20.9 43.5 59.2-83.7"/>
    <ellipse cx="82.082703" cy="517.29047" rx="25.728558" ry="20.371416" transform="matrix(.79083574 -.61202846 .61202846 .79083574 0 0)"/>
    <path d="m363.6 347.5c7-10.5 66.4-46.5 83.2-47.3 16-.6 21.6 31 32.6 30.7 7.2-.2 12.4-7.6 16.7-13"/>
   </g>
  </g>
 </g>
</svg>
