<svg height="210mm" viewBox="0 0 1052.4 744.1" width="297mm" xmlns="http://www.w3.org/2000/svg">
 <g fill="none" stroke-linecap="round">
  <g transform="translate(0 -308.26772)">
   <path d="m57.6 742.2h948.8" stroke="#969696" stroke-width="1.875"/>
   <g stroke="#000" stroke-dasharray="3.75 7.5" stroke-miterlimit="2" stroke-width=".9375">
    <path d="m58.3 844.1h948.8"/>
    <path d="m58.3 641.8h948.8"/>
    <path d="m58.3 540.6h948.8"/>
   </g>
  </g>
  <g stroke="#000" stroke-linejoin="round" stroke-width="5.624999">
   <path d="m388.8 431.5c121.2-60.1 128.9-82.3 122.5-91.8-5.5-8.2-34.4-4.4-53 33.3-18.3 41.3-14.5 58.6-2.8 58.8 16.2.2 40.2-29.7 57.9-30.3 17.4-.6 18.8 29.8 40.2 29.8 19.4 0 27.5-7.1 80.1-47.3l22.3 47.6"/>
   <path d="m368.3 385.2 20.5 46.3"/>
  </g>
 </g>
</svg>
