<svg height="210mm" viewBox="0 0 1052.4 744.1" width="297mm" xmlns="http://www.w3.org/2000/svg">
 <g fill="none" stroke-linecap="round">
  <g transform="translate(0 -308.26772)">
   <path d="m57.6 742.2h948.8" stroke="#969696" stroke-width="1.875"/>
   <g stroke="#000" stroke-dasharray="3.75 7.5" stroke-miterlimit="2" stroke-width=".9375">
    <path d="m58.3 844.1h948.8"/>
    <path d="m58.3 641.8h948.8"/>
    <path d="m58.3 540.6h948.8"/>
   </g>
  </g>
  <g stroke="#000" stroke-linejoin="round" stroke-width="5.625">
   <path d="m397.4 431.2c53.1-67.7 108.5-51.9 93.3.3"/>
   <path d="m551.2 431.6c17.9-4.9 27.5-16.7 27.3-25.9-1.1-20.7-47.4-26.8-49-48.9-.3-8.7 9.9-17.8 19.6-20.3 15.9-4 23.4 4.5 19.6 15.9-2 6.1-6.7 13.8-17.4 22-2.4 1.8-4.8 2.9-4.8 2.9"/>
   <path d="m567.5 415c.6.1 1.1.2 1.6.4.1.1.3.2.4.2.8.6 1 1.6.6 3.2-.8 3.2-4.4 5-6.1 5.6-3.5 1.3-6.1-1.6-4.1-4.8 1.3-2 3.4-4.1 6-4.6.2 0 .4-.1.5-.1h.6c.5 0 1 .1 1.5.2"/>
   <path d="m562.4 425.3c7.3 4.8 16.9 3.6 26.3 2.9"/>
   <path d="m490.7 431.5 55.9-54.3"/>
   <path d="m593.9 418.1c.6.1 1.1.2 1.6.4.1.1.3.2.4.2.8.6 1 1.6.6 3.2-.8 3.2-4.4 5-6.1 5.6-3.5 1.3-6.1-1.6-4.1-4.8 1.3-2 3.4-4.1 6-4.6.2 0 .4-.1.5-.1h.6c.5 0 1 .1 1.5.2"/>
  </g>
 </g>
</svg>
