<svg height="210mm" viewBox="0 0 1052.4 744.1" width="297mm" xmlns="http://www.w3.org/2000/svg">
 <g fill="none" stroke-linecap="round">
  <g transform="translate(0 -308.26772)">
   <path d="m57.6 742.2h948.8" stroke="#969696" stroke-width="1.875"/>
   <g stroke="#000" stroke-dasharray="3.75 7.5" stroke-miterlimit="2" stroke-width=".9375">
    <path d="m58.3 844.1h948.8"/>
    <path d="m58.3 641.8h948.8"/>
    <path d="m58.3 540.6h948.8"/>
   </g>
  </g>
  <g stroke="#000" stroke-linejoin="round" stroke-width="5.625">
   <path d="m670 336.2c-36.7 9.6-69.9 67.1-63.9 87.4 5.7 12.6 22.8 6.4 33.6 3.2"/>
   <path d="m640.9 426.5c32.7-12.7 68.3-23.8 104.7-25 48.5-1.3 71 29.5 105.3 29.6"/>
  </g>
 </g>
 <circle cx="545.96033" cy="360.66684" r="10.653955"/>
 <circle cx="530.57068" cy="409.68246" r="10.653955"/>
 <g fill="none" stroke="#000" stroke-linecap="round" stroke-linejoin="round" stroke-width="5.625">
  <path d="m128.2 335.9c-24.6 9.6-68.6 71-49.9 88.4 5.8 5.9 12.3 6.5 15.5 6.3"/>
  <path d="m93.8 430.6c19.8 1.8 186.8-28 198.3-28.9 24.4-1.9 23.3 28.8 47 28.9"/>
  <path d="m339 430.6c17.7.5 58.3-28.8 69.8-29.4 20.4-.9 17.5 28.8 37.6 28.9 8.7 0 17.7-9.1 21.4-12.1"/>
  <path d="m850.9 431.1c17.7.5 58.3-28.8 69.8-29.4 20.4-.9 17.5 29.2 37.6 29.3 8.7 0 17.7-9.1 21.4-12.1"/>
 </g>
</svg>
