<svg height="210mm" viewBox="0 0 1052.4 744.1" width="297mm" xmlns="http://www.w3.org/2000/svg">
 <g fill="none" stroke-linecap="round">
  <g transform="translate(0 -308.26772)">
   <path d="m57.6 742.2h948.8" stroke="#969696" stroke-width="1.875"/>
   <g stroke="#000" stroke-dasharray="3.75 7.5" stroke-miterlimit="2" stroke-width=".9375">
    <path d="m58.3 844.1h948.8"/>
    <path d="m58.3 641.8h948.8"/>
    <path d="m58.3 540.6h948.8"/>
   </g>
  </g>
  <g stroke="#000" stroke-linejoin="round" stroke-width="5.625">
   <path d="m491.6 396.5a19.2 25.1 41.6 0 1 -14.3 31.3 19.2 25.1 41.6 0 1 -27.6-6.8 19.2 25.1 41.6 0 1 14.3-31.3 19.2 25.1 41.6 0 1 27.6 6.8z"/>
   <path d="m613.8 436.6c-15.7 11.3-32.2 22.7-50 32-6.4 3.3-11.9 5.6-18.8 8.3-9.4 3.5-27 9-34.9-4.5-2-3.6-3.2-8.3-3.6-13.9-3.6-43.8 38.3-140.8 101.7-175"/>
   <path d="m590.7 294.9-130.6 97.5"/>
   <path d="m613.8 436.6 18.8 44.7"/>
  </g>
 </g>
</svg>
