<svg height="210mm" viewBox="0 0 1052.4 744.1" width="297mm" xmlns="http://www.w3.org/2000/svg">
 <g fill="none" stroke-linecap="round">
  <g transform="translate(0 -308.26772)">
   <path d="m57.6 742.2h948.8" stroke="#969696" stroke-width="1.875"/>
   <g stroke="#000" stroke-dasharray="3.75 7.5" stroke-miterlimit="2" stroke-width=".9375">
    <path d="m58.3 844.1h948.8"/>
    <path d="m58.3 641.8h948.8"/>
    <path d="m58.3 540.6h948.8"/>
   </g>
  </g>
  <g stroke="#000">
   <g stroke-linejoin="round" stroke-width="5.625">
    <path d="m448 377.5c-51.9 47.4-87.5 68.3-123.9 109.5-6.8 10-20 24.6-18.2 37 .9 5.7 14 26.4 57.5-34.6 26.9-36.9 54.6-73.4 69.3-116.4 14.7-28.4.3-53.8-37.8-18.2"/>
    <path d="m448 377.5c55.1-43.5 185.2-174.3 153.2-185.4-14.6-5-40.2 8.9-87.4 86.8-60.3 104.2-36 118.4-1.8 98.4"/>
    <path d="m512 377.3c13-7.9 53.4-41.7 53.4-41.7l33.3 49.4"/>
    <path d="m565.4 335.6 24 49.5"/>
    <path d="m574.9 335.6 23.8 49.4"/>
    <path d="m570.9 335.5 24 49.5"/>
   </g>
   <path d="m565.7 334.5h9" stroke-width="3.75"/>
   <path d="m589.2 386h9" stroke-width="3.75"/>
   <path d="m598.7 385 59.6-49.7 21.9 49.7" stroke-linejoin="round" stroke-width="5.625"/>
  </g>
 </g>
</svg>
