<svg height="210mm" viewBox="0 0 1052.4 744.1" width="297mm" xmlns="http://www.w3.org/2000/svg">
 <g fill="none" stroke-linecap="round">
  <g transform="translate(0 -308.26772)">
   <path d="m57.6 742.2h948.8" stroke="#969696" stroke-width="1.875"/>
   <g stroke="#000" stroke-dasharray="3.75 7.5" stroke-miterlimit="2" stroke-width=".9375">
    <path d="m58.3 844.1h948.8"/>
    <path d="m58.3 641.8h948.8"/>
    <path d="m58.3 540.6h948.8"/>
   </g>
  </g>
  <g stroke="#000">
   <g stroke-width="5.625">
    <path d="m803.5 399.8c3-4.3 32.6-45.1 40.6-53.2 21.6-21.6 60.9-14.6 37.5 14.4-27.4 33.8-45.5 50.2-39.4 63.9 2.6 5.8 10.5 7.2 19.4 5 5.7-1.4 16.1-5 30.1-12.9" stroke-linejoin="round"/>
    <path d="m882.5 338.2c14.5 10.1 4.3 27.8-12.4 44.2-14.4 14-23.4 26.4-29.5 38.7"/>
    <path d="m882.5 338.2c.8-1.1 3.9 6.1.7 14.2-3.2 8.4-12.8 17.8-18.3 22.9-10.8 10.1-30.6 29-24.3 45.7"/>
   </g>
   <g stroke-width="2.8125">
    <path d="m873.9 336.5c11.3 1.3 8.8 6.5 9.1 11"/>
    <path d="m845.7 413.8c-2.7 4.9-3.8 12 2.3 14.5"/>
    <path d="m838 415.2c-.1 5.7 2.9 11.5 4.9 13.1"/>
   </g>
   <g stroke-linejoin="round" stroke-width="5.625">
    <path d="m680.1 421.4c20.7-22.2 44.8-33.5 67.7-34.3 27.6-.9 41.4 12.2 32.8 44l22.9-31.3"/>
    <path d="m891.6 417 55.4-33.7 20 47.9"/>
    <path d="m486.9 351.7c66.2-50.9 34.7 42.8-9 74.6-1.9 1.4-5.7 4.7-12.1 3.2"/>
    <path d="m465.9 429.6c-12 1.6 91.2-85.5 103.2-92.4 11.1-3.4 16.6-4.2 21 4.4 6.5 12.7 4 18.2 12.3 27.2 15.9 17.3 43.8-27.8 34.5-34.3-6.3-4.4-25.9 3.2-49.4 42-26 42.5-22.8 53-9.4 53.4 9.6.3 29.9.9 36.4-2.8"/>
    <path d="m565.2 339.8c9.6-6.8 18 4.1 21.6 15.8 3.2 10.5 8.7 18 23.9 17.1"/>
    <path d="m577.1 336c13.6.7 15.1 28.3 22.1 30"/>
    <path d="m614.8 417.6c.7.1 1.3.2 1.7.5.2.1.3.2.4.3.8.7 1.2 1.8.7 3.6-.9 3.5-4.9 5.5-6.8 6.2-3.9 1.4-6.8-1.8-4.6-5.3 1.4-2.2 3.8-4.6 6.7-5.1.2 0 .4-.1.6-.1h.7c.5 0 1.1.1 1.7.2"/>
    <path d="m610.9 428.2c10.6 3.8 43.3 3.8 49 1.9"/>
    <ellipse cx="276.22482" cy="729.31433" rx="25.728558" ry="20.371416" transform="matrix(.79083574 -.61202846 .61202846 .79083574 0 0)"/>
    <path d="m322.5 393.4s-31.1 41.5-50.1 57.9c-12.2 10.6-29.4 23.6-31.5 24.8-3 1.7-18.8 15.6-18.8 15.6-34.9 27.8-66.5 73.3-60.4 87.5 5.7 13.2 69.5-28.4 95.8-138.9 17.5-80 53.4-142.9 90.7-155.7"/>
    <path d="m119.1 431.2s79.2-41.9 84.9-45.5c13.2-8.2 43.5-29.4 36.9-45.1-4.3-9.6-34.7-8.8-58.5 31.2-26.3 43.8-17.6 61.4-4.2 59.6 24.8-4.3 53.1-33.6 70.3-51.9"/>
    <path d="m112.6 398.3 33.9-16-27.4 48.9"/>
    <path d="m248.5 379.4s66.5-72.3 74.2-78.3"/>
    <path d="m447.8 330.7-69.2.5"/>
   </g>
  </g>
 </g>
</svg>
