<svg height="210mm" viewBox="0 0 1052.4 744.1" width="297mm" xmlns="http://www.w3.org/2000/svg">
 <g fill="none" stroke-linecap="round">
  <g transform="translate(0 -308.26772)">
   <path d="m57.6 776.3h948.8" stroke="#969696" stroke-width="1.875"/>
   <g stroke="#000" stroke-dasharray="3.75 7.5" stroke-miterlimit="2" stroke-width=".9375">
    <path d="m58.3 878.2h948.8"/>
    <path d="m58.3 675.9h948.8"/>
    <path d="m58.3 574.7h948.8"/>
   </g>
  </g>
  <g stroke="#000">
   <g stroke-width="5.625">
    <path d="m378.1 423.2 72.8-34.5c94.4-44.7 144.1-92.7 123-118.2-9.8-11.9-40.2 9-87.4 87.7-60.3 105.2-36 119.7-1.8 99.4 2.3-1.4 13.4-8.1 26-15.9" stroke-linejoin="round"/>
    <path d="m510.7 441.7c12.2-6.8 24.9-17.8 39.1-15.6 20.5 5.7 11.7 64.2 47.3 27.4 2.7-2.8 5.6-6.9 7.1-9.3" stroke-linejoin="round"/>
    <path d="m557.9 273.5c-48 60-85.1 119.5-107.8 180.8"/>
   </g>
   <path d="m548.5 281.8c-38.3 44.9-74.5 98.7-96.4 158.6" stroke-width="7.5"/>
   <path d="m572.2 270c-9.2-6.9-21.3 13.8-23.8 16.7" stroke-width="3.75"/>
   <g stroke-width="5.625">
    <path d="m455.1 441.1c-6.1 21.8-2.5 23.6 11.3 23.9"/>
    <g stroke-linejoin="round">
     <path d="m727.9 275.1c-.5-.5-.8-.8-1.4-1.1-.2-.1-.7-.4-.9-.5s-.4-.2-.6-.2c-9 1.9-6.3 3.2-9 1.9-1.5-.7 2.2 10.4 5.3 9.2 2 .3 6.1-.4 7.6-3.8.7-1.7.6-3.2-.1-4.4-.1-.2-.3-.3-.4-.6-2.6-7.5-15-.3-23.3 7.8-3.9 3.8-9.2 8.9-15.3 19-10.8 17.4-59.4 103.3-73.5 125.7-3 4.8-8.8 12.5-12.3 17.6"/>
     <path d="m497.3 599.4a5.5 1.8 0 0 1 -5.5 1.8 5.5 1.8 0 0 1 -5.5-1.8 5.5 1.8 0 0 1 5.4-1.8 5.5 1.8 0 0 1 5.5 1.8h-5.5z" transform="matrix(.86958032 -.49379153 .49379153 .86958032 0 0)"/>
     <path d="m377.2 423.5c-29.4 12.8-56.3 24.8-70.3 31.5-46.3 20.9-81 10.8-67.2-33"/>
    </g>
    <path d="m827.2 80.5-111 197.9"/>
   </g>
  </g>
 </g>
</svg>
