<svg height="210mm" viewBox="0 0 1052.4 744.1" width="297mm" xmlns="http://www.w3.org/2000/svg">
 <g fill="none" stroke-linecap="round">
  <g transform="translate(0 -308.26772)">
   <path d="m57.6 742.2h948.8" stroke="#969696" stroke-width="1.875"/>
   <g stroke="#000" stroke-dasharray="3.75 7.5" stroke-miterlimit="2" stroke-width=".9375">
    <path d="m58.3 844.1h948.8"/>
    <path d="m58.3 641.8h948.8"/>
    <path d="m58.3 540.6h948.8"/>
   </g>
  </g>
  <g stroke="#000" stroke-width="5.625">
   <g stroke-linejoin="round">
    <path d="m658.7 431.2c4.5-5.5 7.1-8.4 7.9-9.3 48.9-54.4 107-46.6 89.6 9.1"/>
    <path d="m598.7 410.6 30.5-26.9 29.6 47.9"/>
    <path d="m534.1 369.5c5.4-10.5 11.5-21 20.8-27 22.5-14.1 55.1-7.6 33.5 19.1-27.4 33.8-47.2 52.6-39.4 63.9 9 13.2 36.1 1.2 49.7-14.9"/>
   </g>
   <path d="m867.3 233-111.1 197.9"/>
   <g stroke-linejoin="round">
    <path d="m412 533 86.3-146.4s-37.1 30.2-50.8 30.6"/>
    <path d="m295.1 333.9c-20.7 13.1-39.8 29.6-43.9 67.8-1.4 8.5 2 17.1 8.6 22 24.8 18.6 169.7-3.7 187.6-6.6"/>
    <path d="m451.3 408c.6.1 1.1.2 1.5.4.1.1.3.1.4.2.7.6 1 1.5.6 3.1-.8 3-4.2 4.7-5.8 5.4-3.4 1.2-5.8-1.6-3.9-4.5 1.2-1.9 3.3-3.9 5.7-4.4.2 0 .3-.1.5-.1h.6c.5 0 1 .1 1.4.2"/>
   </g>
  </g>
 </g>
</svg>
