<svg height="210mm" viewBox="0 0 1052.4 744.1" width="297mm" xmlns="http://www.w3.org/2000/svg">
 <g fill="none" stroke-linecap="round">
  <g transform="translate(0 -308.26772)">
   <path d="m57.6 742.2h948.8" stroke="#969696" stroke-width="1.875"/>
   <g stroke="#000" stroke-dasharray="3.75 7.5" stroke-miterlimit="2" stroke-width=".9375">
    <path d="m58.3 844.1h948.8"/>
    <path d="m58.3 641.8h948.8"/>
    <path d="m58.3 540.6h948.8"/>
   </g>
  </g>
  <g stroke="#000">
   <g stroke-linejoin="round" stroke-width="5.625">
    <path d="m413 433.6c14.6-6.7 64.1-32 81-32.8 16-.6 19.8 31 30.7 30.7 7.2-.2 18.5-13.5 25-20.3"/>
    <path d="m549.7 411.2 67.6-75.6-55.5 98.3"/>
    <path d="m413 433.6c-17.2 11.5-32.5 21.8-67.4 57.2-6.7 7.9-29 31.1-16.4 41.6 6.9 3.6 23.7 2.5 53.5-45.4l88-150.7"/>
    <path d="m561.8 433.9 38.4.2"/>
    <path d="m600.2 434.2 24 48"/>
    <path d="m609.7 434.2 23.8 47.9"/>
    <path d="m605.8 434.1 24 48"/>
   </g>
   <g stroke-width="3.75">
    <path d="m600.6 433.1h9"/>
    <path d="m624.1 483.1h9"/>
   </g>
  </g>
 </g>
</svg>
