<svg height="210mm" viewBox="0 0 1052.4 744.1" width="297mm" xmlns="http://www.w3.org/2000/svg">
 <g fill="none" stroke-linecap="round">
  <g transform="translate(0 -308.26772)">
   <path d="m57.6 742.2h948.8" stroke="#969696" stroke-width="1.875"/>
   <g stroke="#000" stroke-dasharray="3.75 7.5" stroke-miterlimit="2" stroke-width=".9375">
    <path d="m58.3 844.1h948.8"/>
    <path d="m58.3 641.8h948.8"/>
    <path d="m58.3 540.6h948.8"/>
   </g>
  </g>
  <g stroke-linejoin="round">
   <path d="m373.2 362c18.2-19.1 30.5-26 37.8-25.3 10.1 1 11 16.4 5.2 35-14.7 43-41.2 81.3-67.9 118.3-25.8 35.8-41.2 43.6-50 43.4-22.2-1.2-.5-38.4 5.8-49.2 16.3-28.1 57.9-77.2 77.8-77.8 17.3-.5 23 24.8 40.2 24.7 16.3-.1 34.4-22.5 60.8-53.6 40-47 104.7-117.2 121.4-128.4" stroke="#000" stroke-width="5.625001"/>
   <g stroke="#000017">
    <path d="m577.2 427.7c-30.8 7.6-48.4 4.5-55.8-11.5-1.7-3.6-3.7-7.8-4.2-13.2-.4-4.7-.3-10.1.5-16 6.1-47.5 50.1-123.2 108.9-151.8" stroke-width="5.625002"/>
    <path d="m626.6 235.3c-69.8 47.8-112.8 129.8-105.8 179.8" stroke-width="5.624999"/>
    <path d="m519.3 386c8.6-37.9 37.2-84.4 52.4-102.2" stroke-width="4.6875"/>
    <path d="m520.9 391.3c-3.5 26.3 2.6 32.8 16.3 38.7" stroke-width="5.624999"/>
    <path d="m597.1 396.2c3.4 9.7-2.5 22.6-13.2 28.8-10.6 6.2-22 3.4-25.3-6.3-3.4-9.7 2.5-22.6 13.2-28.8 10.6-6.2 22-3.4 25.3 6.3z" stroke-width="5.625"/>
   </g>
   <path d="m577.2 427.7c28.7-7.7 87.2-69.1 117.3-105.4 14.4-17.5 12.4-33.5 4.4-36.9-10.9-4.4-25.8 15.4-36.4 35.5-15.8 29.7-12.3 57.6.8 59.4 27.6 3.8 52.5-20.9 80.2-43.5" stroke="#000" stroke-width="5.802585"/>
  </g>
 </g>
</svg>
