<svg height="210mm" viewBox="0 0 1052.4 744.1" width="297mm" xmlns="http://www.w3.org/2000/svg">
 <g fill="none" stroke-linecap="round">
  <g transform="translate(0 -308.26772)">
   <path d="m57.6 742.2h948.8" stroke="#969696" stroke-width="1.875"/>
   <g stroke="#000" stroke-dasharray="3.75 7.5" stroke-miterlimit="2" stroke-width=".9375">
    <path d="m58.3 844.1h948.8"/>
    <path d="m58.3 641.8h948.8"/>
    <path d="m58.3 540.6h948.8"/>
   </g>
  </g>
  <g stroke="#000" stroke-linejoin="round" stroke-width="5.625">
   <path d="m370.5 355.8 13-11.2c21.7-18.7 54.4-6.9 34.6 16.8-28 33.4-47.2 52.6-39.4 63.9 4.4 6.4 13.1 7.1 22.5 4.1 5-1.6 15.4-7 20.2-10.4"/>
   <path d="m419.8 419.9s57.3-31.6 62.6-35.3c6.8-4.7 14.1-9.6 18.8-14.1 11.9-11.4 20.1-20.4 14.5-30.9-3.5-6.7-34.1-6.4-55 33-23.1 43.2-14 58.7-.7 58.8 32.4.4 93.9-94.9 93.9-94.9"/>
   <path d="m560.3 371.6c10.6-.8 56.8-35 80.6-35.4 17.5-.3 17.4 62.7 52.7 23.5"/>
   <path d="m560.3 371.6c-13.5 2.9-13.7-11.6-6.4-35.1"/>
  </g>
 </g>
</svg>
