<svg height="210mm" viewBox="0 0 1052.4 744.1" width="297mm" xmlns="http://www.w3.org/2000/svg">
 <g fill="none" stroke-linecap="round">
  <g transform="translate(0 -308.26772)">
   <path d="m57.6 742.2h948.8" stroke="#969696" stroke-width="1.875"/>
   <g stroke="#000" stroke-dasharray="3.75 7.5" stroke-miterlimit="2" stroke-width=".9375">
    <path d="m58.3 844.1h948.8"/>
    <path d="m58.3 641.8h948.8"/>
    <path d="m58.3 540.6h948.8"/>
   </g>
  </g>
  <g stroke-linejoin="round" stroke-width="5.625">
   <path d="m465 319.5c12.6-15.8 22.8-23 32-25.3 8.1-2 15.3-2.1 21-.6 6.2 1.6 11.2 6.4 8.7 18.1-6.4 14.1-15.9 21.3-33.7 32-15.8 12.8-43.5 22.6-38.9 53.9 6.3 42.7-45.5 80.6-63.9 91.9" stroke="#000"/>
   <path d="m465 319.5-88.3 107.3" stroke="#000"/>
   <path d="m376.7 414.8c1 .1 1.8.3 2.5.7.2.1.4.2.6.4 1.2.9 1.7 2.6 1 5.2-1.3 5.1-7.1 8-9.8 9-5.7 2-9.8-2.6-6.6-7.6 2-3.1 5.5-6.6 9.7-7.5.3-.1.6-.1.9-.1s.7-.1 1-.1c.8 0 1.6.1 2.4.3" stroke="#030002"/>
   <ellipse cx="45.413265" cy="680.26166" rx="25.728558" ry="20.371416" stroke="#000" transform="matrix(.79083574 -.61202846 .61202846 .79083574 0 0)"/>
   <path d="m454.5 487.7-64.1 1.8" stroke="#000"/>
   <path d="m513.7 427.5 107.2-91.7" stroke="#210000"/>
   <g stroke="#000">
    <path d="m513.3 417.5c.9.3 1.8.6 2.4 1.1.2.2.4.3.5.5 1 1.2 1.2 2.8 0 5.3-2.3 4.7-8.4 6.5-11.3 7.1-5.9 1-9.2-4.4-5.1-8.7 2.6-2.7 6.7-5.5 10.9-5.5h.9c.3 0 .7.1 1 .1.8.1 1.6.4 2.3.8"/>
    <path d="m632.9 410.3c14.9-11.2 22.4-16.2 33-16.3 24.9-.2 11.1 38 37 36.3 7.3-.4 14.5-4.7 21.7-10.3"/>
    <path d="m620.9 335.8c-13.8 25.3-28.6 50-43 74.9-13.1 23.6 9.4 24.7 29.4 16 6.5-2.9 16.6-10.4 25.7-16.4"/>
    <path d="m513.7 427.5-75.3 67.5"/>
   </g>
  </g>
 </g>
</svg>
