<svg height="210mm" viewBox="0 0 1052.4 744.1" width="297mm" xmlns="http://www.w3.org/2000/svg">
 <g fill="none" stroke-linecap="round">
  <g transform="translate(0 -308.26772)">
   <path d="m57.6 742.2h948.8" stroke="#969696" stroke-width="1.875"/>
   <g stroke="#000" stroke-dasharray="3.75 7.5" stroke-miterlimit="2" stroke-width=".9375">
    <path d="m58.3 844.1h948.8"/>
    <path d="m58.3 641.8h948.8"/>
    <path d="m58.3 540.6h948.8"/>
   </g>
  </g>
  <g stroke="#000">
   <g stroke-linejoin="round">
    <path d="m599.5 431.3c75.2-63.8 131.4-56.7 115.5-.6l134.3-196.5" stroke-width="5.625"/>
    <path d="m705.7 391.4c7.1 5.9 8.1 28.1 3.2 38.8" stroke-width="6.5625"/>
    <path d="m693.1 385.1c16.4 3.3 16.8 36.2 10.1 46.3" stroke-width="4.6875"/>
   </g>
   <g stroke-width="5.625">
    <path d="m703.9 431.4 9.8.1"/>
    <g stroke-linejoin="round">
     <path d="m262.5 335.8-54.4 95.5"/>
     <path d="m208.1 431.3 103.7-95.7 51.2 95.5 215.1-46.8"/>
     <path d="m578.1 384.4 21.4 46.9"/>
    </g>
   </g>
  </g>
 </g>
</svg>
