<svg height="210mm" viewBox="0 0 1052.4 744.1" width="297mm" xmlns="http://www.w3.org/2000/svg">
 <g fill="none" stroke-linecap="round">
  <g transform="translate(0 -308.26772)">
   <path d="m57.6 742.2h948.8" stroke="#969696" stroke-width="1.875"/>
   <g stroke="#000" stroke-dasharray="3.75 7.5" stroke-miterlimit="2" stroke-width=".9375">
    <path d="m58.3 844.1h948.8"/>
    <path d="m58.3 641.8h948.8"/>
    <path d="m58.3 540.6h948.8"/>
   </g>
  </g>
  <g stroke="#000">
   <g stroke-linejoin="round" stroke-width="5.625">
    <path d="m767.1 431.1c12.9-3.2 65.3-48.4 65.3-48.4l33.3 47.9"/>
    <path d="m832.5 382.7 24 48"/>
    <path d="m841.9 382.7 23.8 47.9"/>
    <path d="m838 382.6 24 48"/>
   </g>
   <path d="m834.7 381.7h7.1" stroke-width="3.75"/>
   <path d="m858.2 431.6h7.1" stroke-width="3.75"/>
   <g stroke-width="5.625">
    <path d="m760.6 432.3c1.9-.1 4.1-.4 6.5-1.2" stroke-linejoin="round"/>
    <path d="m849.9 297.3c20.6-22.8 32.1-48.8 28.6-58.2-5.5-14.4-40.2 8.9-87.4 86.8-45.4 78.3-46.9 106.9-30.5 106.4" stroke-linejoin="round"/>
    <path d="m849.9 297.3-217.8 237.9"/>
    <g stroke-linejoin="round">
     <path d="m250.9 351.4s-86.5 53.1-95.6 60.4c-8.6 7-10 10.9-9.4 14.6.6 3.6 3.3 5.1 6.6 5.2 4.5 0 10.9-4.3 12.3-5.1 48.9-28 69.1-128.6 6.8-73.1-2.3 2.1-17.4 18.4-20 20.9"/>
     <path d="m250.9 351.4c80.9-55.6 116-78 172.9-110.1 30.6-15.2 41.5-7.5 35.5 16.6"/>
     <path d="m459.3 257.9c-12.2 49.4-76.5 164-115.7 173.7-5.1.5-7.7-1-8.5-3.5-6-7.3 16.3-10.9 45.1-22.7 24.1-9.9 101.1-57.1 141.4-68.1"/>
     <path d="m522.2 336.8c-55.4 14.5-101.9 132.4-22.6 83.6 5.7-4.4 7.5-5.7 15-13.2"/>
    </g>
   </g>
   <path d="m514.6 407.2s16.1-15.2 24.3-23.2c26.1-25.6 49.5-54.5 99.8-46.5 13.6 8.9 14.4 20.9 14.7 30.6-7.9 43.5-61.2 63.4-81.6 64.2-26.8 1.1-46-21-26.7-50.8 19.6-21.2 26.9-31.3 57-43.8" stroke-linejoin="round" stroke-width="5.633859"/>
   <path d="m650.5 355.3c-14.4 29.1-41.4 56.2-71.3 75.3" stroke-width="5.625"/>
   <path d="m651.7 364.7c-16.6 22.2-34.5 43.3-56.4 61.1" stroke-width="5.625"/>
   <path d="m650.7 371.4c-14.9 22.5-20.6 30.9-43.5 48.5" stroke-width="7.5"/>
   <path d="m597.1 416.5c-10.5 10-32.1 14.6-39.3 13.1" stroke-width="3.75"/>
   <path d="m641.5 340.9c1.3 2.8 9.6 12.7 1.9 25.5" stroke-width="3.75"/>
   <path d="m584.2 346.3 81.8-62.7 19.1 47.9" stroke-linejoin="round" stroke-width="5.625"/>
  </g>
 </g>
</svg>
