<svg height="210mm" viewBox="0 0 1052.4 744.1" width="297mm" xmlns="http://www.w3.org/2000/svg">
 <g fill="none" stroke-linecap="round">
  <g transform="translate(0 -308.26772)">
   <path d="m57.6 742.2h948.8" stroke="#969696" stroke-width="1.875"/>
   <g stroke="#000" stroke-dasharray="3.75 7.5" stroke-miterlimit="2" stroke-width=".9375">
    <path d="m58.3 844.1h948.8"/>
    <path d="m58.3 641.8h948.8"/>
    <path d="m58.3 540.6h948.8"/>
   </g>
  </g>
  <g stroke="#000" stroke-linejoin="round" stroke-width="5.625">
   <path d="m357.3 333.4c54.3-11 97.7-78.3 91.4-95-5.5-14.4-40.3 8.9-87.4 86.8-20.8 35.9-31.8 61.2-35.3 78.1-4 19 1.4 28.1 12.9 28.3 17.4.3 40.3-21.9 50-31.6 5.7-5.7 13.9-12.6 21.8-12.8 5.1-.1 9 2.6 12.1 8.7 6.5 12.7 5.2 17.2 12.3 27.2 5.4 7.6 11.3 9 17.1 7.6 20.9-4.9 30.2-33.5 17.4-41.9-7.4-4.9-25.9 3.2-49.4 42-25.1 40.2-17.1 51.3-3.6 51.1 11.3-.1 20.2-6.3 30.9-16.9"/>
   <path d="m601.6 429.9c-49.7.7-63.5 1.5-109.7 46.4-23.7 26.3-31.2 40.1-28.9 50.7 2.2 10.3 31.3 16.1 59-59.7 15.8-47.4 16.5-113.3 70.8-131.6"/>
   <ellipse cx="731.73236" cy="-106.31981" rx="4.609393" ry="6.862874" transform="matrix(.72846687 .68508103 -.68508103 .72846687 0 0)"/>
   <ellipse cx="716.12042" cy="-92.445084" rx="4.609393" ry="6.862874" transform="matrix(.72846687 .68508103 -.68508103 .72846687 0 0)"/>
   <path d="m603.9 430.7c13 7.6 61.9-42.1 61.9-42.1"/>
   <path d="m447.5 464.9c42.5-42 96.1-95.4 121.6-115.7"/>
  </g>
 </g>
</svg>
