<svg height="210mm" viewBox="0 0 1052.4 744.1" width="297mm" xmlns="http://www.w3.org/2000/svg">
 <g fill="none" stroke-linecap="round">
  <g transform="translate(0 -308.26772)">
   <path d="m57.6 742.2h948.8" stroke="#969696" stroke-width="1.875"/>
   <g stroke="#000" stroke-dasharray="3.75 7.5" stroke-miterlimit="2" stroke-width=".9375">
    <path d="m58.3 844.1h948.8"/>
    <path d="m58.3 641.8h948.8"/>
    <path d="m58.3 540.6h948.8"/>
   </g>
  </g>
  <g stroke="#000">
   <g stroke-linejoin="round" stroke-width="6.562499">
    <path d="m459.5 336.6-47.5 81.7"/>
    <path d="m454.9 336.6-38.7 70.7-3.8 16.5"/>
    <path d="m459.5 336.6h-9.3"/>
   </g>
   <path d="m421.4 405c-6 9.6-9.9 25.1 3.6 25.5" stroke-width="3.749999"/>
   <path d="m450.1 336.2c-22.6 27.1-60.6 76.4-90.2 90-7.4 3.3-14.2 4.9-20 5-18.9.3-28.2-15.7-20.8-41.2" stroke-width="5.625"/>
   <path d="m730.9 284.6c-69.8 73.8-100.9 98.8-123.1 98.8-12.6 0-18.2-18.5 7.2-60.2 24.6-40.7 46.5-42.4 51.3-35.9 8.6 11.6-13.8 36.8-45.9 62.3-48.6 38.6-129.3 94.2-167.8 140.9-9.3 11.9-25.1 33.6-14.9 40.8 6.9 4.1 22.4 1.4 52.8-41.2 18-24.6 32.2-44.9 46.8-71.2 10.4-18.8 42.9-74.2 19.6-82-2-.7-4.4-.8-7.2-.2-2.5.6-5.4 1.7-8.7 3.6-16.8 10.9-55.5 51.3-76.1 70.3-10.4 9.6-21.1 20.5-38.6 20.9-13.2.1-22.2-9.6-15-23l38.9-72.3" stroke-width="5.624999"/>
   <path d="m730.9 284.6-58.7 98.1" stroke-linejoin="round" stroke-width="5.625"/>
  </g>
 </g>
</svg>
