<svg height="210mm" viewBox="0 0 1052.4 744.1" width="297mm" xmlns="http://www.w3.org/2000/svg">
 <g fill="none" stroke-linecap="round">
  <g transform="translate(0 -308.26772)">
   <path d="m57.6 742.2h948.8" stroke="#969696" stroke-width="1.875"/>
   <g stroke="#000" stroke-dasharray="3.75 7.5" stroke-miterlimit="2" stroke-width=".9375">
    <path d="m58.3 844.1h948.8"/>
    <path d="m58.3 641.8h948.8"/>
    <path d="m58.3 540.6h948.8"/>
   </g>
  </g>
  <g stroke="#000">
   <g stroke-linejoin="round" stroke-width="5.625">
    <path d="m277.8 431c.6.4 35.8-37.9 49.9-37.9 17.7-.1 13.9 38.4 36.8 38.2 14.3-.1 42.5-23.2 42.5-23.2"/>
    <path d="m407 408 31.2-23.3 21.4 46.2"/>
    <path d="m600.8 400.8c-12.8.7-68.7 9.3-72.1 10.5-10 3.6-15.5 7.6-16.7 11.7-1.9 7.1 4.8 8.3 6.4 8.4 16.6.4 47.4-44.7 52.6-82 5.7-40.6 44.3-104.4 80-114.7-36.5 4.6-191.5 196.3-191.5 196.3"/>
    <ellipse cx="329.0434" cy="771.63184" rx="25.728558" ry="20.371416" transform="matrix(.79083574 -.61202846 .61202846 .79083574 0 0)"/>
   </g>
   <path d="m755 397.8c.3 9.3-.4 14.6-6.3 21.9-3.6 4.5-8.8 8.3-16 11.1" stroke-width="5.624961"/>
   <path d="m751.4 392.6c2 6.9 1.8 6.4.7 11.6-1.6 7.6-6.1 13.5-12.5 18.7-3.2 2.6-6.9 5-10.9 7.3" stroke-width="6.599955"/>
   <path d="m734.3 424.4c-5.3 3.7-10.3 5.7-16.3 3.5" stroke-width="2.849979"/>
   <path d="m740.6 387.9c7.4 1.6 9 4 10.4 10.8" stroke-width="2.849979"/>
   <path d="m734.2 386.4-133.4 14.4" stroke-linejoin="round" stroke-width="5.625"/>
  </g>
 </g>
</svg>
