<svg height="210mm" viewBox="0 0 1052.4 744.1" width="297mm" xmlns="http://www.w3.org/2000/svg">
 <g fill="none" stroke-linecap="round">
  <g transform="translate(0 -308.26772)">
   <path d="m57.6 742.2h948.8" stroke="#969696" stroke-width="1.875"/>
   <g stroke="#000" stroke-dasharray="3.75 7.5" stroke-miterlimit="2" stroke-width=".9375">
    <path d="m58.3 844.1h948.8"/>
    <path d="m58.3 641.8h948.8"/>
    <path d="m58.3 540.6h948.8"/>
   </g>
  </g>
  <g stroke="#000" stroke-linejoin="round">
   <path d="m307.9 431.1c15.4-1.2 27.7-10.8 109.7-95l-39 72.4c-7.5 13.9 2.4 23.8 16.4 23" stroke-width="5.625"/>
   <path d="m394.9 431.5c27.9-2 60.2-30 77.8-30.5 19.4-.6 16.3 20.6 31.6 28.1 8.1 4 23.8 3.6 35.1-2.4" stroke-width="5.624999"/>
   <g stroke-width="5.625">
    <ellipse cx="516.41083" cy="98.04248" rx="4.609393" ry="6.862875" transform="matrix(.72846687 .68508103 -.68508103 .72846687 0 0)"/>
    <ellipse cx="171.85489" cy="649.32349" rx="23.986788" ry="18.992313" transform="matrix(.79083574 -.61202846 .61202846 .79083574 0 0)"/>
    <ellipse cx="786.99078" cy="-164.95178" rx="4.609393" ry="6.862874" transform="matrix(.72846687 .68508103 -.68508103 .72846687 0 0)"/>
    <path d="m527.7 431.3c38 1.3 70.9-63.4 107-109 26.4-33.3 39.5-38.2 50.2-38.1 4.5 0 8.1 1.4 10.6 3.6 3.2 2.9 4.4 7.5 3.3 13.7-1.2 6.6-5.2 14.9-12.6 24.7-26.7 35.5-41.2 55.5-50.2 69.2-5.3 8.2-6.9 18.2-3.5 25.2 3.4 8.3 12.5 10.6 21.2 10.4 11.1-.2 24.8-3.5 32.5-6.5"/>
   </g>
  </g>
 </g>
</svg>
