<svg height="210mm" viewBox="0 0 1052.4 744.1" width="297mm" xmlns="http://www.w3.org/2000/svg">
 <g fill="none" stroke-linecap="round">
  <g transform="translate(0 -308.26772)">
   <path d="m57.6 742.2h948.8" stroke="#969696" stroke-width="1.875"/>
   <g stroke="#000" stroke-dasharray="3.75 7.5" stroke-miterlimit="2" stroke-width=".9375">
    <path d="m58.3 844.1h948.8"/>
    <path d="m58.3 641.8h948.8"/>
    <path d="m58.3 540.6h948.8"/>
   </g>
  </g>
  <g stroke="#000">
   <g stroke-width="5.625">
    <g stroke-linejoin="round">
     <path d="m560.8 427.4c19.8-9 72.6-44.7 72.6-44.7l18.2 47.9"/>
     <path d="m450.8 431.1c43.9-15.9 71.5-94.7 46.6-94.9-7.2-.1-18.9 6.5-35.8 23.2"/>
     <path d="m450.8 431.1c-20.2.3 144.5-99.3 178.8-133.8 28.4-28.5 44.6-53.8 26.5-61.9-14-6.3-42.6 13.7-89.8 91.6-38.6 66.7-42.5 95.9-31.4 103.1 1.1.7 2.2 1.1 3.5 1.3 1.2.2 2.5.3 3.9.2"/>
    </g>
    <path d="m639.6 240c-48 60-85.3 117-108.1 178.2"/>
   </g>
   <path d="m628.6 250.1c-38.3 44.9-72.9 96.9-94.8 156.8" stroke-width="7.500001"/>
   <path d="m657.8 237.4c-12-5.1-22.3 10.8-27.8 15.9" stroke-width="3.75"/>
   <g stroke-width="5.625">
    <path d="m536.2 405.7c-3 9.2-6.3 20-.7 24.5"/>
    <path d="m542.3 431.5c5.5-.2 13.3-1.5 18.5-4.1" stroke-linejoin="round"/>
   </g>
  </g>
 </g>
</svg>
