<svg height="210mm" viewBox="0 0 1052.4 744.1" width="297mm" xmlns="http://www.w3.org/2000/svg">
 <g fill="none" stroke-linecap="round">
  <g transform="translate(0 -308.26772)">
   <path d="m57.6 742.2h948.8" stroke="#969696" stroke-width="1.875"/>
   <g stroke="#000" stroke-dasharray="3.75 7.5" stroke-miterlimit="2" stroke-width=".9375">
    <path d="m58.3 844.1h948.8"/>
    <path d="m58.3 641.8h948.8"/>
    <path d="m58.3 540.6h948.8"/>
   </g>
  </g>
  <g stroke="#000" stroke-linejoin="round">
   <g stroke-width="5.625">
    <path d="m544.9 484.7 273.4-95.9"/>
    <path d="m412 428.4c44.9.1 99.7-4.9 117.9 9.8 13.4 10.8 19.9 24.8 15 46.6"/>
    <path d="m304.9 431.3 107.1-2.9"/>
   </g>
   <path d="m818.3 388.8-46.6 95.4" stroke-width="5.624999"/>
   <path d="m310.3 335.5s-28.7 57.9-32.1 68c-4.7 13.8 4 24.7 12.7 26.5 4.7.9 9.3 1.3 14 1.3" stroke-width="5.625"/>
  </g>
 </g>
</svg>
