<svg height="210mm" viewBox="0 0 1052.4 744.1" width="297mm" xmlns="http://www.w3.org/2000/svg">
 <g fill="none" stroke="#000" stroke-linecap="round">
  <g transform="translate(0 -308.26772)">
   <path d="m57.6 742.2h948.8" stroke-width="1.875"/>
   <g stroke-dasharray="3.75 7.5" stroke-miterlimit="2" stroke-width=".9375">
    <path d="m58.3 844.1h948.8"/>
    <path d="m58.3 641.8h948.8"/>
    <path d="m58.3 540.6h948.8"/>
   </g>
  </g>
  <g stroke-width="5.625">
   <g stroke-linejoin="round">
    <path d="m343.9 532.7s157.1-174.9 172.9-184.9"/>
    <path d="m548.2 429.4c-49.7.7-63.5 1.5-109.7 46.4-23.7 26.3-36.3 44.3-32.3 54.4 2.2 5.6 34.7 12.4 62.3-63.3 15.8-47.4 16.5-113.3 70.8-131.6"/>
    <g transform="matrix(.72846687 .68508103 -.68508103 .72846687 0 0)">
     <ellipse cx="692.51703" cy="-70.108521" rx="4.609393" ry="6.862874"/>
     <ellipse cx="676.90509" cy="-56.233784" rx="4.609393" ry="6.862874"/>
    </g>
   </g>
   <path d="m666.5 234.2-109.8 191.3"/>
  </g>
 </g>
</svg>
