<svg height="210mm" viewBox="0 0 1052.4 744.1" width="297mm" xmlns="http://www.w3.org/2000/svg">
 <g fill="none" stroke-linecap="round">
  <g transform="translate(0 -308.26772)">
   <path d="m57.6 742.2h948.8" stroke="#969696" stroke-width="1.875"/>
   <g stroke="#000" stroke-dasharray="3.75 7.5" stroke-miterlimit="2" stroke-width=".9375">
    <path d="m58.3 844.1h948.8"/>
    <path d="m58.3 641.8h948.8"/>
    <path d="m58.3 540.6h948.8"/>
   </g>
  </g>
  <g stroke="#000" stroke-linejoin="round">
   <path d="m330.7 486.9c-19.4 20.3-22.1 31.9-19.7 40.9.8 3 17.7 21.8 57.3-41.8l88-150.7" stroke-width="5.625"/>
   <path d="m543.8 288.1c-9.2 6.4-197 179.8-213.1 198.7" stroke-width="5.625"/>
   <path d="m540.7 356.8c-13 3.5-28.7 9.9-32.2 10.9-5.2 1.4-9.2 5.1-9.2 7.7 0 3.7.8 5.8 5.8 6.3 8.8.6 35-26.8 42-37.4 20.7-32.1 24.7-70.8-3.3-56" stroke-width="5.419139"/>
   <g stroke-width="5.625">
    <path d="m540.7 356.8 64.1-21.2"/>
    <path d="m605.7 479.5c28.5-22.6 35.5-31.4 39-55.7 1.8-12.5-2.6-28-12.8-37.6-5-4.7-11-8.4-17-11.7-8.5-4.8-11.8-5.8-17.2-11.5-6-6.3-7.6-21.2 7.1-27.5"/>
   </g>
  </g>
 </g>
</svg>
