<svg height="210mm" viewBox="0 0 1052.4 744.1" width="297mm" xmlns="http://www.w3.org/2000/svg">
 <g fill="none" stroke-linecap="round">
  <g transform="translate(0 -308.26772)">
   <path d="m57.6 742.2h948.8" stroke="#969696" stroke-width="1.875"/>
   <g stroke="#000" stroke-dasharray="3.75 7.5" stroke-miterlimit="2" stroke-width=".9375">
    <path d="m58.3 844.1h948.8"/>
    <path d="m58.3 641.8h948.8"/>
    <path d="m58.3 540.6h948.8"/>
   </g>
  </g>
  <g stroke="#000" stroke-linejoin="round" stroke-width="5.625">
   <path d="m585.3 431.5 48.2-37.3"/>
   <ellipse cx="260.93005" cy="719.85614" rx="25.728558" ry="20.371416" transform="matrix(.79083574 -.61202846 .61202846 .79083574 0 0)"/>
   <path d="m351.7 431.7c88.5-59.2 253.5-59.1 233.6-.2"/>
   <path d="m651.1 387.1c37.2-.9 55.1.7 54.8 9.2"/>
   <path d="m702.8 393.4c.7.1 1.4.2 1.9.5.2.1.3.2.5.3.9.7 1.2 1.9.7 3.9-1 3.8-5.3 6-7.3 6.7-4.2 1.5-7.3-1.9-4.9-5.7 1.5-2.3 4.1-4.9 7.2-5.6.2 0 .4-.1.6-.1h.8c.6 0 1.2.1 1.8.2"/>
  </g>
 </g>
</svg>
