<svg height="210mm" viewBox="0 0 1052.4 744.1" width="297mm" xmlns="http://www.w3.org/2000/svg">
 <g fill="none" stroke-linecap="round">
  <g stroke="#969696" transform="translate(0 -308.26772)">
   <path d="m57.6 742.2h948.8" stroke-width="1.875"/>
   <g stroke-dasharray="3.75 7.5" stroke-miterlimit="2" stroke-width=".9375">
    <path d="m58.3 844.1h948.8"/>
    <path d="m58.3 641.8h948.8"/>
    <path d="m58.3 540.6h948.8"/>
   </g>
  </g>
  <g stroke="#000">
   <g stroke-linejoin="round">
    <path d="m520.7 338.8s-3.1 1.2 3.3-1.1c16.3-5.7 36.1 3.9 18.7 25.5-27.4 33.8-48.4 50.7-36.8 63.5 3.3 3.6 8.5 5.4 14.4 4.7" stroke-width="5.625"/>
    <path d="m410.7 431.5s86.2-84.4 110-92.7" stroke-width="5.625"/>
    <path d="m397.1 359.9c10.9-14.3 25.2-24.8 36.4-23.6 10.5 1.1 18.1 9.6 7.1 32.6-10 21.3-29.9 62.7-29.9 62.7" stroke-width="5.62496"/>
   </g>
   <path d="m576.5 482.8h-169.6" stroke-width="5.625001"/>
   <g stroke-linejoin="round">
    <path d="m599.4 389-20.8 42.5" stroke-width="5.625001"/>
    <path d="m605.7 391.8-20.6 39.7" stroke-width="4.941419"/>
    <path d="m609.9 388.9-20.8 42.5" stroke-width="5.625001"/>
    <path d="m602 389.7-20.6 39.7" stroke-width="4.941419"/>
    <g stroke-width="5.625001">
     <path d="m609.9 388.9-10.5.2"/>
     <path d="m589.1 431.3-10.5.2"/>
     <path d="m520.3 431.4c19.4-.5 33.8-7.6 79-42.3"/>
    </g>
   </g>
  </g>
 </g>
</svg>
