<svg height="210mm" viewBox="0 0 1052.4 744.1" width="297mm" xmlns="http://www.w3.org/2000/svg">
 <g fill="none" stroke-linecap="round">
  <g transform="translate(0 -308.26772)">
   <path d="m57.6 742.2h948.8" stroke="#969696" stroke-width="1.875"/>
   <g stroke="#000" stroke-dasharray="3.75 7.5" stroke-miterlimit="2" stroke-width=".9375">
    <path d="m58.3 844.1h948.8"/>
    <path d="m58.3 641.8h948.8"/>
    <path d="m58.3 540.6h948.8"/>
   </g>
  </g>
  <g stroke="#000" stroke-linejoin="round">
   <path d="m450.8 486.9c-19.4 20.3-22.1 31.9-19.7 40.9.8 3 17.7 21.8 57.3-41.8l88-150.7" stroke-width="5.625"/>
   <path d="m663.9 288.1c-9.2 6.4-197 179.8-213.1 198.7" stroke-width="5.625"/>
   <path d="m660.8 356.8c-13 3.5-28.7 9.9-32.2 10.9-5.2 1.4-9.2 5.1-9.2 7.7 0 3.7.8 5.8 5.8 6.3 8.8.6 35-26.8 42-37.4 20.7-32.1 24.7-70.8-3.3-56" stroke-width="5.419139"/>
   <g stroke-width="5.625">
    <path d="m660.8 356.8c16.7-4.4 54.3-18.9 74.1-20.2"/>
    <path d="m734.9 336.6c24-.8 32.4 41.1 48.8 40.7 10.8-.3 18.5-10 25.1-17.1"/>
    <path d="m576.4 335.3c-12.6 7.8-154.4 114.7-168.9 129.3-25.9 26.2-48.6 55.7-45.7 63.4 1.1 2.9 22.5 22.8 62-40.9l83.3-151.7-185.9 179"/>
    <path d="m274.6 490.3c-3.7 5.6-5.7 12.5-6.2 17.6-.7 7.4 1.5 13.5 3.8 16.3 2.8 3.4 5.2 8.8 19 9.1 9.9.2 16.7-6.1 30.1-18.8"/>
   </g>
  </g>
 </g>
</svg>
