<svg height="210mm" viewBox="0 0 1052.4 744.1" width="297mm" xmlns="http://www.w3.org/2000/svg">
 <g fill="none" stroke-linecap="round">
  <g transform="translate(0 -308.26772)">
   <path d="m57.6 742.2h948.8" stroke="#969696" stroke-width="1.875"/>
   <g stroke="#000" stroke-dasharray="3.75 7.5" stroke-miterlimit="2" stroke-width=".9375">
    <path d="m58.3 844.1h948.8"/>
    <path d="m58.3 641.8h948.8"/>
    <path d="m58.3 540.6h948.8"/>
   </g>
  </g>
  <path d="m387.4 384.5c48.1-9.2 58-34.4 55.1-43.4-3.2-9.6-26.7-7-51.4 33.8-10.6 17.4-16.6 30.1-19.1 39-3.8 13.4 2.5 17.3 10.2 17.7 4.9.2 9.4-1.4 11.6-2.1 3.5-1.2 7.1-2.8 10.8-4.9 9.1-4.9 18.7-12 28-18.7 15.8-11.4 34.1-20 50.8-19.7 26.2-.4 33.6 31.6 33.6 45" stroke="#000" stroke-linejoin="round" stroke-width="5.625"/>
  <path d="m517 431.3s28.6-14 67.1-40.9" stroke="#010000" stroke-linejoin="round" stroke-width="5.624999"/>
  <g stroke="#000">
   <path d="m672.7 235.1s-98.5 163.7-99.5 167.8" stroke-width="5.62496"/>
   <path d="m584.1 390.4c3.2-2.2 7.4-3.4 8.7-3.7 1.6-.4 3.1-.6 4.7-.6 1.4 0 2.8.1 4.1.4 5.3 1.1 9.6 4.6 11.5 10.1 3.7 10.5-2.8 24.6-14.3 31.3-11.6 6.8-23.9 3.7-27.6-6.8-.9-2.5-1.2-5.1-1-7.8.1-1.1.2-2.3.5-3.4.3-1.3.6-2.6 1.1-3.8.4-1.1.8-2.1 1.4-3.1" stroke-linejoin="round" stroke-width="5.625001"/>
  </g>
 </g>
</svg>
