<svg height="210mm" viewBox="0 0 1052.4 744.1" width="297mm" xmlns="http://www.w3.org/2000/svg">
 <g fill="none" stroke-linecap="round">
  <g transform="translate(0 -308.26772)">
   <path d="m57.6 742.2h948.8" stroke="#969696" stroke-width="1.875"/>
   <g stroke="#000" stroke-dasharray="3.75 7.5" stroke-miterlimit="2" stroke-width=".9375">
    <path d="m58.3 844.1h948.8"/>
    <path d="m58.3 641.8h948.8"/>
    <path d="m58.3 540.6h948.8"/>
   </g>
  </g>
  <g stroke="#000" stroke-width="5.625">
   <g stroke-linejoin="round">
    <path d="m457.6 336.1c-27.3 4.5-149.4 101-130.6 95.5"/>
    <path d="m407.9 331.8c33.5-13.6 89.2-81.1 69-95.4-37.8-13.7-77.8 131-100.2 155.8-9.7 14.6-27.1 28.1-49.6 39.3"/>
    <ellipse cx="280.04211" cy="734.20117" rx="25.728558" ry="20.371416" transform="matrix(.79083574 -.61202846 .61202846 .79083574 0 0)"/>
   </g>
   <path d="m726 336.6-64.6 54.4"/>
   <g stroke-linejoin="round">
    <path d="m416.2 430.9c-38.2-4 256.4-43.9 256.4-43.9"/>
    <path d="m416.2 430.9c3 0 11-4.3 12.4-5.2 25.1-15.8 52-73.2 40.1-87-1.7-1.9-4.1-3-7.4-3-1.3 0-2.5.2-3.7.4"/>
   </g>
  </g>
 </g>
</svg>
