<svg height="210mm" viewBox="0 0 1052.4 744.1" width="297mm" xmlns="http://www.w3.org/2000/svg">
 <g fill="none" stroke-linecap="round">
  <g transform="translate(0 -308.26772)">
   <path d="m57.6 742.2h948.8" stroke="#969696" stroke-width="1.875"/>
   <g stroke="#000" stroke-dasharray="3.75 7.5" stroke-miterlimit="2" stroke-width=".9375">
    <path d="m58.3 844.1h948.8"/>
    <path d="m58.3 641.8h948.8"/>
    <path d="m58.3 540.6h948.8"/>
   </g>
  </g>
  <g stroke-linejoin="round" stroke-width="5.625">
   <path d="m435.4 431.1 18.4.1 18.6-.2" stroke="#060000"/>
   <g stroke="#000">
    <path d="m479.6 415.8c1 .1 1.8.3 2.5.7.2.1.4.2.6.4 1.2.9 1.6 2.5 1 5.1-1.3 5-7 7.9-9.7 8.9-5.6 2-9.7-2.6-6.5-7.5 2-3.1 5.4-6.5 9.5-7.3.3-.1.6-.1.8-.1.3 0 .7-.1 1-.1.8 0 1.6.1 2.4.3"/>
    <path d="m576 299c18.4-24.8 63.9-37.1 63.4 29.4-.5 62.7 43.7 53.9 61.3 30.3"/>
    <path d="m482.2 425.1s92.8-125.3 93.7-126.1"/>
    <ellipse cx="97.174194" cy="591.70453" rx="25.728558" ry="20.371416" transform="matrix(.79083574 -.61202846 .61202846 .79083574 0 0)"/>
   </g>
  </g>
 </g>
</svg>
