<svg height="210mm" viewBox="0 0 1052.4 744.1" width="297mm" xmlns="http://www.w3.org/2000/svg">
 <g fill="none" stroke-linecap="round">
  <g transform="translate(0 -308.26772)">
   <path d="m57.6 742.2h948.8" stroke="#969696" stroke-width="1.875"/>
   <g stroke="#000" stroke-dasharray="3.75 7.5" stroke-miterlimit="2" stroke-width=".9375">
    <path d="m58.3 844.1h948.8"/>
    <path d="m58.3 641.8h948.8"/>
    <path d="m58.3 540.6h948.8"/>
   </g>
  </g>
  <g stroke="#000" stroke-linejoin="round" stroke-width="5.625">
   <path d="m325.1 481.2c7.6-.5 266.1-97 266.1-97 .4 5.9.6 51.2 23.7 48.9 57.1-5.6 63.7-51.1 51.2-51.5-7.7-.3-25.9 3.2-49.4 42-18.2 29.7-21.6 46.9-17.2 53.5 3.5 5.2 11.8 4.9 21.6 1.9 6-1.9 14.4-8.6 22.8-14.3"/>
   <path d="m643.8 464.7c14.2-8.7 30.1-16.4 39.8-14.5 13.6 2.5 15.7 29.4 30.5 29.1 9.4-.2 19-8.3 29-14.9"/>
   <path d="m743.1 464.4c14.2-8.7 30.1-16.4 39.8-14.5 17.2 3.2 16 46.2 45.6 21.5"/>
   <path d="m279.2 431.5c16.6-19.9 33.1-43.6 55.2-45.4 15.3-1.3 18.7 16.9 6.4 30.9-21.7 24.8-42.1 44.9-34.1 59.2 2.6 4.6 7.6 6.2 13.6 5.7 1.5-.1 3.1-.4 4.7-.8"/>
  </g>
 </g>
</svg>
