<svg height="210mm" viewBox="0 0 1052.4 744.1" width="297mm" xmlns="http://www.w3.org/2000/svg">
 <g fill="none" stroke-linecap="round">
  <g transform="translate(0 -308.26772)">
   <path d="m63.6 529.3h947.6" stroke="#969696" stroke-width="1.875"/>
   <g stroke="#000" stroke-dasharray="3.75 7.5" stroke-miterlimit="2" stroke-width=".9375">
    <path d="m64.4 631.3h947.5"/>
    <path d="m64.4 428.9h947.5"/>
    <path d="m64.4 327.7h947.5"/>
   </g>
   <path d="m63.6 933.5h947.6" stroke="#969696" stroke-width="1.875"/>
   <g stroke="#000" stroke-dasharray="3.75 7.5" stroke-miterlimit="2" stroke-width=".9375">
    <path d="m64.4 1035.4h947.5"/>
    <path d="m64.4 833.1h947.5"/>
    <path d="m64.4 731.9h947.5"/>
   </g>
  </g>
  <g stroke-linejoin="round" stroke-width="5.625">
   <path d="m101.5 184.8 33.9-16-27.4 48.9" stroke="#000"/>
   <path d="m427.9 172.8c40 3 57.6-35.3 56.6-44.3-1.4-12.3-29.3-4.3-53.1 35-30.8 50.4-20.4 58.9-.6 51.6 7.3-2.7 22.1-10.9 30.4-16.5" stroke="#000"/>
   <path d="m430.9 269.9c16.8-.5 33-21.3 35-47.2 2.1-26.8 46.7-54.9 36.3-48.7l-41.1 24.7" stroke="#060000"/>
  </g>
  <g stroke="#000">
   <g stroke-linejoin="round">
    <g stroke-width="5.625">
     <path d="m767.5 166.8 22.8 50.6"/>
     <path d="m294.5 207.4-15.3 25.8"/>
     <path d="m699.1 207.4-15.3 25.8"/>
    </g>
    <path d="m265.6 170.2c-10 8.3-85.2 45.6-65.9 47.6 3 .3 9.7-4.2 11-5 48.9-28 71.8-129.3 9.4-73.8-2.3 2.1-17.4 18.4-20 20.9" stroke-width="5.419139"/>
    <g stroke-width="5.638243">
     <path d="m251.9 126.4c2.3 32.7-17.1 62.2-38.1 82.5"/>
     <path d="m254.5 128.7c5.2 34.8-19.9 69.4-45 83.3"/>
     <path d="m247.1 125c3.6 34.1-21.2 69-37.7 86.9"/>
    </g>
    <path d="m239.7 124.8c7.9-3.1 5.9 10.5 5.9 15.8" stroke-width="2.819121"/>
    <path d="m216 202.2c-5.5 6.9-8.3 10.7-14.3 14.1" stroke-width="2.819121"/>
    <path d="m851.1 218.2c3 .3 9.7-4.3 11-5 48.9-28.1 71.8-129.9 9.4-74.1-2.3 2.1-17.4 18.4-20 21" stroke-width="5.431899"/>
    <g stroke-width="5.638243">
     <path d="m905.8 126.9c-.7 31-18.1 61.6-38.1 82.5"/>
     <path d="m908.4 129.2c5.2 34.8-19.9 69.4-45 83.3"/>
     <path d="m901.1 125.5c3.6 34.1-21.2 69-37.7 86.9"/>
    </g>
    <path d="m893.7 125.3c7.9-3.1 5.9 10.5 5.9 15.9" stroke-width="2.819121"/>
    <path d="m869.9 202.7c-5.5 6.9-9.4 9.8-15.3 13.2" stroke-width="2.819121"/>
    <path d="m554.8 217.5c3 .3 9.7-4.2 11-5 48.9-28 71.8-129.3 9.4-73.8-2.3 2.1-17.4 18.4-20 20.9" stroke-width="5.419139"/>
    <path d="m606.9 126c2.3 32.7-17.1 62.2-38.1 82.5" stroke-width="5.638243"/>
    <path d="m609.5 128.3c5.2 34.8-19.9 69.4-45 83.3" stroke-width="5.638243"/>
    <path d="m602.2 124.7c3.6 34.1-21.2 69-37.7 86.9" stroke-width="5.638243"/>
    <path d="m594.8 124.4c7.9-3.1 5.9 10.5 5.9 15.8" stroke-width="2.819121"/>
    <path d="m571 201.9c-5.5 6.9-8.3 10.7-14.3 14.1" stroke-width="2.819121"/>
    <path d="m366.6 612.2-15.3 25.8" stroke-width="5.625"/>
    <path d="m704.5 612.2-15.3 25.8" stroke-width="5.625"/>
    <path d="m164.6 527.1c-39.4 9.7-46.7 24.1-56.8 40.6l-28.6 55" stroke-width="5.624959"/>
    <path d="m409.8 622.1 66.1-94.6 24 46.3" stroke-width="5.625"/>
   </g>
   <path d="m812.9 527.9-37.3 64.5" stroke-width="5.625"/>
   <g stroke-linejoin="round">
    <ellipse cx="261.49756" cy="961.74756" rx="25.728558" ry="20.371416" stroke-width="5.625" transform="matrix(.79083574 -.61202846 .61202846 .79083574 0 0)"/>
    <path d="m859.1 622.7c-12.9-9.6 74.6-32.7 93.7-33.6 18.1-.7 22.6 33.3 35.1 32.9 8.2-.2 14-8.6 19-14.7" stroke-width="5.625"/>
    <path d="m859.1 622.7c3 .3 9.7-4.2 11-5 43.6-24.9 66.5-108.1 26.9-86.7-9.8 6.4-20.7 14.8-29 24.9" stroke-width="5.41914"/>
    <g stroke-width="5.638243">
     <path d="m911.2 531.2c2.3 32.7-17.1 62.2-38.1 82.5"/>
     <path d="m913.8 533.5c5.2 34.8-19.9 69.4-45 83.3"/>
     <path d="m906.5 529.9c3.6 34.1-21.2 69-37.7 86.9"/>
    </g>
    <path d="m899.1 529.7c7.9-3.1 5.9 10.5 5.9 15.8" stroke-width="2.819122"/>
    <path d="m875.3 607.1c-5.5 6.9-8.3 10.7-14.3 14.1" stroke-width="2.819122"/>
    <path d="m189.3 622.9c-12.9-9.6 74.6-32.7 93.7-33.6 18.1-.7 22.6 33.3 35.1 32.9 8.2-.2 14-8.6 19-14.7" stroke-width="5.625"/>
    <path d="m189.3 622.9c3 .3 9.7-4.2 11-5 43.6-24.9 66.5-108.1 26.9-86.7-9.8 6.4-20.7 14.8-29 24.9" stroke-width="5.41914"/>
    <g stroke-width="5.638243">
     <path d="m241.5 531.4c2.3 32.7-17.1 62.2-38.1 82.5"/>
     <path d="m244 533.7c5.2 34.8-19.9 69.4-45 83.3"/>
     <path d="m236.7 530.1c3.6 34.1-21.2 69-37.7 86.9"/>
    </g>
    <path d="m229.3 529.8c7.9-3.1 5.9 10.5 5.9 15.8" stroke-width="2.819122"/>
    <path d="m205.6 607.3c-5.5 6.9-8.3 10.7-14.3 14.1" stroke-width="2.819122"/>
    <path d="m556.9 623.7c3 .3 9.7-4.3 11-5 48.9-28.1 71.8-129.9 9.4-74.1-2.3 2.1-17.4 18.4-20 21" stroke-width="5.625"/>
    <path d="m611.7 532.4c-.7 31-18.1 61.6-38.1 82.5" stroke-width="5.638243"/>
    <path d="m614.3 534.7c5.2 34.8-19.9 69.4-45 83.3" stroke-width="5.638243"/>
    <path d="m606.9 531c3.6 34.1-21.2 69-37.7 86.9" stroke-width="5.638243"/>
    <path d="m599.5 530.8c7.9-3.1 5.9 10.5 5.9 15.9" stroke-width="2.819122"/>
    <path d="m575.8 608.2c-5.5 6.9-9.4 9.8-15.3 13.2" stroke-width="2.819122"/>
   </g>
   <path d="m714.3 427.9s-97.3 183.4-159.1 189.3c-4.6.9-2.3 6.5 1.8 6.6" stroke-width="5.625"/>
  </g>
 </g>
</svg>
