<svg height="210mm" viewBox="0 0 1052.4 744.1" width="297mm" xmlns="http://www.w3.org/2000/svg">
 <g fill="none" stroke-linecap="round">
  <g transform="translate(0 -308.26772)">
   <path d="m57.6 742.2h948.8" stroke="#969696" stroke-width="1.875"/>
   <g stroke="#000" stroke-dasharray="3.75 7.5" stroke-miterlimit="2" stroke-width=".9375">
    <path d="m58.3 844.1h948.8"/>
    <path d="m58.3 641.8h948.8"/>
    <path d="m58.3 540.6h948.8"/>
   </g>
  </g>
  <g stroke="#000" stroke-linejoin="round">
   <path d="m441.8 430.9c3 .3 9.7-4.3 11-5 44.9-25.8 67.8-113.5 23.3-84.9-4 2.6-8.6 6.2-13.8 10.8-27.6 24.2-63.3 82.3-77.9 79.9" stroke-width="5.431898"/>
   <g stroke-width="5.638243">
    <path d="m496.5 339.6c-.7 31-18.1 61.6-38.1 82.5"/>
    <path d="m499.1 341.9c5.2 34.8-19.9 69.4-45 83.3"/>
    <path d="m491.7 338.2c3.6 34.1-21.2 69-37.7 86.9"/>
   </g>
   <path d="m484.3 338c7.9-3.1 5.9 10.5 5.9 15.9" stroke-width="2.819121"/>
   <path d="m460.6 415.4c-5.5 6.9-9.4 9.8-15.3 13.2" stroke-width="2.819121"/>
   <g stroke-width="5.625">
    <path d="m441.8 430.9c-25.8 1.1 69.5-31 87.1-31.9 16.7-.7 22.6 32.5 34.1 32.1 7.5-.2 12.9-7.9 17.5-13.6"/>
    <ellipse cx="572.62054" cy="45.299606" rx="4.609393" ry="6.862874" transform="matrix(.72846687 .68508103 -.68508103 .72846687 0 0)"/>
   </g>
  </g>
 </g>
</svg>
