<svg height="210mm" viewBox="0 0 1052.4 744.1" width="297mm" xmlns="http://www.w3.org/2000/svg">
 <g fill="none" stroke-linecap="round">
  <g transform="translate(0 -308.26772)">
   <path d="m57.6 742.2h948.8" stroke="#969696" stroke-width="1.875"/>
   <g stroke="#000" stroke-dasharray="3.75 7.5" stroke-miterlimit="2" stroke-width=".9375">
    <path d="m58.3 844.1h948.8"/>
    <path d="m58.3 641.8h948.8"/>
    <path d="m58.3 540.6h948.8"/>
   </g>
  </g>
  <g stroke="#000" stroke-linejoin="round">
   <path d="m425 430.7c-8-2.8 103.1-99.9 149.2-137 83-65-26.7 159.9-88.2 186.6" stroke-width="5.625"/>
   <path d="m602.2 302-91.7 157.8" stroke-width="5.625"/>
   <path d="m596.4 318.3c-21.3 43.2-44.9 85.4-73 125.6" stroke-width="8.4375"/>
   <path d="m493.7 475.8c6.6-8.2 16.4-19 22.5-27.9" stroke-width="3.75"/>
   <path d="m425 430.7c3-.2 9.7-4.2 11-5 10.7-6.1 20.2-15.8 27.8-26.6 28.4-40.2 30.6-95.6-25.7-40.3" stroke-width="5.419139"/>
  </g>
 </g>
</svg>
