<svg height="210mm" viewBox="0 0 1052.4 744.1" width="297mm" xmlns="http://www.w3.org/2000/svg">
 <g fill="none" stroke-linecap="round">
  <g transform="translate(0 -308.26772)">
   <path d="m57.6 742.2h948.8" stroke="#969696" stroke-width="1.875"/>
   <g stroke="#000" stroke-dasharray="3.75 7.5" stroke-miterlimit="2" stroke-width=".9375">
    <path d="m58.3 844.1h948.8"/>
    <path d="m58.3 641.8h948.8"/>
    <path d="m58.3 540.6h948.8"/>
   </g>
  </g>
  <g stroke-linejoin="round" stroke-width="5.625">
   <g stroke="#000">
    <path d="m716.8 431.4c7.1-5.4 14.5-12 14.2-21.2-.9-14.2-21-14.4-31.2-28.3-13.6-21.8 26-51.2 38.1-45.6 11.4 7.2 3.7 28.1-38.1 45.6"/>
    <path d="m395.8 431.5c9.6 1 19.7-11.1 19.4-20.4-.9-14.2-21-14.4-31.2-28.3-13.6-21.8 26-51.2 38.1-45.6 11.4 7.2 3.6 24.4-46.3 57.9"/>
    <path d="m409 425.3c4.1-4.9 7.2-9.1 7.1-14.4.2-8.2-5.2-11.3-11.5-15.2-5.4-3.3-12.4-6.7-17.1-13-2.8-4.5-4.3-9.2-4.2-14 .1-4.4 1.7-9.5 5.1-13.5"/>
    <path d="m413.7 418.6c5.2-12.2-10.6-17.7-20-24.1-11.1-7.3-13.6-11.1-12.3-24.4"/>
    <path d="m330.7 425.8c7-3.5 34.3-22.6 45-30.7"/>
    <path d="m330.7 425.8c-14.1 8.1-34.3 8.6-42.6.1-34.7-35.4 53-168.5 106.2-190.7"/>
    <ellipse cx="525.86371" cy="82.99511" rx="4.609393" ry="6.862874" transform="matrix(.72846687 .68508103 -.68508103 .72846687 0 0)"/>
   </g>
   <path d="m502.9 336.4s-126.6 99.1-107.2 95.1" stroke="#00000c"/>
   <path d="m496.4 430.1 203.4-48.3" stroke="#000"/>
   <path d="m502.9 336.4-42.4 73.1c-7.4 12.8.6 24 13.3 23.8 3.2-.1 13.6-1.1 22.6-3.2" stroke="#000"/>
  </g>
 </g>
</svg>
