<svg height="210mm" viewBox="0 0 1052.4 744.1" width="297mm" xmlns="http://www.w3.org/2000/svg">
 <g fill="none" stroke-linecap="round">
  <g transform="translate(0 -308.26772)">
   <path d="m57.6 742.2h948.8" stroke="#969696" stroke-width="1.875"/>
   <g stroke="#000" stroke-dasharray="3.75 7.5" stroke-miterlimit="2" stroke-width=".9375">
    <path d="m58.3 844.1h948.8"/>
    <path d="m58.3 641.8h948.8"/>
    <path d="m58.3 540.6h948.8"/>
   </g>
  </g>
  <g stroke="#000" stroke-linejoin="round" stroke-width="5.625">
   <path d="m265.9 431.2c26.5-3.9 69.7-94.6 99.7-96.1 17.8.8 17.6 27.9 24.7 35.8 3 3.3 6.4 4.3 10 3.8 15.1-2.2 32.1-32.8 24.5-38.1-6.3-4.4-25.9 3.2-49.4 42-26.4 43.1-22.7 52.9-8.8 53.4 29.6 1 59.7-11.8 75.7-21.9"/>
   <path d="m442.2 410 36.8-22.8 20 44.1"/>
   <path d="m270.1 416c1 .1 1.8.3 2.5.7.2.1.4.2.6.4 1.2.9 1.7 2.6 1 5.2-1.3 5.1-7.1 8-9.8 9-5.7 2-9.8-2.6-6.6-7.6 2-3.1 5.5-6.6 9.7-7.5.3-.1.6-.1.9-.1s.7-.1 1-.1c.8 0 1.6.1 2.4.3"/>
   <path d="m396 414.7c1 .1 1.8.3 2.5.7.2.1.4.2.6.4 1.2.9 1.7 2.6 1 5.2-1.3 5.1-7.1 8-9.8 9-5.7 2-9.8-2.6-6.6-7.6 2-3.1 5.5-6.6 9.7-7.5.3-.1.6-.1.9-.1s.7-.1 1-.1c.8 0 1.6.1 2.4.3"/>
   <path d="m597.5 336.1-50.6 95.3"/>
   <path d="m547 431.4s44.6-32.4 61.8-29.2 16 46.2 45.6 21.5"/>
   <path d="m590.5 406.2c5.4-2.4 18.6-2.2 26.5 15 5.6 12.2 13.9 9.5 20.5 9.9"/>
   <path d="m605.1 404.3c6.7 5.9 6.3.5 21.2 23.1"/>
   <path d="m707 433.1c-17.7 8.6-37.3 19.8-51.9 34.5-25.9 26.2-39.9 52.6-36.9 60.3 1.1 2.9 17.7 21.8 57.3-41.8l88-150.7-109.1 88.3"/>
   <path d="m597.5 336.1-98.5 95.3"/>
  </g>
 </g>
</svg>
