<svg height="210mm" viewBox="0 0 1052.4 744.1" width="297mm" xmlns="http://www.w3.org/2000/svg">
 <g fill="none" stroke-linecap="round">
  <g stroke="#969696" transform="translate(0 -308.26772)">
   <path d="m57.6 742.2h948.8" stroke-width="1.875"/>
   <g stroke-dasharray="3.75 7.5" stroke-miterlimit="2" stroke-width=".9375">
    <path d="m58.3 844.1h948.8"/>
    <path d="m58.3 641.8h948.8"/>
    <path d="m58.3 540.6h948.8"/>
   </g>
  </g>
  <g stroke="#000">
   <ellipse cx="623.83398" cy="-118.22738" rx="4.609393" ry="6.862875" stroke-linejoin="round" stroke-width="5.625" transform="matrix(.72846687 .68508103 -.68508103 .72846687 0 0)"/>
   <ellipse cx="644.18597" cy="-136.65517" rx="4.609393" ry="6.862875" stroke-linejoin="round" stroke-width="5.625" transform="matrix(.72846687 .68508103 -.68508103 .72846687 0 0)"/>
   <path d="m564 346.7c-7.2 4.3-25.7 5.5-32.7 0" stroke-width="5.625002"/>
   <g stroke-linejoin="round">
    <path d="m508.2 234.9s-59.4 127.4-77.2 165.7c-7.5 18.8 3.1 31 18.7 30.5 19.6-.7 31.5-14.3 43.2-28.3 13.2-15.7 43.2-55.8 43.2-55.8" stroke-width="5.625"/>
    <path d="m560.3 349.4c4 4.4 7.1 7.8 19.7 8 21.8.3 49.5-21.6 74-21.4 19.9.2 16.4 30.7 34.5 30.7 8.7 0 14.1-5.3 19.4-11.5" stroke-width="5.625001"/>
   </g>
  </g>
 </g>
</svg>
