<svg height="210mm" viewBox="0 0 1052.4 744.1" width="297mm" xmlns="http://www.w3.org/2000/svg">
 <g fill="none" stroke-linecap="round">
  <g transform="translate(0 -308.26772)">
   <path d="m57.6 742.2h948.8" stroke="#969696" stroke-width="1.875"/>
   <g stroke="#000" stroke-dasharray="3.75 7.5" stroke-miterlimit="2" stroke-width=".9375">
    <path d="m58.3 844.1h948.8"/>
    <path d="m58.3 641.8h948.8"/>
    <path d="m58.3 540.6h948.8"/>
   </g>
  </g>
  <g stroke="#000">
   <g stroke-linejoin="round">
    <path d="m525.9 234.1-60.8 105.5c-24.8 39-61.8 83.2-88.1 91.5-1.2.4-5.3-.4-6.6-5.4-4.9-18.8 80.4-73.1 117.6-93.6" stroke-width="5.625"/>
    <path d="m549 357.5 16.4-22.8c-.1.4 4 43.5 21.1 47.7 4.8 1.2 10.6 1.2 15.4.7 14.9-1.3 25.9-6.1 35-12.3 23.3-14.2 23.3-36.9 14.1-37.2-7.7-.3-25.9 3.2-49.4 42-32.6 53.3-17.8 60.4 4.4 53.5 10.4-3.2 27.6-21.4 27.6-21.4" stroke-width="5.625"/>
    <path d="m571.4 337.8 2.9 26.7" stroke-width="7.5"/>
    <path d="m577.9 334.7c-1.3 13.6.4 27.1 1.1 40.7" stroke-width="5.625"/>
   </g>
   <path d="m578.7 354.5c-.3 10.4 4.9 27.1 11.1 27.9" stroke-width="3.75"/>
   <path d="m565.4 334.7h12.5" stroke-width="5.625"/>
   <path d="m488 332.1s61.7-36.8 73.2-46.3c5-4.1 16.5-12.2 20.4-22 9.9-15.7 10.2-22.4 4.5-26.8-6.4-4-31.6-4.4-40.3 20.1-4.9 13.8-3.1 34.6-6.7 53.9-1 5.4-1.3 15.1-7 21.5-15.3 17-46.2 31.1-61.3 48-16.4 18.4-15.7 40-6.7 47.6 5.4 4.6 15.2 4.2 29.2-4.6 5-3.2 9.4-8.7 16.7-16.1 5.7-5.8 38.9-49.9 38.9-49.9" stroke-linejoin="round" stroke-width="5.625"/>
   <path d="m483.4 372c-9.1 12.5-18.9 24.5-22.8 41.3" stroke-width="7.5"/>
   <path d="m502.7 355.6c-4.4 4.2-29.1 26.9-41.2 68.9" stroke-width="5.625"/>
   <path d="m466.9 411.3c.9-1.3-7.1 13 1.4 18" stroke-width="3.75"/>
  </g>
 </g>
</svg>
