<svg height="210mm" viewBox="0 0 1052.4 744.1" width="297mm" xmlns="http://www.w3.org/2000/svg">
 <g fill="none" stroke-linecap="round">
  <g transform="translate(0 -308.26772)">
   <path d="m57.6 742.2h948.8" stroke="#969696" stroke-width="1.875"/>
   <g stroke="#000" stroke-dasharray="3.75 7.5" stroke-miterlimit="2" stroke-width=".9375">
    <path d="m58.3 844.1h948.8"/>
    <path d="m58.3 641.8h948.8"/>
    <path d="m58.3 540.6h948.8"/>
   </g>
  </g>
  <g stroke="#000" stroke-width="5.625">
   <path d="m320.2 430.6c18.4-11.3 69.7-48.6 63.4-91.3-4.7-31.3 27.8-45.8 38.9-53.9 12.1-7.6 31.2-22.4 33.7-32 2.5-11.7-2.5-16.5-8.7-18.1-3.1-.8-6.6-1.2-10.4-1-25 2.4-43.9 24.8-62.7 48l-119.9 149" stroke-linejoin="round"/>
   <path d="m516.5 233.8s-193.3 183.3-200.3 189.2c-6.1 5.2-.6 10.4 4 7.7" stroke-linejoin="round"/>
   <path d="m516.5 233.8-111.1 197.9"/>
   <g stroke-linejoin="round">
    <path d="m506.9 384.6-25.3 46.6"/>
    <path d="m486 431.1-12 .2"/>
    <path d="m513.7 381.6-27.7 49.5"/>
    <path d="m513.7 381.6-14.1-.1"/>
    <path d="m505 382.8-25.3 46.6"/>
    <path d="m405.4 431.7 94.2-50.2-25.6 49.9"/>
    <path d="m574.7 431.1c30.7-1.1 81.7-30.1 118.6-30.7 48.5-.7 46.4 31.3 88.8 31.1 26.4-.2 45.9-8.2 67.2-16.9"/>
    <path d="m486 431.1c27.8-19.6 131.7-99.2 165.3-132.5 31.2-30.9 51.4-58 36-63.3-14.6-5-42.6 12.2-89.8 90.1-46 79.4-42.2 106.5-22.8 105.6"/>
   </g>
  </g>
 </g>
</svg>
