<svg height="210mm" viewBox="0 0 1169.3 744.1" width="330mm" xmlns="http://www.w3.org/2000/svg">
 <g fill="none" stroke-linecap="round">
  <g transform="translate(0 -308.26772)">
   <path d="m7.4 742.2h1143.9" stroke="#969696" stroke-width="1.875"/>
   <g stroke="#000" stroke-dasharray="3.75 7.5" stroke-miterlimit="2" stroke-width=".9375">
    <path d="m8.1 844.1h1143.9"/>
    <path d="m8.1 641.8h1143.9"/>
    <path d="m8.1 540.6h1143.9"/>
   </g>
  </g>
  <g stroke-linejoin="round" stroke-width="5.625">
   <path d="m505.6 431c8.2 0 302-144.1 302-144.1" stroke="#000"/>
   <path d="m807.6 286.8-39 72.4c-8.4 15.5 5 26 21.5 22.2" stroke="#000"/>
   <path d="m511.9 415.2c1 .1 1.8.3 2.5.7.2.1.4.2.6.4 1.2.9 1.7 2.6 1 5.2-1.3 5.1-7.1 8-9.8 9-5.7 2-9.8-2.6-6.6-7.6 2-3.1 5.5-6.6 9.7-7.5.3-.1.6-.1.9-.1s.7-.1 1-.1c.8 0 1.6.1 2.4.3" stroke="#030002"/>
  </g>
  <g stroke="#000">
   <g stroke-linejoin="round">
    <g stroke-width="5.625">
     <path d="m790 381.5c16.1-3.7 79.7-40.8 79.7-40.8"/>
     <path d="m973.4 235.8-47.8 86.7"/>
     <path d="m861.2 346.6 102.9-111.2-39 72.4c-8.4 15.5 5 26 21.5 22.2 2.8-.7 9.1-2.8 14-6 14.1-9 22.6-21.9 35.7-40.4"/>
    </g>
    <path d="m968.2 236.9-44.1 80.8" stroke-width="6.5625"/>
   </g>
   <path d="m930.6 316.3c-1.6 4.1-2.6 6.5.8 11.8" stroke-width="3.75"/>
   <g stroke-width="5.625">
    <path d="m964.1 235.4 9.3.4"/>
    <g stroke-linejoin="round">
     <path d="m1011.6 430.7c40.2-28.5 34.6-50.2 36-67.2 2.7-33.5-75.5-27.2-51.3-79.8"/>
     <path d="m1011.6 430.7c-20.6 1.2 40.5-31.4 67.3-27.5 18.9 2.8 15.5 28.1 34.3 28.1 7.8 0 13.9-6.1 18.9-11.2"/>
     <ellipse cx="475.06439" cy="823.26807" rx="27.410767" ry="21.70336" transform="matrix(.79083574 -.61202846 .61202846 .79083574 0 0)"/>
     <path d="m111.8 406c14.9-6.9 31-12 44.6-12.5 39.8-1.5 64 36.7 98.4 36.8 15 .1 33.5-5.1 51.2-13.8"/>
     <path d="m27.5 390.9c-7.9 27 6 40.7 29.6 39.6 17.1-.8 38.3-17.5 54.7-24.5"/>
     <path d="m419.3 334.7c54.3-11 95.5-79.5 89.2-96.2-5.5-14.4-40.3 8.9-87.4 86.8-69.6 120.2-36 123.1 7.3 84"/>
    </g>
   </g>
  </g>
 </g>
</svg>
