<svg height="210mm" viewBox="0 0 1052.4 744.1" width="297mm" xmlns="http://www.w3.org/2000/svg">
 <g fill="none" stroke-linecap="round">
  <g transform="translate(0 -308.26772)">
   <path d="m57.6 742.2h948.8" stroke="#969696" stroke-width="1.875"/>
   <g stroke="#000" stroke-dasharray="3.75 7.5" stroke-miterlimit="2" stroke-width=".9375">
    <path d="m58.3 844.1h948.8"/>
    <path d="m58.3 641.8h948.8"/>
    <path d="m58.3 540.6h948.8"/>
   </g>
  </g>
  <g stroke="#000" stroke-linejoin="round">
   <path d="m444.8 424.8c-6.4 4.6-17.3 6-22.7 6.1l-58.2.1" stroke-width="5.625"/>
   <path d="m363.9 431c56.7-20.6 86.2-145 10.8-71" stroke-width="5.419139"/>
   <g stroke-width="5.625">
    <path d="m423.6 414.8c1 .1 1.8.3 2.5.7.2.1.4.2.6.4 1.2.9 1.7 2.6 1 5.2-1.3 5.1-7.1 8-9.8 9-5.7 2-9.8-2.6-6.6-7.6 2-3.1 5.5-6.6 9.7-7.5.3-.1.6-.1.9-.1s.7-.1 1-.1c.8 0 1.6.1 2.4.3"/>
    <path d="m444.8 424.8c26-18.3 96-75.8 127.8-110.1 33.9-36.6 59.6-73.3 43.1-79-14.6-5-42.6 11.7-89.8 89.6-60.3 104.2-36 118.5-1.8 98.4 2.3-1.4 13.4-8.1 26-15.7"/>
    <path d="m550.2 408 44.4-25 20 47.9"/>
    <path d="m614.6 430.9c46.4-63.5 63.1-97.5 86.8-96 24.4 1.5 16.4 34.5 34.2 33.6 9.4-.5 16.3-8.1 22.6-15.6"/>
   </g>
  </g>
 </g>
</svg>
