<svg height="210mm" viewBox="0 0 1052.4 744.1" width="297mm" xmlns="http://www.w3.org/2000/svg">
 <g fill="none" stroke-linecap="round">
  <g stroke="#969696" transform="translate(0 -308.26772)">
   <path d="m57.6 742.2h948.8" stroke-width="1.875"/>
   <g stroke-dasharray="3.75 7.5" stroke-miterlimit="2" stroke-width=".9375">
    <path d="m58.3 844.1h948.8"/>
    <path d="m58.3 641.8h948.8"/>
    <path d="m58.3 540.6h948.8"/>
   </g>
  </g>
  <g stroke="#000">
   <g stroke-linejoin="round">
    <g stroke-width="5.625">
     <path d="m550.3 396.4a19.2 25.1 41.6 0 1 -14.3 31.3 19.2 25.1 41.6 0 1 -27.6-6.8 19.2 25.1 41.6 0 1 14.3-31.3 19.2 25.1 41.6 0 1 27.6 6.8z"/>
     <path d="m575.8 431.1c36.9-13.4 60.4-69.8 52.8-88-4.5-11.1-18.2-6.6-23.7-4-17.1 8.4-68.4 40.5-83.6 51.3"/>
     <path d="m575.8 431.1c-4.5 1.3-4.4-2-3.3-3.6 5.6-8.7 75.7-28.1 90.5-28.8 16.8-.7 22.7 32.6 34.2 32.2 7.5-.2 13.1-6.2 18.3-10.8"/>
    </g>
    <path d="m400.5 431.4c-3.7 1.7-6.8-1.8-3.5-4.9 1.9-1.8 48-20.4 89.3-37.3" stroke-width="5.624999"/>
    <path d="m400.5 431.4c11.3-3.6 29-14.3 32.2-40.1s20.9-53.1 39.1-55.8" stroke-width="5.625"/>
   </g>
   <path d="m486.2 389.2-66.8 145" stroke-width="5.625"/>
  </g>
 </g>
</svg>
