<svg height="210mm" viewBox="0 0 1052.4 744.1" width="297mm" xmlns="http://www.w3.org/2000/svg">
 <g fill="none" stroke-linecap="round">
  <g transform="translate(0 -308.26772)">
   <path d="m57.6 742.2h948.8" stroke="#969696" stroke-width="1.875"/>
   <g stroke="#000" stroke-dasharray="3.75 7.5" stroke-miterlimit="2" stroke-width=".9375">
    <path d="m58.3 844.1h948.8"/>
    <path d="m58.3 641.8h948.8"/>
    <path d="m58.3 540.6h948.8"/>
   </g>
  </g>
  <g stroke-width="5.625">
   <path d="m389 430.7c7.7-13.1 18.7-22 30.2-22.9 24.4-1.9 9.4 23.4 32.3 23.1 17.9-.2 32.4-14.1 50-27.3" stroke="#010000" stroke-linejoin="round"/>
   <g stroke="#000">
    <path d="m593.5 389.2c-18.8 10.9-40.6 23.5-49.8 32.7-25.9 26.2-34.9 47.2-31.9 54.9 1.1 2.9 10.2 26.1 49.7-37.6l83.3-151.7-13.2.5-130.1 115.5" stroke-linejoin="round"/>
    <path d="m631.6 288.1-90.5 178.4"/>
    <path d="m638.7 291-83.7 157.4"/>
    <path d="m635.7 290-90.8 170.5"/>
   </g>
  </g>
  <path d="m549.9 447c-6.5 14.2-17.5 27.2-25.3 34.2" stroke="#000" stroke-width="3.75"/>
  <g stroke-linejoin="round" stroke-width="5.625">
   <path d="m593.5 389.2c10.2-5.8 20.2-9 25.5-10.4 11.2-3 25.5-3.1 24.1 4.7 0 .2.1.4.1.7 0 1.4-.6 2.7-2.1 3.8-2.9 2.2-6.9.8-8.5-.4-3.3-.5-1-11.9 0-10.6 1.7 2.4 0 0 8.8 2.8.2.1.3.3.4.5.2.2.4.7.6.9.3.5.4.9.7 1.6" stroke="#00001f"/>
   <path d="m642.9 383.5a5.5 1.8 0 0 1 -5.5 1.8 5.5 1.8 0 0 1 -5.5-1.8 5.5 1.8 0 0 1 5.4-1.8 5.5 1.8 0 0 1 5.5 1.8h-5.5z" stroke="#000"/>
  </g>
 </g>
</svg>
