<svg height="210mm" viewBox="0 0 1052.4 744.1" width="297mm" xmlns="http://www.w3.org/2000/svg">
 <g fill="none" stroke-linecap="round">
  <g stroke="#969696" transform="translate(0 -308.26772)">
   <path d="m57.6 742.2h948.8" stroke-width="1.875"/>
   <g stroke-dasharray="3.75 7.5" stroke-miterlimit="2" stroke-width=".9375">
    <path d="m58.3 844.1h948.8"/>
    <path d="m58.3 641.8h948.8"/>
    <path d="m58.3 540.6h948.8"/>
   </g>
  </g>
  <g stroke="#000">
   <g stroke-linejoin="round">
    <path d="m325.2 431.4 94.2-94.7-49.2 94.6" stroke-width="5.625"/>
    <path d="m573.4 189.1c-64.9 43.7-160.6 211.9-203.2 242.2" stroke-width="5.625"/>
    <path d="m212.5 431.9c18-20.9 50.6-46.1 79.1-45.5 26.2-.4 33.6 31.6 33.6 45" stroke-width="5.624999"/>
    <path d="m317 404c1.2 7.1 5.2 21.5 4 26" stroke-width="5.625"/>
    <path d="m288.6 387.4c13-.1 22.2 8.8 25.1 17 3.4 9.6 4.7 20.4 4.2 26.9" stroke-width="4.6875"/>
   </g>
   <path d="m318.5 431.3 6.7.1" stroke-width="5.625"/>
   <g stroke-linejoin="round">
    <path d="m265.9 392.7c6.8-3.1 15.6-4.5 19.7-4.8 6.4-.5 11.7.6 16.7 3.6" stroke-width="3.75"/>
    <path d="m450.1 380.1c22.5-8.9 52.2-48.9 60.4-86.1s38.8-97.2 73.8-110.6" stroke-width="5.625"/>
    <path d="m450.1 380.1c-15.7.5 163.9-145.1 163.9-145.1" stroke-width="5.625"/>
    <g stroke-width="5.624999">
     <path d="m833.3 183.5-46.6 95.4"/>
     <path d="m833.3 183.5h-8.2"/>
     <path d="m829.4 184.3-45.7 93.9"/>
     <path d="m786.7 278.9h-8.2"/>
     <path d="m825.1 183.5-46.6 95.4"/>
     <path d="m567.4 330.4 257.7-146.9"/>
    </g>
    <path d="m614 235-46.6 95.4" stroke-width="5.624998"/>
   </g>
  </g>
 </g>
</svg>
