<svg height="210mm" viewBox="0 0 1052.4 744.1" width="297mm" xmlns="http://www.w3.org/2000/svg">
 <g fill="none" stroke-linecap="round">
  <g transform="translate(0 -308.26772)">
   <path d="m57.6 742.2h948.8" stroke="#969696" stroke-width="1.875"/>
   <g stroke="#000" stroke-dasharray="3.75 7.5" stroke-miterlimit="2" stroke-width=".9375">
    <path d="m58.3 844.1h948.8"/>
    <path d="m58.3 641.8h948.8"/>
    <path d="m58.3 540.6h948.8"/>
   </g>
  </g>
  <g stroke="#000" stroke-linejoin="round">
   <path d="m430.1 427.3 102.7-125.3" stroke-width="5.625"/>
   <path d="m532.8 302c24.3-33 69.2-34.6 37.2 20l-33 56.2" stroke-width="5.625"/>
   <g stroke-width="4.30181">
    <path d="m609 335.5c.8-.5-23.5 43.2-23.5 43.2"/>
    <path d="m614.3 337.7-23.1 40.9"/>
    <path d="m594.6 378.6-9.1.2"/>
    <path d="m619.5 335.4-25 43.2"/>
    <path d="m619.5 335.4-10.8-.1"/>
    <path d="m612.9 336.3-23.1 40.9"/>
   </g>
   <g stroke-width="5.625">
    <path d="m608.9 335.9-72 42.3"/>
    <path d="m428.4 419.4c.8.1 1.4.2 1.9.5.2.1.3.2.5.3.9.7 1.3 2 .8 4-1 3.9-5.4 6.1-7.5 6.9-4.3 1.6-7.6-2-5.1-5.9 1.6-2.4 4.2-5.1 7.4-5.7.2 0 .4-.1.7-.1s.5-.1.8-.1c.6 0 1.2.1 1.9.3"/>
    <path d="m269.4 335.2-42.4 73.1c-12.3 21.2 14.8 33.7 40.7 10.9 3.8-3.4 10.5-10.1 17.5-19.4"/>
    <path d="m285.2 399.8c16.9-17.9 26.9-18.3 33.4-5.7 6.5 12.7 5.3 17.1 12.3 27.2 20.1 29.1 43.1-26.4 34.5-34.3-9.6-8.9-31.9 5.2-51.8 41.3-32 58.8-14.2 61.2 10.3 47.3 3.2-1.8 6.4-3.9 9.7-6.1"/>
    <path d="m385 436.1 38.4-4.5"/>
    <ellipse cx="22.539106" cy="596.90771" rx="25.728558" ry="20.371416" transform="matrix(.79083574 -.61202846 .61202846 .79083574 0 0)"/>
    <path d="m372.3 440.9s-30 22.5-38.7 28.5"/>
    <path d="m547 528.8c4.9 9.2 28.4 7.7 48.3-24.3 8.5-13.7 17.7-31 19.9-61.8 5-69.6 49.8-120.3 68-104.4 10.9 9.5-23.7 40.3-87.8 39.6"/>
    <path d="m719.1 348.9c-9.5 7.8-106.7 89.1-108.6 90.4-32.5 22-71.6 74.4-63.5 89.5"/>
    <path d="m718.4 338.6c.7-.1 1.3-.2 1.8-.1.2 0 .3.1.5.1 1 .4 1.6 1.3 1.7 3.2.1 3.6-3 6.6-4.6 7.8-3.3 2.5-6.9.3-5.8-3.6.7-2.4 2.3-5.4 4.8-6.8.2-.1.3-.2.5-.3s.4-.2.7-.2c.5-.2 1.1-.3 1.7-.3"/>
    <path d="m716.3 350.9c14.7 6 33.4-6.1 47.6-15l18.2 44.1"/>
   </g>
  </g>
 </g>
</svg>
