<svg height="210mm" viewBox="0 0 1052.4 744.1" width="297mm" xmlns="http://www.w3.org/2000/svg">
 <g fill="none" stroke-linecap="round">
  <g transform="translate(0 -308.26772)">
   <path d="m57.6 742.2h948.8" stroke="#969696" stroke-width="1.875"/>
   <g stroke="#000" stroke-dasharray="3.75 7.5" stroke-miterlimit="2" stroke-width=".9375">
    <path d="m58.3 844.1h948.8"/>
    <path d="m58.3 641.8h948.8"/>
    <path d="m58.3 540.6h948.8"/>
   </g>
  </g>
  <g stroke-linejoin="round" stroke-width="5.625">
   <g stroke="#000">
    <path d="m255 432.1c11.5-16.1 36.9-41.2 57.8-44.7 28.8-4.8 43.9 11.1 35 43.7l214.5-47.9"/>
    <path d="m562.2 383.3 24 48"/>
    <path d="m660.9 390.1a19.6 25.7 28.4 0 1 -7 34.5 19.6 25.7 28.4 0 1 -29.1-.4 19.6 25.7 28.4 0 1 7-34.5 19.6 25.7 28.4 0 1 29.1.4z"/>
    <path d="m629.7 391.7-43.4 39.5"/>
   </g>
   <g stroke="#00000c">
    <path d="m635.5 387 73.5-50.7 33.3 47.9"/>
    <path d="m708.9 336.3 24 48"/>
    <path d="m718.4 336.3 23.8 47.9"/>
    <path d="m714.5 336.2 24 48"/>
   </g>
  </g>
  <g stroke="#00000c" stroke-width="3.75">
   <path d="m711.2 335.3h7.1"/>
   <path d="m734.6 385.2h7.1"/>
  </g>
 </g>
</svg>
