<svg height="210mm" viewBox="0 0 1052.4 744.1" width="297mm" xmlns="http://www.w3.org/2000/svg">
 <g fill="none" stroke-linecap="round">
  <g transform="translate(0 -308.26772)">
   <path d="m57.6 742.2h948.8" stroke="#969696" stroke-width="1.875"/>
   <g stroke="#000" stroke-dasharray="3.75 7.5" stroke-miterlimit="2" stroke-width=".9375">
    <path d="m58.3 844.1h948.8"/>
    <path d="m58.3 641.8h948.8"/>
    <path d="m58.3 540.6h948.8"/>
   </g>
  </g>
  <g stroke="#000" stroke-linejoin="round">
   <g stroke-width="5.625">
    <path d="m420.3 431.4 66.8-45.6"/>
    <path d="m487.2 385.8 22 45.6"/>
    <path d="m509.2 431.4c19.3-7.5 65-28 76.4-28.9 24.4-1.9 23.3 28.8 47 28.9"/>
    <path d="m632.6 431.4c21 .5 56.3-29.3 69.8-29.4 24.5-.1 21.1 30.2 44.8 29.7 11.3-.2 17.7-6.5 23.1-10.1"/>
    <path d="m386.2 335.9c-61.8 18.7-78.5 94-48.5 94.5 18.7.3 30-2 129.2-94.4"/>
   </g>
   <path d="m466.9 336-46.6 95.4" stroke-width="5.624999"/>
  </g>
 </g>
</svg>
