<svg height="210mm" viewBox="0 0 1052.4 744.1" width="297mm" xmlns="http://www.w3.org/2000/svg">
 <g fill="none" stroke-linecap="round">
  <g stroke="#969696" transform="translate(0 -308.26772)">
   <path d="m57.6 742.2h948.8" stroke-width="1.875"/>
   <g stroke-dasharray="3.75 7.5" stroke-miterlimit="2" stroke-width=".9375">
    <path d="m58.3 844.1h948.8"/>
    <path d="m58.3 641.8h948.8"/>
    <path d="m58.3 540.6h948.8"/>
   </g>
  </g>
  <g stroke="#000">
   <path d="m425.7 310.8c7.9-12 20.4-25.7 37.3-25.3 17.7.3 23.9 19.3 5 42-28.5 34.1-41.2 55.5-50.2 69.2-9.2 14.2-7.2 33.3 12.5 34.3 18.7.9 43.3-12.5 70.8-38.5" stroke-linejoin="round" stroke-width="5.62496"/>
   <path d="m500.9 392.5-72.9 140.3" stroke-width="5.625"/>
   <g stroke-linejoin="round">
    <path d="m569.5 437.2c27.1-53.6 47.3-102.7 71.7-160.8 9.8-23.4 9.3-42-10.3-42.4-19 .9-31.5 18.1-43.2 33" stroke-width="5.388435"/>
    <path d="m569.5 437.2c-19.1 39.7-49.9 104.5-68.4 94.5-17.7-9.6 7.6-43.6 22.2-58.7 56.3-58.4 193.8-185.9 193.8-185.9" stroke-width="5.625"/>
    <path d="m717.1 287-39 72.4c-7.5 13.9 2.4 23.8 16.4 23" stroke-width="5.625"/>
    <path d="m694.4 382.3c27.9-2 60.2-29.6 77.8-30.5 16.8-.7 20.9 30.2 34.2 30.4 8.5.1 14.1-6.5 18.3-10.8" stroke-width="5.624999"/>
   </g>
  </g>
 </g>
</svg>
