<svg height="210mm" viewBox="0 0 1052.4 744.1" width="297mm" xmlns="http://www.w3.org/2000/svg">
 <g fill="none" stroke-linecap="round">
  <g transform="translate(0 -308.26772)">
   <path d="m57.6 742.2h948.8" stroke="#969696" stroke-width="1.875"/>
   <g stroke="#000" stroke-dasharray="3.75 7.5" stroke-miterlimit="2" stroke-width=".9375">
    <path d="m58.3 844.1h948.8"/>
    <path d="m58.3 641.8h948.8"/>
    <path d="m58.3 540.6h948.8"/>
   </g>
  </g>
  <g stroke="#000" stroke-linejoin="round" stroke-width="5.625">
   <path d="m395.8 425c12.3-8.9 46.8-35.6 65.6-39.2 26.7-5.1 44.5 11.9 33.7 46.5l216.2-94.3"/>
   <path d="m711.3 338c19.4-7.3 70-30.3 96.5-53.9 15.7-14 27.6-39 24.9-46.1-5.5-14.4-40.3 8.9-87.4 86.8-69.6 120.2-36 123.1 7.3 84"/>
   <path d="m752.5 408.9 25-24.8 18.9 47.3"/>
   <path d="m287.3 353.7c66.2-50.9 34.7 42.8-9 74.6-1.9 1.4-5.7 4.7-12.1 3.2-4.9-1.1-6.2-12.1-1.4-17.1 11.4-12.3 16.9-16.8 31.8-27.6"/>
   <path d="m296 387.2c21.2-15.9 61.4-41.2 73.4-48.1 11.1-3.4 16.6-4.2 21 4.4 6.5 12.7 4 18.2 12.3 27.2 15.9 17.3 43.8-27.8 34.5-34.3-6.3-4.4-25.9 3.2-49.4 42-35.3 57.8-16.5 60.5 7.9 46.6"/>
   <path d="m365.5 341.7c9.6-6.8 18 4.1 21.6 15.8 3.2 10.5 8.7 18 23.9 17.1"/>
   <path d="m377.4 337.9c13.6.7 15.1 28.3 22.1 30"/>
  </g>
 </g>
</svg>
