<svg height="210mm" viewBox="0 0 1052.4 744.1" width="297mm" xmlns="http://www.w3.org/2000/svg">
 <g fill="none" stroke-linecap="round">
  <g transform="translate(0 -308.26772)">
   <path d="m57.6 742.2h948.8" stroke="#969696" stroke-width="1.875"/>
   <g stroke="#000" stroke-dasharray="3.75 7.5" stroke-miterlimit="2" stroke-width=".9375">
    <path d="m58.3 844.1h948.8"/>
    <path d="m58.3 641.8h948.8"/>
    <path d="m58.3 540.6h948.8"/>
   </g>
  </g>
  <g stroke="#000" stroke-linejoin="round">
   <ellipse cx="622.00507" cy="-1.04997" rx="4.609393" ry="6.862874" stroke-width="5.625" transform="matrix(.72846687 .68508103 -.68508103 .72846687 0 0)"/>
   <path d="m317.3 431.4c16.2-35.9 38.5-48.4 65.2-46.7 20.2 1.3 35.2 17.9 28.1 46.4h40" stroke-width="5.624999"/>
   <path d="m555.8 336c-31.4 12-60.4 35.5-62.7 72.5-.9 15 6.8 23.1 17.2 23" stroke-width="5.625"/>
   <path d="m510.4 431.5c29.5-.6 49.8-27.2 70.4-52.3 18.8-22.9 34.9-42.7 49-42.7 19.3 0 19.1 31 37.1 31.3 7 .1 14.2-4.4 21.4-10.2" stroke-width="5.625"/>
   <path d="m458 427.6s51-62.5 62.7-71.3" stroke-width="5.624999"/>
  </g>
 </g>
</svg>
