<svg height="210mm" viewBox="0 0 1052.4 744.1" width="297mm" xmlns="http://www.w3.org/2000/svg">
 <g fill="none" stroke-linecap="round">
  <g transform="translate(0 -308.26772)">
   <path d="m57.6 742.2h948.8" stroke="#969696" stroke-width="1.875"/>
   <g stroke="#000" stroke-dasharray="3.75 7.5" stroke-miterlimit="2" stroke-width=".9375">
    <path d="m58.3 844.1h948.8"/>
    <path d="m58.3 641.8h948.8"/>
    <path d="m58.3 540.6h948.8"/>
   </g>
  </g>
  <g stroke="#000" stroke-width="5.625">
   <g stroke-linejoin="round">
    <path d="m281.5 431.3 225.7-46.1"/>
    <path d="m186 431.4c39-64.7 104.7-56.6 95.5-.1"/>
    <path d="m507.2 385.2 22.1 46.2"/>
    <path d="m514.4 385.1 22.1 46.2"/>
   </g>
   <path d="m507.2 385.2 7.2-.1"/>
   <path d="m511.2 386.5 21 43.9" stroke-linejoin="round"/>
   <path d="m529.2 431.4 7.2-.1"/>
   <g stroke-linejoin="round">
    <path d="m536.5 431.3c10.6-12.1 26.9-30.7 43.7-31"/>
    <path d="m580.2 400.4c19.1.4 17.7 31.1 39.1 30.9 29.5-1.7 60.2-61.9 90.9-110.9 8.2-13.1 24.4-32.6 42.1-32.9 8.1-.2 15.1 6.7 13.5 16.3-1.1 6.7-3.4 15-9.2 26.8l-25.6 52.3"/>
   </g>
  </g>
 </g>
</svg>
