<svg height="210mm" viewBox="0 0 1133.9 744.1" width="320mm" xmlns="http://www.w3.org/2000/svg">
 <g stroke-linecap="round">
  <g fill="none" transform="translate(0 -308.26772)">
   <path d="m12.5 529.3h1102.2" stroke="#969696" stroke-width="1.875"/>
   <g stroke="#000" stroke-dasharray="3.75 7.5" stroke-miterlimit="2" stroke-width=".9375">
    <path d="m13.2 631.3h1102.3"/>
    <path d="m13.2 428.9h1102.3"/>
    <path d="m13.2 327.7h1102.3"/>
   </g>
   <path d="m12.5 933.5h1102.2" stroke="#969696" stroke-width="1.875"/>
   <g stroke="#000" stroke-dasharray="3.75 7.5" stroke-miterlimit="2" stroke-width=".9375">
    <path d="m13.2 1035.4h1102.3"/>
    <path d="m13.2 833.1h1102.3"/>
    <path d="m13.2 731.9h1102.3"/>
   </g>
  </g>
  <g stroke="#000">
   <g stroke-linejoin="round">
    <g fill="none" stroke-width="5.625">
     <path d="m243.6 569.1c-33.2 34.8-51.5 48.3-51.5 48.3"/>
     <path d="m190.1 610.1c.8.1 1.4.2 1.9.5.2.1.3.2.5.3.9.7 1.3 2 .8 4-1 3.9-5.4 6.1-7.5 6.9-4.3 1.6-7.6-2-5.1-5.9 1.6-2.4 4.2-5.1 7.4-5.7.2 0 .4-.1.7-.1s.5-.1.8-.1c.6 0 1.2.1 1.9.3"/>
     <path d="m37.9 622.4 144.8.1"/>
     <path d="m263.3 623.4c10.4-10 12.5-16.7 12.3-25.9-1.1-20.7-47.4-26.8-49-48.9-.3-8.7 9.9-17.8 19.6-20.3 15.9-4 23.4 4.5 19.6 15.9-2 6.1-6.7 13.8-17.4 22-2.4 1.8-4.8 2.9-4.8 2.9"/>
     <path d="m300.7 555.4c-9.7 12.8-50.4 72.1-37.4 68"/>
     <path d="m300.7 555.4c12.1-16 20.6-25.4 38.6-28.3 16-2.5 23.3 11.6 12.3 27.3-25 35.7-44.3 49.8-38.3 63.4 5.4 12.3 32 2.7 46.5-12.2 1-1 21.1-29.1-1.7-34.2-22.7-5.1-48.7 6.5-50.6 20.9-3.7 28.6 46.9 25.5 78-12.3"/>
     <path d="m461.5 575.5c-20.7 10.8-44.4 22.5-60.6 35-32.5 23.2-40.2 52.7-38 60 .9 3 16.3 22.9 59.8-38.1 26.9-36.9 54.6-73.4 69.3-116.4 11-30.5 1.1-52.4-34.7-21-1.5 1.4-3.2 2.8-4.8 4.4-8.6 8.7-57.1 67.2-67.2 80.6"/>
     <path d="m461.5 575.5c15.3-7.3 84.8-43.9 84.8-43.9"/>
     <ellipse cx="102.41345" cy="774.88049" rx="25.728558" ry="20.371416" transform="matrix(.79083574 -.61202846 .61202846 .79083574 0 0)"/>
     <path d="m796.9 139.4c-31.5 15.7-94.6 32.3-135 32.3-37.2 0-64-13.7-63.4-48.6l-99 95.1"/>
     <path d="m554.4 120.8-55.8 97.2"/>
     <path d="m554.4 120.8h-10.6"/>
     <path d="m548.8 120.9-55.8 97.2"/>
     <path d="m498.6 218.1h-10.6"/>
     <path d="m469.3 190.3 74.6-69.5-55.8 97.2 11-.1"/>
     <path d="m357.7 217.7s17.5-30.6 42.1-27.8c22.9 2.6 20.3 44 46.5 20.8l23-20.4"/>
    </g>
    <g fill="#eb0000" fill-rule="evenodd" transform="matrix(1.4281073 0 0 1.4281073 -245.70413 -141.52047)">
     <path d="m732.1 185.5c.8.1 1.4.2 1.9.5.2.1.3.2.5.3.9.7 1.3 2 .8 4-1 3.9-5.4 6.1-7.5 6.9-4.3 1.6-7.6-2-5.1-5.9 1.6-2.4 4.2-5.1 7.4-5.7.2 0 .4-.1.7-.1h.8c.6 0 1.2.1 1.9.3" stroke-width="5.625"/>
     <path d="m729.3 188.3c.3 0 .6.1.9.2.1 0 .2.1.2.1.4.3.6.9.4 1.8-.4 1.7-2.4 2.8-3.3 3.1-1.9.7-3.4-.9-2.3-2.6.7-1.1 1.9-2.3 3.3-2.6h.3.4c.3 0 .6 0 .8.1" stroke-width="4.981044"/>
    </g>
    <g fill="none" stroke-width="5.625">
     <path d="m204 184.9 29.6-15.9-23.5 49 105-94.9-52.2 95.2 74.7-40.2"/>
     <path d="m337.7 178.1 20 39.6"/>
     <path d="m785.1 139.4c12.2 10.1 52-9 74.7-15.8"/>
     <ellipse cx="593.69989" cy="642.83191" rx="25.728558" ry="20.371416" transform="matrix(.79083574 -.61202846 .61202846 .79083574 0 0)"/>
     <path d="m927.3 528.6s-3.1 1.2 3.3-1.1c16.3-5.7 36.1 3.9 18.7 25.5-27.4 33.8-45.5 50.2-39.4 63.9 2.3 5.2 10.4 6.8 19.5 5.6 7.7-1.1 16.2-4.3 22.3-9.3"/>
     <path d="m611.6 622.7c15.6-21.9 44-38.6 64.6-42.8 30.5-6.2 46.7 9.6 37.6 43.2l213.5-94.5"/>
    </g>
   </g>
   <g fill="none" stroke-width="5.625">
    <path d="m1090.8 473.5s-123.9 128.2-139.1 139.7"/>
    <path d="m1090.8 473.5-56.7 94.9 53.6-41.9" stroke-linejoin="round"/>
   </g>
  </g>
 </g>
</svg>
