<svg height="210mm" viewBox="0 0 1052.4 744.1" width="297mm" xmlns="http://www.w3.org/2000/svg">
 <g fill="none" stroke-linecap="round">
  <g transform="translate(0 -308.26772)">
   <path d="m57.6 742.2h948.8" stroke="#969696" stroke-width="1.875"/>
   <g stroke="#000" stroke-dasharray="3.75 7.5" stroke-miterlimit="2" stroke-width=".9375">
    <path d="m58.3 844.1h948.8"/>
    <path d="m58.3 641.8h948.8"/>
    <path d="m58.3 540.6h948.8"/>
   </g>
  </g>
  <g stroke="#000" stroke-linejoin="round" stroke-width="5.625">
   <path d="m526.2 394.4 159.4-199c11.2-10 20.1-9.6 25.5-8.3 19.1 4.5 11.2 19.6-4.7 41-15 20.3-24.5 36.8-43.1 61.9-26.3 35.4-55 68-47.8 86.2 9.6 18.5 32.3 6.5 53-11.7"/>
   <ellipse cx="178.16444" cy="654.5545" rx="25.728558" ry="20.371416" transform="matrix(.79083574 -.61202846 .61202846 .79083574 0 0)"/>
   <path d="m381.5 431.5s44.6-32.4 61.8-29.2 16 46.2 45.6 21.5"/>
   <path d="m425 406.4c5.4-2.4 18.6-2.2 26.5 15 5.6 12.2 13.9 9.5 20.5 9.9"/>
   <path d="m439.6 404.4c6.7 5.9 6.3.5 21.2 23.1"/>
   <path d="m488.9 423.9 37.3-29.5"/>
  </g>
 </g>
</svg>
