<svg height="210mm" viewBox="0 0 1052.4 744.1" width="297mm" xmlns="http://www.w3.org/2000/svg">
 <g fill="none" stroke-linecap="round">
  <g transform="translate(0 -308.26772)">
   <path d="m57.6 742.2h948.8" stroke="#969696" stroke-width="1.875"/>
   <g stroke="#000" stroke-dasharray="3.75 7.5" stroke-miterlimit="2" stroke-width=".9375">
    <path d="m58.3 844.1h948.8"/>
    <path d="m58.3 641.8h948.8"/>
    <path d="m58.3 540.6h948.8"/>
   </g>
  </g>
  <path d="m460.1 333.5c54.3-11 97.7-78.3 91.4-95-3.4-8.9-18.1-3.3-40.1 20.9-13.4 14.8-29.4 36.3-47.2 65.8-29 50.1-38.3 77.4-36.2 92.1 1.7 11.3 12.2 13.6 21.7 13.9 4.5.1 8.7-.1 12.5-.4" stroke="#000" stroke-linejoin="round" stroke-width="5.625"/>
  <ellipse cx="629.12305" cy="-8.820746" rx="4.609393" ry="6.862875" stroke="#000" stroke-linejoin="round" stroke-width="5.625" transform="matrix(.72846687 .68508103 -.68508103 .72846687 0 0)"/>
  <g stroke="#010000">
   <path d="m587.1 362c-6.9 37.9-81.4 146.6-105.6 166.8" stroke-width="5.625"/>
   <path d="m492.4 516.6c-6.3 5.5-13.3 15.3-23.3 15.7" stroke-width="3.75"/>
   <path d="m554.6 434.5c-41.8 11-118.9 79.8-88.5 97.8 10.5 4.4 19.8-4.1 48.4-40.3 24.4-32.4 54.6-73.9 69.3-116.9 7.5-21.6 4.8-37.7-7.8-38.5-4.4-.3-9.1 1.4-13.8 4.3-4.9 3-10.3 8.3-15.7 13.2-6.7 6.1-23.5 25.1-35.7 38.8-12.3 13.9-36.6 43.3-48.8 37.8" stroke-linejoin="round" stroke-width="5.625"/>
   <path d="m588 354.5c-.8 27.6-20.4 69.8-38.2 96.8-26.4 40.2-58.9 76.1-73.6 80.7" stroke-width="5.625"/>
   <path d="m577.7 337.7c12.8 2.6 9.5 27 3.2 41.1" stroke-width="3.75"/>
  </g>
  <path d="m563 431.2c25-11.8 67.7-31.5 85.3-32.4 16.8-.7 22.7 32.6 34.2 32.2 7.5-.2 13.1-6.2 18.3-10.8" stroke="#000" stroke-linejoin="round" stroke-width="5.625"/>
 </g>
</svg>
