<svg height="210mm" viewBox="0 0 1052.4 744.1" width="297mm" xmlns="http://www.w3.org/2000/svg">
 <g fill="none" stroke-linecap="round">
  <g transform="translate(0 -308.26772)">
   <path d="m57.6 742.2h948.8" stroke="#969696" stroke-width="1.875"/>
   <g stroke="#000" stroke-dasharray="3.75 7.5" stroke-miterlimit="2" stroke-width=".9375">
    <path d="m58.3 844.1h948.8"/>
    <path d="m58.3 641.8h948.8"/>
    <path d="m58.3 540.6h948.8"/>
   </g>
  </g>
  <g stroke="#000">
   <g stroke-linejoin="round" stroke-width="5.625">
    <path d="m343.5 457.2-15.7 38.1"/>
    <path d="m553.3 429.5c15.3 11.5 51.4-38 72.6-63.5"/>
    <path d="m437.3 431.5c39-64.7 104.7-56.6 95.5-.1"/>
    <ellipse cx="695.05719" cy="-72.569107" rx="4.609393" ry="6.862875" transform="matrix(.72846687 .68508103 -.68508103 .72846687 0 0)"/>
    <path d="m532.7 431.4s15 .1 18.6-.6c2.7-.6 4-1.2 5.6-2.3"/>
    <path d="m651.4 345.3 100-59.1"/>
   </g>
   <path d="m693.4 337.6c9.3 1.2 23.5 6.5 26.3 22.3" stroke-width="3.75"/>
   <ellipse cx="409.64828" cy="655.48682" rx="60.146576" ry="43.208752" stroke-linejoin="round" stroke-width="5.625" transform="matrix(.88109295 -.47294313 .47294313 .88109295 0 0)"/>
   <path d="m657.8 428.9c-11.1 2-22.6-1-31.8-8.1" stroke-width="3.75"/>
   <g stroke-width="5.625">
    <path d="m724.6 361.1c.7 2.8.2 12.3-.3 13.7-4.6 13.5-9.8 20.7-17.2 28.9-8.8 9.7-22.1 15.7-32.4 24.1"/>
    <path d="m705.1 339.5c11 3.2 13.8 13.8 14.8 17.6 5.3 20.3-6.7 35.7-14.9 44.9-8.3 9.3-25 27.4-57.1 28.7"/>
    <path d="m367.8 396.4a19.2 25.1 41.6 0 1 -14.3 31.3 19.2 25.1 41.6 0 1 -27.6-6.8 19.2 25.1 41.6 0 1 14.3-31.3 19.2 25.1 41.6 0 1 27.6 6.8z" stroke-linejoin="round"/>
   </g>
  </g>
 </g>
</svg>
