<svg height="210mm" viewBox="0 0 1052.4 744.1" width="297mm" xmlns="http://www.w3.org/2000/svg">
 <g fill="none" stroke-linecap="round">
  <g transform="translate(0 -308.26772)">
   <path d="m57.6 742.2h948.8" stroke="#969696" stroke-width="1.875"/>
   <g stroke="#000" stroke-dasharray="3.75 7.5" stroke-miterlimit="2" stroke-width=".9375">
    <path d="m58.3 844.1h948.8"/>
    <path d="m58.3 641.8h948.8"/>
    <path d="m58.3 540.6h948.8"/>
   </g>
  </g>
  <g stroke="#000" stroke-linejoin="round">
   <path d="m186 260.1c6.4-13.7 27.9-26.8 41.5-25.5 7.7.7 15.6 7.9 11.3 18.6-6.4 14.1-15.9 21.3-33.7 32-9.7 5.8-24.5 14.9-32.9 26.6-5 7-7.7 15.6-6 27.3 6.3 42.7-45.5 80.6-63.9 91.9" stroke-width="5.625"/>
   <path d="m102.3 431c-2.9 1.3-6.3-3.1-3-5.8 4.7-3.9 94.7-25.1 103.7-25.3 16.7-.3 16.4 29.4 34.5 31.1 7.7.7 16.7-.8 25.8-3.1 25.1-6.3 219.6-57.7 325.3-93.9" stroke-width="5.625"/>
   <g stroke-width="5.624999">
    <path d="m588.6 333.9c54.3-11 97.7-78.3 91.4-95-5.5-14.4-40.3 8.9-87.4 86.8-41.1 70.2-43.6 103.8-16.7 105.7 38.1 2.6 328.3-94.8 328.3-94.8"/>
    <path d="m904.1 336.4-38.9 72.9c-7.2 13.5 1.8 23.1 15 23 33.8.4 63.8-52 94-95.4"/>
   </g>
  </g>
 </g>
</svg>
