<svg height="210mm" viewBox="0 0 1052.4 744.1" width="297mm" xmlns="http://www.w3.org/2000/svg">
 <g fill="none" stroke-linecap="round">
  <g transform="translate(0 -308.26772)">
   <path d="m57.6 742.2h948.8" stroke="#969696" stroke-width="1.875"/>
   <g stroke="#000" stroke-dasharray="3.75 7.5" stroke-miterlimit="2" stroke-width=".9375">
    <path d="m58.3 844.1h948.8"/>
    <path d="m58.3 641.8h948.8"/>
    <path d="m58.3 540.6h948.8"/>
   </g>
  </g>
  <g stroke="#000">
   <g stroke-linejoin="round">
    <g stroke-width="5.625">
     <path d="m407.4 382.9 23.4 48.8"/>
     <path d="m415.5 234.8c-42.5 8.2-152.4 193.4-93 196.3 23.5.2 62-29.9 84.8-48.2"/>
     <path d="m430.8 431.7c27.4-39 59.7-88.6 96.6-95.5 31.2-5.8 40.4 16.6 34.1 48.6"/>
     <path d="m658.1 384.5c7.2-.7 17.2-7.3 28.1-16.6"/>
     <path d="m561.4 384.8 63.1-95.2s7.8 43.5 24.9 47.7c4.8 1.2 10.6 1.2 15.4.7 14.9-1.3 25.9-6.1 35-12.3 23.3-14.2 23.3-36.9 14.1-37.2-7.7-.3-25.9 3.2-49.4 42-26.8 43.8-21.4 55.1-6.3 54"/>
    </g>
    <path d="m630.6 292.7 6.6 26.7" stroke-width="7.5"/>
    <path d="m637 289.6c-1.3 13.6 4.2 27.1 4.8 40.7" stroke-width="5.625"/>
   </g>
   <path d="m639.7 309.3c-.3 10.4 6.8 27.1 13 27.9" stroke-width="3.75"/>
   <path d="m624.5 289.6h12.5" stroke-width="5.625"/>
  </g>
 </g>
</svg>
