<svg height="210mm" viewBox="0 0 1052.4 744.1" width="297mm" xmlns="http://www.w3.org/2000/svg">
 <g fill="none" stroke-linecap="round" transform="translate(0 -308.26772)">
  <path d="m57.6 742.2h948.8" stroke="#969696" stroke-width="1.875"/>
  <g stroke="#000" stroke-dasharray="3.75 7.5" stroke-miterlimit="2" stroke-width=".9375">
   <path d="m58.3 844.1h948.8"/>
   <path d="m58.3 641.8h948.8"/>
   <path d="m58.3 540.6h948.8"/>
  </g>
 </g>
 <path d="m625.6 431.1 59.5-46.1" fill="none" stroke="#000" stroke-linecap="round" stroke-linejoin="round" stroke-width="5.625"/>
 <circle cx="507.11752" cy="365.9567" r="10.653955"/>
 <circle cx="491.72885" cy="414.97232" r="10.653955"/>
 <g fill="none" stroke="#000" stroke-linecap="round" stroke-linejoin="round">
  <path d="m133.7 431.2 115.3-95.3-39 72.4c-7.5 13.9 2.4 23.8 16.4 23" stroke-width="5.625"/>
  <path d="m226.4 431.3c27.9-2 60.2-29.6 77.8-30.5 16.8-.7 20.9 30.2 34.2 30.4 8.5.1 14.1-6.5 18.3-10.8" stroke-width="5.624999"/>
  <path d="m113.2 385.3 20.5 45.9" stroke-width="5.625"/>
  <path d="m705.6 430.9 77.8-95.3-39 72.4c-7.5 13.9 2.4 23.8 16.4 23" stroke-width="5.625"/>
  <path d="m760.7 431.1c27.9-2 60.2-29.6 77.8-30.5 16.8-.7 20.9 30.2 34.2 30.4 8.5.1 14.1-6.5 18.3-10.8" stroke-width="5.624999"/>
  <path d="m685.1 385.1 20.5 45.9" stroke-width="5.625"/>
 </g>
</svg>
