<svg height="210mm" viewBox="0 0 1052.4 744.1" width="297mm" xmlns="http://www.w3.org/2000/svg">
 <g fill="none" stroke-linecap="round">
  <g transform="translate(0 -308.26772)">
   <path d="m57.6 742.2h948.8" stroke="#969696" stroke-width="1.875"/>
   <g stroke="#000" stroke-dasharray="3.75 7.5" stroke-miterlimit="2" stroke-width=".9375">
    <path d="m58.3 844.1h948.8"/>
    <path d="m58.3 641.8h948.8"/>
    <path d="m58.3 540.6h948.8"/>
   </g>
  </g>
  <ellipse cx="6.604008" cy="637.24829" rx="28.002972" ry="18.533039" stroke="#000" stroke-linejoin="round" stroke-width="5.597312" transform="matrix(.7533862 -.65757831 .76106558 .64867495 0 0)"/>
  <g stroke-width="5.625">
   <path d="m484.6 391 90.9-55" stroke="#000"/>
   <path d="m575.5 336 25 47.8" stroke="#000" stroke-linejoin="round"/>
   <path d="m185.5 431.5c88.5-59.2 253.5-59.1 233.6-.2" stroke="#0a0001" stroke-linejoin="round"/>
   <g stroke="#000">
    <path d="m702.8 353.5c-25.4 8-52.5 17.4-55.5 22.6-3.4 6.4 4.9 8.8 6.4 8.4 15.1-4.5 47.4-44.7 52.6-82 5.7-40.6 44.3-104.4 80-114.7-55 18.8-185.8 196-185.8 196" stroke-linejoin="round"/>
    <path d="m418.3 432.8 59.9-37.8"/>
    <path d="m702.8 353.5c19.3-5.5 41.7-16 59-16.9 26.7-.9 21.1 45.7 39.3 45.2 12-.3 17.9-8.5 25.2-16.5" stroke-linejoin="round"/>
   </g>
  </g>
 </g>
</svg>
