<svg height="210mm" viewBox="0 0 1052.4 744.1" width="297mm" xmlns="http://www.w3.org/2000/svg">
 <g fill="none" stroke-linecap="round">
  <g transform="translate(0 -308.26772)">
   <path d="m57.6 742.2h948.8" stroke="#969696" stroke-width="1.875"/>
   <g stroke="#000" stroke-dasharray="3.75 7.5" stroke-miterlimit="2" stroke-width=".9375">
    <path d="m58.3 844.1h948.8"/>
    <path d="m58.3 641.8h948.8"/>
    <path d="m58.3 540.6h948.8"/>
   </g>
  </g>
  <g stroke-linejoin="round" stroke-width="5.625">
   <g stroke="#000">
    <path d="m483.2 384.3s82.7-48 88.4-51.5c13.3-8.1 38.5-20.5 33.2-38.3-2.8-7.3-23-8.3-58.5 30.7-30 46.1-17.7 60.3-4.2 58.6 11.4-1 21.5-4 33.2-15.2"/>
    <path d="m484.7 369.1c1 .1 1.9.3 2.6.7.2.1.5.3.7.4 1.3 1 1.7 2.7 1 5.4-1.4 5.3-7.4 8.4-10.3 9.4-5.9 2.1-10.3-2.7-6.9-8 2.1-3.3 5.8-6.9 10.1-7.8.3-.1.6-.1.9-.1.4 0 .7-.1 1.1-.1.8 0 1.7.1 2.5.3"/>
    <path d="m486.2 380.8c-51 49.7-106.4 65.5-132.8 86.1-32.5 23.2-40.2 52.7-38 60 .9 3 16.3 22.9 59.8-38.1 26.9-36.9 54.6-73.4 69.3-116.4 15.5-30.1-1.4-56.7-44.4-11.6"/>
   </g>
   <path d="m575.3 368.6 35-32.7 20 47.9" stroke="#060000"/>
   <path d="m630.3 383.8c15.8-18.1 23.6-46.8 51.2-47.7 24-1 24.4 46.5 40.8 46 10.8-.3 18.5-11.3 25.1-19.4" stroke="#000"/>
  </g>
 </g>
</svg>
