<svg height="210mm" viewBox="0 0 1052.4 744.1" width="297mm" xmlns="http://www.w3.org/2000/svg">
 <g fill="none" stroke-linecap="round">
  <g transform="translate(0 -308.26772)">
   <path d="m57.6 742.2h948.8" stroke="#969696" stroke-width="1.875"/>
   <g stroke="#000" stroke-dasharray="3.75 7.5" stroke-miterlimit="2" stroke-width=".9375">
    <path d="m58.3 844.1h948.8"/>
    <path d="m58.3 641.8h948.8"/>
    <path d="m58.3 540.6h948.8"/>
   </g>
  </g>
  <g stroke="#000">
   <g stroke-width="5.625">
    <path d="m617.4 384.8c-44.7 32.5-81 79.8-72.2 95.6 2.9 5.3 34.7 12.4 62.3-63.4 15.8-47.4 16.5-113.3 70.8-131.6" stroke-linejoin="round"/>
    <path d="m657 296.9c-27.4 24.6-28.9 58.7-39.7 100.9-7.5 29.4-23.1 69.4-55.3 83.9"/>
    <path d="m647.2 307.4c-22.2 34.7-16.3 49.9-25.9 88.3-10 39.9-19.2 60.3-50.1 80.6"/>
   </g>
   <path d="m666.2 290.8c-14.2 7.9-151.8 100.5-151.8 100.5" stroke-width="5.625001"/>
   <path d="m544.5 396.5a19.2 25.1 41.6 0 1 -14.3 31.3 19.2 25.1 41.6 0 1 -27.6-6.8 19.2 25.1 41.6 0 1 14.3-31.3 19.2 25.1 41.6 0 1 27.6 6.8z" stroke-linejoin="round" stroke-width="5.625001"/>
   <g stroke-width="5.625">
    <g stroke-linejoin="round">
     <path d="m617.4 384.8c12.2-9.7 79.9-66.7 101.1-82.4 9.3-6.9 20.9-15.7 30.9-16.6 3.3-.4 6.4-.1 9 .9 2.8 1 5 2.6 6.6 4.7 3.7 5.2 3.1 13.5-5.1 23.4-24.4 29.4-45.3 43.7-38 59.3 2.6 5.6 9 8.2 16.3 7.4 11.8-1.4 20.1-7.7 27.8-15"/>
     <path d="m391.8 357.7-49.9 49.6c-5.2 5-10.6 10.1-17.1 14.8-7.8 5.7-17.1 9.2-24.5 9.4-7.3.8-13.7-1.8-16.3-7.4-7.2-15.5 13.7-29.8 38-59.3 8.2-9.9 8.8-18.2 5.1-23.4-1.5-2.2-3.8-3.8-6.6-4.7-2.6-.9-5.7-1.2-9-.9-14.5 1.8-23.9 12.1-32 19.7"/>
     <ellipse cx="196.93001" cy="540.95923" rx="60.146576" ry="43.208748" transform="matrix(.88109295 -.47294313 .47294313 .88109295 0 0)"/>
    </g>
    <path d="m483 360.7c.7 2.8.2 12.3-.3 13.7-4.6 13.5-9.8 20.7-17.2 28.9-8.8 9.7-22.1 15.7-32.4 24.1"/>
    <path d="m463.5 339.2c11 3.2 13.8 13.8 14.8 17.6 5.3 20.3-6.7 35.7-14.9 44.9-8.3 9.3-25 27.4-57.1 28.7"/>
   </g>
  </g>
 </g>
</svg>
