<svg height="210mm" viewBox="0 0 1052.4 744.1" width="297mm" xmlns="http://www.w3.org/2000/svg">
 <g fill="none" stroke-linecap="round">
  <g transform="translate(0 -308.26772)">
   <path d="m57.6 742.2h948.8" stroke="#969696" stroke-width="1.875"/>
   <g stroke="#000" stroke-dasharray="3.75 7.5" stroke-miterlimit="2" stroke-width=".9375">
    <path d="m58.3 844.1h948.8"/>
    <path d="m58.3 641.8h948.8"/>
    <path d="m58.3 540.6h948.8"/>
   </g>
  </g>
  <g stroke="#000" stroke-width="5.625">
   <g stroke-linejoin="round">
    <path d="m458.6 431.3c14.3-.1 42.5-23.2 42.5-23.2"/>
    <path d="m501 408 31.2-23.3 21.4 46.2"/>
    <path d="m607.5 429.4c1.7 1.5 4.1 1.9 5 1.9 16.6.4 47.4-44.7 52.6-82 5.7-40.6 44.3-104.4 80-114.7-36.5 4.6-191.5 196.3-191.5 196.3"/>
   </g>
   <path d="m800.8 235.6s-201.3 196.6-193.3 193.8"/>
   <path d="m383.4 430.6s18.5-32.4 35.7-29.2c14.1 2.6 17.9 30.7 39.4 29.9" stroke-linejoin="round"/>
   <path d="m383.4 430.6-52.1 102.8"/>
  </g>
 </g>
</svg>
