<svg height="210mm" viewBox="0 0 1052.4 744.1" width="297mm" xmlns="http://www.w3.org/2000/svg">
 <g fill="none" stroke-linecap="round">
  <g transform="translate(0 -308.26772)">
   <path d="m57.6 742.2h948.8" stroke="#969696" stroke-width="1.875"/>
   <g stroke="#000" stroke-dasharray="3.75 7.5" stroke-miterlimit="2" stroke-width=".9375">
    <path d="m58.3 844.1h948.8"/>
    <path d="m58.3 641.8h948.8"/>
    <path d="m58.3 540.6h948.8"/>
   </g>
  </g>
  <g stroke="#000" stroke-linejoin="round">
   <path d="m600.8 235.5-62.7 107.4c-24.8 39-64.2 79.9-90.4 88.2-1.2.4-5.8-.3-6.6-5.4-.6-3.7 10.6-9.6 17.8-13.8" stroke-width="5.625"/>
   <path d="m458.9 411.9 97.9-58" stroke-width="5.751832"/>
   <path d="m600.9 236.2c5.3-6.7-84.8 91-108.6 116.9-10.4 11.2-47.2 49-47.2 49" stroke-width="5.625"/>
   <path d="m427.4 335.9-42.4 73.1c-11.9 20.5 16.6 32.6 38.8 12.7 5.5-5.1 14.7-13.4 21.3-19.6" stroke-width="5.625"/>
   <path d="m547.3 431.3c3 .3 9.7-4.2 11-5 42.8-24.5 66.9-101.1 29.4-88.8-5.5 1.8-14.5 6-31 16.4" stroke-width="5.419139"/>
   <g stroke-width="5.638243">
    <path d="m599.4 339.8c2.3 32.7-17.1 62.2-38.1 82.5"/>
    <path d="m602 342.1c5.2 34.8-19.9 69.4-45 83.3"/>
    <path d="m594.7 338.5c3.6 34.1-21.2 69-37.7 86.9"/>
   </g>
   <path d="m587.3 338.2c7.9-3.1 5.9 10.5 5.9 15.8" stroke-width="2.819121"/>
   <path d="m563.6 415.7c-5.5 6.9-8.3 10.7-14.3 14.1" stroke-width="2.819121"/>
   <path d="m547.3 431.3c-18.9.7 69.1-28.3 85.9-29.1 16-.6 18.8 28.9 29.7 28.6 7.2-.2 12.4-7.6 16.7-13" stroke-width="5.625"/>
  </g>
 </g>
</svg>
