<svg height="210mm" viewBox="0 0 1052.4 744.1" width="297mm" xmlns="http://www.w3.org/2000/svg">
 <g fill="none" stroke-linecap="round">
  <g transform="translate(0 -308.26772)">
   <path d="m57.6 742.2h948.8" stroke="#969696" stroke-width="1.875"/>
   <g stroke="#000" stroke-dasharray="3.75 7.5" stroke-miterlimit="2" stroke-width=".9375">
    <path d="m58.3 844.1h948.8"/>
    <path d="m58.3 641.8h948.8"/>
    <path d="m58.3 540.6h948.8"/>
   </g>
  </g>
  <g stroke="#000" stroke-width="5.625">
   <path d="m383 414.3 101.2-29.2 22.1 45.9" stroke-linejoin="round"/>
   <path d="m358.9 337.5c-40.3 12.4-78.1 79.1-59.9 92.3 16.4 4.4 27.7-1.1 43.4-4.7 18.9-4.4 40.6-10.8 40.6-10.8" stroke-linejoin="round"/>
   <path d="m576.9 344.3c-16.9 10.3-35.2 39.3-70.6 86.7"/>
   <g stroke-linejoin="round">
    <path d="m576.9 344.3c7-5 15.4-7.9 22.8-8.6 16.3-1.6 28.3 7.2 13 26.2-27.4 33.8-42.8 40.7-38.6 59 5.2 14.7 38.2 11.1 53.4 7.2"/>
    <ellipse cx="251.09732" cy="706.57117" rx="25.728558" ry="20.371416" transform="matrix(.79083574 -.61202846 .61202846 .79083574 0 0)"/>
   </g>
  </g>
 </g>
</svg>
