<svg height="210mm" viewBox="0 0 1052.4 744.1" width="297mm" xmlns="http://www.w3.org/2000/svg">
 <g fill="none" stroke-linecap="round">
  <g transform="translate(0 -308.26772)">
   <path d="m57.6 742.2h948.8" stroke="#969696" stroke-width="1.875"/>
   <g stroke="#000" stroke-dasharray="3.75 7.5" stroke-miterlimit="2" stroke-width=".9375">
    <path d="m58.3 844.1h948.8"/>
    <path d="m58.3 641.8h948.8"/>
    <path d="m58.3 540.6h948.8"/>
   </g>
  </g>
  <g stroke="#000" stroke-linejoin="round">
   <path d="m464.2 437c-24.7 11.9-46.1 23-55.2 30.1-32.5 23.2-40.2 52.7-38 60 .9 3 16.3 22.9 59.8-38.1 26.9-36.9 54.6-73.4 69.3-116.4 15.3-29.7-1-56-42.8-13.3" stroke-width="5.625"/>
   <path d="m570.2 383.4 99.7-39.6c27.5-10.9 55.3-14.4 69.2-3.8 11.8 8.3 14.2 22.6 14.5 32.2-3.9 21.4-12 35.5-28.6 45.9-16.8 10.6-39.1 12.8-49.3 13.3-26.6 1.1-44.7-16.8-30.5-51.1 9.1-18.3 15.2-27.7 34.7-41.3" stroke-width="5.89809"/>
   <path d="m680 339.1c11.9-4.6 64.3-39.5 75-39.1 21.6.4 18 33.7 38.2 33.5 9.6-.1 14.1-4 19.3-12.5" stroke-width="5.625"/>
   <path d="m466.1 437c.1-1.7 6.8-6 6.7-9.5-.1-5-.2-8.8-1.4-9.8-1.3-1.2-3.1-1.4-4-.7-2.4 1.8-2.1 3-1.9 4.9.4 3.5 2.1 2.2 5.4 1.5 4.1-2.1 4.1-4.2 7.1-4.8l92.2-35.2" stroke-width="5.625"/>
   <path d="m469.7 418.7c-.1-.2-.3-.4-.4-.5-.1 0-.1-.1-.2-.1-.3-.2-.8-.1-1.3.3-1 .8-1 2.4-1 3.1.1 1.5 1.6 1.9 2.4.7.5-.8.9-1.9.6-2.9 0-.1 0-.1-.1-.2 0-.1-.1-.2-.1-.2-.1-.2-.2-.3-.3-.5" stroke-width="3.586069"/>
   <g stroke-width="5.625">
    <path d="m349.5 423.1 37.6-27.8-80 138.5"/>
    <path d="m242.1 430.8s44.6-32.4 61.8-29.2 16 46.2 45.6 21.5"/>
    <path d="m285.6 405.6c5.4-2.4 18.6-2.2 26.5 15 5.6 12.2 13.9 9.5 20.5 9.9"/>
    <path d="m300.2 403.7c6.7 5.9 6.3.5 21.2 23.1"/>
   </g>
  </g>
 </g>
</svg>
