<svg height="210mm" viewBox="0 0 1052.4 744.1" width="297mm" xmlns="http://www.w3.org/2000/svg">
 <g fill="none" stroke-linecap="round">
  <g transform="translate(0 -308.26772)">
   <path d="m57.6 742.2h948.8" stroke="#969696" stroke-width="1.875"/>
   <g stroke="#000" stroke-dasharray="3.75 7.5" stroke-miterlimit="2" stroke-width=".9375">
    <path d="m58.3 844.1h948.8"/>
    <path d="m58.3 641.8h948.8"/>
    <path d="m58.3 540.6h948.8"/>
   </g>
  </g>
  <g stroke="#000" stroke-width="5.625">
   <g stroke-linejoin="round">
    <path d="m438.5 261.3c12.6-15.8 22.8-23 32-25.3 8.1-2 15.3-2.1 21-.6 6.2 1.6 11.2 6.4 8.7 18.1-6.4 14.1-15.9 21.3-33.7 32-15.8 12.8-43.5 22.6-38.9 53.9 6.3 42.7-45.5 80.6-63.9 91.9"/>
    <path d="m577.6 233.8-218.1 167.8c-4.1 2.9-9.9 6.7-11.6 11.5"/>
    <path d="m363.9 431.3c-16.3 3.7-19-7.9-15.9-18.3"/>
    <path d="m438.5 261.3-139.8 170"/>
   </g>
   <path d="m577.6 233.8-135.5 197.9"/>
   <g stroke-linejoin="round">
    <path d="m442.1 431.7s92.4-77.2 117.5-90.5"/>
    <path d="m559.6 341.2c22-10.8 49.3-3.5 29.1 21.5-27.4 33.8-45.5 50.2-39.4 63.9 2.5 5.8 10 6.6 18.8 4.3 9.3-2.4 20-8.4 27.7-15.7"/>
    <ellipse cx="306.42917" cy="688.60321" rx="25.728558" ry="20.371416" transform="matrix(.79083574 -.61202846 .61202846 .79083574 0 0)"/>
    <path d="m644.7 347.6s-23.9 39.2-49 67.5"/>
   </g>
   <path d="m763.5 146.5-118.8 201.1"/>
  </g>
 </g>
</svg>
