<svg height="210mm" viewBox="0 0 1052.4 744.1" width="297mm" xmlns="http://www.w3.org/2000/svg">
 <g fill="none" stroke-linecap="round">
  <g transform="translate(0 -308.26772)">
   <path d="m57.6 742.2h948.8" stroke="#969696" stroke-width="1.875"/>
   <g stroke="#000" stroke-dasharray="3.75 7.5" stroke-miterlimit="2" stroke-width=".9375">
    <path d="m58.3 844.1h948.8"/>
    <path d="m58.3 641.8h948.8"/>
    <path d="m58.3 540.6h948.8"/>
   </g>
  </g>
  <g stroke="#000">
   <path d="m404.7 431.5s62.8-37.7 64.5-38.9c55-40.7 155.2-144.1 124.1-154.8-14.6-5-40.2 8.9-87.4 86.8-49.9 86.2-41.9 110.8-18.3 105.4" stroke-linejoin="round" stroke-width="5.625"/>
   <path d="m579.2 239.1c-48 60-85.6 120.6-108.4 181.8" stroke-width="5.625"/>
   <path d="m566.2 251.2c-38.3 44.9-70.9 94.9-92.8 154.8" stroke-width="7.5"/>
   <path d="m596 239.9c-14-7.4-23.9 9.5-26.4 12.4" stroke-width="3.75"/>
   <g stroke-width="5.625">
    <path d="m476.4 406.7c-6.1 21.8-1.8 23 13.1 22.7"/>
    <g stroke-linejoin="round">
     <path d="m489.5 429.5c17.7-1.9 60.8-27.8 77.6-28.6 16-.6 21.6 31 32.6 30.7 7.2-.2 12.4-7.6 16.7-13"/>
     <path d="m397.7 359.4c24.3-33 68.9-34.8 37.2 20l-30.1 52.1"/>
    </g>
   </g>
  </g>
 </g>
</svg>
