<svg height="210mm" viewBox="0 0 1052.4 744.1" width="297mm" xmlns="http://www.w3.org/2000/svg">
 <g fill="none" stroke-linecap="round">
  <g transform="translate(0 -308.26772)">
   <path d="m57.6 742.2h948.8" stroke="#969696" stroke-width="1.875"/>
   <g stroke="#000" stroke-dasharray="3.75 7.5" stroke-miterlimit="2" stroke-width=".9375">
    <path d="m58.3 844.1h948.8"/>
    <path d="m58.3 641.8h948.8"/>
    <path d="m58.3 540.6h948.8"/>
   </g>
  </g>
  <g stroke="#000" stroke-linejoin="round">
   <g stroke-width="5.625">
    <path d="m364.8 426.1s251.2-121 270.1-129.4c10.7-4.7 25.8-11.6 30.9-13.3 8-3 13.9-3.3 17.9-2 6.4 2.1 8.1 9 6.2 18.2-4.9 24.1-33.5 64.1-62.5 77.6"/>
    <path d="m627.4 377.3c-3.3 1.1-5.1-2.3-3.7-4.2 7.1-9.5 64.6-28.7 86.7-36.5"/>
    <ellipse cx="552.72974" cy="59.968407" rx="4.609393" ry="6.862874" transform="matrix(.72846687 .68508103 -.68508103 .72846687 0 0)"/>
   </g>
   <path d="m238.1 431.4s53.3-38.1 73.5-34.3c15.1 2.8 18.1 31.6 33.1 33.9 6.6.8 12.5-1 17.2-3.2" stroke-width="5.624999"/>
   <path d="m289 402c14.6-6 23.7-2.4 32.9 17.8 6.6 14.3 16.9 10.7 24.3 11.4" stroke-width="5.624999"/>
   <path d="m309.3 399.7c7.8 4.9 5.6 2.3 22.9 28.8" stroke-width="6.587558"/>
  </g>
 </g>
</svg>
