<svg height="210mm" viewBox="0 0 1052.4 744.1" width="297mm" xmlns="http://www.w3.org/2000/svg">
 <g fill="none" stroke-linecap="round">
  <g transform="translate(0 -308.26772)">
   <path d="m57.6 742.2h948.8" stroke="#969696" stroke-width="1.875"/>
   <g stroke="#000" stroke-dasharray="3.75 7.5" stroke-miterlimit="2" stroke-width=".9375">
    <path d="m58.3 844.1h948.8"/>
    <path d="m58.3 641.8h948.8"/>
    <path d="m58.3 540.6h948.8"/>
   </g>
  </g>
  <g stroke="#000">
   <g stroke-linejoin="round" stroke-width="5.625">
    <path d="m482.3 485.2 43.6-38.7"/>
    <path d="m253.1 390.1c16.1-3.3 30.6-10.9 43.4-18.2 17.9-10.2 25.6-23.6 19.2-32.5-4.7-6.5-29.6-6-54.1 34.4-19.4 31.7-19.1 50.2-12.2 56.7 1.6 1.5 3.6 2.3 5.8 2.7 4.1.7 9.3-.1 11.8-.6 9.5-1.6 41.7-11.7 60.4-12.5 2.3-.1 4.9-.1 7.2.1 2.8.2 5.4.8 8.4 1.5 19 4.8 12.5 39.6 31.7 42.6 2.9.5 5.5.6 7.9.4 9.1-.7 14.7-4.1 23.7-10.3 11.9-8.2 25.6-16.4 36.2-17.6 4.6-.5 9.1-.5 13.2.3 5.8 1 10.9 3.3 15.2 6.9 9.6 7.9 14.6 22 11.5 41.3"/>
    <ellipse cx="684.47827" cy="-36.327747" rx="4.609393" ry="6.862874" transform="matrix(.72846687 .68508103 -.68508103 .72846687 0 0)"/>
   </g>
   <path d="m733.6 337.4c.8-1.1 3.5 6.2.4 14.1-3.2 8.2-12.5 19.1-17.8 24.2-10.5 9.9-29.8 30.2-23.7 46.5" stroke-width="5.472634"/>
   <path d="m723.1 336.1c13.9-1.2 11 7.7 10.3 13.7" stroke-width="2.736317"/>
   <path d="m635.1 430.6c12.6-14.6 44.7-63.5 50.3-70.9 6.1-8 10.5-13.2 17.9-18.5 5.2-3.8 12.7-6.4 20-6.5 14.3-.3 24.4 8.5 10.2 26.1-27.1 33.5-45.1 49.8-39.1 63.3 1.9 4.3 6.9 6.2 12.9 6.2 1.6-.1 3.1-.2 4.6-.5 24.3-2.7 50.7-26.2 72.4-43l21.3 44.2" stroke-linejoin="round" stroke-width="5.625"/>
   <path d="m733.5 336.4c15.4 6.8 4.1 30.2-12.2 46.1-14 13.6-22.7 27.7-28.7 39.7" stroke-width="5.472634"/>
   <path d="m699.9 411.6c-3.4 4.9-7.1 14.7 2.5 16.9" stroke-width="2.736317"/>
   <path d="m690.1 416.4c-.1 5.5 3.9 14.3 10.9 14.6" stroke-width="2.736317"/>
   <path d="m528.4 444c29.2-40.2 45.2-56.2 71.2-58.6 8.5-.8 16.2 1 22.3 5 10.5 6.9 16.3 20.7 13.1 40.2" stroke-linejoin="round" stroke-width="5.625"/>
  </g>
 </g>
</svg>
