<svg height="210mm" viewBox="0 0 1052.4 744.1" width="297mm" xmlns="http://www.w3.org/2000/svg">
 <g fill="none" stroke-linecap="round">
  <g transform="translate(0 -308.26772)">
   <path d="m57.6 742.2h948.8" stroke="#969696" stroke-width="1.875"/>
   <g stroke="#000" stroke-dasharray="3.75 7.5" stroke-miterlimit="2" stroke-width=".9375">
    <path d="m58.3 844.1h948.8"/>
    <path d="m58.3 641.8h948.8"/>
    <path d="m58.3 540.6h948.8"/>
   </g>
  </g>
  <g stroke="#000" stroke-linejoin="round" stroke-width="5.625">
   <path d="m203.4 430.4c24.7-6 201.7-84.8 240.7-93.7 11.3-2 17.5 1.9 18.8 8 .8 4 0 10.5-5.9 17.8-26.2 32.4-43.6 48.1-37.8 61.2 1.9 4.4 7.9 7.4 14.3 7.4 10.4.2 19.9-7.9 28.4-15.4"/>
   <path d="m203.4 430.4c-4.8 1.1-9.2 1.5-12.7.8-11.2-2.3-13.1-16 10.3-55.7 23.8-40.7 50.4-43.8 53.1-36.3 3.2 8.7-16.6 49-56.6 45.9"/>
   <path d="m506.7 433.7c-26.2 24.9-90.2 91.9-63 99 11.2 2.5 33.1-7.6 54.5-66.3 15.7-47.2 16.4-112.8 70.4-130.9"/>
   <path d="m461.9 415.8c17.3-16.1 61.8-56.3 91.6-73.1"/>
   <path d="m506.7 433.7c20.2-17.8 169.8-150.6 169.8-150.6"/>
   <path d="m676.5 283.1-83.3 151.7c-27.6 44.1-43.3 49-51.4 45.7-14-7.7 8.3-31.9 19.9-45.8 37.7-40 124.8-120.1 155.7-151.9"/>
   <path d="m717.3 282.9 24 48"/>
   <path d="m741.3 330.8c22.4-10.2 69.9-33.7 89.2-34.7 18.3-.7 20.6 34.7 35.5 35.2 8.2.3 16.2-5.8 21.4-11.5"/>
  </g>
 </g>
</svg>
