<svg height="210mm" viewBox="0 0 1052.4 744.1" width="297mm" xmlns="http://www.w3.org/2000/svg">
 <g stroke-linecap="round">
  <g fill="none" transform="translate(0 -308.26772)">
   <path d="m57.6 742.2h948.8" stroke="#969696" stroke-width="1.875"/>
   <g stroke="#000" stroke-dasharray="3.75 7.5" stroke-miterlimit="2" stroke-width=".9375">
    <path d="m58.3 844.1h948.8"/>
    <path d="m58.3 641.8h948.8"/>
    <path d="m58.3 540.6h948.8"/>
   </g>
  </g>
  <g stroke="#000" stroke-linejoin="round">
   <path d="m275.7 431.3h60" fill="none" stroke-width="5.625"/>
   <g fill="#eb0000" fill-rule="evenodd" transform="matrix(1.3938314 0 0 1.3938314 -675.53081 154.38837)">
    <path d="m732.1 185.5c.8.1 1.4.2 1.9.5.2.1.3.2.5.3.9.7 1.3 2 .8 4-1 3.9-5.4 6.1-7.5 6.9-4.3 1.6-7.6-2-5.1-5.9 1.6-2.4 4.2-5.1 7.4-5.7.2 0 .4-.1.7-.1h.8c.6 0 1.2.1 1.9.3" stroke-width="5.625"/>
    <path d="m729.3 188.3c.3 0 .6.1.9.2.1 0 .2.1.2.1.4.3.6.9.4 1.8-.4 1.7-2.4 2.8-3.3 3.1-1.9.7-3.4-.9-2.3-2.6.7-1.1 1.9-2.3 3.3-2.6h.3.4c.3 0 .6 0 .8.1" stroke-width="4.981044"/>
   </g>
   <g fill="none" stroke-width="5.625">
    <path d="m340.9 431c7.7 3.6 28.2-14.2 51.3-38.5"/>
    <path d="m552 309c-18.4 16.5-58.8 50.7-61.6 52.5"/>
    <path d="m392.2 392.4 137.3-140.3"/>
    <path d="m529.5 252.1c29.5-31.4 49.3-58 33.7-63.4-14.6-5-40.2 8.9-87.4 86.8-60.3 104.2-33.5 122.2-1.8 98.4l16.4-12.4"/>
    <path d="m745.2 233.5-55.8 97.3"/>
    <path d="m745.2 233.5h-10.6"/>
    <path d="m739.7 233.5-55.8 97.2"/>
    <path d="m689.4 330.8h-10.6"/>
    <path d="m637 330.3 97.6-96.8-55.8 97.2 11-.1"/>
    <path d="m552 309c9.8-8.5 27.4-20 44-21.9 26.7-2.8 48.2 8.7 41 43.2"/>
    <path d="m955.2 233.4c-41.9 53.3-176.2 74.7-175.1-.3l-90.3 97.6"/>
    <path d="m242.6 339s132-54.9 144.3-64.2c15-11.3 18.8-27.5 10.1-34.8-14.4-12.1-36.8-2.1-45.5 22.4-4.9 13.8-2.4 32.7-6 52-3.7 20-43.6 46.6-64.3 69.8-20.3 22.7-23.7 46.2-5.4 47.1"/>
    <path d="m148.1 387.9c40 3 58.3-35.4 56.6-44.3-3.1-16.6-29.3-4.3-53.1 35-42.2 69.1 3.7 57.4 23.6 38.4 11.6-8 32.3-36.1 55.9-69.1"/>
    <ellipse cx="-22.778751" cy="436.17798" rx="25.728558" ry="20.371416" transform="matrix(.79083574 -.61202846 .61202846 .79083574 0 0)"/>
   </g>
  </g>
 </g>
</svg>
