<svg height="210mm" viewBox="0 0 1052.4 744.1" width="297mm" xmlns="http://www.w3.org/2000/svg">
 <g fill="none" stroke-linecap="round">
  <g transform="translate(0 -308.26772)">
   <path d="m57.6 742.2h948.8" stroke="#969696" stroke-width="1.875"/>
   <g stroke="#000" stroke-dasharray="3.75 7.5" stroke-miterlimit="2" stroke-width=".9375">
    <path d="m58.3 844.1h948.8"/>
    <path d="m58.3 641.8h948.8"/>
    <path d="m58.3 540.6h948.8"/>
   </g>
  </g>
  <g stroke="#000">
   <path d="m353.5 345.7c17.2-18.9 56.9-11.1 34.4 16.7-27.4 33.8-45.5 50.2-39.4 63.9 1.6 3.7 6.3 6.2 11.8 6.6 5.9.5 162.2-.3 171.7-.4 11.8-.2 24.2.8 31.8 6.6" stroke-linejoin="round" stroke-width="5.625"/>
   <ellipse cx="152.61081" cy="698.28503" rx="25.728558" ry="20.371416" stroke-linejoin="round" stroke-width="5.625" transform="matrix(.79083574 -.61202846 .61202846 .79083574 0 0)"/>
   <path d="m570.5 447.8c.3 9.3-.4 14.6-6.3 21.9-3.6 4.5-8.8 8.3-16 11.1" stroke-width="5.624961"/>
   <path d="m566.9 442.6c2 6.9 1.8 6.4.7 11.6-1.6 7.6-6.1 13.5-12.5 18.7-3.2 2.6-6.9 5-10.9 7.3" stroke-width="6.599955"/>
   <path d="m549.9 474.4c-5.3 3.7-10.3 5.7-16.3 3.5" stroke-width="2.849979"/>
   <path d="m556.1 437.8c6.2 1.3 8.4 3.3 9.7 7.9.3.9.9 2.9.4 5.9" stroke-width="2.849979"/>
   <g stroke-linejoin="round" stroke-width="5.625">
    <path d="m613.2 469.9c-1.8 1.1-26.6 17.8-28.5 19.1-32.5 22-71.6 74.4-63.5 89.5 1.5 2.8 3.9 4.2 7 4.2 7.3-.1 21.6-7.5 34.6-26.8 9-13.4 24.7-40.4 26.6-63.5 4.4-61.4 30.6-107.8 55.8-106.1 13 1.6 12.4 11.3 7.2 20.4-14.8 21.2-77.8 26.4-106.8 30.8"/>
    <path d="m613.2 469.9c14.7-9 33.8-20.3 47.8-26.7"/>
    <path d="m661 443.2c41.5-16.7 65.8-1.7 55.1 37.8"/>
   </g>
  </g>
 </g>
</svg>
