<svg height="210mm" viewBox="0 0 1052.4 744.1" width="297mm" xmlns="http://www.w3.org/2000/svg">
 <g fill="none" stroke-linecap="round">
  <g transform="translate(0 -308.26772)">
   <path d="m57.6 742.2h948.8" stroke="#969696" stroke-width="1.875"/>
   <g stroke="#000" stroke-dasharray="3.75 7.5" stroke-miterlimit="2" stroke-width=".9375">
    <path d="m58.3 844.1h948.8"/>
    <path d="m58.3 641.8h948.8"/>
    <path d="m58.3 540.6h948.8"/>
   </g>
  </g>
  <g stroke="#000">
   <path d="m428.2 433.9c-30.3 16.4-90.2 91.8-63 99 11.2 2.5 33.1-7.6 54.5-66.3 15.7-47.2 16.4-112.8 70.4-130.9" stroke-linejoin="round" stroke-width="5.625"/>
   <path d="m428.2 433.9 91.8-48.7" stroke-linejoin="round" stroke-width="5.625001"/>
   <g stroke-width="5.625">
    <g stroke-linejoin="round">
     <path d="m549.3 431.3 83.6-95.6"/>
     <path d="m520 385.2 22.1 46.2"/>
     <path d="m527.2 385.1 22.1 46.2"/>
    </g>
    <path d="m520 385.2 7.2-.1"/>
    <path d="m524 386.5 21 43.9" stroke-linejoin="round"/>
    <path d="m542.1 431.5 7.2-.1"/>
   </g>
   <path d="m632.9 335.7s-31.1 62.1-35.1 72.5c-5.5 14.2 4 23.1 17.2 23 15-.4 25-10.2 32.6-20.9" stroke-linejoin="round" stroke-width="5.624999"/>
  </g>
 </g>
</svg>
