<svg height="210mm" viewBox="0 0 1052.4 744.1" width="297mm" xmlns="http://www.w3.org/2000/svg">
 <g fill="none" stroke-linecap="round">
  <g stroke="#969696" transform="translate(0 -308.26772)">
   <path d="m57.6 742.2h948.8" stroke-width="1.875"/>
   <g stroke-dasharray="3.75 7.5" stroke-miterlimit="2" stroke-width=".9375">
    <path d="m58.3 844.1h948.8"/>
    <path d="m58.3 641.8h948.8"/>
    <path d="m58.3 540.6h948.8"/>
   </g>
  </g>
  <g stroke="#000">
   <g stroke-width="5.625">
    <path d="m648.2 336.3-81.6 95"/>
    <g stroke-linejoin="round">
     <path d="m476.4 325.2c-47 81.2-47.1 107.1-28.6 106.2 26.5-1.3 94.8-48 94.8-48l24 47.9"/>
     <path d="m428.1 389.6c28.3-22 82.8-77 101.8-96.1 25.8-25.8 37-47.1 34-55.1-5.5-14.4-40.3 8.9-87.4 86.8"/>
     <path d="m428.1 389.6c-29.5 23.2-49.6 36.8-66.6 40.5-26.7 5.8-43.4-10.4-35-39.4"/>
     <path d="m648.2 336.3-39 72.4c-7.5 13.9 2.4 23.8 16.4 23"/>
    </g>
   </g>
   <path d="m769.9 234s-50.1 90-61.4 109.4c-29.6 50.7-52.7 89.7-83 88.3" stroke-width="5.624999"/>
  </g>
 </g>
</svg>
