<svg height="210mm" viewBox="0 0 1052.4 744.1" width="297mm" xmlns="http://www.w3.org/2000/svg">
 <g stroke-linecap="round">
  <g fill="none" transform="translate(0 -308.26772)">
   <path d="m57.6 742.2h948.8" stroke="#969696" stroke-width="1.875"/>
   <g stroke="#000" stroke-dasharray="3.75 7.5" stroke-miterlimit="2" stroke-width=".9375">
    <path d="m58.3 844.1h948.8"/>
    <path d="m58.3 641.8h948.8"/>
    <path d="m58.3 540.6h948.8"/>
   </g>
  </g>
  <g stroke="#000" stroke-linejoin="round">
   <g fill="none">
    <g stroke-width="5.625">
     <path d="m693.3 414.4c.8.1 1.4.2 1.9.5.2.1.3.2.5.3.9.7 1.3 2 .8 4-1 3.9-5.4 6.1-7.5 6.9-4.3 1.6-7.6-2-5.1-5.9 1.6-2.4 4.2-5.1 7.4-5.7.2 0 .4-.1.7-.1s.5-.1.8-.1c.6 0 1.2.1 1.9.3"/>
     <path d="m693 425.3c7-3.5 14.5-7.3 24.2-12.7 15.8-8.6 33.6-17.5 43.7-15.6 20.2 3.8 18.7 54.1 53.5 25.2"/>
     <path d="m738.3 402.1c6.3-2.8 21.8-2.6 31.1 17.6 6.6 14.3 16.3 11.1 24 11.6"/>
    </g>
    <path d="m755.4 399.8c7.8 4.9 8.8 2 26.1 28.6" stroke-width="6.587558"/>
    <g stroke-width="5.625">
     <path d="m693 425.3c-14.1 8.1-36.2 8.6-42.6.1-34.5-35.6 53-168.5 106.1-190.7"/>
     <path d="m609 354.7c-54.7 17.1-89.7 37.8-66.3-18.9"/>
    </g>
   </g>
   <g fill="#eb0000" fill-rule="evenodd" transform="matrix(1.1467641 0 0 1.1467641 -226.21051 128.10751)">
    <path d="m732.1 185.5c.8.1 1.4.2 1.9.5.2.1.3.2.5.3.9.7 1.3 2 .8 4-1 3.9-5.4 6.1-7.5 6.9-4.3 1.6-7.6-2-5.1-5.9 1.6-2.4 4.2-5.1 7.4-5.7.2 0 .4-.1.7-.1h.8c.6 0 1.2.1 1.9.3" stroke-width="5.625"/>
    <path d="m729.3 188.3c.3 0 .6.1.9.2.1 0 .2.1.2.1.4.3.6.9.4 1.8-.4 1.7-2.4 2.8-3.3 3.1-1.9.7-3.4-.9-2.3-2.6.7-1.1 1.9-2.3 3.3-2.6h.3.4c.3 0 .6 0 .8.1" stroke-width="4.981044"/>
   </g>
   <g fill="none" stroke-width="5.625">
    <ellipse cx="-60.661098" cy="470.0636" rx="25.728558" ry="20.371416" transform="matrix(.79083574 -.61202846 .61202846 .79083574 0 0)"/>
    <path d="m542.7 335.8c-40.5 43.9-114.9 91.7-151.8 127.4-25.9 26.2-43.9 58.1-40.9 65.8 1.1 2.9 17.7 21.8 57.3-41.8l88-150.7-254.4 50.2"/>
    <path d="m608.8 354c13.2-.7 111.6-97.1 130.3-109.2"/>
   </g>
  </g>
 </g>
</svg>
