<svg height="210mm" viewBox="0 0 1052.4 744.1" width="297mm" xmlns="http://www.w3.org/2000/svg">
 <g fill="none" stroke-linecap="round">
  <g transform="translate(0 -308.26772)">
   <path d="m57.6 742.2h948.8" stroke="#969696" stroke-width="1.875"/>
   <g stroke="#000" stroke-dasharray="3.75 7.5" stroke-miterlimit="2" stroke-width=".9375">
    <path d="m58.3 844.1h948.8"/>
    <path d="m58.3 641.8h948.8"/>
    <path d="m58.3 540.6h948.8"/>
   </g>
  </g>
  <g stroke="#000" stroke-linejoin="round" stroke-width="5.625">
   <path d="m651.1 432.3c5.4-3.3 11.7-10.5 6.5-17.1-2.6-3.3-4-4.5-11.9-4.4l-98.8.6c-6.7.1-14.3.2-15.9-.7-10.5-5.8-7.4-13.7.5-24.6"/>
   <path d="m659.3 423c49.2-56.5 107.8-47.4 90.2 8.9"/>
   <path d="m454.3 359.8c24.3-33 69.8-34.2 37.2 20l-31.5 52.1 71.6-45.8"/>
   <path d="m749.6 431.9c17.9-11.4 43-29.4 59.8-30.3 16-.6 21.6 30 32.6 29.8 7-.2 14.1-4.5 20.5-10.2"/>
   <path d="m360.6 367.3c28.2-24.7 99.7-85.1 133.2-118.1 31.8-31.4 52.8-59.1 37.2-64.4-14.6-5-42.6 12.2-89.8 90.1-45.3 78.2-42.2 104-23.7 105.6 19.2 1.7 30.6-14.6 36.7-20.8"/>
   <path d="m239.6 378.6c3.3.3 6.1 1 8.4 2.2.8.4 1.5.8 2.1 1.3 4.1 3.2 5.6 8.6 3.3 17.3-4.5 16.9-23.6 26.6-32.7 30.1-18.8 6.8-32.8-8.7-22-25.4 6.7-10.4 18.4-22 32.2-24.9.9-.2 1.9-.3 2.8-.5 1.1-.1 2.3-.2 3.5-.2 2.7 0 5.4.3 8.1 1.1"/>
   <path d="m205.1 395.5c15.1-16.4 46-43 55.4-50 3.6-2.6 7.4-4.9 11.3-6.7 5-2.4 10.2-3.9 15.3-4.1 24-1 32.4 46.5 48.8 46 10.8-.3 16.4-6.4 24.7-13.5"/>
  </g>
 </g>
</svg>
