<svg height="210mm" viewBox="0 0 1052.4 744.1" width="297mm" xmlns="http://www.w3.org/2000/svg">
 <g fill="none" stroke-linecap="round">
  <g transform="translate(0 -308.26772)">
   <path d="m57.6 742.2h948.8" stroke="#969696" stroke-width="1.875"/>
   <g stroke="#000" stroke-dasharray="3.75 7.5" stroke-miterlimit="2" stroke-width=".9375">
    <path d="m58.3 844.1h948.8"/>
    <path d="m58.3 641.8h948.8"/>
    <path d="m58.3 540.6h948.8"/>
   </g>
  </g>
  <g stroke="#000" stroke-linejoin="round" stroke-width="5.625">
   <path d="m430.3 337.3s.4-.2 4.3-2.6c20.8-13.1 39.5-27.2 56.3-43.6 23.8-23.3 34.1-45.8 29.2-54.2-7.8-13.3-36.9 10.3-84.1 88.2l-52.6 106"/>
   <path d="m415.1 486.2c16.8-.5 32.5-28.4 34.5-54.3 2.1-26.8 47.3-53.8 36.3-48.7l-102.4 47.9"/>
   <path d="m469.4 398.3c-18.7 24.9-13 28.9-16.8 41.1-3.5 11.7-13 33-25.1 41.8"/>
   <path d="m466.5 401.4c-7.6 7.8-16.9 18.3-21 32.6-4.1 14.4-5.8 40.5-22.8 50.2"/>
   <path d="m415.1 486.2c-14.8-3.4 72.6-35.2 102.5-36.4 20.1-.8 12.2 35.6 32.7 35.8 2.3 0 5-1.3 8.1-3.8"/>
   <path d="m558.4 481.8 56.9-45.3 21 49 47.1-48.9"/>
  </g>
 </g>
</svg>
