<svg height="210mm" viewBox="0 0 1052.4 744.1" width="297mm" xmlns="http://www.w3.org/2000/svg">
 <g fill="none" stroke-linecap="round">
  <g transform="translate(0 -308.26772)">
   <path d="m57.6 742.2h948.8" stroke="#969696" stroke-width="1.875"/>
   <g stroke="#000" stroke-dasharray="3.75 7.5" stroke-miterlimit="2" stroke-width=".9375">
    <path d="m58.3 844.1h948.8"/>
    <path d="m58.3 641.8h948.8"/>
    <path d="m58.3 540.6h948.8"/>
   </g>
  </g>
  <g stroke="#000" stroke-linejoin="round" stroke-width="5.625">
   <path d="m275.4 430.9s24.9-21.1 30.8-24.7c10.8-6.8 26.8-15.9 33.1-11 6.1 4.7 8 33.9 20.2 36.1 12.6 2.3 27.2-7.6 35.2-14.7l39.3-34.3"/>
   <path d="m327.5 394.9c11.6-4.7 13.4 6.8 14.9 23.4 1 10.8 7.8 13.7 20.1 13.3"/>
   <path d="m327.5 394.9c5.4-2.4 19-3.6 22.7 15 2.6 13.3 5.7 21.2 12.3 21.6"/>
   <path d="m339.5 397.6c6.8 12.3 1 30.9 15.5 31.8"/>
   <path d="m435 381.7c1-.8-25.9 49.6-25.9 49.6"/>
   <path d="m442 384.6-25.3 46.6"/>
   <path d="m421.1 431-12 .2"/>
   <path d="m448.9 381.5-27.7 49.5"/>
   <path d="m448.9 381.5-14.1-.1"/>
   <path d="m440.1 382.7-25.3 46.6"/>
   <path d="m532.7 410.8 34.3-26.7 24 48"/>
   <path d="m521 336-41.9 72.6c-8.8 15.3 5 26.1 21.5 22.2 2.8-.7 9.4-2.3 14-6l18.1-14.2"/>
   <path d="m591 432 30-40.8"/>
   <path d="m621 391.2c21.6-28.9 36.1-52.4 56.9-56.8 10.7-2.7 14.3.7 18.7 3.2 7.6 4.3 8 17.2-6 41.5l-29.8 52.1"/>
   <path d="m421.1 431 99.9-95"/>
  </g>
 </g>
</svg>
