<svg height="210mm" viewBox="0 0 1240.2 744.1" width="350mm" xmlns="http://www.w3.org/2000/svg">
 <g fill="none" stroke-linecap="round">
  <g transform="translate(0 -308.26772)">
   <path d="m31.3 742.2h1185.1" stroke="#969696" stroke-width="1.875"/>
   <g stroke="#000" stroke-dasharray="3.75 7.5" stroke-miterlimit="2" stroke-width=".9375">
    <path d="m32 844.1h1185.1"/>
    <path d="m32 641.8h1185.1"/>
    <path d="m32 540.6h1185.1"/>
   </g>
  </g>
  <g stroke="#000" stroke-linejoin="round" stroke-width="5.625">
   <path d="m293.9 433.7c-13.9 9.4-45.5 37.1-55.7 51.5-17 24.1-21.2 36.7-16.3 45.6 2.9 5.3 34.7 12.4 62.3-63.4 15.7-47.2 25.8-112.5 71.5-132.1"/>
   <path d="m293.9 433.7c14.7-9 280.1-92.9 314.5-99.9"/>
   <path d="m222 345.6c8.2-5.2 15.7-8 22.6-9.1 20.2-3.4 33.6 8.8 31.1 30.8-.4 3.1-1 8.2-2 11.7"/>
   <path d="m222 345.6c-3.9 2-25.2 15.9-42.5 28.8"/>
   <path d="m273.7 378.9s66.3-38.6 82.1-43.6"/>
   <path d="m179.5 374.4c-19.5 18.2-82.2 59.3-108.8 93.3-19.8 25.6-32.5 53.3-27.2 62.9 2.9 5.3 34.7 12.4 62.3-63.3 15.8-47.4 16.5-113.3 70.8-131.6"/>
   <path d="m668 432.2 335-92.3"/>
   <ellipse cx="573.11438" cy="901.38898" rx="25.728558" ry="20.371416" transform="matrix(.79083574 -.61202846 .61202846 .79083574 0 0)"/>
   <path d="m1066.1 383.9c-17.5 11.2-39.7 29.1-45.3 35-20.1 21.1-30.5 34.2-37 45.8-4.5 8.1-4.2 20.2 2.9 21.3 10 1.6 27-7.3 50.3-44.8l83.4-151.5-122.8 52.7"/>
   <path d="m1066.1 383.9 89.2-46.4"/>
   <path d="m608.5 333.8c54.3-11 95.5-79.5 89.2-96.2-5.5-14.4-40.2 8.9-87.4 86.8-47.4 82-47.2 105.6-28.1 106.1 11.2.3 22.7-2.9 33.6-7.8"/>
   <path d="m615.7 422.8c35-15.9 169.1-124.4 179.5-134.8 19.5-19.3 30.1-47.3 22.1-51.8s-40.3 8.9-87.4 86.8l-61.8 109.2"/>
   <path d="m1164.7 481.4c14.8-7.7 32.2-16.2 28.9-34.4-.9-14.2-55-41.3-61.8-64.1-3.5-11.7 8.2-28.9 23.4-45.3"/>
  </g>
 </g>
</svg>
