<svg height="210mm" viewBox="0 0 1052.4 744.1" width="297mm" xmlns="http://www.w3.org/2000/svg">
 <g fill="none" stroke-linecap="round">
  <g transform="translate(0 -308.26772)">
   <path d="m57.6 742.2h948.8" stroke="#969696" stroke-width="1.875"/>
   <g stroke="#000" stroke-dasharray="3.75 7.5" stroke-miterlimit="2" stroke-width=".9375">
    <path d="m58.3 844.1h948.8"/>
    <path d="m58.3 641.8h948.8"/>
    <path d="m58.3 540.6h948.8"/>
   </g>
  </g>
  <g stroke="#000" stroke-linejoin="round" stroke-width="5.625">
   <path d="m596.9 389c17.1-2.7 24.5 0 28.1 3.5 8.2 8 7.7 19.8-3.6 39.5l-29.8 52.1"/>
   <path d="m591.5 484.1s80.6-46.1 106.7-46.8c23.9-.6 30.3 49.5 47.3 46.5 4.7-.8 10.7-4.9 18.9-13.7"/>
   <path d="m413.9 336.5-42.4 73.1c-8.8 15.2 0 23.4 14.5 21 5.1-.9 210.9-41.6 210.9-41.6"/>
  </g>
 </g>
</svg>
