<svg height="210mm" viewBox="0 0 1052.4 744.1" width="297mm" xmlns="http://www.w3.org/2000/svg">
 <g fill="none" stroke-linecap="round">
  <g transform="translate(0 -308.26772)">
   <path d="m57.6 742.2h948.8" stroke="#969696" stroke-width="1.875"/>
   <g stroke="#000" stroke-dasharray="3.75 7.5" stroke-miterlimit="2" stroke-width=".9375">
    <path d="m58.3 844.1h948.8"/>
    <path d="m58.3 641.8h948.8"/>
    <path d="m58.3 540.6h948.8"/>
   </g>
  </g>
  <g stroke="#000" stroke-linejoin="round" stroke-width="5.625">
   <path d="m516.5 419.9c-1.8 1.1-26.6 17.8-28.5 19.1-32.5 22-71.6 74.4-63.5 89.5 4.9 9.2 28.4 7.7 48.3-24.3 8.5-13.7 17.7-31 19.9-61.8 5-69.6 41.1-122.1 68-104.4 11.2 7.4-22.9 49.1-54.2 46.7"/>
   <path d="m601.4 350.3c-23.6 28.1-60.2 52.6-85 69.6"/>
   <path d="m603 336.1c.7-.1 1.4-.2 2-.1.2 0 .4.1.5.1 1.1.4 1.8 1.5 1.9 3.5.2 4-3.4 7.4-5.1 8.7-3.6 2.7-7.7.3-6.5-4.1.8-2.7 2.5-6 5.3-7.5.2-.1.4-.2.6-.3s.5-.2.7-.3c.6-.2 1.2-.3 1.8-.3"/>
   <path d="m651.9 336.4c-8.1 4.2-40.4 20.1-51.8 13.9"/>
  </g>
 </g>
</svg>
