<svg height="210mm" viewBox="0 0 1052.4 744.1" width="297mm" xmlns="http://www.w3.org/2000/svg">
 <g fill="none" stroke-linecap="round">
  <g stroke="#000" transform="translate(0 -308.26772)">
   <path d="m57.6 742.2h948.8" stroke-width="1.875"/>
   <g stroke-dasharray="3.75 7.5" stroke-miterlimit="2" stroke-width=".9375">
    <path d="m58.3 844.1h948.8"/>
    <path d="m58.3 641.8h948.8"/>
    <path d="m58.3 540.6h948.8"/>
   </g>
  </g>
  <g stroke-linejoin="round" stroke-width="5.625">
   <g stroke="#000">
    <path d="m451 415.4 102.8-80.6 27.8 46.4"/>
    <path d="m581.6 381.3c58.4-66.3 109.8-55 98.9.3"/>
    <path d="m426.8 395.2c17.3-17.1 43.2-43.6 59.3-59.2"/>
    <path d="m404.8 337.7-42.4 73.1c-11.9 20.5 8.4 28.4 31.3 14.4 13.8-9.8 33.1-30 33.1-30"/>
   </g>
   <path d="m451 415.4c-15.9 11.5-60.4 48.3-74.9 63-25.9 26.2-38.2 42.4-35.3 50.2 1.1 2.9 17.7 21.8 57.3-41.8l88-150.7" stroke="#060000"/>
  </g>
 </g>
</svg>
