<svg height="210mm" viewBox="0 0 1052.4 744.1" width="297mm" xmlns="http://www.w3.org/2000/svg">
 <g fill="none" stroke-linecap="round">
  <g transform="translate(0 -308.26772)">
   <path d="m57.6 742.2h948.8" stroke="#969696" stroke-width="1.875"/>
   <g stroke="#000" stroke-dasharray="3.75 7.5" stroke-miterlimit="2" stroke-width=".9375">
    <path d="m58.3 844.1h948.8"/>
    <path d="m58.3 641.8h948.8"/>
    <path d="m58.3 540.6h948.8"/>
   </g>
  </g>
  <g stroke-linejoin="round" stroke-width="5.625">
   <path d="m484 335.9c-56.6 14.8-104.6 143.3-14.6 74.3" stroke="#000"/>
   <path d="m527.1 431.5c67-73.8 197.2-183.4 165.2-194.4-14.6-5-39.2 11.2-86.4 89.1-60.3 104.2-36 118.5-1.8 98.4" stroke="#000"/>
   <g stroke="#00000c">
    <path d="m469.4 410.2c12.4-11 24.9-27.6 24.9-27.6l33.3 47.9"/>
    <path d="m494.3 382.7 24 48"/>
    <path d="m503.8 382.7 23.8 47.9"/>
    <path d="m499.9 382.5 24 48"/>
   </g>
  </g>
  <g stroke="#00000c" stroke-width="3.75">
   <path d="m496.6 381.6h7.1"/>
   <path d="m520 431.5h7.1"/>
  </g>
 </g>
</svg>
