<svg height="210mm" viewBox="0 0 1052.4 744.1" width="297mm" xmlns="http://www.w3.org/2000/svg">
 <g fill="none" stroke-linecap="round">
  <g transform="translate(0 -308.26772)">
   <path d="m57.6 742.2h948.8" stroke="#969696" stroke-width="1.875"/>
   <g stroke="#000" stroke-dasharray="3.75 7.5" stroke-miterlimit="2" stroke-width=".9375">
    <path d="m58.3 844.1h948.8"/>
    <path d="m58.3 641.8h948.8"/>
    <path d="m58.3 540.6h948.8"/>
   </g>
  </g>
  <g stroke="#000" stroke-linejoin="round" stroke-width="5.625">
   <path d="m566.6 335.6c-88.9 27.1-327.2 96.6-361.1 95.9"/>
   <path d="m205.5 431.5c-6.1.3-11.1-1.7-14.5-6.1-34.5-35.6 53-168.5 106.1-190.7"/>
   <path d="m504.7 433.9c-27 16.7-90.2 91.8-63 99 11.2 2.5 33.1-7.6 54.5-66.3 15.7-47.2 16.4-112.8 70.4-130.9"/>
   <path d="m860.3 285.9c-40.6 51.1-172.2 67.4-174.1-2.7-6.9 11.4-13.8 23.9-20.6 34.9-11.5 18.6-20.1 36.2-33.2 30.1"/>
   <path d="m504.7 433.9c34.6-24.8 108.2-81.6 110.7-85.9"/>
   <path d="m615.4 347.9c4.2 2 11.4 3.4 19.1-.2"/>
   <g transform="matrix(.72846687 .68508103 -.68508103 .72846687 0 0)">
    <ellipse cx="697.05835" cy="-186.11295" rx="4.609393" ry="6.862874"/>
    <ellipse cx="681.13013" cy="-171.63452" rx="4.609393" ry="6.862874"/>
   </g>
  </g>
 </g>
</svg>
