<svg height="210mm" viewBox="0 0 1052.4 744.1" width="297mm" xmlns="http://www.w3.org/2000/svg">
 <g fill="none" stroke-linecap="round">
  <g transform="translate(0 -308.26772)">
   <path d="m57.6 742.2h948.8" stroke="#969696" stroke-width="1.875"/>
   <g stroke="#000" stroke-dasharray="3.75 7.5" stroke-miterlimit="2" stroke-width=".9375">
    <path d="m58.3 844.1h948.8"/>
    <path d="m58.3 641.8h948.8"/>
    <path d="m58.3 540.6h948.8"/>
   </g>
  </g>
  <g stroke="#000" stroke-linejoin="round">
   <path d="m395.6 465.3-15.7 38.1" stroke-width="5.625"/>
   <path d="m398.4 384.9c41.5 3.1 62-37.2 58.7-45.9-2.9-7.5-30.4-4.4-55.1 36.4-47.4 77.5-2.2 60.8 29.8 33.9" stroke-width="5.625"/>
   <path d="m638.6 485.2s29.9-59.2 34.5-70.3c6.6-16.3-3.5-25.4-18.3-24.7-4.1.2-7.4 1-12.2 2.5-7.8 2.8-15.1 6.8-21.8 10.8-10.2 6.3-24.4 14.7-47.1 29-28.5 18-107.3 83.2-81.8 98.7 9.9 5.5 23.1-1.1 49.3-43.2l89.2-152.4" stroke-width="5.624999"/>
  </g>
 </g>
</svg>
