<svg height="210mm" viewBox="0 0 1052.4 744.1" width="297mm" xmlns="http://www.w3.org/2000/svg">
 <g fill="none" stroke-linecap="round">
  <g transform="translate(0 -308.26772)">
   <path d="m57.6 742.2h948.8" stroke="#969696" stroke-width="1.875"/>
   <g stroke="#000" stroke-dasharray="3.75 7.5" stroke-miterlimit="2" stroke-width=".9375">
    <path d="m58.3 844.1h948.8"/>
    <path d="m58.3 641.8h948.8"/>
    <path d="m58.3 540.6h948.8"/>
   </g>
  </g>
  <g stroke-linejoin="round">
   <path d="m685.7 381c12.2-22 25-43.1 34.9-64.9 2.1-5.4 3.3-9.9 3.7-13.7.8-8.9-5.2-15.8-15.8-17-4.6-.4-9.2.4-13.6 2.3-10.1 4.4-26.7 23-49.5 48.9-63.3 72.2-108.9 93.8-152.3 94.3-46.8.5-54.8-29.2-111-27.9" stroke="#020000" stroke-width="5.625"/>
   <g stroke="#000">
    <path d="m237.6 391.7c-5.5 24.3 6 39.4 29.6 39.6 28.4-.3 74.9-27.6 115-28.2" stroke-width="5.625"/>
    <path d="m847.7 184.9-162 196.1" stroke-width="5.624999"/>
   </g>
  </g>
 </g>
</svg>
