<svg height="210mm" viewBox="0 0 1052.4 744.1" width="297mm" xmlns="http://www.w3.org/2000/svg">
 <g fill="none" stroke-linecap="round">
  <g transform="translate(0 -308.26772)">
   <path d="m57.6 742.2h948.8" stroke="#969696" stroke-width="1.875"/>
   <g stroke="#000" stroke-dasharray="3.75 7.5" stroke-miterlimit="2" stroke-width=".9375">
    <path d="m58.3 844.1h948.8"/>
    <path d="m58.3 641.8h948.8"/>
    <path d="m58.3 540.6h948.8"/>
   </g>
  </g>
  <g stroke="#000" stroke-linejoin="round" stroke-width="5.625">
   <path d="m467.3 377c-.7.6-21.2 30-33.7 37-6.6 3.7-15.6 7.7-21.9 8.8-39.2 6.9-144.5 10.3-152 8.4-50.4-12.7 27.4-128.8 71.1-175 4.7-4.9 21.5-18.4 28.7-21.2"/>
   <path d="m429.6 416c-11.9 5.9-13.1 4.1-16.6-.3-.3-1.1-.8-5.3 1.9-7.4 3.8-2.9 7.2-2.1 10-.7 3.5 2.1 6.5 8 2.4 9.7-1.5.6-9.9 4.3-14.3 5.4"/>
   <path d="m467.3 377 73.2-95.8-48.7 95.8 126.5-122.8"/>
   <path d="m618.4 254.2c1.6-1.6 3.2-3 4.8-4.4 35.8-31.5 49-6.7 34.7 21-14.7 43-42.4 79.5-69.3 116.4-43.5 61-58.9 41.1-59.8 38.1-2.3-7.3 5.5-36.8 38-60 41.7-31.1 117.6-55.7 186.3-65.3"/>
   <path d="m753 299.9c16-.6 21.6 31 32.6 30.7 7.2-.2 12.4-7.6 16.7-13"/>
  </g>
 </g>
</svg>
