<svg height="210mm" viewBox="0 0 1052.4 744.1" width="297mm" xmlns="http://www.w3.org/2000/svg">
 <g fill="none" stroke-linecap="round">
  <g transform="translate(0 -308.26772)">
   <path d="m57.6 742.2h948.8" stroke="#969696" stroke-width="1.875"/>
   <g stroke="#000" stroke-dasharray="3.75 7.5" stroke-miterlimit="2" stroke-width=".9375">
    <path d="m58.3 844.1h948.8"/>
    <path d="m58.3 641.8h948.8"/>
    <path d="m58.3 540.6h948.8"/>
   </g>
  </g>
  <g stroke="#000" stroke-linejoin="round" stroke-width="5.625">
   <path d="m238 358.5c15.9-32 75.6-30.6 48.2 3.3-27.4 33.8-45.5 50.2-39.4 63.9 5.4 12.3 32.9 4.2 46.8-11.3 4.7-5.2 40.7-52.6 44.8-59.9"/>
   <path d="m338.4 354.5c8.9-.1 31.2 3 43.3-9.3"/>
   <path d="m330.2 338.5c.9-.7 1.9-1.3 2.8-1.7.3-.1.6-.2.9-.3 2-.5 4.1-.1 6.2 1.7 4.1 3.5 2.3 9.5 1.1 12.2-2.6 5.6-10.9 6.7-13.4 1.8-1.5-3.1-2.2-7.6.4-11.4.2-.3.4-.5.6-.8s.5-.6.8-.9c.7-.6 1.4-1.3 2.4-1.8"/>
   <path d="m366.8 338.5c1 .1 1.8.3 2.5.7.2.1.4.2.6.4 1.2 1 1.7 2.6 1 5.2-1.3 5.1-7.1 8-9.8 9-5.7 2-9.8-2.6-6.6-7.6 2-3.1 5.5-6.6 9.7-7.5.3-.1.6-.1.9-.1s.7-.1 1-.1c.8 0 1.6.1 2.4.3"/>
   <path d="m424.6 281.7s-36.6 56.5-42.9 63.6"/>
   <path d="m656 282c-20.8 26.5-78.4 45.1-131 47.9-53.1 2.8-101-10.5-100.4-48.2"/>
   <path d="m751 295c8.9-2.5 17.1-4.3 25.9-2.9 16.5 4.5 12 40.6 30.1 37.6 5-.9 11.5-5.3 21-13.7"/>
   <path d="m656 282c19.9-22.4 90-112.3 124.4-139.6 12.2-9.5 20.1-12.8 24.7-11.3 26.7 8.5-62.2 177.1-112.9 197.9-16.3 3.7-17.4-2.3-12.1-8.1 15.8-12 25.7-14.6 70.9-25.9"/>
  </g>
 </g>
</svg>
