<svg height="210mm" viewBox="0 0 1052.4 744.1" width="297mm" xmlns="http://www.w3.org/2000/svg">
 <g fill="none" stroke-linecap="round">
  <g transform="translate(0 -308.26772)">
   <path d="m57.6 742.2h948.8" stroke="#969696" stroke-width="1.875"/>
   <g stroke="#000" stroke-dasharray="3.75 7.5" stroke-miterlimit="2" stroke-width=".9375">
    <path d="m58.3 844.1h948.8"/>
    <path d="m58.3 641.8h948.8"/>
    <path d="m58.3 540.6h948.8"/>
   </g>
  </g>
  <g stroke="#000" stroke-linejoin="round" stroke-width="5.625">
   <path d="m739 419.4 55.9-82.3 26 49.7"/>
   <path d="m736 335.4-36.8 72.8c-7.7 15.2 4.6 23.5 21.5 22.2 8.8-.7 14.3-6.7 18.3-11"/>
   <path d="m521.8 387.7s-188.7 44.7-208.6 43.1c-16 1.2-22.9-9.9 4.3-56 23.8-40.7 50.4-43.8 53.1-36.3 3.2 8.7-16.6 49-56.6 45.9"/>
   <ellipse cx="164.65115" cy="644.46979" rx="25.728558" ry="20.371416" transform="matrix(.79083574 -.61202846 .61202846 .79083574 0 0)"/>
   <path d="m542.8 376.3-21 11.4"/>
   <path d="m542.8 376.3c17.2-10.2 67.9-39 92.1-40.1 24-.8 28.7 41.1 45.1 40.7 10.8-.3 21.2-9.8 35.8-23.6"/>
   <path d="m715.7 353.3 20.2-18"/>
  </g>
 </g>
</svg>
