<svg height="210mm" viewBox="0 0 1052.4 744.1" width="297mm" xmlns="http://www.w3.org/2000/svg">
 <g fill="none" stroke-linecap="round">
  <g transform="translate(0 -308.26772)">
   <path d="m57.6 742.2h948.8" stroke="#969696" stroke-width="1.875"/>
   <g stroke="#000" stroke-dasharray="3.75 7.5" stroke-miterlimit="2" stroke-width=".9375">
    <path d="m58.3 844.1h948.8"/>
    <path d="m58.3 641.8h948.8"/>
    <path d="m58.3 540.6h948.8"/>
   </g>
  </g>
  <g stroke="#000">
   <g stroke-linejoin="round">
    <g stroke-width="5.625">
     <ellipse cx="439.86288" cy="52.853779" rx="4.609393" ry="6.862875" transform="matrix(.72846687 .68508103 -.68508103 .72846687 0 0)"/>
     <path d="m218.7 335.1s-33.2 63.9-35.3 72c-5.3 17.9 5.1 24 18.9 23.9 28.2-.1 47.7-38.2 84-86.5"/>
     <path d="m283.2 345.7c45-9.7 73.9-25.2 86.2-41.7 5.2-7 6.2-13.7 4.9-17.4-1.3-3.8-5.7-5.7-12.1-4.1-9.9 2.5-24.4 13.2-39.3 37.8-22.9 38.9-15.8 60.7-1.5 61 20.3.3 35.9-15.8 74.1-46.8"/>
    </g>
    <path d="m405 483.1c14.8-7.7 30.4-16 28.9-34.4-1.8-21.5-55-44-61.8-66.9-3.5-11.7 8.2-30.9 23.4-47.3" stroke-width="5.624998"/>
    <g stroke-width="5.625">
     <path d="m482.9 439.4s-73.2 29-81.8 39.9c-1.8 2.3-.3 5.8 3.9 3.8"/>
     <path d="m506.9 448a19.2 25.1 41.6 0 1 -14.3 31.3 19.2 25.1 41.6 0 1 -27.6-6.8 19.2 25.1 41.6 0 1 14.3-31.3 19.2 25.1 41.6 0 1 27.6 6.8z"/>
     <path d="m561.2 388.2s-27.8 58.9-33.5 73.4c-5.8 14.7 2.2 21.7 14.1 21.4 8.3 0 16.2-3 24.6-8.6 20.8-13.8 54.1-59.6 79.7-91.2"/>
    </g>
    <g stroke-width="5.624999">
     <path d="m646.1 383.2 33.3 47.9"/>
     <path d="m646.1 383.2 24 48"/>
     <path d="m655.6 383.2 23.8 47.9"/>
     <path d="m651.7 383.1 24 48"/>
    </g>
   </g>
   <path d="m646.5 382.2h9" stroke-width="3.75"/>
   <path d="m670 432.1h9" stroke-width="3.75"/>
   <g stroke-linejoin="round">
    <path d="m679.5 431.1c18.5-28 34.2-55.1 54.8-77.5 7.6-8.1 18.5-16.3 28.7-17.3 3-.3 5.9 0 8.6 1.1 4.5 1.9 6.4 7.1 6.2 11.3-.3 6.8-4.1 16.6-10.6 30.8l-23.8 52" stroke-width="5.625"/>
    <path d="m743.3 431.5 95-48.4 22.9 48.1" stroke-width="5.625"/>
    <path d="m476.6 442.5 84.6-54.3" stroke-width="5.624999"/>
   </g>
  </g>
 </g>
</svg>
