<svg height="210mm" viewBox="0 0 1052.4 744.1" width="297mm" xmlns="http://www.w3.org/2000/svg">
 <g fill="none" stroke-linecap="round">
  <g stroke="#000" transform="translate(0 -308.26772)">
   <path d="m57.6 742.2h948.8" stroke-width="1.875"/>
   <g stroke-dasharray="3.75 7.5" stroke-miterlimit="2" stroke-width=".9375">
    <path d="m58.3 844.1h948.8"/>
    <path d="m58.3 641.8h948.8"/>
    <path d="m58.3 540.6h948.8"/>
   </g>
  </g>
  <g stroke-width="5.625">
   <g stroke="#000">
    <g stroke-linejoin="round">
     <path d="m432.6 334.2c-13.8 25.3-28.6 50-43 74.9-13.1 23.6 9 26.5 29 17.9 6.3-3.1 18.5-10.9 37.3-32.5"/>
     <path d="m511.7 343.3c-17.8 11.6-40.4 35.5-55.9 51.2"/>
     <path d="m475.1 430.8c-45.3 25.5-89.4 84.9-81 100 2.9 5.3 34.7 12.4 62.3-63.3 15.8-47.4 16.5-113.3 70.8-131.6"/>
    </g>
    <path d="m506 347.3c-27.4 24.6-29.1 58.7-39.9 100.9-7.5 29.4-23.1 69.4-55.3 83.9"/>
    <path d="m496.3 358.1c-22.2 34.7-16.4 49.6-26 88-10 39.9-19.2 60.3-50.1 80.6"/>
   </g>
   <path d="m475.1 430.8 211.6-93.9" stroke="#000001" stroke-linejoin="round"/>
  </g>
 </g>
</svg>
