<svg height="210mm" viewBox="0 0 1052.4 744.1" width="297mm" xmlns="http://www.w3.org/2000/svg">
 <g fill="none" stroke-linecap="round">
  <g transform="translate(0 -308.26772)">
   <path d="m57.6 742.2h948.8" stroke="#969696" stroke-width="1.875"/>
   <g stroke="#000" stroke-dasharray="3.75 7.5" stroke-miterlimit="2" stroke-width=".9375">
    <path d="m58.3 844.1h948.8"/>
    <path d="m58.3 641.8h948.8"/>
    <path d="m58.3 540.6h948.8"/>
   </g>
  </g>
  <g stroke="#000">
   <g stroke-width="5.625">
    <path d="m639.3 384.2 21.8 47.1" stroke-linejoin="round"/>
    <path d="m646.5 384.1 21.8 47.1" stroke-linejoin="round"/>
    <path d="m639.3 384.2 7.2-.1"/>
    <path d="m643.3 385.5 20.7 44.7" stroke-linejoin="round"/>
    <path d="m661.1 431.3 7.2-.1"/>
   </g>
   <g stroke-linejoin="round">
    <path d="m668.3 431.2c20.4-27.3 41.5-53.6 52.7-66.5 15-17.8 30.2-29.3 40.9-29.1 12.4.2 12.3 17.3 5.9 36-14.7 43-41.1 81.5-68 118.4-30.2 41-50.1 47.2-57.1 40.9-13.5-11.4 4.2-35.9 29.2-55.1 13.2-11.3 45.9-34.3 65.4-41.7" stroke-width="5.625001"/>
    <path d="m255.2 388.7c6 27.1 43.7 42.9 93.8 42.4 45-.4 108.3-8.9 163.1-55.2 31-26.2 44.5-38.9 58.6-39.8 3.3-.4 6.4-.1 9 .9 2.8 1 5 2.6 6.6 4.7 3.7 5.2 3.1 13.5-5.1 23.4-5.8 7-10.8 12.7-15.8 18.1-4.5 5-9.2 9.9-12.7 14-8.9 10.5-13.5 18.6-9.5 27.1 2.6 5.5 8.8 7.4 16.1 7.3 14.6-.3 27.5-7.1 80.1-47.3" stroke-width="5.625"/>
   </g>
  </g>
 </g>
</svg>
