<svg height="210mm" viewBox="0 0 1052.4 744.1" width="297mm" xmlns="http://www.w3.org/2000/svg">
 <g fill="none" stroke-linecap="round">
  <g transform="translate(0 -308.26772)">
   <path d="m57.6 742.2h948.8" stroke="#969696" stroke-width="1.875"/>
   <g stroke="#000" stroke-dasharray="3.75 7.5" stroke-miterlimit="2" stroke-width=".9375">
    <path d="m58.3 844.1h948.8"/>
    <path d="m58.3 641.8h948.8"/>
    <path d="m58.3 540.6h948.8"/>
   </g>
  </g>
  <g stroke="#000">
   <g stroke-linejoin="round">
    <path d="m380 336.3c-61.8 18.7-78.5 94-48.5 94.5 18.7.3 30-2 129.2-94.4" stroke-width="5.625"/>
    <path d="m460.8 336.4-46.6 95.4" stroke-width="5.624999"/>
    <path d="m414.2 431.8 88.8-44.2 21.3 44.2" stroke-width="5.624999"/>
    <path d="m662.8 359.5-45.9 71.8" stroke-width="5.625"/>
    <path d="m645.6 391.2-25 39.7" stroke-width="3.75"/>
    <g stroke-width="5.625">
     <path d="m616.9 431.3 7.9.2"/>
     <path d="m544.4 431.2c14.5 2.4 37.4-30.3 61.3-58.7 16.7-19.9 33.1-39.1 50.9-36.8 1.7.3 3.2.7 4.6 1.3 9.1 3.9 11 14.7-4.2 40.7l-31.2 53.7"/>
    </g>
   </g>
   <path d="m661.3 338.1c6.1 2.8 6.9 11.6-1.9 25.1" stroke-width="3.75"/>
   <g stroke-linejoin="round">
    <ellipse cx="689.10681" cy="-64.482887" rx="4.609393" ry="6.862875" stroke-width="5.625" transform="matrix(.72846687 .68508103 -.68508103 .72846687 0 0)"/>
    <g stroke-width="5.624999">
     <path d="m625.8 431.4 81.3-42.3"/>
     <path d="m544.4 431.2c-4.5.8-10.1 1.3-20 .7"/>
    </g>
   </g>
  </g>
 </g>
</svg>
