<svg height="210mm" viewBox="0 0 1052.4 744.1" width="297mm" xmlns="http://www.w3.org/2000/svg">
 <g fill="none" stroke-linecap="round">
  <g transform="translate(0 -308.26772)">
   <path d="m57.6 742.2h948.8" stroke="#969696" stroke-width="1.875"/>
   <g stroke="#000" stroke-dasharray="3.75 7.5" stroke-miterlimit="2" stroke-width=".9375">
    <path d="m58.3 844.1h948.8"/>
    <path d="m58.3 641.8h948.8"/>
    <path d="m58.3 540.6h948.8"/>
   </g>
  </g>
  <g stroke="#000" stroke-width="5.625">
   <g stroke-linejoin="round">
    <path d="m542.3 432.7s98.4-155.7 116.5-175.6c10.2-11.2 15.3-12.5 21.5-15.9 13.3-7.1 27.2-2.4 24 17-5.6 22.9-32.9 72.7-32.9 72.7"/>
    <path d="m497.8 408.6 26.4-22 18.2 46"/>
    <path d="m488.8 334c54.3-11 95.5-79.5 89.2-96.2-5.5-14.4-40.3 8.9-87.4 86.8-69.6 120.2-36 123.1 7.3 84"/>
   </g>
   <path d="m810.6 133.9-139.2 196.9"/>
   <g stroke-linejoin="round">
    <path d="m388.5 424.1 37.6-27.8-66.9 138.5"/>
    <path d="m281.1 431.8s44.6-32.4 61.8-29.2 16 46.2 45.6 21.5"/>
    <path d="m324.6 406.6c5.4-2.4 18.6-2.2 26.5 15 5.6 12.2 13.9 9.5 20.5 9.9"/>
    <path d="m339.2 404.7c6.7 5.9 6.3.5 21.2 23.1"/>
   </g>
  </g>
 </g>
</svg>
