<svg height="210mm" viewBox="0 0 1052.4 744.1" width="297mm" xmlns="http://www.w3.org/2000/svg">
 <g fill="none" stroke-linecap="round">
  <g transform="translate(0 -308.26772)">
   <path d="m57.6 742.2h948.8" stroke="#969696" stroke-width="1.875"/>
   <g stroke="#000" stroke-dasharray="3.75 7.5" stroke-miterlimit="2" stroke-width=".9375">
    <path d="m58.3 844.1h948.8"/>
    <path d="m58.3 641.8h948.8"/>
    <path d="m58.3 540.6h948.8"/>
   </g>
  </g>
  <g stroke-linejoin="round" stroke-width="5.625">
   <g stroke="#000">
    <path d="m557 333.3-55.8 97.2"/>
    <path d="m557 333.3h-10.6"/>
    <path d="m551.5 333.3-55.8 97.2"/>
    <path d="m501.2 430.5h-10.6"/>
    <path d="m445.7 431.7 100.7-98.4-55.8 97.2 11-.1"/>
   </g>
   <path d="m495.6 409.2c.7.1 1.3.2 1.8.5.2.1.3.2.4.3.9.7 1.2 1.8.7 3.7-1 3.6-5.1 5.7-7 6.4-4 1.5-7-1.9-4.7-5.4 1.4-2.2 3.9-4.7 6.9-5.3.2 0 .4-.1.6-.1h.7c.6 0 1.1.1 1.7.2" stroke="#030002"/>
   <path d="m499.8 417.1 111-80.7-56.7 94.9" stroke="#000"/>
   <path d="m554.1 431.2c12.2-5.2 61.4-30.5 77.1-30.5 15.8.9 21.6 31 32.6 30.7 7.2-.2 12.4-7.6 16.7-13" stroke="#000"/>
  </g>
 </g>
</svg>
