<svg height="210mm" viewBox="0 0 1052.4 744.1" width="297mm" xmlns="http://www.w3.org/2000/svg">
 <g fill="none" stroke-linecap="round">
  <g transform="translate(0 -308.26772)">
   <path d="m57.6 742.2h948.8" stroke="#969696" stroke-width="1.875"/>
   <g stroke="#000" stroke-dasharray="3.75 7.5" stroke-miterlimit="2" stroke-width=".9375">
    <path d="m58.3 844.1h948.8"/>
    <path d="m58.3 641.8h948.8"/>
    <path d="m58.3 540.6h948.8"/>
   </g>
  </g>
  <g stroke="#000">
   <g stroke-linejoin="round">
    <path d="m404.7 486.9c-19.4 20.3-22.1 31.9-19.7 40.9.8 3 17.7 21.8 57.3-41.8l88-150.7" stroke-width="5.625"/>
    <path d="m617.8 288.1c-9.2 6.4-197 179.8-213.1 198.7" stroke-width="5.625"/>
    <path d="m614.6 356.8c-13 3.5-28.7 9.9-32.2 10.9-5.2 1.4-9.2 5.1-9.2 7.7 0 3.7.8 5.8 5.8 6.3 8.8.6 35-26.8 42-37.4 20.7-32.1 24.7-70.8-3.3-56" stroke-width="5.419139"/>
    <path d="m614.6 356.8c16.7-4.4 54.3-18.9 74.1-20.2" stroke-width="5.625"/>
    <path d="m688.8 336.6c24-.8 32.4 41.1 48.8 40.7 10.8-.3 18.5-10 25.1-17.1" stroke-width="5.625"/>
    <path d="m440.3 336-47.8 86.7" stroke-width="6.5625"/>
    <path d="m336.6 430.8 94.4-95.2-39 72.4c-8.4 15.5 5 26.1 21.5 22.2 2.8-.6 9.4-2.3 14-5.9l18.1-14.2" stroke-width="5.625"/>
    <path d="m435.7 336-44.7 81.9" stroke-width="6.5625"/>
   </g>
   <path d="m397.5 416.5c-1.6 4.1-2.6 6.5.8 11.9" stroke-width="3.75"/>
   <g stroke-linejoin="round">
    <path d="m440.3 336-9.3-.4" stroke-width="6.5625"/>
    <path d="m530.3 335.3-84.7 74.8" stroke-width="5.625"/>
   </g>
  </g>
 </g>
</svg>
