<svg height="210mm" viewBox="0 0 1169.3 744.1" width="330mm" xmlns="http://www.w3.org/2000/svg">
 <g fill="none" stroke-linecap="round">
  <g transform="translate(0 -308.26772)">
   <path d="m14.1 529.3h1143" stroke="#969696" stroke-width="1.875"/>
   <g stroke="#000" stroke-dasharray="3.75 7.5" stroke-miterlimit="2" stroke-width=".9375">
    <path d="m14.8 631.3h1143.1"/>
    <path d="m14.8 428.9h1143.1"/>
    <path d="m14.8 327.7h1143.1"/>
   </g>
   <path d="m14.1 933.5h1143" stroke="#969696" stroke-width="1.875"/>
   <g stroke="#000" stroke-dasharray="3.75 7.5" stroke-miterlimit="2" stroke-width=".9375">
    <path d="m14.8 1035.4h1143.1"/>
    <path d="m14.8 833.1h1143.1"/>
    <path d="m14.8 731.9h1143.1"/>
   </g>
  </g>
  <g stroke-width="5.625">
   <g stroke="#000">
    <path d="m146.8 217.7c56.6-73.1 127.8-65.2 107.1.6" stroke-linejoin="round"/>
    <path d="m249 398.4 33.9-16-27.4 48.9" stroke-linejoin="round" transform="translate(-196.84903 -213.31267)"/>
    <path d="m452.3 22.4-113.7 196.2"/>
   </g>
   <g stroke-linejoin="round">
    <g stroke="#000">
     <path d="m537.8 197.4 30.5-26.9 29.6 47.9"/>
     <path d="m482.8 139.4c19.6-25.9 70.3-22.6 44.6 9-27.4 33.9-47.2 52.6-39.4 63.9 9 13.2 36.1 1.2 49.7-14.9"/>
     <path d="m597.8 218.4 54.9-47.9 29.2 47.3 45.9-32"/>
     <path d="m77.7 527.2-48.8 95.4"/>
    </g>
    <path d="m28.8 622.6 73.2-48.1 20 47.9" stroke="#060000"/>
    <g stroke="#000">
     <path d="m445.4 526.4s-3.1 1.2 3.3-1.1c16.3-5.7 36.1 3.9 18.7 25.5-27.4 33.8-45.5 50.2-39.4 63.9 2.1 4.8 9.7 7.2 18.1 7.2 27.2.2 84.9-67.1 113-94.8"/>
     <path d="m211.9 621.8c21.8.5 233.5-95.4 233.5-95.4"/>
     <path d="m559.1 527.1-56.7 94.9 46.4-25.5"/>
     <path d="m548.8 596.5 40.7-21.9 19.1 48.4"/>
     <path d="m174.3 563.2c10.4-12.1 29.8-33 41.2-35.3 18-3.6 34.4 4.7 19.5 24.5-24.4 32.3-45.5 50.2-39.4 63.9 2.3 5.3 8.7 6.8 16.3 5.5"/>
     <path d="m122.1 622.4 52.2-59.2"/>
     <path d="m1020.2 527.5s-3.1 1.2 3.3-1.1c16.3-5.7 36.1 3.9 18.7 25.5-27.4 33.8-45.5 50.2-39.4 63.9 4.2 9.6 28.5 7.2 41.9-3.7"/>
     <path d="m699.7 614.1c18.3-14.3 29.1-19.4 45-26.9 45.7-21.3 73.3-6.9 62 34.8l213.5-94.5"/>
     <path d="m1044.7 612.1c20.4-15.3 30.6-22.9 52.8-21 15.3.2 21.6 31 32.6 30.7 7.2-.2 12.4-7.6 16.7-13"/>
     <path d="m705.4 526.6-42.4 73.1c-11.8 20.3 15.9 32.3 37.9 13.5"/>
    </g>
   </g>
  </g>
 </g>
</svg>
