<svg height="210mm" viewBox="0 0 1052.4 744.1" width="297mm" xmlns="http://www.w3.org/2000/svg">
 <g fill="none" stroke-linecap="round">
  <g transform="translate(0 -308.26772)">
   <path d="m57.6 742.2h948.8" stroke="#969696" stroke-width="1.875"/>
   <g stroke="#000" stroke-dasharray="3.75 7.5" stroke-miterlimit="2" stroke-width=".9375">
    <path d="m58.3 844.1h948.8"/>
    <path d="m58.3 641.8h948.8"/>
    <path d="m58.3 540.6h948.8"/>
   </g>
  </g>
  <g stroke-linejoin="round">
   <path d="m461.4 343.1c89.7-52.1 207.8-129.3 271.9-160.2 2.4-1.1 4.5-1.8 6.2-2.1 38.6-6.1-54.3 174.4-109 198.2" stroke="#210f00" stroke-width="5.625"/>
   <path d="m746.8 200.7-91.7 157.8" stroke="#210f00" stroke-width="5.625"/>
   <path d="m741 217c-21.3 43.2-44.9 85.4-73 125.6" stroke="#000" stroke-width="8.4375"/>
   <path d="m638.3 374.5c6.6-8.2 16.4-19 22.5-27.9" stroke="#210f00" stroke-width="3.75"/>
   <g stroke="#000" stroke-width="5.625">
    <path d="m630.6 379.1c-7-1.6-.5-7.3 3.7-8.8 27.9-9.3 88.3-31.9 88.3-31.9"/>
    <path d="m324.6 335.8-42.4 75.6c-11.6 20.7 10 23.2 29 16.4 21.3-5.8 150.2-84.7 150.2-84.7"/>
   </g>
  </g>
 </g>
</svg>
