<svg height="210mm" viewBox="0 0 1052.4 744.1" width="297mm" xmlns="http://www.w3.org/2000/svg">
 <g stroke-linecap="round">
  <g fill="none" transform="translate(0 -308.26772)">
   <path d="m57.6 742.2h948.8" stroke="#969696" stroke-width="1.875"/>
   <g stroke="#000" stroke-dasharray="3.75 7.5" stroke-miterlimit="2" stroke-width=".9375">
    <path d="m58.3 844.1h948.8"/>
    <path d="m58.3 641.8h948.8"/>
    <path d="m58.3 540.6h948.8"/>
   </g>
  </g>
  <g stroke="#000">
   <g fill="none">
    <g stroke-width="5.625">
     <path d="m260.9 431.1c51.5-19.7 85.4-82.7 122.4-93.4 19.1-5.1 35 3 17.6 24.5-27.4 33.8-45.5 50.2-39.4 63.9 2.1 4.7 8 5.8 14.9 5.2 4.8-.3 9.8-2.2 15-5" stroke-linejoin="round"/>
     <path d="m401.8 339.4c14.5 10.1 4.3 27.8-12.4 44.2-14.4 14-23.4 26.4-29.5 38.7"/>
     <path d="m401.8 339.4c.8-1.1 3.9 6.1.7 14.2-3.2 8.4-12.8 17.8-18.3 22.9-10.8 10.1-30.6 29-24.3 45.7"/>
    </g>
    <g stroke-width="2.8125">
     <path d="m393.3 337.7c11.3 1.3 8.8 6.5 9.1 11"/>
     <path d="m365 414.9c-2.7 4.9-3.8 12 2.3 14.5"/>
     <path d="m357.3 416.3c-.1 5.7 2.9 11.5 4.9 13.1"/>
    </g>
    <g stroke-linejoin="round" stroke-width="5.625">
     <path d="m283.8 385.2c7.5-.9 13.1-1.7 14.4-1.9 31.1-5.1 46.3-36.3 43.5-43.7-2.8-7.3-28.8-4.3-52.7 35l-28 56.4"/>
     <path d="m497.7 334.5-55.8 97.2"/>
     <path d="m497.7 334.5h-10.6"/>
     <path d="m492.1 334.5-55.8 97.2"/>
     <path d="m441.9 431.7h-10.6"/>
     <path d="m391.5 426.2c12.8-7.6 95.6-91.7 95.6-91.7l-55.8 97.2 11-.1"/>
     <path d="m495.5 382.1c-26.6 25.5-53.2 49.5-53.2 49.5"/>
     <path d="m626.2 431.3c5.8-3.7 12.8-11.7 7.1-19-2.8-3.6-4.4-5-13-4.9l-107.7.6c-7.4 0-15.4-.2-17.4-.8-9.6-2.9-8.5-13.1.2-25.1"/>
    </g>
   </g>
   <g stroke-linejoin="round" stroke-width="5.625">
    <path d="m632.3 426.1 22.4-32.7" fill="#d3bc5f" fill-rule="evenodd"/>
    <path d="m654.7 393.3c20.3-27.9 41-60.1 64.8-57.8 10.5 1.2 16.5 8.2 15.8 17-.4 3.7-1.6 8.3-3.7 13.7-9.9 21.8-22.7 42.9-34.9 64.9" fill="none"/>
    <path d="m696.7 431.2 76.1-95" fill="#d3bc5f" fill-rule="evenodd"/>
   </g>
  </g>
 </g>
</svg>
