<svg height="210mm" viewBox="0 0 1052.4 744.1" width="297mm" xmlns="http://www.w3.org/2000/svg">
 <g fill="none" stroke-linecap="round">
  <g transform="translate(0 -308.26772)">
   <path d="m57.6 742.2h948.8" stroke="#969696" stroke-width="1.875"/>
   <g stroke="#000" stroke-dasharray="3.75 7.5" stroke-miterlimit="2" stroke-width=".9375">
    <path d="m58.3 844.1h948.8"/>
    <path d="m58.3 641.8h948.8"/>
    <path d="m58.3 540.6h948.8"/>
   </g>
  </g>
  <path d="m573.8 330.6h37.1" stroke="#000" stroke-width="5.625"/>
  <g stroke-linejoin="round">
   <path d="m617.3 321c.6.1 1.2.2 1.6.4.1.1.3.2.4.3.8.6 1.1 1.6.6 3.3-.8 3.2-4.5 5.1-6.2 5.7-3.6 1.3-6.2-1.7-4.2-4.8 1.3-2 3.5-4.2 6.1-4.7.2 0 .4-.1.5-.1h.7c.5 0 1 .1 1.5.2" stroke="#000" stroke-width="4.638606"/>
   <path d="m615 323.3c.3 0 .5.1.7.2.1 0 .1.1.2.1.4.3.5.7.3 1.5-.4 1.4-2 2.3-2.7 2.6-1.6.6-2.8-.7-1.9-2.1.6-.9 1.5-1.9 2.7-2.1h.2.3c.2 0 .5 0 .7.1" stroke="#000" stroke-width="4.107574"/>
   <g stroke-width="5.625">
    <path d="m617.7 327.4s89.2-129.2 111.3-138.8c19.6-8.3 35 2.5 12.3 40.5l-31.2 52.3" stroke="#000008"/>
    <path d="m500.8 359.3c9.3-12.6 18-18.1 26.2-21.7 24.8-6.9 35 2.5 12.3 40.5l-29.8 52.1" stroke="#000"/>
    <path d="m509.4 430.3 65.1-41.3-52.4 96" stroke="#0a0000"/>
   </g>
  </g>
 </g>
</svg>
