<svg height="210mm" viewBox="0 0 1052.4 744.1" width="297mm" xmlns="http://www.w3.org/2000/svg">
 <g fill="none" stroke-linecap="round">
  <g transform="translate(0 -308.26772)">
   <path d="m57.6 742.2h948.8" stroke="#969696" stroke-width="1.875"/>
   <g stroke="#000" stroke-dasharray="3.75 7.5" stroke-miterlimit="2" stroke-width=".9375">
    <path d="m58.3 844.1h948.8"/>
    <path d="m58.3 641.8h948.8"/>
    <path d="m58.3 540.6h948.8"/>
   </g>
  </g>
  <g stroke="#000" stroke-linejoin="round" stroke-width="5.625">
   <path d="m681.5 431.3c5.4-3.3 11.7-10.5 6.5-17.1-2.6-3.3-4-4.5-11.9-4.4l-98.8.6c-6.7.1-14.3.2-15.9-.7-10.5-5.8-7.4-13.7.5-24.6"/>
   <path d="m536.7 335.9-42.4 73.1c-13.3 22.9 23.8 35.3 46.3 4.4 1.3-1.8 15.3-18.9 16.5-21"/>
   <path d="m689.5 422.2c13.7-19.9 31.4-50.6 53.3-69.3 4.4-3.8 5.7-4 8.7-5.9 5.2-3.3 10.6-6.2 16.4-8.7 19.6-8.3 35 2.5 12.3 40.5l-29.8 52.1"/>
   <path d="m353.4 431.7s28.9-34.9 42.5-35.3c17.4-1 19.7 33.9 37.9 34.3 10.5-.3 19.6-9.3 31.1-21.7"/>
   <path d="m295.1 410.5 34.3-26.7 24 48"/>
   <path d="m284 337.1-42.5 71.3c-9 15.2 5 26.1 21.5 22.2 2.8-.7 9.4-2.3 14-6l18.1-14.2"/>
   <path d="m464.9 409 71.8-73.1"/>
  </g>
 </g>
</svg>
