<svg height="210mm" viewBox="0 0 1052.4 744.1" width="297mm" xmlns="http://www.w3.org/2000/svg">
 <g fill="none" stroke-linecap="round">
  <g transform="translate(0 -515.857)">
   <path d="m57.6 742.2h948.8" stroke="#969696" stroke-width="1.875"/>
   <g stroke="#000" stroke-dasharray="3.75 7.5" stroke-miterlimit="2" stroke-width=".9375">
    <path d="m58.3 844.1h948.8"/>
    <path d="m58.3 641.8h948.8"/>
    <path d="m58.3 540.6h948.8"/>
   </g>
  </g>
  <g transform="translate(0 -111.66264)">
   <path d="m57.6 742.2h948.8" stroke="#969696" stroke-width="1.875"/>
   <g stroke="#000" stroke-dasharray="3.75 7.5" stroke-miterlimit="2" stroke-width=".9375">
    <path d="m58.3 844.1h948.8"/>
    <path d="m58.3 641.8h948.8"/>
    <path d="m58.3 540.6h948.8"/>
   </g>
  </g>
  <g stroke="#000">
   <g stroke-width="5.625">
    <path d="m275.8 71.9 22.8 50.6" stroke-linejoin="round"/>
    <path d="m602 72.4 22.8 50.6" stroke-linejoin="round"/>
    <path d="m125.9 182.6-53.9 41"/>
   </g>
   <g stroke-linejoin="round">
    <path d="m726.9 142.6c7.6-7.2 15.8-13.4 27.4-14.8 7.2-.8 13.5 1.8 16.1 7.3 5.5 11.8-5.5 22.9-21.8 40.6s-27.2 28.8-21.7 40.6c2.6 5.5 8.8 7.4 16.1 7.3 14.6-.3 27.5-7.1 80.1-47.3l22.1 47.1" stroke-width="5.624999"/>
    <path d="m845.2 223.4 58.7-48.4" stroke-width="5.624999"/>
    <path d="m903.9 175 23.2 48.1" stroke-width="5.625"/>
    <path d="m927.1 223.1 39.9-48.4" stroke-width="5.624999"/>
    <path d="m367.2 532.7-45.7 94.9" stroke-width="5.625"/>
    <path d="m107.6 532.7c-13.6 26.2-26.4 50.7-33.4 64-8.4 18.4 1.8 31.1 17.2 31.3 4.5.1 8.8-.7 15.5-2.4 44.3-11.7 172.5-61.2 172.5-61.2l87.7-31.6" stroke-width="5.624999"/>
    <path d="m384.6 579.3-63 48.2" stroke-width="5.625"/>
    <path d="m497.2 580.6 18.9 47.6 118.4-96" stroke-width="5.625"/>
    <path d="m634.5 532.3-46.6 95.4" stroke-width="5.624998"/>
    <path d="m588 627.7 119.5-95.4" stroke-width="5.624999"/>
    <path d="m707.5 532.3-46.6 95.4" stroke-width="5.624998"/>
    <path d="m733 582.8-72.1 44.9" stroke-width="5.624998"/>
    <path d="m362.3 176.3 18.9 47.6 118.4-96" stroke-width="5.625"/>
    <path d="m499.6 128-46.6 95.4" stroke-width="5.624998"/>
    <path d="m453.1 223.4 95-44.2" stroke-width="5.624999"/>
    <path d="m548.1 179.2 21.3 44.2" stroke-width="5.624999"/>
    <g stroke-width="8.900768" transform="matrix(.72846687 .68508103 -.68508103 .72846687 0 0)">
     <ellipse cx="224.52266" cy="-51.186581" rx="3.366329" ry="5.01209"/>
     <ellipse cx="1035.281" cy="-119.47272" rx="3.366329" ry="5.01209"/>
    </g>
   </g>
  </g>
 </g>
</svg>
