<svg height="210mm" viewBox="0 0 1052.4 744.1" width="297mm" xmlns="http://www.w3.org/2000/svg">
 <g fill="none" stroke-linecap="round">
  <g transform="translate(0 -308.26772)">
   <path d="m57.6 742.2h948.8" stroke="#969696" stroke-width="1.875"/>
   <g stroke="#000" stroke-dasharray="3.75 7.5" stroke-miterlimit="2" stroke-width=".9375">
    <path d="m58.3 844.1h948.8"/>
    <path d="m58.3 641.8h948.8"/>
    <path d="m58.3 540.6h948.8"/>
   </g>
  </g>
  <g stroke="#000">
   <g stroke-linejoin="round">
    <ellipse cx="907.0257" cy="-276.16968" rx="4.609393" ry="6.862875" stroke-width="5.625" transform="matrix(.72846687 .68508103 -.68508103 .72846687 0 0)"/>
    <path d="m957.1 359.4-38.4 71.8" stroke-width="5.624999"/>
    <path d="m941.8 391.1-19.4 39.7" stroke-width="3.749999"/>
    <path d="m918.7 431.2 7.9.2" stroke-width="5.624999"/>
   </g>
   <path d="m951.5 337.1c11.2-.7 10.4 11.9 2 27" stroke-width="3.749999"/>
   <path d="m850 425.9c9 3 29.1-26.7 45.8-47.1 18.2-22.2 34.1-40.8 52.3-42.7 2.4-.2 3.3-.1 5.1.1 7 .3 9.9 7 9.7 12-.3 6.8-3.7 16.8-10.6 30.8l-25.6 52.3" stroke-linejoin="round" stroke-width="5.624999"/>
   <path d="m940.9 338.8c8.1-2.6 14.8-1.4 17 3.3 3.6 7.7-5.8 23.5-11 34.6" stroke-width="3.75"/>
   <g stroke-linejoin="round" stroke-width="5.625">
    <path d="m677 489.1c-4.1 5.3-6.6 12-7.5 17.1-1.2 7.3.5 13.6 2.5 16.5 1.4 2.1 3.5 5.2 7.5 7.4 2.9 1.7 7.3 2.9 10.8 3 4.1.2 9.4-1.1 14.4-4.5 3.4-2.4 7.7-6.9 10.8-10.3 16.9-20.6 92.4-128.3 117.6-156.8 15.8-18 28.8-24.4 36.9-24.8 13-.5 15.2 13.3 7.5 36.3-14.7 43-42.4 79.5-69.3 116.4-43.5 61-58.9 41.1-59.8 38.1-8.6-26.3 74.6-86.8 97.4-92.3"/>
    <path d="m685.5 396.2c3.7 10.5-2.8 24.6-14.3 31.3-11.6 6.8-23.9 3.7-27.6-6.8-2.3-6.7-.6-14.9 4-21.6 2.6-3.8 6.1-7.2 10.3-9.7 11.6-6.8 23.9-3.7 27.6 6.8z"/>
   </g>
  </g>
  <path d="m225.2 386.4c11.3.2 198.7-6.2 215.1-7.5 13.7-.6 21.9-1.5 31.2-.2 11.6 1.5 18.1 10.3 5.5 25.9-27.1 33.5-45.1 49.8-39.1 63.3 1.9 4.3 6.9 6.4 12.9 6.2" stroke="#040000" stroke-linejoin="round" stroke-width="5.569707"/>
  <g stroke="#000">
   <path d="m241.9 396.7c3.7 10.5-2.8 24.6-14.3 31.3-11.6 6.8-23.9 3.7-27.6-6.8s2.8-24.6 14.3-31.3c11.6-6.8 23.9-3.7 27.6 6.8z" stroke-linejoin="round" stroke-width="5.625"/>
   <path d="m477.3 381.1c.8-1.1 3.5 6.2.4 14.1-3.2 8.2-12.5 19.1-17.8 24.2-10.5 9.9-29.8 30.2-23.7 46.5" stroke-width="5.472634"/>
   <path d="m466.8 379.6c13.9.7 11 7.9 10.3 13.9" stroke-width="2.736317"/>
   <path d="m477.1 380c15.4 6.8 4.1 30.2-12.2 46.1-14 13.6-22.7 27.7-28.7 39.7" stroke-width="5.472634"/>
   <path d="m443.6 455.2c-3.4 4.9-7.1 14.7 2.5 16.9" stroke-width="2.736317"/>
   <path d="m433.7 460c-.1 5.5 3.9 14.3 10.9 14.6" stroke-width="2.736317"/>
   <g stroke-linejoin="round" stroke-width="5.625">
    <path d="m451 474c25.7-1.1 64.8-31.8 85.4-32 16.8-.7 25.2 33.1 40 32.6 12.1-.4 22.7-12.4 31.8-23.5 6.3-7.6 28.1-36.5 39.4-52.1"/>
    <path d="m116.8 389.7c-7.7 26.6 4.7 43 25.5 41 20.8-1.9 44.9-18.7 69.5-39.2"/>
   </g>
  </g>
 </g>
</svg>
