<svg height="210mm" viewBox="0 0 1052.4 744.1" width="297mm" xmlns="http://www.w3.org/2000/svg">
 <g fill="none" stroke-linecap="round">
  <g transform="translate(0 -308.26772)">
   <path d="m57.6 742.2h948.8" stroke="#969696" stroke-width="1.875"/>
   <g stroke="#000" stroke-dasharray="3.75 7.5" stroke-miterlimit="2" stroke-width=".9375">
    <path d="m58.3 844.1h948.8"/>
    <path d="m58.3 641.8h948.8"/>
    <path d="m58.3 540.6h948.8"/>
   </g>
  </g>
  <g stroke="#000">
   <g stroke-linejoin="round">
    <path d="m499.9 434.9c-37 11.9-113.9 84-94 97.1 7.2 3.5 24 1.6 55.4-42.4 26.9-36.9 55.6-74.7 69.3-112.7 8.7-23.7 9.3-44.3-10.4-39.9-23.5 7.7-39.2 35.1-53.2 53.4-19.8 25.9-40.6 38.1-56.6 40.4-22.4 3.3-36.2-13.1-28.1-40.7" stroke-width="5.625"/>
    <path d="m627.3 359.3-45.9 71.8" stroke-width="5.625"/>
    <path d="m610.1 391-25 39.7" stroke-width="3.75"/>
    <g stroke-width="5.625">
     <path d="m581.4 431.1 7.9.2"/>
     <path d="m500.7 424.9c24.7 4.1 77.1-94.9 120.3-89.4 1.7.3 3.2.7 4.6 1.3 9.1 3.9 11 14.7-4.2 40.7l-31.2 53.7"/>
    </g>
   </g>
   <path d="m625.8 337.9c6.1 2.8 6.9 11.6-1.9 25.1" stroke-width="3.75"/>
   <path d="m505.1 415.3c.6.1 1.1.2 1.5.4.1.1.3.2.4.2.7.6 1 1.6.6 3.1-.8 3.1-4.3 4.8-5.9 5.5-3.4 1.2-6-1.6-4-4.6 1.2-1.9 3.3-4 5.8-4.5.2 0 .3-.1.5-.1s.4-.1.6-.1c.5 0 1 .1 1.5.2" stroke-linejoin="round" stroke-width="5.625"/>
  </g>
 </g>
</svg>
