<svg height="210mm" viewBox="0 0 1052.4 744.1" width="297mm" xmlns="http://www.w3.org/2000/svg">
 <g fill="none" stroke-linecap="round">
  <g transform="translate(0 -308.26772)">
   <path d="m57.6 742.2h948.8" stroke="#969696" stroke-width="1.875"/>
   <g stroke="#000" stroke-dasharray="3.75 7.5" stroke-miterlimit="2" stroke-width=".9375">
    <path d="m58.3 844.1h948.8"/>
    <path d="m58.3 641.8h948.8"/>
    <path d="m58.3 540.6h948.8"/>
   </g>
  </g>
  <g stroke="#000">
   <path d="m487.1 412.4c-23.8 12.4-69.3 30.9-78.2 39.7-32 31.5-51.7 63.2-43.9 77.3 2.9 5.3 34.7 12.4 62.3-63.4 15.8-47.4 16.5-113.3 70.8-131.6" stroke-linejoin="round" stroke-width="5.625"/>
   <path d="m487.1 412.4c21.7-11.6 45.8-24.5 48.8-26.4 7.2-4.5 15.1-9 20.2-13.4 12.8-11.2 18.6-26.1 16.7-30.9-2.8-7.3-34.7-8.6-58.5 30.7-26.3 43.1-17.7 60.3-4.2 58.6 9.2-1.4 15.1-5.1 15.1-5.1 13.2-9.2 19.8-16.7 25.1-22.8 11.5-13.9 115-169 115-169" stroke-linejoin="round" stroke-width="5.625"/>
   <path d="m553 343c-30.3 19.2-39.8 50.5-52.2 79" stroke-width="4.6875"/>
   <path d="m545.9 343c-17.9 10.4-41.1 45.1-46.5 68.6" stroke-width="4.6875"/>
   <path d="m506.6 410.6c-4 10.7-6.4 18.8 3.6 20.4" stroke-width="2.8125"/>
   <path d="m567.4 339.8c-7.4-2.4-11 2.2-15.8 5.2" stroke-width="2.8125"/>
   <path d="m542.5 347.8c-28 20.5-28.9 42.2-43.4 69.6" stroke-width="4.6875"/>
   <g stroke-linejoin="round" stroke-width="5.625">
    <path d="m665.4 234.2 23 45.4"/>
    <path d="m810.5 183.1-55.8 97.2"/>
    <path d="m810.5 183.1h-10.6"/>
    <path d="m805 183.2-55.8 97.2"/>
    <path d="m754.7 280.4h-10.6"/>
    <path d="m688.4 279.6 111.5-96.4-55.8 97.2 11-.1"/>
    <ellipse cx="432.85327" cy="657.07892" rx="21.162561" ry="16.756142" transform="matrix(.79083574 -.61202846 .61202846 .79083574 0 0)"/>
    <ellipse cx="96.289925" cy="465.02554" rx="25.728558" ry="20.371416" transform="matrix(.79083574 -.61202846 .61202846 .79083574 0 0)"/>
    <path d="m352.9 289.6-82.6 41.6"/>
   </g>
  </g>
 </g>
</svg>
