<svg height="210mm" viewBox="0 0 1052.4 744.1" width="297mm" xmlns="http://www.w3.org/2000/svg">
 <g fill="none" stroke-linecap="round">
  <g transform="translate(0 -308.26772)">
   <path d="m57.6 742.2h948.8" stroke="#969696" stroke-width="1.875"/>
   <g stroke="#000" stroke-dasharray="3.75 7.5" stroke-miterlimit="2" stroke-width=".9375">
    <path d="m58.3 844.1h948.8"/>
    <path d="m58.3 641.8h948.8"/>
    <path d="m58.3 540.6h948.8"/>
   </g>
  </g>
  <g stroke="#000">
   <g stroke-linejoin="round">
    <path d="m262 359.3c24.3-33 69.8-34.2 37.2 20l-31.5 52.1 55.3-54.8" stroke-width="5.625"/>
    <path d="m372.8 336.2-47.8 86.7" stroke-width="6.5625"/>
    <path d="m323 376.6 40.5-40.8-39 72.4c-6.2 11.5-.4 20.3 9.7 22.5 3.5.8 27.5 2.4 32.2-1.4" stroke-width="5.625"/>
    <path d="m368.1 336.2-44.7 81.9" stroke-width="6.5625"/>
   </g>
   <path d="m329.9 416.7c-1.6 4.1-2.6 6.5.8 11.8" stroke-width="3.75"/>
   <g stroke-linejoin="round">
    <path d="m372.8 336.2-9.3-.4" stroke-width="6.5625"/>
    <g stroke-width="5.625">
     <path d="m371.8 413.5c1 .1 1.9.3 2.6.7.2.1.5.3.7.4 1.3 1 1.8 2.7 1 5.4-1.4 5.3-7.4 8.4-10.3 9.4-5.9 2.1-10.3-2.7-6.9-8 2.1-3.3 5.8-6.9 10.1-7.8.3-.1.6-.1.9-.1.4 0 .7-.1 1.1-.1.8 0 1.7.1 2.5.3"/>
     <path d="m517 410.1 34.3-26.7 24 48"/>
     <path d="m506 336.7-42.5 71.3c-9 15.2 5 26.1 21.5 22.2 2.8-.7 9.4-2.3 14-6l18.1-14.2"/>
     <path d="m575.3 431.3 30-40.8"/>
     <path d="m605.3 390.6c21.6-28.9 36.1-52.4 56.9-56.8 10.7-2.7 14.3.7 18.7 3.2 7.6 4.3 8 17.2-6 41.5l-29.8 52.1"/>
     <ellipse cx="77.24662" cy="576.66443" rx="25.728558" ry="20.371416" transform="matrix(.79083574 -.61202846 .61202846 .79083574 0 0)"/>
     <path d="m738.8 383.3-94.3 48.4"/>
     <path d="m738.8 383.3 24 48"/>
     <path d="m506 336.7-75 84.4"/>
     <path d="m415.3 430.3c-8.7 2.4-47.7 2.3-54.8-1"/>
    </g>
   </g>
  </g>
 </g>
</svg>
