<svg height="210mm" viewBox="0 0 1052.4 744.1" width="297mm" xmlns="http://www.w3.org/2000/svg">
 <g fill="none" stroke-linecap="round">
  <g transform="translate(0 -308.26772)">
   <path d="m57.6 742.2h948.8" stroke="#969696" stroke-width="1.875"/>
   <g stroke="#000" stroke-dasharray="3.75 7.5" stroke-miterlimit="2" stroke-width=".9375">
    <path d="m58.3 844.1h948.8"/>
    <path d="m58.3 641.8h948.8"/>
    <path d="m58.3 540.6h948.8"/>
   </g>
  </g>
  <g stroke="#000" stroke-linejoin="round">
   <path d="m793.2 380.4c25-11.8 60.2-31.5 77.8-32.4 16.8-.7 22.7 32.6 34.2 32.2 7.5-.2 13.1-6.2 18.3-10.8" stroke-width="5.624999"/>
   <path d="m814.8 285.2c2.4-.2 3.3-.1 5.1.1 7 .3 9.9 7 9.7 12-.3 6.8-3.7 16.8-10.6 30.8l-25.6 52.3" stroke-width="5.624999"/>
   <path d="m553.6 379.9c5.9-.4 10.2-1.6 19.7-5 45.2-16.1 200.3-76.8 217.8-83.2 14.6-5.4 18.9-6 23.6-6.5" stroke-width="5.625"/>
   <path d="m569.8 284.9s-29.9 59.2-34.5 70.3c-6.6 16.3 3.5 25.3 18.3 24.7" stroke-width="5.624999"/>
   <g stroke-width="5.625">
    <path d="m158.2 431.3 193.4-45.3"/>
    <path d="m137.7 384.9 20.5 46.3"/>
    <path d="m370.3 396.1a19.2 25.1 41.6 0 1 -14.3 31.3 19.2 25.1 41.6 0 1 -27.6-6.8 19.2 25.1 41.6 0 1 14.3-31.3 19.2 25.1 41.6 0 1 27.6 6.8z"/>
    <path d="m346.6 387.4c16.6-7.6 76.3-37.5 93.1-38.4 16-.6 17.9 31.1 36.3 30.7 17.9-.4 34.4-21.3 93.7-94.8"/>
   </g>
  </g>
 </g>
</svg>
