<svg height="210mm" viewBox="0 0 1052.4 744.1" width="297mm" xmlns="http://www.w3.org/2000/svg">
 <g fill="none" stroke-linecap="round">
  <g transform="translate(0 -308.26772)">
   <path d="m57.6 742.2h948.8" stroke="#969696" stroke-width="1.875"/>
   <g stroke="#000" stroke-dasharray="3.75 7.5" stroke-miterlimit="2" stroke-width=".9375">
    <path d="m58.3 844.1h948.8"/>
    <path d="m58.3 641.8h948.8"/>
    <path d="m58.3 540.6h948.8"/>
   </g>
  </g>
  <g stroke="#000" stroke-linejoin="round" stroke-width="5.625">
   <path d="m507.9 349.9s136.2-73.2 157.6-75.1c21-5.4 34.8 2.4 12.3 40.5l-36 60.8"/>
   <path d="m507.9 349.9s-159.8 82.4-164.3 85.3c-37.2 25.1-66.5 82.3-58.6 96.4 2.9 5.3 34.7 12.4 62.3-63.4 15.7-47.2 25.8-112.5 71.5-132.1"/>
   <path d="m641.7 376.1c15.1-5.7 57.8-30.6 82-31.7 17.2.9 16.7 32.7 33.2 32.3 10.8-.3 16.2-11.6 19.9-16.5"/>
  </g>
 </g>
</svg>
