<svg height="210mm" viewBox="0 0 1052.4 744.1" width="297mm" xmlns="http://www.w3.org/2000/svg">
 <g fill="none" stroke-linecap="round">
  <g transform="translate(0 -308.26772)">
   <path d="m57.6 742.2h948.8" stroke="#969696" stroke-width="1.875"/>
   <g stroke="#000" stroke-dasharray="3.75 7.5" stroke-miterlimit="2" stroke-width=".9375">
    <path d="m58.3 844.1h948.8"/>
    <path d="m58.3 641.8h948.8"/>
    <path d="m58.3 540.6h948.8"/>
   </g>
  </g>
  <g stroke="#010000" stroke-linejoin="round" stroke-width="5.625">
   <path d="m437.2 412c1 .1 1.8.3 2.5.7.2.1.4.2.6.4 1.2.9 1.7 2.6 1 5.2-1.3 5.1-7.1 8-9.8 9-5.7 2-9.8-2.6-6.6-7.6 2-3.1 5.5-6.6 9.7-7.5.3-.1.6-.1.9-.1s.7-.1 1-.1c.8 0 1.6.1 2.4.3"/>
   <path d="m435 425.4c-6.7 5.5-42.4 6.5-60.1 6.3-17.7-.1-27.3-27.2-43.5-28.2-4.5-.2-12.4 1.2-19 7.9-38.1 38.7-85.5 105.4-74.3 115.7 2.3 2.1 16.3 22.9 59.8-38.1 26.9-36.9 48.9-73 71.6-116.6 17.8-33.1-3.7-56.5-46.7-11.3"/>
   <path d="m407.8 415.3c1 .1 1.8.3 2.5.7.2.1.4.2.6.4 1.2.9 1.7 2.6 1 5.2-1.3 5.1-7.1 8-9.8 9-5.7 2-9.8-2.6-6.6-7.6 2-3.1 5.5-6.6 9.7-7.5.3-.1.6-.1.9-.1s.7-.1 1-.1c.8 0 1.6.1 2.4.3"/>
   <path d="m435 425.4c8.5-1.2 38.3-39 38.3-39"/>
   <path d="m473.3 386.3 30.5-46.9"/>
   <path d="m503.8 339.4c21.6-28.9 36.1-52.4 56.9-56.8 10.7-2.7 14.3.7 18.7 3.2 7.6 4.3 8 17.2-6 41.5l-29.8 52.1"/>
   <path d="m543.6 379.4 156.8-90.6 184.9-106.8"/>
  </g>
 </g>
</svg>
