<svg height="210mm" viewBox="0 0 1052.4 744.1" width="297mm" xmlns="http://www.w3.org/2000/svg">
 <g fill="none" stroke-linecap="round">
  <g transform="translate(0 -308.26772)">
   <path d="m57.6 742.2h948.8" stroke="#969696" stroke-width="1.875"/>
   <g stroke="#000" stroke-dasharray="3.75 7.5" stroke-miterlimit="2" stroke-width=".9375">
    <path d="m58.3 844.1h948.8"/>
    <path d="m58.3 641.8h948.8"/>
    <path d="m58.3 540.6h948.8"/>
   </g>
  </g>
  <g stroke-linejoin="round" stroke-width="5.625">
   <g stroke="#010400">
    <path d="m310.3 431.1s259.6-92.1 271.5-94.4"/>
    <path d="m581.8 336.7c18.7-4.6 33.9 2 17.9 23.1-26.3 34.7-43.8 49.6-39.4 63.9 4.2 13.9 22.3 7.9 36.5-3.7l8-6.5"/>
    <path d="m689.6 334.9-55.8 97.2"/>
    <path d="m689.6 334.9h-10.6"/>
    <path d="m684 334.9-55.8 97.2"/>
    <path d="m633.8 432.1h-10.6"/>
    <path d="m604.7 413.5 74.3-78.6-55.8 97.2 11-.1"/>
    <path d="m367 336.2-56.7 94.9"/>
   </g>
   <path d="m634.2 432 65.8-26.7" stroke="#000"/>
  </g>
 </g>
</svg>
