<svg height="210mm" viewBox="0 0 1052.4 744.1" width="297mm" xmlns="http://www.w3.org/2000/svg">
 <g fill="none" stroke-linecap="round">
  <g transform="translate(0 -308.26772)">
   <path d="m57.6 742.2h948.8" stroke="#969696" stroke-width="1.875"/>
   <g stroke="#000" stroke-dasharray="3.75 7.5" stroke-miterlimit="2" stroke-width=".9375">
    <path d="m58.3 844.1h948.8"/>
    <path d="m58.3 641.8h948.8"/>
    <path d="m58.3 540.6h948.8"/>
   </g>
  </g>
  <g stroke="#000" stroke-linejoin="round" stroke-width="5.625">
   <path d="m489.6 358c21.6-28.9 48.7-65.7 69.5-70.1 19.8-3.7 26.2 9.1 22.2 23.4l-26.2 71.5"/>
   <path d="m317.8 431.4 59.4-108.3c26.4-48.6 52-72.9 91.2-88.5"/>
   <path d="m317.8 431.4s99-42.6 104.8-46.2c13.5-8.2 42.9-27 37.5-45-2.8-7.4-35.2-8.8-59.4 31.2-26.7 43.7-17.9 61.3-4.3 59.5 23.3-2.9 56.7-28 93.2-72.8"/>
   <path d="m555.2 382.9s98.6-149.3 101.4-153c9-12.3 17.4-24.1 33.1-24.6 12.2-.4 16.3 25.1 31.9 24.2 8.7-.5 14.1-5.1 21.4-14.5"/>
  </g>
 </g>
</svg>
