<svg height="210mm" viewBox="0 0 1240.2 744.1" width="350mm" xmlns="http://www.w3.org/2000/svg">
 <g fill="none" stroke-linecap="round">
  <g transform="translate(0 -308.26772)">
   <path d="m36.1 742.2h1161.8" stroke="#969696" stroke-width="1.875"/>
   <g stroke="#000" stroke-dasharray="3.75 7.5" stroke-miterlimit="2" stroke-width=".9375">
    <path d="m36.9 844.1h1161.8"/>
    <path d="m36.9 641.8h1161.8"/>
    <path d="m36.9 540.6h1161.8"/>
   </g>
  </g>
  <g stroke="#000">
   <g stroke-linejoin="round" stroke-width="5.625">
    <path d="m418.8 382.8 31.3 48.7 43.7-48.2"/>
    <path d="m418.8 382.8 23.8 48.8"/>
    <path d="m426.4 382.8 23.7 48.7"/>
    <path d="m422.5 382.7 23.8 48.8"/>
   </g>
   <g stroke-width="3.75">
    <path d="m419.2 381.8h7.1"/>
    <path d="m442.5 432.5h7.1"/>
   </g>
  </g>
  <g stroke-linejoin="round">
   <g stroke-width="5.625">
    <g stroke="#000">
     <path d="m493.5 383.7 46.5-47.8-39 72.4c-8.4 15.5 3.5 25.6 20 21.7 2.8-.7 11.2-4.9 16.2-8.1l22.1-14.3"/>
     <path d="m559.3 407.6 277.5-173"/>
     <path d="m314.5 391.2c-8.5 29.2 8.5 45.4 35.5 39.3 16.9-3.9 50.5-25.8 68.8-47.7"/>
     <path d="m76.7 385.4c40.9 3.1 61.2-36.7 58-45.3-2.8-7.4-30-4.4-54.4 35.9-26.2 42.9-23.7 56.6-10.9 55.6 18.8-1.4 37.8-20.2 52.7-34.3"/>
     <path d="m194.4 334-55.8 97.2"/>
     <path d="m194.4 334h-10.6"/>
     <path d="m188.8 334-55.8 97.2"/>
     <path d="m138.6 431.3h-10.6"/>
     <path d="m122 397.3c17.2-16.6 44.5-46.6 61.7-63.2l-55.8 97.2 11-.1"/>
     <path d="m139.6 431.2s78.6-30 90.1-30c20.2 0 12.7 30.1 35.6 30.3 16.8.2 42.8-32.7 49.1-40.2"/>
    </g>
    <path d="m913.5 342.6s28.3-20.4 41.8-28.2c13.2-7.6 28.3-14.7 36.9-13.1 11.2 2.1 14.6 20.9 23.7 27.1 4.9 3.4 13 3.1 21.8.9" stroke="#040000"/>
    <g stroke="#000">
     <path d="m973.8 305.1c6.1-2.8 18.6-2 26.5 15.3 5.6 12.2 15 10.8 23.9 10.6"/>
     <path d="m988.4 303.5c6.7 5.9 6.3.5 21.2 23.1"/>
     <path d="m1162.6 259.3-45.1 71"/>
    </g>
   </g>
   <g stroke="#000">
    <path d="m1145.4 291-24.2 38.9" stroke-width="3.75"/>
    <g stroke-width="5.625">
     <path d="m1117.5 330.2 7.9.2"/>
     <path d="m1037.6 329.4c9.3 2.9 15.5.4 24.1-7 27-23.4 63.4-90.4 94.7-87 1.7.3 3.2.7 4.6 1.3 9.1 3.9 10.9 14.6-4.2 40.7l-30.4 52.8"/>
    </g>
   </g>
  </g>
  <g stroke="#000">
   <path d="m1161.1 237.9c6.1 2.8 6.9 11.6-1.9 25.1" stroke-width="3.75"/>
   <g stroke-linejoin="round" stroke-width="5.625">
    <ellipse cx="978.31586" cy="-476.37317" rx="4.609393" ry="6.862874" transform="matrix(.72846687 .68508103 -.68508103 .72846687 0 0)"/>
    <path d="m846.3 378.5c14.8-7.7 32.2-16.2 28.9-34.4-.9-14.2-55-41.3-61.8-64.1-3.5-11.7 8.2-28.9 23.4-45.3"/>
    <ellipse cx="513.54828" cy="850.97217" rx="25.728558" ry="20.371416" transform="matrix(.79083574 -.61202846 .61202846 .79083574 0 0)"/>
    <path d="m846.3 378.5c-24.8-.9 73.8-39.8 73.8-39.8"/>
    <path d="m1126.4 330.4 58.9-39.5"/>
   </g>
  </g>
 </g>
</svg>
