<svg height="210mm" viewBox="0 0 1052.4 744.1" width="297mm" xmlns="http://www.w3.org/2000/svg">
 <g stroke-linecap="round">
  <g fill="none" transform="translate(0 -308.26772)">
   <path d="m57.6 742.2h948.8" stroke="#969696" stroke-width="1.875"/>
   <g stroke="#000" stroke-dasharray="3.75 7.5" stroke-miterlimit="2" stroke-width=".9375">
    <path d="m58.3 844.1h948.8"/>
    <path d="m58.3 641.8h948.8"/>
    <path d="m58.3 540.6h948.8"/>
   </g>
  </g>
  <g stroke="#000" stroke-linejoin="round">
   <g stroke-width="5.625">
    <g fill="none">
     <ellipse cx="437.082" cy="671.37756" rx="62.130169" ry="44.633743" transform="matrix(.88109295 -.47294313 .47294313 .88109295 0 0)"/>
     <path d="m616.5 396.7 50.2-41.3"/>
     <path d="m551.4 347.7c23.7-19.2 60.9-14.6 37.5 14.4-27.4 33.8-45.5 50.2-39.4 63.9 4.2 9.5 23.3 7.4 36.5-3.7l30.6-25.6"/>
    </g>
    <path d="m656.3 365.3 90.2-128.9" fill="#d3bc5f" fill-rule="evenodd"/>
   </g>
   <g fill="none">
    <path d="m746.5 236.4c21.6-28.9 36.1-52.4 56.9-56.8 10.7-2.7 14.3.7 18.7 3.2 7.6 4.3 8 17.2-6 41.5l-29.8 52.1" stroke-width="5.625"/>
    <path d="m353 431.9c-9.3.6-53.6.1-62.3.1 3 .3 9.8-4.3 11.2-5.1 10.9-6.3 20.6-16.1 28.3-27.1 27.6-39.1 30.9-92.3-18.7-48.1" stroke-width="5.625"/>
    <path d="m358.2 420.1c.7.1 1.4.2 1.9.5.2.1.3.2.5.3.9.7 1.3 1.9.7 3.8-1 3.7-5.3 5.8-7.4 6.6-4.2 1.5-7.4-1.9-5-5.6 1.5-2.3 4.1-4.8 7.3-5.4.2 0 .4-.1.6-.1h.8c.6 0 1.2.1 1.8.2" stroke-width="5.71875"/>
    <g stroke-width="5.625">
     <path d="m311.5 351.8c-11.3 9.2-40.6 56.9-63.2 70.1-37.3 21.8-63.3 6-52.6-30.8"/>
     <path d="m360.1 427.3c3.3-2.4 94.7-153.8 94.7-153.8"/>
     <path d="m610.4 196.6c-18.3 21.6-45.3 72.2-70.3 72.9-18.9-.5-23.9-34.5-40.9-33.9-19.4.9-32.1 19.5-44.4 37.9"/>
     <ellipse cx="368.88342" cy="548.7561" rx="25.728558" ry="20.371416" transform="matrix(.79083574 -.61202846 .61202846 .79083574 0 0)"/>
    </g>
   </g>
  </g>
 </g>
</svg>
