<svg height="210mm" viewBox="0 0 1052.4 744.1" width="297mm" xmlns="http://www.w3.org/2000/svg">
 <g fill="none" stroke-linecap="round">
  <g transform="translate(0 -308.26772)">
   <path d="m57.6 742.2h948.8" stroke="#969696" stroke-width="1.875"/>
   <g stroke="#000" stroke-dasharray="3.75 7.5" stroke-miterlimit="2" stroke-width=".9375">
    <path d="m58.3 844.1h948.8"/>
    <path d="m58.3 641.8h948.8"/>
    <path d="m58.3 540.6h948.8"/>
   </g>
  </g>
  <g stroke-linejoin="round">
   <g stroke="#000" stroke-width="5.625">
    <path d="m555.3 433.1c-17.7 8.6-37.3 19.8-51.9 34.5-25.9 26.2-39.9 52.6-36.9 60.3 1.1 2.9 17.7 21.8 57.3-41.8l88-150.7"/>
    <path d="m555.3 433.1c31.6-12.4 86.6-32.1 103.4-32.9 16-.6 21.6 31 32.6 30.7 7.2-.2 12.4-7.6 16.7-13"/>
    <path d="m540.3 397.5 71.6-62.1"/>
    <path d="m533.8 336.2c-40.3 12.4-78.8 79.1-60.6 92.3 2.2 1.9 6.9 3 13.8 2.2 10.9-1.2 33.2-14.5 53.3-33.3"/>
    <path d="m458.5 385c19.7-16.2 56.7-43.1 75.3-48.8"/>
    <path d="m429.2 410.2 29.3-25.2"/>
   </g>
   <g stroke="#010000">
    <path d="m423.9 336.1-47.8 86.7" stroke-width="6.5625"/>
    <path d="m320.2 430.9 94.4-95.2-39 72.4c-8.4 15.5 5 26.1 21.5 22.2 2.8-.6 9-2.8 14-6 7.4-4.7 18.1-14.2 18.1-14.2" stroke-width="5.625"/>
    <path d="m419.3 336.1-44.7 81.9" stroke-width="6.5625"/>
   </g>
  </g>
  <g stroke="#010000">
   <path d="m381.1 416.6c-1.6 4.1-2.6 6.5.8 11.9" stroke-width="3.75"/>
   <path d="m423.9 336.1-9.3-.4" stroke-linejoin="round" stroke-width="6.5625"/>
  </g>
 </g>
</svg>
