<svg height="210mm" viewBox="0 0 1052.4 744.1" width="297mm" xmlns="http://www.w3.org/2000/svg">
 <g fill="none" stroke-linecap="round">
  <g transform="translate(0 -308.26772)">
   <path d="m57.6 742.2h948.8" stroke="#969696" stroke-width="1.875"/>
   <g stroke="#000" stroke-dasharray="3.75 7.5" stroke-miterlimit="2" stroke-width=".9375">
    <path d="m58.3 844.1h948.8"/>
    <path d="m58.3 641.8h948.8"/>
    <path d="m58.3 540.6h948.8"/>
   </g>
  </g>
  <g stroke="#000" stroke-linejoin="round" stroke-width="5.625">
   <path d="m319.7 411 30.5-26.9 29.6 47.9"/>
   <path d="m264.7 352.9c19.6-25.9 70.3-22.6 44.6 9-27.4 33.9-47.2 52.6-39.4 63.9 9 13.2 33 .5 49.7-14.9"/>
   <path d="m379.7 431.9 54.9-47.9 29.2 47.3 45.5-45.7"/>
   <path d="m583.4 347.6c23.7-19.2 60.9-14.6 37.5 14.4-27.4 33.8-45.5 50.2-39.4 63.9 1.9 4.4 6.7 5.9 12.7 5.3"/>
   <path d="m733.1 413.2 28.6-27.8 21.4 46.2"/>
   <path d="m594.1 431.2c18.7-1.5 58-29.5 74.8-30.3 16-.6 15.2 30.5 32.6 30.7 12 .1 22.6-10.4 31.6-18.4"/>
  </g>
 </g>
</svg>
