<svg height="210mm" viewBox="0 0 1052.4 744.1" width="297mm" xmlns="http://www.w3.org/2000/svg">
 <g fill="none" stroke-linecap="round">
  <g transform="translate(0 -308.26772)">
   <path d="m57.6 742.2h948.8" stroke="#969696" stroke-width="1.875"/>
   <g stroke="#000" stroke-dasharray="3.75 7.5" stroke-miterlimit="2" stroke-width=".9375">
    <path d="m58.3 844.1h948.8"/>
    <path d="m58.3 641.8h948.8"/>
    <path d="m58.3 540.6h948.8"/>
   </g>
  </g>
  <g stroke="#000" stroke-linejoin="round" stroke-width="5.625">
   <path d="m360.5 431.7c11.2-27.4-9.2-38.1-20.9-44.2-32.6-16.9-29.7-38.2-22.8-51.3"/>
   <path d="m307.9 430.5c43.5-37.3 84.3-48.4 104.6-46.2 18.9 2 29.4 18.4 20.5 46.8"/>
   <path d="m646.5 336.5s-3.1 1.2 3.3-1.1c16.3-5.7 36.1 3.9 18.7 25.5-27.4 33.8-45.7 41.5-40.4 59.2 1.5 5 4.7 11.8 19.1 11"/>
   <path d="m433 431.1 213.5-94.6"/>
   <path d="m647.2 431.1c18.8.2 67.7-34.2 86.8-35.2 18.3-.7 18.7 36.1 37.2 35.1 8.2-.5 14.2-5.4 21-11"/>
  </g>
 </g>
</svg>
