<svg height="210mm" viewBox="0 0 1052.4 744.1" width="297mm" xmlns="http://www.w3.org/2000/svg">
 <g fill="none" stroke-linecap="round">
  <g transform="translate(0 -308.26772)">
   <path d="m57.6 742.2h948.8" stroke="#969696" stroke-width="1.875"/>
   <g stroke="#000" stroke-dasharray="3.75 7.5" stroke-miterlimit="2" stroke-width=".9375">
    <path d="m58.3 844.1h948.8"/>
    <path d="m58.3 641.8h948.8"/>
    <path d="m58.3 540.6h948.8"/>
   </g>
  </g>
  <g stroke-linejoin="round" stroke-width="5.625">
   <g stroke="#000">
    <path d="m450.5 431.4c33.5-12.2 57.6-61 56-83.5-.5-6.9-3.5-11.6-9.3-11.4-38.1 1.2-79 92.6-113.6 94.5"/>
    <path d="m450.5 431.4c-16 5.5 41.5-42.6 63.2-59.9 20.8-16.7 41.4-34.5 66.6-35.1 20.3-.5 32.2 15.6 41.1 34.3 7.7 16.9 14.5 36 22.5 47.4 6.5 9.2 15.1 13.2 23.7 13.1"/>
    <path d="m667.7 431.3c23-.8 63.3-30.8 82.1-32.8 18.2-.7 20.7 32.8 36 33.3 8.2.3 12.7-4.8 17.8-9"/>
    <path d="m272.7 431.4s63.3-32.4 80.6-29.2c13.5 2.5 15.4 29.1 30.2 28.9"/>
   </g>
   <g stroke="#0b0000">
    <path d="m332.3 405.8c13.3-4.5 20.4-2.4 29.3 15.5 6 12 14.1 9.8 22 9.8"/>
    <path d="m349.6 404.3c6.7 5.9 6.3.5 21.2 23.1"/>
   </g>
  </g>
 </g>
</svg>
