<svg height="210mm" viewBox="0 0 1052.4 744.1" width="297mm" xmlns="http://www.w3.org/2000/svg">
 <g fill="none" stroke-linecap="round">
  <g transform="translate(0 -308.26772)">
   <path d="m57.6 742.2h948.8" stroke="#969696" stroke-width="1.875"/>
   <g stroke="#000" stroke-dasharray="3.75 7.5" stroke-miterlimit="2" stroke-width=".9375">
    <path d="m58.3 844.1h948.8"/>
    <path d="m58.3 641.8h948.8"/>
    <path d="m58.3 540.6h948.8"/>
   </g>
  </g>
  <g stroke="#000">
   <path d="m389.2 234.2-113.1 196.6" stroke-width="5.625"/>
   <g stroke-linejoin="round">
    <path d="m276.1 430.8s287.6-98.7 307.8-95c15.7 2.9 18.3 33.9 35 34.1" stroke-width="5.624999"/>
    <path d="m561.2 339.8c10.8-3.3 22-1.5 31.2 18.7 6.6 14.3 16.6 11 26.2 11.4" stroke-width="5.624999"/>
    <path d="m578.4 338.7c7.8 4.9 8.8 2 26.1 28.6" stroke-width="6.587558"/>
    <path d="m618.9 369.9c17.2.6 54.7-34 74.3-33.4 19.4.6 14.9 32.4 33.1 32.9 8.2.2 13.4-4.4 20.3-9.5" stroke-width="5.625"/>
   </g>
  </g>
 </g>
</svg>
