<svg height="210mm" viewBox="0 0 1052.4 744.1" width="297mm" xmlns="http://www.w3.org/2000/svg">
 <g fill="none" stroke-linecap="round">
  <g transform="translate(0 -308.26772)">
   <path d="m57.6 742.2h948.8" stroke="#969696" stroke-width="1.875"/>
   <g stroke="#000" stroke-dasharray="3.75 7.5" stroke-miterlimit="2" stroke-width=".9375">
    <path d="m58.3 844.1h948.8"/>
    <path d="m58.3 641.8h948.8"/>
    <path d="m58.3 540.6h948.8"/>
   </g>
  </g>
  <g stroke="#000">
   <g stroke-linejoin="round">
    <g stroke-width="5.625">
     <path d="m501 405.8c18.2-16.1 154.3-150.7 148-167.4-5.5-14.4-40.2 8.9-87.4 86.8-50.2 86.7-47 110.6-24.4 105.5 7.3-2.4 14.3-5.6 21.1-8.5"/>
     <path d="m558.2 422.2c18.3-8 67.5-34.5 71.6-37 7.2-4.5 15.1-9 20.2-13.4 12.8-11.2 18.6-26.1 16.7-30.9-2.8-7.3-34.7-8.6-58.5 30.7-26.3 43.1-18.8 59.4-2.7 59.3 5.3-.6 10.7-2.2 15.8-4.4"/>
     <path d="m621.4 426.3c7.7-4 17.6-11.5 17.6-11.5l38.1-29.6 21.7 45.9"/>
     <path d="m485.4 335.4c-18.3 14.6-125.9 103.8-154.1 132.7-29.7 36.7-31.6 52.4-26.4 61.8 2.9 5.3 34.7 12.4 62.3-63.3 15.8-47.4 16.5-113.3 70.8-131.6"/>
    </g>
    <path d="m494.7 335.8-47.8 86.7" stroke-width="6.5625"/>
    <path d="m485.4 335.4-39 72.4c-8.4 15.5 5 26.1 21.5 22.2 3.8-.8 15.7-8.3 33.1-24.2" stroke-width="5.625"/>
    <path d="m490 335.8-44.7 81.9" stroke-width="6.5625"/>
   </g>
   <path d="m451.8 416.3c-1.6 4.2-2.6 6.5.8 11.9" stroke-width="3.75"/>
   <path d="m494.7 335.8-9.3-.4" stroke-linejoin="round" stroke-width="6.5625"/>
  </g>
 </g>
</svg>
