<svg height="210mm" viewBox="0 0 1052.4 744.1" width="297mm" xmlns="http://www.w3.org/2000/svg">
 <g fill="none" stroke-linecap="round">
  <g transform="translate(0 -308.26772)">
   <path d="m57.6 742.2h948.8" stroke="#969696" stroke-width="1.875"/>
   <g stroke="#000" stroke-dasharray="3.75 7.5" stroke-miterlimit="2" stroke-width=".9375">
    <path d="m58.3 844.1h948.8"/>
    <path d="m58.3 641.8h948.8"/>
    <path d="m58.3 540.6h948.8"/>
   </g>
  </g>
  <g stroke="#000">
   <g stroke-linejoin="round" stroke-width="5.625">
    <path d="m407.1 383.4 33.3 47.9"/>
    <path d="m407.1 383.4 24 48"/>
    <path d="m416.5 383.4 23.8 47.9"/>
    <path d="m412.6 383.3 24 48"/>
   </g>
   <path d="m406.9 382.4 9.5-.1" stroke-width="3.75"/>
   <path d="m430.9 432.3h9" stroke-width="3.75"/>
   <g stroke-linejoin="round">
    <path d="m440.4 431.3c22.8-55 103-72.5 97.5.2" stroke-width="5.625"/>
    <path d="m313.7 355.2c7.9-7.4 17.1-17.5 31.2-19.2 3.2-.4 6.2-.1 8.8.9 2.7.9 4.9 2.5 6.4 4.6 3.6 5.1 3 13.2-5 22.8-6 7.3-11.8 13.6-17 19.3-5.3 5.7-11.2 12.1-17.3 19.5-8 9.7-8.6 17.8-5 22.8 1.5 2.1 3.7 3.7 6.4 4.6 2.6.9 5.6 1 8.8.8 19.4-.7 23.5-7.8 76-48" stroke-width="5.624999"/>
    <path d="m537.8 431.5c28.3-40.2 43.8-66.6 65.5-99.3 14.2-21.4 33-50.4 51.7-48.3 10.5 1.2 16.5 8.2 15.8 17-.4 3.7-1.6 8.3-3.7 13.7-9.9 21.8-33.1 64.9-33.1 64.9" stroke-width="5.625"/>
   </g>
   <path d="m706.8 336.1-72.8 43.3" stroke-width="5.625001"/>
  </g>
 </g>
</svg>
