<svg height="210mm" viewBox="0 0 1052.4 744.1" width="297mm" xmlns="http://www.w3.org/2000/svg">
 <g fill="none" stroke-linecap="round">
  <g transform="translate(0 -308.26772)">
   <path d="m57.6 742.2h948.8" stroke="#969696" stroke-width="1.875"/>
   <g stroke="#000" stroke-dasharray="3.75 7.5" stroke-miterlimit="2" stroke-width=".9375">
    <path d="m58.3 844.1h948.8"/>
    <path d="m58.3 641.8h948.8"/>
    <path d="m58.3 540.6h948.8"/>
   </g>
  </g>
  <g stroke="#000" stroke-linejoin="round" stroke-width="5.625">
   <path d="m495.7 431.5c40 3 59.7-35.8 56.6-44.3-5.4-14.5-29.3-4.3-53.1 35-27.5 45-20.3 54.2-6.7 53.4 33-4.3 55.2-22.8 80.3-44.6"/>
   <path d="m284.7 333.2c53.3-10.8 93.7-77.9 87.4-94.3-5.4-14.1-39.5 8.7-85.7 85.1l-60.4 107.6 269.7-.1"/>
   <path d="m751.6 382.2-163.7 45.2"/>
   <path d="m572.8 431.1c3.4-.4 15.1-3.7 15.1-3.7"/>
   <path d="m577.2 416.7c.9.1 1.7.3 2.4.6.2.1.4.2.6.4 1.2.9 1.6 2.4.9 4.9-1.3 4.8-6.7 7.5-9.2 8.5-5.3 1.9-9.3-2.5-6.2-7.2 1.9-3 5.2-6.2 9.1-7 .3-.1.5-.1.8-.1s.7-.1 1-.1c.8 0 1.5.1 2.3.3"/>
   <ellipse cx="344.13077" cy="780.91296" rx="28.309935" ry="22.415304" transform="matrix(.79083574 -.61202846 .61202846 .79083574 0 0)"/>
  </g>
 </g>
</svg>
