<svg height="210mm" viewBox="0 0 1052.4 744.1" width="297mm" xmlns="http://www.w3.org/2000/svg">
 <g fill="none" stroke-linecap="round">
  <g transform="translate(0 -308.26772)">
   <path d="m57.6 742.2h948.8" stroke="#969696" stroke-width="1.875"/>
   <g stroke="#000" stroke-dasharray="3.75 7.5" stroke-miterlimit="2" stroke-width=".9375">
    <path d="m58.3 844.1h948.8"/>
    <path d="m58.3 641.8h948.8"/>
    <path d="m58.3 540.6h948.8"/>
   </g>
  </g>
  <g stroke="#000">
   <g stroke-linejoin="round">
    <g stroke-width="5.625">
     <path d="m298.6 335.6c-36.7 11.9-77.9 92.6-53.1 95.5 6.7.8 19.4-2.6 35.8-17.4"/>
     <path d="m281.3 413.8c58.2-46.7 92.3-124.2 149.8-169.9 83-65-26.7 159.9-88.2 186.6-8.6 1.9-13.4-.4-15.6-4.5"/>
     <path d="m459.1 252.2-91.7 157.8"/>
    </g>
    <path d="m453.3 268.5-73 125.6" stroke-width="8.4375"/>
    <path d="m350.6 425.9c6.6-8.2 16.4-19 22.5-27.9" stroke-width="3.75"/>
    <g stroke-width="5.625">
     <path d="m442.3 296-40.2 67.9"/>
     <path d="m460.8 238.5c.7 14-5.4 18.6-14.3 37.1"/>
     <path d="m343 430.5c-16.3 3.7-19-7.9-15.9-18.2 31.4-20.3 77.5-24.9 111.9-31.2"/>
     <ellipse cx="96.555489" cy="588.22937" rx="28.852659" ry="22.845026" transform="matrix(.79083574 -.61202846 .61202846 .79083574 0 0)"/>
     <path d="m421.8 388.6c15-14.1 50-41.5 75.2-50.2 20.4-6.8 39.1.9 20.7 23.5-27.4 33.8-45.5 50.2-39.4 63.9 2.1 4.8 8 6.6 15 5.8 6.9-.8 11.2-3.5 21.5-9.5"/>
    </g>
   </g>
   <path d="m518.5 339.1c14.5 10.1 4.3 27.8-12.4 44.2-14.4 14-23.4 26.4-29.5 38.7" stroke-width="5.625"/>
   <path d="m518.5 339.1c.8-1.1 3.9 6.1.7 14.2-3.2 8.4-12.8 17.8-18.3 22.9-10.8 10.1-30.6 29-24.3 45.7" stroke-width="5.625"/>
   <g stroke-width="2.8125">
    <path d="m510 337.4c11.3 1.3 8.8 6.5 9.1 11"/>
    <path d="m481.7 414.7c-2.7 4.9-3.8 12 2.3 14.5"/>
    <path d="m474 416c-.1 5.7 2.9 11.5 4.9 13.1"/>
   </g>
  </g>
  <path d="m514.7 422.1 139.8-80.9 184.9-106.8" stroke="#000001" stroke-linejoin="round" stroke-width="5.625"/>
 </g>
</svg>
