<svg height="210mm" viewBox="0 0 1052.4 744.1" width="297mm" xmlns="http://www.w3.org/2000/svg">
 <g fill="none" stroke="#000" stroke-linecap="round">
  <g transform="translate(0 -308.26772)">
   <path d="m57.6 742.2h948.8" stroke-width="1.875"/>
   <g stroke-dasharray="3.75 7.5" stroke-miterlimit="2" stroke-width=".9375">
    <path d="m58.3 844.1h948.8"/>
    <path d="m58.3 641.8h948.8"/>
    <path d="m58.3 540.6h948.8"/>
   </g>
  </g>
  <g stroke-linejoin="round" stroke-width="5.625">
   <path d="m506.7 363c15.7-15 23.9-21.3 31.1-24.9 20.4-10.1 45.2-4 44.8 45-.2 33.3 15.8 47.8 30.1 47.7 17.4.2 25.3-5.6 33-14.6"/>
   <path d="m552.5 333.9c12.3-1.3 35.4 13.9 35.2 45.8-.2 30.1 8.2 53 28.3 51.2"/>
   <path d="m552.5 333.9c17-.9 25 18 24.8 49.9-.2 30.1 13.3 47.8 38.7 47.1"/>
   <ellipse cx="137.49857" cy="622.84619" rx="25.728558" ry="20.371416" transform="matrix(.79083574 -.61202846 .61202846 .79083574 0 0)"/>
   <path d="m506.7 363-32.7 32.2"/>
  </g>
 </g>
</svg>
