<svg height="210mm" viewBox="0 0 1052.4 744.1" width="297mm" xmlns="http://www.w3.org/2000/svg">
 <g fill="none" stroke-linecap="round">
  <g transform="translate(0 -308.26772)">
   <path d="m57.6 742.2h948.8" stroke="#969696" stroke-width="1.875"/>
   <g stroke="#000" stroke-dasharray="3.75 7.5" stroke-miterlimit="2" stroke-width=".9375">
    <path d="m58.3 844.1h948.8"/>
    <path d="m58.3 641.8h948.8"/>
    <path d="m58.3 540.6h948.8"/>
   </g>
  </g>
  <g stroke="#000" stroke-linejoin="round" stroke-width="5.625">
   <path d="m604.1 232.6c17.2 1 11.7 19.3-3.6 41.2-14.5 20.7-23.5 37.5-41.4 63-25.4 36.1-53.1 69.5-45.4 87.5 3.7 6.6 9.7 8.2 16.3 7.4 3.8-.4 7.1-1.1 10.1-2.1 30.5-6.1 52.4-27 85-28.6 33.6 3.5 25.8 31.3 46 29.9s22.2-9.4 29.2-17.4"/>
   <path d="m464.2 394.9c10.2-13.7 88.7-125.1 88.7-125.1 6.8-9.9 14-19.8 22.1-27.4 10.9-10.3 23.7-10.1 29.2-9.8"/>
   <path d="m415.3 341.9c64-35.1 130.6-96.7 99.6-107.4-14.6-5-42.1 11.7-89.3 89.6-51.5 89-40.8 108.4-14.5 106.7 22.3-1 24.4-.6 53.1-35.9"/>
   <path d="m432.1 413.8c.9.1 1.6.3 2.2.6.2.1.4.2.6.3 1.1.8 1.5 2.3.9 4.6-1.2 4.5-6.2 7-8.6 7.9-5 1.8-8.7-2.3-5.8-6.7 1.8-2.8 4.9-5.8 8.5-6.6.2 0 .5-.1.7-.1.3 0 .6-.1.9-.1.7 0 1.4.1 2.1.3"/>
  </g>
 </g>
</svg>
