<svg height="210mm" viewBox="0 0 1052.4 744.1" width="297mm" xmlns="http://www.w3.org/2000/svg">
 <g fill="none" stroke-linecap="round">
  <g transform="translate(0 -308.26772)">
   <path d="m57.6 742.2h948.8" stroke="#969696" stroke-width="1.875"/>
   <g stroke="#000" stroke-dasharray="3.75 7.5" stroke-miterlimit="2" stroke-width=".9375">
    <path d="m58.3 844.1h948.8"/>
    <path d="m58.3 641.8h948.8"/>
    <path d="m58.3 540.6h948.8"/>
   </g>
  </g>
  <g stroke-linejoin="round" stroke-width="5.625">
   <path d="m442.4 419c40.1-43.6 87.8-128.6 146.9-175.5 51.1-40 27.3 33.2-11.4 98.9-24.1 39.8-54.2 77.7-77.3 87.7-16.3 3.6-19-7.9-15.9-18.2 1.8-6 16.1-10.4 31.1-14 11-2.6 22.4-4.8 29.7-6.8 9.6-1.9 32.8-6.3 51-5.1" stroke="#000b00"/>
   <g stroke="#000">
    <path d="m569.7 399.8 57.3-80.9"/>
    <path d="m333.2 431.5c17.9-11.4 43-29.4 59.8-30.3 16-.6 21.6 31 32.6 30.7 7.2-.2 12.4-7.6 16.7-13"/>
    <ellipse cx="216.29869" cy="683.64337" rx="25.728558" ry="20.371416" transform="matrix(.79083574 -.61202846 .61202846 .79083574 0 0)"/>
    <path d="m627 318.8s36.4-53.1 39.1-56.8c9-12.3 18.4-28.1 34.4-27.3 17.9.9 16 70.9 53.9 25.2"/>
   </g>
  </g>
 </g>
</svg>
