<svg height="210mm" viewBox="0 0 1052.4 744.1" width="297mm" xmlns="http://www.w3.org/2000/svg">
 <g stroke-linecap="round">
  <g fill="none" transform="translate(0 -308.26772)">
   <path d="m57.6 742.2h948.8" stroke="#969696" stroke-width="1.875"/>
   <g stroke="#000" stroke-dasharray="3.75 7.5" stroke-miterlimit="2" stroke-width=".9375">
    <path d="m58.3 844.1h948.8"/>
    <path d="m58.3 641.8h948.8"/>
    <path d="m58.3 540.6h948.8"/>
   </g>
  </g>
  <g stroke="#000" stroke-linejoin="round">
   <path d="m498.8 431c-13.5 1.1-25.4.9-29.2.9-61.5.5 34.5-133.1 78.2-179.3 4.7-4.9 15.9-14.6 23-17.4" fill="none" stroke-width="5.625"/>
   <g fill="#eb0000" fill-rule="evenodd" transform="matrix(1.7715894 0 0 1.7715894 -789.6719 78.998629)">
    <path d="m732.1 185.5c.8.1 1.4.2 1.9.5.2.1.3.2.5.3.9.7 1.3 2 .8 4-1 3.9-5.4 6.1-7.5 6.9-4.3 1.6-7.6-2-5.1-5.9 1.6-2.4 4.2-5.1 7.4-5.7.2 0 .4-.1.7-.1h.8c.6 0 1.2.1 1.9.3" stroke-width="5.625"/>
    <path d="m729.3 188.3c.3 0 .6.1.9.2.1 0 .2.1.2.1.4.3.6.9.4 1.8-.4 1.7-2.4 2.8-3.3 3.1-1.9.7-3.4-.9-2.3-2.6.7-1.1 1.9-2.3 3.3-2.6h.3.4c.3 0 .6 0 .8.1" stroke-width="4.981044"/>
   </g>
   <g fill="none" stroke-width="5.625">
    <path d="m498.8 431c8 14.4 206.5-95.3 206.5-95.3 1.1-.5-25.9 49.6-25.9 49.6"/>
    <path d="m712.3 338.5-25.3 46.6"/>
    <path d="m691.4 385-12 .2"/>
    <path d="m719.2 335.4-27.7 49.5"/>
    <path d="m719.2 335.4-14.1-.1"/>
    <path d="m710.4 336.6-25.3 46.6"/>
   </g>
  </g>
 </g>
</svg>
