<svg height="210mm" viewBox="0 0 1052.4 744.1" width="297mm" xmlns="http://www.w3.org/2000/svg">
 <g fill="none" stroke-linecap="round">
  <g transform="translate(0 -308.26772)">
   <path d="m57.6 742.2h948.8" stroke="#969696" stroke-width="1.875"/>
   <g stroke="#000" stroke-dasharray="3.75 7.5" stroke-miterlimit="2" stroke-width=".9375">
    <path d="m58.3 844.1h948.8"/>
    <path d="m58.3 641.8h948.8"/>
    <path d="m58.3 540.6h948.8"/>
   </g>
  </g>
  <path d="m327.3 459.6c9.9-10.4 60.9-65.1 60.9-65.1" stroke="#000003" stroke-linejoin="round" stroke-width="5.625"/>
  <g stroke="#000">
   <g stroke-linejoin="round">
    <ellipse cx="475.56775" cy="135.91531" rx="4.609393" ry="6.862875" stroke-width="5.625" transform="matrix(.72846687 .68508103 -.68508103 .72846687 0 0)"/>
    <g stroke-width="6.5625">
     <path d="m322 385.5-47.5 81.9"/>
     <path d="m317.3 385.5-38.7 70.9-3.8 16.5"/>
     <path d="m322 385.5h-9.3"/>
    </g>
    <path d="m251.4 430.9c15.7 3 30.5-16.3 61.2-45.8l-38.9 72.5c-7.2 13.4 1.8 23.1 15 23 17.5-.4 28.2-11.3 38.6-20.9" stroke-width="5.625"/>
   </g>
   <path d="m283.8 454.1c-6 9.6-9.9 25.1 3.6 25.5" stroke-width="3.75"/>
   <g stroke-linejoin="round">
    <path d="m422.6 396.2a19.2 25.1 41.6 0 1 -14.3 31.3 19.2 25.1 41.6 0 1 -27.6-6.8 19.2 25.1 41.6 0 1 14.3-31.3 19.2 25.1 41.6 0 1 27.6 6.8z" stroke-width="5.625"/>
    <path d="m645.4 289.3c11.4-3.8 19.6-6.2 31.6-4.9 7.5.9 9.9 7 9.7 12-.3 6.8-3.7 16.8-10.6 30.8l-25.6 52.3" stroke-width="5.624999"/>
    <path d="m680.9 307.5-38.4 71.8" stroke-width="5.624999"/>
    <path d="m665.6 339.2-19.4 39.7" stroke-width="3.749999"/>
    <path d="m642.5 379.3 7.9.2" stroke-width="5.624999"/>
   </g>
   <path d="m675.3 285.2c11.2-.7 10.4 11.9 2 27" stroke-width="3.749999"/>
   <path d="m661.2 285.9c5.9-1.3 18.5-2.6 20.5 4.3 3.6 7.7-5.8 23.5-11 34.6" stroke-width="3.75"/>
   <g stroke-linejoin="round" stroke-width="5.625">
    <path d="m650.4 379.5 78.4-42.6"/>
    <path d="m398.9 387.5s227.7-91.5 246.4-98.2"/>
   </g>
  </g>
 </g>
</svg>
