<svg height="210mm" viewBox="0 0 1052.4 744.1" width="297mm" xmlns="http://www.w3.org/2000/svg">
 <g fill="none" stroke-linecap="round">
  <g transform="translate(0 -308.26772)">
   <path d="m57.6 742.2h948.8" stroke="#969696" stroke-width="1.875"/>
   <g stroke="#000" stroke-dasharray="3.75 7.5" stroke-miterlimit="2" stroke-width=".9375">
    <path d="m58.3 844.1h948.8"/>
    <path d="m58.3 641.8h948.8"/>
    <path d="m58.3 540.6h948.8"/>
   </g>
  </g>
  <g stroke="#000">
   <ellipse cx="346.24057" cy="681.05603" rx="60.146576" ry="43.208752" stroke-linejoin="round" stroke-width="5.625" transform="matrix(.88109295 -.47294313 .47294313 .88109295 0 0)"/>
   <path d="m555.8 366c-5.2 6.1-10.7 12.1-15.2 17-5.3 5.7-11.2 12.1-17.3 19.5-8 9.7-8.6 17.8-5 22.8 1.5 2.1 3.7 3.7 6.4 4.6 2.6.9 5.6 1 8.8.8 19.4-.7 35.3-10.6 71.1-31.5" stroke-linejoin="round" stroke-width="5.625"/>
   <path d="m508.6 244.5c-21 26.2-40.6 49.8-56 74.1-19.8 31.2-33.9 63.1-46.7 97.5" stroke-width="5.624999"/>
   <path d="m503 247.9c-38.3 44.9-72.9 96.9-94.8 156.8" stroke-width="7.499999"/>
   <path d="m355.1 431.3c53.3-40.9 139.9-96.6 163.6-114.7 26.7-20.4 32.8-36 34.3-50.1 1.5-14.6-6.9-26.2-20.8-30.7-14.7-4.7-42.9 10.9-90.1 88.8-14.1 24.3-25.7 44.6-31.7 60-13.7 35.1-8.1 45.3 9.6 46.6" stroke-linejoin="round" stroke-width="5.624999"/>
   <path d="m410.6 403.6c-3 9.2-6.6 26.5 7.2 27.5" stroke-width="5.625"/>
   <path d="m536.9 238.8c-6.3-3.3-12.7-1.4-17.6 1-4.4 2.2-8.8 4.5-16.5 13.4" stroke-width="3.75"/>
   <path d="m542.8 242.7c-17.4-14.8-40 10.5-42.6 13.8" stroke-width="3.75"/>
   <g stroke-linejoin="round">
    <path d="m448.8 427.9c-8.4 1.8-18.7 3.6-28.8 3.3" stroke-width="5.625"/>
    <ellipse cx="617.20935" cy="-1.622265" rx="4.609393" ry="6.862874" stroke-width="5.625" transform="matrix(.72846687 .68508103 -.68508103 .72846687 0 0)"/>
    <path d="m555.8 366c8.2-9.9 8.8-18.2 5.1-23.4-7-8.1-18.6-7.2-28.3-1.5-3.9 2.3-8.7 6.1-11.7 9.1-3.6 3.6-6.9 7.1-9 10-19.6 25.4-52.8 79.2-63.1 67.7" stroke-width="5.624999"/>
   </g>
  </g>
 </g>
</svg>
