<svg height="210mm" viewBox="0 0 1052.4 744.1" width="297mm" xmlns="http://www.w3.org/2000/svg">
 <g fill="none" stroke-linecap="round" transform="translate(0 -308.26772)">
  <path d="m57.6 742.2h948.8" stroke="#969696" stroke-width="1.875"/>
  <g stroke="#000" stroke-dasharray="3.75 7.5" stroke-miterlimit="2" stroke-width=".9375">
   <path d="m58.3 844.1h948.8"/>
   <path d="m58.3 641.8h948.8"/>
   <path d="m58.3 540.6h948.8"/>
  </g>
 </g>
 <g stroke="#000" stroke-linecap="round" stroke-linejoin="round">
  <path d="m316 432c37.4.2 47.1-1 58.9-1.3" fill="none" stroke-width="5.625"/>
  <g fill="#eb0000" fill-rule="evenodd" transform="matrix(1.4504951 0 0 1.4504951 -694.04443 142.79049)">
   <path d="m732.1 185.5c.8.1 1.4.2 1.9.5.2.1.3.2.5.3.9.7 1.3 2 .8 4-1 3.9-5.4 6.1-7.5 6.9-4.3 1.6-7.6-2-5.1-5.9 1.6-2.4 4.2-5.1 7.4-5.7.2 0 .4-.1.7-.1h.8c.6 0 1.2.1 1.9.3" stroke-width="5.625"/>
   <path d="m729.3 188.3c.3 0 .6.1.9.2.1 0 .2.1.2.1.4.3.6.9.4 1.8-.4 1.7-2.4 2.8-3.3 3.1-1.9.7-3.4-.9-2.3-2.6.7-1.1 1.9-2.3 3.3-2.6h.3.4c.3 0 .6 0 .8.1" stroke-width="4.981044"/>
  </g>
  <g fill="none" stroke-width="5.625">
   <path d="m375 430.7 52.3-47.3"/>
   <path d="m316 432-100.7-.5c3 .3 9.8-4.3 11.2-5.1 10.9-6.3 20.6-15.2 28.3-26.1 27.6-39.1 30.9-92.3-18.7-48.1"/>
   <path d="m724.1 431.3c37.4.2 73.4-1 85.2-1.3"/>
  </g>
  <g fill="#eb0000" fill-rule="evenodd" transform="matrix(1.4504951 0 0 1.4504951 -285.96691 142.13182)">
   <path d="m732.1 185.5c.8.1 1.4.2 1.9.5.2.1.3.2.5.3.9.7 1.3 2 .8 4-1 3.9-5.4 6.1-7.5 6.9-4.3 1.6-7.6-2-5.1-5.9 1.6-2.4 4.2-5.1 7.4-5.7.2 0 .4-.1.7-.1h.8c.6 0 1.2.1 1.9.3" stroke-width="5.625"/>
   <path d="m729.3 188.3c.3 0 .6.1.9.2.1 0 .2.1.2.1.4.3.6.9.4 1.8-.4 1.7-2.4 2.8-3.3 3.1-1.9.7-3.4-.9-2.3-2.6.7-1.1 1.9-2.3 3.3-2.6h.3.4c.3 0 .6 0 .8.1" stroke-width="4.981044"/>
  </g>
  <g fill="none" stroke-width="5.625">
   <path d="m809.3 430 52.3-47.3"/>
   <path d="m724.1 431.3-100.8-.5c3 .3 9.8-4.3 11.2-5.1 10.9-6.3 20.6-15.2 28.3-26.1 27.6-39.1 30.9-92.3-18.7-48.1"/>
   <path d="m808.3 417.2c.8.1 1.5.3 2.1.5.2.1.4.2.5.3 1 .8 1.4 2.1.8 4.3-1.1 4.2-5.8 6.5-8 7.4-4.6 1.7-8.1-2.1-5.4-6.2 1.7-2.6 4.5-5.4 7.9-6.1.2 0 .5-.1.7-.1h.9c.7 0 1.3.1 2 .3"/>
  </g>
 </g>
 <circle cx="522.80823" cy="360.33789" r="10.653955"/>
 <circle cx="507.41861" cy="409.35355" r="10.653955"/>
</svg>
