<svg height="210mm" viewBox="0 0 1052.4 744.1" width="297mm" xmlns="http://www.w3.org/2000/svg">
 <g fill="none" stroke-linecap="round">
  <g transform="translate(0 -308.26772)">
   <path d="m57.6 742.2h948.8" stroke="#969696" stroke-width="1.875"/>
   <g stroke="#000" stroke-dasharray="3.75 7.5" stroke-miterlimit="2" stroke-width=".9375">
    <path d="m58.3 844.1h948.8"/>
    <path d="m58.3 641.8h948.8"/>
    <path d="m58.3 540.6h948.8"/>
   </g>
  </g>
  <g stroke="#000">
   <g stroke-width="5.625">
    <path d="m320.2 392.3c21.7-15.5 55.1-45.7 80.3-54.3 20.4-6.8 39.1.9 20.7 23.5-27.4 33.8-45.5 50.2-39.4 63.9 2.1 4.8 8 6.6 15 5.8 6.9-.8 220.9-27 229.8-32.4" stroke-linejoin="round"/>
    <path d="m422.1 338.8c14.5 10.1 4.3 27.8-12.4 44.2-14.4 14-23.4 26.4-29.5 38.7"/>
    <path d="m422.1 338.8c.8-1.1 3.9 6.1.7 14.2-3.2 8.4-12.8 17.8-18.3 22.9-10.8 10.1-30.6 29-24.3 45.7"/>
   </g>
   <g stroke-width="2.8125">
    <path d="m413.5 337c11.3 1.3 8.8 6.5 9.1 11"/>
    <path d="m385.3 414.3c-2.7 4.9-3.8 12 2.3 14.5"/>
    <path d="m377.6 415.7c-.1 5.7 2.9 11.5 4.9 13.1"/>
   </g>
   <g stroke-linejoin="round">
    <ellipse cx="13.104667" cy="526.60126" rx="25.728558" ry="20.371416" stroke-width="5.625" transform="matrix(.79083574 -.61202846 .61202846 .79083574 0 0)"/>
    <path d="m687.9 394.4c-20.6 13-52.2 36.2-61.2 37-6.7.6-7.8-7.5 0-32.5" stroke-width="5.625"/>
    <g stroke-width="4.30181">
     <path d="m688.5 393.9c.8-.5-19.8 37.9-19.8 37.9"/>
     <path d="m693.8 396.1-19.4 35.6"/>
     <path d="m677.9 431.7-9.1.2"/>
     <path d="m699.1 393.8-21.2 37.9"/>
     <path d="m699.1 393.8-10.8-.1"/>
     <path d="m692.4 394.7-19.4 35.6"/>
    </g>
   </g>
  </g>
 </g>
</svg>
