<svg height="210mm" viewBox="0 0 1052.4 744.1" width="297mm" xmlns="http://www.w3.org/2000/svg">
 <g fill="none" stroke-linecap="round">
  <g transform="translate(0 -308.26772)">
   <path d="m57.6 742.2h948.8" stroke="#969696" stroke-width="1.875"/>
   <g stroke="#000" stroke-dasharray="3.75 7.5" stroke-miterlimit="2" stroke-width=".9375">
    <path d="m58.3 844.1h948.8"/>
    <path d="m58.3 641.8h948.8"/>
    <path d="m58.3 540.6h948.8"/>
   </g>
  </g>
  <g stroke="#000">
   <g stroke-linejoin="round" stroke-width="5.625">
    <path d="m220.2 335.4c-39.2 39.3-102.4 102.7-103.7 103.6-32.5 22-71.6 74.4-63.5 89.5 4.9 9.2 28.4 7.7 48.3-24.3 8.5-13.7 17.7-31 19.9-61.8 5-69.6 41.1-122.1 68-104.4 11.2 7.4-22.9 49.1-54.2 46.7"/>
    <path d="m517 335.7c-39.5 25.9-175.4 46.2-217.8 47.2-42.1 1.1-79.7-7.6-79.1-47.6"/>
    <path d="m991.8 472.4c13.9-7.2 132.4-70.8 146.9-84.4 26.1-24.5 41.7-56.7 37.6-67.4-5.5-14.4-40.2 8.9-87.4 86.8-44.7 77.2-46.6 106.2-31 106.6 3 0 6-.4 8.8-1.2"/>
    <ellipse cx="490.02856" cy="1000.5556" rx="25.728558" ry="20.371416" transform="matrix(.79083574 -.61202846 .61202846 .79083574 0 0)"/>
    <path d="m1482 417.3c-53.2 7.3-100.2 80.3-96.4 92.6.9 3 16.3 22.9 59.8-38.1 26.9-36.9 46.1-68.7 69.3-116.4 15.5-30.1-1.4-56.7-44.4-11.6"/>
    <path d="m1375.4 467.2s65.1-91.7 94.9-123.4"/>
    <path d="m1066.6 512.8c6.2-.5 275.4-93.6 275.4-93.6l33.3 47.9"/>
    <path d="m1342.1 419.3 24 48"/>
    <path d="m1351.6 419.3 23.8 47.9"/>
    <path d="m1347.6 419.2 24 48"/>
   </g>
   <g stroke-width="3.75">
    <path d="m1344.3 418.2h7.1"/>
    <path d="m1367.8 468.2h7.1"/>
   </g>
  </g>
 </g>
</svg>
