<svg height="210mm" viewBox="0 0 1052.4 744.1" width="297mm" xmlns="http://www.w3.org/2000/svg">
 <g fill="none" stroke-linecap="round" transform="translate(0 -308.26772)">
  <path d="m57.6 742.2h948.8" stroke="#969696" stroke-width="1.875"/>
  <g stroke="#000" stroke-dasharray="3.75 7.5" stroke-miterlimit="2" stroke-width=".9375">
   <path d="m58.3 844.1h948.8"/>
   <path d="m58.3 641.8h948.8"/>
   <path d="m58.3 540.6h948.8"/>
  </g>
 </g>
 <g fill="none">
  <g stroke="#000" stroke-linecap="round" stroke-width="5.625">
   <path d="m313.3 336.1c-40.3 12.4-79.3 77.9-61.1 91.1 7.4 6.3 22.1 3.9 44.3.5 35.4-5.3 193.9-42.6 193.9-42.6" stroke-linejoin="round"/>
   <path d="m728.5 133-216.1 298"/>
   <g stroke-linejoin="round">
    <path d="m490.4 385.1 22.1 45.9"/>
    <path d="m660.4 330.3c15.9-.5 24.9-6.9 35.7-17.7 12.6-12.6 33.5-39.7 50.3-62.9 16.2-22.4 36.8-62.4 63-61.7 42.9 1.1-46.7 181.2-112.2 195.7"/>
    <path d="m728.5 133s-78.4 150.4-85.7 164.6c-7.9 18.1 2.2 32.5 17.6 32.7"/>
   </g>
  </g>
  <path d="m277.3 219 478.6 334.4" stroke="#d10000" stroke-linecap="square" stroke-opacity=".560748" stroke-width="28.125002"/>
 </g>
 <g fill="#d10000" fill-opacity=".560748" fill-rule="evenodd">
  <path d="m756.1 197.9-11.5 8.1c-73.6 51.4-157.5 109.5-231.1 160.9l26.1 18.2c73.6-51.4 147.5-104.6 221.1-156.1l11.5-8.1z"/>
  <path d="m273.9 572.3 11.5-8.1c73.6-51.4 157.4-109.6 231-161l-26.1-18.2c-73.5 51.5-147.5 104.7-221 156.2l-11.5 8.1z"/>
 </g>
</svg>
