<svg height="210mm" viewBox="0 0 1052.4 744.1" width="297mm" xmlns="http://www.w3.org/2000/svg">
 <g fill="none" stroke-linecap="round">
  <g transform="translate(0 -308.26772)">
   <path d="m57.6 742.2h948.8" stroke="#969696" stroke-width="1.875"/>
   <g stroke="#000" stroke-dasharray="3.75 7.5" stroke-miterlimit="2" stroke-width=".9375">
    <path d="m58.3 844.1h948.8"/>
    <path d="m58.3 641.8h948.8"/>
    <path d="m58.3 540.6h948.8"/>
   </g>
  </g>
  <g stroke="#000" stroke-linejoin="round" stroke-width="5.625">
   <path d="m641.4 387s-212.6 47.7-217.9 44.2"/>
   <path d="m428.6 420.7c.7.1 1.2.2 1.7.4.2.1.3.2.4.3.8.6 1.1 1.7.7 3.4-.9 3.4-4.7 5.3-6.5 6-3.7 1.4-6.5-1.7-4.4-5 1.3-2.1 3.6-4.4 6.4-4.9.2 0 .4-.1.6-.1h.7c.5 0 1.1.1 1.6.2"/>
   <ellipse cx="257.42581" cy="716.31506" rx="25.728558" ry="20.371416" transform="matrix(.79083574 -.61202846 .61202846 .79083574 0 0)"/>
   <path d="m376.1 431.4h-73.4"/>
   <ellipse cx="52.363136" cy="557.53296" rx="25.728558" ry="20.371416" transform="matrix(.79083574 -.61202846 .61202846 .79083574 0 0)"/>
   <path d="m421.7 431.4h-45.6"/>
   <path d="m630.7 390.9 86.5-54.8"/>
   <path d="m726.7 480c14.8-7.7 32.2-16.2 28.9-34.4-.9-14.2-55-41.3-61.8-64.1-3.5-11.7 8.2-28.9 23.4-45.3"/>
  </g>
 </g>
</svg>
