<svg height="210mm" viewBox="0 0 1052.4 744.1" width="297mm" xmlns="http://www.w3.org/2000/svg">
 <g fill="none" stroke-linecap="round">
  <g transform="translate(0 -308.26772)">
   <path d="m57.6 742.2h948.8" stroke="#969696" stroke-width="1.875"/>
   <g stroke="#000" stroke-dasharray="3.75 7.5" stroke-miterlimit="2" stroke-width=".9375">
    <path d="m58.3 844.1h948.8"/>
    <path d="m58.3 641.8h948.8"/>
    <path d="m58.3 540.6h948.8"/>
   </g>
  </g>
  <g stroke="#000" stroke-linejoin="round">
   <ellipse cx="755.72333" cy="-133.68755" rx="5.271423" ry="7.848564" stroke-width="14.034715" transform="matrix(.72846687 .68508103 -.68508103 .72846687 0 0)"/>
   <path d="m639.6 431.4c-13.3.8-26.9 0-39.4 3.9-16 5-32.5 16.9-54.9 39-15.4 15.2-46.3 47.5-30.7 58.2 7 3.6 23.2-.9 52.5-43.5 5.2-7.1 88-150.7 88-150.7" stroke-width="5.625"/>
   <path d="m415.7 384.8 20.5 46.3" stroke-width="5.625"/>
   <path d="m423.1 473.3-15.7 38.1" stroke-width="5.625001"/>
  </g>
 </g>
</svg>
