<svg height="210mm" viewBox="0 0 1052.4 744.1" width="297mm" xmlns="http://www.w3.org/2000/svg">
 <g fill="none" stroke-linecap="round">
  <g transform="translate(0 -308.26772)">
   <path d="m57.6 742.2h948.8" stroke="#969696" stroke-width="1.875"/>
   <g stroke="#000" stroke-dasharray="3.75 7.5" stroke-miterlimit="2" stroke-width=".9375">
    <path d="m58.3 844.1h948.8"/>
    <path d="m58.3 641.8h948.8"/>
    <path d="m58.3 540.6h948.8"/>
   </g>
  </g>
  <g stroke="#000">
   <g stroke-linejoin="round" stroke-width="5.625">
    <path d="m249.8 383.7 17.5 47.4 202.4-92.7"/>
    <ellipse cx="156.73729" cy="574.41858" rx="25.728558" ry="20.371416" transform="matrix(.79083574 -.61202846 .61202846 .79083574 0 0)"/>
    <ellipse cx="439.6517" cy="606.29828" rx="62.130169" ry="44.633743" transform="matrix(.88109295 -.47294313 .47294313 .88109295 0 0)"/>
   </g>
   <path d="m730.8 304.3c-13.8 27.9-38.1 52.4-66.8 70.7" stroke-width="5.385754"/>
   <path d="m732 313.3c-15.9 21.3-33.1 41.5-54 58.5" stroke-width="5.385754"/>
   <path d="m731.1 319.8c-14.3 21.6-19.7 29.6-41.7 46.5" stroke-width="7.181006"/>
   <path d="m679.7 362.9c-10.1 9.6-24.3 12.2-31.1 10.7" stroke-width="3.590503"/>
   <path d="m722.8 290.4c2.2 2.5 8.7 12.2 1.3 24.5" stroke-width="3.590503"/>
   <g stroke-linejoin="round" stroke-width="5.625">
    <path d="m528.5 393.2c-25.3 23.2-135.2 121-131.4 133.3.9 3 16.3 22.9 59.8-38.1 26.9-36.9 54.6-73.4 69.3-116.4 7.3-20.8 3.2-36-11.7-35.7-8.5.2-15.9-1.1-32.2-.5"/>
    <path d="m528.5 393.2 102.6-90"/>
    <path d="m680.2 278s35.4-5.7 57.1-8"/>
    <path d="m742.6 259.2c.7.1 1.2.2 1.7.4.2.1.3.2.4.3.8.6 1.1 1.7.7 3.5-.9 3.4-4.8 5.4-6.6 6.1-3.8 1.4-6.6-1.8-4.4-5.1 1.4-2.1 3.7-4.4 6.5-5 .2 0 .4-.1.6-.1h.7c.5 0 1.1.1 1.6.2"/>
   </g>
  </g>
 </g>
</svg>
