<svg height="210mm" viewBox="0 0 1052.4 744.1" width="297mm" xmlns="http://www.w3.org/2000/svg">
 <g fill="none" stroke-linecap="round">
  <g transform="translate(0 -308.26772)">
   <path d="m57.6 742.2h948.8" stroke="#969696" stroke-width="1.875"/>
   <g stroke="#000" stroke-dasharray="3.75 7.5" stroke-miterlimit="2" stroke-width=".9375">
    <path d="m58.3 844.1h948.8"/>
    <path d="m58.3 641.8h948.8"/>
    <path d="m58.3 540.6h948.8"/>
   </g>
  </g>
  <g stroke-linejoin="round" stroke-width="5.625">
   <g stroke="#000">
    <path d="m559.7 379.1s37.2-3.9 38.8 6.2"/>
    <path d="m464.1 370.1c27.2-27.1 50.4-34.6 70.6-34.4 21.1.2 33.9 15.5 25.1 43.4"/>
    <path d="m595.8 384.6c.8.1 1.4.2 1.9.5.2.1.3.2.5.3.9.7 1.3 2 .8 4-1 3.9-5.4 6.1-7.5 6.9-4.3 1.6-7.6-2-5.1-5.9 1.6-2.4 4.2-5.1 7.4-5.7.2 0 .4-.1.7-.1s.5-.1.8-.1c.6 0 1.2.1 1.9.3"/>
   </g>
   <path d="m588.7 387.6 59.8-51.4-56.7 94.9 68.2-46.8" stroke="#0a0000"/>
   <g stroke="#000">
    <path d="m791.4 431.3c5.8-3.7 12-9.5 6.4-16.9-2.8-3.6-4.4-5-13-4.9l-107.7.6c-7.4 0-15.4-.2-17.4-.8-9.6-2.9-8.5-13.1.2-25.1"/>
    <path d="m326.9 432c16.6-20.8 118.1-197.3 162.8-197.2 14.8.6 22.5 10.8 3.6 43l-90 153.8s50.9-51.9 60.8-61.5"/>
    <path d="m502.3 248.1-106.9 183.3"/>
    <path d="m501 257.1-101.1 171.8"/>
    <path d="m395.4 431.4 7.9.3"/>
   </g>
  </g>
  <path d="m494.9 236.8c8.3 1.8 6.5 9.3 5 13.5" stroke="#000" stroke-width="3.75"/>
 </g>
</svg>
