<svg height="210mm" viewBox="0 0 1052.4 744.1" width="297mm" xmlns="http://www.w3.org/2000/svg">
 <g fill="none" stroke-linecap="round">
  <g transform="translate(0 -308.26772)">
   <path d="m57.6 742.2h948.8" stroke="#969696" stroke-width="1.875"/>
   <g stroke="#000" stroke-dasharray="3.75 7.5" stroke-miterlimit="2" stroke-width=".9375">
    <path d="m58.3 844.1h948.8"/>
    <path d="m58.3 641.8h948.8"/>
    <path d="m58.3 540.6h948.8"/>
   </g>
  </g>
  <g stroke-linejoin="round">
   <g stroke="#000" stroke-width="4.622563">
    <path d="m871.3 391.8c.8-.6-21.3 40.7-21.3 40.7"/>
    <path d="m877 394.1-20.8 38.3"/>
    <path d="m859.9 432.3-9.8.2"/>
    <path d="m882.7 391.6-22.8 40.7"/>
    <path d="m882.7 391.6-11.6-.1"/>
    <path d="m875.5 392.6-20.8 38.3"/>
   </g>
   <path d="m797.1 415.2c1 .1 1.8.3 2.5.7.2.1.4.2.6.4 1.2.9 1.7 2.6 1 5.2-1.3 5.1-7.1 8-9.8 9-5.7 2-9.8-2.6-6.6-7.6 2-3.1 5.5-6.6 9.7-7.5.3-.1.6-.1.9-.1s.7-.1 1-.1c.8 0 1.6.1 2.4.3" stroke="#030002" stroke-width="5.625"/>
   <g stroke="#000">
    <g stroke-width="5.625">
     <path d="m592.5 431.5 196.2-.6"/>
     <path d="m792.5 430.5c10.1 1.8 78.5-38.3 78.5-38.3"/>
     <path d="m185 355c30.4-38.2 75.9-13.5 1.8 29.2 44.9-18.1 9.4 21.7-8.5 47.5"/>
     <path d="m442.6 339.2c6-2.2 11.5-3.2 16.6-3.1 15.6.5 17.7 20.5-30.2 48.1 44.9-18.1 9.4 21.7-8.5 47.5"/>
    </g>
    <g stroke-width="4.622564">
     <path d="m486.6 391.4c.8-.6-21.3 40.7-21.3 40.7"/>
     <path d="m492.3 393.8-20.8 38.3"/>
     <path d="m475.2 432-9.8.2"/>
     <path d="m497.9 391.3-22.8 40.7"/>
     <path d="m497.9 391.3-11.5-.1"/>
     <path d="m490.8 392.2-20.9 38.3"/>
    </g>
    <g stroke-width="5.625">
     <path d="m420.5 431.7 65.7-40"/>
     <path d="m178.3 431.7 264.3-92.5"/>
     <path d="m599.2 354.7c30.4-38.2 75.9-13.5 1.8 29.2 44.9-18.1 9.4 21.7-8.5 47.5"/>
    </g>
   </g>
  </g>
 </g>
</svg>
