<svg height="210mm" viewBox="0 0 1052.4 744.1" width="297mm" xmlns="http://www.w3.org/2000/svg">
 <g fill="none" stroke-linecap="round">
  <g transform="translate(0 -308.26772)">
   <path d="m57.6 742.2h948.8" stroke="#969696" stroke-width="1.875"/>
   <g stroke="#000" stroke-dasharray="3.75 7.5" stroke-miterlimit="2" stroke-width=".9375">
    <path d="m58.3 844.1h948.8"/>
    <path d="m58.3 641.8h948.8"/>
    <path d="m58.3 540.6h948.8"/>
   </g>
  </g>
  <g stroke="#000" stroke-linejoin="round" stroke-width="5.625">
   <path d="m258.2 337.2c-51.9 13.5-97.8 120.2-34.3 87.6 9-4.6 32.7-24.4 58.1-51.7"/>
   <path d="m282.1 373.1s24.9-21.1 30.8-24.7c10.8-6.8 26.8-15.9 33.1-11 6.1 4.7 8 33.9 20.2 36.1 12.6 2.3 27.3-7.5 35.2-14.7 7.3-6.6 29.2-39.3 38.2-50.4"/>
   <path d="m334.2 337.2c11.6-4.7 13.4 6.8 14.9 23.4 1 10.8 7.8 13.7 20.1 13.3"/>
   <path d="m334.2 337.2c5.4-2.4 19-3.6 22.7 15 2.6 13.3 5.7 21.2 12.3 21.6"/>
   <path d="m346.2 339.9c6.8 12.3 1 30.9 15.5 31.8"/>
   <path d="m475 359.6c-40.9 23.6-66.4 40.2-96.4 74.8-18.5 21-26.6 35.6-24.7 41.9.9 3 16.3 22.9 59.8-38.1 26.9-36.9 54.6-73.4 69.3-116.4 15.5-30.1-6.8-59.6-43.5-13.3"/>
   <path d="m475 359.6c16.5-8.6 36.9-21.2 54.7-23.3 16.9-1 22.4 18.3 30.3 30.1 5.7 8.5 22.3 13.6 36.8 11.9"/>
   <path d="m883.5 189.5-128.5 196.4"/>
   <path d="m698.3 365.5 34.3-29.8 22.4 50.2"/>
   <path d="m712.8 291.2c-56.6 14.8-104.6 143.3-14.6 74.3"/>
   <path d="m611.9 371.9c6.6-4.3 82.3-79.1 101-80.7"/>
   <ellipse cx="371.59247" cy="588.03937" rx="25.728558" ry="20.371416" transform="matrix(.89236516 -.45131411 .45131411 .89236516 0 0)"/>
  </g>
 </g>
</svg>
