<svg height="210mm" viewBox="0 0 1052.4 744.1" width="297mm" xmlns="http://www.w3.org/2000/svg">
 <g fill="none" stroke-linecap="round">
  <g transform="translate(0 -308.26772)">
   <path d="m57.6 742.2h948.8" stroke="#969696" stroke-width="1.875"/>
   <g stroke="#000" stroke-dasharray="3.75 7.5" stroke-miterlimit="2" stroke-width=".9375">
    <path d="m58.3 844.1h948.8"/>
    <path d="m58.3 641.8h948.8"/>
    <path d="m58.3 540.6h948.8"/>
   </g>
  </g>
  <g stroke="#000">
   <path d="m368.1 430.8s79-42 84.7-45.5c7.2-4.5 15.1-9 20.2-13.4 12.8-11.2 18.6-26.1 16.7-30.9-2.8-7.3-34.7-8.6-58.5 30.7-26.3 43.1-17.7 60.3-4.2 58.6 14-3.8 28.8-9.6 42.4-16.5" stroke-linejoin="round" stroke-width="5.625"/>
   <path d="m465.3 416c3.8-2.3 7.9-4.6 12-6.8 10.9-5.7 22.1-10 28.9-8.7 13.1 2.4 13.8 32.3 27.7 30.8 12-1.2 30.9-12.3 41.4-18.8" stroke-linejoin="round" stroke-width="5.625"/>
   <path d="m469.8 342.3c-30.3 19.2-39.8 50.5-52.2 79" stroke-width="4.6875"/>
   <path d="m462.8 342.3c-17.9 10.4-41.1 45.1-46.5 68.6" stroke-width="4.6875"/>
   <path d="m423.4 409.9c-4 10.7-6.4 18.8 3.6 20.4" stroke-width="2.8125"/>
   <path d="m484.2 339c-7.4-2.4-11 2.2-15.8 5.2" stroke-width="2.8125"/>
   <path d="m459.3 347.1c-28 20.5-28.9 42.2-43.4 69.6" stroke-width="4.6875"/>
   <g stroke-linejoin="round" stroke-width="5.625">
    <path d="m544.2 483.6c16.8-.5 33-21.3 35-47.2 2.1-26.8 46.6-55.1 36.3-48.7l-40.2 24.9"/>
    <path d="m598.9 402.8c-18.7 24.9-13 28.9-16.8 41.1-3.5 11.7-12.1 25.9-24.2 34.7"/>
    <path d="m596.1 405.9c-7.6 7.8-16.9 18.3-21 32.6-4.1 14.4-5.5 33.4-22.5 43.1"/>
    <path d="m552.6 481.7 88.7-44.9 20 47.9"/>
   </g>
  </g>
 </g>
</svg>
