<svg height="210mm" viewBox="0 0 1098.4 744.1" width="310mm" xmlns="http://www.w3.org/2000/svg">
 <g fill="none" stroke-linecap="round">
  <g transform="translate(0 -308.26772)">
   <path d="m29.4 742.2h1037" stroke="#969696" stroke-width="1.875"/>
   <g stroke="#000" stroke-dasharray="3.75 7.5" stroke-miterlimit="2" stroke-width=".9375">
    <path d="m30.2 844.1h1036.9"/>
    <path d="m30.2 641.8h1036.9"/>
    <path d="m30.2 540.6h1036.9"/>
   </g>
  </g>
  <g stroke="#000">
   <g stroke-linejoin="round">
    <path d="m233.5 235.1s-42.5 79.8-60.8 107.6c-23 34.9-52 72.9-91.2 88.5" stroke-width="5.625001"/>
    <path d="m397.2 430.7c40-14.5 66.7-80.3 53.3-93.3-1.8-1.7-4.2-2.4-7.4-2.2-14.7 1-332.3 63.7-363.7 90.7-2.5 2.1 0 6.6 2.1 5.1" stroke-width="5.625"/>
    <path d="m612.2 346.3c3.7 10.5-2.8 24.6-14.3 31.3-11.6 6.8-23.9 3.7-27.6-6.8-2-5.7-1-12.4 2.1-18.4 2.7-5.1 6.9-9.8 12.2-12.9 11.6-6.8 23.9-3.7 27.6 6.8z" stroke-width="5.625"/>
    <g stroke-width="5.625002">
     <path d="m397.2 430.7c-3.3 1.5-5.5-2.8-3.7-4.4 9.2-8.1 74.3-27 88.7-24.3 14.9 2.8 15.6 34.8 35.2 27.9 1.7-.6 3.9-1.7 5.5-2.7 3.2-2 9.5-8.9 15.1-16.2 7.3-9.4 25.9-43.2 34.5-59"/>
     <path d="m462.9 403.6c16.5-3.2 18.8.8 28.5 17 5.2 8.6 9 11.2 21.1 10.2"/>
     <path d="m480.8 403.8c6.7 5.9 4.2.8 19 23.4"/>
    </g>
    <path d="m906.6 336-45.7 94.9" stroke-width="5.625"/>
    <path d="m699.4 235.4s-66.1 127.2-85.7 164.6c-8.4 18.4 1.8 31.1 17.2 31.3 4.5.1 8.8-.7 15.5-2.4 44.3-11.7 172.5-61.2 172.5-61.2l87.7-31.6" stroke-width="5.624999"/>
   </g>
   <path d="m1030.2 388.3c.8-1.1 3.5 6.2.4 14.1-3.2 8.2-12.5 19.1-17.8 24.2-10.5 9.9-29.8 30.2-23.7 46.5" stroke-width="5.472634"/>
   <path d="m1019.6 387c13.9-1.2 11 7.7 10.3 13.7" stroke-width="2.736317"/>
   <path d="m1030 387.2c15.4 6.8 4.1 30.2-12.2 46.1-14 13.6-22.7 27.7-28.7 39.7" stroke-width="5.472634"/>
   <path d="m996.4 462.4c-3.4 4.9-7.1 14.7 2.5 16.9" stroke-width="2.736317"/>
   <path d="m986.6 467.2c-.1 5.5 3.9 14.3 10.9 14.6" stroke-width="2.736317"/>
   <g stroke-linejoin="round">
    <path d="m960.6 335.7s-31.1 62.1-35.1 72.5c-5.5 14.2 1.8 23.1 15 23 19.5.1 31.6-16.4 40.6-25.5 6.3-6.4 13.3-13.3 20.5-16.4 5.7-2.4 11.6-3.5 18.1-3.7 14.3-.3 24.4 8.5 10.2 26.1-27.1 33.5-45.1 49.8-39.1 63.3 1.9 4.3 6.9 6.2 12.9 6.2 13.4-.6 22.8-7.2 31.7-15.6" stroke-width="5.624999"/>
    <path d="m861 430.9 99.6-95.2" stroke-width="5.625"/>
   </g>
  </g>
 </g>
</svg>
