<svg height="210mm" viewBox="0 0 1052.4 744.1" width="297mm" xmlns="http://www.w3.org/2000/svg">
 <g fill="none" stroke-linecap="round">
  <g transform="translate(0 -308.26772)">
   <path d="m57.6 742.2h948.8" stroke="#969696" stroke-width="1.875"/>
   <g stroke="#000" stroke-dasharray="3.75 7.5" stroke-miterlimit="2" stroke-width=".9375">
    <path d="m58.3 844.1h948.8"/>
    <path d="m58.3 641.8h948.8"/>
    <path d="m58.3 540.6h948.8"/>
   </g>
  </g>
  <g stroke="#000">
   <g stroke-width="5.625">
    <path d="m215.6 360.2c9.3-12.6 18-18.1 26.2-21.7 24.8-6.9 35 2.5 12.3 40.5l-29.8 52.1" stroke-linejoin="round"/>
    <path d="m224.3 431.1 94.3-49.8-57.2 104.6" stroke-linejoin="round"/>
    <path d="m377.6 381.7-75.9 151.3"/>
    <path d="m377.6 381.7-116.3 104.2"/>
   </g>
   <g stroke-linejoin="round">
    <path d="m704 289.5-295.4 126.7c-4.9 2.1-7.7 5.2-8.3 6.2-1.9 3.1-1.1 8.1 3.9 8.6 3 .3 9.7-4.2 11-5 10.7-6.1 20.2-15.8 27.8-26.6 28.4-40.2 30.6-95.6-25.7-40.3" stroke-width="5.419139"/>
    <g stroke-width="5.625">
     <ellipse cx="476.17316" cy="632.43109" rx="62.130169" ry="44.633743" transform="matrix(.88109295 -.47294313 .47294313 .88109295 0 0)"/>
     <path d="m694.1 293.9c26.8-16.4 93.9-57.4 122.3-58.6 28.3-1 38.2 48.4 57.6 47.9 12.7-.3 21.8-11.8 29.6-20.2"/>
    </g>
   </g>
  </g>
 </g>
</svg>
