<svg height="210mm" viewBox="0 0 1052.4 744.1" width="297mm" xmlns="http://www.w3.org/2000/svg">
 <g fill="none" stroke-linecap="round">
  <g transform="translate(0 -308.26772)">
   <path d="m57.6 742.2h948.8" stroke="#969696" stroke-width="1.875"/>
   <g stroke="#000" stroke-dasharray="3.75 7.5" stroke-miterlimit="2" stroke-width=".9375">
    <path d="m58.3 844.1h948.8"/>
    <path d="m58.3 641.8h948.8"/>
    <path d="m58.3 540.6h948.8"/>
   </g>
  </g>
  <g stroke-linejoin="round">
   <path d="m405.2 430.9c5.9-.2 22.1-4.5 37.6-11.7l296.7-136.7" stroke="#000" stroke-width="5.625"/>
   <path d="m320.5 430.9s17.5-30.6 42.1-27.8c18.5 2.1 26.4 27.6 42.7 27.7" stroke="#000" stroke-width="5.625"/>
   <g stroke="#00000c" stroke-width="5.520495">
    <path d="m739.5 282.5-54.8 95.4"/>
    <path d="m749.9 282.5-54.8 95.4"/>
    <path d="m749.9 282.5h-10.4"/>
    <path d="m744.4 282.5-54.8 95.4"/>
    <path d="m695.1 377.9h-10.4"/>
   </g>
  </g>
  <path d="m320.5 430.9c-5.9 9.7-49.4 102.4-49.4 102.4" stroke="#000" stroke-width="5.625"/>
 </g>
</svg>
