<svg height="210mm" viewBox="0 0 1052.4 744.1" width="297mm" xmlns="http://www.w3.org/2000/svg">
 <g fill="none" stroke-linecap="round">
  <g transform="translate(0 -308.26772)">
   <path d="m57.6 742.2h948.8" stroke="#969696" stroke-width="1.875"/>
   <g stroke="#000" stroke-dasharray="3.75 7.5" stroke-miterlimit="2" stroke-width=".9375">
    <path d="m58.3 844.1h948.8"/>
    <path d="m58.3 641.8h948.8"/>
    <path d="m58.3 540.6h948.8"/>
   </g>
  </g>
  <g stroke="#000" stroke-linejoin="round">
   <path d="m865.7 378.8s19.9-41.4 29.9-62.7c4.6-9.5 5.9-16.6 5.2-21.6-.6-4.3-2.8-7.2-5.7-8.9-1.9-1.1-4.2-1.8-6.6-2-3.5-.4-7.4.5-11.4 2.2-6.2 2.7-19.2 13.1-26.9 19.9-9.6 8.7-46.9 42.4-57.7 52.2-21.3 19.5-77.9 69.4-82 73-37.2 32.8-57.1 77.9-53.1 93.6 3.9 15.2 29.5 18.6 57.1-57.2 15.7-47.2 25.8-112.5 71.5-132.1" stroke-width="5.62496"/>
   <path d="m293.4 235-60.8 107.6c-24.8 38.8-52 72.9-91.2 88.5" stroke-width="5.625"/>
   <path d="m141.4 431.1c-3.3 1.1-5.4-2.2-3.9-4.5 3.5-5.3 79.4-37.4 101.4-36.9 8.9.2 16.2 2.2 21.8 6.1 11.3 7.8 18.8 22 25.1 36.8" stroke-width="5.625"/>
   <path d="m285.7 432.7c10 20.3 17.7 49.8 43.8 49.7 23-.6 55.6-29.3 72.3-41.1 53.7-37.8 175.6-142.8 143.6-153.8-14.6-5-42.6 12.2-89.8 90.1-46 79.4-42.2 105.9-22.8 105.6 24.8-.4 65.5-22.5 100-46.6l22.1 47.1" stroke-width="5.624999"/>
   <path d="m555 483.7c13.5-14.6 32.3-32.3 50.8-33.3 17.6-.7 20.1 33.8 33.9 33.8 9 0 13.8-4.7 20.3-10.5" stroke-width="5.625"/>
  </g>
 </g>
</svg>
