<svg height="210mm" viewBox="0 0 1052.4 744.1" width="297mm" xmlns="http://www.w3.org/2000/svg">
 <g fill="none" stroke-linecap="round">
  <g transform="translate(0 -308.26772)">
   <path d="m57.6 742.2h948.8" stroke="#969696" stroke-width="1.875"/>
   <g stroke="#000" stroke-dasharray="3.75 7.5" stroke-miterlimit="2" stroke-width=".9375">
    <path d="m58.3 844.1h948.8"/>
    <path d="m58.3 641.8h948.8"/>
    <path d="m58.3 540.6h948.8"/>
   </g>
  </g>
  <path d="m361.5 431.3 170.2-48.2" stroke="#000" stroke-linejoin="round" stroke-width="5.625"/>
  <g stroke="#00000c">
   <g stroke-linejoin="round" stroke-width="5.625">
    <path d="m531.7 383.1 33.3 47.9"/>
    <path d="m531.7 383.1 24 48"/>
    <path d="m541.2 383.2 23.8 47.9"/>
    <path d="m537.2 383 24 48"/>
   </g>
   <g stroke-width="3.75">
    <path d="m533.9 382.1h7.1"/>
    <path d="m557.4 432h7.1"/>
   </g>
  </g>
  <g stroke="#000" stroke-linejoin="round" stroke-width="5.625">
   <path d="m338.1 383.6 23.4 47.7"/>
   <path d="m565 431s59.1-29.4 75.9-30.3c16-.6 21.6 31 32.6 30.7 7.2-.2 12.4-7.6 16.7-13"/>
  </g>
 </g>
</svg>
