<svg height="210mm" viewBox="0 0 1052.4 744.1" width="297mm" xmlns="http://www.w3.org/2000/svg">
 <g fill="none" stroke-linecap="round">
  <g transform="translate(0 -308.26772)">
   <path d="m57.6 742.2h948.8" stroke="#969696" stroke-width="1.875"/>
   <g stroke="#000" stroke-dasharray="3.75 7.5" stroke-miterlimit="2" stroke-width=".9375">
    <path d="m58.3 844.1h948.8"/>
    <path d="m58.3 641.8h948.8"/>
    <path d="m58.3 540.6h948.8"/>
   </g>
  </g>
  <g stroke="#000" stroke-linejoin="round">
   <ellipse cx="741.27649" cy="-181.92807" rx="4.609393" ry="6.862875" stroke-width="5.625" transform="matrix(.72846687 .68508103 -.68508103 .72846687 0 0)"/>
   <path d="m611.4 384.8c9.9.5 47.6.8 54.4-4.5" stroke-width="5.625"/>
   <path d="m773.2 189.7c-77 152-93.7 206.3-111.7 192" stroke-width="5.624999"/>
   <path d="m446.4 431c29.7-1.8 57.4-27.6 77.5-53.1 17.5-22.2 33-38.6 59.7-41.2 4.4-.4 8.5-.1 12.1.8 3.7.9 7.1 2.4 9.9 4.6 9.5 7.3 12.9 21.9 5.8 42.7" stroke-width="5.625"/>
   <path d="m491.3 335.6c-37.7 9.8-72.1 68.6-60.5 88.7 1.3 2.3 3.3 4.2 5.9 5.3 2.4 1 5.8 1.6 9.6 1.4" stroke-width="5.624999"/>
   <g stroke-width="5.625">
    <path d="m330.8 389.3c-7.4 25.6 5.1 42.3 24.3 41.6 16.4-.6 32.8-10.4 60.3-37.4 23.1-22.8 52.4-45.8 57.3-48.9"/>
    <path d="m820.9 190c-19.9 33.9-69.8 70.5-47.7-.4"/>
   </g>
  </g>
 </g>
</svg>
