<svg height="210mm" viewBox="0 0 1052.4 744.1" width="297mm" xmlns="http://www.w3.org/2000/svg">
 <g fill="none" stroke-linecap="round">
  <g transform="translate(0 -308.26772)">
   <path d="m57.6 742.2h948.8" stroke="#969696" stroke-width="1.875"/>
   <g stroke="#000" stroke-dasharray="3.75 7.5" stroke-miterlimit="2" stroke-width=".9375">
    <path d="m58.3 844.1h948.8"/>
    <path d="m58.3 641.8h948.8"/>
    <path d="m58.3 540.6h948.8"/>
   </g>
  </g>
  <g stroke-linejoin="round" stroke-width="5.625">
   <path d="m206.9 384.8 21.8 46 43.5-42.8" stroke="#000"/>
   <path d="m272.2 387.9c16-14.5 26.9-26.8 40.2-37.7 26.4-23.8 61.3-21.3 31.5 28.5l-31.2 52.3" stroke="#000"/>
   <path d="m312.6 431 90.8-96.4" stroke="#030002"/>
   <g stroke="#000">
    <path d="m612.2 416.2 102.8-80.6 27.8 46.4"/>
    <path d="m742.8 382c58.4-66.3 109.8-55 98.9.3"/>
    <path d="m588 396c17.3-17.1 43.2-43.6 59.3-59.2"/>
    <path d="m564.1 336.6-40.5 75c-10.7 19.8 15 26.5 31.3 14.4 13.8-9.8 33.1-30 33.1-30"/>
   </g>
   <path d="m612.2 416.2c-15.9 11.5-60.4 48.3-74.9 63-25.9 26.2-38.2 42.4-35.3 50.2 1.1 2.9 17.7 21.8 57.3-41.8l88-150.7" stroke="#060000"/>
   <path d="m403.4 334.5 28.7 41.3c12.2 16.6 12 33 10.1 43.7-.8 5.3-1.6 9.9-3 14.4" stroke="#000"/>
   <path d="m453 447c7.9-9 111.1-110.4 111.1-110.4" stroke="#000008"/>
   <ellipse cx="92.608154" cy="650.76953" rx="25.728558" ry="20.371416" stroke="#000" transform="matrix(.79083574 -.61202846 .61202846 .79083574 0 0)"/>
   <path d="m439.7 432.9c-6.4 22.1-24.6 45.1-37.3 47.6-8.7 2.7-7.2-8.7-.3-15.2 6.4-6.1 63.5-27.3 63.5-27.3" stroke="#000"/>
  </g>
 </g>
</svg>
