<svg height="210mm" viewBox="0 0 1052.4 744.1" width="297mm" xmlns="http://www.w3.org/2000/svg">
 <g fill="none" stroke-linecap="round">
  <g transform="translate(0 -308.26772)">
   <path d="m57.6 742.2h948.8" stroke="#969696" stroke-width="1.875"/>
   <g stroke="#000" stroke-dasharray="3.75 7.5" stroke-miterlimit="2" stroke-width=".9375">
    <path d="m58.3 844.1h948.8"/>
    <path d="m58.3 641.8h948.8"/>
    <path d="m58.3 540.6h948.8"/>
   </g>
  </g>
  <g stroke="#000" stroke-linejoin="round">
   <g stroke-width="5.625">
    <path d="m550 347.6c50.5-45.8 101.9-103.9 79.5-111.6-14.6-5-43.2 11.7-91.2 90.2-24.8 40.6-34 60.8-36.5 83.5-2.3 26.8 36.1 22.5 83.9 17"/>
    <path d="m453.4 427.6c23.4-15.1 91.5-74 96.6-80"/>
    <path d="m438.5 431.4-76.5-.4"/>
    <ellipse cx="101.62042" cy="595.64832" rx="25.728558" ry="20.371416" transform="matrix(.79083574 -.61202846 .61202846 .79083574 0 0)"/>
    <ellipse cx="716.39783" cy="-96.160843" rx="4.609393" ry="6.862874" transform="matrix(.72846687 .68508103 -.68508103 .72846687 0 0)"/>
   </g>
   <ellipse cx="693.85632" cy="-79.273705" rx="5.271423" ry="7.848564" stroke-width="14.034715" transform="matrix(.72846687 .68508103 -.68508103 .72846687 0 0)"/>
  </g>
 </g>
</svg>
