<svg height="210mm" viewBox="0 0 1052.4 744.1" width="297mm" xmlns="http://www.w3.org/2000/svg">
 <g fill="none" stroke-linecap="round">
  <g transform="translate(0 -308.26772)">
   <path d="m57.6 742.2h948.8" stroke="#969696" stroke-width="1.875"/>
   <g stroke="#000" stroke-dasharray="3.75 7.5" stroke-miterlimit="2" stroke-width=".9375">
    <path d="m58.3 844.1h948.8"/>
    <path d="m58.3 641.8h948.8"/>
    <path d="m58.3 540.6h948.8"/>
   </g>
  </g>
  <g stroke="#000">
   <path d="m409.2 430.9c56.7-20.6 86.2-145 10.8-71" stroke-linejoin="round" stroke-width="5.419139"/>
   <g stroke-width="5.625">
    <path d="m409.2 430.9 172.4-.4" stroke-linejoin="round"/>
    <path d="m589.8 414.7c1 .1 1.8.3 2.5.7.2.1.4.2.6.4 1.2.9 1.7 2.6 1 5.2-1.3 5.1-7.1 8-9.8 9-5.7 2-9.8-2.6-6.6-7.6 2-3.1 5.5-6.6 9.7-7.5.3-.1.6-.1.9-.1s.7-.1 1-.1c.8 0 1.6.1 2.4.3" stroke-linejoin="round"/>
    <path d="m664.9 319.4s-65.1 103-71.8 104.9"/>
    <path d="m431 285.2c-11.6-2.4-38.2 19.7-50 42.7-10.2 20.1-9.9 41.4 11.4 34.6 20.9-6.6 20.6-31.9 3.5-26.6-16.7 5.2-45.2 35.8-54.7 61.3-19.1 51.6 15 32.7 29.7 20.3" stroke-linejoin="round"/>
    <path d="m420 359.9c-7.6 6.2-42.3 55.7-48.9 57.6"/>
    <path d="m664.9 319.4s36.4-53.1 39.1-56.8c9-12.3 18.4-28.1 34.4-27.3 17.9.9 16 70.9 53.9 25.2" stroke-linejoin="round"/>
   </g>
  </g>
 </g>
</svg>
