<svg height="210mm" viewBox="0 0 1052.4 744.1" width="297mm" xmlns="http://www.w3.org/2000/svg">
 <g fill="none" stroke-linecap="round">
  <g transform="translate(0 -308.26772)">
   <path d="m57.6 742.2h948.8" stroke="#969696" stroke-width="1.875"/>
   <g stroke="#000" stroke-dasharray="3.75 7.5" stroke-miterlimit="2" stroke-width=".9375">
    <path d="m58.3 844.1h948.8"/>
    <path d="m58.3 641.8h948.8"/>
    <path d="m58.3 540.6h948.8"/>
   </g>
  </g>
  <g stroke="#000">
   <g stroke-linejoin="round">
    <path d="m346.4 434.4s74.3-33.9 130.5-35.2c56.1-1.3 71.3 31.4 111 31.6 54.9.3 87.3-37.8 143-94.8" stroke-width="5.625"/>
    <path d="m730.9 336-39.4 73.1c-8.4 15.5 5 26.1 21.5 22.2 2.8-.7 9.1-2.7 14-5.9 5.5-3.6 13.3-9.6 18.1-14.2l27.5-26.1" stroke-width="5.625"/>
    <path d="m346.4 434.4c-27.6 11.6-106.1 66-97.4 92.3.9 3 16.3 22.9 59.8-38.1 26.9-36.9 54.6-73.4 69.3-116.4 7.7-23 5.5-36.6-7.5-36.3-20.2.4-36.3 19.3-104.7 90.9-19.2 20.1-63.3 63-71.1 73.4-6.5 8.7-8.2 18.4-4.1 25 1.8 3 4.9 5.3 9.2 6.7 2.9.9 5.8 1.2 8.7 1 4.5-.3 8.7-1.9 13-5.2 3.1-2.4 6.2-5.7 9.4-10" stroke-width="5.624999"/>
   </g>
   <g stroke-width="5.625">
    <path d="m772.5 385.1 22.1 46.2" stroke-linejoin="round"/>
    <path d="m779.8 385 22.1 46.2" stroke-linejoin="round"/>
    <path d="m772.5 385.1 7.2-.1"/>
    <path d="m776.6 386.4 21 43.9" stroke-linejoin="round"/>
    <path d="m794.6 431.3 7.2-.1"/>
   </g>
  </g>
 </g>
</svg>
