<svg height="210mm" viewBox="0 0 1052.4 744.1" width="297mm" xmlns="http://www.w3.org/2000/svg">
 <g fill="none" stroke-linecap="round">
  <g transform="translate(0 -308.26772)">
   <path d="m57.6 742.2h948.8" stroke="#969696" stroke-width="1.875"/>
   <g stroke="#000" stroke-dasharray="3.75 7.5" stroke-miterlimit="2" stroke-width=".9375">
    <path d="m58.3 844.1h948.8"/>
    <path d="m58.3 641.8h948.8"/>
    <path d="m58.3 540.6h948.8"/>
   </g>
  </g>
  <g stroke="#000">
   <g stroke-width="5.625">
    <g stroke-linejoin="round">
     <path d="m337.4 388.3 209-103.9"/>
     <path d="m362.2 396.6c3.7 10.5-2.8 24.6-14.3 31.3-11.6 6.8-23.9 3.7-27.6-6.8s2.8-24.6 14.3-31.3c11.6-6.8 23.9-3.7 27.6 6.8z"/>
     <path d="m546.4 284.4 22.1 46.2"/>
     <path d="m553.7 284.2 22.1 46.2"/>
    </g>
    <path d="m546.4 284.4 7.2-.1"/>
    <path d="m550.5 285.7 21 43.9" stroke-linejoin="round"/>
    <path d="m568.5 330.6 7.2-.1"/>
    <path d="m575.8 330.5 54.4-67.8c17.9-22.3 34.9-29.6 44.6-26.4 8.8 2.9 12.9 14.2-3.4 42.6l-29.4 51.2" stroke-linejoin="round"/>
   </g>
   <path d="m719.5 281.8-77.5 48.3" stroke-width="5.625001"/>
  </g>
 </g>
</svg>
