<svg height="210mm" viewBox="0 0 1052.4 744.1" width="297mm" xmlns="http://www.w3.org/2000/svg">
 <g fill="none" stroke-linecap="round">
  <g transform="translate(0 -308.26772)">
   <path d="m57.6 742.2h948.8" stroke="#969696" stroke-width="1.875"/>
   <g stroke="#000" stroke-dasharray="3.75 7.5" stroke-miterlimit="2" stroke-width=".9375">
    <path d="m58.3 844.1h948.8"/>
    <path d="m58.3 641.8h948.8"/>
    <path d="m58.3 540.6h948.8"/>
   </g>
  </g>
  <g stroke="#000" stroke-linejoin="round">
   <path d="m359.6 342c64-35.1 128.7-93.9 97.7-104.6-14.6-5-40.2 8.9-87.4 86.8-51.5 89-42 104.6-14.5 106.7 3.8.1 8.6.1 14.4.2" stroke-width="5.625"/>
   <path d="m376.1 419.5c.7.1 1.3.2 1.9.5.2.1.3.2.5.3.9.7 1.2 1.9.7 3.8-1 3.7-5.2 5.8-7.2 6.6-4.1 1.5-7.2-1.9-4.8-5.6 1.5-2.3 4-4.8 7.1-5.5.2 0 .4-.1.6-.1.3 0 .5-.1.8-.1.6 0 1.2.1 1.8.2" stroke-width="5.625"/>
   <path d="m633 431.8c39.5-14.3 65.8-81.1 52.6-93.9-1.7-1.7-4.1-2.4-7.3-2.1-15.7 1.1-303 98.1-308.5 95.3" stroke-width="5.419139"/>
   <g stroke-width="5.625">
    <ellipse cx="320.81561" cy="764.85236" rx="25.728558" ry="20.371416" transform="matrix(.79083574 -.61202846 .61202846 .79083574 0 0)"/>
    <path d="m715 388.9s-110 46.9-81.9 42.9"/>
   </g>
  </g>
 </g>
</svg>
