<svg height="210mm" viewBox="0 0 1052.4 744.1" width="297mm" xmlns="http://www.w3.org/2000/svg">
 <g fill="none" stroke-linecap="round">
  <g transform="translate(0 -308.26772)">
   <path d="m57.6 742.2h948.8" stroke="#969696" stroke-width="1.875"/>
   <g stroke="#000" stroke-dasharray="3.75 7.5" stroke-miterlimit="2" stroke-width=".9375">
    <path d="m58.3 844.1h948.8"/>
    <path d="m58.3 641.8h948.8"/>
    <path d="m58.3 540.6h948.8"/>
   </g>
  </g>
  <g stroke="#000">
   <g stroke-linejoin="round">
    <g stroke-width="5.625">
     <path d="m203.1 432c14.1-39.2 45.7-76.4 94.3-89.7 54.3-14.9 100.4-.2 72 74.5-1.6 4.3-6.9 16.5-6.9 16.5"/>
     <path d="m475.9 421.3c10.6-9.4 30-30.4 47.7-32.3 30.4-3.3 45.4 10.1 35.5 43.9"/>
     <path d="m362.4 433.3s44.6-30.1 61.8-27.2c16.7 2.9 16.1 40.7 43.2 21.8.3-.2 3.8-3 8.5-6.7"/>
    </g>
    <path d="m406 409.9c5.4-2.2 18.6-2.1 26.5 14 5.6 11.4 13.9 8.8 20.5 9.2" stroke-width="4.697919"/>
    <path d="m420.6 408.1c6.7 5.5 6.3.4 21.2 21.5" stroke-width="5.42449"/>
    <g stroke-width="5.625">
     <path d="m559.1 432.9c17.9-11.4 43-29.4 59.8-30.3 16-.6 15.5 31.2 32.6 30.7 11.7-.3 21.5-9 26.1-13"/>
     <path d="m677.6 420.4c6.7-6 56-61.2 56-61.2"/>
     <path d="m722.7 431.3c57.6-20.9 87.6-147.4 11-72.1"/>
    </g>
    <path d="m722.7 431.3 57.4 2.3" stroke-width="5.419139"/>
    <ellipse cx="334.12021" cy="835.77118" rx="25.728558" ry="20.371416" stroke-width="5.625" transform="matrix(.79083574 -.61202846 .61202846 .79083574 0 0)"/>
   </g>
   <path d="m798.2 445.4c.3 9.3-.4 14.6-6.3 21.9-3.6 4.5-8.8 8.3-16 11.1" stroke-width="5.624961"/>
   <path d="m794.6 440.2c2 6.9 1.8 6.4.7 11.6-1.6 7.6-6.1 13.5-12.5 18.7-3.2 2.6-6.9 5-10.9 7.3" stroke-width="6.599955"/>
   <g stroke-width="2.849979">
    <path d="m777.5 472.1c-5.3 3.7-10.3 5.7-16.3 3.5"/>
    <path d="m783.8 435.5c7.4 1.6 9 4 10.4 10.8"/>
   </g>
  </g>
 </g>
</svg>
