<svg height="210mm" viewBox="0 0 1052.4 744.1" width="297mm" xmlns="http://www.w3.org/2000/svg">
 <g fill="none" stroke-linecap="round">
  <g transform="translate(0 -308.26772)">
   <path d="m57.6 742.2h948.8" stroke="#969696" stroke-width="1.875"/>
   <g stroke="#000" stroke-dasharray="3.75 7.5" stroke-miterlimit="2" stroke-width=".9375">
    <path d="m58.3 844.1h948.8"/>
    <path d="m58.3 641.8h948.8"/>
    <path d="m58.3 540.6h948.8"/>
   </g>
  </g>
  <g stroke="#000">
   <g stroke-linejoin="round" stroke-width="5.625">
    <path d="m448.1 396.3c6.4-7.1 32.2-26.9 45.2-34.5 19.3-11.3 50-25.4 83.5-26.2 56.1-1.3 71.3 40.1 111 39.1 23.6-.6 46.5-11.3 63.9-20.4"/>
    <ellipse cx="117.14546" cy="607.71027" rx="25.728558" ry="20.371416" transform="matrix(.79083574 -.61202846 .61202846 .79083574 0 0)"/>
    <path d="m370.9 403.6c15.7-8.4 29.3-15.7 31.5-17.1 7.2-4.5 15.1-9 20.2-13.4 12.8-11.2 18.6-26.1 16.7-30.9-2.8-7.3-34.7-8.6-58.5 30.7-23.3 38.2-19.2 56.1-8.6 58.4 1.4.3 2.8.4 4.4.2 15.2-2.1 36.7-9.2 78.3-41.1"/>
   </g>
   <path d="m419.4 343.4c-30.3 19.2-39.8 50.5-52.2 79" stroke-width="4.6875"/>
   <path d="m412.4 343.4c-17.9 10.4-41.1 45.1-46.5 68.6" stroke-width="4.6875"/>
   <path d="m373 411c-4 10.7-6.4 18.8 3.6 20.4" stroke-width="2.8125"/>
   <path d="m433.8 340.2c-7.4-2.4-11 2.2-15.8 5.2" stroke-width="2.8125"/>
   <path d="m408.9 348.2c-28 20.5-28.9 42.2-43.4 69.6" stroke-width="4.6875"/>
  </g>
 </g>
</svg>
