<svg height="210mm" viewBox="0 0 1133.9 744.1" width="320mm" xmlns="http://www.w3.org/2000/svg">
 <g fill="none" stroke-linecap="round">
  <g transform="translate(0 -308.26772)">
   <path d="m14.1 529.3h1101.5" stroke="#969696" stroke-width="1.875"/>
   <g stroke="#000" stroke-dasharray="3.75 7.5" stroke-miterlimit="2" stroke-width=".9375">
    <path d="m14.8 631.3h1101.5"/>
    <path d="m14.8 428.9h1101.5"/>
    <path d="m14.8 327.7h1101.5"/>
   </g>
   <path d="m14.1 933.5h1101.5" stroke="#969696" stroke-width="1.875"/>
   <g stroke="#000" stroke-dasharray="3.75 7.5" stroke-miterlimit="2" stroke-width=".9375">
    <path d="m14.8 1035.4h1101.5"/>
    <path d="m14.8 833.1h1101.5"/>
    <path d="m14.8 731.9h1101.5"/>
   </g>
  </g>
  <g stroke="#000">
   <path d="m85.1 123.2c-55.4 14.5-101.9 132.4-22.6 83.6 5.7-4.4 7.5-5.7 15-13.2" stroke-linejoin="round" stroke-width="5.625"/>
   <path d="m77.4 193.6s16.1-15.2 24.3-23.2c26.1-25.6 49.5-54.5 99.8-46.5 13.6 8.9 14.4 20.9 14.7 30.6-7.9 43.5-61.2 63.4-81.6 64.2-26.8 1.1-46-21-26.7-50.8 19.6-21.2 26.9-31.3 57-43.8" stroke-linejoin="round" stroke-width="5.633859"/>
   <path d="m213.3 141.6c-14.4 29.1-41.4 56.2-71.3 75.3" stroke-width="5.625"/>
   <path d="m214.5 151c-16.6 22.2-34.5 43.3-56.4 61.1" stroke-width="5.625"/>
   <path d="m213.5 157.8c-14.9 22.5-20.6 30.9-43.5 48.5" stroke-width="7.5"/>
   <path d="m159.9 202.8c-10.5 10-32.1 14.6-39.3 13.1" stroke-width="3.75"/>
   <path d="m204.3 127.2c1.3 2.8 9.6 12.7 1.9 25.5" stroke-width="3.75"/>
   <g stroke-width="5.625">
    <g stroke-linejoin="round">
     <path d="m147 132.7 81.8-62.7 19.1 47.9"/>
     <path d="m295.8 218.5c56.6-73.1 127.8-65.2 107.1.6"/>
     <path d="m496.7 172.2c41.3 3.1 61.8-37.1 58.5-45.8-2.9-7.5-30.3-4.4-54.9 36.2-47.2 77.3-2.2 60.6 29.7 33.8"/>
     <path d="m663.6 124.5-42.4 73.1c-11.9 20.5 8.4 28.3 31.3 14.4 14-6 31.5-15.2 31.5-15.2"/>
     <path d="m684 196.7 150.2-73.9-60.7 94.9"/>
    </g>
    <path d="m979.5 21.7-103.7 196.6"/>
    <g stroke-linejoin="round">
     <path d="m875.8 218.3 88.9-87.2"/>
     <path d="m964.7 131.1c5.8-5.9 11.3-8.3 18.7-9.3 11.9-.6 14.3.7 18.7 3.2 7.6 4.3 8 17.2-6 41.5l-29.8 52.1"/>
     <path d="m1006 133.7-48.9 84.8"/>
     <path d="m1006.6 138.6-45.6 79.9"/>
     <path d="m957.1 218.5 9.3.1"/>
    </g>
   </g>
   <path d="m999.7 124.6c3.7 2.9 3.4 12.6 1.1 16.3" stroke-width="3.75"/>
   <g stroke-linejoin="round" stroke-width="5.625">
    <path d="m966.8 218.2s57.1-42.9 81.8-43.9c24.8-1 15 77.2 56.8 26.8"/>
    <path d="m127.2 622.2c56.6-73.1 127.8-65.2 107.1.6"/>
    <path d="m307.4 575.8c41.3 3.1 61.8-37.1 58.5-45.8-2.9-7.5-30.3-4.4-54.9 36.2-47.2 77.3-2.2 60.6 29.7 33.8"/>
    <path d="m448 528.1-42.4 73.1c-11.9 20.5 8.4 28.3 31.3 14.4 14-6 31.5-15.2 31.5-15.2"/>
    <path d="m468.4 600.3 150.2-73.9-60.7 94.9"/>
    <path d="m93.9 521.8-69.2.5"/>
    <ellipse cx="228.77286" cy="938.09491" rx="25.728558" ry="20.371416" transform="matrix(.79083574 -.61202846 .61202846 .79083574 0 0)"/>
    <path d="m735.8 592.8c-44.9 47.9-87.8 32.5-74.9-11.8"/>
    <path d="m816.3 531.4c-14.1 5-73.3 53.5-73.3 53.5"/>
    <path d="m967.7 566.5c18.1-14.4 47-38.2 69.9-39.3 22.8-.8 30.8 40.3 46.4 39.9 10.2-.3 17.6-9.8 23.8-16.8"/>
    <path d="m903 551.1c10.3-9.6 25-19.9 33.7-22.5 24.4-7.1 38.4 7.9 31.1 37.8"/>
    <path d="m816.3 531.4c6.7-2.9 13.2-4.8 19.3-5.1 21.9-.8 29.6 37.5 44.6 37.1 9.8-.2 16.9-6.8 22.8-12.3"/>
   </g>
  </g>
 </g>
</svg>
