<svg height="210mm" viewBox="0 0 1052.4 744.1" width="297mm" xmlns="http://www.w3.org/2000/svg">
 <g fill="none" stroke-linecap="round">
  <g transform="translate(0 -308.26772)">
   <path d="m57.6 742.2h948.8" stroke="#969696" stroke-width="1.875"/>
   <g stroke="#000" stroke-dasharray="3.75 7.5" stroke-miterlimit="2" stroke-width=".9375">
    <path d="m58.3 844.1h948.8"/>
    <path d="m58.3 641.8h948.8"/>
    <path d="m58.3 540.6h948.8"/>
   </g>
  </g>
  <g stroke="#000" stroke-linejoin="round" stroke-width="5.625">
   <path d="m373.4 431.6c21.7 0 59.1-28.8 77.9-29.4 17.8.1 21.2 28.2 42.8 28.6 12.8-1.9 29.1-22.6 35.8-31.7"/>
   <path d="m373.4 431.6c-12.5.8-23.8-22.3-41.8-22.9-18.2-.4-20.1 21.6-3.5 22.4 8.5.4 19.6-3.7 43.1-42.5 45-73.7-8-54.1-28.4-32.3"/>
   <path d="m529.8 399.1c11.1-12.7 41.8-47.4 45.5-50.4 23.7-19.2 60.9-14.6 37.5 14.4-27.4 33.8-45.5 50.2-39.4 63.9 2 4.4 7.7 5.1 13.8 4.5"/>
   <path d="m587.2 431.4c21.9-1.9 61-30.4 82.3-30 16-.6 21.6 31 32.6 30.7 7.2-.2 12.4-7.6 16.7-13"/>
  </g>
 </g>
</svg>
