<svg height="210mm" viewBox="0 0 1052.4 744.1" width="297mm" xmlns="http://www.w3.org/2000/svg">
 <g fill="none" stroke-linecap="round">
  <g transform="translate(0 -308.26772)">
   <path d="m57.6 742.2h948.8" stroke="#969696" stroke-width="1.875"/>
   <g stroke="#000" stroke-dasharray="3.75 7.5" stroke-miterlimit="2" stroke-width=".9375">
    <path d="m58.3 844.1h948.8"/>
    <path d="m58.3 641.8h948.8"/>
    <path d="m58.3 540.6h948.8"/>
   </g>
  </g>
  <g stroke="#000" stroke-linejoin="round">
   <ellipse cx="771.29321" cy="-247.85825" rx="4.609393" ry="6.862875" stroke-width="5.625" transform="matrix(.72846687 .68508103 -.68508103 .72846687 0 0)"/>
   <path d="m467.4 431.6 265.5-78.7" stroke-width="5.624999"/>
   <path d="m726.3 353.2c7 4.2 6.3 5.6 16.1 6.1 22.2 1.2 49.5-23.5 74-23.3 19.9.2 16.4 30.7 34.5 30.7 8.7 0 14.1-5.3 19.4-11.5" stroke-width="5.625"/>
   <path d="m519.5 336.2-52.2 95.4" stroke-width="5.624999"/>
   <g stroke-width="5.625">
    <path d="m318.6 431.5s44.6-32.4 61.8-29.2c16.2 3 15.6 40.6 40.7 25.2.8-.5 3.7-1.9 7.3-4.5 21-15.5 42.4-35.3 91.1-86.8"/>
    <path d="m361.4 406.4c14.2-6.2 18.4-1.6 28.2 14.6 5.2 8.6 9 11.2 21.1 10.2"/>
    <path d="m378.9 404.1c6.7 5.9 4.2.8 19 23.4"/>
   </g>
  </g>
 </g>
</svg>
