<svg height="210mm" viewBox="0 0 1052.4 744.1" width="297mm" xmlns="http://www.w3.org/2000/svg">
 <g fill="none" stroke="#000" stroke-linecap="round">
  <g transform="translate(0 -308.26772)">
   <path d="m57.6 742.2h948.8" stroke-width="1.875"/>
   <g stroke-dasharray="3.75 7.5" stroke-miterlimit="2" stroke-width=".9375">
    <path d="m58.3 844.1h948.8"/>
    <path d="m58.3 641.8h948.8"/>
    <path d="m58.3 540.6h948.8"/>
   </g>
  </g>
  <g stroke-linejoin="round">
   <path d="m257.8 337c-40.3 12.4-78.1 79.1-59.9 92.3 7.2 4.9 16.1 2.8 24.7.1 5.8-1.8 323.7-145.2 342.5-150.5" stroke-width="5.625"/>
   <path d="m521.3 374.6c53.5-17.9 87.7-112.6 43.8-95.7" stroke-width="5.419139"/>
   <g stroke-width="5.625">
    <path d="m521.3 374.6c-21.3-2.4 84.2-38.1 97.9-38.6 19.9-.7 20 35.1 35.1 34.9"/>
    <path d="m654.3 370.9c20.8-1 66.2-67.5 81.3-88.6"/>
    <path d="m735.6 282.3 49.2-71.8c11.1-11.9 18.5-20.1 26.8-27.5 11.2-10 20.1-9.6 25.5-8.3 19.1 4.5 11.2 19.6-4.7 41-15 20.3-24.5 36.8-43.1 61.9-26.3 35.4-55 68-47.8 86.2 4.1 8 10.7 10.3 18.5 8.9"/>
    <path d="m847.2 196.9c-.8 5.4-.7 9.8-5.7 20l-93.8 134.9-1.8 13.5"/>
   </g>
   <path d="m842.3 207.1-67.9 98.8-28.6 41.8-2.2 10.7" stroke-width="8.4375"/>
   <path d="m758.4 337.9c-5.1 7.7-10 15.6-10 22.5 0 3.1 0 6.1 2.7 8.3 1.9 1.5 3.7 4.1 9.9 2.9" stroke-width="3.75"/>
   <path d="m848.1 180.5c2.8 5.2 2.1 16.5-1 26.4-1.6 5.1-4.3 10.5-8.7 16.2" stroke-width="3.75"/>
   <path d="m761 372.5c14.3-1.6 59.7-31.3 72.2-31.8 21.3.3 13.9 32 30.3 31.6 10.8-.2 15.9-9.7 17.6-13.3" stroke-width="5.625"/>
  </g>
 </g>
</svg>
