<svg height="210mm" viewBox="0 0 1052.4 744.1" width="297mm" xmlns="http://www.w3.org/2000/svg">
 <g fill="none" stroke-linecap="round">
  <g transform="translate(0 -308.26772)">
   <path d="m57.6 742.2h948.8" stroke="#969696" stroke-width="1.875"/>
   <g stroke="#000" stroke-dasharray="3.75 7.5" stroke-miterlimit="2" stroke-width=".9375">
    <path d="m58.3 844.1h948.8"/>
    <path d="m58.3 641.8h948.8"/>
    <path d="m58.3 540.6h948.8"/>
   </g>
  </g>
  <path d="m368.4 408c-10.7 10.1-21 16.3-28.1 19.6-61.3 29 33.8-137 77.9-183.7 4.7-5 11.2-10.7 18.9-11.9" stroke="#010f06" stroke-linejoin="round" stroke-width="5.625"/>
  <g stroke="#000">
   <g stroke-linejoin="round">
    <path d="m368.4 408c35.8-33.5 81.9-104.5 111.4-140 11.1-11.9 18.5-20.1 26.8-27.5 11.2-10 20.1-9.6 25.5-8.3 19.1 4.5 11.2 19.6-4.7 41-15 20.3-24.5 36.8-43.1 61.9-26.3 35.4-55 68-47.8 86.2 6.3 12.1 17.9 11.4 30.9 4.4 6.1-3.3 20.5-12.6 26.8-17.9" stroke-width="5.625"/>
    <path d="m542.2 254.4c-.8 5.4-.7 9.8-5.7 20l-93.8 134.9-1.8 13.5" stroke-width="5.625"/>
    <path d="m537.3 264.6-67.9 98.8-28.6 41.8-2.2 10.7" stroke-width="8.4375"/>
    <g stroke-width="3.75">
     <path d="m453.4 395.4c-5.1 7.7-10 15.6-10 22.5 0 3.1 0 6.1 2.7 8.3 1.9 1.5 3.7 4.1 9.9 2.9"/>
     <path d="m543 238c2.8 5.2 2.1 16.5-1 26.4-1.6 5.2-4.3 10.6-8.7 16.2"/>
    </g>
   </g>
   <g stroke-width="5.625">
    <path d="m715.5 234.3-113.1 196.5"/>
    <g stroke-linejoin="round">
     <path d="m602.4 430.8 88.9-87.2"/>
     <path d="m691.4 343.6c5.8-5.9 11.3-8.3 18.7-9.3 11.9-.6 14.3.7 18.7 3.2 7.6 4.3 8 17.2-6 41.5l-29.8 52.1"/>
     <path d="m732.6 346.2-48.9 84.8"/>
     <path d="m733.2 351.1-45.6 79.9"/>
     <path d="m683.7 431.1 9.3.1"/>
    </g>
   </g>
   <path d="m726.3 337.2c3.7 2.9 3.4 12.6 1.1 16.3" stroke-width="3.75"/>
   <path d="m714.6 235.3c-7.7 4.8-76.1 105.9-123.8 154.9-43.9 50-87.4 50.9-95.2 24.4-.7-2.3-1.1-4.7-1.2-7.4" stroke-linejoin="round" stroke-width="5.625"/>
  </g>
 </g>
</svg>
