<svg height="210mm" viewBox="0 0 1052.4 744.1" width="297mm" xmlns="http://www.w3.org/2000/svg">
 <g fill="none" stroke-linecap="round">
  <g transform="translate(0 -308.26772)">
   <path d="m57.6 742.2h948.8" stroke="#969696" stroke-width="1.875"/>
   <g stroke="#000" stroke-dasharray="3.75 7.5" stroke-miterlimit="2" stroke-width=".9375">
    <path d="m58.3 844.1h948.8"/>
    <path d="m58.3 641.8h948.8"/>
    <path d="m58.3 540.6h948.8"/>
   </g>
  </g>
  <g stroke-width="5.625">
   <g stroke="#000">
    <g stroke-linejoin="round">
     <path d="m315.8 283c14.8 4.9 63-29.9 45.4-44.6-14.4-12.1-36.8-2.1-45.5 22.4-4.9 13.8-3.1 34.6-6.7 53.9-3.7 20-43.6 46.6-64.3 69.8-22.3 25-24.5 49.5.9 46.6 8.9-1 16.6-3.6 28.8-12.3"/>
     <path d="m274.4 418.9c3.8-2.8 7.9-5.5 12.7-8 11-5.7 22.2-10.1 29.1-8.8 17.2 3.2 16 46.2 45.6 21.5"/>
     <path d="m297.9 406.1c5.4-2.4 18.6-2.2 26.5 15 5.6 12.2 13.9 9.5 20.5 9.9"/>
     <path d="m312.5 404.2c6.7 5.9 6.3.5 21.2 23.1"/>
    </g>
    <path d="m439.7 319.3c-51.2 76.8-70.3 99.9-77.9 104.3"/>
    <path d="m439.7 319.3s36.4-53.1 39.1-56.8c9-12.3 18.4-28.1 34.4-27.3 17.9.9 16 70.9 53.9 25.2" stroke-linejoin="round"/>
   </g>
   <g stroke-linejoin="round">
    <path d="m559.8 335.7-56.7 94.9 57.2-35.8" stroke="#0a0000"/>
    <path d="m769.1 385.5c-194.6 44.4-227.1 68-208.8 9.3" stroke="#000"/>
    <path d="m769.1 385.5 20.2 45.3 48.5-95.1" stroke="#060000"/>
   </g>
  </g>
 </g>
</svg>
