<svg height="210mm" viewBox="0 0 1052.4 744.1" width="297mm" xmlns="http://www.w3.org/2000/svg">
 <g fill="none" stroke-linecap="round">
  <g transform="translate(0 -308.26772)">
   <path d="m57.6 742.2h948.8" stroke="#969696" stroke-width="1.875"/>
   <g stroke="#000" stroke-dasharray="3.75 7.5" stroke-miterlimit="2" stroke-width=".9375">
    <path d="m58.3 844.1h948.8"/>
    <path d="m58.3 641.8h948.8"/>
    <path d="m58.3 540.6h948.8"/>
   </g>
  </g>
  <g stroke="#000" stroke-width="5.625">
   <g stroke-linejoin="round">
    <path d="m522.5 431 39.7-48.1 31.4 47.9"/>
    <path d="m593.5 430.8c10.6-29.5 37.5-45.4 55.9-46.9 22.7-1.9 34.6 15.7 26.9 46.9"/>
    <path d="m676.4 430.8 39.7-48.1 31.4 47.9"/>
    <path d="m196.5 431s41.9-26.3 90.6-27.2 61.9 26.5 96.3 26.5c25.8.1 43.9-11.4 54.8-17.9"/>
    <path d="m438.3 412.4c11.5-7.2 20.9-12.2 30.9-18.6 9.1-5.8 18.5-9.1 26.3-9.8 22.7-1.9 34.6 15.7 26.9 46.9"/>
   </g>
   <path d="m859.2 237.4-111.7 193.2"/>
  </g>
 </g>
</svg>
