<svg height="210mm" viewBox="0 0 1052.4 744.1" width="297mm" xmlns="http://www.w3.org/2000/svg">
 <g fill="none" stroke-linecap="round">
  <g transform="translate(0 -308.26772)">
   <path d="m57.6 742.2h948.8" stroke="#969696" stroke-width="1.875"/>
   <g stroke="#000" stroke-dasharray="3.75 7.5" stroke-miterlimit="2" stroke-width=".9375">
    <path d="m58.3 844.1h948.8"/>
    <path d="m58.3 641.8h948.8"/>
    <path d="m58.3 540.6h948.8"/>
   </g>
  </g>
  <g stroke="#000">
   <g stroke-width="5.625">
    <g stroke-linejoin="round">
     <path d="m216.2 334c54.3-11 95.5-79.5 89.2-96.2-5.5-14.4-40.2 8.9-87.4 86.8-25.7 44.4-37.3 72.8-39.5 89.1-1.5 10.7 1.1 16.1 6.4 17.3"/>
     <path d="m652.9 326.5 102.8-70.6c41.5-28.5 69.4-29.2 41.4 18.5l-92.1 157.2 32.5-28.3"/>
     <path d="m737.6 403.4c56.1-42.9 182.5-164.5 146.7-167.5-15.3-1.3-42.6 12.2-89.8 90.1-60.3 104.2-35 118.2-1.1 97.4 2.5-.7 12.4-9.2 22.4-19.3"/>
    </g>
    <path d="m867.8 240.5c-48 60-85.7 120.5-108.4 181.8"/>
   </g>
   <path d="m856.8 250.6c-38.3 44.9-72.9 96.9-94.8 156.8" stroke-width="7.5"/>
   <path d="m886.2 237c-14-7.4-25.6 13.8-28 16.8" stroke-width="3.75"/>
   <path d="m765 408.1c-6.1 21.8-1.8 23 13.1 22.7" stroke-width="5.625"/>
  </g>
  <g stroke-linejoin="round" stroke-width="5.625">
   <path d="m184.9 431c25.6 5.2 248.4-33.5 266.6-33.1 13.4.3 19.7 33.3 37.6 33.3" stroke="#030002"/>
   <path d="m489.1 431.1c23.6-2.8 163.8-104.6 163.8-104.6" stroke="#00000c"/>
  </g>
 </g>
</svg>
