<svg height="210mm" viewBox="0 0 1052.4 744.1" width="297mm" xmlns="http://www.w3.org/2000/svg">
 <g fill="none" stroke-linecap="round">
  <g transform="translate(0 -308.26772)">
   <path d="m57.6 742.2h948.8" stroke="#969696" stroke-width="1.875"/>
   <g stroke="#000" stroke-dasharray="3.75 7.5" stroke-miterlimit="2" stroke-width=".9375">
    <path d="m58.3 844.1h948.8"/>
    <path d="m58.3 641.8h948.8"/>
    <path d="m58.3 540.6h948.8"/>
   </g>
  </g>
  <g stroke="#000">
   <g stroke-linejoin="round">
    <g stroke-width="5.625">
     <ellipse cx="781.52924" cy="-219.7233" rx="4.609393" ry="6.862875" transform="matrix(.72846687 .68508103 -.68508103 .72846687 0 0)"/>
     <path d="m694.7 384.9c9.9.5 19.5.8 26.3-4.5"/>
     <path d="m529.7 431.1c29.7-1.8 57.4-27.6 77.5-53.1 17.5-22.2 33-38.6 59.7-41.2 4.4-.4 8.5-.1 12.1.8 3.7.9 7.1 2.4 9.9 4.6 9.5 7.3 12.9 21.9 5.8 42.7"/>
    </g>
    <path d="m574.7 335.7c-37.7 9.8-72.1 68.6-60.5 88.7 1.3 2.3 3.3 4.2 5.9 5.3 2.4 1 5.8 1.6 9.6 1.4" stroke-width="5.624999"/>
    <g stroke-width="5.625">
     <path d="m763.1 491.5c14.8-7.7 32.2-16.2 28.9-34.4-.6-10.3-25.7-27.9-44-45.3-4.9-4.6-20.2-17.9-29.5-27.6"/>
     <path d="m763.1 491.5c-2.9 1.3-6.3-3.1-3-5.8 4.7-3.9 70.3-25.1 79.4-25.3 16.7-.3 19.8 30.7 32.6 30.7 7.2 0 11.9-5.2 16.7-9.2"/>
     <path d="m312.7 374.8c-7.5 3.6-16.3 6.2-23.9 5.5-9.8-1-17.5-10.1-12.6-21.2 1.8-4 4.9-8.5 9.1-13.7 2.6-3.2 8.4-9.7 11.8-13.4 5.1-5.6 10.9-11.8 16.8-19 8.2-9.9 8.8-18.2 5.1-23.4-1.5-2.2-3.8-3.8-6.6-4.7-2.6-.9-5.7-1.2-9-.9-14.1 1-40.3 24.1-61.4 44.1-17.8 16.9-80.1 79.6-105.9 102.8"/>
     <path d="m312.7 374.8 191.7-90.3"/>
     <path d="m136.1 430.9 60.6-108.1c26.4-48.6 52-72.9 91.2-88.5"/>
     <path d="m504.4 284.5 22.1 46.2"/>
     <path d="m511.6 284.3 22.1 46.2"/>
    </g>
   </g>
   <g stroke-width="5.625">
    <path d="m504.4 284.5 7.2-.1"/>
    <path d="m508.4 285.8c-2.6-2.4 7.3 17.4 21 43.9" stroke-linejoin="round"/>
    <path d="m526.4 330.7 7.2-.1"/>
   </g>
  </g>
 </g>
</svg>
