<svg height="210mm" viewBox="0 0 1052.4 744.1" width="297mm" xmlns="http://www.w3.org/2000/svg">
 <g fill="none" stroke-linecap="round">
  <g transform="translate(0 -308.26772)">
   <path d="m57.6 742.2h948.8" stroke="#969696" stroke-width="1.875"/>
   <g stroke="#000" stroke-dasharray="3.75 7.5" stroke-miterlimit="2" stroke-width=".9375">
    <path d="m58.3 844.1h948.8"/>
    <path d="m58.3 641.8h948.8"/>
    <path d="m58.3 540.6h948.8"/>
   </g>
  </g>
  <g stroke="#000" stroke-width="5.625">
   <g stroke-linejoin="round">
    <path d="m671.7 389c17.1-2.7 24.5 0 28.1 3.5 8.2 8 7.7 19.8-3.6 39.5l-29.8 52.1"/>
    <path d="m483.3 336-37 73.6c-7.9 15.7 0 23.4 14.5 21 5.1-.9 210.9-41.6 210.9-41.6"/>
    <path d="m666.3 484.1 68-47.5"/>
    <path d="m731.7 586.5c28.5-22.6 35.5-31.4 39-55.7 1.8-12.5-2.6-28-12.8-37.6-10.2-9.9-26.2-14.8-34.2-23.2-6-6.3-3.5-21.5 10.6-33.5"/>
    <path d="m442.6 381.7c-34.2 40-50.4 48.1-66.8 49.4-20.9 1.8-33.4-14.4-25.6-41"/>
   </g>
   <path d="m442.6 381.7 40.7-45.7"/>
  </g>
 </g>
</svg>
