<svg height="210mm" viewBox="0 0 1052.4 744.1" width="297mm" xmlns="http://www.w3.org/2000/svg">
 <g fill="none" stroke-linecap="round">
  <g transform="translate(0 -308.26772)">
   <path d="m57.6 742.2h948.8" stroke="#969696" stroke-width="1.875"/>
   <g stroke="#000" stroke-dasharray="3.75 7.5" stroke-miterlimit="2" stroke-width=".9375">
    <path d="m58.3 844.1h948.8"/>
    <path d="m58.3 641.8h948.8"/>
    <path d="m58.3 540.6h948.8"/>
   </g>
  </g>
  <g stroke="#000" stroke-linejoin="round" stroke-width="5.625">
   <path d="m768.8 396.5 50.2-41.3"/>
   <path d="m681.5 376.3c11.5-15.6 27.2-33.2 37.5-37.5 20.5-8.5 40.8-.1 22.1 23.1-27.4 33.8-45.5 50.2-39.4 63.9 4.2 9.5 23.3 7.4 36.5-3.7l30.6-25.6"/>
   <ellipse cx="574.9726" cy="742.1673" rx="62.130169" ry="44.633743" transform="matrix(.88109295 -.47294313 .47294313 .88109295 0 0)"/>
   <path d="m576.1 533.4 105.4-157.1"/>
   <path d="m394.4 296.7c-15.8 9.2-156.6 148.9-183.3 182.2-22.1 27.7-32.9 47.3-27.8 52.1 4.4 4.2 34.7 12.4 62.3-63.3 15.8-47.4 16.5-113.3 70.8-131.6"/>
   <path d="m288 353.3s-68.3 63.3-81.7 71.5c-4.6 3.6-11.2 5.3-14 6-16.5 3.8-29.8-6.7-21.5-22.2l39-72.4"/>
   <path d="m394.4 296.7c23.7-19.2 60.9-14.6 37.5 14.4-27.4 33.8-45.5 50.2-39.4 63.9 2.4 5.5 9.7 8.2 18 6.8 6.2-1 16-3.5 34.2-19.7"/>
   <path d="m444.7 362.1 20.7-20.2"/>
   <path d="m472.1 480.1c28.5-22.6 35.5-31.4 39-55.7 1.8-12.5-2.6-28-12.8-37.6-5-4.7-11-8.4-17-11.7-8.5-4.8-11.8-5.8-17.2-11.5-6-6.3-5-21.2 9.8-27.5"/>
   <ellipse cx="165.11533" cy="707.60516" rx="25.728558" ry="20.371416" transform="matrix(.79083574 -.61202846 .61202846 .79083574 0 0)"/>
   <path d="m557.4 438.6s-107.7 40.2-85.3 41.5"/>
  </g>
 </g>
</svg>
