<svg height="210mm" viewBox="0 0 1052.4 744.1" width="297mm" xmlns="http://www.w3.org/2000/svg">
 <g fill="none" stroke-linecap="round">
  <g transform="translate(0 -308.26772)">
   <path d="m57.6 742.2h948.8" stroke="#969696" stroke-width="1.875"/>
   <g stroke="#000" stroke-dasharray="3.75 7.5" stroke-miterlimit="2" stroke-width=".9375">
    <path d="m58.3 844.1h948.8"/>
    <path d="m58.3 641.8h948.8"/>
    <path d="m58.3 540.6h948.8"/>
   </g>
  </g>
  <g stroke="#000">
   <g stroke-linejoin="round">
    <g stroke-width="5.625">
     <path d="m405.4 431.1s135.1 2 180.5-1.2c9.4-.7 15.7-1.9 23.5-8.5"/>
     <ellipse cx="728.07605" cy="-110.79063" rx="4.609393" ry="6.862874" transform="matrix(.72846687 .68508103 -.68508103 .72846687 0 0)"/>
     <path d="m603.6 425.4c7 4.2 13.6 6.2 23.4 6.1 29-.3 53.2-31 77.8-30.8 19.9.2 16.4 30.7 34.5 30.7 8.7 0 14.1-5.3 19.4-11.5"/>
     <path d="m405.4 431.1c7.9-5.8 14.1-11.8 20.6-18.4 4.2-4.3 8.1-9 11.6-14 3.1-4.4 5.9-8.9 8.3-13.4 5.6-10.5 9.4-21 10.7-29.5.8-5.3.8-9.9-.3-13.3-1.2-3.7-3.5-6.1-7.2-6.5-3.5-.4-8.1.9-14.1 4.3-3.7 2.1-11.8 8.5-19 16.7-10.5 12.1-31.2 40.5-43.9 53.3-9.9 10.1-21.1 20.5-38.6 20.9-13.2.1-22.2-9.6-15-23l38.9-72.5-94.3 95.2"/>
    </g>
    <g stroke-width="6.562499">
     <path d="m367 336.2-47.5 81.9"/>
     <path d="m362.4 336.2-38.7 70.9-3.8 16.5"/>
     <path d="m367 336.2h-9.3"/>
    </g>
   </g>
   <path d="m328.9 404.8c-6 9.6-9.9 25.1 3.6 25.5" stroke-width="3.749999"/>
  </g>
 </g>
</svg>
