<svg height="210mm" viewBox="0 0 1052.4 744.1" width="297mm" xmlns="http://www.w3.org/2000/svg">
 <g fill="none" stroke-linecap="round">
  <g transform="translate(0 -308.26772)">
   <path d="m57.6 742.2h948.8" stroke="#969696" stroke-width="1.875"/>
   <g stroke="#000" stroke-dasharray="3.75 7.5" stroke-miterlimit="2" stroke-width=".9375">
    <path d="m58.3 844.1h948.8"/>
    <path d="m58.3 641.8h948.8"/>
    <path d="m58.3 540.6h948.8"/>
   </g>
  </g>
  <g stroke="#000">
   <g stroke-linejoin="round" stroke-width="5.625">
    <path d="m594.2 335.2-43.7 72.7c-9.1 15.1 5 26.1 21.5 22.2 13.3-3.3 21-11.4 30.9-23.4 5.3-6.2 12-15.7 17.5-23.7"/>
    <path d="m530.2 397c30.2-27.5 64-61.8 64-61.8"/>
    <path d="m332.2 406.6c14.9-6.9 31-12 44.6-12.5 39.8-1.5 60.3 36.7 94.6 36.8 25.7.1 42-19 52.9-28.7 1.1-1.1 6-5.3 6-5.3"/>
    <path d="m247.9 391.5c-7.9 27 6 40.7 29.6 39.6 17.1-.8 38.3-17.5 54.7-24.5"/>
    <path d="m620.7 382.7 33.3 47.9"/>
    <path d="m620.7 382.7 24 48"/>
    <path d="m630.1 382.7 23.8 47.9"/>
    <path d="m626.2 382.6 24 48"/>
   </g>
   <path d="m620.5 381.8 9.5-.1" stroke-width="3.75"/>
   <path d="m644.5 431.6h9" stroke-width="3.75"/>
   <path d="m654 430.6c.6.4 60.9-29.4 73.5-30.5 26.9-2.3 13.1 36 37.8 30.8 8.4-1.8 15.1-7.3 21.2-14.4" stroke-linejoin="round" stroke-width="5.625"/>
  </g>
 </g>
</svg>
