<svg height="210mm" viewBox="0 0 1052.4 744.1" width="297mm" xmlns="http://www.w3.org/2000/svg">
 <g fill="none" stroke-linecap="round">
  <g transform="translate(0 -308.26772)">
   <path d="m57.6 742.2h948.8" stroke="#969696" stroke-width="1.875"/>
   <g stroke="#000" stroke-dasharray="3.75 7.5" stroke-miterlimit="2" stroke-width=".9375">
    <path d="m58.3 844.1h948.8"/>
    <path d="m58.3 641.8h948.8"/>
    <path d="m58.3 540.6h948.8"/>
   </g>
  </g>
  <g stroke="#000" stroke-linejoin="round" stroke-width="5.625">
   <path d="m315.3 386.7c40 3 59.7-35.8 56.6-44.3-5.4-14.5-29.3-4.3-53.1 35-42.2 69.1-7 59.4 23.6 38.4 2.9-2 10.4-7.7 18.1-16.2"/>
   <path d="m523.6 205.4c-28.1 31.3-142.7 169.7-163.1 194.3"/>
   <path d="m483 378.2c-8.9 4.7-24.7 6.2-36.4.6-35.6-17 45.5-140.7 86.7-184.3 4.7-5 12.2-11.7 22.6-13.1"/>
   <path d="m486.4 370.1c.5 0 1 .2 1.3.3.1.1.2.1.3.2.6.5.9 1.4.5 2.7-.7 2.7-3.7 4.2-5.2 4.8-3 1.1-5.2-1.4-3.5-4 1.1-1.6 2.9-3.5 5.1-3.9.1 0 .3-.1.4-.1h.5c.4 0 .8.1 1.3.2"/>
   <path d="m483 378.2c25.6 15.2 239.6-81.9 246.6-85.6 7.2-3.8 15-6.4 22.2-7.7 20-3.5 35.2 3.4 17.9 24.7-27.4 33.8-45.5 50.2-39.4 63.9 4.2 9.5 21.8 5.3 36.5-3.7l19.7-12"/>
  </g>
 </g>
</svg>
