<svg height="210mm" viewBox="0 0 1052.4 744.1" width="297mm" xmlns="http://www.w3.org/2000/svg">
 <g fill="none" stroke-linecap="round">
  <g transform="translate(0 -308.26772)">
   <path d="m57.6 742.2h948.8" stroke="#969696" stroke-width="1.875"/>
   <g stroke="#000" stroke-dasharray="3.75 7.5" stroke-miterlimit="2" stroke-width=".9375">
    <path d="m58.3 844.1h948.8"/>
    <path d="m58.3 641.8h948.8"/>
    <path d="m58.3 540.6h948.8"/>
   </g>
  </g>
  <g stroke="#000" stroke-linejoin="round">
   <g stroke-width="5.625">
    <ellipse cx="94.971855" cy="462.95099" rx="25.728558" ry="20.371416" transform="matrix(.79083574 -.61202846 .61202846 .79083574 0 0)"/>
    <path d="m555.5 330.9-69.2.5"/>
    <path d="m659.8 330.6c-12.9-9.6 74.6-32.7 93.7-33.6 18.1-.7 22.6 33.3 35.1 32.9 8.2-.2 14-8.6 19-14.7"/>
   </g>
   <path d="m659.8 330.6c3 .3 9.7-4.2 11-5 43.6-24.9 66.5-108.1 26.9-86.7-9.8 6.4-20.7 14.8-29 24.9" stroke-width="5.419139"/>
   <g stroke-width="5.638243">
    <path d="m711.9 239.2c2.3 32.7-17.1 62.2-38.1 82.5"/>
    <path d="m714.5 241.5c5.2 34.8-19.9 69.4-45 83.3"/>
    <path d="m707.2 237.8c3.6 34.1-21.2 69-37.7 86.9"/>
   </g>
   <g stroke-width="2.819121">
    <path d="m699.8 237.6c7.9-3.1 5.9 10.5 5.9 15.8"/>
    <path d="m676 315c-5.5 6.9-8.3 10.7-14.3 14.1"/>
   </g>
  </g>
 </g>
</svg>
