<svg height="210mm" viewBox="0 0 1052.4 744.1" width="297mm" xmlns="http://www.w3.org/2000/svg">
 <g fill="none" stroke-linecap="round">
  <g transform="translate(0 -308.26772)">
   <path d="m57.6 742.2h948.8" stroke="#969696" stroke-width="1.875"/>
   <g stroke="#000" stroke-dasharray="3.75 7.5" stroke-miterlimit="2" stroke-width=".9375">
    <path d="m58.3 844.1h948.8"/>
    <path d="m58.3 641.8h948.8"/>
    <path d="m58.3 540.6h948.8"/>
   </g>
  </g>
  <g stroke="#000005">
   <path d="m389.8 430.6c15.7-15.8 54.7-38.7 72.2-41.6 10.5 1.8 12.5 11.1 12.5 11.1.5 11-1.9 18.4-13.6 27.5-11.9 6.9-20.7 1.5-22.7-5.2-1.3-2.1 0-11.8 3.9-20.3 1-2.2 9.7-10.2 9.7-10.2" stroke-linejoin="round" stroke-width="5.625"/>
   <path d="m471.9 398.3c.5 12.9-3.8 25.3-20.1 31.7" stroke-width="4.829889"/>
   <path d="m467.4 391.6c5.7 19.1-4.4 28.3-19.2 36.8" stroke-width="5.66707"/>
   <g stroke-width="2.447143">
    <path d="m452.9 423.6c-4.4 3.6-10.2 6.9-14.1-1.7"/>
    <path d="m457.3 391c7.3-1.3 10 3 9.9 8.6"/>
   </g>
  </g>
  <g stroke="#000" stroke-linejoin="round">
   <g stroke-width="6.200544">
    <path d="m540.4 421.3s46-30.5 63.2-26.5c17.1 3.9 15.9 56.4 45.4 26.3"/>
    <path d="m585.4 397.8c5.4-2.9 18.5-.8 26.4 20.2 5.6 15 13.9 11.6 20.4 12.1"/>
    <path d="m599.9 397.3c6.6 7.2 6.3.6 21 28.2"/>
   </g>
   <path d="m461.9 389.1c25.8-1.7 69.4-5 88.6-17.9 15.2-10.2 25-26.5 23.1-31.7-2.9-7.5-30.4-4.4-55.2 36.4-23.3 38.1-23.3 53.8-13.5 55.4 11 1.8 17.4.3 35.5-10" stroke-width="5.625"/>
  </g>
 </g>
</svg>
