<svg height="210mm" viewBox="0 0 1052.4 744.1" width="297mm" xmlns="http://www.w3.org/2000/svg">
 <g fill="none" stroke-linecap="round">
  <g transform="translate(0 -308.26772)">
   <path d="m57.6 742.2h948.8" stroke="#969696" stroke-width="1.875"/>
   <g stroke="#000" stroke-dasharray="3.75 7.5" stroke-miterlimit="2" stroke-width=".9375">
    <path d="m58.3 844.1h948.8"/>
    <path d="m58.3 641.8h948.8"/>
    <path d="m58.3 540.6h948.8"/>
   </g>
  </g>
  <g stroke="#000" stroke-linejoin="round">
   <g stroke-width="5.625">
    <path d="m410.6 336.4-53.9 94.9"/>
    <path d="m421.1 336.3-53.9 94.9"/>
    <path d="m421.1 336.3h-10.6"/>
    <path d="m415.6 336.4-53.9 94.9"/>
    <path d="m367.2 431.2h-10.6"/>
   </g>
   <path d="m356.2 235.4s-66.1 127.2-85.7 164.6c-8.4 18.4 1.8 31.1 17.2 31.3 18.2-.5 29.6-12.4 44.5-24.3 10.4-8.5 78.4-70.6 78.4-70.6" stroke-width="5.624999"/>
   <g stroke-width="5.625">
    <path d="m367.2 431.2s83.9-77.5 95.2-84.7"/>
    <path d="m551.9 362.5c3.3-6.2 89.7-134 120.6-179.1"/>
    <path d="m519.4 367.1 34.1-31.1"/>
    <path d="m553.6 335.9 24.3 18.5"/>
    <path d="m577.9 354.4c1.6.9 3.1 2 4.2 3.5 1.3 1.7 2.2 3.7 2.5 5.8.4 2.5.2 5.3-.7 7.9-.7 2.1-1.8 4.3-3.3 6.2-1.3 1.7-2.8 3.3-4.7 4.7-1.8 1.4-3.7 2.5-5.7 3.3-1.3.5-2.6.9-3.9 1.2-1.8.4-3.6.5-5.3.4-2.3-.1-4.4-.7-6.3-1.7-1.6-.9-3.1-2-4.2-3.5-2.4-3.2-3.2-7.2-2.5-11.2.5-2.9 1.8-5.9 3.8-8.5"/>
    <path d="m552.3 340.6 24.6 19.4c4.4 4.9 8 10.8 3.6 18.1"/>
    <path d="m483.8 335.4c-45.9 12-82.7 100-48.4 95.7 22.6-3.3 62.5-43.4 84-63.9"/>
    <path d="m733.4 183.8c-27.3 35.2-87.1 82.4-60.8-.4"/>
   </g>
  </g>
 </g>
</svg>
