<svg height="210mm" viewBox="0 0 1052.4 744.1" width="297mm" xmlns="http://www.w3.org/2000/svg">
 <g fill="none" stroke-linecap="round">
  <g transform="translate(0 -308.26772)">
   <path d="m57.6 742.2h948.8" stroke="#969696" stroke-width="1.875"/>
   <g stroke="#000" stroke-dasharray="3.75 7.5" stroke-miterlimit="2" stroke-width=".9375">
    <path d="m58.3 844.1h948.8"/>
    <path d="m58.3 641.8h948.8"/>
    <path d="m58.3 540.6h948.8"/>
   </g>
  </g>
  <g stroke="#000" stroke-linejoin="round" stroke-width="5.625">
   <path d="m378.5 430.8c50.4-65.5 115.5-58.4 97 .6"/>
   <path d="m490.2 478.9c16.8-.5 33-21.3 35-47.2 2.1-26.8 46.9-54.6 36.3-48.7l-85.9 48.4"/>
   <path d="m545 398.1c-18.7 24.9-13 28.9-16.8 41.1-3.5 11.7-12.1 25.9-24.2 34.7"/>
   <path d="m542.2 401.2c-7.6 7.8-16.9 18.3-21 32.6-4.1 14.4-5.5 33.4-22.5 43.1"/>
   <path d="m490.2 478.9c-10.6-1 34.1-33.8 45.8-44.7"/>
   <path d="m536.1 434.3c26.4-25.3 58.5-51.6 79.1-53.3 17.8-2 22.2 9 3.1 42.4l-29.8 52.1"/>
   <path d="m588.4 475.4s52.8-33 67.9-36.8"/>
   <path d="m656.3 438.6c19.6-5.3 38 3 20.4 24.8-27.4 33.8-47.2 52.6-39.4 63.9 3.2 4.7 8.7 6.2 15.1 5.4 11.5-1.3 25.9-10 34.7-20.3 6.6-7.1 53.6-77.1 53.6-77.1"/>
  </g>
 </g>
</svg>
