<svg height="210mm" viewBox="0 0 1052.4 744.1" width="297mm" xmlns="http://www.w3.org/2000/svg">
 <g fill="none" stroke-linecap="round">
  <g transform="translate(0 -308.26772)">
   <path d="m57.6 742.2h948.8" stroke="#969696" stroke-width="1.875"/>
   <g stroke="#000" stroke-dasharray="3.75 7.5" stroke-miterlimit="2" stroke-width=".9375">
    <path d="m58.3 844.1h948.8"/>
    <path d="m58.3 641.8h948.8"/>
    <path d="m58.3 540.6h948.8"/>
   </g>
  </g>
  <path d="m345.5 431s135.1-175.7 137.3-178.4c2.6-3.2 5-5.8 7.4-7.7 51.1-40 27.3 33.2-11.4 98.9-24.1 39.8-54.2 77.7-77.3 87.7-8.7 1.9-13.5-.4-15.7-4.7" stroke="#000" stroke-linejoin="round" stroke-width="5.625"/>
  <g stroke="#00000c">
   <g stroke-linejoin="round" stroke-width="5.625">
    <path d="m267.6 431.2 44.7-48.1 33.3 47.9"/>
    <path d="m312.2 383.1 24 48"/>
    <path d="m321.7 383.1 23.8 47.9"/>
    <path d="m317.8 383 24 48"/>
   </g>
   <g stroke-width="3.75">
    <path d="m314.5 382.1h7.1"/>
    <path d="m337.9 432h7.1"/>
   </g>
  </g>
  <g stroke-linejoin="round" stroke-width="5.625">
   <path d="m385.8 426.8c-16.1-10.9 200.1-142 200.1-142l-55.8 97.2" stroke="#0a000a"/>
   <g stroke="#000">
    <path d="m530.1 382.1c78.8-64.1 155.2-58.4 136.8.6"/>
    <path d="m666.9 382.7s85.9-148.6 88.7-152.4c9-12.3 17.4-24.1 33.1-24.6 12.2-.4 16.3 25.1 31.9 24.2 8.7-.5 14.1-5.1 21.4-14.5"/>
   </g>
  </g>
 </g>
</svg>
