<svg height="210mm" viewBox="0 0 1052.4 744.1" width="297mm" xmlns="http://www.w3.org/2000/svg">
 <g fill="none" stroke-linecap="round">
  <g transform="translate(0 -308.26772)">
   <path d="m57.6 742.2h948.8" stroke="#969696" stroke-width="1.875"/>
   <g stroke="#000" stroke-dasharray="3.75 7.5" stroke-miterlimit="2" stroke-width=".9375">
    <path d="m58.3 844.1h948.8"/>
    <path d="m58.3 641.8h948.8"/>
    <path d="m58.3 540.6h948.8"/>
   </g>
  </g>
  <g stroke="#000">
   <path d="m178.3 431.2c17.6-29.1 33.1-39.3 50.2-44.5 29.3-8.8 46.2 9 37.5 44.8" stroke-linejoin="round" stroke-width="5.625"/>
   <path d="m265.9 431.5 158.9-.7" stroke-width="5.625"/>
   <g stroke-linejoin="round">
    <path d="m431.2 418.8c.8.1 1.4.2 1.9.4.2.2.3.2.5.3 1 .8 1.3 2 .7 4-1 3.9-5.4 6.1-7.5 6.9-4.3 1.6-7.6-2-5.1-5.8 1.6-2.4 4.3-5.1 7.4-5.7.2-.1.4-.1.7-.2h.8c.6 0 1.2.1 1.8.2" stroke-width="5.624959"/>
    <path d="m404.5 419c.8.1 1.4.2 1.9.4.2.2.3.2.5.3 1 .8 1.3 2 .7 4-1 3.9-5.4 6.1-7.5 6.9-4.3 1.6-7.6-2-5.1-5.8 1.6-2.4 4.3-5.1 7.4-5.7.2-.1.4-.1.7-.2h.8c.6 0 1.2.1 1.8.2" stroke-width="5.624959"/>
    <g stroke-width="5.625">
     <path d="m424.9 430.9c18.5 7.1 299-144.5 317-165.3"/>
     <path d="m741.9 265.6c9.7-9.3 15.1-20 7.2-26.6-14.4-12.1-36.8-2.1-45.5 22.4-4.9 13.8-3.1 34.6-6.7 53.9-3.7 20-43.6 46.6-64.3 69.8-20.8 23.3-23.9 47.5-3.8 47.1 33.4-1.2 90.9-64.6 119.8-95.7"/>
     <path d="m755 371.6c-13.5 2.9-13.7-11.6-6.4-35.1"/>
     <path d="m755 371.6c22.2-.9 28.4-30.5 62-35.7 17.4-2.7 31.3 6 15.3 25.9-27.4 33.8-45.5 50.2-39.4 63.9 6 13.7 38.4 3 52.1-17.9"/>
    </g>
   </g>
  </g>
 </g>
</svg>
