<svg height="210mm" viewBox="0 0 1052.4 744.1" width="297mm" xmlns="http://www.w3.org/2000/svg">
 <g fill="none" stroke-linecap="round">
  <g transform="translate(0 -308.26772)">
   <path d="m57.6 742.2h948.8" stroke="#969696" stroke-width="1.875"/>
   <g stroke="#000" stroke-dasharray="3.75 7.5" stroke-miterlimit="2" stroke-width=".9375">
    <path d="m58.3 844.1h948.8"/>
    <path d="m58.3 641.8h948.8"/>
    <path d="m58.3 540.6h948.8"/>
   </g>
  </g>
  <g stroke="#000" stroke-linejoin="round" stroke-width="5.625">
   <path d="m388.4 354.7c-10.8 7.1-39.6 27.2-47.4 33.9"/>
   <path d="m388.4 354.7s33.9-24.9 43.6-17.4c6.1 4.7 8.9 37.6 21.2 36.1 8.8-1.1 10.4-1.4 17.1-5.6 4.4-2.8 14.8-12.6 14.8-12.6"/>
   <path d="m420.3 337.2c11.6-4.7 11.4 6.3 12.9 22.9 1 10.8 7.8 13.7 20.1 13.3"/>
   <path d="m420.3 337.2c5.4-2.4 19-3.6 22.7 15 2.6 13.3 4.7 19.7 13.9 20.5"/>
   <path d="m432.3 339.9c6.8 12.3 1 30.9 15.5 31.8"/>
   <path d="m485.1 355.2 17-18.6"/>
   <ellipse cx="35.589088" cy="539.41394" rx="29.636919" ry="23.465988" transform="matrix(.79083574 -.61202846 .61202846 .79083574 0 0)"/>
   <path d="m503.8 368.8c7.7-2 197.1-81.5 197.1-81.5"/>
   <ellipse cx="369.57202" cy="675.6463" rx="25.728558" ry="20.371416" transform="matrix(.79083574 -.61202846 .61202846 .79083574 0 0)"/>
   <path d="m503.8 368.8c-8.1 2.1-10.2-5.2-1.7-32.2"/>
  </g>
 </g>
</svg>
