<svg height="210mm" viewBox="0 0 1052.4 744.1" width="297mm" xmlns="http://www.w3.org/2000/svg">
 <g fill="none" stroke-linecap="round">
  <g transform="translate(0 -308.26772)">
   <path d="m57.6 742.2h948.8" stroke="#969696" stroke-width="1.875"/>
   <g stroke="#000" stroke-dasharray="3.75 7.5" stroke-miterlimit="2" stroke-width=".9375">
    <path d="m58.3 844.1h948.8"/>
    <path d="m58.3 641.8h948.8"/>
    <path d="m58.3 540.6h948.8"/>
   </g>
  </g>
  <g stroke="#000" stroke-linejoin="round" stroke-width="5.625">
   <path d="m629.8 280.5s-96.3 87.4-104.6 93.2"/>
   <path d="m525.3 373.7c-18.2 14.2-74.9 63.2-107.4 100.8-19.4 22.8-32.1 46.3-28 55.8 5.7 13.2 69.5-28.4 95.8-138.9 17.5-80 53.4-142.9 90.7-155.8"/>
   <path d="m629.8 280.5-47.3 94.9"/>
   <path d="m582.5 375.4c19.1-14.7 49.5-39 73.6-40.1 24-.8 32.4 41.1 48.8 40.7 10.8-.3 18.5-10 25.1-17.1"/>
   <path d="m549.5 253.8c-17.5 10.9-225.8 280.1-225.8 280.1"/>
  </g>
 </g>
</svg>
