<svg height="210mm" viewBox="0 0 1052.4 744.1" width="297mm" xmlns="http://www.w3.org/2000/svg">
 <g fill="none" stroke-linecap="round">
  <g stroke="#969696" transform="translate(0 -308.26772)">
   <path d="m57.6 742.2h948.8" stroke-width="1.875"/>
   <g stroke-dasharray="3.75 7.5" stroke-miterlimit="2" stroke-width=".9375">
    <path d="m58.3 844.1h948.8"/>
    <path d="m58.3 641.8h948.8"/>
    <path d="m58.3 540.6h948.8"/>
   </g>
  </g>
  <g stroke-width="5.625">
   <ellipse cx="539.02142" cy="52.619316" rx="4.609393" ry="6.862875" stroke="#000" stroke-linejoin="round" transform="matrix(.72846687 .68508103 -.68508103 .72846687 0 0)"/>
   <path d="m635.6 431c13.5-14.6 32.3-32.3 50.8-33.3 17.6-.7 20.1 33.8 33.9 33.8 9 0 13.8-4.7 20.3-10.5" stroke="#000" stroke-linejoin="round"/>
   <path d="m299.2 390.2c-7.4 25.5 1.8 41.4 20.8 41.2 5.8-.1 12.5-1.7 20-5 18-7.9 25.3-15.9 35.9-29.3 3.3-4.1 12.2-15.5 15.5-19.8 7.2-9.4 14.8-18.5 23-25.7 9.9-8.7 20.5-14.8 31.8-15.2 20.3-.8 32.2 15.6 41.1 34.3 7.7 16.9 14.5 36 22.5 47.4 6.5 9.2 15.1 13.3 23.7 13.1 19.4-.3 27.5-7.1 80.1-47.3l22.1 47.1" stroke="#0c0000"/>
  </g>
 </g>
</svg>
