<svg height="210mm" viewBox="0 0 1052.4 744.1" width="297mm" xmlns="http://www.w3.org/2000/svg">
 <g fill="none" stroke-linecap="round">
  <g transform="translate(0 -308.26772)">
   <path d="m57.6 742.2h948.8" stroke="#969696" stroke-width="1.875"/>
   <g stroke="#000" stroke-dasharray="3.75 7.5" stroke-miterlimit="2" stroke-width=".9375">
    <path d="m58.3 844.1h948.8"/>
    <path d="m58.3 641.8h948.8"/>
    <path d="m58.3 540.6h948.8"/>
   </g>
  </g>
  <g stroke="#000">
   <path d="m644.7 236.2c13.9-1.2 11.2 8.5 10.3 13.7" stroke-width="2.736317"/>
   <path d="m608.4 252.7c10.9-9.9 21.5-14.6 30.5-17 3-.8 5.9-1 8.6-1 13 .1 20.7 10.2 7.1 27-26.6 32.9-44.6 51-38.7 64.2 2.1 4.7 8 6.4 15 6 9.8-.4 24.3-7.6 32.5-19.2" stroke-linejoin="round" stroke-width="5.625"/>
   <path d="m655.3 236.2c15.4 7.9 3.9 30.5-12.4 46.4-14 13.6-22.7 27.7-28.7 39.7" stroke-width="5.472634"/>
   <path d="m655.4 237.7c1.3 1.1 3.4 6 .3 13.9-3.2 8.2-12.5 19.1-17.8 24.2-10.5 9.9-29.8 30.2-23.7 46.5" stroke-width="5.472634"/>
   <path d="m621.2 312.3c-3.2 4.4-6.9 16.1 2.8 17.8" stroke-width="2.736317"/>
   <path d="m611.7 316.5c-.1 5.5 2.8 11.2 4.7 12.8" stroke-width="2.736317"/>
   <g stroke-width="5.625">
    <g stroke-linejoin="round">
     <path d="m556.1 234.9 25.8 44.1s21.1-21.9 26.5-26.4"/>
     <ellipse cx="604.17206" cy="9.219177" rx="4.609393" ry="6.862874" transform="matrix(.72846687 .68508103 -.68508103 .72846687 0 0)"/>
     <path d="m432.5 336c-25.5 7.3-53.6 50.8-56.5 75.9-2.2 19.1 12.1 24.1 56.5 14.9"/>
    </g>
    <path d="m556.1 234.9c-97.1 171.4-109.4 200.4-123.6 191.9"/>
   </g>
  </g>
 </g>
</svg>
