<svg height="210mm" viewBox="0 0 1052.4 744.1" width="297mm" xmlns="http://www.w3.org/2000/svg">
 <g fill="none" stroke-linecap="round">
  <g transform="translate(0 -308.26772)">
   <path d="m57.6 742.2h948.8" stroke="#969696" stroke-width="1.875"/>
   <g stroke="#000" stroke-dasharray="3.75 7.5" stroke-miterlimit="2" stroke-width=".9375">
    <path d="m58.3 844.1h948.8"/>
    <path d="m58.3 641.8h948.8"/>
    <path d="m58.3 540.6h948.8"/>
   </g>
  </g>
  <g stroke="#000">
   <path d="m972.8 338.8c.8-1.1 3.5 6.2.4 14.1-3.2 8.2-12.5 19.1-17.8 24.2-10.5 9.9-29.8 30.2-23.7 46.5" stroke-width="5.472634"/>
   <path d="m962.3 337.5c13.9-1.2 11 7.7 10.3 13.7" stroke-width="2.736317"/>
   <path d="m972.7 337.7c15.4 6.8 4.1 30.2-12.2 46.1-14 13.6-22.7 27.7-28.7 39.7" stroke-width="5.472634"/>
   <path d="m939.1 413c-3.4 4.9-7.1 14.7 2.5 16.9" stroke-width="2.736317"/>
   <path d="m929.2 417.7c-.1 5.5 3.9 14.3 10.9 14.6" stroke-width="2.736317"/>
   <g stroke-linejoin="round">
    <path d="m847.1 384.2c41.5 3.1 60.4-34.1 55.1-43.4-5.7-10-26.7-7-51.4 33.8-26.7 43.6-24.1 57-10.9 56.8 15.2-.2 25.3-10.2 38.8-22.4 14.4-12.9 38.1-41.1 47.5-51.4 10.4-11.5 21.8-21.3 36.3-21.4 14.3-.3 24.4 8.5 10.2 26.1-27.1 33.5-45.1 49.8-39.1 63.3 1.9 4.3 6.9 6.2 12.9 6.2 15.6-.7 25.7-9.5 36-19.7" stroke-width="5.625"/>
    <path d="m554.3 336.2s-33.7 59.2-38.2 70.3c-6.6 16.3 3.5 25.3 18.3 24.7" stroke-width="5.624999"/>
    <g stroke-width="5.625">
     <path d="m534.4 431.2c19.4-.5 27.5-7.1 80.1-47.3l22.1 47.1"/>
     <path d="m265.6 431.2 288.7-95"/>
     <path d="m636.6 431c17.3-10.3 54.8-32.3 73.3-33.3 17.6-.7 20.1 33.8 33.9 33.8 9 0 13.8-4.7 20.3-10.5"/>
    </g>
   </g>
   <path d="m185.9 337.7c15.4 7.9 4.2 30.4-12.1 46.3-14 13.6-22.7 25.7-28.7 37.7" stroke-width="5.472634"/>
   <path d="m186.1 339.2c.8-1.1 3.6 6 .5 13.9-3.2 8.2-12.5 19.1-17.8 24.2-10.5 9.9-29.8 28.2-23.7 44.5" stroke-width="5.472634"/>
   <g stroke-width="2.736317">
    <path d="m175.6 337.6c13.9-1.2 10.5 8.5 10.3 13.7"/>
    <path d="m152.3 411.7c-3.2 4.4-7.2 16.1 2.6 17.8"/>
    <path d="m142.6 415.9c-.1 5.5 2.8 11.2 4.7 12.8"/>
   </g>
   <path d="m90.2 431.3s23.8-36.7 33-50.7c7.6-11.5 19.2-27.3 24.7-32.4 7.9-7.5 17.1-12.3 30.4-12.1 13 .1 20.7 10.2 7.1 27-26.6 32.9-44.6 48.9-38.7 62.2 2.1 4.7 8 6.3 15 6 9.8-.4 24.3-7.6 32.5-19.2" stroke-linejoin="round" stroke-width="5.625"/>
  </g>
 </g>
</svg>
