<svg height="210mm" viewBox="0 0 1052.4 744.1" width="297mm" xmlns="http://www.w3.org/2000/svg">
 <g fill="none" stroke-linecap="round">
  <g transform="translate(0 -308.26772)">
   <path d="m57.6 742.2h948.8" stroke="#969696" stroke-width="1.875"/>
   <g stroke="#000" stroke-dasharray="3.75 7.5" stroke-miterlimit="2" stroke-width=".9375">
    <path d="m58.3 844.1h948.8"/>
    <path d="m58.3 641.8h948.8"/>
    <path d="m58.3 540.6h948.8"/>
   </g>
  </g>
  <g stroke="#000" stroke-linejoin="round">
   <path d="m274.5 430.8s407.5-242.9 412.7-245.6c5.3-3.1 11.1-1 13 1.5 1 1.3 1.6 3.2 1.8 5.5 3.8 34.5-71.1 170-117.9 190.4" stroke-width="5.625"/>
   <path d="m701.8 200.7c.1 4.3-93.3 161.4-93.3 161.4" stroke-width="5.625"/>
   <path d="m694.5 220.5c-21.3 43.2-44.9 85.4-73 125.6" stroke-width="8.4375"/>
   <path d="m591.7 378c6.6-8.2 16.4-19 22.5-27.9" stroke-width="3.75"/>
   <g stroke-width="5.625">
    <path d="m747.8 280.5s-202.6 105.6-163.7 102"/>
    <path d="m690.1 377.9c14.6-6.7 62.3-32 79.1-32.8 16-.6 21.6 31 32.6 30.7 7.2-.2 18.3-11.9 25-20.3"/>
    <path d="m690.1 377.9c-18.2 8.2-39.7 24.7-54.2 39.3-25.9 26.2-36.3 48.1-33.4 55.8 1.1 2.9 17.7 21.8 57.3-41.8l88-150.7"/>
   </g>
  </g>
 </g>
</svg>
