<svg height="210mm" viewBox="0 0 1052.4 744.1" width="297mm" xmlns="http://www.w3.org/2000/svg">
 <g fill="none" stroke-linecap="round">
  <g transform="translate(0 -308.26772)">
   <path d="m57.6 742.2h948.8" stroke="#969696" stroke-width="1.875"/>
   <g stroke="#000" stroke-dasharray="3.75 7.5" stroke-miterlimit="2" stroke-width=".9375">
    <path d="m58.3 844.1h948.8"/>
    <path d="m58.3 641.8h948.8"/>
    <path d="m58.3 540.6h948.8"/>
   </g>
  </g>
  <g stroke="#000" stroke-width="5.625">
   <path d="m331.9 392.7-74.8 140.3"/>
   <g stroke-linejoin="round">
    <path d="m393.2 427.5c9.5-4 15-7.5 15.8-8.1 16.6-11.5 43.7-26.4 73.3-27.2 48.5-1.3 61.6 39.3 96 39.5 10 0 18.2-2.6 25.4-6.3"/>
    <path d="m331.9 392.7c24.8-43 37.8-49.8 46.9-53.4 21.3-8.6 45.2-.9 25.9 22.9-27.4 33.8-45.5 50.2-39.4 63.9 3.4 7.6 15.8 6.8 27.9 1.4"/>
    <path d="m603.6 425.4c4.5-2.3 9.7-5.1 15.3-8.2"/>
   </g>
   <path d="m729.6 235.5c-69.6 127.2-87.3 161.9-110.7 181.8"/>
  </g>
 </g>
</svg>
