<svg height="210mm" viewBox="0 0 1052.4 744.1" width="297mm" xmlns="http://www.w3.org/2000/svg">
 <g fill="none" stroke-linecap="round">
  <g transform="translate(0 -308.26772)">
   <path d="m57.6 742.2h948.8" stroke="#969696" stroke-width="1.875"/>
   <g stroke="#000" stroke-dasharray="3.75 7.5" stroke-miterlimit="2" stroke-width=".9375">
    <path d="m58.3 844.1h948.8"/>
    <path d="m58.3 641.8h948.8"/>
    <path d="m58.3 540.6h948.8"/>
   </g>
  </g>
  <g stroke="#000" stroke-width="5.625">
   <g stroke-linejoin="round">
    <path d="m239.3 430.6 60.6-109c26.4-48.6 52-72.9 91.2-88.5"/>
    <path d="m239.3 430.6 313.9-40.2"/>
    <path d="m553.2 390.4c21.5-2.4 35.6-6.2 51.4-19.8 12.8-11.2 18.6-26.1 16.7-30.9-2.8-7.3-34.7-8.6-58.5 30.7-26.3 43.1-18.8 59.4-2.7 59.3"/>
    <path d="m560.2 429.6c6.5.1 52.8 1.2 62.1 1.6 23 .8 45.2 15.1 38.5 47.4"/>
   </g>
   <path d="m759.5 303.9-98.8 174.7"/>
   <ellipse cx="558.41138" cy="628.72906" rx="25.728558" ry="20.371416" stroke-linejoin="round" transform="matrix(.89236516 -.45131411 .45131411 .89236516 0 0)"/>
  </g>
 </g>
</svg>
