<svg height="210mm" viewBox="0 0 1052.4 744.1" width="297mm" xmlns="http://www.w3.org/2000/svg">
 <g fill="none" stroke-linecap="round">
  <g transform="translate(0 -308.26772)">
   <path d="m57.6 742.2h948.8" stroke="#969696" stroke-width="1.875"/>
   <g stroke="#000" stroke-dasharray="3.75 7.5" stroke-miterlimit="2" stroke-width=".9375">
    <path d="m58.3 844.1h948.8"/>
    <path d="m58.3 641.8h948.8"/>
    <path d="m58.3 540.6h948.8"/>
   </g>
  </g>
  <g stroke-linejoin="round">
   <path d="m425 431.2c-53.2 7.3-100.2 80.3-96.4 92.6.9 3 16.3 22.9 59.8-38.1 26.9-36.9 54.6-73.4 69.3-116.4 15.5-30.1-1.4-56.7-44.4-11.6" stroke="#000" stroke-width="5.625"/>
   <path d="m428.1 421.1c-.5 1.7-1.9 2.8-3.1 2.6-3-.3-3.3-1.5-4.1-3.3-1.4-3.2.7-2.9 3.9-4 4.6-.3 3.2 9 6.1 8.1 4.3-1.4 214.9 12.5 214.9 12.5" stroke="#000200" stroke-width="5.625"/>
   <path d="m426.2 421.1c0 .2 0 .5-.1.6 0 .1-.1.1-.1.2-.2.3-.6.5-1.3.3-1.3-.2-2.1-1.6-2.4-2.2-.6-1.3.4-2.5 1.7-1.8.8.4 1.7 1.2 2 2.2 0 .1 0 .1.1.2v.3.6" stroke="#000200" stroke-width="3.586069"/>
   <g stroke="#000" stroke-width="5.625">
    <ellipse cx="226.64798" cy="756.45367" rx="25.728558" ry="20.371416" transform="matrix(.79083574 -.61202846 .61202846 .79083574 0 0)"/>
    <path d="m690.9 412.1-58.6 29.5"/>
   </g>
  </g>
 </g>
</svg>
