<svg height="210mm" viewBox="0 0 1052.4 744.1" width="297mm" xmlns="http://www.w3.org/2000/svg">
 <g fill="none" stroke-linecap="round">
  <g transform="translate(0 -308.26772)">
   <path d="m57.6 742.2h948.8" stroke="#969696" stroke-width="1.875"/>
   <g stroke="#000" stroke-dasharray="3.75 7.5" stroke-miterlimit="2" stroke-width=".9375">
    <path d="m58.3 844.1h948.8"/>
    <path d="m58.3 641.8h948.8"/>
    <path d="m58.3 540.6h948.8"/>
   </g>
  </g>
  <g stroke-linejoin="round">
   <path d="m419.5 360.7c9.7-11.6 18.1-23.2 37.1-24.4 15-1.1 23.8 10.5 8.9 28.9-18.3 22.6-33.1 30.4-40.2 45.7-5.2 13.7 1 21.3 14.6 20.2 7.1-.5 15.9-3.9 23.3-9.4 15.4-11.3 51.1-53.8 56.4-58.8" stroke="#0b0000" stroke-width="5.625"/>
   <g stroke="#000">
    <path d="m535.5 349.4 108.6-63.4" stroke-width="5.633858"/>
    <ellipse cx="313.42224" cy="603.81787" rx="59.825882" ry="42.978363" stroke-width="5.625" transform="matrix(.88109295 -.47294313 .47294313 .88109295 0 0)"/>
   </g>
  </g>
 </g>
</svg>
