<svg height="210mm" viewBox="0 0 1052.4 744.1" width="297mm" xmlns="http://www.w3.org/2000/svg">
 <g fill="none" stroke-linecap="round">
  <g transform="translate(0 -308.26772)">
   <path d="m57.6 742.2h948.8" stroke="#969696" stroke-width="1.875"/>
   <g stroke="#000" stroke-dasharray="3.75 7.5" stroke-miterlimit="2" stroke-width=".9375">
    <path d="m58.3 844.1h948.8"/>
    <path d="m58.3 641.8h948.8"/>
    <path d="m58.3 540.6h948.8"/>
   </g>
  </g>
  <g stroke="#000" stroke-width="5.625">
   <g stroke-linejoin="round">
    <path d="m468.2 431.9c50.4-65.5 115.5-58.4 97 .6"/>
    <path d="m565.2 432.5s175.6-209.6 216.5-241"/>
    <path d="m796.8 183.2c-7.6 1.2-14.1 6.9-18.9 11.9-42.3 44.8-125.7 188.6-83.9 185"/>
    <path d="m694 380.1c30.7-1.9 54.8-24.4 93.8-82"/>
   </g>
   <path d="m863.4 183.5-75.6 114.5"/>
   <g stroke-linejoin="round">
    <path d="m408.4 426.7c3.7-4.4 27.6-32.3 27.6-32.3l-66.9 138.5"/>
    <path d="m299.2 432.3c3-4.3 24.1-28.2 30.3-33.2 23.7-19.2 60.9-14.6 37.5 14.4-27.4 33.8-45.5 50.2-39.4 63.9 4.2 9.6 23 7 36.5-3.7 9.4-7.4 44.4-47 44.4-47"/>
   </g>
  </g>
 </g>
</svg>
