<svg height="210mm" viewBox="0 0 1052.4 744.1" width="297mm" xmlns="http://www.w3.org/2000/svg">
 <g stroke-linecap="round">
  <g fill="none" transform="translate(0 -308.26772)">
   <path d="m57.6 742.2h948.8" stroke="#969696" stroke-width="1.875"/>
   <g stroke="#000" stroke-dasharray="3.75 7.5" stroke-miterlimit="2" stroke-width=".9375">
    <path d="m58.3 844.1h948.8"/>
    <path d="m58.3 641.8h948.8"/>
    <path d="m58.3 540.6h948.8"/>
   </g>
  </g>
  <g stroke="#000" stroke-linejoin="round">
   <g fill="none" stroke-width="5.625">
    <path d="m425.3 431.1s124.6-2.2 125.7 6.1"/>
    <path d="m551.1 437.2c.8.1 1.4.2 1.9.5.2.1.3.2.5.3.9.7 1.3 2 .8 4-1 3.9-5.4 6.1-7.5 6.9-4.3 1.6-7.6-2-5.1-5.9 1.6-2.4 4.2-5.1 7.4-5.7.2 0 .4-.1.7-.1s.5-.1.8-.1c.6 0 1.2.1 1.9.3"/>
    <path d="m545.6 437.9c10.1-3.6 22-7.2 37.5-8.2"/>
   </g>
   <g fill="#eb0000" fill-rule="evenodd" transform="matrix(1.4376953 0 0 1.4376953 -459.79823 143.92849)">
    <path d="m732.1 185.5c.8.1 1.4.2 1.9.5.2.1.3.2.5.3.9.7 1.3 2 .8 4-1 3.9-5.4 6.1-7.5 6.9-4.3 1.6-7.6-2-5.1-5.9 1.6-2.4 4.2-5.1 7.4-5.7.2 0 .4-.1.7-.1h.8c.6 0 1.2.1 1.9.3" stroke-width="5.625"/>
    <path d="m729.3 188.3c.3 0 .6.1.9.2.1 0 .2.1.2.1.4.3.6.9.4 1.8-.4 1.7-2.4 2.8-3.3 3.1-1.9.7-3.4-.9-2.3-2.6.7-1.1 1.9-2.3 3.3-2.6h.3.4c.3 0 .6 0 .8.1" stroke-width="4.981044"/>
   </g>
   <g fill="none" stroke-width="5.625">
    <path d="m688.2 381c-19.6 12.4-44.6 30.1-54.1 32.3-7.9 1.8-9.7-5.7-1.4-32.3"/>
    <path d="m688.5 381.3c1-.8-25.9 49.6-25.9 49.6"/>
    <path d="m695.4 384.2-25.3 46.6"/>
    <path d="m674.6 430.6-12 .2"/>
    <path d="m702.3 381.1-27.7 49.5"/>
    <path d="m702.3 381.1-14.1-.1"/>
    <path d="m693.6 382.3-25.3 46.6"/>
    <path d="m632.7 381s-25.9 60-49.6 48.6"/>
   </g>
  </g>
 </g>
</svg>
