<svg height="210mm" viewBox="0 0 1052.4 744.1" width="297mm" xmlns="http://www.w3.org/2000/svg">
 <g fill="none" stroke-linecap="round">
  <g transform="translate(0 -308.26772)">
   <path d="m57.6 742.2h948.8" stroke="#969696" stroke-width="1.875"/>
   <g stroke="#000" stroke-dasharray="3.75 7.5" stroke-miterlimit="2" stroke-width=".9375">
    <path d="m58.3 844.1h948.8"/>
    <path d="m58.3 641.8h948.8"/>
    <path d="m58.3 540.6h948.8"/>
   </g>
  </g>
  <g stroke="#000">
   <g stroke-width="5.625">
    <g stroke-linejoin="round">
     <path d="m306.2 431s44.6-32.4 61.8-29.2 16 46.2 45.6 21.5"/>
     <path d="m353.6 404.1c5.4-2.4 14.4-.8 22.3 16.5 5.6 12.2 16.2 10.3 22.8 10.3"/>
     <path d="m364.7 403.8c7.6 3.9 5 .9 19.8 23.5"/>
     <path d="m413.7 423.3c18.4-15.4 24.6-22.4 36.6-33.4l-72.5 144.1"/>
    </g>
    <path d="m745.5 190.2-134.5 193.2"/>
   </g>
   <g stroke-linejoin="round">
    <path d="m641.5 311.4-38.4 71.8" stroke-width="5.624999"/>
    <path d="m626.2 343.1-19.4 39.7" stroke-width="3.749999"/>
    <path d="m603.1 383.2 7.9.2" stroke-width="5.624999"/>
   </g>
   <path d="m635.9 289.1c11.1-.7 10.4 11.9 2 27" stroke-width="3.749999"/>
   <path d="m506.8 333c54.3-11 97.7-78.3 91.4-95-5.5-14.4-40.3 8.9-87.4 86.8-44.1 76.2-46.6 105.2-21.4 106.6 16.1.9 34.3-19.3 55.2-48.7 26.6-37.3 58.4-91.4 88-94.5 1.6-.1 3.3-.1 5.1.1 7 .3 9.9 7 9.7 12-.3 6.8-3.7 16.8-10.6 30.8l-25.6 52.3" stroke-linejoin="round" stroke-width="5.625"/>
  </g>
 </g>
</svg>
