<svg height="210mm" viewBox="0 0 1052.4 744.1" width="297mm" xmlns="http://www.w3.org/2000/svg">
 <g fill="none" stroke-linecap="round">
  <g transform="translate(0 -308.26772)">
   <path d="m57.6 742.2h948.8" stroke="#969696" stroke-width="1.875"/>
   <g stroke="#000" stroke-dasharray="3.75 7.5" stroke-miterlimit="2" stroke-width=".9375">
    <path d="m58.3 844.1h948.8"/>
    <path d="m58.3 641.8h948.8"/>
    <path d="m58.3 540.6h948.8"/>
   </g>
  </g>
  <g stroke="#000">
   <g stroke-width="5.625">
    <path d="m312.3 392.3c21.7-15.5 55.1-45.7 80.3-54.3 20.4-6.8 39.1.9 20.7 23.5-27.4 33.8-45.5 50.2-39.4 63.9 2.1 4.8 8 6.6 15 5.8" stroke-linejoin="round"/>
    <path d="m414.1 338.8c14.5 10.1 4.3 27.8-12.4 44.2-14.4 14-23.4 26.4-29.5 38.7"/>
    <path d="m414.1 338.8c.8-1.1 3.9 6.1.7 14.2-3.2 8.4-12.8 17.8-18.3 22.9-10.8 10.1-30.6 29-24.3 45.7"/>
   </g>
   <g stroke-width="2.8125">
    <path d="m405.6 337c11.3 1.3 8.8 6.5 9.1 11"/>
    <path d="m377.3 414.3c-2.7 4.9-3.8 12 2.3 14.5"/>
    <path d="m369.6 415.7c-.1 5.7 2.9 11.5 4.9 13.1"/>
   </g>
   <g stroke-linejoin="round" stroke-width="5.625">
    <ellipse cx="6.816373" cy="521.73499" rx="25.728558" ry="20.371416" transform="matrix(.79083574 -.61202846 .61202846 .79083574 0 0)"/>
    <path d="m388.8 431.2c21.1-1.9 61.9-31.3 79.5-32.2 16.7-.7 13.2 32.4 34.1 32.1 15.2-.2 38.6-25.3 43.2-30.9"/>
    <path d="m601.7 335.5s-43.9 53.1-56.1 64.7"/>
    <path d="m588 418.9c.7.1 1.3.2 1.8.5.2.1.3.2.5.3.9.7 1.2 1.9.7 3.7-1 3.7-5.1 5.8-7.1 6.5-4.1 1.5-7.1-1.9-4.8-5.5 1.5-2.3 4-4.8 7-5.4.2 0 .4-.1.6-.1h.8c.6 0 1.2.1 1.8.2"/>
   </g>
  </g>
  <g stroke-linejoin="round" stroke-width="5.625">
   <path d="m515 454s13.4-11 30.7-18c8.5-3.4 47.4-7.4 56.7-7.1" stroke="#0a0000"/>
   <g stroke="#000">
    <path d="m515 454c-19.2 16-67.1 48.8-59.9 74.1 1.1 2.9 17.7 21.8 57.3-41.8l89.2-150.8"/>
    <path d="m610.1 417.6c.7.1 1.3.2 1.8.5.2.1.3.2.5.3.9.7 1.2 1.9.7 3.7-1 3.7-5.1 5.8-7.1 6.5-4.1 1.5-7.1-1.9-4.8-5.5 1.5-2.3 4-4.8 7-5.4.2 0 .4-.1.6-.1h.8c.6 0 1.2.1 1.8.2"/>
    <path d="m603.2 429.4c15.6 7.9 68.8-28.1 85.6-28.9 16-.6 21.6 31 32.6 30.7 7.2-.2 12.4-7.6 16.7-13"/>
   </g>
  </g>
 </g>
</svg>
