<svg height="210mm" viewBox="0 0 1052.4 744.1" width="297mm" xmlns="http://www.w3.org/2000/svg">
 <g fill="none" stroke-linecap="round">
  <g transform="translate(0 -308.26772)">
   <path d="m57.6 742.2h948.8" stroke="#969696" stroke-width="1.875"/>
   <g stroke="#000" stroke-dasharray="3.75 7.5" stroke-miterlimit="2" stroke-width=".9375">
    <path d="m58.3 844.1h948.8"/>
    <path d="m58.3 641.8h948.8"/>
    <path d="m58.3 540.6h948.8"/>
   </g>
  </g>
  <path d="m226 431.4 340-88.9c34.8-9.1 70.6-33.8 88.6-51.9 21.1-21.2 30.1-40.5 25.4-52.6-5.6-14.4-40.3 8.9-87.6 86.9-44.2 76.4-40.1 107.3-24.3 106.5 28-1.3 65.8-29.6 83.5-30.5 16.8-.7 20.9 30.2 34.2 30.4 8.5.1 14.1-6.5 18.3-10.8" stroke="#000" stroke-linejoin="round" stroke-width="5.625"/>
 </g>
</svg>
