<svg height="210mm" viewBox="0 0 1052.4 744.1" width="297mm" xmlns="http://www.w3.org/2000/svg">
 <g fill="none" stroke-linecap="round">
  <g transform="translate(0 -308.26772)">
   <path d="m57.6 742.2h948.8" stroke="#969696" stroke-width="1.875"/>
   <g stroke="#000" stroke-dasharray="3.75 7.5" stroke-miterlimit="2" stroke-width=".9375">
    <path d="m58.3 844.1h948.8"/>
    <path d="m58.3 641.8h948.8"/>
    <path d="m58.3 540.6h948.8"/>
   </g>
  </g>
  <g stroke="#000">
   <g stroke-width="5.625">
    <path d="m478.8 385.1 22.1 46.2" stroke-linejoin="round"/>
    <path d="m486 385 22.1 46.2" stroke-linejoin="round"/>
    <path d="m478.8 385.1 7.2-.1"/>
    <path d="m482.8 386.4 21 43.9" stroke-linejoin="round"/>
    <path d="m500.9 431.3 7.2-.1"/>
    <path d="m408.2 384c48.1-9.2 58-34.4 55.1-43.4-3.2-9.6-26.7-7-51.4 33.8-26.7 43.6-23.9 56.3-10.9 56.6 23.6.5 66.9-36.7 77.9-45.9" stroke-linejoin="round"/>
   </g>
   <path d="m613 420.2c-7.6 6.2-17.1 10.8-24.5 11.3s-13.7-1.8-16.3-7.4c-7.2-15.5 13.3-27.7 37.7-57.1 8.2-9.9 8.8-18.2 5.1-23.4-6.1-8.2-13.5-8.3-20.2-6.3-7.6 2.3-16.1 8.3-24 17.5-22.1 25.8-47.8 58.7-62.8 76.5" stroke-linejoin="round" stroke-width="5.624999"/>
  </g>
 </g>
</svg>
