<svg height="210mm" viewBox="0 0 1052.4 744.1" width="297mm" xmlns="http://www.w3.org/2000/svg">
 <g fill="none" stroke-linecap="round">
  <g transform="translate(0 -308.26772)">
   <path d="m57.6 742.2h948.8" stroke="#969696" stroke-width="1.875"/>
   <g stroke="#000" stroke-dasharray="3.75 7.5" stroke-miterlimit="2" stroke-width=".9375">
    <path d="m58.3 844.1h948.8"/>
    <path d="m58.3 641.8h948.8"/>
    <path d="m58.3 540.6h948.8"/>
   </g>
  </g>
  <g stroke-linejoin="round">
   <path d="m386.8 356.7c4.7-5.1 8.5-9 10.2-10.4 23.7-19.2 60.9-14.6 37.5 14.4-27.4 33.8-45.5 50.2-39.4 63.9 4.2 9.5 22.6 6.5 36.5-3.7 6.5-4.7 11.8-9.8 17.1-14.8" stroke="#0b0000" stroke-width="5.625"/>
   <path d="m448.6 406.1s16.1-15.2 24.3-23.2c26.1-25.7 75.1-67.1 99.8-46.5 11.9 8.4 14.4 20.9 14.7 30.6-7.9 43.5-61.2 63.4-81.6 64.2-26.8 1.1-46-21-26.7-50.8 19.6-21.2 31.6-35.5 64.9-48.5 12.3-5.4 27.2-12.7 34.1-15.1" stroke="#000" stroke-width="5.633858"/>
   <g stroke="#0b0000">
    <path d="m578 316.9c80.4-43.5 122.9-43.7 112.2 14.5 0 0 50.9-39.9 61.5-47.5l23 47.5" stroke-width="5.625"/>
    <path d="m680 291.5c7.1 5.9 8.7 28.1 3.8 38.7" stroke-width="8.4375"/>
    <path d="m668 286.1c16.4 3.3 16.8 35.2 10.1 45.2" stroke-width="4.6875"/>
   </g>
  </g>
  <path d="m678.8 331.4 9.8.1" stroke="#0b0000" stroke-width="5.625"/>
  <g stroke="#000">
   <path d="m584.4 354.2c-14.4 29.1-41.4 56.2-71.3 75.3" stroke-width="5.625"/>
   <path d="m585.7 363.6c-16.6 22.2-34.5 43.3-56.4 61.1" stroke-width="5.625"/>
   <path d="m584.7 370.4c-14.9 22.5-20.6 30.9-43.5 48.5" stroke-width="7.5"/>
   <g stroke-width="3.75">
    <path d="m531 415.4c-10.5 10-32.1 14.6-39.3 13.1"/>
    <path d="m575.5 339.8c1.3 2.8 9.6 12.7 1.9 25.5"/>
   </g>
  </g>
 </g>
</svg>
