<svg height="210mm" viewBox="0 0 1052.4 744.1" width="297mm" xmlns="http://www.w3.org/2000/svg">
 <g fill="none" stroke-linecap="round">
  <g transform="translate(0 -308.26772)">
   <path d="m57.6 742.2h948.8" stroke="#969696" stroke-width="1.875"/>
   <g stroke="#000" stroke-dasharray="3.75 7.5" stroke-miterlimit="2" stroke-width=".9375">
    <path d="m58.3 844.1h948.8"/>
    <path d="m58.3 641.8h948.8"/>
    <path d="m58.3 540.6h948.8"/>
   </g>
  </g>
  <g stroke="#000">
   <ellipse cx="253.35036" cy="773.64722" rx="25.728558" ry="20.371416" stroke-linejoin="round" stroke-width="5.625" transform="matrix(.79083574 -.61202846 .61202846 .79083574 0 0)"/>
   <path d="m696.3 445.7c.3 9.3-.4 14.6-6.3 21.9-3.6 4.5-8.8 8.3-16 11.1" stroke-width="5.624961"/>
   <path d="m692.7 440.5c2 6.9 1.8 6.4.7 11.6-1.6 7.6-6.1 13.5-12.5 18.7-3.2 2.6-6.9 5-10.9 7.3" stroke-width="6.599955"/>
   <path d="m675.6 472.4c-5.3 3.7-10.3 5.7-16.3 3.5" stroke-width="2.849979"/>
   <path d="m681.9 435.8c6.2 1.3 8.4 3.3 9.7 7.9.3.9.9 2.9.4 5.9" stroke-width="2.849979"/>
   <g stroke-linejoin="round" stroke-width="5.625">
    <path d="m622.8 432 57.4 2.3"/>
    <path d="m666.4 437.4c24.2-12.3 69.9-37.5 87.6-38.4 18-.4 19.1 31.6 34.2 32.2 7.5.3 13.1-6.2 18.3-10.8"/>
    <path d="m534.1 334.8c1.8 8.4 6.1 49.3 29.2 47.1 57.1-5.6 61.6-47.4 49-47.9-7.7-.3-25.9 3.2-49.4 42-27.9 45.7-21.1 57.4-4.6 55.5 19.2-2.4 35.1-21.5 50.2-39.7 17.8-21.5 41.2-51 57.9-55.2 31.4-7.9 2.9 78.4-43.7 95.3"/>
    <path d="m274.4 431.5c13.9-15.6 23-23.6 40.6-22.3 23.9 1.9 11.5 37.6 53 14.8 1.8-1 121.3-63.4 123.2-64.8"/>
    <path d="m491.2 359.2s42.8-25 42.9-24.4"/>
   </g>
  </g>
 </g>
</svg>
