<svg height="210mm" viewBox="0 0 1052.4 744.1" width="297mm" xmlns="http://www.w3.org/2000/svg">
 <g fill="none" stroke-linecap="round">
  <g transform="translate(0 -308.26772)">
   <path d="m57.6 742.2h948.8" stroke="#969696" stroke-width="1.875"/>
   <g stroke="#000" stroke-dasharray="3.75 7.5" stroke-miterlimit="2" stroke-width=".9375">
    <path d="m58.3 844.1h948.8"/>
    <path d="m58.3 641.8h948.8"/>
    <path d="m58.3 540.6h948.8"/>
   </g>
  </g>
  <g stroke="#000">
   <g stroke-linejoin="round">
    <path d="m445.4 336.2-56.7 94.9" stroke-width="5.625"/>
    <path d="m388.7 431.1c29.3-25.2 70.1-93.1 105.9-94.8 2.7-.3 5.1-.1 7.1.7 7.8 3.3 10.1 15.8-1.5 40.6l-25 53.3" stroke-width="5.625"/>
    <path d="m504.8 357.9-36.9 73.3" stroke-width="5.440073"/>
    <path d="m491.3 390-20.2 40.7" stroke-width="3.626714"/>
    <path d="m467.8 431.2 7.4-.2" stroke-width="5.440073"/>
   </g>
   <path d="m502.2 338.2c4.1 1.7 6.9 9.7-.3 23.7" stroke-width="3.626714"/>
   <g stroke-linejoin="round" stroke-width="5.625">
    <path d="m562.2-62.3s36.4-53.1 39.1-56.8c9-12.3 18.4-28.1 34.4-27.3 17.9.9 16 70.9 53.9 25.2"/>
    <path d="m747.1-109.5s26.4-38.9 29.2-42.6c9-12.3 17.4-24.1 33.1-24.6 12.2-.4 16.3 25.1 31.9 24.2 8.7-.5 14.1-5.1 21.4-14.5"/>
    <path d="m475.2 431s113.6-156.2 123.5-170.4c8.7-12.5 18.2-25.3 30.6-25.8 13.4-.6 16.2 26.6 31.3 26.1 4.8-.1 11.1-3.9 19.6-13.3"/>
   </g>
  </g>
 </g>
</svg>
