<svg height="210mm" viewBox="0 0 1052.4 744.1" width="297mm" xmlns="http://www.w3.org/2000/svg">
 <g fill="none" stroke-linecap="round">
  <g transform="translate(0 -308.26772)">
   <path d="m57.6 742.2h948.8" stroke="#969696" stroke-width="1.875"/>
   <g stroke="#000" stroke-dasharray="3.75 7.5" stroke-miterlimit="2" stroke-width=".9375">
    <path d="m58.3 844.1h948.8"/>
    <path d="m58.3 641.8h948.8"/>
    <path d="m58.3 540.6h948.8"/>
   </g>
  </g>
  <g stroke="#000" stroke-linejoin="round">
   <g stroke-width="5.625">
    <path d="m400.2 333.8c-23.7 14.8-121.4 76.3-88.2 96.5 7.4 3.4 21.8-2.1 50.5-42.3 26.9-36.9 54.6-73.4 69.3-116.4 7.9-20 5.5-36.8-7.5-36.3-8.1.3-20.4 7.4-36.9 24.8"/>
    <path d="m478.8 288.9-78.6 44.9"/>
    <path d="m149.1 385.9-23.6 45.3"/>
   </g>
   <path d="m558.4 431.3s40.7-26.8 96.9-28.1c56.1-1.3 58.6 28.4 105.3 27.9 41.2-.5 84.5-30.1 112.8-56.4 26-24.3 42.5-39.3 59.1-38.4 41.6 2.2-43.6 178.8-100.4 196.4" stroke-width="5.624999"/>
  </g>
 </g>
</svg>
