<svg height="210mm" viewBox="0 0 1052.4 744.1" width="297mm" xmlns="http://www.w3.org/2000/svg">
 <g fill="none" stroke-linecap="round">
  <g transform="translate(0 -308.26772)">
   <path d="m57.6 742.2h948.8" stroke="#969696" stroke-width="1.875"/>
   <g stroke="#000" stroke-dasharray="3.75 7.5" stroke-miterlimit="2" stroke-width=".9375">
    <path d="m58.3 844.1h948.8"/>
    <path d="m58.3 641.8h948.8"/>
    <path d="m58.3 540.6h948.8"/>
   </g>
  </g>
  <g stroke="#000" stroke-linejoin="round">
   <path d="m390.9 431c-12.3-.6 87-89.2 135.5-95.1 50.3-2.8-49.3 181.8-106.7 196.3" stroke-width="5.625"/>
   <path d="m390.9 431c39.5-14.3 65.8-80.5 52.6-93.4-1.7-1.7-4.1-2.4-7.3-2.1-35 2.5-194.2 73.1-247 95.2l-21.1-45.9" stroke-width="5.419139"/>
   <g stroke-width="5.625">
    <path d="m587.1 431.6c7.8-.5 16.2-1.6 24.2-4.1"/>
    <path d="m616.5 416c.7.1 1.2.2 1.7.4.2.1.3.2.4.3.8.6 1.1 1.7.7 3.5-.9 3.4-4.7 5.3-6.5 6-3.8 1.4-6.6-1.7-4.4-5.1 1.3-2.1 3.7-4.4 6.4-5 .2 0 .4-.1.6-.1h.7c.5 0 1.1.1 1.6.2"/>
    <path d="m611.4 427.5c7.6 5.9 22.7-8.2 51.8-47.2"/>
    <path d="m663.1 380.3c50.4-65.5 115.5-58.4 97 .6l122.3-200.8"/>
    <path d="m510.6 485.3s-109.9 44.9-91 46.9"/>
    <path d="m538.9 494.3a21.2 27.7 41.6 0 1 -15.8 34.6 21.2 27.7 41.6 0 1 -30.5-7.6 21.2 27.7 41.6 0 1 15.8-34.6 21.2 27.7 41.6 0 1 30.5 7.6z"/>
    <path d="m501.4 491.3s109.6-106.6 116.2-113.3c22.8-21.9 27.1-43.9 12.1-41.8-11.6 3-24.1 15.2-38.4 38.9-27.1 44.3-18.4 57.3-4.2 56.6"/>
   </g>
  </g>
 </g>
</svg>
