<svg height="210mm" viewBox="0 0 1052.4 744.1" width="297mm" xmlns="http://www.w3.org/2000/svg">
 <g fill="none" stroke-linecap="round">
  <g transform="translate(0 -308.26772)">
   <path d="m57.6 742.2h948.8" stroke="#969696" stroke-width="1.875"/>
   <g stroke="#000" stroke-dasharray="3.75 7.5" stroke-miterlimit="2" stroke-width=".9375">
    <path d="m58.3 844.1h948.8"/>
    <path d="m58.3 641.8h948.8"/>
    <path d="m58.3 540.6h948.8"/>
   </g>
  </g>
  <g stroke="#000">
   <g stroke-width="5.625">
    <path d="m542.4 272.7-82.5 127.8"/>
    <g stroke-linejoin="round">
     <path d="m398.8 359.7c24.3-33 69.8-34.2 37.2 20l-31.5 52.1 63.2-41.1"/>
     <ellipse cx="129.25417" cy="616.703" rx="25.728558" ry="20.371416" transform="matrix(.79083574 -.61202846 .61202846 .79083574 0 0)"/>
    </g>
   </g>
   <path d="m502.1 397.6c.3 9.3-.4 14.6-6.3 21.9-3.6 4.5-8.8 8.3-16 11.1" stroke-width="5.624961"/>
   <path d="m498.5 392.3c2 6.9 1.8 6.4.7 11.6-1.6 7.6-6.1 13.5-12.5 18.7-3.2 2.6-6.9 5-10.9 7.3" stroke-width="6.599955"/>
   <path d="m481.5 424.2c-5.3 3.7-10.3 5.7-16.3 3.5" stroke-width="2.849979"/>
   <path d="m487.7 387.6c7.4 1.6 9 4 10.4 10.8" stroke-width="2.849979"/>
   <g stroke-linejoin="round">
    <path d="m543 331.1c45.5-16.5 73.9-97.9 45.9-95.7-14 1.1-22.4 3.3-46.5 37.3" stroke-width="5.625"/>
    <path d="m543 331.1 57.4 2.3" stroke-width="5.419139"/>
    <ellipse cx="253.34418" cy="646.53387" rx="25.728558" ry="20.371416" stroke-width="5.625" transform="matrix(.79083574 -.61202846 .61202846 .79083574 0 0)"/>
   </g>
   <path d="m618.5 345.2c.3 9.3-.4 14.6-6.3 21.9-3.6 4.5-8.8 8.3-16 11.1" stroke-width="5.624961"/>
   <path d="m614.9 340c2 6.9 1.8 6.4.7 11.6-1.6 7.6-6.1 13.5-12.5 18.7-3.2 2.6-6.9 5-10.9 7.3" stroke-width="6.599955"/>
   <g stroke-width="2.849979">
    <path d="m597.8 371.8c-5.3 3.7-10.3 5.7-16.3 3.5"/>
    <path d="m604.1 335.3c7.4 1.6 9 4 10.4 10.8"/>
   </g>
  </g>
 </g>
</svg>
