<svg height="210mm" viewBox="0 0 1052.4 744.1" width="297mm" xmlns="http://www.w3.org/2000/svg">
 <g fill="none" stroke-linecap="round">
  <g transform="translate(0 -308.26772)">
   <path d="m57.6 742.2h948.8" stroke="#969696" stroke-width="1.875"/>
   <g stroke="#000" stroke-dasharray="3.75 7.5" stroke-miterlimit="2" stroke-width=".9375">
    <path d="m58.3 844.1h948.8"/>
    <path d="m58.3 641.8h948.8"/>
    <path d="m58.3 540.6h948.8"/>
   </g>
  </g>
  <g stroke="#000" stroke-linejoin="round">
   <g stroke-width="5.625">
    <path d="m536.2 235.3c-36.5 4.6-191.5 196.3-191.5 196.3"/>
    <path d="m404 431.3c22.5-8.9 52.2-48.9 60.4-86.1s38.8-97.2 73.8-110.6"/>
    <path d="m162.8 431.1c10.8-10.2 25.3-25.7 41.2-26.3 22.4-.8 22.4 26.4 38.4 26.5 18 .2 27.5-7.1 80.1-47.3l22.3 47.6"/>
    <path d="m404 431.3c-4 1.6-4.5-2.7-2.6-4.7 9-9.4 69.6-27 84.1-27.7 16.8-.7 19.4 32.1 36.1 32.2 14.1.1 22.9-12.7 29.4-21.1 20.4-26.3 41.3-50 73.2-64 17.4-7.7 34.6-10.4 49.1-9.8 11.9.5 23 4.5 32.1 11.7 19.5 15.3 30.5 44.7 23.8 83.8"/>
   </g>
   <path d="m729.3 431.7c27.9-36.3 55.5-75.3 84.2-109.9 15.3-18.5 29.7-33.2 45.9-32.9 8.1.1 14.9 5.5 14.2 16.3-.5 6.7-5 15.5-11.7 26.8l-31.2 52.3" stroke-width="5.625001"/>
  </g>
 </g>
</svg>
