<svg height="210mm" viewBox="0 0 1052.4 744.1" width="297mm" xmlns="http://www.w3.org/2000/svg">
 <g fill="none" stroke-linecap="round">
  <g transform="translate(0 -308.26772)">
   <path d="m57.6 742.2h948.8" stroke="#969696" stroke-width="1.875"/>
   <g stroke="#000" stroke-dasharray="3.75 7.5" stroke-miterlimit="2" stroke-width=".9375">
    <path d="m58.3 844.1h948.8"/>
    <path d="m58.3 641.8h948.8"/>
    <path d="m58.3 540.6h948.8"/>
   </g>
  </g>
  <g stroke="#000">
   <g stroke-linejoin="round">
    <path d="m542.7 347.8c29.3-19.3 105.7-87.1 127.5-107.1 21.4-19.8 34.8-45.4 31.3-54.5-5.1-13.3-35.3 5.7-77.2 70.4-10.5 16.1-20.2 33.5-28.5 49.8-28.6 56.2-25.9 74.8-9.8 72.7 23-2.9 59.4-18.7 89.8-42" stroke-width="5.625"/>
    <path d="m546.5 336.6c.7.1 1.3.2 1.8.5.2.1.3.2.4.3.9.7 1.2 1.8.7 3.6-.9 3.6-5 5.6-6.9 6.3-4 1.4-6.9-1.8-4.6-5.3 1.4-2.2 3.9-4.6 6.8-5.2.2 0 .4-.1.6-.1h.7c.6 0 1.1.1 1.7.2" stroke-width="5.625"/>
    <path d="m542.7 347.8c-14.1 6.9-103.3 84-94.1 83.5 14.4.1 31.9-21.9 38.8-31.6 28.4-40.2 30.6-95.6-25.7-40.3" stroke-width="5.419139"/>
   </g>
   <path d="m461.7 359.4c-27.5 29.5-117.6 174.3-117.6 174.3" stroke-width="5.625"/>
  </g>
 </g>
</svg>
