<svg height="210mm" viewBox="0 0 1052.4 744.1" width="297mm" xmlns="http://www.w3.org/2000/svg">
 <g fill="none" stroke-linecap="round">
  <g transform="translate(0 -308.26772)">
   <path d="m57.6 742.2h948.8" stroke="#969696" stroke-width="1.875"/>
   <g stroke="#000" stroke-dasharray="3.75 7.5" stroke-miterlimit="2" stroke-width=".9375">
    <path d="m58.3 844.1h948.8"/>
    <path d="m58.3 641.8h948.8"/>
    <path d="m58.3 540.6h948.8"/>
   </g>
  </g>
  <g stroke-linejoin="round" stroke-width="5.625">
   <g stroke="#000">
    <path d="m394.2 395.8c-1.8.8-52.1 29.9-57 33.1-38.6 25.5-75.3 86.2-66.9 101.4 2.9 5.3 34.7 12.4 62.3-63.3 15.8-47.4 16.5-113.3 70.8-131.6"/>
    <path d="m556.4 383.2s101.6-118.4 141.8-147.5c10.7-2.7 14.3.7 18.7 3.2 7.6 4.3 8 17.2-6 41.5l-29.8 52.1"/>
    <path d="m374.9 352.6s-68.3 63.3-81.7 71.5c-4.6 3.6-11.2 5.3-14 5.9-16.5 3.8-29.8-6.7-21.5-22.2l39-72.4"/>
    <path d="m681.2 332.5c27.1-14.3 64.9-45.1 89-46.3 24-1 32.4 47.5 48.8 47 10.8-.3 18.5-11.6 25.1-19.8"/>
   </g>
   <g stroke="#00000a">
    <path d="m611.8 286.1-55.8 97.2"/>
    <path d="m611.8 286.1h-10.6"/>
    <path d="m606.3 286.1-55.8 97.2"/>
    <path d="m556 383.3h-10.6"/>
    <path d="m394.2 395.8 207-109.7-55.8 97.2 11-.1"/>
   </g>
  </g>
 </g>
</svg>
