<svg height="210mm" viewBox="0 0 1052.4 744.1" width="297mm" xmlns="http://www.w3.org/2000/svg">
 <g fill="none" stroke-linecap="round">
  <g transform="translate(0 -308.26772)">
   <path d="m57.6 742.2h948.8" stroke="#969696" stroke-width="1.875"/>
   <g stroke="#000" stroke-dasharray="3.75 7.5" stroke-miterlimit="2" stroke-width=".9375">
    <path d="m58.3 844.1h948.8"/>
    <path d="m58.3 641.8h948.8"/>
    <path d="m58.3 540.6h948.8"/>
   </g>
  </g>
  <g stroke="#000" stroke-linejoin="round" stroke-width="5.625">
   <path d="m537.6 310.2c22.3-11.6 35.6-16.8 37.2-17.4 1.5-.5 9.4-2.6 10.8-2.9 17.8-3.9 35.6 6.9 35.2 48.5-.2 32.1 11.3 45.5 24.9 47.7 3 .5 6.1.3 9.2-.1 23.6-3.1 55-24.1 68.2-32.9"/>
   <path d="m590.6 289.3c14.1-1.8 35.4 14 35.2 45.9-.2 30.1 8.2 53 28.3 51.2"/>
   <path d="m590.6 289.3c17-.9 25 18.1 24.8 50-.2 30.1 11.9 49.3 38.7 46.9"/>
   <path d="m316.7 430.6 220.9-120.4"/>
   <path d="m297.9 390.4 18.8 40.2"/>
  </g>
 </g>
</svg>
