<svg height="210mm" viewBox="0 0 1052.4 744.1" width="297mm" xmlns="http://www.w3.org/2000/svg">
 <g fill="none" stroke-linecap="round" transform="translate(0 -308.26772)">
  <path d="m57.6 742.2h948.8" stroke="#969696" stroke-width="1.875"/>
  <g stroke="#000" stroke-dasharray="3.75 7.5" stroke-miterlimit="2" stroke-width=".9375">
   <path d="m58.3 844.1h948.8"/>
   <path d="m58.3 641.8h948.8"/>
   <path d="m58.3 540.6h948.8"/>
  </g>
 </g>
 <circle cx="521.06665" cy="362.56461" r="10.653954"/>
 <circle cx="505.67761" cy="411.57278" r="10.653955"/>
 <g fill="none" stroke-linecap="round" stroke-linejoin="round" stroke-width="5.625">
  <g stroke="#00000a">
   <path d="m292.2 333.6-55.8 97.2"/>
   <path d="m292.2 333.6h-10.6"/>
   <path d="m286.7 333.6-55.8 97.2"/>
   <path d="m236.4 430.8h-10.6"/>
  </g>
  <path d="m180.9 432 100.7-98.4-55.8 97.2 11-.1 50.8-47.5" stroke="#000"/>
  <path d="m287.6 383.2s30-31.3 38.6-38c18.6-14.6 57.4-12.5 34 16.5-27.4 33.8-45.5 50.2-39.4 63.9 4.2 9.5 26.7 4.7 36.5-3.7 2.3-2 5.2-4.4 7.9-6.9" stroke="#000"/>
  <g stroke="#00000a">
   <path d="m722.7 333.1-55.8 97.2"/>
   <path d="m722.7 333.1h-10.6"/>
   <path d="m717.2 333.2-55.8 97.2"/>
   <path d="m666.9 430.4h-10.6"/>
  </g>
  <path d="m611.4 431.5 100.7-98.4-55.8 97.2 11-.1 49.5-59.4" stroke="#000"/>
  <path d="m716.8 370.9s18.2-19.4 26.8-26.2c18.6-14.6 57.4-12.5 34 16.5-27.4 33.8-45.5 50.2-39.4 63.9 2.4 5.4 10.5 6.2 18.9 4.4 11.7-2.4 36.4-15.1 52.6-23.7 15.8-8.7 42.7-20.1 48.2-.4 7.8 28.2 15.1 33.5 36.6 15.5" stroke="#000"/>
 </g>
</svg>
