<svg height="210mm" viewBox="0 0 1052.4 744.1" width="297mm" xmlns="http://www.w3.org/2000/svg">
 <g fill="none" stroke-linecap="round">
  <g transform="translate(0 -308.26772)">
   <path d="m57.6 742.2h948.8" stroke="#969696" stroke-width="1.875"/>
   <g stroke="#000" stroke-dasharray="3.75 7.5" stroke-miterlimit="2" stroke-width=".9375">
    <path d="m58.3 844.1h948.8"/>
    <path d="m58.3 641.8h948.8"/>
    <path d="m58.3 540.6h948.8"/>
   </g>
  </g>
  <g stroke="#000">
   <g stroke-linejoin="round">
    <path d="m529.1 360.2-44.3 70.8" stroke-width="5.625"/>
    <path d="m511.9 391.9-23.4 38.7" stroke-width="3.75"/>
    <g stroke-width="5.625">
     <path d="m484.9 431.1 7.9.2"/>
     <path d="m406.8 431.5c45 1 72.9-100.6 116.1-95.1 1.7.3 3.2.7 4.6 1.3 9.1 3.9 10.6 14.5-4.2 40.7l-29.6 52.7"/>
    </g>
   </g>
   <path d="m527.6 338.8c6.1 2.8 6.9 11.6-1.9 25.1" stroke-width="3.75"/>
   <g stroke-linejoin="round" stroke-width="5.625">
    <path d="m453.5 336.1c-45.6 11.9-86.4 95.7-46.7 95.4"/>
    <ellipse cx="321.94159" cy="702.60754" rx="25.728558" ry="20.371416" transform="matrix(.79083574 -.61202846 .61202846 .79083574 0 0)"/>
    <path d="m667.2 347.3c-8 9.8-40 51.2-47.5 60.3-9.2 11.1-16.9 23.1-28.9 23.5-15.3.5-21.2-31-38-30.4-22.1.6-41.5 18.7-59.1 30.5"/>
   </g>
  </g>
 </g>
</svg>
