<svg height="210mm" viewBox="0 0 1052.4 744.1" width="297mm" xmlns="http://www.w3.org/2000/svg">
 <g fill="none" stroke-linecap="round">
  <g transform="translate(0 -308.26772)">
   <path d="m57.6 742.2h948.8" stroke="#969696" stroke-width="1.875"/>
   <g stroke="#000" stroke-dasharray="3.75 7.5" stroke-miterlimit="2" stroke-width=".9375">
    <path d="m58.3 844.1h948.8"/>
    <path d="m58.3 641.8h948.8"/>
    <path d="m58.3 540.6h948.8"/>
   </g>
  </g>
  <g stroke="#000" stroke-width="5.625">
   <g stroke-linejoin="round">
    <path d="m463.7 431.3 270.2-95.2-42.1 73.6c-8.7 15.3 3.1 24.6 19.6 20.8 2.8-.7 9.2-2.6 14-6 8-5.7 19.8-15.6 33.6-30.1"/>
    <path d="m759 394.6 53.5-58.2-49.2 94.6"/>
    <path d="m823.1 336.3-49.2 94.6"/>
    <path d="m823.1 336.3h-10.6"/>
    <path d="m817.6 336.3-49.2 94.6"/>
    <path d="m773.9 430.9h-10.6"/>
    <path d="m260.6 431.5c57.3-69.1 113.5-96.8 152.8-95.2 37.4 1.5 60.1 37.8 50.3 95.1"/>
    <path d="m382.6 340.1c9.9-2.5 19.5-3.5 28-3.2 37.4 1.5 59.1 37.1 49.3 94.5"/>
    <path d="m394.1 337.7c4.3-.5 7.9-.8 11.9-.7 37.4 1.5 59.8 36.9 50 94.3"/>
    <path d="m405.4 336.9c37.4 1.5 58.6 37.1 48.7 94.4"/>
   </g>
   <path d="m454.2 431.3h9.5"/>
  </g>
 </g>
</svg>
