<svg height="210mm" viewBox="0 0 1052.4 744.1" width="297mm" xmlns="http://www.w3.org/2000/svg">
 <g fill="none" stroke-linecap="round">
  <g transform="translate(0 -308.26772)">
   <path d="m57.6 742.2h948.8" stroke="#969696" stroke-width="1.875"/>
   <g stroke="#000" stroke-dasharray="3.75 7.5" stroke-miterlimit="2" stroke-width=".9375">
    <path d="m58.3 844.1h948.8"/>
    <path d="m58.3 641.8h948.8"/>
    <path d="m58.3 540.6h948.8"/>
   </g>
  </g>
  <g stroke="#000" stroke-linejoin="round">
   <path d="m505.5 431.8 66.5-45.9" stroke-width="5.625"/>
   <path d="m728.3 431.5c5.4-3.3 11.7-10.5 6.5-17.1-2.6-3.3-4-4.5-11.9-4.4l-135 .6c-5.8 0-12.7.1-15.9-.7-9.6-2.4-7.9-13.2 0-24" stroke-width="5.625"/>
   <g stroke-width="5.624999">
    <path d="m552.1 336.4-46.6 95.4"/>
    <path d="m552.1 336.4h-8.2"/>
    <path d="m548.2 337.2-45.7 93.9"/>
    <path d="m505.5 431.8h-8.2"/>
    <path d="m543.9 336.4-46.6 95.4"/>
   </g>
   <path d="m353.6 431.6c6.9-7.3 20.8-25.6 40.1-25.1 19.4.4 13.1 25 34.2 25.2 20.2-.8 34.6-20 116-95.4" stroke-width="5.625"/>
  </g>
 </g>
</svg>
