<svg height="210mm" viewBox="0 0 1052.4 744.1" width="297mm" xmlns="http://www.w3.org/2000/svg">
 <g fill="none" stroke-linecap="round">
  <g transform="translate(0 -308.26772)">
   <path d="m57.6 742.2h948.8" stroke="#969696" stroke-width="1.875"/>
   <g stroke="#000" stroke-dasharray="3.75 7.5" stroke-miterlimit="2" stroke-width=".9375">
    <path d="m58.3 844.1h948.8"/>
    <path d="m58.3 641.8h948.8"/>
    <path d="m58.3 540.6h948.8"/>
   </g>
  </g>
  <g stroke="#000">
   <g stroke-linejoin="round">
    <path d="m509 350.1c36.2-15.7 154.5-66.9 206.6-140 7.4-10.3 8-21 6.1-26-5.5-14.4-40.2 8.9-87.4 86.8-66.8 115.3-38.6 122.7 2.1 88.6 1.7-1.4 21.8-19.9 29.7-28.6" stroke-width="5.625"/>
    <g stroke-width="5.624959">
     <path d="m738.7 330.2c10.9-9.5 39.2-46.1 70.5-47 22.7-.8 24.7 74.3 63 32.9"/>
     <path d="m666.1 330.8c10.9-10.9 39.3-48.5 39.3-48.5l33.3 47.8"/>
     <path d="m705.4 282.4 23.9 47.9"/>
     <path d="m714.9 282.4 23.8 47.8"/>
     <path d="m711 282.2 23.9 48"/>
    </g>
   </g>
   <path d="m707.7 281.3h7" stroke-width="3.749973"/>
   <path d="m731.1 331.2h7.1" stroke-width="3.749973"/>
   <g stroke-linejoin="round">
    <g stroke-width="5.625">
     <path d="m321.4 430.6c3.3 1 187.6-80.5 187.6-80.5"/>
     <path d="m340.2 336.2-42.4 73.1c-9.3 16 4.2 25.4 23.6 21.3"/>
     <path d="m282.4 377.5c18.4-13.2 57.8-41.3 57.8-41.3"/>
    </g>
    <path d="m282.4 377.5-58.1 39.3c-4.5 3-7.7 8.1-8.3 9-1.9 3.1-1.1 5.3 3.9 5.8 3 .3 9.7-4.2 11-5 48.9-28 71.8-129.3 9.4-73.8-2.3 2.1-17.4 18.4-20 20.9" stroke-width="5.419139"/>
   </g>
  </g>
 </g>
</svg>
