<svg height="210mm" viewBox="0 0 1052.4 744.1" width="297mm" xmlns="http://www.w3.org/2000/svg">
 <g fill="none" stroke-linecap="round">
  <g transform="translate(0 -308.26772)">
   <path d="m57.6 742.2h948.8" stroke="#969696" stroke-width="1.875"/>
   <g stroke="#000" stroke-dasharray="3.75 7.5" stroke-miterlimit="2" stroke-width=".9375">
    <path d="m58.3 844.1h948.8"/>
    <path d="m58.3 641.8h948.8"/>
    <path d="m58.3 540.6h948.8"/>
   </g>
  </g>
  <path d="m358.2 384.5c41.5 3.1 62-37.2 58.7-45.9-2.9-7.5-30.4-4.4-55.1 36.4-26.7 43.7-24 56.5-10.8 56.3 29.7-.3 77.2-53.1 115.1-105.2 15.6-21.4 36.6-40.9 57.5-42.3 23.4-.2 35.6 20.7 45 42.9 10.5 24.8 18 52 37.8 51.8 13.9-.2 21.6-7 31.5-14.9" stroke="#000" stroke-linejoin="round" stroke-width="5.625"/>
 </g>
</svg>
