<svg height="210mm" viewBox="0 0 1052.4 744.1" width="297mm" xmlns="http://www.w3.org/2000/svg">
 <g fill="none" stroke-linecap="round">
  <g transform="translate(0 -308.26772)">
   <path d="m57.6 742.2h948.8" stroke="#969696" stroke-width="1.875"/>
   <g stroke="#000" stroke-dasharray="3.75 7.5" stroke-miterlimit="2" stroke-width=".9375">
    <path d="m58.3 844.1h948.8"/>
    <path d="m58.3 641.8h948.8"/>
    <path d="m58.3 540.6h948.8"/>
   </g>
  </g>
  <g stroke="#000" stroke-linejoin="round" stroke-width="5.625">
   <path d="m482.9 430.9c33.1-17.7 64.2-37.7 88.4-58.6 12.8-11.2 18.6-26.1 16.7-30.9-2.8-7.3-34.7-8.6-58.5 30.7-26.3 43.1-18.8 59.4-2.7 59.3 11.4-1.2 32.8-9.9 42-15.9"/>
   <path d="m568.9 415.4c14.1-8.6 32.4-15.4 42-13.6 17.2 3.2 16 46.2 45.6 21.5"/>
   <path d="m460.9 385.3 22 45.6"/>
   <path d="m391.3 416.8 69.6-31.5"/>
   <path d="m430.9 431.4c11.2-27.4-9.2-38.1-20.9-44.2-32.6-16.9-29.7-38.2-22.8-51.3"/>
  </g>
 </g>
</svg>
