<svg height="210mm" viewBox="0 0 1052.4 744.1" width="297mm" xmlns="http://www.w3.org/2000/svg">
 <g fill="none" stroke-linecap="round">
  <g transform="translate(0 -308.26772)">
   <path d="m57.6 742.2h948.8" stroke="#969696" stroke-width="1.875"/>
   <g stroke="#000" stroke-dasharray="3.75 7.5" stroke-miterlimit="2" stroke-width=".9375">
    <path d="m58.3 844.1h948.8"/>
    <path d="m58.3 641.8h948.8"/>
    <path d="m58.3 540.6h948.8"/>
   </g>
  </g>
  <g stroke="#000">
   <g stroke-linejoin="round">
    <path d="m371.8 431c9.2-8 19.3-17.1 28.5-24.4 12.8-10.3 26-18.4 39.6-18.9 2.7-.1 5.2.4 7.2 1.5 7.7 4.2 8.7 17.4-5.8 41.6l-31.2 52.3" stroke-width="5.625"/>
    <path d="m448 411-45.9 71.8" stroke-width="5.625"/>
    <path d="m430.8 442.7-25 39.7" stroke-width="3.75"/>
    <path d="m402.1 482.8 7.9.2" stroke-width="5.625"/>
   </g>
   <path d="m447.3 390.5c4 2.2 6.1 10.8-2.8 24.3" stroke-width="3.75"/>
   <g stroke-linejoin="round" stroke-width="5.625">
    <path d="m409.9 483.1s50.7-32.3 96.1-47"/>
    <path d="m561.2 440.9c-33.2 20-219.1 173.3-180.1 192.4 12.6 4.9 33.1-7.6 54.5-66.3 15.7-47.2 16.4-112.8 70.4-130.9"/>
    <path d="m702 485.7a25.8 33.7 41.6 0 1 -19.3 42.1 25.8 33.7 41.6 0 1 -37-9.2 25.8 33.7 41.6 0 1 19.3-42.1 25.8 33.7 41.6 0 1 37 9.2z"/>
    <path d="m561.2 440.9c4.9-2.5 10.1-4.2 15.6-4.4 21.3-.8 21.7 42.8 39.5 47.2s42.9-6.1 57.6-11"/>
   </g>
  </g>
 </g>
</svg>
