<svg height="210mm" viewBox="0 0 1052.4 744.1" width="297mm" xmlns="http://www.w3.org/2000/svg">
 <g fill="none" stroke-linecap="round">
  <g transform="translate(0 -308.26772)">
   <path d="m57.6 742.2h948.8" stroke="#969696" stroke-width="1.875"/>
   <g stroke="#000" stroke-dasharray="3.75 7.5" stroke-miterlimit="2" stroke-width=".9375">
    <path d="m58.3 844.1h948.8"/>
    <path d="m58.3 641.8h948.8"/>
    <path d="m58.3 540.6h948.8"/>
   </g>
  </g>
  <g stroke="#000" stroke-linejoin="round">
   <path d="m292.4 260.1c6.4-13.7 27.9-26.8 41.5-25.5 7.7.7 15.6 7.9 11.3 18.6-6.4 14.1-15.9 21.3-33.7 32-9.7 5.8-24.5 14.9-32.9 26.6-5 7-7.7 15.6-6 27.3 6.3 42.7-45.5 80.6-63.9 91.9" stroke-width="5.625"/>
   <path d="m208.7 431c-2.9 1.3-6.3-3.1-3-5.8 4.7-3.9 94.7-25.1 103.7-25.3 16.7-.3 16.2 31.8 36.7 31.8" stroke-width="5.625"/>
   <g stroke-width="5.624999">
    <path d="m778 335.7-46.6 95.4"/>
    <path d="m778 335.7h-8.2"/>
    <path d="m774.1 336.6-45.7 93.8"/>
    <path d="m731.4 431.1h-8.2"/>
    <path d="m769.8 335.8-46.6 95.4"/>
   </g>
   <g stroke-width="5.625">
    <path d="m673.1 431.7 96.7-95.9"/>
    <path d="m731.4 431.1 89.5-94.2"/>
    <path d="m346.1 431.7c4.6-.1 10.1-.5 14.4-1.6 2.9-.7 10.8-2.7 22.5-7.1 46.7-17.3 184.5-72.8 204-80"/>
    <path d="m587.1 343c6.4-2.2 12.6-3.8 18.6-4.8 6.7-1.2 13.1-1.6 19.1-1.4 9.8.4 18.5 3.2 25.7 8.1 5.8 3.9 10.8 9.3 14.7 15.8 9.8 16.5 13.1 40.8 7.9 71"/>
   </g>
  </g>
 </g>
</svg>
