<svg height="210mm" viewBox="0 0 1052.4 744.1" width="297mm" xmlns="http://www.w3.org/2000/svg">
 <g fill="none" stroke-linecap="round">
  <g transform="translate(0 -308.26772)">
   <path d="m57.6 742.2h948.8" stroke="#969696" stroke-width="1.875"/>
   <g stroke="#000" stroke-dasharray="3.75 7.5" stroke-miterlimit="2" stroke-width=".9375">
    <path d="m58.3 844.1h948.8"/>
    <path d="m58.3 641.8h948.8"/>
    <path d="m58.3 540.6h948.8"/>
   </g>
  </g>
  <g stroke="#000">
   <g stroke-width="5.625">
    <path d="m858.8 336.3c-35.6 38.8-168.8 57.5-175.1-.3l-59.9 99.6" stroke-linejoin="round"/>
    <path d="m623.8 435.6s-11.3 17.8-12.7 21.5c-1.5 3.7-2.1 7.5-1.7 11 .5 4.9 2.9 9.4 7 12.3 2 1.4 4.2 2.3 6.5 2.8 2.7.6 5.5.6 8.4.1 2.2-.4 4.4-1.1 6.5-2.1 1.5-.7 3-1.6 4.5-2.6 2.1-1.5 4.1-3.4 5.9-5.5 1.8-2.2 3.2-4.5 4.1-6.9 1.1-2.7 1.8-5.5 1.9-8.2.1-3.4-.5-6.6-1.9-9.4-1.2-2.3-2.9-4.4-5.2-6-2-1.4-4.1-2.3-6.5-2.8l-16.8-4.3"/>
    <g stroke-linejoin="round">
     <path d="m288.7 431.3 98.9-48.6 24 48"/>
     <path d="m411.6 430.6c13.5-14.6 32.3-32.3 50.8-33.3 17.6-.7 18.3 33.7 32.1 33.8 12.6 0 21.8-9.6 32.6-18.8 61.7-52.5 199.4-165.9 159.5-177.1-14.8-4.1-42.5 11.8-89.2 90-21.9 36.7-33.1 63.8-35.3 81.4-1.6 13.2 5.7 23.9 26.4 25 12.6.7 26.3 1.1 35.3 3.9"/>
    </g>
   </g>
   <path d="m186.3 430.7c41.8-69.4 112.3-60.1 102.4.6" stroke-linejoin="round" stroke-width="5.624999"/>
  </g>
 </g>
</svg>
