<svg height="210mm" viewBox="0 0 1052.4 744.1" width="297mm" xmlns="http://www.w3.org/2000/svg">
 <g fill="none" stroke-linecap="round">
  <g transform="translate(0 -308.26772)">
   <path d="m57.6 742.2h948.8" stroke="#969696" stroke-width="1.875"/>
   <g stroke="#000" stroke-dasharray="3.75 7.5" stroke-miterlimit="2" stroke-width=".9375">
    <path d="m58.3 844.1h948.8"/>
    <path d="m58.3 641.8h948.8"/>
    <path d="m58.3 540.6h948.8"/>
   </g>
  </g>
  <g stroke="#000" stroke-linejoin="round">
   <path d="m500.4 333.4c54.3-11 97.7-78.3 91.4-95-5.5-14.4-40.3 8.9-87.4 86.8-41.1 70.2-45.9 107.1-16.7 106.4" stroke-width="5.624999"/>
   <path d="m487.6 431.5c10.9.1 22.9-3.8 30.9-9.8" stroke-width="5.625001"/>
   <path d="m530.5 393.8c3.3 9.6-2.5 22.3-13 28.5-10.5 6.1-21.8 3.4-25.1-6.2s2.5-22.3 13-28.5c10.5-6.1 21.8-3.4 25.1 6.2z" stroke-width="5.625"/>
  </g>
 </g>
</svg>
