<svg height="210mm" viewBox="0 0 1052.4 744.1" width="297mm" xmlns="http://www.w3.org/2000/svg">
 <g fill="none" stroke-linecap="round">
  <g transform="translate(0 -308.26772)">
   <path d="m57.6 742.2h948.8" stroke="#969696" stroke-width="1.875"/>
   <g stroke="#000" stroke-dasharray="3.75 7.5" stroke-miterlimit="2" stroke-width=".9375">
    <path d="m58.3 844.1h948.8"/>
    <path d="m58.3 641.8h948.8"/>
    <path d="m58.3 540.6h948.8"/>
   </g>
  </g>
  <path d="m663.4 336.9c-56.6 14.8-104.6 143.3-14.6 74.3" stroke="#000" stroke-linejoin="round" stroke-width="5.625"/>
  <g stroke="#00000c">
   <g stroke-linejoin="round" stroke-width="5.625">
    <path d="m648.8 411.2 30.6-28.2 33.3 47.9"/>
    <path d="m679.4 383 24 48"/>
    <path d="m688.9 383 23.8 47.9"/>
    <path d="m685 382.9 24 48"/>
   </g>
   <g stroke-width="3.75">
    <path d="m681.7 382h7.1"/>
    <path d="m705.1 431.9h7.1"/>
   </g>
  </g>
  <g stroke-linejoin="round" stroke-width="5.625">
   <path d="m712.7 430.9c22.5-18.1 50.3-40 65.8-40.9 20.1-.2 15.1 39.5 33.2 40.9 10.8-.3 16.8-10.6 23.4-18.7" stroke="#000"/>
   <path d="m206.9 431.6c11.2-23.8 35.5-42.1 59.9-44.7 30.4-3.3 45.4 10.8 35.5 44.6" stroke="#000"/>
   <path d="m302.2 431.5 159.9-48.3 20 47.9 83.5-96.3" stroke="#060000"/>
   <path d="m565.7 334.8-42.4 73.1c-7.7 13.2 1.5 24.1 14.8 22.9 41-3.7 61.3-52.7 107-85.2" stroke="#000"/>
  </g>
 </g>
</svg>
