<svg height="210mm" viewBox="0 0 1052.4 744.1" width="297mm" xmlns="http://www.w3.org/2000/svg">
 <g fill="none" stroke-linecap="round">
  <g transform="translate(0 -308.26772)">
   <path d="m57.6 742.2h948.8" stroke="#969696" stroke-width="1.875"/>
   <g stroke="#000" stroke-dasharray="3.75 7.5" stroke-miterlimit="2" stroke-width=".9375">
    <path d="m58.3 844.1h948.8"/>
    <path d="m58.3 641.8h948.8"/>
    <path d="m58.3 540.6h948.8"/>
   </g>
  </g>
  <path d="m403.4 347.3c23.7-19.2 60.9-14.6 37.5 14.4-27.4 33.8-45.5 50.2-39.4 63.9 1.7 3.8 5.5 5.4 10.4 5.3" stroke="#000" stroke-linejoin="round" stroke-width="5.625"/>
  <g stroke="#00000c">
   <g stroke-linejoin="round" stroke-width="5.625">
    <path d="m411.8 430.9c21.1.5 46 2.1 46 2.1l33.3 47.9"/>
    <path d="m457.8 433 24 48"/>
    <path d="m467.3 433 23.8 47.9"/>
    <path d="m463.4 432.9 24 48"/>
   </g>
   <g stroke-width="3.75">
    <path d="m460.1 432h7.1"/>
    <path d="m483.5 481.9h7.1"/>
   </g>
  </g>
  <path d="m491.1 480.9c25.7-35.1 117.5-167.3 153.6-194.6 24.8-13.8 32.7 7.7 20.5 31.3-14.7 43-42.4 79.5-69.3 116.4-43.5 61-58.9 41.1-59.8 38.1-2.3-7.3 5.5-36.8 38-60 16.1-12.6 41.1-26.6 61.8-37.5" stroke="#000" stroke-linejoin="round" stroke-width="5.625"/>
 </g>
</svg>
