<svg height="210mm" viewBox="0 0 1052.4 744.1" width="297mm" xmlns="http://www.w3.org/2000/svg">
 <g fill="none" stroke-linecap="round">
  <g transform="translate(0 -308.26772)">
   <path d="m57.6 742.2h948.8" stroke="#969696" stroke-width="1.875"/>
   <g stroke="#000" stroke-dasharray="3.75 7.5" stroke-miterlimit="2" stroke-width=".9375">
    <path d="m58.3 844.1h948.8"/>
    <path d="m58.3 641.8h948.8"/>
    <path d="m58.3 540.6h948.8"/>
   </g>
  </g>
  <g stroke="#000" stroke-linejoin="round" stroke-width="5.625">
   <path d="m331.3 388.1c40 3 58.3-35.4 56.6-44.3-3.1-16.6-29.3-4.3-53.1 35-24.3 39.8-19.4 52.8-7.1 53 23.6.3 88.9-56 125.6-83.5 14.7-10.6 59.7-43.3 46.5-57-16.4-19.2-64 32.6-69 102.2-2.2 30.8-11.4 48.1-19.9 61.8-19.9 32-43.4 33.5-48.3 24.3-11.5-27.5 47.9-68.5 100.6-104.6 57.2-39.1 57.2-39.1 57.2-39.1l-53 94.9"/>
   <path d="m467.5 430.9 117.2-94.9"/>
   <path d="m811.3 336.1c-41.5 47.1-175.4 62.4-175.1-.3l-94.3 94.9"/>
   <path d="m595.3 336-53.7 94.8"/>
   <path d="m595.3 336h-10.6"/>
   <path d="m589.7 336-53.7 94.8"/>
   <path d="m541.6 430.8h-10.6"/>
   <path d="m584.7 336.1-53.7 94.8 11-.1"/>
  </g>
 </g>
</svg>
