<svg height="210mm" viewBox="0 0 1052.4 744.1" width="297mm" xmlns="http://www.w3.org/2000/svg">
 <g fill="none" stroke-linecap="round">
  <g transform="translate(0 -308.26772)">
   <path d="m57.6 742.2h948.8" stroke="#969696" stroke-width="1.875"/>
   <g stroke="#000" stroke-dasharray="3.75 7.5" stroke-miterlimit="2" stroke-width=".9375">
    <path d="m58.3 844.1h948.8"/>
    <path d="m58.3 641.8h948.8"/>
    <path d="m58.3 540.6h948.8"/>
   </g>
  </g>
  <g stroke="#000">
   <g stroke-width="5.625">
    <path d="m328.1 390.8c53.7-37.8 175.6-144.2 143.6-155.2-14.6-5-42.6 13.7-89.8 91.6-38.6 66.7-42.5 95.9-31.4 103.1 1.1.7 2.2 1.1 3.5 1.3 1.2.2 2.5.2 3.9.2" stroke-linejoin="round"/>
    <path d="m328.1 390.8c-11.7 9.2-29.8 24.6-47.1 37.3-19.8 14.5-66.7 46.5-87.1 75-6.5 9.1-9.8 17.5-7.7 23.9.9 3 16.3 22.9 59.8-38.1 26.9-36.9 54.6-73.4 69.3-116.4 7.7-23 5.5-36.8-7.5-36.3" stroke-linejoin="round"/>
    <path d="m523.4 270c-100 118.7-134.1 161.2-165.5 161.7"/>
    <path d="m138.5 533.6s103.6-138.3 134.4-172c7.8-8.6 14.4-14.7 20.2-18.8 6-4.3 10.9-6.3 14.8-6.6"/>
    <path d="m530 245.1a19.2 25.1 41.6 0 1 -14.3 31.3 19.2 25.1 41.6 0 1 -27.6-6.8 19.2 25.1 41.6 0 1 14.3-31.3 19.2 25.1 41.6 0 1 27.6 6.8z" stroke-linejoin="round"/>
   </g>
   <g stroke-linejoin="round">
    <path d="m692 280.4s67.8-100.6 102.2-152.8c36.5-55.2 62-97.8 86.1-95.2 5 .5 8.7 2.3 11.3 4.7 2.9 2.7 4.4 6.3 4.7 10.6.3 4.5-.7 9.7-2.8 15.2-2 5.2-5 10.6-8.5 16.2l-65.3 106.2c-7.4 12.6-10.3 23.1-7.7 30.8 2.4 6.9 6.3 12.1 16.8 12.9 7.1.2 14-1.7 20.4-5.5 6.8-4 13.1-10.1 18.6-18" stroke-width="5.624999"/>
    <g stroke-width="5.625">
     <path d="m667.7 232.6 24.2 47.9"/>
     <path d="m613 185.2c-13.7 23-33.6 61.1-38.8 72-6.8 14.3 2.4 23.8 16.6 22.9 21.1-.2 64.7-38 77-47.6"/>
     <path d="m523.4 270 89.6-84.8"/>
    </g>
   </g>
  </g>
 </g>
</svg>
