<svg height="210mm" viewBox="0 0 1052.4 744.1" width="297mm" xmlns="http://www.w3.org/2000/svg">
 <g fill="none" stroke-linecap="round">
  <g stroke="#969696" transform="translate(0 -308.26772)">
   <path d="m57.6 742.2h948.8" stroke-width="1.875"/>
   <g stroke-dasharray="3.75 7.5" stroke-miterlimit="2" stroke-width=".9375">
    <path d="m58.3 844.1h948.8"/>
    <path d="m58.3 641.8h948.8"/>
    <path d="m58.3 540.6h948.8"/>
   </g>
  </g>
  <g stroke="#000" stroke-linejoin="round" stroke-width="5.625">
   <path d="m416.5 334.3c54.3-11 97.7-78.3 91.4-95-3.4-8.9-18.1-3.3-40.1 20.9-13.4 14.8-29.4 36.3-47.2 65.8-20.2 34.9-30.2 57.7-34 74.2-3.7 18.3.1 29.3 20.3 31.2 8 .7 22.5-1.3 32.9-5.5"/>
   <ellipse cx="608.16534" cy="4.988566" rx="4.609393" ry="6.862875" transform="matrix(.72846687 .68508103 -.68508103 .72846687 0 0)"/>
   <path d="m436.7 426.9c16 15.6 46.4-18.2 66.8-46.9 14.8-20.8 24.9-35.2 37.5-52.4 15.6-21.4 34.7-40.9 55.6-42.3 23.4-.2 35.6 20.7 45 42.9 10.5 24.8 17.6 51.3 33 51.8 13.5.3 21.3-7.1 30.3-16.4"/>
  </g>
 </g>
</svg>
