<svg height="210mm" viewBox="0 0 1052.4 744.1" width="297mm" xmlns="http://www.w3.org/2000/svg">
 <g fill="none" stroke-linecap="round">
  <g transform="translate(0 -308.26772)">
   <path d="m57.6 742.2h948.8" stroke="#969696" stroke-width="1.875"/>
   <g stroke="#000" stroke-dasharray="3.75 7.5" stroke-miterlimit="2" stroke-width=".9375">
    <path d="m58.3 844.1h948.8"/>
    <path d="m58.3 641.8h948.8"/>
    <path d="m58.3 540.6h948.8"/>
   </g>
  </g>
  <g stroke-linejoin="round" stroke-width="5.625">
   <path d="m446.1 431.4c41.8-1.2 73.6-97.7 115-95.5 12.1.8 16.5 13.6-.4 43.1l-29.8 52.1" stroke="#000001"/>
   <path d="m531.6 420.4c18.1 3.2 108.2-74.8 119.9-86.4 17.4-16 22.4-33.6 19-42.1-3.7-8.7-29.6-3.1-49.6 33.5-21.6 39.4-14.5 57.8-1 57.9" stroke="#000001"/>
   <g stroke="#000">
    <path d="m619.9 383.4c20.9 1.2 105.5-49.6 136-85.7 19.8-21.8 36-52 19.7-62-10.1-5-34.4 8.1-52 38.1-22.6 37.4-93.2 194.7-123.3 259.3"/>
    <path d="m445.3 311.7c9.2-14.3 25.1-25.6 37.3-25.3 16.7.5 20.9 16 1.3 42-26.7 35.5-41.2 55.5-50.2 69.2-9.1 14.2-7.2 33.1 12.4 33.8"/>
    <ellipse cx="672.57867" cy="-64.12397" rx="4.609393" ry="6.862874" transform="matrix(.72846687 .68508103 -.68508103 .72846687 0 0)"/>
   </g>
  </g>
 </g>
</svg>
