<svg height="210mm" viewBox="0 0 1052.4 744.1" width="297mm" xmlns="http://www.w3.org/2000/svg">
 <g fill="none" stroke-linecap="round">
  <g transform="translate(0 -308.26772)">
   <path d="m57.6 742.2h948.8" stroke="#969696" stroke-width="1.875"/>
   <g stroke="#000" stroke-dasharray="3.75 7.5" stroke-miterlimit="2" stroke-width=".9375">
    <path d="m58.3 844.1h948.8"/>
    <path d="m58.3 641.8h948.8"/>
    <path d="m58.3 540.6h948.8"/>
   </g>
  </g>
  <g stroke="#000" stroke-linejoin="round">
   <path d="m572.3 405.3c32.9-46.6 61-96.5 93.9-143.1 9-12.3 19-27.1 28.8-27.3 18.4-.3 13.2 24.5 29.6 24.6 4 0 9-2.9 13.6-8.2" stroke-width="5.625"/>
   <path d="m540.6 404.3c1.4.1 2.7.4 3.6 1 .3.2.6.4.9.6 1.8 1.4 2.4 3.7 1.4 7.5-1.9 7.3-10.2 11.5-14.1 13-8.1 2.9-14.2-3.8-9.5-11 2.9-4.5 8-9.5 13.9-10.7.4-.1.8-.2 1.2-.2.5-.1 1-.1 1.5-.1 1.1 0 2.3.2 3.5.5" stroke-width="10.905816"/>
   <path d="m536.9 412.8c.5 0 .8.1 1.2.3.1.1.2.1.3.2.6.4.8 1.2.5 2.4-.6 2.3-3.3 3.7-4.5 4.2-2.6.9-4.5-1.2-3.1-3.5.9-1.4 2.5-3 4.5-3.4.1 0 .3 0 .4-.1h.5c.4 0 .7 0 1.1.2" stroke-width="11.88091"/>
   <g stroke-width="5.625">
    <path d="m572.3 405.3c-2.1 3.5-5.6 8-12.7 14.4-4.7 4.3-11 7.5-14.1 8.5-7.8 2.6-28.8 2-43.5 2.1s-33.1.8-33.1.8l-5.6-.2 3.3.1s8.4-4 9.8-4.8c10.9-6.3 20.6-16.1 28.3-27.1 20.9-29.6 27.6-65.7 8-63-21.7 4.2-66.8 56.9-108.2 94.3"/>
    <path d="m463.3 335c-21.9 20.9-36 37.8-56.4 39-22.3-2.7-25.3-36.7-40.8-36-13.7 2.6-22.5 16.7-29 27.9"/>
    <path d="m296 432.4s36.9-61.2 41.1-66.5"/>
    <path d="m404.4 430.4c-29.2 23.4-83.1 81.4-74.1 98.6 1.1 2.9 17.7 21.8 57.3-41.8 16.1-23.2 75.7-152.2 75.7-152.2"/>
   </g>
  </g>
 </g>
</svg>
