<svg height="210mm" viewBox="0 0 1052.4 744.1" width="297mm" xmlns="http://www.w3.org/2000/svg">
 <g fill="none" stroke-linecap="round">
  <g transform="translate(0 -308.26772)">
   <path d="m57.6 742.2h948.8" stroke="#969696" stroke-width="1.875"/>
   <g stroke="#000" stroke-dasharray="3.75 7.5" stroke-miterlimit="2" stroke-width=".9375">
    <path d="m58.3 844.1h948.8"/>
    <path d="m58.3 641.8h948.8"/>
    <path d="m58.3 540.6h948.8"/>
   </g>
  </g>
  <g stroke="#000" stroke-linejoin="round">
   <path d="m519 433.6c-27 16.7-90.2 91.8-63 99 11.2 2.5 33.1-7.6 54.5-66.3 15.7-47.2 16.4-112.8 70.4-130.9" stroke-width="5.625"/>
   <g stroke-width="5.624999">
    <path d="m519 433.6c26.3-20.8 92.9-83 120.7-96.2 7.7-3.6 13.2-.8 17.3 7.2 6.5 12.7 4 18.2 12.3 27.2 15.9 17.3 43.8-28.5 34.5-35-6.3-4.4-25.9 3.9-49.4 42.7-24.7 40.4-22.9 52.3-11.3 52 16.3 0 33.5-15.9 45.5-27.8"/>
    <path d="m632.4 341.4c14.7-9.4 17.1 5.5 20.6 17.2 3.2 10.5 8.7 18 23.9 17.1"/>
    <path d="m643.4 339.1c13.6.7 15.1 28.3 22.1 30"/>
   </g>
   <path d="m422.2 351.5 101.5-68.9" stroke-width="5.625"/>
   <ellipse cx="216.62163" cy="551.93225" rx="60.146576" ry="43.208752" stroke-width="5.625" transform="matrix(.88109295 -.47294313 .47294313 .88109295 0 0)"/>
   <path d="m414.3 358-49.5 49.2c-5.2 5-10.5 9.9-16.9 14.6-7.8 5.7-17 9-24.3 9.5s-13.6-1.8-16.2-7.3c-7.2-15.4 13.6-29.6 37.7-58.8 8.1-9.8 8.7-18.1 5.1-23.2-1.5-2.1-3.8-3.7-6.5-4.7-2.6-.9-5.7-1.2-9-.9-14.3 1.8-23.7 12-31.7 19.6" stroke-width="5.625001"/>
  </g>
 </g>
</svg>
