<svg height="210mm" viewBox="0 0 1052.4 744.1" width="297mm" xmlns="http://www.w3.org/2000/svg">
 <g fill="none" stroke-linecap="round">
  <g transform="translate(0 -308.26772)">
   <path d="m57.6 884.2h948.8" stroke="#969696" stroke-width="1.875"/>
   <g stroke="#000" stroke-dasharray="3.75 7.5" stroke-miterlimit="2" stroke-width=".9375">
    <path d="m58.3 986.1h948.8"/>
    <path d="m58.3 783.7h948.8"/>
    <path d="m58.3 682.5h948.8"/>
   </g>
  </g>
  <g stroke="#000" stroke-linejoin="round" stroke-width="5.625">
   <path d="m461.4 457.2c-5.9 8-48.6 87.9-65.6 105.1"/>
   <ellipse cx="224.18373" cy="658.55615" rx="62.130169" ry="44.633743" transform="matrix(.88109295 -.47294313 .47294313 .88109295 0 0)"/>
   <path d="m460.1 459.1c7-12.4 213.5-261.7 231-273.5"/>
   <path d="m640.7 350c14-14 53.1-60.7 53.1-60.7"/>
   <path d="m640.7 350c-10.7 10.1-20.6 17.3-28.1 19.6-55 17.3 33.8-137 77.9-183.7 4.7-5 11.2-10.7 18.9-11.9"/>
   <path d="m336.4 489.5c23.7-19.2 60.9-14.6 37.5 14.4-27.4 33.8-41.7 45-35.7 58.7 8.6 17.7 39.2 9.7 47.3 6"/>
   <ellipse cx="-33.534981" cy="667.83801" rx="24.286663" ry="19.22975" transform="matrix(.79083574 -.61202846 .61202846 .79083574 0 0)"/>
  </g>
 </g>
</svg>
