<svg height="210mm" viewBox="0 0 1052.4 744.1" width="297mm" xmlns="http://www.w3.org/2000/svg">
 <g fill="none" stroke-linecap="round">
  <g transform="translate(0 -308.26772)">
   <path d="m57.6 742.2h948.8" stroke="#969696" stroke-width="1.875"/>
   <g stroke="#000" stroke-dasharray="3.75 7.5" stroke-miterlimit="2" stroke-width=".9375">
    <path d="m58.3 844.1h948.8"/>
    <path d="m58.3 641.8h948.8"/>
    <path d="m58.3 540.6h948.8"/>
   </g>
  </g>
  <g stroke="#000" stroke-linejoin="round">
   <path d="m495.3 431.9c3 .3 9.7-4.3 11-5 48.9-28.1 71.8-129.9 9.4-74.1-2.3 2.1-58.6 53.6-61.2 56.1" stroke-width="5.431898"/>
   <g stroke-width="5.638243">
    <path d="m550 340.6c-.7 31-18.1 61.6-38.1 82.5"/>
    <path d="m552.6 342.9c5.2 34.8-19.9 69.4-45 83.3"/>
    <path d="m545.3 339.2c3.6 34.1-21.2 69-37.7 86.9"/>
   </g>
   <path d="m537.9 339c7.9-3.1 5.9 10.5 5.9 15.9" stroke-width="2.819121"/>
   <path d="m514.1 416.4c-5.5 6.9-9.4 9.8-15.3 13.2" stroke-width="2.819121"/>
   <g stroke-width="5.625">
    <path d="m485.6 417.9c-.9 3.4-3.6 6.4-6.8 8.8-8.7 6.7-21.1 4.9-26.5-2-2.6-3.3-4-9.6 2.2-15.9"/>
    <path d="m454.9 378.1 28.1 31.9s3.8 4.4 2.6 7.9"/>
   </g>
  </g>
 </g>
</svg>
