<svg height="210mm" viewBox="0 0 1052.4 744.1" width="297mm" xmlns="http://www.w3.org/2000/svg">
 <g fill="none" stroke-linecap="round">
  <g transform="translate(0 -308.26772)">
   <path d="m57.6 742.2h948.8" stroke="#969696" stroke-width="1.875"/>
   <g stroke="#000" stroke-dasharray="3.75 7.5" stroke-miterlimit="2" stroke-width=".9375">
    <path d="m58.3 844.1h948.8"/>
    <path d="m58.3 641.8h948.8"/>
    <path d="m58.3 540.6h948.8"/>
   </g>
  </g>
  <g stroke="#000">
   <path d="m414 431.1c15.4-1.2 27.7-10.8 109.7-95l-39 72.4c-7.5 13.9 2.4 23.8 16.4 23" stroke-linejoin="round" stroke-width="5.625"/>
   <ellipse cx="593.66296" cy="25.368488" rx="4.609393" ry="6.862875" stroke-linejoin="round" stroke-width="5.625" transform="matrix(.72846687 .68508103 -.68508103 .72846687 0 0)"/>
   <path d="m645.4 233.8s-50.1 90-61.4 109.4c-29.6 50.7-52.7 89.7-83 88.3" stroke-width="5.624999"/>
   <g stroke-linejoin="round">
    <path d="m390.5 431.8s21.2.5 23.4-.7" stroke-width="5.625"/>
    <path d="m370 385.5 20.5 46.3" stroke-width="5.625"/>
    <path d="m695.9 233.8c-25.6 28.5-68.8 58.6-50.5 0" stroke-width="5.624999"/>
   </g>
  </g>
 </g>
</svg>
