<svg height="210mm" viewBox="0 0 1052.4 744.1" width="297mm" xmlns="http://www.w3.org/2000/svg">
 <g fill="none" stroke-linecap="round">
  <g transform="translate(0 -308.26772)">
   <path d="m57.6 742.2h948.8" stroke="#969696" stroke-width="1.875"/>
   <g stroke="#000" stroke-dasharray="3.75 7.5" stroke-miterlimit="2" stroke-width=".9375">
    <path d="m58.3 844.1h948.8"/>
    <path d="m58.3 641.8h948.8"/>
    <path d="m58.3 540.6h948.8"/>
   </g>
  </g>
  <g stroke="#000">
   <path d="m495.2 342c10.4 5.8 12.6 28.6 10 38.1" stroke-linejoin="round" stroke-width="6.562499"/>
   <path d="m482.6 335.7c16.4 3.3 19.2 32.7 18.3 45.3" stroke-linejoin="round" stroke-width="4.6875"/>
   <path d="m501.4 380.7 8.7.1" stroke-width="5.624999"/>
   <g stroke-linejoin="round">
    <path d="m470 337.1c13.4-1.6 22 2.7 25.4 11.2" stroke-width="3.749999"/>
    <ellipse cx="649.81842" cy="-101.61777" rx="4.609393" ry="6.862874" stroke-width="5.625" transform="matrix(.72846687 .68508103 -.68508103 .72846687 0 0)"/>
    <path d="m539.1 377.2c4.1 3.5 7.5 4.7 15 3.5" stroke-width="5.624999"/>
    <g stroke-width="5.625">
     <path d="m510.1 380.7c.5-28.6-10.4-44.5-27.6-45.1-1.9-.1-3.9 0-6 .1-23.5-.3-42.8 11.1-60.5 25.9-36.5 30.5-100 86.6-131.4 119.7-22.4 23.6-37.5 42.6-21.7 50.7 7.6 2.8 24.1-.6 52.3-46 6.7-10.8 84.3-150.7 84.3-150.7"/>
     <path d="m510.1 380.7s29.7 1.2 34.2-4.7"/>
     <path d="m554.1 380.7c25-4 199-41.6 209.6-41.7 24.9-.2 12.9 38 38.8 36.3 7.8-.5 15.9-4.4 23.6-9.7"/>
    </g>
   </g>
  </g>
 </g>
</svg>
