<svg height="210mm" viewBox="0 0 1052.4 744.1" width="297mm" xmlns="http://www.w3.org/2000/svg">
 <g fill="none" stroke-linecap="round">
  <g transform="translate(0 -308.26772)">
   <path d="m57.6 742.2h948.8" stroke="#969696" stroke-width="1.875"/>
   <g stroke="#000" stroke-dasharray="3.75 7.5" stroke-miterlimit="2" stroke-width=".9375">
    <path d="m58.3 844.1h948.8"/>
    <path d="m58.3 641.8h948.8"/>
    <path d="m58.3 540.6h948.8"/>
   </g>
  </g>
  <g stroke="#000" stroke-linejoin="round" stroke-width="5.624999">
   <path d="m388 333.7c54.3-11 97.7-78.3 91.4-95-5.5-14.4-40.3 8.9-87.4 86.8-41.1 70.2-41.7 105.9-16.9 105.9 22.4 0 40.9-22.9 91.1-95.3l24 46.3"/>
   <path d="m568.6 382.7c28.2.8 60.9-30.8 81.8-30.9 16-.6 18.8 30.9 32.6 30.7 8.7-.1 14.1-5.3 19.4-11.5"/>
   <path d="m568.6 382.7c-7.4.5-13.7-1.8-16.3-7.4-7.2-15.5 13.3-29.1 37.7-58.6 8.2-9.9 8.8-18.2 5.1-23.4-6.1-8.2-13.5-8.3-20.2-6.3-7.9 3-13.9 8.4-22.1 17.5-22.2 25.7-47.8 60.1-62.8 77.9"/>
  </g>
 </g>
</svg>
