<svg height="210mm" viewBox="0 0 1052.4 744.1" width="297mm" xmlns="http://www.w3.org/2000/svg">
 <g fill="none" stroke-linecap="round">
  <g transform="translate(0 -308.26772)">
   <path d="m57.6 742.2h948.8" stroke="#969696" stroke-width="1.875"/>
   <g stroke="#000" stroke-dasharray="3.75 7.5" stroke-miterlimit="2" stroke-width=".9375">
    <path d="m58.3 844.1h948.8"/>
    <path d="m58.3 641.8h948.8"/>
    <path d="m58.3 540.6h948.8"/>
   </g>
  </g>
  <g stroke-linejoin="round" stroke-width="5.625">
   <g stroke="#000">
    <path d="m659.7 359.2c10.4-11.7 22.4-22.9 35.8-23.3 20.5-.6 26.6 42.8 46.4 42.2 12.6-.7 19.9-9 26.6-16.9"/>
    <path d="m597.3 431.3 62.4-72"/>
    <path d="m495.6 431.7 81.6-44.6 20 44.1"/>
   </g>
   <path d="m443.9 404.8c22.1-24.5 48.7-56.3 70.8-65.9" stroke="#000701"/>
   <g stroke="#000008">
    <path d="m514.6 339c19.6-8.3 35 2.5 12.3 40.5l-31.2 52.3"/>
    <path d="m537 345.3-49.2 86.2"/>
    <path d="m537.2 351.5-45.6 79.9"/>
    <path d="m487.8 431.5 7.9.2"/>
   </g>
  </g>
  <path d="m533 339.1c1.8 1.7 2.3 5.7.7 9.9" stroke="#000008" stroke-width="3.75"/>
  <g stroke="#000" stroke-linejoin="round" stroke-width="5.625">
   <path d="m415 335.9c-53.4 13.9-97.7 130.6-28.4 84.1"/>
   <path d="m436.9 379.1 31.3 24.2c4.4 4.9 8 10.8 3.6 18.1"/>
   <ellipse cx="108.56942" cy="607.16962" rx="19.945965" ry="15.792861" transform="matrix(.79083574 -.61202846 .61202846 .79083574 0 0)"/>
   <path d="m436.9 379.1 7.3.1 24.3 18.5"/>
   <path d="m386.6 420c6.2-4 50.4-40.9 50.4-40.9"/>
  </g>
 </g>
</svg>
