<svg height="210mm" viewBox="0 0 1052.4 744.1" width="297mm" xmlns="http://www.w3.org/2000/svg">
 <g fill="none" stroke-linecap="round">
  <g transform="translate(0 -308.26772)">
   <path d="m57.6 742.2h948.8" stroke="#969696" stroke-width="1.875"/>
   <g stroke="#000" stroke-dasharray="3.75 7.5" stroke-miterlimit="2" stroke-width=".9375">
    <path d="m58.3 844.1h948.8"/>
    <path d="m58.3 641.8h948.8"/>
    <path d="m58.3 540.6h948.8"/>
   </g>
  </g>
  <g stroke="#000" stroke-width="5.625">
   <g stroke-linejoin="round">
    <path d="m356.8 418.4c28.4-16.2 124.5-104.8 140.4-122.4 20.5-22.8 32.1-48.7 28.5-58.1-5.5-14.4-40.3 8.9-87.4 86.8-49 84.6-47.3 109-26.2 105.7 15.8-2.5 38.2-17.2 64.5-38"/>
    <path d="m351.4 336.3-42.7 75.1c-11.7 20.6 10 23.2 29 16.4 2.8-.8 9.7-4.1 19.1-9.4"/>
    <ellipse cx="135.95998" cy="622.20447" rx="25.728558" ry="20.371416" transform="matrix(.79083574 -.61202846 .61202846 .79083574 0 0)"/>
   </g>
   <path d="m562.1 267.2c-9 11.4-85.6 125.2-85.6 125.2"/>
   <g stroke-linejoin="round">
    <path d="m562.1 267.2c9.7-12.6 21.5-26.5 30.3-30.4 14.6-6.2 26.3-2.9 24.5 13.5-3.8 15.3-34.3 80.5-34.3 80.5"/>
    <path d="m661.2 435.8c60.1-75.3-82.8-56.1-23.6-140.8"/>
    <path d="m582.7 330.8 54.9-35.8"/>
   </g>
  </g>
 </g>
</svg>
