<svg height="210mm" viewBox="0 0 1052.4 744.1" width="297mm" xmlns="http://www.w3.org/2000/svg">
 <g fill="none" stroke-linecap="round">
  <g transform="translate(0 -308.26772)">
   <path d="m57.6 742.2h948.8" stroke="#969696" stroke-width="1.875"/>
   <g stroke="#000" stroke-dasharray="3.75 7.5" stroke-miterlimit="2" stroke-width=".9375">
    <path d="m58.3 844.1h948.8"/>
    <path d="m58.3 641.8h948.8"/>
    <path d="m58.3 540.6h948.8"/>
   </g>
  </g>
  <g stroke="#000" stroke-linejoin="round">
   <ellipse cx="791.83478" cy="-167.05247" rx="4.609393" ry="6.862874" stroke-width="5.625" transform="matrix(.72846687 .68508103 -.68508103 .72846687 0 0)"/>
   <ellipse cx="769.06549" cy="-149.95097" rx="5.271423" ry="7.848564" stroke-width="14.034715" transform="matrix(.72846687 .68508103 -.68508103 .72846687 0 0)"/>
   <path d="m687.3 426.8c7.7 6.6 15.1 4.5 22.5.9 13.3-6.5 50.7-27.5 69.4-39" stroke-width="5.624999"/>
   <g stroke-width="5.625">
    <path d="m310.5 431.4c-21.7 20.6-89.9 90.6-66.5 100.8 15.1 5.9 27.5-15.2 41.2-38.3 18.6-31.4 45-101.6 53.1-131.4 27.2-101 71.3-136.5 87.3-124.8 12.4 9.1-21 81.4-77.9 97.1"/>
    <path d="m310.5 431.4s36.8-39.6 57.4-59.8c19.2-18.8 40.4-34.5 65.7-35.1 20.3-.5 32.2 15.6 41.1 34.3 7.7 16.9 14.5 36 22.5 47.4 6.5 9.2 15.1 13.3 23.7 13.1 47.5-1 124.9-77.9 171.2-124.4 35-34 55.3-65.7 38.8-71.4-14.6-5-42.1 11.7-88.8 89.9-24.4 40.8-31 57.6-33.5 80.4-.8 9.8 4.8 19.4 14.9 22.8 17.8 5.9 46.4 1.9 65.3-1.9"/>
   </g>
  </g>
 </g>
</svg>
