<svg height="210mm" viewBox="0 0 1052.4 744.1" width="297mm" xmlns="http://www.w3.org/2000/svg">
 <g fill="none" stroke-linecap="round">
  <g transform="translate(0 -308.26772)">
   <path d="m57.6 742.2h948.8" stroke="#969696" stroke-width="1.875"/>
   <g stroke="#000" stroke-dasharray="3.75 7.5" stroke-miterlimit="2" stroke-width=".9375">
    <path d="m58.3 844.1h948.8"/>
    <path d="m58.3 641.8h948.8"/>
    <path d="m58.3 540.6h948.8"/>
   </g>
  </g>
  <g stroke="#000">
   <g stroke-linejoin="round" stroke-width="5.625">
    <path d="m426.7 333.2-49.9 97.9"/>
    <path d="m249.2 431c9.7-10.1 32.5-30.9 51-47.8l33.3 47.9 93.2-97.8"/>
    <path d="m300.3 383.2 24 48"/>
    <path d="m309.7 383.2 23.8 47.9"/>
    <path d="m305.8 383.1 24 48"/>
   </g>
   <path d="m300.6 382.1h9" stroke-width="3.75"/>
   <path d="m324.1 432.1h9" stroke-width="3.75"/>
   <g stroke-linejoin="round" stroke-width="5.625">
    <path d="m376.8 431.1 60.7-61.5"/>
    <path d="m437.5 369.6c55.3-51 96.8-36.9 84.1 15.2"/>
    <path d="m554.1 384.3c.7.1 1.3.2 1.8.5.2.1.3.2.4.3.9.7 1.2 1.9.7 3.7-1 3.7-5.1 5.7-7 6.5-4.1 1.5-7.1-1.9-4.8-5.5 1.5-2.2 4-4.7 6.9-5.4.2 0 .4-.1.6-.1h.8c.6 0 1.2.1 1.7.2"/>
    <path d="m521.7 384.8 32.5-.5"/>
    <path d="m581.4 335.2-35.8 53.9"/>
    <path d="m603.8 385.4c21.5-13.8 50-33 65.5-33.9 20.1-.2 19.2 32.5 37.3 33.9 10.8-.3 16.8-10.6 23.4-18.7"/>
    <path d="m581.4 335.2 22.4 50.2"/>
   </g>
  </g>
 </g>
</svg>
