<svg height="210mm" viewBox="0 0 1052.4 744.1" width="297mm" xmlns="http://www.w3.org/2000/svg">
 <g fill="none" stroke-linecap="round">
  <g transform="translate(0 -308.26772)">
   <path d="m57.6 742.2h948.8" stroke="#969696" stroke-width="1.875"/>
   <g stroke="#000" stroke-dasharray="3.75 7.5" stroke-miterlimit="2" stroke-width=".9375">
    <path d="m58.3 844.1h948.8"/>
    <path d="m58.3 641.8h948.8"/>
    <path d="m58.3 540.6h948.8"/>
   </g>
  </g>
  <g stroke="#000">
   <g stroke-linejoin="round">
    <g stroke-width="5.625">
     <path d="m588.1 336.6-56.7 94.9"/>
     <path d="m644.8 419.5c10.6-9.4 30-30.4 47.7-32.3 30.4-3.3 45.4 10.1 35.5 43.9"/>
     <path d="m531.4 431.5s44.6-30.1 61.8-27.2c16.7 2.9 16.1 40.7 43.2 21.9.3-.2 3.8-3 8.5-6.7"/>
    </g>
    <path d="m574.9 408.1c5.4-2.2 18.6-2.1 26.5 14 5.6 11.4 13.9 8.8 20.5 9.2" stroke-width="4.697919"/>
    <path d="m589.5 406.3c6.7 5.5 6.3.4 21.2 21.5" stroke-width="5.42449"/>
    <g stroke-width="5.625">
     <path d="m841.5 234.7-113.5 196.4"/>
     <path d="m502.1 392.7c-8.2 6.3-19.7 13-26.5 15.7-30.7 12.2-73.8 22.1-98.8 22.7-42.5 1-77.1-8.4-85.5-34.7"/>
     <path d="m477.5 397c.8.1 1.4.2 1.9.5.2.1.3.2.5.3.9.7 1.3 2 .8 4-1 3.9-5.4 6.1-7.5 6.9-4.3 1.6-7.6-2-5.1-5.9 1.6-2.4 4.2-5.1 7.4-5.7.2 0 .4-.1.7-.1s.5-.1.8-.1c.6 0 1.2.1 1.9.3"/>
    </g>
   </g>
   <path d="m502.1 392.7-74.8 140.3" stroke-width="5.625"/>
  </g>
 </g>
</svg>
