<svg height="210mm" viewBox="0 0 1052.4 744.1" width="297mm" xmlns="http://www.w3.org/2000/svg">
 <g fill="none" stroke-linecap="round">
  <g transform="translate(0 -308.26772)">
   <path d="m57.6 742.2h948.8" stroke="#969696" stroke-width="1.875"/>
   <g stroke="#000" stroke-dasharray="3.75 7.5" stroke-miterlimit="2" stroke-width=".9375">
    <path d="m58.3 844.1h948.8"/>
    <path d="m58.3 641.8h948.8"/>
    <path d="m58.3 540.6h948.8"/>
   </g>
  </g>
  <g stroke="#000" stroke-linejoin="round">
   <path d="m462.3 388.1s172.5-50.4 195.9-74.5" stroke-width="5.625"/>
   <path d="m658.2 313.5c10.2-8.7 14.6-21.2 13.1-25.2-2.8-7.3-29.3-4.3-53.1 35-27.6 45.1-21.8 54-6.5 53.4 46-4.5 71.2-71.5 82.1-89.6" stroke-width="5.625"/>
   <path d="m462.3 388.1-73.2 28c-5 1.9-7.7 5.2-8.3 6.2-1.9 3.1-1.1 8.1 3.9 8.6 3 .3 9.7-4.2 11-5 10.7-6.1 20.2-15.8 27.8-26.6 28.4-40.2 30.6-95.6-25.7-40.3" stroke-width="5.419139"/>
  </g>
 </g>
</svg>
