<svg height="210mm" viewBox="0 0 1052.4 744.1" width="297mm" xmlns="http://www.w3.org/2000/svg">
 <g fill="none" stroke-linecap="round">
  <g transform="translate(0 -308.26772)">
   <path d="m57.6 742.2h948.8" stroke="#969696" stroke-width="1.875"/>
   <g stroke="#000" stroke-dasharray="3.75 7.5" stroke-miterlimit="2" stroke-width=".9375">
    <path d="m58.3 844.1h948.8"/>
    <path d="m58.3 641.8h948.8"/>
    <path d="m58.3 540.6h948.8"/>
   </g>
  </g>
  <g stroke-linejoin="round" stroke-width="5.625">
   <path d="m670.3 335.4c-39.2 39.3-102.4 102.7-103.7 103.6-32.5 22-71.6 74.4-63.5 89.5 4.9 9.2 28.4 7.7 48.3-24.3 8.5-13.7 17.7-31 19.9-61.8 5-69.6 41.1-122.1 68-104.4 4.8 3.2 1.2 12.7-6.9 22.4" stroke="#000"/>
   <path d="m845.4 335.7c-41.9 53.3-176.2 74.7-175.1-.3" stroke="#000"/>
   <path d="m253.1 336.8-56.7 94.9" stroke="#0a0000"/>
   <path d="m632.3 360.3c-8.9 10.3-107.4 74.1-130.9 70.5-11-1.7-15.6-10.7-16.7-19.5-4.6-39.6 73.1-125.2 105.7-159.7 4.7-4.9 15.9-14.6 23-17.4" stroke="#000001"/>
   <path d="m613.4 234.2-417 197.5" stroke="#02000c"/>
  </g>
 </g>
</svg>
