<svg height="210mm" viewBox="0 0 1052.4 744.1" width="297mm" xmlns="http://www.w3.org/2000/svg">
 <g fill="none" stroke-linecap="round">
  <g transform="translate(0 -308.26772)">
   <path d="m57.6 742.2h948.8" stroke="#969696" stroke-width="1.875"/>
   <g stroke="#000" stroke-dasharray="3.75 7.5" stroke-miterlimit="2" stroke-width=".9375">
    <path d="m58.3 844.1h948.8"/>
    <path d="m58.3 641.8h948.8"/>
    <path d="m58.3 540.6h948.8"/>
   </g>
  </g>
  <g stroke="#000" stroke-linejoin="round">
   <path d="m271.6 433.1c-52.8 22.2-104 81.2-81.8 98.7 9.9 5.5 23.1-1.1 49.3-43.2l89.2-152.4" stroke-width="5.624999"/>
   <g stroke-width="5.625">
    <path d="m271.6 433.1c48.6-4.9 255.5-5.6 274.7-5.9 9.5-.1 18.2.3 24.3.8 5.1.3 10.1 1.3 15.4 3.1 18.4 6.7 8.5 40.6 27.2 45.6 2.9.8 5.4 1.1 7.8 1.2"/>
    <path d="m574.2 428.4c2.4.5 5.8 1.1 8.3 1.9 8.1 3 8.9 14.4 10.9 23.1 2.5 11 6.2 20.2 16.7 23 2.4.6 4.5 1 6.6 1.1"/>
    <path d="m579.3 429.1c13.2 2.9 20 11.7 22 20.4 2.5 11 5.2 25.2 15.7 28 2.4.6 4.9.3 6.9.4"/>
    <path d="m623.9 477.9c27.2-1.4 60.9-30.8 81.8-30.9 16-.6 18.8 30.9 32.6 30.7 8.7-.1 14.1-5.3 19.4-11.5"/>
   </g>
  </g>
 </g>
</svg>
