<svg height="210mm" viewBox="0 0 1052.4 744.1" width="297mm" xmlns="http://www.w3.org/2000/svg" xmlns:xlink="http://www.w3.org/1999/xlink">
 <linearGradient id="a" gradientUnits="userSpaceOnUse" x1="6525.5449" x2="6149.6719" y1="36928.09" y2="37482.008">
  <stop offset="0"/>
  <stop offset="1" stop-opacity="0"/>
 </linearGradient>
 <g stroke-linecap="round">
  <g fill="none" transform="translate(0 -308.26772)">
   <path d="m57.6 742.2h948.8" stroke="#969696" stroke-width="1.875"/>
   <g stroke="#000" stroke-dasharray="3.75 7.5" stroke-miterlimit="2" stroke-width=".9375">
    <path d="m58.3 844.1h948.8"/>
    <path d="m58.3 641.8h948.8"/>
    <path d="m58.3 540.6h948.8"/>
   </g>
  </g>
  <g stroke="#000" stroke-width="5.625">
   <g fill="none" stroke-linejoin="round">
    <path d="m315.4 337c-45.6 11.9-86.4 95.8-46.7 95.4 29.1-.3 58-59.1 78.8-81.3 8.9-9 16.1-14.6 27.3-14.1 16.9.7 16.3 26.1 33.8 25.6 17-.4 35.5-36.3 66.1-88.3 54.8-93.1 54.8-93.1 54.8-93.1"/>
    <path d="m529.4 181.2 21.8 49.2"/>
    <path d="m616.7 279c6.2-.4 13.6-3.3 21.4-7.8 43.5-27.6 118.3-148 143.6-188.6"/>
    <path d="m571.2 230.2c15.1-1.5 85.2-50.5 126.4-91 28.2-27.7 47.3-51.5 33-56.4-14.6-5-42.6 13.7-89.8 91.6-38.6 66.7-42.5 95.9-31.4 103.1 1.1.7 2.2 1.1 3.5 1.3 1.2.2 2.5.3 3.9.2"/>
    <ellipse cx="570.33069" cy="-228.32916" rx="4.609393" ry="6.862875" transform="matrix(.72846687 .68508103 -.68508103 .72846687 0 0)"/>
    <path d="m551.2 230.4 18.4-.1"/>
   </g>
   <g fill="url(#a)" fill-rule="evenodd" transform="translate(-5236.3621 -37031.85700000001)">
    <path d="m5438.4 37160.80000000001-62.7 322.7"/>
    <g stroke-linejoin="round">
     <path d="m5438.4 37160.80000000001h58.1"/>
     <path d="m5375.7 37483.5h58.1"/>
    </g>
   </g>
   <g fill="none" transform="translate(-5344.0854 -37031.85700000001)">
    <path d="m6212.4 37159.30000000001-62.7 322.7"/>
    <g stroke-linejoin="round">
     <path d="m6154.2 37159.30000000001h58.1"/>
     <path d="m6091.5 37482h58.1"/>
    </g>
   </g>
  </g>
 </g>
</svg>
