<svg height="210mm" viewBox="0 0 1052.4 744.1" width="297mm" xmlns="http://www.w3.org/2000/svg">
 <g fill="none" stroke-linecap="round">
  <g transform="translate(0 -308.26772)">
   <path d="m57.6 742.2h948.8" stroke="#969696" stroke-width="1.875"/>
   <g stroke="#000" stroke-dasharray="3.75 7.5" stroke-miterlimit="2" stroke-width=".9375">
    <path d="m58.3 844.1h948.8"/>
    <path d="m58.3 641.8h948.8"/>
    <path d="m58.3 540.6h948.8"/>
   </g>
  </g>
  <g stroke="#000">
   <g stroke-linejoin="round" stroke-width="5.625">
    <path d="m244.1 333c54.3-11 97.7-78.3 91.4-95-5.5-14.4-40.3 8.9-87.4 86.8-23.7 40.9-34.6 68.6-37.1 85.4-1 6.3-.7 11.1.4 14.5 1.5 4.4 4.6 6.2 8.7 6.4 17 .9 42.7-19.2 75.1-45.3"/>
    <path d="m451.5 431.5c5.4-3.3 11.7-10.5 6.5-17.1-2.6-3.3-4-4.5-11.9-4.4l-135 .6c-5.8 0-12.7.1-15.9-.7-9.6-2.4-7.9-13.2 0-24"/>
    <path d="m459 424c12.3-13.1 25.6-33.1 37.2-50.8 4.6-7 9.8-14.2 15-21.8 4.9-7.1 9.9-14.5 15.1-22 6-8.8 11.8-17.3 17.2-25.3 28.2-41.9 48.7-72 68.9-69.9 5 .5 8.7 2.3 11.3 4.7 2.9 2.7 4.4 6.3 4.7 10.6.3 4.5-.7 9.7-2.8 15.2-2 5.2-4.9 10.7-8.5 16.2l-65.3 106.2c-7.4 12.6-10.3 23.1-7.7 30.8 2.4 6.9 6.3 12.7 16.8 13.3 14.5.9 29.1-5.6 39.2-12.5 16.1-11 68.4-62.7 87.8-83.5"/>
    <path d="m688 335.2-39.4 73.1c-8.4 15.5 5 26.1 21.5 22.2 2.8-.7 9.1-2.7 14-5.9 5.5-3.6 13.2-9.7 18.1-14.2"/>
    <path d="m702.3 410.5 29.4-28 33.3 48.6"/>
    <path d="m731.7 382.5 24 48.7"/>
    <path d="m741.2 382.5 23.8 48.6"/>
    <path d="m737.3 382.4 24 48.7"/>
   </g>
   <g stroke-width="3.75">
    <path d="m732.1 381.4h9"/>
    <path d="m755.5 432.1h9"/>
   </g>
  </g>
 </g>
</svg>
