<svg height="210mm" viewBox="0 0 1052.4 744.1" width="297mm" xmlns="http://www.w3.org/2000/svg">
 <g fill="none" stroke-linecap="round">
  <g transform="translate(0 -308.26772)">
   <path d="m57.6 742.2h948.8" stroke="#969696" stroke-width="1.875"/>
   <g stroke="#000" stroke-dasharray="3.75 7.5" stroke-miterlimit="2" stroke-width=".9375">
    <path d="m58.3 844.1h948.8"/>
    <path d="m58.3 641.8h948.8"/>
    <path d="m58.3 540.6h948.8"/>
   </g>
  </g>
  <g stroke-linejoin="round">
   <g stroke-width="5.625">
    <path d="m389 432.5c-24 14-32.3 21.6-48.3 36.6-23.9 22.4-34.4 52.8-31.8 59.7 1.1 2.9 17.7 21.8 57.3-41.8l89.2-152.4" stroke="#060000"/>
    <path d="m389 432.5c74.2-41.8 317.1-189.9 336.6-201.7" stroke="#000001"/>
    <g stroke="#000">
     <path d="m915.9 179.9c3.3.3 6.1 1 8.4 2.2.8.4 1.5.8 2.1 1.3 4.1 3.2 5.6 8.6 3.3 17.3-4.5 16.9-23.6 26.6-32.7 30.1-18.8 6.8-32.8-8.7-22-25.4 6.7-10.4 18.4-22 32.2-24.9.9-.2 1.9-.3 2.8-.5 1.1-.1 2.3-.2 3.5-.2 2.7 0 5.4.3 8.1 1.1"/>
     <path d="m903.5 181.4-163.7 45.2"/>
     <path d="m724.8 230.4c3.4-.4 15.1-3.7 15.1-3.7"/>
     <path d="m729.1 215.9c.9.1 1.7.3 2.4.6.2.1.4.2.6.4 1.2.9 1.6 2.4.9 4.9-1.3 4.8-6.7 7.5-9.2 8.5-5.3 1.9-9.3-2.5-6.2-7.2 1.9-3 5.2-6.2 9.1-7 .3-.1.5-.1.8-.1s.7-.1 1-.1c.8 0 1.5.1 2.3.3"/>
    </g>
    <path d="m121.4 415.9 60.6-31.6 19.7 46.8 99.1-94.8" stroke="#101010"/>
   </g>
   <path d="m156.8 398.1-35.9 18.1c-4.8 2.4-7.7 5.2-8.3 6.2-1.9 3.1-1.1 8.1 3.9 8.6 3 .3 9.7-4.2 11-5 50.8-29 73.5-137 2.1-66.9" stroke="#101010" stroke-width="5.419139"/>
   <g stroke-width="5.625">
    <g stroke="#101010">
     <path d="m334.4 411.3 89.7-176.9"/>
     <ellipse cx="-.972228" cy="512.67438" rx="25.728558" ry="20.371416" transform="matrix(.79083574 -.61202846 .61202846 .79083574 0 0)"/>
     <path d="m282 430.7 21.9-2.6"/>
     <path d="m300.8 336.3-42.4 73.1c-9.3 16 4.2 25.4 23.6 21.3"/>
    </g>
    <path d="m979.7 142-82.6 41.6" stroke="#000"/>
   </g>
  </g>
 </g>
</svg>
