<svg height="210mm" viewBox="0 0 1052.4 744.1" width="297mm" xmlns="http://www.w3.org/2000/svg">
 <g fill="none" stroke-linecap="round">
  <g transform="translate(0 -308.26772)">
   <path d="m57.6 742.2h948.8" stroke="#969696" stroke-width="1.875"/>
   <g stroke="#000" stroke-dasharray="3.75 7.5" stroke-miterlimit="2" stroke-width=".9375">
    <path d="m58.3 844.1h948.8"/>
    <path d="m58.3 641.8h948.8"/>
    <path d="m58.3 540.6h948.8"/>
   </g>
  </g>
  <g stroke="#000" stroke-width="5.625">
   <g stroke-linejoin="round">
    <path d="m448.3 415.2c-5.5 7.7-12.8 14.6-25.3 15.4s-24.1-21.6-42.1-22.3c-18.2-.4-20.1 21.6-3.5 22.4 8.5.4 19.6-3.7 43.1-42.5 45-73.7-8-54.1-28.4-32.3"/>
    <path d="m550.6 263.6-102.3 151.6"/>
    <path d="m650.1 429.7c-56.3.4-96.3 16.7-131.9 50.8-23.7 26.3-31.9 40.6-27.9 50.7 2.2 5.6 34.7 12.4 62.3-63.3 15.8-47.4 16.5-113.3 70.8-131.6"/>
    <path d="m658.2 418.1c.7.1 1.3.2 1.8.5.2.1.3.2.4.3.9.7 1.2 1.8.7 3.7-1 3.6-5 5.7-7 6.4-4 1.5-7-1.9-4.7-5.4 1.4-2.2 3.9-4.7 6.9-5.3.2 0 .4-.1.6-.1h.7c.6 0 1.1.1 1.7.2"/>
   </g>
   <path d="m766.7 234.9-105.5 188.2"/>
   <g stroke-linejoin="round">
    <path d="m428 533.5s157.1-174.9 172.9-184.9"/>
    <path d="m636.7 418.9c.7.1 1.3.2 1.8.5.2.1.3.2.4.3.9.7 1.2 1.8.7 3.7-1 3.6-5 5.7-7 6.4-4 1.5-7-1.9-4.7-5.4 1.4-2.2 3.9-4.7 6.9-5.3.2 0 .4-.1.6-.1h.7c.6 0 1.1.1 1.7.2"/>
    <path d="m550.6 263.6c8.2-11.9 14-19.2 27-26.4 6.3-2.6 12-3.7 15.2-1.3 6.1 4.7 8 33.9 20.2 36.1 1.7.3 3.4.4 5.1.2 6-.4 13.8-6.9 19.3-12.6"/>
    <path d="m581 235.8c11.6-4.7 13.4 6.8 14.9 23.4 1 10.8 7.8 13.7 20.1 13.3"/>
    <path d="m581 235.8c5.4-2.4 19-3.6 22.7 15 2.6 13.3 5.7 21.2 12.3 21.6"/>
    <path d="m593 238.4c6.8 12.3 1 30.9 15.5 31.8"/>
   </g>
  </g>
 </g>
</svg>
