<svg height="210mm" viewBox="0 0 1052.4 744.1" width="297mm" xmlns="http://www.w3.org/2000/svg">
 <g fill="none" stroke-linecap="round" transform="translate(0 -308.26772)">
  <path d="m57.6 742.2h948.8" stroke="#969696" stroke-width="1.875"/>
  <g stroke="#000" stroke-dasharray="3.75 7.5" stroke-miterlimit="2" stroke-width=".9375">
   <path d="m58.3 844.1h948.8"/>
   <path d="m58.3 641.8h948.8"/>
   <path d="m58.3 540.6h948.8"/>
  </g>
 </g>
 <g fill="none" stroke="#000" stroke-linecap="round">
  <path d="m432 412.6c21.7-11.6 46.3-26.5 49.3-28.4 7.2-4.5 15.1-9 20.2-13.4 12.8-11.2 18.6-26.1 16.7-30.9-2.8-7.3-34.7-8.6-58.5 30.7-26.3 43.1-18.2 62.3-4.7 60.6 2.5-.4 4.8-.9 6.8-1.5" stroke-linejoin="round" stroke-width="5.625"/>
  <path d="m498.4 341.1c-30.3 19.2-40.3 52.5-52.7 81.1" stroke-width="4.6875"/>
  <path d="m491.3 341.1c-17.9 10.4-41.6 47.1-47 70.6" stroke-width="4.6875"/>
  <path d="m451.5 410.7c-4 10.7-6.4 18.8 3.6 20.4" stroke-width="2.8125"/>
  <path d="m512.8 337.9c-7.4-2.4-11 2.2-15.8 5.2" stroke-width="2.8125"/>
  <path d="m487.9 345.9c-28 20.5-29.4 44.2-43.9 71.6" stroke-width="4.6875"/>
  <g stroke-width="5.625">
   <path d="m377.2 385.5 19.5 45.7 35.3-18.6" stroke-linejoin="round"/>
   <path d="m537.5 432.4c-10.3 8.8-34.6 27.9-39.3 32.6-25.9 26.2-44.6 47.5-43.3 59.7.7 6.6 20.1 26.5 59.6-37.1l83.3-151.7-13.2.5s-84.1 77.1-122.9 93.2" stroke-linejoin="round"/>
   <path d="m584.7 336.4-54 106.6-36.4 71.8"/>
   <path d="m591.8 339.3-83.7 157.4"/>
   <path d="m588.8 338.2-90.7 170.5"/>
  </g>
  <path d="m503 495.3c-6.5 14.2-13.9 23.4-21.7 30.4" stroke-width="3.75"/>
 </g>
 <circle cx="446.99249" cy="458.09506" r="8.049653"/>
 <circle cx="597.56836" cy="300.41653" r="8.049653"/>
</svg>
