<svg height="210mm" viewBox="0 0 1052.4 744.1" width="297mm" xmlns="http://www.w3.org/2000/svg">
 <g fill="none" stroke-linecap="round">
  <g transform="translate(0 -308.26772)">
   <path d="m57.6 742.2h948.8" stroke="#969696" stroke-width="1.875"/>
   <g stroke="#000" stroke-dasharray="3.75 7.5" stroke-miterlimit="2" stroke-width=".9375">
    <path d="m58.3 844.1h948.8"/>
    <path d="m58.3 641.8h948.8"/>
    <path d="m58.3 540.6h948.8"/>
   </g>
  </g>
  <g stroke="#000">
   <g stroke-linejoin="round" stroke-width="5.625">
    <path d="m421.7 309.7c21.7-33.7 80.8-39.6 38.5 16.8-42.2 56.4-60.5 78.1-56.1 97 3.8 16 24.6 5.5 37.6-5"/>
    <path d="m537.7 408.5c14-11.2 32.2-26.1 32.2-26.1l33.3 47.9"/>
    <path d="m570 382.4 24 48"/>
    <path d="m579.5 382.5 23.8 47.9"/>
    <path d="m575.5 382.3 24 48"/>
   </g>
   <path d="m570.4 381.4h9" stroke-width="3.75"/>
   <path d="m593.8 431.3h9" stroke-width="3.75"/>
   <g stroke-linejoin="round" stroke-width="5.625">
    <path d="m441.7 418.3c13.3-7.1 125.6-102.6 149.5-134.2 12.1-16 29.3-39.5 26.7-46.4-5.5-14.4-40.3 8.9-87.4 86.8-69.6 120.2-36 123.1 7.3 84"/>
    <path d="m603.3 430.3 59.6-48.2 21 48.8"/>
   </g>
  </g>
 </g>
</svg>
