<svg height="210mm" viewBox="0 0 1052.4 744.1" width="297mm" xmlns="http://www.w3.org/2000/svg">
 <g fill="none" stroke-linecap="round">
  <g transform="translate(0 -308.26772)">
   <path d="m57.6 742.2h948.8" stroke="#969696" stroke-width="1.875"/>
   <g stroke="#000" stroke-dasharray="3.75 7.5" stroke-miterlimit="2" stroke-width=".9375">
    <path d="m58.3 844.1h948.8"/>
    <path d="m58.3 641.8h948.8"/>
    <path d="m58.3 540.6h948.8"/>
   </g>
  </g>
  <g stroke-linejoin="round">
   <g stroke="#000">
    <path d="m564.1 425.3c-10.6 9.1-36.1 3.5-52.2 7.7" stroke-width="5.625"/>
    <path d="m511.9 433c-32.1 6.8-99.6 85.2-81.8 98.7 9.9 5.5 23.1-1.1 49.3-43.2l89.2-152.4" stroke-width="5.624999"/>
    <g stroke-width="5.625">
     <ellipse cx="697.9787" cy="-79.183022" rx="4.609393" ry="6.862874" transform="matrix(.72846687 .68508103 -.68508103 .72846687 0 0)"/>
     <path d="m558.3 426.2c6.1 19.7 63-21.3 93.3-22.7 16.8-.7 20.8 28.8 32.3 28.5 7.5-.2 13.1-6.2 18.3-10.8"/>
    </g>
   </g>
   <path d="m446 431.4c31.2-.7 49.7-26.2 122.5-95.3" stroke="#010000" stroke-width="5.625"/>
   <g stroke="#000">
    <g stroke-width="6.562499">
     <path d="m479.3 336.3-47.5 81.9"/>
     <path d="m474.7 336.3-38.7 70.9-3.8 16.5"/>
     <path d="m479.3 336.3h-9.3"/>
    </g>
    <path d="m375.6 431.1 94.3-95.2-38.9 72.5c-7.2 13.4 1.8 23.1 15 23" stroke-width="5.624999"/>
   </g>
  </g>
  <path d="m441.2 404.9c-6 9.6-9.9 25.1 3.6 25.5" stroke="#000" stroke-width="3.749999"/>
 </g>
</svg>
