<svg height="210mm" viewBox="0 0 1052.4 744.1" width="297mm" xmlns="http://www.w3.org/2000/svg">
 <g fill="none" stroke-linecap="round">
  <g transform="translate(0 -308.26772)">
   <path d="m57.6 742.2h948.8" stroke="#969696" stroke-width="1.875"/>
   <g stroke="#000" stroke-dasharray="3.75 7.5" stroke-miterlimit="2" stroke-width=".9375">
    <path d="m58.3 844.1h948.8"/>
    <path d="m58.3 641.8h948.8"/>
    <path d="m58.3 540.6h948.8"/>
   </g>
  </g>
  <g stroke="#000" stroke-linejoin="round" stroke-width="5.625">
   <path d="m547.7 432 300-95.7"/>
   <path d="m547.7 432 60.6-108.1c26.4-48.6 52-72.9 91.2-88.5"/>
   <ellipse cx="453.71902" cy="803.76526" rx="25.728558" ry="20.371416" transform="matrix(.79083574 -.61202846 .61202846 .79083574 0 0)"/>
   <path d="m322.7 431.6 188.6-8.1"/>
   <path d="m186.2 431.3c6.9-7.3 20.8-25.6 40.1-25.1 19.4.4 13.1 25 34.2 25.2 20.2-.8 34.6-20 116-95.4"/>
   <path d="m376.5 336-53.8 95.6"/>
  </g>
 </g>
</svg>
