<svg height="210mm" viewBox="0 0 1052.4 744.1" width="297mm" xmlns="http://www.w3.org/2000/svg">
 <g fill="none" stroke-linecap="round">
  <g transform="translate(0 -308.26772)">
   <path d="m57.6 742.2h948.8" stroke="#969696" stroke-width="1.875"/>
   <g stroke="#000" stroke-dasharray="3.75 7.5" stroke-miterlimit="2" stroke-width=".9375">
    <path d="m58.3 844.1h948.8"/>
    <path d="m58.3 641.8h948.8"/>
    <path d="m58.3 540.6h948.8"/>
   </g>
  </g>
  <g stroke="#000" stroke-linejoin="round" stroke-width="5.625">
   <path d="m238 432.4c11.2-23.8 26.7-41.1 51.1-43.7 30.4-3.3 45.4 10.1 35.5 43.9"/>
   <path d="m324.6 432.6 18.3-.1c1.7-.6 4.3-1.7 5.9-2.8l384.6-194.1"/>
   <path d="m350 416.8c1 .1 1.8.3 2.5.7.2.1.4.2.6.4 1.2.9 1.7 2.6 1 5.2-1.3 5.1-7.1 8-9.8 9-5.7 2-9.8-2.6-6.6-7.6 2-3.1 5.5-6.6 9.7-7.5.3-.1.6-.1.9-.1s.7-.1 1-.1c.8 0 1.6.1 2.4.3"/>
   <path d="m727.1 347.7c-3.4 4.8-6.5 9.5-9.5 14"/>
   <path d="m726.1 336.3c1 .1 1.8.3 2.5.7.2.1.4.2.6.4 1.2.9 1.7 2.6 1 5.2-1.3 5.1-7.1 8-9.8 9-5.7 2-9.8-2.6-6.6-7.6 2-3.1 5.5-6.6 9.7-7.5.3-.1.6-.1.9-.1s.7-.1 1-.1c.8 0 1.6.1 2.4.3"/>
   <path d="m750 350.3-27.6.4"/>
   <path d="m759.7 334.6c1 .1 1.8.3 2.5.7.2.1.4.2.6.4 1.2.9 1.7 2.6 1 5.2-1.3 5.1-7.1 8-9.8 9-5.7 2-9.8-2.6-6.6-7.6 2-3.1 5.5-6.6 9.7-7.5.3-.1.6-.1.9-.1s.7-.1 1-.1c.8 0 1.6.1 2.4.3"/>
   <path d="m824 306.1s-57.2 38.8-65.2 41.5"/>
   <path d="m685.5 406s21.8-28.6 32.1-44.4"/>
   <path d="m733.4 235.6-99.8 172c-14.1 24.3 23.6 37.2 51.9-1.5"/>
  </g>
 </g>
</svg>
