<svg height="210mm" viewBox="0 0 1052.4 744.1" width="297mm" xmlns="http://www.w3.org/2000/svg">
 <g fill="none" stroke-linecap="round" transform="translate(0 -308.26772)">
  <path d="m57.6 742.2h948.8" stroke="#969696" stroke-width="1.875"/>
  <g stroke="#000" stroke-dasharray="3.75 7.5" stroke-miterlimit="2" stroke-width=".9375">
   <path d="m58.3 844.1h948.8"/>
   <path d="m58.3 641.8h948.8"/>
   <path d="m58.3 540.6h948.8"/>
  </g>
 </g>
 <g fill="none" stroke-linecap="round" stroke-linejoin="round" stroke-width="5.625">
  <path d="m861.9 336.4c-52.1 13.6-97.3 122.8-33.5 87.2 4.7-2.6 7.7-6.4 9.8-8.2 3.9-3.2 16.4-18.1 22.6-25.3 1.3-1.5 6.8-7.8 7.4-8.5" stroke="#00000b"/>
  <path d="m868.2 381.6c.7-1 8-9.9 11.5-13.9 6.2-7 14.4-16 15.8-17.4 24.9-25.2 60.4-22.2 30.7 27.6l-31.2 52.3" stroke="#00000b"/>
  <g stroke="#000">
   <path d="m105.3 281.8 21.1 48.8"/>
   <path d="m257.9 431.1c15.9-25.7 36-41.7 61.6-50.3 37.2-12.1 59.2 6.1 45 50.3"/>
   <path d="m458.3 407.4 30.4-25.7 25 47.8"/>
   <path d="m364.6 431.1s41.8-41 42.4-41.6c46.6-50.1 155.2-144.1 124.1-154.8-14.6-5-40.2 8.9-87.4 86.8-60.3 104.2-37.9 125.5-1.8 98.4l16.4-12.4"/>
  </g>
 </g>
 <path d="m677.5 321.6a11.6 11.6 0 0 1 -11.6 11.6 11.6 11.6 0 0 1 -11.6-11.6 11.6 11.6 0 0 1 11.6-11.7 11.6 11.6 0 0 1 11.7 11.6"/>
</svg>
