<svg height="210mm" viewBox="0 0 1052.4 744.1" width="297mm" xmlns="http://www.w3.org/2000/svg">
 <g fill="none" stroke-linecap="round">
  <g transform="translate(0 -308.26772)">
   <path d="m57.6 742.2h948.8" stroke="#969696" stroke-width="1.875"/>
   <g stroke="#000" stroke-dasharray="3.75 7.5" stroke-miterlimit="2" stroke-width=".9375">
    <path d="m58.3 844.1h948.8"/>
    <path d="m58.3 641.8h948.8"/>
    <path d="m58.3 540.6h948.8"/>
   </g>
  </g>
  <g stroke="#000" stroke-linejoin="round" stroke-width="5.625">
   <path d="m433.7 336.4c-43.9 12.6-80.5 92.7-51.2 94.8 2.3.2 5-.2 8.2-1.1 13.1-4.3 28.9-12.7 55.2-45.4"/>
   <path d="m445.9 384.8c7.9-10.3 14.2-18.4 14.9-19.4 2.7-3.5 5.3-6.7 7.7-9.6 2-2.4 3.9-4.5 5.8-6.4 16.9-17.9 26.9-18.3 33.4-5.7 6.5 12.7 4 18.2 12.3 27.2 15.9 17.3 43.8-27.8 34.5-34.3-6.3-4.4-25.9 3.2-49.4 42-11.6 19-17.4 31.8-19 40-1.9 9.4 3.5 12.5 9.8 12.6 21.8.4 54-22.2 87.1-44.5"/>
   <path d="m482.2 341.9c9.6-6.8 18 4.1 21.6 15.8 3.2 10.5 8.7 18 23.9 17.1"/>
   <path d="m494.1 338.2c13.6.7 15.1 28.3 22.1 30"/>
   <path d="m607.5 533.2c24.4-11 37.7-23.5 37-43.2-.9-26.6-61.5-103.3-61.5-103.3"/>
  </g>
 </g>
</svg>
