<svg height="210mm" viewBox="0 0 1052.4 744.1" width="297mm" xmlns="http://www.w3.org/2000/svg">
 <g fill="none" stroke-linecap="round">
  <g transform="translate(0 -308.26772)">
   <path d="m57.6 742.2h948.8" stroke="#969696" stroke-width="1.875"/>
   <g stroke="#000" stroke-dasharray="3.75 7.5" stroke-miterlimit="2" stroke-width=".9375">
    <path d="m58.3 844.1h948.8"/>
    <path d="m58.3 641.8h948.8"/>
    <path d="m58.3 540.6h948.8"/>
   </g>
  </g>
  <g stroke="#000" stroke-linejoin="round" stroke-width="5.625">
   <path d="m525.2 336.2c21-27.8 34.7-43.9 58-50.1 18.6-4.6 31.2 6.4 5.1 41.3-42.2 56.4-60.9 78.2-56.1 97 1.6 6.3 7.1 6 14.2 6 15.7.1 25.3-3.5 40.9-13.2"/>
   <path d="m573.4 415.4c.7.1 1.3.2 1.8.5.2.1.3.2.4.3.9.7 1.2 1.9.7 3.7-1 3.6-5.1 5.7-7 6.5-4.1 1.5-7.1-1.9-4.7-5.5 1.4-2.2 4-4.7 6.9-5.4.2 0 .4-.1.6-.1h.8c.6 0 1.2.1 1.7.2"/>
   <path d="m587.4 417.2c4.4-2.5 53.8-32.5 53.8-32.5l20.7 46.3"/>
   <path d="m427.1 383.7 31.4 47.9 66.7-95.4"/>
  </g>
 </g>
</svg>
