<svg height="210mm" viewBox="0 0 1052.4 744.1" width="297mm" xmlns="http://www.w3.org/2000/svg">
 <g fill="none" stroke-linecap="round">
  <g transform="translate(0 -308.26772)">
   <path d="m57.6 742.2h948.8" stroke="#969696" stroke-width="1.875"/>
   <g stroke="#000" stroke-dasharray="3.75 7.5" stroke-miterlimit="2" stroke-width=".9375">
    <path d="m58.3 844.1h948.8"/>
    <path d="m58.3 641.8h948.8"/>
    <path d="m58.3 540.6h948.8"/>
   </g>
  </g>
  <g stroke="#000">
   <ellipse cx="269.2153" cy="661.86389" rx="25.728558" ry="20.371416" stroke-linejoin="round" stroke-width="5.625" transform="matrix(.79083574 -.61202846 .61202846 .79083574 0 0)"/>
   <path d="m640.5 347.6c.3 9.3-.4 14.6-6.3 21.9-3.6 4.5-8.8 8.3-16 11.1" stroke-width="5.624961"/>
   <path d="m636.9 342.4c2 6.9 1.8 6.4.7 11.6-1.6 7.6-6.1 13.5-12.5 18.7-3.2 2.6-6.9 5-10.9 7.3" stroke-width="6.599955"/>
   <path d="m619.8 374.2c-5.3 3.7-10.3 5.7-16.3 3.5" stroke-width="2.849979"/>
   <path d="m626.1 337.7c7.4 1.6 9 4 10.4 10.8" stroke-width="2.849979"/>
   <g stroke-linejoin="round" stroke-width="5.625">
    <path d="m565.9 335.8c-36.7 11.9-77.9 92.6-53.1 95.5 6.7.8 21.7-.3 35.8-17.4 19.1-23.3 38.2-47.5 48-61.4"/>
    <path d="m755.3 190.2c-35.9 22.6-79.7 56.8-48.6-1.9l-110.1 164.2"/>
    <path d="m454.1 424.7c21.8-13.7 79.2-70.1 93.3-77.8"/>
    <ellipse cx="60.276016" cy="563.96625" rx="25.728558" ry="20.371416" transform="matrix(.79083574 -.61202846 .61202846 .79083574 0 0)"/>
    <path d="m374 399.7c9.5-12 32.5-40.9 42.4-51.3 16.9-17.9 26.9-18.3 33.4-5.7 6.5 12.7 4 18.2 12.3 27.2 15.9 17.3 43.8-27.8 34.5-34.3-6.3-4.4-25.9 3.2-49.4 42-25.8 42.2-22.7 55-9.7 53.5 4.6-.5 10.6-2.6 16.7-6.3"/>
    <path d="m424.3 340.9c9.6-6.8 18 4.1 21.6 15.8 3.2 10.5 8.7 18 23.9 17.1"/>
    <path d="m436.2 337.1c13.6.7 15.1 28.3 22.1 30"/>
   </g>
  </g>
 </g>
</svg>
