<svg height="210mm" viewBox="0 0 1052.4 744.1" width="297mm" xmlns="http://www.w3.org/2000/svg">
 <g fill="none" stroke="#000" stroke-linecap="round">
  <g transform="translate(0 -308.26772)">
   <path d="m57.6 742.2h948.8" stroke-width="1.875"/>
   <g stroke-dasharray="3.75 7.5" stroke-miterlimit="2" stroke-width=".9375">
    <path d="m58.3 844.1h948.8"/>
    <path d="m58.3 641.8h948.8"/>
    <path d="m58.3 540.6h948.8"/>
   </g>
  </g>
  <g stroke-linejoin="round" stroke-width="5.625">
   <path d="m456.1 420.8c.7.1 1.3.2 1.7.5.2.1.3.2.4.3.8.7 1.1 1.8.7 3.6-.9 3.5-4.9 5.5-6.7 6.2-3.9 1.4-6.8-1.8-4.5-5.2 1.4-2.1 3.8-4.5 6.6-5.1.2 0 .4-.1.6-.1h.7c.5 0 1.1.1 1.7.2"/>
   <path d="m455.2 429.9c37.1-29.9 64.7-67.2 124.7-140.2"/>
   <path d="m579.9 289.7-42.4 73.1c-5.1 8.8-2.8 16.1 3.3 19.9 3.2 2 7.3 3 12 2.9 11.1-.3 30.4-2.9 71.9-37.1"/>
  </g>
 </g>
</svg>
