<svg height="210mm" viewBox="0 0 1052.4 744.1" width="297mm" xmlns="http://www.w3.org/2000/svg">
 <g fill="none" stroke-linecap="round">
  <g transform="translate(0 -308.26772)">
   <path d="m57.6 742.2h948.8" stroke="#969696" stroke-width="1.875"/>
   <g stroke="#000" stroke-dasharray="3.75 7.5" stroke-miterlimit="2" stroke-width=".9375">
    <path d="m58.3 844.1h948.8"/>
    <path d="m58.3 641.8h948.8"/>
    <path d="m58.3 540.6h948.8"/>
   </g>
  </g>
  <g stroke="#000" stroke-linejoin="round" stroke-width="5.625">
   <path d="m258.3 334.5c54.3-11 95.5-79.5 89.2-96.2-5.5-14.4-40.3 8.9-87.4 86.8-69.6 120.2-36 123.1 7.3 84"/>
   <path d="m328.8 339.3s-55.6 64.4-61.5 69.8"/>
   <path d="m327.3 334.2c.6.1 1 .2 1.4.4.1.1.2.1.4.2.7.5.9 1.5.6 2.9-.8 2.9-4 4.5-5.5 5.1-3.2 1.2-5.5-1.5-3.7-4.3 1.1-1.8 3.1-3.7 5.4-4.2.2 0 .3-.1.5-.1h.6c.4 0 .9.1 1.4.2"/>
   <ellipse cx="184.21001" cy="595.47961" rx="25.728558" ry="20.371416" transform="matrix(.79083574 -.61202846 .61202846 .79083574 0 0)"/>
   <path d="m323.4 343.4c16.1.7 186.1-7.4 186.1-7.4"/>
   <path d="m509.5 335.9s170.8-26.4 257.5-52.9"/>
   <path d="m767 283c54.3-11 95.5-79.5 89.2-96.2-5.5-14.4-40.2 8.9-87.4 86.8-51.7 89.2-47.8 109.8-22.6 105.5"/>
   <path d="m746.1 379.2c13.7-2.5 64.6-34 82.2-35 22.9-.3 16.5 33.6 37.1 35.2 9.3-1.3 15.2-6.9 20.3-13.2"/>
  </g>
 </g>
</svg>
