<svg height="210mm" viewBox="0 0 1052.4 744.1" width="297mm" xmlns="http://www.w3.org/2000/svg">
 <g fill="none" stroke-linecap="round">
  <g transform="translate(0 -308.26772)">
   <path d="m57.6 742.2h948.8" stroke="#969696" stroke-width="1.875"/>
   <g stroke="#000" stroke-dasharray="3.75 7.5" stroke-miterlimit="2" stroke-width=".9375">
    <path d="m58.3 844.1h948.8"/>
    <path d="m58.3 641.8h948.8"/>
    <path d="m58.3 540.6h948.8"/>
   </g>
  </g>
  <g stroke="#000">
   <g stroke-linejoin="round" stroke-width="5.625">
    <path d="m437.5 408.7c1 .1 1.8.3 2.5.7.2.1.4.3.6.4 1.2 1 1.7 2.6 1 5.2-1.3 5.1-7.1 8-9.8 9-5.7 2.1-9.8-2.6-6.6-7.6 2-3.1 5.5-6.6 9.7-7.5.3-.1.6-.1.9-.1s.7-.1 1-.1c.8 0 1.6.1 2.4.3"/>
    <path d="m512.4 356.3s-72.8 68-79.5 67.7"/>
    <path d="m606.7 308.5c13.5-5.2 32.1-15.8 44.2-15.4 24.5.5 8.7 38.3 31.6 38.1 10.9-.1 16-4.5 21.9-14.2"/>
    <path d="m536.1 340.5c21.6-9.4 63.4-29.1 70.6-31.9"/>
    <ellipse cx="305.13651" cy="597.98364" rx="62.130169" ry="44.633743" transform="matrix(.88109295 -.47294313 .47294313 .88109295 0 0)"/>
   </g>
   <path d="m608.4 360.6c-13.8 27.9-38.1 52.4-66.8 70.7" stroke-width="5.385754"/>
   <path d="m609.6 369.6c-15.9 21.3-33.1 41.5-54 58.5" stroke-width="5.385754"/>
   <path d="m608.6 376.1c-14.3 21.6-19.7 29.6-41.7 46.5" stroke-width="7.181006"/>
   <path d="m557.3 419.2c-10.1 9.6-24.3 12.2-31.1 10.7" stroke-width="3.590503"/>
   <path d="m600.3 346.7c2.2 2.5 8.7 12.2 1.3 24.5" stroke-width="3.590503"/>
   <path d="m370.3 430.3c11.2-27.4-9.2-38.1-20.9-44.2-32.6-16.9-29.7-38.2-22.8-51.3" stroke-linejoin="round" stroke-width="5.625"/>
  </g>
  <path d="m335.2 424.5 92.6.2" stroke="#030002" stroke-linejoin="round" stroke-width="5.625"/>
 </g>
</svg>
