<svg height="210mm" viewBox="0 0 1052.4 744.1" width="297mm" xmlns="http://www.w3.org/2000/svg">
 <g fill="none" stroke-linecap="round">
  <g transform="translate(0 -308.26772)">
   <path d="m57.6 742.2h948.8" stroke="#969696" stroke-width="1.875"/>
   <g stroke="#000" stroke-dasharray="3.75 7.5" stroke-miterlimit="2" stroke-width=".9375">
    <path d="m58.3 844.1h948.8"/>
    <path d="m58.3 641.8h948.8"/>
    <path d="m58.3 540.6h948.8"/>
   </g>
  </g>
  <g stroke="#000">
   <g stroke-linejoin="round">
    <path d="m404.5 382.9-21.4-46.2c-24.6 22.5-67.3 46.3-80.8 46.2-41.4-.2-.8-151.5 83.1-196.7" stroke-width="5.625"/>
    <path d="m163.7 431.6c43.9-15.9 65.9-94.7 41-94.9-7.2-.1-18.9 6.5-35.8 23.2" stroke-width="5.625"/>
    <path d="m385.4 186.2c-36.3 29.6-59.8 62.6-75.9 97.1-9.8 21-16.3 39.9-22.8 64.2" stroke-width="5.624999"/>
    <path d="m287.7 340.2c3.9-16.7 11.4-36.3 19.5-55.4 16-38 48.8-80.2 74.4-95.9" stroke-width="4.6875"/>
    <path d="m306.7 289.6c-7.6 21.3-30.4 84.1-8.7 92.7" stroke-width="5.624999"/>
    <path d="m357.7 206.7c-40.4 38.8-194 224.9-194 224.9" stroke-width="5.625"/>
    <path d="m440.4 431.4 362.5-98.3c30.2-8.2 49.4-23.3 66.1-42.6 18.4-21.2 28.7-43.8 25.4-52.6-5.5-14.4-40.3 8.9-87.6 86.9" stroke-width="5.625"/>
    <path d="m534.9 235.3-94.5 196.1" stroke-width="5.624999"/>
   </g>
   <g stroke-width="5.625">
    <path d="m534.9 235.3-130.4 147.6"/>
    <path d="m806.8 324.8c-44.1 76.2-43.7 106-28 106.4 27.1.7 63.7-51.9 87.9-85.9" stroke-linejoin="round"/>
   </g>
  </g>
 </g>
</svg>
