<svg height="210mm" viewBox="0 0 1052.4 744.1" width="297mm" xmlns="http://www.w3.org/2000/svg">
 <g fill="none" stroke-linecap="round">
  <g transform="translate(0 -308.26772)">
   <path d="m57.6 742.2h948.8" stroke="#969696" stroke-width="1.875"/>
   <g stroke="#000" stroke-dasharray="3.75 7.5" stroke-miterlimit="2" stroke-width=".9375">
    <path d="m58.3 844.1h948.8"/>
    <path d="m58.3 641.8h948.8"/>
    <path d="m58.3 540.6h948.8"/>
   </g>
  </g>
  <g stroke="#000">
   <g stroke-linejoin="round" stroke-width="5.625">
    <path d="m277.9 426.1c2.4.5 5.8 1.1 8.3 1.9 8.1 3 8.9 14.4 10.9 23.1 2.5 11 6.2 20.2 16.7 23 2.4.6 4.5 1 6.6 1.1"/>
    <path d="m283 426.8c13.2 2.9 20 11.7 22 20.4 2.5 11 5.2 25.2 15.7 28 2.4.6 4.9.3 6.9.4"/>
    <path d="m327.6 475.6c20.2-.1 60.5-24 95.4-38.8"/>
    <path d="m269.8 235.1s-59.4 127.7-77.2 166c-7.5 18.8 3.3 30 18.7 30.5 12 .3 26-2.6 38.7-4.2 9.4-1.2 18.2-2.1 24.3-1.6 5.1.3 10.1 1.3 15.4 3.1 18.4 6.7 8.5 40.6 27.2 45.6 2.9.8 5.4 1.1 7.8 1.2"/>
    <g transform="translate(271.38879 283.01098)">
     <path d="m80.3 249.7c16.8-.5 33-21.3 35-47.2 2.1-26.8 36.3-48.7 36.3-48.7"/>
     <path d="m140.7 162c-14.4 12.2-18.6 35.8-22.4 47.9-3.5 11.7-12.1 25.9-24.2 34.7"/>
     <path d="m140.7 162c-2.9 2.2-11.1 10.3-13 12.6-6.5 8-13.3 18.9-16.5 30-4.1 14.4-4.3 33.3-22.5 43.1"/>
    </g>
   </g>
   <path d="m577.6 337.5c15.4 7.9 4.2 30.4-12.1 46.3-14 13.6-22.7 25.7-28.7 37.7" stroke-width="5.472634"/>
   <path d="m577.8 339c.8-1.1 3.6 6 .5 13.9-3.2 8.2-12.5 19.1-17.8 24.2-10.5 9.9-29.8 28.2-23.7 44.5" stroke-width="5.472634"/>
   <g stroke-width="2.736317">
    <path d="m567.4 337.5c13.9-1.2 10.5 8.5 10.3 13.7"/>
    <path d="m544.1 411.5c-3.2 4.4-7.2 16.1 2.6 17.8"/>
    <path d="m534.3 415.7c-.1 5.5 2.8 11.2 4.7 12.8"/>
   </g>
   <g stroke-linejoin="round">
    <path d="m483.8 431.1c8.5-14.7 21.9-36.7 31.1-50.7 7.6-11.5 16.6-23.3 22.4-29.4 6.6-7 17.4-15.2 32.7-15.1 13 .1 20.7 10.2 7.1 27-26.6 32.9-44.6 48.9-38.7 62.2 2.1 4.7 8 6.3 15 6 9.8-.4 24.3-7.6 32.5-19.2" stroke-width="5.625"/>
    <path d="m678.7 431.3c12.7-22.1 33-57.3 40.8-68.1 8.6-11.9 19-26.6 34.4-27.2 15.4-.5 17.2 26.9 31.1 26.7 10.3-.1 16.1-7.4 20.6-11.9" stroke-width="5.625"/>
    <ellipse cx="841.48956" cy="-239.38297" rx="3.366329" ry="5.01209" stroke-width="8.900769" transform="matrix(.72846687 .68508103 -.68508103 .72846687 0 0)"/>
   </g>
  </g>
 </g>
</svg>
