<svg height="210mm" viewBox="0 0 1052.4 744.1" width="297mm" xmlns="http://www.w3.org/2000/svg">
 <g fill="none" stroke-linecap="round">
  <g transform="translate(0 -308.26772)">
   <path d="m57.6 742.2h948.8" stroke="#969696" stroke-width="1.875"/>
   <g stroke="#000" stroke-dasharray="3.75 7.5" stroke-miterlimit="2" stroke-width=".9375">
    <path d="m58.3 844.1h948.8"/>
    <path d="m58.3 641.8h948.8"/>
    <path d="m58.3 540.6h948.8"/>
   </g>
  </g>
  <g stroke="#000" stroke-linejoin="round">
   <path d="m463.6 432.8c16.7-5.4 38.4-12.9 54-20.5 48.8-23.7 95.3-57.3 83.5-73.2-4.8-6.5-30.3-4.4-55 36.3-25.4 41.6-22.8 56.7-10.2 56.1 28-1.2 65.8-29.6 83.5-30.5 16.8-.7 20.9 30.2 34.2 30.4 8.5.1 14.1-6.5 18.3-10.8" stroke-width="5.624999"/>
   <path d="m463.6 432.8c-41.9 12.6-68.5 18-96.6 47.8-20.7 21.8-18.6 36.4-8.7 45.6 3.8 3.5 25.2 25.3 68.7-35.7 26.9-36.9 53.3-82.6 66.3-120.4 6.2-17.6-.1-33.5-12.6-34.4-9.2-.7-25.6 7.9-44.5 35.1" stroke-width="5.625"/>
  </g>
 </g>
</svg>
