<svg height="210mm" viewBox="0 0 1052.4 744.1" width="297mm" xmlns="http://www.w3.org/2000/svg">
 <g fill="none" stroke-linecap="round">
  <g transform="translate(0 -308.26772)">
   <path d="m57.6 742.2h948.8" stroke="#969696" stroke-width="1.875"/>
   <g stroke="#000" stroke-dasharray="3.75 7.5" stroke-miterlimit="2" stroke-width=".9375">
    <path d="m58.3 844.1h948.8"/>
    <path d="m58.3 641.8h948.8"/>
    <path d="m58.3 540.6h948.8"/>
   </g>
  </g>
  <g stroke="#000">
   <g stroke-linejoin="round" stroke-width="5.625">
    <path d="m544.9 409.3c14-11.2 32.2-26.1 32.2-26.1l33.3 47.9"/>
    <path d="m577.2 383.2 24 48"/>
    <path d="m586.6 383.3 23.8 47.9"/>
    <path d="m582.7 383.1 24 48"/>
   </g>
   <path d="m579.4 382.2h7.1" stroke-width="3.75"/>
   <path d="m602.9 432.1h7.1" stroke-width="3.75"/>
   <g stroke-linejoin="round" stroke-width="5.625">
    <path d="m610.5 431.1s39.6-37.2 64.1-35.9c24.4 1.4 21.4 61.2 59.9 24.7"/>
    <path d="m426 431.1c-18.7 7.8 224.9-161.2 199.1-192.6-9.8-11.9-40.3 8.9-87.4 86.8-69.6 120.2-36 123.1 7.3 84"/>
    <path d="m291.5 431.2c3-4.3 20.9-27.6 26.8-32.9 5-4.5 15.4-12 23.5-13.1 16.4-2.2 27.7 6.2 12.1 25.6-27.4 33.8-45.5 50.2-39.4 63.9 4.2 9.5 23 7 36.5-3.7 22.4-17.7 63.2-85.9 86-111.6"/>
    <path d="m426 431.1c57.3-20.8 87.1-146.5 10.9-71.7"/>
   </g>
  </g>
 </g>
</svg>
