<svg height="210mm" viewBox="0 0 1052.4 744.1" width="297mm" xmlns="http://www.w3.org/2000/svg">
 <g fill="none" stroke-linecap="round">
  <g transform="translate(0 -308.26772)">
   <path d="m57.6 742.2h948.8" stroke="#969696" stroke-width="1.875"/>
   <g stroke="#000" stroke-dasharray="3.75 7.5" stroke-miterlimit="2" stroke-width=".9375">
    <path d="m58.3 844.1h948.8"/>
    <path d="m58.3 641.8h948.8"/>
    <path d="m58.3 540.6h948.8"/>
   </g>
  </g>
  <g stroke="#000">
   <g stroke-linejoin="round">
    <g stroke-width="5.625">
     <path d="m331.5 430.9c10.6-12.1 23.1-29.4 40-30.3 16-.6 21.6 31 32.6 30.7 7.2-.2 12.4-7.6 16.7-13"/>
     <path d="m420.8 418.4s124.1-162.6 126.3-165.3c2.6-3.2 5-5.8 7.4-7.8 83-65-26.7 159.9-88.2 186.6-1.9.4-3.6.6-5.2.7"/>
     <path d="m582.5 253.7-91.8 157.8"/>
    </g>
    <path d="m576.7 270-73 125.6" stroke-width="8.4375"/>
    <path d="m474 427.4c6.6-8.2 16.4-19 22.5-27.9" stroke-width="3.75"/>
    <g stroke-width="5.625">
     <path d="m565.6 297.5-40.2 67.9"/>
     <path d="m584.2 240c.7 14-5.4 18.6-14.3 37.1"/>
     <path d="m570.9 398c11.1-10.5 48.2-45.2 54.4-50.2 5.6-4.5 11.9-7.7 18.1-9.6 19.8-6.1 37.3 1.8 19.4 24-27.4 33.8-45.5 50.2-39.4 63.9 4.2 9.5 21.6 5 36.5-3.7l16.2-9.5"/>
    </g>
   </g>
   <path d="m663.6 339.4c14.5 10.1 4.3 27.8-12.4 44.2-14.4 14-23.4 26.4-29.5 38.7" stroke-width="5.625"/>
   <path d="m663.6 339.4c.8-1.1 3.9 6.1.7 14.2-3.2 8.4-12.8 17.8-18.3 22.9-10.8 10.1-30.6 29-24.3 45.7" stroke-width="5.625"/>
   <g stroke-width="2.8125">
    <path d="m655.1 337.7c11.3 1.3 8.8 6.5 9.1 11"/>
    <path d="m626.9 415c-2.7 4.9-3.8 12 2.3 14.5"/>
    <path d="m619.1 416.3c-.1 5.7 2.9 11.5 4.9 13.1"/>
   </g>
   <g stroke-linejoin="round" stroke-width="5.625">
    <path d="m676.1 412.9s4.8-3.4 11.7-7.2c15.8-8.7 42.7-20.1 48.2-.4 7.8 28.2 15.1 33.5 36.6 15.5"/>
    <path d="m570.9 398c-36.2 32.6-97.1 72.4-117.2 103.5-8.3 13-12.1 23.4-10.4 27.7 1.1 2.9 17.7 21.8 57.3-41.8l88-150.7s-146.9 95.3-127.5 96"/>
   </g>
  </g>
 </g>
</svg>
