<svg height="210mm" viewBox="0 0 1052.4 744.1" width="297mm" xmlns="http://www.w3.org/2000/svg">
 <g fill="none" stroke-linecap="round">
  <g transform="translate(0 -308.26772)">
   <path d="m57.6 742.2h948.8" stroke="#969696" stroke-width="1.875"/>
   <g stroke="#000" stroke-dasharray="3.75 7.5" stroke-miterlimit="2" stroke-width=".9375">
    <path d="m58.3 844.1h948.8"/>
    <path d="m58.3 641.8h948.8"/>
    <path d="m58.3 540.6h948.8"/>
   </g>
  </g>
  <g stroke="#000">
   <g stroke-linejoin="round">
    <g stroke-width="5.625">
     <path d="m526.5 336.7-42.4 73.1c-11.9 20.5 8.4 28.3 31.3 14.4 14-6 31.5-15.2 31.5-15.2"/>
     <path d="m546.9 408.9 150.2-73.9-60.8 95.9"/>
     <path d="m636.2 431s64.2-33.9 86.4-33.7c19.8-.4 13.4 33.1 31.6 34.4 10.8.7 15.6-6.7 21.9-14.2"/>
    </g>
    <path d="m348.9 390.7 27.4 38.9" stroke-width="8.4375"/>
    <g stroke-width="5.625">
     <path d="m349.1 401.3 21.5 30.3"/>
     <path d="m354.2 385.3c31.7-.6 60.1-36.4 56.9-44.8-2.5-6.7-27.1-5.3-45.7 15.7-7.9 9-17.8 26.4-16 25.9 0 12.3 23.9 32.9 36 49.4"/>
     <path d="m368.6 352.7c-3.8 2.7-10 9.5-15 16.3-4.7 6.5-8.5 13-8.3 16.2.2 3.7.2 7.8 2.2 12.7 1.5 3.6 4.1 7.5 8 12.3"/>
     <path d="m370.5 431.6h14.7"/>
    </g>
   </g>
   <g stroke-width="5.625">
    <path d="m440.2 392.2-74.8 140.3"/>
    <path d="m440.2 392.2-54.9 39.4"/>
   </g>
  </g>
 </g>
</svg>
