<svg height="210mm" viewBox="0 0 1052.4 744.1" width="297mm" xmlns="http://www.w3.org/2000/svg">
 <g fill="none" stroke-linecap="round">
  <g transform="translate(0 -308.26772)">
   <path d="m57.6 742.2h948.8" stroke="#969696" stroke-width="1.875"/>
   <g stroke="#000" stroke-dasharray="3.75 7.5" stroke-miterlimit="2" stroke-width=".9375">
    <path d="m58.3 844.1h948.8"/>
    <path d="m58.3 641.8h948.8"/>
    <path d="m58.3 540.6h948.8"/>
   </g>
  </g>
  <g stroke="#000" stroke-linejoin="round">
   <g stroke-width="5.625">
    <path d="m565.4 358.8 28.4-23.1 21.9 48.4"/>
    <path d="m544.9 287.9-39 72.4c-7.4 13.7 1.9 24.5 15.6 23.9 14.2-.6 32.7-16.5 43.9-25.5"/>
    <path d="m274.7 430.9c50.4-65.5 115.5-58.4 97 .6l53.6-.6 119.6-143"/>
   </g>
   <path d="m421.5 413.3c1 .1 1.9.3 2.7.7.2.1.5.3.7.4 1.3 1 1.8 2.7 1 5.4-1.4 5.3-7.4 8.4-10.3 9.5-5.9 2.1-10.3-2.7-6.9-8 2.1-3.3 5.8-6.9 10.1-7.8.3-.1.6-.1.9-.1.4 0 .7-.1 1.1-.1.8 0 1.7.1 2.6.3" stroke-width="4.843111"/>
   <path d="m419.4 418c.5.1.9.2 1.3.3.1.1.2.1.3.2.6.5.8 1.3.5 2.6-.7 2.5-3.5 4-4.9 4.5-2.8 1-4.9-1.3-3.3-3.8 1-1.6 2.7-3.3 4.8-3.7.1 0 .3-.1.4-.1h.5c.4 0 .8.1 1.2.2" stroke-width="8.879036"/>
   <g stroke-width="5.625">
    <path d="m615.6 384.1 61.2-100.8"/>
    <path d="m676.8 283.3 28.7 45.1c12.2 16.6 12 36.8 10.1 47.5-2.5 17.4-5.1 30.8-33 55.2"/>
   </g>
  </g>
 </g>
</svg>
