<svg height="210mm" viewBox="0 0 1052.4 744.1" width="297mm" xmlns="http://www.w3.org/2000/svg">
 <g fill="none" stroke-linecap="round">
  <g transform="translate(0 -308.26772)">
   <path d="m57.6 742.2h948.8" stroke="#969696" stroke-width="1.875"/>
   <g stroke="#000" stroke-dasharray="3.75 7.5" stroke-miterlimit="2" stroke-width=".9375">
    <path d="m58.3 844.1h948.8"/>
    <path d="m58.3 641.8h948.8"/>
    <path d="m58.3 540.6h948.8"/>
   </g>
  </g>
  <g stroke="#000">
   <g stroke-linejoin="round">
    <g transform="translate(35.24955 -.574687)">
     <ellipse cx="699.72119" cy="-81.021812" rx="5.271423" ry="7.848564" stroke-width="14.034715" transform="matrix(.72846687 .68508103 -.68508103 .72846687 0 0)"/>
     <path d="m560.9 431.4c-28.3-1.3-47.6 6.2-84.9 42.9-15.4 15.2-46.3 47.5-30.7 58.2 7 3.6 23.2-.9 52.5-43.5 5.2-7.1 88.2-152.1 88.2-152.1" stroke-width="5.625"/>
    </g>
    <ellipse cx="162.01164" cy="641.58295" rx="25.728558" ry="20.371416" stroke-width="5.625" transform="matrix(.79083574 -.61202846 .61202846 .79083574 0 0)"/>
    <path d="m463.1 235.2-62.7 107.4c-24.8 39-64.2 79.9-90.4 88.2" stroke-width="5.625"/>
    <g stroke-width="5.751832">
     <path d="m309.9 430.8c-28.9 1.9 111.2-47.8 111.2-47.8l31.1 47.8"/>
     <path d="m421.2 383 21.4 47.9"/>
     <path d="m431.1 383 21.2 47.8"/>
     <path d="m427 382.9 21.4 47.9"/>
    </g>
   </g>
   <path d="m421.7 382h9.3" stroke-width="3.834554"/>
   <path d="m442.5 431.8h9.3" stroke-width="3.834554"/>
   <g stroke-linejoin="round">
    <path d="m452.3 430.8 57.5-39.9" stroke-width="5.625"/>
    <path d="m621.3 336.3-111.5 54.6" stroke-width="5.625"/>
    <path d="m599.9 430.4c30.6 5.3 69.4-33 89.8-32.8 18.2.1 20.7 32.8 36 33.3 8.2.3 12.7-4.8 17.8-9" stroke-width="5.624999"/>
   </g>
  </g>
 </g>
</svg>
