<svg height="210mm" viewBox="0 0 1052.4 744.1" width="297mm" xmlns="http://www.w3.org/2000/svg">
 <g fill="none" stroke-linecap="round">
  <g transform="translate(0 -308.26772)">
   <path d="m57.6 742.2h948.8" stroke="#969696" stroke-width="1.875"/>
   <g stroke="#000" stroke-dasharray="3.75 7.5" stroke-miterlimit="2" stroke-width=".9375">
    <path d="m58.3 844.1h948.8"/>
    <path d="m58.3 641.8h948.8"/>
    <path d="m58.3 540.6h948.8"/>
   </g>
  </g>
  <g stroke="#000" stroke-linejoin="round">
   <path d="m421.9 431.3c56.6-20.5 86.2-145 10.8-70.9" stroke-width="5.39996"/>
   <g stroke-width="5.625">
    <path d="m480 415.6c1 .1 1.8.3 2.5.7.2.1.4.2.6.4 1.2.9 1.7 2.6 1 5.2-1.3 5.1-7.1 8-9.8 9-5.7 2-9.8-2.6-6.6-7.6 2-3.1 5.5-6.6 9.7-7.5.3-.1.6-.1.9-.1s.7-.1 1-.1c.8 0 1.6.1 2.4.3"/>
    <path d="m421.9 431.3 49.3.2"/>
    <path d="m479.6 428.2c18.4-13.2 61.3-80.3 83.3-89.9 19.6-8.3 39.2 2.7 16.5 40.7l-31.2 52.3"/>
    <path d="m548.2 431.3 76.8-49.9c1.1-.7-25.9 49.6-25.9 49.6"/>
    <path d="m631.9 384.3-25.3 46.6"/>
    <path d="m611 430.8-12 .2"/>
    <path d="m638.8 381.2-27.7 49.5"/>
    <path d="m638.8 381.2-14.1-.1"/>
    <path d="m630 382.4-25.3 46.6"/>
   </g>
  </g>
 </g>
</svg>
