<svg height="210mm" viewBox="0 0 1052.4 744.1" width="297mm" xmlns="http://www.w3.org/2000/svg">
 <g fill="none" stroke-linecap="round">
  <g transform="translate(0 -308.26772)">
   <path d="m57.6 742.2h948.8" stroke="#969696" stroke-width="1.875"/>
   <g stroke="#000" stroke-dasharray="3.75 7.5" stroke-miterlimit="2" stroke-width=".9375">
    <path d="m58.3 844.1h948.8"/>
    <path d="m58.3 641.8h948.8"/>
    <path d="m58.3 540.6h948.8"/>
   </g>
  </g>
  <g stroke="#000">
   <ellipse cx="38.710651" cy="546.55603" rx="25.728559" ry="20.371418" stroke-linejoin="round" stroke-width="5.625" transform="matrix(.79083574 -.61202846 .61202846 .79083574 0 0)"/>
   <path d="m387.6 397.5c.3 9.3-.4 14.6-6.3 21.9-3.1 3.8-7.2 7.1-12.7 9.7" stroke-width="5.624961"/>
   <path d="m384 392.3c5.4 18.3-4.6 29.6-17.3 35.9" stroke-width="6.599955"/>
   <path d="m368.2 425.3c-7.1 4.1-13.9 5.6-20.5.2" stroke-width="2.849979"/>
   <path d="m370.2 387.4c8.3 0 13.2 3.6 13.4 13.9" stroke-width="2.849979"/>
   <g stroke-linejoin="round" stroke-width="5.625">
    <path d="m359.1 388.5c16.6-7.6 76.3-37.5 93.1-38.4 16-.6 17.8 30.3 32.6 30.7 9.4.3 14.3-5.2 20.5-11.1"/>
    <path d="m221.1 431.3c10.8-10.2 25.2-26.5 41.2-26.6 24.5-.1 22.4 25.8 38.4 26.5 7.8.4 14.1-3.8 20.3-9.2"/>
    <path d="m321.1 422 29.5-27.8"/>
    <path d="m530.3 431.4s48.9-70.2 63.8-90.8c17.8-24.8 39.4-52.1 64.3-53.8 20.3-.1 32.2 15.6 41.1 34.3 7.7 16.9 14.5 36 22.5 47.4 6.5 9.2 15.1 13.2 23.7 13.1 10.1 0 20.2-5.5 27-14.6"/>
    <path d="m509.1 386.3 21.2 45"/>
   </g>
  </g>
 </g>
</svg>
