<svg height="210mm" viewBox="0 0 1052.4 744.1" width="297mm" xmlns="http://www.w3.org/2000/svg">
 <g fill="none" stroke-linecap="round">
  <g transform="translate(0 -308.26772)">
   <path d="m57.6 742.2h948.8" stroke="#969696" stroke-width="1.875"/>
   <g stroke="#000" stroke-dasharray="3.75 7.5" stroke-miterlimit="2" stroke-width=".9375">
    <path d="m58.3 844.1h948.8"/>
    <path d="m58.3 641.8h948.8"/>
    <path d="m58.3 540.6h948.8"/>
   </g>
  </g>
  <g stroke="#000" stroke-linejoin="round" stroke-width="5.625">
   <path d="m449.2 358.3c15.9-32 75.6-30.6 48.2 3.3-27.4 33.8-45.5 50.2-39.4 63.9 4.4 9.9 23.3 5.3 38.1-4.7 5.6-3.8 16.7-14.3 22.5-19.5"/>
   <path d="m518.6 401.3 73.5-65.5-56.7 95.2"/>
   <path d="m535.5 431s42.1-15.1 60.2-23.8c9.5-4.6 22.2-6.5 28.1-5.4 17.2 3.2 16 46.2 45.6 21.5"/>
   <path d="m601 405.1c5.4-2.4 23.1-1.5 31 15.7 5.6 12.2 13.9 9.5 20.5 9.9"/>
   <path d="m620.1 403.9c6.7 5.9 6.3.5 21.2 23.1"/>
  </g>
 </g>
</svg>
