<svg height="210mm" viewBox="0 0 1052.4 744.1" width="297mm" xmlns="http://www.w3.org/2000/svg">
 <g fill="none" stroke-linecap="round">
  <g transform="translate(0 -308.26772)">
   <path d="m57.6 742.2h948.8" stroke="#969696" stroke-width="1.875"/>
   <g stroke="#000" stroke-dasharray="3.75 7.5" stroke-miterlimit="2" stroke-width=".9375">
    <path d="m58.3 844.1h948.8"/>
    <path d="m58.3 641.8h948.8"/>
    <path d="m58.3 540.6h948.8"/>
   </g>
  </g>
  <g stroke="#000" stroke-linejoin="round" stroke-width="5.625">
   <path d="m499.7 337.4-42 78.2c-7.3 13.6 5.3 17.7 18.7 15.3 7-1.2 11.7-3.4 19.5-10.1"/>
   <path d="m543.2 464.4 28.6-25.4"/>
   <path d="m495.8 420.8 36.3-29.8-42.5 71.3c-9 15.1 5 26.1 21.5 22.2 2.8-.7 9.2-2.6 14-6 5.7-4 18.1-14.2 18.1-14.2"/>
  </g>
 </g>
</svg>
