<svg height="210mm" viewBox="0 0 1052.4 744.1" width="297mm" xmlns="http://www.w3.org/2000/svg">
 <g fill="none" stroke-linecap="round">
  <g transform="translate(0 -308.26772)">
   <path d="m57.6 742.2h948.8" stroke="#969696" stroke-width="1.875"/>
   <g stroke="#000" stroke-dasharray="3.75 7.5" stroke-miterlimit="2" stroke-width=".9375">
    <path d="m58.3 844.1h948.8"/>
    <path d="m58.3 641.8h948.8"/>
    <path d="m58.3 540.6h948.8"/>
   </g>
  </g>
  <g stroke="#000" stroke-linejoin="round" stroke-width="5.625">
   <path d="m428.4 391.2 18.8 40.2"/>
   <path d="m488 430.8c1.5.7 3.6.4 4.2.2 15.1-4.5 46.8-44.9 52-82.2 5.7-40.6 44.3-104.4 80-114.7-44.2 14.3-160.3 169.8-177 197.3"/>
   <path d="m488 430.8c-2.7-4 130.9-94.8 130.9-94.8 1-.7-25.9 49.6-25.9 49.6"/>
   <path d="m625.9 338.8-25.3 46.6"/>
   <path d="m605 385.3-12 .2"/>
   <path d="m632.8 335.8-27.7 49.5"/>
   <path d="m632.8 335.8-14.1-.1"/>
   <path d="m624 336.9-25.3 46.6"/>
  </g>
 </g>
</svg>
