<svg height="210mm" viewBox="0 0 1052.4 744.1" width="297mm" xmlns="http://www.w3.org/2000/svg">
 <g fill="none" stroke-linecap="round">
  <g transform="translate(0 -308.26772)">
   <path d="m57.6 742.2h948.8" stroke="#969696" stroke-width="1.875"/>
   <g stroke="#000" stroke-dasharray="3.75 7.5" stroke-miterlimit="2" stroke-width=".9375">
    <path d="m58.3 844.1h948.8"/>
    <path d="m58.3 641.8h948.8"/>
    <path d="m58.3 540.6h948.8"/>
   </g>
  </g>
  <g stroke="#000" stroke-linejoin="round">
   <g stroke-width="5.625">
    <path d="m518.1 431.4c-3.9.5-4.9-2.8-2.1-4.8 23-16.1 190.8-66.4 249.1-95.7 18.4-9.2 38-23.4 45.7-29.5 24.8-19.7 55.6-52.5 41.5-63.7-12.1-9.5-41.7 7.6-88.9 86.2-47.4 82.8-42.3 109.8-21.4 107.4 5.6-.7 12.4-3.5 19.6-8"/>
    <path d="m518.1 431.4c12.8-.5 30.8-20.4 38.8-31.6 28.4-40.2 30.6-95.3-25.7-40"/>
    <path d="m531.3 359.8c-11.7 11.7-40.9 42.6-62.5 62.5"/>
    <path d="m338.6 335.7-38.9 72.5c-7.2 13.4 2.4 23.2 15.6 23.3 27.1.1 79.7-38 99.9-34.3 20.2 3.8 18.7 54.1 53.5 25.2"/>
    <path d="m392.7 401.8c2.8-1.2 7.6-2.1 12.7-.7 6.4 1.8 13.2 7.5 18.4 18.8 4.3 9.4 10.3 11.2 16 11.5 3 .1 7.6 0 10.4 0"/>
   </g>
   <path d="m409.8 399.9c7.8 4.9 8.8 2 26.1 28.6" stroke-width="6.587558"/>
  </g>
 </g>
</svg>
