<svg height="210mm" viewBox="0 0 1052.4 744.1" width="297mm" xmlns="http://www.w3.org/2000/svg">
 <g fill="none" stroke-linecap="round">
  <g transform="translate(0 -308.26772)">
   <path d="m57.6 742.2h948.8" stroke="#969696" stroke-width="1.875"/>
   <g stroke="#000" stroke-dasharray="3.75 7.5" stroke-miterlimit="2" stroke-width=".9375">
    <path d="m58.3 844.1h948.8"/>
    <path d="m58.3 641.8h948.8"/>
    <path d="m58.3 540.6h948.8"/>
   </g>
  </g>
  <g stroke-linejoin="round">
   <path d="m598.2 431.2c5.4-3.3 11.7-10.5 6.5-17.1-2.6-3.3-4-4.5-11.9-4.4l-135 .6c-5.8 0-12.7.1-15.9-.7-9.6-2.4-7.9-13.2 0-24" stroke="#000" stroke-width="5.625"/>
   <ellipse cx="826.76337" cy="-206.06313" rx="5.271424" ry="7.848564" stroke="#000" stroke-width="14.034715" transform="matrix(.72846687 .68508103 -.68508103 .72846687 0 0)"/>
   <g stroke-width="5.625">
    <path d="m598.2 431.2c16.7-11.5 33-29 55.8-29.4 22.7-.4 27.5 25.7 44.8 28.6 9.2 1.5 34.1 2.2 47-4.1" stroke="#040000"/>
    <path d="m441.9 385.5c-21.5 14-83.3 62.5-107.7 81.6-25.7 20.1-48.8 45.1-44 59.6.9 3 16.3 22.9 59.8-38.1 26.9-36.9 54.6-73.4 69.3-116.4 7.7-23 5.5-36.8-7.5-36.3-8.1.3-20.4 7.4-36.9 24.8" stroke="#000"/>
   </g>
  </g>
 </g>
</svg>
