<svg height="210mm" viewBox="0 0 1052.4 744.1" width="297mm" xmlns="http://www.w3.org/2000/svg">
 <g fill="none" stroke-linecap="round">
  <g transform="translate(0 -308.26772)">
   <path d="m57.6 742.2h948.8" stroke="#969696" stroke-width="1.875"/>
   <g stroke="#000" stroke-dasharray="3.75 7.5" stroke-miterlimit="2" stroke-width=".9375">
    <path d="m58.3 844.1h948.8"/>
    <path d="m58.3 641.8h948.8"/>
    <path d="m58.3 540.6h948.8"/>
   </g>
  </g>
  <g stroke="#000" stroke-width="5.625">
   <path d="m383.2 334.4c54.3-11 95.5-79.5 89.2-96.2-5.5-14.4-40.2 8.9-87.4 86.8-50.2 86.7-46.5 112.7-24.4 105.5 19.1-7 50.4-26.4 68.7-39.7" stroke-linejoin="round"/>
   <path d="m531.5 234.5-111.2 165.2"/>
   <ellipse cx="97.75528" cy="592.039" rx="25.728558" ry="20.371416" stroke-linejoin="round" transform="matrix(.79083574 -.61202846 .61202846 .79083574 0 0)"/>
   <ellipse cx="154.0582" cy="636.36719" rx="25.728558" ry="20.371416" stroke-linejoin="round" transform="matrix(.79083574 -.61202846 .61202846 .79083574 0 0)"/>
   <path d="m489.2 404.6-68.4 128.6"/>
   <g stroke-linejoin="round">
    <path d="m604.6 373.5c.7.1 1.4.2 1.9.5.2.1.3.2.5.3.9.7 1.3 2 .7 3.9-1 3.8-5.4 6.1-7.4 6.8-4.3 1.6-7.5-2-5-5.8 1.5-2.4 4.2-5 7.3-5.6.2 0 .4-.1.6-.1h.8c.6 0 1.2.1 1.8.3"/>
    <path d="m514.6 386.2 82.3-.4"/>
    <path d="m603.2 383.5c7.2 3.7 83.7-51.9 111.9-86.8 24-30.7 40.8-54.4 28.8-62.7-14.6-5.6-35.9 26.2-46.5 42.7-46 80.7-121.1 255.2-121.1 255.2"/>
    <path d="m579.8 373.6c.7.1 1.4.2 1.9.5.2.1.3.2.5.3.9.7 1.3 2 .7 3.9-1 3.8-5.4 6.1-7.4 6.8-4.3 1.6-7.5-2-5-5.8 1.5-2.4 4.2-5 7.3-5.6.2 0 .4-.1.6-.1h.8c.6 0 1.2.1 1.8.3"/>
   </g>
  </g>
 </g>
</svg>
