<svg height="210mm" viewBox="0 0 1052.4 744.1" width="297mm" xmlns="http://www.w3.org/2000/svg">
 <g fill="none" stroke-linecap="round">
  <g transform="translate(0 -308.26772)">
   <path d="m57.6 742.2h948.8" stroke="#969696" stroke-width="1.875"/>
   <g stroke="#000" stroke-dasharray="3.75 7.5" stroke-miterlimit="2" stroke-width=".9375">
    <path d="m58.3 844.1h948.8"/>
    <path d="m58.3 641.8h948.8"/>
    <path d="m58.3 540.6h948.8"/>
   </g>
  </g>
  <g stroke="#000">
   <g stroke-width="5.625">
    <path d="m385.9 431c23-11.7 60.3-34.5 78.9-34 18.6.8 18.4 35.2 36 34.1 24.9.3 51.6-51 67-71.4" stroke-linejoin="round"/>
    <path d="m299.8 431.2 65-47.5 21 47.3" stroke-linejoin="round"/>
    <path d="m736.3 233.5-107.4 167"/>
    <g stroke-linejoin="round">
     <path d="m567.8 359.7c24.3-33 69.8-34.2 37.2 20l-31.5 52.1 63.2-41.1"/>
     <ellipse cx="262.90274" cy="720.08923" rx="25.728558" ry="20.371416" transform="matrix(.79083574 -.61202846 .61202846 .79083574 0 0)"/>
    </g>
   </g>
   <path d="m671.1 397.5c.3 9.3-.4 14.6-6.3 21.9-3.6 4.5-8.8 8.3-16 11.1" stroke-width="5.624961"/>
   <path d="m667.5 392.3c2 6.9 1.8 6.4.7 11.6-1.6 7.6-6.1 13.5-12.5 18.7-3.2 2.6-6.9 5-10.9 7.3" stroke-width="6.599955"/>
   <g stroke-width="2.849979">
    <path d="m650.4 424.2c-5.3 3.7-10.3 5.7-16.3 3.5"/>
    <path d="m656.7 387.6c7.4 1.6 9 4 10.4 10.8"/>
   </g>
  </g>
 </g>
</svg>
