<svg height="210mm" viewBox="0 0 1052.4 744.1" width="297mm" xmlns="http://www.w3.org/2000/svg">
 <g fill="none" stroke-linecap="round">
  <g transform="translate(0 -308.26772)">
   <path d="m57.6 742.2h948.8" stroke="#969696" stroke-width="1.875"/>
   <g stroke="#000" stroke-dasharray="3.75 7.5" stroke-miterlimit="2" stroke-width=".9375">
    <path d="m58.3 844.1h948.8"/>
    <path d="m58.3 641.8h948.8"/>
    <path d="m58.3 540.6h948.8"/>
   </g>
  </g>
  <g stroke="#000" stroke-linejoin="round">
   <path d="m565.2 382.1c12.2-1.3 30.5-1.3 88-46.3" stroke-width="5.625"/>
   <g stroke-width="5.624999">
    <path d="m452.8 257.8c24.3-33 80.2-35.8 50.3 20l-82.5 153.8"/>
    <path d="m420.6 431.7c42.8-46.7 83.8-93.3 121.9-133.6 16.9-17.9 26.9-18.3 33.4-5.7 6.5 12.7 4 18.2 12.3 27.2 15.9 17.3 43.8-27.8 34.5-34.3-6.3-4.4-25.9 3.2-49.4 42-24.9 40.7-23.2 55.9-8 54.9"/>
    <path d="m550.4 290.6c9.6-6.8 18 4.1 21.6 15.8 3.2 10.5 8.7 18 23.9 17.1"/>
    <path d="m562.3 286.8c13.6.7 15.1 28.3 22.1 30"/>
   </g>
   <path d="m662.7 479.8c14.8-7.7 32.2-16.2 28.9-34.4-.9-14.2-55-41.3-61.8-64.1-3.5-11.7 8.2-28.9 23.4-45.3" stroke-width="5.624998"/>
  </g>
 </g>
</svg>
