<svg height="210mm" viewBox="0 0 1052.4 744.1" width="297mm" xmlns="http://www.w3.org/2000/svg">
 <g fill="none" stroke-linecap="round">
  <g transform="translate(0 -308.26772)">
   <path d="m57.6 742.2h948.8" stroke="#969696" stroke-width="1.875"/>
   <g stroke="#000" stroke-dasharray="3.75 7.5" stroke-miterlimit="2" stroke-width=".9375">
    <path d="m58.3 844.1h948.8"/>
    <path d="m58.3 641.8h948.8"/>
    <path d="m58.3 540.6h948.8"/>
   </g>
  </g>
  <g stroke-linejoin="round">
   <ellipse cx="531.01489" cy="78.11467" rx="4.609393" ry="6.862874" stroke="#000" stroke-width="5.625" transform="matrix(.72846687 .68508103 -.68508103 .72846687 0 0)"/>
   <path d="m332.3 434.2c-22.9 5.5-106.1 66-97.4 92.3 2.4 5 16.3 22.9 59.8-38.1 26.9-36.9 54.6-73.4 69.3-116.4 7.7-23 5.5-36.8-7.5-36.3-8.1.3-20.4 7.4-36.9 24.8" stroke="#000" stroke-width="5.624998"/>
   <path d="m335.1 426.1 327-135.5c31.1-12.9 45.2-20.5 58.1-30.6 31.8-24.6 52.3-62 47.8-73.9-5.5-14.4-40.3 8.9-87.4 86.8-44.1 76.2-43.1 106.1-23.8 106.5 26.8.6 64.1-30.5 89.3-30.5 16.8-.7 20.9 30.2 34.2 30.4 8.5.1 14.1-6.5 18.3-10.8" stroke="#000001" stroke-width="5.625"/>
  </g>
 </g>
</svg>
