<svg height="210mm" viewBox="0 0 1052.4 744.1" width="297mm" xmlns="http://www.w3.org/2000/svg">
 <g fill="none" stroke-linecap="round">
  <g transform="translate(0 -308.26772)">
   <path d="m57.6 742.2h948.8" stroke="#969696" stroke-width="1.875"/>
   <g stroke="#000" stroke-dasharray="3.75 7.5" stroke-miterlimit="2" stroke-width=".9375">
    <path d="m58.3 844.1h948.8"/>
    <path d="m58.3 641.8h948.8"/>
    <path d="m58.3 540.6h948.8"/>
   </g>
  </g>
  <g stroke-linejoin="round" stroke-width="5.625">
   <path d="m118.6 358.7c15.9-32 75.6-30.6 48.2 3.3-27.4 33.8-47.2 52.6-39.4 63.9 3 4.4 8.1 6 14.1 5.5 11.7-.9 25.9-10 35.7-20.4 9-9.9 15.5-17.9 21.4-25.4" stroke="#000"/>
   <path d="m198.5 385.5c112.3-143.2 229.7-109.9 197.5.7" stroke="#000"/>
   <path d="m395.9 386.3s230.6-76.5 288.2-101.8c14.6-6.4 38.3-23 45.7-29.5 11.5-10.4 60.7-57.8 43.7-63.7-14.6-5.1-40.2 9-87.4 87.7-48.2 84.2-42.1 110.7-20.4 107.2" stroke="#010000"/>
   <path d="m665.8 386.1c29.5-.7 191.2-46.4 205.3-48.9 3-.5 5.9-.8 8.7-.9 13.8.1 19.4 40.6 41.6 40 11.5-.3 18.1-6.3 23.3-13.3" stroke="#000"/>
  </g>
 </g>
</svg>
