<svg height="210mm" viewBox="0 0 1052.4 744.1" width="297mm" xmlns="http://www.w3.org/2000/svg">
 <g fill="none" stroke-linecap="round">
  <g transform="translate(0 -308.26772)">
   <path d="m57.6 742.2h948.8" stroke="#969696" stroke-width="1.875"/>
   <g stroke="#000" stroke-dasharray="3.75 7.5" stroke-miterlimit="2" stroke-width=".9375">
    <path d="m58.3 844.1h948.8"/>
    <path d="m58.3 641.8h948.8"/>
    <path d="m58.3 540.6h948.8"/>
   </g>
  </g>
  <g stroke="#000" stroke-linejoin="round" stroke-width="5.625">
   <path d="m547.1 406.6c-6.8 5.3-9.8 6.9-14.9 10.3-14.5 9.6-22.4 12.2-27.9 14-55 17.3 33.8-138.4 77.9-185.1 4.7-5 11.2-10.7 18.9-11.9"/>
   <path d="m547.1 406.6c3.3-2.1 6.6-4 9.7-5.7 1.8-1 3.7-2 5.5-2.9 48.7-24.7 79-10.7 66.9 32.4"/>
   <path d="m601 233.8c-54.9 10-258 298.7-258 298.7"/>
  </g>
 </g>
</svg>
