<svg height="210mm" viewBox="0 0 1052.4 744.1" width="297mm" xmlns="http://www.w3.org/2000/svg">
 <g fill="none" stroke-linecap="round">
  <g transform="translate(0 -308.26772)">
   <path d="m57.6 742.2h948.8" stroke="#969696" stroke-width="1.875"/>
   <g stroke="#000" stroke-dasharray="3.75 7.5" stroke-miterlimit="2" stroke-width=".9375">
    <path d="m58.3 844.1h948.8"/>
    <path d="m58.3 641.8h948.8"/>
    <path d="m58.3 540.6h948.8"/>
   </g>
  </g>
  <g stroke="#000" stroke-linejoin="round" stroke-width="5.625">
   <path d="m378.3 431.1s144.7-178.9 156.4-188.7c11.2-10 20.1-9.6 25.5-8.3 19.1 4.5 11.2 19.6-4.7 41-15 20.3-24.5 36.8-43.1 61.9-26.3 35.4-49.9 64.7-42.8 82.9 3.9 7.5 10.8 11.6 16.6 11.7"/>
   <path d="m486.2 431.6c18.2 1.3 73.2-30.4 90-31.2 16-.6 21.6 31 32.6 30.7 7.2-.2 12.4-7.6 16.7-13"/>
  </g>
 </g>
</svg>
