<svg height="210mm" viewBox="0 0 1052.4 744.1" width="297mm" xmlns="http://www.w3.org/2000/svg">
 <g fill="none" stroke-linecap="round">
  <g transform="translate(0 -308.26772)">
   <path d="m57.6 742.2h948.8" stroke="#969696" stroke-width="1.875"/>
   <g stroke="#000" stroke-dasharray="3.75 7.5" stroke-miterlimit="2" stroke-width=".9375">
    <path d="m58.3 844.1h948.8"/>
    <path d="m58.3 641.8h948.8"/>
    <path d="m58.3 540.6h948.8"/>
   </g>
  </g>
  <g stroke="#000">
   <g stroke-linejoin="round" stroke-width="5.625">
    <path d="m442.3 336.3-56.7 94.9"/>
    <path d="m385.6 431.1s224.9-26.1 236-25.9c13.8.3 16.2 29.9 34 25.6"/>
    <path d="m600.6 407c10.2-1.1 19.9-1.2 29.7 15.1 6.9 11.5 14.3 9.2 21.5 9.2"/>
    <path d="m623 407.5c0 .2 15.1 17.4 17.6 20.4"/>
   </g>
   <g stroke-width="5.624999">
    <path d="m778.9 234.7s-45 89.7-55.8 109.4c-32.5 59.2-48.8 83.6-67.6 86.7"/>
    <path d="m315.2 387.2 21.3 44.2 105.8-95.2" stroke-linejoin="round"/>
   </g>
  </g>
 </g>
</svg>
