<svg height="210mm" viewBox="0 0 1052.4 744.1" width="297mm" xmlns="http://www.w3.org/2000/svg">
 <g fill="none" stroke-linecap="round">
  <g transform="translate(0 -308.26772)">
   <path d="m57.6 742.2h948.8" stroke="#969696" stroke-width="1.875"/>
   <g stroke="#000" stroke-dasharray="3.75 7.5" stroke-miterlimit="2" stroke-width=".9375">
    <path d="m58.3 844.1h948.8"/>
    <path d="m58.3 641.8h948.8"/>
    <path d="m58.3 540.6h948.8"/>
   </g>
  </g>
  <g stroke="#000">
   <g stroke-width="5.625">
    <g stroke-linejoin="round">
     <path d="m311.1 336.7c-47.8 12.5-89.4 106-47.1 93.4 14.2-5.6 25.5-7 65.3-51.1"/>
     <path d="m329.4 378.9 34.3-43.3 27.8 46.4"/>
     <path d="m391.4 382.1c82.8-74.3 104.4-88.7 119.7-107 9-10.8 16.7-22.4 16.2-29.9-1.1-16.6-10.3-12.5-16.9-8.2-10.9 8.2-46.9 73.5-66.8 108.5-38.2 67.2-86.1 151.5-106.3 187.7"/>
     <ellipse cx="-43.303383" cy="596.7915" rx="25.728558" ry="20.371416" transform="matrix(.79083574 -.61202846 .61202846 .79083574 0 0)"/>
     <path d="m443.5 430.9c38.8-80 248.9-161.2 204.8-15.9-1.3 4.4-4.8 11.8-6.9 16.5-.3.6 33.2-28.8 33.2-28.8"/>
     <path d="m674.5 402.7c55.3-40.9 184.4-170.5 138.9-167.6-15.4 1-42.6 12.2-89.8 90.1-60.3 104.2-32 117.7 2.2 97.7 7.6-5.3 14.6-11.1 20.9-18"/>
    </g>
    <path d="m797 240.1c-48 60-84.9 118.1-107.7 179.3"/>
   </g>
   <path d="m783.9 251.8c-38.3 44.9-70.9 94.9-92.8 154.8" stroke-width="7.5"/>
   <path d="m814.6 235.9c-13.1-.9-24.8 14.1-27.3 17.1" stroke-width="3.75"/>
   <g stroke-width="5.625">
    <path d="m694.1 407.3c-6.1 21.8-1.8 23 13.1 22.7"/>
    <path d="m851.9 235.6s-50.3 99.6-83.4 144.2c-7.8 10.5-21.8 25-21.8 25"/>
   </g>
  </g>
 </g>
</svg>
