<svg height="210mm" viewBox="0 0 1052.4 744.1" width="297mm" xmlns="http://www.w3.org/2000/svg">
 <g fill="none" stroke-linecap="round">
  <g transform="translate(0 -308.26772)">
   <path d="m57.6 742.2h948.8" stroke="#969696" stroke-width="1.875"/>
   <g stroke="#000" stroke-dasharray="3.75 7.5" stroke-miterlimit="2" stroke-width=".9375">
    <path d="m58.3 844.1h948.8"/>
    <path d="m58.3 641.8h948.8"/>
    <path d="m58.3 540.6h948.8"/>
   </g>
  </g>
  <g stroke-linejoin="round" stroke-width="5.625">
   <g stroke="#000">
    <path d="m671.1 383.3c5.4-3.3 11.7-10.5 6.5-17.1-2.6-3.3-4-4.5-11.9-4.4l-98.8.6c-6.7.1-14.3.2-15.9-.7-10.5-5.8-7.4-13.7.5-24.6"/>
    <path d="m520.7 287.9-36.8 73.1c-11.6 23.1 23.4 33.9 46.3 4.4 1.4-1.8 15.3-18.9 16.5-21"/>
    <path d="m679.1 374.2c13.7-19.9 35.7-51.6 51.4-69.3 13.1-15.4 32-24.4 39.4-11.9 7.1 12.9-21.9 61.1-35.9 89.9"/>
    <path d="m520.7 287.9s-69.3 55-87.5 69.9"/>
   </g>
   <path d="m272.9 415.2c1 .1 1.8.3 2.5.7.2.1.4.2.6.4 1.2.9 1.7 2.6 1 5.2-1.3 5.1-7.1 8-9.8 9-5.7 2-9.8-2.6-6.6-7.6 2-3.1 5.5-6.6 9.7-7.5.3-.1.6-.1.9-.1s.7-.1 1-.1c.8 0 1.6.1 2.4.3" stroke="#030002"/>
   <g stroke="#000">
    <path d="m267.5 431c19.4-2.3 51.8-49.8 62.9-63.2"/>
    <path d="m330.4 367.8s12.1-14.5 29-23.2c10.7-5.5 21.5-9.6 28.1-8.3 17.2 3.2 16 46.2 45.6 21.5"/>
    <path d="m369.3 340.3c5.4-2.4 18.6-2.2 26.5 15 5.6 12.2 13.9 9.5 20.5 9.9"/>
    <path d="m383.9 338.4c6.7 5.9 6.3.5 21.2 23.1"/>
   </g>
  </g>
 </g>
</svg>
