<svg height="210mm" viewBox="0 0 1052.4 744.1" width="297mm" xmlns="http://www.w3.org/2000/svg">
 <g fill="none" stroke-linecap="round">
  <g transform="translate(0 -308.26772)">
   <path d="m57.6 742.2h948.8" stroke="#969696" stroke-width="1.875"/>
   <g stroke="#000" stroke-dasharray="3.75 7.5" stroke-miterlimit="2" stroke-width=".9375">
    <path d="m58.3 844.1h948.8"/>
    <path d="m58.3 641.8h948.8"/>
    <path d="m58.3 540.6h948.8"/>
   </g>
  </g>
  <g stroke="#000" stroke-linejoin="round" stroke-width="5.625">
   <path d="m494.9 336.7c-52.1 13.6-97.3 122.8-33.5 87.2 13.8-8.5 38.1-20.4 51.8-31.1"/>
   <path d="m613.7 240.4c10.4-10.6 29.9-5.6 40.3-1.1 14.5 5.8 22.1 26 35.5 25.7 11.1-.2 19.1-9.4 23.9-14.5"/>
   <ellipse cx="166.13029" cy="645.38306" rx="25.728558" ry="20.371416" transform="matrix(.79083574 -.61202846 .61202846 .79083574 0 0)"/>
   <path d="m622.5 241.8c-.5-.5-.8-.8-1.4-1.1-.2-.1-.7-.4-.9-.5s-.4-.2-.6-.2c-9 1.9-6.3 3.2-9 1.9-1.5-.7 2.2 10.4 5.3 9.2 2 .3 6.1-.4 7.6-3.8.7-1.7.6-3.2-.1-4.4-.1-.2-.3-.3-.4-.6-2.6-7.5-15-.3-23.3 7.8-3.9 3.8-11.1 11.6-17.1 21.7-12.5 20.1-76.8 131.4-76.8 131.4"/>
   <path d="m421.8 518.4a5.5 1.8 0 0 1 -5.5 1.8 5.5 1.8 0 0 1 -5.5-1.8 5.5 1.8 0 0 1 5.4-1.8 5.5 1.8 0 0 1 5.5 1.8h-5.5z" transform="matrix(.86958032 -.49379153 .49379153 .86958032 0 0)"/>
  </g>
 </g>
</svg>
