<svg height="210mm" viewBox="0 0 1052.4 744.1" width="297mm" xmlns="http://www.w3.org/2000/svg">
 <g fill="none" stroke-linecap="round">
  <g transform="translate(0 -308.26772)">
   <path d="m57.6 742.2h948.8" stroke="#969696" stroke-width="1.875"/>
   <g stroke="#000" stroke-dasharray="3.75 7.5" stroke-miterlimit="2" stroke-width=".9375">
    <path d="m58.3 844.1h948.8"/>
    <path d="m58.3 641.8h948.8"/>
    <path d="m58.3 540.6h948.8"/>
   </g>
  </g>
  <g stroke="#000" stroke-linejoin="round">
   <path d="m477.8 367.8 125.6-126.4c11.2-10 20.1-9.6 25.5-8.3 19.1 4.5 11.2 19.6-4.7 41-15 20.3-24.5 36.8-43.1 61.9-26.3 35.4-55 68-47.8 86.2 3.9 7.5 11.8 9.7 21.3 8.5" stroke-width="5.625"/>
   <path d="m638.9 255.3c-.8 5.4-.7 9.8-5.7 20l-93.8 134.9-1.8 13.5" stroke-width="5.625"/>
   <path d="m634 265.5-67.9 98.8-28.6 41.8-2.2 10.7" stroke-width="8.4375"/>
   <path d="m550.2 396.3c-5.1 7.7-10 15.6-10 22.5 0 3.1 0 6.1 2.7 8.3 1.9 1.5 3.7 4.1 9.9 2.9" stroke-width="3.75"/>
   <path d="m639.8 238.9c2.8 5.2 2.1 16.5-1 26.4-1.6 5.1-4.3 10.5-8.7 16.2" stroke-width="3.75"/>
   <g stroke-width="5.625">
    <path d="m433.8 357.1c89.4-77.3 128.2-108.3 115.1-120.5-8.3-7.8-27 7-74.2 84.9l-61.6 109.8 64.6-63.4"/>
    <path d="m396.8 389.7c10-7.8 23.2-19.6 37-32.6"/>
    <path d="m396.8 389.7c-29.5 23.2-49.6 36.8-66.6 40.5-26.7 5.8-43.4-10.4-35-39.4"/>
    <path d="m554.5 430.8c8.1-1.3 21.2-3.9 76-51.6"/>
    <path d="m630.4 379.2 49.3-42.4-56.7 94.9"/>
   </g>
  </g>
 </g>
</svg>
