<svg height="210mm" viewBox="0 0 1052.4 744.1" width="297mm" xmlns="http://www.w3.org/2000/svg">
 <g fill="none" stroke-linecap="round">
  <g transform="translate(0 -308.26772)">
   <path d="m57.6 742.2h948.8" stroke="#969696" stroke-width="1.875"/>
   <g stroke="#000" stroke-dasharray="3.75 7.5" stroke-miterlimit="2" stroke-width=".9375">
    <path d="m58.3 844.1h948.8"/>
    <path d="m58.3 641.8h948.8"/>
    <path d="m58.3 540.6h948.8"/>
   </g>
  </g>
  <g stroke="#000" stroke-linejoin="round">
   <path d="m331.5 336.2s-16.5 35.2-26.7 56.4c-7.9 17.4-8.9 39.2 16.2 38.9" stroke-width="5.624999"/>
   <g stroke-width="5.625">
    <path d="m321 431.6c35.4-.3 244.1-3.1 252.7 6.6"/>
    <ellipse cx="718.74677" cy="-66.727127" rx="4.609393" ry="6.862875" transform="matrix(.72846687 .68508103 -.68508103 .72846687 0 0)"/>
    <path d="m569.5 437.2c20.4-5.8 46.8-11.2 65.2-5.9s14.1 29.8 29.6 32.8c16.1 3.2 23.5-6.3 29.7-11.4"/>
   </g>
  </g>
 </g>
</svg>
