<svg height="210mm" viewBox="0 0 1052.4 744.1" width="297mm" xmlns="http://www.w3.org/2000/svg">
 <g fill="none" stroke-linecap="round">
  <g transform="translate(0 -308.26772)">
   <path d="m57.6 742.2h948.8" stroke="#969696" stroke-width="1.875"/>
   <g stroke="#000" stroke-dasharray="3.75 7.5" stroke-miterlimit="2" stroke-width=".9375">
    <path d="m58.3 844.1h948.8"/>
    <path d="m58.3 641.8h948.8"/>
    <path d="m58.3 540.6h948.8"/>
   </g>
  </g>
  <g stroke="#000" stroke-linejoin="round" stroke-width="5.625">
   <path d="m470.5 403.1c-35.2 18.2-78.7 27.1-109.1 27.8-42.5 1-77.1-8.4-85.5-34.7"/>
   <path d="m473.9 391.9c.8.1 1.4.2 1.9.5.2.1.3.2.5.3.9.7 1.3 2 .8 4-1 3.9-5.4 6.1-7.5 6.9-4.3 1.6-7.6-2-5.1-5.9 1.6-2.4 4.2-5.1 7.4-5.7.2 0 .4-.1.7-.1s.5-.1.8-.1c.6 0 1.2.1 1.9.3"/>
   <path d="m470.5 403.1c6.1-1.1 34.3-25.3 45.5-39.8"/>
   <path d="m516 363.3c9.7-10.2 22.6-24.1 41.6-27 14.4-2.2 22.6 11.1 3.3 43l-31.5 52.1"/>
   <path d="m529.4 431.4 60.7-.2"/>
   <path d="m592.6 420.7c.6.1 1.2.2 1.6.4.1.1.3.2.4.2.8.6 1.1 1.6.6 3.3-.8 3.2-4.5 5-6.2 5.7-3.6 1.3-6.2-1.6-4.2-4.8 1.3-2 3.5-4.2 6.1-4.7.2 0 .4-.1.5-.1h.7c.5 0 1 .1 1.5.2"/>
   <path d="m590.1 431.2 33.9-19.5c22.3-11.9 49.8-30.8 53-32.8 22.6-16.6 36-34 21.6-41.1-9.2-4.4-24.1 1.8-41.4 30.4-27 44.2-23.3 64.3-9.5 62.5 9.5-1.4 17.4-4.6 22.6-8.1"/>
  </g>
 </g>
</svg>
