<svg height="210mm" viewBox="0 0 1052.4 744.1" width="297mm" xmlns="http://www.w3.org/2000/svg">
 <g fill="none" stroke-linecap="round">
  <g transform="translate(0 -308.26772)">
   <path d="m57.6 742.2h948.8" stroke="#969696" stroke-width="1.875"/>
   <g stroke="#000" stroke-dasharray="3.75 7.5" stroke-miterlimit="2" stroke-width=".9375">
    <path d="m58.3 844.1h948.8"/>
    <path d="m58.3 641.8h948.8"/>
    <path d="m58.3 540.6h948.8"/>
   </g>
  </g>
  <g stroke="#000">
   <g stroke-linejoin="round">
    <path d="m385.5 430.6c-17.4 3.6-32.7 7.6-39.3 10.5-8.8 3.9-17.2 9.2-25 15.3-31.6 24.7-53.5 62.7-50.9 71.3.9 3 16.3 22.9 59.8-38.1 26.9-36.9 54.6-73.4 69.3-116.4 15.5-30.1-1.4-56.7-44.4-11.6" stroke-width="5.625"/>
    <g stroke-width="5.624959">
     <path d="m385.5 430.6 72.3-12.6"/>
     <path d="m457.8 418c43.9-7.2 71.6-13.5 82.7-13.3 11.8.2 15.3 21.8 27.1 25.5 5.1 1.6 18.7 2.4 31.9.6"/>
     <path d="m519.4 407.2c7.5-1.3 19.4-2.9 27.4 14.4 5.5 12.2 16.6 8.7 23.2 9.1"/>
    </g>
    <path d="m539.7 407.1c5.9 3.2 6.8 6 10.9 12.4 3 4.6 4.9 6.7 8.1 8.2" stroke-width="5.625"/>
   </g>
   <g stroke-width="5.625">
    <path d="m698.5 301.7s-79.5 118.3-80.8 118.9"/>
    <g stroke-linejoin="round">
     <ellipse cx="224.99268" cy="690.70703" rx="25.728558" ry="20.371416" transform="matrix(.79083574 -.61202846 .61202846 .79083574 0 0)"/>
     <path d="m698.5 301.7s26.4-38.9 29.2-42.6c9-12.3 17.4-24.1 33.1-24.6 12.2-.4 16.3 25.1 31.9 24.2 8.7-.5 14.1-5.1 21.4-14.5"/>
    </g>
   </g>
  </g>
 </g>
</svg>
