<svg height="210mm" viewBox="0 0 1052.4 744.1" width="297mm" xmlns="http://www.w3.org/2000/svg">
 <g fill="none" stroke-linecap="round">
  <g transform="translate(0 -308.26772)">
   <path d="m57.6 742.2h948.8" stroke="#969696" stroke-width="1.875"/>
   <g stroke="#000" stroke-dasharray="3.75 7.5" stroke-miterlimit="2" stroke-width=".9375">
    <path d="m58.3 844.1h948.8"/>
    <path d="m58.3 641.8h948.8"/>
    <path d="m58.3 540.6h948.8"/>
   </g>
  </g>
  <g stroke="#000">
   <path d="m315.4 385.2 23.5 46" stroke-linejoin="round" stroke-width="5.625"/>
   <path d="m315.4 385.2-75.6 147.8" stroke-width="5.625"/>
   <g stroke-linejoin="round">
    <g stroke-width="5.624999">
     <path d="m593.8 286.3-46.6 95.4"/>
     <path d="m593.8 286.3h-8.2"/>
     <path d="m589.9 287.2-45.7 93.9"/>
     <path d="m547.2 381.7h-8.2"/>
     <path d="m585.6 286.3-46.6 95.4"/>
    </g>
    <path d="m338.9 431.2 246.7-144.9" stroke-width="5.625"/>
   </g>
   <path d="m621.3 342.3c-9.1 5.1-74.1 39.4-74.1 39.4" stroke-width="5.625001"/>
   <g stroke-linejoin="round">
    <path d="m688.7 431 88.8-44.2 21.3 44.2" stroke-width="5.624999"/>
    <g stroke-width="5.625">
     <path d="m574.2 433.8c34.1-28.9 61.6-46.2 82.1-48.1 24.7-2.3 32 16.4 32.4 45.3"/>
     <path d="m574.2 433.8c-27 16.7-90.2 91.8-63 99 11.2 2.5 33.1-7.6 54.5-66.3 15.7-47.2 16.4-112.8 70.4-130.9"/>
    </g>
   </g>
  </g>
 </g>
</svg>
