<svg height="210mm" viewBox="0 0 1052.4 744.1" width="297mm" xmlns="http://www.w3.org/2000/svg">
 <g fill="none" stroke-linecap="round">
  <g transform="translate(0 -308.26772)">
   <path d="m10.7 742.2h1027.9" stroke="#969696" stroke-width="1.875"/>
   <g stroke="#000" stroke-dasharray="3.75 7.5" stroke-miterlimit="2" stroke-width=".9375">
    <path d="m11.4 844.1h1027.9"/>
    <path d="m11.4 641.8h1027.9"/>
    <path d="m11.4 540.6h1027.9"/>
   </g>
  </g>
  <g stroke-linejoin="round" stroke-width="5.625">
   <g stroke="#000">
    <path d="m142.6 347.3c23.7-19.2 60.9-14.6 37.5 14.4-27.4 33.8-45.5 50.2-39.4 63.9 4.2 9.6 21.8 5.3 36.5-3.7l19.7-12"/>
    <path d="m193.2 412.5s33.9-24.9 43.6-17.4c6.1 4.7 8.9 37.6 21.2 36.1 8.8-1.1 10.4-1.5 17.1-5.6 4.4-2.8 14.8-12.6 14.8-12.6"/>
    <path d="m225.1 395c11.6-4.7 11.4 6.3 12.9 22.9 1 10.8 7.8 13.7 20.1 13.3"/>
    <path d="m225.1 395c5.4-2.4 19-3.6 22.7 15 2.6 13.3 4.7 19.7 13.9 20.5"/>
    <path d="m237.1 397.7c6.8 12.3 1 30.9 15.5 31.8"/>
    <path d="m28.1 282 21.1 48.8"/>
    <path d="m407.5 410.4 30.6-27.7"/>
    <path d="m422.1 336c-56.6 14.8-104.6 143.3-14.6 74.3"/>
   </g>
   <g stroke="#00000c">
    <path d="m438.1 382.7 33.3 47.9"/>
    <path d="m438.1 382.7 24 48"/>
    <path d="m447.6 382.7 23.8 47.9"/>
    <path d="m443.7 382.6 24 48"/>
   </g>
  </g>
  <path d="m440.4 381.6h7.1" stroke="#00000c" stroke-width="3.75"/>
  <path d="m463.8 431.6h7.1" stroke="#00000c" stroke-width="3.75"/>
  <g stroke="#000">
   <g stroke-width="5.625">
    <path d="m587.6 233.6-34.2 96.5" stroke-linejoin="round"/>
    <path d="m587.6 233.6-116.2 197"/>
    <g stroke-linejoin="round">
     <path d="m862 410.5 7.4-6.7 22.7-20.4 31.4 47.9"/>
     <path d="m892.1 383.4 24 48"/>
     <path d="m899.7 383.4 23.8 47.9"/>
     <path d="m895.8 383.3 24 48"/>
    </g>
   </g>
   <path d="m892.5 382.4h7.1" stroke-width="3.75"/>
   <path d="m915.9 432.3h7.1" stroke-width="3.75"/>
   <g stroke-linejoin="round" stroke-width="5.625">
    <path d="m869.6 404c-12.8 12-29.6 21-36.8 24.6-55.7 28.4 44.6-169.4 102.2-194.4"/>
    <path d="m923.5 431.3c62.4-68.1 116.6-56 102.8.6"/>
    <path d="m619.6 431.1c3-4.3 94.3-128.7 100.4-133.7 23.7-19.2 60.9-14.6 37.5 14.4-27.4 33.8-45.5 50.2-39.4 63.9 4.2 9.6 23.5 10.7 36.5-3.7"/>
   </g>
  </g>
 </g>
</svg>
