<svg height="210mm" viewBox="0 0 1052.4 744.1" width="297mm" xmlns="http://www.w3.org/2000/svg">
 <g fill="none" stroke-linecap="round">
  <g transform="translate(0 -308.26772)">
   <path d="m57.6 742.2h948.8" stroke="#969696" stroke-width="1.875"/>
   <g stroke="#000" stroke-dasharray="3.75 7.5" stroke-miterlimit="2" stroke-width=".9375">
    <path d="m58.3 844.1h948.8"/>
    <path d="m58.3 641.8h948.8"/>
    <path d="m58.3 540.6h948.8"/>
   </g>
  </g>
  <g stroke-width="5.625">
   <g stroke-linejoin="round">
    <g stroke="#000">
     <ellipse cx="41.161968" cy="549.12183" rx="25.728558" ry="20.371416" transform="matrix(.79083574 -.61202846 .61202846 .79083574 0 0)"/>
     <path d="m448.1 430.7c10.8-56.3-43.5-69.1-93.5-36.6"/>
     <path d="m448.1 430.7s37.5-2.1 45.5 17.6"/>
    </g>
    <path d="m490.6 446.1c.7.1 1.2.2 1.7.4.2.1.3.2.4.3.8.6 1.1 1.7.7 3.5-.9 3.4-4.7 5.3-6.6 6-3.8 1.4-6.6-1.7-4.4-5.1 1.3-2.1 3.7-4.4 6.5-5 .2 0 .4-.1.6-.1h.7c.5 0 1.1.1 1.6.2" stroke="#030002"/>
    <path d="m485.5 447.7c11.8-10.4 35.4-17.5 51.8-12.8 15.5 4.6 27.8 37.4 38.7 37.1 7.2-.2 12.4-7.6 16.7-13" stroke="#000"/>
   </g>
   <path d="m691 290.4s-85.4 155.9-98.2 168.7" stroke="#000"/>
  </g>
 </g>
</svg>
