<svg height="210mm" viewBox="0 0 1052.4 744.1" width="297mm" xmlns="http://www.w3.org/2000/svg">
 <g fill="none" stroke-linecap="round">
  <g transform="translate(0 -308.26772)">
   <path d="m57.6 742.2h948.8" stroke="#969696" stroke-width="1.875"/>
   <g stroke="#000" stroke-dasharray="3.75 7.5" stroke-miterlimit="2" stroke-width=".9375">
    <path d="m58.3 844.1h948.8"/>
    <path d="m58.3 641.8h948.8"/>
    <path d="m58.3 540.6h948.8"/>
   </g>
  </g>
  <path d="m295 358.1c15.9-32 75.6-30.6 48.2 3.3-27.4 33.8-47.1 52.6-39.4 63.9 4.3 6.4 12.9 6.8 22.2 3.8" stroke="#000" stroke-linejoin="round" stroke-width="5.625"/>
  <g stroke="#00000c">
   <g stroke-linejoin="round" stroke-width="5.625">
    <path d="m326 429.1 242.8-92.6 33.3 47.9"/>
    <path d="m568.8 336.5 24 48"/>
    <path d="m578.3 336.5 23.8 47.9"/>
    <path d="m574.3 336.3 24 48"/>
   </g>
   <g stroke-width="3.75">
    <path d="m571 335.4h7.1"/>
    <path d="m594.5 385.3h7.1"/>
   </g>
  </g>
  <path d="m602.1 384.3c-.5 1 63.9-40.3 88-41.4 24-.8 32.4 41.1 48.8 40.7 10.8-.3 18.5-10 25.1-17.1" stroke="#000" stroke-linejoin="round" stroke-width="5.625"/>
 </g>
</svg>
