<svg height="210mm" viewBox="0 0 1052.4 744.1" width="297mm" xmlns="http://www.w3.org/2000/svg">
 <g fill="none" stroke-linecap="round">
  <g transform="translate(0 -308.26772)">
   <path d="m57.6 742.2h948.8" stroke="#969696" stroke-width="1.875"/>
   <g stroke="#000" stroke-dasharray="3.75 7.5" stroke-miterlimit="2" stroke-width=".9375">
    <path d="m58.3 844.1h948.8"/>
    <path d="m58.3 641.8h948.8"/>
    <path d="m58.3 540.6h948.8"/>
   </g>
  </g>
  <g stroke="#000" stroke-width="5.625">
   <g stroke-linejoin="round">
    <path d="m574.7 431.2 60.7-.2"/>
    <path d="m637.9 420.5c.6.1 1.2.2 1.6.4.1.1.3.2.4.2.8.6 1.1 1.6.6 3.3-.8 3.2-4.5 5-6.2 5.7-3.6 1.3-6.2-1.6-4.2-4.8 1.3-2 3.5-4.2 6.1-4.7.2 0 .4-.1.5-.1h.7c.5 0 1 .1 1.5.2"/>
    <path d="m564.7 362c10.3-12.8 21.7-20 29.9-23.6 19.6-8.3 36.3 3.3 12.3 40.5l-33.6 52.1"/>
    <path d="m635.5 431 33.9-19.5c22.3-11.9 49.8-30.8 53-32.8 22.6-16.6 36-34 21.6-41.1-9.2-4.4-24.1 1.8-41.4 30.4-27 44.2-23.3 64.3-9.5 62.5 9.5-1.4 17.4-4.6 22.6-8.1"/>
    <path d="m452.3 334.9c54.3-11 95.5-79.5 89.2-96.2-5.5-14.4-40.2 8.9-87.4 86.8-50.2 86.7-46.5 112.7-24.4 105.5 19.1-7 50.4-26.4 68.7-39.7"/>
   </g>
   <path d="m600.6 235-111.2 165.1"/>
   <ellipse cx="152.07535" cy="634.69263" rx="25.728558" ry="20.371416" stroke-linejoin="round" transform="matrix(.79083574 -.61202846 .61202846 .79083574 0 0)"/>
  </g>
 </g>
</svg>
