<svg height="210mm" viewBox="0 0 1052.4 744.1" width="297mm" xmlns="http://www.w3.org/2000/svg">
 <g fill="none" stroke-linecap="round">
  <g transform="translate(0 -308.26772)">
   <path d="m57.6 742.2h948.8" stroke="#969696" stroke-width="1.875"/>
   <g stroke="#000" stroke-dasharray="3.75 7.5" stroke-miterlimit="2" stroke-width=".9375">
    <path d="m58.3 844.1h948.8"/>
    <path d="m58.3 641.8h948.8"/>
    <path d="m58.3 540.6h948.8"/>
   </g>
  </g>
  <g stroke="#000">
   <g stroke-linejoin="round" stroke-width="5.625">
    <path d="m252 360.5c9.3-12.6 18-18.1 26.2-21.7 24.8-6.9 35 2.5 12.3 40.5l-29.8 52.1"/>
    <path d="m261.1 425s178.7-66.5 248.2-87.5"/>
    <path d="m653.1 340.6c8.9-2.5 17.1-4.3 25.9-2.9 16.5 4.5 13.5 42.4 30.6 42.4 8.9 0 21.3-12 25.3-18.5"/>
    <path d="m498.9 343.1s139.7-149.5 180-160.3c48-10.2-50.5 174.7-105 197-16.3 3.7-17.4-2.3-12.1-8.1 15.8-12 46-19.8 91.3-31.1"/>
    <ellipse cx="187.15613" cy="597.58356" rx="25.728558" ry="20.371416" transform="matrix(.79083574 -.61202846 .61202846 .79083574 0 0)"/>
   </g>
   <path d="m536.2 347c.3 9.3-.4 14.6-6.3 21.9-3.6 4.5-8.8 8.3-16 11.1" stroke-width="5.624961"/>
   <path d="m532.6 341.8c2 6.9 1.8 6.4.7 11.6-1.6 7.6-6.1 13.5-12.5 18.7-3.2 2.6-6.9 5-10.9 7.3" stroke-width="6.599955"/>
   <g stroke-width="2.849979">
    <path d="m515.5 373.6c-5.3 3.7-10.3 5.7-16.3 3.5"/>
    <path d="m521.8 337.1c7.4 1.6 9 4 10.4 10.8"/>
   </g>
  </g>
  <path d="m264.3 410.6c1 .1 1.8.3 2.5.7.2.1.4.2.6.4 1.2.9 1.7 2.6 1 5.2-1.3 5.1-7.1 8-9.8 9-5.7 2-9.8-2.6-6.6-7.6 2-3.1 5.5-6.6 9.7-7.5.3-.1.6-.1.9-.1s.7-.1 1-.1c.8 0 1.6.1 2.4.3" stroke="#030002" stroke-linejoin="round" stroke-width="5.625"/>
 </g>
</svg>
