<svg height="210mm" viewBox="0 0 1052.4 744.1" width="297mm" xmlns="http://www.w3.org/2000/svg">
 <g fill="none" stroke-linecap="round">
  <g transform="translate(0 -308.26772)">
   <path d="m57.6 742.2h948.8" stroke="#969696" stroke-width="1.875"/>
   <g stroke="#000" stroke-dasharray="3.75 7.5" stroke-miterlimit="2" stroke-width=".9375">
    <path d="m58.3 844.1h948.8"/>
    <path d="m58.3 641.8h948.8"/>
    <path d="m58.3 540.6h948.8"/>
   </g>
  </g>
  <g stroke="#000" stroke-linejoin="round" stroke-width="5.625">
   <path d="m348.3 392.3c17.5-9.3 39.1-10.2 51.8-10 16.3.3 23.4 10.1 13.3 32.3-11.5 22.7-35.7 67.5-35.7 67.5s94.8-83.2 112.6-92.1"/>
   <path d="m370.7 399.8a17.4 22.7 41.6 0 1 -13 28.4 17.4 22.7 41.6 0 1 -25-6.2 17.4 22.7 41.6 0 1 13-28.4 17.4 22.7 41.6 0 1 25 6.2z"/>
   <path d="m717.9 385.8c-43.4 51.8-179.9 71-175.1-.3l-90.6 86.6c-55.1 52.7-93 100.3-77.1 110.4 10.6 3.3 34.9-8.1 56.5-66.2 15.8-47.4 16.5-113.3 70.8-131.6"/>
  </g>
 </g>
</svg>
