<svg height="210mm" viewBox="0 0 1052.4 744.1" width="297mm" xmlns="http://www.w3.org/2000/svg">
 <g fill="none" stroke-linecap="round">
  <g transform="translate(0 -308.26772)">
   <path d="m57.6 742.2h948.8" stroke="#969696" stroke-width="1.875"/>
   <g stroke="#000" stroke-dasharray="3.75 7.5" stroke-miterlimit="2" stroke-width=".9375">
    <path d="m58.3 844.1h948.8"/>
    <path d="m58.3 641.8h948.8"/>
    <path d="m58.3 540.6h948.8"/>
   </g>
  </g>
  <g stroke-linejoin="round">
   <g stroke-width="5.625">
    <g stroke="#000e00">
     <path d="m520.5 412c1 .1 1.8.3 2.5.7.2.1.4.2.6.4 1.2.9 1.7 2.6 1 5.2-1.3 5.1-7.1 8-9.8 9-5.7 2-9.8-2.6-6.6-7.6 2-3.1 5.5-6.6 9.7-7.5.3-.1.6-.1.9-.1s.7-.1 1-.1c.8 0 1.6.1 2.4.3"/>
     <path d="m518.3 425.4c-6.7 5.5-42.4 6.5-60.1 6.3-17.7-.1-27.3-27.2-43.5-28.2-4.5-.2-12.4 1.2-19 7.9-38.1 38.7-85.5 105.4-74.3 115.7 2.3 2.1 16.3 22.9 59.8-38.1 26.9-36.9 48.9-73 71.6-116.6 17.8-33.1-3.7-56.5-46.7-11.3"/>
     <path d="m491.1 415.3c1 .1 1.8.3 2.5.7.2.1.4.2.6.4 1.2.9 1.7 2.6 1 5.2-1.3 5.1-7.1 8-9.8 9-5.7 2-9.8-2.6-6.6-7.6 2-3.1 5.5-6.6 9.7-7.5.3-.1.6-.1.9-.1s.7-.1 1-.1c.8 0 1.6.1 2.4.3"/>
    </g>
    <path d="m518.3 425.4c8.5-1.2 48.7-52.3 48.7-52.3" stroke="#060000"/>
   </g>
   <g stroke="#000002">
    <path d="m604.6 392.8c-23.5 16.7-42.6 26.7-42 32.4.4 3.7 1.9 4.8 5.3 5.2 3.3.4 8.2-3.6 9.6-4.4 48-27.8 71.8-129.3 9.4-73.8-2.3 2.1-17.4 18.4-20 20.9" stroke-width="5.419139"/>
    <path d="m604.6 392.8c61.3-39.5 92.1-75.3 106.5-89.5 17.5-17.4 57.1-61.5 40.1-67.4-14.6-5.1-40.2 9-87.4 87.7-39.5 68.9-42.5 99.2-30.4 106 2.8 1.6 9.7 2.2 14.7 1.8 9.9-.8 18.1-14.4 18.1-14.4" stroke-width="5.625"/>
   </g>
  </g>
  <path d="m789.6 234.7-123.4 182.3" stroke="#000002" stroke-width="5.625"/>
 </g>
</svg>
