<svg height="210mm" viewBox="0 0 1052.4 744.1" width="297mm" xmlns="http://www.w3.org/2000/svg">
 <g fill="none" stroke-linecap="round">
  <g transform="translate(0 -308.26772)">
   <path d="m57.6 742.2h948.8" stroke="#969696" stroke-width="1.875"/>
   <g stroke="#000" stroke-dasharray="3.75 7.5" stroke-miterlimit="2" stroke-width=".9375">
    <path d="m58.3 844.1h948.8"/>
    <path d="m58.3 641.8h948.8"/>
    <path d="m58.3 540.6h948.8"/>
   </g>
  </g>
  <g stroke="#000" stroke-linejoin="round">
   <ellipse cx="679.34113" cy="-308.71237" rx="4.609393" ry="6.862875" stroke-width="5.625" transform="matrix(.72846687 .68508103 -.68508103 .72846687 0 0)"/>
   <path d="m303.2 391c-7.8 27 6 40.6 29.6 40.1 3.5-.1 7.6-.5 12-1.5 11.5-2.3 29.8-10 117.2-54.2 46.6-23.6 191.6-101.1 245.9-130.1" stroke-width="5.625"/>
   <path d="m703.4 246.5c12 6.2 22.6-13.2 47.1-13.1 17.1.1 16.4 30.7 34.5 30.7 8.7 0 14.1-5.3 19.4-11.5" stroke-width="5.625001"/>
  </g>
 </g>
</svg>
