<svg height="210mm" viewBox="0 0 1052.4 744.1" width="297mm" xmlns="http://www.w3.org/2000/svg">
 <g fill="none" stroke-linecap="round">
  <g transform="translate(0 -308.26772)">
   <path d="m57.6 742.2h948.8" stroke="#969696" stroke-width="1.875"/>
   <g stroke="#000" stroke-dasharray="3.75 7.5" stroke-miterlimit="2" stroke-width=".9375">
    <path d="m58.3 844.1h948.8"/>
    <path d="m58.3 641.8h948.8"/>
    <path d="m58.3 540.6h948.8"/>
   </g>
  </g>
  <g stroke-linejoin="round" stroke-width="5.625">
   <path d="m506.2 362.2c-27.4 33.8-47.1 47.2-41.1 60.9 2.4 5.4 8.9 8.5 23.7 8" stroke="#000"/>
   <path d="m512.2 414.2c1 .1 1.8.3 2.5.7.2.1.4.2.6.4 1.2.9 1.7 2.6 1 5.2-1.3 5.1-7.1 8-9.8 9-5.7 2-9.8-2.6-6.6-7.6 2-3.1 5.5-6.6 9.7-7.5.3-.1.6-.1.9-.1s.7-.1 1-.1c.8 0 1.6.1 2.4.3" stroke="#030002"/>
   <g stroke="#000">
    <path d="m488.8 431.1c23.7 0 40.2-5.1 110.8-49.8 36-22.8 41.4-45.1 29.3-45.5-7.5-.3-26.4 4-49.2 41.6-26.3 43-19.9 52.2-4.8 53.6"/>
    <path d="m574.8 430.9c13.4 1.5 61.6-28.8 78.6-30.3 16-.6 21.6 31 32.6 30.7 7.2-.2 12.4-7.6 16.7-13"/>
    <path d="m468.4 348.2c23.7-19.2 60.9-14.6 37.5 14.4"/>
    <path d="m468.4 348.2c-17.3 15.7-42.1 45.5-43.4 47.1-47 56-94.4 41.2-80.9-5"/>
   </g>
  </g>
 </g>
</svg>
