<svg height="210mm" viewBox="0 0 1052.4 744.1" width="297mm" xmlns="http://www.w3.org/2000/svg">
 <g fill="none" stroke-linecap="round">
  <g transform="translate(0 -308.26772)">
   <path d="m57.6 742.2h948.8" stroke="#969696" stroke-width="1.875"/>
   <g stroke="#000" stroke-dasharray="3.75 7.5" stroke-miterlimit="2" stroke-width=".9375">
    <path d="m58.3 844.1h948.8"/>
    <path d="m58.3 641.8h948.8"/>
    <path d="m58.3 540.6h948.8"/>
   </g>
  </g>
  <g stroke="#000" stroke-linejoin="round">
   <path d="m456.9 430.8c30.2-9.6 64.6-95.3 40.5-94.8-19.3 1.3-36.6 22.7-45.5 33.6" stroke-width="5.419139"/>
   <g stroke-width="5.625">
    <path d="m606.2 286.7-55.8 97.2"/>
    <path d="m606.2 286.7h-10.6"/>
    <path d="m600.7 286.7-55.8 97.2"/>
    <path d="m550.4 383.9h-10.6"/>
    <path d="m456.9 430.8c-17.7 4.4 138.7-144.1 138.7-144.1l-55.8 97.2 11-.1"/>
    <path d="m550.8 383.8s67.2-32.7 85.9-33.6c17.8-.7 24 34.4 36.2 34.1 8-.2 13.7-8.4 18.6-14.4"/>
    <path d="m340.9 390.7c-13.8 47.4 39.8 60.8 94.2-1.1l16.8-20"/>
   </g>
  </g>
 </g>
</svg>
