<svg height="210mm" viewBox="0 0 1052.4 744.1" width="297mm" xmlns="http://www.w3.org/2000/svg">
 <g fill="none" stroke-linecap="round">
  <g stroke="#969696" transform="translate(0 -308.26772)">
   <path d="m57.6 742.2h948.8" stroke-width="1.875"/>
   <g stroke-dasharray="3.75 7.5" stroke-miterlimit="2" stroke-width=".9375">
    <path d="m58.3 844.1h948.8"/>
    <path d="m58.3 641.8h948.8"/>
    <path d="m58.3 540.6h948.8"/>
   </g>
  </g>
  <g stroke="#000">
   <path d="m886 233.4s-50.1 90-61.4 109.4c-29.6 50.7-52.7 89.5-83 88.3-19.8-.8-17.6-28.6-34.4-29.1-17.5-.5-57.7 19.5-80.4 29.2" stroke-width="5.624999"/>
   <g stroke-linejoin="round">
    <path d="m196.9 397.7 33.9-16-27.4 48.9" stroke-width="5.625"/>
    <path d="m673.3 335.8-46.6 95.4" stroke-width="5.624999"/>
    <g stroke-width="5.625">
     <path d="m203.4 430.5c51.3-68.4 121.8-59.1 102.4.6"/>
     <path d="m305.9 431.1s199.9-77 250.7-92.1c7.8-2.3 14.2-3.1 18.1-3.1 7.3 0 13.5 1.8 16.1 7.3 5.5 11.8-5.5 22.9-21.8 40.6s-27.2 28.8-21.7 40.6c2.6 5.5 8.9 8.1 16.1 7.3 11.6-1.4 17.9-9.2 20.8-17.1 2.5-6.9 5-23.2-1.4-33.5-5.3-8.5-11.4-9.2-18.2-8.2-10.5 1.6-19.9 9.6-21.5 16.2-2.7 11.9 5.8 14.6 17.3 12.4 13.4-2.4 21.9-6.4 32.3-13.9 16.2-11.7 80.8-51.9 80.8-51.9"/>
    </g>
   </g>
  </g>
 </g>
</svg>
