<svg height="210mm" viewBox="0 0 1052.4 744.1" width="297mm" xmlns="http://www.w3.org/2000/svg">
 <g fill="none" stroke-linecap="round">
  <g transform="translate(0 -308.26772)">
   <path d="m57.6 742.2h948.8" stroke="#969696" stroke-width="1.875"/>
   <g stroke="#000" stroke-dasharray="3.75 7.5" stroke-miterlimit="2" stroke-width=".9375">
    <path d="m58.3 844.1h948.8"/>
    <path d="m58.3 641.8h948.8"/>
    <path d="m58.3 540.6h948.8"/>
   </g>
  </g>
  <g stroke="#000" stroke-linejoin="round" stroke-width="5.625">
   <path d="m650 431.1c5.4-3.3 11.7-10.5 6.5-17.1-2.6-3.3-4-4.5-11.9-4.4l-135 .6c-5.8 0-12.7.1-15.9-.7-9.6-2.4-7.9-13.2 0-24"/>
   <path d="m415 433.6 78.7-48.1"/>
   <path d="m415 433.6c-33.3 18.9-90.2 91.8-63 99 11.2 2.5 31.2-7.6 52.6-66.3 15.7-47.2 18.3-112.8 72.3-130.9"/>
  </g>
 </g>
</svg>
