<svg height="210mm" viewBox="0 0 1052.4 744.1" width="297mm" xmlns="http://www.w3.org/2000/svg">
 <g fill="none" stroke-linecap="round">
  <g transform="translate(0 -308.26772)">
   <path d="m57.6 742.2h948.8" stroke="#969696" stroke-width="1.875"/>
   <g stroke="#000" stroke-dasharray="3.75 7.5" stroke-miterlimit="2" stroke-width=".9375">
    <path d="m58.3 844.1h948.8"/>
    <path d="m58.3 641.8h948.8"/>
    <path d="m58.3 540.6h948.8"/>
   </g>
  </g>
  <g stroke="#000" stroke-linejoin="round" stroke-width="5.625">
   <path d="m563.3 341.5c-35.9 17.3-77.7 90.3-102.7 89.9-14.1-.2-13.7-25.8-32.3-26.5-14.8-.5-63.3 16.7-85.4 30.5-27 22.1-83.4 89.1-63.4 97.4 9.3 2.9 27.1-3.5 42.8-28.6 8.5-13.7 17.7-31 19.9-61.8 5-69.6 51.3-122.1 69-102.2 6.3 7.1 3.8 16.6-7.5 27.4-17 16.1-48.5 34.7-60.3 43.3"/>
   <path d="m335.3 336.4c-50.8 17.1-74.9 95.8-42.1 94.9 14.4.2 34.6-12.2 50.2-20.3"/>
   <path d="m675.2 381.1c27.3-8.4 63.9-52.6 90.3-97.3 12.2-21.6 21.8-42 26.7-58.6 3.3-13.4 10.3-40.9-9.9-40.8-12.4 0-30.3 15.2-41.1 25.1-19.3 17.8-60 58.4-87.6 86.2-31.9 32.1-155.2 152.6-188.8 188.6-19.3 20.7-27.1 44.7-13 48.4 11.2 2.5 33.1-7.6 54.5-66.3 15.7-47.2 16.4-112.8 70.4-130.9"/>
  </g>
 </g>
</svg>
