<svg height="210mm" viewBox="0 0 1052.4 744.1" width="297mm" xmlns="http://www.w3.org/2000/svg">
 <g stroke-linecap="round">
  <g fill="none">
   <g transform="translate(0 -308.26772)">
    <path d="m57.6 742.2h948.8" stroke="#969696" stroke-width="1.875"/>
    <g stroke="#000" stroke-dasharray="3.75 7.5" stroke-miterlimit="2" stroke-width=".9375">
     <path d="m58.3 844.1h948.8"/>
     <path d="m58.3 641.8h948.8"/>
     <path d="m58.3 540.6h948.8"/>
    </g>
   </g>
   <g stroke-linejoin="round" stroke-width="5.625">
    <ellipse cx="-40.553177" cy="485.04456" rx="25.728558" ry="20.371416" stroke="#000" transform="matrix(.79083574 -.61202846 .61202846 .79083574 0 0)"/>
    <path d="m338.7 384.9-67.5.7" stroke="#001300"/>
   </g>
  </g>
  <g stroke="#000">
   <g fill="#eb0000" fill-rule="evenodd" stroke-linejoin="round" transform="matrix(1.7715894 0 0 1.7715894 -948.18274 32.823668)">
    <path d="m732.1 185.5c.8.1 1.4.2 1.9.5.2.1.3.2.5.3.9.7 1.3 2 .8 4-1 3.9-5.4 6.1-7.5 6.9-4.3 1.6-7.6-2-5.1-5.9 1.6-2.4 4.2-5.1 7.4-5.7.2 0 .4-.1.7-.1h.8c.6 0 1.2.1 1.9.3" stroke-width="5.625"/>
    <path d="m729.3 188.3c.3 0 .6.1.9.2.1 0 .2.1.2.1.4.3.6.9.4 1.8-.4 1.7-2.4 2.8-3.3 3.1-1.9.7-3.4-.9-2.3-2.6.7-1.1 1.9-2.3 3.3-2.6h.3.4c.3 0 .6 0 .8.1" stroke-width="4.981044"/>
   </g>
   <g fill="none">
    <g stroke-width="5.625">
     <path d="m341.8 383.5c19 7.7 56.9-63.7 73.4-76.7 24-18.9 60.9-14.6 37.5 14.4-27.4 33.8-45.5 50.2-39.4 63.9 1.8 4.2 6.2 5.6 11.8 5.3" stroke-linejoin="round"/>
     <path d="m453.6 298.5c14.5 10.1 4.3 27.8-12.4 44.2-14.4 14-23.4 26.4-29.5 38.7"/>
     <path d="m453.6 298.5c.8-1.1 3.9 6.1.7 14.2-3.2 8.4-12.8 17.8-18.3 22.9-10.8 10.1-30.6 29-24.3 45.7"/>
    </g>
    <path d="m445 296.7c11.3 1.3 8.8 6.5 9.1 11" stroke-width="2.8125"/>
    <path d="m416.8 374c-2.7 4.9-3.8 12 2.3 14.5" stroke-width="2.8125"/>
    <path d="m409.1 375.4c-.1 5.7 2.9 11.5 4.9 13.1" stroke-width="2.8125"/>
    <g stroke-linejoin="round">
     <path d="m425.1 390.4c13.5-.8 36.8-17.9 102.7-111.9" stroke-width="5.625"/>
     <path d="m510.9 406.8s16.7-8.3 22.7-11.2c47.6-22.4 79-8.5 66.9 34.6" stroke-width="5.625"/>
     <path d="m591.2 392c7.1 5.9 8.1 27.1 3.2 37.8" stroke-width="6.5625"/>
     <path d="m578.6 385.7c16.4 3.3 16.8 35.2 10.1 45.2" stroke-width="4.6875"/>
    </g>
    <g stroke-width="5.625">
     <path d="m589.4 430.9 9.8.1"/>
     <g stroke-linejoin="round">
      <path d="m519.3 336.3-57 94.7 48.6-24.2"/>
      <path d="m600.5 430.2 97.9-93.5-56.7 94.5 89.6-73.1"/>
      <path d="m732.6 356.9c44.1-35.7 89.2-22.9 71.9 26.8"/>
     </g>
    </g>
   </g>
  </g>
 </g>
</svg>
