<svg height="210mm" viewBox="0 0 1052.4 744.1" width="297mm" xmlns="http://www.w3.org/2000/svg">
 <g fill="none" stroke-linecap="round">
  <g transform="translate(0 -308.26772)">
   <path d="m57.6 902.8h948.8" stroke="#969696" stroke-width="1.875"/>
   <g stroke="#000" stroke-dasharray="3.75 7.5" stroke-miterlimit="2" stroke-width=".9375">
    <path d="m58.3 1004.7h948.8"/>
    <path d="m58.3 802.3h948.8"/>
    <path d="m58.3 701.1h948.8"/>
   </g>
  </g>
  <g stroke="#000">
   <path d="m449.7 495.3s-24.8 55.7-31.7 74.9c-6.9 22.7 9 26.5 29 17.9 6.3-3.1 18.5-10.9 37.3-32.5" stroke-linejoin="round" stroke-width="5.625"/>
   <ellipse cx="46.303799" cy="755.91968" rx="25.728558" ry="20.371416" stroke-linejoin="round" stroke-width="5.625" transform="matrix(.79083574 -.61202846 .61202846 .79083574 0 0)"/>
   <path d="m521.7 558.4c.3 9.3-.4 14.6-6.3 21.9-3.6 4.5-8.8 8.3-16 11.1" stroke-width="5.624961"/>
   <path d="m518.2 553.2c2 6.9 1.8 6.4.7 11.6-1.6 7.6-6.1 13.5-12.5 18.7-3.2 2.6-6.9 5-10.9 7.3" stroke-width="6.599955"/>
   <path d="m501.1 585.1c-5.3 3.7-10.3 5.7-16.3 3.5" stroke-width="2.849979"/>
   <path d="m507.4 548.5c7.4 1.6 9 4 10.4 10.8" stroke-width="2.849979"/>
   <g stroke-width="5.625">
    <path d="m493 544.4-6.8 9.2" stroke-linejoin="round"/>
    <path d="m596.1 364-103.1 180.4"/>
   </g>
  </g>
  <g stroke-width="5.625">
   <path d="m567.1 396.5c1 .1 1.8.3 2.5.7.2.1.4.2.6.4 1.2.9 1.7 2.6 1 5.2-1.3 5.1-7.1 8-9.8 9-5.7 2-9.8-2.6-6.6-7.6 2-3.1 5.5-6.6 9.7-7.5.3-.1.6-.1.9-.1s.7-.1 1-.1c.8 0 1.6.1 2.4.3" stroke="#030002" stroke-linejoin="round"/>
   <path d="m684.8 208.6-88.7 155.4" stroke="#000"/>
   <path d="m449.7 495.3-124 199" stroke="#000"/>
  </g>
 </g>
</svg>
