<svg height="210mm" viewBox="0 0 1052.4 744.1" width="297mm" xmlns="http://www.w3.org/2000/svg">
 <g fill="none" stroke-linecap="round">
  <g transform="translate(0 -308.26772)">
   <path d="m57.6 742.2h948.8" stroke="#969696" stroke-width="1.875"/>
   <g stroke="#000" stroke-dasharray="3.75 7.5" stroke-miterlimit="2" stroke-width=".9375">
    <path d="m58.3 844.1h948.8"/>
    <path d="m58.3 641.8h948.8"/>
    <path d="m58.3 540.6h948.8"/>
   </g>
  </g>
  <g stroke="#000" stroke-linejoin="round" stroke-width="5.625">
   <path d="m273.9 355c7.9-7.4 17.1-17.5 31.2-19.2 3.2-.4 6.2-.1 8.8.9 2.7.9 4.9 2.5 6.4 4.6 3.6 5.1 3 13.2-5 22.8-6 7.3-11.8 13.6-17 19.3-5.3 5.7-11.2 12.1-17.3 19.5-8 9.7-8.6 17.8-5 22.8 1.5 2.1 3.7 3.7 6.4 4.6 2.6.9 5.6 1 8.8.9 7.2-.3 14.9-2.3 21.8-5.6 12.2-5.8 302-159 339.6-178 8.7-4.4 16.9-8 23.1-10 7.5-2.2 13.8-3.3 19.5-2.9 5.4.4 10.3 2 14.8 5.3 3.3 2.5 5.8 5.8 7.1 9.7 1.1 3.3 1.4 7.1.7 11.4-.6 3.9-2.1 8.2-4.7 12.7-8.3 14.9-42.1 62.2-62.9 91.1-13.8 17.9-20.3 34.5-16 48.7 1.3 4.4 4 8.9 7.6 11.8 3 2.5 7.1 5.6 16.1 5.9"/>
   <path d="m658 431.3c28.2 1 70.3-29 91.1-29 16-.6 18.8 29 32.6 28.8 8.7-.1 14.1-5.3 19.4-11.5"/>
  </g>
 </g>
</svg>
