<svg height="210mm" viewBox="0 0 1052.4 744.1" width="297mm" xmlns="http://www.w3.org/2000/svg">
 <g fill="none" stroke-linecap="round">
  <g transform="translate(0 -308.26772)">
   <path d="m57.6 742.2h948.8" stroke="#969696" stroke-width="1.875"/>
   <g stroke="#000" stroke-dasharray="3.75 7.5" stroke-miterlimit="2" stroke-width=".9375">
    <path d="m58.3 844.1h948.8"/>
    <path d="m58.3 641.8h948.8"/>
    <path d="m58.3 540.6h948.8"/>
   </g>
  </g>
  <g stroke="#000" stroke-width="5.625">
   <path d="m741.5 336c1 .1 1.8.3 2.5.7.2.1.4.2.6.4 1.2.9 1.7 2.6 1 5.2-1.3 5.1-7.1 8-9.8 9-5.7 2-9.8-2.6-6.6-7.6 2-3.1 5.5-6.6 9.7-7.5.3-.1.6-.1.9-.1s.7-.1 1-.1c.8 0 1.6.1 2.4.3" stroke-linejoin="round"/>
   <path d="m555.9 336.3-56.7 94.9 236.6-79.7" stroke-linejoin="round"/>
   <path d="m841.2 183.4s-95.5 161.4-96.5 161.4"/>
   <path d="m232 431.8s41.9-26.3 90.6-27.2 61.9 26.5 96.3 26.5c25.8.1 43.9-11.4 54.8-17.9" stroke-linejoin="round"/>
   <path d="m473.8 413.2-64.4 121.2"/>
  </g>
 </g>
</svg>
