<svg height="210mm" viewBox="0 0 1052.4 744.1" width="297mm" xmlns="http://www.w3.org/2000/svg">
 <g fill="none" stroke-linecap="round">
  <g transform="translate(0 -308.26772)">
   <path d="m57.6 742.2h948.8" stroke="#969696" stroke-width="1.875"/>
   <g stroke="#000" stroke-dasharray="3.75 7.5" stroke-miterlimit="2" stroke-width=".9375">
    <path d="m58.3 844.1h948.8"/>
    <path d="m58.3 641.8h948.8"/>
    <path d="m58.3 540.6h948.8"/>
   </g>
  </g>
  <g stroke="#000">
   <g stroke-linejoin="round">
    <path d="m465.4 336.3-47.8 95.3" stroke-width="5.62496"/>
    <path d="m537.5 336.6-43.2 78.1-3.3 9.2" stroke-width="6.5625"/>
    <path d="m532.7 336.6-44.6 81.7" stroke-width="6.5625"/>
    <g stroke-width="5.625">
     <path d="m537.5 336.1h-9.3"/>
     <path d="m417.6 431.6 110.6-95.5-39 72.3c-7.3 13.5 1.8 23.1 15.1 23"/>
    </g>
   </g>
   <path d="m498.1 410.8c-4.3 7.3-5.9 18.8 4 19.7" stroke-width="3.75"/>
   <g stroke-linejoin="round">
    <path d="m504.3 431.4c28.4.5 44-24.4 85.7-41.1 2.9-1 5.8-1.8 8.5-2.4 4.1-1 8-1.5 11.7-1.7 24.2-1.2 37.5 7.9 33.6 45" stroke-width="5.624999"/>
    <path d="m628.8 392.5c10.4 5.8 10.8 27.3 10 38.1" stroke-width="6.562499"/>
    <path d="m616.2 386.2c16.4 3.3 19.2 32.7 18.3 45.3" stroke-width="4.6875"/>
   </g>
   <path d="m635 431.2 8.7.1" stroke-width="5.624999"/>
   <path d="m603.6 387.8c13.6-2.1 22 2.5 25.4 11" stroke-linejoin="round" stroke-width="3.75"/>
  </g>
 </g>
</svg>
