<svg height="210mm" viewBox="0 0 1052.4 744.1" width="297mm" xmlns="http://www.w3.org/2000/svg">
 <g fill="none" stroke-linecap="round">
  <g transform="translate(0 -308.26772)">
   <path d="m57.6 742.2h948.8" stroke="#969696" stroke-width="1.875"/>
   <g stroke="#000" stroke-dasharray="3.75 7.5" stroke-miterlimit="2" stroke-width=".9375">
    <path d="m58.3 844.1h948.8"/>
    <path d="m58.3 641.8h948.8"/>
    <path d="m58.3 540.6h948.8"/>
   </g>
  </g>
  <g stroke="#000" stroke-linejoin="round">
   <path d="m372.1 405.3 99.1-170.9" stroke-width="5.625"/>
   <path d="m340.4 404.3c1.4.1 2.7.4 3.6 1 .3.2.6.4.9.6 1.8 1.4 2.4 3.7 1.4 7.5-1.9 7.3-10.2 11.5-14.1 13-8.1 2.9-14.2-3.8-9.5-11 2.9-4.5 8-9.5 13.9-10.7.4-.1.8-.2 1.2-.2.5-.1 1-.1 1.5-.1 1.1 0 2.3.2 3.5.5" stroke-width="10.905816"/>
   <path d="m372.1 405.3c-2.1 3.5-5.6 8-12.7 14.4-4.7 4.3-11 7.5-14.1 8.5-7.8 2.6-28.8 2-43.5 2.1s-33.1.8-33.1.8l-5.6-.2 3.3.1s8.4-4 9.8-4.8c10.9-6.3 20.6-16.1 28.3-27.1 21.4-30.3 28.2-67.5 7-62.7-6.1 1.4-18.4 5.8-37.4 20.4" stroke-width="5.625"/>
   <path d="m336.8 412.8c.5 0 .8.1 1.2.3.1.1.2.1.3.2.6.4.8 1.2.5 2.4-.6 2.3-3.3 3.7-4.5 4.2-2.6.9-4.5-1.2-3.1-3.5.9-1.4 2.5-3 4.5-3.4.1 0 .3 0 .4-.1h.5c.4 0 .7 0 1.1.2" stroke-width="11.88091"/>
   <g stroke-width="5.625">
    <path d="m469.4 378.3c28.5-22.6 35.5-31.4 39-55.7.5-3.3.5-6.8.1-10.4-4.7-39.9-52.7-31.4-37.4-77.8"/>
    <path d="m274 356.8c-14.1 10.6-37.6 25.3-58.4 43.2-15 12.9-22.3 25.3-16.4 29.6 9.5 6.4 30.3-17.6 37-26.6 8-10.7 12.6-23.6 18.1-41.4 8.5-28.7 20.4-62 33.3-87.5 12.6-24.8 24.6-44.1 40.4-37.9 10.9 6.1-2.3 29-19.1 52.5-15.2 21.2-28.2 33-45.5 43.7"/>
    <ellipse cx="224.88759" cy="624.08826" rx="25.728558" ry="20.371416" transform="matrix(.79083574 -.61202846 .61202846 .79083574 0 0)"/>
    <path d="m552 336.7s-99.3 40.9-82.6 41.6"/>
    <path d="m636.6 410.8 35-27.4 19.6 47.9"/>
    <path d="m650.3 331.8c-51.2 15.8-94.4 129.3-32.2 91.9 20.3-13.5 18.5-12.8 18.5-12.8"/>
    <path d="m691.2 431.3c14.8-23.8 97.7-179 109.9-188.4 5.2-4.1 10.7-6.9 16.6-8.1 10.7-2.7 14.3.7 18.7 3.2 7.6 4.3 8 17.2-6 41.5l-29.8 52.1"/>
    <path d="m565.2 333.3s50.3-3.2 85.1-1.6"/>
   </g>
  </g>
 </g>
</svg>
