<svg height="210mm" viewBox="0 0 1052.4 744.1" width="297mm" xmlns="http://www.w3.org/2000/svg">
 <g fill="none" stroke-linecap="round">
  <g transform="translate(0 -308.26772)">
   <path d="m57.6 742.2h948.8" stroke="#969696" stroke-width="1.875"/>
   <g stroke="#000" stroke-dasharray="3.75 7.5" stroke-miterlimit="2" stroke-width=".9375">
    <path d="m58.3 844.1h948.8"/>
    <path d="m58.3 641.8h948.8"/>
    <path d="m58.3 540.6h948.8"/>
   </g>
  </g>
  <g stroke-linejoin="round" stroke-width="5.625">
   <path d="m267.2 433.5c-27 16.7-90.2 91.8-63 99 11.2 2.5 33.1-7.6 54.5-66.3 15.7-47.2 16.4-112.8 70.4-130.9" stroke="#000"/>
   <path d="m675 381.2c12.2-22 25-43.1 34.9-64.9 2.1-5.4 3.3-9.9 3.7-13.7.8-8.9-5.2-15.8-15.8-17-4.6-.4-9.2.4-13.6 2.3-10.1 4.4-26.7 23-49.5 48.9-63.3 72.2-108.9 93.8-152.3 94.3-46.8.5-54.8-29.2-111-27.9-56.1 1.3-104.4 30.2-104.4 30.2" stroke="#020000"/>
   <g stroke="#000">
    <path d="m675 381.2 89.2-45.1"/>
    <path d="m768.9 489.7c16-8.3 33-17.3 31.3-37.3-2-23.3-57.1-37.7-65.3-62.2-5.6-16.7 12.8-36.2 29.2-54"/>
   </g>
  </g>
 </g>
</svg>
