<svg height="210mm" viewBox="0 0 1052.4 744.1" width="297mm" xmlns="http://www.w3.org/2000/svg">
 <g fill="none" stroke-linecap="round">
  <g transform="translate(0 -308.26772)">
   <path d="m57.6 742.2h948.8" stroke="#969696" stroke-width="1.875"/>
   <g stroke="#000" stroke-dasharray="3.75 7.5" stroke-miterlimit="2" stroke-width=".9375">
    <path d="m58.3 844.1h948.8"/>
    <path d="m58.3 641.8h948.8"/>
    <path d="m58.3 540.6h948.8"/>
   </g>
  </g>
  <g stroke="#000" stroke-linejoin="round" stroke-width="5.625">
   <path d="m528.5 431.1c-2.6 1-3.8.1-2.1-2.4 7.7-11.6 99-94.9 111.7-106.9 15-14.2 36.3-35.1 55.6-35.4 6.4-.1 11.1 2.6 12.7 8.3 1.4 5.1-.1 12.5-4.1 22.5-7.6 17.3-15.2 30.4-36 64.5"/>
   <path d="m352.2 479.9s142.6-145.1 160.7-163.7c16.4-16.7 63.9-71.1 44.3-79.9-20.8-9.1-50.8 24.3-87.4 90.3-41.7 79.7-36.9 104.4-20.8 105 24.4.9 71.1-51.9 90.3-72.2 16.4-17.2 28.6-23.2 35.8-23.2 24.9.2-2.7 79-46.6 94.9"/>
   <path d="m376.7 515.5c-8.8 10.3-18.3 17.1-29.1 17.5-8.3.2-14.1-2.4-17.4-6.4-5.9-7.2-4.1-19.1 4.8-28.7 4.8-5.6 11-11.4 17.2-17.9"/>
  </g>
 </g>
</svg>
