<svg height="210mm" viewBox="0 0 1052.4 744.1" width="297mm" xmlns="http://www.w3.org/2000/svg">
 <g fill="none" stroke-linecap="round">
  <g transform="translate(0 -308.26772)">
   <path d="m57.6 742.2h948.8" stroke="#969696" stroke-width="1.875"/>
   <g stroke="#000" stroke-dasharray="3.75 7.5" stroke-miterlimit="2" stroke-width=".9375">
    <path d="m58.3 844.1h948.8"/>
    <path d="m58.3 641.8h948.8"/>
    <path d="m58.3 540.6h948.8"/>
   </g>
  </g>
  <g stroke="#000" stroke-linejoin="round" stroke-width="5.625">
   <path d="m295.4 334.2c54.3-11 95.5-79.5 89.2-96.2-5.5-14.4-40.2 8.9-87.4 86.8-41.2 71.2-46.2 101.2-34.5 105.8 2.9 1.1 6.8.7 11.5-1 3.2-1.2 6.8-3 10.6-5.4 19.8-14 49.8-49.8 71.6-78.6"/>
   <path d="m349.4 347.9c13.7 8 36.9-24.8 50.7-43 3-3.9 5.5-7.1 7.2-9 19.9-23.1 65-13.3 41.5 15.7-27.4 33.8-46.8 50.9-39.4 63.9 1.9 3.3 6.2 4.5 11.5 4.2 7.6-.4 15.2-5.3 23.1-11.6"/>
   <path d="m356.4 336c.8.1 1.4.2 1.9.5.2.1.3.2.5.3.9.7 1.3 2 .8 4-1 3.9-5.4 6.1-7.5 6.9-4.3 1.6-7.6-2-5.1-5.9 1.6-2.4 4.2-5.1 7.4-5.7.2 0 .4-.1.7-.1s.5-.1.8-.1c.6 0 1.2.1 1.9.3"/>
   <path d="m558.8 431.4 119.1-146.1-43.5 95.3"/>
   <path d="m444 368.1c27.7-20.5 59.9-36.5 97-30.7 31.3 5.4 46.3 32.6 17.8 94"/>
   <path d="m634.4 380.6 30.6-45.3"/>
   <path d="m665 335.3c21.5-31 33-42.2 52.1-47.7 31.7-9 58.2 4.3 50.2 42.6"/>
  </g>
 </g>
</svg>
