<svg height="210mm" viewBox="0 0 1052.4 744.1" width="297mm" xmlns="http://www.w3.org/2000/svg">
 <g fill="none" stroke-linecap="round">
  <g transform="translate(0 -308.26772)">
   <path d="m57.6 742.2h948.8" stroke="#969696" stroke-width="1.875"/>
   <g stroke="#000" stroke-dasharray="3.75 7.5" stroke-miterlimit="2" stroke-width=".9375">
    <path d="m58.3 844.1h948.8"/>
    <path d="m58.3 641.8h948.8"/>
    <path d="m58.3 540.6h948.8"/>
   </g>
  </g>
  <g stroke="#000" stroke-linejoin="round" stroke-width="5.625">
   <path d="m240.4 430.9 244-94.5-56.5 94.5 172.5-37.4"/>
   <path d="m243.8 419.1c.8.1 1.4.2 1.9.5.2.1.3.2.5.3.9.7 1.3 2 .8 4-1 3.9-5.4 6.1-7.5 6.9-4.3 1.6-7.6-2-5.1-5.9 1.6-2.4 4.2-5.1 7.4-5.7.2 0 .4-.1.7-.1s.5-.1.8-.1c.6 0 1.2.1 1.9.3"/>
   <path d="m594.9 439.2c-32.5 22-71.6 74.4-63.5 89.5 4.9 9.2 28.4 7.7 48.3-24.3 8.5-13.7 17.7-31 19.9-61.8 5-69.6 41.1-122.1 68-104.4 7.6 5-5.8 26-24.9 38.1-9 5.7-27.9 13.7-42.3 17.3"/>
   <path d="m703.5 348.7c-9.5 7.8-106.7 89.1-108.6 90.4"/>
   <path d="m702.8 338.4c.7-.1 1.3-.2 1.8-.1.2 0 .3.1.5.1 1 .4 1.6 1.3 1.7 3.2.1 3.6-3 6.6-4.6 7.8-3.3 2.5-6.9.3-5.8-3.6.7-2.4 2.3-5.4 4.8-6.8.2-.1.3-.2.5-.3s.4-.2.7-.2c.5-.2 1.1-.3 1.7-.3"/>
   <path d="m700.8 350.8c14.7 6 33.4-6.1 47.6-15l18.2 44.1"/>
  </g>
 </g>
</svg>
