<svg height="210mm" viewBox="0 0 1052.4 744.1" width="297mm" xmlns="http://www.w3.org/2000/svg">
 <g fill="none" stroke-linecap="round">
  <g transform="translate(0 -308.26772)">
   <path d="m57.6 742.2h948.8" stroke="#969696" stroke-width="1.875"/>
   <g stroke="#000" stroke-dasharray="3.75 7.5" stroke-miterlimit="2" stroke-width=".9375">
    <path d="m58.3 844.1h948.8"/>
    <path d="m58.3 641.8h948.8"/>
    <path d="m58.3 540.6h948.8"/>
   </g>
  </g>
  <g stroke-width="5.625">
   <g stroke="#000">
    <path d="m643.6 336c.9.1 1.6.3 2.2.6l.6.3c1.1.8 1.5 2.3.9 4.6-1.2 4.5-6.2 7-8.6 7.9-5 1.8-8.7-2.3-5.8-6.7 1.8-2.8 4.9-5.8 8.5-6.6.2 0 .5-.1.7-.1.3 0 .6-.1.9-.1.7 0 1.4.1 2.1.3" stroke-linejoin="round"/>
    <path d="m640.6 348.5c-.4 1.3-281.5 75.3-281.5 75.3"/>
    <path d="m741.4 178.3-94.9 165"/>
   </g>
   <path d="m399 431c11.2-27.4-9.2-38.1-20.9-44.2-32.6-16.9-29.7-38.2-22.8-51.3" stroke="#120000" stroke-linejoin="round"/>
  </g>
 </g>
</svg>
