<svg height="210mm" viewBox="0 0 1052.4 744.1" width="297mm" xmlns="http://www.w3.org/2000/svg">
 <g fill="none" stroke-linecap="round">
  <g transform="translate(0 -308.26772)">
   <path d="m57.6 742.2h948.8" stroke="#969696" stroke-width="1.875"/>
   <g stroke="#000" stroke-dasharray="3.75 7.5" stroke-miterlimit="2" stroke-width=".9375">
    <path d="m58.3 844.1h948.8"/>
    <path d="m58.3 641.8h948.8"/>
    <path d="m58.3 540.6h948.8"/>
   </g>
  </g>
  <ellipse cx="23.092606" cy="535.2724" rx="25.728558" ry="20.371416" stroke="#000001" stroke-linejoin="round" stroke-width="5.625" transform="matrix(.79083574 -.61202846 .61202846 .79083574 0 0)"/>
  <g stroke="#000">
   <g stroke-width="5.625">
    <g stroke-linejoin="round">
     <path d="m356.9 483.1c16.8-.5 33-21.3 35-47.2 2.1-26.8 38.3-48.7 38.3-48.7l-81.1-.7"/>
     <path d="m411.7 402.3c-18.7 24.9-13 28.9-16.8 41.1-3.5 11.7-12.1 25.9-24.2 34.7"/>
     <path d="m408.8 405.4c-7.6 7.8-16.9 18.3-21 32.6-4.1 14.4-5.5 33.4-22.5 43.1"/>
     <path d="m356.9 483.1c-2.8.2-4.9-1.2-4.3-4.5 1.2-5.5 114.9-41.7 114.9-41.7l20 46.9"/>
     <path d="m566.1 403.2c11.8-10 23.3-22.4 42-23.6 15-1 26.5 10.5 8.9 32.3-27.4 33.8-122 152-101.9 163.9 25.4 15 69.5-71.3 74.6-80.8 0 0 14.9-33 7.3-41.2-12.8-13.7-38.3-1.1-40.8 9.8-3.4 14.9 10.9 15.5 26.5 9.8"/>
    </g>
    <path d="m622.4 404-69.5 100.3-39.9 60.8"/>
    <path d="m622.5 399.7c-45.1 45.4-76 100.9-107.6 155.9"/>
   </g>
   <g stroke-width="3.75">
    <path d="m518.7 546.9c-7.7 10.8-7.5 17.5-7.2 24.1"/>
    <path d="m521 576.5c-12.1-1.2-7-9.8-1.8-18.4"/>
    <path d="m609.4 412.2c9.1-10.3 17.8-18.4 13.6-26.5"/>
   </g>
   <g stroke-linejoin="round" stroke-width="5.625">
    <path d="m566.1 403.2c-12.5 11.8-61.5 63.1-78.5 80.6"/>
    <path d="m582.7 473.4c12.8-3 82.1-37.3 82.1-37.3"/>
    <path d="m664.8 436 20.6 47.3"/>
   </g>
  </g>
 </g>
</svg>
