<svg height="210mm" viewBox="0 0 1052.4 744.1" width="297mm" xmlns="http://www.w3.org/2000/svg">
 <g fill="none" stroke-linecap="round">
  <g transform="translate(0 -308.26772)">
   <path d="m57.6 742.2h948.8" stroke="#969696" stroke-width="1.875"/>
   <g stroke="#000" stroke-dasharray="3.75 7.5" stroke-miterlimit="2" stroke-width=".9375">
    <path d="m58.3 844.1h948.8"/>
    <path d="m58.3 641.8h948.8"/>
    <path d="m58.3 540.6h948.8"/>
   </g>
  </g>
  <g stroke-linejoin="round" stroke-width="5.625">
   <path d="m149.5 430.8c88.5-59.2 253.5-59.1 233.6-.2" stroke="#000"/>
   <path d="m383.2 430.6 164.1-197.4-111.2 198.5" stroke="#000"/>
   <path d="m436.1 431.6 57-39" stroke="#060000"/>
  </g>
  <g stroke="#000">
   <g stroke-linejoin="round">
    <path d="m493 392.7-18.7 38.8" stroke-width="5.31442"/>
    <path d="m498.7 395.2-18.5 36.2" stroke-width="4.472216"/>
    <path d="m502.5 392.5-18.7 38.8" stroke-width="5.31442"/>
    <path d="m495.4 393.3-18.5 36.2" stroke-width="4.472216"/>
    <g stroke-width="5.625">
     <path d="m502.3 392.5-9.2.2"/>
     <path d="m483.8 431.2-9.2.2"/>
     <path d="m483.8 431.3s133.6-155.7 166.7-180.8"/>
     <path d="m700.7 482.6c3.6-.3 7.1-1.8 10.4-3.8 5.1-3.1 12.3-10.3 16.5-14"/>
     <path d="m727.5 464.7c19.2-17.3 33-28.1 54.2-29 22.4-.8 35.9 15.9 26.2 47"/>
    </g>
   </g>
   <g stroke-width="5.625">
    <path d="m919 284.9-111.1 197.9"/>
    <g stroke-linejoin="round">
     <path d="m594 430.6c-68.2 12.8-5.9-149.9 79.8-196.1"/>
     <path d="m594 430.6c31.3-7.3 43-7.3 60.4 4.2 16.7 11 24.5 47.8 46.2 47.7"/>
    </g>
   </g>
  </g>
 </g>
</svg>
