<svg height="210mm" viewBox="0 0 1052.4 744.1" width="297mm" xmlns="http://www.w3.org/2000/svg">
 <g fill="none" stroke-linecap="round">
  <g stroke="#000" transform="translate(0 -308.26772)">
   <path d="m57.6 742.2h948.8" stroke-width="1.875"/>
   <g stroke-dasharray="3.75 7.5" stroke-miterlimit="2" stroke-width=".9375">
    <path d="m58.3 844.1h948.8"/>
    <path d="m58.3 641.8h948.8"/>
    <path d="m58.3 540.6h948.8"/>
   </g>
  </g>
  <g stroke="#00000c">
   <g stroke-linejoin="round" stroke-width="5.625">
    <path d="m469.9 409.3c14-11.2 32.2-26.1 32.2-26.1l33.3 47.9"/>
    <path d="m502.1 383.2 24 48"/>
    <path d="m511.6 383.3 23.8 47.9"/>
    <path d="m507.7 383.1 24 48"/>
   </g>
   <g stroke-width="3.75">
    <path d="m504.4 382.2h7.1"/>
    <path d="m527.8 432.1h7.1"/>
   </g>
  </g>
  <g stroke="#000" stroke-linejoin="round" stroke-width="5.625">
   <path d="m460.9 334.7c54.3-11 95.5-79.5 89.2-96.2-5.5-14.4-40.3 8.9-87.4 86.8-69.6 120.2-36 123.1 7.3 84"/>
   <path d="m535.4 431.1s62-29.4 78.8-30.3c16-.6 20.2 31 31.2 30.7 7.2-.2 12.4-7.6 16.7-13"/>
  </g>
 </g>
</svg>
