<svg height="210mm" viewBox="0 0 1052.4 744.1" width="297mm" xmlns="http://www.w3.org/2000/svg">
 <g fill="none" stroke-linecap="round">
  <g transform="translate(0 -308.26772)">
   <path d="m57.6 742.2h948.8" stroke="#969696" stroke-width="1.875"/>
   <g stroke="#000" stroke-dasharray="3.75 7.5" stroke-miterlimit="2" stroke-width=".9375">
    <path d="m58.3 844.1h948.8"/>
    <path d="m58.3 641.8h948.8"/>
    <path d="m58.3 540.6h948.8"/>
   </g>
  </g>
  <g stroke="#000" stroke-linejoin="round" stroke-width="5.625">
   <path d="m460.6 431.3c23-33.7 36.5-57.4 70.1-107.4 19.9-29.6 38.5-59.2 55.1-75.7 8.6-8.6 16.9-13.8 27.8-13.2 5 .5 8.7 2.3 11.3 4.7 2.9 2.7 4.4 6.3 4.7 10.6.3 4.5-.7 9.7-2.8 15.2-2 5.2-4.9 10.7-8.5 16.2 0 0-59.7 97.2-64.2 104.2-4.4 7-12.7 24.5-7.3 34.4 9.6 16.3 38.5 12.3 53.5 1.1"/>
   <path d="m612.3 393.5a17.4 22.8 41.6 0 1 -13 28.5 17.4 22.8 41.6 0 1 -25.1-6.2 17.4 22.8 41.6 0 1 13-28.5 17.4 22.8 41.6 0 1 25.1 6.2z"/>
   <path d="m440.1 385 20.5 46.3"/>
  </g>
 </g>
</svg>
