<svg height="210mm" viewBox="0 0 1052.4 744.1" width="297mm" xmlns="http://www.w3.org/2000/svg">
 <g fill="none" stroke-linecap="round">
  <g transform="translate(0 -308.26772)">
   <path d="m57.6 742.2h948.8" stroke="#969696" stroke-width="1.875"/>
   <g stroke="#000" stroke-dasharray="3.75 7.5" stroke-miterlimit="2" stroke-width=".9375">
    <path d="m58.3 844.1h948.8"/>
    <path d="m58.3 641.8h948.8"/>
    <path d="m58.3 540.6h948.8"/>
   </g>
  </g>
  <g stroke="#000" stroke-linejoin="round">
   <g stroke-width="5.625">
    <path d="m384.9 431.2 98.2-47.8"/>
    <path d="m483.1 383.4 23.8 47.9"/>
    <path d="m375 359.6c12-15.3 23.3-23.6 35.4-23.7s19.6 7.8 8.6 30.8c-10.1 21.3-34.1 64.5-34.1 64.5"/>
   </g>
   <path d="m506.9 431.3s90.6-164.8 93.3-168.5c6.4-9.6 16.2-28.7 33.8-27.3 13 2.6 16.3 36 29.6 36.9 10.7.7 16.3-8.2 27.7-18.5" stroke-width="5.62496"/>
   <path d="m691.3 253.8 18.7-18.9 23.7 39.2" stroke-width="5.625"/>
  </g>
 </g>
</svg>
