<svg height="210mm" viewBox="0 0 1052.4 744.1" width="297mm" xmlns="http://www.w3.org/2000/svg">
 <g fill="none" stroke-linecap="round">
  <g transform="translate(0 -308.26772)">
   <path d="m57.6 742.2h948.8" stroke="#969696" stroke-width="1.875"/>
   <g stroke="#000" stroke-dasharray="3.75 7.5" stroke-miterlimit="2" stroke-width=".9375">
    <path d="m58.3 844.1h948.8"/>
    <path d="m58.3 641.8h948.8"/>
    <path d="m58.3 540.6h948.8"/>
   </g>
  </g>
  <g stroke="#000" stroke-linejoin="round">
   <g stroke-width="5.625">
    <path d="m414.9 428.1c-41.9 12.6-70.3 23-98.4 52.7-20.7 21.8-18.6 36.4-8.7 45.6 3.8 3.5 25.2 25.3 68.7-35.7 26.9-36.9 53.3-82.6 66.3-120.4 6.2-17.6-.1-33.5-12.6-34.4-9.2-.7-25.6 7.9-44.5 35.1"/>
    <path d="m414.9 428.1c31.8-11.3 76.1-34.7 96.2-31 20.2 3.8 18.7 54.1 53.5 25.2"/>
    <path d="m487.3 400.1c6.7-1.8 10.3-2.2 15.3-.8 6.4 1.8 13.4 9.3 18.5 20.6 4.3 9.4 8.7 11.2 14.5 11.5 3 .1 7.6 0 10.4 0"/>
   </g>
   <path d="m505.6 400c7.8 4.9 8.8 2 26.1 28.6" stroke-width="6.587558"/>
   <g stroke-width="5.625">
    <path d="m596.2 433c-52.8 22.2-107.3 83.2-81.8 98.7 9.9 5.5 23.1-1.1 49.3-43.2l89.2-152.4"/>
    <path d="m653 336.1s-73.8 74.8-88.4 86.2"/>
   </g>
  </g>
 </g>
</svg>
