<svg height="210mm" viewBox="0 0 1052.4 744.1" width="297mm" xmlns="http://www.w3.org/2000/svg">
 <g fill="none" stroke-linecap="round">
  <g transform="translate(0 -308.26772)">
   <path d="m57.6 742.2h948.8" stroke="#969696" stroke-width="1.875"/>
   <g stroke="#000" stroke-dasharray="3.75 7.5" stroke-miterlimit="2" stroke-width=".9375">
    <path d="m58.3 844.1h948.8"/>
    <path d="m58.3 641.8h948.8"/>
    <path d="m58.3 540.6h948.8"/>
   </g>
  </g>
  <g stroke="#000">
   <g stroke-linejoin="round">
    <path d="m659.9 311.6-38.4 71.8" stroke-width="5.624999"/>
    <path d="m644.6 343.3-19.4 39.7" stroke-width="3.749999"/>
    <path d="m621.5 383.4 7.9.2" stroke-width="5.624999"/>
   </g>
   <path d="m654.4 289.3c11.1-.7 10.4 11.9 2 27" stroke-width="3.749999"/>
   <g stroke-linejoin="round">
    <path d="m525.2 333.2c54.3-11 97.7-78.3 91.4-95-5.5-14.4-40.3 8.9-87.4 86.8-44.1 76.2-46.6 105.2-21.4 106.6 16.1.9 34.3-19.3 55.2-48.7 26.6-37.3 58.4-91.4 88-94.5 1.6-.1 3.3-.1 5.1.1 7 .3 9.9 7 9.7 12-.3 6.8-3.7 16.8-10.6 30.8l-25.6 52.3" stroke-width="5.625"/>
    <path d="m783.9 187.5-154.5 196.1" stroke-width="5.624999"/>
    <path d="m312.8 488.5c-4.8 10.9-6.6 21.5-4.3 28.8 2.5 8.1 9.6 12.5 18.6 14.6 9.8 2.2 19.5-1.6 29.3-10.3 7.7-6.8 13.4-12.9 19.2-19.8 32.4-38.9 64.2-77.4 94-116" stroke-width="5.625"/>
   </g>
   <path d="m469.6 385.7-76.3 146.6" stroke-width="5.625"/>
  </g>
 </g>
</svg>
