<svg height="210mm" viewBox="0 0 1052.4 744.1" width="297mm" xmlns="http://www.w3.org/2000/svg">
 <g fill="none" stroke-linecap="round">
  <g transform="translate(0 -308.26772)">
   <path d="m57.6 742.2h948.8" stroke="#969696" stroke-width="1.875"/>
   <g stroke="#000" stroke-dasharray="3.75 7.5" stroke-miterlimit="2" stroke-width=".9375">
    <path d="m58.3 844.1h948.8"/>
    <path d="m58.3 641.8h948.8"/>
    <path d="m58.3 540.6h948.8"/>
   </g>
  </g>
  <g stroke="#000" stroke-linejoin="round">
   <g stroke-width="5.625">
    <path d="m386.7 415.2c-5.5 7.7-12.8 14.6-25.3 15.4s-24.1-21.6-42.1-22.3c-18.2-.4-20.1 21.6-3.5 22.4 8.5.4 19.6-3.7 43.1-42.5 45-73.7-8-54.1-28.4-32.3"/>
    <path d="m437.2 331.6-50.5 83.6"/>
    <path d="m437.2 331.6s42.2-66.4 45-70.2c9-12.3 17.2-27.3 34.4-27.3 17.5 0 13.4 62.7 48.7 23.5"/>
    <path d="m657.6 236.5c18.8-4.2 35.4 4.3 18.4 25.3-27.4 33.8-45.5 50.2-39.4 63.9 6 13.7 39.8-.4 52.1-17.9"/>
   </g>
   <path d="m657.6 236.5c-5 1-76.1 36.3-74.4 44.7.7 3.4 2.1 2.4 4.2 2.6 3 .3 7.7-1 11-5 28.6-29.3 63.2-92.7 33.5-90.5-11.7.9-21.5 10.5-31.4 23.6" stroke-width="5.419139"/>
   <path d="m600.6 212c-10.7 14-22.7 30.8-35.3 45.7" stroke-width="5.625"/>
  </g>
 </g>
</svg>
