<svg height="210mm" viewBox="0 0 1052.4 744.1" width="297mm" xmlns="http://www.w3.org/2000/svg">
 <g fill="none" stroke-linecap="round">
  <g transform="translate(0 -308.26772)">
   <path d="m57.6 742.2h948.8" stroke="#969696" stroke-width="1.875"/>
   <g stroke="#000" stroke-dasharray="3.75 7.5" stroke-miterlimit="2" stroke-width=".9375">
    <path d="m58.3 844.1h948.8"/>
    <path d="m58.3 641.8h948.8"/>
    <path d="m58.3 540.6h948.8"/>
   </g>
  </g>
  <g stroke="#000">
   <path d="m384.7 431.6c29.3-.6 76.2-34.5 96.7-34 16.7.5 18.4 33.9 36.3 34.1" stroke-linejoin="round" stroke-width="5.624999"/>
   <path d="m648.4 250.2s-66.3 124.6-92.9 156.6c-10.4 12.4-24.1 25.7-37.9 24.8" stroke-width="5.624999"/>
   <g stroke-linejoin="round">
    <path d="m303 336.1c-7.4 14.6-20.8 40.3-35.1 72.9-6.1 14 1.8 23.1 15 23 4.5-.1 8.8-1.1 12.8-2.8 5.6-2.3 10.8-5.8 15.8-10.2 20.3-18.2 39-44.3 55.8-63.7 7.2-8.1 16.6-17.5 30.7-19.2 3.2-.4 6.7 0 9.3.9 2.7.9 4.9 2.5 6.4 4.6 3.6 5.1 3 13.2-5 22.8-6 7.3-11.8 13.6-17 19.3-5.3 5.7-11.2 12.1-17.3 19.5-8 9.7-8.6 17.8-5 22.8 1.5 2.1 3.7 3.7 6.4 4.6 2.6.9 5.6 1 8.8.8" stroke-width="5.624999"/>
    <ellipse cx="639.00531" cy="-260.57538" rx="4.609393" ry="6.862874" stroke-width="5.625" transform="matrix(.72846687 .68508103 -.68508103 .72846687 0 0)"/>
    <path d="m639.6 253.2c7 4.2 17 8.3 26.7 8.2 29-.3 47.6-27.3 72.1-27 19.9.2 16.4 30.7 34.5 30.7 8.7 0 14.1-5.3 19.4-11.5" stroke-width="5.625001"/>
   </g>
  </g>
 </g>
</svg>
