<svg height="210mm" viewBox="0 0 1052.4 744.1" width="297mm" xmlns="http://www.w3.org/2000/svg">
 <g fill="none" stroke-linecap="round">
  <g transform="translate(0 -308.26772)">
   <path d="m57.6 742.2h948.8" stroke="#969696" stroke-width="1.875"/>
   <g stroke="#000" stroke-dasharray="3.75 7.5" stroke-miterlimit="2" stroke-width=".9375">
    <path d="m58.3 844.1h948.8"/>
    <path d="m58.3 641.8h948.8"/>
    <path d="m58.3 540.6h948.8"/>
   </g>
  </g>
  <g stroke="#000" stroke-width="5.625">
   <g stroke-linejoin="round">
    <path d="m466.6 337.5c-56.6 14.8-104.6 143.3-14.6 74.3"/>
    <path d="m452.1 411.8c18.8-15.6 57.7-61.6 79.8-89.4"/>
    <path d="m555.6 298c14.5-9.5 102.6-65.6 128.8-63.9 21.6.4 38.8 48.3 58.9 48.7 13.9.3 16-5 27.2-12.5"/>
    <ellipse cx="357.4834" cy="569.54803" rx="62.130169" ry="44.633743" transform="matrix(.88109295 -.47294313 .47294313 .88109295 0 0)"/>
   </g>
   <path d="m440.8 351.7c-48.1 33.6-133.1 181.8-133.1 181.8"/>
  </g>
 </g>
</svg>
