<svg height="210mm" viewBox="0 0 1052.4 744.1" width="297mm" xmlns="http://www.w3.org/2000/svg">
 <g fill="none" stroke-linecap="round">
  <g transform="translate(0 -308.26772)">
   <path d="m57.6 742.2h948.8" stroke="#969696" stroke-width="1.875"/>
   <g stroke="#000" stroke-dasharray="3.75 7.5" stroke-miterlimit="2" stroke-width=".9375">
    <path d="m58.3 844.1h948.8"/>
    <path d="m58.3 641.8h948.8"/>
    <path d="m58.3 540.6h948.8"/>
   </g>
  </g>
  <g stroke-linejoin="round">
   <path d="m511.2 235.1s-42.5 79.8-60.8 107.6c-23 34.9-52 72.9-91.2 88.5" stroke="#000" stroke-width="5.625001"/>
   <path d="m359.2 431.1c-14.1 2.4 81.4-62.7 109.3-81.9 6.7-4.6 12.6-7.7 17.2-9.8 5.1-2.2 10.1-3.1 11.8-3.2 2.4-.2 3.3-.1 5.1.1 7 .3 9.9 7 9.7 12-.3 6.8-3.7 16.8-10.6 30.8l-25.6 52.3" stroke="#0c0000" stroke-width="5.624999"/>
   <g stroke="#000">
    <path d="m506.5 359.4-38.4 71.8" stroke-width="5.624999"/>
    <path d="m491.2 391-19.4 39.7" stroke-width="3.749999"/>
    <path d="m468.1 431.2 7.9.2" stroke-width="5.624999"/>
   </g>
  </g>
  <path d="m501 337.1c11.2-.7 10.4 11.9 2 27" stroke="#000" stroke-width="3.749999"/>
  <path d="m490.3 338.7c7.7-2.5 14.8-1.4 17 3.3 3.6 7.7-5.8 23.5-11 34.6" stroke="#080000" stroke-width="3.75"/>
  <path d="m476 431.4c46.8-20.6 86.2-43.5 105-57.4 25.1-18.5 24.8-29.4 21.2-34.8-5.5-8.2-34.4-4.4-53 33.3-18.3 41.3-13.3 59.3-2.8 59 13-.3 24.4-9.2 31.2-16" stroke="#000" stroke-linejoin="round" stroke-width="5.625"/>
 </g>
</svg>
