<svg height="210mm" viewBox="0 0 1052.4 744.1" width="297mm" xmlns="http://www.w3.org/2000/svg">
 <g fill="none" stroke-linecap="round">
  <g transform="translate(0 -308.26772)">
   <path d="m57.6 742.2h948.8" stroke="#969696" stroke-width="1.875"/>
   <g stroke="#000" stroke-dasharray="3.75 7.5" stroke-miterlimit="2" stroke-width=".9375">
    <path d="m58.3 844.1h948.8"/>
    <path d="m58.3 641.8h948.8"/>
    <path d="m58.3 540.6h948.8"/>
   </g>
  </g>
  <g stroke-linejoin="round">
   <path d="m490.4 424.8c-6.4 4.6-17.3 6-22.7 6.1l-58.2.1" stroke="#02000c" stroke-width="5.625"/>
   <g stroke="#000">
    <path d="m409.5 431c56.7-20.6 86.2-145 10.8-71" stroke-width="5.419139"/>
    <g stroke-width="5.625">
     <path d="m490.4 424.8c26-18.3 97.5-79.1 129.2-113.4 33.9-36.6 57.3-70.4 40.8-76.1-14.6-5-40.2 8.9-87.4 86.8-47.9 82.8-43.8 112.1-22.4 109.2"/>
     <path d="m480.3 419c.7.1 1.3.2 1.8.5.2.1.3.2.4.3.9.7 1.2 1.8.7 3.6-.9 3.5-4.9 5.6-6.8 6.3-3.9 1.4-6.9-1.8-4.6-5.3 1.4-2.2 3.8-4.6 6.7-5.2.2-.1.4-.1.6-.1s.5-.1.7-.1c.6 0 1.1.1 1.7.2"/>
     <path d="m550.6 431.3c15.4-1.5 60.5-30 77.3-30.8 16-.6 17.8 30.3 32.6 30.7 9.4.3 14.3-5.2 20.5-11.1"/>
    </g>
   </g>
  </g>
 </g>
</svg>
