<svg height="210mm" viewBox="0 0 1052.4 744.1" width="297mm" xmlns="http://www.w3.org/2000/svg">
 <g fill="none" stroke-linecap="round">
  <g transform="translate(0 -308.26772)">
   <path d="m57.6 742.2h948.8" stroke="#969696" stroke-width="1.875"/>
   <g stroke="#000" stroke-dasharray="3.75 7.5" stroke-miterlimit="2" stroke-width=".9375">
    <path d="m58.3 844.1h948.8"/>
    <path d="m58.3 641.8h948.8"/>
    <path d="m58.3 540.6h948.8"/>
   </g>
  </g>
  <g stroke-linejoin="round">
   <g stroke-width="5.625">
    <path d="m279.6 431s19.8-30.4 40.1-30.1c26-.8 18.5 30.4 39.6 29.9 29.6 1.4 45.1-24.6 54.3-39.9" stroke="#000"/>
    <path d="m486.5 393.7c10.4-3.4 19.5-5.8 25.2-7.3 28.6-7.3 48.4 9.4 37.1 45.4l81.9-72" stroke="#000"/>
    <path d="m630.8 359.8c35.3-38 73.3-25.6 45.9 8.2s-122 152-101.9 163.9c25.4 15 69.5-71.3 74.6-80.8 0 0 14.9-33 7.3-41.2-12.8-13.7-38.3-1.1-40.8 9.8-5.2 22.6 30.5 12.3 49.6-2.8 5.3-4.2 24-19.7 24-19.7" stroke="#000400"/>
   </g>
   <g stroke="#000">
    <path d="m486.5 393.7c-11.4 3.7-54.7 20.2-59.6 21.5-5.2 1.4-10 9-10 11.6 0 3.7-.1 5 4.9 5.5 3 .3 9.7-4.2 11-5 48.9-28 71.8-129.3 9.4-73.8-2.3 2.1-20.9 23.5-28.8 37.4" stroke-width="5.419139"/>
    <g stroke-width="5.638243">
     <path d="m474 340.8c2.3 32.7-17.1 62.2-38.1 82.5"/>
     <path d="m476.6 343.1c5.2 34.8-19.9 69.4-45 83.3"/>
     <path d="m469.3 339.5c3.6 34.1-21.2 69-37.7 86.9"/>
    </g>
    <path d="m461.9 339.2c7.9-3.1 5.9 10.5 5.9 15.8" stroke-width="2.819121"/>
    <path d="m438.1 416.7c-5.5 6.9-8.3 10.7-14.3 14.1" stroke-width="2.819121"/>
    <path d="m689.5 397.2 17.2-14.2 19.4 47.9" stroke-width="5.625"/>
   </g>
  </g>
 </g>
</svg>
