<svg height="210mm" viewBox="0 0 1052.4 744.1" width="297mm" xmlns="http://www.w3.org/2000/svg">
 <g fill="none" stroke-linecap="round">
  <g transform="translate(0 -308.26772)">
   <path d="m57.6 742.2h948.8" stroke="#969696" stroke-width="1.875"/>
   <g stroke="#000" stroke-dasharray="3.75 7.5" stroke-miterlimit="2" stroke-width=".9375">
    <path d="m58.3 844.1h948.8"/>
    <path d="m58.3 641.8h948.8"/>
    <path d="m58.3 540.6h948.8"/>
   </g>
  </g>
  <g stroke="#000" stroke-linejoin="round" stroke-width="5.625">
   <path d="m233.2 431.5 60.6-109.1c26.4-48.6 52-72.9 91.2-88.5"/>
   <path d="m233.2 431.5s371.8-195.1 389.9-198.1"/>
   <path d="m507.1 431.5c-46.3-.5 44.8-134.7 84.6-177.4 8.3-8.9 19.3-17.3 31.4-20.8"/>
   <path d="m869.5 403c-35.2 18.2-78.7 27.1-109.1 27.8-42.5 1-77.1-8.4-85.5-34.7"/>
   <path d="m872.9 391.7c.8.1 1.4.2 1.9.5.2.1.3.2.5.3.9.7 1.3 2 .8 4-1 3.9-5.4 6.1-7.5 6.9-4.3 1.6-7.6-2-5.1-5.9 1.6-2.4 4.2-5.1 7.4-5.7.2 0 .4-.1.7-.1s.5-.1.8-.1c.6 0 1.2.1 1.9.3"/>
   <path d="m507.1 431.5c15.8.5 68.4-30.2 85.2-31 16-.6 15 30.6 36.3 30.7 17.6.1 32.9-17.9 46.2-35.2"/>
  </g>
 </g>
</svg>
