<svg height="210mm" viewBox="0 0 1052.4 744.1" width="297mm" xmlns="http://www.w3.org/2000/svg">
 <g fill="none" stroke-linecap="round">
  <g transform="translate(0 -308.26772)">
   <path d="m57.6 742.2h948.8" stroke="#969696" stroke-width="1.875"/>
   <g stroke="#000" stroke-dasharray="3.75 7.5" stroke-miterlimit="2" stroke-width=".9375">
    <path d="m58.3 844.1h948.8"/>
    <path d="m58.3 641.8h948.8"/>
    <path d="m58.3 540.6h948.8"/>
   </g>
  </g>
  <g stroke-linejoin="round">
   <ellipse cx="159.72104" cy="640.90735" rx="25.94458" ry="20.542459" stroke="#000701" stroke-width="5.625" transform="matrix(.79083574 -.61202846 .61202846 .79083574 0 0)"/>
   <path d="m500.6 397.9c-3 3.1-8.4 9.3-13.5 13.6-9.2 7.8-17.9 13.2-26.1 16.3-28.4 10.7-47.9-6.2-38.6-37.9" stroke="#000" stroke-width="5.624959"/>
   <g stroke-width="5.625">
    <path d="m618 382.5-55.8 97.2" stroke="#00000c"/>
    <path d="m618 382.5h-10.6" stroke="#00000a"/>
    <path d="m612.5 382.6-55.8 97.2" stroke="#00000c"/>
    <path d="m562.2 479.8h-10.6" stroke="#00000c"/>
    <path d="m522.4 386.2 85-3.6-55.8 97.2 11-.1" stroke="#000"/>
   </g>
  </g>
 </g>
</svg>
