<svg height="210mm" viewBox="0 0 1052.4 744.1" width="297mm" xmlns="http://www.w3.org/2000/svg">
 <g fill="none" stroke-linecap="round">
  <g transform="translate(0 -308.26772)">
   <path d="m57.6 742.2h948.8" stroke="#969696" stroke-width="1.875"/>
   <g stroke="#000" stroke-dasharray="3.75 7.5" stroke-miterlimit="2" stroke-width=".9375">
    <path d="m58.3 844.1h948.8"/>
    <path d="m58.3 641.8h948.8"/>
    <path d="m58.3 540.6h948.8"/>
   </g>
  </g>
  <g stroke="#000" stroke-linejoin="round">
   <path d="m405.4 431.2c5.5 1.3 26.2 2.7 33.7.7" stroke-width="5.625"/>
   <path d="m403.6 431c-10-.2-33.1-.6-40.7-.4-38.1 1.3-51 8.5-78.8 28.4-29.7 21.4-61.4 52-55.9 68.8.9 3 16.3 22.9 59.8-38.1 26.9-36.9 54.6-73.4 69.3-116.4 7.7-23 5.5-36.8-7.5-36.3-8.1.3-20.4 7.4-36.9 24.8" stroke-width="5.624999"/>
   <ellipse cx="565.04395" cy="41.775799" rx="5.271424" ry="7.848564" stroke-width="14.034715" transform="matrix(.72846687 .68508103 -.68508103 .72846687 0 0)"/>
   <g stroke-width="5.625">
    <ellipse cx="588.21356" cy="30.62888" rx="4.609393" ry="6.862875" transform="matrix(.72846687 .68508103 -.68508103 .72846687 0 0)"/>
    <ellipse cx="612.7547" cy="8.270027" rx="4.609393" ry="6.862875" transform="matrix(.72846687 .68508103 -.68508103 .72846687 0 0)"/>
    <path d="m440.9 431.2s273.5-146.9 358.5-185.4c11.5-5.2 18.6-8 23.1-9.1 3.5-.8 6.6-1.1 9.3-1.1 7.2.1 11.8 3 14.2 8 7.2 15.3-6.2 50.9-28.6 90.5-26.3 44.8-62.9 88.9-90.3 97.3"/>
   </g>
  </g>
 </g>
</svg>
