<svg height="210mm" viewBox="0 0 1052.4 744.1" width="297mm" xmlns="http://www.w3.org/2000/svg">
 <g fill="none" stroke-linecap="round">
  <g transform="translate(0 -308.26772)">
   <path d="m57.6 742.2h948.8" stroke="#969696" stroke-width="1.875"/>
   <g stroke="#000" stroke-dasharray="3.75 7.5" stroke-miterlimit="2" stroke-width=".9375">
    <path d="m58.3 844.1h948.8"/>
    <path d="m58.3 641.8h948.8"/>
    <path d="m58.3 540.6h948.8"/>
   </g>
  </g>
  <g stroke="#000001">
   <g stroke-linejoin="round">
    <path d="m445.6 406.7c3.3-2.1 6.6-4 9.7-5.7 1.8-1 3.7-2 5.5-2.9 48.7-24.7 79-10.7 66.9 32.4l26.2-22.4" stroke-width="5.625"/>
    <path d="m518.4 392.3c7.1 5.9 8.1 27.1 3.2 37.8" stroke-width="6.5625"/>
    <path d="m505.8 385.9c16.4 3.3 16.8 35.2 10.1 45.2" stroke-width="4.6875"/>
   </g>
   <path d="m516.6 431.2 9.8.1" stroke-width="5.625"/>
  </g>
  <g stroke="#000">
   <g stroke-linejoin="round" stroke-width="5.625">
    <path d="m346.9 411 30.5-26.9 33.3 47.9c11.9-8.9 23.9-18.4 34.9-25.2"/>
    <path d="m377.4 384.1 24 48"/>
    <path d="m386.9 384.1 23.8 47.9"/>
    <path d="m382.9 383.9 24 48"/>
   </g>
   <path d="m377.2 383.1 9.5-.1" stroke-width="3.75"/>
   <path d="m403.1 432.9h7.1" stroke-width="3.75"/>
   <g stroke-linejoin="round">
    <path d="m601.6 441.7 19.7-4.2c1.1-.2-23 44-23 44" stroke-width="5.625"/>
    <g stroke-width="4.999041">
     <path d="m627.5 440-22.5 41.4"/>
     <path d="m609 481.3-10.6.2"/>
     <path d="m633.6 437.2-24.6 44"/>
     <path d="m633.6 437.2-12.5-.1"/>
     <path d="m625.9 438.3-22.5 41.4"/>
    </g>
    <g stroke-width="5.625">
     <path d="m553.9 408.1 128.5-125.2c-20.1 38.1-40.7 78.7-59.1 108.4-24.8 39-71.8 92-92.5 92.5 0 0-6.8-.2-7.6-5.2-.9-5.3 13.4-24.4 38.8-28.6 0 0 34.8-8 39.6-8.4"/>
     <path d="m288.4 358.7c15.9-32 75.6-30.6 48.2 3.3-27.4 33.8-47.1 52.6-39.4 63.9 9 13.2 36.1 1.2 49.7-14.9"/>
    </g>
   </g>
  </g>
 </g>
</svg>
