<svg height="210mm" viewBox="0 0 1052.4 744.1" width="297mm" xmlns="http://www.w3.org/2000/svg">
 <g fill="none" stroke-linecap="round">
  <g stroke="#969696" transform="translate(0 -308.26772)">
   <path d="m57.6 742.2h948.8" stroke-width="1.875"/>
   <g stroke-dasharray="3.75 7.5" stroke-miterlimit="2" stroke-width=".9375">
    <path d="m58.3 844.1h948.8"/>
    <path d="m58.3 641.8h948.8"/>
    <path d="m58.3 540.6h948.8"/>
   </g>
  </g>
  <g stroke="#000">
   <g stroke-linejoin="round">
    <path d="m473.9 235.1s-42.5 79.8-60.8 107.6c-23 34.9-52 72.9-91.2 88.5" stroke-width="5.625001"/>
    <g stroke-width="5.625">
     <path d="m321.9 431.1c-2.7 1-4.6-1.9-3.2-3.8 4.3-6 118.3-87.6 135.9-101.4 16.1-12.7 53.1-40.5 77.2-42.3 23.4-.2 35.6 20.7 45 42.9 10.5 24.8 17.6 51.3 33 51.8 2.6.2 5.1-.2 7.7-.9 11.1-3.2 43.6-19.3 87-40.8"/>
     <path d="m534.9 283.7c12.6.1 28 16.8 38.6 46.9 9.1 25.7 19 48.7 38.4 47.7"/>
     <path d="m538.8 284.2c16.2 2.5 31.7 14.4 43.2 44.1 9.2 23.9 10.5 44 22.6 48.8"/>
     <path d="m704.4 336.6 22.1 47.1"/>
    </g>
   </g>
   <path d="m791.8 336.5-65.3 47.3" stroke-width="5.625001"/>
  </g>
 </g>
</svg>
