<svg height="210mm" viewBox="0 0 1052.4 744.1" width="297mm" xmlns="http://www.w3.org/2000/svg">
 <g fill="none" stroke-linecap="round">
  <g transform="translate(0 -308.26772)">
   <path d="m57.6 742.2h948.8" stroke="#969696" stroke-width="1.875"/>
   <g stroke="#000" stroke-dasharray="3.75 7.5" stroke-miterlimit="2" stroke-width=".9375">
    <path d="m58.3 844.1h948.8"/>
    <path d="m58.3 641.8h948.8"/>
    <path d="m58.3 540.6h948.8"/>
   </g>
  </g>
  <g stroke="#000" stroke-linejoin="round">
   <path d="m301.1 435c-22.9 5.5-106.1 66-97.4 92.3.9 3 16.3 22.9 59.8-38.1 26.9-36.9 54.6-73.4 69.3-116.4 7.7-23 5.5-36.8-7.5-36.3-8.1.3-20.4 7.4-36.9 24.8" stroke-width="5.624999"/>
   <g stroke-width="5.625">
    <path d="m301.1 435c8.3-2.6 24-4.7 69.5-11.9 71.5-11.4 171-22.7 171-22.7"/>
    <path d="m541.6 400.4c1.8-.2 3.5-.1 5 .1 15 2.8 17 31.2 33.9 31.2 24.5-.1 52.6-27.2 76.6-45.7 30.7-23.6 63.1-49 77.4-61.9 40.4-36.3 64.1-73.2 57-85.5-7.8-13.3-44.8 9.3-82.2 88.2l-51.8 104.3"/>
    <path d="m810.1 346.2a19.2 25.1 41.6 0 1 -14.3 31.3 19.2 25.1 41.6 0 1 -27.6-6.8 19.2 25.1 41.6 0 1 14.3-31.3 19.2 25.1 41.6 0 1 27.6 6.8z"/>
    <path d="m657.4 431.1 121.4-89.4"/>
   </g>
   <path d="m875.1 200.5-102.1 147.1" stroke-width="5.624999"/>
  </g>
 </g>
</svg>
