<svg height="210mm" viewBox="0 0 1052.4 744.1" width="297mm" xmlns="http://www.w3.org/2000/svg">
 <g fill="none" stroke-linecap="round">
  <g transform="translate(0 -308.26772)">
   <path d="m57.6 742.2h948.8" stroke="#969696" stroke-width="1.875"/>
   <g stroke="#000" stroke-dasharray="3.75 7.5" stroke-miterlimit="2" stroke-width=".9375">
    <path d="m58.3 844.1h948.8"/>
    <path d="m58.3 641.8h948.8"/>
    <path d="m58.3 540.6h948.8"/>
   </g>
  </g>
  <g stroke="#000" stroke-linejoin="round">
   <ellipse cx="655.36224" cy="-42.772865" rx="4.609393" ry="6.862875" stroke-width="5.625" transform="matrix(.72846687 .68508103 -.68508103 .72846687 0 0)"/>
   <path d="m643.2 285.6c-78.3 93.7-118.4 134-136.9 137.9" stroke-width="5.625003"/>
   <path d="m378.8 390.9c-7.7 26.5 7.5 41.3 29.9 40.4 17.7-.7 39.8-11.4 58.6-33.9 8.5-9.5 19.8-26 28.6-37.2 12-15.3 23.3-23.6 35.4-23.7s19.6 7.8 8.6 30.8c-10.1 21.3-34.1 64.5-34.1 64.5" stroke-width="5.625"/>
   <g stroke-width="5.624999">
    <path d="m651.4 285.6-46.6 95.4"/>
    <path d="m651.4 285.6h-8.2"/>
    <path d="m647.6 286.4-45.7 93.9"/>
    <path d="m604.9 381h-8.2"/>
    <path d="m643.2 285.6-46.6 95.4"/>
   </g>
  </g>
 </g>
</svg>
