<svg height="210mm" viewBox="0 0 1052.4 744.1" width="297mm" xmlns="http://www.w3.org/2000/svg">
 <g fill="none" stroke-linecap="round">
  <g stroke="#969696" transform="translate(0 -308.26772)">
   <path d="m57.6 742.2h948.8" stroke-width="1.875"/>
   <g stroke-dasharray="3.75 7.5" stroke-miterlimit="2" stroke-width=".9375">
    <path d="m58.3 844.1h948.8"/>
    <path d="m58.3 641.8h948.8"/>
    <path d="m58.3 540.6h948.8"/>
   </g>
  </g>
  <g stroke="#000" stroke-linejoin="round" stroke-width="5.625">
   <path d="m352.5 431.8s21.2.5 23.4-.7"/>
   <path d="m332 385.4 20.5 46.3"/>
   <path d="m375.9 431.1c15.4-1.2 27.7-10.8 109.7-95l-39 72.4c-7.5 13.9 2.4 23.8 16.4 23 23.7-1.4 34.1-25.7 51.2-25.8 16 0 21.6 25.8 35.4 25.5 12.1-.3 20.8-12.4 29.9-23.5 7.5-9.1 56.2-75.9 64-87.4"/>
   <ellipse cx="565.90778" cy="51.367329" rx="4.609393" ry="6.862875" transform="matrix(.72846687 .68508103 -.68508103 .72846687 0 0)"/>
   <ellipse cx="451.38956" cy="621.2984" rx="60.146576" ry="43.208752" transform="matrix(.88109295 -.47294313 .47294313 .88109295 0 0)"/>
   <path d="m662.1 301.4 102.3-66.5"/>
  </g>
 </g>
</svg>
