<svg height="210mm" viewBox="0 0 1052.4 744.1" width="297mm" xmlns="http://www.w3.org/2000/svg">
 <g fill="none" stroke-linecap="round">
  <g transform="translate(0 -308.26772)">
   <path d="m57.6 742.2h948.8" stroke="#969696" stroke-width="1.875"/>
   <g stroke="#000" stroke-dasharray="3.75 7.5" stroke-miterlimit="2" stroke-width=".9375">
    <path d="m58.3 844.1h948.8"/>
    <path d="m58.3 641.8h948.8"/>
    <path d="m58.3 540.6h948.8"/>
   </g>
  </g>
  <g stroke="#000" stroke-linejoin="round">
   <path d="m548.8 487c16.8-.5 33-21.3 35-47.2 2.1-26.8 47.8-52.7 36.3-48.7 0 0-150.4 48-112.9 39.2" stroke-width="5.625"/>
   <path d="m601.6 409.4c-17.3 18.9-11 25.8-14.8 38-3.5 11.7-12.1 25.9-24.2 34.7" stroke-width="5.15625"/>
   <path d="m601.2 409.4c-7.6 7.8-17.4 18.3-21.4 32.6-4.1 14.4-5.5 33.4-22.5 43.1" stroke-width="5.15625"/>
   <path d="m620.4 268.9-72.1 125" stroke-width="8.4375"/>
   <path d="m524.8 419.5c13.1-10.8 13.9-14.8 22.9-29.3" stroke-width="3.75"/>
   <g stroke-width="5.625">
    <path d="m610.3 295.8-42.1 71.6"/>
    <path d="m626.5 243.5c-.2 12-3.1 14.3-12 32.8"/>
    <path d="m440.1 383.4c40 3 59.8-35.8 56.6-44.3-2.8-7.3-29.3-4.3-53.1 35-24.8 40.5-20.5 57.5-8.5 57.4 32.9-2.2 63.1-43.3 80.3-67.7 0 0 67.5-100.4 74-107.7 6.8-8.1 18.4-22.2 30.1-21.5 32.6 1.4-53.3 175.1-112.2 195.7"/>
   </g>
  </g>
 </g>
</svg>
