<svg height="210mm" viewBox="0 0 1052.4 744.1" width="297mm" xmlns="http://www.w3.org/2000/svg">
 <g fill="none" stroke-linecap="round">
  <g transform="translate(0 -308.26772)">
   <path d="m57.6 742.2h948.8" stroke="#969696" stroke-width="1.875"/>
   <g stroke="#000" stroke-dasharray="3.75 7.5" stroke-miterlimit="2" stroke-width=".9375">
    <path d="m58.3 844.1h948.8"/>
    <path d="m58.3 641.8h948.8"/>
    <path d="m58.3 540.6h948.8"/>
   </g>
  </g>
  <g stroke="#000" stroke-linejoin="round">
   <g stroke-width="5.625">
    <path d="m367 430.4c28.4-2.7 43.2-30.4 55.2-51"/>
    <path d="m371.9 416.8c.9.1 1.6.3 2.2.6.2.1.4.2.6.3 1.1.8 1.5 2.3.9 4.6-1.2 4.5-6.2 7-8.6 7.9-5 1.8-8.7-2.3-5.8-6.7 1.8-2.8 4.9-5.8 8.5-6.6.2 0 .5-.1.7-.1.3 0 .6-.1.9-.1.7 0 1.4.1 2.1.3"/>
    <path d="m422.2 379.5c14.4-23.3 25.7-43.3 47.7-43.5 15.5.8 24.4 9.5 4.7 42.5l-31.2 52.3"/>
   </g>
   <path d="m553 410.8c-11.6 2.8-37.9 6.5-41.4 7.4-5.2 1.4-9.2 5.1-9.2 7.7 0 3.7.8 5.8 5.8 6.3 3 .3 9.9-5.8 11.3-6.6 40.1-22.9 61.6-93.3 35.3-89.9-24.7 3.2-95.8 81.3-111.5 95" stroke-width="5.419139"/>
   <path d="m553 410.8c13.3-3.1 36.2-8.9 51.1-9.3 14.1-.4 13.4 29.9 31 30 18 .1 31.6-15.5 46.6-31.9" stroke-width="5.625"/>
  </g>
 </g>
</svg>
