<svg height="210mm" viewBox="0 0 1052.4 744.1" width="297mm" xmlns="http://www.w3.org/2000/svg">
 <g stroke-linecap="round">
  <g fill="none" transform="translate(0 -308.26772)">
   <path d="m57.6 742.2h948.8" stroke="#969696" stroke-width="1.875"/>
   <g stroke="#000" stroke-dasharray="3.75 7.5" stroke-miterlimit="2" stroke-width=".9375">
    <path d="m58.3 844.1h948.8"/>
    <path d="m58.3 641.8h948.8"/>
    <path d="m58.3 540.6h948.8"/>
   </g>
  </g>
  <g stroke="#000" stroke-linejoin="round">
   <g fill="none" stroke-width="5.625">
    <path d="m396.9 424.4c10.4-5.2 70.7-72.4 78.3-76.6"/>
    <path d="m475.1 347.8c23.7-19.2 60.9-14.6 37.5 14.4-27.4 33.8-45.5 50.2-39.4 63.9 4.2 9.5 20.6 2.9 36.5-3.7l204-84.7"/>
    <path d="m697.2 350.3 106.8-165.9"/>
    <path d="m804 184.4 22 48.5"/>
    <path d="m305 337c-42.8 11.2-83.1 84.8-58.6 93 6.7 2.2 71.3 7 93.6-11.1"/>
    <path d="m340 418.9c23.1-12.3 55.4-31.4 59.6-33.9 7.2-4.5 15.1-9 20.2-13.4 12.8-11.2 18.6-26.1 16.7-30.9-2.8-7.3-34.7-8.6-58.5 30.7-26.3 43.1-18.6 60.7-2.4 60.6 9.7-.4 18.5-5.6 21.3-7.5"/>
   </g>
   <g fill="#eb0000" fill-rule="evenodd" transform="matrix(1.7715894 0 0 1.7715894 -974.76132 76.884842)">
    <path d="m732.1 185.5c.8.1 1.4.2 1.9.5.2.1.3.2.5.3.9.7 1.3 2 .8 4-1 3.9-5.4 6.1-7.5 6.9-4.3 1.6-7.6-2-5.1-5.9 1.6-2.4 4.2-5.1 7.4-5.7.2 0 .4-.1.7-.1h.8c.6 0 1.2.1 1.9.3" stroke-width="5.625"/>
    <path d="m729.3 188.3c.3 0 .6.1.9.2.1 0 .2.1.2.1.4.3.6.9.4 1.8-.4 1.7-2.4 2.8-3.3 3.1-1.9.7-3.4-.9-2.3-2.6.7-1.1 1.9-2.3 3.3-2.6h.3.4c.3 0 .6 0 .8.1" stroke-width="4.981044"/>
   </g>
   <ellipse cx="347.54285" cy="722.36932" fill="none" rx="25.728558" ry="20.371416" stroke-width="5.625" transform="matrix(.79083574 -.61202846 .61202846 .79083574 0 0)"/>
  </g>
 </g>
</svg>
