<svg height="210mm" viewBox="0 0 1052.4 744.1" width="297mm" xmlns="http://www.w3.org/2000/svg">
 <g fill="none" stroke-linecap="round">
  <g transform="translate(0 -308.26772)">
   <path d="m57.6 742.2h948.8" stroke="#969696" stroke-width="1.875"/>
   <g stroke="#000" stroke-dasharray="3.75 7.5" stroke-miterlimit="2" stroke-width=".9375">
    <path d="m58.3 844.1h948.8"/>
    <path d="m58.3 641.8h948.8"/>
    <path d="m58.3 540.6h948.8"/>
   </g>
  </g>
  <g stroke="#000">
   <g stroke-linejoin="round" stroke-width="5.625">
    <path d="m463.4 395.6c22.5-2.1 22.9 36.7 55.3 35.8 31.1 2.2 67.3-93.4 109.1-95 15-1.1 24.6 7.4 9.7 25.8-27.4 33.8-45.5 50.2-39.4 63.9 2 4.4 7.7 5.1 13.8 4.5"/>
    <path d="m611.9 430.7c25.3-.6 62.9-43.7 112.5-95.6"/>
    <path d="m382 431.9s60.1-37.2 81.4-36.3"/>
    <path d="m443.7 431.1-55.2-43.9"/>
    <path d="m724.4 335.1-39.2 73.1c-8.3 15.5 5 26.1 21.5 22.2 2.8-.7 9.1-2.7 14-5.9 5.5-3.6 13.2-9.7 18.1-14.2"/>
    <path d="m738.8 410.2 29.4-28 34.5 48.8"/>
    <path d="m768.2 382.3 25.1 48.9"/>
    <path d="m777.7 382.3 25 48.8"/>
    <path d="m773.8 382.2 25.1 48.9"/>
   </g>
   <g stroke-width="3.75">
    <path d="m768.6 381.2h9"/>
    <path d="m793.2 432.1h9"/>
   </g>
  </g>
  <g stroke-linejoin="round" stroke-width="5.625">
   <path d="m388.5 387.1c-42.7 27.6-120.2 77.3-136.6 102.2-11.8 17.9-18.1 34.1-16.2 39.2 1.1 2.9 17.7 21.8 57.3-41.8l89.2-152.4" stroke="#060000"/>
   <path d="m382.3 334.3c-91.7 69.3-148.5 115.6-183 149.8-21.9 21.7-30.6 43.5-13.6 48.6 9.5 2.5 15.8.3 29.7-13.3" stroke="#000"/>
  </g>
 </g>
</svg>
