<svg height="210mm" viewBox="0 0 1052.4 744.1" width="297mm" xmlns="http://www.w3.org/2000/svg">
 <g fill="none" stroke-linecap="round">
  <g transform="translate(0 -308.26772)">
   <path d="m57.6 742.2h948.8" stroke="#969696" stroke-width="1.875"/>
   <g stroke="#000" stroke-dasharray="3.75 7.5" stroke-miterlimit="2" stroke-width=".9375">
    <path d="m58.3 844.1h948.8"/>
    <path d="m58.3 641.8h948.8"/>
    <path d="m58.3 540.6h948.8"/>
   </g>
  </g>
  <g stroke="#000">
   <g stroke-linejoin="round" stroke-width="5.625">
    <path d="m548.7 335.1c1.2 26.2 1.6 35.6 12.7 41.6 9.1 4.9 111.7-10.7 197.2-41.4"/>
    <path d="m758.6 335.3 31.4 47.9"/>
    <path d="m758.6 335.3 22.1 48"/>
    <path d="m768.1 335.3 21.9 47.9"/>
    <path d="m764.2 335.2 22.1 48"/>
   </g>
   <path d="m760.9 334.3h7.1" stroke-width="3.75"/>
   <path d="m782.4 384.2h7.1" stroke-width="3.75"/>
   <g stroke-linejoin="round">
    <path d="m298.6 430.9 25.9-37.2c20.3-27.9 41-60.1 64.8-57.8 10.5 1.2 16.5 8.2 15.8 17-.4 3.7-1.6 8.3-3.7 13.7-9.9 21.8-22.7 42.5-34.9 64.4" stroke-width="5.625"/>
    <path d="m366.5 431.1c20.6-10.1 63.7-29 80.5-29.8 16-.6 17.9 30.1 28.8 29.8 7.2-.2 12.4-7.6 16.7-13" stroke-width="5.625"/>
    <path d="m280.9 398.5 30.2-16-12.4 48.4" stroke-width="5.624959"/>
    <path d="m492.5 418.1c10.8-14.4 43.4-61 56.2-83" stroke-width="5.625"/>
   </g>
  </g>
 </g>
</svg>
