<svg height="210mm" viewBox="0 0 1052.4 744.1" width="297mm" xmlns="http://www.w3.org/2000/svg">
 <g fill="none" stroke-linecap="round">
  <g transform="translate(0 -308.26772)">
   <path d="m57.6 742.2h948.8" stroke="#969696" stroke-width="1.875"/>
   <g stroke="#000" stroke-dasharray="3.75 7.5" stroke-miterlimit="2" stroke-width=".9375">
    <path d="m58.3 844.1h948.8"/>
    <path d="m58.3 641.8h948.8"/>
    <path d="m58.3 540.6h948.8"/>
   </g>
  </g>
  <g stroke="#000" stroke-linejoin="round" stroke-width="5.625">
   <path d="m650.9 431.4c5.8-3.7 12.8-11.7 7.1-19-2.8-3.6-4.4-5-13-4.9l-107.7.6c-7.4 0-15.4-.2-17.4-.8-9.6-2.9-8.5-13.1.2-25.1"/>
   <path d="m393.3 430.6c22.5-8.9 52.2-48.9 60.4-86.1s38.8-98.1 73.8-111.6"/>
   <path d="m393.3 430.6 48.1.5"/>
   <path d="m447.7 419.8c.7.1 1.3.2 1.8.5.2.1.3.2.4.3.9.7 1.2 1.8.7 3.6-.9 3.5-4.9 5.5-6.8 6.3-3.9 1.4-6.8-1.8-4.6-5.3 1.4-2.2 3.8-4.6 6.7-5.2.2 0 .4-.1.6-.1h.7c.6 0 1.1.1 1.7.2"/>
   <path d="m441.3 431.2c16.2.9 78.8-48.9 78.8-48.9"/>
  </g>
 </g>
</svg>
