<svg height="210mm" viewBox="0 0 1052.4 744.1" width="297mm" xmlns="http://www.w3.org/2000/svg">
 <g fill="none" stroke-linecap="round">
  <g transform="translate(0 -308.26772)">
   <path d="m57.6 742.2h948.8" stroke="#969696" stroke-width="1.875"/>
   <g stroke="#000" stroke-dasharray="3.75 7.5" stroke-miterlimit="2" stroke-width=".9375">
    <path d="m58.3 844.1h948.8"/>
    <path d="m58.3 641.8h948.8"/>
    <path d="m58.3 540.6h948.8"/>
   </g>
  </g>
  <g stroke="#000" stroke-linejoin="round">
   <g stroke-width="5.625">
    <path d="m454.6 431.6 180.9-70.5"/>
    <path d="m293.7 390.7c-4 21.6 5.6 35.8 22.4 39.9 3.4.8 7.1 1.2 11 1.2 20.3-2 31.7-11.7 44.7-23.1 17.3-15.2 31.8-25 49.1-25 6.5.1 12.5 1.5 17.5 4.3 12.5 6.8 19.7 21.5 16 43.7"/>
    <ellipse cx="706.40247" cy="-176.76137" rx="4.609393" ry="6.862874" transform="matrix(.72846687 .68508103 -.68508103 .72846687 0 0)"/>
   </g>
   <path d="m632.3 361c7 4.2 13.6 6.2 23.4 6.1 29-.3 53.2-31 77.8-30.8 19.9.2 16.4 30.7 34.5 30.7 8.7 0 14.1-5.3 19.4-11.5" stroke-width="5.625001"/>
  </g>
 </g>
</svg>
