<svg height="210mm" viewBox="0 0 1052.4 744.1" width="297mm" xmlns="http://www.w3.org/2000/svg">
 <g fill="none" stroke-linecap="round">
  <g transform="translate(0 -308.26772)">
   <path d="m57.6 742.2h948.8" stroke="#969696" stroke-width="1.875"/>
   <g stroke="#000" stroke-dasharray="3.75 7.5" stroke-miterlimit="2" stroke-width=".9375">
    <path d="m58.3 844.1h948.8"/>
    <path d="m58.3 641.8h948.8"/>
    <path d="m58.3 540.6h948.8"/>
   </g>
  </g>
  <g stroke="#000">
   <path d="m413.7 336c-22.6 27.1-60.6 76.4-90.2 90-7.4 3.3-14.2 4.9-20 5-18.9.3-28.2-15.7-20.8-41.2" stroke-width="5.625"/>
   <g stroke-linejoin="round">
    <path d="m357 432.9c-52.8 22.2-107.3 83.2-81.8 98.7 9.9 5.5 23.1-1.1 49.3-43.2l89.2-152.4" stroke-width="5.624999"/>
    <path d="m357 432.9c59.6-39.1 193.2-123.1 273.6-170.9m0 0c15-9.3 42.7-27.3 53.5-27.1 16.8.5 17 28.2 32.4 28.5 9.3.2 15.7-7.8 20.6-14.7" stroke-width="5.625"/>
   </g>
  </g>
 </g>
</svg>
