<svg height="210mm" viewBox="0 0 1052.4 744.1" width="297mm" xmlns="http://www.w3.org/2000/svg">
 <g fill="none" stroke-linecap="round">
  <g transform="translate(0 -308.26772)">
   <path d="m57.6 742.2h948.8" stroke="#969696" stroke-width="1.875"/>
   <g stroke="#000" stroke-dasharray="3.75 7.5" stroke-miterlimit="2" stroke-width=".9375">
    <path d="m58.3 844.1h948.8"/>
    <path d="m58.3 641.8h948.8"/>
    <path d="m58.3 540.6h948.8"/>
   </g>
  </g>
  <g stroke="#000" stroke-linejoin="round">
   <path d="m471.7 336.1c-36.7 11.9-89.3 94.6-53.1 95.5 6.7.2 19.4-2.6 35.8-17.4" stroke-width="5.625"/>
   <path d="m636.9 273.1c-4.4 10.5-65.2 117.4-69.4 120.2" stroke-width="8.437499"/>
   <path d="m531.3 426.9c17.1-13.4 32.3-30.5 41.8-45.8" stroke-width="3.75"/>
   <path d="m627.7 296.4-42.1 71.6" stroke-width="5.625"/>
   <path d="m641.4 237.9c5.1 7.4-2.2 26.2-11.1 44.7" stroke-width="4.6875"/>
   <path d="m454.4 414.3c37.1-34.9 76.9-81.7 108.1-119.1 29.6-35.6 56.8-63.5 74.5-59.9 3 .1 5 1.7 6.1 4.6 10.7 27.9-64.9 173.5-121.4 191.8" stroke-width="5.625"/>
   <path d="m521.6 431.6c-3 .5-5.9-3.2-3-5.8" stroke-width="5.625"/>
   <g stroke-width="5.624999">
    <path d="m518.6 425.8c5.2-5 119.6-38.6 119.6-38.6l21.3 44.2"/>
    <path d="m368.4 336.5s-31.6 58.9-37.3 73.4c-5.8 14.7.3 21.7 12.2 21.4 8.3 0 16.2-3 24.6-8.6 7.8-5.2 17.4-13.5 28-23.8 11.5-11.1 33.7-32.3 52.7-48.5"/>
   </g>
  </g>
 </g>
</svg>
