<svg height="210mm" viewBox="0 0 1052.4 744.1" width="297mm" xmlns="http://www.w3.org/2000/svg">
 <g fill="none" stroke-linecap="round">
  <g transform="translate(0 -308.26772)">
   <path d="m57.6 742.2h948.8" stroke="#969696" stroke-width="1.875"/>
   <g stroke="#000" stroke-dasharray="3.75 7.5" stroke-miterlimit="2" stroke-width=".9375">
    <path d="m58.3 844.1h948.8"/>
    <path d="m58.3 641.8h948.8"/>
    <path d="m58.3 540.6h948.8"/>
   </g>
  </g>
  <g stroke="#000">
   <g stroke-linejoin="round" stroke-width="5.625">
    <path d="m231.7 334.3c54.3-11 95.5-79.5 89.2-96.2-5.5-14.4-40.2 8.9-87.4 86.8-50.2 86.7-47 110.6-24.4 105.5 7.3-2.4 14.3-5.6 21.1-8.5"/>
    <path d="m230.2 421.9c18.3-8 67.5-34.5 71.6-37 7.2-4.5 15.1-9 20.2-13.4 12.8-11.2 18.6-26.1 16.7-30.9-2.8-7.3-34.7-8.6-58.5 30.7-26.3 43.1-18.8 59.4-2.7 59.3 5.3-.6 10.7-2.2 15.8-4.4"/>
    <path d="m293.3 426.1c7.7-4 17.6-11.5 17.6-11.5l38.1-29.6 21.7 45.9"/>
    <path d="m370.8 431c22.2-19.8 41.3-38.1 57.9-38.1 17.5.2 19.7 62.7 54.9 23.5"/>
    <path d="m575.9 416.7c1 .1 1.8.3 2.5.7.2.1.4.3.6.4 1.2 1 1.7 2.6 1 5.2-1.3 5.1-7.1 8-9.8 9-5.7 2.1-9.8-2.6-6.6-7.6 2-3.1 5.5-6.6 9.7-7.5.3-.1.6-.1.9-.1s.7-.1 1-.1c.8 0 1.6.1 2.4.3"/>
    <path d="m661.3 356.6s-79.9 73.3-86.6 73"/>
    <path d="m755.5 308.8c13.5-5.2 32.1-15.8 44.2-15.4 24.5.5 8.7 38.3 31.6 38.1 10.9-.1 16-4.5 21.9-14.2"/>
    <path d="m684.9 340.7c21.6-9.4 63.4-29.1 70.6-31.9"/>
    <ellipse cx="436.20554" cy="668.60773" rx="62.130169" ry="44.633743" transform="matrix(.88109295 -.47294313 .47294313 .88109295 0 0)"/>
   </g>
   <path d="m757.3 360.8c-13.8 27.9-38.1 52.4-66.8 70.7" stroke-width="5.385754"/>
   <path d="m758.4 369.8c-15.9 21.3-33.1 41.5-54 58.5" stroke-width="5.385754"/>
   <path d="m757.5 376.3c-14.3 21.6-19.7 29.6-41.7 46.5" stroke-width="7.181006"/>
   <g stroke-width="3.590503">
    <path d="m706.1 419.4c-10.1 9.6-24.3 12.2-31.1 10.7"/>
    <path d="m749.2 347c2.2 2.5 8.7 12.2 1.3 24.5"/>
   </g>
  </g>
 </g>
</svg>
