<svg height="210mm" viewBox="0 0 1052.4 744.1" width="297mm" xmlns="http://www.w3.org/2000/svg">
 <g fill="none" stroke-linecap="round">
  <g transform="translate(0 -308.26772)">
   <path d="m57.6 742.2h948.8" stroke="#969696" stroke-width="1.875"/>
   <g stroke="#000" stroke-dasharray="3.75 7.5" stroke-miterlimit="2" stroke-width=".9375">
    <path d="m58.3 844.1h948.8"/>
    <path d="m58.3 641.8h948.8"/>
    <path d="m58.3 540.6h948.8"/>
   </g>
  </g>
  <g stroke="#000">
   <g stroke-linejoin="round">
    <path d="m552.5 431.7 86.2-47.7 24.1 47.9" stroke-width="5.625"/>
    <path d="m662.8 431.9c25-11.8 58.3-31.5 76-32.4 16.8-.7 22.7 32.6 34.2 32.2 7.5-.2 13.1-6.2 18.3-10.8" stroke-width="5.624999"/>
    <g stroke-width="6.562499">
     <path d="m403.1 336.2-47.5 81.9"/>
     <path d="m398.5 336.1-38.7 70.9-3.8 16.5"/>
     <path d="m403.1 336.2h-9.3"/>
    </g>
   </g>
   <path d="m365 404.7c-6 9.6-9.9 25.1 3.6 25.5" stroke-width="3.749999"/>
   <g stroke-linejoin="round">
    <path d="m552.5 431.7 25.6-52.3c6.9-14.1 10.3-24 10.6-30.8.2-4-.9-8.8-5.7-11-2.7-1.4-5.1-1.6-8.3-1.6-10.4.6-19.3 6-26.7 13.5-8.3 8.5-15.8 20.3-24.5 32.9-14.5 19.9-29.2 47.1-52.2 48.9-3.3.3-6.5 0-9.1-1-3.2-1.2-5.7-3.4-7.2-6.4-7.2-15.5 12-29.8 36.4-59.3 8.2-9.9 8.8-18.2 5.1-23.4-1.5-2.2-3.8-3.8-6.6-4.7-2.6-.9-5.7-1.2-9-.9-9.6 1.8-14.8 4.1-23.5 12.8-9.6 9.5-21.5 25.2-30.7 37.7-10 13.6-24.2 30.3-38 39.8-7.1 4.9-11.6 5-19 5.2-13.2.1-22.2-9.6-15-23l38.9-72.5-94.3 95.2" stroke-width="5.624999"/>
    <path d="m584.9 359.7-40.3 71.8" stroke-width="5.624999"/>
    <path d="m567.7 391.4-19.4 39.7" stroke-width="3.75"/>
    <path d="m544.6 431.5 7.9.2" stroke-width="5.624999"/>
   </g>
   <path d="m584.3 339.1c4 2.2 5.8 10.2-2.4 24.3" stroke-width="3.749999"/>
  </g>
 </g>
</svg>
