<svg height="210mm" viewBox="0 0 1052.4 744.1" width="297mm" xmlns="http://www.w3.org/2000/svg">
 <g fill="none" stroke-linecap="round">
  <g transform="translate(0 -308.26772)">
   <path d="m57.6 742.2h948.8" stroke="#969696" stroke-width="1.875"/>
   <g stroke="#000" stroke-dasharray="3.75 7.5" stroke-miterlimit="2" stroke-width=".9375">
    <path d="m58.3 844.1h948.8"/>
    <path d="m58.3 641.8h948.8"/>
    <path d="m58.3 540.6h948.8"/>
   </g>
  </g>
  <g stroke-linejoin="round" stroke-width="5.625">
   <path d="m541.7 312.4-257.9 107.5c-6.9 4.3-14.8 3.3-14.8 3.3" stroke="#060000"/>
   <g stroke="#000">
    <path d="m541.7 312.4c44.1-17.5 87-38.3 119.7-32.4 16 4.9 12.1 17.9-1.6 39.7-12.9 20.5-20.8 37-36.9 62.4-22.7 35.8-47.8 69.1-39.6 86 10.5 17 36.8 5.6 61.3-10.6"/>
    <path d="m644.7 457.4c16.6-9.6 26.7-20.1 44.3-21 22.6-.6 29.1 39 40.1 38.7 7.2-.2 12.4-7.6 16.7-13"/>
    <path d="m277.7 409.1c.9.3 1.8.6 2.4 1.1.2.2.4.3.5.5 1 1.2 1.2 2.8 0 5.3-2.3 4.7-8.4 6.5-11.3 7.1-5.9 1-9.2-4.4-5.1-8.7 2.6-2.7 6.7-5.5 10.9-5.5h.9c.3 0 .7.1 1 .1.8.1 1.6.4 2.3.8"/>
   </g>
   <path d="m258.5 431.9c11.3-3.6 29-14.3 32.2-40.1s20.9-53.1 39.1-55.8" stroke="#060000"/>
  </g>
 </g>
</svg>
