<svg height="210mm" viewBox="0 0 1052.4 744.1" width="297mm" xmlns="http://www.w3.org/2000/svg">
 <g fill="none" stroke-linecap="round">
  <g transform="translate(0 -308.26772)">
   <path d="m57.6 742.2h948.8" stroke="#969696" stroke-width="1.875"/>
   <g stroke="#000" stroke-dasharray="3.75 7.5" stroke-miterlimit="2" stroke-width=".9375">
    <path d="m58.3 844.1h948.8"/>
    <path d="m58.3 641.8h948.8"/>
    <path d="m58.3 540.6h948.8"/>
   </g>
  </g>
  <g stroke="#000" stroke-width="5.625">
   <path d="m397.7 389.6 26.4 41.7" stroke-linejoin="round"/>
   <path d="m397.7 389.6-76.6 144"/>
   <g stroke-linejoin="round">
    <path d="m503 336c19.3.6 19.1 31.1 37.1 31.3"/>
    <path d="m540.1 367.3c17.8.5 37.3-30.5 53.2-31.2 18.7-.8 16.1 32.1 34.1 31.6 8.6-.2 13.5-7 17.6-10.7"/>
    <path d="m424.1 431.2c33.5-53.9 55.2-94.7 78.8-95.2"/>
   </g>
  </g>
 </g>
</svg>
