<svg height="210mm" viewBox="0 0 1052.4 744.1" width="297mm" xmlns="http://www.w3.org/2000/svg">
 <g fill="none" stroke-linecap="round">
  <g transform="translate(0 -308.26772)">
   <path d="m57.6 742.2h948.8" stroke="#969696" stroke-width="1.875"/>
   <g stroke="#000" stroke-dasharray="3.75 7.5" stroke-miterlimit="2" stroke-width=".9375">
    <path d="m58.3 844.1h948.8"/>
    <path d="m58.3 641.8h948.8"/>
    <path d="m58.3 540.6h948.8"/>
   </g>
  </g>
  <g stroke="#000">
   <g stroke-linejoin="round">
    <path d="m309.8 432c-25.4 10.7-45.1 32.3-62.2 51.5-18.5 20.8-28.5 40.4-19.6 47.2 8.4 6.7 23.1-1.1 49.3-43.2l89.2-152.3" stroke-width="5.625"/>
    <path d="m309.8 432c22.6-7.3 252.8-43 252.8-43l21 42" stroke-width="5.625001"/>
    <g stroke-width="5.625">
     <path d="m583.5 431c10.6-12.1 26.9-30.7 43.7-31"/>
     <path d="m627.2 400c19.1.4 17.7 31.1 39.1 30.9 29.5-1.7 60.2-61.9 90.9-110.9 8.2-13.1 24.4-32.6 42.1-32.9 8.1-.2 15.1 6.7 13.5 16.3-1.1 6.7-3.4 15-9.2 26.8l-25.6 52.3"/>
    </g>
   </g>
   <path d="m871 337-92.8 45.4" stroke-width="5.625002"/>
  </g>
 </g>
</svg>
