<svg height="210mm" viewBox="0 0 1052.4 744.1" width="297mm" xmlns="http://www.w3.org/2000/svg">
 <g fill="none" stroke-linecap="round">
  <g transform="translate(0 -308.26772)">
   <path d="m57.6 742.2h948.8" stroke="#969696" stroke-width="1.875"/>
   <g stroke="#000" stroke-dasharray="3.75 7.5" stroke-miterlimit="2" stroke-width=".9375">
    <path d="m58.3 844.1h948.8"/>
    <path d="m58.3 641.8h948.8"/>
    <path d="m58.3 540.6h948.8"/>
   </g>
  </g>
  <g stroke="#000" stroke-linejoin="round">
   <path d="m474.3 401.8c2.8-1.2 7.6-2.1 12.7-.7 6.4 1.8 13.2 7.5 18.4 18.8 4.3 9.4 10.3 11.2 16 11.5 3 .1 7.6 0 10.4 0" stroke-width="5.625"/>
   <path d="m420.3 335.7-38.9 72.5c-7.2 13.4 2.4 23.2 15.6 23.3 27.1.1 79.7-38 99.9-34.3 15.7 2.9 18.3 34.2 35.2 34.1" stroke-width="5.625"/>
   <path d="m491.4 400c7.8 4.9 8.8 2 26.1 28.6" stroke-width="6.587558"/>
   <path d="m532.1 431.3c7.1.4 11-2.8 17-8.6 26.2-26.1 41.5-31.5 60.7-32.3 19.7-.9 31.1 15 23.6 40.8" stroke-width="5.625"/>
  </g>
 </g>
</svg>
