<svg height="210mm" viewBox="0 0 1052.4 744.1" width="297mm" xmlns="http://www.w3.org/2000/svg">
 <g fill="none" stroke-linecap="round">
  <g transform="translate(0 -308.26772)">
   <path d="m57.6 742.2h948.8" stroke="#969696" stroke-width="1.875"/>
   <g stroke="#000" stroke-dasharray="3.75 7.5" stroke-miterlimit="2" stroke-width=".9375">
    <path d="m58.3 844.1h948.8"/>
    <path d="m58.3 641.8h948.8"/>
    <path d="m58.3 540.6h948.8"/>
   </g>
  </g>
  <g stroke="#000" stroke-width="5.625">
   <g stroke-linejoin="round">
    <path d="m83 431.1 362.5-95.6"/>
    <path d="m563.5 430.7c350.2-219 361.3-226.3 378.7-235.3 11.2-5.9 18.6-8 23.1-9.1 3.5-.8 6.6-1.1 9.3-1.1 7.2.1 11.8 3 14.2 8 7.2 15.3-6.2 50.9-28.6 90.5-26.3 44.8-62.9 88.9-90.3 97.3"/>
    <path d="m384.6 434.8c-48.4 27.2-81 79.8-72.2 95.6 2.9 5.3 34.7 12.4 62.3-63.4 15.8-47.4 16.5-113.3 70.8-131.6"/>
   </g>
   <path d="m424.2 346.9c-27.4 24.6-28.9 58.7-39.7 100.9-7.5 29.4-23.1 69.4-55.3 83.9"/>
   <path d="m414.5 357.4c-22.2 34.7-16.3 49.9-25.9 88.3-10 39.9-19.2 60.3-50.1 80.6"/>
   <path d="m384.6 434.8 127.7-97.9 51.2 93.9" stroke-linejoin="round"/>
  </g>
 </g>
</svg>
