<svg height="210mm" viewBox="0 0 1052.4 744.1" width="297mm" xmlns="http://www.w3.org/2000/svg">
 <g fill="none" stroke-linecap="round">
  <g transform="translate(0 -308.26772)">
   <path d="m57.6 742.2h948.8" stroke="#969696" stroke-width="1.875"/>
   <g stroke="#000" stroke-dasharray="3.75 7.5" stroke-miterlimit="2" stroke-width=".9375">
    <path d="m58.3 844.1h948.8"/>
    <path d="m58.3 641.8h948.8"/>
    <path d="m58.3 540.6h948.8"/>
   </g>
  </g>
  <g stroke="#000" stroke-linejoin="round">
   <path d="m529 431c35.3.4 64.8-45.7 80.3-66.7 10.5-14.2 65.7-98.4 72.1-105.9 6.9-8 20.7-24 35.7-23.4 32.6 1.4-46.7 181.2-112.2 195.7" stroke-width="5.625"/>
   <path d="m604.9 430.7c-4.1 1.5-7-2.5-2.9-5 17-10.2 107.1-31.5 114.1-30.4 15.7 4.3 13.6 35.7 29.5 35.9 5.5 0 13.1-3.7 24.4-13.5" stroke-width="5.625"/>
   <g stroke-width="5.624999">
    <path d="m597.4 235s-66.1 127.2-85.7 164.6c-8.4 18.4 1.8 31.1 17.2 31.3"/>
    <path d="m597.4 235s-119.7 157.1-161.1 188.7"/>
    <path d="m328.8 431.4s44.6-32.4 61.8-29.2 16 46.2 45.6 21.5"/>
    <path d="m376.2 404.5c5.4-2.4 14.4-.8 22.3 16.5 5.6 12.2 16.2 10.3 22.8 10.3"/>
    <path d="m387.3 404.2c7.6 3.9 5 .9 19.8 23.5"/>
   </g>
  </g>
 </g>
</svg>
