<svg height="210mm" viewBox="0 0 1052.4 744.1" width="297mm" xmlns="http://www.w3.org/2000/svg">
 <g fill="none" stroke-linecap="round">
  <g transform="translate(0 -308.26772)">
   <path d="m57.6 742.2h948.8" stroke="#969696" stroke-width="1.875"/>
   <g stroke="#000" stroke-dasharray="3.75 7.5" stroke-miterlimit="2" stroke-width=".9375">
    <path d="m58.3 844.1h948.8"/>
    <path d="m58.3 641.8h948.8"/>
    <path d="m58.3 540.6h948.8"/>
   </g>
  </g>
  <g stroke="#000" stroke-linejoin="round" stroke-width="5.625">
   <path d="m416 431.4c11.2-23.8 37.5-41.1 61.9-43.7 30.4-3.3 39.7 11.1 35.5 43.9"/>
   <path d="m513.4 431.6c32.4-56.4 46.6-85 63.2-92.3 2.2-.8 4.2-1.4 6.2-1.9 4.3-1.1 8.1-1.4 11.3-.9 20.8 3.9 19.4 55.8 55.2 26"/>
   <path d="m577.5 339c10.1-4.3 18 0 27.6 20.9 6.8 14.8 19 11.9 25.1 11.8"/>
   <path d="m591 339.4c8.1 7.1 7.4.6 25.3 27.9"/>
  </g>
 </g>
</svg>
