<svg height="210mm" viewBox="0 0 1052.4 744.1" width="297mm" xmlns="http://www.w3.org/2000/svg">
 <g fill="none" stroke-linecap="round">
  <g transform="translate(0 -308.26772)">
   <path d="m57.6 742.2h948.8" stroke="#969696" stroke-width="1.875"/>
   <g stroke="#000" stroke-dasharray="3.75 7.5" stroke-miterlimit="2" stroke-width=".9375">
    <path d="m58.3 844.1h948.8"/>
    <path d="m58.3 641.8h948.8"/>
    <path d="m58.3 540.6h948.8"/>
   </g>
  </g>
  <g stroke-linejoin="round" stroke-width="5.625">
   <path d="m436.6 431.5 48.2-37.3" stroke="#000"/>
   <ellipse cx="143.36385" cy="628.87158" rx="25.728558" ry="20.371416" stroke="#000" transform="matrix(.79083574 -.61202846 .61202846 .79083574 0 0)"/>
   <path d="m203 431.7c88.5-59.2 253.5-59.1 233.6-.2" stroke="#0a0001"/>
   <g stroke="#000">
    <path d="m493.3 388.7c8.2-4.8 40.6-9.5 49.9-9.5 20.2 0 36.4 14.9 20.3 34.8-27.4 33.8-45.5 50.2-39.4 63.9 4.2 9.5 23.5 7.6 36.5-3.7"/>
    <path d="m560.5 474.2c8.7-6.7 78.8-87.4 78.8-87.4l22.4 44.6"/>
    <path d="m661.7 431.4c21.5-11.4 50.5-29.2 65.9-30.1 20.1-.2 17 28.7 35.1 30.1 10.8-.3 15-6.9 21.5-15"/>
   </g>
  </g>
 </g>
</svg>
