<svg height="210mm" viewBox="0 0 1052.4 744.1" width="297mm" xmlns="http://www.w3.org/2000/svg">
 <g fill="none" stroke-linecap="round">
  <g transform="translate(0 -308.26772)">
   <path d="m57.6 742.2h948.8" stroke="#969696" stroke-width="1.875"/>
   <g stroke="#000" stroke-dasharray="3.75 7.5" stroke-miterlimit="2" stroke-width=".9375">
    <path d="m58.3 844.1h948.8"/>
    <path d="m58.3 641.8h948.8"/>
    <path d="m58.3 540.6h948.8"/>
   </g>
  </g>
  <g stroke="#000">
   <g stroke-linejoin="round">
    <path d="m452.3 336.2-46.6 95.4" stroke-width="5.624999"/>
    <ellipse cx="696.68726" cy="-185.96898" rx="4.609393" ry="6.862875" stroke-width="5.625" transform="matrix(.72846687 .68508103 -.68508103 .72846687 0 0)"/>
    <path d="m405.8 431.6 229.8-84.6" stroke-width="5.624999"/>
   </g>
   <g stroke-width="5.625">
    <path d="m452.3 336.2-141.7 197.7"/>
    <path d="m639.5 343.3c21.2-36.6 56.3-102.2 61.3-111 6.4-11.2 12.6-25.3 25-25.8 13.4-.6 14.3 22.8 29.4 22.4 4.8-.1 11.1-3.9 19.6-13.3" stroke-linejoin="round"/>
   </g>
  </g>
 </g>
</svg>
