<svg height="210mm" viewBox="0 0 1052.4 744.1" width="297mm" xmlns="http://www.w3.org/2000/svg">
 <g fill="none" stroke-linecap="round">
  <g transform="translate(0 -308.26772)">
   <path d="m57.6 742.2h948.8" stroke="#969696" stroke-width="1.875"/>
   <g stroke="#000" stroke-dasharray="3.75 7.5" stroke-miterlimit="2" stroke-width=".9375">
    <path d="m58.3 844.1h948.8"/>
    <path d="m58.3 641.8h948.8"/>
    <path d="m58.3 540.6h948.8"/>
   </g>
  </g>
  <g stroke="#000" stroke-width="5.625">
   <g stroke-linejoin="round">
    <path d="m452.4 394.1c39.8-1.5 60.3 36.7 94.6 36.8 25.7.1 42-19 52.9-28.7 1.1-1.1 6-5.3 6-5.3"/>
    <path d="m605.8 397c12.3-13 43.8-57.3 43.8-57.3"/>
    <path d="m649.6 339.7c21.6-28.9 36.1-52.4 56.9-56.8 10.7-2.7 14.3.7 18.7 3.2s6.4 7.9 4.5 16.8c-8.9 27.2-14.7 39.9-30.9 76.9"/>
    <path d="m355.5 430.8s48.3-35.3 96.9-36.6"/>
   </g>
   <path d="m821.1 181.7-122.3 197.9"/>
   <path d="m355.5 430.8-56.8 103.4"/>
  </g>
 </g>
</svg>
