<svg height="210mm" viewBox="0 0 1052.4 744.1" width="297mm" xmlns="http://www.w3.org/2000/svg">
 <g fill="none" stroke-linecap="round">
  <g transform="translate(0 -308.26772)">
   <path d="m57.6 742.2h948.8" stroke="#969696" stroke-width="1.875"/>
   <g stroke="#000" stroke-dasharray="3.75 7.5" stroke-miterlimit="2" stroke-width=".9375">
    <path d="m58.3 844.1h948.8"/>
    <path d="m58.3 641.8h948.8"/>
    <path d="m58.3 540.6h948.8"/>
   </g>
  </g>
  <g stroke="#000">
   <path d="m675.7 412.1c21.7-11.6 45.8-24.5 48.8-26.4 7.2-4.5 15.1-9 20.2-13.4 12.8-11.2 18.6-26.1 16.7-30.9-2.8-7.3-34.7-8.6-58.5 30.7-26.3 43.1-17.7 60.3-4.2 58.6 9.2-1.4 15.1-5.1 15.1-5.1 13.2-9.2 19.8-16.7 25.1-22.8" stroke-linejoin="round" stroke-width="5.625"/>
   <path d="m741.6 342.7c-30.3 19.2-39.8 50.5-52.2 79" stroke-width="4.6875"/>
   <path d="m734.6 342.7c-17.9 10.4-41.1 45.1-46.5 68.6" stroke-width="4.6875"/>
   <path d="m695.2 410.3c-4 10.7-6.4 18.8 3.6 20.4" stroke-width="2.8125"/>
   <path d="m756 339.4c-7.4-2.4-11 2.2-15.8 5.2" stroke-width="2.8125"/>
   <path d="m731.1 347.4c-28 20.5-28.9 42.2-43.4 69.6" stroke-width="4.6875"/>
   <path d="m616.9 386 20.5 45 38.3-19" stroke-linejoin="round" stroke-width="5.625"/>
  </g>
  <g stroke="#00000b">
   <g stroke-linejoin="round" stroke-width="5.625">
    <path d="m404.3 336.5c-52.1 13.6-97.3 122.8-33.5 87.2 4.7-2.6 7.7-6.4 9.8-8.2 3.9-3.2 16.4-18.1 22.6-25.3 1.3-1.5 6.8-7.8 7.4-8.5"/>
    <path d="m437.3 430.3s77.8-32.6 95-29.3c17.2 3.2 14 49.8 45.6 21.5"/>
    <path d="m410.6 381.7c.7-1 8-9.9 11.5-13.9 6.2-7 14.4-16 15.8-17.4 24.9-25.2 60.4-22.2 30.7 27.6l-31.2 52.3"/>
    <path d="m478.7 343.9-49.2 86.2"/>
    <path d="m478.9 350.1-45.6 79.9"/>
    <path d="m429.4 430.1 7.9.2"/>
   </g>
   <path d="m474.7 337.7c1.8 1.7 2.3 5.7.7 9.9" stroke-width="3.75"/>
  </g>
  <path d="m577.9 422.5 39-36.5" stroke="#000" stroke-linejoin="round" stroke-width="5.625"/>
 </g>
</svg>
