<svg height="210mm" viewBox="0 0 1052.4 744.1" width="297mm" xmlns="http://www.w3.org/2000/svg">
 <g fill="none" stroke-linecap="round">
  <g transform="translate(0 -308.26772)">
   <path d="m57.6 742.2h948.8" stroke="#969696" stroke-width="1.875"/>
   <g stroke="#000" stroke-dasharray="3.75 7.5" stroke-miterlimit="2" stroke-width=".9375">
    <path d="m58.3 844.1h948.8"/>
    <path d="m58.3 641.8h948.8"/>
    <path d="m58.3 540.6h948.8"/>
   </g>
  </g>
  <g stroke="#000" stroke-linejoin="round">
   <g stroke-width="5.625">
    <path d="m501.8 428.5c12 7.1 26.8-11.1 41.7-25.1 8.1-7.6 19.6-19.5 19.6-19.5"/>
    <path d="m415.6 352.6c49.7-44.2 46.3 7.3 18.7 46.4-7.8 10.8-26.9 32.3-39.6 32.2 26.1-.3 62.2.4 91.7-.1 4.2-.1 13.7.7 21.6-5.7"/>
    <ellipse cx="656.99982" cy="-39.016457" rx="4.609393" ry="6.862875" transform="matrix(.72846687 .68508103 -.68508103 .72846687 0 0)"/>
   </g>
   <ellipse cx="634.70636" cy="-22.888481" rx="5.271424" ry="7.848564" stroke-width="14.034715" transform="matrix(.72846687 .68508103 -.68508103 .72846687 0 0)"/>
  </g>
 </g>
</svg>
