<svg height="210mm" viewBox="0 0 1052.4 744.1" width="297mm" xmlns="http://www.w3.org/2000/svg">
 <g fill="none" stroke-linecap="round">
  <g transform="translate(0 -308.26772)">
   <path d="m57.6 742.2h948.8" stroke="#969696" stroke-width="1.875"/>
   <g stroke="#000" stroke-dasharray="3.75 7.5" stroke-miterlimit="2" stroke-width=".9375">
    <path d="m58.3 844.1h948.8"/>
    <path d="m58.3 641.8h948.8"/>
    <path d="m58.3 540.6h948.8"/>
   </g>
  </g>
  <g stroke="#010000">
   <path d="m542.4 411.4c-6.9 37.9-81.4 146.6-105.6 166.8" stroke-width="5.625"/>
   <path d="m447.6 565.9c-6.3 5.5-13.3 15.3-23.3 15.7" stroke-width="3.75"/>
   <path d="m509.9 483.8c-43.2 16.2-118.9 79.8-88.5 97.8 10.5 4.4 19.8-4.1 48.4-40.3 24.4-32.4 54.6-73.9 69.3-116.9 7.5-21.6 4.8-37-7.8-37.8-4.4-.3-9.1 1.4-13.8 4.3-4.9 3-10.3 7.6-15.7 12.6-5.4 4.9-16.2 15-28.4 28" stroke-linejoin="round" stroke-width="5.625"/>
   <path d="m543.3 403.8c-.8 27.6-20.4 69.8-38.2 96.8-26.4 40.2-58.9 76.1-73.6 80.7" stroke-width="5.625"/>
   <path d="m533 387.7c12.8 2.6 9.5 26.3 3.2 40.4" stroke-width="3.75"/>
  </g>
  <g stroke="#000" stroke-linejoin="round">
   <path d="m509.9 483.8c25-11.8 70.1-34.3 87.7-35.2 16.7-.7 22.6 32.5 34.2 32.2 7.5-.2 13-6.1 18.3-10.7" stroke-width="5.624959"/>
   <path d="m520 335.8-46.6 95.6" stroke-width="5.624999"/>
  </g>
 </g>
</svg>
