<svg height="210mm" viewBox="0 0 1052.4 744.1" width="297mm" xmlns="http://www.w3.org/2000/svg">
 <g fill="none" stroke-linecap="round">
  <g transform="translate(0 -308.26772)">
   <path d="m57.6 742.2h948.8" stroke="#969696" stroke-width="1.875"/>
   <g stroke="#000" stroke-dasharray="3.75 7.5" stroke-miterlimit="2" stroke-width=".9375">
    <path d="m58.3 844.1h948.8"/>
    <path d="m58.3 641.8h948.8"/>
    <path d="m57.8 541.1h948.9"/>
   </g>
  </g>
  <g stroke="#000" stroke-linejoin="round" stroke-width="5.625">
   <path d="m379.5 394.3 70-121.5c5.8-10 12.5-19.6 19.9-27.3 10-10.4 22.3-10.8 27.6-10.7 16.5.2 12.1 17.9-1.6 39.7-12.9 20.5-20.8 37-36.9 62.4-22.7 35.8-47.8 69.1-39.6 86 4.4 7.1 10.4 7.9 17.6 7.4 13-1 27.8-11.1 48.4-25.2"/>
   <path d="m332.7 384.4 22 48.1 24.8-38.3"/>
   <path d="m213.9 490.4c-3.7 5.6-5.7 12.5-6.2 17.7-.7 7.4 1.5 13.5 3.8 16.3 2.8 3.4 5.2 9.1 19 9.1 7 0 16.8-6.2 22.9-15.7l20.2-31.6 59.2-101.6"/>
   <path d="m708.8 369.8c9.3-7.6 19.1-14.3 24.9-18.8 11.4-8.9 21.3-15.6 32-13.6 26.9 5 25 72.1 71.2 33.6"/>
   <path d="m621.9 344.9s-4.5 6.3 3.2-4.2 15.5-21.2 15.9-21.6c2.7-3.5 5.3-6.7 7.7-9.6 2-2.4 3.9-4.5 5.8-6.4 16.9-17.9 26.9-18.3 33.4-5.7 6.5 12.7 4 18.2 12.3 27.2 15.9 17.3 43.8-27.8 34.5-34.3-6.3-4.4-25.9 3.2-49.4 42-41.8 68.4-.1 58.5 23.6 37.5"/>
   <path d="m484.9 405c56.4-36.8 140.1-103.1 155.9-127.3 10.8-16.5 16.1-31.9 13.5-38.7-5.5-14.4-40.2 8.9-87.4 86.8-41.2 71.2-46.2 101.2-34.5 105.8 2.9 1.1 6.8.7 11.5-1 3.2-1.2 6.8-3 10.6-5.4 26.5-18.8 48.7-52.6 67.5-80.1"/>
  </g>
 </g>
</svg>
