<svg height="210mm" viewBox="0 0 1052.4 744.1" width="297mm" xmlns="http://www.w3.org/2000/svg">
 <g fill="none" stroke-linecap="round">
  <g transform="translate(0 -308.26772)">
   <path d="m57.6 742.2h948.8" stroke="#969696" stroke-width="1.875"/>
   <g stroke="#000" stroke-dasharray="3.75 7.5" stroke-miterlimit="2" stroke-width=".9375">
    <path d="m58.3 844.1h948.8"/>
    <path d="m58.3 641.8h948.8"/>
    <path d="m58.3 540.6h948.8"/>
   </g>
  </g>
  <path d="m612.8 347.7c-5.4 5.7-89 82.4-80.1 83.4 3 .3 9.7-4.2 11-5 39.4-22.5 59.2-89 36.6-90.1-18-.8-50 27.5-59.6 34.2" stroke="#000" stroke-linejoin="round" stroke-width="5.419139"/>
  <g stroke-width="5.625">
   <path d="m597.2 421.9c1.1-7.7 98.2-27.6 118.7-29.1 19.7-1 21.9 38.2 36.1 37.9 13.7-.3 20.9-8.2 27.4-16" stroke="#000" stroke-linejoin="round"/>
   <path d="m597.2 421.9c-3.4 6.4 4.9 8.8 6.4 8.4 15.1-4.5 47.4-44.7 52.6-82 5.7-40.6 44.3-104.4 80-114.7-18 3.2-113.7 103.4-123.4 114.1" stroke="#000" stroke-linejoin="round"/>
   <path d="m694.5 266c-4 6.8-7.9 16.4-10.8 21.8-20.5 37.5-18 44.6-29.9 76.5-2.7 7.2-7.2 15.1-12.8 25" stroke="#000004"/>
   <path d="m707.5 252.5c-4.3 6.5-27.4 38.4-29.2 44.5-6.6 21.7-8.3 19.5-10.6 25.5-15.2 19.5-6.7 31.7-26.7 66.9" stroke="#000026"/>
  </g>
  <path d="m686.4 284.6c-13.4 28.2-24.4 58.4-33.8 84.9" stroke="#000" stroke-opacity=".86385" stroke-width="3.75"/>
  <g stroke-linejoin="round" stroke-width="5.625">
   <g stroke="#000">
    <path d="m658.8 334c-4.3 18.4-9.8 36.9-17.9 55.3"/>
    <path d="m298.2 336c-47.8 12.5-89.4 106-47.1 93.4 14.2-5.6 50.5-25.1 92.3-84.4"/>
    <path d="m342 336.4c.8.1 1.4.2 1.9.5.2.1.3.2.5.3.9.7 1.3 2 .8 4-1 3.9-5.4 6.1-7.5 6.9-4.3 1.6-7.6-2-5.1-5.9 1.6-2.4 4.2-5.1 7.4-5.7.2 0 .4-.1.7-.1s.5-.1.8-.1c.6 0 1.2.1 1.9.3"/>
    <path d="m333.9 348.2c16.9 4.8 31.6-35.5 47.9-50.4"/>
    <path d="m415.1 375c-7.8 2.6-12.3 2.4-17.2 2.1-28.9-.2-40.8.5-40.8.5 3.7.6 13.7-3.8 15.1-4.6 10.9-6.3 20.6-16.1 28.3-27.1 27.6-39.1 30.9-92.3-18.7-48.1"/>
    <path d="m417.3 364.2c.8.1 1.4.2 1.9.5.2.1.3.2.5.3.9.7 1.3 2 .8 4-1 3.9-5.4 6.1-7.5 6.9-4.3 1.6-7.6-2-5.1-5.9 1.6-2.4 4.2-5.1 7.4-5.7.2 0 .4-.1.7-.1s.5-.1.8-.1c.6 0 1.2.1 1.9.3"/>
   </g>
   <path d="m415.1 375c12.5-6.2 37-65 56.9-83.2 22.5-20.6 60.9-14.6 37.5 14.4-22.1 27.3-32.4 42.3-34.7 54.6-.6 18.4 25 23.3 46 9.4" stroke="#040000"/>
   <ellipse cx="187.74225" cy="594.50861" rx="21.643192" ry="17.136696" stroke="#000" transform="matrix(.79083574 -.61202846 .61202846 .79083574 0 0)"/>
  </g>
 </g>
</svg>
