<svg height="210mm" viewBox="0 0 1052.4 744.1" width="297mm" xmlns="http://www.w3.org/2000/svg">
 <g fill="none" stroke-linecap="round">
  <g transform="translate(0 -308.26772)">
   <path d="m57.6 742.2h948.8" stroke="#969696" stroke-width="1.875"/>
   <g stroke="#000" stroke-dasharray="3.75 7.5" stroke-miterlimit="2" stroke-width=".9375">
    <path d="m58.3 844.1h948.8"/>
    <path d="m58.3 641.8h948.8"/>
    <path d="m58.3 540.6h948.8"/>
   </g>
  </g>
  <g stroke="#000">
   <g stroke-linejoin="round">
    <path d="m243.4 415.8 60.6-31.6" stroke-width="5.625"/>
    <path d="m278.8 398-35.9 18.1c-4.8 2.4-7.7 5.2-8.3 6.2-1.9 3.1-1.1 8.1 3.9 8.6 3 .3 9.7-4.2 11-5 50.8-29 73.5-137 2.1-66.9" stroke-width="5.419139"/>
    <g stroke-width="5.625">
     <path d="m305.7 382.9 33.3 47.9"/>
     <path d="m305.7 382.9 24 48"/>
     <path d="m315.2 383 23.8 47.9"/>
     <path d="m311.3 382.8 24 48"/>
    </g>
   </g>
   <path d="m308 381.9h7.1" stroke-width="3.75"/>
   <path d="m331.4 431.8h7.1" stroke-width="3.75"/>
   <g stroke-linejoin="round" stroke-width="5.625">
    <path d="m339 430.8s73.8-80.4 85.5-86.4"/>
    <path d="m424.5 344.4c7.9-5.7 17.5-8.6 25.5-8.8 14.8-.4 24.7 8.4 10.2 26.3-27.4 33.8-46.2 51.6-40 62.6"/>
    <path d="m420.3 424.5c4.2 9.5 18.7 7.2 35.5 3.4l32.2-7.4"/>
    <path d="m488 420.5c44.9-10.8 105.8-21.2 116.9-21.1 14.2.2 18.6 33.2 35.4 32.7 18.5-.5 27.6-23.6 63.6-84.5"/>
    <path d="m693.8 352.7c32.9 8.2 43-1.7 63.4-16.7l21 46.7"/>
    <path d="m778.2 382.7 49.7-39.1"/>
    <path d="m702.6 336.9c1 .1 1.8.3 2.5.7.2.1.4.2.6.4 1.2.9 1.7 2.6 1 5.2-1.3 5.1-7.1 8-9.8 9-5.7 2-9.8-2.6-6.6-7.6 2-3.1 5.5-6.6 9.7-7.5.3-.1.6-.1.9-.1s.7-.1 1-.1c.8 0 1.6.1 2.4.3"/>
   </g>
  </g>
 </g>
</svg>
