<svg height="210mm" viewBox="0 0 1052.4 744.1" width="297mm" xmlns="http://www.w3.org/2000/svg">
 <g fill="none" stroke-linecap="round">
  <g transform="translate(0 -308.26772)">
   <path d="m57.6 742.2h948.8" stroke="#969696" stroke-width="1.875"/>
   <g stroke="#000" stroke-dasharray="3.75 7.5" stroke-miterlimit="2" stroke-width=".9375">
    <path d="m58.3 844.1h948.8"/>
    <path d="m58.3 641.8h948.8"/>
    <path d="m58.3 540.6h948.8"/>
   </g>
  </g>
  <g stroke="#000">
   <g stroke-linejoin="round" stroke-width="5.625">
    <path d="m346 432 58.2-95.8"/>
    <path d="m681.5 286.3c-12.1.3-25 5.5-40.7 11-61.7 21.3-204.7 70.8-217.6 74-7.5 2.2-19.8 2.7-22.7-6.4-1.6-5.2-.7-14.4 3.8-28.7"/>
    <path d="m681.5 286.3c4.9-.1 8.6 1.6 10.1 4.9 1.2 2.6.9 6.2-1.4 10.6-4.3 8.2-15.5 19.1-37.1 31.5 43.9-17.7 9 23.3-8.5 48.6"/>
   </g>
   <path d="m667.2 478.9h-324" stroke-width="5.625001"/>
  </g>
 </g>
</svg>
