<svg height="210mm" viewBox="0 0 1052.4 744.1" width="297mm" xmlns="http://www.w3.org/2000/svg">
 <g fill="none" stroke-linecap="round">
  <g transform="translate(0 -308.26772)">
   <path d="m57.6 742.2h948.8" stroke="#969696" stroke-width="1.875"/>
   <g stroke="#000" stroke-dasharray="3.75 7.5" stroke-miterlimit="2" stroke-width=".9375">
    <path d="m58.3 844.1h948.8"/>
    <path d="m58.3 641.8h948.8"/>
    <path d="m58.3 540.6h948.8"/>
   </g>
  </g>
  <g stroke="#000" stroke-linejoin="round" stroke-width="5.625">
   <path d="m430.1 385.5 21.8 46 47.8-59.4"/>
   <path d="m499.6 372.1c3.8-4 7.7-9.9 22.9-24.9 16.5-16.5 57.2-18 27.5 31.8l-31.2 52.3"/>
   <path d="m361 431.2 69.1-45.7"/>
   <path d="m604.4 385.1 21.8 46"/>
   <path d="m518.8 431.2 85.6-46.1"/>
   <path d="m626.2 431.1c8.2-7 26.2-29.4 43-30.3 16-.6 21.6 31 32.6 30.7 7.2-.2 12.4-7.6 16.7-13"/>
  </g>
 </g>
</svg>
