<svg height="210mm" viewBox="0 0 1052.4 744.1" width="297mm" xmlns="http://www.w3.org/2000/svg">
 <g fill="none" stroke-linecap="round">
  <g transform="translate(0 -308.26772)">
   <path d="m57.6 742.2h948.8" stroke="#969696" stroke-width="1.875"/>
   <g stroke="#000" stroke-dasharray="3.75 7.5" stroke-miterlimit="2" stroke-width=".9375">
    <path d="m58.3 844.1h948.8"/>
    <path d="m58.3 641.8h948.8"/>
    <path d="m58.3 540.6h948.8"/>
   </g>
  </g>
  <g stroke="#000" stroke-linejoin="round">
   <path d="m645 431.3s29.9-59.2 34.5-70.3c6.6-16.3-3.5-25.4-18.3-24.7-4.1.2-7.4 1-12.2 2.5-7.8 2.8-15.1 6.8-21.8 10.8-10.2 6.3-24.4 14.7-47.1 29-28.5 18-107.3 83.2-81.8 98.7 9.9 5.5 23.1-1.1 49.3-43.2l89.2-152.4" stroke-width="5.624999"/>
   <g stroke-width="5.625">
    <path d="m636.8 281.7c-77.1 59.5-90.6 71.1-102.4 65.4"/>
    <path d="m426 435.6c-33.4 19.3-76.8 76.5-68.3 92.5 4.9 9.2 28.4 7.7 48.3-24.3 8.5-13.7 17.7-31 19.9-61.8 4.4-61.4 30.6-107.8 55.8-106.1 20.5 2.6 7.1 25.2-4.6 33.9-3.8 3.2-24.1 15.1-39.1 16.7"/>
    <ellipse cx="625.57318" cy="-119.90578" rx="4.609393" ry="6.862874" transform="matrix(.72846687 .68508103 -.68508103 .72846687 0 0)"/>
    <path d="m541.1 344.6c-23.6 28.1-90.3 74-115.1 91"/>
   </g>
  </g>
 </g>
</svg>
