<svg height="210mm" viewBox="0 0 1052.4 744.1" width="297mm" xmlns="http://www.w3.org/2000/svg">
 <g fill="none" stroke-linecap="round">
  <g transform="translate(0 -308.26772)">
   <path d="m14.9 742.2h1019.9" stroke="#969696" stroke-width="1.875"/>
   <g stroke="#000" stroke-dasharray="3.75 7.5" stroke-miterlimit="2" stroke-width=".9375">
    <path d="m15.7 844.1h1019.9"/>
    <path d="m15.7 641.8h1019.9"/>
    <path d="m15.7 540.6h1019.9"/>
   </g>
  </g>
  <g stroke="#000">
   <g stroke-linejoin="round">
    <g stroke-width="5.625">
     <path d="m910 260.6-76.7 85.5"/>
     <path d="m923.3 368.8c-13.2 12.2-44.9 50.9-78.9 61.7-5 1.6-8.8 1.7-11.5.6-27.7-10.7 49.3-143.2 89.4-185.7 4.7-5 11.2-10.7 18.9-11.9"/>
     <path d="m910 260.6-82.8 155.6"/>
     <path d="m890.5 291.7-53.8 98.9"/>
    </g>
    <path d="m832.6 429.7c-7.4-6.7-3-16.4 2.6-27.7" stroke-width="3.75"/>
    <g stroke-width="5.625">
     <path d="m918.3 251-35.7 61.7"/>
     <path d="m872.6 313.9c-16.6 26.2-36.9 57.9-43 89.1"/>
    </g>
   </g>
   <path d="m870 322.2-36.6 76.4" stroke-width="3.75"/>
   <g stroke-linejoin="round" stroke-width="5.625">
    <path d="m833.3 346.1c-26.9 28.2-73.4 67.6-89.1 75.9-9.1 4.8-17.3 7.6-20.1 8.5-55 17.3 33.8-138.4 77.9-185.1 4.7-5 11.2-10.7 18.9-11.9"/>
    <path d="m923.3 368.8 35-32.7 20 47.9"/>
    <path d="m978.3 384 47.7-38.6"/>
    <path d="m28.7 359.7c24.3-33 69.8-34.2 37.2 20l-31.5 52.1 133.4-143.1"/>
    <path d="m167.8 288.7-42.4 73.1c-14.1 24.3 28.4 36.7 50.1-1.5"/>
    <path d="m232.6 358.8c15.9-32 75.6-30.6 48.2 3.3-27.4 33.8-47.1 52.6-39.4 63.9 9 13.2 36.1 1.2 49.7-14.9l61.1-75.1 22.3 49.7"/>
    <path d="m496.5 395.4 12.7-14.8 20.4-23.9"/>
    <path d="m476.9 335c-15.1 25.8-30.2 51.6-45.2 77.5-11.9 20.5 10 23.2 29 16.4 10.8-4.3 24.4-20.8 35.8-33.5"/>
    <path d="m529.6 356.7c13.2-14.6 61.6-72.9 61.6-72.9l-55.8 97.2 49.7-31"/>
    <path d="m647.7 386.2-23.6 45.3"/>
   </g>
  </g>
 </g>
</svg>
