<svg height="210mm" viewBox="0 0 1052.4 744.1" width="297mm" xmlns="http://www.w3.org/2000/svg">
 <g fill="none" stroke-linecap="round">
  <g transform="translate(0 -308.26772)">
   <path d="m57.6 742.2h948.8" stroke="#969696" stroke-width="1.875"/>
   <g stroke="#000" stroke-dasharray="3.75 7.5" stroke-miterlimit="2" stroke-width=".9375">
    <path d="m58.3 844.1h948.8"/>
    <path d="m58.3 641.8h948.8"/>
    <path d="m58.3 540.6h948.8"/>
   </g>
  </g>
  <g stroke="#000" stroke-linejoin="round">
   <ellipse cx="93.094864" cy="650.8587" rx="25.728558" ry="20.371416" stroke-width="5.625" transform="matrix(.79083574 -.61202846 .61202846 .79083574 0 0)"/>
   <path d="m521 397.9-58.3 41.7" stroke-width="5.624959"/>
   <g stroke-width="5.624999">
    <path d="m440.6 352.9c8.1-7.6 17.5-17.9 32-19.7 3.3-.4 6.4-.1 9 .9 2.8 1 5 2.6 6.6 4.7 3.7 5.2 3.1 13.5-5.1 23.4-25.8 28.5-52.5 47.8-39.5 64 3.9 4.9 10.8 6.2 19.9 5.8 9.7-.3 13.4 2.8 19.4 3.6"/>
    <path d="m627.4 460.7c-11.6 11.5-22.2 22.3-39.6 23-6.1 0-11.1-2-13-6.3-6.1-13.6 12.1-30 39.4-63.9 6.6-8.1 8-14.4 6.2-18.8-2.1-5.2-8.7-7.7-16.5-7.6-8.2.1-17.1 4.8-24.8 11.3-17.8 14.9-28.1 31.9-45.8 32.3-10.5.2-16-7.2-12.4-32.9"/>
   </g>
  </g>
 </g>
</svg>
