<svg height="210mm" viewBox="0 0 1052.4 744.1" width="297mm" xmlns="http://www.w3.org/2000/svg">
 <g fill="none" stroke-linecap="round">
  <g transform="translate(0 -308.26772)">
   <path d="m57.6 742.2h948.8" stroke="#969696" stroke-width="1.875"/>
   <g stroke="#000" stroke-dasharray="3.75 7.5" stroke-miterlimit="2" stroke-width=".9375">
    <path d="m58.3 844.1h948.8"/>
    <path d="m58.3 641.8h948.8"/>
    <path d="m58.3 540.6h948.8"/>
   </g>
  </g>
  <path d="m529.1 359.6s-53.4 44.5-95.2 71.2" stroke="#000001" stroke-linejoin="round" stroke-width="5.625"/>
  <g stroke="#000">
   <g stroke-width="5.625">
    <path d="m529.1 359.6c14.2-11.3 72.4-63.4 105.2-95 34.7-33.4 59-63.9 42.5-69.6-14.6-5-42.6 12.2-89.8 90.1-60.3 104.2-35 118.2-1.1 97.4" stroke-linejoin="round"/>
    <path d="m585.9 382.6c2.5-.7 12.4-9.2 22.4-19.3" stroke-linejoin="round"/>
    <path d="m670.9 280.4c-10.4 17-53.4 73.7-62.6 83"/>
   </g>
   <g stroke-linejoin="round">
    <path d="m670.9 280.4s32-47.1 35.3-51.6c11-14.9 21-29.2 40-29.8 14.7-.5 19.7 30.4 38.7 29.3 10.5-.6 17-6.2 25.9-17.6" stroke-width="5.625"/>
    <path d="m388.2 429.8c6-1 77.9-41.2 107.5-63.5 7.2-5.2 21.1-17.2 17.7-27.3-2.8-7.4-34.9-1-53.4 35.5l-26.2 56.2" stroke-width="5.625"/>
    <path d="m409.6 336.9-47.8 86.7" stroke-width="6.5625"/>
    <path d="m305.2 431.6 95.1-95.1-39 72.4c-8.4 15.5 5 26.1 21.5 22.2 1.8-.1 3.6-.6 5.5-1.3" stroke-width="5.625"/>
    <path d="m404.9 336.8-44.7 81.9" stroke-width="6.5625"/>
   </g>
   <path d="m366.7 417.4c-1.6 4.2-2.6 6.5.8 11.9" stroke-width="3.75"/>
   <path d="m409.6 336.9-9.3-.4" stroke-linejoin="round" stroke-width="6.5625"/>
  </g>
 </g>
</svg>
