<svg height="210mm" viewBox="0 0 1052.4 744.1" width="297mm" xmlns="http://www.w3.org/2000/svg">
 <g fill="none" stroke-linecap="round">
  <g transform="translate(0 -308.26772)">
   <path d="m57.6 742.2h948.8" stroke="#969696" stroke-width="1.875"/>
   <g stroke="#000" stroke-dasharray="3.75 7.5" stroke-miterlimit="2" stroke-width=".9375">
    <path d="m58.3 844.1h948.8"/>
    <path d="m58.3 641.8h948.8"/>
    <path d="m58.3 540.6h948.8"/>
   </g>
  </g>
  <g stroke-linejoin="round" stroke-width="5.625">
   <path d="m712.7 389.7s-33.4 23.4-63 43.5c-30.8 18-119.9 82.9-91.2 99.1 7.1 3.8 23.5-7.5 51.1-41.6 24.4-32.4 54.6-73.9 69.3-116.9 7.5-21.6 4.8-37-7.8-37.8-12.5-.8-37.4 30-52.9 50.2-22.1 28.8-34.1 45.8-53.3 45-15.4-.5-22.4-27-33-51.8-9.4-22.2-21.6-43.1-45-42.9-22.6 1.4-42.4 24.1-56.8 39.5-12.1 13-24.7 29.1-38.9 42.2" stroke="#010000"/>
   <g stroke="#000">
    <path d="m426.8 234.5-77.4 170c-5.8 12.8 2.1 25.2 14.3 26.5 8.3.9 18.6-4.9 27.7-12.9"/>
    <path d="m490.2 336.6c12.6.1 28 16.8 38.6 46.9 9.1 25.7 19 48.7 38.4 47.7"/>
    <path d="m494.1 337.1c16.2 2.5 31.7 14.4 43.2 44.1 9.2 23.9 10.5 44 22.6 48.8"/>
   </g>
  </g>
 </g>
</svg>
