<svg height="210mm" viewBox="0 0 1052.4 744.1" width="297mm" xmlns="http://www.w3.org/2000/svg">
 <g fill="none" stroke-linecap="round">
  <g transform="translate(0 -308.26772)">
   <path d="m57.6 742.2h948.8" stroke="#969696" stroke-width="1.875"/>
   <g stroke="#000" stroke-dasharray="3.75 7.5" stroke-miterlimit="2" stroke-width=".9375">
    <path d="m58.3 844.1h948.8"/>
    <path d="m58.3 641.8h948.8"/>
    <path d="m58.3 540.6h948.8"/>
   </g>
  </g>
  <g stroke="#000" stroke-linejoin="round" stroke-width="5.625">
   <path d="m446.1 431.3c51.3-31.7 166.3-126.6 141.8-147.7-11.7-10-38.4 14.6-85.5 92.5-63 107.5-40 132.4 9.1 92"/>
   <path d="m511.5 468c22.1-19.4 23.8-22.7 32.5-31.5"/>
   <path d="m388.3 423.6c9.5-8 35.7-39.5 35.7-39.5l22.1 47.1"/>
   <path d="m280.8 431.3s44.6-32.4 61.8-29.2 16 46.2 45.6 21.5"/>
   <path d="m324.4 405.8c6.5-3 18.6-1.9 26.4 15.3 5.6 12.2 13.1 9.9 21.6 10.1"/>
   <path d="m338.9 404.2c6.7 5.9 6.3.5 21.2 23.1"/>
   <path d="m544 436.5 21.7 49.3"/>
   <path d="m634.8 400c19.3.6 19.1 31.1 37.1 31.3"/>
   <path d="m671.9 431.3c7.5.2 15.4-5.2 23.1-11.6"/>
   <path d="m565.6 485.8c28.9-47.1 47.5-85.4 69.1-85.8"/>
  </g>
 </g>
</svg>
