<svg height="210mm" viewBox="0 0 1052.4 744.1" width="297mm" xmlns="http://www.w3.org/2000/svg">
 <g fill="none" stroke-linecap="round">
  <g transform="translate(0 -308.26772)">
   <path d="m57.6 742.2h948.8" stroke="#969696" stroke-width="1.875"/>
   <g stroke="#000" stroke-dasharray="3.75 7.5" stroke-miterlimit="2" stroke-width=".9375">
    <path d="m58.3 844.1h948.8"/>
    <path d="m58.3 641.8h948.8"/>
    <path d="m58.3 540.6h948.8"/>
   </g>
  </g>
  <g stroke="#000">
   <g stroke-linejoin="round">
    <path d="m542.5 342.3c19.3.6 20.9 36.8 39 36.9" stroke-width="5.625"/>
    <path d="m447.3 431.4c36.5-35.8 71.5-88.6 95.2-89.1" stroke-width="5.625"/>
    <path d="m389.2 336.3-38.9 72.9c-7.2 13.5 1.8 23.1 15 23 36.2-3.4 54.4-56.7 83.6-83.6 7.9-7.2 15.8-11 24-11.1 12.1-.1 18.2 9.7 8.6 30.8-11 21.7-34.1 63.1-34.1 63.1" stroke-width="5.624999"/>
   </g>
   <path d="m641.5 336.3c-33.5 30.3-45.9 43.5-60 42.8" stroke-width="5.624999"/>
   <path d="m641.5 336.3 21.3 42.5" stroke-linejoin="round" stroke-width="5.625"/>
  </g>
 </g>
</svg>
