<svg height="210mm" viewBox="0 0 1052.4 744.1" width="297mm" xmlns="http://www.w3.org/2000/svg">
 <g fill="none" stroke-linecap="round">
  <g transform="translate(0 -308.26772)">
   <path d="m57.6 742.2h948.8" stroke="#969696" stroke-width="1.875"/>
   <g stroke="#000" stroke-dasharray="3.75 7.5" stroke-miterlimit="2" stroke-width=".9375">
    <path d="m58.3 844.1h948.8"/>
    <path d="m58.3 641.8h948.8"/>
    <path d="m58.3 540.6h948.8"/>
   </g>
  </g>
  <g stroke-linejoin="round" stroke-width="5.625">
   <path d="m221 433.9c13.7-5.2 177.5-198.3 177.5-198.3" stroke="#0a0000"/>
   <path d="m221 433.9c-13.4 6.8-42 27.7-55.6 41.5-23.8 24.1-34.5 45.8-31.7 53 1.1 2.9 17.7 21.8 57.3-41.8l89.2-152.4" stroke="#060000"/>
   <g stroke="#000">
    <path d="m397.4 236-99.8 172c-9.2 15.8 3.3 25.3 21.6 21.8 15.9-3 54-35.4 67.2-48.2"/>
    <path d="m386.7 382c1-.8-25.9 49.6-25.9 49.6"/>
    <path d="m393.6 384.8-25.3 46.6"/>
    <path d="m372.8 431.3-12 .2"/>
    <path d="m400.5 381.8-27.7 49.5"/>
    <path d="m400.5 381.8-14.1-.1"/>
    <path d="m391.8 382.9-25.3 46.6"/>
    <path d="m429.6 442.9c-34.9 27.8-66.5 73.3-60.4 87.5 5.7 13.2 69.5-28.4 95.8-138.9 17.5-80 53.4-142.9 90.7-155.8"/>
    <path d="m429.6 442.9c7.1-6.6 297.8-97.4 297.8-97.4"/>
    <path d="m727.4 345.6c5.9-2.8 18.6-5.8 32.9-15.5 11-7.4 43-34.6 57.1-48.9 40.5-41.5 76.4-85.3 56.8-92.1-14.6-5-40.3 8.9-87.4 86.8-44 76.1-42 105.6-24.9 107.4 3.7.4 9.2-.3 15.1-2.1"/>
    <path d="m776.9 381.2c19.4-6 68.7-44.8 92.8-45.8 24-.8 32.4 41.1 48.8 40.7 10.8-.3 18.5-10 25.1-17.1"/>
    <path d="m372.8 431.3c7.1-6.6 136.2-166.1 159-180.5"/>
   </g>
  </g>
 </g>
</svg>
