<svg height="210mm" viewBox="0 0 1052.4 744.1" width="297mm" xmlns="http://www.w3.org/2000/svg">
 <g fill="none" stroke-linecap="round">
  <g transform="translate(0 -308.26772)">
   <path d="m57.6 742.2h948.8" stroke="#969696" stroke-width="1.875"/>
   <g stroke="#000" stroke-dasharray="3.75 7.5" stroke-miterlimit="2" stroke-width=".9375">
    <path d="m58.3 844.1h948.8"/>
    <path d="m58.3 641.8h948.8"/>
    <path d="m58.3 540.6h948.8"/>
   </g>
  </g>
  <g stroke="#000">
   <path d="m728.9 234.9s-75.7 139.3-102.3 171.3c-10.4 12.4-24.1 25.1-37.9 24.8-25.4-.5-19.9-27.8-42-31" stroke-width="5.624999"/>
   <g stroke-linejoin="round" stroke-width="5.625">
    <path d="m301 419.9c9 5.4 228.4-20.8 245.8-19.9"/>
    <ellipse cx="504.38843" cy="93.816277" rx="4.609393" ry="6.862875" transform="matrix(.72846687 .68508103 -.68508103 .72846687 0 0)"/>
    <path d="m283.8 431.9c3.5-1.3 6.9-2 10.1-3.8 2.2-1.2 4.3-2.6 6.3-4 13.5-9.6 24.3-23.7 34.5-39.1l30.9-50"/>
   </g>
  </g>
 </g>
</svg>
