<svg height="210mm" viewBox="0 0 1052.4 744.1" width="297mm" xmlns="http://www.w3.org/2000/svg">
 <g fill="none" stroke-linecap="round">
  <g transform="translate(0 -308.26772)">
   <path d="m57.6 742.2h948.8" stroke="#969696" stroke-width="1.875"/>
   <g stroke="#000" stroke-dasharray="3.75 7.5" stroke-miterlimit="2" stroke-width=".9375">
    <path d="m58.3 844.1h948.8"/>
    <path d="m58.3 641.8h948.8"/>
    <path d="m58.3 540.6h948.8"/>
   </g>
  </g>
  <g stroke="#000" stroke-linejoin="round" stroke-width="5.625">
   <path d="m418.8 232.9-111.2 197.6"/>
   <path d="m575.9 354s68.3-23.2 97.1-34c9.2-3.5 35.4-23.7 40.8-29.9 15.2-17.5 23.5-35.3 19.4-45.4-2.2-5.5-6.6-8.4-17.7-8.7-15.4-.4-42.9 10.9-90.1 88.8-42 71.5-49 100.5-27.9 107"/>
   <path d="m597.5 431.8c18.6 2.5 53.8-29.5 70.4-29.7 18.6.3 10.7 29.8 25.3 29.2 7.6-.3 12.7-7.8 15.6-12.6"/>
   <path d="m307.6 430.6 268.3-76.6"/>
  </g>
 </g>
</svg>
