<svg height="210mm" viewBox="0 0 1052.4 744.1" width="297mm" xmlns="http://www.w3.org/2000/svg">
 <g fill="none" stroke-linecap="round">
  <g transform="translate(0 -308.26772)">
   <path d="m57.6 742.2h948.8" stroke="#969696" stroke-width="1.875"/>
   <g stroke="#000" stroke-dasharray="3.75 7.5" stroke-miterlimit="2" stroke-width=".9375">
    <path d="m58.3 844.1h948.8"/>
    <path d="m58.3 641.8h948.8"/>
    <path d="m58.3 540.6h948.8"/>
   </g>
  </g>
  <g stroke="#000">
   <g stroke-linejoin="round">
    <g stroke-width="5.625">
     <path d="m407.1 483.8c9.3-.3 17.8-6.8 24.2-17 5.2-8.2 6.5-19.5 10.8-30.3 2.7-6.8 7.3-21.5 14.6-29.8 10.1-11.5 21.7-18.9 21.7-18.9"/>
     <path d="m417.7 336.2-38.4 72.5c-8.2 15.6 5 26.1 21.5 22.2 10.1-2.1 46.3-23.3 76-41.9"/>
     <path d="m467.5 396.1c-14.4 12.2-18.6 35.8-22.4 47.9-3.5 11.7-12.1 25.9-24.2 34.7"/>
     <path d="m459.9 403.3c-7.6 7.8-17.8 21.1-21.8 35.4-4.1 14.4-4.3 33.3-22.5 43.1"/>
    </g>
    <path d="m540.5 417.1c-24.4 29.4-45.3 43.7-38 59.3 2.6 5.6 9 7.5 16.3 7.4 23-.3 46.4-22.6 64-35.8" stroke-width="5.624999"/>
    <path d="m658.5 286.9-80.3 166.3" stroke-width="5.624999"/>
    <ellipse cx="191.39204" cy="731.08228" rx="25.728558" ry="20.371418" stroke-width="5.625" transform="matrix(.79083574 -.61202846 .61202846 .79083574 0 0)"/>
   </g>
   <path d="m621.3 450c.3 9.3-.4 14.6-6.3 21.9-3.1 3.8-7.2 7.1-12.7 9.7" stroke-width="5.624961"/>
   <path d="m617.7 444.8c5.4 18.3-4.6 29.6-17.3 35.9" stroke-width="6.599955"/>
   <path d="m601.9 477.7c-7.1 4.1-13.9 5.6-20.5.2" stroke-width="2.849979"/>
   <path d="m603.9 439.9c8.3 0 13.2 3.6 13.4 13.9" stroke-width="2.849979"/>
   <path d="m540.5 417.1c8.2-9.9 8.8-18.2 5.1-23.4-1.5-2.2-3.8-3.8-6.6-4.7-2.6-.9-5.7-1.2-9-.9-15 2.5-33 15.7-56 33.8-32.5 25.5-66.7 55.9-68.8 58.1-1.7 1.9-.4 4.1 1.9 3.8" stroke-linejoin="round" stroke-width="5.625"/>
  </g>
 </g>
</svg>
