<svg height="210mm" viewBox="0 0 1052.4 744.1" width="297mm" xmlns="http://www.w3.org/2000/svg">
 <g fill="none" stroke-linecap="round">
  <g transform="translate(0 -308.26772)">
   <path d="m57.6 742.2h948.8" stroke="#969696" stroke-width="1.875"/>
   <g stroke="#000" stroke-dasharray="3.75 7.5" stroke-miterlimit="2" stroke-width=".9375">
    <path d="m58.3 844.1h948.8"/>
    <path d="m58.3 641.8h948.8"/>
    <path d="m58.3 540.6h948.8"/>
   </g>
  </g>
  <g stroke="#000" stroke-linejoin="round">
   <path d="m445.3 406.2c-17.9 16.8-31.3 24.5-40.9 25.4-46.8 4.7-.5-151.6 83.3-196.7" stroke-width="5.624959"/>
   <path d="m445.3 406.2c30.1-29.5 103.3-133.8 144.1-162.6" stroke-width="5.624959"/>
   <path d="m563.6 425.6c-10.8 5.9-38 6.2-45.5 6-42.8-1.9 3.2-152.5 85.6-196.9" stroke-width="5.625"/>
   <path d="m603.7 234.7c-36.3 29.6-59.8 62.6-75.9 97.1-9.8 21-16.3 39.9-22.8 64.2" stroke-width="5.624999"/>
   <path d="m507.9 426.9c-12.2-16.3 1.7-55.7 17.6-93.6 16-38 48.8-80.2 74.4-95.9" stroke-width="4.687499"/>
   <path d="m525 338c-8.2 18.2-14.3 37-18 50.4-2.9 10.3-4.3 21.6-2.6 29.9 1.3 6.5 4.9 11.2 10 12.5" stroke-width="5.624999"/>
   <ellipse cx="698.30463" cy="-80.623077" rx="4.609393" ry="6.862874" stroke-width="5.625" transform="matrix(.72846687 .68508103 -.68508103 .72846687 0 0)"/>
   <path d="m560.7 425.8c5 4.5 11.7 5.8 18.3 5.5 9.2-.4 18.4-3.7 22.5-5.4 21.8-8.6 43.4-24.5 56.7-25.1 16.8-.7 20.9 30.2 34.2 30.4 8.5.1 14.1-6.5 18.3-10.8" stroke-width="5.624999"/>
  </g>
 </g>
</svg>
