<svg height="210mm" viewBox="0 0 1052.4 744.1" width="297mm" xmlns="http://www.w3.org/2000/svg">
 <g fill="none" stroke-linecap="round">
  <g transform="translate(0 -308.26772)">
   <path d="m57.6 742.2h948.8" stroke="#969696" stroke-width="1.875"/>
   <g stroke="#000" stroke-dasharray="3.75 7.5" stroke-miterlimit="2" stroke-width=".9375">
    <path d="m58.3 844.1h948.8"/>
    <path d="m58.3 641.8h948.8"/>
    <path d="m58.3 540.6h948.8"/>
   </g>
  </g>
  <g stroke="#000">
   <g stroke-width="5.625">
    <ellipse cx="408.76685" cy="769.86639" rx="25.728558" ry="20.371416" stroke-linejoin="round" transform="matrix(.79083574 -.61202846 .61202846 .79083574 0 0)"/>
    <path d="m784.4 340.1s-98 44-78.6 40.3"/>
    <path d="m868.8 183.2-95.9 169.9"/>
   </g>
   <g stroke-linejoin="round">
    <path d="m531.9 396.1a19.2 25.1 41.6 0 1 -14.3 31.3 19.2 25.1 41.6 0 1 -27.6-6.8 19.2 25.1 41.6 0 1 14.3-31.3 19.2 25.1 41.6 0 1 27.6 6.8z" stroke-width="5.625"/>
    <path d="m762 294.2c-3.5 30.5-22.5 59.5-39.7 77.4" stroke-width="5.638243"/>
    <path d="m705.7 380.4c4.9-1 9.7-4.3 11-5 34.6-19.9 56.2-76.4 43.7-88.3-1.5-1.4-4-2.2-5.8-2.3-2.5-.2-8-.7-18.7 3.7" stroke-width="5.625001"/>
    <path d="m725 364.9c-4.9 5.9-8.2 9.5-15.8 13" stroke-width="2.819122"/>
    <path d="m763.6 295.2c-1.9 20.3-22.8 56.1-45.6 79.4" stroke-width="5.638243"/>
    <path d="m745.9 286.7c11.9-2.6 21 .9 6.9 36.7" stroke-width="2.819122"/>
    <path d="m736 288.4-228 99.1" stroke-width="5.625"/>
    <path d="m319.6 384.5c48.1-9.2 58-34.4 55.1-43.4-3.2-9.6-26.7-7-51.4 33.8-26.7 43.6-22.3 56.6-10.9 56.6 24.3 0 69.6-43.3 95.5-47.3" stroke-width="5.625"/>
    <path d="m336.4 480c11.3-3.6 29-14.3 32.2-40.1s20.9-53.1 39.1-55.8" stroke-width="5.625001"/>
   </g>
  </g>
 </g>
</svg>
