<svg height="210mm" viewBox="0 0 1052.4 744.1" width="297mm" xmlns="http://www.w3.org/2000/svg">
 <g fill="none" stroke-linecap="round">
  <g transform="translate(0 -308.26772)">
   <path d="m57.6 742.2h948.8" stroke="#969696" stroke-width="1.875"/>
   <g stroke="#000" stroke-dasharray="3.75 7.5" stroke-miterlimit="2" stroke-width=".9375">
    <path d="m58.3 844.1h948.8"/>
    <path d="m58.3 641.8h948.8"/>
    <path d="m58.3 540.6h948.8"/>
   </g>
  </g>
  <g stroke-linejoin="round" stroke-width="5.625">
   <g stroke="#000">
    <path d="m679.5 335c3.3.3 6.1 1 8.4 2.2.8.4 1.5.8 2.1 1.3 4.1 3.2 5.6 8.6 3.3 17.3-4.5 16.9-23.6 26.6-32.7 30.1-18.8 6.8-32.8-8.7-22-25.4 6.7-10.4 18.4-22 32.2-24.9.9-.2 1.9-.3 2.8-.5 1.1-.1 2.3-.2 3.5-.2 2.7 0 5.4.3 8.1 1.1"/>
    <path d="m667.2 336.5-240.7 93.1"/>
    <path d="m469.6 338.2c-52.1 13.6-97.1 118.6-33.5 87.4"/>
   </g>
   <path d="m377.7 336.4-39 72.4c-8.4 15.5 5 26.1 21.5 22.2 2.8-.7 10.2-5.2 15-8.6 5.1-3.6 60.4-63.8 66.4-68.2" stroke="#000700"/>
   <path d="m656.8 341.4c7.1-4.5 38-21.3 46.4-26.4 12.8-7.8 26-14.6 36.2-15.1 16-.6 21.6 31 32.6 30.7 7.2-.2 12.4-7.6 16.7-13" stroke="#000"/>
  </g>
 </g>
</svg>
