<svg height="210mm" viewBox="0 0 1052.4 744.1" width="297mm" xmlns="http://www.w3.org/2000/svg">
 <g fill="none" stroke-linecap="round">
  <g transform="translate(0 -308.26772)">
   <path d="m57.6 742.2h948.8" stroke="#969696" stroke-width="1.875"/>
   <g stroke="#000" stroke-dasharray="3.75 7.5" stroke-miterlimit="2" stroke-width=".9375">
    <path d="m58.3 844.1h948.8"/>
    <path d="m58.3 641.8h948.8"/>
    <path d="m58.3 540.6h948.8"/>
   </g>
  </g>
  <g stroke="#000" stroke-linejoin="round">
   <g stroke-width="5.625">
    <path d="m553.9 336.4c-47.4 13.6-86.2 107.4-43.1 95.1 13.1-4.3 20.6-7.8 35.9-19.2"/>
    <path d="m546.8 412.4c13.1-8.6 23.7-20 36.9-20.3 5.5-.9 9.7 2.1 13 8.5 6.5 12.7 4 18.2 12.3 27.2 15.9 17.3 43.8-27.8 34.5-34.3-6.3-4.4-25.9 3.2-49.4 42-28.9 47.3-22.2 55-4.6 52.3 13.3-2 40.2-9.6 63.4-28.1"/>
    <path d="m652.8 459.7 27.4-23"/>
   </g>
   <path d="m480.3 390.1c5.7-4 51.3-43.8 60.3-47.8" stroke-width="6.061957"/>
   <g stroke-width="5.625">
    <path d="m480.3 390.1c-18.7 14.5-47 38-65.8 40.8-22.1 3-35.6-13.4-27.6-40.8"/>
    <path d="m680.2 436.7 28.7 41.3c12.2 16.6 12 33 10.1 43.7-2.5 17.4-5.1 27-33 51.5"/>
   </g>
  </g>
 </g>
</svg>
