<svg height="210mm" viewBox="0 0 1052.4 744.1" width="297mm" xmlns="http://www.w3.org/2000/svg">
 <g fill="none" stroke-linecap="round">
  <g transform="translate(0 -308.26772)">
   <path d="m57.6 742.2h948.8" stroke="#969696" stroke-width="1.875"/>
   <g stroke="#000" stroke-dasharray="3.75 7.5" stroke-miterlimit="2" stroke-width=".9375">
    <path d="m58.3 844.1h948.8"/>
    <path d="m58.3 641.8h948.8"/>
    <path d="m58.3 540.6h948.8"/>
   </g>
  </g>
  <g stroke="#000" stroke-linejoin="round" stroke-width="5.625">
   <path d="m526 357.7c-21.8 18.5-110.7 100.7-125.6 117.2-21.4 23.7-34.2 50.2-25.6 56.5 15.8 11.6 35.8-11.1 50.6-36.2 18.6-31.4 45.6-101.5 53.1-131.4 22-88.4 71.4-137 88.3-126.6 8.1 5-2.5 38.4-28.2 63.9-25.7 25.6-72.9 55.6-101.2 71.9"/>
   <path d="m548.5 430c-42.3 7 64-27.9 84.6-29.4 16.5.2 15.8 33.1 33.8 30 5-.9 11.5-5.3 21-13.7"/>
   <path d="m526 357.7c38.1-37.1 89.5-96.6 110.6-114.4 83-65-28.8 162.3-88.2 186.6"/>
   <path d="m437.5 373.1c-42.2 25.5-104.3 61-76.9 58.1 3.5-1.3 6.9-2 10.1-3.8 2.2-1.2 4.3-2.5 6.3-4 13.5-9.6 24.3-23.7 34.5-39.1l29-50"/>
  </g>
 </g>
</svg>
