<svg height="210mm" viewBox="0 0 1052.4 744.1" width="297mm" xmlns="http://www.w3.org/2000/svg">
 <g fill="none" stroke-linecap="round">
  <g transform="translate(0 -308.26772)">
   <path d="m57.6 742.2h948.8" stroke="#969696" stroke-width="1.875"/>
   <g stroke="#000" stroke-dasharray="3.75 7.5" stroke-miterlimit="2" stroke-width=".9375">
    <path d="m58.3 844.1h948.8"/>
    <path d="m58.3 641.8h948.8"/>
    <path d="m58.3 540.6h948.8"/>
   </g>
  </g>
  <g stroke="#000" stroke-linejoin="round">
   <path d="m211.4 336.2c-45.5 11.9-86.6 93.7-53.4 95.6 5.7.3 13.3-1 23.1-5" stroke-width="5.625"/>
   <path d="m182.3 426.5c9.6-3.6 21.7-8.8 28.8-12.5 11.2-5.8 45-17.8 45-17.8" stroke-width="5.625"/>
   <path d="m256.1 396.3c9.7-3.2 20.1-5.3 30.9-5.6 48.5-1.3 61.7 42 96 40.1 72.3-4 155.9-146.3 210.6-180.5" stroke-width="5.25488"/>
   <g stroke-width="5.625">
    <path d="m473.7 431.1 60.6-108.1c26.4-48.6 52-72.9 91.2-88.5"/>
    <path d="m473.7 431.1 352.1-96"/>
    <path d="m825.8 335.1-39 72.4c-8.4 15.5 5 26.1 21.5 22.2 10.1-2.1 62.4-24.6 94.7-47.9"/>
   </g>
  </g>
 </g>
</svg>
