<svg height="210mm" viewBox="0 0 1052.4 744.1" width="297mm" xmlns="http://www.w3.org/2000/svg">
 <g fill="none" stroke-linecap="round">
  <g transform="translate(0 -308.26772)">
   <path d="m57.6 742.2h948.8" stroke="#969696" stroke-width="1.875"/>
   <g stroke="#000" stroke-dasharray="3.75 7.5" stroke-miterlimit="2" stroke-width=".9375">
    <path d="m58.3 844.1h948.8"/>
    <path d="m58.3 641.8h948.8"/>
    <path d="m58.3 540.6h948.8"/>
   </g>
  </g>
  <g stroke-linejoin="round" stroke-width="5.625">
   <path d="m741.8 349.3c-20 20.8-122 114.3-137.6 134.4-16.1 20.7-24.6 41-17.1 46.4 15.8 11.6 35.8-11.1 50.6-36.2 18.6-31.4 45.6-101.5 53.1-131.4 22-88.4 71.4-137 88.3-126.6 21.9 36.6-64.5 85-79.5 97.5" stroke="#000"/>
   <path d="m741.8 349.3c23.9-24.8 39.2-38.9 56.7-52.9 83-65-3.8 149.2-90 186.6" stroke="#000"/>
   <path d="m238.1 431.9 428.4-152" stroke="#000001"/>
   <path d="m291.2 335.3c50.3-13.7 101.9-81.2 87.3-98.5-9.8-11.7-36.5 12.9-83.2 89.9l-57.3 105.2" stroke="#000"/>
  </g>
 </g>
</svg>
