<svg height="210mm" viewBox="0 0 1052.4 744.1" width="297mm" xmlns="http://www.w3.org/2000/svg">
 <g fill="none" stroke-linecap="round">
  <g transform="translate(0 -308.26772)">
   <path d="m57.6 742.2h948.8" stroke="#969696" stroke-width="1.875"/>
   <g stroke="#000" stroke-dasharray="3.75 7.5" stroke-miterlimit="2" stroke-width=".9375">
    <path d="m58.3 844.1h948.8"/>
    <path d="m58.3 641.8h948.8"/>
    <path d="m58.3 540.6h948.8"/>
   </g>
  </g>
  <g stroke="#000">
   <g stroke-linejoin="round">
    <path d="m410.6 359.6c24.3-33 69.9-34.2 37.2 20l-31.5 52.1" stroke-width="5.625"/>
    <g stroke-width="6.5625">
     <path d="m538.8 336.7-46.7 80.9"/>
     <path d="m533.8 336.9-43.5 80.7"/>
    </g>
   </g>
   <path d="m496.1 413.4c-3.1 6.1-3.4 13.5 3.2 15.5" stroke-width="3.75"/>
   <g stroke-linejoin="round" stroke-width="5.625">
    <path d="m538.9 336.2h-9.2"/>
    <ellipse cx="688.06866" cy="-72.921677" rx="4.609393" ry="6.862874" transform="matrix(.72846687 .68508103 -.68508103 .72846687 0 0)"/>
    <path d="m416.3 431.7 113.3-95.4-38.2 71.4c-6.4 12 0 20.9 10.8 22.7 1.3.2 2.7.3 4.2.3 16.8.8 38.1-1.8 46.1-7.7"/>
   </g>
  </g>
 </g>
</svg>
