<svg height="210mm" viewBox="0 0 1052.4 744.1" width="297mm" xmlns="http://www.w3.org/2000/svg">
 <g fill="none" stroke-linecap="round">
  <g transform="translate(0 -308.26772)">
   <path d="m57.6 742.2h948.8" stroke="#969696" stroke-width="1.875"/>
   <g stroke="#000" stroke-dasharray="3.75 7.5" stroke-miterlimit="2" stroke-width=".9375">
    <path d="m58.3 844.1h948.8"/>
    <path d="m58.3 641.8h948.8"/>
    <path d="m58.3 540.6h948.8"/>
   </g>
  </g>
  <g stroke="#000">
   <path d="m635.6 264.8-96.4 166.7" stroke-width="5.625"/>
   <g stroke-linejoin="round">
    <ellipse cx="328.97" cy="580.14056" rx="25.728558" ry="20.371416" stroke-width="5.625" transform="matrix(.79083574 -.61202846 .61202846 .79083574 0 0)"/>
    <path d="m546.8 381.4c-25.2 18.7-101.3 47.5-78.2 50.5 3 .3 9.7-4.2 11-5 48.9-28 71.8-129.3 9.4-73.8-2.3 2.1-17.4 18.4-20 20.9" stroke-width="5.419139"/>
    <g stroke-width="5.638243">
     <path d="m520.7 340.4c2.3 32.7-17.1 62.2-38.1 82.5"/>
     <path d="m523.3 342.7c5.2 34.8-19.9 69.4-45 83.3"/>
     <path d="m516 339.1c3.6 34.1-21.2 69-37.7 86.9"/>
    </g>
    <g stroke-width="2.819121">
     <path d="m508.6 338.8c7.9-3.1 5.9 10.5 5.9 15.8"/>
     <path d="m484.8 416.3c-5.5 6.9-8.3 10.7-14.3 14.1"/>
    </g>
   </g>
  </g>
 </g>
</svg>
