<svg height="210mm" viewBox="0 0 1052.4 744.1" width="297mm" xmlns="http://www.w3.org/2000/svg">
 <g fill="none" stroke-linecap="round">
  <g transform="translate(0 -308.26772)">
   <path d="m57.6 742.2h948.8" stroke="#969696" stroke-width="1.875"/>
   <g stroke="#000" stroke-dasharray="3.75 7.5" stroke-miterlimit="2" stroke-width=".9375">
    <path d="m58.3 844.1h948.8"/>
    <path d="m58.3 641.8h948.8"/>
    <path d="m58.3 540.6h948.8"/>
   </g>
  </g>
  <g stroke="#000">
   <path d="m437.7 433.1c34.8-25.7 166.2-156.4 200.5-199 20.2-25.2 27.1-43.5 15.1-50.4-12.4-7.2-40.7 12.2-87.9 90.1-47.8 82.6-29.2 108-7.8 107.5" stroke-linejoin="round" stroke-width="5.625"/>
   <path d="m437.7 433.1c-26.2 19.3-90.1 90-68.5 99.2 9.1 3.4 35.7-.9 59.3-65.5 15.7-47.2 24.6-110.6 70.3-130.2" stroke-linejoin="round" stroke-width="5.625"/>
   <path d="m723.1 183.1c-84.9 128.9-136.1 202.4-165.5 198.2" stroke-width="5.624999"/>
  </g>
 </g>
</svg>
