<svg height="210mm" viewBox="0 0 1052.4 744.1" width="297mm" xmlns="http://www.w3.org/2000/svg">
 <g fill="none" stroke-linecap="round">
  <g transform="translate(0 -308.26772)">
   <path d="m57.6 742.2h948.8" stroke="#969696" stroke-width="1.875"/>
   <g stroke="#000" stroke-dasharray="3.75 7.5" stroke-miterlimit="2" stroke-width=".9375">
    <path d="m58.3 844.1h948.8"/>
    <path d="m58.3 641.8h948.8"/>
    <path d="m58.3 540.6h948.8"/>
   </g>
  </g>
  <g stroke="#000" stroke-width="5.625">
   <path d="m529 288.5-115.2 95"/>
   <g stroke-linejoin="round">
    <path d="m174.8 386.8c40 3 59.7-35.8 56.6-44.3-5.4-14.5-29.3-4.3-53.1 35-26.3 43-21.5 53.4-8.6 53.7 29.8.8 66.5-51.1 107.8-95.2"/>
    <path d="m298.2 383c38-39.4 76.2-52.8 97.7-46.2 16.1 4.9 25.5 20.6 17.9 46.8"/>
    <path d="m277.5 336.1 20.8 46.9"/>
    <path d="m529 288.5-52.4 95.6 224-47.9 20.3 47.9"/>
    <path d="m789.2 304.2c16.1.5 15.9 25.9 30.9 26"/>
    <path d="m820 330.2c14.8.4 42.6-25.4 55.8-26 15.5-.7 13.4 26.7 28.4 26.3 7.2-.2 11.2-5.8 14.7-8.9"/>
    <path d="m720.9 384.1c27.9-44.8 48.6-79.5 68.2-79.9"/>
   </g>
  </g>
 </g>
</svg>
