<svg height="210mm" viewBox="0 0 1052.4 744.1" width="297mm" xmlns="http://www.w3.org/2000/svg">
 <g fill="none" stroke-linecap="round">
  <g transform="translate(0 -308.26772)">
   <path d="m57.6 742.2h948.8" stroke="#969696" stroke-width="1.875"/>
   <g stroke="#000" stroke-dasharray="3.75 7.5" stroke-miterlimit="2" stroke-width=".9375">
    <path d="m58.3 844.1h948.8"/>
    <path d="m58.3 641.8h948.8"/>
    <path d="m58.3 540.6h948.8"/>
   </g>
  </g>
  <g stroke="#000">
   <g stroke-linejoin="round" stroke-width="5.625">
    <path d="m388.6 431.2 70-47.8 33.3 47.9"/>
    <path d="m458.6 383.4 24 48"/>
    <path d="m468.1 383.4 23.8 47.9"/>
    <path d="m464.2 383.3 24 48"/>
   </g>
   <path d="m459 382.3h9" stroke-width="3.75"/>
   <path d="m482.4 432.3h9" stroke-width="3.75"/>
   <g stroke-linejoin="round">
    <path d="m491.9 431.3s95.3-161.1 100.1-168.9c8.7-13.7 14.9-27.4 24.9-27.3 14.4.1 17.2 27.1 32 26.7 5.1-.1 11.7-3.9 20.8-14" stroke-width="5.624959"/>
    <path d="m378.8 359.6c12-15.3 23.3-23.6 35.4-23.7s19.6 7.8 8.6 30.8c-10.1 21.3-34.1 64.5-34.1 64.5" stroke-width="5.625"/>
    <path d="m610.5 481.2c2.4-.1 4.2-.3 6.4-.8 10.1-2.1 47.8-21.3 75-42.9" stroke-width="5.625001"/>
    <ellipse cx="710.42938" cy="-84.122467" rx="4.609393" ry="6.862875" stroke-width="5.625" transform="matrix(.72846687 .68508103 -.68508103 .72846687 0 0)"/>
    <g stroke-width="6.5625">
     <path d="m643.8 386.1-47.5 81.9"/>
     <path d="m639.1 386.1-38.7 70.9-3.8 16.5"/>
     <path d="m643.8 386.1h-9.3"/>
    </g>
    <path d="m573.2 431.5c15.7 3 30.5-16.3 61.2-45.8l-38.9 72.5c-7.2 13.4 1.8 23.1 15 23" stroke-width="5.625"/>
   </g>
   <path d="m605.6 454.7c-6 9.6-9.9 25.1 3.6 25.5" stroke-width="3.75"/>
  </g>
 </g>
</svg>
