<svg height="210mm" viewBox="0 0 1052.4 744.1" width="297mm" xmlns="http://www.w3.org/2000/svg">
 <g fill="none" stroke-linecap="round">
  <g transform="translate(0 -308.26772)">
   <path d="m57.6 742.2h948.8" stroke="#969696" stroke-width="1.875"/>
   <g stroke="#000" stroke-dasharray="3.75 7.5" stroke-miterlimit="2" stroke-width=".9375">
    <path d="m58.3 844.1h948.8"/>
    <path d="m58.3 641.8h948.8"/>
    <path d="m58.3 540.6h948.8"/>
   </g>
  </g>
  <g stroke="#000">
   <g stroke-linejoin="round" stroke-width="5.625">
    <path d="m368.5 431.7c7.1-5.4 14.5-12 14.2-21.2-.9-14.2-21-14.4-31.2-28.3-13.6-21.8 26-51.2 38.1-45.6 9.2 4.7 2 18.4-4.6 25.6-23.4 25.7-50 48.1-66.5 59.9-7.9 5.7-19 8.9-26.3 9.4-7.4.5-13.7-1.8-16.3-7.4-7.2-15.5 13.3-29.1 37.7-58.6 8.2-9.9 8.8-18.2 5.1-23.4-1.5-2.2-3.8-3.8-6.6-4.7-2.6-.9-5.7-1.2-9-.9-14.1 1-28.4 14.7-44.6 32.9-10.4 12-49.6 54.1-63.6 62.1"/>
    <path d="m560.6 409.3c14.6-12.1 32.2-26.1 32.2-26.1l33.3 47.9"/>
    <path d="m592.8 383.2 24 48"/>
    <path d="m602.3 383.2 23.8 47.9"/>
    <path d="m598.4 383.1 24 48"/>
   </g>
   <path d="m593.2 382.1h9" stroke-width="3.75"/>
   <path d="m616.6 432.1h9" stroke-width="3.75"/>
   <g stroke-width="5.625">
    <path d="m550.5 334.6c54.3-11 96.5-79.5 90.2-96.2-5.5-14.4-40.3 8.9-87.4 86.8-44.7 77.1-46.8 106-31.2 106.4 8.7.2 25.8-11.9 38.5-22.3" stroke-linejoin="round"/>
    <path d="m707.7 336-81.6 95"/>
    <g stroke-linejoin="round">
     <path d="m707.7 336s-34.9 62.1-38.9 72.5c-5.5 14.2 1.8 23.1 15 23 22.9-.7 41.2-20.9 63.9-44.2"/>
     <path d="m800.1 405c10.9-9.9 21.5-14.6 30.5-17 3-.8 5.9-1 8.6-1 13 .1 20.7 10.2 7.1 27-26.6 32.9-44.6 51-38.7 64.2 2.1 4.7 8 6.3 15 6 9.8-.4 24.3-7.6 32.5-19.2"/>
    </g>
   </g>
   <path d="m846.7 388.6c15.4 7.9 4.2 30.4-12.1 46.3-14 13.6-22.7 27.7-28.7 39.7" stroke-width="5.472634"/>
   <path d="m846.8 390.1c.8-1.1 3.6 6 .5 13.9-3.2 8.2-12.5 19.1-17.8 24.2-10.5 9.9-29.8 30.2-23.7 46.5" stroke-width="5.472634"/>
   <g stroke-width="2.736317">
    <path d="m836.4 388.6c13.9-1.2 11.9 10.7 8.5 17.6"/>
    <path d="m812.9 464.7c-2.9 4.6-6.9 16.1 2.9 17.8"/>
    <path d="m803.4 468.8c-.1 5.5 2.8 11.2 4.7 12.8"/>
   </g>
   <g stroke-width="5.625">
    <path d="m747.7 387.3 25.8 44.1s21.1-21.9 26.5-26.4" stroke-linejoin="round"/>
    <path d="m530.9 463.3c-15.8 17.2-56.5 20.7-72 0"/>
    <g stroke-linejoin="round">
     <path d="m194.6 355.8c8.7-13.2 19.7-19.7 27.8-20.7 15.7-1.8 20.5 17.3-23.6 48.3 41.2-21.1 10.8 21.9-4 48.1"/>
     <path d="m368.5 431.7c32.4-39.4 70.6-52.8 92.1-46.2 16.1 4.9 25.5 20.6 17.9 46.8"/>
    </g>
   </g>
  </g>
 </g>
</svg>
