<svg height="210mm" viewBox="0 0 1052.4 744.1" width="297mm" xmlns="http://www.w3.org/2000/svg">
 <g fill="none" stroke-linecap="round">
  <g transform="translate(0 -308.26772)">
   <path d="m57.6 742.2h948.8" stroke="#969696" stroke-width="1.875"/>
   <g stroke="#000" stroke-dasharray="3.75 7.5" stroke-miterlimit="2" stroke-width=".9375">
    <path d="m58.3 844.1h948.8"/>
    <path d="m58.3 641.8h948.8"/>
    <path d="m58.3 540.6h948.8"/>
   </g>
  </g>
  <g stroke="#000">
   <g stroke-linejoin="round">
    <g stroke-width="5.625">
     <path d="m470.6 339.4c.6.1 1.2.2 1.6.4.1.1.3.2.4.3.8.6 1.1 1.7.6 3.3-.9 3.3-4.6 5.1-6.3 5.8-3.6 1.3-6.3-1.7-4.3-4.9 1.3-2 3.6-4.2 6.2-4.8.2 0 .4-.1.5-.1h.7c.5 0 1 .1 1.6.2"/>
     <path d="m224.1 430.7c5.9-.8 240.8-81 240.8-81"/>
     <path d="m246.8 334.6c54.3-11 95.5-79.5 89.2-96.2-5.5-14.4-40.2 8.9-87.4 86.8-50.2 86.7-46.5 112.7-24.4 105.5"/>
     <path d="m464.9 349.7c21.2 10 53.9-13 76.3-13.3 16-.6 16.8 30.6 38.2 30.7 11.4.1 23.6-10.5 30.4-15.3"/>
    </g>
    <path d="m590.8 430.9c3.3.4 8.2-3.6 9.6-4.4 39.6-22.9 62.8-96.9 34.5-90.6-6 1.3-14.2 6.2-25.1 15.9" stroke-width="5.419139"/>
   </g>
   <path d="m818 234.3c-43.1 81-67.6 114.7-86.8 142.9-19.3 28.3-41.4 55.6-61.4 53.7-30.3-4.9 14.8-89.4 22.4-107.8 47.2-78.7 72.9-92.7 87.4-87.7 17 5.9-22.5 50-40.1 67.4-14.3 14.3-160.2 130.1-148.8 128" stroke-width="5.625"/>
  </g>
 </g>
</svg>
