<svg height="210mm" viewBox="0 0 1052.4 744.1" width="297mm" xmlns="http://www.w3.org/2000/svg">
 <g fill="none" stroke-linecap="round">
  <g transform="translate(0 -308.26772)">
   <path d="m57.6 742.2h948.8" stroke="#969696" stroke-width="1.875"/>
   <g stroke="#000" stroke-dasharray="3.75 7.5" stroke-miterlimit="2" stroke-width=".9375">
    <path d="m58.3 844.1h948.8"/>
    <path d="m58.3 641.8h948.8"/>
    <path d="m58.3 540.6h948.8"/>
   </g>
  </g>
  <g stroke="#000" stroke-linejoin="round">
   <path d="m414.2 433.8c36-12.8 238.3-93.9 247.1-95.8 4.3-.9 7.4-1.4 8.9-1.5 2.5-.1 6-.1 8.7.9 2.8 1 5 2.6 6.6 4.7 3.7 5.2 3.1 13.5-5.1 23.4-24.4 29.4-45.3 42.8-38 58.3 2.6 5.6 9 8.2 16.3 7.4 11.8-1.4 20.1-7.7 27.8-15" stroke-width="5.624999"/>
   <path d="m414.2 433.8c-6.9 3.2-11.5 5.3-12.2 5.7-3 1.7-6.1 3.5-9.1 5.6-37.2 24.7-71.5 71.3-65.4 85.5 5.7 13.2 70.8-24.4 97.1-134.9 20.3-90.7 58-149.8 92.8-161.4" stroke-width="5.625"/>
  </g>
 </g>
</svg>
