<svg height="210mm" viewBox="0 0 1052.4 744.1" width="297mm" xmlns="http://www.w3.org/2000/svg">
 <g fill="none" stroke-linecap="round">
  <g transform="translate(0 -308.26772)">
   <path d="m57.6 742.2h948.8" stroke="#969696" stroke-width="1.875"/>
   <g stroke="#000" stroke-dasharray="3.75 7.5" stroke-miterlimit="2" stroke-width=".9375">
    <path d="m58.3 844.1h948.8"/>
    <path d="m58.3 641.8h948.8"/>
    <path d="m58.3 540.6h948.8"/>
   </g>
  </g>
  <g stroke="#000">
   <g stroke-linejoin="round">
    <path d="m415 406.2c-17.9 16.8-31.3 24.5-40.9 25.4-46.8 4.7-.5-151.6 83.3-196.7" stroke-width="5.624959"/>
    <path d="m415 406.2c30.2-29.5 103.3-133.8 144.1-162.6" stroke-width="5.624959"/>
    <path d="m592 335.5c-40.7 49.9-69.7 93.9-97.2 96-2.7.2-4.5.2-6.9 0-42.8-1.9 3.2-152.5 85.6-196.9" stroke-width="5.625"/>
    <path d="m573.5 234.7c-36.3 29.6-59.8 62.6-75.9 97.1-9.8 21-16.3 39.9-22.8 64.2" stroke-width="5.624999"/>
    <path d="m477.6 426.9c-12.2-16.3 1.7-55.7 17.6-93.6 16-38 48.8-80.2 74.4-95.9" stroke-width="4.687499"/>
    <path d="m494.8 338c-8.2 18.2-14.3 37-18 50.4-2.9 10.3-4.3 21.6-2.6 29.9 1.3 6.5 4.9 11.2 10 12.5" stroke-width="5.624999"/>
    <g stroke-width="5.625">
     <path d="m592 335.5 19.1 48.4"/>
     <path d="m228.3 336.7c-14.3 3.7-28.4 14.7-39.8 27.9-24.4 28.3-36.3 66.8-11.9 66.6 29-.3 64.2-30.1 92.8-50l22.4 50.2"/>
    </g>
   </g>
   <g stroke-width="5.625">
    <path d="m390.4 235.6-98.6 195.9"/>
    <g stroke-linejoin="round">
     <path d="m619.1 398.2 33.9-16-27.4 48.9"/>
     <path d="m625.6 431c58.9-19.2 145-71 129.4-92.1-4.8-6.5-30.3-4.4-55 36.3-25.4 41.6-20.8 56-6.4 56 24.2-.1 92.3-81.5 170.7-168.5 9.8-10.9 17.5-15.4 22.8-19.5s10.2-6.6 14.9-7.7c8.1-2 15.3-2.1 21-.6 6.2 1.6 11.2 6.4 8.7 18.1-3.9 13-15.9 21.3-33.7 32-14.3 9.3-43.5 22.6-38.9 53.9 6.3 42.7-45.5 80.6-63.9 91.9"/>
    </g>
   </g>
  </g>
 </g>
</svg>
