<svg height="210mm" viewBox="0 0 1052.4 744.1" width="297mm" xmlns="http://www.w3.org/2000/svg">
 <g fill="none" stroke-linecap="round">
  <g transform="translate(0 -308.26772)">
   <path d="m57.6 742.2h948.8" stroke="#969696" stroke-width="1.875"/>
   <g stroke="#000" stroke-dasharray="3.75 7.5" stroke-miterlimit="2" stroke-width=".9375">
    <path d="m58.3 844.1h948.8"/>
    <path d="m58.3 641.8h948.8"/>
    <path d="m58.3 540.6h948.8"/>
   </g>
  </g>
  <g stroke="#000" stroke-linejoin="round">
   <g stroke-width="5.625">
    <path d="m510.2 180.4c-63.4 34.1-105.2 131.2-101.7 175 1.3 13.5 6.9 22.3 19.5 22.5 23-.2 41.9-25.1 86.9-87.8"/>
    <path d="m468.9 213.9c-27.3 29.5-65.6 78.9-92.8 111.4-30.7 36.7-78.7 85.5-54.9 10.3"/>
    <ellipse cx="569.43109" cy="-139.61465" rx="4.609393" ry="6.862875" transform="matrix(.72846687 .68508103 -.68508103 .72846687 0 0)"/>
    <path d="m633 160c-55.2 51.1-100.6 142.1-126 134"/>
    <path d="m635.6 330.9s72.7-66.2 85.2-77c13.7-11.8 28-17.9 40-18.9 22.6-1.9 38.5 12.8 33.1 49.1"/>
   </g>
   <path d="m635.6 330.9 50.5-96.1c-33.3 29.8-73.3 89-111 95.7-59.7 8.2 11.6-154.1 93.2-196.4" stroke-width="5.62496"/>
   <g stroke-width="5.625">
    <path d="m205.6 431.3c-5.6-3.4 51.5-46.4 115.5-95.6"/>
    <path d="m205.6 431.3c7.1-2.5 11.3-4.8 17.5-9.1 11.5-9.3 22-21.1 32.2-36.4l30.9-50"/>
    <path d="m279.1 335.9-43.3 72.8"/>
   </g>
   <path d="m246.5 388c-13.9 21.2-18 30.2-29.7 37.8" stroke-width="2.8125"/>
   <path d="m286.3 335.7-7.3.1" stroke-width="5.625"/>
   <path d="m281.7 338.4c-13.9 21.2-22 34.5-22 34.5" stroke-width="2.8125"/>
   <g stroke-width="5.625">
    <path d="m856.8 235.1-23.7 48.8"/>
    <path d="m864 238.3-23.5 45.6"/>
    <path d="m845 283.8-12 .2"/>
    <path d="m868.7 234.9-23.7 48.8"/>
    <path d="m859.5 236.1-23.5 45.6"/>
    <path d="m868.7 234.9-12 .2"/>
    <path d="m793.9 284.1 62.9-49"/>
   </g>
  </g>
 </g>
</svg>
