<svg height="210mm" viewBox="0 0 1052.4 744.1" width="297mm" xmlns="http://www.w3.org/2000/svg">
 <g fill="none" stroke-linecap="round">
  <g transform="translate(0 -308.26772)">
   <path d="m57.6 742.2h948.8" stroke="#969696" stroke-width="1.875"/>
   <g stroke="#000" stroke-dasharray="3.75 7.5" stroke-miterlimit="2" stroke-width=".9375">
    <path d="m58.3 844.1h948.8"/>
    <path d="m58.3 641.8h948.8"/>
    <path d="m58.3 540.6h948.8"/>
   </g>
  </g>
  <g stroke-linejoin="round">
   <g stroke="#000">
    <path d="m634.9 412.9c-57.1 45.4-126.9 102.7-101.4 118.2 9.9 5.5 23.1-1.1 49.3-43.2l89.2-152.4" stroke-width="5.625"/>
    <path d="m634.9 412.9 91.2-76.9 21.3 44.2" stroke-width="5.624999"/>
    <g stroke-width="5.625">
     <path d="m747.4 380.3c39-64.7 104.7-56.6 95.5-.1"/>
     <path d="m580 336.1s-31.6 58.9-37.3 73.4c-5.8 14.7.3 21.7 12.2 21.4 8.3 0 16.2-3 24.6-8.6 20.8-13.8 60.3-50.2 92.5-86.7"/>
    </g>
   </g>
   <path d="m308 431.7 90.8-96.4" stroke="#030002" stroke-width="5.625"/>
   <g stroke="#000">
    <path d="m225.9 431.5c33.5-38.6 65.2-89.8 91.5-94.4 8.1-1.4 13.9 1.9 17.1 7.1 3.3 5.7 3 13.6.2 20.7-8.8 23.9-26.7 66.8-26.7 66.8" stroke-width="5.625002"/>
    <g stroke-width="5.625">
     <path d="m423.4 481.8c24.4-11 37.7-23.5 37-43.2-.9-26.6-61.5-103.3-61.5-103.3"/>
     <path d="m204.2 385.5 21.8 46"/>
     <path d="m501.3 438.1s-73.2 29-81.8 39.9c-1.8 2.3-.3 5.8 3.9 3.8"/>
     <path d="m526 446.4a19.2 25.1 41.6 0 1 -14.3 31.3 19.2 25.1 41.6 0 1 -27.6-6.8 19.2 25.1 41.6 0 1 14.3-31.3 19.2 25.1 41.6 0 1 27.6 6.8z"/>
    </g>
   </g>
  </g>
 </g>
</svg>
