<svg height="210mm" viewBox="0 0 1052.4 744.1" width="297mm" xmlns="http://www.w3.org/2000/svg">
 <g fill="none" stroke-linecap="round">
  <g transform="translate(0 -308.26772)">
   <path d="m57.6 742.2h948.8" stroke="#969696" stroke-width="1.875"/>
   <g stroke="#000" stroke-dasharray="3.75 7.5" stroke-miterlimit="2" stroke-width=".9375">
    <path d="m58.3 844.1h948.8"/>
    <path d="m58.3 641.8h948.8"/>
    <path d="m58.3 540.6h948.8"/>
   </g>
  </g>
  <g stroke="#000">
   <g stroke-linejoin="round" stroke-width="5.625">
    <path d="m441.3 485.9c9.7-10.1 88.7-85.9 107.2-102.7l33.3 47.9"/>
    <path d="m548.5 383.2 24 48"/>
    <path d="m557.9 383.2 23.8 47.9"/>
    <path d="m554 383.1 24 48"/>
   </g>
   <path d="m548.8 382.1h9" stroke-width="3.75"/>
   <path d="m572.3 432.1h9" stroke-width="3.75"/>
   <g stroke-linejoin="round" stroke-width="5.625">
    <path d="m581.8 431.1c25.4-46.7 94.9-177.5 108-187.7 5.2-4.1 10.7-6.9 16.6-8.1 10.7-2.7 14.3.7 18.7 3.2 7.6 4.3 8 17.2-6 41.5l-29.8 52.1"/>
    <path d="m395.6 360.2c9.3-12.6 18-18.1 26.2-21.7 24.8-6.9 35 2.5 12.3 40.5l-29.8 52.1"/>
    <path d="m404.2 431.1 89.5-41.3-52.4 96"/>
   </g>
  </g>
 </g>
</svg>
