<svg height="210mm" viewBox="0 0 1052.4 744.1" width="297mm" xmlns="http://www.w3.org/2000/svg">
 <g fill="none" stroke-linecap="round">
  <g transform="translate(0 -308.26772)">
   <path d="m57.6 742.2h948.8" stroke="#969696" stroke-width="1.875"/>
   <g stroke="#000" stroke-dasharray="3.75 7.5" stroke-miterlimit="2" stroke-width=".9375">
    <path d="m58.3 844.1h948.8"/>
    <path d="m58.3 641.8h948.8"/>
    <path d="m58.3 540.6h948.8"/>
   </g>
  </g>
  <g stroke="#000" stroke-linejoin="round">
   <g stroke-width="5.625">
    <path d="m448.3 336.8c-14.3 3.7-28.4 14.7-39.8 27.9-24.4 28.3-36.3 66.8-11.9 66.6 29-.3 64.2-30.1 92.8-50l22.4 50.2"/>
    <path d="m511.8 431.5 127.7-197.8"/>
    <path d="m663.1 374.5c60.1-75.3-82.8-56.1-23.6-140.8"/>
   </g>
   <path d="m441.3 339c-25 9.5-135.9 93.4-126 92.4" stroke-width="5.419139"/>
   <path d="m315.3 431.4c11.3-3.6 29-14.3 32.2-40.1s20-53.1 38.2-55.8" stroke-width="5.625"/>
  </g>
 </g>
</svg>
