<svg height="210mm" viewBox="0 0 1052.4 744.1" width="297mm" xmlns="http://www.w3.org/2000/svg">
 <g fill="none" stroke-linecap="round">
  <g transform="translate(0 -308.26772)">
   <path d="m57.6 742.2h948.8" stroke="#969696" stroke-width="1.875"/>
   <g stroke="#000" stroke-dasharray="3.75 7.5" stroke-miterlimit="2" stroke-width=".9375">
    <path d="m58.3 844.1h948.8"/>
    <path d="m58.3 641.8h948.8"/>
    <path d="m58.3 540.6h948.8"/>
   </g>
  </g>
  <g stroke="#000">
   <path d="m527.7 369.8c-34.7 35.8-89.1 86.9-106.7 104.4-26.6 27-36.2 46.3-33.9 53.6.9 3 16.3 22.9 59.8-38.1 26.9-36.9 54.6-73.4 69.3-116.4 15.5-30.1-1.4-56.7-44.4-11.6" stroke-linejoin="round" stroke-width="5.625"/>
   <path d="m516.6 362.4c-20.5 45.9-64.8 123.2-100.9 158.2" stroke-width="8.4375"/>
   <path d="m519.7 350.3c1.4 8.4-92.8 164.8-114.9 178.5" stroke-width="5.625"/>
   <path d="m512.2 338.9c7 1.1 9.6 9.2 3 20.7" stroke-width="3.75"/>
   <path d="m412.5 520.5c-6.3 5.5-18.8 17.1-24.4 7.2" stroke-width="3.75"/>
   <g stroke-linejoin="round">
    <path d="m426.4 334.7c54.3-11 95.5-79.5 89.2-96.2-5.5-14.4-40.2 8.9-87.4 86.8-41.2 71.2-46.2 101.2-34.5 105.8 2.9 1.1 6.8.7 11.5-1 3.2-1.2 6.8-3 10.6-5.4 26.5-18.8 34.3-37.2 56.1-62.8" stroke-width="5.625"/>
    <path d="m586.1 306c22.9-24.4 66.8-35.7 66.5 28.3-.3 57.9 48.9 50.5 68.3 32.4" stroke-width="5.545302"/>
    <path d="m586.1 306-58.4 63.8" stroke-width="5.625"/>
   </g>
  </g>
 </g>
</svg>
