<svg height="210mm" viewBox="0 0 1052.4 744.1" width="297mm" xmlns="http://www.w3.org/2000/svg">
 <g fill="none" stroke-linecap="round">
  <g transform="translate(0 -308.26772)">
   <path d="m57.6 742.2h948.8" stroke="#969696" stroke-width="1.875"/>
   <g stroke="#000" stroke-dasharray="3.75 7.5" stroke-miterlimit="2" stroke-width=".9375">
    <path d="m58.3 844.1h948.8"/>
    <path d="m58.3 641.8h948.8"/>
    <path d="m58.3 540.6h948.8"/>
   </g>
  </g>
  <g stroke="#000">
   <g stroke-linejoin="round">
    <path d="m663.8 184.5s-66.1 127.2-85.7 164.6c-8.4 18.4 1.8 31.1 17.2 31.3 18.2-.5 26.7-8.2 44.5-26.2 6.1-6.2 13.9-15.3 20.1-22.2 28.7-31.7 39-47 67.4-46.4 26.2-.4 33.6 31.6 33.6 45" stroke-width="5.625"/>
    <path d="m752.8 303.2c1.2 7.1 5.2 21.5 4 26" stroke-width="5.625001"/>
    <path d="m724.4 286.6c13-.1 22.2 8.8 25.1 17 3.4 9.6 4.7 20.4 4.2 26.9" stroke-width="4.6875"/>
   </g>
   <path d="m754.3 330.5 6.7.1" stroke-width="5.625001"/>
   <g stroke-linejoin="round">
    <path d="m701.7 291.7c8.7-4.3 15.6-4.7 19.7-4.7 6.9.1 11.7.7 16.7 3.7" stroke-width="3.75"/>
    <g stroke-width="5.625">
     <path d="m761 330.6c25-11.8 62.1-31.5 79.7-32.4 16.8-.7 22.7 32.6 34.2 32.2 7.5-.2 13.1-6.2 18.3-10.8"/>
     <path d="m663.8 184.5s-418.3 240.3-436.4 251c-44.5 26.3-62.9 47-67.5 67-2.8 12 .3 23.7 12.6 28.6 14.5 5.8 36.2-.8 61.9-44.7l88.2-150.5"/>
    </g>
   </g>
  </g>
 </g>
</svg>
