<svg height="210mm" viewBox="0 0 1052.4 744.1" width="297mm" xmlns="http://www.w3.org/2000/svg">
 <g fill="none" stroke-linecap="round">
  <g transform="translate(0 -308.26772)">
   <path d="m57.6 742.2h948.8" stroke="#969696" stroke-width="1.875"/>
   <g stroke="#000" stroke-dasharray="3.75 7.5" stroke-miterlimit="2" stroke-width=".9375">
    <path d="m58.3 844.1h948.8"/>
    <path d="m58.3 641.8h948.8"/>
    <path d="m58.3 540.6h948.8"/>
   </g>
  </g>
  <g stroke="#000">
   <g stroke-linejoin="round">
    <path d="m492.9 423.9c8 6 40.8-30.4 40.8-30.4" stroke-width="5.625"/>
    <g stroke-width="6.5625">
     <path d="m482.5 336.2-46.7 80.9"/>
     <path d="m477.4 336.4-43.5 80.7"/>
    </g>
   </g>
   <path d="m439.8 412.9c-3.1 6.1-3.4 13.5 3.2 15.5" stroke-width="3.75"/>
   <g stroke-linejoin="round">
    <g stroke-width="5.625">
     <path d="m482.6 335.7h-9.2"/>
     <ellipse cx="646.70709" cy="-34.678101" rx="4.609393" ry="6.862874" transform="matrix(.72846687 .68508103 -.68508103 .72846687 0 0)"/>
     <path d="m359.9 431.2 113.3-95.4-38.2 71.4c-6.4 12 0 20.9 10.8 22.7 1.3.2 2.7.3 4.2.3 16.8.8 38.1-1.8 46.1-7.7"/>
     <path d="m257.5 430.6c41.8-69.4 112.3-60.1 102.4.6"/>
    </g>
    <ellipse cx="708.73059" cy="-152.10701" rx="5.271424" ry="7.848564" stroke-width="14.034715" transform="matrix(.72846687 .68508103 -.68508103 .72846687 0 0)"/>
    <path d="m618.4 385.7-68.1.2" stroke-width="5.625"/>
    <path d="m567 396.2c3.7 10.5-2.8 24.6-14.3 31.3-11.6 6.8-23.9 3.7-27.6-6.8s2.8-24.6 14.3-31.3c11.6-6.8 23.9-3.7 27.6 6.8z" stroke-width="5.625"/>
    <g stroke-width="5.624999">
     <path d="m747.3 285.4-46.6 95.4"/>
     <path d="m747.3 285.4h-8.2"/>
     <path d="m743.4 286.3-45.7 93.9"/>
     <path d="m700.7 380.8h-8.2"/>
     <path d="m739.1 285.4-46.6 95.4"/>
    </g>
    <path d="m618.4 385.7c16.6 4.3 35.4-19.8 120.6-100.3" stroke-width="5.625"/>
   </g>
  </g>
 </g>
</svg>
