<svg height="210mm" viewBox="0 0 1052.4 744.1" width="297mm" xmlns="http://www.w3.org/2000/svg">
 <g fill="none" stroke-linecap="round">
  <g transform="translate(0 -308.26772)">
   <path d="m57.6 742.2h948.8" stroke="#969696" stroke-width="1.875"/>
   <g stroke="#000" stroke-dasharray="3.75 7.5" stroke-miterlimit="2" stroke-width=".9375">
    <path d="m58.3 844.1h948.8"/>
    <path d="m58.3 641.8h948.8"/>
    <path d="m58.3 540.6h948.8"/>
   </g>
  </g>
  <g stroke="#000" stroke-linejoin="round" stroke-width="5.625">
   <path d="m525.7 388.2-55.8 97.2"/>
   <path d="m525.7 388.2h-10.6"/>
   <path d="m520.2 388.3-55.8 97.2"/>
   <path d="m469.9 485.5h-10.6"/>
   <path d="m446.3 431.5 68.9-43.3-55.8 97.2 11-.1c55.8-21.4 145.7-62.7 192.9-82.9"/>
   <path d="m664 402.1c37-20.1 60.9-14.6 37.5 14.4-27.4 33.8-45.5 50.2-39.4 63.9 4.2 9.6 23.1 7.2 36.5-3.7l8-6.5"/>
   <path d="m791.4 391.6-55.8 97.2"/>
   <path d="m791.4 391.6h-10.6"/>
   <path d="m785.9 391.6-55.8 97.2"/>
   <path d="m735.6 488.8h-10.6"/>
   <path d="m706.6 470.2 74.3-78.6-55.8 97.2 11-.1"/>
   <path d="m374.6 419.7c-1.8 1.1-26.6 17.8-28.5 19.1-32.5 22-71.6 74.4-63.5 89.5 4.9 9.2 28.4 7.7 48.3-24.3 8.5-13.7 17.7-31 19.9-61.8 5-69.6 41.1-122.1 68-104.4 11.2 7.4-22.9 49.1-54.2 46.7"/>
   <path d="m459.6 350.1c-23.6 28.1-60.2 52.6-85 69.6"/>
   <path d="m457.1 335.9c1.1-.2 2-.3 2.8-.1.3 0 .5.1.8.2 1.6.6 2.6 2.1 2.7 5.1.2 5.7-4.8 10.5-7.3 12.5-5.2 3.9-11 .4-9.3-5.8 1.1-3.9 3.6-8.6 7.7-10.8.3-.2.6-.3.8-.4.3-.2.7-.3 1.1-.4.8-.3 1.7-.4 2.6-.4"/>
  </g>
 </g>
</svg>
