<svg height="210mm" viewBox="0 0 1052.4 744.1" width="297mm" xmlns="http://www.w3.org/2000/svg">
 <g fill="none" stroke-linecap="round">
  <g transform="translate(0 -308.26772)">
   <path d="m57.6 742.2h948.8" stroke="#969696" stroke-width="1.875"/>
   <g stroke="#000" stroke-dasharray="3.75 7.5" stroke-miterlimit="2" stroke-width=".9375">
    <path d="m58.3 844.1h948.8"/>
    <path d="m58.3 641.8h948.8"/>
    <path d="m58.3 540.6h948.8"/>
   </g>
  </g>
  <g stroke="#000">
   <path d="m420 346.7a19.2 25.1 41.6 0 1 -14.3 31.3 19.2 25.1 41.6 0 1 -27.6-6.8 19.2 25.1 41.6 0 1 14.3-31.3 19.2 25.1 41.6 0 1 27.6 6.8z" stroke-linejoin="round" stroke-width="5.625"/>
   <ellipse cx="538.27148" cy="-60.93597" rx="4.609393" ry="6.862875" stroke-linejoin="round" stroke-width="5.625" transform="matrix(.72846687 .68508103 -.68508103 .72846687 0 0)"/>
   <path d="m555 237.5c.8-1.1 3.5 6.2.4 14.1-3.2 8.2-12.5 19.1-17.8 24.2-10.5 9.9-29.8 30.2-23.7 46.5" stroke-width="5.472634"/>
   <path d="m544.5 236.2c13.9-1.2 11 7.7 10.3 13.7" stroke-width="2.736317"/>
   <path d="m432.5 330.2c4.2.6 14-10.4 18.7-15.1 14.5-14.3 26.5-26.8 43.4-45.3 7.7-8.4 13.6-16 26.2-25.7 7.1-5.5 14.9-9.1 23.8-9.2 14.3-.3 24.4 8.5 10.2 26.1-27.1 33.5-45.1 49.8-39.1 63.3 1.9 4.3 6.9 6.3 12.9 6.2 7.4-.1 16.9-5.1 24.5-11.3" stroke-linejoin="round" stroke-width="5.569707"/>
   <path d="m554.9 236.5c15.4 6.8 4.1 30.2-12.2 46.1-14 13.6-22.7 27.7-28.7 39.7" stroke-width="5.472634"/>
   <path d="m521.3 311.7c-3.4 4.9-7.1 14.7 2.5 16.9" stroke-width="2.736317"/>
   <path d="m511.5 316.4c-.1 5.5 3.9 14.3 10.9 14.6" stroke-width="2.736317"/>
   <g stroke-linejoin="round">
    <path d="m382 349.5-49.4 81.7" stroke-width="5.625"/>
    <path d="m432.5 330.2c-9 .9-26.3 4.1-34 7" stroke-width="5.625"/>
    <path d="m553.2 319.2c35.4-32.3 77.7-86.5 95.8-107.5 15.2-17.7 29.7-31.9 42.7-31 12.4.8 12.3 17.3 5.9 36-14.7 43-41.1 81.5-68 118.4-30.2 41-50.1 47.2-57.1 40.9-13.5-11.4 4.2-35.9 29.2-55.1 13.2-11.3 45.9-34.3 65.4-41.7" stroke-width="5.625001"/>
   </g>
  </g>
 </g>
</svg>
