<svg height="210mm" viewBox="0 0 1052.4 744.1" width="297mm" xmlns="http://www.w3.org/2000/svg">
 <g fill="none" stroke-linecap="round">
  <g transform="translate(0 -308.26772)">
   <path d="m57.6 742.2h948.8" stroke="#969696" stroke-width="1.875"/>
   <g stroke="#000" stroke-dasharray="3.75 7.5" stroke-miterlimit="2" stroke-width=".9375">
    <path d="m58.3 844.1h948.8"/>
    <path d="m58.3 641.8h948.8"/>
    <path d="m58.3 540.6h948.8"/>
   </g>
  </g>
  <g stroke-width="5.625">
   <g stroke-linejoin="round">
    <path d="m449.3 381.9c27.3-8.4 63.9-52.6 90.3-97.3 22.4-39.6 35.8-75.2 28.6-90.5-2.4-5-7-7.9-14.2-8-2.7 0-5.8.2-9.3 1.1-4.5 1.1-11.8 3.2-23.1 9.1-17.4 9-54.9 28.9-404.6 248.8-37.8 23.8-71.5 71.3-65.4 85.5 5.7 13.2 70.8-24.4 97.1-134.9 20.3-90.7 58-149.8 92.8-161.4" stroke="#000"/>
    <path d="m521.6 431.9c88.5-59.2 253.5-59.1 233.6-.2" stroke="#0a0001"/>
    <path d="m885 382.9c-54.3 36.2-110.3 74.6-124.8 89.3-25.9 26.2-40.1 46.2-35.3 55.4 2.1 4 17.7 21.8 57.3-41.8l88-150.7-115 96.7" stroke="#060000"/>
    <path d="m885 382.9 17.5 47.8" stroke="#000"/>
   </g>
   <path d="m1014.2 234.6-111.7 196" stroke="#000"/>
  </g>
 </g>
</svg>
