<svg height="210mm" viewBox="0 0 1052.4 744.1" width="297mm" xmlns="http://www.w3.org/2000/svg">
 <g fill="none" stroke-linecap="round">
  <g stroke="#969696" transform="translate(0 -308.26772)">
   <path d="m57.6 742.2h948.8" stroke-width="1.875"/>
   <g stroke-dasharray="3.75 7.5" stroke-miterlimit="2" stroke-width=".9375">
    <path d="m58.3 844.1h948.8"/>
    <path d="m58.3 641.8h948.8"/>
    <path d="m58.3 540.6h948.8"/>
   </g>
  </g>
  <g stroke="#000">
   <g stroke-linejoin="round">
    <path d="m567.4 336.2-46.6 95.4" stroke-width="5.624999"/>
    <ellipse cx="780.50958" cy="-264.80167" rx="4.609393" ry="6.862875" stroke-width="5.625" transform="matrix(.72846687 .68508103 -.68508103 .72846687 0 0)"/>
    <path d="m520.8 431.6 229.8-84.6" stroke-width="5.624999"/>
   </g>
   <path d="m851 183.2s-69.9 128.4-96.5 160.4" stroke-width="5.624999"/>
   <g stroke-width="5.625">
    <path d="m514.6 380.9-72.9 152"/>
    <g stroke-linejoin="round">
     <path d="m189.6 431.5s42.6-27.5 98.8-28.8c56.1-1.3 58.6 28.4 105.3 27.9 43.5-.5 91.2-29.1 121-49.6"/>
     <path d="m851 183.2 20.5 46.3"/>
    </g>
   </g>
  </g>
 </g>
</svg>
