<svg height="210mm" viewBox="0 0 1052.4 744.1" width="297mm" xmlns="http://www.w3.org/2000/svg">
 <g fill="none" stroke-linecap="round">
  <g transform="translate(0 -308.26772)">
   <path d="m57.6 742.2h948.8" stroke="#969696" stroke-width="1.875"/>
   <g stroke="#000" stroke-dasharray="3.75 7.5" stroke-miterlimit="2" stroke-width=".9375">
    <path d="m58.3 844.1h948.8"/>
    <path d="m58.3 641.8h948.8"/>
    <path d="m58.3 540.6h948.8"/>
   </g>
  </g>
  <g stroke="#000" stroke-width="5.625">
   <g stroke-linejoin="round">
    <path d="m611.6 430.9c-4.1 1.5-7-2.5-2.9-5 17-10.2 107.1-31.5 114.1-30.4 15.7 4.3 13.6 35.7 29.5 35.9 5.5 0 13.1-3.7 24.4-13.5"/>
    <path d="m538.5 431.3c35.6-37.3 148.3-196.3 186.6-196.7 5.6-.1 8.6 4.1 9.6 10.1 6.2 38.1-74 171.1-123.1 186.3"/>
    <path d="m331.2 431.3c9.3 0 16.2-1.7 21-3.6 52.6-24.5 106.4-43.4 161.2-41 19.9-.2 27.8 15.5 25.1 44.6"/>
   </g>
   <path d="m499.6 386.5c34.3-2.1 34.4 26.7 32 44.7"/>
   <path d="m531.5 431.3h7"/>
   <path d="m525.9 390 10.7 17.7-1.7 23.4"/>
   <ellipse cx="533.53595" cy="82.350273" rx="4.609393" ry="6.862874" stroke-linejoin="round" transform="matrix(.72846687 .68508103 -.68508103 .72846687 0 0)"/>
  </g>
 </g>
</svg>
