<svg height="210mm" viewBox="0 0 1052.4 744.1" width="297mm" xmlns="http://www.w3.org/2000/svg">
 <g fill="none" stroke-linecap="round">
  <g transform="translate(0 -308.26772)">
   <path d="m57.6 742.2h948.8" stroke="#969696" stroke-width="1.875"/>
   <g stroke="#000" stroke-dasharray="3.75 7.5" stroke-miterlimit="2" stroke-width=".9375">
    <path d="m58.3 844.1h948.8"/>
    <path d="m58.3 641.8h948.8"/>
    <path d="m58.3 540.6h948.8"/>
   </g>
  </g>
  <g stroke="#000">
   <g stroke-linejoin="round" stroke-width="5.625">
    <path d="m481.9 431.2 167.2-44.9"/>
    <ellipse cx="262.69415" cy="719.8288" rx="25.728558" ry="20.371416" transform="matrix(.79083574 -.61202846 .61202846 .79083574 0 0)"/>
    <path d="m627 403s85.7-139.9 88.1-143.9c6.2-9.9 16-24.7 29.5-24.5 12.2.1 17.8 26.7 33.5 26.7 7.6 0 10.5-4.2 17.7-11.2"/>
    <path d="m382.6 387.5s104.3-45.5 110-49c7.2-4.5 15.1-9 20.2-13.4 12.8-11.2 20.7-24.2 16.7-30.9-5.7-9.7-34.7-8.6-58.5 30.7-26.3 43.1-17.7 60.3-4.2 58.6"/>
    <path d="m466.8 383.4c12.1-1.4 26.7-8.7 32.8-17"/>
   </g>
   <path d="m508.3 291.9c-26.4 22.5-40.2 49.3-52.6 77.8" stroke-width="4.6875"/>
   <path d="m502.6 295.4c-17.9 10.4-41.1 45.1-46.5 68.6" stroke-width="4.6875"/>
   <path d="m462.6 357.5c-4.1 10-8.7 21.8 0 24.5" stroke-width="2.8125"/>
   <path d="m513.5 290.8c-6.7 2.3-11.4 7.8-12 8.5" stroke-width="2.8125"/>
   <path d="m499.1 300.2c-28 20.5-28.9 42.2-43.4 69.6" stroke-width="4.6875"/>
   <ellipse cx="55.167908" cy="559.36975" rx="25.728558" ry="20.371416" stroke-linejoin="round" stroke-width="5.625" transform="matrix(.79083574 -.61202846 .61202846 .79083574 0 0)"/>
  </g>
 </g>
</svg>
