<svg height="210mm" viewBox="0 0 1052.4 744.1" width="297mm" xmlns="http://www.w3.org/2000/svg">
 <g fill="none" stroke-linecap="round">
  <g transform="translate(0 -308.26772)">
   <path d="m57.6 742.2h948.8" stroke="#969696" stroke-width="1.875"/>
   <g stroke="#000" stroke-dasharray="3.75 7.5" stroke-miterlimit="2" stroke-width=".9375">
    <path d="m58.3 844.1h948.8"/>
    <path d="m58.3 641.8h948.8"/>
    <path d="m58.3 540.6h948.8"/>
   </g>
  </g>
  <g stroke="#000" stroke-linejoin="round" stroke-width="5.625">
   <path d="m685.8 390.2 18.8 40.2 163.1-39.6"/>
   <path d="m867.7 390.8 18.8 40.2"/>
   <path d="m886.4 430.9 45.3-22.3"/>
   <path d="m256.3 384.7 21.8 47.4 243.4-95.6-57.8 95.6"/>
   <path d="m463.7 432s62.2-27.7 77.7-28.6c20.1-.2 14.6 27.2 32.7 28.6 10.8-.3 14-6.4 20.6-14.5"/>
   <path d="m155.1 385.9-23.6 45.3"/>
  </g>
 </g>
</svg>
