<svg height="210mm" viewBox="0 0 1052.4 744.1" width="297mm" xmlns="http://www.w3.org/2000/svg">
 <g fill="none" stroke-linecap="round">
  <g transform="translate(0 -308.26772)">
   <path d="m57.6 742.2h948.8" stroke="#969696" stroke-width="1.875"/>
   <g stroke="#000" stroke-dasharray="3.75 7.5" stroke-miterlimit="2" stroke-width=".9375">
    <path d="m58.3 844.1h948.8"/>
    <path d="m58.3 641.8h948.8"/>
    <path d="m58.3 540.6h948.8"/>
   </g>
  </g>
  <g stroke-linejoin="round">
   <g stroke="#000">
    <path d="m457.7 446.6a19.2 25.1 41.6 0 1 -14.3 31.3 19.2 25.1 41.6 0 1 -27.6-6.8 19.2 25.1 41.6 0 1 14.3-31.3 19.2 25.1 41.6 0 1 27.6 6.8z" stroke-width="5.625"/>
    <path d="m497.9 385.1-69.9 56.1" stroke-width="5.625"/>
    <path d="m304 335.6s-34.9 62.1-38.9 72.5c-5.5 14.2 1.8 23 15 23 28.6 0 44.1-45 71.6-46 4.8-.1 8.5 2.9 11.5 8.7 6.5 12.7 4 18.2 12.3 27.2 15.9 17.3 45.2-28.6 35.9-35.1-6.3-4.4-27.3 4-50.8 42.8-9 14.4-12.9 25.6-13.7 33.9-.3 3.8 0 7 .8 9.5.9 2.7 2.3 4.6 4.1 5.9 1.5 1.1 3.3 1.5 5.1 1.8 21 3.4 45.1-16.1 68.4-36.4" stroke-width="5.624999"/>
   </g>
   <path d="m601.8 431.3 86.5-95.1" stroke="#030002" stroke-width="5.625"/>
   <g stroke="#000">
    <path d="m519.7 431.1c33.5-38.6 65.2-89.8 91.5-94.4 8.1-1.4 13.9 1.9 17.1 7.1 3.3 5.7 3 13.6.2 20.7-8.8 23.9-26.7 66.8-26.7 66.8" stroke-width="5.625002"/>
    <g stroke-width="5.625">
     <path d="m717.2 481.4c24.4-11 37.7-23.5 37-43.2-.9-26.6-65.9-102-65.9-102"/>
     <path d="m497.9 385.1 21.8 46"/>
    </g>
   </g>
  </g>
 </g>
</svg>
