<svg height="210mm" viewBox="0 0 1052.4 744.1" width="297mm" xmlns="http://www.w3.org/2000/svg">
 <g fill="none" stroke="#000" stroke-linecap="round">
  <g transform="translate(0 -308.26772)">
   <path d="m57.6 742.2h948.8" stroke-width="1.875"/>
   <g stroke-dasharray="3.75 7.5" stroke-miterlimit="2" stroke-width=".9375">
    <path d="m58.3 844.1h948.8"/>
    <path d="m58.3 641.8h948.8"/>
    <path d="m58.3 540.6h948.8"/>
   </g>
  </g>
  <g stroke-linejoin="round" stroke-width="5.625">
   <path d="m343.4 431.6c14.5-.2 147.7-6.8 182-3 20.3 2.4 46.3 16.7 38.1 58.8"/>
   <path d="m623.7 411.5c4.3-5.5 9.2-9.6 10.2-10.4 18.8-17.3 56.9-11.1 34.4 16.7-27.4 33.9-45.5 50.2-39.4 63.9 2.6 5.9 12.3 6.6 21.5 4.1"/>
   <path d="m650.3 485.7c15.2-4.1 32.3-28.1 81-93"/>
   <path d="m563.5 487.4c20.4-24.8 60.1-75.9 60.1-75.9"/>
   <path d="m345.4 421.5c.6.1 1.2.2 1.7.4.1.1.3.2.4.3.8.6 1.1 1.7.6 3.4-.9 3.3-4.7 5.3-6.4 5.9-3.7 1.3-6.5-1.7-4.3-5 1.3-2.1 3.6-4.3 6.3-4.9.2 0 .4-.1.6-.1h.7c.5 0 1.1.1 1.6.2"/>
  </g>
 </g>
</svg>
