<svg height="210mm" viewBox="0 0 1052.4 744.1" width="297mm" xmlns="http://www.w3.org/2000/svg">
 <g fill="none" stroke-linecap="round">
  <g transform="translate(0 -308.26772)">
   <path d="m57.6 742.2h948.8" stroke="#969696" stroke-width="1.875"/>
   <g stroke="#000" stroke-dasharray="3.75 7.5" stroke-miterlimit="2" stroke-width=".9375">
    <path d="m58.3 844.1h948.8"/>
    <path d="m58.3 641.8h948.8"/>
    <path d="m58.3 540.6h948.8"/>
   </g>
  </g>
  <g stroke="#000">
   <g stroke-width="5.625">
    <g stroke-linejoin="round">
     <path d="m347.8 413.2c-15.2 10.3-30.1 20.4-32.4 21.9-38.6 25.5-76 80.2-67.6 95.4 2.9 5.3 34.7 12.4 62.3-63.3 15.8-47.4 16.5-113.3 70.8-131.6"/>
     <path d="m347.8 413.2c13.3-8.6 25.1-18.6 39.5-22.5 8-.7 9.7 2.1 13 8.5 6.5 12.7 4 18.2 12.3 27.2 15.9 17.3 43.8-27.8 34.5-34.3-6.3-4.4-25.9 3.2-49.4 42-21.9 38.2-21.2 52.5-4.6 52.3"/>
     <path d="m393.1 486.5c25.1-1.7 77.8-44.9 77.8-44.9"/>
     <path d="m477.6 583.5c28.5-22.6 35.5-31.4 39-55.7 1.8-12.5-2.6-29.8-12.8-39.5-5-4.7-11-8.4-17-11.7-8.5-4.8-11.8-7.7-17.2-13.3-6-6.3-5-21.2 9.8-27.5"/>
     <path d="m549.7 541.6s-93.6 43.4-72 41.9"/>
     <path d="m577.5 548.3a19.2 25.1 41.6 0 1 -14.3 31.3 19.2 25.1 41.6 0 1 -27.6-6.8 19.2 25.1 41.6 0 1 14.3-31.3 19.2 25.1 41.6 0 1 27.6 6.8z"/>
     <path d="m520.4 430.7s16.8-16.6 20.5-19.5c6.9-5.4 17.3-12.6 22.7-8.7 5.2 3.7 11 27 20.3 28.5 12.7 1.9 19.8-.6 27.5-7.7"/>
     <path d="m554.1 402.9c7.8-3.7 11.7 4.8 15.4 17.9 2.4 8.6 7.8 10.8 16.8 10.5"/>
     <path d="m555.8 402.3c9.1-2 12.1-2.3 18.6 12 4.6 10.2 11.8 17 17.5 17.1"/>
     <path d="m564.2 404.5c6.9 9.7 7.5 21.8 16.2 25.1"/>
    </g>
    <path d="m774 234.9-94.3 196.7"/>
    <path d="m774 234.9-162.5 188.4"/>
    <g stroke-linejoin="round">
     <path d="m680.1 431.8 29.4-39.9"/>
     <path d="m709.5 391.9c21.6-28.9 36.1-52.4 56.9-56.8 10.7-2.7 14.3.7 18.7 3.2 7.6 4.3 8 17.2-6 41.5l-29.8 52.1"/>
     <path d="m788.9 347-48.9 84.8"/>
     <path d="m789.5 351.8-45.6 79.9"/>
     <path d="m740 431.8 9.3.1"/>
    </g>
   </g>
   <path d="m782.6 337.9c3.7 2.9 3.4 12.6 1.1 16.3" stroke-width="3.75"/>
  </g>
 </g>
</svg>
