<svg height="210mm" viewBox="0 0 1052.4 744.1" width="297mm" xmlns="http://www.w3.org/2000/svg">
 <g fill="none" stroke-linecap="round">
  <g transform="translate(0 -308.26772)">
   <path d="m57.6 742.2h948.8" stroke="#969696" stroke-width="1.875"/>
   <g stroke="#000" stroke-dasharray="3.75 7.5" stroke-miterlimit="2" stroke-width=".9375">
    <path d="m58.3 844.1h948.8"/>
    <path d="m58.3 641.8h948.8"/>
    <path d="m58.3 540.6h948.8"/>
   </g>
  </g>
  <g stroke="#000" stroke-linejoin="round">
   <path d="m260.3 384.7 20.5 46.3" stroke-width="5.625"/>
   <path d="m280.8 431s361.6-211.4 420.1-240.4c11.4-5.6 19-7.1 23.5-8.2 3.5-.8 6.6-1 9.3-1 7.2.1 11.8 3 14.2 8 7.2 15.3-6.2 50.9-28.6 90.5-26.3 44.8-62.9 88.9-90.3 97.3" stroke-width="5.625"/>
   <path d="m742.1 223.1c-3.7 9-48.4 87.8-64.2 112.8" stroke-width="8.4375"/>
   <path d="m634 374.5c19.4-9.8 34.6-28 44.1-43.3" stroke-width="3.75"/>
   <path d="m732.9 246.4-42.1 71.7" stroke-width="5.625"/>
   <path d="m746.6 188c5.1 7.4-2.2 26.2-11.1 44.7" stroke-width="4.6875"/>
   <path d="m629.1 377.3c-4.1 1.5-7-2.5-2.9-5 17-10.2 102.1-33.6 114.1-30.4 15.7 4.3 13.6 35.7 29.5 35.9 5.5 0 13.1-3.7 24.4-13.5" stroke-width="5.624999"/>
  </g>
 </g>
</svg>
