<svg height="210mm" viewBox="0 0 1052.4 744.1" width="297mm" xmlns="http://www.w3.org/2000/svg">
 <g fill="none" stroke-linecap="round">
  <g transform="translate(0 -308.26772)">
   <path d="m57.6 742.2h948.8" stroke="#969696" stroke-width="1.875"/>
   <g stroke="#000" stroke-dasharray="3.75 7.5" stroke-miterlimit="2" stroke-width=".9375">
    <path d="m58.3 844.1h948.8"/>
    <path d="m58.3 641.8h948.8"/>
    <path d="m58.3 540.6h948.8"/>
   </g>
  </g>
  <g stroke="#000">
   <g stroke-linejoin="round">
    <path d="m455.5 434.6c-28.3 24.1-85.2 91.8-63 99 11.2 2.5 33.1-7.6 54.5-66.3 15.7-47.2 16.4-112.8 70.4-130.9" stroke-width="5.625"/>
    <path d="m455.5 434.6c45.2-44.2 77.7-78.2 124.2-94.7 6.6-2.1 12.7-3.2 18.1-3.5 24.2-1.2 37.5 7.9 33.6 45" stroke-width="5.625"/>
    <path d="m616.5 342.6c10.4 5.8 12.6 28.6 10 38.1" stroke-width="6.5625"/>
    <path d="m603.9 336.3c16.4 3.3 19.2 32.7 18.3 45.3" stroke-width="4.6875"/>
   </g>
   <path d="m622.8 381.3 8.7.1" stroke-width="5.625"/>
   <path d="m591.4 337.9c13.6-2.1 22 2.5 25.4 11" stroke-linejoin="round" stroke-width="3.75"/>
  </g>
 </g>
</svg>
