<svg height="210mm" viewBox="0 0 1052.4 744.1" width="297mm" xmlns="http://www.w3.org/2000/svg">
 <g fill="none" stroke-linecap="round">
  <g transform="translate(0 -308.26772)">
   <path d="m57.6 742.2h948.8" stroke="#969696" stroke-width="1.875"/>
   <g stroke="#000" stroke-dasharray="3.75 7.5" stroke-miterlimit="2" stroke-width=".9375">
    <path d="m58.3 844.1h948.8"/>
    <path d="m58.3 641.8h948.8"/>
    <path d="m58.3 540.6h948.8"/>
   </g>
  </g>
  <g stroke="#000" stroke-linejoin="round" stroke-width="5.625">
   <path d="m433.6 333c54.3-11 97.7-78.3 91.4-95-3.4-8.9-18.1-3.3-40.1 20.9-13.4 14.8-29.4 36.3-47.2 65.8-29 50.1-38.3 77.4-36.2 92.1 1.7 11.3 12.2 13.6 21.7 13.9 4.5.1 8.7-.1 12.5-.4"/>
   <ellipse cx="609.50201" cy="8.934277" rx="4.609393" ry="6.862874" transform="matrix(.72846687 .68508103 -.68508103 .72846687 0 0)"/>
   <path d="m516.1 431.6c24.1-27.5 49.3-58.9 57.3-69.3 11.4-15 23.7-25.9 38.1-26.9 16.8-1.2 30.8 8.9 16.1 27-27.4 33.8-44 49.8-38 63.4 2.3 5.3 10.4 6.3 18.5 4.6 14.6-3.5 25.7-15.1 34.6-23.6"/>
   <path d="m642.6 406.9 25.2-26.2-25.5 49.8"/>
   <path d="m675.1 383.9-25.3 46.6"/>
   <path d="m654.3 430.3-12 .2"/>
   <path d="m682 380.8-27.7 49.5"/>
   <path d="m682 380.8-14.1-.1"/>
   <path d="m673.3 382-25.3 46.6"/>
   <path d="m435.6 430.1c13.5 4.3 25.2-17.2 38.5-36.3 21-30.5 41-60.1 64.8-57.8 10.5 1.2 16.5 8.2 15.8 17-.4 3.7-1.6 8.3-3.7 13.7-9.9 21.8-22.7 42.9-34.9 64.9"/>
  </g>
 </g>
</svg>
