<svg height="210mm" viewBox="0 0 1052.4 744.1" width="297mm" xmlns="http://www.w3.org/2000/svg">
 <g fill="none" stroke-linecap="round">
  <g transform="translate(0 -308.26772)">
   <path d="m57.6 742.2h948.8" stroke="#969696" stroke-width="1.875"/>
   <g stroke="#000" stroke-dasharray="3.75 7.5" stroke-miterlimit="2" stroke-width=".9375">
    <path d="m58.3 844.1h948.8"/>
    <path d="m58.3 641.8h948.8"/>
    <path d="m58.3 540.6h948.8"/>
   </g>
  </g>
  <g stroke="#000">
   <path d="m535.8 385.2 22.1 46.2" stroke-linejoin="round" stroke-width="5.625"/>
   <path d="m543 385.1 22.1 46.2" stroke-linejoin="round" stroke-width="5.625"/>
   <g stroke-width="5.625001">
    <path d="m535.8 385.2 7.2-.1"/>
    <path d="m539.8 386.5 21 43.9" stroke-linejoin="round"/>
    <path d="m557.8 431.4 7.2-.1"/>
   </g>
   <g stroke-linejoin="round">
    <path d="m565.1 431.3c24.2-22.4 100.1-82.4 141.4-124.6 35-34 55.3-65.7 38.8-71.4-14.6-5-41.5 12.1-88.8 89.9-44.1 76.3-43.7 106.4-28 106.4 8.7-.1 23.2-8.1 39-22.4" stroke-width="5.624959"/>
    <path d="m396.5 335.7-38.4 72.5c-7.4 14 2.6 23.5 16.7 22.9 28.5-.2 66-24.2 90.7-39.7 31.4-19.8 56.6-41.8 48.3-52.9-4.8-6.5-33.2-6-55 36.3-22 42.7-16.1 56.7-2.7 56.4 19.7-.5 42.6-15 79.6-46" stroke-width="5.625"/>
   </g>
  </g>
 </g>
</svg>
