<svg height="210mm" viewBox="0 0 1052.4 744.1" width="297mm" xmlns="http://www.w3.org/2000/svg">
 <g fill="none" stroke-linecap="round">
  <g transform="translate(0 -308.26772)">
   <path d="m57.6 742.2h948.8" stroke="#969696" stroke-width="1.875"/>
   <g stroke="#000" stroke-dasharray="3.75 7.5" stroke-miterlimit="2" stroke-width=".9375">
    <path d="m58.3 844.1h948.8"/>
    <path d="m58.3 641.8h948.8"/>
    <path d="m58.3 540.6h948.8"/>
   </g>
  </g>
  <g stroke="#000" stroke-linejoin="round" stroke-width="5.625">
   <ellipse cx="684.61993" cy="-64.959244" rx="4.609393" ry="6.862874" transform="matrix(.72846687 .68508103 -.68508103 .72846687 0 0)"/>
   <path d="m540 335.9-37.7 71.8c-6.3 12 0 20.9 10.8 22.7 3.6.4 7.4.6 10.8.6 7.7-.1 13.3-1.3 18.1-3.3"/>
   <path d="m540.2 427.7c10.4 5.9 17.3 4 22.6-4.4 8.5-13.3 20.4-32.8 23.6-38.1 5.1-8.4 10.3-15.5 15.5-21.5 5.2-5.9 10.4-10.7 15.5-14.6 7.7-5.7 15.5-9.3 23-11.3 5.5-1.4 10.8-2 16-2 4.6 0 9 .8 13 2.1 16.5 5.6 27.3 22.1 22.6 47.9"/>
   <path d="m346.1 431.1s44.6-32.4 61.8-29.2 16 46.2 45.6 21.5"/>
   <path d="m393.5 404.2c5.4-2.4 14.4-.8 22.3 16.5 5.6 12.2 16.2 10.3 22.8 10.3"/>
   <path d="m404.6 403.9c7.6 3.9 5 .9 19.8 23.5"/>
   <path d="m540 335.9s-60.1 66.7-86.4 87.5"/>
   <path d="m692.1 385.9c25-11.8 67.7-31.5 85.3-32.4 16.8-.7 22.7 32.6 34.2 32.2 7.5-.2 13.1-6.2 18.3-10.8"/>
  </g>
 </g>
</svg>
