<svg height="210mm" viewBox="0 0 1052.4 744.1" width="297mm" xmlns="http://www.w3.org/2000/svg">
 <g fill="none" stroke-linecap="round">
  <g transform="translate(0 -308.26772)">
   <path d="m57.6 742.2h948.8" stroke="#969696" stroke-width="1.875"/>
   <g stroke="#000" stroke-dasharray="3.75 7.5" stroke-miterlimit="2" stroke-width=".9375">
    <path d="m58.3 844.1h948.8"/>
    <path d="m58.3 641.8h948.8"/>
    <path d="m58.3 540.6h948.8"/>
   </g>
  </g>
  <g stroke="#000">
   <g stroke-linejoin="round">
    <path d="m486.7 431s46.8-85.8 74.8-93.3c33.9-9.1 52.5 6.7 42.5 42" stroke-width="5.625"/>
    <path d="m594.6 341.5c7.1 5.9 8.1 27.1 3.2 37.8" stroke-width="6.5625"/>
    <path d="m582.1 335.2c16.4 3.3 16.8 35.2 10.1 45.2" stroke-width="4.6875"/>
   </g>
   <g stroke-width="5.625">
    <path d="m592.9 380.4 9.8.1"/>
    <path d="m464.5 385.6 22.1 45.4" stroke-linejoin="round"/>
    <path d="m715.3 182.5-111.1 197.9"/>
    <path d="m464.5 385.6c-17.9 7.9-101.3 49.5-84.4 45.5 3.5-1.3 6.9-2 10.1-3.8 2.2-1.2 4.3-2.6 6.3-4 13.5-9.6 24.3-23.7 34.5-39.1l29.6-48.3" stroke-linejoin="round"/>
   </g>
  </g>
 </g>
</svg>
