<svg height="210mm" viewBox="0 0 1052.4 744.1" width="297mm" xmlns="http://www.w3.org/2000/svg">
 <g fill="none" stroke-linecap="round">
  <g transform="translate(0 -308.26772)">
   <path d="m57.6 742.2h948.8" stroke="#969696" stroke-width="1.875"/>
   <g stroke="#000" stroke-dasharray="3.75 7.5" stroke-miterlimit="2" stroke-width=".9375">
    <path d="m58.3 844.1h948.8"/>
    <path d="m58.3 641.8h948.8"/>
    <path d="m58.3 540.6h948.8"/>
   </g>
  </g>
  <g stroke-linejoin="round">
   <g stroke="#000">
    <path d="m670.3 367.9-84 68.5" stroke-width="5.625"/>
    <path d="m714.5 407.9c-13 3.5-36.7 9.9-40.2 10.9-5.2 1.4-9.2 5.1-9.2 7.7 0 3.7.8 4.9 5.8 5.4 35.9-7.8 94-107.3 43.3-94.7-9 2.8-28.9 16.4-44 30.7" stroke-width="5.419139"/>
    <g stroke-width="5.625">
     <path d="m714.5 407.9c13.3-3.1 22-5.7 27.6-5.9 17.5-.5 17.4 45.8 45.2 22.9"/>
     <path d="m586.4 436.5c-26.4 22.6-52.3 47.9-60.9 61.7-12.2 19.6-15 25.3-10.9 32.7 2.9 5.3 34.7 12.4 62.3-63.3 15.8-47.4 16.5-113.3 70.8-131.6"/>
     <path d="m322.9 359.6c24.3-33 69.8-34.2 37.2 20l-31.1 51.6"/>
     <path d="m329 431.2s49.1-67.4 80.8-87.2c3.5-2.1 7.1-4 11-5.7 19.6-8.3 35 2.5 12.3 40.5l-31.2 52.3"/>
     <path d="m401.8 431.1 99-94.9"/>
    </g>
   </g>
   <g stroke="#120000" stroke-width="5.625">
    <path d="m482.9 408.4s158.9-71.5 164.8-72.5"/>
    <path d="m544.6 431.7c11.2-27.4-9.2-38.1-20.9-44.2-32.6-16.9-29.7-38.2-22.8-51.3"/>
   </g>
  </g>
 </g>
</svg>
