<svg height="210mm" viewBox="0 0 1052.4 744.1" width="297mm" xmlns="http://www.w3.org/2000/svg">
 <g fill="none" stroke-linecap="round">
  <g transform="translate(0 -308.26772)">
   <path d="m57.6 742.2h948.8" stroke="#969696" stroke-width="1.875"/>
   <g stroke="#000" stroke-dasharray="3.75 7.5" stroke-miterlimit="2" stroke-width=".9375">
    <path d="m58.3 844.1h948.8"/>
    <path d="m58.3 641.8h948.8"/>
    <path d="m58.3 540.6h948.8"/>
   </g>
  </g>
  <g stroke="#000" stroke-width="5.625">
   <path d="m523.4 437.1 24.7 53.3" stroke-linejoin="round"/>
   <path d="m659.2 292.6-111.1 197.8"/>
   <g stroke-linejoin="round">
    <path d="m435.9 394c10.3-1.8 22.4-2 26.9 6.7 6.5 12.7 4 18.2 12.3 27.2 15.9 17.3 43.8-27.8 34.5-34.3-6.3-4.4-25.9 3.2-49.4 42-25.6 41.9-22.8 53-9.9 53.5 27.8 1 73.2-51.9 73.2-51.9"/>
    <path d="m383.4 361c56.3-55.3 54.1.2 25.7 40.3-7.6 10.8-17.1 20.4-27.8 26.6-1.4.8-7.4 3.1-10.4 2.8-5-.5-6.5-3.3-4.5-6.4.6-.9 3.4-3.9 8.3-6.2 20.2-9.4 41.8-20.9 61.3-24.1"/>
   </g>
  </g>
 </g>
</svg>
