<svg height="210mm" viewBox="0 0 1052.4 744.1" width="297mm" xmlns="http://www.w3.org/2000/svg">
 <g fill="none" stroke-linecap="round">
  <g transform="translate(0 -308.26772)">
   <path d="m57.6 742.2h948.8" stroke="#969696" stroke-width="1.875"/>
   <g stroke="#000" stroke-dasharray="3.75 7.5" stroke-miterlimit="2" stroke-width=".9375">
    <path d="m58.3 844.1h948.8"/>
    <path d="m58.3 641.8h948.8"/>
    <path d="m58.3 540.6h948.8"/>
   </g>
  </g>
  <g stroke="#000" stroke-width="5.625">
   <g stroke-linejoin="round">
    <path d="m279.5 430.5c22 5.6 245.9-46.8 245.9-46.8l23.9 47.9"/>
    <path d="m646.5 361.6c-27.4 33.8-47.1 52.6-39.4 63.9 4.3 6.3 12.8 6.8 22 3.9 9.9-3.2 20.6-10.4 27.7-18.7"/>
    <path d="m609 347.2c23.7-19.2 60.9-14.6 37.5 14.4"/>
    <path d="m609 347.2c-24.4 22.7-59.7 84.3-59.7 84.3"/>
    <path d="m656.8 410.6c9.4-8.5 66.9-74.6 66.9-74.6l22.4 44.6"/>
    <path d="m203.7 386.3c40 3 59.7-35.8 56.6-44.3-5.4-14.5-29.3-4.3-53.1 35-29.5 48.3-21.2 58.1-3 52.4"/>
    <path d="m204.2 429.5c23.6-7.7 224.2-184.1 191.6-195.3-14.8-5.1-41 9-89 88.4-44 76.1-43.8 105.1-27.3 107.9"/>
   </g>
   <path d="m857.1 182.8-111.1 197.8"/>
  </g>
 </g>
</svg>
