<svg height="210mm" viewBox="0 0 1052.4 744.1" width="297mm" xmlns="http://www.w3.org/2000/svg">
 <g fill="none" stroke-linecap="round">
  <g transform="translate(0 -308.26772)">
   <path d="m57.6 742.2h948.8" stroke="#969696" stroke-width="1.875"/>
   <g stroke="#000" stroke-dasharray="3.75 7.5" stroke-miterlimit="2" stroke-width=".9375">
    <path d="m58.3 844.1h948.8"/>
    <path d="m58.3 641.8h948.8"/>
    <path d="m58.3 540.6h948.8"/>
   </g>
  </g>
  <g stroke="#000">
   <g stroke-linejoin="round" stroke-width="5.625">
    <path d="m515.8 383.8 20 47.9"/>
    <path d="m592.9 435.9c-19.3 5.1-89.6 95.5-57.7 97.3 11.6.5 26.4-9.1 47.2-65.9 4.4-13.3 7.7-28.1 11.3-42.9 9.1-37.8 20.5-75.5 59.5-88.6"/>
    <path d="m592.9 435.9c5.6-.9 17.9-1.9 24.3-.7l33.3 47.9"/>
    <path d="m617.2 435.2 24 48"/>
    <path d="m626.7 435.2 23.8 47.9"/>
    <path d="m622.8 435.1 24 48"/>
   </g>
   <path d="m617.6 434.2h9" stroke-width="3.75"/>
   <path d="m641.1 484.1h9" stroke-width="3.75"/>
   <path d="m924.7 287.2s-88.3 163.3-114.8 185.8" stroke-width="5.625"/>
   <g stroke-linejoin="round">
    <g stroke-width="5.625">
     <path d="m650.5 483.1c28.2-13.6 67-43.4 99.7-38.2 22.5 4.2 20.9 60.4 59.7 28.1"/>
     <path d="m736 444.7c13.2-1.4 15.1 3.9 26.8 25.8 7.6 14.2 18 12.5 26.5 12.5"/>
     <path d="m748.3 446.7c8.7 7.7 6.6 2 26 31.6"/>
     <path d="m535.9 431.7s93.5-84 98.8-86.7"/>
    </g>
    <path d="m417.3 337.2c3.6 9.4 13.8 40.4 39.1 42.3 44.4 3.4 52.5-38.2 37.8-43-7.2-2.4-25.6 2.2-48.8 40.4-25.5 41.6-21.8 55.8-8.3 54.4 12.3-1.2 25.7-9.3 39.4-22.7" stroke-width="5.625002"/>
    <path d="m167.2 431.3c4.1-.3 7.4-1 12.2-2.5 7.2-2.3 11.7-3.8 17.8-6 20-7.4 220.2-85.7 220.2-85.7" stroke-width="5.625"/>
    <path d="m183.3 336.3s-29.9 59.2-34.5 70.3c-6.6 16.3 3.5 25.3 18.3 24.7" stroke-width="5.624999"/>
   </g>
  </g>
 </g>
</svg>
