<svg height="210mm" viewBox="0 0 1052.4 744.1" width="297mm" xmlns="http://www.w3.org/2000/svg">
 <g fill="none" stroke-linecap="round">
  <g transform="translate(0 -308.26772)">
   <path d="m57.6 742.2h948.8" stroke="#969696" stroke-width="1.875"/>
   <g stroke="#000" stroke-dasharray="3.75 7.5" stroke-miterlimit="2" stroke-width=".9375">
    <path d="m58.3 844.1h948.8"/>
    <path d="m58.3 641.8h948.8"/>
    <path d="m58.3 540.6h948.8"/>
   </g>
  </g>
  <g stroke-linejoin="round">
   <path d="m355.9 352.9s-58.3 50.8-67.3 58.1c-8.6 7-8.7 10.9-8 14.6.6 3.6 1.9 4.8 5.3 5.2 3.3.4 8.2-3.6 9.6-4.4 48.9-28 71.8-129.3 9.4-73.8-2.3 2.1-17.4 18.4-20 20.9" stroke="#000003" stroke-width="5.419139"/>
   <g stroke-width="5.625">
    <path d="m355.9 352.9 21-20.8" stroke="#000003"/>
    <g stroke="#00000a">
     <path d="m433.3 286.7-55.8 97.2"/>
     <path d="m433.3 286.7h-10.6"/>
     <path d="m427.8 286.7-55.8 97.2"/>
     <path d="m377.5 383.9h-10.6"/>
     <path d="m376.9 332.1 45.8-45.4-55.8 97.2 11-.1"/>
    </g>
    <g stroke="#000">
     <path d="m575.6 336.4c17.3-.7 26.8 24.9 36.9 39.1 10 13.4 31 10.3 36.8 10"/>
     <path d="m377.9 383.8c29.2-23 138.3-160.6 178.4-187 84.9-59.3-28.8 162.3-88.2 186.6-16.3 3.7-17.4-2.3-12.1-8.1 15.8-12 95.1-37 119.5-38.9"/>
     <path d="m659.3 420.7c-1.8 1.1-26.6 17.8-28.5 19.1-32.5 22-71.6 74.4-63.5 89.5 4.9 9.2 28.4 7.7 48.3-24.3 8.5-13.7 17.7-31 19.9-61.8 5-69.6 41.1-122.1 68-104.4 11.2 7.4-22.9 49.1-54.2 46.7"/>
     <path d="m741.2 358.3s-13.4 10.6-19 15.3c-21.4 18-44.9 34.8-62.9 47.1"/>
     <path d="m713.9 361.5c1.1-.2 2-.3 2.8-.1.3 0 .5.1.8.2 1.6.6 2.6 2.1 2.7 5.1.2 5.7-4.8 10.5-7.3 12.5-5.2 3.9-11 .4-9.3-5.8 1.1-3.9 3.6-8.6 7.7-10.8.3-.2.6-.3.8-.4.3-.2.7-.3 1.1-.4.8-.3 1.7-.4 2.6-.4"/>
     <path d="m741.2 358.3 27.3-21.9 20 47.9"/>
    </g>
   </g>
  </g>
 </g>
</svg>
