<svg height="210mm" viewBox="0 0 1052.4 744.1" width="297mm" xmlns="http://www.w3.org/2000/svg">
 <g fill="none" stroke-linecap="round">
  <g transform="translate(0 -308.26772)">
   <path d="m57.6 742.2h948.8" stroke="#969696" stroke-width="1.875"/>
   <g stroke="#000" stroke-dasharray="3.75 7.5" stroke-miterlimit="2" stroke-width=".9375">
    <path d="m58.3 844.1h948.8"/>
    <path d="m58.3 641.8h948.8"/>
    <path d="m58.3 540.6h948.8"/>
   </g>
  </g>
  <g stroke="#000">
   <g stroke-width="5.625">
    <ellipse cx="650.1864" cy="-27.261654" rx="4.609393" ry="6.862875" stroke-linejoin="round" transform="matrix(.72846687 .68508103 -.68508103 .72846687 0 0)"/>
    <path d="m492.4 431.5c32.9 1 60.9-31.1 81.8-31.1 16-.6 18.8 30.9 32.6 30.7 8.7-.1 14-5.4 19.3-11.4 26.9-30.4 41.6-36.1 60.2-37 24.5-1.2 43.8 16.4 33.4 48.4" stroke-linejoin="round"/>
    <path d="m496.8 427.4-59.8 105.6"/>
    <path d="m308.7 431c43.9-15.9 65.9-94.7 41-94.9-7.2-.1-18.9 6.5-35.8 23.2" stroke-linejoin="round"/>
    <path d="m308.7 431c-6.9-1.3 57.7-55 83.4-81.1 36.3-37 73.4-74.7 82-83.6 16.4-16.7 63.9-71.1 44.3-79.9-12.1-3.5-47.1 24.3-83.7 90.3-41.7 79.7-40.6 103.5-24.6 105" stroke-linejoin="round"/>
    <path d="m499.9 196.8c-40.2 51.2-72.3 100.4-94.1 152.2"/>
   </g>
   <path d="m490.1 205c-36.2 42.5-62.1 82.6-83.5 137.9" stroke-width="7.500001"/>
   <path d="m519.9 188.3c-2.7-2-6.7-1.3-9.5.2-4.5 2.3-8.6 7.3-14 14.1" stroke-width="3.75"/>
   <path d="m408.1 343.6c-3.1 6.6-6.7 17-7.5 20.6-1.1 5.3-.9 10.3 2.5 14.3" stroke-width="5.625"/>
   <path d="m571 185.5c-70.9 103.8-122.6 195.8-160.8 196.1" stroke-width="5.624999"/>
  </g>
 </g>
</svg>
