<svg height="210mm" viewBox="0 0 1052.4 744.1" width="297mm" xmlns="http://www.w3.org/2000/svg">
 <g fill="none" stroke-linecap="round">
  <g transform="translate(0 -308.26772)">
   <path d="m57.6 742.2h948.8" stroke="#969696" stroke-width="1.875"/>
   <g stroke="#000" stroke-dasharray="3.75 7.5" stroke-miterlimit="2" stroke-width=".9375">
    <path d="m58.3 844.1h948.8"/>
    <path d="m58.3 641.8h948.8"/>
    <path d="m58.3 540.6h948.8"/>
   </g>
  </g>
  <g stroke-linejoin="round">
   <g stroke="#000">
    <g stroke-width="5.625">
     <ellipse cx="-51.470089" cy="477.08978" rx="25.728558" ry="20.371416" transform="matrix(.79083574 -.61202846 .61202846 .79083574 0 0)"/>
     <path d="m409.8 239.3c3.1-1.8 6.1-3 9-3.7 8.1-2 15.3-2.1 21-.6 6.2 1.6 11.2 6.4 8.7 18.1-6.4 14.1-15.9 21.3-33.7 32-15.8 12.8-43.5 22.6-38.9 53.9 6.3 42.7-45.5 80.6-63.9 91.9"/>
     <path d="m312.2 430.9c-16.3 3.6-19-7.9-15.9-18.3 3.1-10.3 43.5-16 60.9-20.7l46.6-12.2"/>
     <path d="m409.8 239.3c-15.7 6-171.9 154.1-171.9 154.1"/>
    </g>
    <path d="m312.2 430.9c5.4-4.1 14.3-11.1 23.5-20 11.4-10.9 23.5-24.5 30.4-38.6 5.6-11.3 10.6-23 9.4-38.3" stroke-width="4.6875"/>
    <path d="m316.3 428.5c25.2-12.8 45.1-29.5 57.2-53.5 5.6-11.3 6-31.1 2.1-46.7" stroke-width="4.6875"/>
   </g>
   <g stroke-width="5.625">
    <path d="m403.7 379.7c37.1-8.8 144.8-34 205.7-49.5 19.9-5.1 38.3-23 45.7-29.5 17.5-17.4 57.1-59.2 40.1-65.1-14.6-5.1-40.2 9-87.4 87.7-48.2 84.2-42.1 110.7-20.4 107.2" stroke="#010000"/>
    <path d="m587.4 430.5c22.5.6 187.5-26.7 201.6-29.2 3-.5 5.9-.8 8.7-.9 16.2.1 22.5 30.9 36.8 30.7" stroke="#000"/>
    <path d="m834.5 431.2c7.2-.1 13.5-5.9 18.9-10.7" stroke="#000"/>
   </g>
  </g>
 </g>
</svg>
