<svg height="210mm" viewBox="0 0 1052.4 744.1" width="297mm" xmlns="http://www.w3.org/2000/svg">
 <g fill="none" stroke-linecap="round">
  <g transform="translate(0 -308.26772)">
   <path d="m57.6 742.2h948.8" stroke="#969696" stroke-width="1.875"/>
   <g stroke="#000" stroke-dasharray="3.75 7.5" stroke-miterlimit="2" stroke-width=".9375">
    <path d="m58.3 844.1h948.8"/>
    <path d="m58.3 641.8h948.8"/>
    <path d="m58.3 540.6h948.8"/>
   </g>
  </g>
  <g stroke="#000">
   <path d="m261.9 431.6c4.9-1 9.7-4.3 11-5 38.7-22.3 61.1-90.2 37.9-90.6-10-.2-19.6 7.2-28.8 16.1-6 5.8-13.1 13.8-19.7 21.3" stroke-linejoin="round" stroke-width="5.625001"/>
   <ellipse cx="68.153816" cy="630.36682" rx="25.728559" ry="20.371418" stroke-linejoin="round" stroke-width="5.625" transform="matrix(.79083574 -.61202846 .61202846 .79083574 0 0)"/>
   <path d="m462.2 445.8c.3 9.3-.4 14.6-6.3 21.9-3.1 3.8-7.2 7.1-12.7 9.7" stroke-width="5.624961"/>
   <path d="m458.6 440.5c5.4 18.3-4.6 29.6-17.3 35.9" stroke-width="6.599955"/>
   <path d="m442.8 473.5c-7.1 4.1-13.9 5.6-20.5.2" stroke-width="2.849979"/>
   <path d="m444.8 435.7c8.3 0 13.2 3.6 13.4 13.9" stroke-width="2.849979"/>
   <g stroke-linejoin="round">
    <path d="m434.3 436.3 93.9-49.4 21.3 44.2" stroke-width="5.624999"/>
    <path d="m261.9 431.6 181.8 2.5" stroke-width="5.419139"/>
    <path d="m549.6 431.1c41.8-69.4 112.3-60.8 102.4-.1" stroke-width="5.624999"/>
    <g stroke-width="5.625">
     <path d="m704.9 365.2c15.2-17.3 27.8-25.1 37.8-28 19.1-5.5 37.7 4.1 16.9 29.7-27.4 33.8-125.1 147.6-101.9 163.9 20.7 14.5 69.2-71.5 74.6-80.8 3.3-5.7 12.9-28 6.1-39.4-5.1-8.6-11.4-9.2-18.2-8.2-10.5 1.6-19.9 9.6-21.5 16.2-2.7 11.9 5.8 14.6 17.3 12.4 17.7-3.2 27.2-8.6 42.8-22.7"/>
     <path d="m652 431s35.3-45.5 52.9-65.8"/>
     <path d="m738.1 338.8c20.9-8.3 36.9 2.6 16.2 28.1-27.4 33.8-125.1 147.6-101.9 163.9 4.6 3.3 14.3 2.5 20.9-2.4"/>
     <path d="m743.6 336.9c19.1-5.5 41 4.3 20.3 29.8-27.4 33.8-129.4 156.8-101.9 163.9 6.1 1.6 10.8-1.2 14.6-4.6"/>
    </g>
   </g>
  </g>
 </g>
</svg>
