<svg height="210mm" viewBox="0 0 1052.4 744.1" width="297mm" xmlns="http://www.w3.org/2000/svg">
 <g fill="none" stroke-linecap="round">
  <g transform="translate(0 -308.26772)">
   <path d="m57.6 742.2h948.8" stroke="#969696" stroke-width="1.875"/>
   <g stroke="#000" stroke-dasharray="3.75 7.5" stroke-miterlimit="2" stroke-width=".9375">
    <path d="m58.3 844.1h948.8"/>
    <path d="m58.3 641.8h948.8"/>
    <path d="m58.3 540.6h948.8"/>
   </g>
  </g>
  <g stroke="#000">
   <path d="m443.1 435c-22.9 5.5-106.1 66-97.4 92.3.9 3 16.3 22.9 59.8-38.1 26.9-36.9 54.6-73.4 69.3-116.4 7.7-23 5.5-36.8-7.5-36.3-8.1.3-20.4 7.4-36.9 24.8" stroke-linejoin="round" stroke-width="5.624999"/>
   <path d="m567.6 337.7c-14.4 10.7-26 21.2-37.2 39.5-8.8 14.1-17.7 28.7-20 46.7" stroke-linejoin="round" stroke-width="5.625"/>
   <path d="m582.2 338c-9.9-2.9-18.2 4.1-25.7 10.3" stroke-width="2.8125"/>
   <path d="m443.1 435c25.8-9.6 63.9-24.3 88.6-38.1 18.6-10.4 35.1-21.5 45.5-31.6 10.8-10.5 12.4-22 7.9-27-5.4-6-30.7-3.9-55.3 36.8-25.4 41.6-22.8 55.9-10.2 56.1" stroke-linejoin="round" stroke-width="5.624999"/>
   <path d="m576.3 335.8c-13.1 1.2-26.3 9.8-34.4 19-9.1 10.3-11.9 13.6-18 22.9-10.2 17.6-22.2 41.6-10.2 51.9" stroke-linejoin="round" stroke-width="5.625"/>
   <path d="m579.7 337.3c-7-1.3-13.2 2.5-18.2 7" stroke-width="2.8125"/>
   <path d="m524.2 390.3c-8.6 16.5-11.5 26.3-11.4 32 0 2.2.6 3.8 1.4 5 .6.9 1.5 1.7 2.4 2.1.5.2 1 .2 1.6.3" stroke-width="2.8125"/>
   <g stroke-linejoin="round">
    <path d="m519.5 431.2c18 1.3 35.7-6.6 77.8-57.9 6.4-7.8 13.7-15.5 19.7-21.3 9.2-8.9 20.3-16.3 28.8-16.1 23.2.4.8 68.3-37.9 90.6-1.4.8-6.1 4.1-11 5" stroke-width="5.625"/>
    <path d="m653.2 345.2c-3.5 30.5-22.5 59.5-39.7 77.4" stroke-width="5.638243"/>
    <path d="m616.2 415.9c-4.9 5.9-8.2 9.5-15.8 13" stroke-width="2.819122"/>
    <path d="m654.7 346.2c-1.9 20.3-22.8 56.1-45.6 79.4" stroke-width="5.638243"/>
    <path d="m639.5 338.4c9.1-3.2 18.6.2 4.4 36" stroke-width="2.819122"/>
    <path d="m596.9 431.5c-3.2.5-4.9-3.5-1.6-5.4 6.2-3.5 86.5-26.3 100-26.9 16.8-.7 22.7 32.6 34.2 32.2 7.5-.2 13.1-6.2 18.3-10.8" stroke-width="5.625"/>
   </g>
  </g>
 </g>
</svg>
