<svg height="210mm" viewBox="0 0 1052.4 744.1" width="297mm" xmlns="http://www.w3.org/2000/svg">
 <g fill="none" stroke-linecap="round">
  <g transform="translate(0 -308.26772)">
   <path d="m57.6 742.2h948.8" stroke="#969696" stroke-width="1.875"/>
   <g stroke="#000" stroke-dasharray="3.75 7.5" stroke-miterlimit="2" stroke-width=".9375">
    <path d="m58.3 844.1h948.8"/>
    <path d="m58.3 641.8h948.8"/>
    <path d="m58.3 540.6h948.8"/>
   </g>
  </g>
  <g stroke="#000" stroke-linejoin="round" stroke-width="5.625">
   <path d="m357.1 431.3c43.9-15.9 71.5-94.7 46.6-94.9-7.2-.1-18.9 6.5-35.8 23.2"/>
   <path d="m357.1 431.3c-5.5 1.8-7-3.4-3.4-5.4 25.2-11.5 81.3-27 104.1-27.3 26.4-.4 28.9 41 51.2 30.5 8.7-4.1 29.6-16.5 61.6-41.7 38.4-30.2 67.6-55.8 91.9-80.8 35-34 55.3-65.7 38.8-71.4-14.6-5-41.5 12.1-88.8 89.9-44.1 76.3-43.7 106.4-28 106.4 8.7-.1 23.2-8.1 39-22.4"/>
   <path d="m445.7 399.7c18-2.7 20.5 5.8 34 21.4 7.9 9.7 10.2 10.2 15.8 10.2 1.9 0 4.4 0 6.5-.2"/>
   <path d="m468.7 402.3c6.9 6.1 5.3 1.6 20.6 25.1"/>
  </g>
 </g>
</svg>
