<svg height="210mm" viewBox="0 0 1052.4 744.1" width="297mm" xmlns="http://www.w3.org/2000/svg">
 <g fill="none" stroke-linecap="round">
  <g transform="translate(0 -308.26772)">
   <path d="m57.6 742.2h948.8" stroke="#969696" stroke-width="1.875"/>
   <g stroke="#000" stroke-dasharray="3.75 7.5" stroke-miterlimit="2" stroke-width=".9375">
    <path d="m58.3 844.1h948.8"/>
    <path d="m58.3 641.8h948.8"/>
    <path d="m58.3 540.6h948.8"/>
   </g>
  </g>
  <g stroke-linejoin="round" stroke-width="5.625">
   <g stroke="#000">
    <path d="m302.6 431.4c8.3.7 235.2-47.7 235.2-47.7l20.2 47.9"/>
    <path d="m653.3 361.6c-27.4 33.8-47.1 52.6-39.4 63.9 2.6 3.8 6.7 5.5 11.6 5.6 3.2.1 36.2-2.2 39.2 4.8"/>
    <path d="m615.8 347.2c23.7-19.2 60.9-14.6 37.5 14.4"/>
    <path d="m615.8 347.2c-21.7 15-57.8 84.3-57.8 84.3"/>
    <path d="m328.9 334.7c54.3-11 95.5-79.5 89.2-96.2-5.5-14.4-40.3 8.9-87.4 86.8-47.5 82-46.9 109.4-28 106.1"/>
    <path d="m662.3 435.5c.8.1 1.4.2 1.9.5.2.1.3.2.5.3.9.7 1.3 2 .8 4-1 3.9-5.4 6.1-7.5 6.9-4.3 1.6-7.6-2-5.1-5.9 1.6-2.4 4.2-5.1 7.4-5.7.2 0 .4-.1.7-.1s.5-.1.8-.1c.6 0 1.2.1 1.9.3"/>
   </g>
   <path d="m656.1 437.9 40.3-54.8" stroke="#00000c"/>
   <path d="m696.4 383.1c19.9 30.1 48.8 64.1 45.3 99.2-3 20.3-8.9 27.2-31.4 51.7" stroke="#000"/>
  </g>
 </g>
</svg>
