<svg height="210mm" viewBox="0 0 1052.4 744.1" width="297mm" xmlns="http://www.w3.org/2000/svg">
 <g fill="none" stroke-linecap="round">
  <g transform="translate(0 -308.26772)">
   <path d="m57.6 742.2h948.8" stroke="#969696" stroke-width="1.875"/>
   <g stroke="#000" stroke-dasharray="3.75 7.5" stroke-miterlimit="2" stroke-width=".9375">
    <path d="m58.3 844.1h948.8"/>
    <path d="m58.3 641.8h948.8"/>
    <path d="m58.3 540.6h948.8"/>
   </g>
  </g>
  <g stroke="#000">
   <path d="m450.4 383.5c12.7-15.5 34.2-47 53.4-48.7 17.1-.9 28 16.5-25.6 45.6 48.5-19.3 15.5 22.5.8 50.3l122.3-94.9" stroke-linejoin="round" stroke-width="5.625"/>
   <path d="m499.3 380.8-25.9 47.2" stroke-width="8.4375"/>
   <path d="m495.2 379.9-31.4 51.3" stroke-width="5.625"/>
   <path d="m479.1 430.7-15.2.5" stroke-width="5.625"/>
   <path d="m489.7 387.3c4.5-6.9 1.1-10-2.7-9.1" stroke-width="3.75"/>
   <g stroke-linejoin="round" stroke-width="5.625">
    <path d="m417.5 333.6c54.3-11 97.9-79.5 91.5-96.2-5.5-14.4-40.2 8.9-87.4 86.8-45.2 78.1-47.2 106.9-30.9 106.6 19.7-1.2 31.8-12.4 59.8-47.4"/>
    <path d="m601.4 335.8-56.7 94.9 53.6-38.6"/>
   </g>
  </g>
 </g>
</svg>
