<svg height="210mm" viewBox="0 0 1052.4 744.1" width="297mm" xmlns="http://www.w3.org/2000/svg">
 <g fill="none" stroke-linecap="round">
  <g transform="translate(0 -308.26772)">
   <path d="m57.6 742.2h948.8" stroke="#969696" stroke-width="1.875"/>
   <g stroke="#000" stroke-dasharray="3.75 7.5" stroke-miterlimit="2" stroke-width=".9375">
    <path d="m58.3 844.1h948.8"/>
    <path d="m58.3 641.8h948.8"/>
    <path d="m58.3 540.6h948.8"/>
   </g>
  </g>
  <g stroke="#000">
   <g stroke-linejoin="round">
    <path d="m463.7 418.8 103.9-83.2" stroke-width="5.625"/>
    <path d="m394.4 431.5c37.2-46.5 68.5-92.2 94.2-95 1.6-.1 3.3-.1 5.1.1 7 .3 9.9 7 9.7 12-.3 6.8-3.7 16.8-10.6 30.8l-25.6 52.3" stroke-width="5.624999"/>
    <path d="m499.5 359.7-40.3 71.8" stroke-width="5.624999"/>
    <path d="m482.3 391.4-19.4 39.7" stroke-width="3.75"/>
    <path d="m459.2 431.5 7.9.2" stroke-width="5.624999"/>
   </g>
   <path d="m481 338.9c8.8-2.9 15.4-.2 17.6 4.5 3.6 7.7-4.8 23.1-10.1 34.3" stroke-width="3.75"/>
   <g stroke-linejoin="round">
    <path d="m488.9 235.4-94.5 196.1" stroke-width="5.624999"/>
    <path d="m297.8 390.2c-7.6 26.1 4.2 41.9 24.4 41.1 23.1-.9 37.7-13.1 59.3-40.8 20.1-25.8 107.3-155.1 107.3-155.1" stroke-width="5.625"/>
    <path d="m475 389.1a19.2 25.1 41.6 0 1 -14.3 31.3 19.2 25.1 41.6 0 1 -27.6-6.8 19.2 25.1 41.6 0 1 14.3-31.3 19.2 25.1 41.6 0 1 27.6 6.8z" stroke-width="5.625"/>
    <path d="m567.6 335.6-46.4 95.9" stroke-width="5.624999"/>
    <path d="m586.4 431.5c18.4-11.3 70.3-49.2 63.9-91.9-4.7-31.3 24.5-44.6 38.9-53.9 17.8-10.7 29.8-19 33.7-32 2.5-11.7-2.5-16.5-8.7-18.1-5.8-1.5-12.9-1.4-21 .6-9.3 2.3-19.5 9.6-32 25.3l-140 170" stroke-width="5.625"/>
   </g>
   <path d="m780 233.8c-122.2 134.9-204.4 200.1-193.6 197.7" stroke-width="5.625"/>
  </g>
 </g>
</svg>
