<svg height="210mm" viewBox="0 0 1052.4 744.1" width="297mm" xmlns="http://www.w3.org/2000/svg">
 <g fill="none" stroke-linecap="round">
  <g transform="translate(0 -308.26772)">
   <path d="m57.6 742.2h948.8" stroke="#969696" stroke-width="1.875"/>
   <g stroke="#000" stroke-dasharray="3.75 7.5" stroke-miterlimit="2" stroke-width=".9375">
    <path d="m58.3 844.1h948.8"/>
    <path d="m58.3 641.8h948.8"/>
    <path d="m58.3 540.6h948.8"/>
   </g>
  </g>
  <g stroke="#000" stroke-linejoin="round" stroke-width="5.625">
   <path d="m881.2 376-245.6 8.7 38.9-97.3-62.4 66.8"/>
   <ellipse cx="-64.541855" cy="468.45569" rx="25.728558" ry="20.371416" transform="matrix(.79083574 -.61202846 .61202846 .79083574 0 0)"/>
   <path d="m215.4 402.4c18.8-29 45.2-60.7 79.9-65.8 25.2-3.6 44.1 13.8 33.7 47.1"/>
   <path d="m328.9 383.7s170.4-37.1 205.8-36.4c20.9.5 17.4 36.5 35.1 36.3 16-.1 24.9-11.9 42.4-29.3"/>
  </g>
 </g>
</svg>
