<svg height="210mm" viewBox="0 0 1052.4 744.1" width="297mm" xmlns="http://www.w3.org/2000/svg">
 <g fill="none" stroke-linecap="round">
  <g transform="translate(0 -308.26772)">
   <path d="m57.6 742.2h948.8" stroke="#969696" stroke-width="1.875"/>
   <g stroke="#000" stroke-dasharray="3.75 7.5" stroke-miterlimit="2" stroke-width=".9375">
    <path d="m58.3 844.1h948.8"/>
    <path d="m58.3 641.8h948.8"/>
    <path d="m58.3 540.6h948.8"/>
   </g>
  </g>
  <g stroke="#000" stroke-linejoin="round" stroke-width="5.625">
   <path d="m548.4 430.6c11-11.9 52.3-55.6 59.5-63.6 15.8-19 46.9-49.9 55.5-58.6 1.6-1.6 0 0 4.8-4.4 35-32.3 45.3-10.4 34.7 21-14.7 43-42.4 79.5-69.3 116.4-43.5 61-58.9 41.1-59.8 38.1-2.3-7.3 5.5-36.8 38-60 16.1-12.6 41-26.6 61.8-37.4"/>
   <path d="m373.6 430.9c-16.6 1.4 123.6-95.8 123.6-95.8l51.2 95.5"/>
   <path d="m380.9 364.7c5.3-5.6 11.8-12.5 13.2-13.8 62.3-55.6 39.5 47-9.4 75-1.4.8-8.1 5.3-11 5"/>
  </g>
 </g>
</svg>
