<svg height="210mm" viewBox="0 0 1052.4 744.1" width="297mm" xmlns="http://www.w3.org/2000/svg">
 <g fill="none" stroke-linecap="round">
  <g transform="translate(0 -308.26772)">
   <path d="m57.6 742.2h948.8" stroke="#969696" stroke-width="1.875"/>
   <g stroke="#000" stroke-dasharray="3.75 7.5" stroke-miterlimit="2" stroke-width=".9375">
    <path d="m58.3 844.1h948.8"/>
    <path d="m58.3 641.8h948.8"/>
    <path d="m58.3 540.6h948.8"/>
   </g>
  </g>
  <g stroke="#000" stroke-linejoin="round">
   <path d="m477.7 375.4-58.1 39.2c-4.5 3-7.7 8.1-8.3 9-1.9 3.1-1.1 5.3 3.9 5.8 3 .3 9.7-4.2 11-5 48.9-28 71.8-129.3 9.4-73.8-2.3 2.1-17.4 18.4-20 20.9" stroke-width="5.419139"/>
   <g stroke-width="5.625">
    <path d="m477.7 375.4c53.7-37.8 162.2-128.3 130.2-139.3-14.6-5-41.6 10.9-88.8 88.8-60.3 104.2-36 118.4-1.8 98.4 2.3-1.4 13.4-8.1 26-15.7"/>
    <path d="m543.3 407.5c12.2-6.7 23.6-18.9 39.1-15.4 20.8 11.5 11 63.9 51.1 23.9"/>
   </g>
  </g>
 </g>
</svg>
