<svg height="210mm" viewBox="0 0 1052.4 744.1" width="297mm" xmlns="http://www.w3.org/2000/svg">
 <g fill="none" stroke-linecap="round">
  <g transform="translate(0 -308.26772)">
   <path d="m57.6 742.2h948.8" stroke="#969696" stroke-width="1.875"/>
   <g stroke="#000" stroke-dasharray="3.75 7.5" stroke-miterlimit="2" stroke-width=".9375">
    <path d="m58.3 844.1h948.8"/>
    <path d="m58.3 641.8h948.8"/>
    <path d="m58.3 540.6h948.8"/>
   </g>
  </g>
  <g stroke="#000">
   <g stroke-width="5.625">
    <path d="m474.8 399.8c3-4.3 32.6-45.1 40.6-53.2 21.6-21.6 60.9-14.6 37.5 14.4-27.4 33.8-45.5 50.2-39.4 63.9 2.6 5.8 10.5 7.2 19.4 5 5.7-1.4 19.4-6.8 37.1-21.1" stroke-linejoin="round"/>
    <path d="m553.8 338.2c14.5 10.1 4.3 27.8-12.4 44.2-14.4 14-23.4 26.4-29.5 38.7"/>
    <path d="m553.8 338.2c.8-1.1 3.9 6.1.7 14.2-3.2 8.4-12.8 17.8-18.3 22.9-10.8 10.1-30.6 29-24.3 45.7"/>
   </g>
   <g stroke-width="2.8125">
    <path d="m545.2 336.5c11.3 1.3 8.8 6.5 9.1 11"/>
    <path d="m517 413.8c-2.7 4.9-3.8 12 2.3 14.5"/>
    <path d="m509.3 415.2c-.1 5.7 2.9 11.5 4.9 13.1"/>
   </g>
   <g stroke-width="5.625">
    <g stroke-linejoin="round">
     <path d="m451.9 431.2 22.9-31.3"/>
     <path d="m570 408.8 33-28.8"/>
     <path d="m758 336.1c25.1-25.6 55.2-54.7 77.9-54.8 9.8 1.5 16.5 10.3 8.1 25.6-20.7 38.3-45.5 50.2-39.4 63.9 4.2 9.5 21.2 7.3 36.5-3.7 3.5-2.5 11.3-8 17.3-14"/>
     <path d="m740.2 294.7c-55.8 41.6-128.8 96.7-138.9 111.8"/>
     <path d="m758 336.1c-38.3 32.7-80.3 56.6-105.9 80.3-30.2 31.6-35.1 56-29.6 65.9 2.9 5.3 34.7 12.4 62.3-63.4 15.8-47.4 16.5-113.3 70.8-131.6"/>
    </g>
    <path d="m734.5 298.8c-27.4 24.6-29.1 58.7-39.9 100.9-7.5 29.4-23.1 69.4-55.3 83.9"/>
    <path d="m724.7 309.6c-22.2 34.7-16.4 49.6-26 88-10 39.9-19.2 60.3-50.1 80.6"/>
    <g stroke-linejoin="round">
     <path d="m348.9 431.9c22.3-29.8 45-44.5 71.4-46.9 22.7-1.9 39.2 14.9 31.6 46.2"/>
     <path d="m602.9 379.9 24.3 18.5"/>
     <path d="m627.2 398.4c1.6.9 3.1 2 4.2 3.5 1.3 1.7 2.2 3.7 2.5 5.8.4 2.5.2 5.3-.7 7.9-.7 2.1-1.8 4.3-3.3 6.2-1.3 1.7-2.8 3.3-4.7 4.7-1.8 1.4-3.7 2.5-5.7 3.3-1.3.5-2.6.9-3.9 1.2-1.8.4-3.6.5-5.3.4-2.3-.1-4.4-.7-6.3-1.7-1.6-.9-3.1-2-4.2-3.5-2.4-3.2-3.2-7.2-2.5-11.2.5-2.9 1.8-5.9 3.8-8.5"/>
     <path d="m233.9 352.9c19.6-25.9 70.3-22.6 44.6 9-27.4 33.9-47.1 52.6-39.4 63.9 3.6 5.2 10 6.5 17.4 5.1 21.4-4.3 40.6-24.9 62.9-46.9l29.6 47.9"/>
    </g>
   </g>
  </g>
 </g>
</svg>
