<svg height="210mm" viewBox="0 0 1052.4 744.1" width="297mm" xmlns="http://www.w3.org/2000/svg">
 <g fill="none" stroke-linecap="round">
  <g transform="translate(0 -308.26772)">
   <path d="m57.6 742.2h948.8" stroke="#969696" stroke-width="1.875"/>
   <g stroke="#000" stroke-dasharray="3.75 7.5" stroke-miterlimit="2" stroke-width=".9375">
    <path d="m58.3 844.1h948.8"/>
    <path d="m58.3 641.8h948.8"/>
    <path d="m58.3 540.6h948.8"/>
   </g>
  </g>
  <g stroke="#000">
   <path d="m582.8 390.3-54 41" stroke-width="5.625"/>
   <path d="m345.3 336.5-37.3 64.5" stroke-width="5.624959"/>
   <g stroke-linejoin="round">
    <path d="m348.2 393.2c6.9 8.9 3.4 23.2-7.9 31.9-11.2 8.7-25.9 8.5-32.8-.4s-3.4-23.2 7.9-31.9c11.2-8.7 25.9-8.5 32.8.4z" stroke-width="5.624959"/>
    <path d="m467.2 327.6c-1.9 1.9-4.5 2.5-5.8 1.3-1.3-1.3-.9-3.9 1-5.9s4.5-2.6 5.8-1.3.9 4-1 6z" stroke-width="8.924934"/>
   </g>
  </g>
 </g>
</svg>
