<svg height="210mm" viewBox="0 0 1052.4 744.1" width="297mm" xmlns="http://www.w3.org/2000/svg">
 <g fill="none" stroke-linecap="round">
  <g transform="translate(0 -308.26772)">
   <path d="m57.6 742.2h948.8" stroke="#969696" stroke-width="1.875"/>
   <g stroke="#000" stroke-dasharray="3.75 7.5" stroke-miterlimit="2" stroke-width=".9375">
    <path d="m58.3 844.1h948.8"/>
    <path d="m58.3 641.8h948.8"/>
    <path d="m58.3 540.6h948.8"/>
   </g>
  </g>
  <g stroke="#000">
   <g stroke-linejoin="round" stroke-width="5.625">
    <path d="m509.2 376.5 56.9-27.4"/>
    <path d="m470 345.9c14.9-24 32.2-52 56.8-62 19.6-8.3 35 2.5 12.3 40.5l-29.8 52.1"/>
    <path d="m549.1 290.2-49.2 86.2"/>
    <path d="m549.4 296.4-45.6 79.9"/>
    <path d="m499.9 376.4 9.3.1"/>
   </g>
   <path d="m545.2 284c1.8 1.7 2.3 5.7.7 9.9" stroke-width="3.75"/>
   <g stroke-linejoin="round" stroke-width="5.625">
    <path d="m420 335.4-42.4 73.1c-8.2 14.1 2.7 24.2 17.6 22.7 10.7-1.1 23.5-8.1 36.2-24.2"/>
    <path d="m431.4 407c9.8-11.8 38.6-61.1 38.6-61.1"/>
    <path d="m569.7 336.1c.9.1 1.6.3 2.2.6l.6.3c1.1.8 1.5 2.3.9 4.6-1.2 4.5-6.2 7-8.6 7.9-5 1.8-8.7-2.3-5.8-6.7 1.8-2.8 4.9-5.8 8.5-6.6.2 0 .5-.1.7-.1.3 0 .6-.1.9-.1.7 0 1.4.1 2.1.3"/>
    <path d="m563.4 350.1c16.4 4.6 46.8-13.1 61.9-13.7 24-.8 32.4 41.1 48.8 40.7 10.8-.3 21.2-11 27.8-18.1"/>
   </g>
  </g>
 </g>
</svg>
