<svg height="210mm" viewBox="0 0 1052.4 744.1" width="297mm" xmlns="http://www.w3.org/2000/svg">
 <g fill="none" stroke-linecap="round">
  <g transform="translate(0 -308.26772)">
   <path d="m57.6 742.2h948.8" stroke="#969696" stroke-width="1.875"/>
   <g stroke="#000" stroke-dasharray="3.75 7.5" stroke-miterlimit="2" stroke-width=".9375">
    <path d="m58.3 844.1h948.8"/>
    <path d="m58.3 641.8h948.8"/>
    <path d="m58.3 540.6h948.8"/>
   </g>
  </g>
  <g stroke="#000">
   <g stroke-linejoin="round">
    <path d="m578 236c-35.9 22.6-79.7 56.8-48.6-1.9l-128.5 196.4" stroke-width="5.625"/>
    <path d="m314 430.8c-18 1.4 65.5-46.6 65.5-46.6l21.4 46.2" stroke-width="5.625"/>
    <path d="m314 430.8c3 .3 9.7-4.2 11-5 50.8-29 73.5-137 2.1-66.9" stroke-width="5.419139"/>
    <g stroke-width="5.625">
     <path d="m599.5 260.5c26.8-42.7 69.5-29.1 41.4 18.5l-90 152.7 52.7-19.8"/>
     <path d="m603.6 411.9c21.7-11.6 45.8-24.5 48.8-26.4 7.2-4.5 15.1-9 20.2-13.4 12.8-11.2 18.6-26.1 16.7-30.9-2.8-7.3-34.7-8.6-58.5 30.7-26.3 43.1-17.7 61-4.2 59.2 9.2-1.4 15.1-5.1 15.1-5.1 13.2-9.2 19.8-17.4 25.1-23.4"/>
    </g>
   </g>
   <path d="m669.5 342.4c-30.3 19.2-39.8 50.5-52.2 79" stroke-width="4.6875"/>
   <path d="m662.4 342.4c-17.9 10.4-41.1 45.1-46.5 68.6" stroke-width="4.6875"/>
   <path d="m623 410c-4 10.7-6.4 19.5 3.6 21" stroke-width="2.8125"/>
   <path d="m683.9 339.2c-7.4-2.4-11 2.2-15.8 5.2" stroke-width="2.8125"/>
   <path d="m659 347.2c-28 20.5-28.9 42.2-43.4 69.6" stroke-width="4.6875"/>
  </g>
 </g>
</svg>
