<svg height="210mm" viewBox="0 0 1052.4 744.1" width="297mm" xmlns="http://www.w3.org/2000/svg">
 <g fill="none" stroke-linecap="round">
  <g transform="translate(0 -308.26772)">
   <path d="m57.6 742.2h948.8" stroke="#969696" stroke-width="1.875"/>
   <g stroke="#000" stroke-dasharray="3.75 7.5" stroke-miterlimit="2" stroke-width=".9375">
    <path d="m58.3 844.1h948.8"/>
    <path d="m58.3 641.8h948.8"/>
    <path d="m58.3 540.6h948.8"/>
   </g>
  </g>
  <g stroke="#000">
   <g stroke-linejoin="round" stroke-width="5.625">
    <path d="m302.6 431.7 126.9-96.2-56.7 94.9 187-163.7"/>
    <path d="m296.1 398.8 33.9-16-27.4 48.9"/>
    <path d="m559.8 266.6c32.3-24.9 52.7-64.3 48.1-76.4-5.5-14.4-40.2 8.9-87.4 86.8-50.2 86.7-54.5 106.4-24.7 106.4 7 0 17.9-4.9 28.5-9 10.7-4.1 25.6-9.9 25.6-9.9"/>
    <path d="m549.8 364.6s45.2-23 50.9-26.5c7.2-4.4 15.1-9 20.2-13.4 12.8-11.2 18.6-26.1 16.7-30.9-2.8-7.3-34.7-8.6-58.5 30.7-26.3 43.1-17.7 60.3-4.2 58.6 14-3.8 28.8-9.6 42.4-16.5"/>
    <path d="m613.3 368.8c3.8-2.3 7.9-4.6 12-6.8"/>
   </g>
   <path d="m617.8 295c-30.3 19.2-39.8 50.5-52.1 79" stroke-width="4.6875"/>
   <path d="m610.7 295c-17.9 10.4-41.1 45-46.5 68.6" stroke-width="4.6875"/>
   <path d="m571.3 362.6c-4 10.7-6.4 18.8 3.6 20.4" stroke-width="2.8125"/>
   <path d="m632.2 291.8c-7.4-2.4-11 2.2-15.8 5.2" stroke-width="2.8125"/>
   <path d="m607.3 299.8c-28 20.5-28.9 42.2-43.4 69.6" stroke-width="4.6875"/>
   <g stroke-linejoin="round" stroke-width="5.625">
    <path d="m625.3 362c6.2-3.8 34.9-26.6 34.9-26.6 1-.8-25.9 49.6-25.9 49.6"/>
    <path d="m667.1 338.3-25.3 46.6"/>
    <path d="m646.3 384.8-12 .2"/>
    <path d="m674 335.2-27.7 49.5"/>
    <path d="m674 335.2-14.1-.1"/>
    <path d="m665.2 336.4-25.3 46.6"/>
   </g>
  </g>
 </g>
</svg>
