<svg height="210mm" viewBox="0 0 1052.4 744.1" width="297mm" xmlns="http://www.w3.org/2000/svg">
 <g fill="none" stroke-linecap="round">
  <g transform="translate(0 -308.26772)">
   <path d="m57.6 742.2h948.8" stroke="#969696" stroke-width="1.875"/>
   <g stroke="#000" stroke-dasharray="3.75 7.5" stroke-miterlimit="2" stroke-width=".9375">
    <path d="m58.3 844.1h948.8"/>
    <path d="m58.3 641.8h948.8"/>
    <path d="m58.3 540.6h948.8"/>
   </g>
  </g>
  <g stroke="#000" stroke-linejoin="round">
   <g stroke-width="5.625">
    <path d="m517 431.2 55.3-54.8"/>
    <path d="m572.2 376.4 40.5-40.8-39 72.4c-8.4 15.5 7.5 24.4 21.5 23.1"/>
    <path d="m487.2 377.9c18.4-13.2 34.6-28.9 53-38.3 19.6-8.3 30.7 1.3 8 39.3l-31.2 52.3"/>
   </g>
   <path d="m487.2 377.9-58.1 39.3c-4.5 3-7.7 8.1-8.3 9-1.9 3.1-1.1 5.3 3.9 5.8 3 .3 9.7-4.2 11-5 48.9-28 71.8-129.3 9.4-73.8-2.3 2.1-17.4 18.4-20 20.9" stroke-width="5.419139"/>
   <path d="m595.2 431.1c17.5-1.1 65.8-33.4 85-34.3 18.3-.7 24.7 35.4 37.2 35.1 8.2-.2 14.1-8.6 19.1-14.8" stroke-width="5.625"/>
  </g>
 </g>
</svg>
