<svg height="210mm" viewBox="0 0 1052.4 744.1" width="297mm" xmlns="http://www.w3.org/2000/svg">
 <g fill="none" stroke-linecap="round">
  <g transform="translate(0 -308.26772)">
   <path d="m57.6 742.2h948.8" stroke="#969696" stroke-width="1.875"/>
   <g stroke="#000" stroke-dasharray="3.75 7.5" stroke-miterlimit="2" stroke-width=".9375">
    <path d="m58.3 844.1h948.8"/>
    <path d="m58.3 641.8h948.8"/>
    <path d="m58.3 540.6h948.8"/>
   </g>
  </g>
  <g stroke="#000" stroke-linejoin="round">
   <path d="m311.3 431.5c35-73.3 92.9-96.8 132.2-95.2 37.4 1.5 65.7 38.1 55.9 95.5" stroke-width="5.625001"/>
   <path d="m499.4 431.7c27.9-36.3 57.4-79 86.1-113.6 15.3-18.5 29.7-33.2 45.9-32.9 8.1.1 14.9 5.5 14.2 16.3-.5 6.7-5 15.5-11.7 26.8l-31.2 52.3" stroke-width="5.625001"/>
   <path d="m602.6 380.5 90.7-44.2 21.3 44.2" stroke-width="5.624999"/>
  </g>
 </g>
</svg>
