<svg height="210mm" viewBox="0 0 1052.4 744.1" width="297mm" xmlns="http://www.w3.org/2000/svg">
 <g fill="none" stroke-linecap="round">
  <g transform="translate(0 -308.26772)">
   <path d="m57.6 742.2h948.8" stroke="#969696" stroke-width="1.875"/>
   <g stroke="#000" stroke-dasharray="3.75 7.5" stroke-miterlimit="2" stroke-width=".9375">
    <path d="m58.3 844.1h948.8"/>
    <path d="m58.3 641.8h948.8"/>
    <path d="m58.3 540.6h948.8"/>
   </g>
  </g>
  <g stroke-linejoin="round">
   <g stroke="#000" stroke-width="5.625">
    <path d="m478.1 410.8 150.5-174.7"/>
    <path d="m628.6 236.1c-34.9 58.9-69.6 117.8-104 177-11.9 20.5 10 23.2 29 16.4 6.3-1.7 19-9.7 27.6-17.4"/>
    <path d="m581.2 412.1c26-20.5 96.2-141.3 130.6-168.6 83-65-28.8 162.3-88.2 186.6-16.3 3.7-17.4-2.3-12.1-8.1 15.8-12 50.4-19.5 95.6-30.8"/>
   </g>
   <g stroke="#010000">
    <path d="m472.9 336.6-47.8 86.7" stroke-width="6.5625"/>
    <path d="m365.6 435 98-98.7-39 72.4c-8.4 15.5 5 26.1 21.5 22.2 2.8-.6 11.2-2.9 16.1-6.2 5.7-3.8 11-8.3 16-13.9" stroke-width="5.625"/>
    <path d="m468.2 336.6-44.7 81.9" stroke-width="6.5625"/>
   </g>
  </g>
  <path d="m430 417.2c-1.6 4.1-2.6 6.5.8 11.9" stroke="#010000" stroke-width="3.75"/>
  <g stroke-linejoin="round">
   <path d="m472.9 336.6-9.3-.4" stroke="#010000" stroke-width="6.5625"/>
   <g stroke="#000" stroke-width="5.625">
    <path d="m707.1 391.1 18.8 40.2"/>
    <path d="m369.5 434.4c-17.4-1.6-46.1-3.1-62 5.9-15 8.4-29.9 17.6-40.8 26.1-32.5 23.2-40.2 52.7-38 60 .9 3 16.3 22.9 59.8-38.1 26.9-36.9 54.6-73.4 69.3-116.4 15.5-30.1-1.4-56.7-44.4-11.6"/>
    <path d="m370.2 434.5c.8.1 1.4.2 1.9.5.2.1.3.2.5.3.9.7 1.3 2 .8 4-1 3.9-5.4 6.1-7.5 6.9-4.3 1.6-7.6-2-5.1-5.9 1.6-2.4 4.2-5.1 7.4-5.7.2 0 .4-.1.7-.1s.5-.1.8-.1c.6 0 1.2.1 1.9.3"/>
   </g>
  </g>
 </g>
</svg>
