<svg height="210mm" viewBox="0 0 1052.4 744.1" width="297mm" xmlns="http://www.w3.org/2000/svg">
 <g fill="none" stroke-linecap="round">
  <g transform="translate(0 -308.26772)">
   <path d="m57.6 742.2h948.8" stroke="#969696" stroke-width="1.875"/>
   <g stroke="#000" stroke-dasharray="3.75 7.5" stroke-miterlimit="2" stroke-width=".9375">
    <path d="m58.3 844.1h948.8"/>
    <path d="m58.3 641.8h948.8"/>
    <path d="m58.3 540.6h948.8"/>
   </g>
  </g>
  <g stroke="#000">
   <g stroke-linejoin="round" stroke-width="5.625">
    <path d="m309.3 431c40.7-36.2 149.4-136.4 159.9-146.7 19.5-19.3 41-44.4 32.9-49-8-4.5-40.3 8.9-87.4 86.8l-61.8 109.2"/>
    <path d="m302.8 398.2 33.9-16-27.4 48.9"/>
    <path d="m352.9 431.3 63.7-53.8"/>
    <path d="m416.6 377.5c16.5-14.1 33.4-29.8 55.4-39.5 19.6-8.3 35 2.5 12.3 40.5l-29.8 52.1 80.3-46.3"/>
    <path d="m494.3 344.4-49.2 86.2"/>
    <path d="m494.6 350.6-45.6 79.9"/>
    <path d="m445.1 430.6 9.3.1"/>
   </g>
   <path d="m490.4 338.2c1.8 1.7 2.3 5.7.7 9.9" stroke-width="3.75"/>
   <g stroke-linejoin="round" stroke-width="5.625">
    <path d="m689.6 430.3c-58.4-.4-88.3 14.4-124.7 49.4-23.7 26.3-31.9 40.6-27.9 50.7 2.2 5.6 34.7 12.4 62.3-63.3 15.8-47.4 16.5-113.3 70.8-131.6"/>
    <path d="m695.8 419.7c.6.1 1.2.2 1.7.4.1.1.3.2.4.3.8.6 1.1 1.7.6 3.4-.9 3.3-4.6 5.2-6.4 5.9-3.7 1.3-6.5-1.7-4.3-5 1.3-2.1 3.6-4.3 6.3-4.9.2 0 .4-.1.6-.1h.7c.5 0 1.1.1 1.6.2"/>
    <path d="m689.6 430.3c13 4.2 62.2-29 79-29.8 16-.6 21.6 31 32.6 30.7 7.2-.2 12.4-7.6 16.7-13"/>
    <path d="m673.4 420.4c.6.1 1.2.2 1.7.4.1.1.3.2.4.3.8.6 1.1 1.7.6 3.4-.9 3.3-4.6 5.2-6.4 5.9-3.7 1.3-6.5-1.7-4.3-5 1.3-2.1 3.6-4.3 6.3-4.9.2 0 .4-.1.6-.1h.7c.5 0 1.1.1 1.6.2"/>
   </g>
  </g>
 </g>
</svg>
