<svg height="210mm" viewBox="0 0 1052.4 744.1" width="297mm" xmlns="http://www.w3.org/2000/svg">
 <g fill="none" stroke-linecap="round">
  <g transform="translate(0 -308.26772)">
   <path d="m57.6 742.2h948.8" stroke="#969696" stroke-width="1.875"/>
   <g stroke="#000" stroke-dasharray="3.75 7.5" stroke-miterlimit="2" stroke-width=".9375">
    <path d="m58.3 844.1h948.8"/>
    <path d="m58.3 641.8h948.8"/>
    <path d="m58.3 540.6h948.8"/>
   </g>
  </g>
  <g stroke="#000" stroke-linejoin="round" stroke-width="5.625">
   <path d="m437.7 354.7c19.5-27.1 64.3-24.5 40.6 4.8-27.7 34.2-46 50.8-39.9 64.6 2.2 5.1 9.3 7.5 17.1 6.7"/>
   <path d="m625.9 362.1c-14.7 16.6-34.9 46.7-45.3 57.1"/>
   <path d="m455.5 430.8c15.6-.9 57.9-29.5 73.6-29.4 17.8-.5 14.5 29.3 31.9 29.8 8 .2 14.6-6 19.6-11.9"/>
   <path d="m637.6 435.6c-28.7 3.3-106.1 82.5-84.6 96.7 6.6 3.2 20.5-3.7 48-42.2 26.9-36.9 54.6-73.4 69.3-116.4 12.5-36.1-1.4-56.7-44.4-11.6"/>
  </g>
 </g>
</svg>
