<svg height="210mm" viewBox="0 0 1052.4 744.1" width="297mm" xmlns="http://www.w3.org/2000/svg">
 <g fill="none" stroke-linecap="round">
  <g transform="translate(0 -308.26772)">
   <path d="m57.6 742.2h948.8" stroke="#969696" stroke-width="1.875"/>
   <g stroke="#000" stroke-dasharray="3.75 7.5" stroke-miterlimit="2" stroke-width=".9375">
    <path d="m58.3 844.1h948.8"/>
    <path d="m58.3 641.8h948.8"/>
    <path d="m58.3 540.6h948.8"/>
   </g>
  </g>
  <g stroke="#000">
   <g stroke-width="5.625">
    <path d="m443.9 370.3c-48.5 34.3-124.8 97.5-141.7 110.6-32.5 23.2-34.2 39.6-31.9 47 .9 3 16.3 22.9 59.8-38.1 26.9-36.9 54.6-73.4 69.3-116.4 11-35.3-5.2-56.7-48.2-11.6" stroke-linejoin="round"/>
    <path d="m443.9 370.3c84.7-59.9 150.8-107.9 129.7-133.4-9.8-11.9-40.2 9-87.4 87.7-50.7 88.5-42.9 109.2-17.7 106.8" stroke-linejoin="round"/>
    <path d="m557.6 240c-48 60-85.1 119.5-107.8 180.8"/>
   </g>
   <path d="m548.1 248.2c-38.3 44.9-74.5 98.7-96.4 158.6" stroke-width="7.5"/>
   <path d="m571.8 236.5c-9.2-6.9-21.3 13.8-23.8 16.7" stroke-width="3.75"/>
   <path d="m454.7 407.6c-6.1 21.8-2.5 23.6 11.3 23.9" stroke-width="5.625"/>
   <ellipse cx="181.4734" cy="718.39648" rx="25.728558" ry="20.371416" stroke-linejoin="round" stroke-width="5.625" transform="matrix(.79083574 -.61202846 .61202846 .79083574 0 0)"/>
   <path d="m605.7 446c.3 9.3-.4 14.6-6.3 21.9-3.6 4.5-8.8 8.3-16 11.1" stroke-width="5.624961"/>
   <path d="m602.1 440.8c2 6.9 1.8 6.4.7 11.6-1.6 7.6-6.1 13.5-12.5 18.7-3.2 2.6-6.9 5-10.9 7.3" stroke-width="6.599955"/>
   <path d="m585 472.7c-5.3 3.7-10.3 5.7-16.3 3.5" stroke-width="2.849979"/>
   <path d="m591.3 436.1c6.2 1.3 8.4 3.3 9.7 7.9.3.9.9 2.9.4 5.9" stroke-width="2.849979"/>
   <g stroke-linejoin="round" stroke-width="5.625">
    <path d="m532.1 432.3 57.4 2.3"/>
    <path d="m575.7 437.7c24.2-12.3 69.9-37.5 87.6-38.4 18-.4 19.1 31.6 34.2 32.2 7.5.3 13.1-6.2 18.3-10.8"/>
    <path d="m468.4 431.4c22-1.6 55.6-47.1 69.4-62.9 13.3-15.1 27.1-28.8 38.1-31.6 31.4-7.9 2.9 78.4-43.7 95.3"/>
   </g>
  </g>
 </g>
</svg>
