<svg height="210mm" viewBox="0 0 1052.4 744.1" width="297mm" xmlns="http://www.w3.org/2000/svg">
 <g fill="none" stroke-linecap="round">
  <g transform="translate(0 -308.26772)">
   <path d="m57.6 742.2h948.8" stroke="#969696" stroke-width="1.875"/>
   <g stroke="#000" stroke-dasharray="3.75 7.5" stroke-miterlimit="2" stroke-width=".9375">
    <path d="m58.3 844.1h948.8"/>
    <path d="m58.3 641.8h948.8"/>
    <path d="m58.3 540.6h948.8"/>
   </g>
  </g>
  <g stroke="#000">
   <path d="m126.6 334.1c54.3-11 97.7-78.3 91.4-95-5.5-14.4-40.3 8.9-87.4 86.8-41.1 70.2-45.9 107.1-16.7 106.4" stroke-linejoin="round" stroke-width="5.624999"/>
   <path d="m241.5 361.9c-6.9 37.9-81.4 146.6-105.6 166.8" stroke-width="5.625"/>
   <path d="m146.7 516.4c-6.3 5.5-13.3 15.3-23.3 15.7" stroke-width="3.75"/>
   <path d="m113.8 432.3c26.5-.8 53.4-48.6 89-84.1 7.9-7.2 16.1-12.1 27.7-11.1 12.5 1 15.3 16.3 7.8 37.8-14.7 43-44.9 84.5-69.3 116.9-28.6 36.1-38 44.7-48.4 40.3-12.5-7.4-9.4-27.6 4.6-44.7 20-24.4 38.4-42.1 61.7-63.6 44.8-41.4 104.2-105.1 151.7-131.6 5.6-3 11.4-5.2 17.4-5.3 23.4-.5 35.6 20.7 45 42.9 10.5 24.8 18.1 49.1 33 51.7 12.4 2.2 24.5 2.3 36.6-7.6" stroke-linejoin="round" stroke-width="5.625"/>
   <path d="m242.4 354.3c-.8 27.6-20.4 69.8-38.2 96.8-26.4 40.2-58.9 76.1-73.6 80.7" stroke-width="5.625"/>
   <path d="m232.1 338.2c12.8 2.6 9.5 26.3 3.2 40.4" stroke-width="3.75"/>
   <g stroke-linejoin="round">
    <path d="m479.8 345.9c3.7 10.5-2.8 24.6-14.3 31.3-11.6 6.8-23.9 3.7-27.6-6.8s2.8-24.6 14.3-31.3c11.6-6.8 23.9-3.7 27.6 6.8z" stroke-width="5.625001"/>
    <g stroke-width="5.625">
     <path d="m547.6 431.3 308.5-96.1"/>
     <path d="m452.1 431.4c39-64.7 104.7-56.6 95.5-.1"/>
     <path d="m794.2 433.4c-27.3 25.4-90.2 91.8-63 99 11.2 2.5 33.1-7.6 54.5-66.3 15.7-47.2 16.4-112.8 70.4-130.9"/>
     <path d="m794.2 433.4c49.4-53.1 82.1-88.8 121.4-129.4 4.7-4.8 11.6-10.4 15.7-13.3 5.2-3.6 11.5-5.6 16.5-5.6 7.1.1 12.5.5 16.1 6 4.4 6.8 2 14-2.8 20.6-26.2 34.8-45.5 50.2-39.4 63.9 2.4 5.5 9.7 8.2 18 6.8 5.2-.9 12.9-2.7 26-12.8"/>
    </g>
   </g>
   <path d="m961.8 289.6c.8-1.1 3.5 6.2.4 14.1-3.2 8.2-12.5 19.1-17.8 24.2-10.5 9.9-29.8 30.2-23.7 46.5" stroke-width="5.472634"/>
   <path d="m950.7 286.7c14 .1 11.6 9.3 10.9 15.4" stroke-width="2.736317"/>
   <path d="m957.9 286.3c7.7 2.8 12.3 12.5 9.9 20.7-2.7 9-9.8 19.4-18.3 27.7-14 13.6-22.7 27.7-28.7 39.7" stroke-width="5.472634"/>
   <g stroke-width="2.736317">
    <path d="m928.1 363.8c-3.4 4.9-7.1 14.5 2.5 16.9"/>
    <path d="m918.2 368.6c-.1 5.5 2.8 13.3 12.6 15.2"/>
    <path d="m963.7 311.2-28.6 36.4"/>
   </g>
  </g>
 </g>
</svg>
