<svg height="210mm" viewBox="0 0 1052.4 744.1" width="297mm" xmlns="http://www.w3.org/2000/svg">
 <g fill="none" stroke-linecap="round">
  <g transform="translate(0 -308.26772)">
   <path d="m57.6 742.2h948.8" stroke="#969696" stroke-width="1.875"/>
   <g stroke="#000" stroke-dasharray="3.75 7.5" stroke-miterlimit="2" stroke-width=".9375">
    <path d="m58.3 844.1h948.8"/>
    <path d="m58.3 641.8h948.8"/>
    <path d="m58.3 540.6h948.8"/>
   </g>
  </g>
  <g stroke="#000">
   <path d="m720.7 186.2c-29.6 50.7-129.7 197.6-160 196.2" stroke-width="5.624999"/>
   <g stroke-linejoin="round" stroke-width="5.625">
    <path d="m410.9 396.4a19.2 25.1 41.6 0 1 -14.3 31.3 19.2 25.1 41.6 0 1 -27.6-6.8 19.2 25.1 41.6 0 1 14.3-31.3 19.2 25.1 41.6 0 1 27.6 6.8z"/>
    <path d="m505 374.2c9.2-7.3 21.2-18.4 29.9-26.6 34.3-32.4 83.2-78.8 104.1-99.7 30.2-30.2 49.4-56.4 34.3-61.6-14.6-5-42.6 12.2-89.8 90.1-46 79.4-42.2 106.7-22.8 105.8"/>
    <path d="m381.9 390.5s26.1-16.2 38.9-23.7c13.6-7.9 29.7-15.7 38.6-14.1 17.2 3.2 16 46.2 45.6 21.5"/>
    <path d="m444.9 355c5.4-2.4 14.4-.8 22.3 16.5 5.6 12.2 16.2 10.3 22.8 10.3"/>
    <path d="m456 354.7c7.6 3.9 5 .9 19.8 23.5"/>
   </g>
  </g>
 </g>
</svg>
