<svg height="210mm" viewBox="0 0 1052.4 744.1" width="297mm" xmlns="http://www.w3.org/2000/svg">
 <g fill="none" stroke-linecap="round">
  <g transform="translate(0 -308.26772)">
   <path d="m57.6 742.2h948.8" stroke="#969696" stroke-width="1.875"/>
   <g stroke="#000" stroke-dasharray="3.75 7.5" stroke-miterlimit="2" stroke-width=".9375">
    <path d="m58.3 844.1h948.8"/>
    <path d="m58.3 641.8h948.8"/>
    <path d="m58.3 540.6h948.8"/>
   </g>
  </g>
  <g stroke="#000">
   <g stroke-linejoin="round">
    <path d="m431.1 431.6c43.5-29.3 103.3-76 122.7-86.5 9.2-5 13.5-5.7 19.6-7.3 33.9-9.1 52.5 6.7 42.5 42" stroke-width="5.625"/>
    <path d="m606.5 341.5c7.1 5.9 8.1 27.1 3.2 37.8" stroke-width="6.5625"/>
    <path d="m594 335.2c16.4 3.3 16.8 35.2 10.1 45.2" stroke-width="4.6875"/>
   </g>
   <g stroke-width="5.625">
    <path d="m604.8 380.4 9.8.1"/>
    <g stroke-linejoin="round">
     <path d="m615.9 379.7c13.3-30.3 63.1-94.3 72.2-96.3 5.9-1.3 10.3 1.7 13.7 8.4 6.5 12.7 4 18.2 12.3 27.2 15.9 17.3 43.8-27.8 34.5-34.3-6.3-4.4-25.9 3.2-49.4 42-45 73.7-2.1 57.8 28.4 32.3"/>
     <path d="m379.6 430.4c18.7-4.1 109.7-56.4 122-66.5 14.5-12 15.9-21.2 14.7-24.3-2.8-7.4-29.2-4.3-53.4 35.5-10.6 18.7-20.4 35.7-31.8 56.5"/>
     <path d="m397.2 335.8-39 72.4c-8.4 15.5 5 26.1 21.5 22.2"/>
    </g>
   </g>
  </g>
 </g>
</svg>
