<svg height="210mm" viewBox="0 0 1052.4 744.1" width="297mm" xmlns="http://www.w3.org/2000/svg">
 <g fill="none" stroke-linecap="round">
  <g transform="translate(0 -308.26772)">
   <path d="m57.6 742.2h948.8" stroke="#969696" stroke-width="1.875"/>
   <g stroke="#000" stroke-dasharray="3.75 7.5" stroke-miterlimit="2" stroke-width=".9375">
    <path d="m58.3 844.1h948.8"/>
    <path d="m58.3 641.8h948.8"/>
    <path d="m58.3 540.6h948.8"/>
   </g>
  </g>
  <g stroke="#000" stroke-linejoin="round" stroke-width="5.625">
   <path d="m624.1 353.7 83.5-130.2c14.2-22.8 27.6-36.5 51.3-37.2 48.5.8-91.5 165.5-81.1 191.7 13.7 23.7 35.5 1 52.7-13.1"/>
   <path d="m730.5 364.9 35.9-29.6 24.4 48.6"/>
   <path d="m549.5 384.4 22 48.1 52.6-78.8"/>
   <ellipse cx="205.60519" cy="606.93018" rx="20.441614" ry="16.185308" transform="matrix(.79083574 -.61202846 .61202846 .79083574 0 0)"/>
   <path d="m323.9 333.2c54.3-11 89.4-76.8 83-93.6-5.5-14.4-29.6 3.9-76.8 81.8l-61.6 109.8"/>
   <path d="m268.6 431.2s160.4-108 175.6-123.8c9.3-8.1 16-26.4 1-24.3-11.6 3-24.1 15.2-38.4 38.9-27.1 44.3-22.8 56.7-8.4 54"/>
   <path d="m398.4 376c19.6-2.6 49.3-38.6 73.4-39.6 13.8-.5 17.6 12.4 24.6 23.2 12.4 20.7 30.3 15.3 43 10.3"/>
  </g>
 </g>
</svg>
