<svg height="210mm" viewBox="0 0 1052.4 744.1" width="297mm" xmlns="http://www.w3.org/2000/svg">
 <g fill="none" stroke-linecap="round">
  <g transform="translate(0 -308.26772)">
   <path d="m57.6 742.2h948.8" stroke="#969696" stroke-width="1.875"/>
   <g stroke="#000" stroke-dasharray="3.75 7.5" stroke-miterlimit="2" stroke-width=".9375">
    <path d="m58.3 844.1h948.8"/>
    <path d="m58.3 641.8h948.8"/>
    <path d="m58.3 540.6h948.8"/>
   </g>
  </g>
  <g stroke="#000" stroke-linejoin="round">
   <g stroke-width="5.625">
    <path d="m402.5 431.2c-21.7 20.6-89.9 90.6-66.5 100.8 15.1 5.9 27.5-15.2 41.2-38.3 18.6-31.4 44.3-101.8 53.1-131.4 20.6-70 54.4-118.3 84.3-128.2"/>
    <path d="m402.5 431.2s36.8-39.6 57.4-59.8c19.2-18.8 40.4-34.5 65.7-35.1 20.3-.5 32.2 15.6 41.1 34.3 7.7 16.9 14.5 36 22.5 47.4 6.5 9.2 15.1 13.2 23.7 13.1"/>
    <path d="m489.7 250.2c-41.7 35.1-105 149.1-135.4 173.2"/>
    <path d="m246.8 431.1s44.6-32.4 61.8-29.2 16 46.2 45.6 21.5"/>
    <path d="m294.2 404.2c5.4-2.4 14.4-.8 22.3 16.5 5.6 12.2 16.2 10.3 22.8 10.3"/>
    <path d="m305.3 403.9c7.6 3.9 5 .9 19.8 23.5"/>
   </g>
   <path d="m612.9 431.1c44.4.8 72.2-95.2 100.9-95 5.4 0 9.4 2.3 12.6 8.6 6.5 12.7 4 18.2 12.3 27.2 15.9 17.3 43.8-27.8 34.5-34.3-6.3-4.4-25.9 3.2-49.4 42-20.1 35.4-19.6 51.4-4.6 52.3 6.1.4 16-3.1 25.1-10.2" stroke-width="5.624999"/>
  </g>
 </g>
</svg>
