<svg height="210mm" viewBox="0 0 1052.4 744.1" width="297mm" xmlns="http://www.w3.org/2000/svg">
 <g fill="none" stroke-linecap="round">
  <g transform="translate(0 -308.26772)">
   <path d="m57.6 742.2h948.8" stroke="#969696" stroke-width="1.875"/>
   <g stroke="#000" stroke-dasharray="3.75 7.5" stroke-miterlimit="2" stroke-width=".9375">
    <path d="m58.3 844.1h948.8"/>
    <path d="m58.3 641.8h948.8"/>
    <path d="m58.3 540.6h948.8"/>
   </g>
  </g>
  <g stroke-width="5.625">
   <g stroke="#000">
    <path d="m298.2 336-42.4 72.8c-8.6 14.8 4.6 23.5 21.5 22.2 8.8-.7 14.3-6.7 18.3-11 5-5.4 49.9-58.8 49.9-58.8" stroke-linejoin="round"/>
    <path d="m345.5 361.2 113.4-126.7" stroke-linejoin="round"/>
    <path d="m458.9 234.5-113.1 196.5"/>
   </g>
   <g stroke-linejoin="round">
    <g stroke="#000">
     <path d="m345.8 431 160.1-147.4"/>
     <ellipse cx="292.21814" cy="546.88751" rx="25.728558" ry="20.371416" transform="matrix(.89236516 -.45131411 .45131411 .89236516 0 0)"/>
     <path d="m505.9 283.6-39.4 73.1c-8.4 15.5 4.6 23.5 21.5 22.2 3.4-.3 9.1-.5 15.6-1.2"/>
    </g>
    <path d="m634.9 397.3s63.9-32 124.7-63" stroke="#000003"/>
    <g stroke="#000">
     <path d="m521.6 371.6c26.2-15.2 103.8-63.1 126.8-86.4 17.4-17.7 31-39.7 27.9-47.7-5.5-14.4-40.2 8.9-87.4 86.8-50.2 86.7-46.5 112.7-24.4 105.5 3.7-1.2 16.2-6.4 21.1-8.5 5.4-2.3 49.3-23.9 49.3-23.9"/>
     <path d="m808.3 336.3c-27.3 24.1-66.9 56.8-48.6-1.9"/>
     <path d="m808.3 336.3 20 47.9"/>
    </g>
   </g>
  </g>
 </g>
</svg>
