<svg height="210mm" viewBox="0 0 1052.4 744.1" width="297mm" xmlns="http://www.w3.org/2000/svg">
 <g fill="none" stroke-linecap="round">
  <g transform="translate(0 -308.26772)">
   <path d="m57.6 742.2h948.8" stroke="#969696" stroke-width="1.875"/>
   <g stroke="#000" stroke-dasharray="3.75 7.5" stroke-miterlimit="2" stroke-width=".9375">
    <path d="m58.3 844.1h948.8"/>
    <path d="m58.3 641.8h948.8"/>
    <path d="m58.3 540.6h948.8"/>
   </g>
  </g>
  <g stroke="#000" stroke-linejoin="round" stroke-width="5.625">
   <path d="m540 327.8c-104.3 102.6-169.2 138.3-191 159.6-21.2 20.6-18.4 34.4-17.2 40 .6 3.1 9.6 22.2 53.1-38.8 48.1-67.3 86.2-138.1 121.9-209.8 24.4-41.7.9-65.2-35.7-18.9"/>
   <path d="m540 327.8 49.3-42.4-56.7 94.9"/>
   <path d="m617.2 428.6c-1.1.5-20.6 2-27 2.7-11.3 1.2-29.3-.3-41 6.3-14.4 8.1-22.6 15.9-34.8 29.2-24.9 27.2-38.9 53.7-35.9 61.5 1.1 2.9 17.7 21.8 57.3-41.8l88-150.7"/>
   <path d="m617.2 428.6c8.3-1.7 14.3-4.4 19-7.5 2.2-1.5 10.2-8.5 12.7-10.8"/>
   <path d="m619.9 411.8c1 .1 1.8.3 2.5.7.2.1.4.2.6.4 1.2.9 1.7 2.6 1 5.2-1.3 5.1-7.1 8-9.8 9-5.7 2-9.8-2.6-6.6-7.6 2-3.1 5.5-6.6 9.7-7.5.3-.1.6-.1.9-.1s.7-.1 1-.1c.8 0 1.6.1 2.4.3"/>
   <path d="m648.8 410.3 30.1-27.2 24 48.1"/>
   <path d="m623.8 335.7-91.2 44.6"/>
  </g>
 </g>
</svg>
