<svg height="210mm" viewBox="0 0 1052.4 744.1" width="297mm" xmlns="http://www.w3.org/2000/svg">
 <g fill="none" stroke-linecap="round">
  <g transform="translate(0 -308.26772)">
   <path d="m57.6 742.2h948.8" stroke="#969696" stroke-width="1.875"/>
   <g stroke="#000" stroke-dasharray="3.75 7.5" stroke-miterlimit="2" stroke-width=".9375">
    <path d="m58.3 844.1h948.8"/>
    <path d="m58.3 641.8h948.8"/>
    <path d="m58.3 540.6h948.8"/>
   </g>
  </g>
  <g stroke="#000">
   <g stroke-linejoin="round">
    <g stroke-width="5.624999">
     <path d="m383.5 384.5 20.5 46.3"/>
     <path d="m404 430.9 47.8-46.5"/>
     <path d="m499.1 426c-37 13.6-46-4-47.4-41.6"/>
    </g>
    <ellipse cx="647.84558" cy="-38.859745" rx="5.271423" ry="7.848564" stroke-width="14.034715" transform="matrix(.72846687 .68508103 -.68508103 .72846687 0 0)"/>
   </g>
   <path d="m383.5 384.5c-24.6 44.9-56.2 108.8-61.1 118.3-7.7 15-2.5 29.1 12.1 29.7 11.3.3 20-7.4 27.5-16.9" stroke-width="5.625"/>
   <g stroke-linejoin="round">
    <path d="m660.1 292.9c-29.5 19.8-64.7 62.7-69.6 68.5-18.1 21.3-45.5 54.1-57 62.1-7.8 5.7-17.1 9.2-24.5 9.4-7.3.8-13.7-1.8-16.3-7.4" stroke-width="5.624999"/>
    <path d="m738.8 332.8c-19.5 7.4-52.2 30.4-65.4 41.7-25 19.2-42.7 43.7-29.2 55.1 7 5 26.9.1 57.1-40.9 26.9-36.9 53.3-75.4 68-118.4 3.2-9.4 3.9-18.3 2.2-24.9s-5.7-10.9-11.9-11.1c-8.5-.6-21.9 7.7-34.5 19.7-38.6 36.6-97.2 108.4-158.7 179.5-17.9 22.9-29.7 45.2-15.2 49.1 11.2 2.5 33.1-7.6 54.5-66.3 15.7-47.2 16.4-112.8 70.4-130.9" stroke-width="5.625"/>
   </g>
  </g>
 </g>
</svg>
