<svg height="210mm" viewBox="0 0 1052.4 744.1" width="297mm" xmlns="http://www.w3.org/2000/svg">
 <g fill="none" stroke-linecap="round">
  <g transform="translate(0 -308.26772)">
   <path d="m57.6 742.2h948.8" stroke="#969696" stroke-width="1.875"/>
   <g stroke="#000" stroke-dasharray="3.75 7.5" stroke-miterlimit="2" stroke-width=".9375">
    <path d="m58.3 844.1h948.8"/>
    <path d="m58.3 641.8h948.8"/>
    <path d="m58.3 540.6h948.8"/>
   </g>
  </g>
  <g stroke-linejoin="round">
   <path d="m390.2 410.2 308.6-174.3" stroke="#0a0000" stroke-width="5.625"/>
   <g stroke="#000">
    <path d="m371.6 349.4c4.3-3.9 9.7-7.4 17.8-10.9 24.8-6.9 35 2.5 12.3 40.5l-29.8 52.1" stroke-width="5.625"/>
    <path d="m374.1 427.5c1-1.3 4-7.6 5.8-10.5-.6-3.1-4.6-7.9-9-9.6-2.4-1.7-8.2 3.3-9 5.1-5.5 7.2 5.6 14.9 15.2 3.1 5.1.2 7.8-2.5 13.2-5.4" stroke-width="6.585636"/>
    <path d="m698.8 235.9 18.8 40.2" stroke-width="5.625"/>
   </g>
  </g>
 </g>
</svg>
