<svg height="210mm" viewBox="0 0 1052.4 744.1" width="297mm" xmlns="http://www.w3.org/2000/svg">
 <g fill="none" stroke-linecap="round">
  <g transform="translate(0 -308.26772)">
   <path d="m57.6 742.2h948.8" stroke="#969696" stroke-width="1.875"/>
   <g stroke="#000" stroke-dasharray="3.75 7.5" stroke-miterlimit="2" stroke-width=".9375">
    <path d="m58.3 844.1h948.8"/>
    <path d="m58.3 641.8h948.8"/>
    <path d="m58.3 540.6h948.8"/>
   </g>
  </g>
  <g stroke="#000">
   <g stroke-linejoin="round">
    <path d="m320.6 334.7c54.3-11 99.3-79.5 92.9-96.2-5.5-14.4-40.3 8.9-87.4 86.8-45.5 78.7-47.7 107.1-31.1 106.4 8.8-.4 22.5-9.1 38.4-22.3 13.8-11.5 28.2-24.3 28.2-24.3" stroke-width="5.625"/>
    <g stroke-width="5.624999">
     <path d="m361.6 385 22.1 46.2"/>
     <path d="m368.8 384.9 22.1 46.2"/>
    </g>
   </g>
   <g stroke-width="5.625">
    <path d="m361.6 385 7.2-.1"/>
    <path d="m365.6 386.3 21 43.9" stroke-linejoin="round"/>
    <path d="m383.7 431.2 7.2-.1"/>
    <g stroke-linejoin="round">
     <path d="m390.9 431.1c40.8-65.1 89.5-141.4 97.6-153 12.6-18.1 26.4-36.5 44.4-37.3 19.3-.8 23.4 37.3 45.3 37.8 23 .5 72.1-78.3 84.4-92"/>
     <path d="m694.7 240c21.8-26.5 41-49.5 54.1-66.2 19.2-24.5 33-39.1 46.8-38.4 36.3 2.4-46.7 181.2-112.2 195.7"/>
     <path d="m662.5 186.6s-32.5 58.4-37.5 70.5c-5.7 13.9 1 23.9 11.5 24.3 22.6.7 40.7-22.7 58.1-41.3"/>
    </g>
   </g>
  </g>
 </g>
</svg>
