<svg height="210mm" viewBox="0 0 1052.4 744.1" width="297mm" xmlns="http://www.w3.org/2000/svg">
 <g fill="none" stroke-linecap="round">
  <g transform="translate(0 -308.26772)">
   <path d="m57.6 742.2h948.8" stroke="#969696" stroke-width="1.875"/>
   <g stroke="#000" stroke-dasharray="3.75 7.5" stroke-miterlimit="2" stroke-width=".9375">
    <path d="m58.3 844.1h948.8"/>
    <path d="m58.3 641.8h948.8"/>
    <path d="m58.3 540.6h948.8"/>
   </g>
  </g>
  <g stroke="#000">
   <g stroke-linejoin="round">
    <path d="m553.6 532.7s190.4-198.6 208.6-217.2c16.4-16.7 63.9-71.1 44.3-79.9-12.1-3.5-47.1 24.3-83.7 90.3-43 77.1-40.3 105.9-22.1 105.4 17.3-.5 28.7-7.8 75.5-46.2" stroke-width="5.625"/>
    <g stroke-width="5.624999">
     <path d="m776.3 385.1 22.1 46.2"/>
     <path d="m783.6 385 22.1 46.2"/>
    </g>
   </g>
   <g stroke-width="5.625">
    <path d="m776.3 385.1 7.2-.1"/>
    <path d="m780.4 386.4 21 43.9" stroke-linejoin="round"/>
    <path d="m798.4 431.3 7.2-.1"/>
   </g>
   <g stroke-linejoin="round">
    <path d="m243.1 431.4c39-64.7 104.7-56.6 95.5-.1" stroke-width="5.625"/>
    <path d="m222.7 385.1 20.5 46.3" stroke-width="5.625"/>
    <ellipse cx="574.39978" cy="36.0602" rx="5.271423" ry="7.848564" stroke-width="14.034715" transform="matrix(.72846687 .68508103 -.68508103 .72846687 0 0)"/>
    <g stroke-width="5.625">
     <path d="m536.7 381.4c14.8-7.7 32.2-16.2 28.9-34.4-.9-14.2-54.7-50-67.7-65.6-4.9-5.8-7.4-13.4 3.2-46.6"/>
     <path d="m501 234.7-97.8 187.8"/>
     <path d="m338.6 431.3 53.6-.6"/>
     <ellipse cx="273.00702" cy="664.89752" rx="25.728559" ry="20.371418" transform="matrix(.79083574 -.61202846 .61202846 .79083574 0 0)"/>
     <path d="m617.6 338.4s-76.2 28.3-84.8 39.2c-1.8 2.3-.3 5.8 3.9 3.8"/>
    </g>
   </g>
  </g>
 </g>
</svg>
