<svg height="210mm" viewBox="0 0 1052.4 744.1" width="297mm" xmlns="http://www.w3.org/2000/svg">
 <g fill="none" stroke-linecap="round">
  <g transform="translate(0 -308.26772)">
   <path d="m57.6 742.2h948.8" stroke="#969696" stroke-width="1.875"/>
   <g stroke="#000" stroke-dasharray="3.75 7.5" stroke-miterlimit="2" stroke-width=".9375">
    <path d="m58.3 844.1h948.8"/>
    <path d="m58.3 641.8h948.8"/>
    <path d="m58.3 540.6h948.8"/>
   </g>
  </g>
  <g stroke="#000" stroke-width="5.625">
   <path d="m552.1 335.4 24.4 51.4 244.7-109.4-62.5 109.4" stroke-linejoin="round"/>
   <ellipse cx="89.720993" cy="587.11469" rx="25.728558" ry="20.371416" stroke-linejoin="round" transform="matrix(.79083574 -.61202846 .61202846 .79083574 0 0)"/>
   <path d="m502.3 335.9-81.4 55.3"/>
   <g stroke-linejoin="round">
    <path d="m255.3 431.4 176.8-44.3"/>
    <path d="m235.3 383.5 20 47.9"/>
    <path d="m502.5 336.2c1-.8-25.9 49.6-25.9 49.6"/>
    <path d="m509.5 339-25.3 46.6"/>
    <path d="m488.6 385.5-12 .2"/>
    <path d="m516.3 336-27.7 49.5"/>
    <path d="m516.3 336-14.1-.1"/>
    <path d="m507.6 337.2-25.3 46.6"/>
   </g>
   <path d="m552.1 335.4-63.5 50.2"/>
  </g>
 </g>
</svg>
