<svg height="210mm" viewBox="0 0 1052.4 744.1" width="297mm" xmlns="http://www.w3.org/2000/svg">
 <g fill="none" stroke-linecap="round">
  <g transform="translate(0 -308.26772)">
   <path d="m57.6 742.2h948.8" stroke="#969696" stroke-width="1.875"/>
   <g stroke="#000" stroke-dasharray="3.75 7.5" stroke-miterlimit="2" stroke-width=".9375">
    <path d="m58.3 844.1h948.8"/>
    <path d="m58.3 641.8h948.8"/>
    <path d="m58.3 540.6h948.8"/>
   </g>
  </g>
  <g stroke="#000" stroke-linejoin="round" stroke-width="5.625">
   <ellipse cx="194.20015" cy="667.21423" rx="25.728558" ry="20.371416" transform="matrix(.79083574 -.61202846 .61202846 .79083574 0 0)"/>
   <path d="m667.4 375c-17.5 11.2-41.7 29.2-47.5 35-12.3 11.7-55.3 55.5-42.2 66.7 7.6 4.4 27.5 5.8 58.5-44.1l83.4-151.7-167 109.7"/>
   <path d="m474.7 418.9c.7.2 1.3.5 1.8.9.2.1.3.2.4.4.8.9.9 2.2 0 4-1.7 3.6-6.4 5-8.6 5.4-4.5.7-7-3.3-3.9-6.6 1.9-2.1 5.1-4.2 8.3-4.2h.7c.3 0 .5.1.8.1.6.1 1.2.3 1.8.6"/>
   <path d="m329.4 389.3 24.1 41.8 139.8-.8"/>
   <path d="m548 393.9s-34.1 31.5-47.7 34.5"/>
   <path d="m501.8 419.5c.7.2 1.3.5 1.8.9.2.1.3.2.4.4.8.9.9 2.2 0 4-1.7 3.6-6.4 5-8.6 5.4-4.5.7-7-3.3-3.9-6.6 1.9-2.1 5.1-4.2 8.3-4.2h.7c.3 0 .5.1.8.1.6.1 1.2.3 1.8.6"/>
  </g>
 </g>
</svg>
