<svg height="210mm" viewBox="0 0 1052.4 744.1" width="297mm" xmlns="http://www.w3.org/2000/svg">
 <g fill="none" stroke-linecap="round">
  <g transform="translate(0 -308.26772)">
   <path d="m57.6 742.2h948.8" stroke="#969696" stroke-width="1.875"/>
   <g stroke="#000">
    <g stroke-dasharray="3.75 7.5" stroke-miterlimit="2" stroke-width=".9375">
     <path d="m58.3 844.1h948.8"/>
     <path d="m58.3 641.8h948.8"/>
     <path d="m58.3 540.6h948.8"/>
    </g>
    <g stroke-linejoin="round" stroke-width="5.625">
     <ellipse cx="149.7113" cy="831.49713" rx="25.728558" ry="20.371416" transform="matrix(.79083574 -.61202846 .61202846 .79083574 0 0)"/>
     <path d="m648 535.9-26.6 9.9"/>
    </g>
   </g>
  </g>
  <g stroke-linejoin="round" stroke-width="5.625">
   <g stroke="#000">
    <path d="m286.1 430.3s123.5-34.8 132.8-36.9c19.7-4.5 44.1-12.6 56-6.8 7.7 5.9 8.4 12.5 7.6 17.7-2.7 14.7-19.7 23.3-29 26.7-16.7 6-26.2-10.1-21.2-25.9 2-4.9 17.5-20.5 23-25.6"/>
    <path d="m643.5 228.7c6.5.3 10.2-3.5 12.4-5.8 12.5-13.4 32.9-62.3 46.6-76.8 16.9-17.9 26.9-18.3 33.4-5.7 6.5 12.7 4 18.2 12.3 27.2 15.9 17.3 43.8-27.8 34.5-34.3-6.3-4.4-25.9 3.2-49.4 42-35.3 57.8-14.2 56.8 9.8 52.2 3.3-.6 8.8-2.2 15.2-4.4"/>
    <path d="m710.4 138.7c9.6-6.8 18 4.1 21.6 15.8 3.2 10.5 8.7 18 23.9 17.1"/>
    <path d="m722.3 134.9c13.6.7 15.1 28.3 22.1 30"/>
    <path d="m649.3 214.4c.9.1 1.7.3 2.4.6.2.1.4.2.6.4 1.2.9 1.6 2.4.9 4.9-1.3 4.8-6.7 7.5-9.2 8.5-5.3 1.9-9.3-2.5-6.2-7.2 1.9-3 5.2-6.2 9.1-7 .3-.1.5-.1.8-.1s.7-.1 1-.1c.8 0 1.5.1 2.3.3"/>
   </g>
   <path d="m455.4 379.5c50.9-59 205-240.6 191.7-258.1-9.3-12.3-35.5 14.6-73.1 97.5l-39.6 111.4 71.7-79.2" stroke="#0a0000"/>
  </g>
 </g>
</svg>
