<svg height="210mm" viewBox="0 0 1052.4 744.1" width="297mm" xmlns="http://www.w3.org/2000/svg">
 <g fill="none" stroke-linecap="round">
  <g transform="translate(0 -308.26772)">
   <path d="m57.6 742.2h948.8" stroke="#969696" stroke-width="1.875"/>
   <g stroke="#000" stroke-dasharray="3.75 7.5" stroke-miterlimit="2" stroke-width=".9375">
    <path d="m58.3 844.1h948.8"/>
    <path d="m58.3 641.8h948.8"/>
    <path d="m58.3 540.6h948.8"/>
   </g>
  </g>
  <g stroke="#000">
   <g stroke-linejoin="round">
    <g stroke-width="5.625">
     <path d="m255.2 431.2c84.8 8.5 91.5-30.6 88.2-39.3-4.4-11.8-29.3-4.4-53.1 36.3-12.9 21.9-18.1 35.9-18.3 44.4-.2 12.8 12.4 12.3 22.8 12.4 24 .2 210.5-1.6 221.1-1.7"/>
     <ellipse cx="703.20319" cy="-6.149592" rx="4.609393" ry="6.862875" transform="matrix(.72846687 .68508103 -.68508103 .72846687 0 0)"/>
     <path d="m234.8 384.9 20.5 46.3"/>
    </g>
    <path d="m515.9 483.2c3.3-.2 6.8-1 10.3-2.6 39.9-17.4 119.6-79.6 160.9-121.9 35-34 55.3-65.7 38.8-71.4-14.6-5-41.5 12.1-88.8 89.9-44.1 76.3-43.7 106.4-28 106.4 8.7-.1 23.2-8.1 39-22.4" stroke-width="5.624959"/>
    <ellipse cx="324.61377" cy="766.4339" rx="27.110373" ry="21.465513" stroke-width="5.625" transform="matrix(.79083574 -.61202846 .61202846 .79083574 0 0)"/>
   </g>
   <path d="m713.3 390 73.2-53.6" stroke-width="5.625"/>
  </g>
 </g>
</svg>
