<svg height="210mm" viewBox="0 0 1052.4 744.1" width="297mm" xmlns="http://www.w3.org/2000/svg">
 <g fill="none" stroke-linecap="round">
  <g transform="translate(0 -308.26772)">
   <path d="m57.6 742.2h948.8" stroke="#969696" stroke-width="1.875"/>
   <g stroke="#000" stroke-dasharray="3.75 7.5" stroke-miterlimit="2" stroke-width=".9375">
    <path d="m58.3 844.1h948.8"/>
    <path d="m58.3 641.8h948.8"/>
    <path d="m58.3 540.6h948.8"/>
   </g>
  </g>
  <g stroke="#000" stroke-linejoin="round">
   <path d="m371.6 390.9c-7.5 25.9 4.1 42 24 41.1 13.1-.5 30.2-8.7 47.4-25.8 16-15.6 33.6-22.6 48.3-22.3 22.5.4 38.7 16.8 33.6 47.9" stroke-width="5.625"/>
   <g stroke-width="5.624999">
    <path d="m525 431.8c26.6-42.9 67.6-111.6 86.3-133.6 16.9-17.9 26.9-18.3 33.4-5.7 6.5 12.7 4 18.2 12.3 27.2 15.9 17.3 43.8-27.8 34.5-34.3-6.3-4.4-25.9 3.2-49.4 42-24.9 40.7-15.4 53.2-3.5 53.6"/>
    <path d="m619.2 290.7c9.6-6.8 18 4.1 21.6 15.8 3.2 10.5 8.7 18 23.9 17.1"/>
    <path d="m631.1 286.9c13.6.7 15.1 28.3 22.1 30"/>
    <path d="m638.5 380.9c23.5-1.3 69.6-31.5 87.2-32.4 16.8-.7 22.7 32.6 34.2 32.2 7.5-.2 13.1-6.2 18.3-10.8"/>
   </g>
  </g>
 </g>
</svg>
