<svg height="210mm" viewBox="0 0 1052.4 744.1" width="297mm" xmlns="http://www.w3.org/2000/svg">
 <g fill="none" stroke-linecap="round">
  <g transform="translate(0 -308.26772)">
   <path d="m57.6 742.2h948.8" stroke="#969696" stroke-width="1.875"/>
   <g stroke="#000" stroke-dasharray="3.75 7.5" stroke-miterlimit="2" stroke-width=".9375">
    <path d="m58.3 844.1h948.8"/>
    <path d="m58.3 641.8h948.8"/>
    <path d="m58.3 540.6h948.8"/>
   </g>
  </g>
  <g stroke-linejoin="round">
   <g stroke-width="5.625">
    <g stroke="#000">
     <path d="m593.7 397c15.4-14.7 60.2-61.8 60.2-61.8"/>
     <path d="m395.6 406.6c14.9-6.9 31-12 44.6-12.5 39.8-1.5 60.3 36.7 94.6 36.8 25.7.1 42-19 52.9-28.7 1.1-1.1 6-5.3 6-5.3"/>
     <path d="m311.3 391.5c-7.9 27 6 40.7 29.6 39.6 17.1-.8 38.3-17.5 54.7-24.5"/>
     <path d="m653.9 335.2-39.4 73.1c-8.4 15.5 5 26.1 21.5 22.2 2.8-.7 9.1-2.7 14-5.9 5.5-3.6 13.2-9.7 18.1-14.2"/>
    </g>
    <path d="m668.1 410.4 15.2-13.1" stroke="#00000c"/>
   </g>
   <g stroke="#000" stroke-width="5.624959">
    <path d="m688.8 397.3 28.3 41.1c12.2 16.6 11.9 33 10 43.6-2.5 17.4-5 27-32.9 51.4"/>
    <path d="m683.3 397.3 15.2 21.1c10.6 14.4 12.5 16.7 20.6 31.3 6.8 15 10.3 29.5 3.7 49.8"/>
    <path d="m694.2 397.3s26.7 39.5 28.7 42.6c8 15.7 9.2 26.6 7.4 37.3-2.2 12.3-5.6 22.9-13.8 33.5"/>
   </g>
  </g>
  <path d="m694.2 397.3h-10.9" stroke="#000" stroke-width="5.624959"/>
 </g>
</svg>
