<svg height="210mm" viewBox="0 0 1052.4 744.1" width="297mm" xmlns="http://www.w3.org/2000/svg">
 <g fill="none" stroke-linecap="round" transform="translate(0 -308.26772)">
  <path d="m57.6 742.2h948.8" stroke="#969696" stroke-width="1.875"/>
  <g stroke="#000" stroke-dasharray="3.75 7.5" stroke-miterlimit="2" stroke-width=".9375">
   <path d="m58.3 844.1h948.8"/>
   <path d="m58.3 641.8h948.8"/>
   <path d="m58.3 540.6h948.8"/>
  </g>
 </g>
 <g fill="none" stroke="#000" stroke-linecap="round">
  <g stroke-linejoin="round" stroke-width="5.625">
   <path d="m306.2 409.3c14-11.2 32.2-26.1 32.2-26.1l33.3 47.9"/>
   <path d="m338.4 383.2 24 48"/>
   <path d="m347.9 383.3 23.8 47.9"/>
   <path d="m344 383.1 24 48"/>
  </g>
  <path d="m338.8 382.2h9" stroke-width="3.75"/>
  <path d="m362.3 432.1h9" stroke-width="3.75"/>
  <g stroke-width="5.625">
   <path d="m206.5 423.6c42.9-26.4 142.3-115.6 156.4-132.9 17.3-21.2 26.7-43.6 23.4-52.2-5.5-14.4-40.3 8.9-87.4 86.8-69.6 120.2-36 123.1 7.3 84" stroke-linejoin="round"/>
   <path d="m483.5 237.9-111.8 193.2"/>
   <g stroke-linejoin="round">
    <ellipse cx="-77.504501" cy="441.49667" rx="28.499964" ry="23.779261" transform="matrix(.81758868 -.5758027 .5758027 .81758868 0 0)"/>
    <path d="m718.7 410c14-11.2 32.2-26.1 32.2-26.1l33.3 47.9"/>
    <path d="m750.9 383.9 24 48"/>
    <path d="m760.4 383.9 23.8 47.9"/>
    <path d="m756.5 383.8 24 48"/>
   </g>
  </g>
  <path d="m753.2 382.9h7.1" stroke-width="3.75"/>
  <path d="m776.6 432.8h7.1" stroke-width="3.75"/>
  <g stroke-width="5.625">
   <path d="m624.1 385s110.9-65.4 141.6-95.3c17.7-17.3 36.2-42.6 33.1-50.6-5.5-14.4-40.3 8.9-87.4 86.8-69.6 120.2-36 123.1 7.3 84" stroke-linejoin="round"/>
   <path d="m903.5 234.9-119.3 196.9"/>
  </g>
 </g>
 <circle cx="521.98053" cy="359.98846" r="10.653955"/>
 <circle cx="506.59091" cy="409.00409" r="10.653955"/>
 <ellipse cx="285.94843" cy="697.97803" fill="none" rx="28.499964" ry="23.779261" stroke="#000" stroke-linecap="round" stroke-linejoin="round" stroke-width="5.625" transform="matrix(.81758868 -.5758027 .5758027 .81758868 0 0)"/>
</svg>
