<svg height="210mm" viewBox="0 0 1052.4 744.1" width="297mm" xmlns="http://www.w3.org/2000/svg">
 <g fill="none" stroke-linecap="round">
  <g transform="translate(0 -308.26772)">
   <path d="m57.6 742.2h948.8" stroke="#969696" stroke-width="1.875"/>
   <g stroke="#000" stroke-dasharray="3.75 7.5" stroke-miterlimit="2" stroke-width=".9375">
    <path d="m58.3 844.1h948.8"/>
    <path d="m58.3 641.8h948.8"/>
    <path d="m58.3 540.6h948.8"/>
   </g>
  </g>
  <g stroke="#000">
   <g stroke-linejoin="round" stroke-width="5.625">
    <path d="m424.4 335.6s-141.8 99.1-146.4 102.9c-38.2 31.2-66.8 82.4-61.7 92.4 2.8 5.4 34.7 12.4 62.3-63.3 15.8-47.4 16.5-113.3 70.8-131.6"/>
    <path d="m424.4 335.6-55.8 97.2"/>
    <path d="m434.9 335.6-55.8 97.2"/>
    <path d="m434.9 335.6h-10.6"/>
    <path d="m429.4 335.6-55.8 97.2"/>
    <path d="m379.1 432.8h-10.6"/>
    <ellipse cx="44.048996" cy="542.61951" rx="25.728558" ry="20.371416" transform="matrix(.79083574 -.61202846 .61202846 .79083574 0 0)"/>
    <path d="m500.6 336.2-115.2 80.9"/>
    <path d="m500.6 336.2-42.4 74.1c-13.3 23.2 26.2 33 51.9 1.6"/>
    <path d="m510.2 411.9c10.7-12.4 56-75.9 56-75.9l31.4 47.9 35.8-49.4"/>
    <path d="m566.2 336 24 48"/>
    <path d="m573.8 336 23.8 47.9"/>
    <path d="m569.8 335.9 24 48"/>
   </g>
   <path d="m566.5 334.9h7.1" stroke-width="3.75"/>
   <path d="m590 384.9h7.1" stroke-width="3.75"/>
   <g stroke-linejoin="round" stroke-width="5.625">
    <path d="m657.3 385.1 80.3-49.6 24.9 49.7"/>
    <path d="m633.4 334.5c15.4-18.9 20.8-32.6 42.8-42.2 19.6-8.3 35 2.5 12.3 40.5l-31.2 52.3"/>
   </g>
  </g>
 </g>
</svg>
