<svg height="210mm" viewBox="0 0 1052.4 744.1" width="297mm" xmlns="http://www.w3.org/2000/svg">
 <g fill="none" stroke-linecap="round">
  <g transform="translate(0 -308.26772)">
   <path d="m57.6 742.2h948.8" stroke="#969696" stroke-width="1.875"/>
   <g stroke="#000" stroke-dasharray="3.75 7.5" stroke-miterlimit="2" stroke-width=".9375">
    <path d="m58.3 844.1h948.8"/>
    <path d="m58.3 641.8h948.8"/>
    <path d="m58.3 540.6h948.8"/>
   </g>
  </g>
  <g stroke="#000" stroke-linejoin="round">
   <path d="m535.5 484.7c11.3-3.6 29-14.3 32.2-40.1s20.9-53.1 39.1-55.8" stroke-width="5.625"/>
   <path d="m282.5 431.6c10.6-12.1 23.1-29.4 40-30.3 12.3-.5 17.7 17.2 26.8 25.6 7.9 6.9 19 4.2 27.5 3.5 59.9-9.8 230.1-41.7 230.1-41.7" stroke-width="5.625"/>
   <g stroke-width="5.624999">
    <path d="m535.5 484.7c-19.4-1.4 110.8-89.6 130.2-99.7 13.6-7.1 27.8-10.9 30.2 6.8 5 41.4-63.2 168.6-111.2 183.4"/>
    <path d="m584.7 575.2c-4.1 1.5-7-2.5-2.9-5 17-10.2 95-33.4 114.1-30.4 17.8 3.1 17.3 35.7 33.2 35.9 5.5 0 13.1-3.7 24.4-13.5"/>
   </g>
  </g>
 </g>
</svg>
