<svg height="210mm" viewBox="0 0 1052.4 744.1" width="297mm" xmlns="http://www.w3.org/2000/svg">
 <g fill="none" stroke-linecap="round">
  <g transform="translate(0 -308.26772)">
   <path d="m57.6 742.2h948.8" stroke="#969696" stroke-width="1.875"/>
   <g stroke="#000" stroke-dasharray="3.75 7.5" stroke-miterlimit="2" stroke-width=".9375">
    <path d="m58.3 844.1h948.8"/>
    <path d="m58.3 641.8h948.8"/>
    <path d="m58.3 540.6h948.8"/>
   </g>
  </g>
  <g stroke-width="5.625">
   <g stroke="#000">
    <g stroke-linejoin="round">
     <path d="m355.3 430.5c8.3.7 254-51.3 254-51.3"/>
     <path d="m381.6 333.7c54.3-11 95.5-79.5 89.2-96.2-5.5-14.4-40.3 8.9-87.4 86.8-47.5 82-46.9 109.4-28 106.1"/>
     <path d="m722.3 234.6 24 48"/>
    </g>
    <path d="m722.3 234.6-113.8 170.1"/>
    <g stroke-linejoin="round">
     <path d="m609.3 379.2 24.3 18.5"/>
     <path d="m633.6 397.7c1.6.9 3.1 2 4.2 3.5 1.3 1.7 2.2 3.7 2.5 5.8.4 2.5.2 5.3-.7 7.9-.7 2.1-1.8 4.3-3.3 6.2-1.3 1.7-2.8 3.3-4.7 4.7-1.8 1.4-3.7 2.5-5.7 3.3-1.3.5-2.6.9-3.9 1.2-1.8.4-3.6.5-5.3.4-2.3-.1-4.4-.7-6.3-1.7-1.6-.9-3.1-2-4.2-3.5-2.4-3.2-3.2-7.2-2.5-11.2.5-2.9 1.8-5.9 3.8-8.5"/>
    </g>
   </g>
   <g stroke-linejoin="round">
    <path d="m602.9 381.4 5.4 3.9 24.4 17.8c4.4 4.9 8 10.8 3.6 18.1" stroke="#000d00"/>
    <path d="m601.5 381.8 29.4 23.1c4.4 4.9 8 10.8 3.6 18.1" stroke="#000"/>
   </g>
  </g>
 </g>
</svg>
