<svg height="210mm" viewBox="0 0 1052.4 744.1" width="297mm" xmlns="http://www.w3.org/2000/svg">
 <g fill="none" stroke-linecap="round">
  <g transform="translate(0 -308.26772)">
   <path d="m57.6 742.2h948.8" stroke="#969696" stroke-width="1.875"/>
   <g stroke="#000" stroke-dasharray="3.75 7.5" stroke-miterlimit="2" stroke-width=".9375">
    <path d="m58.3 844.1h948.8"/>
    <path d="m58.3 641.8h948.8"/>
    <path d="m58.3 540.6h948.8"/>
   </g>
  </g>
  <g stroke="#000" stroke-linejoin="round">
   <path d="m610.5 431.5c3 .3 9.7-4.3 11-5 44.2-25.4 67.1-110.8 25.3-86.1-4.5 2.7-9.9 6.5-15.8 12-24.1 22.4-40.5 49.5-58.3 68.3-4.8 5-10.7 10.6-18.3 10.8-14.6.3-17.4-32.9-34.2-32.2-17.6.9-52.8 20.6-77.8 32.4" stroke-width="5.625"/>
   <g stroke-width="5.638243">
    <path d="m665.2 340.1c-.7 31-18.1 61.6-38.1 82.5"/>
    <path d="m667.8 342.4c5.2 34.8-19.9 69.4-45 83.3"/>
    <path d="m660.5 338.7c3.6 34.1-21.2 69-37.7 86.9"/>
   </g>
   <path d="m653.1 338.5c7.9-3.1 5.9 10.5 5.9 15.9" stroke-width="2.819121"/>
   <path d="m629.3 415.9c-5.5 6.9-9.4 9.8-15.3 13.2" stroke-width="2.819121"/>
   <g stroke-width="5.625">
    <path d="m703.4 382.9c-13.9 7.4-84.8 33.7-95.5 44.4-2.2 2.2-1.9 5 2.6 4.2"/>
    <path d="m361.9 431.3 59.4-47.2 21 47.3"/>
   </g>
  </g>
 </g>
</svg>
