<svg height="210mm" viewBox="0 0 1052.4 744.1" width="297mm" xmlns="http://www.w3.org/2000/svg">
 <g fill="none" stroke-linecap="round">
  <g transform="translate(0 -308.26772)">
   <path d="m57.6 742.2h948.8" stroke="#969696" stroke-width="1.875"/>
   <g stroke="#000" stroke-dasharray="3.75 7.5" stroke-miterlimit="2" stroke-width=".9375">
    <path d="m58.3 844.1h948.8"/>
    <path d="m58.3 641.8h948.8"/>
    <path d="m58.3 540.6h948.8"/>
   </g>
  </g>
  <g stroke-linejoin="round">
   <path d="m565.9 405.9c-6.8 5.3-9.8 6.9-14.9 10.3-14.5 9.6-22.4 12.2-27.9 14-55 17.3 33.8-138.4 77.9-185.1 4.7-5 11.2-10.7 18.9-11.9" stroke="#000" stroke-width="5.625"/>
   <path d="m565.9 405.9c3.3-2.1 6.6-4 9.7-5.7 1.8-1 3.7-2 5.5-2.9 48.7-24.7 79-10.7 66.9 32.4" stroke="#000" stroke-width="5.625"/>
   <g stroke="#000001">
    <path d="m638.6 391.4c7.1 5.9 8.1 27.1 3.2 37.8" stroke-width="6.5625"/>
    <path d="m626 385.1c16.4 3.3 16.8 35.2 10.1 45.2" stroke-width="4.6875"/>
   </g>
  </g>
  <g stroke-width="5.625">
   <path d="m636.8 430.4 9.8.1" stroke="#000001"/>
   <g stroke="#000" stroke-linejoin="round">
    <path d="m646.6 430.4c17.9-11.4 56.3-29.4 73.1-30.3 16-.6 21.6 31 32.6 30.7 7.2-.2 12.4-7.6 16.7-13"/>
    <path d="m400.7 430.9c61.6-53 177.1-169.4 207.6-192.7"/>
    <path d="m323.9 499.4c7.3-10.1 42.5-42.2 76.9-68.5"/>
    <path d="m252.4 431.5c3-4.3 23.1-25.2 29.3-30.2 23.7-19.2 60.9-14.6 37.5 14.4-27.4 33.8-45.5 50.2-39.4 63.9 1.9 4.4 7.8 6.4 14.7 6 22.4-1.4 73.2-69.2 163.8-150.2"/>
    <path d="m323.9 499.4c-8.6 13.3-12.6 24-10.9 28.5 1.1 2.9 17.7 21.8 57.3-41.8l88-150.7"/>
   </g>
  </g>
 </g>
</svg>
