<svg height="210mm" viewBox="0 0 1052.4 744.1" width="297mm" xmlns="http://www.w3.org/2000/svg">
 <g fill="none" stroke="#000" stroke-linecap="round">
  <g transform="translate(0 -308.26772)">
   <path d="m57.6 742.2h948.8" stroke-width="1.875"/>
   <g stroke-dasharray="3.75 7.5" stroke-miterlimit="2" stroke-width=".9375">
    <path d="m58.3 844.1h948.8"/>
    <path d="m58.3 641.8h948.8"/>
    <path d="m58.3 540.6h948.8"/>
   </g>
  </g>
  <g stroke-width="5.625">
   <g stroke-linejoin="round">
    <path d="m461.9 415.1c8.4-7.4 21.4-22.1 36.5-40"/>
    <path d="m248.6 336.2c-45.5 11.9-86.6 93.7-53.4 95.6 33.8-1.5 84.3-30.3 129-31.8 48.5-1.3 61.6 30.6 96 30.8 17.4.1 31.3-7.7 41.8-15.8"/>
    <path d="m619.2 428c16.6-4.8 142.8-105 155.9-115.8 8.7-7.2 16.5-15.5 23-23.8 15.9-20.4 24.4-41.3 21.3-49.5-5.5-14.4-40.2 8.9-87.4 86.8-50.2 86.7-46.5 112.7-24.4 105.5"/>
    <path d="m707.6 431.1c19.1-7 49.7-26.2 68-39.5"/>
   </g>
   <path d="m878 235.3-111.3 165.2"/>
   <g stroke-linejoin="round">
    <ellipse cx="371.21594" cy="804.70917" rx="25.728558" ry="20.371416" transform="matrix(.79083574 -.61202846 .61202846 .79083574 0 0)"/>
    <path d="m498.4 375.1c20.2-23.2 86.2-105.7 114.2-130.9 11.2-10 20.1-9.6 25.5-8.3 19.1 4.5 8.6 17.9-4.7 41-12 20.9-16.1 30.1-34.8 55.2-26.3 35.4-55 68-47.8 86.2 5.8 11.2 15.6 12.5 30.4 13.3 7.9.4 15.2.4 29.6-.8"/>
    <path d="m647.7 254.7c-5.2 10.7-3.3 15.8-14.7 34.2-24 39.8-49.2 63.6-76 117.4 0 0-1.9 4.4-1.2 14.5"/>
    <path d="m642.5 265.5-58.7 94.9-15.6 21.4-13 20.3-2.2 10.7"/>
   </g>
  </g>
  <g stroke-linejoin="round">
   <path d="m565.4 392.4c-5.1 7.7-8.6 14.8-8.6 21.7 0 3.1 1 7 3.7 9.1 1.9 1.5 7.7 6.8 14.8 7.4" stroke-width="3.75"/>
   <path d="m648.9 241.7c2 7.2-.7 16.4-3.8 26.2-.6 2-4.2 11.6-8.7 17.3" stroke-width="3.75"/>
   <ellipse cx="234.41763" cy="697.86957" rx="25.728558" ry="20.371416" stroke-width="5.625" transform="matrix(.79083574 -.61202846 .61202846 .79083574 0 0)"/>
  </g>
 </g>
</svg>
