<svg height="210mm" viewBox="0 0 1052.4 744.1" width="297mm" xmlns="http://www.w3.org/2000/svg">
 <g fill="none" stroke-linecap="round">
  <g transform="translate(0 -308.26772)">
   <path d="m57.6 742.2h948.8" stroke="#969696" stroke-width="1.875"/>
   <g stroke="#000" stroke-dasharray="3.75 7.5" stroke-miterlimit="2" stroke-width=".9375">
    <path d="m58.3 844.1h948.8"/>
    <path d="m58.3 641.8h948.8"/>
    <path d="m58.3 540.6h948.8"/>
   </g>
  </g>
  <g stroke="#000" stroke-linejoin="round">
   <path d="m475.4 349.9c7.6-7.2 15.8-13.4 27.4-14.8 7.2-.8 13.5 1.8 16.1 7.3 5.5 11.8-5.5 21-21.8 38.7-12.3 13.4-23.5 21.1-24.9 30.1-.7 6.2.7 11.3 5 15 3.6 3 10 4.4 16.1 4.6 11.1.4 31.9-1.2 35.4 6.2" stroke-width="5.625"/>
   <ellipse cx="683.84027" cy="-31.888454" rx="5.271424" ry="7.848564" stroke-width="14.034715" transform="matrix(.72846687 .68508103 -.68508103 .72846687 0 0)"/>
   <path d="m519.4 434.4c25.7-5.7 53.2-12.3 68.9-3 22.8 13.7 13.5 49.5 35.1 49.4 10.2-.2 15.3-3.5 22.7-10" stroke-width="5.625"/>
  </g>
 </g>
</svg>
