<svg height="210mm" viewBox="0 0 1052.4 744.1" width="297mm" xmlns="http://www.w3.org/2000/svg">
 <g fill="none" stroke-linecap="round">
  <g transform="translate(0 -308.26772)">
   <path d="m57.6 742.2h948.8" stroke="#969696" stroke-width="1.875"/>
   <g stroke="#000" stroke-dasharray="3.75 7.5" stroke-miterlimit="2" stroke-width=".9375">
    <path d="m58.3 844.1h948.8"/>
    <path d="m58.3 641.8h948.8"/>
    <path d="m58.3 540.6h948.8"/>
   </g>
  </g>
  <path d="m236.2 431.5 265.2-48.3 20.2 47.9" stroke="#00000c" stroke-linejoin="round" stroke-width="5.625"/>
  <g stroke="#000">
   <path d="m79.1 431.4c63-55.6 173.8-146.9 190.2-165.5 8.3-10.3 8.8-22.2 3.8-28.2-6.5-6.9-25.9-1.6-34.6 22.9-4.9 13.8-3.1 34.6-6.7 53.9-3.7 20-43.6 46.6-64.3 69.8-20.4 22.8-23.8 46.4-5.1 47.1" stroke-linejoin="round" stroke-width="5.625001"/>
   <g stroke-width="5.624999">
    <g stroke-linejoin="round">
     <path d="m282.7 336.1-46.6 95.4"/>
     <path d="m282.7 336.1h-8.2"/>
     <path d="m278.8 337-45.7 93.9"/>
     <path d="m236.2 431.5h-8.2"/>
     <path d="m274.5 336.2-46.6 95.4"/>
    </g>
    <path d="m274.5 336.2c-69.8 73.8-87.1 95.3-112.1 95.2"/>
    <path d="m697.8 433.7c36-12.8 238.3-93.9 247.1-95.8 4.3-.9 7.4-1.4 8.9-1.5 2.5-.1 6-.1 8.7.9 2.8 1 5 2.6 6.6 4.7 3.7 5.2 3.1 13.5-5.1 23.4-24.4 29.4-45.3 42.8-38 58.3 2.6 5.6 9 8.2 16.3 7.4 11.8-1.4 20.1-7.7 27.8-15" stroke-linejoin="round"/>
   </g>
   <g stroke-linejoin="round">
    <g stroke-width="5.625">
     <path d="m697.8 433.7c-6.9 3.2-11.5 5.3-12.2 5.7-3 1.7-6.1 3.5-9.1 5.6-37.2 24.7-71.5 71.3-65.4 85.5 5.7 13.2 70.8-24.4 97.1-134.9 20.3-90.7 58-149.8 92.8-161.4"/>
     <path d="m594.4 335.4c-19.8 30.4-13.7 40.8-3 42.7 11.3 2.1 31-1.1 43.5-4.2"/>
     <path d="m521.5 431.2 72.8-95.7"/>
    </g>
    <ellipse cx="711.0105" cy="-169.68127" rx="5.271423" ry="7.848564" stroke-width="14.034715" transform="matrix(.72846687 .68508103 -.68508103 .72846687 0 0)"/>
    <path d="m782.1 244.7c-84.4 75.3-125.3 134.3-149.4 130.2" stroke-width="5.625"/>
   </g>
  </g>
 </g>
</svg>
