<svg height="210mm" viewBox="0 0 1275.6 744.1" width="360mm" xmlns="http://www.w3.org/2000/svg">
 <g stroke-linecap="round">
  <g fill="none" transform="translate(0 -308.26772)">
   <path d="m20.1 742.2h1220.7" stroke="#969696" stroke-width="1.875"/>
   <g stroke="#000" stroke-dasharray="3.75 7.5" stroke-miterlimit="2" stroke-width=".9375">
    <path d="m20.8 844.1h1220.7"/>
    <path d="m20.8 641.8h1220.7"/>
    <path d="m20.8 540.6h1220.7"/>
   </g>
  </g>
  <g stroke="#000">
   <g fill="none">
    <g stroke-linejoin="round">
     <g stroke-width="5.625">
      <path d="m1094.2 436.6c-14.4 8.1-32.6 23.5-44.7 36.8-24.9 27.2-35.5 47.1-32.6 54.8 1.1 2.9 17.7 21.8 57.3-41.8 9.9-13.3 64.6-150.5 64.6-150.5"/>
      <path d="m958.7 430.2s44.6-32.4 61.8-29.2 16 46.2 45.6 21.5"/>
      <path d="m1002.3 405c5.4-2.4 18.6-2.2 26.5 15 5.6 12.2 13.9 9.5 20.5 9.9"/>
      <path d="m1016.9 403.1c6.7 5.9 6.3.5 21.2 23.1"/>
      <path d="m1138.7 335.8-72.5 86.7"/>
      <path d="m873.8 464.9c1.8-1 80.4-87 122.5-119.5"/>
      <ellipse cx="388.8382" cy="818.80371" rx="24.369127" ry="19.295044" transform="matrix(.79083574 -.61202846 .61202846 .79083574 0 0)"/>
      <path d="m875.4 384.9-64.5 3.4"/>
      <path d="m875.4 384.9-42.4 73.1c-11.9 20.5 8.4 28.4 31.3 14.4 3-2.1 6.2-4.7 9.4-7.5"/>
      <path d="m958.7 430.2c-37.2 25.1-88.2 86.9-80.4 101.1 2.9 5.3 34.7 12.4 62.3-63.4 15.7-47.2 25.8-112.5 71.5-132.1"/>
      <path d="m1094.2 436.6c17.9-11.4 64.4-35.5 81.2-36.4 16-.6 21.6 31 32.6 30.7 7.2-.2 12.4-7.6 16.7-13"/>
      <path d="m44.3 430.4c-23.9 5.7 81.5-47.9 81.5-47.9"/>
     </g>
     <path d="m44.3 430.4c3 .3 9.7-4.2 11-5 50.8-29 73.5-137 2.1-66.9" stroke-width="5.419139"/>
     <g stroke-width="5.625">
      <path d="m126.5 382.5 33.3 47.9"/>
      <path d="m126.5 382.5 24 48"/>
      <path d="m136 382.5 23.8 47.9"/>
      <path d="m132.1 382.4 24 48"/>
     </g>
    </g>
    <path d="m126.9 381.5h9" stroke-width="3.75"/>
    <path d="m150.4 431.4h9" stroke-width="3.75"/>
    <g stroke-linejoin="round" stroke-width="5.625">
     <path d="m160.8 430.4c32.3-14.7 60.1-29.4 76.9-30.3 16-.6 15.7 30.5 32.6 30.7 6.9.1 17.3-5.8 24.4-9.7"/>
     <path d="m384.8 325.2c-43.9 74.6-46.5 103.4-30.6 105.2 13.4 1.5 27.9.8 47.4-18.9"/>
     <path d="m378.1 414.2c1 .1 1.8.3 2.5.7.2.1.4.2.6.4 1.2.9 1.7 2.6 1 5.2-1.3 5.1-7.1 8-9.8 9-5.7 2-9.8-2.6-6.6-7.6 2-3.1 5.5-6.6 9.7-7.5.3-.1.6-.1.9-.1s.7-.1 1-.1c.8 0 1.6.1 2.4.3"/>
     <path d="m401.6 411.5c31-24.1 169.3-230.3 207.4-223.7 19.2 4.2 11.2 19.6-4.7 41-15 20.3-24.5 36.8-43.1 61.9-26.3 35.4-55 68-47.8 86.2 9.6 18.5 32.3 6.5 53-11.7"/>
     <path d="m294.7 421.2c24.9-12.5 135.8-82.9 155.1-96.6 36.1-25.5 56.5-78.6 25.3-88.6-11.5-3.7-31.3 5.1-62.1 46.5-8.5 11.5-18 25.7-28.2 42.6"/>
    </g>
   </g>
   <g stroke-linejoin="round" stroke-width="5.625">
    <path d="m566.5 365.4c18.1-15.4 43-48.8 63.1-74.3" fill="#d3bc5f" fill-rule="evenodd"/>
    <path d="m629.5 291.1c15.2-19.8 38.7-53.7 56.9-56.8 10.7-2.7 14.3.7 18.7 3.2 7.6 4.3 8 17.2-6 41.5l-29.8 52.1" fill="none"/>
    <path d="m669.4 331.1 66.7-45.5" fill="#d3bc5f" fill-rule="evenodd"/>
   </g>
  </g>
 </g>
</svg>
