<svg height="210mm" viewBox="0 0 1052.4 744.1" width="297mm" xmlns="http://www.w3.org/2000/svg">
 <g fill="none" stroke-linecap="round">
  <g transform="translate(0 -308.26772)">
   <path d="m57.6 742.2h948.8" stroke="#969696" stroke-width="1.875"/>
   <g stroke="#000" stroke-dasharray="3.75 7.5" stroke-miterlimit="2" stroke-width=".9375">
    <path d="m58.3 844.1h948.8"/>
    <path d="m58.3 641.8h948.8"/>
    <path d="m58.3 540.6h948.8"/>
   </g>
  </g>
  <g stroke="#000" stroke-linejoin="round">
   <g stroke-width="5.625">
    <path d="m534.1 347.3c23.7-19.2 60.9-14.6 37.5 14.4-27.4 33.8-45.5 50.2-39.4 63.9 4.2 9.6 21.8 5.3 36.5-3.7l19.7-12"/>
    <path d="m584.7 412.5s33.9-24.9 43.6-17.4c6.1 4.7 8.9 37.6 21.2 36.1 8.8-1.1 10.4-1.5 17.1-5.6 4.4-2.8 14.8-12.6 14.8-12.6"/>
    <path d="m616.5 395c11.6-4.7 11.4 6.3 12.9 22.9 1 10.8 7.8 13.7 20.1 13.3"/>
    <path d="m616.5 395c5.4-2.4 19-3.6 22.7 15 2.6 13.3 4.7 19.7 13.9 20.5"/>
    <path d="m628.6 397.7c6.8 12.3 1 30.9 15.5 31.8"/>
   </g>
   <path d="m337.5 417.7c-5.2 1.4-9.2 5.1-9.2 7.7 0 3.7.8 5.8 5.8 6.3 3 .3 9.9-5.8 11.3-6.6 48.9-28 71.8-129.3 9.4-73.8-2.3 2.1-17.4 18.4-20 20.9" stroke-width="5.419139"/>
   <g stroke-width="5.625">
    <path d="m337.5 417.7c15.1-4.1 65.8-16.4 80.7-16.7 14.1-.4 13.4 29.9 31 30 10.3.1 19.2-5.1 27.8-12.6"/>
    <path d="m420.1 404.4 18.9 24.9"/>
    <path d="m402.5 402.9c6.8-.5 16.8-1.1 22.9 15.8 4.6 12.7 18.5 15.1 26.2 12.3"/>
    <path d="m477 418.4c11-9.6 37.8-54.3 57.1-71"/>
   </g>
  </g>
 </g>
</svg>
