<svg height="210mm" viewBox="0 0 1052.4 744.1" width="297mm" xmlns="http://www.w3.org/2000/svg">
 <g fill="none" stroke-linecap="round">
  <g transform="translate(0 -308.26772)">
   <path d="m57.6 742.2h948.8" stroke="#969696" stroke-width="1.875"/>
   <g stroke="#000" stroke-dasharray="3.75 7.5" stroke-miterlimit="2" stroke-width=".9375">
    <path d="m58.3 844.1h948.8"/>
    <path d="m58.3 641.8h948.8"/>
    <path d="m58.3 540.6h948.8"/>
   </g>
  </g>
  <g stroke="#000" stroke-linejoin="round">
   <g stroke-width="5.625">
    <path d="m489.5 427.1c18.2-12.8 40.2-91.1 66.5-91.3 18.8 0 21.7 45.8 39.9 46.1 18.8.3 47.2-59.2 63.4-89.2"/>
    <path d="m707.9 294.7c-35.9 22.6-66.9 56.8-48.6-1.9"/>
    <path d="m488.2 419c.8.1 1.4.2 1.9.5.2.1.3.2.5.3.9.7 1.3 2 .8 4-1 3.9-5.4 6.1-7.5 6.9-4.3 1.6-7.6-2-5.1-5.9 1.6-2.4 4.2-5.1 7.4-5.7.2 0 .4-.1.7-.1s.5-.1.8-.1c.6 0 1.2.1 1.9.3"/>
    <path d="m427.3 331.9c34.9-12.4 115.6-84.8 92.8-96-14.6-5-42.6 12.2-89.8 90.1-25.7 44.3-36.1 71.7-36.9 87.1.2 23.3 44.9 19.1 61.2 17.8"/>
    <path d="m439 411.6c1.2.1 2.2.4 3.1.8.3.1.5.3.8.5 1.5 1.2 2 3.1 1.2 6.3-1.6 6.2-8.6 9.7-11.9 11-6.9 2.5-12-3.2-8-9.3 2.5-3.8 6.7-8 11.7-9.1.3-.1.7-.1 1-.2.4 0 .8-.1 1.3-.1 1 0 2 .1 3 .4"/>
   </g>
   <path d="m436.6 417c.6.1 1.1.2 1.5.4.1.1.3.1.4.2.7.5 1 1.5.6 3-.8 2.9-4.1 4.6-5.6 5.2-3.3 1.2-5.7-1.5-3.8-4.4 1.2-1.8 3.2-3.8 5.6-4.3.2 0 .3-.1.5-.1h.6c.5 0 .9.1 1.4.2" stroke-width="10.3125"/>
   <g stroke-width="5.625">
    <path d="m483.3 431.5c-4.9 1.5-18.3 4.1-28.6-.6"/>
    <path d="m463.3 417.8c.8.1 1.4.2 1.9.5.2.1.3.2.5.3.9.7 1.3 2 .8 4-1 3.9-5.4 6.1-7.5 6.9-4.3 1.6-7.6-2-5.1-5.9 1.6-2.4 4.2-5.1 7.4-5.7.2 0 .4-.1.7-.1s.5-.1.8-.1c.6 0 1.2.1 1.9.3"/>
   </g>
  </g>
 </g>
</svg>
