<svg height="210mm" viewBox="0 0 1052.4 744.1" width="297mm" xmlns="http://www.w3.org/2000/svg">
 <g fill="none" stroke-linecap="round">
  <g transform="translate(0 -308.26772)">
   <path d="m57.6 742.2h948.8" stroke="#969696" stroke-width="1.875"/>
   <g stroke="#000" stroke-dasharray="3.75 7.5" stroke-miterlimit="2" stroke-width=".9375">
    <path d="m58.3 844.1h948.8"/>
    <path d="m58.3 641.8h948.8"/>
    <path d="m58.3 540.6h948.8"/>
   </g>
  </g>
  <g stroke-linejoin="round" stroke-width="5.625">
   <path d="m409.9 433.3c10.7-.5 14.6.4 25.6 1.5 37.3 3.5 18.8 40.5 41.6 40.2 8.8-.1 17.8-9.1 25.2-18" stroke="#010000"/>
   <path d="m346.3 431.5c7.7-13.1 18.7-22 30.2-22.9 24.4-1.9 10.6 24.9 33.4 24.6" stroke="#010000"/>
   <g stroke="#000">
    <path d="m622.9 411.3 30.5-26.9 26.3 46.8"/>
    <path d="m568 353.2c19.6-25.9 70.3-22.6 44.6 9-27.4 33.9-47.2 52.6-39.4 63.9 9 13.2 37.2-2.6 49.7-14.9"/>
    <path d="m502.4 457c15.4-22.1 52.9-86 65.6-103.8"/>
   </g>
  </g>
 </g>
</svg>
