<svg height="210mm" viewBox="0 0 1052.4 744.1" width="297mm" xmlns="http://www.w3.org/2000/svg">
 <g fill="none" stroke-linecap="round">
  <g transform="translate(0 -308.26772)">
   <path d="m57.6 742.2h948.8" stroke="#969696" stroke-width="1.875"/>
   <g stroke="#000" stroke-dasharray="3.75 7.5" stroke-miterlimit="2" stroke-width=".9375">
    <path d="m58.3 844.1h948.8"/>
    <path d="m58.3 641.8h948.8"/>
    <path d="m58.3 540.6h948.8"/>
   </g>
  </g>
  <g stroke="#000" stroke-linejoin="round" stroke-width="5.625">
   <path d="m269.9 431.7 126.9-96.2-56.7 94.9 77.8.5"/>
   <path d="m263.4 398.8 33.9-16-27.4 48.9"/>
   <ellipse cx="580.95416" cy="34.883648" rx="4.609393" ry="6.862874" transform="matrix(.72846687 .68508103 -.68508103 .72846687 0 0)"/>
   <ellipse cx="597.85944" cy="20.596577" rx="4.609393" ry="6.862874" transform="matrix(.72846687 .68508103 -.68508103 .72846687 0 0)"/>
   <path d="m521.8 377.8 107.6-95.8"/>
   <path d="m421.6 430.7c20.5 1 51.7-62.1 61.2-78.1 25.3-42.6 43.9-74.1 64.6-70.1 11.9 2.3 17 12.3 8.6 30.8-11 21.7-34.1 64.5-34.1 64.5"/>
   <path d="m576.5 378.8c-39.8 21.2-101 84.7-79.9 98.7 7.3 4.5 23.1-1.1 49.3-43.2l83.6-152.4"/>
  </g>
 </g>
</svg>
