<svg height="210mm" viewBox="0 0 1052.4 744.1" width="297mm" xmlns="http://www.w3.org/2000/svg">
 <g fill="none" stroke-linecap="round">
  <g transform="translate(0 -308.26772)">
   <path d="m57.6 742.2h948.8" stroke="#969696" stroke-width="1.875"/>
   <g stroke="#000" stroke-dasharray="3.75 7.5" stroke-miterlimit="2" stroke-width=".9375">
    <path d="m58.3 844.1h948.8"/>
    <path d="m58.3 641.8h948.8"/>
    <path d="m58.3 540.6h948.8"/>
   </g>
  </g>
  <g stroke="#000">
   <g stroke-linejoin="round" stroke-width="5.624999">
    <path d="m661 235.3-94.5 196.1"/>
    <path d="m566.5 431.4c26.2-33.1 42.4-53.8 59-71.6 14-15.2 22.9-24.4 36.4-23.6 11.5.7 16.5 12.5 7.1 32.6-10 21.3-33.7 62.7-33.7 62.7"/>
    <path d="m635.3 431.4 88.8-44.2 21.3 44.2"/>
   </g>
   <path d="m426.6 473.2h-128.3" stroke-width="5.625"/>
   <path d="m391 431.3c34.8-12.6 58.7-63 55.7-84.2-.8-5.5-5.7-10.4-10.9-10.7-17.5-1-29.4 9.7-36.6 17.8-16.9 19.4-35.5 45.6-55.8 63.7-5 4.4-10.2 7.9-15.8 10.2-4.1 1.7-8.4 2.6-12.8 2.8-13.2.1-21.1-9.1-15-23 14.4-32.7 27.7-58.3 35.1-72.9" stroke-linejoin="round" stroke-width="5.625001"/>
  </g>
 </g>
</svg>
