<svg height="210mm" viewBox="0 0 1052.4 744.1" width="297mm" xmlns="http://www.w3.org/2000/svg">
 <g fill="none" stroke-linecap="round">
  <g transform="translate(0 -308.26772)">
   <path d="m57.6 742.2h948.8" stroke="#969696" stroke-width="1.875"/>
   <g stroke="#000" stroke-dasharray="3.75 7.5" stroke-miterlimit="2" stroke-width=".9375">
    <path d="m58.3 844.1h948.8"/>
    <path d="m58.3 641.8h948.8"/>
    <path d="m58.3 540.6h948.8"/>
   </g>
  </g>
  <g stroke="#000">
   <path d="m415.2 432.9s260.2-125.4 279.2-133.7c10.7-4.7 25.8-11.6 30.9-13.3 8-3 13.9-3.3 17.9-2 6.4 2.1 8.1 9 6.2 18.2-4.9 24.1-33.5 64.1-62.5 77.6" stroke-linejoin="round" stroke-width="5.625"/>
   <path d="m471.9 336.1c-37.3 39.8-66.1 74.4-97.7 90-7.4 3.3-14.2 4.9-20 5-18.9.3-28.2-15.7-20.8-41.2" stroke-width="5.625"/>
   <g stroke-linejoin="round">
    <path d="m415.2 432.9c-52.8 22.2-107.3 83.2-81.8 98.7 9.9 5.5 23.1-1.1 49.3-43.2l89.2-152.4" stroke-width="5.624999"/>
    <path d="m686.8 379.7c-3.4.4-4.2-2.6-2.9-4.5 15.2-13 52.4-16.3 69.3-7.4" stroke-width="5.624999"/>
    <path d="m807.9 243.7a5.9 5.9 0 0 1 -5.9 5.9 5.9 5.9 0 0 1 -5.9-5.9 5.9 5.9 0 0 1 5.9-5.9 5.9 5.9 0 0 1 5.9 5.8h-5.9z" stroke-width="6.571438" transform="matrix(.98610517 .16612221 -.16612221 .98610517 0 0)"/>
   </g>
   <path d="m333.4 390c-27 43.8-65.3 103.3-70.7 112.2-8.7 14.5-4.5 28.8 10 30.5 11.3 1.1 20.4-6 28.6-15" stroke-width="5.625"/>
  </g>
 </g>
</svg>
