<svg height="210mm" viewBox="0 0 1052.4 744.1" width="297mm" xmlns="http://www.w3.org/2000/svg">
 <g fill="none" stroke-linecap="round">
  <g transform="translate(0 -308.26772)">
   <path d="m57.6 742.2h948.8" stroke="#969696" stroke-width="1.875"/>
   <g stroke="#000" stroke-dasharray="3.75 7.5" stroke-miterlimit="2" stroke-width=".9375">
    <path d="m58.3 844.1h948.8"/>
    <path d="m58.3 641.8h948.8"/>
    <path d="m58.3 540.6h948.8"/>
   </g>
  </g>
  <g stroke="#000">
   <g stroke-linejoin="round">
    <g stroke-width="5.625">
     <path d="m506.1 335-44.4 74.9c-12.1 20.4 4.7 27 31.3 14.7 35.9-16.3 71.9-32.5 107.9-48.6"/>
     <path d="m600.9 376c16.1-8 55.5-29.2 79.9-37.9 21-5.4 35 2.5 12.3 40.5l-31.2 52.3"/>
     <path d="m661.8 431c.6.4 59.2-35.8 70.7-35.9 20.1-.2 17.8 36.2 32.6 36.2 10.1 0 21.7-14.2 21.7-14.2"/>
    </g>
    <path d="m430.5 336.5-47.8 86.7" stroke-width="6.5625"/>
    <path d="m326.8 431.3 94.4-95.2-39 72.4c-8.4 15.5 5 26 21.5 22.2 15-5.7 24.8-14.6 38.2-27.4" stroke-width="5.625"/>
    <path d="m425.9 336.5-44.7 81.9" stroke-width="6.5625"/>
   </g>
   <path d="m387.7 417.1c-1.6 4.1-2.6 6.5.8 11.9" stroke-width="3.75"/>
   <path d="m430.5 336.5-9.3-.4" stroke-linejoin="round" stroke-width="6.5625"/>
   <path d="m441.9 403.4-75.1 130.3" stroke-width="5.625"/>
  </g>
 </g>
</svg>
