<svg height="210mm" viewBox="0 0 1052.4 744.1" width="297mm" xmlns="http://www.w3.org/2000/svg">
 <g fill="none" stroke-linecap="round">
  <g transform="translate(0 -308.26772)">
   <path d="m57.6 742.2h948.8" stroke="#969696" stroke-width="1.875"/>
   <g stroke="#000" stroke-dasharray="3.75 7.5" stroke-miterlimit="2" stroke-width=".9375">
    <path d="m58.3 844.1h948.8"/>
    <path d="m58.3 641.8h948.8"/>
    <path d="m58.3 540.6h948.8"/>
   </g>
  </g>
  <g stroke="#000" stroke-linejoin="round" stroke-width="5.625">
   <path d="m502.7 387.4s-205.2 41-257.3 43.2c-56.8 9.5 21.5-138.4 65.6-185.1 4.7-5 11.2-10.7 18.9-11.9"/>
   <ellipse cx="147.8114" cy="631.72699" rx="25.728558" ry="20.371416" transform="matrix(.79083574 -.61202846 .61202846 .79083574 0 0)"/>
   <path d="m488.3 395.2 119.9-107.8-50.2 96.2"/>
   <path d="m558 383.6 167.7-186.5"/>
   <path d="m725.7 249.9c6.1-43.4 47.3-111.5 85.4-122.5-10.2-3.4-49 32.3-85.5 69.7"/>
   <path d="m668.9 330.6c1.7.9 3.5 1.3 4.2 1.3 13.3.2 47.4-44.7 52.6-82"/>
  </g>
 </g>
</svg>
