<svg height="210mm" viewBox="0 0 1052.4 744.1" width="297mm" xmlns="http://www.w3.org/2000/svg">
 <g fill="none" stroke-linecap="round" transform="translate(0 -308.26772)">
  <path d="m57.6 742.2h948.8" stroke="#969696" stroke-width="1.875"/>
  <g stroke="#000" stroke-dasharray="3.75 7.5" stroke-miterlimit="2" stroke-width=".9375">
   <path d="m58.3 844.1h948.8"/>
   <path d="m58.3 641.8h948.8"/>
   <path d="m58.3 540.6h948.8"/>
  </g>
 </g>
 <g fill="none" stroke="#000" stroke-linecap="round" stroke-linejoin="round" stroke-width="5.625">
  <path d="m672.1 431.7c57.6-20.9 87.6-147.4 10.9-72.1"/>
  <path d="m672.1 431.7c-10.9-6.2 85-39.2 133.5-40.5s65.4 39.4 99.7 39.5c25.7.1 50.2-12.7 65.3-22"/>
  <path d="m691.2 458-15.7 38.1"/>
 </g>
 <circle cx="547.57092" cy="361.11658" r="10.653955"/>
 <circle cx="532.18127" cy="410.1322" r="10.653955"/>
 <g fill="none" stroke="#000" stroke-linecap="round" stroke-linejoin="round" stroke-width="5.625">
  <path d="m104.7 431.2c57.6-20.9 87.6-147.4 11-72.1"/>
  <path d="m104.7 431.2c-10.9-6.2 85-39.2 133.5-40.5s65.4 39.4 99.7 39.5c25.7.1 50.2-12.7 65.3-22"/>
 </g>
</svg>
