<svg height="210mm" viewBox="0 0 1052.4 744.1" width="297mm" xmlns="http://www.w3.org/2000/svg">
 <g fill="none" stroke-linecap="round">
  <g transform="translate(0 -308.26772)">
   <path d="m57.6 742.2h948.8" stroke="#969696" stroke-width="1.875"/>
   <g stroke="#000" stroke-dasharray="3.75 7.5" stroke-miterlimit="2" stroke-width=".9375">
    <path d="m58.3 844.1h948.8"/>
    <path d="m58.3 641.8h948.8"/>
    <path d="m58.3 540.6h948.8"/>
   </g>
  </g>
  <g stroke="#000" stroke-linejoin="round">
   <path d="m612 392.5c-16.9 12.6-48 39-67.4 38.7-17.6-.2-17.8-30.3-38.5-30-33.2-.1-116 29.1-95.8 30.7" stroke-width="5.625"/>
   <path d="m410.2 431.9c4.9-1 9.7-4.3 11-5 38.7-22.3 61.1-90.2 37.9-90.6-10-.2-19.6 7.2-28.8 16.1-6 5.8-13.1 13.8-19.7 21.3" stroke-width="5.625002"/>
   <ellipse cx="708.82251" cy="-16.530703" rx="3.366329" ry="5.01209" stroke-width="8.900769" transform="matrix(.72846687 .68508103 -.68508103 .72846687 0 0)"/>
   <path d="m612 392.5-18.7 38.8" stroke-width="5.31442"/>
   <path d="m617.7 395-18.5 36.2" stroke-width="4.472216"/>
   <path d="m621.4 392.3-18.7 38.8" stroke-width="5.31442"/>
   <path d="m614.4 393.1-18.5 36.2" stroke-width="4.472216"/>
   <g stroke-width="5.625">
    <path d="m621.3 392.3-9.2.2"/>
    <path d="m602.8 431.1-9.2.2"/>
   </g>
  </g>
 </g>
</svg>
