<svg height="210mm" viewBox="0 0 1052.4 744.1" width="297mm" xmlns="http://www.w3.org/2000/svg">
 <g fill="none" stroke-linecap="round">
  <g transform="translate(0 -308.26772)">
   <path d="m57.6 742.2h948.8" stroke="#969696" stroke-width="1.875"/>
   <g stroke="#000" stroke-dasharray="3.75 7.5" stroke-miterlimit="2" stroke-width=".9375">
    <path d="m58.3 844.1h948.8"/>
    <path d="m58.3 641.8h948.8"/>
    <path d="m58.3 540.6h948.8"/>
   </g>
  </g>
  <g stroke="#000" stroke-linejoin="round" stroke-width="5.625">
   <path d="m492.4 393.6s-104.2 45.5-109.6 48.5c-41.6 23.7-75.8 71.5-70.5 85 1.2 2.9 9.6 22.2 53.1-38.8 48.1-67.3 86.2-138.1 121.9-209.8 24.4-41.7.9-65.2-35.7-18.9"/>
   <path d="m492.4 393.6 250.3-120.7"/>
   <path d="m346.4 332.4c53.9-10.9 96.5-77.9 90.2-94.5-5.4-14.3-40 8.8-86.8 86.2l-59.9 107.1"/>
   <path d="m451.6 259.6c-40.7 57.4-144.1 166-161.4 171.2"/>
   <path d="m742.7 272.9-39 72.4c-7.3 13.6 2 23.3 15.4 23"/>
   <path d="m719.1 368.3c17.3-1.7 44.5-26.7 63.9-26.1 14.7.1 12.5 27 26.3 26.6 7.5-.5 10.8-6.2 14.1-10.6"/>
  </g>
 </g>
</svg>
