<svg height="210mm" viewBox="0 0 1052.4 744.1" width="297mm" xmlns="http://www.w3.org/2000/svg">
 <g fill="none" stroke-linecap="round">
  <g transform="translate(0 -308.26772)">
   <path d="m57.6 742.2h948.8" stroke="#969696" stroke-width="1.875"/>
   <g stroke="#000" stroke-dasharray="3.75 7.5" stroke-miterlimit="2" stroke-width=".9375">
    <path d="m58.3 844.1h948.8"/>
    <path d="m58.3 641.8h948.8"/>
    <path d="m58.3 540.6h948.8"/>
   </g>
  </g>
  <g stroke="#000" stroke-linejoin="round">
   <g stroke-width="5.624999">
    <path d="m338.1 234.6s-66.1 127.2-85.7 164.6c-8.4 18.4 1.3 32.2 20.6 31.9 34.7-.5 60.2-40 91.9-35 18.7 3.5 19.4 45.5 45.1 32.8"/>
    <path d="m349.3 397.1c4.4-1.3 7.2-.4 9.7.2 5.9 1.5 10.1 7.8 16.8 22.4 5 11 11.9 12 18.4 12 2.2 0 5.2 0 7.5-.2"/>
    <path d="m363 397.8c8.1 7.1 6.1 1.9 24 29.3"/>
    <path d="m410 429c22.1-13.7 40.8-44.2 64.8-85.4 3.5-6.1 25.7-42.4 48.8-74.3"/>
   </g>
   <path d="m570.1 234.8c-34 8.9-68.8 56.9-65.1 80.2 1.6 10 9 15.8 22.7 14.9 26.4-1.6 61.3-26.4 111.9-27.9 50.5-1.4 58.8 28.1 111 27.9 15.3-.1 37.8-6.6 54.4-12.6" stroke-width="5.625"/>
  </g>
 </g>
</svg>
