<svg height="210mm" viewBox="0 0 1098.4 744.1" width="310mm" xmlns="http://www.w3.org/2000/svg">
 <g fill="none" stroke-linecap="round">
  <g transform="translate(0 -308.26772)">
   <path d="m42.6 742.2h1020.1" stroke="#969696" stroke-width="1.875"/>
   <g stroke="#000" stroke-dasharray="3.75 7.5" stroke-miterlimit="2" stroke-width=".9375">
    <path d="m43.3 844.1h1020.1"/>
    <path d="m43.3 641.8h1020.1"/>
    <path d="m43.3 540.6h1020.1"/>
   </g>
  </g>
  <g stroke="#000">
   <g stroke-linejoin="round" stroke-width="5.625">
    <path d="m612 431.5 257.2-95.3c6.5 14.3 17.4 45 37.8 42.8 44.3-4.9 54.1-37.7 39.4-42.6-7.2-2.4-25.6 2.2-48.8 40.4-25.5 41.6-21.8 55.8-8.3 54.4"/>
    <path d="m889.4 431.2c15.9-1.1 69.6-31.5 87.2-32.4 16.8-.7 22.7 32.6 34.2 32.2 7.5-.2 13.1-6.2 18.3-10.8"/>
    <path d="m82.1 431.4c12.4-24.5 25.2-36 41.5-42.6 33.1-13.3 58.2 3 45.9 42.5"/>
    <path d="m169.5 431.4 80.3-48.2 33.3 47.9"/>
    <path d="m249.8 383.1 24 48"/>
    <path d="m259.3 383.1 23.8 47.9"/>
    <path d="m255.4 383 24 48"/>
   </g>
   <path d="m250.2 382.1h9" stroke-width="3.75"/>
   <path d="m273.6 432h9" stroke-width="3.75"/>
   <ellipse cx="126.58353" cy="674.90735" rx="25.728558" ry="20.371416" stroke-linejoin="round" stroke-width="5.625" transform="matrix(.79083574 -.61202846 .61202846 .79083574 0 0)"/>
   <path d="m535.7 445.2c.3 9.3-.4 14.6-6.3 21.9-3.6 4.5-8.8 8.3-16 11.1" stroke-width="5.624961"/>
   <path d="m532.1 440c2 6.9 1.8 6.4.7 11.6-1.6 7.6-6.1 13.5-12.5 18.7-3.2 2.6-6.9 5-10.9 7.3" stroke-width="6.599955"/>
   <path d="m515 471.9c-5.3 3.7-10.3 5.7-16.3 3.5" stroke-width="2.849979"/>
   <path d="m521.3 435.3c6.2 1.3 8.4 3.3 9.7 7.9.3.9.9 2.9.4 5.9" stroke-width="2.849979"/>
   <g stroke-linejoin="round" stroke-width="5.625">
    <path d="m283.1 431 97.1-94.4-56.7 94.9 194.2 2.2"/>
    <path d="m504.7 437.2 86.8-54 20.5 48.3"/>
   </g>
  </g>
 </g>
</svg>
