<svg height="210mm" viewBox="0 0 1052.4 744.1" width="297mm" xmlns="http://www.w3.org/2000/svg">
 <g fill="none" stroke-linecap="round">
  <g transform="translate(0 -308.26772)">
   <path d="m57.6 742.2h948.8" stroke="#969696" stroke-width="1.875"/>
   <g stroke="#000" stroke-dasharray="3.75 7.5" stroke-miterlimit="2" stroke-width=".9375">
    <path d="m58.3 844.1h948.8"/>
    <path d="m58.3 641.8h948.8"/>
    <path d="m58.3 540.6h948.8"/>
   </g>
  </g>
  <g stroke="#000">
   <g stroke-linejoin="round">
    <path d="m306.6 335.6-47.8 86.7" stroke-width="6.5625"/>
    <path d="m202.9 430.4 94.4-95.2-39 72.4c-8.4 15.5 5 26 21.5 22.2 2.8-.7 9.6-2.1 14-6 17.8-14.9 29.6-34.6 37.1-45.1" stroke-width="5.625"/>
    <path d="m302 335.6-44.7 81.9" stroke-width="6.5625"/>
   </g>
   <path d="m263.8 416.1c-1.6 4.1-2.6 6.5.8 11.8" stroke-width="3.75"/>
   <g stroke-linejoin="round">
    <path d="m306.6 335.6-9.3-.4" stroke-width="6.5625"/>
    <g stroke-width="5.625">
     <path d="m402.8 386.1c-9.8 6.9-78.4 52.3-110.1 82.3-29.5 26.2-37.6 56-30.3 63.4 4.2 4.2 22.3-2.9 60.1-51.5 26.9-36.9 45.9-66.4 60.6-109.4 15.5-30.1-2.9-62.9-52.3 8"/>
     <path d="m402.8 386.1c19.6-17 97.1-58.7 87.4-93.8-2.8-7.3-30.3-3.6-54.1 35.7-26.3 43.1-17.7 60.3-4.2 58.6 14-3.8 19.8-8.9 27-13.5"/>
     <ellipse cx="184.08992" cy="596.07635" rx="25.728558" ry="20.371416" transform="matrix(.79083574 -.61202846 .61202846 .79083574 0 0)"/>
     <path d="m495.7 344.4s-29.5 23.8-36.9 28.7"/>
    </g>
   </g>
  </g>
  <g stroke-linejoin="round" stroke-width="5.625">
   <path d="m618 397.6s63.9-32 124.7-63" stroke="#000003"/>
   <g stroke="#000">
    <path d="m511.1 336.8c50.9-10.8 97.1-29.3 123.4-57.1 8.4-8.9 26.7-37.1 24.9-42-5.5-14.4-40.2 8.9-87.4 86.8-50.2 86.7-46.5 112.7-24.4 105.5 3.7-1.2 16.2-6.4 21.1-8.5 5.4-2.3 49.3-23.9 49.3-23.9"/>
    <path d="m791.3 336.6c-27.3 24.1-66.9 56.8-48.6-1.9"/>
    <path d="m791.3 336.6 20 47.9"/>
   </g>
  </g>
 </g>
</svg>
