<svg height="210mm" viewBox="0 0 1052.4 744.1" width="297mm" xmlns="http://www.w3.org/2000/svg">
 <g fill="none" stroke-linecap="round">
  <g transform="translate(0 -308.26772)">
   <path d="m57.6 742.2h948.8" stroke="#969696" stroke-width="1.875"/>
   <g stroke="#000" stroke-dasharray="3.75 7.5" stroke-miterlimit="2" stroke-width=".9375">
    <path d="m58.3 844.1h948.8"/>
    <path d="m58.3 641.8h948.8"/>
    <path d="m58.3 540.6h948.8"/>
   </g>
  </g>
  <g stroke="#000" stroke-linejoin="round" stroke-width="5.625">
   <path d="m522.7 336.1c-11.5 21.1-23.6 41.7-35.7 62.4-15.3 27 5.1 40.4 44.9 29.7"/>
   <path d="m542.1 421.8c6.2-10.1-5-14.2-15.7-6.1-9.6 9.9 3.6 18.7 15.6 6.1"/>
   <path d="m588.7 392.5s-48.6 45.9-60.6 35.7"/>
   <ellipse cx="224.50748" cy="691.21771" rx="25.728558" ry="20.371416" transform="matrix(.79083574 -.61202846 .61202846 .79083574 0 0)"/>
   <path d="m588.9 392.4 84.2-56.3"/>
   <path d="m375.5 533.3 147.2-197.2"/>
  </g>
 </g>
</svg>
