<svg height="210mm" viewBox="0 0 1052.4 744.1" width="297mm" xmlns="http://www.w3.org/2000/svg">
 <g fill="none" stroke-linecap="round">
  <g transform="translate(0 -308.26772)">
   <path d="m57.6 742.2h948.8" stroke="#969696" stroke-width="1.875"/>
   <g stroke="#000" stroke-dasharray="3.75 7.5" stroke-miterlimit="2" stroke-width=".9375">
    <path d="m58.3 844.1h948.8"/>
    <path d="m58.3 641.8h948.8"/>
    <path d="m58.3 540.6h948.8"/>
   </g>
  </g>
  <g stroke="#000">
   <g stroke-width="5.625">
    <g stroke-linejoin="round">
     <path d="m459.8 431c23.7.1 36.9-13.7 63.9-38.3"/>
     <path d="m332.6 410.8 34.3-29.8 22.4 50.2"/>
     <path d="m347.2 336.5c-56.6 14.8-104.6 143.3-14.6 74.3"/>
     <path d="m389.4 431.2 98.9-95.3c-9 16-18.6 33.2-27.9 49.3-4.8 8.3-9.6 17-14.2 26.2-8.7 14.9.6 20.4 13.6 19.7"/>
    </g>
    <path d="m738.7 234.4-113.1 196.5"/>
    <g stroke-linejoin="round">
     <path d="m625.6 430.9 88.9-87.2"/>
     <path d="m714.5 343.7c5.8-5.9 11.3-8.3 18.7-9.3 11.9-.6 14.3.7 18.7 3.2 7.6 4.3 8 17.2-6 41.5l-29.8 52.1"/>
     <path d="m755.8 346.3-48.9 84.8"/>
     <path d="m756.4 351.2-45.6 79.9"/>
     <path d="m706.9 431.2 9.3.1"/>
    </g>
   </g>
   <path d="m749.5 337.3c3.7 2.9 3.4 12.6 1.1 16.3" stroke-width="3.75"/>
   <path d="m738.7 234.4s-76.8 108.2-124.5 157.2c-52.8 58-98.9 46.1-90.4 1.1" stroke-linejoin="round" stroke-width="5.625"/>
  </g>
 </g>
</svg>
