<svg height="210mm" viewBox="0 0 1052.4 744.1" width="297mm" xmlns="http://www.w3.org/2000/svg">
 <g stroke-linecap="round">
  <g fill="none" transform="translate(0 -308.26772)">
   <path d="m57.6 742.2h948.8" stroke="#969696" stroke-width="1.875"/>
   <g stroke="#000" stroke-dasharray="3.75 7.5" stroke-miterlimit="2" stroke-width=".9375">
    <path d="m58.3 844.1h948.8"/>
    <path d="m58.3 641.8h948.8"/>
    <path d="m58.3 540.6h948.8"/>
   </g>
  </g>
  <g stroke="#000" stroke-linejoin="round">
   <path d="m321.3 416.5c-4.9 2.3-7.7 5.2-8.3 6.2-1.9 3.1-1.1 8.1 3.9 8.6 3 .3 9.7-4.2 11-5 10.7-6.1 20.2-15.8 27.8-26.6 28.4-40.2 30.6-95.6-25.7-40.3" fill="none" stroke-width="5.419139"/>
   <g stroke-width="5.625">
    <path d="m321.3 416.5c5.9-5.1 204-35.2 204-35.2l-45.3 94.7" fill="none"/>
    <path d="m480 476 65.6-82.2" fill="#d3bc5f" fill-rule="evenodd"/>
    <path d="m545.6 393.8c16.7-22.2 50.9-70.7 75.6-53.7 7.6 4.3 7 16.6-6 41.5l-26.1 50.2" fill="none"/>
    <path d="m589.1 431.9s59.8-30.6 76.6-31.4c16-.6 21.6 31 32.6 30.7 7.2-.2 12.4-7.6 16.7-13" fill="none"/>
   </g>
  </g>
 </g>
</svg>
