<svg height="210mm" viewBox="0 0 1052.4 744.1" width="297mm" xmlns="http://www.w3.org/2000/svg">
 <g fill="none" stroke-linecap="round">
  <g transform="translate(0 -308.26772)">
   <path d="m57.6 742.2h948.8" stroke="#969696" stroke-width="1.875"/>
   <g stroke="#000" stroke-dasharray="3.75 7.5" stroke-miterlimit="2" stroke-width=".9375">
    <path d="m58.3 844.1h948.8"/>
    <path d="m58.3 641.8h948.8"/>
    <path d="m58.3 540.6h948.8"/>
   </g>
  </g>
  <g stroke="#000">
   <g stroke-linejoin="round" stroke-width="5.625">
    <path d="m751.9 333.4c-53.2 7.3-100.2 80.3-96.4 92.6.9 3 16.3 22.9 59.8-38.1 26.9-36.9 55.6-74.7 69.3-112.7 7.5-21.4 9.4-43.9-7.9-39.8"/>
    <path d="m764.2 318.8s3.9-1.8 7.7-3.8c6.5-3.3 20-15.6 39-36.1"/>
    <path d="m811 279c14.8-15.5 28.7-32.2 50.7-41.8 19.6-8.3 35 2.5 12.3 40.5l-31.2 52.3"/>
    <path d="m884.1 243.5-49.2 86.2"/>
    <path d="m884.3 249.7-45.6 79.9"/>
    <path d="m834.8 329.7 7.9.2"/>
   </g>
   <path d="m880.1 237.3c1.8 1.7 2.3 5.7.7 9.9" stroke-width="3.75"/>
   <g stroke-width="5.625">
    <g stroke-linejoin="round">
     <path d="m760.2 310.6c.7.1 1.3.2 1.8.5.2.1.3.2.4.3.9.7 1.2 1.8.7 3.7-.9 3.6-5 5.6-6.9 6.4-4 1.4-6.9-1.8-4.7-5.4 1.4-2.2 3.9-4.6 6.8-5.2.2 0 .4-.1.6-.1h.7c.6 0 1.1.1 1.7.2"/>
     <path d="m776.7 235.3c-31.8 5.3-66.4 61.9-94.1 86.6"/>
     <path d="m562.5 329.4c11.9-1.3 20.3-5.4 30.6-11.8 4-2.5 8.4-5 12.9-7.4 11.6-6.2 23.7-11.2 31-9.8 17.2 3.2 16 46.2 45.6 21.5"/>
     <path d="m617.7 304.7c5.4-2.4 18.6-2.2 26.5 15 5.6 12.2 13.9 9.5 20.5 9.9"/>
     <path d="m632.3 302.8c6.7 5.9 6.3.5 21.2 23.1"/>
     <path d="m271.3 329.9c28.1-.3 270.3-95.3 270.3-95.3.4 5.9.6 51.2 23.7 48.9 57.1-5.6 63.7-49.1 51.2-49.5-7.7-.3-25.9 1.2-49.4 40-27.9 45.7-21.1 57.4-4.6 55.5"/>
     <path d="m240.9 270.4c10.8-19 23.2-32.6 44-35.1 17-2 21.6 17.5 7.4 32.6-29.8 31.8-39.3 43.6-33.3 57.3 1.9 4.4 6.5 5.5 12.3 4.7"/>
    </g>
    <path d="m240.9 270.4-72.8 130.7"/>
    <ellipse cx="-100.95135" cy="438.48676" rx="25.728558" ry="20.371416" stroke-linejoin="round" transform="matrix(.79083574 -.61202846 .61202846 .79083574 0 0)"/>
   </g>
  </g>
 </g>
</svg>
