<svg height="210mm" viewBox="0 0 1052.4 744.1" width="297mm" xmlns="http://www.w3.org/2000/svg">
 <g fill="none" stroke-linecap="round">
  <g transform="translate(0 -308.26772)">
   <path d="m57.6 742.2h948.8" stroke="#969696" stroke-width="1.875"/>
   <g stroke="#000" stroke-dasharray="3.75 7.5" stroke-miterlimit="2" stroke-width=".9375">
    <path d="m58.3 844.1h948.8"/>
    <path d="m58.3 641.8h948.8"/>
    <path d="m58.3 540.6h948.8"/>
   </g>
  </g>
  <g stroke="#000">
   <g stroke-linejoin="round" stroke-width="5.625">
    <path d="m657.7 347.3 117.5-65"/>
    <path d="m602.1 392c-1.2.5-7.1 5.1-14.4 10.8-12.7 10.1-29.4 23.6-31.5 24.8-3 1.7-18.8 15.6-18.8 15.6-34.9 27.8-66.5 73.3-60.4 87.5 5.7 13.2 69.5-28.4 95.8-138.9 17.5-80 53.4-142.9 90.7-155.8"/>
    <path d="m602.1 392 46.4-38.6"/>
   </g>
   <path d="m702.8 337.9c9.3 1.2 23.5 6.5 26.3 22.3" stroke-width="3.75"/>
   <ellipse cx="417.86465" cy="660.216" rx="60.146576" ry="43.208752" stroke-linejoin="round" stroke-width="5.625" transform="matrix(.88109295 -.47294313 .47294313 .88109295 0 0)"/>
   <path d="m667.3 429.1c-11.1 2-22.6-1-31.8-8.1" stroke-width="3.75"/>
   <g stroke-width="5.625">
    <path d="m734.1 361.3c.7 2.8.2 12.3-.3 13.7-4.6 13.5-9.8 20.7-17.2 28.9-8.8 9.7-22.1 15.7-32.4 24.1"/>
    <path d="m714.6 339.8c11 3.2 13.8 13.8 14.8 17.6 5.3 20.3-6.7 35.7-14.9 44.9-8.3 9.3-25 27.4-57.1 28.7"/>
   </g>
  </g>
  <g stroke-linejoin="round">
   <g stroke="#000001">
    <path d="m410.3 431.8c-20.4-.4-26.4-29.2-49.6-27.8-20.8 1.9-61.5 51.5-77.8 79.6-6.2 10.8-28 48.1-5.8 49.2 8.8.3 24.2-7.6 50-43.4 26.7-37 53.2-75.3 67.9-118.3 5.8-18.6 4.9-34-5.2-35-7.4-.7-19.7 6.3-37.8 25.3" stroke-width="5.625"/>
    <path d="m410.3 431.8 60.1-.2" stroke-width="5.625001"/>
    <g stroke-width="5.625" transform="matrix(.72846687 .68508103 -.68508103 .72846687 0 0)">
     <ellipse cx="636.39459" cy="-14.270804" rx="4.609393" ry="6.862875"/>
     <ellipse cx="620.57233" cy=".604197" rx="4.609393" ry="6.862875"/>
    </g>
   </g>
   <path d="m640.6 250c-30.8 26-163.8 178.7-163.8 178.7" stroke="#000" stroke-width="5.625"/>
  </g>
 </g>
</svg>
