<svg height="210mm" viewBox="0 0 1052.4 744.1" width="297mm" xmlns="http://www.w3.org/2000/svg">
 <g fill="none" stroke-linecap="round">
  <g transform="translate(0 -308.26772)">
   <path d="m57.6 742.2h948.8" stroke="#969696" stroke-width="1.875"/>
   <g stroke="#000" stroke-dasharray="3.75 7.5" stroke-miterlimit="2" stroke-width=".9375">
    <path d="m58.3 844.1h948.8"/>
    <path d="m58.3 641.8h948.8"/>
    <path d="m58.3 540.6h948.8"/>
   </g>
  </g>
  <g stroke="#000" stroke-width="5.625">
   <g stroke-linejoin="round">
    <path d="m549.6 435.9c22.4-15.4 96.6-49.3 96.6-49.3"/>
    <path d="m657.1 386.6c23.8 35.6 58.9 71.8 62.4 95.4.7 5.4-1 14-3.6 21.9"/>
    <path d="m681 533.4c24.4-11 37.7-23.5 37-43.2-.6-15.2-13.1-36.3-21.1-45.8-9.5-11.7-46.9-57.8-46.9-57.8"/>
    <path d="m646.2 386.6c12.2 20 42.6 51.3 59.5 79.1 7 11.6 15.5 30.8 7.1 44.2"/>
   </g>
   <path d="m657.1 386.6h-10.9"/>
   <g stroke-linejoin="round">
    <path d="m550.1 435.1c-37 20.2-76.8 76.5-68.3 92.5 4.9 9.2 28.4 7.7 48.3-24.3 8.5-13.7 17.7-31 19.9-61.8 4.4-61.4 32.2-110 55.8-105.6 19.7 4.5 6.9 24.6-4.7 33.3-8 6.6-21.5 14.5-39.2 24.1"/>
    <path d="m561.8 393.1c-45.6 23.9-78.7 37.5-122.1 38-46.8.5-53-29.2-109.1-27.9s-98.7 27.8-98.7 27.8"/>
    <path d="m681 533.4c-2.9 1.3-6.3-3.1-3-5.8 4.7-3.9 70.3-25.1 79.4-25.3 16.7-.3 19.8 30.7 32.6 30.7 7.2 0 11.9-5.2 16.7-9.2"/>
   </g>
  </g>
 </g>
</svg>
