<svg height="210mm" viewBox="0 0 1052.4 744.1" width="297mm" xmlns="http://www.w3.org/2000/svg">
 <g stroke-linecap="round">
  <g fill="none" transform="translate(-16.687564 -521.16511)">
   <path d="m57.6 742.2h948.8" stroke="#969696" stroke-width="1.875"/>
   <g stroke="#000" stroke-dasharray="3.75 7.5" stroke-miterlimit="2" stroke-width=".9375">
    <path d="m58.3 844.1h948.8"/>
    <path d="m58.3 641.8h948.8"/>
    <path d="m58.3 540.6h948.8"/>
   </g>
  </g>
  <g fill="none" transform="translate(-16.687564 -116.97075)">
   <path d="m57.6 742.2h948.8" stroke="#969696" stroke-width="1.875"/>
   <g stroke="#000" stroke-dasharray="3.75 7.5" stroke-miterlimit="2" stroke-width=".9375">
    <path d="m58.3 844.1h948.8"/>
    <path d="m58.3 641.8h948.8"/>
    <path d="m58.3 540.6h948.8"/>
   </g>
  </g>
  <g stroke-linejoin="round">
   <g fill="none">
    <g stroke="#000">
     <path d="m58.9 217.4s232.4-28.7 245.2-24.4c12.8 4.4 16.4 25.2 34 25.3 9.6.1 18-4.4 26-11" stroke-width="5.625"/>
     <path d="m364.2 207.3c3.2-2.7 6-5.4 8-7 5.9-4.9 11.5-9.2 16.8-12.7 42.5-28.8 64.3-14.9 65.2 30.2 0 1 34.7-1.1 34.7-1.1" stroke-width="5.625"/>
     <path d="m620.4 218.2c56.8-20.7 88.4-146.4 10.8-71" stroke-width="5.419139"/>
    </g>
    <g stroke-width="5.625">
     <path d="m620.4 218.2 172.4-.4" stroke="#160800"/>
     <g stroke="#000">
      <path d="m868.5 218.7 30.8-53.5c18.9-32.9 11-44.4-4.1-42.2-37 5.6-77.8 96.2-102.4 94.8"/>
      <path d="m868.5 218.7 84.3-42.4 19.4 42"/>
      <path d="m233.9 590.3 33.9-16-27.4 48.9"/>
      <path d="m128.7 520.8-69.2.5"/>
      <path d="m768 577.2-23.6 45.3"/>
      <path d="m631.3 589.7 33.9-16-27.4 48.9 33.8-15.1"/>
      <path d="m432.2 621.5c43.9-12.2 77.8-94.1 46.7-94.3-16.9 1.2-29 9-50.4 28.5"/>
      <path d="m353.7 550.2c24.3-33 69.9-34.2 37.2 20l-31.5 52.1"/>
      <path d="m359.4 622.3 69.1-66.7"/>
      <path d="m432.2 621.5c-36.4 7.4 72-32.3 90.5-33.2 17.6-.7 23.8 34.2 35.9 33.8 7.9-.2 13.6-8.3 18.5-14.3"/>
      <path d="m804.4 202.4c.8.1 1.5.3 2.1.6.2.1.4.2.5.3 1 .8 1.4 2.2.8 4.4-1.1 4.3-5.9 6.7-8.2 7.6-4.7 1.7-8.3-2.2-5.5-6.4 1.7-2.6 4.6-5.5 8.1-6.3.2-.1.5-.1.7-.1.3 0 .6-.1.9-.1.7 0 1.3.1 2 .3"/>
      <path d="m495.3 203.4c.8.1 1.5.3 2.1.6.2.1.4.2.5.3 1 .8 1.4 2.2.8 4.4-1.1 4.3-5.9 6.7-8.2 7.6-4.7 1.7-8.3-2.2-5.5-6.4 1.7-2.6 4.6-5.5 8.1-6.3.2-.1.5-.1.7-.1.3 0 .6-.1.9-.1.7 0 1.3.1 2 .3"/>
     </g>
    </g>
   </g>
   <g stroke="#000">
    <g fill-rule="evenodd" transform="matrix(1.232891 0 0 1.232891 10.878648 377.07405)">
     <path d="m732.1 185.5c.8.1 1.4.2 1.9.5.2.1.3.2.5.3.9.7 1.3 2 .8 4-1 3.9-5.4 6.1-7.5 6.9-4.3 1.6-7.6-2-5.1-5.9 1.6-2.4 4.2-5.1 7.4-5.7.2 0 .4-.1.7-.1h.8c.6 0 1.2.1 1.9.3" stroke-width="5.625"/>
     <path d="m729.3 188.3c.3 0 .6.1.9.2.1 0 .2.1.2.1.4.3.6.9.4 1.8-.4 1.7-2.4 2.8-3.3 3.1-1.9.7-3.4-.9-2.3-2.6.7-1.1 1.9-2.3 3.3-2.6h.3.4c.3 0 .6 0 .8.1" stroke-width="4.981044"/>
    </g>
    <g fill="none" stroke-width="5.625">
     <path d="m940.8 618.9 52.3-47.3"/>
     <path d="m851.1 544.5c49.7-44.2 46.3 7.3 18.7 46.4-7.8 10.8-26.9 32.3-39.6 32.2 29.8-.3 72.6.6 103.8-.4"/>
     <path d="m939.2 612.4c.6.1 1.2.2 1.6.4.1.1.3.2.4.3.8.6 1.1 1.7.6 3.3-.9 3.3-4.6 5.2-6.3 5.8-3.6 1.3-6.3-1.7-4.3-4.9 1.3-2 3.6-4.3 6.2-4.8.2 0 .4-.1.5-.1h.7c.5 0 1 .1 1.6.2"/>
    </g>
   </g>
  </g>
 </g>
</svg>
