<svg height="210mm" viewBox="0 0 1052.4 744.1" width="297mm" xmlns="http://www.w3.org/2000/svg">
 <g fill="none" stroke-linecap="round">
  <g transform="translate(0 -308.26772)">
   <path d="m57.6 742.2h948.8" stroke="#969696" stroke-width="1.875"/>
   <g stroke="#000" stroke-dasharray="3.75 7.5" stroke-miterlimit="2" stroke-width=".9375">
    <path d="m58.3 844.1h948.8"/>
    <path d="m58.3 641.8h948.8"/>
    <path d="m58.3 540.6h948.8"/>
   </g>
  </g>
  <g stroke="#000" stroke-linejoin="round" stroke-width="5.625">
   <path d="m461.4 336.8c-40.3 12.4-81.3 75.2-60.2 89.6 12.8 7.3 35.2 5.9 57.7 5.1 5.8-.2 8.4-2 11.7-4.8"/>
   <path d="m472.6 418.4c.6.2 1.1.4 1.5.7l.3.3c.7.7.7 1.8 0 3.3-1.4 3-5.3 4.1-7.1 4.5-3.8.6-5.8-2.8-3.2-5.5 1.6-1.7 4.2-3.5 6.9-3.5h.5c.2 0 .4 0 .7.1.5.1 1 .3 1.5.5"/>
   <path d="m468.7 429c14.3 5.3 46-40.6 79.7-42.7 24.2-1.2 36.1 14.7 27.7 44.4"/>
   <path d="m576 430.8s62.3-36.4 82.6-35.5c16 .7 16.1 35.4 32.8 35.9 4.5.1 10.2-2.2 17.7-8.3"/>
  </g>
 </g>
</svg>
