<svg height="210mm" viewBox="0 0 1052.4 744.1" width="297mm" xmlns="http://www.w3.org/2000/svg">
 <g fill="none" stroke-linecap="round">
  <g transform="translate(0 -308.26772)">
   <path d="m57.6 742.2h948.8" stroke="#969696" stroke-width="1.875"/>
   <g stroke="#000" stroke-dasharray="3.75 7.5" stroke-miterlimit="2" stroke-width=".9375">
    <path d="m58.3 844.1h948.8"/>
    <path d="m58.3 641.8h948.8"/>
    <path d="m58.3 540.6h948.8"/>
   </g>
  </g>
  <g stroke="#000">
   <g stroke-linejoin="round" stroke-width="5.625">
    <path d="m366 359.8c24.3-33 69.8-34.2 37.2 20l-31.5 52.1"/>
    <path d="m509.1 487.2c17.9-4.9 27.5-16.7 27.3-25.9-1.1-20.7-47.4-26.8-49-48.9-.3-8.7 9.9-17.8 19.6-20.3 15.9-4 23.4 4.5 19.6 15.9-2 6.1-6.7 13.8-17.4 22-2.4 1.8-4.8 2.9-4.8 2.9"/>
    <path d="m487.4 411.1c.7 10.1 2.9 16 12.6 23.5 10.8 6.3 25.9 17.1 29.2 21.3s4.9 11-2.2 21.9"/>
    <path d="m489.5 420.9c.4 10.9 19 22.1 31.1 30.7 8.9 7.4 15.6 14 6.3 26.3"/>
   </g>
   <path d="m516.8 483c6.1-2.6 11.5-9.5 12.2-12" stroke-width="2.8125"/>
   <g stroke-linejoin="round" stroke-width="5.625">
    <path d="m650.6 475.8c9.4-8.8 43-38.8 43-38.8.9-.8-25.9 49.6-25.9 49.6"/>
    <path d="m700.6 439.8-25.3 46.6"/>
    <path d="m679.7 486.3-12 .2"/>
    <path d="m707.4 436.7-27.7 49.5"/>
    <path d="m707.4 436.7-14.1-.1"/>
    <path d="m698.7 437.9-25.3 46.6"/>
    <path d="m504.5 432.9s-118.1 46.8-110.4 51.6"/>
   </g>
  </g>
  <g stroke-linejoin="round">
   <g stroke-width="5.625">
    <path d="m394 484.5c16.8-.5 33-21.3 35-47.2 2.1-26.8 47.3-53.8 36.3-48.7l-93.6 43.3" stroke="#060000"/>
    <path d="m509.1 487.2c-11.4-1.4 41.8-21.5 64.2-31.3 9.2-4 17.8-6.5 23.7-5.4 20.2 3.8 18.7 54.1 53.5 25.2" stroke="#000"/>
    <path d="m574.5 455.6c6.3-2.8 21.8-2.6 31.1 17.6 6.6 14.3 16.3 11.1 24 11.6" stroke="#000"/>
   </g>
   <path d="m591.6 453.4c7.8 4.9 8.8 2 26.1 28.6" stroke="#000" stroke-width="6.587558"/>
  </g>
 </g>
</svg>
