<svg height="210mm" viewBox="0 0 1052.4 744.1" width="297mm" xmlns="http://www.w3.org/2000/svg">
 <g fill="none" stroke-linecap="round">
  <g transform="translate(0 -308.26772)">
   <path d="m57.6 742.2h948.8" stroke="#969696" stroke-width="1.875"/>
   <g stroke="#000" stroke-dasharray="3.75 7.5" stroke-miterlimit="2" stroke-width=".9375">
    <path d="m58.3 844.1h948.8"/>
    <path d="m58.3 641.8h948.8"/>
    <path d="m58.3 540.6h948.8"/>
   </g>
  </g>
  <g stroke="#000">
   <g stroke-linejoin="round">
    <path d="m718 363.9c37.4-47.7 45.4-56.6 48-59.3 2.8-2.9 5-5.8 7.4-7.8 51.1-39.9 27.3 33.2-11.4 99-24.1 39.8-54.2 77.7-77.3 87.7-2.3.5-4.4 1.1-6.2.7-1.3-.3-2.9-2.1-2.9-2.1" stroke-width="5.625"/>
    <path d="m801.2 305-91.7 157.8" stroke-width="5.625"/>
    <path d="m795.4 321.3-73 125.6" stroke-width="8.4375"/>
    <path d="m692.7 478.8c6.6-8.2 16.4-19.1 22.5-27.9" stroke-width="3.75"/>
   </g>
   <g stroke-width="5.625">
    <g stroke-linejoin="round">
     <path d="m784.4 348.8-40.2 67.9"/>
     <path d="m802.1 291.4c.1 1.7.4 3.7.2 5.2-.8 10.6-5.9 15.6-13.7 31.8"/>
     <path d="m685.6 406.6s14.1-18.6 32.4-42.8"/>
     <path d="m713.7 234.8-80.1 173.4c-11.8 25.5 23.6 37.2 51.9-1.5"/>
    </g>
    <path d="m713.7 234.8-224.7 297.9"/>
    <path d="m500 358.8 101.8-104.4" stroke-linejoin="round"/>
    <path d="m601.8 254.4c29.5-31.4 49.3-58 33.7-63.4-14.6-5-40.2 8.9-87.4 86.8-60.3 104.2-33.5 122.2-1.8 98.4l16.4-12.4" stroke-linejoin="round"/>
    <path d="m690.1 189.9s-90.6 144.5-127.4 173.9"/>
    <path d="m500 358.8s-46.6 50-80.5 69c-11.8 6.6-21.8 14.3-23.3 15.1-41.6 23.7-75.8 71.5-70.5 85 1.2 2.9 9.6 22.2 53.1-38.8 48.1-67.3 86.2-138.1 121.9-209.8 15.5-26.5 11.8-44.5-2.5-44.2-14.4.3-18.5 4.7-39.5 28.3" stroke-linejoin="round"/>
   </g>
  </g>
 </g>
</svg>
