<svg height="210mm" viewBox="0 0 1052.4 744.1" width="297mm" xmlns="http://www.w3.org/2000/svg">
 <g fill="none" stroke-linecap="round" transform="translate(0 -308.26772)">
  <path d="m57.6 742.2h948.8" stroke="#969696" stroke-width="1.875"/>
  <g stroke="#000" stroke-dasharray="3.75 7.5" stroke-miterlimit="2" stroke-width=".9375">
   <path d="m58.3 844.1h948.8"/>
   <path d="m58.3 641.8h948.8"/>
   <path d="m58.3 540.6h948.8"/>
  </g>
 </g>
 <circle cx="542.32739" cy="418.77991" r="8.049653"/>
 <g fill="none" stroke-linecap="round" stroke-linejoin="round">
  <g stroke="#000">
   <path d="m440.1 430.7c3.3.4 8.2-3.6 9.6-4.4 48.9-28 71.8-129.3 9.4-73.8-2.3 2.1-17.4 18.4-20 20.9" stroke-width="5.419139"/>
   <g stroke-width="5.625">
    <path d="m598.7 286.6-55.8 97.2"/>
    <path d="m598.7 286.6h-10.6"/>
    <path d="m593.2 286.6-55.8 97.2"/>
    <path d="m542.9 383.8h-10.6"/>
   </g>
  </g>
  <path d="m440.1 430.7c-12.4 4.2 148.1-144.1 148.1-144.1l-55.8 97.2 11-.1 77.1-48.5" stroke="#00000a" stroke-width="5.625"/>
 </g>
</svg>
