<svg height="210mm" viewBox="0 0 1052.4 744.1" width="297mm" xmlns="http://www.w3.org/2000/svg">
 <g stroke-linecap="round">
  <g fill="none" transform="translate(0 -308.26772)">
   <path d="m57.6 742.2h948.8" stroke="#969696" stroke-width="1.875"/>
   <g stroke="#000" stroke-dasharray="3.75 7.5" stroke-miterlimit="2" stroke-width=".9375">
    <path d="m58.3 844.1h948.8"/>
    <path d="m58.3 641.8h948.8"/>
    <path d="m58.3 540.6h948.8"/>
   </g>
  </g>
  <g stroke="#000" stroke-linejoin="round">
   <g fill="none" stroke-width="5.625">
    <path d="m580.1 361c-29.1 8.2-88.9 24.2-129.3 24.3-37.2 0-64-13.7-63.4-48.6l-99 95.1"/>
    <path d="m343.3 334.4-55.8 97.2"/>
    <path d="m343.3 334.4h-10.6"/>
    <path d="m337.7 334.4-55.8 97.2"/>
    <path d="m287.5 431.6h-10.6"/>
    <path d="m258.2 403.9 74.6-69.5-55.8 97.2 11-.1"/>
    <path d="m146.6 431.3s17.5-30.6 42.1-27.8c22.9 2.6 20.3 44 46.5 20.8l23-20.4"/>
   </g>
   <g fill="#eb0000" fill-rule="evenodd" transform="matrix(1.7715894 0 0 1.7715894 -709.94268 9.857176)">
    <path d="m732.1 185.5c.8.1 1.4.2 1.9.5.2.1.3.2.5.3.9.7 1.3 2 .8 4-1 3.9-5.4 6.1-7.5 6.9-4.3 1.6-7.6-2-5.1-5.9 1.6-2.4 4.2-5.1 7.4-5.7.2 0 .4-.1.7-.1h.8c.6 0 1.2.1 1.9.3" stroke-width="5.625"/>
    <path d="m729.3 188.3c.3 0 .6.1.9.2.1 0 .2.1.2.1.4.3.6.9.4 1.8-.4 1.7-2.4 2.8-3.3 3.1-1.9.7-3.4-.9-2.3-2.6.7-1.1 1.9-2.3 3.3-2.6h.3.4c.3 0 .6 0 .8.1" stroke-width="4.981044"/>
   </g>
   <g fill="none">
    <ellipse cx="221.68854" cy="750.68213" rx="25.728558" ry="20.371416" stroke-width="5.625" transform="matrix(.79083574 -.61202846 .61202846 .79083574 0 0)"/>
    <path d="m608.4 348c23.8-19.2 61.1-14.7 37.6 14.4-27.4 33.9-45.5 50.3-39.5 64 2.5 5.8 10.8 6.2 19.9 5.8 9.7-.3 13.4 2.8 19.4 3.6" stroke-width="5.625"/>
    <path d="m683.8 398.1-58.4 41.7" stroke-width="5.62496"/>
    <path d="m737.6 395.5c22.3-18 60.8-12.4 37.8 16-27.4 33.8-45.5 50.2-39.4 63.9 6 13.7 39.8-.4 52.1-17.9" stroke-width="5.625"/>
    <path d="m737.6 395.5c-32.4 27.4-72.1 61.3-53.8 2.6" stroke-width="5.625"/>
    <path d="m608.4 348c-6.7 4.3-17.1 8.6-28.2 12.9" stroke-width="5.62496"/>
   </g>
  </g>
 </g>
</svg>
