<svg height="210mm" viewBox="0 0 1052.4 744.1" width="297mm" xmlns="http://www.w3.org/2000/svg">
 <g fill="none" stroke-linecap="round">
  <g transform="translate(0 -308.26772)">
   <path d="m57.6 742.2h948.8" stroke="#969696" stroke-width="1.875"/>
   <g stroke="#000" stroke-dasharray="3.75 7.5" stroke-miterlimit="2" stroke-width=".9375">
    <path d="m58.3 844.1h948.8"/>
    <path d="m58.3 641.8h948.8"/>
    <path d="m58.3 540.6h948.8"/>
   </g>
  </g>
  <g stroke="#000">
   <g stroke-linejoin="round">
    <path d="m454.8 431.5c35-73.3 92.9-96.8 132.2-95.2 37.4 1.5 65.7 38.1 55.9 95.5" stroke-width="5.625001"/>
    <g stroke-width="5.625">
     <path d="m906.7 347.1a19.2 25.1 41.6 0 1 -14.3 31.3 19.2 25.1 41.6 0 1 -27.6-6.8 19.2 25.1 41.6 0 1 14.3-31.3 19.2 25.1 41.6 0 1 27.6 6.8z"/>
     <path d="m642.9 431.8 239.7-93.3"/>
     <path d="m279 409.3c14.6-12.1 32.2-26.1 32.2-26.1l33.3 47.9"/>
     <path d="m311.2 383.2 24 48"/>
     <path d="m320.7 383.2 23.8 47.9"/>
     <path d="m316.8 383.1 24 48"/>
    </g>
   </g>
   <path d="m311.6 382.1h9" stroke-width="3.75"/>
   <path d="m335 432.1h9" stroke-width="3.75"/>
   <g stroke-width="5.625">
    <path d="m268.9 334.6c54.3-11 96.5-79.5 90.2-96.2-5.5-14.4-40.3 8.9-87.4 86.8-44.7 77.1-46.8 106-31.2 106.4 8.7.2 25.8-11.9 38.5-22.3" stroke-linejoin="round"/>
    <path d="m426.1 336-81.6 95"/>
    <path d="m426.1 336s-34.9 62.1-38.9 72.5c-5.5 14.2 1.8 23.1 15 23 17.5-.4 28.2-11.3 38.6-20.9" stroke-linejoin="round"/>
   </g>
  </g>
 </g>
</svg>
