<svg height="210mm" viewBox="0 0 1052.4 744.1" width="297mm" xmlns="http://www.w3.org/2000/svg">
 <g fill="none" stroke-linecap="round">
  <g transform="translate(0 -308.26772)">
   <path d="m57.6 742.2h948.8" stroke="#969696" stroke-width="1.875"/>
   <g stroke="#000" stroke-dasharray="3.75 7.5" stroke-miterlimit="2" stroke-width=".9375">
    <path d="m58.3 844.1h948.8"/>
    <path d="m58.3 641.8h948.8"/>
    <path d="m58.3 540.6h948.8"/>
   </g>
  </g>
  <g stroke-linejoin="round" stroke-width="5.625">
   <g stroke="#000">
    <path d="m369.8 430.2c-27.3-2.8-26.5-41.5 4.8-43.6 32.9.1 27.2 44.6-14.4 44.1h-74"/>
    <path d="m410.6 431.6-44.6-.9"/>
    <path d="m413.3 430.9c26.5-3.9 69.7-94.6 99.7-96.1 17.8.8 17.6 27.9 24.7 35.8 3 3.3 6.4 4.3 10 3.8 15.1-2.2 32.1-32.8 24.5-38.1-6.3-4.4-25.9 3.2-49.4 42-26.4 43.1-22.7 54.3-8.8 53.4"/>
    <path d="m513.8 431.7c36.4-5.2 127.4-112.5 140.1-125.9"/>
    <path d="m417.4 415.8c1 .1 1.8.3 2.5.7.2.1.4.2.6.4 1.2.9 1.7 2.6 1 5.2-1.3 5.1-7.1 8-9.8 9-5.7 2-9.8-2.6-6.6-7.6 2-3.1 5.5-6.6 9.7-7.5.3-.1.6-.1.9-.1s.7-.1 1-.1c.8 0 1.6.1 2.4.3"/>
   </g>
   <path d="m662.8 381.8c-20.7 10.8-44.4 22.5-60.6 35-32.5 23.2-40.2 52.7-38 60 .9 3 16.3 22.9 59.8-38.1 26.9-36.9 54.6-73.4 69.3-116.4 11.4-31 1.1-52.4-34.7-21-1.5 1.4-3.2 2.8-4.8 4.4" stroke="#010000"/>
  </g>
 </g>
</svg>
