<svg height="210mm" viewBox="0 0 1052.4 744.1" width="297mm" xmlns="http://www.w3.org/2000/svg">
 <g fill="none" stroke-linecap="round">
  <g transform="translate(0 -308.26772)">
   <path d="m57.6 742.2h948.8" stroke="#969696" stroke-width="1.875"/>
   <g stroke="#000" stroke-dasharray="3.75 7.5" stroke-miterlimit="2" stroke-width=".9375">
    <path d="m58.3 844.1h948.8"/>
    <path d="m58.3 641.8h948.8"/>
    <path d="m58.3 540.6h948.8"/>
   </g>
  </g>
  <g stroke="#000" stroke-linejoin="round" stroke-width="5.625">
   <path d="m348.4 429.9c4.7-.9 282-91.8 282-91.8l-55.9 92.8"/>
   <path d="m413.9 282.8c14.8 4.9 63-29.9 45.4-44.6-14.4-12.1-36.8-2.1-45.5 22.4-4.9 13.8-3.1 34.6-6.7 53.9-3.7 20-43.6 46.6-64.3 69.8-23.6 26.4-24.4 54 5.6 45.6"/>
   <path d="m574.6 430.9s63.1-30.3 79.9-31.1c16-.6 19.6 31.7 30.6 31.4 7.2-.2 14.4-8.2 18.8-13.6"/>
  </g>
 </g>
</svg>
