<svg height="210mm" viewBox="0 0 1052.4 744.1" width="297mm" xmlns="http://www.w3.org/2000/svg">
 <g fill="none" stroke-linecap="round">
  <g transform="translate(0 -308.26772)">
   <path d="m57.6 742.2h948.8" stroke="#969696" stroke-width="1.875"/>
   <g stroke="#000" stroke-dasharray="3.75 7.5" stroke-miterlimit="2" stroke-width=".9375">
    <path d="m58.3 844.1h948.8"/>
    <path d="m58.3 641.8h948.8"/>
    <path d="m58.3 540.6h948.8"/>
   </g>
  </g>
  <g stroke-linejoin="round" stroke-width="5.625">
   <path d="m417.9 311.5c3.8-5.2 11.2-13.9 18.3-17.8 21.4-11.9 48.2-5.5 27.6 20-27.4 33.8-44.3 49.8-38.3 63.4 5.4 12.3 32 2.7 46.5-12.2 1-1 21.1-29.1-1.7-34.2-22.7-5.1-48.7 6.5-50.6 20.9-3.7 28.6 43.7 19.7 71.2-2.4" stroke="#010000"/>
   <ellipse cx="51.650948" cy="557.24811" rx="25.728558" ry="20.371416" stroke="#000" transform="matrix(.79083574 -.61202846 .61202846 .79083574 0 0)"/>
   <path d="m417.9 311.5-55.1 88.5" stroke="#000"/>
   <path d="m586 284.6-55.8 97.2" stroke="#00000c"/>
   <path d="m586 284.6h-10.6" stroke="#00000a"/>
   <path d="m580.5 284.7-55.8 97.2" stroke="#00000c"/>
   <path d="m530.2 381.9h-10.6" stroke="#00000c"/>
   <g stroke="#000">
    <path d="m491 349.2 84.5-64.5-55.8 97.2 11-.1"/>
    <path d="m530.6 381.8c11-11.9 50.3-52.1 66-68.9s50.3-49.9 58.8-58.6c1.6-1.6 3.2-3 4.8-4.4 35.8-31.5 49-6.7 34.7 21-14.7 43-42.4 79.5-69.3 116.4-43.5 61-58.9 41.1-59.8 38.1-2.3-7.3.5-24.7 32.9-48 14.8-11.5 46-34.3 65.6-44.7"/>
   </g>
  </g>
 </g>
</svg>
