<svg height="210mm" viewBox="0 0 1052.4 744.1" width="297mm" xmlns="http://www.w3.org/2000/svg">
 <g fill="none" stroke-linecap="round">
  <g transform="translate(0 -308.26772)">
   <path d="m57.6 742.2h948.8" stroke="#969696" stroke-width="1.875"/>
   <g stroke="#000" stroke-dasharray="3.75 7.5" stroke-miterlimit="2" stroke-width=".9375">
    <path d="m58.3 844.1h948.8"/>
    <path d="m58.3 641.8h948.8"/>
    <path d="m58.3 540.6h948.8"/>
   </g>
  </g>
  <g stroke="#000" stroke-linejoin="round">
   <path d="m279.1 334.5c54.3-11 97.7-78.3 91.4-95-5.5-14.4-40.3 8.9-87.4 86.8-41.1 70.2-45.9 104.4-16.7 104.9 26.5.5 94.8-48 94.8-48l24 48" stroke-width="5.624999"/>
   <g stroke-width="5.625">
    <path d="m509.1 331c12.2-22 23.1-43.1 33.1-64.9 2.1-5.4 3.3-9.9 3.7-13.7.8-8.9-5.2-15.8-15.8-17-23.8-2.3-43.6 29.8-62.5 60.6-23.7 38.8-65.5 105.3-82.5 135.1"/>
    <path d="m499.3 534 77.7-149.8"/>
    <path d="m577 384.2 22.1 47.1"/>
   </g>
   <path d="m599.1 431.4s67.8-110.8 91.9-148.6c47.3-74.4 65-105.1 92.6-101.1 22.2 3.2 10.9 29.1-1.4 50.9l-59.2 102c-7.4 12.6-10.3 23.1-7.7 30.8 2.4 6.9 6.3 12.1 16.8 12.9 7.1.2 14-1.7 20.4-5.5 6.8-4 13.1-10.1 18.6-18" stroke-width="5.624999"/>
  </g>
 </g>
</svg>
