<svg height="210mm" viewBox="0 0 1052.4 744.1" width="297mm" xmlns="http://www.w3.org/2000/svg">
 <g fill="none" stroke-linecap="round">
  <g transform="translate(0 -308.26772)">
   <path d="m57.6 742.2h948.8" stroke="#969696" stroke-width="1.875"/>
   <g stroke="#000" stroke-dasharray="3.75 7.5" stroke-miterlimit="2" stroke-width=".9375">
    <path d="m58.3 844.1h948.8"/>
    <path d="m58.3 641.8h948.8"/>
    <path d="m58.3 540.6h948.8"/>
   </g>
  </g>
  <g stroke="#000">
   <g stroke-linejoin="round">
    <g stroke-width="5.625">
     <path d="m222.2 432.5c24.9-56.3 83.6-91.3 137-95.5 44.3-3.5 73 31.5 48.2 94.2"/>
     <path d="m407.5 431.3c58.5-5 242.9-23.6 304.4-26.4 13.2.3 16 27.3 31.7 26 4.4-.4 9.9-3.1 16.9-7.2"/>
     <path d="m690.8 406c7.5-1.3 19.5-1.5 27.4 15.7 5.6 12.2 16.7 8.7 23.3 9.2"/>
    </g>
    <path d="m711.3 407c0 .2 15.1 17.4 17.6 20.4" stroke-width="8.4375"/>
   </g>
   <path d="m881.2 234.1s-82.6 165-120.7 189.5" stroke-width="5.625"/>
  </g>
 </g>
</svg>
