<svg height="210mm" viewBox="0 0 1052.4 744.1" width="297mm" xmlns="http://www.w3.org/2000/svg">
 <g fill="none" stroke-linecap="round">
  <g transform="translate(0 -308.26772)">
   <path d="m57.6 742.2h948.8" stroke="#969696" stroke-width="1.875"/>
   <g stroke="#000" stroke-dasharray="3.75 7.5" stroke-miterlimit="2" stroke-width=".9375">
    <path d="m58.3 844.1h948.8"/>
    <path d="m58.3 641.8h948.8"/>
    <path d="m58.3 540.6h948.8"/>
   </g>
  </g>
  <g stroke="#000" stroke-width="5.625">
   <g stroke-linejoin="round">
    <path d="m421.1 359.1c24.3-33 69.8-34.2 37.2 20l-31.5 52.1 55.3-54.8"/>
    <path d="m482 376.5 40.5-40.8-39 72.4c-8.4 15.5 5 26 21.5 22.2"/>
    <path d="m505 430.2c22-4.5 35.4-27.2 62.6-28.2 14.7.1 12.8 29.5 32.9 29.4 5.5-.8 13.8-6.6 17.7-15.9"/>
   </g>
   <path d="m421.1 359.1c-4 3-108.1 173.8-108.1 173.8"/>
  </g>
 </g>
</svg>
