<svg height="210mm" viewBox="0 0 1052.4 744.1" width="297mm" xmlns="http://www.w3.org/2000/svg">
 <g fill="none" stroke-linecap="round">
  <g transform="translate(0 -308.26772)">
   <path d="m57.6 742.2h948.8" stroke="#969696" stroke-width="1.875"/>
   <g stroke="#000" stroke-dasharray="3.75 7.5" stroke-miterlimit="2" stroke-width=".9375">
    <path d="m58.3 844.1h948.8"/>
    <path d="m58.3 641.8h948.8"/>
    <path d="m58.3 540.6h948.8"/>
   </g>
  </g>
  <g stroke-linejoin="round">
   <path d="m471.8 389.7c24.9-10.6 61.1-8.4 74.8-8 15.5.4 27.8 9.9 9.9 32.1-27.4 33.8-122 152-101.9 163.9 25.4 15 69.5-71.3 74.6-80.8 0 0 14.9-33.1 7.3-41.2-12.8-13.7-38.3-1.1-40.8 9.8-1.3 7.7 3.8 13.2 8 14.7" stroke="#010000" stroke-width="5.625"/>
   <g stroke="#000">
    <ellipse cx="129.08022" cy="616.88013" rx="25.728558" ry="20.371416" stroke-width="5.625" transform="matrix(.79083574 -.61202846 .61202846 .79083574 0 0)"/>
    <path d="m461.6 398c-3 3.1-8.4 9.3-13.5 13.6-9.2 7.8-17.9 13.2-26.1 16.3-28.4 10.7-47.9-6.2-38.6-37.9" stroke-width="5.624959"/>
    <path d="m503.6 480.2c30.3 9.4 92-32.1 110.2-33 17.3-.7 23.4 33.6 35.3 33.3 7.8-.2 13.4-8.2 18.1-14" stroke-width="5.625"/>
   </g>
  </g>
 </g>
</svg>
