<svg height="210mm" viewBox="0 0 1052.4 744.1" width="297mm" xmlns="http://www.w3.org/2000/svg">
 <g fill="none" stroke-linecap="round">
  <g transform="translate(0 -308.26772)">
   <path d="m57.6 742.2h948.8" stroke="#969696" stroke-width="1.875"/>
   <g stroke="#000" stroke-dasharray="3.75 7.5" stroke-miterlimit="2" stroke-width=".9375">
    <path d="m58.3 844.1h948.8"/>
    <path d="m58.3 641.8h948.8"/>
    <path d="m58.3 540.6h948.8"/>
   </g>
  </g>
  <g stroke="#000" stroke-linejoin="round" stroke-width="5.625">
   <path d="m466.2 410.6 34.3-26.7 24 48"/>
   <path d="m455.2 337.2-42.5 71.3c-7.8 13 1.5 22.9 14.6 23 14.3 0 26.5-11.4 39-20.9"/>
   <path d="m524.5 431.8s44.1-60.2 53.8-72.6c12-15.3 23.3-23.6 35.4-23.7s18.2 9.7 8.6 30.8c-11 21.7-34.1 64.5-34.1 64.5"/>
  </g>
 </g>
</svg>
