<svg height="210mm" viewBox="0 0 1052.4 744.1" width="297mm" xmlns="http://www.w3.org/2000/svg">
 <g fill="none" stroke-linecap="round">
  <g transform="translate(0 -308.26772)">
   <path d="m57.6 742.2h948.8" stroke="#969696" stroke-width="1.875"/>
   <g stroke="#000" stroke-dasharray="3.75 7.5" stroke-miterlimit="2" stroke-width=".9375">
    <path d="m58.3 844.1h948.8"/>
    <path d="m58.3 641.8h948.8"/>
    <path d="m58.3 540.6h948.8"/>
   </g>
  </g>
  <g stroke-linejoin="round" stroke-width="5.625">
   <g stroke="#000">
    <path d="m677.1 415.2c26.1-15.5 45.3-30.9 62.4-30.6 21.6.3 32.3 1.9 33.2 47"/>
    <path d="m567 404.7c2.3-1.5 7.7-4.8 10.9-6.5 6.1-3.3 17-9.3 22.4-5.5 7.1 5.1 15 36.8 27.7 38.8 13.4 2.1 27.2-3.8 35.8-8.7l13.3-7.5"/>
    <path d="m587.4 393.3c10.7-5 16 6.5 20.9 24.4 3.2 11.7 10.6 14.8 22.8 14.3"/>
    <path d="m589.7 392.4c4.9-2.6 16.5-3.2 25.4 16.4 6.3 13.9 9.4 22.8 16 23.2"/>
    <path d="m601.1 395.4c9.3 13.2 7.4 33.2 22.1 34.2"/>
   </g>
   <path d="m567 404.7c-17.5 10.1-60.4 34.8-64.7 37.3-41.6 23.7-75.8 71.5-70.5 85 1.2 2.9 9.6 22.2 53.1-38.8 48.1-67.3 86.2-138.1 121.9-209.8 24.4-41.7.9-65.2-35.7-18.9" stroke="#070000"/>
   <g stroke="#000">
    <path d="m344.4 337.1c-47.4 13.6-86.2 107.4-43.1 95.1 13.1-4.3 28.9-14.1 55.2-46.7"/>
    <path d="m356.6 385.5c7.9-10.3 14.2-18.4 14.9-19.4 2.7-3.5 5.3-6.7 7.7-9.6 2-2.4 3.9-4.5 5.8-6.4 16.9-17.9 26.9-18.3 33.4-5.7 6.5 12.7 4 18.2 12.3 27.2 15.9 17.3 43.8-27.8 34.5-34.3-6.3-4.4-25.9 3.2-49.4 42-28.6 46.7-21.7 53.6-5.2 52.5 7.7-.4 21.5-6 35.7-13.1"/>
    <path d="m392.9 342.6c9.6-6.8 18 4.1 21.6 15.8 3.2 10.5 8.7 18 23.9 17.1"/>
    <path d="m404.8 338.8c13.6.7 15.1 28.3 22.1 30"/>
    <path d="m446.3 418.7c28.1-12.1 106.1-131 124.8-159.2"/>
   </g>
  </g>
 </g>
</svg>
