<svg height="210mm" viewBox="0 0 1052.4 744.1" width="297mm" xmlns="http://www.w3.org/2000/svg">
 <g fill="none" stroke-linecap="round">
  <g transform="translate(0 -308.26772)">
   <path d="m57.6 742.2h948.8" stroke="#969696" stroke-width="1.875"/>
   <g stroke="#000" stroke-dasharray="3.75 7.5" stroke-miterlimit="2" stroke-width=".9375">
    <path d="m58.3 844.1h948.8"/>
    <path d="m58.3 641.8h948.8"/>
    <path d="m58.3 540.6h948.8"/>
   </g>
  </g>
  <g stroke="#000" stroke-linejoin="round" stroke-width="5.625">
   <path d="m534.1 331c-11.1.3-14-12.1-1.3-42.9 0 0-39.9 45.9-43.3 49.2"/>
   <path d="m648.8 329.9c9.9-1.9 80.9-41.6 80.9-41.6l20.5 42.9"/>
   <path d="m308.7 431.3c2.3-3.1 79.8-112 81.9-114.7 2.7-3.5 5.3-6.7 7.7-9.6 2-2.4 3.9-4.5 5.8-6.4 16.9-17.9 26.9-18.3 33.4-5.7 6.5 12.7 4 18.2 12.3 27.2 15.9 17.3 43.8-27.8 34.5-34.3-6.3-4.4-25.9 3.2-49.4 42-35.3 57.8-16.5 60.5 7.9 46.6 3.2-1.8 6.4-3.9 9.7-6.1 5.7-3.7 21.4-16.4 37.1-33"/>
   <path d="m534.1 331c20.3.7 53.9-29.9 80.1-29.2 10.7.3 14.8 34.2 34.6 28.1"/>
   <path d="m602.2 303.3c6.7-1.2 11.4.6 19.3 17.8 5.6 12.2 13.9 9.5 20.5 9.9"/>
   <path d="m613.1 303.9c6.7 5.9 2.8.8 17.6 23.5"/>
  </g>
 </g>
</svg>
