<svg height="210mm" viewBox="0 0 1052.4 744.1" width="297mm" xmlns="http://www.w3.org/2000/svg">
 <g fill="none" stroke-linecap="round">
  <g transform="translate(0 -308.26772)">
   <path d="m57.6 742.2h948.8" stroke="#969696" stroke-width="1.875"/>
   <g stroke="#000" stroke-dasharray="3.75 7.5" stroke-miterlimit="2" stroke-width=".9375">
    <path d="m58.3 844.1h948.8"/>
    <path d="m58.3 641.8h948.8"/>
    <path d="m58.3 540.6h948.8"/>
   </g>
  </g>
  <g stroke="#000" stroke-linejoin="round" stroke-width="5.625">
   <path d="m564.4 434.3c-34.1 30.6-74.4 82.4-69 94.8 3.3 7.5 28.4 7.3 48.3-24.7 8.5-13.7 17.7-31 19.9-61.8 5-69.6 41.1-122.1 68-104.4 6.3 4.2-1.4 19.8-15.7 31.2-24 19.2-90.8 53.5-104.3 57.8"/>
   <path d="m525.3 336.4-43 74.1c-12.1 20.8 10.1 23.5 29.4 16.7"/>
  </g>
 </g>
</svg>
