<svg height="210mm" viewBox="0 0 1052.4 744.1" width="297mm" xmlns="http://www.w3.org/2000/svg">
 <g fill="none" stroke-linecap="round">
  <g transform="translate(0 -308.26772)">
   <path d="m57.6 742.2h948.8" stroke="#969696" stroke-width="1.875"/>
   <g stroke="#000" stroke-dasharray="3.75 7.5" stroke-miterlimit="2" stroke-width=".9375">
    <path d="m58.3 844.1h948.8"/>
    <path d="m58.3 641.8h948.8"/>
    <path d="m58.3 540.6h948.8"/>
   </g>
  </g>
  <g stroke="#000">
   <g stroke-linejoin="round" stroke-width="5.625">
    <path d="m298.6 431.1c50.4-65.5 115.5-58.4 97 .6"/>
    <path d="m395.6 431.7 80.3-48.2 33.3 47.9 14.9.2"/>
    <path d="m475.8 383.5 24 48"/>
    <path d="m485.3 383.5 23.8 47.9"/>
    <path d="m481.4 383.3 24 48"/>
   </g>
   <path d="m478.1 382.4h7.1" stroke-width="3.75"/>
   <path d="m501.5 432.4h7.1" stroke-width="3.75"/>
   <g stroke-linejoin="round">
    <g stroke-width="5.625">
     <path d="m534.2 417.4c.9.3 1.8.6 2.4 1.1.2.2.4.3.5.5 1 1.2 1.2 2.8 0 5.3-2.3 4.7-8.4 6.5-11.3 7.1-5.9 1-9.2-4.4-5.1-8.7 2.6-2.7 6.7-5.5 10.9-5.5h.9c.3 0 .7.1 1 .1.8.1 1.6.4 2.3.8"/>
     <path d="m601.4 392.7a19.4 24.5 38 0 1 -7.1 32.1 19.4 24.5 38 0 1 -29.5-.4 19.4 24.5 38 0 1 7.1-32.1 19.4 24.5 38 0 1 29.5.4z"/>
     <path d="m570.2 393.8c-15.2 16.3-28.8 39.9-46.1 37.8"/>
     <path d="m643.8 336.3-67.5 53.1"/>
     <path d="m643.8 336.3 21.1 42.6"/>
     <path d="m664.9 378.8 27.5-24.1"/>
    </g>
    <path d="m747.5 389.8-60.6 26.8c-4.9 2.2-7.7 5.2-8.3 6.2-1.9 3.1-1.1 8.1 3.9 8.6 3 .3 9.7-4.2 11-5 10.7-6.1 20.2-15.8 27.8-26.6 28.4-40.2 28.2-94.2-29-45" stroke-width="5.419139"/>
   </g>
  </g>
 </g>
</svg>
