<svg height="210mm" viewBox="0 0 1052.4 744.1" width="297mm" xmlns="http://www.w3.org/2000/svg">
 <g fill="none" stroke-linecap="round">
  <g transform="translate(0 -308.26772)">
   <path d="m57.6 742.2h948.8" stroke="#969696" stroke-width="1.875"/>
   <g stroke="#000" stroke-dasharray="3.75 7.5" stroke-miterlimit="2" stroke-width=".9375">
    <path d="m58.3 844.1h948.8"/>
    <path d="m58.3 641.8h948.8"/>
    <path d="m58.3 540.6h948.8"/>
   </g>
  </g>
  <g stroke="#000">
   <g stroke-linejoin="round">
    <ellipse cx="508.19324" cy="104.83742" rx="4.609393" ry="6.862874" stroke-width="5.625" transform="matrix(.72846687 .68508103 -.68508103 .72846687 0 0)"/>
    <path d="m296.1 430.6c3.6.8 7.2.7 10.9 0 20.5-3.7 42.7-42.3 94-44.2 2.1-.1 4.1-.1 6-.1 20.3.6 31.2 11.2 27.6 45.1" stroke-width="5.625"/>
    <path d="m419.6 392.7c10.2 6.6 10.7 26.4 10 38" stroke-width="6.5625"/>
    <path d="m407 386.4c16.4 3.3 19.2 32.7 18.3 45.3" stroke-width="4.6875"/>
   </g>
   <path d="m425.8 431.3 8.7.1" stroke-width="5.625"/>
   <g stroke-linejoin="round">
    <path d="m394.4 387.8c13.4-1.6 22 2.7 25.4 11.2" stroke-width="3.75"/>
    <path d="m434.5 431.4 99.8-95.3-55.8 95" stroke-width="5.62496"/>
    <g stroke-width="5.625">
     <path d="m595.6 335.4-53.9 95.9"/>
     <path d="m606.2 335.3-53.9 95.9"/>
     <path d="m606.2 335.3h-10.6"/>
     <path d="m600.6 335.4-53.9 95.9"/>
     <path d="m552.2 431.2h-10.6"/>
     <path d="m478.5 431.2 117.1-95.8"/>
    </g>
    <g stroke-width="5.624999">
     <path d="m815.3 335.9c-40 45.2-173.2 61.6-175.1-.3"/>
     <path d="m552.2 431.2 88-95.7"/>
    </g>
   </g>
  </g>
 </g>
</svg>
