<svg height="210mm" viewBox="0 0 1052.4 744.1" width="297mm" xmlns="http://www.w3.org/2000/svg">
 <g fill="none" stroke-linecap="round">
  <g transform="translate(0 -308.26772)">
   <path d="m57.6 742.2h948.8" stroke="#969696" stroke-width="1.875"/>
   <g stroke="#000" stroke-dasharray="3.75 7.5" stroke-miterlimit="2" stroke-width=".9375">
    <path d="m58.3 844.1h948.8"/>
    <path d="m58.3 641.8h948.8"/>
    <path d="m58.3 540.6h948.8"/>
   </g>
  </g>
  <g stroke-linejoin="round" stroke-width="5.625">
   <path d="m472.6 391.9c-15.5 4.6-49.1 39.8-64.5 39.7" stroke="#000"/>
   <path d="m412.1 419.5c.8.1 1.4.2 1.9.5.2.1.3.2.5.3.9.7 1.3 2 .8 4-1 3.9-5.4 6.1-7.5 6.9-4.3 1.6-7.6-2-5.1-5.9 1.6-2.4 4.2-5.1 7.4-5.7.2 0 .4-.1.7-.1s.5-.1.8-.1c.6 0 1.2.1 1.9.3" stroke="#000"/>
   <path d="m472.6 391.9c18.8-5.9 36.3 1.9 18.6 23.8-27.4 33.8-44.3 49.8-38.3 63.4 5.4 12.3 32 2.7 46.5-12.2 1-1 21.1-29.1-1.7-34.2-22.7-5.1-48.7 6.5-50.6 20.9-2.2 16.8 20.8 17.3 41.3 12.4" stroke="#010000"/>
   <path d="m488.4 466.1c21.4-4.3 41.9-23.1 66-24.2 24-.8 20.3 26.7 36.8 26.3 10.8-.3 15-6.4 21.5-13.6" stroke="#000"/>
  </g>
 </g>
</svg>
