<svg height="210mm" viewBox="0 0 1052.4 744.1" width="297mm" xmlns="http://www.w3.org/2000/svg">
 <g fill="none" stroke-linecap="round">
  <g transform="translate(0 -308.26772)">
   <path d="m57.6 742.2h948.8" stroke="#969696" stroke-width="1.875"/>
   <g stroke="#000" stroke-dasharray="3.75 7.5" stroke-miterlimit="2" stroke-width=".9375">
    <path d="m58.3 844.1h948.8"/>
    <path d="m58.3 641.8h948.8"/>
    <path d="m58.3 540.6h948.8"/>
   </g>
  </g>
  <g stroke-linejoin="round" stroke-width="5.625">
   <path d="m162.1 334.3c54.3-11 97-79.5 90.7-96.2-5.5-14.4-40.2 8.9-87.4 86.8-41.2 71.2-46.2 101.2-34.5 105.8 2.9 1.1 6.8.7 11.5-1 3.2-1.2 6.8-3 10.6-5.4 26.5-18.8 40.9-40.1 62.5-65.9 10-12 22.4-20.7 35.8-21.1 20.5-.6 25.9 40 46.4 39.9 18.2-.1 37.2-15.2 48.2-22.8 22.4-15.5 35-18.3 45.5-16.4 20.8 3.9 19.3 55.7 55 26" stroke="#000100"/>
   <g stroke="#000">
    <path d="m368.1 341.5c6.7-3.2 23.6-1.4 33.2 19.4 6.3 13.8 17.4 12 26.5 12.1"/>
    <path d="m386.9 340.5c8.1 4.9 7.8 1.8 25.5 27.9"/>
    <path d="m446.4 363.9c7.4-4.7 96.2-80.1 96.2-80.1s-71.5 132.9-83.3 151.7c-39.8 63.5-60.3 50.1-62 40.9-2.2-12.3 19.7-37.2 45.7-63.4 11.3-11.4 51.7-47.9 72.2-66.8 3.3-3.1 7.6-7.2 11.6-10.8l27.5-25.1c8-7.5 20.9-21.1 35.3-22.9 3.3-.4 6.3-.1 9 .9s5 2.6 6.5 4.7c3.6 5.1 3.1 13.4-5.1 23.2-24.2 29.2-44.9 43.4-37.7 58.8 2.6 5.5 8.9 7.8 16.2 7.3s16.5-3.7 24.3-9.5c7.9-5.9 17.6-15.6 24.1-24.1 19.2-24.8 35.5-52 53.6-51.9 24.5 0 23.3 33.8 47 34"/>
    <path d="m917.5 235.1s-76.8 39.6-93 49.5"/>
    <path d="m917.5 235.1 20.2 46"/>
    <path d="m824.6 284.6c-34.4 21.9-90.2 91.8-63 99 11.2 2.5 33.1-7.6 54.5-66.3 15.7-47.2 16.4-112.8 70.4-130.9"/>
    <path d="m864.4 198.4c-12.5 9.4-31.7 30.4-54 55.1-50.6 56-62.9 76.9-83.1 77.2"/>
   </g>
  </g>
 </g>
</svg>
