<svg height="210mm" viewBox="0 0 1052.4 744.1" width="297mm" xmlns="http://www.w3.org/2000/svg">
 <g fill="none" stroke-linecap="round">
  <g transform="translate(0 -308.26772)">
   <path d="m57.6 742.2h948.8" stroke="#969696" stroke-width="1.875"/>
   <g stroke="#000" stroke-dasharray="3.75 7.5" stroke-miterlimit="2" stroke-width=".9375">
    <path d="m58.3 844.1h948.8"/>
    <path d="m58.3 641.8h948.8"/>
    <path d="m58.3 540.6h948.8"/>
   </g>
  </g>
  <g stroke="#000003">
   <g stroke-linejoin="round">
    <path d="m338 430.9 12.9-4.6" stroke-width="5.625"/>
    <path d="m419 386.9-47.8 86.7" stroke-width="6.5625"/>
    <path d="m350.9 426.2 58.8-39.7-39 72.4c-8.4 15.5 5 26.1 21.5 22.2 2.8-.6 11.9-3.3 19.9-11.9" stroke-width="5.625"/>
    <path d="m414.3 386.9-44.7 81.9" stroke-width="6.5625"/>
   </g>
   <path d="m376.1 467.5c-1.6 4.1-2.6 6.5.8 11.9" stroke-width="3.75"/>
   <g stroke-linejoin="round">
    <path d="m419 386.9-9.3-.4" stroke-width="6.5625"/>
    <g stroke-width="5.625">
     <path d="m342.2 415.9c1 .1 1.8.3 2.5.7.2.1.4.2.6.4 1.2.9 1.7 2.6 1 5.2-1.3 5.1-7.1 8-9.8 9-5.7 2-9.8-2.6-6.6-7.6 2-3.1 5.5-6.6 9.7-7.5.3-.1.6-.1.9-.1s.7-.1 1-.1c.8 0 1.6.1 2.4.3"/>
     <ellipse cx="121.72263" cy="612.44385" rx="25.728558" ry="20.371416" transform="matrix(.79083574 -.61202846 .61202846 .79083574 0 0)"/>
     <path d="m617.4 323-153.7 67.5"/>
     <path d="m617.4 323c16.1-8 55.5-29.2 79.9-37.9 21-5.4 35 2.5 12.3 40.5l-31.2 52.3"/>
     <path d="m678.4 377.9 63.8-24.7"/>
     <path d="m719.7 291.4-49.2 86.2"/>
     <path d="m720 297.7-45.6 79.9"/>
     <path d="m670.5 377.6 7.9.3"/>
    </g>
   </g>
   <path d="m715.8 285.3c1.8 1.7 2.3 5.7.7 9.9" stroke-width="3.75"/>
   <path d="m448.7 406.5s-30.3 57.6-36.7 62.8" stroke-linejoin="round" stroke-width="5.625"/>
  </g>
 </g>
</svg>
