<svg height="210mm" viewBox="0 0 1052.4 744.1" width="297mm" xmlns="http://www.w3.org/2000/svg">
 <g fill="none" stroke-linecap="round">
  <g transform="translate(0 -308.26772)">
   <path d="m57.6 742.2h948.8" stroke="#969696" stroke-width="1.875"/>
   <g stroke="#000" stroke-dasharray="3.75 7.5" stroke-miterlimit="2" stroke-width=".9375">
    <path d="m58.3 844.1h948.8"/>
    <path d="m58.3 641.8h948.8"/>
    <path d="m58.3 540.6h948.8"/>
   </g>
  </g>
  <path d="m533.5 433.5c-9.5 4.7-35.6 19.9-50.1 34.5-25.9 26.2-39.9 50.7-36.9 58.4 1.1 2.9 17.7 21.8 57.3-41.8l88-150.7" stroke="#060000" stroke-linejoin="round" stroke-width="5.625"/>
  <g stroke="#000">
   <g stroke-width="5.625">
    <path d="m538.4 421.3c14.9-3.8 76.3-79.8 105.9-84.4 16.1-2.5 28.1 5.8 12.4 25.3-27.4 33.8-44.3 49.8-38.3 63.4 5.4 12.3 32 2.7 46.5-12.2 1-1 20.1-25.6-1.7-34.2-22-8.6-52.9 1.5-53.1 21.2-.1 10.3 6.6 14.4 17.6 15 8.9.5 22.3-1.7 32-4.6 12-3.6 78.5-34.6 78.5-34.6" stroke-linejoin="round"/>
    <path d="m658 338.9c14.5 10.1 4.3 27.8-12.4 44.2-14.4 14-23.4 26.4-29.5 38.7"/>
    <path d="m658 338.9c.8-1.1 3.9 6.1.7 14.2-3.2 8.4-12.8 17.8-18.3 22.9-10.8 10.1-30.6 29-24.3 45.7"/>
   </g>
   <g stroke-width="2.8125">
    <path d="m649.4 337.2c11.3 1.3 8.8 6.5 9.1 11"/>
    <path d="m621.2 414.5c-2.7 4.9-3.8 12 2.3 14.5"/>
    <path d="m613.5 415.9c-.1 5.7 2.9 11.5 4.9 13.1"/>
   </g>
  </g>
  <g stroke-linejoin="round" stroke-width="5.625">
   <path d="m540.5 410.2c.8.1 1.4.2 1.9.5.2.1.3.2.5.3.9.7 1.3 2 .8 4-1 3.9-5.4 6.1-7.5 6.9-4.3 1.6-7.6-2-5.1-5.9 1.6-2.4 4.2-5.1 7.4-5.7.2 0 .4-.1.7-.1s.5-.1.8-.1c.6 0 1.2.1 1.9.3" stroke="#000"/>
   <path d="m468.2 431.9 123.5-97.9" stroke="#00000c"/>
   <path d="m428.2 282.9c14.8 4.9 63-29.9 45.4-44.6-14.4-12.1-36.8-2.1-45.5 22.4-4.9 13.8-3.1 34.6-6.7 53.9-3.7 20-43.6 46.6-64.3 69.8-20.3 22.7-23.7 46.2-5.4 47.1" stroke="#000"/>
   <g stroke="#00000c">
    <path d="m351.7 431.5c35.7-.7 46.7-12.5 83.2-47.6l33.3 47.9"/>
    <path d="m434.9 384 24 48"/>
    <path d="m444.4 384 23.8 47.9"/>
    <path d="m440.4 383.9 24 48"/>
   </g>
  </g>
  <g stroke="#00000c" stroke-width="3.75">
   <path d="m437.1 382.9h7.1"/>
   <path d="m460.6 432.9h7.1"/>
  </g>
 </g>
</svg>
