<svg height="210mm" viewBox="0 0 1052.4 744.1" width="297mm" xmlns="http://www.w3.org/2000/svg">
 <g fill="none" stroke-linecap="round">
  <g transform="translate(0 -308.26772)">
   <path d="m57.6 742.2h948.8" stroke="#969696" stroke-width="1.875"/>
   <g stroke="#000" stroke-dasharray="3.75 7.5" stroke-miterlimit="2" stroke-width=".9375">
    <path d="m58.3 844.1h948.8"/>
    <path d="m58.3 641.8h948.8"/>
    <path d="m58.3 540.6h948.8"/>
   </g>
  </g>
  <g stroke="#000">
   <g stroke-linejoin="round" stroke-width="5.625">
    <path d="m217.5 384.3s79-42 84.7-45.5c13.3-8.1 42.2-26.6 36.9-44.4-2.8-7.3-34.7-8.6-58.5 30.7-26.3 43.1-17.7 60.3-4.2 58.6 7.8-.1 25.8-.9 87.9-47.4"/>
    <path d="m219.1 369.1c1 .1 1.9.3 2.6.7.2.1.5.3.7.4 1.3 1 1.7 2.7 1 5.4-1.4 5.3-7.4 8.4-10.3 9.4-5.9 2.1-10.3-2.7-6.9-8 2.1-3.3 5.8-6.9 10.1-7.8.3-.1.6-.1.9-.1.4 0 .7-.1 1.1-.1.8 0 1.7.1 2.5.3"/>
    <path d="m220.6 380.8c-51 49.7-106.4 65.5-132.8 86.1-32.5 23.2-40.2 52.7-38 60 .9 3 16.3 22.9 59.8-38.1 26.9-36.9 54.6-73.4 69.3-116.4 15.5-30.1-1.4-56.7-44.4-11.6"/>
    <path d="m364.3 336.3-42.4 73.1c-14.1 24.3 26.9 35.7 51.9 1.6l18.2-25.1"/>
    <path d="m392 385.8 39.7-48.1 31.4 47.9 35.8-49.4"/>
    <path d="m431.7 337.8 24 48"/>
    <path d="m439.3 337.8 23.8 47.9"/>
    <path d="m435.4 337.7 24 48"/>
   </g>
   <path d="m432.1 336.7h7.1" stroke-width="3.75"/>
   <path d="m455.5 386.7h7.1" stroke-width="3.75"/>
   <g stroke-linejoin="round" stroke-width="5.625">
    <path d="m524.7 384.2 80.3-49.6 24.9 49.7"/>
    <path d="m499 336.3c15.4-18.9 22.7-35.3 44.7-44.9 19.6-8.3 35 2.5 12.3 40.5l-31.2 52.3"/>
    <path d="m614.7 443.9c-34.9 27.8-66.5 73.3-60.4 87.5 5.7 13.2 69.5-28.4 95.8-138.9 17.5-80 53.4-142.9 90.7-155.8"/>
    <path d="m614.7 443.9c7.1-6.6 156.7-116 156.7-116"/>
    <path d="m771.5 327.9s168.5-114.3 215.5-142c61.7-36.1-40.4 168.7-98.9 194.1"/>
    <path d="m704.3 264.6c-14.6 10.9-74.5 119.7-74.5 119.7"/>
   </g>
  </g>
 </g>
</svg>
