<svg height="210mm" viewBox="0 0 1052.4 744.1" width="297mm" xmlns="http://www.w3.org/2000/svg">
 <g fill="none" stroke-linecap="round">
  <g transform="translate(0 -308.26772)">
   <path d="m57.6 742.2h948.8" stroke="#969696" stroke-width="1.875"/>
   <g stroke="#000" stroke-dasharray="3.75 7.5" stroke-miterlimit="2" stroke-width=".9375">
    <path d="m58.3 844.1h948.8"/>
    <path d="m58.3 641.8h948.8"/>
    <path d="m58.3 540.6h948.8"/>
   </g>
  </g>
  <g stroke="#000">
   <g stroke-width="5.625">
    <g stroke-linejoin="round">
     <path d="m249.6 355.8 13-11.2c21.7-18.7 54.4-6.9 34.6 16.8-28 33.4-47.2 52.6-39.4 63.9 4.4 6.4 13.1 7.1 22.5 4.1 5-1.6 15.4-7 20.2-10.4"/>
     <path d="m298.9 419.9s57.3-31.6 62.6-35.3c6.8-4.7 14.1-9.6 18.8-14.1 11.9-11.4 20.1-20.4 14.5-30.9-3.5-6.7-34.1-6.4-55 33-23.1 43.2-14 58.7-.7 58.8 17.6 1.1 53.3-28.8 76.5-56.7"/>
     <path d="m536.8 349.3c3-4.3 32.6-45.1 40.6-53.2 21.6-21.6 60.9-14.6 37.5 14.4-27.4 33.8-45.5 50.2-39.4 63.9 1.9 4.4 8.1 6.3 15.5 6"/>
    </g>
    <path d="m615.8 287.7c14.5 10.1 4.3 27.8-12.4 44.2-14.4 14-23.4 26.4-29.5 38.7"/>
    <path d="m615.8 287.7c.8-1.1 3.9 6.1.7 14.2-3.2 8.4-12.8 17.8-18.3 22.9-10.8 10.1-30.6 29-24.3 45.7"/>
   </g>
   <g stroke-width="2.8125">
    <path d="m605.9 285c11.3 1.3 10.1 7.5 10.4 11.9"/>
    <path d="m579 363.3c-2.7 4.9-3.8 12 2.3 14.5"/>
    <path d="m571.3 364.6c-.1 5.7 2.9 11.5 4.9 13.1"/>
   </g>
   <g stroke-width="5.625">
    <path d="m415.6 374.7c24.9-28.4 45.7-35.9 66.9-38.3 26.4-2.9 39.8 13 31.3 44.2l22.9-31.3" stroke-linejoin="round"/>
    <path d="m591 380.3c20.3-.7 63.7-43.4 83.5-44.1 22.6-.4 25 38.1 37.4 39 7.2-.2 14.5-7.3 18.9-12.7" stroke-linejoin="round"/>
    <path d="m821.1 185.3s-59.8 141.8-90.3 177.2"/>
    <path d="m869.7 187.2c-35.9 22.6-66.9 56.8-48.6-1.9" stroke-linejoin="round"/>
   </g>
  </g>
 </g>
</svg>
