<svg height="210mm" viewBox="0 0 1052.4 744.1" width="297mm" xmlns="http://www.w3.org/2000/svg">
 <g fill="none" stroke-linecap="round">
  <g transform="translate(0 -308.26772)">
   <path d="m57.6 742.2h948.8" stroke="#969696" stroke-width="1.875"/>
   <g stroke="#000" stroke-dasharray="3.75 7.5" stroke-miterlimit="2" stroke-width=".9375">
    <path d="m58.3 844.1h948.8"/>
    <path d="m58.3 641.8h948.8"/>
    <path d="m58.3 540.6h948.8"/>
   </g>
  </g>
  <g stroke="#000">
   <g stroke-linejoin="round">
    <path d="m710.6 335.9-42.7 79.6" stroke-width="6.562501"/>
    <path d="m705.6 336.2-39.8 75" stroke-width="6.562501"/>
    <path d="m710.7 335.5h-9.2" stroke-width="5.625001"/>
    <ellipse cx="812.73248" cy="-191.16933" rx="4.609393" ry="6.862875" stroke-width="5.625" transform="matrix(.72846687 .68508103 -.68508103 .72846687 0 0)"/>
    <path d="m701.4 335.6s-33.2 63.9-35.3 72c-10.7 35.9 41.6 23 58.1 14.8" stroke-width="5.625001"/>
   </g>
   <path d="m675.4 403.5c-7.1 11.3-7 28.4 10.6 27.5" stroke-width="4.6875"/>
   <path d="m667.9 411.3c-1.2 6 1 12 4.8 16.3" stroke-width="3.75"/>
   <path d="m401.8 355.3c7.9-7.4 17.1-17.5 31.2-19.2 3.2-.4 6.2-.1 8.8.9 2.7.9 4.9 2.5 6.4 4.6 3.6 5.1 3 13.2-5 22.8-6 7.3-11.8 13.6-17 19.3-5.3 5.7-11.2 12.1-17.3 19.5-8 9.7-8.6 17.8-5 22.8 1.5 2.1 3.7 3.7 6.4 4.6 2.6.9 5.6.9 8.8.8 4.6 0 13.9-1.8 22.3-4.1 33.2-9.5 259.9-91.8 259.9-91.8" stroke-linejoin="round" stroke-width="5.625"/>
  </g>
 </g>
</svg>
