<svg height="210mm" viewBox="0 0 1052.4 744.1" width="297mm" xmlns="http://www.w3.org/2000/svg">
 <g fill="none" stroke="#000" stroke-linecap="round" transform="translate(0 -308.26772)">
  <path d="m57.6 742.2h948.8" stroke-width="1.875"/>
  <g stroke-dasharray="3.75 7.5" stroke-miterlimit="2" stroke-width=".9375">
   <path d="m58.3 844.1h948.8"/>
   <path d="m58.3 641.8h948.8"/>
   <path d="m58.3 540.6h948.8"/>
  </g>
 </g>
 <g fill="none" stroke="#000" stroke-linecap="round" stroke-linejoin="round" stroke-width="5.625">
  <path d="m887.3 334.1c54.3-11 95.5-79.5 89.2-96.2-5.5-14.4-40.2 8.9-87.4 86.8-50.2 86.7-54.5 106.4-24.7 106.4 7 0 36.7 1 45.6-4.4"/>
  <path d="m895.9 412.5c1 .1 1.8.3 2.5.7.2.1.4.2.6.4 1.2.9 1.7 2.6 1 5.2-1.3 5.1-7.1 8-9.8 9-5.7 2-9.8-2.6-6.6-7.6 2-3.1 5.5-6.6 9.7-7.5.3-.1.6-.1.9-.1s.7-.1 1-.1c.8 0 1.6.1 2.4.3"/>
  <path d="m909.9 426.7c7.4-2 56-43.4 56-43.4l20 47.9"/>
  <path d="m215.3 408.8c2.6-1.4 5.2-2.8 7.8-4.1 71-36.4 106.5-30.8 88.1 26.4l68.2-23.3"/>
  <path d="m165.9 386c20 .4 41.3-6.3 60.1-24.8 6.5-6.4 9.6-14.4 7.3-21.8-2.8-7.4-35.3-8.8-59.6 31.3-26.8 43.9-18 61.5-4.3 59.7 15.5-.9 30.8-12.9 45.9-21.6"/>
  <path d="m97 385.7-23.6 45.3"/>
 </g>
 <path d="m478.4 322.4a11.6 11.6 0 0 1 -11.6 11.6 11.6 11.6 0 0 1 -11.6-11.6 11.6 11.6 0 0 1 11.6-11.7 11.6 11.6 0 0 1 11.7 11.6"/>
 <path d="m741.7 432.6 19.1-40.2-225.5 39" fill="none" stroke="#000" stroke-linecap="round" stroke-linejoin="round" stroke-width="5.625"/>
</svg>
