<svg height="210mm" viewBox="0 0 1052.4 744.1" width="297mm" xmlns="http://www.w3.org/2000/svg">
 <g fill="none" stroke-linecap="round">
  <g transform="translate(0 -308.26772)">
   <path d="m57.6 742.2h948.8" stroke="#969696" stroke-width="1.875"/>
   <g stroke="#000" stroke-dasharray="3.75 7.5" stroke-miterlimit="2" stroke-width=".9375">
    <path d="m58.3 844.1h948.8"/>
    <path d="m58.3 641.8h948.8"/>
    <path d="m58.3 540.6h948.8"/>
   </g>
  </g>
  <g stroke="#000" stroke-linejoin="round" stroke-width="5.625">
   <path d="m901.3 335c.7.1 1.2.2 1.7.4.2.1.3.2.4.3.8.6 1.1 1.8.7 3.5-.9 3.5-4.8 5.4-6.7 6.1-3.8 1.4-6.7-1.8-4.5-5.2 1.4-2.1 3.8-4.5 6.6-5.1.2 0 .4-.1.6-.1h.7c.5 0 1.1.1 1.7.2"/>
   <path d="m720.2 336.3-57.1 94.9 235.2-86.1"/>
   <path d="m656.3 398c30.2-27.5 64-61.8 64-61.8"/>
   <path d="m419.1 432.4c16.9-15.5 55.5-36.1 83.7-37.2 39.8-1.5 60.3 36.7 94.6 36.8 25-1 41.4-18.9 58.8-34"/>
   <path d="m905.9 489.2c19.7-19.2 42.7-49.4 42.3-75-5.9-42.7-30-48.6-53.8-68.2"/>
   <path d="m113.9 431.6c15.4-42.9 57.9-83.7 109.7-93.5 52-9.9 75.5 19.7 53 92.3"/>
   <path d="m276.7 430.8 195.9-93.2"/>
   <ellipse cx="158.00769" cy="575.45105" rx="25.728558" ry="20.371416" transform="matrix(.79083574 -.61202846 .61202846 .79083574 0 0)"/>
  </g>
 </g>
</svg>
