<svg height="210mm" viewBox="0 0 1052.4 744.1" width="297mm" xmlns="http://www.w3.org/2000/svg">
 <g fill="none" stroke-linecap="round">
  <g transform="translate(0 -308.26772)">
   <path d="m57.6 742.2h948.8" stroke="#969696" stroke-width="1.875"/>
   <g stroke="#000" stroke-dasharray="3.75 7.5" stroke-miterlimit="2" stroke-width=".9375">
    <path d="m58.3 844.1h948.8"/>
    <path d="m58.3 641.8h948.8"/>
    <path d="m58.3 540.6h948.8"/>
   </g>
  </g>
  <g stroke="#000" stroke-linejoin="round" stroke-width="5.625">
   <path d="m427.4 333.6-55.8 97.2"/>
   <path d="m427.4 333.6h-10.6"/>
   <path d="m421.8 333.7-55.8 97.2"/>
   <path d="m371.6 430.9h-10.6"/>
   <path d="m342.3 403.1 74.6-69.5-55.8 97.2 11-.1 66.5-48.5"/>
   <path d="m230.7 430.5s17.5-30.6 42.1-27.8c22.9 2.6 20.3 44 46.5 20.8l23-20.4"/>
   <path d="m616.1 431.5c5.8-3.7 12.8-11.7 7.1-19-2.8-3.6-4.4-5-13-4.9l-154.6.6c-7.4 0-15.4-.2-17.4-.8-9.6-2.9-8.5-13.1.2-25.1"/>
   <path d="m641.4 431.2 6.5.1c6.1-.1 8.1-1.4 11.9-4.2l53.7-42.4 21 46.7"/>
   <path d="m734.5 431.4 45.4-46.9"/>
   <path d="m648 419.5c.7.1 1.4.2 1.9.5.2.1.3.2.5.3.9.7 1.2 1.9.7 3.8-1 3.8-5.2 5.9-7.2 6.7-4.2 1.5-7.3-1.9-4.9-5.6 1.5-2.3 4.1-4.9 7.1-5.5.2 0 .4-.1.6-.1h.8c.6 0 1.2.1 1.8.2"/>
   <path d="m616.1 431.5 25.3-.1"/>
  </g>
 </g>
</svg>
