<svg height="210mm" viewBox="0 0 1052.4 744.1" width="297mm" xmlns="http://www.w3.org/2000/svg">
 <g fill="none" stroke-linecap="round">
  <g transform="translate(0 -308.26772)">
   <path d="m57.6 742.2h948.8" stroke="#969696" stroke-width="1.875"/>
   <g stroke="#000" stroke-dasharray="3.75 7.5" stroke-miterlimit="2" stroke-width=".9375">
    <path d="m58.3 844.1h948.8"/>
    <path d="m58.3 641.8h948.8"/>
    <path d="m58.3 540.6h948.8"/>
   </g>
  </g>
  <g stroke="#000" stroke-linejoin="round" stroke-width="5.625">
   <path d="m240.3 430.5c8.3.7 235.2-47.7 235.2-47.7l29.6 47.9"/>
   <path d="m590.9 360.7c-27.4 33.8-47.1 52.6-39.4 63.9 2.2 3.2 5.5 4.9 9.4 5.5 6.6.7 29.5 2.2 40.1-3.2"/>
   <path d="m553.5 346.3c23.7-19.2 60.9-14.6 37.5 14.4"/>
   <path d="m553.5 346.3c-21.7 15-47.2 82.8-48.4 84.3"/>
   <path d="m266.6 333.7c54.3-11 95.5-79.5 89.2-96.2-5.5-14.4-40.3 8.9-87.4 86.8-47.5 82-46.9 109.4-28 106.1"/>
   <path d="m778.1 378.2c3.3.3 6.1 1 8.4 2.2.8.4 1.5.8 2.1 1.3 4.1 3.2 5.6 8.6 3.3 17.3-4.5 16.9-23.6 26.6-32.7 30.1-18.8 6.8-32.8-8.7-22-25.4 6.7-10.4 18.4-22 32.2-24.9.9-.2 1.9-.3 2.8-.5 1.1-.1 2.3-.2 3.5-.2 2.7 0 5.4.3 8.1 1.1"/>
   <path d="m765.7 379.8-164.8 47"/>
   <path d="m597 412.6c.9.1 1.7.3 2.4.6.2.1.4.2.6.4 1.2.9 1.6 2.4.9 4.9-1.3 4.8-6.7 7.5-9.2 8.5-5.3 1.9-9.3-2.5-6.2-7.2 1.9-3 5.2-6.2 9.1-7 .3-.1.5-.1.8-.1s.7-.1 1-.1c.8 0 1.5.1 2.3.3"/>
  </g>
 </g>
</svg>
