<svg height="210mm" viewBox="0 0 1052.4 744.1" width="297mm" xmlns="http://www.w3.org/2000/svg">
 <g fill="none" stroke-linecap="round">
  <g transform="translate(0 -308.26772)">
   <path d="m57.6 742.2h948.8" stroke="#969696" stroke-width="1.875"/>
   <g stroke="#000" stroke-dasharray="3.75 7.5" stroke-miterlimit="2" stroke-width=".9375">
    <path d="m58.3 844.1h948.8"/>
    <path d="m58.3 641.8h948.8"/>
    <path d="m58.3 540.6h948.8"/>
   </g>
  </g>
  <g stroke="#000" stroke-linejoin="round">
   <path d="m600 335.4 20.5 45.7" stroke-width="5.625"/>
   <g stroke-width="5.624999">
    <path d="m725.4 285.8-46.6 95.4"/>
    <path d="m725.4 285.8h-8.2"/>
    <path d="m721.5 286.7-45.7 93.9"/>
    <path d="m678.8 381.2h-8.2"/>
    <path d="m717.1 285.9-46.6 95.4"/>
   </g>
   <g stroke-width="5.625">
    <path d="m620.4 381.2 96.7-95.3"/>
    <path d="m600 335.4s-283.1 80.3-294.2 91c-2.1 2-1 6.1 2.9 4.9"/>
    <path d="m678.8 381.2c25-11.8 67.7-31.5 85.3-32.4 16.8-.7 22.7 32.6 34.2 32.2 7.5-.2 13.1-6.2 18.3-10.8"/>
    <path d="m308.7 431.3c43.9-15.9 71.5-94.8 46.6-94.9-13.3-.1-26.4 10.1-46.4 33.1-4.3 5-13.7 16.2-21.6 25.4-20.5 23.9-40 34.8-55.4 36.1-20.9 1.7-33.3-14.5-25.5-41"/>
   </g>
  </g>
 </g>
</svg>
