<svg height="210mm" viewBox="0 0 1052.4 744.1" width="297mm" xmlns="http://www.w3.org/2000/svg">
 <g fill="none" stroke-linecap="round">
  <g transform="translate(0 -308.26772)">
   <path d="m57.6 742.2h948.8" stroke="#969696" stroke-width="1.875"/>
   <g stroke="#000" stroke-dasharray="3.75 7.5" stroke-miterlimit="2" stroke-width=".9375">
    <path d="m58.3 844.1h948.8"/>
    <path d="m58.3 641.8h948.8"/>
    <path d="m58.3 540.6h948.8"/>
   </g>
  </g>
  <g stroke="#000">
   <path d="m452.9 334.7c54.3-11 95.5-79.5 89.2-96.2-5.5-14.4-40.2 8.9-87.4 86.8-41.2 71.2-46.2 101.2-34.5 105.8 2.9 1.1 6.9.8 11.5-1 17.6-7.2 92.2-76.1 96-78.5" stroke-linejoin="round" stroke-width="5.625"/>
   <ellipse cx="312.13382" cy="602.87952" rx="62.130169" ry="44.633743" stroke-linejoin="round" stroke-width="5.625" transform="matrix(.88109295 -.47294313 .47294313 .88109295 0 0)"/>
   <path d="m616.9 361.6c-13.8 27.9-38.1 52.4-66.8 70.7" stroke-width="5.385754"/>
   <path d="m618 370.6c-15.9 21.3-33.1 41.5-54 58.5" stroke-width="5.385754"/>
   <path d="m617.1 377.1c-14.3 21.6-19.7 29.6-41.7 46.5" stroke-width="7.181006"/>
   <path d="m565.7 420.2c-10.1 9.6-24.3 12.2-31.1 10.7" stroke-width="3.590503"/>
   <path d="m608.8 347.7c2.2 2.5 8.7 12.2 1.3 24.5" stroke-width="3.590503"/>
   <path d="m652.7 133.8-143.3 234.9" stroke-width="5.625"/>
  </g>
 </g>
</svg>
