<svg height="210mm" viewBox="0 0 1052.4 744.1" width="297mm" xmlns="http://www.w3.org/2000/svg">
 <g fill="none" stroke-linecap="round">
  <g transform="translate(0 -308.26772)">
   <path d="m57.6 742.2h948.8" stroke="#969696" stroke-width="1.875"/>
   <g stroke="#000" stroke-dasharray="3.75 7.5" stroke-miterlimit="2" stroke-width=".9375">
    <path d="m58.3 844.1h948.8"/>
    <path d="m58.3 641.8h948.8"/>
    <path d="m58.3 540.6h948.8"/>
   </g>
  </g>
  <g stroke="#000">
   <g stroke-linejoin="round">
    <path d="m489.3 380.3 101.5-138c11.2-10 20.1-9.6 25.5-8.3 19.1 4.5 11.2 19.6-4.7 41-15 20.3-24.5 36.8-43.1 61.9-26.3 35.4-55 68-47.8 86.2 9.6 18.5 32.3 6.5 53-11.7" stroke-width="5.625"/>
    <path d="m626.4 256.1c-.8 5.4-.7 9.8-5.7 20l-93.8 134.9-1.8 13.5" stroke-width="5.625"/>
    <path d="m621.5 266.4-67.9 98.8-28.6 41.8-2.2 10.7" stroke-width="8.4375"/>
    <path d="m537.6 397.2c-5.1 7.7-10 15.6-10 22.5 0 3.1 0 6.1 2.7 8.3 1.9 1.5 3.7 4.1 9.9 2.9" stroke-width="3.75"/>
    <path d="m627.2 239.7c2.8 5.2 2.1 16.5-1 26.4-1.6 5.1-4.3 10.5-8.7 16.2" stroke-width="3.75"/>
    <path d="m409.5 354.2c7.3-7.9 3.2-3.2 4.6-4.6 21.4-21.6 65.6-17.1 41.3 12.9-27.4 33.8-51.5 52.6-39.4 63.9 12.9 16.1 43.1-7.8 73.3-46" stroke-width="5.625"/>
   </g>
   <g stroke-width="5.625">
    <path d="m663.6 327.8 42.4-30.5"/>
    <path d="m618.3 330.5h37.1"/>
    <path d="m663 319.7c.7.1 1.3.2 1.8.5.2.1.3.2.4.3.9.7 1.2 1.8.7 3.6-.9 3.5-4.9 5.6-6.8 6.3-3.9 1.4-6.9-1.8-4.6-5.3 1.4-2.2 3.8-4.6 6.7-5.2.2-.1.4-.1.6-.1s.5-.1.7-.1c.6 0 1.1.1 1.7.2" stroke-linejoin="round"/>
   </g>
  </g>
 </g>
</svg>
