<svg height="210mm" viewBox="0 0 1052.4 744.1" width="297mm" xmlns="http://www.w3.org/2000/svg">
 <g fill="none" stroke-linecap="round">
  <g transform="translate(0 -308.26772)">
   <path d="m57.6 742.2h948.8" stroke="#969696" stroke-width="1.875"/>
   <g stroke="#000" stroke-dasharray="3.75 7.5" stroke-miterlimit="2" stroke-width=".9375">
    <path d="m58.3 844.1h948.8"/>
    <path d="m58.3 641.8h948.8"/>
    <path d="m58.3 540.6h948.8"/>
   </g>
  </g>
  <g stroke="#000">
   <g stroke-linejoin="round">
    <path d="m550.6 336.4c-39.4 1.8-90.5 95-49.3 94.9 14.3-1 23.5-9.1 31.1-16.3 14.7-15 22-25.5 36.2-42.3 13.2-15.7 27-35.8 46.7-36.5 10.5-.2 17.2 7.3 7.8 29.8-1.7 4-3.5 8.7-6.3 13.7l-28.9 51.8" stroke-width="5.625"/>
    <path d="m442 336.4s-31.6 58.9-37.3 73.4c-5.8 14.7.3 21.7 12.2 21.4 8.3 0 16.2-3 24.6-8.6 7.8-5.2 17.4-13.5 28-23.8 11.5-11.1 33.7-32.3 52.7-48.5" stroke-width="5.624999"/>
    <path d="m587.8 431.6c12.5-6.4 32.2-16 44.8-12.3" stroke-width="5.625"/>
    <path d="m636.2 425.2a5.9 5.9 0 0 1 -5.9 5.9 5.9 5.9 0 0 1 -5.9-5.9 5.9 5.9 0 0 1 5.9-5.9 5.9 5.9 0 0 1 5.9 5.8h-5.9z" stroke-width="6.571438"/>
   </g>
   <path d="m442 336.4s-113.8 153.2-122 164.4c-6.4 8.8-8.2 18.4-4.1 25 1.8 3 4.9 5.3 9.2 6.7 2.9.9 5.8 1.2 8.7 1 4.5-.3 8.7-1.9 13-5.2 3.1-2.4 6.2-5.7 9.4-10" stroke-width="5.624998"/>
  </g>
 </g>
</svg>
