<svg height="210mm" viewBox="0 0 1052.4 744.1" width="297mm" xmlns="http://www.w3.org/2000/svg">
 <g fill="none" stroke-linecap="round">
  <g transform="translate(0 -308.26772)">
   <path d="m57.6 742.2h948.8" stroke="#969696" stroke-width="1.875"/>
   <g stroke="#000" stroke-dasharray="3.75 7.5" stroke-miterlimit="2" stroke-width=".9375">
    <path d="m58.3 844.1h948.8"/>
    <path d="m58.3 641.8h948.8"/>
    <path d="m58.3 540.6h948.8"/>
   </g>
  </g>
  <g stroke="#000" stroke-linejoin="round" stroke-width="5.625">
   <path d="m344.5 336.1-39.4 73.1c-8.4 15.5 4.6 23.5 21.5 22.2"/>
   <path d="m348.9 482.4c16.8-.5 33-21.3 35-47.2 2.1-26.8 47.2-53.9 36.3-48.7 0 0-76.1 44.9-93.6 44.9"/>
   <path d="m403.6 401.6c-18.7 24.9-13 28.9-16.8 41.1-3.5 11.7-12.1 25.9-24.2 34.7"/>
   <path d="m400.8 404.7c-7.6 7.8-16.9 18.3-21 32.6-4.1 14.4-5.5 33.4-22.5 43.1"/>
   <path d="m368.8 459.4c.7.2 1.4.5 1.9.9.2.1.3.3.4.4.8.9.9 2.2 0 4.2-1.8 3.7-6.6 5.2-8.9 5.6-4.7.8-7.2-3.5-4-6.9 2-2.1 5.2-4.3 8.6-4.4h.7c.3 0 .5.1.8.1.6.1 1.2.3 1.8.6"/>
   <path d="m364.2 470.9c20.6 3.2 337.6-183.5 337.6-183.5"/>
   <path d="m700 431.4c28.5-22.6 35.5-31.4 39-55.7 1.8-12.5-2.6-28-12.8-37.6-5-4.7-11-8.4-17-11.7-14.1-8.7-24.3-25.3-7.4-38.9"/>
  </g>
 </g>
</svg>
