<svg height="210mm" viewBox="0 0 1052.4 744.1" width="297mm" xmlns="http://www.w3.org/2000/svg">
 <g fill="none" stroke-linecap="round">
  <g transform="translate(0 -308.26772)">
   <path d="m57.6 742.2h948.8" stroke="#969696" stroke-width="1.875"/>
   <g stroke="#000" stroke-dasharray="3.75 7.5" stroke-miterlimit="2" stroke-width=".9375">
    <path d="m58.3 844.1h948.8"/>
    <path d="m58.3 641.8h948.8"/>
    <path d="m58.3 540.6h948.8"/>
   </g>
  </g>
  <g stroke="#000" stroke-linejoin="round" stroke-width="5.625">
   <path d="m375.6 432.5c-24 14-32.3 21.6-48.3 36.6-23.9 22.4-34.4 52.8-31.8 59.7 1.1 2.9 17.7 21.8 57.3-41.8l89.2-152.4"/>
   <path d="m375.6 432.5c74.2-41.8 256.5-145.8 276-157.7"/>
   <path d="m651.6 274.8c16.1-8 55.5-29.2 79.9-37.9 21-5.4 35 2.5 12.3 40.5l-31.2 52.3"/>
  </g>
 </g>
</svg>
