<svg height="210mm" viewBox="0 0 1052.4 744.1" width="297mm" xmlns="http://www.w3.org/2000/svg">
 <g fill="none" stroke-linecap="round">
  <g transform="translate(0 -308.26772)">
   <path d="m57.6 742.2h948.8" stroke="#969696" stroke-width="1.875"/>
   <g stroke="#000" stroke-dasharray="3.75 7.5" stroke-miterlimit="2" stroke-width=".9375">
    <path d="m58.3 844.1h948.8"/>
    <path d="m58.3 641.8h948.8"/>
    <path d="m58.3 540.6h948.8"/>
   </g>
  </g>
  <g stroke-linejoin="round">
   <g stroke-width="5.625">
    <g stroke="#000">
     <path d="m504 385.2s-67.1 56.8-71.3 60.1c-45.9 36.5-57.8 72.9-54.6 86.4 1.4 5.9 34.7 12.4 62.3-63.4 15.7-47.2 25.8-112.5 71.5-132.1"/>
     <path d="m623.5 431.4c5.4-3.3 11.7-10.5 6.5-17.1-2.6-3.3-4-4.5-11.9-4.4l-98.8.6c-6.7.1-14.3.2-15.9-.7-10.5-5.8-7.4-13.7.5-24.6"/>
     <path d="m631.4 422.6c9.3-15.7 110.9-86.8 110.9-86.8"/>
    </g>
    <path d="m686.2 429.6c-52.7 10.7-94.9 86.5-90.3 98.5 1.1 2.9 17.7 21.8 57.3-41.8l89.2-150.5" stroke="#060000"/>
   </g>
   <g stroke="#000">
    <path d="m413.8 336-47.8 86.7" stroke-width="6.5625"/>
    <path d="m302.9 430.9 101.6-95.3-39 72.4c-8.4 15.5 5 26.1 21.5 22.2 34.7-7.8 78.8-62.8 105.1-81" stroke-width="5.625"/>
    <path d="m409.1 336-44.7 81.9" stroke-width="6.5625"/>
   </g>
  </g>
  <g stroke="#000">
   <path d="m370.9 416.5c-1.6 4.2-2.6 6.5.8 11.9" stroke-width="3.75"/>
   <path d="m413.8 336-9.3-.4" stroke-linejoin="round" stroke-width="6.5625"/>
  </g>
 </g>
</svg>
