<svg height="210mm" viewBox="0 0 1052.4 744.1" width="297mm" xmlns="http://www.w3.org/2000/svg">
 <g fill="none" stroke-linecap="round">
  <g transform="translate(0 -308.26772)">
   <path d="m57.6 742.2h948.8" stroke="#969696" stroke-width="1.875"/>
   <g stroke="#000" stroke-dasharray="3.75 7.5" stroke-miterlimit="2" stroke-width=".9375">
    <path d="m58.3 844.1h948.8"/>
    <path d="m58.3 641.8h948.8"/>
    <path d="m58.3 540.6h948.8"/>
   </g>
  </g>
  <g stroke="#000" stroke-linejoin="round">
   <path d="m230.7 333.6c54.3-11 97.7-78.3 91.4-95-5.5-14.4-40.3 8.9-87.4 86.8-41.1 70.2-45.9 106.7-16.7 105.7 33.6-1.3 123.1-45.2 181.8-73.3s120.3-56.9 144.4-67.9c6.9-3.1 14.8-5.7 21.4-6.4 8.8-.6 14.6 0 18.6 4.5 2.5 2.8 3.8 7.2 2.6 13.4-1.2 6.1-4.9 13.9-10.8 24.5l-29.4 52.3" stroke-width="5.624999"/>
   <g stroke-width="5.625">
    <ellipse cx="649.47339" cy="-109.39136" rx="4.609393" ry="6.862875" transform="matrix(.72846687 .68508103 -.68508103 .72846687 0 0)"/>
    <path d="m547 371.1c23.4 3.4 68.7-55.3 96.2-93.1 15.6-21.4 34.7-40.9 55.6-42.3 9.1-.1 16.6 3.1 22.8 8.3 9.7 8.1 16.5 21.1 22.2 34.7 10.5 24.8 17.6 51.3 33 51.8 13.5.3 21.3-7.1 30.3-16.4"/>
   </g>
  </g>
 </g>
</svg>
