<svg height="210mm" viewBox="0 0 1052.4 744.1" width="297mm" xmlns="http://www.w3.org/2000/svg">
 <g stroke-linecap="round">
  <g fill="none" transform="translate(0 -308.26772)">
   <path d="m57.6 742.2h948.8" stroke="#969696" stroke-width="1.875"/>
   <g stroke="#000" stroke-dasharray="3.75 7.5" stroke-miterlimit="2" stroke-width=".9375">
    <path d="m58.3 844.1h948.8"/>
    <path d="m58.3 641.8h948.8"/>
    <path d="m58.3 540.6h948.8"/>
   </g>
  </g>
  <g stroke-linejoin="round">
   <g fill="none" stroke-width="5.625">
    <path d="m374.9 341.6c34.4-15.4 61.4.7 48.7 41.3-.4 1.2 54.1 0 54.1 0" stroke="#000"/>
    <path d="m477.6 382.9c50.4-65.5 115.5-58.4 97 .6-.4 1.2 41.7 0 41.7 0" stroke="#000"/>
    <path d="m607.1 383.9c1 .1 1.8.3 2.5.7.2.1.4.2.6.4 1.2.9 1.7 2.6 1 5.2-1.3 5.1-7.1 8-9.8 9-5.7 2-9.8-2.6-6.6-7.6 2-3.1 5.5-6.6 9.7-7.5.3-.1.6-.1.9-.1s.7-.1 1-.1c.8 0 1.6.1 2.4.3" stroke="#030002"/>
   </g>
   <g fill="#eb0000" fill-rule="evenodd" stroke="#000" transform="matrix(1.7715894 0 0 1.7715894 -829.7731 30.264651)">
    <path d="m732.1 185.5c.8.1 1.4.2 1.9.5.2.1.3.2.5.3.9.7 1.3 2 .8 4-1 3.9-5.4 6.1-7.5 6.9-4.3 1.6-7.6-2-5.1-5.9 1.6-2.4 4.2-5.1 7.4-5.7.2 0 .4-.1.7-.1h.8c.6 0 1.2.1 1.9.3" stroke-width="5.625"/>
    <path d="m729.3 188.3c.3 0 .6.1.9.2.1 0 .2.1.2.1.4.3.6.9.4 1.8-.4 1.7-2.4 2.8-3.3 3.1-1.9.7-3.4-.9-2.3-2.6.7-1.1 1.9-2.3 3.3-2.6h.3.4c.3 0 .6 0 .8.1" stroke-width="4.981044"/>
   </g>
   <g fill="none" stroke-width="5.625">
    <path d="m904 337.1c-41.9 53.3-176.2 74.7-175.1-.3l-99 95.1" stroke="#000"/>
    <path d="m685.7 334.7-55.8 97.2" stroke="#00000c"/>
    <path d="m685.7 334.7h-10.6" stroke="#00000a"/>
    <path d="m680.2 334.7-55.8 97.2" stroke="#00000c"/>
    <path d="m629.9 431.9h-10.6" stroke="#00000c"/>
    <path d="m616.4 383.6 58.7-48.9-55.8 97.2 11-.1" stroke="#000"/>
    <path d="m187 345c17.2-18.9 56.9-11.1 34.4 16.7-27.4 33.8-45.5 50.2-39.4 63.9 3 6.8 15.8 7.4 26.1 3.1 22.6-9.5 81.5-94.5 101.8-120.1" stroke="#000"/>
    <path d="m374.9 341.6c-12.5 7.9-85.3 52.5-111.6 73.1-32.5 23.2-40.2 52.7-38 60 .9 3 16.3 22.9 59.8-38.1 26.9-36.9 54.6-73.4 69.3-116.4 15.5-30.1-1.4-56.7-44.4-11.6" stroke="#060000"/>
   </g>
  </g>
 </g>
</svg>
