<svg height="210mm" viewBox="0 0 1052.4 744.1" width="297mm" xmlns="http://www.w3.org/2000/svg">
 <g fill="none" stroke-linecap="round">
  <g transform="translate(0 -308.26772)">
   <path d="m57.6 742.2h948.8" stroke="#969696" stroke-width="1.875"/>
   <g stroke="#000" stroke-dasharray="3.75 7.5" stroke-miterlimit="2" stroke-width=".9375">
    <path d="m58.3 844.1h948.8"/>
    <path d="m58.3 641.8h948.8"/>
    <path d="m58.3 540.6h948.8"/>
   </g>
  </g>
  <g stroke="#000" stroke-linejoin="round" stroke-width="5.625">
   <ellipse cx="509.77011" cy="94.241676" rx="4.609393" ry="6.862875" transform="matrix(.72846687 .68508103 -.68508103 .72846687 0 0)"/>
   <path d="m297.7 335.6s-34.3 61.7-37.7 71.8c-4.7 13.8 4.6 21 12.7 22.7 11.4 2.2 21.7 1.5 35.2-7.3"/>
   <path d="m304 424.2c7.9 6.7 16.2-5.5 29.9-19.4 3.5-3.6 8.1-7.3 10.6-9.1 5.1-3.7 11-6.6 18.1-7.5 3.3-.4 6.4-.1 9 .9 2.8 1 5 2.6 6.6 4.7 3.7 5.2 3.1 13.5-5.1 23.4-24.4 29.4-45.3 43.7-38 59.3 2.6 5.6 8.9 7.4 16.3 7.4 28.2.1 60.9-30.8 81.8-30.9 16-.6 18.8 30.7 32.6 30.7 23.3 0 109.9-71 146.6-112.3 13.3-16.1 17.1-27.8 7-33.1-13.9-4.7-29.6 14.4-39 33.4-18.5 37.3-16.6 58.5.8 59.4 18.9 1 92.8-34.4 160.2-95.2 22.8-24.6 31.2-46.3 20.2-50.8-14.3-5.8-42.6 12.2-89.8 90.1-46 79.4-41.3 105.8-22.8 105.6 21.4-.2 49.4-28.8 67-53.7s53.4-77.9 92.5-142.9"/>
  </g>
 </g>
</svg>
