<svg height="210mm" viewBox="0 0 1052.4 744.1" width="297mm" xmlns="http://www.w3.org/2000/svg">
 <g fill="none" stroke-linecap="round">
  <g stroke="#000" transform="translate(0 -308.26772)">
   <path d="m57.6 742.2h948.8" stroke-width="1.875"/>
   <g stroke-dasharray="3.75 7.5" stroke-miterlimit="2" stroke-width=".9375">
    <path d="m58.3 844.1h948.8"/>
    <path d="m58.3 641.8h948.8"/>
    <path d="m58.3 540.6h948.8"/>
   </g>
  </g>
  <path d="m480.4 260.5c26.8-42.7 69.5-29.1 41.4 18.5l-90 152.7 52.7-19.8" stroke="#070000" stroke-linejoin="round" stroke-width="5.625"/>
  <g stroke="#000">
   <path d="m484.5 411.8c21.7-11.6 45.8-24.5 48.8-26.4 7.2-4.5 15.1-9 20.2-13.4 12.8-11.2 18.6-26.1 16.7-30.9-2.8-7.3-34.7-8.6-58.5 30.7-26.3 43.1-17.7 60.3-4.2 58.6 9.2-1.4 15.1-5.1 15.1-5.1" stroke-linejoin="round" stroke-width="5.625"/>
   <g stroke-width="4.6875">
    <path d="m550.3 342.4c-30.3 19.2-39.8 50.5-52.2 79"/>
    <path d="m543.3 342.4c-17.9 10.4-41.1 45.1-46.5 68.6"/>
   </g>
  </g>
  <path d="m503.9 410c-4 10.7-6.4 18.8 3.6 20.4" stroke="#070000" stroke-width="2.8125"/>
  <path d="m564.7 339.1c-7.4-2.4-11 2.2-15.8 5.2" stroke="#000" stroke-width="2.8125"/>
  <path d="m539.8 347.1c-28 20.5-28.9 42.2-43.4 69.6" stroke="#000" stroke-width="4.6875"/>
  <g stroke-linejoin="round" stroke-width="5.625">
   <path d="m516.4 482.1c16.8-.5 33-21.3 35-47.2 2.1-26.8 46.7-54.9 36.3-48.7l-65 39.1" stroke="#000"/>
   <g stroke="#030002">
    <path d="m602.4 466.4c1 .1 1.8.3 2.5.7.2.1.4.2.6.4 1.2.9 1.7 2.6 1 5.2-1.3 5.1-7.1 8-9.8 9-5.7 2-9.8-2.6-6.6-7.6 2-3.1 5.5-6.6 9.7-7.5.3-.1.6-.1.9-.1s.7-.1 1-.1c.8 0 1.6.1 2.4.3"/>
    <path d="m516.4 482.1 75.2.2"/>
    <path d="m570.8 465.6c1 .1 1.8.3 2.5.7.2.1.4.2.6.4 1.2.9 1.7 2.6 1 5.2-1.3 5.1-7.1 8-9.8 9-5.7 2-9.8-2.6-6.6-7.6 2-3.1 5.5-6.6 9.7-7.5.3-.1.6-.1.9-.1s.7-.1 1-.1c.8 0 1.6.1 2.4.3"/>
   </g>
  </g>
 </g>
</svg>
