<svg height="210mm" viewBox="0 0 1052.4 744.1" width="297mm" xmlns="http://www.w3.org/2000/svg">
 <g fill="none" stroke-linecap="round">
  <g transform="translate(0 -308.26772)">
   <path d="m57.6 742.2h948.8" stroke="#969696" stroke-width="1.875"/>
   <g stroke="#000" stroke-dasharray="3.75 7.5" stroke-miterlimit="2" stroke-width=".9375">
    <path d="m58.3 844.1h948.8"/>
    <path d="m58.3 641.8h948.8"/>
    <path d="m58.3 540.6h948.8"/>
   </g>
  </g>
  <g stroke="#000" stroke-linejoin="round" stroke-width="5.625">
   <path d="m451.8 267.9c-49.8 53.9-145 163.4-145 163.4"/>
   <path d="m698.9 372.5c-5.2 4.6-10.7 10.5-18.3 10.8-11.5.3-17.4-32.9-34.2-32.2-17.6.9-57 31.9-87.2 32.4-44.8.7 1.5-152.1 84.5-196.8"/>
   <path d="m493.4 234.1c-82.3 44.3-128.4 195-85.6 196.9 2.4.1 4.2.2 6.9 0 27.5-2.1 64.2-59.3 89.7-96 9.2-13.2 64.4-88 100.7-117.7"/>
  </g>
 </g>
</svg>
