<svg height="210mm" viewBox="0 0 1052.4 744.1" width="297mm" xmlns="http://www.w3.org/2000/svg">
 <g fill="none" stroke-linecap="round">
  <g transform="translate(0 -308.26772)">
   <path d="m57.6 742.2h948.8" stroke="#969696" stroke-width="1.875"/>
   <g stroke="#000" stroke-dasharray="3.75 7.5" stroke-miterlimit="2" stroke-width=".9375">
    <path d="m58.3 844.1h948.8"/>
    <path d="m58.3 641.8h948.8"/>
    <path d="m58.3 540.6h948.8"/>
   </g>
  </g>
  <g stroke="#000" stroke-width="5.625">
   <path d="m369.3 234.2-113 196.6"/>
   <g stroke-linejoin="round">
    <path d="m256.3 430.8s44.6-32.4 61.8-29.2c13.6 2.5 15.7 29.8 30.5 29.1 4-.2 36.8 3.1 43.1-2.1"/>
    <path d="m299.8 405.6c5.4-2.4 18.6-2.2 26.5 15 5.6 12.2 13.9 9.5 20.5 9.9"/>
    <path d="m314.4 403.7c6.7 5.9 6.3.5 21.2 23.1"/>
    <ellipse cx="55.163773" cy="559.22717" rx="25.728558" ry="20.371416" transform="matrix(.79083574 -.61202846 .61202846 .79083574 0 0)"/>
    <path d="m770.6 335.1c-41.9 53.3-176.2 74.7-175.1-.3"/>
    <path d="m595.5 334.7-97.9 112.5"/>
    <path d="m391.7 428.6c25.4-13.5 112-68 145.1-102.1 40.2-41.5 71.8-84.4 52.3-91.1-14.8-5.1-40.9 9-88.8 88.1-32.1 55.4-38.7 81.5-34.5 94.9 3.8 12.2 18.5 16.8 55.4 16.6"/>
    <ellipse cx="127.82426" cy="677.57886" rx="25.728558" ry="20.371416" transform="matrix(.79083574 -.61202846 .61202846 .79083574 0 0)"/>
   </g>
  </g>
 </g>
</svg>
