<svg height="210mm" viewBox="0 0 1052.4 744.1" width="297mm" xmlns="http://www.w3.org/2000/svg">
 <g fill="none" stroke-linecap="round">
  <g transform="translate(0 -308.26772)">
   <path d="m57.6 742.2h948.8" stroke="#969696" stroke-width="1.875"/>
   <g stroke="#000" stroke-dasharray="3.75 7.5" stroke-miterlimit="2" stroke-width=".9375">
    <path d="m58.3 844.1h948.8"/>
    <path d="m58.3 641.8h948.8"/>
    <path d="m58.3 540.6h948.8"/>
   </g>
  </g>
  <g stroke="#000" stroke-linejoin="round" stroke-width="5.625">
   <path d="m464.6 533 82.9-149.9 22.6 48.4"/>
   <path d="m570.1 431.5s86.8-115.4 89-118.1c2.6-3.2 10.7-12.9 13.1-14.8 83-65-26.7 159.9-88.2 186.6"/>
   <path d="m446 234.6-97.9 173.9c-13.8 24.5 23.6 37.2 51.9-1.5"/>
   <path d="m400.1 407s30.3-41.4 31.1-42.4c2.7-3.5 5.3-6.7 7.7-9.6 2-2.4 3.9-4.5 5.8-6.4 16.9-17.9 26.9-18.3 33.4-5.7 6.5 12.7 4 18.2 12.3 27.2 15.9 17.3 43.8-27.8 34.5-34.3-6.3-4.4-25.9 3.2-49.4 42-41.8 68.4-7.7 59.6 21.7 37.5"/>
   <path d="m452.5 341.1c9.6-6.8 18 4.1 21.6 15.8 3.2 10.5 8.7 18 23.9 17.1"/>
   <path d="m464.4 337.3c13.6.7 15.1 28.3 22.1 30"/>
  </g>
 </g>
</svg>
