<svg height="210mm" viewBox="0 0 1052.4 744.1" width="297mm" xmlns="http://www.w3.org/2000/svg">
 <g fill="none" stroke-linecap="round">
  <g transform="translate(0 -308.26772)">
   <path d="m57.6 742.2h948.8" stroke="#969696" stroke-width="1.875"/>
   <g stroke="#000" stroke-dasharray="3.75 7.5" stroke-miterlimit="2" stroke-width=".9375">
    <path d="m58.3 844.1h948.8"/>
    <path d="m58.3 641.8h948.8"/>
    <path d="m58.3 540.6h948.8"/>
   </g>
  </g>
  <g stroke="#000" stroke-linejoin="round">
   <path d="m549.3 482.7c16.8-.5 33-21.3 35-47.2 2.1-26.8 36.3-48.7 36.3-48.7s-250 3.6-259.5 3.6" stroke-width="5.625"/>
   <ellipse cx="31.900732" cy="543.88348" rx="23.685875" ry="18.754057" stroke-width="5.178411" transform="matrix(.79083574 -.61202846 .61202846 .79083574 0 0)"/>
   <g stroke-width="5.625">
    <path d="m555.6 481.6 100.2-45 15.7 43"/>
    <path d="m671.5 479.6c10.2-5.8 20.2-9 25.5-10.4 11.2-3 25.5-3.1 24.1 4.7 0 .2.1.4.1.7 0 1.4-.6 2.7-2.1 3.8-2.9 2.2-6.9.8-8.5-.4-3.3-.5-1-11.9 0-10.6 1.7 2.4 0 0 8.8 2.8.2.1.3.3.4.5.2.2.4.7.6.9.3.5.4.9.7 1.6"/>
    <path d="m720.9 473.9a5.5 1.8 0 0 1 -5.5 1.8 5.5 1.8 0 0 1 -5.5-1.8 5.5 1.8 0 0 1 5.4-1.8 5.5 1.8 0 0 1 5.5 1.8h-5.5z"/>
   </g>
  </g>
 </g>
</svg>
