<svg height="210mm" viewBox="0 0 1052.4 744.1" width="297mm" xmlns="http://www.w3.org/2000/svg">
 <g fill="none" stroke-linecap="round">
  <g transform="translate(0 -308.26772)">
   <path d="m57.6 742.2h948.8" stroke="#969696" stroke-width="1.875"/>
   <g stroke="#000" stroke-dasharray="3.75 7.5" stroke-miterlimit="2" stroke-width=".9375">
    <path d="m58.3 844.1h948.8"/>
    <path d="m58.3 641.8h948.8"/>
    <path d="m58.3 540.6h948.8"/>
   </g>
  </g>
  <g stroke="#000">
   <g stroke-linejoin="round">
    <g stroke-width="5.625">
     <path d="m323.3 431.3 84.2-96.1-45.1 96.2"/>
     <path d="m512.8 260.2-150.4 171.2"/>
     <path d="m512.8 260.2-82.8 155.6"/>
     <path d="m493.3 291.4-53.8 98.9"/>
    </g>
    <path d="m435.4 429.3c-7.4-6.7-3-16.4 2.6-27.7" stroke-width="3.75"/>
    <g stroke-width="5.625">
     <path d="m520.9 249.9-36.3 62.4"/>
     <path d="m474.4 315.6c-12.9 24.9-33.3 54.7-42.1 87"/>
    </g>
   </g>
   <path d="m472.8 321.9-36.6 76.4" stroke-width="3.75"/>
   <g stroke-linejoin="round" stroke-width="5.625">
    <path d="m606 399.2c-1.5 1.4-20.1 19.4-21.7 20.8-7 6.2-10.3 10.2-24.6 10.8-17 .1-14.7-37.1-33.5-36.9-32.3 0-53.2 27-79 36.2-55 17.3 33.8-138.4 77.9-185.1 4.7-5 11.2-10.7 18.9-11.9"/>
    <path d="m700.4 337.5c1 .1 1.8.3 2.5.7.2.1.4.2.6.4 1.2 1 1.7 2.6 1 5.2-1.3 5.1-7.1 8-9.8 9-5.7 2-9.8-2.6-6.6-7.6 2-3.1 5.5-6.6 9.7-7.5.3-.1.6-.1.9-.1s.7-.1 1-.1c.8 0 1.6.1 2.4.3"/>
    <path d="m702.6 348.4c-39.3 56.1-120.5 99.4-135 114.1-25.9 26.2-43.9 58.1-40.9 65.8 1.1 2.9 17.7 21.8 57.3-41.8l88-150.7-66 63.4"/>
   </g>
  </g>
 </g>
</svg>
