<svg height="210mm" viewBox="0 0 1052.4 744.1" width="297mm" xmlns="http://www.w3.org/2000/svg">
 <g fill="none" stroke-linecap="round">
  <g transform="translate(0 -308.26772)">
   <path d="m57.6 742.2h948.8" stroke="#969696" stroke-width="1.875"/>
   <g stroke="#000" stroke-dasharray="3.75 7.5" stroke-miterlimit="2" stroke-width=".9375">
    <path d="m58.3 844.1h948.8"/>
    <path d="m58.3 641.8h948.8"/>
    <path d="m58.3 540.6h948.8"/>
   </g>
  </g>
  <g stroke-linejoin="round" stroke-width="5.625">
   <g stroke="#000">
    <path d="m386.5 431.9c-4.5-5.2 73.6-75 98-90 5.7-4 12.1-6.7 18.3-7.6 16.9-2.3 33.1 9.3 32.8 48.9-.2 33.3 15.8 47.1 30.1 47.7 4.3.2 18.6 1.4 29.7-4"/>
    <path d="m597.2 417c.7.1 1.3.2 1.8.5.2.1.3.2.5.3.9.7 1.2 1.9.7 3.7-1 3.7-5.1 5.8-7.1 6.5-4.1 1.5-7.1-1.9-4.8-5.5 1.5-2.3 4-4.8 7-5.4.2 0 .4-.1.6-.1h.8c.6 0 1.2.1 1.8.2"/>
    <path d="m505.5 334c12.3-1.3 35.4 13.9 35.2 45.8-.2 30.1 8.2 53 28.3 51.2"/>
    <path d="m505.5 334c17-.9 25 18 24.8 49.8-.2 30.1 13.3 47.8 38.7 47.1"/>
    <path d="m386.5 431.9c15.1-4.5 47.4-44.7 52.6-82 5.7-40.6 44.3-104.4 80-114.7"/>
    <path d="m488.8 254.5c-8 4.8-157.5 176.9-157.5 176.9"/>
   </g>
   <path d="m699 387.2c-20.7 10.8-44.4 22.5-60.6 35-32.5 23.2-40.2 52.7-38 60 .9 3 16.3 22.9 59.8-38.1 26.9-36.9 54.6-73.4 69.3-116.4 11.9-29.1 1.1-52.4-34.7-21-1.5 1.4-3.2 2.8-4.8 4.4-21.4 22.5-82.4 112.2-94.8 115.7" stroke="#010000"/>
  </g>
 </g>
</svg>
