<svg height="210mm" viewBox="0 0 1052.4 744.1" width="297mm" xmlns="http://www.w3.org/2000/svg">
 <g fill="none" stroke-linecap="round">
  <g transform="translate(0 -308.26772)">
   <path d="m57.6 742.2h948.8" stroke="#969696" stroke-width="1.875"/>
   <g stroke="#000" stroke-dasharray="3.75 7.5" stroke-miterlimit="2" stroke-width=".9375">
    <path d="m58.3 844.1h948.8"/>
    <path d="m58.3 641.8h948.8"/>
    <path d="m58.3 540.6h948.8"/>
   </g>
  </g>
  <g stroke="#000" stroke-linejoin="round">
   <g stroke-width="5.625">
    <path d="m311.1 431c51.3-31.7 166.3-126.6 141.8-147.7-11.7-10-38.4 14.6-85.5 92.5-44.2 75.5-46.1 110.2-26.2 110.2"/>
    <path d="m208.9 431.2c19.4-.5 27.5-7.1 80.1-47.3l22.1 47.1"/>
    <path d="m232.8 335.7-38.9 72.5c-7.2 13.4 1.8 23.1 15 23"/>
   </g>
   <path d="m422 585.8c14.8-7.7 32.2-16.2 28.9-34.4-.9-14.2-55-44-61.8-66.9-3.5-11.7 8.2-30.9 23.4-47.3" stroke-width="5.624998"/>
   <path d="m341.1 486c20.3-1.1 28.3-15.7 71.4-48.9" stroke-width="5.624999"/>
   <g stroke-width="5.625">
    <ellipse cx="63.62656" cy="758.27698" rx="25.728559" ry="20.371418" transform="matrix(.79083574 -.61202846 .61202846 .79083574 0 0)"/>
    <path d="m510.3 539.9s-83.2 34.3-91 40.6c-5.7 4.5-1.5 6.5 2.7 5.4"/>
    <path d="m473.2 533.4 77.6-149.8"/>
    <path d="m550.8 383.6 22.1 47.1"/>
   </g>
   <path d="m572.9 430.8s69.5-111 93.7-148.6c36.2-56.2 66.2-104.3 90.7-101.1 22.2 2.9 10.9 29.1-1.4 50.9l-59.2 102c-7.4 12.6-10.3 23.1-7.7 30.8 2.4 6.9 6.3 12.1 16.8 12.9 7.1.2 14-1.7 20.4-5.5 6.8-4 13.1-10.1 18.6-18" stroke-width="5.624999"/>
  </g>
 </g>
</svg>
