<svg height="210mm" viewBox="0 0 1052.4 744.1" width="297mm" xmlns="http://www.w3.org/2000/svg">
 <g fill="none" stroke-linecap="round">
  <g transform="translate(0 -308.26772)">
   <path d="m57.6 742.2h948.8" stroke="#969696" stroke-width="1.875"/>
   <g stroke="#000" stroke-dasharray="3.75 7.5" stroke-miterlimit="2" stroke-width=".9375">
    <path d="m58.3 844.1h948.8"/>
    <path d="m58.3 641.8h948.8"/>
    <path d="m58.3 540.6h948.8"/>
   </g>
  </g>
  <g stroke="#000">
   <g stroke-width="5.625">
    <g stroke-linejoin="round">
     <path d="m581 313.4c10.2-8.7 14.6-21.2 13.1-25.2-2.8-7.3-29.3-4.3-53.1 35-27.6 45.1-16.1 51.1-6.5 53.4 31.4 4.9 117.8-98.7 152.4-128.4"/>
     <path d="m341.3 336.3c-47.2 12.3-91.8 95.8-48.5 94.7 1.2.2 8.2-.6 18.4-3.9 60.1-19.4 249.8-93 269.8-113.6"/>
     <path d="m729.4 417.6c-21.9 17.6-44.6 38-54.3 47.7-25.9 26.2-44.2 51.8-43.7 60.1.5 7.3 20.5 26.1 60-37.5l83.3-151.7-13.2.5-55.4 54.3"/>
    </g>
    <path d="m761.6 336.7-90.5 178.4"/>
    <path d="m768.7 339.6-83.7 157.4"/>
    <path d="m765.7 338.5-90.7 170.5"/>
   </g>
   <path d="m679.9 495.6c-9.2 16.4-13.2 22.8-21.5 31.1" stroke-width="3.75"/>
   <g stroke-linejoin="round" stroke-width="5.625">
    <path d="m706.2 390.9c-40.2 37.8-47.4 40.7-80.6 40.3-67.4-1.8 23.8-164.4 80-196.7"/>
    <path d="m661.3 414.6c.8.1 1.4.2 1.9.5.2.1.3.2.5.3.9.7 1.3 2 .8 4-1 3.9-5.4 6.1-7.5 6.9-4.3 1.6-7.6-2-5.1-5.9 1.6-2.4 4.2-5.1 7.4-5.7.2 0 .4-.1.7-.1s.5-.1.8-.1c.6 0 1.2.1 1.9.3"/>
   </g>
  </g>
 </g>
</svg>
