<svg height="210mm" viewBox="0 0 1052.4 744.1" width="297mm" xmlns="http://www.w3.org/2000/svg">
 <g fill="none" stroke-linecap="round">
  <g transform="translate(0 -308.26772)">
   <path d="m57.6 742.2h948.8" stroke="#969696" stroke-width="1.875"/>
   <g stroke="#000" stroke-dasharray="3.75 7.5" stroke-miterlimit="2" stroke-width=".9375">
    <path d="m58.3 844.1h948.8"/>
    <path d="m58.3 641.8h948.8"/>
    <path d="m58.3 540.6h948.8"/>
   </g>
  </g>
  <g stroke="#000" stroke-linejoin="round" stroke-width="5.625">
   <path d="m497.1 431.3c53.6-68.2 129.6-180.9 158.6-217.4 15.9-19.5 31.9-38 54.4-33 19.2 4.3 7.4 24.8-4.7 41-20.6 27.7-54.8 72.5-80.7 113.3-8.8 14.1-13.6 26.1-10.2 34.8 3.4 6.5 8.4 9.2 14.3 9.3 11 .1 25.3-9.1 38.7-20.9"/>
   <path d="m477.5 383.8 19.6 47.5"/>
   <path d="m393.4 430.4c-6.5 3.1-9.5-1.3-5.7-4.8 7.2-6.4 89.8-41.8 89.8-41.8"/>
   <path d="m474.3 330.6c33.5-13.6 89.2-81.1 69-95.4-37.8-13.7-77.8 131-100.2 155.8-9.7 14.6-27.1 28.1-49.6 39.3"/>
  </g>
 </g>
</svg>
