<svg height="210mm" viewBox="0 0 1052.4 744.1" width="297mm" xmlns="http://www.w3.org/2000/svg">
 <g fill="none" stroke-linecap="round">
  <g transform="translate(0 -308.26772)">
   <path d="m57.6 742.2h948.8" stroke="#969696" stroke-width="1.875"/>
   <g stroke="#000" stroke-dasharray="3.75 7.5" stroke-miterlimit="2" stroke-width=".9375">
    <path d="m58.3 844.1h948.8"/>
    <path d="m58.3 641.8h948.8"/>
    <path d="m58.3 540.6h948.8"/>
   </g>
  </g>
  <g stroke="#000" stroke-linejoin="round">
   <path d="m589.8 336.4c7.3 13.2 13.8 41.1 39.1 43 44.4 3.4 52.5-38.2 37.8-43-7.2-2.4-25.6 2.2-48.8 40.4-25.5 41.6-21.8 55.6-8.3 54.4 15.9-1.4 67.7-31.5 85.3-32.4 16.8-.7 22.7 32.6 34.2 32.2 7.5-.2 13.1-6.2 18.3-10.8" stroke-width="5.625001"/>
   <path d="m332.7 431.2 257.1-94.8" stroke-width="5.625"/>
  </g>
 </g>
</svg>
