<svg height="210mm" viewBox="0 0 1052.4 744.1" width="297mm" xmlns="http://www.w3.org/2000/svg">
 <g fill="none" stroke-linecap="round">
  <g transform="translate(0 -308.26772)">
   <path d="m57.6 742.2h948.8" stroke="#969696" stroke-width="1.875"/>
   <g stroke="#000" stroke-dasharray="3.75 7.5" stroke-miterlimit="2" stroke-width=".9375">
    <path d="m58.3 844.1h948.8"/>
    <path d="m58.3 641.8h948.8"/>
    <path d="m58.3 540.6h948.8"/>
   </g>
  </g>
  <g stroke="#000" stroke-linejoin="round" stroke-width="5.625">
   <path d="m693.9 381.4c5.4-3.3 11.7-10.5 6.5-17.1-2.6-3.3-4-4.5-11.9-4.4l-98.8.6c-6.7.1-14.3.2-15.9-.7-10.5-5.8-7.4-13.7.5-24.6"/>
   <path d="m549.1 286-42.4 73.1c-13.3 22.9 23.8 35.3 46.3 4.4 1.3-1.8 15.3-18.9 16.5-21"/>
   <path d="m701.9 372.3c24.5-29.3 51.9-71.4 78.4-83.9 19.6-8.3 35 2.5 12.3 40.5l-29.8 52.1"/>
   <path d="m211.8 431.2c10.6-12.1 23.1-29.4 40-30.3 16-.6 18 30.9 32.6 30.7 17.6-.2 38.6-35 50.5-50.9"/>
   <path d="m334.9 380.7c10.4-13.7 23.9-27.6 33.3-34.6 3.6-2.6 7.4-4.9 11.3-6.7 5-2.4 10.2-3.9 15.3-4.1 24-1 29.1 44.9 45.5 46 24.8 1.7 69.8-54.8 108.9-95.4"/>
  </g>
 </g>
</svg>
