<svg height="210mm" viewBox="0 0 1052.4 744.1" width="297mm" xmlns="http://www.w3.org/2000/svg">
 <g fill="none" stroke-linecap="round">
  <g transform="translate(0 -308.26772)">
   <path d="m57.6 742.2h948.8" stroke="#969696" stroke-width="1.875"/>
   <g stroke="#000" stroke-dasharray="3.75 7.5" stroke-miterlimit="2" stroke-width=".9375">
    <path d="m58.3 844.1h948.8"/>
    <path d="m58.3 641.8h948.8"/>
    <path d="m58.3 540.6h948.8"/>
   </g>
  </g>
  <g stroke="#000">
   <g stroke-linejoin="round" stroke-width="5.625">
    <path d="m629.9 234.7-30 73.1c-6.7 16.3 5 26.1 21.5 22.2 2.8-.7 9.1-2.7 14-5.9 5.5-3.6 13.2-9.7 18.1-14.2"/>
    <path d="m653.5 309.9 29.4-28 33.3 47.9"/>
    <path d="m682.9 281.9 24 48"/>
    <path d="m692.4 281.9 23.8 47.9"/>
    <path d="m688.5 281.8 24 48"/>
   </g>
   <path d="m685.1 280.9h7.1" stroke-width="3.75"/>
   <path d="m708.6 330.8h7.1" stroke-width="3.75"/>
   <g stroke-linejoin="round" stroke-width="5.625">
    <path d="m336.1 431.6s187.7-42.3 196.9-44.5"/>
    <path d="m247.7 431.9c13.2-28.3 30.5-45 59.9-47.2 23.8-1.8 38.6 14.7 28.5 46.9"/>
    <ellipse cx="171.82729" cy="650.17993" rx="25.728558" ry="20.371416" transform="matrix(.79083574 -.61202846 .61202846 .79083574 0 0)"/>
    <path d="m513.2 401.8c4.9-9.8 116.7-167.2 116.7-167.2"/>
   </g>
  </g>
 </g>
</svg>
