<svg height="210mm" viewBox="0 0 1052.4 744.1" width="297mm" xmlns="http://www.w3.org/2000/svg">
 <g stroke-linecap="round">
  <g fill="none" transform="translate(0 -308.26772)">
   <path d="m57.6 742.2h948.8" stroke="#969696" stroke-width="1.875"/>
   <g stroke="#000" stroke-dasharray="3.75 7.5" stroke-miterlimit="2" stroke-width=".9375">
    <path d="m58.3 844.1h948.8"/>
    <path d="m58.3 641.8h948.8"/>
    <path d="m58.3 540.6h948.8"/>
   </g>
  </g>
  <g stroke="#000">
   <g fill="none">
    <g stroke-width="5.625">
     <path d="m316.1 430.8 46.1-44.7" stroke-linejoin="round"/>
     <path d="m362.2 386.1c3-4.3 35.1-34.2 41.2-39.2 23.7-19.2 60.9-14.6 37.5 14.4-27.4 33.8-45.5 50.2-39.4 63.9 4.2 9.6 23.1 7.2 36.5-3.7l8-6.5" stroke-linejoin="round"/>
     <path d="m441.8 338.4c14.5 10.1 4.3 27.8-12.4 44.2-14.4 14-23.4 26.4-29.5 38.7"/>
     <path d="m441.8 338.4c.8-1.1 3.9 6.1.7 14.2-3.2 8.4-12.8 17.8-18.3 22.9-10.8 10.1-30.6 29-24.3 45.7"/>
    </g>
    <g stroke-width="2.8125">
     <path d="m433.2 336.7c11.3 1.3 8.8 6.5 9.1 11"/>
     <path d="m405 414c-2.7 4.9-3.8 12 2.3 14.5"/>
     <path d="m397.3 415.3c-.1 5.7 2.9 11.5 4.9 13.1"/>
    </g>
    <g stroke-linejoin="round" stroke-width="5.625">
     <path d="m310 359.2c24.3-33 69.8-34.2 37.2 20l-31.1 51.6"/>
     <path d="m446 414.9 36.7-33.3c.9-.8-25.9 49.6-25.9 49.6"/>
     <path d="m489.6 384.5-25.3 46.6"/>
     <path d="m468.8 430.9-12 .2"/>
     <path d="m496.5 381.4-27.7 49.5"/>
     <path d="m496.5 381.4-14.1-.1"/>
     <path d="m487.8 382.6-25.3 46.6"/>
     <path d="m627.3 255.3c-8.5 4.7-118 139.1-156.5 175.6"/>
     <path d="m549.9 433.9c-3.2 1.4-6.5 3-9.8 4.8-3 1.7-6.1 3.6-9.1 5.6-37.2 24.7-71.5 71.3-65.4 85.5 5.7 13.2 70.8-24.4 97.1-134.9 20.3-90.7 57.5-148.5 98-159.7"/>
     <path d="m549.9 433.9s36.1.7 40.9-2.9"/>
    </g>
   </g>
   <g stroke-linejoin="round">
    <g fill="#eb0000" fill-rule="evenodd" transform="matrix(1.7715894 0 0 1.7715894 -700.70894 80.110328)">
     <path d="m732.1 185.5c.8.1 1.4.2 1.9.5.2.1.3.2.5.3.9.7 1.3 2 .8 4-1 3.9-5.4 6.1-7.5 6.9-4.3 1.6-7.6-2-5.1-5.9 1.6-2.4 4.2-5.1 7.4-5.7.2 0 .4-.1.7-.1h.8c.6 0 1.2.1 1.9.3" stroke-width="5.625"/>
     <path d="m729.3 188.3c.3 0 .6.1.9.2.1 0 .2.1.2.1.4.3.6.9.4 1.8-.4 1.7-2.4 2.8-3.3 3.1-1.9.7-3.4-.9-2.3-2.6.7-1.1 1.9-2.3 3.3-2.6h.3.4c.3 0 .6 0 .8.1" stroke-width="4.981044"/>
    </g>
    <path d="m590 431.2c16.5.9 58-29.4 74.8-30.3 16-.6 21.6 31 32.6 30.7 7.2-.2 12.4-7.6 16.7-13" fill="none" stroke-width="5.625"/>
   </g>
  </g>
 </g>
</svg>
