<svg height="210mm" viewBox="0 0 1052.4 744.1" width="297mm" xmlns="http://www.w3.org/2000/svg">
 <g fill="none" stroke-linecap="round">
  <g transform="translate(0 -308.26772)">
   <path d="m57.6 742.2h948.8" stroke="#969696" stroke-width="1.875"/>
   <g stroke="#000" stroke-dasharray="3.75 7.5" stroke-miterlimit="2" stroke-width=".9375">
    <path d="m58.3 844.1h948.8"/>
    <path d="m58.3 641.8h948.8"/>
    <path d="m58.3 540.6h948.8"/>
   </g>
  </g>
  <g stroke="#000">
   <g stroke-linejoin="round" stroke-width="5.625">
    <path d="m504.1 391.2-70.5 40"/>
    <path d="m530.2 383.9c8.2-1.7 35.6-.3 41.8-6.8"/>
    <ellipse cx="254.54063" cy="627.60339" rx="62.130169" ry="44.633743" transform="matrix(.88109295 -.47294313 .47294313 .88109295 0 0)"/>
   </g>
   <path d="m577.8 410.6c-13.8 27.9-38.1 52.4-66.8 70.7" stroke-width="5.385754"/>
   <path d="m579 419.6c-15.9 21.3-33.1 41.5-54 58.5" stroke-width="5.385754"/>
   <path d="m578.1 426.1c-14.3 21.6-19.7 29.6-41.7 46.5" stroke-width="7.181006"/>
   <path d="m526.7 469.2c-10.1 9.6-24.3 12.2-31.1 10.7" stroke-width="3.590503"/>
   <path d="m569.7 396.8c2.2 2.5 8.7 12.2 1.3 24.5" stroke-width="3.590503"/>
   <g stroke-linejoin="round" stroke-width="5.625">
    <path d="m572 377.1c6.5.3 10.2-3.5 12.4-5.8 12.5-13.4 32.9-62.3 46.6-76.8 16.9-17.9 26.9-18.3 33.4-5.7 6.5 12.7 4 18.2 12.3 27.2 15.9 17.3 43.8-27.8 34.5-34.3-6.3-4.4-25.9 3.2-49.4 42-35.3 57.8-14.2 56.8 9.8 52.2 3.3-.6 8.8-2.2 15.2-4.4"/>
    <path d="m638.9 287c9.6-6.8 18 4.1 21.6 15.8 3.2 10.5 8.7 18 23.9 17.1"/>
    <path d="m650.8 283.2c13.6.7 15.1 28.3 22.1 30"/>
    <path d="m576.3 366.3c.7.1 1.2.2 1.7.4.2.1.3.2.4.3.8.6 1.1 1.7.7 3.5-.9 3.4-4.8 5.4-6.6 6.1-3.8 1.4-6.6-1.8-4.5-5.1 1.4-2.1 3.7-4.4 6.5-5 .2 0 .4-.1.6-.1h.7c.5 0 1.1.1 1.6.2"/>
   </g>
  </g>
 </g>
</svg>
