<svg height="210mm" viewBox="0 0 1052.4 744.1" width="297mm" xmlns="http://www.w3.org/2000/svg">
 <g fill="none" stroke-linecap="round">
  <g transform="translate(0 -308.26772)">
   <path d="m57.6 742.2h948.8" stroke="#969696" stroke-width="1.875"/>
   <g stroke="#000" stroke-dasharray="3.75 7.5" stroke-miterlimit="2" stroke-width=".9375">
    <path d="m58.3 844.1h948.8"/>
    <path d="m58.3 641.8h948.8"/>
    <path d="m58.3 540.6h948.8"/>
   </g>
  </g>
  <g stroke="#000" stroke-linejoin="round">
   <g stroke-width="5.625">
    <ellipse cx="173.0965" cy="645.87244" rx="29.466991" ry="23.331442" transform="matrix(.79083574 -.61202846 .61202846 .79083574 0 0)"/>
    <path d="m462.3 419c.8.1 1.4.2 1.9.5.2.1.3.2.5.3.9.7 1.3 2 .8 4-1 3.9-5.4 6.1-7.5 6.9-4.3 1.6-7.6-2-5.1-5.9 1.6-2.4 4.2-5.1 7.4-5.7.2 0 .4-.1.7-.1s.5-.1.8-.1c.6 0 1.2.1 1.9.3"/>
    <path d="m462.8 428.3c7.9-3.2 50.9-40.3 60.3-45.3"/>
    <path d="m537.1 379.1 59.7-.5"/>
   </g>
   <path d="m599.1 532.5c28.4-23.7 35.4-32.9 38.9-58.4 1.8-13.1-2.6-29.3-12.8-39.4-5-4.9-11-8.8-17-12.3-8.5-5-11.8-6.1-17.2-12-5.9-6.6-9-25.3 5.7-31.8" stroke-width="5.752432"/>
  </g>
 </g>
</svg>
