<svg height="210mm" viewBox="0 0 1052.4 744.1" width="297mm" xmlns="http://www.w3.org/2000/svg">
 <g fill="none" stroke-linecap="round">
  <g stroke="#000" transform="translate(0 -308.26772)">
   <path d="m57.6 742.2h948.8" stroke-width="1.875"/>
   <g stroke-dasharray="3.75 7.5" stroke-miterlimit="2" stroke-width=".9375">
    <path d="m58.3 844.1h948.8"/>
    <path d="m58.3 641.8h948.8"/>
    <path d="m58.3 540.6h948.8"/>
   </g>
  </g>
  <g stroke="#00000c">
   <g stroke-linejoin="round" stroke-width="5.625">
    <path d="m655 409.3c14-11.2 32.2-26.1 32.2-26.1l33.3 47.9"/>
    <path d="m687.2 383.2 24 48"/>
    <path d="m696.7 383.3 23.8 47.9"/>
    <path d="m692.8 383.1 24 48"/>
   </g>
   <g stroke-width="3.75">
    <path d="m689.5 382.2h7.1"/>
    <path d="m712.9 432.1h7.1"/>
   </g>
  </g>
  <g stroke-width="5.625">
   <path d="m438.9 518.3c38-36.1 247.9-201.3 263.2-216.8 23.4-23.8 37-52.9 33.1-63-5.5-14.4-40.3 8.9-87.4 86.8-69.6 120.2-36 123.1 7.3 84" stroke="#000" stroke-linejoin="round"/>
   <path d="m802.1 336.1-81.6 95" stroke="#000"/>
   <g stroke-linejoin="round">
    <path d="m802.1 336.1-39 72.4c-8.4 15.5 5 26.1 21.5 22.2 10.1-2.1 46.3-23.3 76-41.9" stroke="#000"/>
    <path d="m438.9 518.3c-25.9 26.2-39.9 52.6-36.9 60.3 1.1 2.9 17.7 21.8 57.3-41.8l88-150.7-77.7 36.4" stroke="#060000"/>
    <path d="m469.6 422.5c-58.2 30.2-86 44.7-103.8 69.2-11.7 16.1-18.2 30.5-16.6 35.4.9 3 16.3 22.9 59.8-38.1 26.9-36.9 54.6-73.4 69.3-116.4 15.5-30.1-1.4-56.7-44.4-11.6" stroke="#060000"/>
    <g stroke="#000">
     <path d="m171 385.5 21.5 46.3 9.7-2.8"/>
     <path d="m202.2 429s123.5-34.8 132.8-36.9c19.7-4.5 44.1-12.6 56-6.8 7.7 5.9 8.4 12.5 7.6 17.7-2.7 14.7-19.7 23.3-29 26.7-16.7 6-30.7-11.1-21.2-25.9 14.8-23.5 82.8-169.8 82.8-169.8"/>
    </g>
   </g>
  </g>
 </g>
</svg>
