<svg height="210mm" viewBox="0 0 1052.4 744.1" width="297mm" xmlns="http://www.w3.org/2000/svg">
 <g fill="none" stroke-linecap="round">
  <g transform="translate(0 -308.26772)">
   <path d="m57.6 742.2h948.8" stroke="#969696" stroke-width="1.875"/>
   <g stroke="#000" stroke-dasharray="3.75 7.5" stroke-miterlimit="2" stroke-width=".9375">
    <path d="m58.3 844.1h948.8"/>
    <path d="m58.3 641.8h948.8"/>
    <path d="m58.3 540.6h948.8"/>
   </g>
  </g>
  <g stroke="#000" stroke-linejoin="round">
   <g stroke-width="5.625">
    <path d="m80.7 398.9 33.9-16-27.4 48.9"/>
    <path d="m641.6 430.7c11.4-1.5 230.9-44.1 230.9-44.1"/>
    <path d="m650 336.4s-29.9 59.2-34.5 70.3c-6.6 16.3 3.7 24.4 14.5 24.7 2.1.1 6.5-.2 11.5-.7"/>
    <path d="m872.5 386.6 20.4 44.8"/>
    <path d="m892.9 431.4 67.7-44.9 20.4 44.8"/>
    <path d="m157.1 431.7c6.7-10.3 25.2-30.2 41.2-30.3 23.3-.2 24.4 29.8 44.1 30.3 10.7.3 25.9-13 33.3-20.6 11.9-12.1 26.4-27 32.7-34.2 16.2-18.2 35.9-39.3 50-40.3 3.3-.4 6.4-.1 9 .9 2.8 1 5 2.6 6.6 4.7 3.7 5.2 3.1 13.5-5.1 23.4"/>
   </g>
   <g stroke-width="5.624999">
    <path d="m425.3 388.2c-26.7 23-45.9 41.3-72.1 43.2-20.5-.2-25.1-12.2-17.3-25.9 10-17.5 22.7-27.4 33-40"/>
    <path d="m472.6 330.3c6.1-12.5 21.5-26.2 37.5-26.2 24.5-.1 24.2 25.8 40.3 26.5 10.7.5 19.9-7.9 27.2-15.6"/>
   </g>
  </g>
 </g>
</svg>
