<svg height="210mm" viewBox="0 0 1052.4 744.1" width="297mm" xmlns="http://www.w3.org/2000/svg">
 <g fill="none" stroke-linecap="round">
  <g transform="translate(0 -308.26772)">
   <path d="m57.6 742.2h948.8" stroke="#969696" stroke-width="1.875"/>
   <g stroke="#000" stroke-dasharray="3.75 7.5" stroke-miterlimit="2" stroke-width=".9375">
    <path d="m58.3 844.1h948.8"/>
    <path d="m58.3 641.8h948.8"/>
    <path d="m58.3 540.6h948.8"/>
   </g>
  </g>
  <g stroke="#000" stroke-linejoin="round">
   <g stroke-width="5.625">
    <path d="m439.2 377c.9 0 5.4 0 6.4-.1 27.3-2.3 51-30.8 48.2-37.7-2.3-5.6-24.3-4.5-41 13.3-7.1 7.6-14.4 20.1-14.4 21.9.4 2.7 1.4 5.8 3.5 8.8l33.7 47.9"/>
    <path d="m546.2 358.9-70.6 72.4"/>
    <path d="m617.5 386.1-56.7 94.9"/>
   </g>
   <path d="m617.5 386.1-80.1 29.9c-5 1.9-7.7 5.2-8.3 6.2-1.9 3.1-1.1 8.1 3.9 8.6 3 .3 9.7-4.2 11-5 10.7-6.1 20.2-15.8 27.8-26.6 28.4-40.2 30.6-95.6-25.7-40.3" stroke-width="5.419139"/>
  </g>
 </g>
</svg>
