<svg height="210mm" viewBox="0 0 1052.4 744.1" width="297mm" xmlns="http://www.w3.org/2000/svg">
 <g fill="none" stroke-linecap="round">
  <g transform="translate(0 -308.26772)">
   <path d="m57.6 742.2h948.8" stroke="#969696" stroke-width="1.875"/>
   <g stroke="#000" stroke-dasharray="3.75 7.5" stroke-miterlimit="2" stroke-width=".9375">
    <path d="m58.3 844.1h948.8"/>
    <path d="m58.3 641.8h948.8"/>
    <path d="m58.3 540.6h948.8"/>
   </g>
  </g>
  <g stroke="#000">
   <path d="m580.3 288.8s-89.9 141.9-97.6 149.2" stroke-width="5.625"/>
   <g stroke-linejoin="round">
    <path d="m404.1 411.5c.7.1 1.3.2 1.8.5.2.1.3.2.4.3.9.7 1.2 1.8.7 3.7-1 3.6-5 5.7-7 6.4-4 1.5-7-1.9-4.7-5.4 1.4-2.2 3.9-4.7 6.9-5.3.2 0 .4-.1.6-.1h.7c.6 0 1.1.1 1.7.2" stroke-width="5.625"/>
    <path d="m378.5 430.5c22.3-1.5 103-55 117.4-68.5 26.3-24.5 42-56.9 37.9-67.7-5.5-14.4-40.2 8.9-87.4 86.8-50.2 86.7-42.1 105-24.8 106.1 25.6-.6 43.9-27 61.1-49.1" stroke-width="5.625"/>
    <path d="m405.3 336.2-47.8 86.7" stroke-width="6.5625"/>
    <path d="m301.6 431 94.4-95.2-39 72.4c-8.4 15.5 5 26.1 21.5 22.2" stroke-width="5.625"/>
    <path d="m400.6 336.2-44.7 81.9" stroke-width="6.5625"/>
   </g>
   <path d="m362.5 416.8c-1.6 4.1-2.6 6.5.8 11.9" stroke-width="3.75"/>
   <path d="m405.3 336.2-9.3-.4" stroke-linejoin="round" stroke-width="6.5625"/>
   <g stroke-width="5.625">
    <path d="m567.2 385 23.5 46" stroke-linejoin="round"/>
    <path d="m567.2 385-81.2 149.1"/>
    <path d="m590.7 431 87.2-94.4-41.1 94.9" stroke-linejoin="round"/>
   </g>
  </g>
 </g>
</svg>
