<svg height="210mm" viewBox="0 0 1052.4 744.1" width="297mm" xmlns="http://www.w3.org/2000/svg">
 <g fill="none" stroke-linecap="round">
  <g transform="translate(0 -308.26772)">
   <path d="m57.6 742.2h948.8" stroke="#969696" stroke-width="1.875"/>
   <g stroke="#000" stroke-dasharray="3.75 7.5" stroke-miterlimit="2" stroke-width=".9375">
    <path d="m58.3 844.1h948.8"/>
    <path d="m58.3 641.8h948.8"/>
    <path d="m58.3 540.6h948.8"/>
   </g>
  </g>
  <g stroke="#000" stroke-linejoin="round">
   <path d="m239.6 434.8c-22.9 5.5-106.1 66-97.4 92.3 1.8 3.7 16.3 22.9 59.8-38.1 26.9-36.9 54.6-73.4 69.3-116.4 7.7-23 5.5-36.8-7.5-36.3-8.1.3-20.4 7.4-36.9 24.8" stroke-width="5.624999"/>
   <g stroke-width="5.625">
    <ellipse cx="255.15697" cy="572.66339" rx="60.146576" ry="43.208748" transform="matrix(.88109295 -.47294313 .47294313 .88109295 0 0)"/>
    <ellipse cx="464.87701" cy="141.0759" rx="4.609393" ry="6.862874" transform="matrix(.72846687 .68508103 -.68508103 .72846687 0 0)"/>
    <path d="m239.3 427c16.2 10.4 213.5-73.6 244.9-85.3"/>
    <path d="m581.8 431.7c-16.6 1.4 123.6-95.8 123.6-95.8l51.2 95.5"/>
    <path d="m589.8 363.9c11.4-11.1 25.8-27.4 42.8-27.7 18.3-.4 4.9 46.4-21 75-5.3 5.5-21.8 20.4-29.8 20.6"/>
   </g>
   <path d="m756.5 431.4s38-58 47.2-70.7c7.8-10.8 17.3-24.1 31.2-24.6s15.6 24.4 28.2 24.2c9.3-.1 14.6-6.7 18.7-10.8" stroke-width="5.625001"/>
  </g>
 </g>
</svg>
