<svg height="210mm" viewBox="0 0 1052.4 744.1" width="297mm" xmlns="http://www.w3.org/2000/svg">
 <g fill="none" stroke-linecap="round">
  <g transform="translate(0 -308.26772)">
   <path d="m57.6 742.2h948.8" stroke="#969696" stroke-width="1.875"/>
   <g stroke="#000" stroke-dasharray="3.75 7.5" stroke-miterlimit="2" stroke-width=".9375">
    <path d="m58.3 844.1h948.8"/>
    <path d="m58.3 641.8h948.8"/>
    <path d="m58.3 540.6h948.8"/>
   </g>
  </g>
  <g stroke="#000" stroke-linejoin="round">
   <g stroke-width="5.625">
    <ellipse cx="630.49341" cy="-19.125034" rx="4.609393" ry="6.862875" transform="matrix(.72846687 .68508103 -.68508103 .72846687 0 0)"/>
    <path d="m463.3 335.7s-34.3 61.7-37.7 71.8c-4.7 13.8 4.6 21 12.7 22.7 11.4 2.2 21.7 1.5 35.2-7.3"/>
    <path d="m469.6 424.4c7.9 6.7 16.2-5.5 29.9-19.4 3.5-3.6 8.1-7.3 10.6-9.1 5.1-3.7 11-6.6 18.1-7.5 3.3-.4 6.4-.1 9 .9 2.8 1 5 2.6 6.6 4.7 3.7 5.2 3.1 13.5-5.1 23.4"/>
   </g>
   <path d="m538.7 417.4c-23.5 27.8-43.2 40.9-36.2 56 2.6 5.6 9 8 16.3 7.4" stroke-width="5.624999"/>
   <path d="m518.8 480.8c37.6-1.1 79.5-91.2 114.2-127.7 9.8-10.5 25.1-21.1 37.3-16.2 4.5 1.9 6.4 7.1 6.2 11.3-.3 6.8-3.7 16.8-10.6 30.8l-25.6 52.3" stroke-width="5.625"/>
  </g>
 </g>
</svg>
