<svg height="210mm" viewBox="0 0 1052.4 744.1" width="297mm" xmlns="http://www.w3.org/2000/svg">
 <g fill="none" stroke-linecap="round">
  <g transform="translate(0 -308.26772)">
   <path d="m57.6 742.2h948.8" stroke="#969696" stroke-width="1.875"/>
   <g stroke="#000" stroke-dasharray="3.75 7.5" stroke-miterlimit="2" stroke-width=".9375">
    <path d="m58.3 844.1h948.8"/>
    <path d="m58.3 641.8h948.8"/>
    <path d="m58.3 540.6h948.8"/>
   </g>
  </g>
  <g stroke="#000" stroke-linejoin="round">
   <path d="m400.3 383.8 21.1 47.3" stroke-width="5.625"/>
   <path d="m421.4 431.1 27.5-24.1" stroke-width="5.625"/>
   <path d="m593.5 336.5c-37.9 15.9-82.4 73.4-100.9 89.2-37.6 35.3-62.5 57.5-53.6 57.9 3 .3 9.7-4.2 11-5 10.7-6.1 20.2-15.8 27.8-26.6 28.4-40.2 28.2-94.2-29-45" stroke-width="5.419139"/>
   <g stroke-width="5.625">
    <path d="m568.2 393.9c-43.4 40.7-66.8 44.9-95.9 94.6-11.2 19.3-13 30.9-10.7 38.8 3.2 11 32.8 17.1 60.5-58.6 15.7-47.2 25.8-112.5 71.5-132.1"/>
    <path d="m568.2 393.9c26.3-20.8 48.2-43.5 76-56.6 7.7-3.6 13.2-.8 17.3 7.2 6.5 12.7 4 18.2 12.3 27.2 15.9 17.3 43.8-27.8 34.5-34.3-6.3-4.4-25.9 3.2-49.4 42-40.9 67.5-5.6 57.5 21.7 37.5"/>
    <path d="m634.1 342.3c14.3-7.5 19.9 4.4 23.4 16.1 3.2 10.5 8.7 18 23.9 17.1"/>
    <path d="m647.9 338.8c13.6.7 15.1 28.3 22.1 30"/>
   </g>
  </g>
 </g>
</svg>
