<svg height="210mm" viewBox="0 0 1052.4 744.1" width="297mm" xmlns="http://www.w3.org/2000/svg">
 <g fill="none" stroke-linecap="round">
  <g transform="translate(0 -308.26772)">
   <path d="m57.6 742.2h948.8" stroke="#969696" stroke-width="1.875"/>
   <g stroke="#000" stroke-dasharray="3.75 7.5" stroke-miterlimit="2" stroke-width=".9375">
    <path d="m58.3 844.1h948.8"/>
    <path d="m58.3 641.8h948.8"/>
    <path d="m58.3 540.6h948.8"/>
   </g>
  </g>
  <g stroke="#000">
   <g stroke-linejoin="round" stroke-width="5.625">
    <path d="m531.6 430.9s30.3-35.2 53.1-36.1c18.4-.7 11.1 36.7 39.4 35.5 15.5-.6 18.3-12.3 40-45.1"/>
    <path d="m233.5 431.7c11.2-23.8 35.5-42.1 59.9-44.7 30.4-3.3 45.4 10.8 35.5 44.6"/>
    <path d="m328.8 431.5 169.5-48.5 33.3 47.9"/>
    <path d="m498.3 383 24 48"/>
    <path d="m507.8 383 23.8 47.9"/>
    <path d="m503.9 382.9 24 48"/>
   </g>
   <path d="m500.6 382h7.1" stroke-width="3.75"/>
   <path d="m524 431.9h7.1" stroke-width="3.75"/>
   <g stroke-linejoin="round">
    <path d="m664.1 385.2 28.4-47.4" stroke-width="5.625"/>
    <path d="m692.5 337.8c21.6-28.9 36.1-52.4 56.9-56.8 10.7-2.7 14.3.7 18.7 3.1 7.6 4.3 8 17.2-5.9 41.5l-29.8 52.1" stroke-width="5.624959"/>
   </g>
  </g>
 </g>
</svg>
