<svg height="210mm" viewBox="0 0 1052.4 744.1" width="297mm" xmlns="http://www.w3.org/2000/svg">
 <g fill="none" stroke-linecap="round">
  <g transform="translate(0 -308.26772)">
   <path d="m57.6 742.2h948.8" stroke="#969696" stroke-width="1.875"/>
   <g stroke="#000" stroke-dasharray="3.75 7.5" stroke-miterlimit="2" stroke-width=".9375">
    <path d="m58.3 844.1h948.8"/>
    <path d="m58.3 641.8h948.8"/>
    <path d="m58.3 540.6h948.8"/>
   </g>
  </g>
  <g stroke="#000">
   <g stroke-width="5.625">
    <g stroke-linejoin="round">
     <path d="m639.1 348.4c16.9-17.9 26.9-18.3 33.4-5.7 6.5 12.7 4 18.2 12.3 27.2 15.9 17.3 43.8-27.8 34.5-34.3-6.3-4.4-25.9 3.2-49.4 42-25.8 42.2-22.7 55-9.6 53.5"/>
     <path d="m660.1 431c12.1-1.8 18-4.7 29.2-14.4"/>
     <path d="m689.3 416.6c27.4-24.4 80-89.4 111.8-123.7"/>
     <path d="m801.1 292.9c12.4-13.4 23.1-23.1 29.3-24.4 10.7-2.7 14.3.7 18.7 3.2 7.6 4.3 6 16.1-6 41.5l-29.8 63.3"/>
     <path d="m577.8 335.9s-25.7 52.6-33.8 73c-11 23.6 10.7 26 29 17.9 23-11 44.3-53.9 66.1-78.4"/>
     <path d="m109 431c6.5-2.1 89.6-16.3 171.3-45.5"/>
     <path d="m117.5 415.1c1 .1 1.8.3 2.5.7.2.1.4.2.6.4 1.2.9 1.7 2.6 1 5.2-1.3 5.1-7.1 8-9.8 9-5.7 2-9.8-2.6-6.6-7.6 2-3.1 5.5-6.6 9.7-7.5.3-.1.6-.1.9-.1s.7-.1 1-.1c.8 0 1.6.1 2.4.3"/>
     <path d="m280.3 385.5s90.7-30.7 91.9-34.2c0 0 21.8-15.4 30.1-14.4-48.2 14.9-89.4 109.8-41.4 91.4"/>
    </g>
    <path d="m377.8 350.6c-19.4 22.1-27.3 50.9-33.5 75.3"/>
    <path d="m368.3 357c-7.2-2.5-37.8 63.3-27.6 68.5"/>
    <path d="m369.4 361c-7.2-2.5-35.2 59.8-25.1 65"/>
   </g>
   <path d="m348.8 412.9s-7.3 19.5 7.5 15.9" stroke-width="3.75"/>
   <g stroke-linejoin="round" stroke-width="5.625">
    <path d="m360.8 428.3c10.3-4.4 73.5-26.5 90.3-27.3 16-.6 12.7 30.6 27 30.7 19.3.2 30.9-17.4 48.8-38"/>
    <path d="m813.3 376.5 88.1-40.5 18.2 40.4"/>
    <path d="m526.8 393.7 51-57.8"/>
   </g>
  </g>
 </g>
</svg>
