<svg height="210mm" viewBox="0 0 1052.4 744.1" width="297mm" xmlns="http://www.w3.org/2000/svg">
 <g fill="none" stroke-linecap="round">
  <g transform="translate(0 -308.26772)">
   <path d="m57.6 742.2h948.8" stroke="#969696" stroke-width="1.875"/>
   <g stroke="#000" stroke-dasharray="3.75 7.5" stroke-miterlimit="2" stroke-width=".9375">
    <path d="m58.3 844.1h948.8"/>
    <path d="m58.3 641.8h948.8"/>
    <path d="m58.3 540.6h948.8"/>
   </g>
  </g>
  <g stroke="#000">
   <g stroke-linejoin="round">
    <path d="m620.3 434.1c-27 16.7-90.2 91.8-63 99 11.2 2.5 33.1-7.6 54.5-66.3 15.7-47.2 16.4-112.8 70.4-130.9" stroke-width="5.625"/>
    <path d="m758.2 337.5 46.3 94" stroke-width="5.625"/>
    <path d="m751.8 337.5 46.3 94.1" stroke-width="5.625001"/>
   </g>
   <path d="m798.1 431.6h6.4" stroke-width="5.625"/>
   <path d="m751.8 337.5h6.4" stroke-width="5.625001"/>
   <path d="m756 339.2 44.7 91.2" stroke-linejoin="round" stroke-width="3.75"/>
   <path d="m620.3 434.1 131.5-96.6" stroke-linejoin="round" stroke-width="5.625001"/>
   <path d="m882 383.2-77.5 48.3" stroke-width="5.625001"/>
   <g stroke-linejoin="round">
    <path d="m153.7 430.7c350.2-219 361.2-226.3 378.6-235.4 11.2-5.9 18.6-8 23.1-9.1 3.5-.8 6.6-1.1 9.3-1.1 7.2.1 11.8 3 14.2 8 7.2 15.3-6.2 50.9-28.6 90.5-26.3 44.8-62.9 88.9-90.3 97.3" stroke-width="5.625"/>
    <ellipse cx="402.8595" cy="205.16089" rx="4.609393" ry="6.862875" stroke-width="5.625" transform="matrix(.72846687 .68508103 -.68508103 .72846687 0 0)"/>
    <path d="m460.1 381.1c-4.1 1.5-7-2.5-2.9-5 17-10.2 102.1-33.6 114.1-30.4 18 5.6 13.1 36 30.8 35.9 20.2-.2 46.3-28.1 64-38.1" stroke-width="5.624999"/>
   </g>
  </g>
 </g>
</svg>
