<svg height="210mm" viewBox="0 0 1052.4 744.1" width="297mm" xmlns="http://www.w3.org/2000/svg">
 <g fill="none" stroke-linecap="round">
  <g transform="translate(0 -308.26772)">
   <path d="m57.6 742.2h948.8" stroke="#969696" stroke-width="1.875"/>
   <g stroke="#000" stroke-dasharray="3.75 7.5" stroke-miterlimit="2" stroke-width=".9375">
    <path d="m58.3 844.1h948.8"/>
    <path d="m58.3 641.8h948.8"/>
    <path d="m58.3 540.6h948.8"/>
   </g>
  </g>
  <g stroke="#000" stroke-linejoin="round">
   <path d="m532.6 433.4c-15.7 11.2-35.4 26.2-46.6 36.5-27.2 24.9-44.4 51-41.4 58.7 1.1 2.9 17.7 21.8 57.3-41.8l88-150.7" stroke-width="5.625"/>
   <path d="m360.3 431c-32.7 6.4 86.1-46.6 86.1-46.6l20.2 47.2 123.3-95.6" stroke-width="5.625"/>
   <path d="m360.3 431c3 .3 9.7-4.2 11-5 50.8-29 73.5-137 2.1-66.9" stroke-width="5.419139"/>
   <g stroke-width="5.625">
    <path d="m762.8 381.5s-221.3 43.6-229.8 39.3"/>
    <path d="m539.8 409.9c.7.1 1.3.2 1.8.5.2.1.3.2.4.3.9.7 1.2 1.8.7 3.7-.9 3.6-5 5.6-6.9 6.4-4 1.4-6.9-1.8-4.7-5.4 1.4-2.2 3.9-4.6 6.8-5.2.2 0 .4-.1.6-.1h.7c.6 0 1.1.1 1.7.2"/>
    <ellipse cx="353.49866" cy="787.21063" rx="28.309935" ry="22.415304" transform="matrix(.79083574 -.61202846 .61202846 .79083574 0 0)"/>
   </g>
  </g>
 </g>
</svg>
