<svg height="210mm" viewBox="0 0 1052.4 744.1" width="297mm" xmlns="http://www.w3.org/2000/svg">
 <g fill="none" stroke-linecap="round">
  <g transform="translate(0 -308.26772)">
   <path d="m57.6 742.2h948.8" stroke="#969696" stroke-width="1.875"/>
   <g stroke="#000" stroke-dasharray="3.75 7.5" stroke-miterlimit="2" stroke-width=".9375">
    <path d="m58.3 844.1h948.8"/>
    <path d="m58.3 641.8h948.8"/>
    <path d="m58.3 540.6h948.8"/>
   </g>
  </g>
  <g stroke="#000">
   <path d="m685.1 380.7 86.4-44.7 17.6 42.3" stroke-linejoin="round" stroke-width="5.624999"/>
   <g stroke-width="5.625">
    <g stroke-linejoin="round">
     <path d="m86.5 430.8c43.9-15.9 71.5-94.7 46.6-94.9-7.2-.1-18.9 6.5-35.8 23.2"/>
     <path d="m86.5 430.8c-4.1 1.6-6.6-1.3-2.9-4.3 20.3-16.9 301.7-147.6 377.3-181.9 11.5-5.2 18.6-8 23.1-9.1 3.5-.8 6.6-1.1 9.3-1.1 7.2.1 11.8 3 14.2 8 7.2 15.3-6.2 50.9-28.6 90.5-26.3 44.8-62.9 89.6-90.3 98"/>
     <ellipse cx="136.0563" cy="620.00867" rx="27.110373" ry="21.465513" transform="matrix(.79083574 -.61202846 .61202846 .79083574 0 0)"/>
    </g>
    <path d="m480.7 385.8s26.3-8.4 65.3-28.9c21.7-11.4 45.7-25.3 67.5-41.1 34.2-24.7 57.2-65 52.4-77.4-5.5-14.4-40.3 8.9-87.4 86.8-44.1 76.2-45 106.7-22.4 106.4 31.5-.5 78.5-84.1 107-118.7 15-17.8 26.7-24.6 34.8-24.4 12.4.3 16.1 17.3 9.7 36-14.7 43-41.1 81.5-68 118.4-30.2 41-49 47.1-57.1 40.9-13.5-11.4 4.2-35.9 29.2-55.1 13.2-11.3 50-34.6 73.3-47.8"/>
    <path d="m388.6 431.1c-3.8.8-6.8-1.8-3.4-4.5 3.9-3.1 95.4-40.7 95.4-40.7"/>
    <path d="m789 378.4 171.8-96.2" stroke-linejoin="round"/>
   </g>
  </g>
 </g>
</svg>
