<svg height="210mm" viewBox="0 0 1052.4 744.1" width="297mm" xmlns="http://www.w3.org/2000/svg">
 <g fill="none" stroke-linecap="round">
  <g transform="translate(0 -308.26772)">
   <path d="m57.6 742.2h948.8" stroke="#969696" stroke-width="1.875"/>
   <g stroke="#000" stroke-dasharray="3.75 7.5" stroke-miterlimit="2" stroke-width=".9375">
    <path d="m58.3 844.1h948.8"/>
    <path d="m58.3 641.8h948.8"/>
    <path d="m58.3 540.6h948.8"/>
   </g>
  </g>
  <g stroke="#000">
   <g stroke-linejoin="round" stroke-width="5.625">
    <path d="m328.4 342c64-35.1 128.7-93.9 97.7-104.6-14.6-5-40.2 8.9-87.4 86.8-51.5 89-42 104.6-14.5 106.7 64 4.2 343.1-92.7 343.1-92.7"/>
    <path d="m357.9 414.5c.9.1 1.6.3 2.2.6l.6.3c1.1.8 1.5 2.3.9 4.6-1.2 4.5-6.2 7-8.6 7.9-5 1.8-8.7-2.3-5.8-6.7 1.8-2.8 4.9-5.8 8.5-6.6.2 0 .5-.1.7-.1.3 0 .6-.1.9-.1.7 0 1.4.1 2.1.3"/>
    <path d="m709.4 300.9-77.9 55.8"/>
    <ellipse cx="409.0451" cy="655.64337" rx="62.130169" ry="44.633743" transform="matrix(.88109295 -.47294313 .47294313 .88109295 0 0)"/>
   </g>
   <path d="m727.2 362.3c-13.8 27.9-38.1 52.4-66.8 70.7" stroke-width="5.385754"/>
   <path d="m728.4 371.3c-15.9 21.3-33.1 41.5-54 58.5" stroke-width="5.385754"/>
   <path d="m727.4 377.7c-14.3 21.6-19.7 29.6-41.7 46.5" stroke-width="7.181006"/>
   <g stroke-width="3.590503">
    <path d="m676.1 420.9c-10.1 9.6-24.3 12.2-31.1 10.7"/>
    <path d="m719.1 348.4c2.2 2.5 8.7 12.2 1.3 24.5"/>
   </g>
  </g>
 </g>
</svg>
