<svg height="210mm" viewBox="0 0 1052.4 744.1" width="297mm" xmlns="http://www.w3.org/2000/svg">
 <g fill="none" stroke-linecap="round">
  <g transform="translate(0 -308.26772)">
   <path d="m57.6 742.2h948.8" stroke="#969696" stroke-width="1.875"/>
   <g stroke="#000" stroke-dasharray="3.75 7.5" stroke-miterlimit="2" stroke-width=".9375">
    <path d="m58.3 844.1h948.8"/>
    <path d="m58.3 641.8h948.8"/>
    <path d="m58.3 540.6h948.8"/>
   </g>
  </g>
  <g stroke="#000" stroke-linejoin="round" stroke-width="5.625">
   <path d="m605.6 352.7s-96.4 77.6-113.1 94.1c-6 6-37.8 35.7-42.6 41.8-4 5.1-7.5 10.2-10.4 14.9-7.5 11.9-8.4 18.2-7.7 22.1.9 5.7 14 26.4 57.5-34.6 26.9-36.9 54.5-73.4 69.2-116.4 11.7-28.7-2.6-57.9-37.8-18.2"/>
   <path d="m702.5 370.4c28.2-26 45.4-34.5 61.9-35 19.7-.6 31.1 15.4 23.6 41.1"/>
   <path d="m788.1 376.6s70.3-39 94.4-40.1c24-.8 25.8 41.1 42.2 40.7 10.8-.3 18.5-10 25.1-17.1"/>
   <path d="m605.6 352.7c14.9-11.2 25.4-16.1 39.2-16.8 24-.8 28.1 40.1 44.6 39.7 5-.1 9.3-2.3 13.2-5.2"/>
   <path d="m115.3 431.4c8.3.7 242.7-47.7 242.7-47.7l22.1 47.9"/>
   <path d="m466 361.6c-27.4 33.8-47.1 52.6-39.4 63.9 4.3 6.3 12.8 6.8 22 3.9 9.9-3.2 20.6-10.4 27.7-18.7"/>
   <path d="m428.5 347.2c23.7-19.2 60.9-14.6 37.5 14.4"/>
   <path d="m428.5 347.2c-21.7 15-47.2 82.8-48.4 84.3"/>
   <path d="m141.6 334.7c54.3-11 95.5-79.5 89.2-96.2-5.5-14.4-40.2 8.9-87.4 86.8-47.5 82-46.9 109.4-28 106.1"/>
   <path d="m520.6 356.4c-9 12.3-29.2 38.6-44.4 54.2"/>
  </g>
 </g>
</svg>
