<svg height="210mm" viewBox="0 0 1052.4 744.1" width="297mm" xmlns="http://www.w3.org/2000/svg">
 <g fill="none" stroke-linecap="round">
  <g transform="translate(0 -308.26772)">
   <path d="m57.6 742.2h948.8" stroke="#969696" stroke-width="1.875"/>
   <g stroke="#000" stroke-dasharray="3.75 7.5" stroke-miterlimit="2" stroke-width=".9375">
    <path d="m58.3 844.1h948.8"/>
    <path d="m58.3 641.8h948.8"/>
    <path d="m58.3 540.6h948.8"/>
   </g>
  </g>
  <g stroke="#000" stroke-linejoin="round" stroke-width="5.625">
   <path d="m469.5 431.5c27.9-15.5 120.1-66.7 139.3-85.6 22.3-22 45.9-51 42.3-60.6-5.5-14.4-40.2 8.9-87.4 86.8-29.4 50.9-40.3 80.8-39.9 95.4.3 10.3 8.2 12.5 17.1 11.7 26-4.4 59.8-26.3 74.6-40.9"/>
   <path d="m390.7 431.2c12.3-27 33.8-37.6 49.7-40.3 23-4 37.3 12.5 29.1 40.6"/>
  </g>
 </g>
</svg>
