<svg height="210mm" viewBox="0 0 1204.7 744.1" width="340mm" xmlns="http://www.w3.org/2000/svg">
 <g fill="none" stroke-linecap="round">
  <g transform="translate(0 -308.26772)">
   <path d="m35.1 742.2h1143" stroke="#969696" stroke-width="1.875"/>
   <g stroke="#000" stroke-dasharray="3.75 7.5" stroke-miterlimit="2" stroke-width=".9375">
    <path d="m35.8 844.1h1143"/>
    <path d="m35.8 641.8h1143"/>
    <path d="m35.8 540.6h1143"/>
   </g>
  </g>
  <g stroke="#000">
   <path d="m181 338c-14.4 10.7-26 21.2-37.2 39.5-8.8 14.1-17.7 28.7-20 46.7" stroke-linejoin="round" stroke-width="5.625"/>
   <path d="m195.6 338.2c-9.9-2.9-18.2 4.1-25.7 10.3" stroke-width="2.8125"/>
   <path d="m81.8 431.5c32.1-16.6 84.5-42.4 108.7-65.9 10.8-10.5 12.4-22 7.9-27-5.4-6-30.7-3.9-55.3 36.8-25.4 41.6-22.8 55.9-10.2 56.1" stroke-linejoin="round" stroke-width="5.624999"/>
   <path d="m189.7 336.1c-13.1 1.2-26.3 9.8-34.4 19-9.1 10.3-11.9 13.6-18 22.9-10.2 17.6-22.2 41.6-10.2 51.9" stroke-linejoin="round" stroke-width="5.625"/>
   <path d="m193 337.6c-7-1.3-13.2 2.5-18.2 7" stroke-width="2.8125"/>
   <path d="m137.6 390.5c-8.6 16.5-11.5 26.3-11.4 32 0 2.2.6 3.9 1.4 5 .6.9 1.5 1.7 2.4 2.1.5.2 1 .2 1.6.3" stroke-width="2.8125"/>
   <g stroke-width="5.625">
    <g stroke-linejoin="round">
     <path d="m61.3 384.8 20.5 46.7"/>
     <path d="m132.9 431.5c22.7 0 46.2-13.7 94.5-46.4"/>
     <path d="m227.4 385.1 22.1 46.2"/>
     <path d="m234.6 384.9 22.1 46.2"/>
    </g>
    <path d="m227.4 385.1 7.2-.1"/>
    <path d="m231.4 386.4 21 43.9" stroke-linejoin="round"/>
    <path d="m249.4 431.3 7.2-.1"/>
    <g stroke-linejoin="round">
     <path d="m285.7 430.4c81.9-46.2 316.4-195.1 316.4-195.1"/>
     <ellipse cx="498.66998" cy="115.34948" rx="4.609393" ry="6.862875" transform="matrix(.72846687 .68508103 -.68508103 .72846687 0 0)"/>
     <path d="m553.8 431.1 340-88.9c34.8-9.1 70.6-33.8 88.6-51.9 21.1-21.2 30.1-40.5 25.4-52.6-4.1-10.7-24.5-.5-54.3 37.8-10.1 13-21.5 29.2-33.4 49.3-15.6 26.5-25.4 47.5-31.1 63.3-10.7 29.7-6.6 42.1 4.9 42.2 24.5.4 60.5-29.2 85.7-51.7 22.3-19.9 99.9-95.6 99.9-95.6l-89.2 152.4c-26.1 42.1-39.4 48.7-49.3 43.2-28.8-19.2 51.6-77.6 81.8-98.7l115.6-96"/>
     <path d="m1138.6 283.8 20.5 46.3"/>
    </g>
    <path d="m256.7 431.2 24.3.4"/>
   </g>
  </g>
 </g>
</svg>
