<svg height="210mm" viewBox="0 0 1052.4 744.1" width="297mm" xmlns="http://www.w3.org/2000/svg">
 <g fill="none" stroke-linecap="round">
  <g transform="translate(0 -308.26772)">
   <path d="m57.6 742.2h948.8" stroke="#969696" stroke-width="1.875"/>
   <g stroke="#000" stroke-dasharray="3.75 7.5" stroke-miterlimit="2" stroke-width=".9375">
    <path d="m58.3 844.1h948.8"/>
    <path d="m58.3 641.8h948.8"/>
    <path d="m58.3 540.6h948.8"/>
   </g>
  </g>
  <g stroke="#000" stroke-linejoin="round">
   <path d="m524.1 431.4 113.1-95.2" stroke-width="5.625"/>
   <path d="m637.2 336.2s-31.1 62.1-35.1 72.5c-5.5 14.2 4 22.9 17.2 23 14.1.1 32.4-8.7 46.1-12.4 6.1-1.6 11.8-3.3 16.7-.6" stroke-width="5.624999"/>
   <path d="m684.7 424a5.9 5.9 0 0 1 -5.9 5.9 5.9 5.9 0 0 1 -5.9-5.9 5.9 5.9 0 0 1 5.9-5.9 5.9 5.9 0 0 1 5.9 5.8h-5.9z" stroke-width="6.571438"/>
   <path d="m397.2 390.5c-7.7 26.5 7.5 41.3 29.9 40.4 17.7-.7 39.8-11.4 58.6-33.9 8.5-9.5 19.8-26 28.6-37.2 12-15.3 23.3-23.6 35.4-23.7s19.6 7.8 8.6 30.8c-10.1 21.3-34.1 64.5-34.1 64.5" stroke-width="5.625"/>
  </g>
 </g>
</svg>
