<svg height="210mm" viewBox="0 0 1052.4 744.1" width="297mm" xmlns="http://www.w3.org/2000/svg">
 <g fill="none" stroke-linecap="round">
  <g transform="translate(0 -308.26772)">
   <path d="m57.6 742.2h948.8" stroke="#969696" stroke-width="1.875"/>
   <g stroke="#000" stroke-dasharray="3.75 7.5" stroke-miterlimit="2" stroke-width=".9375">
    <path d="m58.3 844.1h948.8"/>
    <path d="m58.3 641.8h948.8"/>
    <path d="m58.3 540.6h948.8"/>
   </g>
  </g>
  <g stroke-linejoin="round" stroke-width="5.625">
   <path d="m329.5 430.6c14-2.2 248.4-47 248.4-47l20 47.9" stroke="#010000"/>
   <g stroke="#000">
    <path d="m702.8 408.3c2.5-1.7 9.4-6.5 11.8-8 7.5-4.7 14-8.2 17.4-8.4 24.4-1.9 14 42.1 36.5 37.9 9.2-1.7 16.3-8.1 22.6-15.6"/>
    <path d="m598 431.5 87.5-97.1c-13.8 25.3-28.6 50-43 74.9-13.1 23.6 9 26.5 29 17.9 6.3-3.1 16.8-9 31.3-18.9"/>
    <path d="m378.2 335.3c-36.7 11.9-77.9 92.6-53.1 95.5 1.5.1 3 0 4.5-.3"/>
    <path d="m242.2 385.5 21.1 45.9s84.9-82.5 103.4-90.5"/>
   </g>
  </g>
 </g>
</svg>
