<svg height="210mm" viewBox="0 0 1052.4 744.1" width="297mm" xmlns="http://www.w3.org/2000/svg">
 <g fill="none" stroke-linecap="round">
  <g transform="translate(0 -308.26772)">
   <path d="m57.6 742.2h948.8" stroke="#969696" stroke-width="1.875"/>
   <g stroke="#000" stroke-dasharray="3.75 7.5" stroke-miterlimit="2" stroke-width=".9375">
    <path d="m58.3 844.1h948.8"/>
    <path d="m58.3 641.8h948.8"/>
    <path d="m58.3 540.6h948.8"/>
   </g>
  </g>
  <g stroke="#000" stroke-linejoin="round" stroke-width="5.625">
   <path d="m293.3 433.7c-13.9 9.4-45.5 37.1-55.7 51.5-17 24.1-21.2 36.7-16.3 45.6 2.9 5.3 34.7 12.4 62.3-63.4 15.7-47.2 25.8-112.5 71.5-132.1"/>
   <path d="m293.3 433.7c14.7-9 287.6-92.6 322.1-99.7"/>
   <path d="m615.4 334c54.3-11 95.5-79.5 89.2-96.2-5.5-14.4-40.3 8.9-87.4 86.8-47.4 82-47.1 108.5-28.1 106.1 35.9-4.4 147.8-104.1 175.7-136"/>
   <path d="m738.7 433.4c-17.7 8.6-37.3 19.8-51.9 34.5-25.9 26.2-39.9 52.6-36.9 60.3 1.1 2.9 17.7 21.8 57.3-41.8l88-150.7"/>
   <path d="m738.7 433.4c31.6-12.4 86.6-32.1 103.4-32.9 16-.6 21.6 31 32.6 30.7 7.2-.2 12.4-7.6 16.7-13"/>
   <path d="m764.7 294.8c19.5-22.3 30.4-47.1 26.9-56.3-5.5-14.4-40.2 8.9-87.4 86.8-69.6 120.2-36 123.1 7.3 84"/>
   <path d="m711.4 409.3 83.8-73.6"/>
  </g>
 </g>
</svg>
