<svg height="210mm" viewBox="0 0 1052.4 744.1" width="297mm" xmlns="http://www.w3.org/2000/svg">
 <g fill="none" stroke-linecap="round">
  <g transform="translate(0 -308.26772)">
   <path d="m57.6 742.2h948.8" stroke="#969696" stroke-width="1.875"/>
   <g stroke="#000" stroke-dasharray="3.75 7.5" stroke-miterlimit="2" stroke-width=".9375">
    <path d="m58.3 844.1h948.8"/>
    <path d="m58.3 641.8h948.8"/>
    <path d="m58.3 540.6h948.8"/>
   </g>
  </g>
  <g stroke="#000" stroke-linejoin="round" stroke-width="5.625">
   <path d="m370.2 380.4c11.5-14.6 26.2-42.3 55.2-43.5 16.5-1.2 20.1 10.2 1.6 42.5l-29.8 52.1"/>
   <path d="m397.2 431.5 80.1-41.3-59.9 96"/>
   <path d="m310.9 383.7 24 48"/>
   <path d="m247.8 422.6c.6.1 1.1.2 1.5.4.1.1.3.1.4.2.7.6 1 1.5.6 3.1-.8 3-4.2 4.7-5.8 5.3-3.3 1.2-5.8-1.5-3.9-4.5 1.2-1.8 3.3-3.9 5.7-4.4.2 0 .3-.1.5-.1h.6c.5 0 1 .1 1.4.2"/>
   <path d="m247.3 430.9c11.1-.5 63.6-47.2 63.6-47.2"/>
   <path d="m370.2 380.4-35.3 51.2"/>
   <path d="m517.7 435.4-55.8 97.2"/>
   <path d="m517.7 435.4h-10.6"/>
   <path d="m512.1 435.4-55.8 97.2"/>
   <path d="m461.9 532.6h-10.6"/>
   <path d="m417.4 486.3 89.7-50.8-55.8 97.2 11-.1c55.8-21.4 160.7-62.7 207.9-82.9"/>
   <path d="m671 449.3c37-20.1 60.9-14.6 37.5 14.4-27.4 33.8-45.5 50.2-39.4 63.9 4.2 9.6 23.1 7.2 36.5-3.7l8-6.5"/>
   <path d="m798.4 438.8-55.8 97.2"/>
   <path d="m798.4 438.8h-10.6"/>
   <path d="m792.8 438.8-55.8 97.2"/>
   <path d="m742.6 536h-10.6"/>
   <path d="m713.5 517.4 74.3-78.6-55.8 97.2 11-.1"/>
  </g>
 </g>
</svg>
