<svg height="210mm" viewBox="0 0 1052.4 744.1" width="297mm" xmlns="http://www.w3.org/2000/svg">
 <g fill="none" stroke="#000" stroke-linecap="round">
  <g transform="translate(0 -308.26772)">
   <path d="m57.6 742.2h948.8" stroke-width="1.875"/>
   <g stroke-dasharray="3.75 7.5" stroke-miterlimit="2" stroke-width=".9375">
    <path d="m58.3 844.1h948.8"/>
    <path d="m58.3 641.8h948.8"/>
    <path d="m58.3 540.6h948.8"/>
   </g>
  </g>
  <g stroke-width="5.625">
   <g stroke-linejoin="round">
    <path d="m312.4 431c16.3-23.6 34.7-49.5 55.9-70.3 10.7-10 28.6-25.4 45.1-24.8 11.5.6 18.5 14.4 1.1 43.5l-31.2 52.3"/>
    <path d="m383.2 431.7 271.3-34.5"/>
    <path d="m733.3 350.9c-22 27.2-49.3 80.2-65.9 80.7-8.3.2-13.8-14.4-12.9-34.4"/>
   </g>
   <path d="m835.1 168.3-101.8 182.6"/>
   <path d="m772.2 346.4a19.2 25.1 41.6 0 1 -14.3 31.3 19.2 25.1 41.6 0 1 -27.6-6.8 19.2 25.1 41.6 0 1 14.3-31.3 19.2 25.1 41.6 0 1 27.6 6.8z" stroke-linejoin="round"/>
  </g>
 </g>
</svg>
