<svg height="210mm" viewBox="0 0 1052.4 744.1" width="297mm" xmlns="http://www.w3.org/2000/svg">
 <g fill="none" stroke-linecap="round">
  <g transform="translate(0 -308.26772)">
   <path d="m57.6 742.2h948.8" stroke="#969696" stroke-width="1.875"/>
   <g stroke="#000" stroke-dasharray="3.75 7.5" stroke-miterlimit="2" stroke-width=".9375">
    <path d="m58.3 844.1h948.8"/>
    <path d="m58.3 641.8h948.8"/>
    <path d="m58.3 540.6h948.8"/>
   </g>
  </g>
  <g stroke="#000" stroke-linejoin="round">
   <path d="m438.6 335.8-46.6 95.4" stroke-width="5.624999"/>
   <path d="m538.7 284.9-47.7 97.9" stroke-width="5.624999"/>
   <ellipse cx="647.6568" cy="-72.047768" rx="4.609393" ry="6.862875" stroke-width="5.625" transform="matrix(.72846687 .68508103 -.68508103 .72846687 0 0)"/>
   <path d="m538.7 284.9-146.7 146.3" stroke-width="5.624999"/>
   <g stroke-width="5.625">
    <path d="m491 382.8c13.8.4 30.3 0 34.1 2.8"/>
    <path d="m519.3 386.9 47.2-51.3"/>
    <path d="m591.1 482.2c24.4-11 37.7-23.5 37-43.2-.9-26.6-61.5-103.3-61.5-103.3"/>
   </g>
  </g>
 </g>
</svg>
