<svg height="210mm" viewBox="0 0 1052.4 744.1" width="297mm" xmlns="http://www.w3.org/2000/svg">
 <g fill="none" stroke-linecap="round">
  <g transform="translate(0 -308.26772)">
   <path d="m57.6 742.2h948.8" stroke="#969696" stroke-width="1.875"/>
   <g stroke="#000" stroke-dasharray="3.75 7.5" stroke-miterlimit="2" stroke-width=".9375">
    <path d="m58.3 844.1h948.8"/>
    <path d="m58.3 641.8h948.8"/>
    <path d="m58.3 540.6h948.8"/>
   </g>
  </g>
  <g stroke="#000">
   <g stroke-width="5.625">
    <g stroke-linejoin="round">
     <path d="m486.9 336.5s-103.5 61.8-105.2 64.4"/>
     <ellipse cx="55.39016" cy="566.44849" rx="19.945965" ry="15.792861" transform="matrix(.79083574 -.61202846 .61202846 .79083574 0 0)"/>
     <path d="m377.3 379.6 24.3 18.5"/>
     <path d="m441.9 435.3c-15.9 11.5-27.4 19.9-42 34.5-25.9 26.2-34.9 47.2-31.9 54.9 1.1 2.9 10.2 26.1 49.7-37.6l83.3-151.7-13.2.5"/>
    </g>
    <path d="m487.8 336-90.5 178.4"/>
    <path d="m494.9 339-83.7 157.4"/>
    <path d="m491.9 337.9-90.7 170.5"/>
   </g>
   <path d="m406.1 494.9c-6.5 14.2-17.5 27.2-25.3 34.2" stroke-width="3.75"/>
   <g stroke-linejoin="round">
    <path d="m592.1 413.4c1.3-1.3 4-3.6 5.4-4.8 49-43.1 92-27.8 76 23.3" stroke-width="5.625"/>
    <path d="m592.1 413.4c-44 33.6-81.9 17.3-69-23.1" stroke-width="5.886468"/>
    <g stroke-width="5.625">
     <path d="m673.4 431.9 67.2-46.4 20.7 46.3"/>
     <path d="m441.9 435.3 81.1-45"/>
    </g>
   </g>
  </g>
 </g>
</svg>
