<svg height="210mm" viewBox="0 0 1559.1 744.1" width="440mm" xmlns="http://www.w3.org/2000/svg">
 <g fill="none" stroke-linecap="round" transform="translate(0 -308.26772)">
  <path d="m31 742.2h1488.7" stroke="#969696" stroke-width="1.875"/>
  <g stroke="#000" stroke-dasharray="3.75 7.5" stroke-miterlimit="2" stroke-width=".9375">
   <path d="m31.8 844.1h1488.6"/>
   <path d="m31.8 641.8h1488.6"/>
   <path d="m31.8 540.6h1488.6"/>
  </g>
 </g>
 <g fill="none" stroke="#000" stroke-linecap="round">
  <g stroke-linejoin="round">
   <path d="m428.9 330.2c19.9-19.3 47.6-44.5 60-55.6 20.4-18.2 37-32.6 48-37.1 7.9-3.2 20.9-5.6 24.9 5.6 6.3 21.2-23.2 77.5-58.6 87.3" stroke-width="5.625"/>
   <path d="m503.2 330.4c-5.2 1-6 0-4.1-2.8 5.5-7.7 105.2-92.7 124.2-92.5 5.4.1 9.4 2.3 12.6 8.6 6.5 12.7 4 18.2 12.3 27.2 15.9 17.3 43.8-27.8 34.5-34.3-6.3-4.4-25.9 3.2-49.4 42-20.1 35.4-19.6 51.9-4.6 52.3 5.9.2 14.7-4.5 25.1-10.2" stroke-width="5.625"/>
   <path d="m122.8 336c-33 8.6-63.5 54.8-62.8 79.6.1 3.5.8 6.6 2.3 9.1 4.3 7.5 13.5 7.4 22 5.6 4.1-.9 6-1.3 11.2-3.3 20.9-8.2 106.1-60.2 154.9-88.4 68.3-39.4 152-85.8 176.1-96.7 6.9-3.1 14.8-5.7 21.4-6.4 8.8-.6 14.6 0 18.6 4.5 2.5 2.8 3.8 7.2 2.6 13.4-1.2 6.1-4.9 13.9-10.8 24.5l-29.4 52.3" stroke-width="5.624999"/>
   <g stroke-width="5.625">
    <ellipse cx="1052.6012" cy="-406.39828" rx="4.609393" ry="6.862875" transform="matrix(.72846687 .68508103 -.68508103 .72846687 0 0)"/>
    <path d="m1043.5 431c176.7-18.8 226.9-26.2 273.1-35.6 18-3.6 42.5-14.8 63.4-26.2 19.5-11 33.9-21.1 45-39 10.3-16.8 13.5-32.9 10.9-39.7-5.5-14.4-40.3 8.9-87.6 86.9-44.2 76.4-40.1 107.3-24.3 106.5"/>
   </g>
  </g>
  <path d="m1417.7 293.6c-43.7 54.6-78.5 106.6-101.6 161.7" stroke-width="5.625"/>
  <path d="m1406.7 303.7c-32.6 38.3-62.7 81.7-84.4 130.9" stroke-width="7.5"/>
  <path d="m1435.4 292c-4.7-13.1-19.7 5.3-27 14.8" stroke-width="3.75"/>
  <g stroke-linejoin="round">
   <path d="m1319.3 448.1c-5.3 12.1-10.2 32.9 4 35.9 2.5.5 6.6-.1 10-.8" stroke-width="5.625"/>
   <path d="m1333.3 483.1c34.8-10 94.3-123.6 136.3-144.4 4.4-1.9 7-3.9 11.7-3.5 10.5 1.2 16.5 8.2 15.8 17-.4 3.7-1.6 8.3-3.7 13.7-9.9 21.8-22.7 42.9-34.9 64.9" stroke-width="5.625"/>
   <path d="m873.3 335.9c-33 8.6-63.5 54.8-62.8 79.6.1 3.5.8 6.6 2.3 9.1 6.3 11.1 23.6 5.6 32.9 2.5 10.2-3.5 26.8-12.3 47.8-23.4 17.9-9.4 269.6-168.4 269.6-168.4" stroke-width="5.624999"/>
  </g>
 </g>
 <circle cx="751.40015" cy="358.64917" r="10.653956"/>
 <circle cx="736.01056" cy="407.66479" r="10.653956"/>
</svg>
