<svg height="210mm" viewBox="0 0 1052.4 744.1" width="297mm" xmlns="http://www.w3.org/2000/svg">
 <g fill="none" stroke-linecap="round">
  <g transform="translate(0 -308.26772)">
   <path d="m57.6 742.2h948.8" stroke="#969696" stroke-width="1.875"/>
   <g stroke="#000" stroke-dasharray="3.75 7.5" stroke-miterlimit="2" stroke-width=".9375">
    <path d="m58.3 844.1h948.8"/>
    <path d="m58.3 641.8h948.8"/>
    <path d="m58.3 540.6h948.8"/>
   </g>
  </g>
  <g stroke="#000" stroke-linejoin="round" stroke-width="5.625">
   <path d="m185.7 431c50.4-62.7 112.5-57.4 93.9.3 0 0 31.2-58.5 38.3-74.8.3-.8 3.2-7.1 3.6-7.8 1.3-2.5 2-6 .4-8.6-1.2-1.9-4.7-3.9-8.2-2.5-3.5 1.5-4.6 4.9-4.6 4.9-.5 2.7 0 3.6.5 4.6.5 1.1 1.9 2.4 3.4 3.2 3.2 1.6 8.2 1.9 14.8 1.6 8.3-.3 241.2-16.3 241.2-16.3"/>
   <path d="m568.9 335.7c-52.1 13.6-97.3 125.2-33.5 89.6 29.2-17.1 67-57 100.3-90.6"/>
   <path d="m646.2 334.6-55.8 97.2"/>
   <path d="m646.2 334.6h-10.6"/>
   <path d="m640.7 334.6-55.8 97.2"/>
   <path d="m590.4 431.8h-10.6"/>
   <path d="m635.7 334.6-55.8 97.2 11-.1"/>
   <path d="m687.9 413.5c-15.2 10.3-30.1 20.4-32.4 21.9-38.6 25.5-76 80.2-67.6 95.4 2.9 5.3 34.7 12.4 62.3-63.3 15.8-47.4 16.5-113.3 70.8-131.6"/>
   <path d="m687.9 413.5c13.3-8.6 25.1-18.6 39.5-22.5 8-.7 9.7 2.1 13 8.5 6.5 12.7 4 18.2 12.3 27.2 15.9 17.3 43.8-27.8 34.5-34.3-6.3-4.4-25.9 3.2-49.4 42-28.9 47.3-15.7 53-4.6 52.3 27.6-1.7 39.7-10.6 75.2-39.5"/>
   <path d="m701.6 345.5c-11.4 6.4-110.8 86.3-110.8 86.3"/>
  </g>
 </g>
</svg>
