<svg height="210mm" viewBox="0 0 1052.4 744.1" width="297mm" xmlns="http://www.w3.org/2000/svg">
 <g fill="none" stroke-linecap="round">
  <g transform="translate(0 -308.26772)">
   <path d="m57.6 742.2h948.8" stroke="#969696" stroke-width="1.875"/>
   <g stroke="#000" stroke-dasharray="3.75 7.5" stroke-miterlimit="2" stroke-width=".9375">
    <path d="m58.3 844.1h948.8"/>
    <path d="m58.3 641.8h948.8"/>
    <path d="m58.3 540.6h948.8"/>
   </g>
  </g>
  <g stroke="#000" stroke-linejoin="round">
   <path d="m78.6 422.3c.6.2 1.1.4 1.5.7.1.1.3.2.4.3.7.8.8 1.9 0 3.5-1.5 3.1-5.5 4.3-7.4 4.6-3.9.6-6-2.9-3.3-5.7 1.7-1.8 4.3-3.6 7.1-3.6h.6c.2 0 .5 0 .7.1.5.1 1 .3 1.5.5" stroke-width="5.625"/>
   <path d="m76.4 430.5 279.1-131.7" stroke-width="5.625"/>
   <path d="m348 377.3c47.1-21.9 93-113.8 38.4-93.6-5.1 1.7-20.5 9.7-30.9 15.1" stroke-width="5.419139"/>
   <g stroke-width="5.625">
    <path d="m348 377.3c-17.9.3 122.3-96.2 122.3-96.2"/>
    <path d="m490.4 340.4c12.9-13.7 93.5-106.2 93.5-106.2"/>
    <path d="m470.3 281-42.4 73.1c-11.9 20.5 8.4 28.4 31.3 14.4 13.8-9.8 31.2-28.1 31.2-28.1"/>
    <path d="m583.9 234.2-42.4 73.1c-4.9 8.4-4.4 14.7-.5 18.2 5.6 5.1 23.9 7.3 37.5-1"/>
    <path d="m583.2 312.5c.7.1 1.4.2 1.9.5.2.1.3.2.5.3.9.7 1.3 1.9.7 3.9-1 3.8-5.3 6-7.4 6.8-4.3 1.5-7.4-2-5-5.8 1.5-2.4 4.2-5 7.3-5.6.2-.1.4-.1.6-.1.3 0 .5-.1.8-.1.6 0 1.2.1 1.8.3"/>
    <path d="m916.8 179.8s-242.7 85.8-260.2 86.7"/>
    <path d="m916.8 179.8-55.8 101"/>
    <path d="m861 280.7c78.8-64.1 155.2-58.4 136.8.6"/>
    <path d="m656.6 266.5c-12.8 1.6-11.2-4.2-2.5-32"/>
    <path d="m654.1 234.5-67.5 83.6"/>
   </g>
  </g>
 </g>
</svg>
