<svg height="210mm" viewBox="0 0 1052.4 744.1" width="297mm" xmlns="http://www.w3.org/2000/svg">
 <g fill="none" stroke-linecap="round">
  <g transform="translate(0 -308.26772)">
   <path d="m57.6 742.2h948.8" stroke="#969696" stroke-width="1.875"/>
   <g stroke="#000" stroke-dasharray="3.75 7.5" stroke-miterlimit="2" stroke-width=".9375">
    <path d="m58.3 844.1h948.8"/>
    <path d="m58.3 641.8h948.8"/>
    <path d="m58.3 540.6h948.8"/>
   </g>
  </g>
  <g stroke-linejoin="round">
   <path d="m847.1 383.7 97.1-48.4 22.4 49.9" stroke="#000c00" stroke-width="5.625"/>
   <g stroke="#000">
    <path d="m758 383.3c27-2.6 71-66.1 84.8-81.9 7.4-7.5 16.3-12.9 26.7-13.5 3.1 0 5.5.2 8.3 1.6 4.8 2.2 5.8 7 5.7 11-.3 6.8-3.7 16.8-10.6 30.8l-25.6 52.3" stroke-width="5.624999"/>
    <path d="m879.5 311.7-40.3 71.8" stroke-width="5.624999"/>
    <path d="m862.4 343.3-19.4 39.7" stroke-width="3.75"/>
    <path d="m839.3 383.5 7.9.2" stroke-width="5.624999"/>
   </g>
  </g>
  <path d="m878.9 291.1c4 2.2 5.8 10.2-2.4 24.3" stroke="#000" stroke-width="3.749999"/>
  <g stroke-linejoin="round">
   <path d="m774.2 288.3s-29.9 59.2-34.5 70.3c-6.6 16.3 3.5 25.3 18.3 24.7" stroke="#040000" stroke-width="5.624999"/>
   <g stroke="#000">
    <path d="m427.8 383.3c39-66.1 104.7-58.8 95.5-.1" stroke-width="5.625"/>
    <path d="m573.4 382.7c25-11.8 63.9-29.6 81.6-30.5 16.8-.7 14.8 30.3 34.2 30.4 19.8.1 41-34.9 85-94.2" stroke-width="5.625"/>
    <path d="m619.9 287.3-46.6 95.4" stroke-width="5.624999"/>
    <path d="m523.2 383.2 96.7-95.9" stroke-width="5.624999"/>
    <path d="m407.3 337 20.5 46.3" stroke-width="5.625"/>
    <path d="m294.5 306.2c13-8.2 26.5-15.2 34.1-18 2-.7 4-1.3 5.8-1.8 3-.8 5.9-1 8.6-1 13 .1 21.2 10.7 7.1 27-27.8 32.3-46.4 47.9-38.7 62.2 2.5 4.5 8 6 15 6 22 0 48.1-21.2 81-43.7" stroke-width="5.625"/>
    <path d="m90.9 431.4 203.6-125.2" stroke-width="5.624999"/>
   </g>
  </g>
 </g>
</svg>
