<svg height="210mm" viewBox="0 0 1052.4 744.1" width="297mm" xmlns="http://www.w3.org/2000/svg">
 <g fill="none" stroke-linecap="round">
  <g transform="translate(0 -308.26772)">
   <path d="m57.6 742.2h948.8" stroke="#969696" stroke-width="1.875"/>
   <g stroke="#000" stroke-dasharray="3.75 7.5" stroke-miterlimit="2" stroke-width=".9375">
    <path d="m58.3 844.1h948.8"/>
    <path d="m58.3 641.8h948.8"/>
    <path d="m58.3 540.6h948.8"/>
   </g>
  </g>
  <g stroke="#000">
   <path d="m309.3 335.8s-34.9 62.1-38.9 72.5c-5.5 14.2 1.8 23.1 15 23 22.7 0 46.3-32.3 57.8-45 14.9-16.4 29.2-36.1 48.1-45.6 3.4-1.7 6.8-2.6 9.9-3.5 3-.8 5.9-1 8.6-1 13 .1 20.7 10.2 7.1 27-26.6 32.9-44.6 48.9-38.7 62.2 2.1 4.7 8 6.3 15 6" stroke-linejoin="round" stroke-width="5.625"/>
   <path d="m417.3 337.7c15.4 7.9 4.2 30.4-12.1 46.3-14 13.6-22.7 25.7-28.7 37.7" stroke-width="5.472634"/>
   <path d="m417.5 339.2c.8-1.1 3.6 6 .5 13.9-3.2 8.2-12.5 19.1-17.8 24.2-10.5 9.9-29.8 28.2-23.7 44.5" stroke-width="5.472634"/>
   <g stroke-width="2.736317">
    <path d="m407.1 337.7c13.9-1.2 10.5 8.5 10.3 13.7"/>
    <path d="m383.8 411.8c-3.2 4.4-7.2 16.1 2.6 17.8"/>
    <path d="m374 415.9c-.1 5.5 2.8 11.2 4.7 12.8"/>
   </g>
   <g stroke-linejoin="round" stroke-width="5.625">
    <path d="m608.1 247.7c-8.5 9.5-14.8 13.2-19.6 13.3-15.1.5-17.9-26.7-31.3-26.1-12.4.5-22.4 12.9-30.6 25.8-36.7 57.2-65 106.3-95.6 145.8-10.4 12.4-24.1 25.7-37.9 24.8"/>
    <path d="m766.3 157.5c-7.7 7.3-16 13.6-27.8 15-7.3.8-13.7-1.8-16.3-7.4-7.2-15.5 13.7-29.8 38-59.3 8.2-9.9 8.8-18.2 5.1-23.4-1.5-2.2-3.8-3.8-6.6-4.7-2.6-.9-5.7-1.2-9-.9-5.1.6-9.6 2.3-13.6 4.6-3.9 2.2-7.2 5.1-10.5 7.7-7.6 6.1-18.4 21.2-27.8 34.5-25.6 36.3-64.2 94.9-89.7 124.1"/>
   </g>
  </g>
 </g>
</svg>
