<svg height="210mm" viewBox="0 0 1052.4 744.1" width="297mm" xmlns="http://www.w3.org/2000/svg">
 <g fill="none" stroke-linecap="round">
  <g transform="translate(0 -308.26772)">
   <path d="m57.6 742.2h948.8" stroke="#969696" stroke-width="1.875"/>
   <g stroke="#000" stroke-dasharray="3.75 7.5" stroke-miterlimit="2" stroke-width=".9375">
    <path d="m58.3 844.1h948.8"/>
    <path d="m58.3 641.8h948.8"/>
    <path d="m58.3 540.6h948.8"/>
   </g>
  </g>
  <g stroke="#000" stroke-linejoin="round" stroke-width="5.625">
   <path d="m654.7 394.2c12.9-13.8 93.5-106.2 93.5-106.2"/>
   <path d="m632.7 336.7-42.4 73.1c-11.9 20.5 8.4 28.4 31.3 14.4 13.8-9.8 33.1-30 33.1-30"/>
   <path d="m748.2 288-42.4 73.1c-4.9 8.4-4.4 14.7-.5 18.2 5.6 5.1 23.9 7.3 37.5-1"/>
   <path d="m747.1 362.8c1 .1 1.9.3 2.6.7.2.1.5.3.7.4 1.3 1 1.8 2.7 1 5.4-1.4 5.3-7.4 8.4-10.3 9.4-5.9 2.1-10.3-2.7-6.9-8 2.1-3.3 5.8-6.9 10.1-7.8.3-.1.6-.1.9-.1.4 0 .7-.1 1.1-.1.8 0 1.7.1 2.5.4"/>
   <path d="m411 344.1s-4.5 6.3 3.2-4.2 15.5-21.2 15.9-21.6c2.7-3.5 5.3-6.7 7.7-9.6 2-2.4 3.9-4.5 5.8-6.4 16.9-17.9 26.9-18.3 33.4-5.7 6.5 12.7 4.8 17.5 12.3 27.2 18.7 24.4 44.2-26.9 34.5-34.3-6.1-4.6-25.9 3.2-49.4 42-41.8 68.4 2.2 56.8 28.3 39.9 12.6-9 19.8-15.3 26.2-21.5"/>
   <path d="m528.8 349.9 14.9-13.7 23.9 47.9"/>
   <path d="m254.5 431.2c50.4-65.5 116.6-59.6 98.2-.6-.4 1.2 58.4-86.5 58.4-86.5"/>
   <path d="m567.6 384.1 65.1-47.4"/>
  </g>
 </g>
</svg>
