<svg height="210mm" viewBox="0 0 1052.4 744.1" width="297mm" xmlns="http://www.w3.org/2000/svg">
 <g fill="none" stroke-linecap="round">
  <g transform="translate(0 -308.26772)">
   <path d="m57.6 742.2h948.8" stroke="#969696" stroke-width="1.875"/>
   <g stroke="#000" stroke-dasharray="3.75 7.5" stroke-miterlimit="2" stroke-width=".9375">
    <path d="m58.3 844.1h948.8"/>
    <path d="m58.3 641.8h948.8"/>
    <path d="m58.3 540.6h948.8"/>
   </g>
  </g>
  <g stroke="#000" stroke-linejoin="round" stroke-width="5.625">
   <path d="m446.3 410.2 34.3-29.8 22.4 50.2"/>
   <path d="m460.9 335.9c-56.6 14.8-104.6 143.3-14.6 74.3"/>
   <path d="m503 430.7c67-73.8 197.2-183.4 165.2-194.4-14.6-5-39.2 11.2-86.4 89.1-45.3 78.3-42.8 106.9-24.3 106.1 20.9-.9 41.7-29.9 63-58.3"/>
   <path d="m365.6 417c31.2-38.2 66.2-73.8 95.3-81.1"/>
   <path d="m254.8 430.9c3-4.3 23.1-25.2 29.3-30.2 23.7-19.2 60.9-14.6 37.5 14.4-27.4 33.8-45.5 50.2-39.4 63.9 4.2 9.5 27.3 7.5 39.5-4.7 11-11 43.9-57.3 43.9-57.3"/>
   <path d="m620.5 373.1c19.4-26.5 32.5-37.3 41.7-37.8 4.9-.3 8.7 2.8 11.7 8.7 6.5 12.7 4 16.8 12.3 25.8 15.9 17.3 43.8-26.5 34.5-33-6.3-4.4-25.9 1.9-49.4 40.6-45 73.7-2.1 57.8 28.4 32.3"/>
  </g>
 </g>
</svg>
