<svg height="210mm" viewBox="0 0 1052.4 744.1" width="297mm" xmlns="http://www.w3.org/2000/svg">
 <g fill="none" stroke-linecap="round">
  <g transform="translate(0 -308.26772)">
   <path d="m57.6 742.2h948.8" stroke="#969696" stroke-width="1.875"/>
   <g stroke="#000" stroke-dasharray="3.75 7.5" stroke-miterlimit="2" stroke-width=".9375">
    <path d="m58.3 844.1h948.8"/>
    <path d="m58.3 641.8h948.8"/>
    <path d="m58.3 540.6h948.8"/>
   </g>
  </g>
  <g stroke="#000" stroke-linejoin="round" stroke-width="5.625">
   <path d="m573 431.5s67.8-35.9 87.9-35.6c17.3.5 23.1 35.8 35.7 35.5 8.3-.2 14.3-8.7 19.3-15"/>
   <path d="m398.2 431.8c-16.6 1.4 123.6-95.8 123.6-95.8l51.2 95.5"/>
   <path d="m406.2 364c11.4-11.1 25.8-27.4 42.8-27.7 18.3-.4 4.9 46.4-21 75-5.3 5.5-21.8 20.4-29.8 20.6"/>
  </g>
 </g>
</svg>
