<svg height="210mm" viewBox="0 0 1052.4 744.1" width="297mm" xmlns="http://www.w3.org/2000/svg">
 <g fill="none" stroke-linecap="round">
  <g transform="translate(0 -308.26772)">
   <path d="m57.6 742.2h948.8" stroke="#969696" stroke-width="1.875"/>
   <g stroke="#000" stroke-dasharray="3.75 7.5" stroke-miterlimit="2" stroke-width=".9375">
    <path d="m58.3 844.1h948.8"/>
    <path d="m58.3 641.8h948.8"/>
    <path d="m58.3 540.6h948.8"/>
   </g>
  </g>
  <g stroke="#000" stroke-linejoin="round">
   <g stroke-width="5.625">
    <path d="m664.6 409.9 88.3-174.3"/>
    <path d="m446.6 431.5c43.9-15.9 71.5-94.7 46.6-94.9-7.2-.1-18.9 6.5-35.8 23.2"/>
    <path d="m555.3 431.9 72.5-95.8"/>
    <path d="m446.6 431.5c-4.9 1.5-6.9-1.1-3.9-4 7.4-7.3 90.7-40.5 90.7-40.5"/>
   </g>
   <path d="m533.3 387 22 44.9" stroke-width="5.624999"/>
   <g stroke-width="5.625">
    <path d="m627.9 336.1s-29.9 59.2-34.5 70.3c-2.6 6.3-2.6 11.4-1 15.3 1.4 3.5 4.1 6 7.3 7.5 12.1 6.4 38.9-1.8 45.6-3.8"/>
    <ellipse cx="261.60178" cy="713.2403" rx="25.728558" ry="20.371418" transform="matrix(.79083574 -.61202846 .61202846 .79083574 0 0)"/>
   </g>
  </g>
 </g>
</svg>
