<svg height="210mm" viewBox="0 0 1052.4 744.1" width="297mm" xmlns="http://www.w3.org/2000/svg">
 <g fill="none" stroke-linecap="round">
  <g transform="translate(0 -308.26772)">
   <path d="m57.6 742.2h948.8" stroke="#969696" stroke-width="1.875"/>
   <g stroke="#000" stroke-dasharray="3.75 7.5" stroke-miterlimit="2" stroke-width=".9375">
    <path d="m58.3 844.1h948.8"/>
    <path d="m58.3 641.8h948.8"/>
    <path d="m58.3 540.6h948.8"/>
   </g>
  </g>
  <g stroke="#000" stroke-linejoin="round">
   <path d="m474.3 422.3 85.6-32-51.1 94.9" stroke-width="5.625"/>
   <g stroke-width="5.624959">
    <path d="m462.8 360.4c9.3-12.6 18-18.1 26.2-21.7 24.8-6.8 35 2.5 12.3 40.5l-29.8 52.1"/>
    <path d="m476 411.1c.8.1 1.4.3 1.9.5.2.1.4.2.5.3.9.8 1.3 2 .7 4-1 3.9-5.5 6.1-7.6 7-4.3 1.6-7.5-2-5-5.8 1.5-2.4 4.2-5.1 7.4-5.8.2 0 .4-.1.6-.1.3 0 .5-.1.8-.1.6 0 1.3.1 1.9.3"/>
   </g>
  </g>
 </g>
</svg>
