<svg height="210mm" viewBox="0 0 1052.4 744.1" width="297mm" xmlns="http://www.w3.org/2000/svg">
 <g fill="none" stroke-linecap="round">
  <g transform="translate(0 -308.26772)">
   <path d="m57.6 742.2h948.8" stroke="#969696" stroke-width="1.875"/>
   <g stroke="#000" stroke-dasharray="3.75 7.5" stroke-miterlimit="2" stroke-width=".9375">
    <path d="m58.3 844.1h948.8"/>
    <path d="m58.3 641.8h948.8"/>
    <path d="m58.3 540.6h948.8"/>
   </g>
  </g>
  <g stroke="#000" stroke-linejoin="round" stroke-width="5.625">
   <path d="m404.8 352.7c2.5-2.7 4.9-5 7.1-7 14.3-12.8 23.2-11.7 30.1-2.6 8.9 11.6 4.1 18.7 12.6 27.9 16.3 17.8 44-25.1 34.4-31.8-5.9-4.1-24.9-1.4-46.4 29.2-5.4 5.7-33.2 62.5-33.2 62.5"/>
   <path d="m409.4 430.9c57-32.7 106.8-78.5 155.2-130.2 11.1-9.8 20.4-17.3 27.1-20.2 10.7-2.7 14.3.7 18.7 3.2 7.6 4.3 8 17.2-6 41.5l-29.8 52.1"/>
   <path d="m322.5 383 22.1 47.9s53.9-71.3 60.3-78.2"/>
   <path d="m574.5 377.3s66.5-39.9 90.6-41c23-.4 20.6 35.8 37 35.4 10.8-.3 18.5-10 25.1-17.1"/>
  </g>
 </g>
</svg>
