<svg height="210mm" viewBox="0 0 1052.4 744.1" width="297mm" xmlns="http://www.w3.org/2000/svg">
 <g fill="none" stroke-linecap="round">
  <g transform="translate(0 -308.26772)">
   <path d="m57.6 742.2h948.8" stroke="#969696" stroke-width="1.875"/>
   <g stroke="#000" stroke-dasharray="3.75 7.5" stroke-miterlimit="2" stroke-width=".9375">
    <path d="m58.3 844.1h948.8"/>
    <path d="m58.3 641.8h948.8"/>
    <path d="m58.3 540.6h948.8"/>
   </g>
  </g>
  <g stroke="#000" stroke-linejoin="round">
   <g stroke-width="5.625">
    <path d="m450.6 431.8 56.7-.7"/>
    <path d="m277.5 420.2c-1.8 1.1-26.6 17.8-28.5 19.1-32.5 22-71.6 74.4-63.5 89.5 1.4 2.7 3.8 4.1 6.8 4.2 7.3 0 23.2-10 36.3-29.5 9-13.4 23.3-37.7 25.1-60.8 4.4-61.4 30.6-107.8 55.8-106.1 20.5 2.6 7.1 25.2-4.6 33.9-3.8 3.2-24.1 15.1-39.1 16.7"/>
    <path d="m277.5 420.2c14.7-9 33.8-20.3 47.8-26.7"/>
    <path d="m325.3 393.5c41.5-16.7 65.8-1.7 55.1 37.8"/>
    <path d="m380.4 431.3 180.6-196.3-110.4 196.8"/>
   </g>
   <ellipse cx="659.06964" cy="-43.102833" rx="5.271423" ry="7.848564" stroke-width="14.034715" transform="matrix(.72846687 .68508103 -.68508103 .72846687 0 0)"/>
   <g stroke-width="5.625">
    <path d="m507.3 431.1c17.6.4 26.1.6 32.6-2.1"/>
    <path d="m545 424.5c6.4-9.1 31.3-56.4 37.6-65.5 8.9-12.6 18.2-22.6 27.5-22.6 15.7 0 22.4 35.8 40.6 36.1 18.8.3 46.5-49.1 62.7-79.1"/>
    <path d="m721 330.6c-5.5-.5-10.7-11.3-7.6-37.3"/>
    <path d="m721 330.6c14.5.8 57.3-30.4 68.7-29.9 16-.6 21.6 31 32.6 30.7 7.2-.2 12.4-7.6 16.7-13"/>
    <ellipse cx="683.34625" cy="-61.859333" rx="4.609393" ry="6.862874" transform="matrix(.72846687 .68508103 -.68508103 .72846687 0 0)"/>
   </g>
  </g>
 </g>
</svg>
