<svg height="210mm" viewBox="0 0 1052.4 744.1" width="297mm" xmlns="http://www.w3.org/2000/svg">
 <g fill="none" stroke-linecap="round">
  <g transform="translate(0 -308.26772)">
   <path d="m57.6 742.2h948.8" stroke="#969696" stroke-width="1.875"/>
   <g stroke="#000" stroke-dasharray="3.75 7.5" stroke-miterlimit="2" stroke-width=".9375">
    <path d="m58.3 844.1h948.8"/>
    <path d="m58.3 641.8h948.8"/>
    <path d="m58.3 540.6h948.8"/>
   </g>
  </g>
  <g stroke-linejoin="round">
   <path d="m473.7 321.8c.6.1 1.2.2 1.6.4.1.1.3.2.4.3.8.6 1.1 1.6.6 3.3-.8 3.2-4.5 5.1-6.2 5.7-3.6 1.3-6.2-1.7-4.2-4.8 1.3-2 3.5-4.2 6.1-4.7.2 0 .4-.1.5-.1h.7c.5 0 1 .1 1.5.2" stroke="#000" stroke-width="4.638606"/>
   <path d="m471.4 324.1c.3 0 .5.1.7.2.1 0 .1.1.2.1.4.3.5.7.3 1.5-.4 1.4-2 2.3-2.7 2.6-1.6.6-2.8-.7-1.9-2.1.6-.9 1.5-1.9 2.7-2.1h.2.3c.2 0 .5 0 .7.1" stroke="#000" stroke-width="4.107574"/>
   <g stroke-width="5.625">
    <path d="m472.2 330.4c9-1.2 39.3-38.2 63.4-44.7 28.7-7.5 48.7 9.2 37.4 45.3" stroke="#000"/>
    <g stroke="#00000c">
     <path d="m573 331 64.7-95.9 33.3 47.9"/>
     <path d="m637.7 235 24 48"/>
     <path d="m647.1 235 23.8 47.9"/>
     <path d="m643.2 234.9 24 48"/>
    </g>
   </g>
  </g>
  <path d="m639.9 234h7.1" stroke="#00000c" stroke-width="3.75"/>
  <path d="m663.4 283.9h7.1" stroke="#00000c" stroke-width="3.75"/>
  <g stroke-width="5.625">
   <path d="m671 282.9c10.2-5.8 20.2-9 25.5-10.4 11.2-3 25.5-3.1 24.1 4.7 0 .2.1.4.1.7 0 1.4-.6 2.7-2.1 3.8-2.9 2.2-6.9.8-8.5-.4-3.3-.5-1-11.9 0-10.6 1.7 2.4 0 0 8.8 2.8.2.1.3.3.4.5.2.2.4.7.6.9.3.5.4.9.7 1.6" stroke="#00001f" stroke-linejoin="round"/>
   <g stroke="#000">
    <path d="m720.3 277.2a5.5 1.8 0 0 1 -5.5 1.8 5.5 1.8 0 0 1 -5.5-1.8 5.5 1.8 0 0 1 5.4-1.8 5.5 1.8 0 0 1 5.5 1.8h-5.5z" stroke-linejoin="round"/>
    <path d="m474.2 330c-20.3 34.5-80.9 141.1-87.3 151.6-2.7 4.5-5.8 10.2-8.2 16.4-12.2 28.5-2.3 35.4 10.9 35.7 15.4.4 28.9-12.2 42.1-29.5"/>
   </g>
  </g>
 </g>
</svg>
