<svg height="210mm" viewBox="0 0 1052.4 744.1" width="297mm" xmlns="http://www.w3.org/2000/svg">
 <g fill="none" stroke-linecap="round">
  <g transform="translate(0 -308.26772)">
   <path d="m57.6 742.2h948.8" stroke="#969696" stroke-width="1.875"/>
   <g stroke="#000" stroke-dasharray="3.75 7.5" stroke-miterlimit="2" stroke-width=".9375">
    <path d="m58.3 844.1h948.8"/>
    <path d="m58.3 641.8h948.8"/>
    <path d="m58.3 540.6h948.8"/>
   </g>
  </g>
  <g stroke="#000" stroke-linejoin="round" stroke-width="5.625">
   <path d="m155.3 430.4c24.7-6 196.1-84.5 235.1-93.3 11.3-2 17.5 1.9 18.8 8 .8 4 0 10.5-5.9 17.8-26.2 32.4-43.6 48.1-37.8 61.2 2.2 5.1 9.8 7.4 17.3 7.1 10.3-.4 21.5-5.4 29.9-13.8 16.7-16.6 37.2-40.7 52-56.5 8.9-9 18.4-18 29.6-17.9 22.8.2 24.7 27.6 47.2 26.7 16.5-.7 28.5-12.2 49.3-40.6 17.5-24 38.8-44.2 67.1-45 24.1-.7 39.7 17.4 42.5 47.5"/>
   <path d="m155.3 430.4c-4.8 1.1-9.2 1.5-12.7.8-11.2-2.3-13.1-16 10.3-55.7 23.8-40.7 50.4-43.8 53.1-36.3 3.2 8.7-16.6 49-56.6 45.9"/>
   <path d="m700.5 331.7c13.1-7.1 42.1-22.4 61.9-30.2 12.3-4.8 23.5-7.9 30.1-6.7 15.5 2.9 18.4 34.9 34 35.7 16.8.4 40.6-16.8 47.5-22.3l30.6-24.2 21.4 46.2"/>
   <path d="m778.3 296.2c3.9-1 5.9-1 8.4-.3 5.9 1.5 10.1 7.8 16.8 22.4 3.3 7.2 7.3 10.1 11.6 11.2 2.3.6 4.1.9 6.3.8 2.2 0 4.5.4 6.9.2"/>
   <path d="m790.6 296.4c8.1 7.1 6.1 1.9 24 29.3"/>
  </g>
 </g>
</svg>
