<svg height="210mm" viewBox="0 0 1052.4 744.1" width="297mm" xmlns="http://www.w3.org/2000/svg">
 <g fill="none" stroke-linecap="round">
  <g transform="translate(0 -308.26772)">
   <path d="m57.6 742.2h948.8" stroke="#969696" stroke-width="1.875"/>
   <g stroke="#000" stroke-dasharray="3.75 7.5" stroke-miterlimit="2" stroke-width=".9375">
    <path d="m58.3 844.1h948.8"/>
    <path d="m58.3 641.8h948.8"/>
    <path d="m58.3 540.6h948.8"/>
   </g>
  </g>
  <g stroke="#000">
   <g stroke-width="5.625">
    <g stroke-linejoin="round">
     <path d="m518.6 347.7-84 69.4c-4.1 3.4-7.7 8.1-8.3 9-1.9 3.1-1.1 5.3 3.9 5.8 3 .3 13-2.6 14.4-3.3 48.9-28 69.2-131.1 9.3-75.4"/>
     <path d="m576 399.3c1.3.1 2.5.4 3.4.9.3.2.6.3.9.5 1.7 1.3 2.3 3.5 1.3 7.1-1.8 6.9-9.6 10.9-13.4 12.3-7.7 2.8-13.4-3.6-9-10.4 2.7-4.3 7.5-9 13.1-10.2.4-.1.8-.1 1.2-.2.5-.1.9-.1 1.4-.1 1.1 0 2.2.1 3.3.5"/>
     <path d="m519.9 346.7 3.1-2.4c22.9-17.3 54.4-6.9 34.6 16.8-28 33.4-47.2 52.6-39.4 63.9 4.4 6.4 16.2 7.2 25.8 5 9.3-2.1 17.3-5.9 26.8-11.1"/>
    </g>
    <path d="m556.9 338.9c16 4.1 4.3 27.8-12.4 44.2-14.4 14-23.4 26.4-29.5 38.7"/>
    <path d="m556.9 338.9c.8-1.1 3.9 6.1.7 14.2-3.2 8.4-13.2 17.4-18.3 22.9-9.8 10.7-30 29.3-24.3 45.7"/>
   </g>
   <g stroke-width="2.8125">
    <path d="m548.4 337.2c11.3 1.3 8.8 6.5 9.1 11"/>
    <path d="m520.1 414.5c-2.7 4.9-1.8 11.2 4.2 13.6"/>
    <path d="m512.5 415.6c.1 10.6 5.8 12.1 9 14.3"/>
   </g>
  </g>
 </g>
</svg>
