<svg height="210mm" viewBox="0 0 1052.4 744.1" width="297mm" xmlns="http://www.w3.org/2000/svg">
 <g fill="none" stroke-linecap="round">
  <g transform="translate(0 -308.26772)">
   <path d="m57.6 742.2h948.8" stroke="#969696" stroke-width="1.875"/>
   <g stroke="#000" stroke-dasharray="3.75 7.5" stroke-miterlimit="2" stroke-width=".9375">
    <path d="m58.3 844.1h948.8"/>
    <path d="m58.3 641.8h948.8"/>
    <path d="m58.3 540.6h948.8"/>
   </g>
  </g>
  <g stroke-linejoin="round" stroke-width="5.625">
   <path d="m449 441.4c-22.3 16.2-50.8 41.7-59.5 54.6-10.1 14.9-14 28.7-12.3 33.1 1.1 2.9 17.7 21.8 57.3-41.8l89.2-152.4" stroke="#060000"/>
   <path d="m449 441.4 81.5-57.6" stroke="#00000c"/>
   <path d="m530.5 383.7 16.5 48" stroke="#00000c"/>
   <path d="m685.9 237.1c-.5-.5-.8-.8-1.4-1.1-.2-.1-.7-.4-.9-.5s-.4-.2-.6-.2c-9 1.9-6.3 3.2-9 1.9-1.5-.7 2.2 10.4 5.3 9.2 2 .3 6.1-.4 7.6-3.8.7-1.7.6-3.2-.1-4.4-.1-.2-.3-.3-.4-.6-2.6-7.5-15-.3-23.3 7.8-3.9 3.8-11.1 11.6-17.1 21.7-12.5 20.1-99.1 164.5-99.1 164.5" stroke="#00001f"/>
   <path d="m479.2 545.7a5.5 1.8 0 0 1 -5.5 1.8 5.5 1.8 0 0 1 -5.5-1.8 5.5 1.8 0 0 1 5.4-1.8 5.5 1.8 0 0 1 5.5 1.8h-5.5z" stroke="#000" transform="matrix(.86958032 -.49379153 .49379153 .86958032 0 0)"/>
  </g>
 </g>
</svg>
