<svg height="210mm" viewBox="0 0 1052.4 744.1" width="297mm" xmlns="http://www.w3.org/2000/svg">
 <g fill="none" stroke-linecap="round">
  <g transform="translate(0 -308.26772)">
   <path d="m57.6 742.2h948.8" stroke="#969696" stroke-width="1.875"/>
   <g stroke="#000" stroke-dasharray="3.75 7.5" stroke-miterlimit="2" stroke-width=".9375">
    <path d="m58.3 844.1h948.8"/>
    <path d="m58.3 641.8h948.8"/>
    <path d="m58.3 540.6h948.8"/>
   </g>
  </g>
  <g stroke="#000" stroke-linejoin="round" stroke-width="5.625">
   <path d="m342.5 431.9s11.4-.4 16.5-2.6c9.5-4.1 99.1-93.4 99.1-93.4"/>
   <path d="m350.6 417.6c.9.3 1.8.6 2.4 1.1.2.2.4.3.5.5 1 1.2 1.2 2.8 0 5.3-2.3 4.7-8.4 6.5-11.3 7.1-5.9 1-9.2-4.4-5.1-8.7 2.6-2.7 6.7-5.5 10.9-5.5h.9c.3 0 .7.1 1 .1.8.1 1.6.4 2.3.8"/>
   <path d="m458.2 336c-13.8 25.3-28.6 50-43 74.9-13.1 23.6 9.4 24.7 29.4 16 6.5-2.9 16.6-10.4 25.7-16.4"/>
   <path d="m295.9 385.5 21.1 45.9h19.9"/>
   <path d="m469.8 410.7c2.5-1.7 9.4-6.5 11.8-8 7.5-4.7 14.7-9.6 24.7-9.4 24.5.5 8.7 38.3 31.6 38.1 10.9-.1 15.6-6.6 21.9-14.2"/>
   <path d="m626.2 314c-3.9 5.3-59 94.6-66.3 103.3"/>
   <ellipse cx="436.73325" cy="610.55194" rx="62.130169" ry="44.633743" transform="matrix(.88109295 -.47294313 .47294313 .88109295 0 0)"/>
   <path d="m647.6 294.7 88.3-51.5"/>
  </g>
 </g>
</svg>
