<svg height="210mm" viewBox="0 0 1052.4 744.1" width="297mm" xmlns="http://www.w3.org/2000/svg">
 <g fill="none" stroke-linecap="round">
  <g transform="translate(0 -308.26772)">
   <path d="m57.6 742.2h948.8" stroke="#969696" stroke-width="1.875"/>
   <g stroke="#000" stroke-dasharray="3.75 7.5" stroke-miterlimit="2" stroke-width=".9375">
    <path d="m58.3 844.1h948.8"/>
    <path d="m58.3 641.8h948.8"/>
    <path d="m58.3 540.6h948.8"/>
   </g>
  </g>
  <g stroke="#000">
   <g stroke-width="5.625">
    <path d="m611.4 286.2-51.7 94.9"/>
    <g stroke-linejoin="round">
     <path d="m559.7 381 61.1-45.7"/>
     <path d="m276.2 431.6 77.7-46.9"/>
    </g>
   </g>
   <path d="m262.6 360c10.9-14.3 25.2-24.8 36.4-23.6 10.5 1.1 18.1 9.6 7.1 32.6-10 21.3-29.9 62.7-29.9 62.7" stroke-linejoin="round" stroke-width="5.62496"/>
   <g stroke-width="5.625">
    <path d="m353.9 384.7 22.1 46.2" stroke-linejoin="round"/>
    <path d="m361.1 384.5 22.1 46.2" stroke-linejoin="round"/>
    <path d="m353.9 384.7 7.2-.1"/>
    <path d="m357.9 386 21 43.9" stroke-linejoin="round"/>
    <path d="m376 430.9 7.2-.1"/>
   </g>
   <g stroke-linejoin="round">
    <path d="m383.2 430.8c13.5-14.6 32.3-32.3 50.8-33.3 17.6-.7 20.1 33.8 33.9 33.8 9 0 14.1-4.3 20.3-10.5 11-11 123.2-134.6 123.2-134.6" stroke-width="5.625001"/>
    <path d="m777 381c5.4-3.3 11.7-10.5 6.5-17.1-2.6-3.3-4-4.5-11.9-4.4l-135 .6c-5.8 0-12.7.1-15.9-.7-9.6-2.4-7.9-13.2 0-24" stroke-width="5.625"/>
   </g>
  </g>
 </g>
</svg>
