<svg height="210mm" viewBox="0 0 1052.4 744.1" width="297mm" xmlns="http://www.w3.org/2000/svg">
 <g fill="none" stroke-linecap="round">
  <g transform="translate(0 -308.26772)">
   <path d="m57.6 742.2h948.8" stroke="#969696" stroke-width="1.875"/>
   <g stroke="#000" stroke-dasharray="3.75 7.5" stroke-miterlimit="2" stroke-width=".9375">
    <path d="m58.3 844.1h948.8"/>
    <path d="m58.3 641.8h948.8"/>
    <path d="m58.3 540.6h948.8"/>
   </g>
  </g>
  <g stroke="#000" stroke-linejoin="round">
   <path d="m687.9 234.2 19.8 47.4" stroke-width="5.625"/>
   <path d="m707.8 281.6c13.5-14.6 32.3-32.3 50.8-33.3 17.6-.7 20.1 33.8 33.9 33.8 9 0 13.8-4.7 20.3-10.5" stroke-width="5.625001"/>
   <path d="m262.5 391.1c-7.9 27 6 40.6 29.6 40.1 3.5-.1 7.6-.5 12-1.5 11.5-2.3 29.8-10 117.2-54.2 57.7-29.2 266.6-141.2 266.6-141.2" stroke-width="5.625"/>
  </g>
 </g>
</svg>
