<svg height="210mm" viewBox="0 0 1052.4 744.1" width="297mm" xmlns="http://www.w3.org/2000/svg">
 <g fill="none" stroke-linecap="round">
  <g transform="translate(0 -308.26772)">
   <path d="m57.6 742.2h948.8" stroke="#969696" stroke-width="1.875"/>
   <g stroke="#000" stroke-dasharray="3.75 7.5" stroke-miterlimit="2" stroke-width=".9375">
    <path d="m58.3 844.1h948.8"/>
    <path d="m58.3 641.8h948.8"/>
    <path d="m58.3 540.6h948.8"/>
   </g>
  </g>
  <g stroke="#000">
   <g stroke-linejoin="round">
    <path d="m386 354.8c4.6-5.4 8.4-8.6 8.7-8.9 18.8-17.3 56.9-11.1 34.4 16.7-27.4 33.9-45.5 50.2-39.4 63.9 3 6.9 15.9 7.7 26.1 3.1 11.5-5.2 29.5-26.1 52.9-57.3" stroke-width="5.625"/>
    <path d="m468.7 372.3 18.1-23.2" stroke-width="5.625"/>
    <path d="m522.3 342.6a19.4 24.5 38 0 1 -7.1 32.1 19.4 24.5 38 0 1 -29.5-.4 19.4 24.5 38 0 1 7.1-32.1 19.4 24.5 38 0 1 29.5.4z" stroke-width="5.348437"/>
    <path d="m491.4 343.9 55.9-60.5 21 47.3" stroke-width="5.625"/>
    <path d="m688.5 235.7-47.5 81.9" stroke-width="6.5625"/>
    <path d="m568.3 330.6 110.9-95.3-39 72.4c-6.4 12 0 20.9 10.8 22.7 1.3.2 2.7.3 4.2.3 16.8.8 38.1-1.8 46.1-7.7" stroke-width="5.625"/>
    <path d="m683.8 235.7-44.7 81.9" stroke-width="6.5625"/>
   </g>
   <path d="m645.1 313.4c-3.1 6.1-3.4 13.5 3.2 15.5" stroke-width="3.75"/>
   <g stroke-linejoin="round">
    <path d="m688.5 235.7-9.3-.4" stroke-width="6.5625"/>
    <ellipse cx="728.05768" cy="-247.78105" rx="4.609393" ry="6.862874" stroke-width="5.625" transform="matrix(.72846687 .68508103 -.68508103 .72846687 0 0)"/>
   </g>
  </g>
 </g>
</svg>
