<svg height="210mm" viewBox="0 0 1052.4 744.1" width="297mm" xmlns="http://www.w3.org/2000/svg">
 <g fill="none" stroke-linecap="round">
  <g transform="translate(0 -308.26772)">
   <path d="m57.6 742.2h948.8" stroke="#969696" stroke-width="1.875"/>
   <g stroke="#000" stroke-dasharray="3.75 7.5" stroke-miterlimit="2" stroke-width=".9375">
    <path d="m58.3 844.1h948.8"/>
    <path d="m58.3 641.8h948.8"/>
    <path d="m58.3 540.6h948.8"/>
   </g>
  </g>
  <g stroke="#000" stroke-linejoin="round" stroke-width="5.625">
   <path d="m721.1 234.7s-343.8 178.3-347 191.5c-.6 5.1 3.3 5.1 6.6 5.2 4.5 0 10.9-4.3 12.3-5.1 48.9-28 69.1-128.6 6.8-73.1"/>
   <path d="m317.9 383.9 18.9 47.6"/>
   <path d="m336.9 431.5s48.8-66.5 63-78.3"/>
   <path d="m721.1 234.7 28.7 41.3c12.2 16.6 12 33 10.1 43.7-2.5 17.4-5.1 27-33 51.5"/>
  </g>
 </g>
</svg>
