<svg height="210mm" viewBox="0 0 1052.4 744.1" width="297mm" xmlns="http://www.w3.org/2000/svg">
 <g fill="none" stroke-linecap="round">
  <g transform="translate(0 -308.26772)">
   <path d="m57.6 742.2h948.8" stroke="#969696" stroke-width="1.875"/>
   <g stroke="#000" stroke-dasharray="3.75 7.5" stroke-miterlimit="2" stroke-width=".9375">
    <path d="m58.3 844.1h948.8"/>
    <path d="m58.3 641.8h948.8"/>
    <path d="m58.3 540.6h948.8"/>
   </g>
  </g>
  <g stroke="#000">
   <path d="m365.8 355c7.9-7.4 17.1-17.5 31.2-19.2 3.2-.4 6.2 0 8.8.9 2.7.9 4.9 2.5 6.4 4.6 3.6 5.1 3 13.2-5 22.8-6 7.3-11.8 13.6-17 19.3-5.3 5.7-11.2 12.1-17.3 19.5-8 9.7-8.6 17.8-5 22.8 1.5 2.1 3.7 3.7 6.4 4.6 2.6.9 5.6 1 8.8.8 19.4-.7 27.5-7.1 80.1-47.3l22.9 47.6" stroke-linejoin="round" stroke-width="5.625"/>
   <path d="m486.2 431.5c41.8-69.4 112.3-60.6 102.4.1" stroke-linejoin="round" stroke-width="5.624999"/>
   <path d="m687.2 235.7-98.6 195.9" stroke-width="5.625"/>
   <path d="m735.8 237.6c-25.6 28.5-66.9 56.8-48.6-1.9" stroke-linejoin="round" stroke-width="5.624999"/>
  </g>
 </g>
</svg>
