<svg height="210mm" viewBox="0 0 1052.4 744.1" width="297mm" xmlns="http://www.w3.org/2000/svg">
 <g fill="none" stroke-linecap="round">
  <g transform="translate(0 -308.26772)">
   <path d="m57.6 742.2h948.8" stroke="#969696" stroke-width="1.875"/>
   <g stroke="#000" stroke-dasharray="3.75 7.5" stroke-miterlimit="2" stroke-width=".9375">
    <path d="m58.3 844.1h948.8"/>
    <path d="m58.3 641.8h948.8"/>
    <path d="m58.3 540.6h948.8"/>
   </g>
  </g>
  <g stroke-linejoin="round">
   <g stroke="#000">
    <path d="m589.4 367.9-84 68.5" stroke-width="5.625"/>
    <path d="m633.6 407.9c-13 3.5-36.7 9.9-40.2 10.9-5.2 1.4-9.2 5.1-9.2 7.7 0 3.7.8 4.9 5.8 5.4 35.9-7.8 94-107.3 43.3-94.7-9 2.8-28.9 16.4-44 30.7" stroke-width="5.419139"/>
    <g stroke-width="5.625">
     <path d="m633.6 407.9c13.3-3.1 22-5.7 27.6-5.9 17.5-.5 17.4 45.8 45.2 22.9"/>
     <path d="m505.4 436.5c-26.4 22.6-52.3 47.9-60.9 61.7-12.2 19.6-15 25.3-10.9 32.7 2.9 5.3 34.7 12.4 62.3-63.3 15.8-47.4 16.5-113.3 70.8-131.6"/>
     <path d="m353.3 529.2c17.6-9.1 175.3-172.4 195.1-184.2"/>
    </g>
   </g>
   <path d="m321.6 489.9c-3.7 5.6-5.7 12.5-6.2 17.7-.7 7.4 1.5 13.5 3.8 16.3 2.8 3.4 5.2 9.1 19 9.1 5.9-.1 12.1-1 15.1-3.6" stroke="#060000" stroke-width="5.625"/>
  </g>
 </g>
</svg>
