<svg height="210mm" viewBox="0 0 1052.4 744.1" width="297mm" xmlns="http://www.w3.org/2000/svg">
 <g fill="none" stroke-linecap="round">
  <g transform="translate(0 -308.26772)">
   <path d="m57.6 742.2h948.8" stroke="#969696" stroke-width="1.875"/>
   <g stroke="#000" stroke-dasharray="3.75 7.5" stroke-miterlimit="2" stroke-width=".9375">
    <path d="m58.3 844.1h948.8"/>
    <path d="m58.3 641.8h948.8"/>
    <path d="m58.3 540.6h948.8"/>
   </g>
  </g>
  <g stroke="#000" stroke-width="5.625">
   <g stroke-linejoin="round">
    <path d="m106.7 431.2 60.6-109c26.4-48.6 52-72.9 91.2-88.5"/>
    <path d="m106.7 431.2 308.5-95.4"/>
    <path d="m356.2 436.3c-18.5 14.8-38.4 31.2-50.6 42.4-34.6 31.6-38.7 42-35.7 49.7 1.1 2.9 17.7 21.8 57.3-41.8l88-150.7"/>
    <path d="m630.6 235.6s-108.4 173.1-122.2 182.5"/>
    <path d="m356.2 436.3c33.1-18 69.5-33.1 84.3-33.8 24-.8 26.3 28.7 43.8 29.3 9.2.3 17.5-6.6 24.1-13.8"/>
    <path d="m734.3 482.6c3.6-.3 7.1-1.8 10.4-3.8 5.1-3.1 12.3-10.3 16.5-14"/>
    <path d="m761.1 464.7c19.2-17.3 33-28.1 54.2-29 22.4-.8 35.9 15.9 26.2 47"/>
   </g>
   <path d="m952.6 284.9-111.1 197.9"/>
   <g stroke-linejoin="round">
    <path d="m627.6 430.6c-68.2 12.8-5.9-149.9 79.8-196.1"/>
    <path d="m627.6 430.6c31.3-7.3 43-7.3 60.4 4.2 16.7 11 24.5 47.8 46.2 47.7"/>
   </g>
  </g>
 </g>
</svg>
