<svg height="210mm" viewBox="0 0 1052.4 744.1" width="297mm" xmlns="http://www.w3.org/2000/svg">
 <g fill="none" stroke-linecap="round">
  <g transform="translate(0 -308.26772)">
   <path d="m57.6 742.2h948.8" stroke="#969696" stroke-width="1.875"/>
   <g stroke="#000" stroke-dasharray="3.75 7.5" stroke-miterlimit="2" stroke-width=".9375">
    <path d="m58.3 844.1h948.8"/>
    <path d="m58.3 641.8h948.8"/>
    <path d="m58.3 540.6h948.8"/>
   </g>
  </g>
  <g stroke="#000">
   <g stroke-linejoin="round">
    <g stroke-width="5.625">
     <path d="m507.6 396.4a19.2 25.1 41.6 0 1 -14.3 31.3 19.2 25.1 41.6 0 1 -27.6-6.8 19.2 25.1 41.6 0 1 14.3-31.3 19.2 25.1 41.6 0 1 27.6 6.8z"/>
     <path d="m469 400.5c23-33.7 49.7-78.7 83.2-128.7 19.9-29.6 38-58.9 53.3-75.7 8.2-9 16.9-13.8 27.8-13.2 5 .5 8.7 2.3 11.3 4.7 2.9 2.7 4.4 6.3 4.7 10.6.3 4.5-.7 9.7-2.8 15.2-2 5.2-4.9 10.7-8.5 16.2l-65.3 106.2c-7.4 12.6-10.3 23.1-7.7 30.8 2.4 6.9 6.3 12.1 16.8 12.9 7.1.2 14-1.7 20.4-5.5 6.8-4 13-10.1 18.6-18 16.9-23.8 41-63.5 57.6-85.5 15.2-20.1 31-36.9 48.4-35.3 10.5 1.2 16.5 8.2 15.8 17-.4 3.7-1.6 8.3-3.7 13.7-9.9 21.8-22.7 42.9-34.9 64.9"/>
     <path d="m647.9 204.2s-69.9 121.6-75.8 143.7"/>
     <path d="m646.7 209.3c-2.4 5.3-77.8 131.1-79.3 155"/>
    </g>
    <path d="m645.8 209.3-26.6 49.4" stroke-width="5.624999"/>
    <g stroke-width="3.75">
     <path d="m581.9 329.2c-3.5 8.5-20.8 38.4-7 47.5 2.1 1.4 7.2 2.5 12.9 1.6"/>
     <path d="m635.1 184.1c10.6 2.2 17.7 9.5 6.3 29.4"/>
     <path d="m635.9 223.3c-22.6 35.8-52.4 85.2-69.2 122.2"/>
    </g>
    <path d="m326.9 431.5c23.9-28.8 77.8-104.8 118.7-152.6 9.7-11.3 19.1-21.3 27.9-28.9 13.2-11.5 25-17.8 34.1-15.9 3 .1 5 1.7 6.1 4.6 10.7 27.9-65.8 174.3-122.4 192.5" stroke-width="5.625"/>
    <path d="m503.9 281.8c-11.5 21.5-39 69.9-54.2 94.8" stroke-width="8.4375"/>
    <path d="m393 429.6c17.6-7.4 30.5-22.8 43.2-39.5 5.5-7.3 12-16.7 20.5-29.8" stroke-width="3.75"/>
    <path d="m498.4 295.2-54.8 90.9" stroke-width="5.625"/>
    <path d="m512.1 236.8c5.1 7.4-2.4 28.2-11.3 46.7" stroke-width="4.6875"/>
   </g>
   <g stroke-width="5.625">
    <path d="m483.4 387.7s-85 28.1-95.1 39.5c-2.2 2.5-2.5 5.4 3 4"/>
    <path d="m306.4 385.1 20.5 46.3" stroke-linejoin="round"/>
   </g>
  </g>
 </g>
</svg>
