<svg height="210mm" viewBox="0 0 1052.4 744.1" width="297mm" xmlns="http://www.w3.org/2000/svg">
 <g fill="none" stroke-linecap="round">
  <g transform="translate(0 -308.26772)">
   <path d="m57.6 742.2h948.8" stroke="#969696" stroke-width="1.875"/>
   <g stroke="#000" stroke-dasharray="3.75 7.5" stroke-miterlimit="2" stroke-width=".9375">
    <path d="m58.3 844.1h948.8"/>
    <path d="m58.3 641.8h948.8"/>
    <path d="m58.3 540.6h948.8"/>
   </g>
  </g>
  <g stroke-linejoin="round" stroke-width="5.625">
   <g stroke="#000">
    <path d="m141.4 431c.6.4 35.8-37.9 49.9-37.9 17.7-.1 13.9 38.4 36.8 38.2 14.3-.1 42.5-23.2 42.5-23.2"/>
    <path d="m270.6 408 31.2-23.3 21.4 46.2"/>
    <path d="m464.4 400.8c-12.8.7-68.7 9.3-72.1 10.5-10 3.6-15.5 7.6-16.7 11.7-1.9 7.1 4.8 8.3 6.4 8.4 16.6.4 47.4-44.7 52.6-82 5.7-40.6 44.3-104.4 80-114.7-36.5 4.6-191.5 196.3-191.5 196.3"/>
    <path d="m597.8 386.4-133.4 14.4"/>
    <ellipse cx="220.33325" cy="687.80035" rx="25.728558" ry="20.371416" transform="matrix(.79083574 -.61202846 .61202846 .79083574 0 0)"/>
    <path d="m583.1 391.7 118.2-106.7-55.8 97.2"/>
   </g>
   <g stroke="#00000a">
    <path d="m920 234-55.8 97.2"/>
    <path d="m920 234h-10.6"/>
    <path d="m914.5 234-55.8 97.2"/>
    <path d="m864.2 331.3h-10.6"/>
    <path d="m645.5 382.2 263.9-148.1-55.8 97.2 11-.1"/>
   </g>
  </g>
 </g>
</svg>
