<svg height="210mm" viewBox="0 0 1052.4 744.1" width="297mm" xmlns="http://www.w3.org/2000/svg">
 <g fill="none" stroke-linecap="round">
  <g transform="translate(0 -308.26772)">
   <path d="m57.6 742.2h948.8" stroke="#969696" stroke-width="1.875"/>
   <g stroke="#000" stroke-dasharray="3.75 7.5" stroke-miterlimit="2" stroke-width=".9375">
    <path d="m58.3 844.1h948.8"/>
    <path d="m58.3 641.8h948.8"/>
    <path d="m58.3 540.6h948.8"/>
   </g>
  </g>
  <g stroke="#000" stroke-linejoin="round">
   <path d="m479.5 430.6c3 .3 9.7-4.3 11-5 48.9-28.1 71.8-129.9 9.4-74.1-2.3 2.1-17.4 18.4-20 21" stroke-width="5.431899"/>
   <g stroke-width="5.638243">
    <path d="m534.2 339.2c-.7 31-18.1 61.6-38.1 82.5"/>
    <path d="m536.8 341.5c5.2 34.8-19.9 69.4-45 83.3"/>
    <path d="m529.5 337.9c3.6 34.1-21.2 69-37.7 86.9"/>
   </g>
   <g stroke-width="2.819122">
    <path d="m522.1 337.7c7.9-3.1 5.9 10.5 5.9 15.8"/>
    <path d="m498.3 415.1c-5.5 6.9-9.4 9.8-15.3 13.2"/>
   </g>
  </g>
 </g>
</svg>
