<svg height="210mm" viewBox="0 0 1052.4 744.1" width="297mm" xmlns="http://www.w3.org/2000/svg">
 <g fill="none" stroke-linecap="round">
  <g transform="translate(0 -308.26772)">
   <path d="m57.6 742.2h948.8" stroke="#969696" stroke-width="1.875"/>
   <g stroke="#000" stroke-dasharray="3.75 7.5" stroke-miterlimit="2" stroke-width=".9375">
    <path d="m58.3 844.1h948.8"/>
    <path d="m58.3 641.8h948.8"/>
    <path d="m58.3 540.6h948.8"/>
   </g>
  </g>
  <g stroke="#000" stroke-linejoin="round" stroke-width="5.625">
   <path d="m491.4 412.3s124-59.9 131.1-62.4c9.1-3.1 19.3-7.8 25.2-9.4 11.6-3.3 18.9-6.5 23.9-3 8.2 5.9 17.4 42.2 32 44.9 15.1 2.8 28.5-10.7 37.2-18.2l30.2-26.2"/>
   <path d="m656.6 338.2c12.3-5.8 18.5 7.5 24.2 28.2 3.7 13.5 12.3 17.1 26.4 16.5"/>
   <path d="m659.3 337.2c5.7-3 19.1-3.7 29.4 18.9 7.3 16 10.8 26.3 18.6 26.9"/>
   <path d="m672.5 340.7c10.8 15.3 8.5 38.4 25.5 39.6"/>
   <path d="m268.9 430.4c29.8-83.1 243.5-156.7 189.7-15.3-1.6 4.3-6.9 16.5-6.9 16.5l39.7-19.3"/>
  </g>
 </g>
</svg>
