<svg height="210mm" viewBox="0 0 1052.4 744.1" width="297mm" xmlns="http://www.w3.org/2000/svg">
 <g fill="none" stroke-linecap="round">
  <g transform="translate(0 -308.26772)">
   <path d="m57.6 742.2h948.8" stroke="#969696" stroke-width="1.875"/>
   <g stroke="#000" stroke-dasharray="3.75 7.5" stroke-miterlimit="2" stroke-width=".9375">
    <path d="m58.3 844.1h948.8"/>
    <path d="m58.3 641.8h948.8"/>
    <path d="m58.3 540.6h948.8"/>
   </g>
  </g>
  <g stroke="#000">
   <g stroke-linejoin="round">
    <g stroke-width="5.625">
     <path d="m496.7 257.5c24.3-33 69.3-34.5 37.2 20l-90 153.8 20.3-14.8"/>
     <path d="m464.2 416.6c13.8-11.3 20.7-16.8 28.6-22 21.7-13.4 27.9-13.6 34.3-1 6.5 12.7 5.3 17.1 12.3 27.2 20.1 29.1 43.1-26.4 34.5-34.3-9.6-8.9-31.9 5.2-51.8 41.3-23.3 42.8-20.4 54.3-7.3 54.2 10-1.2 17.5-3.7 27.2-13"/>
     <path d="m659.6 336.5-47.8 86.7"/>
     <path d="m542.1 469c20.8-17.8 108.3-132.8 108.3-132.8l-39 72.4c-8.4 15.5 5.2 25.1 21.5 22.2 2.8-.5 26.2-3.5 30.8-7.1"/>
    </g>
    <path d="m654.5 337.7-44.2 80.7" stroke-width="6.5625"/>
   </g>
   <path d="m616.8 417c-1.6 4.1-2.6 6.5.8 11.8" stroke-width="3.75"/>
   <path d="m650.4 336.1 9.3.4" stroke-width="5.625"/>
  </g>
  <path d="m664.8 413c.8.1 1.5.2 2 .5.2.1.3.2.5.3 1 .8 1.3 2.1.8 4.1-1.1 4-5.6 6.4-7.8 7.2-4.5 1.6-7.8-2.1-5.3-6.1 1.6-2.5 4.4-5.3 7.7-5.9.2 0 .5-.1.7-.1h.8c.6 0 1.3.1 1.9.3" stroke="#030002" stroke-linejoin="round" stroke-width="5.625"/>
 </g>
</svg>
