<svg height="210mm" viewBox="0 0 1052.4 744.1" width="297mm" xmlns="http://www.w3.org/2000/svg">
 <g fill="none" stroke-linecap="round">
  <g transform="translate(0 -308.26772)">
   <path d="m57.6 742.2h948.8" stroke="#969696" stroke-width="1.875"/>
   <g stroke="#000" stroke-dasharray="3.75 7.5" stroke-miterlimit="2" stroke-width=".9375">
    <path d="m58.3 844.1h948.8"/>
    <path d="m58.3 641.8h948.8"/>
    <path d="m58.3 540.6h948.8"/>
   </g>
  </g>
  <g stroke-width="5.625">
   <g stroke-linejoin="round">
    <g stroke="#000">
     <path d="m508.4 396.2c17.4-18.9 41.9-49.9 63.5-59.8 7.6-3.4 13-.6 17 7.3 6.5 12.7 4 18.2 12.3 27.2 15.9 17.3 43.8-27.8 34.5-34.3-6.3-4.4-25.9 3.2-49.4 42-28.6 46.7-20.3 51.3-5.2 52.5 8.5.4 13.7-1.7 23.8-9.1"/>
     <path d="m564.1 341.2c9.6-6.8 17.3 4.8 20.8 16.5 3.2 10.5 8.7 18 23.9 17.1"/>
     <path d="m575.3 338.2c13.6.7 15.1 28.3 22.1 30"/>
    </g>
    <ellipse cx="165.43552" cy="644.49695" rx="25.728558" ry="20.371416" stroke="#000701" transform="matrix(.79083574 -.61202846 .61202846 .79083574 0 0)"/>
   </g>
   <g stroke="#000">
    <path d="m719.7 234.7s-92.6 169-114.8 187.3"/>
    <g stroke-linejoin="round">
     <path d="m427.9 416.8 92.4-29.1"/>
     <path d="m467.5 431.4c11.2-27.4-9.2-38.1-20.9-44.2-32.6-16.9-29.7-38.2-22.8-51.3"/>
    </g>
   </g>
  </g>
 </g>
</svg>
