<svg height="210mm" viewBox="0 0 1052.4 744.1" width="297mm" xmlns="http://www.w3.org/2000/svg">
 <g fill="none" stroke-linecap="round">
  <g transform="translate(0 -308.26772)">
   <path d="m57.6 742.2h948.8" stroke="#969696" stroke-width="1.875"/>
   <g stroke="#000" stroke-dasharray="3.75 7.5" stroke-miterlimit="2" stroke-width=".9375">
    <path d="m58.3 844.1h948.8"/>
    <path d="m58.3 641.8h948.8"/>
    <path d="m58.3 540.6h948.8"/>
   </g>
  </g>
  <g stroke="#000" stroke-linejoin="round">
   <path d="m410.4 335.8-42.8 95.4" stroke-width="5.624999"/>
   <path d="m576.8 183.6c-36.3 29.6-59.8 62.6-75.9 97.1-9.8 21-16.3 39.9-22.8 64.2" stroke-width="5.625"/>
   <path d="m480.9 375.8c-12.2-16.3 1.7-55.7 17.6-93.6 16-38 48.8-80.2 74.4-95.9" stroke-width="4.6875"/>
   <g stroke-width="5.625">
    <path d="m493.7 380.3c-47.2 5.2-.8-151.5 83.1-196.7"/>
    <path d="m498.1 287c-8.2 18.2-14.3 37-18 50.4-5.2 18.4-5.7 31.3 2.9 40.4"/>
    <path d="m559.9 197.5c-66.8 47.2-160.3 202.4-192.3 233.7"/>
    <path d="m493.7 380.3c19.4-.7 39.2-23.3 63.2-53.1 37.3-46.2 67.5-94.1 91.7-92.7 12.4.3 12.7 16.3 6.3 35-14.7 43-41.1 81.5-68 118.4-30.2 41-50.1 47.2-57.1 40.9-13.5-11.4 4.6-30.4 29.2-53.2 13.2-11.3 46.3-34.5 74.5-58.2"/>
   </g>
   <path d="m744.1 318.9c-7.6 6.2-17.1 11.1-24.5 11.3-7.3.8-13.7-1.8-16.3-7.4-7.2-15.5 13.3-29.1 37.7-58.6 8.2-9.9 8.8-18.2 5.1-23.4-1.5-2.2-3.8-3.8-6.6-4.7-2.6-.9-5.7-1.2-9-.9-19.6-.1-66 56.2-97 82.2" stroke-width="5.624999"/>
  </g>
 </g>
</svg>
