<svg height="210mm" viewBox="0 0 1052.4 744.1" width="297mm" xmlns="http://www.w3.org/2000/svg">
 <g fill="none" stroke-linecap="round">
  <g transform="translate(0 -308.26772)">
   <path d="m57.6 742.2h948.8" stroke="#969696" stroke-width="1.875"/>
   <g stroke="#000" stroke-dasharray="3.75 7.5" stroke-miterlimit="2" stroke-width=".9375">
    <path d="m58.3 844.1h948.8"/>
    <path d="m58.3 641.8h948.8"/>
    <path d="m58.3 540.6h948.8"/>
   </g>
  </g>
  <g stroke-linejoin="round">
   <g stroke-width="5.625">
    <g stroke="#000">
     <path d="m343.3 335.3-39.4 73.1c-8.4 15.5 5 26.1 21.5 22.2 2.8-.7 9.1-2.7 14-5.9 5.5-3.6 13.2-9.7 18.1-14.2"/>
     <path d="m508.8 424.3s177.5-27.2 200.4-24.5c12.9 1.5 20.8 31.4 34.4 31.2 10.4-.2 18.1-10 24.1-17.6"/>
     <path d="m506.4 431.8c10.4-10 12.5-16.7 12.3-25.9-1.1-20.7-47.4-26.8-49-48.9-.3-8.7 9.9-17.8 19.6-20.3 15.9-4 23.4 4.5 19.6 15.9-2 6.1-6.7 13.8-17.4 22-2.4 1.8-4.8 2.9-4.8 2.9"/>
     <path d="m407.2 431c19.4-.3 41.4-20.7 79.6-53.5"/>
    </g>
    <path d="m357.5 410.5c7.8-6.9 73.8-74.5 73.8-74.5" stroke="#010000"/>
   </g>
   <g stroke="#000" stroke-width="6.5625">
    <path d="m440.5 336-47.5 81.9"/>
    <path d="m435.9 335.9-44.7 81.9"/>
   </g>
  </g>
  <g stroke="#000">
   <path d="m397.1 413.7c-3.1 6.1-3.4 13.5 3.2 15.5" stroke-width="3.75"/>
   <g stroke-linejoin="round">
    <path d="m440.5 336h-9.3" stroke-width="6.5625"/>
    <g stroke-width="5.625">
     <path d="m431.1 335.5-38.9 72.5c-7.2 13.4 1.8 23.1 15 23"/>
     <ellipse cx="657.34436" cy="-44.516544" rx="4.609393" ry="6.862874" transform="matrix(.72846687 .68508103 -.68508103 .72846687 0 0)"/>
    </g>
   </g>
  </g>
 </g>
</svg>
