<svg height="210mm" viewBox="0 0 1052.4 744.1" width="297mm" xmlns="http://www.w3.org/2000/svg">
 <g fill="none" stroke-linecap="round">
  <g transform="translate(0 -308.26772)">
   <path d="m57.6 742.2h948.8" stroke="#969696" stroke-width="1.875"/>
   <g stroke="#000" stroke-dasharray="3.75 7.5" stroke-miterlimit="2" stroke-width=".9375">
    <path d="m58.3 844.1h948.8"/>
    <path d="m58.3 641.8h948.8"/>
    <path d="m58.3 540.6h948.8"/>
   </g>
  </g>
  <g stroke-linejoin="round">
   <path d="m643 259.8c11.2-14.3 27.2-24.7 37.4-25.5 15.8-1.3 24.9 15 7.8 44l-90 152.7" stroke="#000" stroke-width="5.625"/>
   <g stroke="#010000">
    <path d="m740.4 336.4-47.8 86.7" stroke-width="6.5625"/>
    <path d="m598.2 430.9 132.9-94.9-39 72.4c-8.4 15.5 5 26.1 21.5 22.2 2.8-.7 9.4-2.3 14-6l18.1-14.2" stroke-width="5.625"/>
    <path d="m735.7 336.4-44.7 81.9" stroke-width="6.5625"/>
   </g>
  </g>
  <path d="m697.5 416.9c-1.6 4.1-2.6 6.5.8 11.9" stroke="#010000" stroke-width="3.75"/>
  <g stroke-linejoin="round">
   <path d="m740.4 336.4-9.3-.4" stroke="#010000" stroke-width="6.5625"/>
   <g stroke="#000">
    <g stroke-width="5.625">
     <path d="m263.8 431c-15.7 2.6 52.6-40 72.7-59"/>
     <path d="m263.8 431c57.6-20.9 87.6-147.4 11-72.1"/>
     <path d="m336.5 372s14.7-15.6 34.5-25.7c12.6-6.5 25.3-11.4 33.2-9.9 20.2 3.8 18.7 54.1 53.5 25.2"/>
     <path d="m381.6 341.4c6.3-2.8 21.8-2.6 31.1 17.6 6.6 14.3 16.3 11.1 24 11.6"/>
    </g>
    <path d="m398.7 339.2c7.8 4.9 8.8 2 26.1 28.6" stroke-width="6.587558"/>
    <path d="m457.6 361.5s27.3-24.9 49.5-25.5c17.5-.5 19.1 33.5 36 33.6 4.5 0 10.1-2.4 17.4-8.4" stroke-width="5.625"/>
   </g>
   <path d="m560.6 361.2c13.4-11.4 67.7-80.7 82.4-101.5" stroke="#010000" stroke-width="5.625"/>
  </g>
 </g>
</svg>
