<svg height="210mm" viewBox="0 0 1052.4 744.1" width="297mm" xmlns="http://www.w3.org/2000/svg">
 <g fill="none" stroke-linecap="round">
  <g transform="translate(0 -308.26772)">
   <path d="m57.6 742.2h948.8" stroke="#969696" stroke-width="1.875"/>
   <g stroke="#000" stroke-dasharray="3.75 7.5" stroke-miterlimit="2" stroke-width=".9375">
    <path d="m58.3 844.1h948.8"/>
    <path d="m58.3 641.8h948.8"/>
    <path d="m58.3 540.6h948.8"/>
   </g>
  </g>
  <g stroke="#000" stroke-width="5.625">
   <path d="m182.8 335.8c-46.4 12.1-89.5 99-51.3 95.3 34.2-3.3 100-69 123.7-85.7" stroke-linejoin="round"/>
   <path d="m67.3 397.9 33.9-16-25.6 49.5s69-72.7 78-78.7" stroke-linejoin="round"/>
   <path d="m350 287.1-51.7 94.9"/>
   <g stroke-linejoin="round">
    <path d="m298.2 382 61.1-45.7"/>
    <path d="m515.6 381.9c5.4-3.3 11.7-10.5 6.5-17.1-2.6-3.3-4-4.5-11.9-4.4l-135 .6c-5.8 0-12.7.1-15.9-.7-9.6-2.4-7.9-13.2 0-24"/>
    <path d="m273.6 335.9c-54.1 18.1-54.7 83.7-70.4 130.9-21.4 58.7-43.4 68.8-54.5 66.3-27.2-7.2 28.7-67.3 68.8-109 16-16.8 132.5-137 132.5-137"/>
    <path d="m571.4 434.6c23.2-10.9 415.2-200 415.2-200"/>
    <path d="m571.4 434.6c-3.2 1.4-6.5 3-9.8 4.8-3 1.7-6.1 3.5-9.1 5.6-37.2 24.7-71.5 71.3-65.4 85.5 5.7 13.2 70.8-24.4 97.1-134.9 20.3-90.7 58-149.8 92.8-161.4"/>
   </g>
  </g>
 </g>
</svg>
