<svg height="210mm" viewBox="0 0 1052.4 744.1" width="297mm" xmlns="http://www.w3.org/2000/svg">
 <g fill="none" stroke-linecap="round">
  <g transform="translate(0 -308.26772)">
   <path d="m57.6 742.2h948.8" stroke="#969696" stroke-width="1.875"/>
   <g stroke="#000" stroke-dasharray="3.75 7.5" stroke-miterlimit="2" stroke-width=".9375">
    <path d="m58.3 844.1h948.8"/>
    <path d="m58.3 641.8h948.8"/>
    <path d="m58.3 540.6h948.8"/>
   </g>
  </g>
  <g stroke="#000" stroke-linejoin="round">
   <g stroke-width="5.625">
    <path d="m441.4 431.4 76.6-74.5"/>
    <path d="m487.4 431.6-55.2-45"/>
    <path d="m303 491.3c-3.3 11.5-3.6 22.1-.4 29.1 3.5 7.7 11.2 11.1 20.4 12 10 .9 19.1-4.2 27.7-14.2 6.7-7.7 11.5-14.6 16.4-22.2 19.6-31.2 65.2-109.4 65.2-109.4"/>
    <path d="m787.7 253.5c-5.4 4.4-10.7 9.2-18.2 8.9-16.6-.6-12.9-27.9-31.3-27.5-13.3.3-21.4 15-30.4 27.3-32.9 46.6-60 97.2-93.9 143.1-16.2 21.9-19.7 23.9-28 25.1-13.5 1.4-27.4.9-42.1 1s-33.4-.3-33.4-.3 1.9-1.8 7.4-4.9c10.9-6.3 20.6-16.1 28.3-27.1 18.1-25.6 25.5-56.3 14.4-62-1.4-.7-3-.8-4.9-.9-12.5-.3-26.9 10.6-37.7 20.7"/>
   </g>
   <ellipse cx="707.5719" cy="-91.683777" rx="5.271424" ry="7.848564" stroke-width="14.034715" transform="matrix(.72846687 .68508103 -.68508103 .72846687 0 0)"/>
  </g>
 </g>
</svg>
