<svg height="210mm" viewBox="0 0 1488.2 744.1" width="420mm" xmlns="http://www.w3.org/2000/svg">
 <g fill="none" stroke-linecap="round">
  <g transform="translate(0 -308.26772)">
   <path d="m22.7 742.2h1433.7" stroke="#969696" stroke-width="1.875"/>
   <g stroke="#000" stroke-dasharray="3.75 7.5" stroke-miterlimit="2" stroke-width=".9375">
    <path d="m23.5 844.1h1433.6"/>
    <path d="m23.5 641.8h1433.6"/>
    <path d="m23.5 540.6h1433.6"/>
   </g>
  </g>
  <g stroke="#000">
   <g stroke-linejoin="round" stroke-width="5.625">
    <path d="m1135 317.8s-202.2 124.5-225.4 145.7c-34.6 31.6-43.9 58.1-40.9 65.8 1.1 2.9 17.7 21.8 57.3-41.8l88-150.7"/>
    <path d="m1270.7 378.7c-16.2-6.2 103-35.8 111.8-34.4 15.8 4.3 15.5 32.1 32.2 33.7 5.5.5 10.3-2.8 21.2-12.3"/>
    <path d="m1135 317.8c64.9-39.5 204.7-132.4 236.9-136.4 14.8-.3 18.4 11.5 14.1 28.7-12.2 49.4-75.5 152.3-115.4 168.7"/>
    <path d="m717 335.7c-46.2 12.1-86.5 101.5-51 95.2 18.7-3.3 28.4-15 47.1-30.5"/>
    <path d="m713.1 400.4 19.9-17.5 33.3 47.9"/>
    <path d="m733 382.8 24 48"/>
    <path d="m742.5 382.9 23.8 47.9"/>
    <path d="m738.6 382.7 24 48"/>
   </g>
   <path d="m733.4 381.8h9" stroke-width="3.75"/>
   <path d="m756.9 431.7h9" stroke-width="3.75"/>
   <g stroke-width="5.625">
    <path d="m766.3 430.7c23.4-12.4 57.1-32.2 72.6-33.1 20.1-.2 13.2 32.4 36.8 33.8 10.8-.3 25.3-12.5 40.4-23.9" stroke-linejoin="round"/>
    <path d="m916.1 407.6 97.8-70.9" stroke-linejoin="round"/>
    <path d="m401.5 234.1-94.3 196.5"/>
    <g stroke-linejoin="round">
     <path d="m307.2 430.6 88.9-87.2"/>
     <path d="m396.1 343.4c5.8-5.9 11.3-8.3 18.7-9.3 11.9-.6 14.3.7 18.7 3.2 7.6 4.3 8 17.2-6 41.5l-29.8 52.1"/>
     <path d="m437.4 346-48.9 84.8"/>
     <path d="m438 350.9-45.6 79.9"/>
     <path d="m388.5 430.9 9.3.1"/>
    </g>
   </g>
   <path d="m431.1 337c3.7 2.9 3.4 12.6 1.1 16.3" stroke-width="3.75"/>
   <g stroke-width="5.625">
    <path d="m398.2 430.5s60.3-31 85-32c18.9-.8 14.5 32.5 31.4 32.3 18-.2 43.7-29.9 52.3-38.1" stroke-linejoin="round"/>
    <path d="m45.8 430.9s41.9-26.3 90.6-27.2 61.9 26.5 96.3 26.5c25.8.1 43.9-11.4 54.8-17.9" stroke-linejoin="round"/>
    <path d="m287.6 412.4-58.8 121.2"/>
    <ellipse cx="208.757" cy="677.93152" rx="25.728558" ry="20.371416" stroke-linejoin="round" transform="matrix(.79083574 -.61202846 .61202846 .79083574 0 0)"/>
   </g>
  </g>
 </g>
</svg>
