<svg height="210mm" viewBox="0 0 1052.4 744.1" width="297mm" xmlns="http://www.w3.org/2000/svg">
 <g fill="none" stroke-linecap="round">
  <g transform="translate(0 -308.26772)">
   <path d="m57.6 742.2h948.8" stroke="#969696" stroke-width="1.875"/>
   <g stroke="#000" stroke-dasharray="3.75 7.5" stroke-miterlimit="2" stroke-width=".9375">
    <path d="m58.3 844.1h948.8"/>
    <path d="m58.3 641.8h948.8"/>
    <path d="m58.3 540.6h948.8"/>
   </g>
  </g>
  <g stroke="#000">
   <g stroke-linejoin="round" stroke-width="5.625">
    <path d="m381.4 335.1c76.1-9.8 139.9-82.8 91.8-98.2-14.7-4.7-42.9 10.9-90.1 88.8-43.9 74.6-46.5 103.4-30.6 105.2 13.4 1.5 28.1-.8 47.4-18.9"/>
    <path d="m376.4 414.7c1 .1 1.8.3 2.5.7.2.1.4.2.6.4 1.2.9 1.7 2.6 1 5.2-1.3 5.1-7.1 8-9.8 9-5.7 2-9.8-2.6-6.6-7.6 2-3.1 5.5-6.6 9.7-7.5.3-.1.6-.1.9-.1s.7-.1 1-.1c.8 0 1.6.1 2.4.3"/>
    <path d="m399.9 412.1c9.7-7.5 20.9-14.4 22.3-15.2 16.1-8.7 34.3-16.3 44.6-11.3.7.3 4.1 2 4.7 2.4 3.6 2.8 4.3 7.5 2.9 15.3-2.7 14.7-19.7 23.3-29 26.7-16.7 6-30-4.9-23.1-21.6 8.2-20.1 13-25.3 26.3-44.8"/>
   </g>
   <path d="m470.5 391.6c.5 14-3.9 29.5-21.6 36.4" stroke-width="5.254168"/>
   <path d="m466 386.4c1 22.2-7.3 32.5-23.3 41.6" stroke-width="6.164892"/>
   <path d="m450.2 421.1c-4.8 3.9-16.5 10.1-24.2 5.3" stroke-width="2.662112"/>
   <path d="m455.1 385.7c7.9-1.4 10.9 3.2 10.8 9.3" stroke-width="2.662112"/>
   <path d="m536.6 234.1-88 129.5" stroke-width="5.625"/>
  </g>
  <g stroke-linejoin="round" stroke-width="5.625">
   <path d="m536.6 234.1 20 47.9" stroke="#060000"/>
   <g stroke="#000">
    <path d="m560.5 432.4s48.2-38.7 104.4-40c56.1-1.3 71.3 40.1 111 39.1 23.6-.6 46.5-11.3 63.9-20.4"/>
    <path d="m560.5 432.4c-43.3 18.4-81.3 82.2-72.6 98 2.9 5.3 34.7 12.4 62.3-63.3 15.8-47.4 16.5-113.3 70.8-131.6"/>
   </g>
  </g>
 </g>
</svg>
