<svg height="210mm" viewBox="0 0 1052.4 744.1" width="297mm" xmlns="http://www.w3.org/2000/svg">
 <g fill="none" stroke-linecap="round">
  <g transform="translate(0 -308.26772)">
   <path d="m57.6 742.2h948.8" stroke="#969696" stroke-width="1.875"/>
   <g stroke="#000" stroke-dasharray="3.75 7.5" stroke-miterlimit="2" stroke-width=".9375">
    <path d="m58.3 844.1h948.8"/>
    <path d="m58.3 641.8h948.8"/>
    <path d="m58.3 540.6h948.8"/>
   </g>
  </g>
  <g stroke="#000">
   <g stroke-width="5.625">
    <path d="m366.5 385.1c-44.7 32.5-81 79.8-72.2 95.6 2.9 5.3 34.7 12.4 62.3-63.4 15.8-47.4 16.5-113.3 70.8-131.6" stroke-linejoin="round"/>
    <path d="m406.1 297.3c-27.4 24.6-28.9 58.7-39.7 100.9-7.5 29.4-23.1 69.4-55.3 83.9"/>
    <path d="m396.3 307.7c-22.2 34.7-16.3 49.9-25.9 88.3-10 39.9-19.2 60.3-50.1 80.6"/>
   </g>
   <path d="m415.3 291.1c-14.2 7.9-151.8 100.5-151.8 100.5" stroke-width="5.625002"/>
   <g stroke-linejoin="round">
    <path d="m293.6 396.8a19.2 25.1 41.6 0 1 -14.3 31.3 19.2 25.1 41.6 0 1 -27.6-6.8 19.2 25.1 41.6 0 1 14.3-31.3 19.2 25.1 41.6 0 1 27.6 6.8z" stroke-width="5.625001"/>
    <path d="m366.5 385.1c12.2-9.7 79.9-66.7 101.1-82.4 9.3-6.9 22.8-18.3 38.4-17.8" stroke-width="5.625"/>
    <path d="m506 284.9c3.3-.4 6.4-.1 9 .9 2.8 1 5 2.6 6.6 4.7 3.7 5.2 3.1 13.5-5.1 23.4-18.6 22.5-35 35.7-38.5 47.6-1.1 3.7-.9 7.3.8 10.9 1.3 2.9 3.7 4.9 6.6 6.2 2.8 1.2 8.2 1.6 11.4 1.2 15.7-2 35.7-19.5 111.8-94.9" stroke-width="5.625"/>
    <g stroke-width="5.624999">
     <path d="m616.8 284.9-46.6 95.4"/>
     <path d="m616.8 284.9h-8.2"/>
     <path d="m612.9 285.8-45.7 93.9"/>
     <path d="m570.2 380.3h-8.2"/>
     <path d="m608.5 284.9-46.6 95.4"/>
     <path d="m821.6 320.4c-7.6 6.2-17.1 11.1-24.5 11.3-7.3.8-13.7-1.8-16.3-7.4-7.2-15.5 13.3-29.1 37.7-58.6 8.2-9.9 8.8-18.2 5.1-23.4-1.5-2.2-3.8-3.8-6.6-4.7-10-3-17.2-1.2-24.2 2.4-12.7 6.6-28.4 21.2-46.1 37-10.4 9.2-38 35-72.9 64-24.3 20.2-93.2 69.7-74.7 88 7 6.3 26.9.1 57.1-40.9 26.9-36.9 53.3-75.4 68-118.4 2.9-7.6 5-15.8 4.9-22.4-.1-7.4-3-12.8-10.9-13.1-4-.1-8.5 1.1-13.1 4.1-13.2 8.3-29.5 24.4-43.7 39.9-5.9 6.4-65.7 74.8-91.2 102.2"/>
    </g>
   </g>
  </g>
 </g>
</svg>
