<svg height="210mm" viewBox="0 0 1052.4 744.1" width="297mm" xmlns="http://www.w3.org/2000/svg">
 <g fill="none" stroke-linecap="round">
  <g transform="translate(0 -308.26772)">
   <path d="m57.6 742.2h948.8" stroke="#969696" stroke-width="1.875"/>
   <g stroke="#000" stroke-dasharray="3.75 7.5" stroke-miterlimit="2" stroke-width=".9375">
    <path d="m58.3 844.1h948.8"/>
    <path d="m58.3 641.8h948.8"/>
    <path d="m58.3 540.6h948.8"/>
   </g>
  </g>
  <g stroke="#000">
   <path d="m437.2 234.1s-88.4 157.8-102.7 177.5c-9.9 13.4-18.8 20.8-34 19.7-16.1-.8-24.1-21.9-42.1-22.5-18.2-.4-20.1 21.6-3.5 22.4 8.5.4 19.6-3.7 43.1-42.5 22.8-36 22-52.9 8.2-52.4-10.5.4-27.6 12-36.6 21.6" stroke-width="5.625"/>
   <g stroke-linejoin="round">
    <g stroke-width="5.625">
     <path d="m457.7 280.4c37.7-19.3 77.5-33.9 116.4-35.2 56.1-1.3 71.3 36.3 111 35.4 23.6-.6 42.4-7.1 58.2-14.1 26.7-11.8 44-19.4 73.6-34.6 31.1-17.7 40.3-35.6 37.4-43.1-2.8-7.3-32.7-5.1-56.5 34.3-10.9 18.5-21.9 37.4-32.8 57.2"/>
     <path d="m765 280.4 9.8-.1"/>
     <path d="m813.2 203.4-38.4 76.9"/>
    </g>
    <path d="m803.5 218.3-30.8 57" stroke-width="7.499999"/>
    <path d="m833.1 189.4c-14 6.1-23.4 21.4-30.7 36.4" stroke-width="4.6875"/>
    <path d="m437.2 234.1 20.5 46.3" stroke-width="5.625"/>
   </g>
  </g>
 </g>
</svg>
