<svg height="210mm" viewBox="0 0 1052.4 744.1" width="297mm" xmlns="http://www.w3.org/2000/svg">
 <g fill="none" stroke-linecap="round">
  <g transform="translate(0 -308.26772)">
   <path d="m57.6 742.2h948.8" stroke="#969696" stroke-width="1.875"/>
   <g stroke="#000" stroke-dasharray="3.75 7.5" stroke-miterlimit="2" stroke-width=".9375">
    <path d="m58.3 844.1h948.8"/>
    <path d="m58.3 641.8h948.8"/>
    <path d="m58.3 540.6h948.8"/>
   </g>
  </g>
  <g stroke="#000" stroke-linejoin="round">
   <path d="m434.3 336.2-46.6 95.4" stroke-width="5.624999"/>
   <ellipse cx="713.32397" cy="-193.34094" rx="4.609393" ry="6.862875" stroke-width="5.625" transform="matrix(.72846687 .68508103 -.68508103 .72846687 0 0)"/>
   <path d="m387.8 431.6 265.5-78.7" stroke-width="5.624999"/>
   <g stroke-width="5.625">
    <path d="m646.7 353.2c7 4.2 6.3 5.6 16.1 6.1 22.2 1.2 49.5-23.5 74-23.3 19.9.2 16.4 30.7 34.5 30.7 8.7 0 14.1-5.3 19.4-11.5"/>
    <path d="m267.8 488.4c-4.2 5.3-6.7 11.9-7.7 17.1-1.3 7.3.3 13.6 2.3 16.5 1.4 2.1 3.5 5.2 7.4 7.5 2.9 1.7 7.3 3 10.8 3.1 4.1.2 9.5-1 14.4-4.3 3.5-2.3 6.6-6 9.7-9.4 11.7-12.8 129.6-182.7 129.6-182.7"/>
   </g>
  </g>
 </g>
</svg>
