<svg height="210mm" viewBox="0 0 1052.4 744.1" width="297mm" xmlns="http://www.w3.org/2000/svg">
 <g fill="none" stroke-linecap="round">
  <g transform="translate(0 -308.26772)">
   <path d="m57.6 742.2h948.8" stroke="#969696" stroke-width="1.875"/>
   <g stroke="#000">
    <g stroke-dasharray="3.75 7.5" stroke-miterlimit="2" stroke-width=".9375">
     <path d="m58.3 844.1h948.8"/>
     <path d="m58.3 641.8h948.8"/>
     <path d="m58.3 540.6h948.8"/>
    </g>
    <g stroke-width="5.625">
     <path d="m755.7 541.6-153.3 197.8"/>
     <g stroke-linejoin="round">
      <path d="m422.8 734.4 37.6-27.8-66.9 138.5"/>
      <path d="m315.3 742.1s44.6-32.4 61.8-29.2 16 46.2 45.6 21.5"/>
      <path d="m358.9 716.9c5.4-2.4 18.6-2.2 26.5 15 5.6 12.2 13.9 9.5 20.5 9.9"/>
      <path d="m373.5 715c6.7 5.9 6.3.5 21.2 23.1"/>
     </g>
    </g>
   </g>
  </g>
  <g stroke="#000">
   <g stroke-linejoin="round" stroke-width="5.625">
    <path d="m558.1 332.1c54.3-11 95.5-79.5 89.2-96.2-5.5-14.4-40.2 8.9-87.4 86.8l-61.6 109.8 66.3-54.4"/>
    <path d="m564.6 378c16.5-14.1 33.4-29.8 55.4-39.5 19.6-8.3 35 2.5 12.3 40.5l-29.8 52.1"/>
    <path d="m642.4 344.9-49.3 86.2"/>
    <path d="m642.6 351.2-45.6 79.9"/>
    <path d="m593.1 431.1 9.3.1"/>
   </g>
   <path d="m638.4 338.8c1.8 1.7 2.3 5.7.7 9.9" stroke-width="3.75"/>
  </g>
 </g>
</svg>
