<svg height="210mm" viewBox="0 0 1052.4 744.1" width="297mm" xmlns="http://www.w3.org/2000/svg">
 <g stroke-linecap="round">
  <g fill="none">
   <g transform="translate(0 -308.26772)">
    <path d="m57.6 742.2h948.8" stroke="#969696" stroke-width="1.875"/>
    <g stroke="#000" stroke-dasharray="3.75 7.5" stroke-miterlimit="2" stroke-width=".9375">
     <path d="m58.3 844.1h948.8"/>
     <path d="m58.3 641.8h948.8"/>
     <path d="m58.3 540.6h948.8"/>
    </g>
   </g>
   <g stroke="#000" stroke-linejoin="round" stroke-width="5.625">
    <path d="m579.6 336.8c-42.8 11.2-83.1 84.8-58.6 93 6.7 2.2 71.3 7 93.6-11.1"/>
    <path d="m614.6 418.7c23.1-12.3 55.4-31.4 59.6-33.9 7.2-4.5 15.1-9 20.2-13.4 12.8-11.2 18.6-26.1 16.7-30.9-2.8-7.3-34.7-8.6-58.5 30.7-26.3 43.1-18.8 59.4-2.7 59.3 5.3-.6 10.7-2.2 15.8-4.4"/>
   </g>
  </g>
  <g fill="#eb0000" fill-rule="evenodd" stroke="#000" stroke-linejoin="round" transform="matrix(1.7715894 0 0 1.7715894 -700.15849 76.668533)">
   <path d="m732.1 185.5c.8.1 1.4.2 1.9.5.2.1.3.2.5.3.9.7 1.3 2 .8 4-1 3.9-5.4 6.1-7.5 6.9-4.3 1.6-7.6-2-5.1-5.9 1.6-2.4 4.2-5.1 7.4-5.7.2 0 .4-.1.7-.1h.8c.6 0 1.2.1 1.9.3" stroke-width="5.625"/>
   <path d="m729.3 188.3c.3 0 .6.1.9.2.1 0 .2.1.2.1.4.3.6.9.4 1.8-.4 1.7-2.4 2.8-3.3 3.1-1.9.7-3.4-.9-2.3-2.6.7-1.1 1.9-2.3 3.3-2.6h.3.4c.3 0 .6 0 .8.1" stroke-width="4.981044"/>
  </g>
  <g fill="none">
   <g stroke-linejoin="round">
    <path d="m555.6 349c-38.8 25.4-93.8 100.2-115.3 121" stroke="#000" stroke-width="5.625"/>
    <path d="m366.3 431.5 12.9-4.6" stroke="#000" stroke-width="5.625"/>
    <g stroke="#010000">
     <path d="m447.3 387.6-47.8 86.7" stroke-width="6.5625"/>
     <path d="m379.2 426.9 58.8-39.7-39 72.4c-8.4 15.5 5 26.1 21.5 22.2 2.8-.6 11.9-3.3 19.9-11.9" stroke-width="5.625"/>
     <path d="m442.6 387.6-44.7 81.9" stroke-width="6.5625"/>
    </g>
   </g>
   <path d="m404.4 468.2c-1.6 4.1-2.6 6.5.8 11.9" stroke="#010000" stroke-width="3.75"/>
   <g stroke="#000" stroke-linejoin="round">
    <path d="m447.3 387.6-9.3-.4" stroke-width="6.5625"/>
    <path d="m370.5 416.5c1 .1 1.8.3 2.5.7.2.1.4.2.6.4 1.2.9 1.7 2.6 1 5.2-1.3 5.1-7.1 8-9.8 9-5.7 2-9.8-2.6-6.6-7.6 2-3.1 5.5-6.6 9.7-7.5.3-.1.6-.1.9-.1s.7-.1 1-.1c.8 0 1.6.1 2.4.3" stroke-width="5.625"/>
   </g>
  </g>
 </g>
</svg>
