<svg height="210mm" viewBox="0 0 1052.4 744.1" width="297mm" xmlns="http://www.w3.org/2000/svg">
 <g fill="none" stroke-linecap="round">
  <g transform="translate(0 -308.26772)">
   <path d="m57.6 742.2h948.8" stroke="#969696" stroke-width="1.875"/>
   <g stroke="#000" stroke-dasharray="3.75 7.5" stroke-miterlimit="2" stroke-width=".9375">
    <path d="m58.3 844.1h948.8"/>
    <path d="m58.3 641.8h948.8"/>
    <path d="m58.3 540.6h948.8"/>
   </g>
  </g>
  <g stroke="#000">
   <g stroke-width="5.625">
    <g stroke-linejoin="round">
     <path d="m182.6 431.3c43.9-15.9 71.5-94.7 46.6-94.9-7.2-.1-18.9 6.5-35.8 23.2"/>
     <path d="m182.6 431.3c-4.1 1.6-6.6-1.3-2.9-4.3 20.3-16.8 301.7-147.5 377.3-181.8 11.5-5.2 18.6-8 23.1-9.1 3.5-.8 6.6-1.1 9.3-1.1 7.2.1 11.8 3 14.2 8 7.2 15.3-6.2 50.9-28.6 90.5-26.3 44.8-62.9 89.6-90.3 98"/>
     <ellipse cx="212.11162" cy="679.51031" rx="27.110373" ry="21.465513" transform="matrix(.79083574 -.61202846 .61202846 .79083574 0 0)"/>
    </g>
    <path d="m571.2 390.1c45.6-28.7 66.1-42.8 83.2-50.7 6.5-3.2 20.5-6 25.3 1.4 1.8 2.9 2.4 7.3 2.1 12.5-.4 7-2.5 14.6-5.4 23-13.7 38-42.4 75.8-69.3 112.7-30.2 42.3-44.4 47.5-51.3 43.2-21.1-14.4 52.4-87.3 87.8-97.7"/>
    <path d="m484.7 431.6c-3.8.8-6.8-1.8-3.4-4.5 3.9-3.1 95.4-40.7 95.4-40.7"/>
    <g stroke-linejoin="round">
     <ellipse cx="760.37793" cy="-139.72012" rx="4.609393" ry="6.862875" transform="matrix(.72846687 .68508103 -.68508103 .72846687 0 0)"/>
     <path d="m804.8 251.9c-66.8 47.2-129 164.9-155.6 172.7"/>
    </g>
   </g>
   <g stroke-linejoin="round">
    <path d="m832.8 385.4c-12 9.3-35.3 26.5-46.8 32.9-6.3 3.5-12.2 6.6-19.1 9.3-9.4 3.5-27 9-34.9-4.5-2-3.6-3.2-8.3-3.6-13.9-3.6-43.8 38.3-140.8 101.7-175" stroke-width="5.624999"/>
    <path d="m832.8 385.4 20.5 46.5" stroke-width="5.625"/>
   </g>
  </g>
 </g>
</svg>
