<svg height="210mm" viewBox="0 0 1052.4 744.1" width="297mm" xmlns="http://www.w3.org/2000/svg">
 <g fill="none" stroke-linecap="round">
  <g transform="translate(0 -308.26772)">
   <path d="m57.6 742.2h948.8" stroke="#969696" stroke-width="1.875"/>
   <g stroke="#000" stroke-dasharray="3.75 7.5" stroke-miterlimit="2" stroke-width=".9375">
    <path d="m58.3 844.1h948.8"/>
    <path d="m58.3 641.8h948.8"/>
    <path d="m58.3 540.6h948.8"/>
   </g>
  </g>
  <g stroke="#000" stroke-linejoin="round">
   <path d="m165.2 431.5s214.7-81 227.2-85.5c8.8-3.2 17.7-6.2 21.6-7.4 7.9-2.3 14.9-3.6 21.3-1.5 2.8.9 5 2.6 6.6 4.7 3.7 5.2 3.1 13.5-5.1 23.4-24.4 29.4-45.3 42.8-38 58.3 2.6 5.6 9.3 7.5 16.3 7.4 19.2-.2 34.4-13.7 67.6-51.3 13.6-15.4 34.8-43.1 53.7-43.3 24.5 0 23.3 34.6 47 34.7" stroke-width="5.624999"/>
   <g stroke-width="5.625">
    <path d="m165.2 431.5 60.6-108.1c26.4-48.6 52-72.9 91.2-88.5"/>
    <path d="m653 336.5c24.5.7 25.1 33.8 48.8 34.5 17.3.5 36.2-24.9 58-60.6 12.8-20.9 41.8-70.8 48-81.4"/>
    <path d="m583.3 371.1c23.4.6 48.9-33.8 69.8-34.5"/>
    <path d="m807.9 229.1c4.7-9.3 14.5-25.3 26.9-25.8 13.4-.6 16.2 26.6 31.3 26.1 4.8-.1 11.1-3.9 19.6-13.3"/>
   </g>
  </g>
 </g>
</svg>
