<svg height="210mm" viewBox="0 0 1052.4 744.1" width="297mm" xmlns="http://www.w3.org/2000/svg">
 <g fill="none" stroke-linecap="round">
  <g stroke="#969696" transform="translate(0 -308.26772)">
   <path d="m57.6 742.2h948.8" stroke-width="1.875"/>
   <g stroke-dasharray="3.75 7.5" stroke-miterlimit="2" stroke-width=".9375">
    <path d="m58.3 844.1h948.8"/>
    <path d="m58.3 641.8h948.8"/>
    <path d="m58.3 540.6h948.8"/>
   </g>
  </g>
  <g stroke="#000" stroke-linejoin="round" stroke-width="5.625">
   <path d="m368.4 434.9c8.3-2.6 24-4.7 69.5-11.9 71.5-11.4 171-22.7 171-22.7"/>
   <path d="m608.9 400.3c1.8-.2 3.5-.1 5 .1 15 2.8 17 31.1 33.9 31.2"/>
   <path d="m647.7 431.6c20.3 0 32.5-31.2 62.4-88.3 5.8-11 32.9-64.5 41.8-82.1 5.8-11.5 12.6-25.3 25-25.8 13.4-.6 14.3 22.8 29.4 22.4 4.8-.1 11.1-3.9 19.6-13.3"/>
   <path d="m234.6 389.8c-7.6 26.1 4.6 41.6 26.6 40.9 32.3-1.1 66.5-43.5 90.7-70.1 18.2-20 30.9-25.1 38.7-24.7 13.4.7 17.1 13.8 9.5 36.8-14.7 43-42.4 79.5-69.3 116.4-43.5 61-58.9 41.1-59.8 38.1-8.6-26.3 74.6-86.8 97.4-92.3"/>
  </g>
 </g>
</svg>
