<svg height="210mm" viewBox="0 0 1052.4 744.1" width="297mm" xmlns="http://www.w3.org/2000/svg">
 <g fill="none" stroke-linecap="round">
  <g transform="translate(0 -308.26772)">
   <path d="m57.6 742.2h948.8" stroke="#969696" stroke-width="1.875"/>
   <g stroke="#000" stroke-dasharray="3.75 7.5" stroke-miterlimit="2" stroke-width=".9375">
    <path d="m58.3 844.1h948.8"/>
    <path d="m58.3 641.8h948.8"/>
    <path d="m58.3 540.6h948.8"/>
   </g>
  </g>
  <g stroke="#000" stroke-linejoin="round">
   <g stroke-width="5.625">
    <path d="m686.8 235c-13.9 25.6-28.8 50.5-43.4 75.7-11.9 20.5 10 23.2 29 16.4 3.5-.9 8.3-3.2 14.4-6.7"/>
    <path d="m686.8 320.4c12.9-7.6 41.5-24.9 55.9-23.6 19.5 3.6 18.2 52.4 51.8 24.4"/>
    <path d="m722 301.8c6.1-2.7 21.1-3 30.1 16.6 6.4 13.9 15.8 10.7 23.3 11.2"/>
   </g>
   <path d="m738.5 299.2c7.6 6.7 7.2.5 24 26.2" stroke-width="6.380773"/>
   <g stroke-width="5.625">
    <path d="m291.7 431.7 189.1-94.1"/>
    <path d="m472.7 342.6c24-12.8 64.6-40.2 86.7-42 16-.6 19.7 30.2 30.7 30 13.3-.2 31.8-22.5 55.6-50.8"/>
    <path d="m686.8 235-41.1 44.8"/>
    <ellipse cx="166.02354" cy="580.80615" rx="25.728558" ry="20.371416" transform="matrix(.79083574 -.61202846 .61202846 .79083574 0 0)"/>
   </g>
  </g>
 </g>
</svg>
