<svg height="210mm" viewBox="0 0 1052.4 744.1" width="297mm" xmlns="http://www.w3.org/2000/svg">
 <g fill="none" stroke-linecap="round">
  <g transform="translate(0 -308.26772)">
   <path d="m57.6 742.2h948.8" stroke="#969696" stroke-width="1.875"/>
   <g stroke="#000" stroke-dasharray="3.75 7.5" stroke-miterlimit="2" stroke-width=".9375">
    <path d="m58.3 844.1h948.8"/>
    <path d="m58.3 641.8h948.8"/>
    <path d="m58.3 540.6h948.8"/>
   </g>
  </g>
  <g stroke-linejoin="round" stroke-width="5.625">
   <path d="m454.3 336.2-34.4 71.8c-5.5 11.5 1.7 24.9 18.2 23.5" stroke="#000"/>
   <g stroke="#030002">
    <path d="m510.7 434.5c.9.1 1.6.3 2.2.6.2.1.4.2.5.3 1.1.8 1.5 2.2.9 4.5-1.2 4.4-6.2 6.9-8.5 7.8-4.9 1.8-8.6-2.3-5.7-6.6 1.8-2.7 4.8-5.7 8.4-6.5.2-.1.5-.1.7-.1.3 0 .6-.1.9-.1.7 0 1.4.1 2.1.3"/>
    <path d="m438 431.5 74.2 3.3"/>
    <path d="m484.8 434.7c.9.1 1.6.3 2.2.6.2.1.4.2.5.3 1.1.8 1.5 2.2.9 4.5-1.2 4.4-6.2 6.9-8.5 7.8-4.9 1.8-8.6-2.3-5.7-6.6 1.8-2.7 4.8-5.7 8.4-6.5.2-.1.5-.1.7-.1.3 0 .6-.1.9-.1.7 0 1.4.1 2.1.3"/>
   </g>
   <g stroke="#000">
    <path d="m503.9 436.5c13.9-14.1 32.6-37.6 57-46.3 21-5.4 35 2.5 12.3 40.5l-31.2 52.3"/>
    <path d="m542 483 73.5-42.5"/>
    <path d="m583.3 396.6-49.2 86.2"/>
    <path d="m583.6 402.8-45.6 79.9"/>
    <path d="m534.1 482.7 7.9.3"/>
   </g>
  </g>
  <path d="m579.4 390.4c1.8 1.7 2.3 5.7.7 9.9" stroke="#000" stroke-width="3.75"/>
 </g>
</svg>
