<svg height="210mm" viewBox="0 0 1052.4 744.1" width="297mm" xmlns="http://www.w3.org/2000/svg">
 <g fill="none" stroke-linecap="round">
  <g transform="translate(0 -308.26772)">
   <path d="m57.6 742.2h948.8" stroke="#969696" stroke-width="1.875"/>
   <g stroke="#000" stroke-dasharray="3.75 7.5" stroke-miterlimit="2" stroke-width=".9375">
    <path d="m58.3 844.1h948.8"/>
    <path d="m58.3 641.8h948.8"/>
    <path d="m58.3 540.6h948.8"/>
   </g>
  </g>
  <g stroke="#000">
   <g stroke-linejoin="round">
    <path d="m701.4 383.4 24 47.9" stroke-width="5.625"/>
    <path d="m646.7 336.1c-13.7 23-33.6 61.1-38.8 72-6.8 14.3 2.4 23.8 16.6 22.9 21.1-.2 64.7-38 77-47.6" stroke-width="5.625"/>
    <path d="m725.5 431.4c25.4-35.6 37.5-52.1 52.3-71.5 12.9-16.8 24.7-23.7 38.2-23.6 11.6.1 16.5 12.5 7.1 32.6-10 21.3-33.7 62.7-33.7 62.7" stroke-width="5.624999"/>
   </g>
   <path d="m564.4 337.4c15.4 7.9 4.2 30.4-12.1 46.3-14 13.6-22.7 25.7-28.7 37.7" stroke-width="5.472634"/>
   <path d="m564.6 338.9c.8-1.1 3.6 6 .5 13.9-3.2 8.2-12.5 19.1-17.8 24.2-10.5 9.9-29.8 28.2-23.7 44.5" stroke-width="5.472634"/>
   <g stroke-width="2.736317">
    <path d="m554.1 337.3c14.4-1 11.6 11.4 8.1 18.3"/>
    <path d="m530.9 411.4c-3.2 4.4-7.2 16.1 2.6 17.8"/>
    <path d="m521.1 415.6c-.1 5.5 2.8 11.2 4.7 12.8"/>
   </g>
   <g stroke-linejoin="round" stroke-width="5.625">
    <path d="m464.4 336.2c-13.7 23-33.6 61.1-38.8 72-6.8 14.3 2.4 23.8 16.6 22.9 25.8.2 39.9-24.5 56.5-46.2 18.6-24.3 31-42 49.6-48.1 2.9-.9 5.9-1 8.6-1 13 .1 20.7 10.2 7.1 27-26.6 32.9-44.6 48.9-38.7 62.2 1.5 3.4 5 5.2 9.4 5.8 1.7.2 3.6.3 5.5.2 9.8-.4 28.8-10.9 52.4-35.3 11.2-11.7 54.2-59.7 54.2-59.7"/>
    <path d="m308.6 398.5 33.9-16-27.4 48.9 33.8-15.1"/>
   </g>
  </g>
 </g>
</svg>
