<svg height="210mm" viewBox="0 0 1052.4 744.1" width="297mm" xmlns="http://www.w3.org/2000/svg">
 <g fill="none" stroke-linecap="round">
  <g transform="translate(0 -308.26772)">
   <path d="m57.6 742.2h948.8" stroke="#969696" stroke-width="1.875"/>
   <g stroke="#000" stroke-dasharray="3.75 7.5" stroke-miterlimit="2" stroke-width=".9375">
    <path d="m58.3 844.1h948.8"/>
    <path d="m58.3 641.8h948.8"/>
    <path d="m58.3 540.6h948.8"/>
   </g>
  </g>
  <path d="m509.9 362.2c-27.4 33.8-47.1 47.2-41.1 60.9 2.4 5.4 8.9 8.5 23.7 8" stroke="#000" stroke-linejoin="round" stroke-width="5.625"/>
  <path d="m516 414.2c1 .1 1.8.3 2.5.7.2.1.4.2.6.4 1.2.9 1.7 2.6 1 5.2-1.3 5.1-7.1 8-9.8 9-5.7 2-9.8-2.6-6.6-7.6 2-3.1 5.5-6.6 9.7-7.5.3-.1.6-.1.9-.1s.7-.1 1-.1c.8 0 1.6.1 2.4.3" stroke="#030002" stroke-linejoin="round" stroke-width="5.625"/>
  <g stroke="#000">
   <g stroke-linejoin="round">
    <g stroke-width="5.625">
     <path d="m492.5 431.1c23.7 0 40.2-5.1 110.8-49.8 36-22.8 41.4-45.1 29.3-45.5-7.5-.3-26.4 4-49.2 41.6-26.3 43-19.9 52.2-4.8 53.6"/>
     <path d="m578.6 430.9c13.4 1.5 61.6-28.8 78.6-30.3 16-.6 21.6 31 32.6 30.7 7.2-.2 12.4-7.6 16.7-13"/>
     <path d="m437.9 395s29.3-39.2 32.3-42.9c5.8-7.1 13.7-13.3 20.9-15 19-4.5 36.1 3.9 18.9 25.2"/>
    </g>
    <path d="m426 336.4-47.8 86.7" stroke-width="6.5625"/>
    <path d="m322.3 431.2 94.4-95.2-39 72.4c-8.4 15.5 5 26 21.5 22.2 6.7-1.5 17.1-8.9 21-13.3 1.9-2.1 17.7-22.4 17.7-22.4" stroke-width="5.625"/>
    <path d="m421.4 336.3-44.7 81.9" stroke-width="6.5625"/>
   </g>
   <path d="m383.2 416.9c-1.6 4.1-2.6 6.5.8 11.9" stroke-width="3.75"/>
   <path d="m426 336.4-9.3-.4" stroke-linejoin="round" stroke-width="6.5625"/>
  </g>
 </g>
</svg>
