<svg height="210mm" viewBox="0 0 1052.4 744.1" width="297mm" xmlns="http://www.w3.org/2000/svg">
 <g fill="none" stroke-linecap="round">
  <g transform="translate(0 -308.26772)">
   <path d="m57.6 742.2h948.8" stroke="#969696" stroke-width="1.875"/>
   <g stroke="#000" stroke-dasharray="3.75 7.5" stroke-miterlimit="2" stroke-width=".9375">
    <path d="m58.3 844.1h948.8"/>
    <path d="m58.3 641.8h948.8"/>
    <path d="m58.3 540.6h948.8"/>
   </g>
  </g>
  <g stroke="#000" stroke-linejoin="round">
   <g stroke-width="5.625">
    <path d="m319.8 430.9c10.6-12.1 23.1-29.4 40-30.3 16-.6 21.6 31 32.6 30.7 7.2-.2 12.4-7.6 16.7-13"/>
    <path d="m409.1 418.4s124.1-162.6 126.3-165.3c2.6-3.2 5-5.8 7.4-7.8 83-65-26.7 159.9-88.2 186.6-8.6 1.9-13.4-.4-15.6-4.5"/>
    <path d="m570.8 253.7-91.7 157.9"/>
   </g>
   <path d="m565 270-73 125.6" stroke-width="8.4375"/>
   <path d="m462.3 427.5c6.6-8.2 16.4-19 22.5-27.9" stroke-width="3.75"/>
   <g stroke-width="5.625">
    <path d="m554 297.6-40.2 67.9"/>
    <path d="m572.5 240.1c.7 14-5.4 18.6-14.3 37.1"/>
    <path d="m454.6 432.1c-16.3 3.7-19-7.9-15.9-18.3 3.1-10.3 35.9-13.4 53.3-18.2l64.3-9.4"/>
    <ellipse cx="188.27103" cy="661.99908" rx="25.728558" ry="20.371416" transform="matrix(.79083574 -.61202846 .61202846 .79083574 0 0)"/>
    <path d="m607 327.5-65.4 64.5"/>
    <path d="m681.4 234.7-28.4 72.5c-6.4 16.4 5 26.1 21.5 22.2 10.1-2.1 36.6-14.2 66.3-32.9"/>
    <path d="m607.4 317.8c.8.1 1.4.2 1.9.5.2.1.3.2.5.3.9.7 1.3 2 .8 4-1 3.9-5.4 6.1-7.5 6.9-4.3 1.6-7.6-2-5.1-5.9 1.6-2.4 4.2-5.1 7.4-5.7.2 0 .4-.1.7-.1s.5-.1.8-.1c.6 0 1.2.1 1.9.3"/>
    <path d="m681.4 234.7-72.1 90.7"/>
   </g>
  </g>
 </g>
</svg>
