<svg height="210mm" viewBox="0 0 1052.4 744.1" width="297mm" xmlns="http://www.w3.org/2000/svg">
 <g fill="none" stroke-linecap="round">
  <g transform="translate(0 -308.26772)">
   <path d="m57.6 742.2h948.8" stroke="#969696" stroke-width="1.875"/>
   <g stroke="#000" stroke-dasharray="3.75 7.5" stroke-miterlimit="2" stroke-width=".9375">
    <path d="m58.3 844.1h948.8"/>
    <path d="m58.3 641.8h948.8"/>
    <path d="m58.3 540.6h948.8"/>
   </g>
  </g>
  <g stroke="#000" stroke-linejoin="round">
   <g stroke-width="5.625">
    <path d="m398.8 327.5c10.7 7 29.5-24.9 48.4-49.8 16-21.1 34.7-40.9 55.6-42.3 23.4-.2 35.6 20.7 45 42.9 10.5 24.8 17.6 51.3 33 51.8 13.8.8 27.5-12.4 37.9-24.8"/>
    <path d="m506 235.5c12.6.1 28 16.8 38.6 46.9 9.1 25.7 19 48.7 38.4 47.7"/>
    <path d="m509.9 236c16.2 2.5 31.7 14.4 43.2 44.1 9.2 23.9 10.5 44 22.6 48.8"/>
    <ellipse cx="512.33844" cy="-41.467476" rx="4.609393" ry="6.862875" transform="matrix(.72846687 .68508103 -.68508103 .72846687 0 0)"/>
   </g>
   <path d="m394.7 235c-10.8 23-21.6 45.9-32.3 68.9-2.3 5.8-4.6 12.7-1.1 18.5 2.9 4.9 8.5 7.5 14.1 7.7 8.4.7 17.2-.2 25.2-3.2" stroke-width="5.625001"/>
  </g>
 </g>
</svg>
