<svg height="210mm" viewBox="0 0 1052.4 744.1" width="297mm" xmlns="http://www.w3.org/2000/svg">
 <g fill="none" stroke-linecap="round">
  <g transform="translate(0 -308.26772)">
   <path d="m57.6 742.2h948.8" stroke="#969696" stroke-width="1.875"/>
   <g stroke="#000" stroke-dasharray="3.75 7.5" stroke-miterlimit="2" stroke-width=".9375">
    <path d="m58.3 844.1h948.8"/>
    <path d="m58.3 641.8h948.8"/>
    <path d="m58.3 540.6h948.8"/>
   </g>
  </g>
  <g stroke-width="5.625">
   <path d="m458.4 385.8s-112.8 56.5-136 77.7c-34.6 31.6-43.9 58.1-40.9 65.8 1.1 2.9 17.7 21.8 57.3-41.8l88-150.7" stroke="#060000" stroke-linejoin="round"/>
   <g stroke="#000">
    <path d="m458.4 385.8s183.1-90.5 207.4-99.2c17.4-4.5 29.9.1 20.9 23.4-6.3 15.9-28.2 69.4-28.2 69.4" stroke-linejoin="round"/>
    <path d="m782.4 181.5-123.8 197.9"/>
    <path d="m831 183.4c-35.9 22.6-66.9 56.8-48.6-1.9" stroke-linejoin="round"/>
   </g>
  </g>
 </g>
</svg>
