<svg height="210mm" viewBox="0 0 1052.4 744.1" width="297mm" xmlns="http://www.w3.org/2000/svg">
 <g fill="none" stroke-linecap="round">
  <g transform="translate(0 -308.26772)">
   <path d="m57.6 742.2h948.8" stroke="#969696" stroke-width="1.875"/>
   <g stroke="#000" stroke-dasharray="3.75 7.5" stroke-miterlimit="2" stroke-width=".9375">
    <path d="m58.3 844.1h948.8"/>
    <path d="m58.3 641.8h948.8"/>
    <path d="m58.3 540.6h948.8"/>
   </g>
  </g>
  <g stroke-linejoin="round" stroke-width="5.625">
   <path d="m264.2 431.6 247.5-95.6c.4 5.9.6 51.2 23.7 48.9 57.1-5.6 63.7-51.1 51.2-51.5-7.7-.3-25.9 3.2-49.4 42-24.5 40.1-22.2 54-10.2 55.5 19.1 2 34.4-8.5 46.2-16.3" stroke="#000"/>
   <path d="m573.2 414.5 45.1-31.2 22.1 47.9" stroke="#060000"/>
   <path d="m640.4 431.1s52.4-29.4 69.2-30.3c16-.6 21.6 31 32.6 30.7 7.2-.2 12.4-7.6 16.7-13" stroke="#000"/>
  </g>
 </g>
</svg>
