<svg height="210mm" viewBox="0 0 1052.4 744.1" width="297mm" xmlns="http://www.w3.org/2000/svg">
 <g fill="none" stroke-linecap="round">
  <g transform="translate(0 -308.26772)">
   <path d="m57.6 742.2h948.8" stroke="#969696" stroke-width="1.875"/>
   <g stroke="#000" stroke-dasharray="3.75 7.5" stroke-miterlimit="2" stroke-width=".9375">
    <path d="m58.3 844.1h948.8"/>
    <path d="m58.3 641.8h948.8"/>
    <path d="m58.3 540.6h948.8"/>
   </g>
  </g>
  <g stroke-linejoin="round">
   <g stroke="#000">
    <path d="m519.5 325.5c-42.5 73.3-43.4 102.8-27.9 106.1 6 1.6 43.2 1 65.8-.8" stroke-width="5.625"/>
    <path d="m531.6 411.1c1.2.1 2.2.4 3.1.8.3.1.5.3.8.5 1.5 1.2 2 3.1 1.2 6.3-1.6 6.2-8.6 9.7-11.9 11-6.9 2.5-12-3.2-8-9.3 2.5-3.8 6.7-8 11.7-9.1.3-.1.7-.1 1-.2.4 0 .8-.1 1.3-.1 1 0 2 .1 3 .4" stroke-width="5.625"/>
    <path d="m529.2 416.6c.6.1 1.1.2 1.5.4.1.1.3.1.4.2.7.5 1 1.5.6 3-.8 2.9-4.1 4.6-5.6 5.2-3.3 1.2-5.7-1.5-3.8-4.4 1.2-1.8 3.2-3.8 5.6-4.3.2 0 .3-.1.5-.1h.6c.5 0 .9.1 1.4.2" stroke-width="10.3125"/>
    <path d="m564 417.8c.8.1 1.5.2 2 .5.2.1.4.2.5.3 1 .8 1.3 2.1.8 4.2-1.1 4.1-5.7 6.4-7.9 7.3-4.6 1.6-7.9-2.1-5.3-6.1 1.6-2.5 4.4-5.3 7.8-6 .2 0 .5-.1.7-.1h.8c.6 0 1.3.1 2 .3" stroke-width="5.625"/>
   </g>
   <g stroke-width="5.625">
    <path d="m438.8 402.8s134.8-105.4 150.3-122.4c18.2-19.8 21.5-32.9 13.6-42.3-9.8-11.7-36.5 10.2-83.2 87.3" stroke="#000001"/>
    <path d="m417.8 335.6c-7.6 13.4-26.7 48.1-41.1 73-13.1 23.6 9 26.5 29 17.9 10-5 15.3-9.5 33.2-23.6" stroke="#000"/>
    <path d="m557.5 430.8c10.1 2.1 61-28.7 76.6-29.9 16-.6 21.6 31 32.6 30.7 7.2-.2 12.4-7.6 16.7-13" stroke="#000"/>
   </g>
  </g>
 </g>
</svg>
