<svg height="210mm" viewBox="0 0 1052.4 744.1" width="297mm" xmlns="http://www.w3.org/2000/svg">
 <g fill="none" stroke-linecap="round">
  <g transform="translate(0 -308.26772)">
   <path d="m57.6 742.2h948.8" stroke="#969696" stroke-width="1.875"/>
   <g stroke="#000" stroke-dasharray="3.75 7.5" stroke-miterlimit="2" stroke-width=".9375">
    <path d="m58.3 844.1h948.8"/>
    <path d="m58.3 641.8h948.8"/>
    <path d="m58.3 540.6h948.8"/>
   </g>
  </g>
  <g stroke="#000" stroke-linejoin="round" stroke-width="5.625">
   <path d="m308.3 337.3c-40.3 12.4-78.1 79.1-59.9 92.3 9.3 2.5 17 1.8 24.7.1 5.9-1.3 330.3-144.9 330.3-144.9"/>
   <path d="m558.2 370.5c-14.4 8.1-52 32.1-64.2 45.3-24.9 27.2-38.9 53.7-35.9 61.5 1.1 2.9 17.7 21.8 57.3-41.8l88-150.7"/>
   <path d="m558.2 370.5c17.9-10.8 45.1-31.1 62.3-32.2 24.9-1.7 24.4 58.5 60.1 17.8"/>
   <path d="m725.7 286.2c23.7-19.2 60.9-14.6 37.5 14.4-27.4 33.8-45.5 50.2-39.4 63.9 3.4 7.6 15.5 4.3 25.2 2.3 3.3-.7 13.4-3.1 16.6-4.3"/>
   <path d="m768.2 354.2c.6.1 1 .2 1.4.4.1.1.2.1.4.2.7.5.9 1.4.6 2.9-.8 2.9-4 4.5-5.5 5.1-3.2 1.2-5.5-1.5-3.7-4.3 1.1-1.8 3.1-3.7 5.4-4.2.2 0 .3-.1.5-.1h.6c.4 0 .9.1 1.4.2"/>
   <path d="m680.5 356c12.5-15.9 32.1-58.5 45.2-69.9"/>
  </g>
 </g>
</svg>
