<svg height="210mm" viewBox="0 0 1052.4 744.1" width="297mm" xmlns="http://www.w3.org/2000/svg">
 <g fill="none" stroke-linecap="round" transform="translate(0 -308.26772)">
  <path d="m57.6 742.2h948.8" stroke="#969696" stroke-width="1.875"/>
  <g stroke="#000" stroke-dasharray="3.75 7.5" stroke-miterlimit="2" stroke-width=".9375">
   <path d="m58.3 844.1h948.8"/>
   <path d="m58.3 641.8h948.8"/>
   <path d="m58.3 540.6h948.8"/>
  </g>
 </g>
 <g fill="none" stroke="#000" stroke-linecap="round" stroke-linejoin="round" stroke-width="5.625">
  <path d="m76.9 431.4c8.3.7 235.2-47.7 235.2-47.7l29.6 47.9"/>
  <path d="m386.6 363.3c10.5-15 18-26.9 36.6-27.5 15.3-.5 21 12.3 10 25.8-27.4 33.8-43.8 45.5-37.1 58.4 7.2 13.2 37.8 14 47.3 8.2"/>
  <path d="m386.6 363.3s-42.9 67.1-44.9 68.3"/>
  <path d="m101.9 333.3c54.3-11 96.9-78.1 90.5-94.8-5.5-14.4-40.3 8.9-87.4 86.8-47.5 82-46.9 109.4-28 106.1"/>
  <path d="m446.6 417c.8.1 1.4.2 1.9.5.2.1.3.2.5.3.9.7 1.3 2 .8 4-1 3.9-5.4 6.1-7.5 6.9-4.3 1.6-7.6-2-5.1-5.9 1.6-2.4 4.2-5.1 7.4-5.7.2 0 .4-.1.7-.1s.5-.1.8-.1c.6 0 1.2.1 1.9.3"/>
  <path d="m593.9 431.2c8.3.7 235.2-47.7 235.2-47.7l23.9 47.9"/>
  <path d="m891.5 373.8c14.9-21.1 24.9-37.6 46.9-38.2 15.3-.4 21 12.3 10 25.8-27.4 33.8-40.9 50.9-34.2 63.7 6.2 10.9 36.8 8.7 46.3 2.9"/>
  <path d="m891.5 373.8s-36.4 56.4-38.4 57.6"/>
  <path d="m618.8 333.5c54.3-11 96.9-78.5 90.6-95.2-5.5-14.4-40.2 8.9-87.4 86.8-47.5 82-46.9 109.4-28 106.1"/>
  <path d="m963.5 416.8c.8.1 1.4.2 1.9.5.2.1.3.2.5.3.9.7 1.3 2 .8 4-1 3.9-5.4 6.1-7.5 6.9-4.3 1.6-7.6-2-5.1-5.9 1.6-2.4 4.2-5.1 7.4-5.7.2 0 .4-.1.7-.1s.5-.1.8-.1c.6 0 1.2.1 1.9.3"/>
  <path d="m990.6 416.4c.8.1 1.4.2 1.9.5.2.1.3.2.5.3.9.7 1.3 2 .8 4-1 3.9-5.4 6.1-7.5 6.9-4.3 1.6-7.6-2-5.1-5.9 1.6-2.4 4.2-5.1 7.4-5.7.2 0 .4-.1.7-.1s.5-.1.8-.1c.6 0 1.2.1 1.9.3"/>
  <path d="m956.3 429.1c5.6 3.6 21.6 3.3 29-.8"/>
 </g>
 <circle cx="526.31805" cy="357.35226" r="10.653955"/>
 <circle cx="510.92841" cy="406.36789" r="10.653955"/>
</svg>
