<svg height="210mm" viewBox="0 0 1052.4 744.1" width="297mm" xmlns="http://www.w3.org/2000/svg">
 <g stroke-linecap="round">
  <g fill="none" transform="translate(0 -308.26772)">
   <path d="m57.6 742.2h948.8" stroke="#969696" stroke-width="1.875"/>
   <g stroke="#000" stroke-dasharray="3.75 7.5" stroke-miterlimit="2" stroke-width=".9375">
    <path d="m58.3 844.1h948.8"/>
    <path d="m58.3 641.8h948.8"/>
    <path d="m58.3 540.6h948.8"/>
   </g>
  </g>
  <g stroke="#000" stroke-linejoin="round">
   <path d="m579.9 377.2s31.8 1.3 35.2-1.2" fill="none" stroke-width="5.625"/>
   <g fill="#eb0000" fill-rule="evenodd" transform="matrix(1.432492 0 0 1.432492 -428.5317 93.058497)">
    <path d="m732.1 185.5c.8.1 1.4.2 1.9.5.2.1.3.2.5.3.9.7 1.3 2 .8 4-1 3.9-5.4 6.1-7.5 6.9-4.3 1.6-7.6-2-5.1-5.9 1.6-2.4 4.2-5.1 7.4-5.7.2 0 .4-.1.7-.1h.8c.6 0 1.2.1 1.9.3" stroke-width="5.625"/>
    <path d="m729.3 188.3c.3 0 .6.1.9.2.1 0 .2.1.2.1.4.3.6.9.4 1.8-.4 1.7-2.4 2.8-3.3 3.1-1.9.7-3.4-.9-2.3-2.6.7-1.1 1.9-2.3 3.3-2.6h.3.4c.3 0 .6 0 .8.1" stroke-width="4.981044"/>
   </g>
   <g fill="none">
    <g stroke-width="5.625">
     <path d="m621.7 372.6c22.4-15.6 44.7-43.4 58.8-60.3 14.2-16.8 35.2-48.9 43.8-57.6 1.6-1.6 3.2-3 4.8-4.4 35.8-31.5 49-6.7 34.7 21-14.7 43-42.4 79.5-69.3 116.4-43.5 61-58.9 41.1-59.8 38.1-2.3-7.3 5.5-36.8 38-60 14.7-11.5 36.7-24.1 56.2-34.5 2.5-1.3 5-2.6 7.4-3.9"/>
     <ellipse cx="79.505409" cy="640.17511" rx="25.728558" ry="20.371416" transform="matrix(.79083574 -.61202846 .61202846 .79083574 0 0)"/>
     <path d="m407.7 347.7c23.8-19.2 61.1-14.7 37.6 14.4-27.4 33.9-45.3 46.8-39.7 60.7 4.3 10.9 31.6 9.6 40.7 9.1 9.7-.3 13.4 2.8 19.4 3.6"/>
     <path d="m495.2 376.9c48.2-61.4 98.5-47.1 84.7.3"/>
    </g>
    <path d="m495.2 376.9-55.5 66.4-4.3 5.3" stroke-width="5.62496"/>
   </g>
  </g>
 </g>
</svg>
