<svg height="210mm" viewBox="0 0 1052.4 744.1" width="297mm" xmlns="http://www.w3.org/2000/svg">
 <g fill="none" stroke-linecap="round">
  <g transform="translate(0 -308.26772)">
   <path d="m57.6 742.2h948.8" stroke="#969696" stroke-width="1.875"/>
   <g stroke="#000" stroke-dasharray="3.75 7.5" stroke-miterlimit="2" stroke-width=".9375">
    <path d="m58.3 844.1h948.8"/>
    <path d="m58.3 641.8h948.8"/>
    <path d="m58.3 540.6h948.8"/>
   </g>
  </g>
  <g stroke-linejoin="round">
   <path d="m491.7 408.2c-10.6 6.8-23.9 16.7-40.2 21.9-55 17.3 31.2-136 75.3-182.7 4.7-5 11.2-10.7 18.9-11.9" stroke="#000" stroke-width="5.625"/>
   <path d="m491.7 408.2c3.3-2.1 6.6-4 9.7-5.7 1.8-1 3.7-2 5.5-2.9 48.7-24.7 80.3-12.1 68.1 30.9" stroke="#000" stroke-width="5.625"/>
   <g stroke="#000001">
    <path d="m564.4 393.8c7.1 5.9 10.5 24.3 4.5 36.3" stroke-width="6.5625"/>
    <path d="m551.8 387.5c16.4 3.3 18 33.8 11.3 43.8" stroke-width="4.6875"/>
   </g>
  </g>
  <g stroke-width="5.625">
   <path d="m563.9 431.3 9.8.1" stroke="#000001"/>
   <g stroke="#000" stroke-linejoin="round">
    <path d="m575 430.6c13.1-6 63.2-35.9 83.4-34.1 19.6 1.7 10.4 35.3 33.6 34.7 7.9-.2 14.3-7.2 19.4-12.7"/>
    <path d="m532.3 242.1c-15.4 11.7-160.4 176.3-160.4 176.3"/>
    <path d="m343.8 430.8h-73.4"/>
    <ellipse cx="29.332378" cy="539.37329" rx="25.728558" ry="20.371416" transform="matrix(.79083574 -.61202846 .61202846 .79083574 0 0)"/>
   </g>
  </g>
 </g>
</svg>
