<svg height="210mm" viewBox="0 0 1052.4 744.1" width="297mm" xmlns="http://www.w3.org/2000/svg">
 <g fill="none" stroke-linecap="round">
  <g transform="translate(0 -308.26772)">
   <path d="m57.6 742.2h948.8" stroke="#969696" stroke-width="1.875"/>
   <g stroke="#000" stroke-dasharray="3.75 7.5" stroke-miterlimit="2" stroke-width=".9375">
    <path d="m58.3 844.1h948.8"/>
    <path d="m58.3 641.8h948.8"/>
    <path d="m58.3 540.6h948.8"/>
   </g>
  </g>
  <path d="m511.4 336.3c-31.4 12-59.4 43.8-62.7 72-1.7 15 6.8 23.1 17.2 23 26.4.2 50.2-23.1 66.6-46.3 9.4-13.3 18.8-26.8 27.4-35.9 3.8-4.1 10.8-9.3 16.3-11.2 3.2-1.1 6.8-1.9 10.7-2 3.6 0 7.2 1 9.8 3 3.7 2.9 5.3 7.8 1.3 14.6-4.2 7.1-14.4 16.4-34.6 27.5 48.5-19.3 15.5 22.5.8 50.3" stroke="#000" stroke-linejoin="round" stroke-width="5.625002"/>
 </g>
</svg>
