<svg height="210mm" viewBox="0 0 1052.4 744.1" width="297mm" xmlns="http://www.w3.org/2000/svg">
 <g fill="none" stroke-linecap="round">
  <g transform="translate(0 -308.26772)">
   <path d="m57.6 742.2h948.8" stroke="#969696" stroke-width="1.875"/>
   <g stroke="#000" stroke-dasharray="3.75 7.5" stroke-miterlimit="2" stroke-width=".9375">
    <path d="m58.3 844.1h948.8"/>
    <path d="m58.3 641.8h948.8"/>
    <path d="m58.3 540.6h948.8"/>
   </g>
  </g>
  <g stroke="#000">
   <path d="m521.7 235.2s-66.1 127.2-85.7 164.6c-8.4 18.4 1.8 31.4 17.2 31.3 12.6-.1 35.4-4.9 42.1-6.6 59.3-14.6 151.9-35.5 169.9-38.2" stroke-linejoin="round" stroke-width="5.624999"/>
   <ellipse cx="275.70633" cy="729.92035" rx="25.728558" ry="20.371418" stroke-linejoin="round" stroke-width="5.625" transform="matrix(.79083574 -.61202846 .61202846 .79083574 0 0)"/>
   <path d="m687.2 397.5c.3 9.3-.4 14.6-6.3 21.9-3.1 3.8-7.2 7.1-12.7 9.7" stroke-width="5.624961"/>
   <path d="m683.6 392.2c5.4 18.3-4.6 29.6-17.3 35.9" stroke-width="6.599955"/>
   <path d="m667.9 425.2c-7.1 4.1-13.9 5.6-20.5.2" stroke-width="2.849979"/>
   <path d="m669.9 387.4c8.3 0 13.2 3.6 13.4 13.9" stroke-width="2.849979"/>
   <g stroke-linejoin="round">
    <path d="m717.6 374.6c-11 9-27.9 9.6-47.3 11.4" stroke-width="5.625001"/>
    <g stroke-width="5.625">
     <path d="m712.4 377c16.9 9.3 34.8-27.3 55.6-27.3 16-.6 18.8 30.9 32.6 30.7 8.7-.1 14.1-5.3 19.4-11.5"/>
     <ellipse cx="774.73932" cy="-219.39659" rx="4.609393" ry="6.862874" transform="matrix(.72846687 .68508103 -.68508103 .72846687 0 0)"/>
    </g>
   </g>
  </g>
  <path d="m521.7 235.2s-237.8 226.3-256.1 246c-21 22.6-33.4 46.4-17.2 51.1 8.4 2.2 24.2-5 48.7-44.3l134.3-252.5" stroke="#010000" stroke-linejoin="round" stroke-width="5.625"/>
 </g>
</svg>
