<svg height="210mm" viewBox="0 0 1052.4 744.1" width="297mm" xmlns="http://www.w3.org/2000/svg">
 <g fill="none" stroke-linecap="round">
  <g transform="translate(0 -308.26772)">
   <path d="m57.6 742.2h948.8" stroke="#969696" stroke-width="1.875"/>
   <g stroke="#000" stroke-dasharray="3.75 7.5" stroke-miterlimit="2" stroke-width=".9375">
    <path d="m58.3 844.1h948.8"/>
    <path d="m58.3 641.8h948.8"/>
    <path d="m58.3 540.6h948.8"/>
   </g>
  </g>
  <g stroke="#000" stroke-linejoin="round">
   <path d="m730.2 431.2c3 .3 9.7-4.3 11-5 44.6-25.7 67.6-112.6 23.9-85.3-10.6 7.7-23.4 19.6-34.5 32.2-9.1 9.9-52.2 58.2-52.2 58.2" stroke-width="5.625"/>
   <g stroke-width="5.638243">
    <path d="m785 339.9c-.7 31-18.1 61.6-38.1 82.5"/>
    <path d="m787.6 342.2c5.2 34.8-19.9 69.4-45 83.3"/>
    <path d="m780.2 338.5c3.6 34.1-21.2 69-37.7 86.9"/>
   </g>
   <path d="m772.8 338.3c7.9-3.1 5.9 10.5 5.9 15.9" stroke-width="2.819121"/>
   <path d="m749.1 415.7c-5.5 6.9-9.4 9.8-15.3 13.2" stroke-width="2.819121"/>
   <path d="m666.7 398.2 29.6-15.9-17.8 49" stroke-width="5.625"/>
   <path d="m730.2 431.2c-3.2.7-5.6-2.2-1.9-4.9 16.3-11.7 108.8-39.4 108.8-39.4l21.3 44.2" stroke-width="5.624999"/>
   <path d="m199.7 430.8c38-39.4 76.2-52.8 97.7-46.2 16.1 4.9 25.5 20.3 17.9 46.5" stroke-width="5.625"/>
   <path d="m179.2 384.5 20.5 46.3" stroke-width="5.625"/>
   <path d="m572.3 336.2c7.3 13.2 13.8 41.1 39.1 43 44.4 3.4 52.5-38.2 37.8-43-7.2-2.4-25.6 2.2-48.8 40.4-25.5 41.6-21.8 55.6-8.3 54.4" stroke-width="5.625002"/>
   <g stroke-width="5.625">
    <path d="m315.2 431.1 257.1-94.9"/>
    <path d="m592.2 431.1c10.2-.8 26.7-10.6 40.7-22.4"/>
   </g>
  </g>
 </g>
</svg>
