<svg height="210mm" viewBox="0 0 1052.4 744.1" width="297mm" xmlns="http://www.w3.org/2000/svg">
 <g fill="none" stroke-linecap="round">
  <g transform="translate(0 -308.26772)">
   <path d="m57.6 742.2h948.8" stroke="#969696" stroke-width="1.875"/>
   <g stroke="#000" stroke-dasharray="3.75 7.5" stroke-miterlimit="2" stroke-width=".9375">
    <path d="m58.3 844.1h948.8"/>
    <path d="m58.3 641.8h948.8"/>
    <path d="m58.3 540.6h948.8"/>
   </g>
  </g>
  <g stroke="#000" stroke-width="5.625">
   <g stroke-linejoin="round">
    <path d="m545.2 282.6c14.8 4.9 63-29.9 45.4-44.6-14.4-12.1-36.8-2.1-45.5 22.4-4.9 13.8-3.1 34.6-6.7 53.9-3.7 20-43.6 46.6-64.3 69.8-20.3 22.7-23.7 46.2-5.4 47.1"/>
    <path d="m468.7 431.3h39.9"/>
    <path d="m513.1 420.6c.7.1 1.2.2 1.7.4.2.1.3.2.4.3.8.6 1.1 1.7.7 3.5-.9 3.4-4.8 5.4-6.6 6.1-3.8 1.4-6.6-1.8-4.4-5.1 1.4-2.1 3.7-4.4 6.5-5 .2 0 .4-.1.6-.1h.7c.5 0 1.1.1 1.6.2"/>
   </g>
   <path d="m640.2 234.7-125.5 192.4"/>
  </g>
 </g>
</svg>
