<svg height="210mm" viewBox="0 0 1052.4 744.1" width="297mm" xmlns="http://www.w3.org/2000/svg">
 <g fill="none" stroke-linecap="round">
  <g transform="translate(0 -308.26772)">
   <path d="m57.6 742.2h948.8" stroke="#969696" stroke-width="1.875"/>
   <g stroke="#000" stroke-dasharray="3.75 7.5" stroke-miterlimit="2" stroke-width=".9375">
    <path d="m58.3 844.1h948.8"/>
    <path d="m58.3 641.8h948.8"/>
    <path d="m58.3 540.6h948.8"/>
   </g>
  </g>
  <g stroke-width="5.625">
   <path d="m366.3 234.2-113.1 196.6" stroke="#000"/>
   <g stroke-linejoin="round">
    <g stroke="#000">
     <path d="m253.2 430.8s44.6-32.4 61.8-29.2c13.6 2.5 15.7 29.8 30.5 29.1 4-.2 36.8 3.1 43.1-2.1"/>
     <path d="m296.8 405.6c5.4-2.4 18.6-2.2 26.5 15 5.6 12.2 13.9 9.5 20.5 9.9"/>
     <path d="m311.4 403.7c6.7 5.9 6.3.5 21.2 23.1"/>
     <ellipse cx="52.753506" cy="557.36188" rx="25.728558" ry="20.371416" transform="matrix(.79083574 -.61202846 .61202846 .79083574 0 0)"/>
     <path d="m564 430.1c15-4.3 95.9-49.9 111.5-68.3 10-11.8 7.6-25.5 1.1-25.7-7.5-.3-25.3 3.1-48.3 41-31.8 52-17.4 58.9 4.3 52.3 5.9-1.8 14.1-6.5 22.2-12.1"/>
     <path d="m654.8 417.2c13.9-8.5 29.4-16 38.9-14.2 16 3 16.4 42 40.5 24.1 2.9-2.2 7.3-6.7 10.2-10.8"/>
     <path d="m744.4 416.3c6.8-9.1 99.5-181.2 99.5-181.2"/>
    </g>
    <path d="m486.4 415.9c-8.3 5.1-31 15.1-46.3 23.7-16.9 9.5-33.9 20.2-41.6 27.9-25.9 26.2-39.9 52.6-36.9 60.3 1.1 2.9 17.7 21.8 57.3-41.8l88-150.7-112.9 90.4" stroke="#060000"/>
    <path d="m486.4 415.9c11.4-6 30-15.2 43.6-14.5 12.7.6 15.8 25.3 27.5 28.9 1.9.6 4.1.6 6.5-.1" stroke="#000"/>
   </g>
  </g>
 </g>
</svg>
