<svg height="210mm" viewBox="0 0 1052.4 744.1" width="297mm" xmlns="http://www.w3.org/2000/svg">
 <g fill="none" stroke-linecap="round">
  <g transform="translate(0 -308.26772)">
   <path d="m57.6 742.2h948.8" stroke="#969696" stroke-width="1.875"/>
   <g stroke="#000" stroke-dasharray="3.75 7.5" stroke-miterlimit="2" stroke-width=".9375">
    <path d="m58.3 844.1h948.8"/>
    <path d="m58.3 641.8h948.8"/>
    <path d="m58.3 540.6h948.8"/>
   </g>
  </g>
  <g stroke="#000">
   <g stroke-linejoin="round" stroke-width="5.625">
    <path d="m641.4 431.7c3 0 11-4.3 12.4-5.2 35.2-22.1 64.6-131.2 7.1-74.3"/>
    <path d="m618.2 396.7c9.5-9.6 30.4-32.3 42.7-44.5"/>
    <path d="m589.9 336.1-34.4 74.5c-10 21.5 8.4 28.4 31.3 14.4 13.8-9.8 31.4-28.3 31.4-28.3"/>
    <path d="m641.4 431.7c-59.3-6 256.2-48.1 256.2-48.1"/>
    <path d="m897.7 383.6 29.6 47.9"/>
    <path d="m897.7 383.6 20.2 48"/>
    <path d="m907.1 383.6 20.1 47.9"/>
    <path d="m903.2 383.4 20.2 48"/>
   </g>
   <path d="m898 382.5h9" stroke-width="3.75"/>
   <path d="m917.7 432.4h9" stroke-width="3.75"/>
   <path d="m389.2 411.3c21.7-11.6 45.8-24.5 48.8-26.4 7.2-4.5 15.1-9 20.2-13.4 12.8-11.2 18.6-26.1 16.7-30.9-2.8-7.3-34.7-8.6-58.5 30.7-26.3 43.1-19.5 62.2-6.1 60.4 23.4-1.8 86.1-61 120-96" stroke-linejoin="round" stroke-width="5.625"/>
   <path d="m455 341.9c-30.3 19.2-39.8 50.5-52.2 79" stroke-width="4.6875"/>
   <path d="m448 341.9c-17.9 10.4-41.1 45.1-46.5 68.6" stroke-width="4.6875"/>
   <path d="m408.6 409.5c-4 10.7-6.4 18.8 3.6 20.4" stroke-width="2.8125"/>
   <path d="m469.4 338.7c-7.4-2.4-11 2.2-15.8 5.2" stroke-width="2.8125"/>
   <path d="m444.5 346.7c-28 20.5-28.9 42.2-43.4 69.6" stroke-width="4.6875"/>
   <g stroke-linejoin="round" stroke-width="5.625">
    <path d="m332.8 378.1 24.1 52.5 32.3-19.3"/>
    <path d="m225.1 408.4c14-11.2 32.2-26.1 32.2-26.1l33.3 47.9"/>
    <path d="m257.4 382.3 24 48"/>
    <path d="m266.8 382.3 23.8 47.9"/>
    <path d="m262.9 382.2 24 48"/>
   </g>
   <path d="m257.7 381.3h9" stroke-width="3.75"/>
   <path d="m281.2 431.2h9" stroke-width="3.75"/>
   <g stroke-linejoin="round" stroke-width="5.625">
    <path d="m290.7 430.2 42.1-52.1"/>
    <path d="m214.4 332.7c54.3-11 97.2-78.4 90.8-95.2-5.5-14.4-40.3 8.9-87.4 86.8-69.6 120.2-36 123.1 7.3 84"/>
    <path d="m399.6 494.3c25.4-35.6 153.7-120.8 190.3-158.2"/>
    <path d="m399.6 494.3c-11.2 15.8-16.5 28.9-14.6 34 1.1 2.9 17.7 21.8 57.3-41.8l88-150.7"/>
   </g>
   <path d="m402.6 421.2c0 3.9.8 7.4 5 9.3" stroke-width="2.8125"/>
  </g>
 </g>
</svg>
