<svg height="210mm" viewBox="0 0 1052.4 744.1" width="297mm" xmlns="http://www.w3.org/2000/svg">
 <g fill="none" stroke-linecap="round">
  <g transform="translate(0 -308.26772)">
   <path d="m57.6 742.2h948.8" stroke="#969696" stroke-width="1.875"/>
   <g stroke="#000" stroke-dasharray="3.75 7.5" stroke-miterlimit="2" stroke-width=".9375">
    <path d="m58.3 844.1h948.8"/>
    <path d="m58.3 641.8h948.8"/>
    <path d="m58.3 540.6h948.8"/>
   </g>
  </g>
  <g stroke="#000">
   <g stroke-width="5.625">
    <path d="m312 385.5 21.1 45.9 94.9-47" stroke-linejoin="round"/>
    <path d="m428 384.3c28.7-14.6 59.2-29.2 86.3-42.4 23-12.5 50.4-6.1 29.4 19.7-27.4 33.8-45.5 50.2-39.4 63.9 4.2 9.5 23.8 8 36.5-3.7 16-14.7 111.3-110.3 111.3-110.3" stroke-linejoin="round"/>
    <path d="m546.4 338c10.3 4.2 3.6 26.9-13.1 43.2-14.4 14-24.5 28.2-30.6 40.5"/>
    <path d="m544.5 338.9c.8-1.1 3.9 6.1.7 14.2-3.2 8.4-12.8 17.8-18.3 22.9-10.8 10.1-30.6 29-24.3 45.7"/>
   </g>
   <g stroke-width="2.8125">
    <path d="m536 337.2c11.3 1.3 8.8 6.5 9.1 11"/>
    <path d="m507.7 414.4c-2.7 4.9-3.8 12 2.3 14.5"/>
    <path d="m500 415.8c-.1 5.7 2.9 11.5 4.9 13.1"/>
   </g>
   <path d="m663.8 384.9c-53.2 7.3-100.2 80.3-96.4 92.6.9 3 16.3 22.9 59.8-38.1 26.9-36.9 54.6-73.4 69.3-116.4 15.5-30.1-1.4-56.7-44.4-11.6" stroke-linejoin="round" stroke-width="5.625"/>
  </g>
 </g>
</svg>
