<svg height="210mm" viewBox="0 0 1052.4 744.1" width="297mm" xmlns="http://www.w3.org/2000/svg">
 <g fill="none" stroke-linecap="round">
  <g transform="translate(0 -308.26772)">
   <path d="m57.6 742.2h948.8" stroke="#969696" stroke-width="1.875"/>
   <g stroke="#000" stroke-dasharray="3.75 7.5" stroke-miterlimit="2" stroke-width=".9375">
    <path d="m58.3 844.1h948.8"/>
    <path d="m58.3 641.8h948.8"/>
    <path d="m58.3 540.6h948.8"/>
   </g>
  </g>
  <g stroke="#000">
   <path d="m843.9 235-93.1 165.2" stroke-width="5.625"/>
   <g stroke-linejoin="round">
    <path d="m683.7 428.8c16.2 9 34.5-6.6 71.5-35" stroke-width="5.625"/>
    <ellipse cx="789.7641" cy="-167.93828" rx="5.271424" ry="7.848564" stroke-width="14.034715" transform="matrix(.72846687 .68508103 -.68508103 .72846687 0 0)"/>
    <ellipse cx="359.24445" cy="794.70618" rx="25.728559" ry="20.371418" stroke-width="5.625" transform="matrix(.79083574 -.61202846 .61202846 .79083574 0 0)"/>
   </g>
   <path d="m793 397.6c.3 9.3-.4 14.6-6.3 21.9-3.1 3.8-7.2 7.1-12.7 9.7" stroke-width="5.624961"/>
   <path d="m789.4 392.3c5.4 18.3-4.6 29.6-17.3 35.9" stroke-width="6.599955"/>
   <path d="m773.6 425.3c-7.1 4.1-13.9 5.6-20.5.2" stroke-width="2.849979"/>
   <path d="m775.6 387.5c8.3 0 13.2 3.6 13.4 13.9" stroke-width="2.849979"/>
   <path d="m695.8 428.2c-24.3 5.2-57.8 5.7-76.7-13.8-34.5-35.6 54.7-157.1 107.8-179.3" stroke-linejoin="round" stroke-width="5.625"/>
   <path d="m192.2 384.3c48.1-9.2 58-34.4 55.1-43.4-3.2-9.6-26.7-7-51.4 33.8-11.5 18.7-17.5 32-19.6 41-2.8 11.9 3.1 15.2 10.6 15.6 17.8 1 44.1-11.1 74.2-23.5 51.4-21.1 124.1-51.3 161-65.8 7-2.8 10-3.8 17.1-4.9 8.8-.6 14.6 0 18.6 4.5 2.5 2.8 3.8 7.2 2.6 13.4-1.2 6.1-4.9 13.9-10.8 24.5l-29.4 52.3" stroke-linejoin="round" stroke-width="5.625001"/>
   <path d="m667.7 283.7c-28.4 30.8-101.5 122.6-117.2 137.2-5.1 4.7-11.1 10.8-20.2 10.8-13.4-.1-15.5-32.9-32.3-32.2-17.6.9-52.8 20.6-77.8 32.4" stroke-width="5.625"/>
  </g>
 </g>
</svg>
