<svg height="210mm" viewBox="0 0 1052.4 744.1" width="297mm" xmlns="http://www.w3.org/2000/svg">
 <g fill="none" stroke-linecap="round">
  <g transform="translate(0 -308.26772)">
   <path d="m57.6 742.2h948.8" stroke="#969696" stroke-width="1.875"/>
   <g stroke="#000" stroke-dasharray="3.75 7.5" stroke-miterlimit="2" stroke-width=".9375">
    <path d="m58.3 844.1h948.8"/>
    <path d="m58.3 641.8h948.8"/>
    <path d="m58.3 540.6h948.8"/>
   </g>
  </g>
  <g stroke="#000" stroke-linejoin="round">
   <path d="m584.8 485.5s29.9-59.2 34.5-70.3c6.6-16.3-3.5-25.4-18.3-24.7-4.1.2-7.4 1-12.2 2.5-7.8 2.8-15.1 6.8-21.8 10.8-10.2 6.3-24.4 14.7-47.1 29-28.5 18-107.3 83.2-81.8 98.7 9.9 5.5 23.1-1.1 49.3-43.2l89.2-152.4" stroke-width="5.624999"/>
   <path d="m576.6 335.8s-124.3 96.5-114.4 95.5" stroke-width="5.419139"/>
   <path d="m462.2 431.3c11.3-3.6 29-14.3 32.2-40.1s20-53.1 38.2-55.8" stroke-width="5.625"/>
  </g>
 </g>
</svg>
