<svg height="210mm" viewBox="0 0 1052.4 744.1" width="297mm" xmlns="http://www.w3.org/2000/svg">
 <g fill="none" stroke-linecap="round">
  <g transform="translate(0 -308.26772)">
   <path d="m57.6 742.2h948.8" stroke="#969696" stroke-width="1.875"/>
   <g stroke="#000" stroke-dasharray="3.75 7.5" stroke-miterlimit="2" stroke-width=".9375">
    <path d="m58.3 844.1h948.8"/>
    <path d="m58.3 641.8h948.8"/>
    <path d="m58.3 540.6h948.8"/>
   </g>
  </g>
  <g stroke="#000">
   <g stroke-linejoin="round">
    <g stroke-width="5.625">
     <path d="m725.6 260.6-76.7 85.5"/>
     <path d="m738.9 368.8c-13.2 12.2-44.9 50.9-78.9 61.7-5 1.6-8.8 1.7-11.5.6-27.7-10.7 49.3-143.2 89.4-185.7 4.7-5 11.2-10.7 18.9-11.9"/>
     <path d="m725.6 260.6-82.8 155.6"/>
     <path d="m706.1 291.7-53.8 98.9"/>
    </g>
    <path d="m648.2 429.7c-7.4-6.7-3-16.4 2.6-27.7" stroke-width="3.75"/>
    <g stroke-width="5.625">
     <path d="m733.9 251-35.7 61.7"/>
     <path d="m688.2 313.9c-16.6 26.2-36.9 57.9-43 89.1"/>
    </g>
   </g>
   <path d="m685.6 322.2-36.6 76.4" stroke-width="3.75"/>
   <g stroke-linejoin="round" stroke-width="5.625">
    <path d="m648.9 346.1c-26.9 28.2-73.4 67.6-89.1 75.9-9.1 4.8-17.3 7.6-20.1 8.5-55 17.3 33.8-138.4 77.9-185.1 4.7-5 11.2-10.7 18.9-11.9"/>
    <path d="m738.9 368.8 35-32.7 20 47.9"/>
    <path d="m351.6 434.3c19.9-9.4 59.4-40 76.5-54.3"/>
    <path d="m428.1 380 49.2-43.3 17.3 46.8"/>
    <path d="m494.6 383.5s101.2-123 125-140.4"/>
   </g>
  </g>
  <path d="m351.6 434.3c-40.8 9.6-81.2 85.3-76.1 94.5 3 5.4 24.1 14.5 59.9-36.6 20.8-27.8 10.9-68.7 21.7-83.8 8.9-15.1 24.1-26 35-33.2 40.7-26.9 19.6-60.1-21.6-20.5" stroke="#060000" stroke-linejoin="round" stroke-width="5.625"/>
 </g>
</svg>
