<svg height="210mm" viewBox="0 0 1052.4 744.1" width="297mm" xmlns="http://www.w3.org/2000/svg">
 <g fill="none" stroke-linecap="round">
  <g transform="translate(0 -308.26772)">
   <path d="m57.6 742.2h948.8" stroke="#969696" stroke-width="1.875"/>
   <g stroke="#000" stroke-dasharray="3.75 7.5" stroke-miterlimit="2" stroke-width=".9375">
    <path d="m58.3 844.1h948.8"/>
    <path d="m58.3 641.8h948.8"/>
    <path d="m58.3 540.6h948.8"/>
   </g>
  </g>
  <g stroke="#000" stroke-linejoin="round" stroke-width="5.625">
   <ellipse cx="319.34311" cy="764.12482" rx="25.728558" ry="20.371416" transform="matrix(.79083574 -.61202846 .61202846 .79083574 0 0)"/>
   <path d="m720.4 386.4s-204.3 43.9-215.6 51.5"/>
   <path d="m777.2 337.2-71.2 57.2"/>
   <path d="m377.8 332.9c54.3-11 95.9-78.4 89.5-95.2-5.5-14.4-38.6 6.2-85.8 84.1l-61.6 109.7"/>
   <path d="m320 431.6s83-39.2 103.9-35.3c20.8 3.9 19.4 55.8 55.2 26"/>
   <path d="m411 397c11.4-2.7 14.4 1.8 23.9 22.7 6.8 14.8 16.9 11.5 24.8 12"/>
   <path d="m422 397.9c8.1 7.1 6.1 1.9 24.1 29.3"/>
   <path d="m508.1 433.9c-16.1 10-38.8 27.9-53.3 42.5-25.9 26.2-37 43.8-34.1 51.5 1.1 2.9 17.7 21.8 57.3-41.8l88-150.7s-68.8 71.8-86.9 86.8"/>
  </g>
 </g>
</svg>
