<svg height="210mm" viewBox="0 0 1052.4 744.1" width="297mm" xmlns="http://www.w3.org/2000/svg">
 <g fill="none" stroke-linecap="round">
  <g transform="translate(0 -308.26772)">
   <path d="m57.6 742.2h948.8" stroke="#969696" stroke-width="1.875"/>
   <g stroke="#000" stroke-dasharray="3.75 7.5" stroke-miterlimit="2" stroke-width=".9375">
    <path d="m58.3 844.1h948.8"/>
    <path d="m58.3 641.8h948.8"/>
    <path d="m58.3 540.6h948.8"/>
   </g>
  </g>
  <g stroke-linejoin="round" stroke-width="5.625">
   <g stroke="#000">
    <path d="m641.9 336.3-53.9 94.6"/>
    <path d="m641.9 336.3h-10.6"/>
    <path d="m636.4 336.3-53.9 94.6"/>
    <path d="m588 431h-10.6"/>
    <path d="m549.4 398.3 81.9-62-53.9 94.6 11-.1"/>
    <path d="m588.4 430.9 209-47 18.2 47.4"/>
    <ellipse cx="677.38934" cy="-83.817299" rx="4.609393" ry="6.862874" transform="matrix(.72846687 .68508103 -.68508103 .72846687 0 0)"/>
    <path d="m434.6 399.7c21.1-31.5 68-94.3 70-97.1 10-13.5 20.3-18.8 28.2-19.8 18.6-2.4 32.7 10 16.2 30.3-27.4 33.8-48.8 55.9-42.8 69.6 2.2 4.9 5.8 9.7 18.2 10.4 12.1.7 21.8-6.5 30.9 4.8"/>
    <ellipse cx="108.44604" cy="601.15369" rx="25.728558" ry="20.371416" transform="matrix(.79083574 -.61202846 .61202846 .79083574 0 0)"/>
    <path d="m316.7 333.1c43.6-16 108.6-82.2 92-95.2-12.1-9.5-40.2 8.9-87.4 86.8-51.5 89-40.8 108.4-14.5 106.7 5.5-.5 12.4-3.2 20-7.7 6.8-4.1 22.4-15.8 33.1-23.8"/>
    <path d="m359.9 399.9c13.9-9.6 21.6-13.4 31-11.2 11.7 3 16.7 12.9-.5 42.9l-29.8 52.1"/>
    <ellipse cx="521.23511" cy="88.419754" rx="4.609393" ry="6.862874" transform="matrix(.72846687 .68508103 -.68508103 .72846687 0 0)"/>
   </g>
   <path d="m360.6 483.8 81.8-93.5" stroke="#060000"/>
  </g>
 </g>
</svg>
