<svg height="210mm" viewBox="0 0 1052.4 744.1" width="297mm" xmlns="http://www.w3.org/2000/svg">
 <g fill="none" stroke-linecap="round">
  <g transform="translate(0 -308.26772)">
   <path d="m57.6 742.2h948.8" stroke="#969696" stroke-width="1.875"/>
   <g stroke="#000" stroke-dasharray="3.75 7.5" stroke-miterlimit="2" stroke-width=".9375">
    <path d="m58.3 844.1h948.8"/>
    <path d="m58.3 641.8h948.8"/>
    <path d="m58.3 540.6h948.8"/>
   </g>
  </g>
  <g stroke-linejoin="round" stroke-width="5.625">
   <path d="m502.4 380.2s63.3-32.4 80.6-29.2c13.5 2.5 15.4 29.1 30.2 28.9" stroke="#000"/>
   <g stroke="#0b0000">
    <path d="m561.9 354.5c13.3-4.5 20.4-2.4 29.3 15.5 6 12 14.1 9.8 22 9.8"/>
    <path d="m579.3 353.1c6.7 5.9 6.3.5 21.2 23.1"/>
   </g>
  </g>
  <g stroke="#000">
   <path d="m723.4 295.8c3.7 10.5-2.8 24.6-14.3 31.3-11.6 6.8-23.9 3.7-27.6-6.8s2.8-24.6 14.3-31.3c11.6-6.8 23.9-3.7 27.6 6.8z" stroke-linejoin="round" stroke-width="5.625"/>
   <path d="m686.1 297.8c-20.6 29.3-53 80.7-72.9 82.1" stroke-width="5.624999"/>
   <g stroke-linejoin="round">
    <g stroke-width="5.624999">
     <path d="m795.1 234.8-46.6 95.4"/>
     <path d="m795.1 234.8h-8.2"/>
     <path d="m791.2 235.7-45.7 93.9"/>
     <path d="m748.5 330.2h-8.2"/>
     <path d="m786.9 234.9-46.6 95.4"/>
    </g>
    <g stroke-width="5.625">
     <path d="m695.9 288.8 90.9-54"/>
     <path d="m748.5 330.2 82.5-95.4"/>
     <path d="m1006.1 235.1c-35.6 38.8-168.8 57.5-175.1-.3"/>
     <path d="m422.5 336.1 21.8 44.1c10.7-14.3 40.2-57.1 51.6-71.5 9.8-12.4 20.8-23.4 33.2-23.6 10.7-.2 17.6 9.8 7.7 29.1-7.6 14-34.3 66-34.3 66"/>
     <path d="m183.7 396.6a19.2 25.1 41.6 0 1 -14.3 31.3 19.2 25.1 41.6 0 1 -27.6-6.8 19.2 25.1 41.6 0 1 14.3-31.3 19.2 25.1 41.6 0 1 27.6 6.8z"/>
     <path d="m85 384c48.1-9.2 58-34.4 55.1-43.4-3.2-9.6-26.7-7-51.4 33.8-26.7 43.6-24 57.1-10.9 56.6 27.7-1.1 58.9-27.1 74.8-38.8"/>
     <path d="m164.5 386.6 258-50.5"/>
    </g>
   </g>
  </g>
 </g>
</svg>
