<svg height="210mm" viewBox="0 0 1052.4 744.1" width="297mm" xmlns="http://www.w3.org/2000/svg">
 <g fill="none" stroke-linecap="round">
  <g transform="translate(0 -308.26772)">
   <path d="m57.6 742.2h948.8" stroke="#969696" stroke-width="1.875"/>
   <g stroke="#000" stroke-dasharray="3.75 7.5" stroke-miterlimit="2" stroke-width=".9375">
    <path d="m58.3 844.1h948.8"/>
    <path d="m58.3 641.8h948.8"/>
    <path d="m58.3 540.6h948.8"/>
   </g>
  </g>
  <g stroke="#000" stroke-linejoin="round" stroke-width="5.625">
   <path d="m428.7 334.7c76.1-9.8 139.9-82.8 91.8-98.2-14.7-4.7-42.9 10.9-90.1 88.8-71.6 121.9-34.5 124.2 16 79.4"/>
   <path d="m446.4 404.7c11-9.7 64.9-70.2 64.9-70.2 1.8 8.4 6.1 49.3 29.2 47.1 57.1-5.6 61.6-47.4 49-47.9-7.7-.3-25.9 3.2-49.4 42-23.9 39.2-22.3 53.4-10.9 55.5 4.1.7 14-.9 19.8-2.8 12.8-4 29-18.8 36.2-24.3"/>
   <path d="m698.5 397.3c8.9-2.5 17.1-4.3 25.9-2.9 16.5 4.5 12 40.6 30.1 37.6 5-.9 11.5-5.3 21-13.7"/>
   <path d="m585.2 404c21.5-17.9 90.8-132 125.2-159.3 83-65-28.8 162.3-88.2 186.6-16.3 3.7-17.4-2.3-12.1-8.1 15.8-12 58.5-19.9 88.3-25.9"/>
  </g>
 </g>
</svg>
