<svg height="210mm" viewBox="0 0 1052.4 744.1" width="297mm" xmlns="http://www.w3.org/2000/svg">
 <g fill="none" stroke-linecap="round">
  <g transform="translate(0 -308.26772)">
   <path d="m13.4 742.2h1022.5" stroke="#969696" stroke-width="1.875"/>
   <g stroke="#000" stroke-dasharray="3.75 7.5" stroke-miterlimit="2" stroke-width=".9375">
    <path d="m14.1 844.1h1022.5"/>
    <path d="m14.1 641.8h1022.5"/>
    <path d="m14.1 540.6h1022.5"/>
   </g>
  </g>
  <g stroke="#000" stroke-linejoin="round" stroke-width="5.625">
   <path d="m54.6 384.5c41.5 3.1 62-37.2 58.7-45.9-2.9-7.5-30.4-4.4-55.1 36.4-47.4 77.5-2.2 60.8 29.8 33.9"/>
   <path d="m224.4 337-42.4 73.1c-8 13.7-1.5 21.8 10.5 21.4 14.2-.5 31.1-4.6 54.6-15.6"/>
   <path d="m247.1 415.9 171.7-80.5-60.5 96"/>
  </g>
 </g>
 <path d="m518.4 322a11.6 11.6 0 0 1 -11.6 11.6 11.6 11.6 0 0 1 -11.6-11.6 11.6 11.6 0 0 1 11.6-11.7 11.6 11.6 0 0 1 11.7 11.6"/>
 <g fill="none" stroke="#000" stroke-linecap="round" stroke-linejoin="round" stroke-width="5.625">
  <path d="m737 336.8c-47.8 12.5-89.4 106-47.1 93.4 15.2-3.3 71-38.9 88.1-48.8l22.4 50.2"/>
  <path d="m800.5 431.5c22.5-18.1 42.3-33.4 57.8-34.3 20.1-.2 16.5 32.9 34.6 34.3 18.8.2 42.7-20 48.1-24.5"/>
  <path d="m941 407 38-26.4 22.4 50.2"/>
  <path d="m586.7 334.6c54.3-11 95.5-79.5 89.2-96.2-5.5-14.4-40.2 8.9-87.4 86.8-69.6 120.2-36 123.1 7.3 84"/>
 </g>
</svg>
