<svg height="210mm" viewBox="0 0 1052.4 744.1" width="297mm" xmlns="http://www.w3.org/2000/svg">
 <g fill="none" stroke-linecap="round">
  <g transform="translate(0 -308.26772)">
   <path d="m57.6 742.2h948.8" stroke="#969696" stroke-width="1.875"/>
   <g stroke="#000" stroke-dasharray="3.75 7.5" stroke-miterlimit="2" stroke-width=".9375">
    <path d="m58.3 844.1h948.8"/>
    <path d="m58.3 641.8h948.8"/>
    <path d="m58.3 540.6h948.8"/>
   </g>
  </g>
  <g stroke="#000">
   <g stroke-linejoin="round" stroke-width="5.625">
    <path d="m344.3 441.6 77-59 31.4 47.9 43.5-47.3"/>
    <path d="m421.4 382.6 24 48"/>
    <path d="m429 382.6 23.8 47.9"/>
    <path d="m425 382.5 24 48"/>
   </g>
   <path d="m421.7 381.5h7.1" stroke-width="3.75"/>
   <path d="m445.2 431.5h7.1" stroke-width="3.75"/>
   <g stroke-linejoin="round">
    <g stroke-width="5.625">
     <path d="m496.1 383.5 46.5-47.8-39 72.4c-8.4 15.5 3.5 25.6 20 21.7 2.8-.6 11.2-4.9 16.2-8.1l22.1-14.3"/>
     <path d="m561.9 407.3 242.3-172.6"/>
     <path d="m305.2 431.3c57.6-20.9 87.6-147.4 11-72.1"/>
    </g>
    <path d="m305.2 431.3 57.4 2.3" stroke-width="5.419139"/>
    <ellipse cx="4.008451" cy="580.23376" rx="25.728558" ry="20.371416" stroke-width="5.625" transform="matrix(.79083574 -.61202846 .61202846 .79083574 0 0)"/>
   </g>
   <path d="m380.8 445.4c.3 9.3-.4 14.6-6.3 21.9-3.6 4.5-8.8 8.3-16 11.1" stroke-width="5.624961"/>
   <path d="m377.2 440.1c2 6.9 1.8 6.4.7 11.6-1.6 7.6-6.1 13.5-12.5 18.7-3.2 2.6-6.9 5-10.9 7.3" stroke-width="6.599955"/>
   <g stroke-width="2.849979">
    <path d="m360.1 472c-5.3 3.7-10.3 5.7-16.3 3.5"/>
    <path d="m366.4 435.4c7.4 1.6 9 4 10.4 10.8"/>
   </g>
  </g>
 </g>
</svg>
