<svg height="210mm" viewBox="0 0 1052.4 744.1" width="297mm" xmlns="http://www.w3.org/2000/svg">
 <g fill="none" stroke-linecap="round">
  <g transform="translate(0 -308.26772)">
   <path d="m57.6 742.2h948.8" stroke="#969696" stroke-width="1.875"/>
   <g stroke="#000" stroke-dasharray="3.75 7.5" stroke-miterlimit="2" stroke-width=".9375">
    <path d="m58.3 844.1h948.8"/>
    <path d="m58.3 641.8h948.8"/>
    <path d="m58.3 540.6h948.8"/>
   </g>
  </g>
  <g stroke="#000">
   <g stroke-linejoin="round" stroke-width="5.625">
    <path d="m465 426 56.9-33.1"/>
    <ellipse cx="173.17763" cy="650.79443" rx="25.728558" ry="20.371416" transform="matrix(.79083574 -.61202846 .61202846 .79083574 0 0)"/>
    <path d="m639.8 532.7c28.5-22.6 37.3-33.3 40.9-57.5 1.8-12.5-2.6-28-12.8-37.6-5-4.7-11-8.4-17-11.7-8.5-4.8-11.8-5.8-17.2-11.5-6-6.3-5-21.2 9.8-27.5"/>
    <path d="m643.5 387c-8.3 3.6-68.7 43-84 51.6-16.9 9.5-34.4 24.4-42 32.1-25.9 26.2-39.4 48.3-36.4 56 1.1 2.9 17.7 21.8 57.3-41.8l88-150.7-97.6 54.7"/>
    <path d="m377.2 505.2c-6.1 16.5-1.8 26.1 13.7 27.9 7 .6 14.8-3.1 25.1-15.6 10.1-12.4 61-103.7 61-103.7"/>
    <ellipse cx="111.77544" cy="601.40997" rx="25.728558" ry="20.371416" transform="matrix(.79083574 -.61202846 .61202846 .79083574 0 0)"/>
   </g>
   <path d="m435.5 417.9c-.3-9.3.4-14.6 6.3-22 3.6-4.5 8.8-8.3 16-11.1" stroke-width="5.624961"/>
   <path d="m439.1 423.1c-2-6.9-1.8-6.4-.7-11.6 1.6-7.6 6.1-13.5 12.5-18.7 3.2-2.6 6.9-5 10.9-7.3" stroke-width="6.599955"/>
   <g stroke-width="2.849979">
    <path d="m456.2 391.3c5.3-3.7 10.3-5.8 16.3-3.5"/>
    <path d="m450.3 429.1c-7.4-1.6-9.5-5.3-10.9-12.1"/>
   </g>
  </g>
 </g>
</svg>
