<svg height="210mm" viewBox="0 0 1052.4 744.1" width="297mm" xmlns="http://www.w3.org/2000/svg">
 <g fill="none" stroke-linecap="round">
  <g transform="translate(0 -308.26772)">
   <path d="m57.6 742.2h948.8" stroke="#969696" stroke-width="1.875"/>
   <g stroke="#000" stroke-dasharray="3.75 7.5" stroke-miterlimit="2" stroke-width=".9375">
    <path d="m58.3 844.1h948.8"/>
    <path d="m58.3 641.8h948.8"/>
    <path d="m58.3 540.6h948.8"/>
   </g>
  </g>
  <g stroke="#000">
   <g stroke-linejoin="round" stroke-width="5.624999">
    <path d="m581.8 235.5-94.5 196.1"/>
    <path d="m487.3 431.6c26.2-33.1 42.4-53.8 59-71.6 14-15.2 22.9-24.4 36.4-23.6 11.5.7 16.5 12.5 7.1 32.6-10 21.3-33.7 62.7-33.7 62.7"/>
    <path d="m556.1 431.6 88.8-44.2 21.3 44.2"/>
   </g>
   <path d="m417.5 337.6c15.4 7.9 4.2 30.4-12.1 46.3-14 13.6-22.7 25.7-28.7 37.7" stroke-width="5.472634"/>
   <path d="m417.7 339.1c.8-1.1 3.6 6 .5 13.9-3.2 8.2-12.5 19.1-17.8 24.2-10.5 9.9-29.8 28.2-23.7 44.5" stroke-width="5.472634"/>
   <g stroke-width="2.736317">
    <path d="m407.3 337.5c13.9-1.2 10.5 8.5 10.3 13.7"/>
    <path d="m384 411.6c-3.2 4.4-7.2 16.1 2.6 17.8"/>
    <path d="m374.2 415.7c-.1 5.5 2.8 11.2 4.7 12.8"/>
   </g>
   <g stroke-linejoin="round">
    <path d="m323.7 431.2c8.5-14.7 21.9-36.7 31.1-50.7 7.6-11.5 16.6-23.3 22.4-29.4 6.6-7 17.4-15.2 32.7-15.1 13 .1 20.7 10.2 7.1 27-26.6 32.9-44.6 48.9-38.7 62.2 2.1 4.7 8 6.4 15 6 27-1.4 46-36.4 76.9-86.3 10.2-16.6 30-51.8 45.4-79.8" stroke-width="5.625"/>
    <path d="m518.3 245.4a19.2 25.1 41.6 0 1 -14.3 31.3 19.2 25.1 41.6 0 1 -27.6-6.8 19.2 25.1 41.6 0 1 14.3-31.3 19.2 25.1 41.6 0 1 27.6 6.8z" stroke-width="5.625"/>
    <path d="m505.3 276.1 76.4-40.6" stroke-width="5.624999"/>
   </g>
  </g>
 </g>
</svg>
