<svg height="210mm" viewBox="0 0 1052.4 744.1" width="297mm" xmlns="http://www.w3.org/2000/svg">
 <g fill="none" stroke-linecap="round">
  <g transform="translate(0 -308.26772)">
   <path d="m57.6 742.2h948.8" stroke="#969696" stroke-width="1.875"/>
   <g stroke="#000" stroke-dasharray="3.75 7.5" stroke-miterlimit="2" stroke-width=".9375">
    <path d="m58.3 844.1h948.8"/>
    <path d="m58.3 641.8h948.8"/>
    <path d="m58.3 540.6h948.8"/>
   </g>
  </g>
  <g stroke="#000">
   <g stroke-linejoin="round" stroke-width="5.625">
    <path d="m482.6 336.9c-39.4 3.5-221.7 91.4-269.1 94.2-16.1 1.3-23.1-9.7 4.1-56 23.8-40.7 50.4-43.8 53.1-36.3 3.2 8.7-16.6 49-56.6 45.9"/>
    <path d="m801.1 383.4-257.5 48"/>
    <path d="m801.1 383.4 33.3 47.9"/>
    <path d="m801.1 383.4 24 48"/>
    <path d="m810.6 383.4 23.8 47.9"/>
    <path d="m806.7 383.3 24 48"/>
   </g>
   <path d="m801.5 382.4h9" stroke-width="3.75"/>
   <path d="m824.9 432.3h9" stroke-width="3.75"/>
   <g stroke-linejoin="round" stroke-width="5.625">
    <path d="m522.5 397.7c15.5-13.3 65-61.7 65-61.7"/>
    <path d="m598 336-54.9 95.6"/>
    <path d="m598 336h-10.6"/>
    <path d="m592.5 336-54.9 95.6"/>
    <path d="m543.2 431.5h-10.6"/>
    <path d="m587.5 336-54.9 95.6 11-.1"/>
   </g>
  </g>
  <path d="m482.6 336.9c16.3-2.7 28.6 5.6 12.8 25.2-27.4 33.8-44.3 49.8-38.3 63.4 5.4 12.3 32 2.7 46.5-12.2 1-1 21.1-29.1-1.7-34.2-22.7-5.1-48.7 6.5-50.6 20.9-3.7 28.6 48.2 20.2 71.2-2.4" stroke="#010000" stroke-linejoin="round" stroke-width="5.625"/>
 </g>
</svg>
