<svg height="210mm" viewBox="0 0 1052.4 744.1" width="297mm" xmlns="http://www.w3.org/2000/svg">
 <g fill="none" stroke-linecap="round">
  <g transform="translate(0 -308.26772)">
   <path d="m57.6 742.2h948.8" stroke="#969696" stroke-width="1.875"/>
   <g stroke="#000" stroke-dasharray="3.75 7.5" stroke-miterlimit="2" stroke-width=".9375">
    <path d="m58.3 844.1h948.8"/>
    <path d="m58.3 641.8h948.8"/>
    <path d="m58.3 540.6h948.8"/>
   </g>
  </g>
  <g stroke="#000" stroke-linejoin="round" stroke-width="5.625">
   <path d="m527.4 337.3c-40.3 12.4-78.1 79.1-59.9 92.3 9.3 2.5 17 2 24.7.1 10.7-2.7 30.4-13.4 46.7-22.7"/>
   <path d="m539 406.9s284.1-160.4 288.4-162.7c27.1-14.3 63.6-12 40.2 17.1-27.4 33.8-44 49.8-38 63.4 4.2 9.5 26.7 5 35.1-3.2 0 0 10.2-6.6 16.1-15.8"/>
   <path d="m213.7 430.2c3.3 1 188-93.2 188-93.2"/>
   <path d="m232.5 335.8-42.4 73.1c-9.3 16 4.2 25.4 23.6 21.3"/>
  </g>
 </g>
</svg>
