<svg height="210mm" viewBox="0 0 1052.4 744.1" width="297mm" xmlns="http://www.w3.org/2000/svg">
 <g fill="none" stroke-linecap="round">
  <g transform="translate(0 -308.26772)">
   <path d="m57.6 742.2h948.8" stroke="#969696" stroke-width="1.875"/>
   <g stroke="#000" stroke-dasharray="3.75 7.5" stroke-miterlimit="2" stroke-width=".9375">
    <path d="m58.3 844.1h948.8"/>
    <path d="m58.3 641.8h948.8"/>
    <path d="m58.3 540.6h948.8"/>
   </g>
  </g>
  <g stroke="#000">
   <g stroke-width="5.625">
    <path d="m382.9 347.7c-15.9 16-113 89.5-90.6 83.1 4.8-1 13.3-5.3 14.7-6.1 48.9-28 68.5-128.5 7.4-71.7" stroke-linejoin="round"/>
    <path d="m382.9 347.7c23.7-19.2 60.9-14.6 37.5 14.4-27.4 33.8-45.8 50.4-39.4 63.9 3 6.5 25.2 8.1 36.5-3.7l18-18.8" stroke-linejoin="round"/>
    <path d="m423.1 338.4c10.3 4.2 3.6 26.9-13.1 43.2-14.4 14-24.5 28.2-30.6 40.5"/>
    <path d="m421.3 339.3c.8-1.1 3.9 6.1.7 14.2-3.2 8.4-12.8 17.8-18.3 22.9-10.8 10.1-30.6 29-24.3 45.7"/>
   </g>
   <g stroke-width="2.8125">
    <path d="m412.7 337.6c11.3 1.3 8.8 6.5 9.1 11"/>
    <path d="m384.5 414.9c-2.7 4.9-3.8 12 2.3 14.5"/>
    <path d="m376.8 416.2c-.1 5.7 2.9 11.5 4.9 13.1"/>
   </g>
   <g stroke-width="5.625">
    <path d="m435.5 403.5 17.8-20.1 22.4 47.8" stroke-linejoin="round"/>
    <path d="m662.6 375.8s-157 41-150.3 54.3c1.1.7 2.5 1 4.1 1 4.5 0 10.9-4.3 12.3-5.1 48.9-28 69.1-128.6 6.8-73.1" stroke-linejoin="round"/>
    <path d="m798.8 336.2-136.2 39.6"/>
    <path d="m475.7 431.2s43.4-60.5 59.8-78.3" stroke-linejoin="round"/>
   </g>
  </g>
 </g>
</svg>
