<svg height="210mm" viewBox="0 0 1052.4 744.1" width="297mm" xmlns="http://www.w3.org/2000/svg">
 <g fill="none" stroke-linecap="round">
  <g transform="translate(0 -308.26772)">
   <path d="m57.6 742.2h948.8" stroke="#969696" stroke-width="1.875"/>
   <g stroke="#000" stroke-dasharray="3.75 7.5" stroke-miterlimit="2" stroke-width=".9375">
    <path d="m58.3 844.1h948.8"/>
    <path d="m58.3 641.8h948.8"/>
    <path d="m58.3 540.6h948.8"/>
   </g>
  </g>
  <g stroke="#000" stroke-linejoin="round" stroke-width="5.625">
   <path d="m357.6 432.2 77.5-47.5 19 47.5"/>
   <path d="m267.6 432.1c17.1-32.6 38.2-41.9 57.8-45.2 25.8-4.4 42.7 11.8 32.2 45.4"/>
   <path d="m493.3 436.3c-25.2 17-43.6 39-50.6 46.1-8.2 9.6-47.7 50.4-28.5 51.6 10.2.2 27.3-8 51-46.1l83.3-151.7-94.4 96"/>
   <path d="m493.3 436.3c20.3-12.8 67.4-35.1 84.2-35.9 16-.6 15.3 26.9 30.1 32.1 4.4 1.6 12.1 2.4 19.3-1.4"/>
   <path d="m628.9 421.4c.6.1 1.2.2 1.7.4.1.1.3.2.4.3.8.6 1.1 1.7.6 3.4-.9 3.3-4.7 5.3-6.4 5.9-3.7 1.3-6.5-1.7-4.3-5 1.3-2.1 3.6-4.3 6.3-4.9.2 0 .4-.1.6-.1h.7c.5 0 1.1.1 1.6.2"/>
   <path d="m626.9 431c23.8-.1 155.7-240.1 203-243.7 17.2 1 21.1 19.3 5.8 41.2-14.5 20.7-23.5 37.5-41.4 63-25.4 36.1-53.1 69.5-45.4 87.5 10.1 18.2 32.5 5.7 52.7-13.1"/>
  </g>
 </g>
</svg>
