<svg height="210mm" viewBox="0 0 1052.4 744.1" width="297mm" xmlns="http://www.w3.org/2000/svg">
 <g fill="none" stroke-linecap="round">
  <g transform="translate(0 -308.26772)">
   <path d="m57.6 742.2h948.8" stroke="#969696" stroke-width="1.875"/>
   <g stroke="#000" stroke-dasharray="3.75 7.5" stroke-miterlimit="2" stroke-width=".9375">
    <path d="m58.3 844.1h948.8"/>
    <path d="m58.3 641.8h948.8"/>
    <path d="m58.3 540.6h948.8"/>
   </g>
  </g>
  <g stroke="#000">
   <g stroke-linejoin="round">
    <path d="m282.4 333.2c37.2-4.7 74.7-21.9 95.2-41.9 21.5-21 23.7-52-3.7-56.2-15.2-2.3-40.6 11.9-87.8 89.8-22.4 38-34.1 64.4-38.2 81.4-1.3 5.2-1.8 9.5-1.7 13 .5 15.3 26.4 13 35.5 8.7" stroke-width="5.625"/>
    <ellipse cx="494.23233" cy="115.21267" rx="4.609393" ry="6.862875" stroke-width="5.625" transform="matrix(.72846687 .68508103 -.68508103 .72846687 0 0)"/>
    <path d="m277.8 428.7c7.1 5.3 17.5 3.9 31.3-13.2 7-8.8 12.3-15.4 18.2-20.2 7-5.6 14.9-9.1 23.8-9.2 14.3-.3 24.4 8.5 10.2 26.1-27.1 33.5-45.1 49.8-39.1 63.3 1.9 4.3 6.9 6.2 12.9 6.2" stroke-width="5.569707"/>
   </g>
   <path d="m361.2 387.8c3.4 1.8 9 5.8 4.4 15-3.9 7.8-14.3 19.1-19.6 24.2-10.5 9.9-31.7 30.2-25.6 46.5" stroke-width="5.472634"/>
   <path d="m324.5 462.9c-2 7-3.8 14.7 5.8 16.9" stroke-width="2.736317"/>
   <path d="m317.9 467.6c-.1 5.5 3.9 14.3 10.9 14.6" stroke-width="2.736317"/>
   <path d="m364.6 389.7c10.2 8.6-2.5 29.5-17.4 44.1-11.3 11-21.7 19.5-24.9 32.6" stroke-width="5.472634"/>
   <g stroke-linejoin="round">
    <path d="m335.2 481.7c30.1.1 60.9-30.8 81.8-30.9 16-.6 18.1 30.8 34.5 30.7 12.8 0 20.2-9.2 28.9-18" stroke-width="5.625"/>
    <path d="m480.3 463.5c20.1-22.3 42.7-46.6 54.3-57.2 7.3-6.6 13.1-11.5 18.2-14.5 5.3-3.1 9.6-4.4 12.9-4 2.3.2 4.2 1.2 5.5 2.8 1.2 1.4 2.1 3.4 2.6 5.7 1.5 6.4.3 16-2.9 26.5-14.7 43-41.2 81.3-67.9 118.3-25.8 35.8-41.2 43.6-50 43.4-22.2-1.2-.5-38.4 5.8-49.2 16.3-28.1 57.9-77.2 77.8-77.8 17.3-.5 23 24.8 40.2 24.7 16.3-.1 34.4-22.5 60.8-53.6 40-47 104.7-117.2 121.4-128.4" stroke-width="5.625001"/>
   </g>
  </g>
  <g stroke="#000017" stroke-linejoin="round">
   <path d="m732 478.8c-30.8 7.6-48.4 4.5-55.8-11.5-1.7-3.6-3.7-7.8-4.2-13.2-.4-4.7-.3-10.1.5-16 6.1-47.5 50.1-123.2 108.9-151.8" stroke-width="5.625002"/>
   <path d="m781.4 286.4c-69.8 47.8-112.9 129.8-105.9 179.8" stroke-width="5.624999"/>
   <path d="m674.1 437.1c8.6-37.9 37.2-84.4 52.4-102.2" stroke-width="4.6875"/>
   <path d="m675.6 442.4c-3.5 26.3 2.6 32.8 16.3 38.7" stroke-width="5.624999"/>
   <path d="m751.9 447.3c3.4 9.7-2.5 22.6-13.2 28.8-10.6 6.2-22 3.4-25.3-6.3-3.4-9.7 2.5-22.6 13.2-28.8 10.6-6.2 22-3.4 25.3 6.3z" stroke-width="5.625"/>
  </g>
 </g>
</svg>
