<svg height="210mm" viewBox="0 0 1052.4 744.1" width="297mm" xmlns="http://www.w3.org/2000/svg">
 <g fill="none" stroke-linecap="round">
  <g transform="translate(0 -308.26772)">
   <path d="m57.6 742.2h948.8" stroke="#969696" stroke-width="1.875"/>
   <g stroke="#000" stroke-dasharray="3.75 7.5" stroke-miterlimit="2" stroke-width=".9375">
    <path d="m58.3 844.1h948.8"/>
    <path d="m58.3 641.8h948.8"/>
    <path d="m58.3 540.6h948.8"/>
   </g>
  </g>
  <g stroke="#000001" stroke-linejoin="round" stroke-width="5.625">
   <path d="m638.5 355.7s-80.7 65.4-97.4 81.9c-18.7 18.2-62.2 59.3-59.3 88.3.9 5.7 14.9 22.6 58.4-38.4 26.9-36.9 54.6-73.4 69.3-116.4 14.7-28.4.3-53.8-37.8-18.2"/>
   <path d="m638.5 355.7c53.7-37.8 171.5-154.5 139.5-165.5-14.6-5-40.2 8.9-87.4 86.8-60.3 104.2-36 118.4-1.8 98.4"/>
   <path d="m571.7 352.9c-10.8 11.4-59.6 45.3-68.4 49.4-33 15.6-73.1 26.7-103.3 28.1-44.8 2.1-87.4-10.2-91.1-38.2"/>
   <path d="m504.8 392.1c.7.1 1.4.2 1.9.5.2.1.3.2.5.3.9.7 1.2 1.9.7 3.8-1 3.7-5.2 5.9-7.2 6.6-4.2 1.5-7.2-1.9-4.9-5.6 1.5-2.3 4.1-4.9 7.1-5.5.2 0 .4-.1.6-.1h.8c.6 0 1.2.1 1.8.2"/>
  </g>
 </g>
</svg>
