<svg height="210mm" viewBox="0 0 1052.4 744.1" width="297mm" xmlns="http://www.w3.org/2000/svg">
 <g fill="none" stroke-linecap="round">
  <g transform="translate(0 -308.26772)">
   <path d="m57.6 742.2h948.8" stroke="#969696" stroke-width="1.875"/>
   <g stroke="#000" stroke-dasharray="3.75 7.5" stroke-miterlimit="2" stroke-width=".9375">
    <path d="m58.3 844.1h948.8"/>
    <path d="m58.3 641.8h948.8"/>
    <path d="m58.3 540.6h948.8"/>
   </g>
  </g>
  <g stroke="#00000c">
   <g stroke-linejoin="round" stroke-width="5.625">
    <path d="m549.4 419.1c14.9-9.7 40.1-35.8 40.1-35.8l33.3 47.9"/>
    <path d="m589.5 383.3 24 48"/>
    <path d="m599 383.3 23.8 47.9"/>
    <path d="m595.1 383.2 24 48"/>
   </g>
   <g stroke-width="3.75">
    <path d="m591.8 382.2h7.1"/>
    <path d="m615.2 432.2h7.1"/>
   </g>
  </g>
  <g stroke-linejoin="round" stroke-width="5.625">
   <g stroke="#030002">
    <path d="m706.5 415.3c1 .1 1.8.3 2.5.7.2.1.4.2.6.4 1.2.9 1.7 2.6 1 5.2-1.3 5.1-7.1 8-9.8 9-5.7 2-9.8-2.6-6.6-7.6 2-3.1 5.5-6.6 9.7-7.5.3-.1.6-.1.9-.1s.7-.1 1-.1c.8 0 1.6.1 2.4.3"/>
    <path d="m622.8 431.2 75.2.2"/>
    <path d="m676.7 415.6c1 .1 1.8.3 2.5.7.2.1.4.2.6.4 1.2.9 1.7 2.6 1 5.2-1.3 5.1-7.1 8-9.8 9-5.7 2-9.8-2.6-6.6-7.6 2-3.1 5.5-6.6 9.7-7.5.3-.1.6-.1.9-.1s.7-.1 1-.1c.8 0 1.6.1 2.4.3"/>
   </g>
   <g stroke="#000">
    <path d="m431.4 431.6s131.8-119.2 172.5-152.5c5-4.1 12.3-10.3 17.8-14.9 9.2-8.2 8.8-20.3 3.8-26.3-6.5-6.9-25.9-1.6-34.6 22.9-4.9 13.8-3.1 34.6-6.7 53.9-3.7 20-43.6 46.6-64.3 69.8-28.7 32.1-23.7 66 29.5 34.6"/>
    <path d="m583.4 318c-1.7 8.9-6 17.7-13.5 25.6-9.3 9.8-23.7 21.9-34 31.6-11.5 10.9-20.4 18.7-30.3 31"/>
    <path d="m585.6 304.3c-1.7 8.9-14.5 28-27.3 39.1-15.8 13.8-33.8 29.9-45.3 42.7-10.6 11.9-11 27.3-10.4 35.4"/>
   </g>
  </g>
 </g>
</svg>
