<svg height="210mm" viewBox="0 0 1052.4 744.1" width="297mm" xmlns="http://www.w3.org/2000/svg">
 <g fill="none" stroke-linecap="round">
  <g transform="translate(0 -308.26772)">
   <path d="m57.6 742.2h948.8" stroke="#969696" stroke-width="1.875"/>
   <g stroke="#000" stroke-dasharray="3.75 7.5" stroke-miterlimit="2" stroke-width=".9375">
    <path d="m58.3 844.1h948.8"/>
    <path d="m58.3 641.8h948.8"/>
    <path d="m58.3 540.6h948.8"/>
   </g>
  </g>
  <g stroke="#000">
   <g stroke-width="5.625">
    <path d="m451.5 408.9c1 .1 1.9.3 2.6.7.2.1.5.3.7.4 1.3 1 1.8 2.7 1 5.4-1.4 5.3-7.4 8.4-10.3 9.4-5.9 2.1-10.3-2.7-6.9-8 2.1-3.3 5.8-6.9 10.1-7.8.3-.1.6-.1.9-.1.4 0 .7-.1 1.1-.1.8 0 1.7.1 2.5.3" stroke-linejoin="round"/>
    <path d="m321.3 432.3c57.7-38.1 145.9-97.3 183.9-141 15.2-17.5 23.5-35.3 19.4-45.4-2.2-5.5-6.6-8.4-17.7-8.7-15.4-.4-42.9 10.9-90.1 88.8-46.6 79.3-46.4 104.9-27.2 104.9 11.8-.8 24.2-.9 33.4-2.1 9-1.2 13.2-1.9 18.8-3" stroke-linejoin="round"/>
    <path d="m488.5 243.2c-48 60-85.7 120.5-108.4 181.8"/>
   </g>
   <path d="m478.9 251.5c-6.9 7.8-15 16.6-21.7 25.1-31 39.4-59.4 87.3-76 139" stroke-width="7.5"/>
   <path d="m507.9 238.4c-9-2.7-14.6 1.4-19.6 6.4-5 5.1-9.2 11.2-14.7 19" stroke-width="3.75"/>
   <g stroke-width="5.625">
    <path d="m385.7 410.8c-3.2 11.3-2.9 14.1-1.1 16.1 1.7 1.8 4.7 3.7 11.8 3.5"/>
    <path d="m647.1 307.2c10.3-11.6 16.8-21.5 21.9-27.7 19.8-24 27.6-45 10.5-43.9-15.4 1-42.6 12.2-89.8 90.1-60.3 104.2-32 117.7 2.2 97.7 7.6-5.3 14.6-11.1 20.9-18" stroke-linejoin="round"/>
    <path d="m663.1 240.6c-48 60-84.9 118.1-107.7 179.3"/>
   </g>
   <path d="m650 252.3c-38.3 44.9-70.9 94.9-92.8 154.8" stroke-width="7.5"/>
   <path d="m680.7 236.4c-13.1-.9-24.8 14.1-27.3 17.1" stroke-width="3.75"/>
   <g stroke-width="5.625">
    <path d="m560.2 407.9c-6.1 21.8-1.8 23 13.1 22.7"/>
    <path d="m718 236.2s-50.3 99.6-83.4 144.2c-7.8 10.5-21.8 25-21.8 25"/>
    <g stroke-linejoin="round">
     <path d="m518.1 421.6c47.3-27.5 95.6-76.7 129-114.4"/>
     <ellipse cx="146.0332" cy="630.74561" rx="25.728558" ry="20.371416" transform="matrix(.79083574 -.61202846 .61202846 .79083574 0 0)"/>
     <path d="m495.4 432.1s-51.2 4.4-53.8-6.3"/>
    </g>
   </g>
  </g>
 </g>
</svg>
