<svg height="210mm" viewBox="0 0 1052.4 744.1" width="297mm" xmlns="http://www.w3.org/2000/svg">
 <g fill="none" stroke-linecap="round">
  <g transform="translate(0 -308.26772)">
   <path d="m57.6 742.2h948.8" stroke="#969696" stroke-width="1.875"/>
   <g stroke="#000" stroke-dasharray="3.75 7.5" stroke-miterlimit="2" stroke-width=".9375">
    <path d="m58.3 844.1h948.8"/>
    <path d="m58.3 641.8h948.8"/>
    <path d="m58.3 540.6h948.8"/>
   </g>
  </g>
  <g stroke="#000">
   <g stroke-linejoin="round" stroke-width="5.625">
    <path d="m371.4 410.6 30.5-26.9 33.3 47.9"/>
    <path d="m401.9 383.6 24 48"/>
    <path d="m411.4 383.7 23.8 47.9"/>
    <path d="m407.4 383.5 24 48"/>
   </g>
   <path d="m401.7 382.7 9.5-.1" stroke-width="3.75"/>
   <path d="m427.6 432.5h7.1" stroke-width="3.75"/>
   <g stroke-linejoin="round" stroke-width="5.625">
    <path d="m312.9 358.3c15.9-32 75.6-30.6 48.2 3.3-27.4 33.8-47.1 52.6-39.4 63.9 9 13.2 36.1 1.2 49.7-14.9"/>
    <path d="m435.2 431.5c19.2-24.3 66.8-95.5 92-95.5 9.9 0 15.8 9.8 7.7 29.6-6.7 17.1-36.3 65.7-36.3 65.7"/>
   </g>
  </g>
  <path d="m498.6 431.3 279.1-94.8-56.7 94.9" stroke="#0a0000" stroke-linejoin="round" stroke-width="5.625"/>
 </g>
</svg>
