<svg height="210mm" viewBox="0 0 1052.4 744.1" width="297mm" xmlns="http://www.w3.org/2000/svg">
 <g fill="none" stroke-linecap="round">
  <g transform="translate(0 -308.26772)">
   <path d="m57.6 742.2h948.8" stroke="#969696" stroke-width="1.875"/>
   <g stroke="#000" stroke-dasharray="3.75 7.5" stroke-miterlimit="2" stroke-width=".9375">
    <path d="m58.3 844.1h948.8"/>
    <path d="m58.3 641.8h948.8"/>
    <path d="m58.3 540.6h948.8"/>
   </g>
  </g>
  <g stroke="#000" stroke-linejoin="round">
   <g stroke-width="5.625">
    <path d="m488.8 429.8c-49.7.7-65.3 1.6-111.5 46.5-23.7 26.3-36.3 44.3-32.3 54.4 2.2 5.6 34.7 12.4 62.3-63.3 15.8-47.4 16.5-113.3 70.8-131.6"/>
    <g transform="matrix(.72846687 .68508103 -.68508103 .72846687 0 0)">
     <ellipse cx="648.26575" cy="-27.804426" rx="4.609393" ry="6.862874"/>
     <ellipse cx="632.65381" cy="-13.929702" rx="4.609393" ry="6.862874"/>
    </g>
   </g>
   <path d="m496.2 425.1c19.6-32.2 93-152.4 101.5-164.6 8.7-12.5 18.2-25.3 30.6-25.8 13.4-.6 16.2 26.6 31.3 26.1 4.8-.1 11.1-3.9 19.6-13.3" stroke-width="5.624999"/>
  </g>
 </g>
</svg>
