<svg height="210mm" viewBox="0 0 1052.4 744.1" width="297mm" xmlns="http://www.w3.org/2000/svg">
 <g fill="none" stroke-linecap="round">
  <g transform="translate(0 -308.26772)">
   <path d="m57.6 742.2h948.8" stroke="#969696" stroke-width="1.875"/>
   <g stroke="#000" stroke-dasharray="3.75 7.5" stroke-miterlimit="2" stroke-width=".9375">
    <path d="m58.3 844.1h948.8"/>
    <path d="m58.3 641.8h948.8"/>
    <path d="m58.3 540.6h948.8"/>
   </g>
  </g>
  <g stroke="#000" stroke-width="5.625">
   <g stroke-linejoin="round">
    <path d="m322.1 261.3c12.6-15.8 22.8-23 32-25.3 8.1-2 15.3-2.1 21-.6 6.2 1.6 11.2 6.4 8.7 18.1-6.4 14.1-15.9 21.3-33.7 32-15.8 12.8-43.5 22.6-38.9 53.9 6.3 42.7-45.5 80.6-63.9 91.9"/>
    <path d="m392.6 430.7c-56.8 9.5 21.5-138.4 65.6-185.1 4.7-5 11.2-10.7 18.9-11.9"/>
    <path d="m461.6 241.9s-243.3 192.1-214.2 189.4"/>
    <path d="m699.8 385.7 39.4-50.5"/>
    <path d="m739.3 335.2 24.7 47.9"/>
    <path d="m322.1 261.3-139.9 170"/>
    <path d="m392.6 430.7c29.3-4.4 214.3-36.6 224.9-36 21.6 1.3 14.4 36.6 35.1 36.3 14.7 0 32.7-26.6 47.3-45.2"/>
   </g>
   <path d="m875 185.2-111 197.9"/>
  </g>
 </g>
</svg>
