<svg height="210mm" viewBox="0 0 1052.4 744.1" width="297mm" xmlns="http://www.w3.org/2000/svg">
 <g fill="none" stroke-linecap="round">
  <g transform="translate(0 -308.26772)">
   <path d="m57.6 742.2h948.8" stroke="#969696" stroke-width="1.875"/>
   <g stroke="#000" stroke-dasharray="3.75 7.5" stroke-miterlimit="2" stroke-width=".9375">
    <path d="m58.3 844.1h948.8"/>
    <path d="m58.3 641.8h948.8"/>
    <path d="m58.3 540.6h948.8"/>
   </g>
  </g>
  <g stroke="#000" stroke-width="5.625">
   <path d="m866.5 234.2-108.8 188.2"/>
   <path d="m547.7 335.6-155.2 196.7"/>
   <g stroke-linejoin="round">
    <path d="m547.7 335.6-38.4 72.5c-7.1 13.5 1.8 23.1 15 23 17.5-.1 39.4-15.6 69.1-45.7"/>
    <path d="m749.8 431.1c5.4-3.3 11.7-10.5 6.5-17.1-2.6-3.3-4-4.5-11.9-4.4l-135 .6c-5.8 0-12.7.1-15.9-.7-9.6-2.4-7.9-13.2 0-24"/>
    <ellipse cx="433.07983" cy="176.70941" rx="4.609393" ry="6.862875" transform="matrix(.72846687 .68508103 -.68508103 .72846687 0 0)"/>
    <path d="m193.5 431.4c18.2.3 33.1-20 106.8-95.6 0 0-34.9 62.1-38.9 72.5-5.5 14.2 1.8 22.5 15 23 39.2 1.4 70.6-95.5 99.3-95.4 5.4 0 9.4 2.3 12.6 8.6 6.5 12.7 4 18.2 12.3 27.2 15.9 17.3 43.8-27.8 34.5-34.3-6.3-4.4-25.9 3.2-49.4 42-20.1 35.4-19.6 52.5-4.6 52.3 9.4-.1 19.5-7.3 27-13.5"/>
   </g>
  </g>
 </g>
</svg>
