<svg height="210mm" viewBox="0 0 1052.4 744.1" width="297mm" xmlns="http://www.w3.org/2000/svg">
 <g fill="none" stroke-linecap="round">
  <g transform="translate(0 -308.26772)">
   <path d="m57.6 742.2h948.8" stroke="#969696" stroke-width="1.875"/>
   <g stroke="#000" stroke-dasharray="3.75 7.5" stroke-miterlimit="2" stroke-width=".9375">
    <path d="m58.3 844.1h948.8"/>
    <path d="m58.3 641.8h948.8"/>
    <path d="m58.3 540.6h948.8"/>
   </g>
  </g>
  <g stroke="#000">
   <g stroke-linejoin="round" stroke-width="5.625">
    <path d="m573.5 410.5c8.5-8.5 26.9-26.8 26.9-26.8l24 48"/>
    <path d="m393.2 431 50.2-.1"/>
    <ellipse cx="106.76073" cy="598.8717" rx="25.728558" ry="20.371416" transform="matrix(.79083574 -.61202846 .61202846 .79083574 0 0)"/>
    <path d="m251.4 403 22.7-20.4 31 47.7"/>
    <path d="m274.1 382.5 24 48"/>
    <path d="m281.3 382.3 23.8 47.9"/>
    <path d="m277.8 382.4 24 48"/>
   </g>
   <path d="m274.5 381.5h7.1" stroke-width="3.75"/>
   <path d="m297.9 431.4h7.1" stroke-width="3.75"/>
   <g stroke-linejoin="round">
    <g stroke-width="5.625">
     <path d="m272.6 283.9c8.4 2.8 28.3-5.4 40.8-17.3 14.8-13.4 14-32.9-6.4-32.1-11.8.6-24.9 10.4-30.7 26.6-4.9 13.8-3.1 34.6-6.7 53.9-3.7 20-43.6 46.6-64.3 69.8-23.7 26.5-24.8 52.8 5.9 45.5 13.5-3.2 29.9-17.8 40.2-27.3"/>
     <path d="m305.2 430.2 92.9-94"/>
     <path d="m398.1 336.2-56.7 94.9 51.9-.1"/>
    </g>
    <ellipse cx="575.8941" cy="35.142155" rx="5.271423" ry="7.848564" stroke-width="14.034715" transform="matrix(.72846687 .68508103 -.68508103 .72846687 0 0)"/>
    <g stroke-width="6.5625">
     <path d="m568.2 336.3-47.5 81.9"/>
     <path d="m563.5 336.3-44.7 81.9"/>
    </g>
   </g>
   <path d="m524.8 414c-3.1 6.1-3.4 13.5 3.2 15.5" stroke-width="3.75"/>
   <g stroke-linejoin="round">
    <path d="m568.2 336.3h-9.3" stroke-width="6.5625"/>
    <g stroke-width="5.625">
     <path d="m465.1 423 93.6-87.1-38.9 72.5c-7.2 13.4 1.8 23.1 15 23 17.5-.4 28.3-11.3 38.6-20.9"/>
     <path d="m847.8 417.8 30.7-28.1"/>
     <path d="m888 533.6c14.8-7.7 32.2-16.2 28.9-34.4-.9-14.2-55-41.3-61.8-64.1-3.5-11.7 8.2-28.9 23.4-45.3"/>
     <path d="m624.4 431.6s51.9-73.3 83.6-115"/>
     <path d="m682.7 430.9c-4.1 1.5-7-2.5-2.9-5 17-10.2 107.1-31.5 114.1-30.4 15.7 4.3 13.6 35.7 29.5 35.9 5.5 0 13.1-3.7 24.4-13.5"/>
     <path d="m707.9 316.6c40.9-55.3 65.1-87.7 88.3-82.1 40.5 9.8-56.8 178.8-113.5 196.4"/>
    </g>
   </g>
  </g>
 </g>
</svg>
