<svg height="210mm" viewBox="0 0 1052.4 744.1" width="297mm" xmlns="http://www.w3.org/2000/svg">
 <g fill="none" stroke="#000" stroke-linecap="round">
  <g transform="translate(0 -308.26772)">
   <path d="m57.6 742.2h948.8" stroke-width="1.875"/>
   <g stroke-dasharray="3.75 7.5" stroke-miterlimit="2" stroke-width=".9375">
    <path d="m58.3 844.1h948.8"/>
    <path d="m58.3 641.8h948.8"/>
    <path d="m58.3 540.6h948.8"/>
   </g>
  </g>
  <g stroke-linejoin="round">
   <path d="m448.1 402.7c-16 19.7-29 25-36.4 27.4-54.4 17.1 34-131.2 77.7-177.4 4.7-4.9 15.9-14.6 23-17.4" stroke-width="5.625"/>
   <path d="m448.1 402.7s18.5-25.1 24.2-33.1" stroke-width="5.62496"/>
   <path d="m472.3 369.6c13.9-20 29.8-32.2 43.4-33.2 15.7-1.2 30.7 10.9 34.6 48.1 6.8 65.5 51.9 51.2 67.6 24.5" stroke-width="5.625"/>
  </g>
 </g>
</svg>
