<svg height="210mm" viewBox="0 0 1052.4 744.1" width="297mm" xmlns="http://www.w3.org/2000/svg">
 <g fill="none" stroke-linecap="round">
  <g transform="translate(0 -308.26772)">
   <path d="m57.6 742.2h948.8" stroke="#969696" stroke-width="1.875"/>
   <g stroke="#000" stroke-dasharray="3.75 7.5" stroke-miterlimit="2" stroke-width=".9375">
    <path d="m58.3 844.1h948.8"/>
    <path d="m58.3 641.8h948.8"/>
    <path d="m58.3 540.6h948.8"/>
   </g>
  </g>
  <g stroke-linejoin="round">
   <path d="m451.9 428.9c6.7-1.6 28.8-24.3 53.7-52.1" stroke="#000" stroke-width="5.625"/>
   <path d="m451.8 420.5c.7.1 1.3.2 1.8.5.2.1.3.2.4.3.9.7 1.2 1.8.7 3.6-.9 3.6-5 5.6-6.9 6.3-4 1.4-6.9-1.8-4.6-5.3 1.4-2.2 3.9-4.6 6.8-5.2.2 0 .4-.1.6-.1h.7c.6 0 1.1.1 1.7.2" stroke="#030002" stroke-width="5.625"/>
   <g stroke="#000">
    <path d="m505.6 376.7c17.6-20.9 94.4-114.7 116.8-132.4 83-65-28.8 162.3-88.2 186.6-4 .9-7.3.9-10 .2-6-4.4 78-33.3 103.7-39.5" stroke-width="5.625"/>
    <path d="m650.3 252.6-91.7 157.8" stroke-width="5.625"/>
    <path d="m644.6 268.9-73 125.6" stroke-width="8.4375"/>
    <path d="m541.8 426.4c6.6-8.2 16.4-19 22.5-27.9" stroke-width="3.75"/>
    <g stroke-width="5.625">
     <path d="m633.5 296.4-40.2 67.9"/>
     <path d="m652 239c.7 14-5.4 18.6-14.3 37.1"/>
     <path d="m627.9 391.6c2.5-.5 4.9-.9 7.3-1 24-.8 32.4 41.1 48.8 40.7 10.8-.3 18.5-10 25.1-17.1"/>
     <path d="m393 431.2h-73.4"/>
     <ellipse cx="67.931419" cy="569.84766" rx="25.728558" ry="20.371416" transform="matrix(.79083574 -.61202846 .61202846 .79083574 0 0)"/>
     <path d="m445.5 431.5c-13.2 1.3-34.2 1-44.7-.1"/>
    </g>
   </g>
  </g>
 </g>
</svg>
