<svg height="210mm" viewBox="0 0 1052.4 744.1" width="297mm" xmlns="http://www.w3.org/2000/svg">
 <g fill="none" stroke-linecap="round">
  <g transform="translate(0 -308.26772)">
   <path d="m57.6 742.2h948.8" stroke="#969696" stroke-width="1.875"/>
   <g stroke="#000" stroke-dasharray="3.75 7.5" stroke-miterlimit="2" stroke-width=".9375">
    <path d="m58.3 844.1h948.8"/>
    <path d="m58.3 641.8h948.8"/>
    <path d="m58.3 540.6h948.8"/>
   </g>
  </g>
  <g stroke="#000">
   <path d="m624.1 235.3-94.5 196.1" stroke-linejoin="round" stroke-width="5.624999"/>
   <g stroke-width="5.625">
    <path d="m624.1 235.3-184.1 182.6"/>
    <g stroke-linejoin="round">
     <path d="m483.2 432.2c11.2-27.4-9.2-38.1-20.9-44.2-32.6-16.9-29.7-38.2-22.8-51.3"/>
     <path d="m529.6 431.4c15-15.3 46.4-45.2 66.6-47.2 6.4-.6 11.1 2.6 12.7 8.3 1.4 5.1.4 12.5-4.1 22.5-11 21.7-34.1 64.5-34.1 64.5"/>
     <path d="m570.6 479.6c25-11.8 67.7-31.5 85.3-32.4 16.8-.7 22.7 32.6 34.2 32.2 7.5-.2 13.1-6.2 18.3-10.8"/>
    </g>
   </g>
  </g>
 </g>
</svg>
