<svg height="210mm" viewBox="0 0 1052.4 744.1" width="297mm" xmlns="http://www.w3.org/2000/svg">
 <g fill="none" stroke-linecap="round">
  <g transform="translate(0 -308.26772)">
   <path d="m57.6 742.2h948.8" stroke="#969696" stroke-width="1.875"/>
   <g stroke="#000" stroke-dasharray="3.75 7.5" stroke-miterlimit="2" stroke-width=".9375">
    <path d="m58.3 844.1h948.8"/>
    <path d="m58.3 641.8h948.8"/>
    <path d="m58.3 540.6h948.8"/>
   </g>
  </g>
  <g stroke="#000">
   <g stroke-linejoin="round" stroke-width="5.625">
    <path d="m666.8 335.3-39.4 73.1c-8.4 15.5 5 26.1 21.5 22.2 2.8-.7 9.1-2.7 14-5.9 5.5-3.6 13.2-9.7 18.1-14.2"/>
    <path d="m681 410.5 29.4-28 34.5 48.8"/>
    <path d="m710.4 382.5 25.1 49"/>
    <path d="m719.9 382.6 25 48.8"/>
    <path d="m716 382.4 25.1 49"/>
   </g>
   <path d="m710.8 381.5h9" stroke-width="3.75"/>
   <path d="m735.4 432.4h9" stroke-width="3.75"/>
   <g stroke-linejoin="round" stroke-width="5.625">
    <path d="m744.9 431.4s60.7-30.5 79.2-31c20.8-.7 19.4 31.8 35.1 31.4 6.4-.2 11.6-3.8 16.7-7.7"/>
    <path d="m666.8 335.3s-54.8 69.2-65.8 82.6"/>
    <path d="m188.2 431.2c120.8-34.7 312.1-79.4 380.1-154.3 15.4-17.4 21.6-33.1 11.4-40.5-12.5-9.1-40.2 9-87.4 87.7-46.8 81.7-42.7 108.6-22.5 107.2"/>
    <path d="m469.8 431.3c16.1-.2 65-30.5 81.8-31.3 16-.6 21.6 31.3 32.6 30.9 7.2-.2 12.4-7.6 16.7-13"/>
   </g>
  </g>
 </g>
</svg>
