<svg height="210mm" viewBox="0 0 1052.4 744.1" width="297mm" xmlns="http://www.w3.org/2000/svg">
 <g fill="none" stroke-linecap="round">
  <g transform="translate(0 -308.26772)">
   <path d="m57.6 742.2h948.8" stroke="#969696" stroke-width="1.875"/>
   <g stroke="#000" stroke-dasharray="3.75 7.5" stroke-miterlimit="2" stroke-width=".9375">
    <path d="m58.3 844.1h948.8"/>
    <path d="m58.3 641.8h948.8"/>
    <path d="m58.3 540.6h948.8"/>
   </g>
  </g>
  <g stroke="#000" stroke-linejoin="round">
   <g stroke-width="5.625">
    <path d="m492.9 336.1c-36.7 11.9-89.3 94.6-53.1 95.5 6.7.2 19.4-2.6 35.8-17.4"/>
    <path d="m541.8 432.3c-29.2-.6 80.2-44.5 114.5-50.8"/>
    <ellipse cx="268.23706" cy="721.68182" rx="28.852659" ry="22.845026" transform="matrix(.79083574 -.61202846 .61202846 .79083574 0 0)"/>
   </g>
   <path d="m658.1 273.1c-4.4 10.5-65.2 117.4-69.4 120.2" stroke-width="8.437499"/>
   <path d="m552.5 426.9c17.1-13.4 32.3-30.5 41.8-45.8" stroke-width="3.75"/>
   <path d="m648.9 296.4-42.1 71.6" stroke-width="5.625"/>
   <path d="m662.6 237.9c5.1 7.4-2.2 26.2-11.1 44.7" stroke-width="4.6875"/>
   <g stroke-width="5.625">
    <path d="m475.6 414.3c37.1-34.9 76.9-81.7 108.1-119.1 29.6-35.6 56.8-63.5 74.5-59.9 3 .1 5 1.7 6.1 4.6 10.7 27.9-65.8 174.3-122.4 192.5"/>
    <path d="m290.5 488.5c-4.2 5.2-6.8 11.9-7.7 17-1.3 7.3.3 13.6 2.3 16.5 1.4 2.1 3.5 5.2 7.4 7.5 2.9 1.7 7.3 3 10.8 3.1 4.1.2 9.5-1 14.4-4.3 3.5-2.3 6.6-6 9.7-9.4 11.7-12.8 111.7-147.4 143.7-169.7"/>
   </g>
  </g>
 </g>
</svg>
