<svg height="210mm" viewBox="0 0 1052.4 744.1" width="297mm" xmlns="http://www.w3.org/2000/svg">
 <g fill="none" stroke-linecap="round">
  <g transform="translate(0 -308.26772)">
   <path d="m57.6 742.2h948.8" stroke="#969696" stroke-width="1.875"/>
   <g stroke="#000" stroke-dasharray="3.75 7.5" stroke-miterlimit="2" stroke-width=".9375">
    <path d="m58.3 844.1h948.8"/>
    <path d="m58.3 641.8h948.8"/>
    <path d="m58.3 540.6h948.8"/>
   </g>
  </g>
  <g stroke="#000" stroke-linejoin="round" stroke-width="5.625">
   <path d="m445.1 415.6c2.6-1.9 28.4-29 45.3-51.4"/>
   <path d="m410.4 393.9c11.2-3.7 15.6-6.1 25-11.6 8.1-4.8 14.4-8.8 21.2-13.4 15.4-10.3 20.5-23.8 18.7-28.7-2.8-7.4-29.3-8.1-53.6 32-5 8.1-8.6 15.3-11.2 21.7-11.3 27.9-1.6 38.8 9.6 37.4 10.6-2 17.4-8.3 25.2-15.7"/>
   <path d="m490.4 364.2 63.5-77.9c-13.8 25.3-28.6 50-43 74.9-8.3 15-2.4 21.7 8.2 22.3 6 .3 19.6-.7 35.8-17.4 13.3-14.9 23.9-32 27.1-36.4 10.7-14.5 25.9-26.4 37-26.2 15.3.3 14.7 28.3 31.1 27.2 6.8-.4 10.9-2.8 16.7-9.5"/>
  </g>
 </g>
</svg>
