<svg height="210mm" viewBox="0 0 1052.4 744.1" width="297mm" xmlns="http://www.w3.org/2000/svg">
 <g fill="none" stroke-linecap="round">
  <g transform="translate(0 -308.26772)">
   <path d="m57.6 742.2h948.8" stroke="#969696" stroke-width="1.875"/>
   <g stroke="#000" stroke-dasharray="3.75 7.5" stroke-miterlimit="2" stroke-width=".9375">
    <path d="m58.3 844.1h948.8"/>
    <path d="m58.3 641.8h948.8"/>
    <path d="m58.3 540.6h948.8"/>
   </g>
  </g>
  <g stroke="#000" stroke-linejoin="round">
   <path d="m384 414.1c13.6-6.2 228.7-107.5 238.2-111.6 23.3-10 40.8-18.9 53-11.3 6.6 4.7 6.9 16-5.6 39.8l-27.5 52.3" stroke-width="5.625"/>
   <path d="m783.2 188.3-141 195" stroke-width="5.624999"/>
   <path d="m189.9 532.4 55.4-93.3" stroke-width="5.625"/>
   <path d="m245.4 439.1c12.8-21.3 27.5-39.6 48-40.3 21.3-.4 25.5 32.2 44.3 32.2 9.3-.1 21.2-5.1 46.4-17" stroke-width="5.624999"/>
   <path d="m836.5 188.7c-26.2 31.3-75.2 73.5-53.3-.4" stroke-width="5.625"/>
  </g>
 </g>
</svg>
