<svg height="210mm" viewBox="0 0 1052.4 744.1" width="297mm" xmlns="http://www.w3.org/2000/svg">
 <g fill="none" stroke-linecap="round" transform="translate(0 -308.26772)">
  <path d="m57.6 742.2h948.8" stroke="#969696" stroke-width="1.875"/>
  <g stroke="#000" stroke-dasharray="3.75 7.5" stroke-miterlimit="2" stroke-width=".9375">
   <path d="m58.3 844.1h948.8"/>
   <path d="m58.3 641.8h948.8"/>
   <path d="m58.3 540.6h948.8"/>
  </g>
 </g>
 <g fill="none" stroke="#000" stroke-linecap="round">
  <g stroke-width="5.625">
   <path d="m710.8 384.3c40 3 59.3-35.7 56.6-44.3-2.8-8.7-28.8-4.3-52.7 35.1l-31.4 56.4" stroke-linejoin="round"/>
   <path d="m683.3 431.5c25.8-7.6 85-21.9 132.3-61.4 41.4-34.7 70-72.4 52-78.6-14.6-5-42.6 12.2-89.8 90.1-60.3 104.2-35 118.2-1.1 97.4" stroke-linejoin="round"/>
   <path d="m851.1 296.1c-48 60-85.6 120.6-108.4 181.8"/>
  </g>
  <path d="m840.1 306.2c-38.3 44.9-72.9 96.9-94.8 156.9" stroke-width="7.5"/>
  <path d="m869.4 293.5c-14-7.4-25.3 13-27.8 15.9" stroke-width="3.75"/>
  <path d="m748.3 463.8c-6.1 21.8-1.8 23 13.1 22.7" stroke-width="5.625"/>
  <g stroke-linejoin="round">
   <path d="m206.9 390.4 27.4 38.9" stroke-width="8.4375"/>
   <g stroke-width="5.625">
    <path d="m207.1 401 21.5 30.3"/>
    <path d="m212.2 385c31.7-.6 60.1-36.4 56.9-44.8-2.5-6.7-27.1-5.3-45.7 15.7-7.9 9-17.8 26.4-16 25.9 0 12.3 23.9 32.9 36 49.4"/>
    <path d="m226.7 352.3c-3.8 2.7-10 9.5-15 16.3-4.7 6.5-8.5 13-8.3 16.2.2 3.7.2 7.8 2.2 12.7 1.5 3.6 4.1 7.5 8 12.3"/>
    <path d="m228.6 431.2h14.7"/>
    <path d="m291.2 431.5c11.3-3.6 29-14.3 32.2-40.1s20.9-53.1 39.1-55.8"/>
    <path d="m351.5 340.2-108.1 91"/>
   </g>
  </g>
 </g>
 <circle cx="524.65912" cy="360.65811" r="10.653955"/>
 <circle cx="509.26947" cy="409.67374" r="10.653955"/>
</svg>
