<svg height="210mm" viewBox="0 0 1052.4 744.1" width="297mm" xmlns="http://www.w3.org/2000/svg">
 <g fill="none" stroke-linecap="round">
  <g transform="translate(0 -308.26772)">
   <path d="m57.6 742.2h948.8" stroke="#969696" stroke-width="1.875"/>
   <g stroke="#000" stroke-dasharray="3.75 7.5" stroke-miterlimit="2" stroke-width=".9375">
    <path d="m58.3 844.1h948.8"/>
    <path d="m58.3 641.8h948.8"/>
    <path d="m58.3 540.6h948.8"/>
   </g>
  </g>
  <g stroke="#000">
   <g stroke-width="5.625">
    <path d="m354.4 387.3 19.4 44" stroke-linejoin="round"/>
    <path d="m373.8 431.3s112.8-136 149.4-143.7c17.5-3.7 33.3 6.9 13.8 31-27.4 33.8-122 152-101.9 163.9 25.4 15 69.5-71.3 74.6-80.8 0 0 14.9-33 7.3-41.2-12.8-13.7-38.3-1.1-40.8 9.8-6.7 28.9 72.5 22.3 95 5.5" stroke-linejoin="round"/>
    <path d="m542.4 310.9-69.5 100.3-39.9 60.8"/>
    <path d="m542.5 306.5c-45.1 45.4-76 100.9-107.6 155.9"/>
   </g>
   <g stroke-width="3.75">
    <path d="m438.8 453.8c-7.7 10.8-7.5 17.5-7.2 24.1"/>
    <path d="m441.1 483.3c-12.1-1.2-7-9.8-1.8-18.4"/>
    <path d="m529.5 319c9.1-10.3 17.8-18.4 13.6-26.5"/>
   </g>
   <g stroke-width="5.625">
    <path d="m697.5 184.1-119.2 185.3"/>
    <ellipse cx="222.66595" cy="626.33502" rx="25.728558" ry="20.371416" stroke-linejoin="round" transform="matrix(.79083574 -.61202846 .61202846 .79083574 0 0)"/>
   </g>
  </g>
 </g>
</svg>
