<svg height="210mm" viewBox="0 0 1052.4 744.1" width="297mm" xmlns="http://www.w3.org/2000/svg">
 <g fill="none" stroke-linecap="round">
  <g transform="translate(0 -308.26772)">
   <path d="m57.6 742.2h948.8" stroke="#969696" stroke-width="1.875"/>
   <g stroke="#000" stroke-dasharray="3.75 7.5" stroke-miterlimit="2" stroke-width=".9375">
    <path d="m58.3 844.1h948.8"/>
    <path d="m58.3 641.8h948.8"/>
    <path d="m58.3 540.6h948.8"/>
   </g>
  </g>
  <g stroke="#000">
   <path d="m292.3 431.8 58.7-108.1c26.4-48.6 52-72.9 91.2-88.5" stroke-linejoin="round" stroke-width="5.625"/>
   <path d="m292.3 431.8s309.6-167.6 370.1-191.5c7-2.8 10-3.8 17.1-4.9 24.2-3 24.2 16 18.1 31.2-8.6 21.2-83.9 165.7-83.9 165.7" stroke-linejoin="round" stroke-width="5.625"/>
   <path d="m729.6 338.5c.8-1.1 3.5 6.2.4 14.1-3.2 8.2-12.5 19.1-17.8 24.2-10.5 9.9-29.8 30.2-23.7 46.5" stroke-width="5.472634"/>
   <path d="m719.1 337.2c13.9-1.2 11 7.7 10.3 13.7" stroke-width="2.736317"/>
   <path d="m613.7 432.3c21.5-18.1 60.8-72.1 82.2-86.3 2.9-2.2 6.5-4.5 10.3-6.4 4.5-2.2 9.1-3.7 13.1-3.8 14.3-.3 24.4 8.5 10.2 26.1-27.1 33.5-45.1 49.8-39.1 63.3 1.9 4.3 6.9 6.2 12.9 6.2 17.2-.8 27.7-11.4 39.2-22.8" stroke-linejoin="round" stroke-width="5.569705"/>
   <path d="m729.5 337.5c15.4 6.8 4.1 30.2-12.2 46.1-14 13.6-22.7 27.7-28.7 39.7" stroke-width="5.472634"/>
   <g stroke-width="2.736317">
    <path d="m695.9 412.7c-3.4 4.9-7.1 14.7 2.5 16.9"/>
    <path d="m686.1 417.5c-.1 5.5 3.9 14.3 10.9 14.6"/>
   </g>
  </g>
 </g>
</svg>
