<svg height="210mm" viewBox="0 0 1052.4 744.1" width="297mm" xmlns="http://www.w3.org/2000/svg">
 <g fill="none" stroke-linecap="round">
  <g transform="translate(0 -308.26772)">
   <path d="m57.6 742.2h948.8" stroke="#969696" stroke-width="1.875"/>
   <g stroke="#000" stroke-dasharray="3.75 7.5" stroke-miterlimit="2" stroke-width=".9375">
    <path d="m58.3 844.1h948.8"/>
    <path d="m58.3 641.8h948.8"/>
    <path d="m58.3 540.6h948.8"/>
   </g>
  </g>
  <g stroke="#000" stroke-linejoin="round" stroke-width="5.625">
   <path d="m448.1 261.1c12.6-15.8 22.8-23 32-25.3 8.1-2 15.3-2.1 21-.6 6.2 1.6 11.2 6.4 8.7 18.1-6.4 14.1-15.9 21.3-33.7 32-15.8 12.8-43.5 22.6-38.9 53.9 6.3 42.7-45.5 80.6-63.9 91.9"/>
   <path d="m448.1 261.1-147.3 170"/>
   <path d="m373.5 431.1c-36 2.8 90-47.4 90-47.4l20 47.9"/>
   <path d="m571.5 387.1c-20.6 19.5-56.9 50.7-83.8 77.6-25.9 26.2-49.1 51.4-45.7 63.4 1.8 6.4 22.5 22.8 62-40.9l83.3-151.7-103.8 95.9"/>
   <path d="m571.5 387.1 56.6-51.8 24 48"/>
   <path d="m652.2 382.9c16.7-9.4 41.1-30.5 63.8-31.4 22.8-.9 13.8 57.3 50.2 14"/>
  </g>
 </g>
</svg>
