<svg height="210mm" viewBox="0 0 1052.4 744.1" width="297mm" xmlns="http://www.w3.org/2000/svg">
 <g fill="none" stroke-linecap="round">
  <g transform="translate(0 -308.26772)">
   <path d="m57.6 742.2h948.8" stroke="#969696" stroke-width="1.875"/>
   <g stroke="#000" stroke-dasharray="3.75 7.5" stroke-miterlimit="2" stroke-width=".9375">
    <path d="m58.3 844.1h948.8"/>
    <path d="m58.3 641.8h948.8"/>
    <path d="m58.3 540.6h948.8"/>
   </g>
  </g>
  <g stroke="#000">
   <path d="m753.3 185-102.4 197" stroke-width="5.625"/>
   <g stroke-linejoin="round">
    <path d="m368.5 336.1-43.2 78.1-3.3 9.2" stroke-width="6.562499"/>
    <path d="m363.7 336.1-44.6 81.7" stroke-width="6.562499"/>
    <g stroke-width="5.625">
     <path d="m368.5 335.6h-9.3"/>
     <path d="m272.9 431.1 86.3-95.5-39 72.3c-8.4 15.5 5 26.1 21.5 22.2 10.1-2.1 46.3-23.3 76-41.9"/>
    </g>
   </g>
   <path d="m329.1 410.3c-4.3 7.3-5.9 18.8 4 19.7" stroke-width="3.749999"/>
   <g stroke-width="5.625">
    <path d="m417.6 388.2-74.3 145"/>
    <path d="m489.1 361.4c20-22.2 32.9-27.8 40.2-24.6 8.7 3.9 9 20.7 3 36.8-23.7 52.4-42.4 79.5-69.3 116.4-30.3 42.6-45.9 45.3-52.8 41.2-10.2-7.2 5.6-28.9 14.9-40.8 38.5-46.7 89.8-86.5 138-125.5 27.7-21.7 41.5-30.4 66.6-29 17.8 1 28 18.5 21.3 46.1" stroke-linejoin="round"/>
   </g>
  </g>
 </g>
</svg>
