<svg height="210mm" viewBox="0 0 1052.4 744.1" width="297mm" xmlns="http://www.w3.org/2000/svg">
 <g fill="none" stroke-linecap="round">
  <g transform="translate(0 -308.26772)">
   <path d="m57.6 742.2h948.8" stroke="#969696" stroke-width="1.875"/>
   <g stroke="#000" stroke-dasharray="3.75 7.5" stroke-miterlimit="2" stroke-width=".9375">
    <path d="m58.3 844.1h948.8"/>
    <path d="m58.3 641.8h948.8"/>
    <path d="m58.3 540.6h948.8"/>
   </g>
  </g>
  <g stroke="#000">
   <g stroke-linejoin="round" stroke-width="5.625">
    <path d="m349.3 431.5c35-73.3 92.9-96.8 132.2-95.2 37.4 1.5 65.7 38.1 55.9 95.5"/>
    <path d="m585.4 366.6c15.2-17.3 27.8-25.1 37.8-28 19.1-5.5 37.7 4.1 16.9 29.7-27.4 33.8-125.1 147.6-101.9 163.9 20.7 14.5 69.2-71.5 74.6-80.8 3.3-5.7 12.9-28 6.1-39.4-5.1-8.6-11.4-9.2-18.2-8.2-10.5 1.6-19.9 9.6-21.5 16.2-2.7 11.9 5.8 14.6 17.3 12.4 17.7-3.2 27.2-8.6 42.8-22.7"/>
    <path d="m537.3 431.7s30.4-44.9 48-65.1"/>
    <path d="m618.5 340.2c20.9-8.3 36.9 2.6 16.2 28.1-27.4 33.8-125.1 147.6-101.9 163.9 4.6 3.3 14.3 2.5 20.9-2.4"/>
    <path d="m624 338.4c19.1-5.5 41 4.3 20.3 29.8-27.4 33.8-129.4 156.8-101.9 163.9 6.1 1.6 10.8-1.2 14.6-4.6"/>
   </g>
   <path d="m745.2 235.2s-60.7 132.5-105.8 174.4" stroke-width="5.624999"/>
  </g>
 </g>
</svg>
