<svg height="210mm" viewBox="0 0 1052.4 744.1" width="297mm" xmlns="http://www.w3.org/2000/svg">
 <g fill="none" stroke-linecap="round">
  <g transform="translate(0 -308.26772)">
   <path d="m57.6 742.2h948.8" stroke="#969696" stroke-width="1.875"/>
   <g stroke="#000" stroke-dasharray="3.75 7.5" stroke-miterlimit="2" stroke-width=".9375">
    <path d="m58.3 844.1h948.8"/>
    <path d="m58.3 641.8h948.8"/>
    <path d="m58.3 540.6h948.8"/>
   </g>
  </g>
  <g stroke="#000">
   <g stroke-linejoin="round">
    <path d="m635 287-46.6 95.4" stroke-width="5.624999"/>
    <path d="m524 431.3 111-144.3" stroke-width="5.624999"/>
    <path d="m588.5 382.4c27.5-31.1 86.6-99.4 97.9-112.1 24.4-27.2 38.2-36.4 48.9-36.2 12.4.2 12.3 17.3 5.9 36-14.7 43-41.1 81.5-68 118.4-30.2 41-50.1 47.2-57.1 40.9-13.5-11.4 4.2-35.9 29.2-55.1 13.2-11.3 45.9-34.3 65.4-41.7" stroke-width="5.625001"/>
   </g>
   <path d="m333 516.5c-7.5 9.5-16.2 17.2-27.5 16.9-14.6-.7-19.8-14.7-12.1-29.7 3.2-6.1 22.6-42.9 35.6-65.4 49.7-86.2 99.8-104 139.1-102.4 37.4 1.5 65.7 38.1 55.9 95.5" stroke-width="5.625"/>
  </g>
 </g>
</svg>
