<svg height="210mm" viewBox="0 0 1052.4 744.1" width="297mm" xmlns="http://www.w3.org/2000/svg">
 <g fill="none" stroke-linecap="round">
  <g stroke="#969696" transform="translate(0 -308.26772)">
   <path d="m57.6 742.2h948.8" stroke-width="1.875"/>
   <g stroke-dasharray="3.75 7.5" stroke-miterlimit="2" stroke-width=".9375">
    <path d="m58.3 844.1h948.8"/>
    <path d="m58.3 641.8h948.8"/>
    <path d="m58.3 540.6h948.8"/>
   </g>
  </g>
  <g stroke="#000" stroke-linejoin="round">
   <path d="m427.2 354.8c7.9-7.4 17.1-17.5 31.2-19.2 3.2-.4 6.2-.1 8.8.9 2.7.9 4.9 2.5 6.4 4.6 3.6 5.1 3 13.2-5 22.8-6 7.3-11.8 13.6-17 19.3-5.3 5.7-11.2 12.1-17.3 19.5-8 9.7-8.6 17.8-5 22.8 1.5 2.1 3.7 3.7 6.4 4.6 2.6.9 5.6 1 8.8.9 19.4-.7 27.5-7.1 80.1-47.3" stroke-width="5.624999"/>
   <path d="m524.6 383.6-45.5 94.9" stroke-width="5.625"/>
   <path d="m479.1 478.5s67.2-84.5 84.7-105c25.1-29.4 36.1-39.9 50.5-36.9 18 4.7 11.2 23.1 3.2 41.3-9.7 21.4-23.7 53.4-23.7 53.4" stroke-width="5.625"/>
   <path d="m593.8 431.3 88.8-44.2 21.3 44.2" stroke-width="5.624999"/>
  </g>
 </g>
</svg>
