<svg height="210mm" viewBox="0 0 1052.4 744.1" width="297mm" xmlns="http://www.w3.org/2000/svg">
 <g fill="none" stroke-linecap="round">
  <g transform="translate(0 -308.26772)">
   <path d="m57.6 742.2h948.8" stroke="#969696" stroke-width="1.875"/>
   <g stroke="#000" stroke-dasharray="3.75 7.5" stroke-miterlimit="2" stroke-width=".9375">
    <path d="m58.3 844.1h948.8"/>
    <path d="m58.3 641.8h948.8"/>
    <path d="m58.3 540.6h948.8"/>
   </g>
  </g>
  <g stroke="#000" stroke-linejoin="round">
   <path d="m381.7 335.6s-31.8 62-36.8 73.1c-5.9 13 .3 22 12.2 22.9 22.4 1.6 54.7-8 73.6-13.5 32.9-9.5 68-19.1 94.7-25.3 8.9-2.1 19-4.6 27-5.4 8.5-.9 14.8-1.3 21.9.5 19.9 5.3 25.8 32.1 25.7 44.1" stroke-width="5.625"/>
   <path d="m694.7 235.9-94.6 196" stroke-width="5.624999"/>
  </g>
 </g>
</svg>
