<svg height="210mm" viewBox="0 0 1052.4 744.1" width="297mm" xmlns="http://www.w3.org/2000/svg">
 <g fill="none" stroke-linecap="round">
  <g transform="translate(0 -308.26772)">
   <path d="m57.6 742.2h948.8" stroke="#969696" stroke-width="1.875"/>
   <g stroke="#000" stroke-dasharray="3.75 7.5" stroke-miterlimit="2" stroke-width=".9375">
    <path d="m58.3 844.1h948.8"/>
    <path d="m58.3 641.8h948.8"/>
    <path d="m58.3 540.6h948.8"/>
   </g>
  </g>
  <g stroke-linejoin="round" stroke-width="5.625">
   <path d="m436.4 337.5c16.6-3.1 29.5 5.2 13.5 25.1-27.4 33.8-44.3 49.8-38.3 63.4 5.4 12.3 32 2.7 46.5-12.2 1-1 21.1-29.1-1.7-34.2-22.7-5.1-48.7 6.5-50.6 20.9-1.5 11.4 8.6 15.3 21.6 15.1 4.2-.1 216.8-29.5 216.8-29.5" stroke="#010000"/>
   <g stroke="#000">
    <path d="m109.3 431.2c34-57.2 110-56.3 94.7 0 0 0 214.5-91.3 232.4-93.7"/>
    <ellipse cx="257.02179" cy="715.58228" rx="25.728558" ry="20.371416" transform="matrix(.79083574 -.61202846 .61202846 .79083574 0 0)"/>
    <path d="m967.8 282c-41.9 53.3-176.2 74.7-175.1-.3l-94.3 95.7"/>
    <path d="m628.9 392.2 121.1-110.4-51.5 95.6"/>
   </g>
  </g>
 </g>
</svg>
