<svg height="210mm" viewBox="0 0 1052.4 744.1" width="297mm" xmlns="http://www.w3.org/2000/svg">
 <g fill="none" stroke-linecap="round">
  <g transform="translate(0 -308.26772)">
   <path d="m57.6 742.2h948.8" stroke="#969696" stroke-width="1.875"/>
   <g stroke="#000" stroke-dasharray="3.75 7.5" stroke-miterlimit="2" stroke-width=".9375">
    <path d="m58.3 844.1h948.8"/>
    <path d="m58.3 641.8h948.8"/>
    <path d="m58.3 540.6h948.8"/>
   </g>
  </g>
  <g stroke="#000" stroke-linejoin="round">
   <path d="m405 431.4 60.6-.1" stroke-width="5.624999"/>
   <ellipse cx="628.75903" cy="-14.41092" rx="5.271423" ry="7.848564" stroke-width="14.034714" transform="matrix(.72846687 .68508103 -.68508103 .72846687 0 0)"/>
   <path d="m597.5 419.9c-7.6 6.2-17.1 11.1-24.5 11.3-7.3.8-13.7-1.8-16.3-7.4-7.2-15.5 13.3-29.1 37.7-58.6 8.2-9.9 8.8-18.2 5.1-23.4-1.5-2.2-3.8-3.8-6.6-4.7-2.6-.9-5.7-1.2-9-.9-18.5 1.2-34 22-50 40.3-32.4 36.9-49.1 57.3-68.3 54.8" stroke-width="5.624999"/>
  </g>
 </g>
</svg>
