<svg height="210mm" viewBox="0 0 1052.4 744.1" width="297mm" xmlns="http://www.w3.org/2000/svg">
 <g fill="none" stroke-linecap="round">
  <g transform="translate(0 -308.26772)">
   <path d="m57.6 742.2h948.8" stroke="#969696" stroke-width="1.875"/>
   <g stroke="#000" stroke-dasharray="3.75 7.5" stroke-miterlimit="2" stroke-width=".9375">
    <path d="m58.3 844.1h948.8"/>
    <path d="m58.3 641.8h948.8"/>
    <path d="m58.3 540.6h948.8"/>
   </g>
  </g>
  <g stroke-linejoin="round" stroke-width="5.625">
   <g stroke="#000">
    <path d="m264.8 431.2c22.5-8.9 52.2-48.9 60.4-86.1s38.8-97.2 73.8-110.6"/>
    <path d="m264.8 431.2s170.4-42.2 194.2-46.8c7.9-1.5 13.4-2.2 15.9-2.3 3.2-.1 6.1 0 8.8.5 16.7 3.1 23.9 18.8 16.5 48.8"/>
    <path d="m500.1 431.4 120.6-95.7"/>
   </g>
   <path d="m665 380.1c34.3-6.5 72.6-52.7 80.7-89.9 8.2-37.2 38.8-98.1 73.8-111.6" stroke="#060000"/>
   <path d="m631.2 335.7-54.4 96.1" stroke="#00000c"/>
   <path d="m631.2 335.7h-10.6" stroke="#00000a"/>
   <path d="m625.7 335.7-54.4 96.1" stroke="#00000c"/>
   <path d="m576.8 431.7h-10.6" stroke="#00000c"/>
   <path d="m620.7 335.7-54.4 96.1 11-.1" stroke="#000"/>
   <path d="m789.5 201.4-212.3 230.2" stroke="#000"/>
  </g>
 </g>
</svg>
