<svg height="210mm" viewBox="0 0 1052.4 744.1" width="297mm" xmlns="http://www.w3.org/2000/svg">
 <g fill="none" stroke-linecap="round">
  <g transform="translate(0 -308.26772)">
   <path d="m57.6 742.2h948.8" stroke="#969696" stroke-width="1.875"/>
   <g stroke="#000" stroke-dasharray="3.75 7.5" stroke-miterlimit="2" stroke-width=".9375">
    <path d="m58.3 844.1h948.8"/>
    <path d="m58.3 641.8h948.8"/>
    <path d="m58.3 540.6h948.8"/>
   </g>
  </g>
  <g stroke="#000" stroke-width="5.625">
   <g stroke-linejoin="round">
    <path d="m644.5 436.4 21.4 49.5"/>
    <path d="m481.8 388.4c48.3-6.8 127.8-12.2 162.2-42.5 23.5-20.7 45.9-51 42.3-60.6-5.5-14.4-40.2 8.9-87.4 86.8-50.2 86.7-46.5 120.2-24.4 113 29.1-8.9 41.6-23.6 70-48.6"/>
    <path d="m396.3 335.2c54.3-11 95.5-79.5 89.2-96.2-5.5-14.4-40.2 8.9-87.4 86.8-50.2 86.7-47.6 106.1-24.4 105.5 2.1-.1 4.7-.3 7.7-.8"/>
    <ellipse cx="207.43948" cy="607.66663" rx="62.130169" ry="44.633743" transform="matrix(.88109295 -.47294313 .47294313 .88109295 0 0)"/>
   </g>
   <path d="m449.7 397.8s-62.2 32.6-68.4 32.6"/>
   <path d="m402.6 408.8c1 .1 1.8.3 2.5.7.2.1.4.2.6.4 1.2.9 1.7 2.6 1 5.2-1.3 5.1-7.1 8-9.8 9-5.7 2-9.8-2.6-6.6-7.6 2-3.1 5.5-6.6 9.7-7.5.3-.1.6-.1.9-.1s.7-.1 1-.1c.8 0 1.6.1 2.4.3" stroke-linejoin="round"/>
  </g>
 </g>
</svg>
