<svg height="210mm" viewBox="0 0 1133.9 744.1" width="320mm" xmlns="http://www.w3.org/2000/svg">
 <g fill="none" stroke-linecap="round">
  <g transform="translate(0 -308.26772)">
   <path d="m40.7 742.2h1038.8" stroke="#969696" stroke-width="1.875"/>
   <g stroke="#000" stroke-dasharray="3.75 7.5" stroke-miterlimit="2" stroke-width=".9375">
    <path d="m41.4 844.1h1038.9"/>
    <path d="m41.4 641.8h1038.9"/>
    <path d="m41.4 540.6h1038.9"/>
   </g>
  </g>
  <path d="m82.3 431.2c34.1-29.1 89.6-41.9 137.2-44.1 55.9-2.6 103.5 11.7 96.4 43.9" stroke="#0a0001" stroke-linejoin="round" stroke-width="5.625"/>
  <g stroke="#000">
   <path d="m384.9 431c-34.3 14.6-89.7 94.4-68.9 101.6 11.2 2.5 33.1-7.6 54.5-66.3 15.7-47.2 16.4-112.8 70.4-130.9" stroke-linejoin="round" stroke-width="5.625"/>
   <path d="m315.9 431s99-82.5 110.3-88.9" stroke-width="5.625"/>
   <g stroke-linejoin="round">
    <g stroke-width="5.625">
     <path d="m457.4 403.9c13.8-3.6 17.1-.5 28.2 16.2 7 10.6 11.3 11 17.7 11"/>
     <path d="m475 404.4c6.7 5.9 2.5 0 17.3 22.6"/>
     <path d="m384.9 431s72.7-32.4 90-29.2c13.5 2.5 14.2 29.8 30.2 29.4"/>
     <path d="m603.5 335.7c-57.7 67-76.2 95-98.5 95.5"/>
    </g>
    <path d="m560.7 431.1s41.1-58 50.2-70.7c7.8-10.8 17.9-24.1 31.8-24.6" stroke-width="5.625001"/>
    <path d="m603.5 335.7-42.8 95.4" stroke-width="5.624999"/>
    <path d="m642.8 335.7c13.5-.3 17.5 12.1 26.6 20.4 7.9 6.9 19 4.2 27.5 3.5 49.4-10.6 302.8-157.1 356.3-179.3" stroke-width="5.625001"/>
    <g stroke-width="5.625">
     <path d="m1019.6 375.3c-24.3 5.2-54 5.7-72.9-13.8-32.8-34.9 53.3-159 106.4-181.2"/>
     <ellipse cx="996.93298" cy="-430.80029" rx="4.609393" ry="6.862875" transform="matrix(.72846687 .68508103 -.68508103 .72846687 0 0)"/>
    </g>
   </g>
  </g>
 </g>
</svg>
