<svg height="210mm" viewBox="0 0 1052.4 744.1" width="297mm" xmlns="http://www.w3.org/2000/svg">
 <g fill="none" stroke-linecap="round">
  <g stroke="#969696" transform="translate(0 -308.26772)">
   <path d="m57.6 742.2h948.8" stroke-width="1.875"/>
   <g stroke-dasharray="3.75 7.5" stroke-miterlimit="2" stroke-width=".9375">
    <path d="m58.3 844.1h948.8"/>
    <path d="m58.3 641.8h948.8"/>
    <path d="m58.3 540.6h948.8"/>
   </g>
  </g>
  <g stroke="#000" stroke-linejoin="round">
   <path d="m569.4 402.3c18.9-1.9 20.5.9 31.1 18.5 5.6 9.3 9.9 11.1 22.8 11 15.7 0 51.8-26.4 76.9-42.9" stroke-width="5.625"/>
   <path d="m345.1 435.1c-22.9 5.5-106.1 66-97.4 92.3.9 3 16.3 22.9 59.8-38.1 26.9-36.9 54.6-73.4 69.3-116.4 7.7-23 5.5-36.8-7.5-36.3-8.1.3-20.4 7.4-36.9 24.8" stroke-width="5.624999"/>
   <g stroke-width="5.625">
    <path d="m345.1 435.1c8.3-2.6 24-4.7 69.5-11.9 71.5-11.4 171-22.7 171-22.7"/>
    <path d="m585.5 400.5c1.8-.2 3.5-.1 5 .1 11.8 2.2 15.4 21.4 24.8 28.5 1.6 1.2 3.9 3.3 10 2.6"/>
    <path d="m589 402.5c7.2 6.4 4.5.9 20.5 25.4"/>
   </g>
  </g>
 </g>
</svg>
