<svg height="210mm" viewBox="0 0 1052.4 744.1" width="297mm" xmlns="http://www.w3.org/2000/svg">
 <g fill="none" stroke-linecap="round">
  <g transform="translate(0 -308.26772)">
   <path d="m57.6 742.2h948.8" stroke="#969696" stroke-width="1.875"/>
   <g stroke="#000" stroke-dasharray="3.75 7.5" stroke-miterlimit="2" stroke-width=".9375">
    <path d="m58.3 844.1h948.8"/>
    <path d="m58.3 641.8h948.8"/>
    <path d="m58.3 540.6h948.8"/>
   </g>
  </g>
  <g stroke="#000">
   <path d="m448.6 431.1c-11.4 2 133.3-113.6 147.6-127.9 17.5-17.4 57.1-61.5 40.1-67.4-14.6-5.1-40.2 9-87.4 87.7-7.6 18.4-52.7 102.9-22.4 107.8 20 1.9 43.7-28.8 61.4-53.7 7-9.9 20.6-30.3 32-48.5 20.5-32.7 38.4-62.3 42.4-68.1 8.7-12.5 18.2-25.3 30.6-25.8 13.4-.6 16.2 26.6 31.3 26.1 4.8-.1 11.1-3.9 19.6-13.3" stroke-width="5.625"/>
   <g stroke-linejoin="round">
    <path d="m448.6 431.1c7.9-5.8 14.1-11.8 20.6-18.4 4.2-4.3 8.1-9 11.6-14 3.1-4.4 5.9-8.9 8.3-13.4 5.6-10.5 9.4-21 10.7-29.5.8-5.3.8-9.9-.3-13.3-1.2-3.7-3.5-6.1-7.2-6.5-3.5-.4-8.1.9-14.1 4.3-3.7 2.1-11.8 8.5-19 16.7-10.5 12.1-31.2 40.5-43.9 53.3-9.9 10.1-21.1 20.5-38.6 20.9-13.2.1-22.2-9.6-15-23l38.9-72.5-94.3 95.2" stroke-width="5.625"/>
    <g stroke-width="6.562499">
     <path d="m410.2 336.2-47.5 81.9"/>
     <path d="m405.5 336.1-38.7 70.9-3.8 16.5"/>
     <path d="m410.2 336.2h-9.3"/>
    </g>
   </g>
   <path d="m372 404.7c-6 9.6-9.9 25.1 3.6 25.5" stroke-width="3.749999"/>
  </g>
 </g>
</svg>
