<svg height="210mm" viewBox="0 0 1052.4 744.1" width="297mm" xmlns="http://www.w3.org/2000/svg">
 <g fill="none" stroke-linecap="round">
  <g transform="translate(0 -308.26772)">
   <path d="m57.6 742.2h948.8" stroke="#969696" stroke-width="1.875"/>
   <g stroke="#000" stroke-dasharray="3.75 7.5" stroke-miterlimit="2" stroke-width=".9375">
    <path d="m58.3 844.1h948.8"/>
    <path d="m58.3 641.8h948.8"/>
    <path d="m58.3 540.6h948.8"/>
   </g>
  </g>
  <g stroke="#000" stroke-linejoin="round">
   <g stroke-width="5.625">
    <path d="m363.8 431.1c36.5-27.8 85.3-41.1 113.1-43.6 29-2.7 38.4 3.4 29.4 43.1"/>
    <path d="m585.1 421.6c12.9-7.6 41.5-24.9 55.9-23.6 19.5 3.6 18.2 52.4 51.8 24.4"/>
    <path d="m620.3 403c6.1-2.7 21.1-3 30.1 16.6 6.4 13.9 15.8 10.7 23.3 11.2"/>
   </g>
   <path d="m636.8 400.4c7.6 6.7 7.2.5 24 26.2" stroke-width="6.380773"/>
   <g stroke-width="5.625">
    <path d="m585.1 421.6c-25.6 13.6-55.5 30.3-66.2 40.1-34.6 31.6-43.9 58.1-40.9 65.8 1.1 2.9 17.7 21.8 57.3-41.8l88-150.7"/>
    <path d="m623.3 334.9-117 95.7"/>
   </g>
  </g>
 </g>
</svg>
