<svg height="210mm" viewBox="0 0 1052.4 744.1" width="297mm" xmlns="http://www.w3.org/2000/svg">
 <g fill="none" stroke-linecap="round">
  <g transform="translate(0 -308.26772)">
   <path d="m57.6 742.2h948.8" stroke="#969696" stroke-width="1.875"/>
   <g stroke="#000" stroke-dasharray="3.75 7.5" stroke-miterlimit="2" stroke-width=".9375">
    <path d="m58.3 844.1h948.8"/>
    <path d="m58.3 641.8h948.8"/>
    <path d="m58.3 540.6h948.8"/>
   </g>
  </g>
  <g stroke="#000">
   <g stroke-linejoin="round">
    <path d="m412.3 431.5c23.9-28.8 77.8-104.8 118.7-152.6 9.7-11.3 19.1-21.3 27.9-28.9 13.2-11.5 25-17.8 34.1-15.9 3 .1 5 1.7 6.1 4.6 10.7 27.9-65.8 174.3-122.4 192.5" stroke-width="5.625"/>
    <path d="m589.3 281.8c-11.5 21.5-39 69.9-54.2 94.8" stroke-width="8.4375"/>
    <path d="m478.4 429.6c17.6-7.4 30.5-22.8 43.2-39.5 5.5-7.3 12-16.7 20.5-29.8" stroke-width="3.75"/>
    <path d="m583.8 295.2-54.8 90.9" stroke-width="5.625"/>
    <path d="m597.5 236.8c5.1 7.4-2.4 28.2-11.3 46.7" stroke-width="4.6875"/>
   </g>
   <path d="m576.3 382.1s-92.5 33.6-102.6 45.1c-2.2 2.5-2.5 5.4 3 4" stroke-width="5.625"/>
   <g stroke-linejoin="round">
    <path d="m391.8 385.1 20.5 46.3" stroke-width="5.625"/>
    <path d="m541.5 431.8c27.3-21.9 56.2-46.1 84.7-45.5 26.2-.4 33.6 31.6 33.6 45" stroke-width="5.624999"/>
    <path d="m651.6 403.9c1.2 7.1 5.2 21.5 4 26" stroke-width="5.625"/>
    <path d="m623.3 387.3c13-.1 22.2 8.8 25.1 17 3.4 9.6 4.7 20.4 4.2 26.9" stroke-width="4.6875"/>
   </g>
   <path d="m653.1 431.2 6.7.1" stroke-width="5.625"/>
   <g stroke-linejoin="round">
    <path d="m600.6 392.6c6.8-3.1 15.6-4.5 19.7-4.8 6.4-.5 11.7.6 16.7 3.6" stroke-width="3.749999"/>
    <path d="m754.3 235.2-94.5 196.1" stroke-width="5.624999"/>
   </g>
  </g>
 </g>
</svg>
