<svg height="210mm" viewBox="0 0 1052.4 744.1" width="297mm" xmlns="http://www.w3.org/2000/svg">
 <g fill="none" stroke-linecap="round">
  <g transform="translate(0 -308.26772)">
   <path d="m57.6 742.2h948.8" stroke="#969696" stroke-width="1.875"/>
   <g stroke="#000" stroke-dasharray="3.75 7.5" stroke-miterlimit="2" stroke-width=".9375">
    <path d="m58.3 844.1h948.8"/>
    <path d="m58.3 641.8h948.8"/>
    <path d="m58.3 540.6h948.8"/>
   </g>
  </g>
  <g stroke-linejoin="round" stroke-width="5.625">
   <path d="m362.1 436.2c-33.4 19.3-77.7 77-69.1 93 4.9 9.2 28.4 7.7 48.3-24.3 8.5-13.7 17.7-31 19.9-61.8 5-69.6 41.1-122.1 68-104.4 11.2 7.4-22.9 49.1-54.2 46.7" stroke="#000"/>
   <path d="m362.1 436.2 335.2-216.6" stroke="#000001"/>
   <g stroke="#000">
    <path d="m697.3 219.6c27.2-19.1 51.8-32 59.1-33.2 38.5-6.3-54.7 173.3-109.4 197.1"/>
    <path d="m647 383.4c-40.3 5.2 116-47.6 116-47.6"/>
    <path d="m763 335.8 20.3 46.1"/>
   </g>
  </g>
 </g>
</svg>
