<svg height="210mm" viewBox="0 0 1169.3 744.1" width="330mm" xmlns="http://www.w3.org/2000/svg">
 <g fill="none" stroke-linecap="round">
  <g stroke="#969696" transform="translate(0 -308.26772)">
   <path d="m33.2 742.2h1091.3" stroke-width="1.875"/>
   <g stroke-dasharray="3.75 7.5" stroke-miterlimit="2" stroke-width=".9375">
    <path d="m33.9 844.1h1091.4"/>
    <path d="m33.9 641.8h1091.4"/>
    <path d="m33.9 540.6h1091.4"/>
   </g>
  </g>
  <g stroke="#000">
   <g stroke-linejoin="round">
    <path d="m750 248.1c-31.4 26.8-114.9 136.2-114.9 136.2" stroke-width="5.625"/>
    <path d="m345.3 336.3s-27.8 58.9-33.5 73.4c-5.8 14.7 2.2 21.7 14.1 21.4 8.3 0 16.2-3 24.6-8.6 20.8-13.8 49.2-57.4 69.6-86.2" stroke-width="5.625"/>
    <g stroke-width="5.624999">
     <path d="m420.1 336.4 33.3 47.9"/>
     <path d="m420.1 336.4 24 48"/>
     <path d="m429.6 336.4 23.8 47.9"/>
     <path d="m425.7 336.2 24 48"/>
    </g>
   </g>
   <path d="m420.5 335.3h9" stroke-width="3.75"/>
   <path d="m443.9 385.2h9" stroke-width="3.75"/>
   <g stroke-linejoin="round" stroke-width="5.625">
    <path d="m453.4 384.2c18.5-28 37.9-59.5 58.5-81.9 7.6-8.1 18.5-16.3 28.7-17.3 3-.3 5.9 0 8.6 1.1 4.5 1.9 6.4 7.1 6.2 11.3-.3 6.8-3.8 16.8-10.6 30.8l-27.5 56.4"/>
    <path d="m517.2 384.7 95-48.4 22.9 48.1"/>
    <path d="m143 361.8c20-22.2 32.9-27.8 40.2-24.6 8.7 3.9 9.2 20.7 3 36.8-16.7 43.2-36.8 79.5-63.7 116.4-30.3 42.6-51.5 45.3-58.4 41.2-10.2-7.2 5.6-28.9 14.9-40.8 30.4-36.8 68.7-63.8 107.2-95.1 10.3-8.4 42.8-41.6 47.2-48.5"/>
    <ellipse cx="403.22281" cy="90.761681" rx="4.609393" ry="6.862874" transform="matrix(.72846687 .68508103 -.68508103 .72846687 0 0)"/>
    <path d="m230.2 348.9c6 5.5 62.9-13 83.8-25.7 19.4-11.8 24.1-25.7 22-32-3.2-9.6-26.7-7-51.4 33.8-26.7 43.6-21.9 56-10.9 56.6 18.2 1 49.2-26 71.7-45.3"/>
    <path d="m980.7 381.8c27.3-8.4 63.9-52.6 90.3-97.3 22.4-39.6 35.8-75.2 28.6-90.5-2.4-5-7-7.9-14.2-8-2.7 0-5.8.2-9.3 1.1-4.5 1.1-11.8 3.2-23.1 9.1-17.4 9-54.9 28.9-404.6 248.8-37.8 23.8-71.5 71.3-65.4 85.5 5.7 13.2 70.8-24.4 97.1-134.9 20.3-90.7 58-149.8 92.8-161.4"/>
   </g>
  </g>
 </g>
</svg>
