<svg height="210mm" viewBox="0 0 1052.4 744.1" width="297mm" xmlns="http://www.w3.org/2000/svg">
 <g fill="none" stroke-linecap="round">
  <g transform="translate(0 -308.26772)">
   <path d="m57.6 742.2h948.8" stroke="#969696" stroke-width="1.875"/>
   <g stroke="#000" stroke-dasharray="3.75 7.5" stroke-miterlimit="2" stroke-width=".9375">
    <path d="m58.3 844.1h948.8"/>
    <path d="m58.3 641.8h948.8"/>
    <path d="m58.3 540.6h948.8"/>
   </g>
  </g>
  <g stroke-linejoin="round" stroke-width="5.625">
   <path d="m289 357.5s6.1-11 14.3-15.4c23.4-14.2 53.3-8.3 31.7 18.5-27.4 33.8-45.5 50.2-39.4 63.9 4.2 9.5 18.7 7.2 35.5 3.4l32.2-7.4" stroke="#000"/>
   <path d="m363.3 420.4c44.9-10.8 116.2-27.8 127.3-27.7 14.1.2 17.1 39.4 35.8 39.2 34.1-.4 172.6-169.1 188.4-180.6" stroke="#000"/>
   <path d="m640.3 431.8s26.1-22.6 32.3-27.5c23.7-19.2 60.9-14.6 37.5 14.4-27.4 33.8-45.5 50.2-39.4 63.9 4.2 9.6 21.6 5 36.5-3.7l16.2-9.5" stroke="#040000"/>
   <path d="m640.3 431.8c-16.4 13.1-51.7 41.9-66.2 54.8-17.5 15.7-36 49.2-19 44.7 127.6-43.6 66.8-248.3 188.4-296.6" stroke="#000"/>
  </g>
 </g>
</svg>
