<svg height="210mm" viewBox="0 0 1052.4 744.1" width="297mm" xmlns="http://www.w3.org/2000/svg">
 <g fill="none" stroke-linecap="round">
  <g transform="translate(0 -308.26772)">
   <path d="m57.6 742.2h948.8" stroke="#969696" stroke-width="1.875"/>
   <g stroke="#000" stroke-dasharray="3.75 7.5" stroke-miterlimit="2" stroke-width=".9375">
    <path d="m58.3 844.1h948.8"/>
    <path d="m58.3 641.8h948.8"/>
    <path d="m58.3 540.6h948.8"/>
   </g>
  </g>
  <g stroke="#000" stroke-linejoin="round">
   <path d="m622.2 334.6c19.7-2.1 112-82.9 93.8-97-12.2-9.4-42.6 12.2-89.8 90.1-42.5 73.3-43.2 100.2-27.6 103.5 7.1 1.8 38-.9 63.6-4.3" stroke-width="5.625"/>
   <path d="m640.5 408.7c1.2.1 2.2.4 3.1.8.3.1.5.3.8.5 1.5 1.2 2 3.1 1.2 6.3-1.6 6.2-8.6 9.7-11.9 11-6.9 2.5-12-3.2-8-9.3 2.5-3.8 6.7-8 11.7-9.1.3-.1.7-.1 1-.2.4 0 .8-.1 1.3-.1 1 0 2 .1 3 .4" stroke-width="5.625"/>
   <path d="m638.1 414.2c.6.1 1.1.2 1.5.4.1.1.3.1.4.2.7.5 1 1.5.6 3-.8 2.9-4.1 4.6-5.6 5.2-3.3 1.2-5.7-1.5-3.8-4.4 1.2-1.8 3.2-3.8 5.6-4.3.2 0 .3-.1.5-.1h.6c.5 0 .9.1 1.4.2" stroke-width="10.3125"/>
   <path d="m670.5 413.8c.8.1 1.5.2 2 .5.2.1.4.2.5.3 1 .8 1.3 2.1.8 4.2-1.1 4.1-5.7 6.4-7.9 7.3-4.6 1.6-7.9-2.1-5.3-6.1 1.6-2.5 4.4-5.3 7.8-6 .2 0 .5-.1.7-.1h.8c.6 0 1.3.1 2 .3" stroke-width="5.625"/>
  </g>
 </g>
 <circle cx="499.21976" cy="360.5361" r="10.653955"/>
 <circle cx="483.83011" cy="409.55179" r="10.653955"/>
 <g fill="none" stroke="#000" stroke-linecap="round" stroke-linejoin="round">
  <path d="m326.5 333.7c19.7-2.1 112-82.9 93.8-97-12.2-9.4-42.6 12.2-89.8 90.1-42.5 73.3-43.2 100.2-27.6 103.5 7.1 1.8 38-.9 63.6-4.3" stroke-width="5.625"/>
  <path d="m374.6 406.8c1.2.1 2.2.4 3.1.8.3.1.5.3.8.5 1.5 1.2 2 3.1 1.2 6.3-1.6 6.2-8.6 9.7-11.9 11-6.9 2.5-12-3.2-8-9.3 2.5-3.8 6.7-8 11.7-9.1.3-.1.7-.1 1-.2.4 0 .8-.1 1.3-.1 1 0 2 .1 3 .4" stroke-width="5.625"/>
  <path d="m372.2 412.3c.6.1 1.1.2 1.5.4.1.1.3.1.4.2.7.5 1 1.5.6 3-.8 2.9-4.1 4.6-5.6 5.2-3.3 1.2-5.7-1.5-3.8-4.4 1.2-1.8 3.2-3.8 5.6-4.3.2 0 .3-.1.5-.1h.6c.5 0 .9.1 1.4.2" stroke-width="10.3125"/>
 </g>
</svg>
