<svg height="210mm" viewBox="0 0 1052.4 744.1" width="297mm" xmlns="http://www.w3.org/2000/svg">
 <g fill="none" stroke-linecap="round">
  <g transform="translate(0 -308.26772)">
   <path d="m57.6 742.2h948.8" stroke="#969696" stroke-width="1.875"/>
   <g stroke="#000" stroke-dasharray="3.75 7.5" stroke-miterlimit="2" stroke-width=".9375">
    <path d="m58.3 844.1h948.8"/>
    <path d="m58.3 641.8h948.8"/>
    <path d="m58.3 540.6h948.8"/>
   </g>
  </g>
  <g stroke="#000">
   <g stroke-linejoin="round" stroke-width="5.625">
    <path d="m546.3 335.8-54.6 96.3 56 2.7"/>
    <path d="m529.9 442.2s52.5-36.9 88-55.2c8.2-4.1 13.9-1.4 18.1 6.8 6.5 12.7 4 18.2 12.3 27.2 15.9 17.3 43.8-27.8 34.5-34.3-6.3-4.4-25.9 3.2-49.4 42-25.5 41.9-18.6 51-6.5 51.5 7.9.3 15.8-2.7 26.4-12.1"/>
    <ellipse cx="149.92145" cy="694.35931" rx="25.728558" ry="20.371416" transform="matrix(.79083574 -.61202846 .61202846 .79083574 0 0)"/>
   </g>
   <path d="m566 446.3c.3 9.3-.4 14.6-6.3 21.9-3.6 4.5-8.8 8.3-16 11.1" stroke-width="5.624961"/>
   <path d="m562.4 441.1c2 6.9 1.8 6.4.7 11.6-1.6 7.6-6.1 13.5-12.5 18.7-3.2 2.6-6.9 5-10.9 7.3" stroke-width="6.599955"/>
   <g stroke-width="2.849979">
    <path d="m545.3 473c-5.3 3.7-10.3 5.7-16.3 3.5"/>
    <path d="m551.6 436.4c7.4 1.6 9 4 10.4 10.8"/>
   </g>
  </g>
  <g stroke-linejoin="round">
   <path d="m465.7 235.6-62.7 107.4c-24.8 39-64.2 79.9-90.4 88.2-1.2.4-5.8-.3-6.6-5.4-.6-3.7 5.6-6.8 12.5-9.8" stroke="#000004" stroke-width="5.625"/>
   <path d="m318.5 416s22.3-9.5 38.8-15.4" stroke="#000" stroke-width="5.625"/>
   <g stroke="#00000c" stroke-width="5.751832">
    <path d="m357.3 400.7 62.8-17.3 34.9 47.8"/>
    <path d="m420.1 383.4 25.1 47.9"/>
    <path d="m430 383.4 25 47.8"/>
    <path d="m425.9 383.3 25.1 47.9"/>
   </g>
  </g>
  <path d="m422.4 382.4h7.4" stroke="#00000c" stroke-width="3.834554"/>
  <path d="m447 432.2h7.4" stroke="#00000c" stroke-width="3.834554"/>
  <path d="m455 431.2 91.4-95.4" stroke="#000" stroke-linejoin="round" stroke-width="5.625"/>
 </g>
</svg>
