<svg height="210mm" viewBox="0 0 1052.4 744.1" width="297mm" xmlns="http://www.w3.org/2000/svg">
 <g fill="none" stroke-linecap="round">
  <g transform="translate(0 -308.26772)">
   <path d="m57.6 742.2h948.8" stroke="#969696" stroke-width="1.875"/>
   <g stroke="#000" stroke-dasharray="3.75 7.5" stroke-miterlimit="2" stroke-width=".9375">
    <path d="m58.3 844.1h948.8"/>
    <path d="m58.3 641.8h948.8"/>
    <path d="m58.3 540.6h948.8"/>
   </g>
  </g>
  <g stroke="#000">
   <g stroke-linejoin="round">
    <g stroke-width="5.625">
     <path d="m426.5 421.8c8.1-6.9 18.1-16.9 29.6-30.8"/>
     <path d="m276.4 431c29.3-.3 76.5-38.2 96.7-34.5 20.2 3.8 18.7 54.1 53.5 25.2"/>
     <path d="m350.5 401.7c6.3-2.8 21.8-2.6 31.1 17.6 6.6 14.3 16.3 11.1 24 11.6"/>
    </g>
    <path d="m367.6 399.4c7.8 4.9 8.8 2 26.1 28.6" stroke-width="6.587558"/>
    <g stroke-width="5.625">
     <path d="m266.2 347.4c23.7-19.2 60.9-14.6 37.5 14.4-27.4 33.8-45.5 50.2-39.4 63.9 1.9 4.2 6.4 5.8 12.1 5.3"/>
     <path d="m613.3 409.5c14-11.2 32.2-26.1 32.2-26.1l33.3 47.9"/>
     <path d="m645.5 383.4 24 48"/>
     <path d="m655 383.4 23.8 47.9"/>
     <path d="m651.1 383.3 24 48"/>
    </g>
   </g>
   <path d="m645.9 382.4h9" stroke-width="3.75"/>
   <path d="m669.4 432.3h9" stroke-width="3.75"/>
   <g stroke-linejoin="round" stroke-width="5.625">
    <path d="m678.8 431.3c27-13.7 53.8-35.8 73.5-35.9 18.3-.1 17.4 34.7 33.8 36.4 5.5.6 12.6-2.5 22.3-11.7"/>
    <path d="m606 325.4c-69.6 120.2-36 123.1 7.3 84"/>
    <path d="m557.7 389.9c28.3-22 82.8-77 101.8-96.1 25.8-25.8 37-47.1 34-55.1-5.5-14.4-40.3 8.9-87.4 86.8"/>
    <path d="m557.7 389.9c-29.5 23.2-49.6 36.8-66.6 40.5-26.7 5.8-43.4-10.4-35-39.4"/>
   </g>
  </g>
 </g>
</svg>
