<svg height="210mm" viewBox="0 0 1052.4 744.1" width="297mm" xmlns="http://www.w3.org/2000/svg">
 <g fill="none" stroke-linecap="round">
  <g transform="translate(0 -308.26772)">
   <path d="m57.6 742.2h948.8" stroke="#969696" stroke-width="1.875"/>
   <g stroke="#000" stroke-dasharray="3.75 7.5" stroke-miterlimit="2" stroke-width=".9375">
    <path d="m58.3 844.1h948.8"/>
    <path d="m58.3 641.8h948.8"/>
    <path d="m58.3 540.6h948.8"/>
   </g>
  </g>
  <path d="m455.1 385.4 18.5 46.6s66.1-67.4 70.6-71.6c8.6-8.1 15.4-14.2 21.3-18 5.6-3.6 10.1-5.4 13.6-5.7 18-1.5 11 35.3-9.2 64-7.6 10.8-17.1 20.4-27.8 26.6-1.4.8-8.1 5.3-11 5-18.9-.9 79.7-48.2 79.7-48.2" stroke="#000" stroke-linejoin="round" stroke-width="5.625"/>
 </g>
</svg>
