<svg height="210mm" viewBox="0 0 1052.4 744.1" width="297mm" xmlns="http://www.w3.org/2000/svg">
 <g fill="none" stroke-linecap="round">
  <g transform="translate(0 -308.26772)">
   <path d="m57.6 742.2h948.8" stroke="#969696" stroke-width="1.875"/>
   <g stroke="#000" stroke-dasharray="3.75 7.5" stroke-miterlimit="2" stroke-width=".9375">
    <path d="m58.3 844.1h948.8"/>
    <path d="m58.3 641.8h948.8"/>
    <path d="m58.3 540.6h948.8"/>
   </g>
  </g>
  <g stroke="#000" stroke-linejoin="round" stroke-width="5.625">
   <path d="m389.8 431.2s266.7-101 277.5-109.6c58.7-46.3 141.4-122.5 114.4-131.8-14.6-5-42.6 12.2-89.8 90.1-60.3 104.2-34.2 117.8-.3 97"/>
   <path d="m691.7 377c19.1-14.7 49.5-39 73.6-40.1 24-.8 32.4 41.1 48.8 40.7 10.8-.3 18.5-10 25.1-17.1"/>
   <path d="m290.9 430.9c62.4-68.1 112.7-56.3 98.9.3"/>
  </g>
 </g>
</svg>
