<svg height="210mm" viewBox="0 0 1052.4 744.1" width="297mm" xmlns="http://www.w3.org/2000/svg">
 <g fill="none" stroke-linecap="round">
  <g transform="translate(0 -308.26772)">
   <path d="m57.6 742.2h948.8" stroke="#969696" stroke-width="1.875"/>
   <g stroke="#000" stroke-dasharray="3.75 7.5" stroke-miterlimit="2" stroke-width=".9375">
    <path d="m58.3 844.1h948.8"/>
    <path d="m58.3 641.8h948.8"/>
    <path d="m58.3 540.6h948.8"/>
   </g>
  </g>
  <g stroke-width="5.625">
   <g stroke="#000001" stroke-linejoin="round">
    <path d="m423.2 347.5c23.7-19.2 60.9-14.6 37.5 14.4-27.4 33.8-45.5 50.2-39.4 63.9 4.2 9.5 21.8 5.3 36.5-3.7l19.7-12"/>
    <path d="m473.8 412.6s33.9-24.9 43.6-17.4c6.1 4.7 8.9 37.6 21.2 36.1 8.8-1.1 10.4-1.4 17.1-5.6 4.4-2.8 14.8-12.6 14.8-12.6"/>
    <path d="m505.7 395.1c11.6-4.7 11.4 6.3 12.9 22.9 1 10.8 7.8 13.7 20.1 13.3"/>
    <path d="m505.7 395.1c5.4-2.4 19-3.6 22.7 15 2.6 13.3 4.7 19.7 13.9 20.5"/>
    <path d="m517.7 397.8c6.8 12.3 1 30.9 15.5 31.8"/>
   </g>
   <path d="m672.3 234.6s-91.4 168.8-101.8 178.5" stroke="#000"/>
  </g>
 </g>
</svg>
