<svg height="210mm" viewBox="0 0 1052.4 744.1" width="297mm" xmlns="http://www.w3.org/2000/svg">
 <g fill="none" stroke-linecap="round">
  <g transform="translate(0 -308.26772)">
   <path d="m57.6 742.2h948.8" stroke="#969696" stroke-width="1.875"/>
   <g stroke="#000" stroke-dasharray="3.75 7.5" stroke-miterlimit="2" stroke-width=".9375">
    <path d="m58.3 844.1h948.8"/>
    <path d="m58.3 641.8h948.8"/>
    <path d="m58.3 540.6h948.8"/>
   </g>
  </g>
  <g stroke="#000" stroke-width="5.625">
   <path d="m528.2 387.3 20.9 43.8" stroke-linejoin="round"/>
   <path d="m549.1 431.1c350.3-219 361.3-226.3 378.7-235.3 11.2-5.9 18.6-8 23.1-9.1 3.5-.8 6.6-1.1 9.3-1.1 7.2.1 11.8 3 14.2 8 7.2 15.3-6.2 50.9-28.6 90.5-26.3 44.8-62.9 88.9-90.3 97.3" stroke-linejoin="round"/>
   <path d="m325.7 475h-32.7"/>
   <g stroke-linejoin="round">
    <path d="m124.5 384.9c40.9 3.1 61.2-36.7 57.9-45.3-2.8-7.4-30-4.4-54.3 35.8-46.7 76.4-2.2 60 29.4 33.5"/>
    <path d="m390.5 333.7c-23.7 14.8-121.4 76.3-88.2 96.5 7.4 3.4 21.8-2.1 50.5-42.3 26.9-36.9 54.6-73.4 69.3-116.4 7.9-20 5.5-36.8-7.5-36.3-8.1.3-20.4 7.4-36.9 24.8"/>
    <path d="m469.1 288.8-78.6 44.9"/>
   </g>
  </g>
 </g>
</svg>
