<svg height="210mm" viewBox="0 0 1052.4 744.1" width="297mm" xmlns="http://www.w3.org/2000/svg">
 <g fill="none" stroke-linecap="round">
  <g transform="translate(0 -308.26772)">
   <path d="m57.6 742.2h948.8" stroke="#969696" stroke-width="1.875"/>
   <g stroke="#000" stroke-dasharray="3.75 7.5" stroke-miterlimit="2" stroke-width=".9375">
    <path d="m58.3 844.1h948.8"/>
    <path d="m58.3 641.8h948.8"/>
    <path d="m58.3 540.6h948.8"/>
   </g>
  </g>
  <g stroke="#000" stroke-linejoin="round">
   <g stroke-width="5.625">
    <path d="m419.9 432.6s40.9-57 58.6-76.5c7.3-8.1 17.3-17.7 31.6-19.5 3.3-.4 6.3 0 8.9.9 2.7 1 5 2.5 6.5 4.7 3.6 5.1 3.1 13.3-5 23.2-24.1 29.1-44.8 43.3-37.6 58.6 2.6 5.5 8.9 8.1 16.1 7.3"/>
    <path d="m552.9 389.5c25.6-32.1 39.1-48.1 60.1-48.2 24.3 0 23 33.5 46.4 33.6"/>
    <path d="m659.5 374.9c24.8 0 51-22.3 64.7-37.5"/>
    <path d="m499.1 431.2c22.6-.9 35.9-20.4 53.9-41.8"/>
    <path d="m303.6 432.1 95-43.7"/>
    <path d="m398.6 388.4 21.3 44.2"/>
   </g>
   <path d="m350.2 336.7-46.6 95.4" stroke-width="5.624999"/>
  </g>
 </g>
</svg>
