<svg height="210mm" viewBox="0 0 1052.4 744.1" width="297mm" xmlns="http://www.w3.org/2000/svg">
 <g fill="none" stroke-linecap="round">
  <g transform="translate(0 -308.26772)">
   <path d="m57.6 742.2h948.8" stroke="#969696" stroke-width="1.875"/>
   <g stroke="#000" stroke-dasharray="3.75 7.5" stroke-miterlimit="2" stroke-width=".9375">
    <path d="m58.3 844.1h948.8"/>
    <path d="m58.3 641.8h948.8"/>
    <path d="m58.3 540.6h948.8"/>
   </g>
  </g>
  <path d="m383.7 431.6 54.8-75.5" stroke="#000" stroke-linejoin="round" stroke-width="5.625"/>
  <path d="m361.1 383.1 22.6 48.5" stroke="#060000" stroke-linejoin="round" stroke-width="5.625"/>
  <g stroke="#000">
   <path d="m448 341.9c11.6-4.9 22.7-7.6 29.9-4.4.7.3 3 1.2 4.2 2.8 3.6 2.8 4.3 7.5 2.9 15.3-2.7 14.7-19.7 23.3-29 26.7-16.7 6-29.1-7.7-19.5-22.5 11.4-17.9 20.7-31.8 33.6-48.9 9.8-16.9 84-124.9 84-124.9" stroke-linejoin="round" stroke-width="5.625"/>
   <path d="m479.2 339.6c6.5 21.8-5.2 32.1-22 41.8" stroke-width="6.491323"/>
   <g stroke-width="2.80307">
    <path d="m462.7 376.2c-5.1 4.1-17.5 7.4-22 4.2"/>
    <path d="m467.6 337.7c8.4-.7 11.6 4.6 11.5 11"/>
   </g>
  </g>
  <g stroke-linejoin="round" stroke-width="5.625">
   <path d="m580.6 428.7c-26.1 8-52.9 21.4-74.4 39.3-25.9 26.2-39.9 52.6-36.9 60.3 1.1 2.9 17.7 21.8 57.3-41.8l88-150.7" stroke="#060000"/>
   <path d="m580.6 428.7 157.4-37.3c2.4-1-2.2.4 0 0 15.8-3 25.2 9.3 5.2 42.7l-31.2 52.3" stroke="#000"/>
  </g>
 </g>
</svg>
