<svg height="210mm" viewBox="0 0 1052.4 744.1" width="297mm" xmlns="http://www.w3.org/2000/svg">
 <g fill="none" stroke-linecap="round">
  <g transform="translate(0 -308.26772)">
   <path d="m57.6 742.2h948.8" stroke="#969696" stroke-width="1.875"/>
   <g stroke="#000" stroke-dasharray="3.75 7.5" stroke-miterlimit="2" stroke-width=".9375">
    <path d="m58.3 844.1h948.8"/>
    <path d="m58.3 641.8h948.8"/>
    <path d="m58.3 540.6h948.8"/>
   </g>
  </g>
  <g stroke="#000">
   <g stroke-linejoin="round" stroke-width="5.625">
    <path d="m535.2 404.7c4.7-1.9 9.6-3 14.4-3.2 17.8.1 21.2 29.6 42.8 29.9 31.1 2.2 67.3-93.4 109.1-95 15-1.1 24.6 7.4 9.7 25.8-27.4 33.8-45.5 50.2-39.4 63.9 2 4.4 7.7 5.1 13.8 4.5"/>
    <path d="m685.6 430.7c36.8-6.9 93.7-83.6 103.2-94.2"/>
    <path d="m347.1 402.4c55.3-1 70.9 28.4 110 28.5 29.3.1 62.5-20 78.2-26.2"/>
    <path d="m240.6 430.7s57.9-26.9 106.5-28.3"/>
    <path d="m240.6 430.7c-19.4 11.8-66.7 61.6-76 82.5-4.4 9.9-3.5 17.2 5.8 19.9 9.5 2.5 15.8.3 29.7-13.3"/>
    <path d="m788.7 336.5-38 71.6c-8.3 15.6 5 26.1 21.5 22.2 2.8-.7 9.1-2.7 14-5.9 5.5-3.6 13.2-9.7 18.1-14.2"/>
    <path d="m804.3 410.2 29.4-28 34.5 48.8"/>
    <path d="m833.8 382.2 25.1 48.9"/>
    <path d="m843.3 382.2 25 48.8"/>
    <path d="m839.3 382.1 25.1 48.9"/>
   </g>
   <g stroke-width="3.75">
    <path d="m834.1 381.2h9"/>
    <path d="m858.8 432h9"/>
   </g>
  </g>
 </g>
</svg>
