<svg height="210mm" viewBox="0 0 1052.4 744.1" width="297mm" xmlns="http://www.w3.org/2000/svg">
 <g stroke-linecap="round">
  <g fill="none" transform="translate(0 -308.26772)">
   <path d="m57.6 742.2h948.8" stroke="#969696" stroke-width="1.875"/>
   <g stroke="#000" stroke-dasharray="3.75 7.5" stroke-miterlimit="2" stroke-width=".9375">
    <path d="m58.3 844.1h948.8"/>
    <path d="m58.3 641.8h948.8"/>
    <path d="m58.3 540.6h948.8"/>
   </g>
  </g>
  <g stroke="#000">
   <path d="m440.9 348.1c8.5-8.1 20.1-12.3 29.8-12.6 15.1-.6 25.3 8.3 10.7 26.3-27.4 33.8-45.5 50.2-39.4 63.9 5.4 12.3 32.7 4 46.8-11.3 6.1-6.6 19-21.7 51.2-63.7" fill="none" stroke-linejoin="round" stroke-width="5.625"/>
   <g fill="#eb0000" fill-rule="evenodd" stroke-linejoin="round" transform="matrix(1.7715894 0 0 1.7715894 -762.3662 8.477328)">
    <path d="m732.1 185.5c.8.1 1.4.2 1.9.5.2.1.3.2.5.3.9.7 1.3 2 .8 4-1 3.9-5.4 6.1-7.5 6.9-4.3 1.6-7.6-2-5.1-5.9 1.6-2.4 4.2-5.1 7.4-5.7.2 0 .4-.1.7-.1h.8c.6 0 1.2.1 1.9.3" stroke-width="5.625"/>
    <path d="m729.3 188.3c.3 0 .6.1.9.2.1 0 .2.1.2.1.4.3.6.9.4 1.8-.4 1.7-2.4 2.8-3.3 3.1-1.9.7-3.4-.9-2.3-2.6.7-1.1 1.9-2.3 3.3-2.6h.3.4c.3 0 .6 0 .8.1" stroke-width="4.981044"/>
   </g>
   <g fill="none">
    <g stroke-width="5.625">
     <path d="m299.8 336.9-33 73.1c-9.8 21.6 8.4 28.3 31.3 14.4 13.8-9.8 33.2-28.2 33.2-28.2" stroke-linejoin="round"/>
     <path d="m331.3 396.1 64.4-59.5-32 96.1" stroke-linejoin="round"/>
     <path d="m299.8 336.9-133.5 196.1"/>
     <g stroke-linejoin="round">
      <ellipse cx="26.604481" cy="539.49121" rx="22.329983" ry="17.680485" transform="matrix(.79083574 -.61202846 .61202846 .79083574 0 0)"/>
      <path d="m440.9 348.1s-73.7 74.8-80.4 78"/>
      <path d="m528 358.9c23.1 10.9 66.8-22.3 83.6-23.2 16-.6 21.6 31 32.6 30.7 7.2-.2 12.4-7.6 16.7-13"/>
      <path d="m603.9 430.8c9.7-10.1 32.5-30.9 51-47.8l33.3 47.9"/>
      <path d="m654.9 383 24 48"/>
      <path d="m664.4 383 23.8 47.9"/>
      <path d="m660.5 382.9 24 48"/>
     </g>
    </g>
    <path d="m655.3 382h9" stroke-width="3.75"/>
    <path d="m678.8 431.9h9" stroke-width="3.75"/>
    <path d="m688.2 430.9c25.4-46.7 94.9-177.5 108-187.7 5.2-4.1 10.7-6.9 16.6-8.1 10.7-2.7 14.3.7 18.7 3.2 7.6 4.3 8 17.2-6 41.5l-29.8 52.1" stroke-linejoin="round" stroke-width="5.625"/>
   </g>
  </g>
 </g>
</svg>
