<svg height="210mm" viewBox="0 0 1052.4 744.1" width="297mm" xmlns="http://www.w3.org/2000/svg">
 <g fill="none" stroke-linecap="round">
  <g transform="translate(0 -308.26772)">
   <path d="m57.6 742.2h948.8" stroke="#969696" stroke-width="1.875"/>
   <g stroke="#000" stroke-dasharray="3.75 7.5" stroke-miterlimit="2" stroke-width=".9375">
    <path d="m58.3 844.1h948.8"/>
    <path d="m58.3 641.8h948.8"/>
    <path d="m58.3 540.6h948.8"/>
   </g>
  </g>
  <g stroke="#000">
   <path d="m223.7 431.3c39-64.7 104.7-56.6 95.5-.1" stroke-linejoin="round" stroke-width="5.625"/>
   <path d="m319.1 431.2c10.6-12.1 23.1-29.4 40-30.3 12.3-.5 17.7 17.2 26.8 25.6 7.9 6.9 19 4.2 27.5 3.5 59.9-9.8 223.5-66.7 263.1-82" stroke-linejoin="round" stroke-width="5.625"/>
   <path d="m766.3 244c-21 26.2-40.6 49.8-56 74.1-19.8 31.2-33.9 63.1-46.7 97.5" stroke-width="5.624999"/>
   <path d="m760.7 247.5c-38.3 44.9-72.9 96.9-94.8 156.8" stroke-width="7.499999"/>
   <path d="m676.5 348.1c49.2-18.9 91.4-35.8 114.5-56.2 22.6-20.1 20.9-49.5-1.1-56.5-14.7-4.7-42.9 10.9-90.1 88.8-14.1 24.3-25.7 44.6-31.7 60-13.7 35.1-8.1 45.3 9.6 46.6" stroke-linejoin="round" stroke-width="5.624999"/>
   <path d="m668.3 403.1c-3 9.2-6.6 26.5 7.2 27.5" stroke-width="5.625"/>
   <path d="m794.6 238.3c-6.3-3.3-12.7-1.4-17.6 1-4.4 2.2-8.8 4.5-16.5 13.4" stroke-width="3.75"/>
   <path d="m800.4 243c-17.4-14.8-39.9 9.7-42.5 12.9" stroke-width="3.75"/>
   <path d="m786.6 379.1c-33.5 35.2-83.6 52-109 51.7" stroke-linejoin="round" stroke-width="5.624999"/>
  </g>
 </g>
</svg>
