<svg height="210mm" viewBox="0 0 1052.4 744.1" width="297mm" xmlns="http://www.w3.org/2000/svg">
 <g fill="none" stroke-linecap="round" transform="translate(0 -308.26772)">
  <path d="m57.6 742.2h948.8" stroke="#969696" stroke-width="1.875"/>
  <g stroke="#000">
   <g stroke-dasharray="3.75 7.5" stroke-miterlimit="2" stroke-width=".9375">
    <path d="m58.3 844.1h948.8"/>
    <path d="m58.3 641.8h948.8"/>
    <path d="m58.3 540.6h948.8"/>
   </g>
   <g stroke-linejoin="round" stroke-width="5.625">
    <path d="m433.1 739.1c10.6-12.1 23.1-29.4 40-30.3 16-.6 13.9 27 32.6 30.7 5.6 1.1 40.7.3 58.1-2.6 4.5-.7 6.5-2.8 11.6-8.1"/>
    <path d="m575.4 728.9c15.4-16.8 31.5-27.2 45.8-32 31-10.3 53.8 5.2 42 43l33.4-28.8"/>
   </g>
  </g>
  <path d="m559.4 721.4c1 .1 1.8.3 2.5.7.2.1.4.2.6.4 1.2.9 1.7 2.6 1 5.2-1.3 5.1-7.1 8-9.8 9-5.7 2-9.8-2.6-6.6-7.6 2-3.1 5.5-6.6 9.7-7.5.3-.1.6-.1.9-.1s.7-.1 1-.1c.8 0 1.6.1 2.4.3" stroke="#030002" stroke-linejoin="round" stroke-width="5.625"/>
 </g>
</svg>
