<svg height="210mm" viewBox="0 0 1052.4 744.1" width="297mm" xmlns="http://www.w3.org/2000/svg">
 <g fill="none" stroke-linecap="round">
  <g transform="translate(0 -308.26772)">
   <path d="m57.6 742.2h948.8" stroke="#969696" stroke-width="1.875"/>
   <g stroke="#000" stroke-dasharray="3.75 7.5" stroke-miterlimit="2" stroke-width=".9375">
    <path d="m58.3 844.1h948.8"/>
    <path d="m58.3 641.8h948.8"/>
    <path d="m58.3 540.6h948.8"/>
   </g>
  </g>
  <g stroke="#000" stroke-linejoin="round" stroke-width="5.625">
   <path d="m491.3 381.3c-11.8 9.7-25.6 20.5-39.3 31.9"/>
   <path d="m491.3 381.3c53.1-44.7 69.4-43.1 80.2-45.3 17.7-3.6 35.1 7.3 34.8 48.5-.2 33.3 15.8 47.8 30.1 47.7 10.7-.1 20.5.1 29.8-3.6 20.2-8.1 35.2-23.4 52.9-41.6"/>
   <path d="m576.2 335.3c12.3-1.3 35.4 13.9 35.2 45.8-.2 30.1 8.2 53 28.3 51.2"/>
   <path d="m576.2 335.3c17-.9 25 18 24.8 49.9-.2 30.1 13.3 47.8 38.7 47.1"/>
   <path d="m452 413.2c-18.6 14.7-62 45.3-79.6 67.4-15.7 20-26.1 40.3-21.6 48.8 4.9 9.2 28.4 7.7 48.3-24.3 8.5-13.7 17.7-31 19.9-61.8 5-69.6 41.1-122.1 68-104.4 7.6 5-6.4 24.4-24.5 37.8-14.5 10.7-25.1 16.1-34.5 19.2"/>
  </g>
 </g>
</svg>
