<svg height="210mm" viewBox="0 0 1052.4 744.1" width="297mm" xmlns="http://www.w3.org/2000/svg">
 <g fill="none" stroke-linecap="round">
  <g transform="translate(0 -308.26772)">
   <path d="m57.6 742.2h948.8" stroke="#969696" stroke-width="1.875"/>
   <g stroke="#000" stroke-dasharray="3.75 7.5" stroke-miterlimit="2" stroke-width=".9375">
    <path d="m58.3 844.1h948.8"/>
    <path d="m58.3 641.8h948.8"/>
    <path d="m58.3 540.6h948.8"/>
   </g>
  </g>
  <g stroke="#010000">
   <g stroke-linejoin="round" stroke-width="5.625">
    <path d="m344.6 336c-13.9 25.5-25.8 43.2-40.4 68.3-8.2 14.2 3 31.9 23 26 15.7-3.8 43.3-25.7 61.9-36.4"/>
    <path d="m375.4 422c-4 1.9-5.8 5.9-5.5 6.7.4 1.2 1.4 2.6 4.6 2.4 13-.9 31.2-11.9 33.1-28.5 1.8-15.4-7.7-21.8-7.6-31.3.1-13.5 11-27.7 27.5-33.9 16.2-6 15.9 14.1.8 30.3-6.3 6.7-24.9 18-39.2 26"/>
    <path d="m402.9 359.3c-2.6 10.1.8 16.1 4.3 24.8 2.8 7 5.7 20.5.6 29.3s-22.7 15.2-22.7 15.2"/>
    <path d="m409.2 349.6c-9.2 10.8-13.7 21.7-8.1 34.1 4.8 10.1 8 19.3 2.7 28.2s-24.3 18.5-24.3 18.5"/>
   </g>
   <path d="m372.7 429.8c1 0 1.9-.1 2.9-.3 4.6-.8 8.8-3.4 10.1-4.2" stroke-width="2.8125"/>
   <path d="m374.9 421.9s2.7-2 12.2-7.5 62.9-25.4 62.9-25.4l14.3 42.2" stroke-linejoin="round" stroke-width="5.625"/>
  </g>
  <g stroke-linejoin="round" stroke-width="5.625">
   <path d="m706.6 482.5c4.7.5 9-2.5 13.1-4.7 10.9-6.3 20.3-16.3 28.3-27.1 28.7-38.7 36.4-89.5-22.5-48.1" stroke="#000"/>
   <path d="m464.3 431.2 237.9-44.6-56.7 94.9s67.3-68.8 80-78.8" stroke="#0a0000"/>
  </g>
 </g>
</svg>
