<svg height="210mm" viewBox="0 0 1052.4 744.1" width="297mm" xmlns="http://www.w3.org/2000/svg">
 <g fill="none" stroke-linecap="round">
  <g transform="translate(0 -308.26772)">
   <path d="m57.6 742.2h948.8" stroke="#969696" stroke-width="1.875"/>
   <g stroke="#000" stroke-dasharray="3.75 7.5" stroke-miterlimit="2" stroke-width=".9375">
    <path d="m58.3 844.1h948.8"/>
    <path d="m58.3 641.8h948.8"/>
    <path d="m58.3 540.6h948.8"/>
   </g>
  </g>
  <g stroke="#000" stroke-width="5.625">
   <g stroke-linejoin="round">
    <path d="m598.9 382.2 31.2-52.3c22.7-38 7.4-48.8-12.3-40.5-22 9.6-84.2 55.8-124.1 91.4-25.9 26.2-31.9 38.6-29 46.3 1.1 2.9 17.7 21.8 57.3-41.8l88.1-151.7"/>
    <path d="m550.7 293.7c17.3-17.1 43.2-44.5 59.3-60.1"/>
    <path d="m521.2 235-34.9 74c-10.1 21.5 8.4 28.4 31.3 14.4 13.8-9.8 33.1-29.7 33.1-29.7"/>
   </g>
   <path d="m521.2 235-125.7 166.4"/>
   <ellipse cx="78.718056" cy="577.90802" rx="25.728558" ry="20.371416" stroke-linejoin="round" transform="matrix(.79083574 -.61202846 .61202846 .79083574 0 0)"/>
  </g>
 </g>
</svg>
