<svg height="210mm" viewBox="0 0 1052.4 744.1" width="297mm" xmlns="http://www.w3.org/2000/svg">
 <g fill="none" stroke-linecap="round">
  <g transform="translate(0 -308.26772)">
   <path d="m57.6 742.2h948.8" stroke="#969696" stroke-width="1.875"/>
   <g stroke="#000" stroke-dasharray="3.75 7.5" stroke-miterlimit="2" stroke-width=".9375">
    <path d="m58.3 844.1h948.8"/>
    <path d="m58.3 641.8h948.8"/>
    <path d="m58.3 540.6h948.8"/>
   </g>
  </g>
  <g stroke="#000" stroke-width="5.625">
   <g stroke-linejoin="round">
    <path d="m288.9 431.3 245.2-60.3"/>
    <path d="m345.6 336.4-56.7 94.9"/>
    <path d="m1317.4 222.8 25.5 18.5c4.4 4.9 8 10.8 3.6 18.1"/>
    <ellipse cx="899.44983" cy="1014.4189" rx="19.945965" ry="15.792861" transform="matrix(.79083574 -.61202846 .61202846 .79083574 0 0)"/>
    <path d="m1285.9 244.1 33.1-26.9 24.3 18.5"/>
    <path d="m1329.7 235.4c12.1-5.8 21.6-10.1 34.7-9.7"/>
   </g>
   <path d="m753.8 384.3s-194.4 1-208.1 7.8c-6.4 3.2-11.7 6.6-13.7 9.8"/>
   <path d="m534.1 371 28.2 21.5" stroke-linejoin="round"/>
   <path d="m562.3 392.5c1.9 1 3.6 2.4 4.9 4.1 1.5 2 2.5 4.3 2.9 6.7.5 2.9.2 6.1-.8 9.2-.8 2.5-2.1 5-3.8 7.2-1.5 2-3.3 3.9-5.4 5.5s-4.3 2.9-6.6 3.8c-1.5.6-3 1.1-4.6 1.4-2.1.4-4.2.6-6.2.5-2.6-.2-5.1-.8-7.3-2-1.9-1-3.6-2.4-4.9-4.1-2.8-3.7-3.7-8.3-2.9-13.1.6-3.4 2.1-6.8 4.4-9.9" stroke-linejoin="round"/>
   <path d="m1313.8 423.5s-8.9 19.1-9.8 22.9c-1 3.9-1.1 7.7-.3 11.1 1.1 4.8 4 8.9 8.5 11.3 2.1 1.1 4.4 1.8 6.8 2 2.7.2 5.5-.1 8.3-1 2.1-.7 4.2-1.6 6.2-2.9 1.4-.9 2.8-2 4.1-3.1 1.9-1.8 3.7-3.9 5.1-6.2 1.5-2.4 2.6-4.9 3.2-7.3.8-2.8 1.1-5.7.8-8.4-.3-3.3-1.3-6.5-3.1-9.1-1.5-2.2-3.4-4-5.9-5.2-2.1-1.1-4.4-1.8-6.8-2l-17.2-2.1"/>
  </g>
 </g>
</svg>
