<svg height="210mm" viewBox="0 0 1052.4 744.1" width="297mm" xmlns="http://www.w3.org/2000/svg">
 <g fill="none" stroke-linecap="round">
  <g transform="translate(0 -308.26772)">
   <path d="m57.6 742.2h948.8" stroke="#969696" stroke-width="1.875"/>
   <g stroke="#000" stroke-dasharray="3.75 7.5" stroke-miterlimit="2" stroke-width=".9375">
    <path d="m58.3 844.1h948.8"/>
    <path d="m58.3 641.8h948.8"/>
    <path d="m58.3 540.6h948.8"/>
   </g>
  </g>
  <g stroke="#000">
   <g stroke-width="5.625">
    <path d="m482.9 378.6c18-7.5 65-38.4 114.4-42.5 36.7-3 65.9 20.4 48.2 78.9-1.3 4.4-4.8 11.8-6.9 16.5-.3.6 33.2-28.8 33.2-28.8" stroke-linejoin="round"/>
    <path d="m671.8 402.7c55.3-40.9 184.4-170.5 138.9-167.6-15.4 1-42.6 12.2-89.8 90.1-60.3 104.2-32 117.7 2.2 97.7 37.1-26 113.9-146.7 139.2-187.3" stroke-linejoin="round"/>
    <path d="m794.2 240.1c-48 60-84.9 118.1-107.7 179.3"/>
   </g>
   <path d="m781.1 251.8c-38.3 44.9-70.9 94.9-92.8 154.8" stroke-width="7.5"/>
   <path d="m811.8 235.9c-13.1-.9-24.8 14.1-27.3 17.1" stroke-width="3.75"/>
   <g stroke-width="5.625">
    <path d="m691.3 407.4c-6.1 21.8-1.8 23 13.1 22.7"/>
    <path d="m365.5 431 131.1-146.2s-27 51.8-38.5 75.7c-8.2 20.2 10.2 24.8 24.7 18.1" stroke-linejoin="round"/>
    <path d="m459.7 233.1-94.2 197.9"/>
   </g>
  </g>
 </g>
</svg>
