<svg height="210mm" viewBox="0 0 1052.4 744.1" width="297mm" xmlns="http://www.w3.org/2000/svg">
 <g fill="none" stroke-linecap="round">
  <g transform="translate(0 -308.26772)">
   <path d="m57.6 742.2h948.8" stroke="#969696" stroke-width="1.875"/>
   <g stroke="#000" stroke-dasharray="3.75 7.5" stroke-miterlimit="2" stroke-width=".9375">
    <path d="m58.3 844.1h948.8"/>
    <path d="m58.3 641.8h948.8"/>
    <path d="m58.3 540.6h948.8"/>
   </g>
  </g>
  <g stroke="#000">
   <path d="m390.6 361.3 101.4-126.7" stroke-linejoin="round" stroke-width="5.625"/>
   <path d="m492 234.6-113.1 196.5" stroke-width="5.625"/>
   <g stroke-linejoin="round">
    <path d="m335.3 335.9-39 72.4c-8.4 15.5 5 26.1 21.5 22.2 2.8-.7 9.2-2.6 14-6 14.3-9.8 44.7-48.4 58.8-63.3" stroke-width="5.625"/>
    <path d="m489.2 383.9 96.2-48.2 21.4 46.1" stroke-width="5.625"/>
    <path d="m519.7 311.9-38.4 71.8" stroke-width="5.624999"/>
    <path d="m504.4 343.6-19.4 39.7" stroke-width="3.749999"/>
    <path d="m481.3 383.7 7.9.2" stroke-width="5.624999"/>
   </g>
   <path d="m514.1 289.6c11.1-.7 10.4 11.9 2 27" stroke-width="3.749999"/>
   <g stroke-linejoin="round" stroke-width="5.625">
    <path d="m378.9 431.1c28-24.8 54.8-63.5 75.7-93.6 18.4-25.1 37.7-46.9 56.1-48.8 1.6-.1 3.3-.1 5.1.1 7 .3 9.9 7 9.7 12-.3 6.8-3.7 16.8-10.6 30.8l-25.6 52.3"/>
    <path d="m606.8 381.9 186-97.2"/>
   </g>
  </g>
 </g>
</svg>
