<svg height="210mm" viewBox="0 0 1052.4 744.1" width="297mm" xmlns="http://www.w3.org/2000/svg">
 <g fill="none" stroke-linecap="round">
  <g transform="translate(0 -308.26772)">
   <path d="m57.6 742.2h948.8" stroke="#969696" stroke-width="1.875"/>
   <g stroke="#000" stroke-dasharray="3.75 7.5" stroke-miterlimit="2" stroke-width=".9375">
    <path d="m58.3 844.1h948.8"/>
    <path d="m58.3 641.8h948.8"/>
    <path d="m58.3 540.6h948.8"/>
   </g>
  </g>
  <g stroke="#000">
   <g stroke-width="5.625">
    <path d="m292.8 396.1c17.8-16.1 57.5-49.4 82.7-58.1 20.4-6.8 39.1.9 20.7 23.5-27.4 33.8-45.5 50.2-39.4 63.9 2.1 4.8 8 6.6 15 5.8" stroke-linejoin="round"/>
    <path d="m397.1 338.8c14.5 10.1 4.3 27.8-12.4 44.2-14.4 14-23.4 26.4-29.5 38.7"/>
    <path d="m397.1 338.8c.8-1.1 3.9 6.1.7 14.2-3.2 8.4-12.8 17.8-18.3 22.9-10.8 10.1-30.6 29-24.3 45.7"/>
   </g>
   <g stroke-width="2.8125">
    <path d="m388.5 337c11.3 1.3 8.8 6.5 9.1 11"/>
    <path d="m360.3 414.3c-2.7 4.9-3.8 12 2.3 14.5"/>
    <path d="m352.6 415.7c-.1 5.7 2.9 11.5 4.9 13.1"/>
   </g>
   <g stroke-linejoin="round" stroke-width="5.625">
    <ellipse cx="-5.344256" cy="512.32343" rx="25.728558" ry="20.371416" transform="matrix(.79083574 -.61202846 .61202846 .79083574 0 0)"/>
    <path d="m371.8 431.2c21.1-1.9 61.9-31.3 79.5-32.2 16.7-.7 14.5 32.2 32.2 32.1 16.1-.1 56.2-55.9 90-95.1"/>
    <path d="m573.4 336.1c-8.4 14.2-19.9 41.7-32 62.4-12.8 20.5 5.1 40.4 44.9 29.7"/>
    <path d="m592.6 424.3c3.8-6.3-3.1-8.8-9.7-3.7-5.9 6.1 2.3 11.6 9.7 3.8"/>
    <path d="m636.8 387.5s-39.1 34.7-46.6 39.2"/>
    <ellipse cx="266.70462" cy="719.35016" rx="29.379175" ry="23.261911" transform="matrix(.79083574 -.61202846 .61202846 .79083574 0 0)"/>
   </g>
   <path d="m676.9 393.1c.4 10.6-.4 16.7-7.2 25.1-4.2 5.1-10.1 9.1-18.3 12.3" stroke-width="6.423085"/>
   <path d="m672.7 387.1c2.3 7.9 2 7.3.8 13.2-1.8 8.6-7 15.5-14.2 21.3-3.7 3-7.9 5.8-12.5 8.4" stroke-width="7.536421"/>
   <path d="m653.2 423.5c-6 4.2-11.7 6.6-18.6 4" stroke-width="3.254362"/>
   <path d="m660.4 381.4c8.4 1.8 10.3 4.9 11.9 12.7" stroke-width="3.254362"/>
   <path d="m702.3 336.4-65.5 51" stroke-linejoin="round" stroke-width="5.625"/>
  </g>
 </g>
</svg>
