<svg height="210mm" viewBox="0 0 1052.4 744.1" width="297mm" xmlns="http://www.w3.org/2000/svg">
 <g fill="none" stroke-linecap="round">
  <g transform="translate(0 -308.26772)">
   <path d="m57.6 742.2h948.8" stroke="#969696" stroke-width="1.875"/>
   <g stroke="#000" stroke-dasharray="3.75 7.5" stroke-miterlimit="2" stroke-width=".9375">
    <path d="m58.3 844.1h948.8"/>
    <path d="m58.3 641.8h948.8"/>
    <path d="m58.3 540.6h948.8"/>
   </g>
  </g>
  <g stroke="#000" stroke-linejoin="round" stroke-width="5.625">
   <path d="m370.6 431.4c43.9-15.9 71.5-94.7 46.6-94.9-7.2-.1-18.9 6.5-35.8 23.2"/>
   <path d="m370.6 431.4c-16 5.5 41.5-42.6 63.2-59.9 20.8-16.7 41.4-34.5 66.6-35.1 20.3-.5 32.2 15.6 41.1 34.3 7.7 16.9 14.5 36 22.5 47.4 6.5 9.2 15.1 13.2 23.7 13.1"/>
   <path d="m587.8 431.3c23-.8 63.3-30.8 82.1-32.8 18.2-.7 20.7 32.8 36 33.3 8.2.3 12.7-4.8 17.8-9"/>
  </g>
 </g>
</svg>
