<svg height="210mm" viewBox="0 0 1052.4 744.1" width="297mm" xmlns="http://www.w3.org/2000/svg">
 <g fill="none" stroke-linecap="round">
  <g transform="translate(0 -308.26772)">
   <path d="m57.6 742.2h948.8" stroke="#969696" stroke-width="1.875"/>
   <g stroke="#000" stroke-dasharray="3.75 7.5" stroke-miterlimit="2" stroke-width=".9375">
    <path d="m58.3 844.1h948.8"/>
    <path d="m58.3 641.8h948.8"/>
    <path d="m58.3 540.6h948.8"/>
   </g>
  </g>
  <g stroke="#000">
   <g stroke-linejoin="round" stroke-width="5.625">
    <path d="m322.4 332.9c54.3-11 93-76.6 86.7-93.3-5.5-14.4-36.2-2.5-83.1 85.8l-58.5 105.9"/>
    <path d="m267.5 431.3c26.6-23.7 40.1-34.9 64.6-56.2 10.4-9 21.3-18.4 32.8-25.8 5.1-3.3 10.4-6.5 15.8-8.8 5.4-2.6 11.1-3.4 17.4-2.5 5.1 1 8.6 3.1 11 5.8 2.7 3 3.9 6.8 3.8 11.1-.1 4.6-1.6 9.7-4.3 15.2-2.5 5.1-5.9 10.4-10.1 15.7l-76.1 101.8c-8.6 12.1-12.6 22.5-10.6 30.5 1.8 7.2 5.3 12.9 15.9 14.7 7.2.9 14.3-.4 21.2-3.7 4.4-2.1 8.5-5.1 12.8-8.6 11-9.1 87.8-83.5 87.8-83.5"/>
    <path d="m449.6 437.1-39.4 73.1c-8.4 15.5 5 26.1 21.5 22.2 2.8-.7 9.1-2.7 14-5.9 5.5-3.6 13.2-9.7 18.1-14.2"/>
    <path d="m463.8 512.3 29.4-28 33.3 48.6"/>
    <path d="m493.2 484.3 24 48.7"/>
    <path d="m502.7 484.3 23.8 48.6"/>
    <path d="m498.8 484.2 24 48.7"/>
   </g>
   <g stroke-width="3.75">
    <path d="m493.6 483.3h9"/>
    <path d="m517 533.9h9"/>
   </g>
  </g>
  <path d="m526.5 532.9 156.8-90.6 184.9-106.8" stroke="#000001" stroke-linejoin="round" stroke-width="5.625"/>
 </g>
</svg>
