<svg height="210mm" viewBox="0 0 1052.4 744.1" width="297mm" xmlns="http://www.w3.org/2000/svg">
 <g fill="none" stroke-linecap="round">
  <g transform="translate(0 -308.26772)">
   <path d="m57.6 742.2h948.8" stroke="#969696" stroke-width="1.875"/>
   <g stroke="#000" stroke-dasharray="3.75 7.5" stroke-miterlimit="2" stroke-width=".9375">
    <path d="m58.3 844.1h948.8"/>
    <path d="m58.3 641.8h948.8"/>
    <path d="m58.3 540.6h948.8"/>
   </g>
  </g>
  <g stroke-linejoin="round">
   <g stroke="#000" stroke-width="5.625">
    <path d="m657.7 377.5c-43.8 22.2-107.3 83.2-81.8 98.7 9.9 5.5 23.1-1.1 49.3-43.2l89.2-152.4"/>
    <path d="m581.7 396.4a19.2 25.1 41.6 0 1 -14.3 31.3 19.2 25.1 41.6 0 1 -27.6-6.8 19.2 25.1 41.6 0 1 14.3-31.3 19.2 25.1 41.6 0 1 27.6 6.8z"/>
    <path d="m552.1 390.9 162.3-110.3"/>
   </g>
   <path d="m494.4 335.7s-31.1 62.1-35.1 72.5c-5.5 14.2 4 23.1 17.2 23 3.3 0 6.2-.3 9.4-.9 12.9-2.3 28.6-13.1 67-40" stroke="#010000" stroke-width="5.624999"/>
   <g stroke="#000">
    <path d="m657.7 377.5c23.6-10.5 100.9-41.1 100.9-41.1" stroke-width="5.624999"/>
    <g stroke-width="5.625">
     <ellipse cx="101.99123" cy="468.68262" rx="25.728558" ry="20.371416" transform="matrix(.79083574 -.61202846 .61202846 .79083574 0 0)"/>
     <path d="m361.6 288.1-77 42.5"/>
    </g>
   </g>
  </g>
  <g stroke="#000" stroke-width="5.625">
   <path d="m780.8 354c-8.5-1.8-16.8.6-23.1 7.9"/>
   <g stroke-linejoin="round">
    <path d="m758.6 336.4 24.3 18.5"/>
    <path d="m782.9 354.9c1.6.9 3.1 2 4.2 3.5 1.3 1.7 2.2 3.7 2.5 5.8.4 2.5.2 5.3-.7 7.9-.7 2.1-1.8 4.3-3.3 6.2-1.3 1.7-2.8 3.3-4.7 4.7-1.8 1.4-3.7 2.5-5.7 3.3-1.3.5-2.6.9-3.9 1.2-1.8.4-3.6.5-5.3.4-2.3-.1-4.4-.7-6.3-1.7-1.6-.9-3.1-2-4.2-3.5-2.4-3.2-3.2-7.2-2.5-11.2.5-2.9 1.8-5.9 3.8-8.5"/>
   </g>
  </g>
 </g>
</svg>
