<svg height="210mm" viewBox="0 0 1052.4 744.1" width="297mm" xmlns="http://www.w3.org/2000/svg">
 <g fill="none" stroke-linecap="round">
  <g transform="translate(0 -308.26772)">
   <path d="m57.6 742.2h948.8" stroke="#969696" stroke-width="1.875"/>
   <g stroke="#000" stroke-dasharray="3.75 7.5" stroke-miterlimit="2" stroke-width=".9375">
    <path d="m58.3 844.1h948.8"/>
    <path d="m58.3 641.8h948.8"/>
    <path d="m58.3 540.6h948.8"/>
   </g>
  </g>
  <g stroke-linejoin="round" stroke-width="5.625">
   <path d="m396.3 431.1c58.2-64.6 89.9-109.6 154.9-143.8" stroke="#000"/>
   <path d="m527.7 434.3c-32.3 30-51.8 48.2-75.9 49.5-54.2 3 32.7-132.9 76.4-179.1 4.7-4.9 15.9-14.6 23-17.4" stroke="#000"/>
   <path d="m527.7 434.3 49.7-47-56.7 96.2 68.2-48.1" stroke="#0a0000"/>
   <path d="m719.7 484.5c5.8-3.7 12.8-11.7 7.1-19-2.8-3.6-4.4-5-13-4.9l-107.7.6c-7.4 0-15.4-.2-17.4-.8-9.6-2.9-8.5-13.1.2-25.1" stroke="#000"/>
   <path d="m374.2 388.9 22.1 42.3" stroke="#060000"/>
  </g>
 </g>
</svg>
