<svg height="210mm" viewBox="0 0 1052.4 744.1" width="297mm" xmlns="http://www.w3.org/2000/svg">
 <g stroke-linecap="round">
  <g fill="none" transform="translate(0 -308.26772)">
   <path d="m57.6 742.2h948.8" stroke="#969696" stroke-width="1.875"/>
   <g stroke="#000" stroke-dasharray="3.75 7.5" stroke-miterlimit="2" stroke-width=".9375">
    <path d="m58.3 844.1h948.8"/>
    <path d="m58.3 641.8h948.8"/>
    <path d="m58.3 540.6h948.8"/>
   </g>
  </g>
  <g fill="none">
   <g stroke-linejoin="round" stroke-width="5.625">
    <g stroke="#000">
     <path d="m418.8 379.8 165.2-35.6"/>
     <path d="m584 344.2s32.2-8.1 61-7.5c20.6.4 25.7 74.5 86.9 35.5"/>
     <path d="m231.3 384c41.4 3.1 61.9-37.1 58.6-45.8-2.9-7.5-30.3-4.4-55 36.3-27.8 45.5-21.9 58.3-6.5 55.8 30.3-9.5 50.7-27.9 64.4-43.3"/>
     <path d="m292.8 387c19.2-22.2 38.8-50.8 38.8-50.8"/>
     <path d="m382.4 326.5c-37.5 37.1-69.1 68.4-50.8 9.7"/>
    </g>
    <g stroke="#000008">
     <path d="m382.4 326.5c16.3-14.4 33.4-29.9 55.4-39.5 19.6-8.3 35 2.5 12.3 40.5l-31.2 52.3"/>
     <path d="m460.2 293.4-49.2 86.2"/>
     <path d="m460.4 299.6-45.6 79.9"/>
     <path d="m410.9 379.6 7.9.2"/>
    </g>
   </g>
   <path d="m456.2 287.2c1.8 1.7 2.3 5.7.7 9.9" stroke="#000008" stroke-width="3.75"/>
  </g>
  <g stroke="#000" stroke-linejoin="round">
   <g fill="#eb0000" fill-rule="evenodd" transform="matrix(1.7715894 0 0 1.7715894 -562.97272 22.972273)">
    <path d="m732.1 185.5c.8.1 1.4.2 1.9.5.2.1.3.2.5.3.9.7 1.3 2 .8 4-1 3.9-5.4 6.1-7.5 6.9-4.3 1.6-7.6-2-5.1-5.9 1.6-2.4 4.2-5.1 7.4-5.7.2 0 .4-.1.7-.1h.8c.6 0 1.2.1 1.9.3" stroke-width="5.625"/>
    <path d="m729.3 188.3c.3 0 .6.1.9.2.1 0 .2.1.2.1.4.3.6.9.4 1.8-.4 1.7-2.4 2.8-3.3 3.1-1.9.7-3.4-.9-2.3-2.6.7-1.1 1.9-2.3 3.3-2.6h.3.4c.3 0 .6 0 .8.1" stroke-width="4.981044"/>
   </g>
   <path d="m796 323.9-58.5 44.2" fill="none" stroke-width="5.625"/>
  </g>
 </g>
</svg>
