<svg height="210mm" viewBox="0 0 1052.4 744.1" width="297mm" xmlns="http://www.w3.org/2000/svg">
 <g fill="none" stroke-linecap="round">
  <g transform="translate(0 -308.26772)">
   <path d="m57.6 742.2h948.8" stroke="#969696" stroke-width="1.875"/>
   <g stroke="#000" stroke-dasharray="3.75 7.5" stroke-miterlimit="2" stroke-width=".9375">
    <path d="m58.3 844.1h948.8"/>
    <path d="m58.3 641.8h948.8"/>
    <path d="m58.3 540.6h948.8"/>
   </g>
  </g>
  <g stroke="#000">
   <g stroke-linejoin="round">
    <g stroke-width="5.625">
     <path d="m562.4 335.9-41.7 94.9"/>
     <path d="m520.7 430.8 81.8-113.5c7.1-9.9 19.8-22 31.3-26.1 5.5-1.9 10-1.5 13.2-.7 19.1 4.5 11.2 19.6-4.7 41-15 20.3-24.5 36.8-43.1 61.9-26.3 35.4-55 68-47.8 86.2 5.1 9.7 13.7 11 23.8 7.5 4.3-1.5 19.3-8.2 29.6-19.7"/>
     <path d="m657.1 312.6c-.8 5.4-.7 9.8-5.7 20l-93.8 134.9-1.8 13.5"/>
    </g>
    <path d="m652.2 322.8-67.9 98.8-28.6 41.8-2.2 10.7" stroke-width="8.4375"/>
    <path d="m568.3 453.6c-5.1 7.7-10 15.6-10 22.5 0 3.1 0 6.1 2.7 8.3 1.9 1.5 3.7 4.1 9.9 2.9" stroke-width="3.75"/>
    <path d="m657.9 296.2c2.8 5.2 2.1 16.5-1 26.4-1.6 5.1-4.3 10.5-8.7 16.2" stroke-width="3.75"/>
    <path d="m480.9 336.2-47.8 86.7" stroke-width="6.5625"/>
    <path d="m377.1 431 94.4-95.2-39 72.4c-8.4 15.5 5 26 21.5 22.2 15-5.7 24.8-14.6 38.2-27.4" stroke-width="5.625"/>
    <path d="m476.2 336.2-44.7 81.9" stroke-width="6.5625"/>
   </g>
   <path d="m438 416.8c-1.6 4.1-2.6 6.5.8 11.9" stroke-width="3.75"/>
   <path d="m480.9 336.2-9.3-.4" stroke-linejoin="round" stroke-width="6.5625"/>
   <path d="m492.2 403.1-58.2 130.3" stroke-width="5.625"/>
  </g>
 </g>
</svg>
