<svg height="210mm" viewBox="0 0 1052.4 744.1" width="297mm" xmlns="http://www.w3.org/2000/svg">
 <g fill="none" stroke-linecap="round">
  <g transform="translate(0 -308.26772)">
   <path d="m57.6 742.2h948.8" stroke="#969696" stroke-width="1.875"/>
   <g stroke="#000" stroke-dasharray="3.75 7.5" stroke-miterlimit="2" stroke-width=".9375">
    <path d="m58.3 844.1h948.8"/>
    <path d="m58.3 641.8h948.8"/>
    <path d="m58.3 540.6h948.8"/>
   </g>
  </g>
  <g stroke-width="5.625">
   <g stroke="#000" stroke-linejoin="round">
    <path d="m394.2 398.8c14.2-30.8 34.6-55.4 54-60.5 22-5.8 43.6 1.9 32.5 47.9"/>
    <path d="m480.7 386.2s28.1 1.7 34.3-5.9"/>
    <ellipse cx="77.328819" cy="576.20081" rx="25.728558" ry="20.371416" transform="matrix(.79083574 -.61202846 .61202846 .79083574 0 0)"/>
    <path d="m569.7 383.4c15.1-4.5 47.4-44.7 52.6-82 5.7-40.6 44.3-104.4 80-114.7"/>
   </g>
   <path d="m660.5 219.2c-4 6.8-7.9 16.4-10.8 21.8-20.5 37.5-18 44.6-29.9 76.5-2.7 7.2-7.2 15.1-12.8 25" stroke="#000004"/>
   <path d="m673.5 205.7c-4.3 6.5-27.4 38.4-29.2 44.5-6.6 21.7-8.3 19.5-10.6 25.5-15.2 19.5-6.7 31.7-26.7 66.9" stroke="#000026"/>
  </g>
  <path d="m652.5 237.7c-13.4 28.2-24.4 58.4-33.8 84.9" stroke="#000" stroke-opacity=".86385" stroke-width="3.75"/>
  <g stroke-linejoin="round" stroke-width="5.625">
   <g stroke="#000">
    <path d="m624.9 287.2c-4.3 18.4-9.8 36.9-17.9 55.3"/>
    <path d="m569.7 383.4c-12.8-1 94.5-47.2 94.5-47.2"/>
    <path d="m510 380.1c25.2 16.9 125.5-161.8 179.7-188"/>
   </g>
   <path d="m518.2 364.5c1 .1 1.8.3 2.5.7.2.1.4.2.6.4 1.2.9 1.7 2.6 1 5.2-1.3 5.1-7.1 8-9.8 9-5.7 2-9.8-2.6-6.6-7.6 2-3.1 5.5-6.6 9.7-7.5.3-.1.6-.1.9-.1s.7-.1 1-.1c.8 0 1.6.1 2.4.3" stroke="#030002"/>
  </g>
 </g>
</svg>
