<svg height="210mm" viewBox="0 0 1052.4 744.1" width="297mm" xmlns="http://www.w3.org/2000/svg">
 <g fill="none" stroke="#000" stroke-linecap="round">
  <g transform="translate(0 -308.26772)">
   <path d="m57.6 742.2h948.8" stroke-width="1.875"/>
   <g stroke-dasharray="3.75 7.5" stroke-miterlimit="2" stroke-width=".9375">
    <path d="m58.3 844.1h948.8"/>
    <path d="m58.3 641.8h948.8"/>
    <path d="m58.3 540.6h948.8"/>
   </g>
  </g>
  <path d="m770.4 335.3-42.4 73.1c-8 13.8.7 23.9 15 23 14.8-1 26.8-12.4 45.6-32.9 18.7-20.5 95.7-113.7 95.7-113.7l-55.8 97.2" stroke-linejoin="round" stroke-width="5.625"/>
  <path d="m770.4 335.3-156.4 198.2" stroke-width="5.625"/>
  <g stroke-linejoin="round">
   <path d="m145.5 431.6c6.9-7.3 21.1-25.6 40.5-25.1 19.4.4 15.4 25 33.9 25.2 9 .6 24.8-5.2 51.8-16.4l206.2-79-53.2 94.7" stroke-width="5.625"/>
   <path d="m487.5 433.9c-27 16.7-90.2 91.8-63 99 11.2 2.5 33.1-7.6 54.5-66.3 15.7-47.2 16.4-112.8 70.4-130.9" stroke-width="5.625"/>
   <g stroke-width="5.624999">
    <path d="m487.5 433.9c26.3-20.8 92.9-83 120.7-96.2 7.7-3.6 13.2-.8 17.3 7.2 6.5 12.7 4 18.2 12.3 27.2 15.9 17.3 43.8-28.5 34.5-35-6.3-4.4-25.9 3.9-49.4 42.7-14.6 23.9-17.7 35.4-15 42.7 4.8 15 41.8 8.8 51.1 4"/>
    <path d="m600.9 341.7c14.7-9.4 17.1 5.5 20.6 17.2 3.2 10.5 8.7 18 23.9 17.1"/>
    <path d="m611.9 339.3c13.6.7 15.1 28.3 22.1 30"/>
   </g>
   <g stroke-width="5.625">
    <path d="m526.9 348.2-102.2 82.9"/>
    <ellipse cx="397.33881" cy="659.39874" rx="23.385052" ry="18.515869" transform="matrix(.89236516 -.45131411 .45131411 .89236516 0 0)"/>
   </g>
  </g>
 </g>
</svg>
