<svg height="210mm" viewBox="0 0 1052.4 744.1" width="297mm" xmlns="http://www.w3.org/2000/svg">
 <g fill="none" stroke-linecap="round">
  <g transform="translate(0 -308.26772)">
   <path d="m57.6 742.2h948.8" stroke="#969696" stroke-width="1.875"/>
   <g stroke="#000" stroke-dasharray="3.75 7.5" stroke-miterlimit="2" stroke-width=".9375">
    <path d="m58.3 844.1h948.8"/>
    <path d="m58.3 641.8h948.8"/>
    <path d="m58.3 540.6h948.8"/>
   </g>
  </g>
  <g stroke="#000">
   <g stroke-linejoin="round">
    <path d="m208.4 333.2c54.3-11 97.7-78.3 91.4-95-5.5-14.4-40.2 8.9-87.4 86.8-44.1 76.2-43.7 106-28 106.4 27.1.7 65.1-50.6 95-92.9 38.8-54.9 82.8-109.2 107.3-104.2 3 .1 5 1.7 6.1 4.6 10.7 27.9-65.8 174.3-122.4 192.5" stroke-width="5.625"/>
    <path d="m383 281.9c-11.5 21.5-39 69.9-54.2 94.8" stroke-width="8.4375"/>
    <path d="m272.1 429.8c17.6-7.4 30.5-22.8 43.2-39.5 5.5-7.3 12-16.7 20.5-29.8" stroke-width="3.75"/>
    <path d="m377.5 295.4-54.8 90.9" stroke-width="5.625"/>
    <path d="m391.2 236.9c5.1 7.4-2.4 28.2-11.3 46.7" stroke-width="4.6875"/>
    <path d="m442.9 336.7c-45 11.8-87.6 94.9-51.7 94.5 29-.3 64.2-30.1 92.8-50l22.4 50.2" stroke-width="5.625"/>
    <path d="m506.4 431.5c41.8-69.4 112.3-60.1 102.4.6" stroke-width="5.624999"/>
    <path d="m270.4 431.3c-3.9 1.5-6.3-2.5-3.1-5.2 9.7-8.1 153.8-81.9 169-87.1" stroke-width="5.625"/>
    <path d="m751.6 235.1s-66.1 127.2-85.7 164.6c-8.4 18.4 1.8 31.1 17.2 31.3 18.2-.5 26.7-8.2 44.5-26.2 6.1-6.2 13.9-15.3 20.1-22.2 28.7-31.7 39-47 67.4-46.4 26.2-.4 33.6 31.6 33.6 45" stroke-width="5.625"/>
    <path d="m840.5 353.8c1.2 7.1 5.2 21.5 4 26" stroke-width="5.625002"/>
    <path d="m812.2 337.2c13-.1 22.2 8.8 25.1 17 3.4 9.6 4.7 20.4 4.2 26.9" stroke-width="4.6875"/>
   </g>
   <path d="m842 381.1 6.7.1" stroke-width="5.625002"/>
   <path d="m789.5 342.3c8.7-4.3 15.6-4.7 19.7-4.7 6.9.1 11.7.7 16.7 3.7" stroke-linejoin="round" stroke-width="3.75"/>
   <path d="m906.3 335.7-57.6 45.5" stroke-width="5.625001"/>
   <path d="m751.6 235.1-142.8 197" stroke-width="5.625002"/>
  </g>
 </g>
</svg>
