<svg height="210mm" viewBox="0 0 1052.4 744.1" width="297mm" xmlns="http://www.w3.org/2000/svg">
 <g fill="none" stroke-linecap="round">
  <g transform="translate(0 -308.26772)">
   <path d="m57.6 742.2h948.8" stroke="#969696" stroke-width="1.875"/>
   <g stroke="#000" stroke-dasharray="3.75 7.5" stroke-miterlimit="2" stroke-width=".9375">
    <path d="m58.3 844.1h948.8"/>
    <path d="m58.3 641.8h948.8"/>
    <path d="m58.3 540.6h948.8"/>
   </g>
  </g>
  <g stroke-width="5.625">
   <path d="m379.2 360.5-74.4 70.6" stroke="#000001" stroke-linejoin="round"/>
   <path d="m379.2 360.5c14.2-11.3 72.4-63.4 105.2-95 34.7-33.4 59-63.9 42.5-69.6-14.6-5-42.6 12.2-89.8 90.1-60.3 104.2-35 118.2-1.1 97.4 2.5-.7 12.4-9.2 22.4-19.3" stroke="#000" stroke-linejoin="round"/>
   <path d="m583.9 197.2s-116.1 160.3-125.5 167" stroke="#000"/>
   <g stroke-linejoin="round">
    <path d="m296.1 362c9.6-11.1 18.7-20.2 26.2-23.5 19.6-8.3 35 2.5 12.3 40.5l-29.8 52.1" stroke="#000001"/>
    <g stroke="#000">
     <path d="m602.7 348c-26.9 37.9-36.6 66.5-81.8 81.8-55 17.3 33.8-137 77.9-183.7 4.7-5 11.2-10.7 18.9-11.9"/>
     <path d="m601.7 336.6c1 .1 1.8.3 2.5.7.2.1.4.2.6.4 1.2.9 1.7 2.6 1 5.2-1.3 5.1-7.1 8-9.8 9-5.7 2-9.8-2.6-6.6-7.6 2-3.1 5.5-6.6 9.7-7.5.3-.1.6-.1.9-.1s.7-.1 1-.1c.8 0 1.6.1 2.4.3"/>
     <path d="m697.2 294-99.3 57"/>
    </g>
    <path d="m723.2 346c-15.9 11.5-107.1 53.7-130.3 74.8-34.6 31.6-43.9 58.1-40.9 65.8 1.1 2.9 17.7 21.8 57.3-41.8l87.9-150.8" stroke="#060000"/>
   </g>
  </g>
 </g>
</svg>
