<svg height="210mm" viewBox="0 0 1052.4 744.1" width="297mm" xmlns="http://www.w3.org/2000/svg">
 <g fill="none" stroke-linecap="round">
  <g transform="translate(0 -308.26772)">
   <path d="m57.6 742.2h948.8" stroke="#969696" stroke-width="1.875"/>
   <g stroke="#000" stroke-dasharray="3.75 7.5" stroke-miterlimit="2" stroke-width=".9375">
    <path d="m58.3 844.1h948.8"/>
    <path d="m58.3 641.8h948.8"/>
    <path d="m58.3 540.6h948.8"/>
   </g>
  </g>
  <g stroke-linejoin="round" stroke-width="5.625">
   <path d="m471.9 334.9c-40.3 12.4-78.8 81-60.6 94.2 2.3 2 7.4 2.3 14.6.7 5.6-1.3 14.4-5.2 25.3-13.8" stroke="#000"/>
   <path d="m451.2 416c10.5-7.8 52.3-64.2 56.5-67.7" stroke="#060000"/>
   <g stroke="#000">
    <ellipse cx="199.69023" cy="604.59827" rx="25.728558" ry="20.371416" transform="matrix(.79083574 -.61202846 .61202846 .79083574 0 0)"/>
    <path d="m507.7 348.3c18.8-29 45-59.3 79.6-64.4 25.2-3.6 41.5 13.2 31.1 46.6-.4 1.2 77.3-53.9 77.3-53.9"/>
    <path d="m700.4 331c17.9-4.9 27.5-16.7 27.3-25.9-1.1-20.7-47.4-26.8-49-48.9-.3-8.7 9.9-17.8 19.6-20.3 15.9-4 23.4 4.5 19.6 15.9-2 6.1-6.7 13.8-17.4 22-2.4 1.8-4.8 2.9-4.8 2.9"/>
   </g>
  </g>
 </g>
</svg>
