<svg height="210mm" viewBox="0 0 1052.4 744.1" width="297mm" xmlns="http://www.w3.org/2000/svg">
 <g fill="none" stroke-linecap="round">
  <g transform="translate(0 -308.26772)">
   <path d="m57.6 742.2h948.8" stroke="#969696" stroke-width="1.875"/>
   <g stroke="#000" stroke-dasharray="3.75 7.5" stroke-miterlimit="2" stroke-width=".9375">
    <path d="m58.3 844.1h948.8"/>
    <path d="m58.3 641.8h948.8"/>
    <path d="m58.3 540.6h948.8"/>
   </g>
  </g>
  <g stroke="#000">
   <g stroke-linejoin="round">
    <path d="m393 336-43.2 78.1-3.3 9.2" stroke-width="6.5625"/>
    <path d="m388.2 336-44.6 81.7" stroke-width="6.5625"/>
    <g stroke-width="5.625">
     <path d="m393 335.6h-9.3"/>
     <path d="m297.5 431 86.3-95.5-39 72.3c-8.4 15.5 5 26.1 21.5 22.2 10.1-2.1 46.3-23.3 76-41.9"/>
    </g>
   </g>
   <path d="m353.6 410.2c-4.3 7.3-5.9 18.8 4 19.7" stroke-width="3.75"/>
   <path d="m442.2 388.2-66.8 145" stroke-width="5.625"/>
  </g>
  <path d="m519.7 426.1c-45.9 38.7-104.2 89.7-89.2 105 11.4 10.6 69.4-24.4 95.7-134.9 20.3-90.6 58-149.8 92.8-161.4" stroke="#060000" stroke-linejoin="round" stroke-width="5.625"/>
  <g stroke="#000">
   <path d="m691.8 239.8c-48 60-85.3 117-108.1 178.2" stroke-width="5.625"/>
   <path d="m680.8 249.9c-38.3 44.9-72.9 96.9-94.8 156.8" stroke-width="7.5"/>
   <path d="m710 237.2c-12-5.1-22.3 10.8-27.8 15.9" stroke-width="3.75"/>
   <path d="m588.4 405.5c-3 9.2-6.3 20-.7 24.5" stroke-width="5.625"/>
   <path d="m564.7 390.4c-11.7 9.2-28.2 22.3-45 35.7" stroke-linejoin="round" stroke-width="5.625"/>
   <path d="m749.2 235.1s-54.3 84.7-73.9 113.2c-23 33.3-61.2 78-78 82.6-3.3.9-7.1.8-10.3-1.1-11.1-7.2-7.2-36.4 31.4-103.1 47.2-77.9 75.2-96.6 89.8-91.6 32 11-89.9 117.4-143.6 155.2" stroke-width="5.624999"/>
  </g>
 </g>
</svg>
