<svg height="210mm" viewBox="0 0 1052.4 744.1" width="297mm" xmlns="http://www.w3.org/2000/svg">
 <g fill="none" stroke-linecap="round">
  <g transform="translate(-1028.5714 -47.10701)">
   <path d="m1081.7 451.4h948.9" stroke="#969696" stroke-width="1.875"/>
   <g stroke="#000" stroke-dasharray="3.75 7.5" stroke-miterlimit="2" stroke-width=".9375">
    <path d="m1082.4 553.3h948.9"/>
    <path d="m1082.4 350.9h948.9"/>
    <path d="m1082.4 249.7h948.9"/>
   </g>
  </g>
  <g stroke="#000">
   <g stroke-width="5.625">
    <path d="m275.5 365.9 118.1-136.7c37-42.8 95.6-26.7 21.7 22.7 34-13.7 18.9 5.3 5 28.2l-71.4 120.4 34.5-36.5" stroke-linejoin="round"/>
    <path d="m383.4 364c3-4.3 38.5-41.6 44.7-46.6 23.7-19.2 60.9-14.6 37.5 14.4-27.4 33.8-45.5 50.2-39.4 63.9 4.2 9.5 21.6 5 36.5-3.7l16.2-9.5" stroke-linejoin="round"/>
    <path d="m466.5 309c14.5 10.1 4.3 27.8-12.4 44.2-14.4 14-23.4 26.4-29.5 38.7"/>
    <path d="m466.5 309c.8-1.1 3.9 6.1.7 14.2-3.2 8.4-12.8 17.8-18.3 22.9-10.8 10.1-30.6 29-24.3 45.7"/>
   </g>
   <g stroke-width="2.8125">
    <path d="m457.9 307.3c11.3 1.3 8.8 6.5 9.1 11"/>
    <path d="m429.7 384.6c-2.7 4.9-3.8 12 2.3 14.5"/>
    <path d="m422 385.9c-.1 5.7 2.9 11.5 4.9 13.1"/>
   </g>
   <g stroke-linejoin="round">
    <path d="m478.9 382.6c0-.1 4.8-3.4 11.7-7.2 15.8-8.7 42.7-20.1 48.2-.4 7.7 27.7 12.1 36.6 33.6 20.7 12-8.9 19.4-22 25-30.8" stroke-width="5.625"/>
    <path d="m597.4 364.8 98.1-159.9c-1.5 11.9-1.3 17.8 4.1 22.2 15.1 12.2 121.8-2.3 121.8-2.3" stroke-width="5.625"/>
    <path d="m432.7 250.3-88.2 148.2" stroke-width="7.5"/>
    <path d="m427.5 253.3-91.3 147.5" stroke-width="5.625"/>
   </g>
   <path d="m336.2 400.8 12.8-.3" stroke-width="5.625"/>
   <path d="m419.5 251c9.2-2.2 6.1 6.5.4 13" stroke-width="3.75"/>
   <ellipse cx="-2.08488" cy="478.10898" rx="25.728558" ry="20.371416" stroke-linejoin="round" stroke-width="5.625" transform="matrix(.79083574 -.61202846 .61202846 .79083574 0 0)"/>
  </g>
 </g>
</svg>
