<svg height="210mm" viewBox="0 0 1052.4 744.1" width="297mm" xmlns="http://www.w3.org/2000/svg">
 <g fill="none" stroke-linecap="round">
  <g transform="translate(0 -308.26772)">
   <path d="m57.6 742.2h948.8" stroke="#969696" stroke-width="1.875"/>
   <g stroke="#000" stroke-dasharray="3.75 7.5" stroke-miterlimit="2" stroke-width=".9375">
    <path d="m58.3 844.1h948.8"/>
    <path d="m58.3 641.8h948.8"/>
    <path d="m58.3 540.6h948.8"/>
   </g>
  </g>
  <g stroke="#000">
   <path d="m564.1 234.9s-59.4 127.4-77.2 165.7c-7.5 18.8 3.1 31 18.7 30.5 19.6-.7 31.5-14.3 43.2-28.3 4.8-5.7 11.8-14.6 18.8-23.7 12.2-15.9 21.7-27.7 21.7-27.7" stroke-linejoin="round" stroke-width="5.625"/>
   <ellipse cx="683.82574" cy="-173.30109" rx="4.609393" ry="6.862875" stroke-linejoin="round" stroke-width="5.625" transform="matrix(.72846687 .68508103 -.68508103 .72846687 0 0)"/>
   <path d="m617.4 347.5c-8.4 5.2-29 12.3-37.7 9.4" stroke-width="5.625002"/>
   <g stroke-linejoin="round">
    <ellipse cx="661.48914" cy="-146.32478" rx="5.271423" ry="7.848564" stroke-width="14.034715" transform="matrix(.72846687 .68508103 -.68508103 .72846687 0 0)"/>
    <path d="m564.1 234.9-175.4 297.8" stroke-width="5.625"/>
   </g>
  </g>
 </g>
</svg>
