<svg height="210mm" viewBox="0 0 1052.4 744.1" width="297mm" xmlns="http://www.w3.org/2000/svg">
 <g fill="none" stroke-linecap="round">
  <g transform="translate(0 -308.26772)">
   <path d="m57.6 742.2h948.8" stroke="#969696" stroke-width="1.875"/>
   <g stroke="#000" stroke-dasharray="3.75 7.5" stroke-miterlimit="2" stroke-width=".9375">
    <path d="m58.3 844.1h948.8"/>
    <path d="m58.3 641.8h948.8"/>
    <path d="m58.3 540.6h948.8"/>
   </g>
  </g>
  <g stroke="#000" stroke-linejoin="round">
   <path d="m563.8 307.9s-111.4 85.2-134.6 106.3c-34.6 31.6-43.9 58.1-40.9 65.8 1.1 2.9 17.7 21.8 57.3-41.8l88-150.7" stroke-width="5.625"/>
   <path d="m553 382.6c56.7-20.6 90.2-142 10.8-74.7" stroke-width="5.419139"/>
   <g stroke-width="5.625">
    <path d="m533.6 287.4-169 143.9"/>
    <path d="m791.5 359.5c-83.9 11-229.4 15.5-239.4 19.1-3.9 1.4-3.2 4.2.9 4"/>
   </g>
  </g>
 </g>
</svg>
