<svg height="210mm" viewBox="0 0 1052.4 744.1" width="297mm" xmlns="http://www.w3.org/2000/svg">
 <g fill="none" stroke-linecap="round">
  <g transform="translate(0 -308.26772)">
   <path d="m57.6 742.2h948.8" stroke="#969696" stroke-width="1.875"/>
   <g stroke="#000" stroke-dasharray="3.75 7.5" stroke-miterlimit="2" stroke-width=".9375">
    <path d="m58.3 844.1h948.8"/>
    <path d="m58.3 641.8h948.8"/>
    <path d="m58.3 540.6h948.8"/>
   </g>
  </g>
  <g stroke="#000" stroke-linejoin="round" stroke-width="5.625">
   <path d="m255.9 430.9c10.6-12.1 23.1-29.4 40-30.3 16-.6 17.1 30.9 34.9 30.4 7.2-.2 17.4-1.5 26.6-3.9"/>
   <path d="m513.7 388.7-156.3 38.5"/>
   <path d="m513.7 388.7c2.5-1 7.5-1.4 9.8-1.7 14.9-1.9 23.1 10.8 3.7 42.9l-31.5 52.1 88.4-96.1"/>
   <path d="m584.1 385.9 16 45.9"/>
   <path d="m600.1 431.8 66.2-90.4"/>
   <path d="m666.3 341.4c21.6-28.9 36.1-52.4 56.9-56.8 10.7-2.7 14.3.7 18.7 3.2 7.6 4.3 8 17.2-6 41.5l-29.8 52.1"/>
  </g>
 </g>
</svg>
