<svg height="210mm" viewBox="0 0 1052.4 744.1" width="297mm" xmlns="http://www.w3.org/2000/svg">
 <g fill="none" stroke-linecap="round">
  <g transform="translate(0 -308.26772)">
   <path d="m57.6 742.2h948.8" stroke="#969696" stroke-width="1.875"/>
   <g stroke="#000" stroke-dasharray="3.75 7.5" stroke-miterlimit="2" stroke-width=".9375">
    <path d="m58.3 844.1h948.8"/>
    <path d="m58.3 641.8h948.8"/>
    <path d="m58.3 540.6h948.8"/>
   </g>
  </g>
  <g stroke="#000">
   <g stroke-linejoin="round" stroke-width="5.625">
    <path d="m471.3 333.2-49.9 97.9"/>
    <path d="m293.8 431c9.7-10.1 32.5-30.9 51-47.8l33.3 47.9 93.2-97.8"/>
    <path d="m344.9 383.2 24 48"/>
    <path d="m354.3 383.2 23.8 47.9"/>
    <path d="m350.4 383.1 24 48"/>
   </g>
   <path d="m347.1 382.1h7.1" stroke-width="3.75"/>
   <path d="m370.5 432.1h7.1" stroke-width="3.75"/>
   <g stroke-linejoin="round" stroke-width="5.625">
    <path d="m421.4 431.1 90.9-46.8 20 47.9 53.3-95.3"/>
    <path d="m596.1 371c-7.2-.1-11.7-10.5-10.5-34.2"/>
    <path d="m596.1 371c14.8-.3 62-34 78.8-34.8 16-.6 21.6 31 32.6 30.7 7.2-.2 12.4-7.6 16.7-13"/>
   </g>
  </g>
 </g>
</svg>
