<svg height="210mm" viewBox="0 0 1052.4 744.1" width="297mm" xmlns="http://www.w3.org/2000/svg">
 <g fill="none" stroke-linecap="round">
  <g transform="translate(0 -308.26772)">
   <path d="m57.6 742.2h948.8" stroke="#969696" stroke-width="1.875"/>
   <g stroke="#000" stroke-dasharray="3.75 7.5" stroke-miterlimit="2" stroke-width=".9375">
    <path d="m58.3 844.1h948.8"/>
    <path d="m58.3 641.8h948.8"/>
    <path d="m58.3 540.6h948.8"/>
   </g>
  </g>
  <g stroke="#000002" stroke-linejoin="round" stroke-width="5.625">
   <path d="m610.6 336.3-53.9 95"/>
   <path d="m610.6 336.3h-10.6"/>
   <path d="m605 336.4-53.9 95"/>
   <path d="m556.6 431.3h-10.6"/>
   <path d="m600 336.4-53.9 95 11-.1"/>
   <path d="m824.3 336.1c-36.9 32.8-75.6 48.7-117.8 47.4-34.2-1-61.6-14.2-61.1-47.8l-88.4 95.5"/>
   <path d="m600 336.4-120 95"/>
   <path d="m200.8 431.9c6.9-7.3 21.1-25.6 40.5-25.1 19.4.4 15.4 25 33.9 25.2 9 .6 25.2-4 52.3-15.2 22.5-9 207.1-80.2 207.1-80.2l-54.6 94.7"/>
  </g>
 </g>
</svg>
