<svg height="210mm" viewBox="0 0 1052.4 744.1" width="297mm" xmlns="http://www.w3.org/2000/svg">
 <g fill="none" stroke-linecap="round">
  <g transform="translate(0 -308.26772)">
   <path d="m57.6 742.2h948.8" stroke="#969696" stroke-width="1.875"/>
   <g stroke="#000" stroke-dasharray="3.75 7.5" stroke-miterlimit="2" stroke-width=".9375">
    <path d="m58.3 844.1h948.8"/>
    <path d="m58.3 641.8h948.8"/>
    <path d="m58.3 540.6h948.8"/>
   </g>
  </g>
  <g stroke="#000">
   <path d="m179.8 431.1c4.9-1 9.7-4.3 11-5 38.7-22.3 61.1-90.2 37.9-90.6-10-.2-19.6 7.2-28.8 16.1-6 5.8-13.1 13.8-19.7 21.3" stroke-linejoin="round" stroke-width="5.625002"/>
   <path d="m500.9 436.4-70.3 44.3" stroke-width="5.625001"/>
   <g stroke-linejoin="round">
    <path d="m477.1 385.3-46.6 95.4" stroke-width="5.624999"/>
    <path d="m179.8 431.1c-5.7 1.4-6-2.4-3.6-4.4 8.6-7.2 32.9-5.8 300.9-41.3" stroke-width="5.624999"/>
    <path d="m771.9 432c5.4-3.3 11.7-10.5 6.5-17.1-2.6-3.3-4-4.5-11.9-4.4l-135 .6c-5.8 0-12.7.1-15.9-.7-9.6-2.4-7.9-13.2 0-24" stroke-width="5.625"/>
    <ellipse cx="953.8764" cy="-324.44803" rx="5.271424" ry="7.848564" stroke-width="14.034715" transform="matrix(.72846687 .68508103 -.68508103 .72846687 0 0)"/>
   </g>
  </g>
  <g stroke-width="5.625">
   <path d="m771.9 432c16.7-11.5 33-29 55.8-29.4 22.7-.4 27.5 25.7 44.8 28.6 9.2 1.5 34.1 2.2 47-4.1" stroke="#040000" stroke-linejoin="round"/>
   <path d="m615.6 386.4c-21.5 14-83.3 62.5-107.7 81.6-25.7 20.1-48.8 45.1-44 59.6.9 3 16.3 22.9 59.8-38.1 26.9-36.9 54.6-73.4 69.3-116.4 7.7-23 5.5-36.8-7.5-36.3-8.1.3-20.4 7.4-36.9 24.8" stroke="#000" stroke-linejoin="round"/>
   <path d="m426.6 553.7c24.8 33.5 76.4 32.1 103.1 0" stroke="#000"/>
  </g>
 </g>
</svg>
