<svg height="210mm" viewBox="0 0 1052.4 744.1" width="297mm" xmlns="http://www.w3.org/2000/svg">
 <g fill="none" stroke-linecap="round">
  <g transform="translate(0 -308.26772)">
   <path d="m57.6 742.2h948.8" stroke="#969696" stroke-width="1.875"/>
   <g stroke="#000" stroke-dasharray="3.75 7.5" stroke-miterlimit="2" stroke-width=".9375">
    <path d="m58.3 844.1h948.8"/>
    <path d="m58.3 641.8h948.8"/>
    <path d="m58.3 540.6h948.8"/>
   </g>
  </g>
  <g stroke-linejoin="round">
   <path d="m534.5 337.1c.6.1 1.2.2 1.6.4.1.1.3.2.4.3.8.6 1.1 1.6.6 3.3-.8 3.2-4.5 5.1-6.2 5.7-3.6 1.3-6.2-1.7-4.2-4.8 1.3-2 3.5-4.2 6.1-4.7.2 0 .4-.1.5-.1h.7c.5 0 1 .1 1.5.2" stroke="#000" stroke-width="4.638606"/>
   <path d="m532.1 339.5c.3 0 .5.1.7.2.1 0 .1.1.2.1.4.3.5.7.3 1.5-.4 1.4-2 2.3-2.7 2.6-1.6.6-2.8-.7-1.9-2.1.6-.9 1.5-1.9 2.7-2.1h.2.3c.2 0 .5 0 .7.1" stroke="#000" stroke-width="4.107574"/>
   <path d="m535 344.9c28-38.9 73.6-100.1 88.5-106.6 19.6-8.3 35 2.5 12.3 40.5l-31.2 52.3" stroke="#000008" stroke-width="5.625"/>
  </g>
  <path d="m538.9 342.8c-20.3 34.5-75 127.4-81.4 137.9-2.7 4.5-5.8 10.2-8.2 16.4-12.2 28.5-2.3 35.4 10.9 35.7 15.4.4 28.9-12.2 42.1-29.5" stroke="#000" stroke-width="5.625"/>
 </g>
</svg>
