<svg height="210mm" viewBox="0 0 1052.4 744.1" width="297mm" xmlns="http://www.w3.org/2000/svg">
 <g fill="none" stroke-linecap="round">
  <g transform="translate(0 -308.26772)">
   <path d="m57.6 742.2h948.8" stroke="#969696" stroke-width="1.875"/>
   <g stroke="#000" stroke-dasharray="3.75 7.5" stroke-miterlimit="2" stroke-width=".9375">
    <path d="m58.3 844.1h948.8"/>
    <path d="m58.3 641.8h948.8"/>
    <path d="m58.3 540.6h948.8"/>
   </g>
  </g>
  <g stroke="#000">
   <g stroke-linejoin="round" stroke-width="5.625">
    <path d="m522.9 430.8 45.1-47.1"/>
    <path d="m289.3 431.1c88.5-59.2 239.1-65.1 233.6-.2"/>
    <path d="m568 383.7 21.1 47.3"/>
    <path d="m589.1 431c39.1-16.8 89.3-38.9 126.5-71.1 7.2-6.4 9.4-13.1 4.9-19.5-2.1-3.3-7.1-4.4-10.6-4.4-21.7 1.1-38.3 26.7-46.3 39.7-47.4 77.5-2.2 59.5 29.8 32.6"/>
    <path d="m698.9 339c-4 2.4-12.8 10.7-18.1 16.7-5.4 6.1-8.5 11.6-14.1 20.4-14 23-21.3 32.2-23.7 45.9"/>
    <path d="m704.6 336.7c-11.5 1.2-23.1 10.3-31.4 19.3-8 8.7-11.8 14.5-15.1 20.1-12.5 20.4-21.9 46.7-12.3 53.8"/>
   </g>
   <path d="m708.6 337.5c-7.2.7-11.7 4.5-15.8 8.1" stroke-width="2.8125"/>
  </g>
 </g>
</svg>
