<svg height="210mm" viewBox="0 0 1052.4 744.1" width="297mm" xmlns="http://www.w3.org/2000/svg">
 <g fill="none" stroke-linecap="round">
  <g stroke="#969696" transform="translate(0 -308.26772)">
   <path d="m57.6 742.2h948.8" stroke-width="1.875"/>
   <g stroke-dasharray="3.75 7.5" stroke-miterlimit="2" stroke-width=".9375">
    <path d="m58.3 844.1h948.8"/>
    <path d="m58.3 641.8h948.8"/>
    <path d="m58.3 540.6h948.8"/>
   </g>
  </g>
  <g stroke="#000" stroke-linejoin="round">
   <path d="m619.9 335.7c-63.1 72.4-108.9 94.5-152.3 95-46.8.5-54.8-29.9-111-28.5-56.1 1.3-104.4 28.8-104.4 28.8" stroke-width="5.624999"/>
   <g stroke-width="5.625">
    <path d="m619.5 426.4c-11 5.5-41.3 2.3-54 7.2-18.1 7-37.9 21.1-56.2 39.3-26 26-43.4 48.2-27.9 58.4 9.9 5.5 23.1-1.1 49.3-43.2l89.2-152.4"/>
    <ellipse cx="739.27509" cy="-116.86059" rx="4.609393" ry="6.862875" transform="matrix(.72846687 .68508103 -.68508103 .72846687 0 0)"/>
    <path d="m619.5 426.4c13.2 14.1 37.9-22.6 60.6-22.6 17.4-.7 18.1 27.1 34.6 27.3 17.1.2 49.5-19 78.9-44.8"/>
   </g>
  </g>
 </g>
</svg>
