<svg height="210mm" viewBox="0 0 1052.4 744.1" width="297mm" xmlns="http://www.w3.org/2000/svg">
 <g fill="none" stroke-linecap="round">
  <g transform="translate(0 -308.26772)">
   <path d="m57.6 742.2h948.8" stroke="#969696" stroke-width="1.875"/>
   <g stroke="#000" stroke-dasharray="3.75 7.5" stroke-miterlimit="2" stroke-width=".9375">
    <path d="m58.3 844.1h948.8"/>
    <path d="m58.3 641.8h948.8"/>
    <path d="m58.3 540.6h948.8"/>
   </g>
  </g>
  <g stroke="#000">
   <g stroke-linejoin="round">
    <path d="m424.5 336.4-43.2 78.1-3.3 9.2" stroke-width="6.5625"/>
    <path d="m419.7 336.4-44.6 81.7" stroke-width="6.5625"/>
    <g stroke-width="5.625">
     <path d="m424.5 336h-9.3"/>
     <path d="m328.9 431.4 86.3-95.5-39 72.3c-7.1 13.2 1.4 22.7 14.2 23 2.3.1 4.7-.2 7.3-.8 12.6-3 37.5-15.6 66.8-46.2"/>
    </g>
   </g>
   <path d="m385.1 410.6c-4.3 7.3-5.9 18.8 4 19.7" stroke-width="3.75"/>
   <g stroke-linejoin="round" stroke-width="5.625">
    <path d="m682.5 347a19.2 25.1 41.6 0 1 -14.3 31.3 19.2 25.1 41.6 0 1 -27.6-6.8 19.2 25.1 41.6 0 1 14.3-31.3 19.2 25.1 41.6 0 1 27.6 6.8z"/>
    <path d="m464.4 384.3 17.5 47.4 174.8-92.4"/>
    <path d="m721.7 284-70.3 58.6"/>
   </g>
  </g>
 </g>
</svg>
