<svg height="210mm" viewBox="0 0 1052.4 744.1" width="297mm" xmlns="http://www.w3.org/2000/svg">
 <g fill="none" stroke-linecap="round">
  <g transform="translate(0 -308.26772)">
   <path d="m57.6 742.2h948.8" stroke="#969696" stroke-width="1.875"/>
   <g stroke="#000" stroke-dasharray="3.75 7.5" stroke-miterlimit="2" stroke-width=".9375">
    <path d="m58.3 844.1h948.8"/>
    <path d="m58.3 641.8h948.8"/>
    <path d="m58.3 540.6h948.8"/>
   </g>
  </g>
  <g stroke="#000" stroke-linejoin="round" stroke-width="5.625">
   <path d="m422.9 419.3s127.9-120.6 148-135.3"/>
   <path d="m422.9 419.3c-33.4 26.5-121.7 93.1-95.9 111.7 11.6 7.1 23.5-6.1 51.1-40.2 24.4-32.4 54.6-73.9 69.3-116.9 7.5-21.6 4.8-37-7.8-37.8-12.5-.8-26.4 13.6-39.2 28.5"/>
   <path d="m570.9 284.1-39 72.4c-7.5 13.9 2.4 23.8 16.4 23"/>
   <path d="m548.2 379.4c19.4-.5 35.4-13.4 84.6-44l22.1 43.8"/>
  </g>
 </g>
</svg>
