<svg height="210mm" viewBox="0 0 1052.4 744.1" width="297mm" xmlns="http://www.w3.org/2000/svg">
 <g fill="none" stroke-linecap="round">
  <g transform="translate(0 -308.26772)">
   <path d="m57.6 742.2h948.8" stroke="#969696" stroke-width="1.875"/>
   <g stroke="#000" stroke-dasharray="3.75 7.5" stroke-miterlimit="2" stroke-width=".9375">
    <path d="m58.3 844.1h948.8"/>
    <path d="m58.3 641.8h948.8"/>
    <path d="m58.3 540.6h948.8"/>
   </g>
  </g>
  <g stroke="#000">
   <g stroke-linejoin="round" stroke-width="5.625">
    <path d="m452.4 383.5c27.7-2.5 138.1-118.9 158-134.5"/>
    <path d="m713.7 423.9c-58.7 10.3-152.2 8.9-175.7 1.2-52.6-13.3 24.3-124.7 69.9-172.9 4.9-5.1 16.6-15.2 24-18.1"/>
    <path d="m368.2 387.6s104.3-45.5 110-49c7.2-4.5 15.1-9 20.2-13.4 12.8-11.2 20.7-24.2 16.7-30.9-5.7-9.7-34.7-8.6-58.5 30.7-26.3 43.1-17.7 60.3-4.2 58.6"/>
   </g>
   <path d="m493.9 292.1c-26.4 22.5-40.2 49.3-52.6 77.8" stroke-width="4.6875"/>
   <path d="m488.2 295.6c-17.9 10.4-41.1 45.1-46.5 68.6" stroke-width="4.6875"/>
   <path d="m448.2 357.6c-4.1 10-8.7 21.8 0 24.5" stroke-width="2.8125"/>
   <path d="m499.2 290.9c-6.7 2.3-11.4 7.8-12 8.5" stroke-width="2.8125"/>
   <path d="m484.8 300.3c-28 20.5-28.9 42.2-43.4 69.6" stroke-width="4.6875"/>
   <g stroke-linejoin="round" stroke-width="5.625">
    <ellipse cx="43.743343" cy="550.67413" rx="25.728558" ry="20.371416" transform="matrix(.79083574 -.61202846 .61202846 .79083574 0 0)"/>
    <path d="m719.3 411.8c.8.1 1.4.2 1.9.5.2.1.3.2.5.3.9.7 1.3 2 .8 4-1 3.9-5.4 6.1-7.5 6.9-4.3 1.6-7.6-2-5.1-5.9 1.6-2.4 4.2-5.1 7.4-5.7.2 0 .4-.1.7-.1s.5-.1.8-.1c.6 0 1.2.1 1.9.3"/>
   </g>
  </g>
 </g>
</svg>
