<svg height="260mm" viewBox="0 0 1771.7 921.3" width="500mm" xmlns="http://www.w3.org/2000/svg">
 <g fill="none" stroke-linecap="round">
  <g transform="translate(0 -131.10237)">
   <path d="m35.2 529.3h1710.2" stroke="#969696" stroke-width="1.875"/>
   <g stroke="#000" stroke-dasharray="3.75 7.5" stroke-miterlimit="2" stroke-width=".9375">
    <path d="m36 631.3h1710.1"/>
    <path d="m36 428.9h1710.1"/>
    <path d="m36 327.7h1710.1"/>
   </g>
   <path d="m35.2 933.5h1710.2" stroke="#969696" stroke-width="1.875"/>
   <g stroke="#000" stroke-dasharray="3.75 7.5" stroke-miterlimit="2" stroke-width=".9375">
    <path d="m36 1035.4h1710.1"/>
    <path d="m36 833.1h1710.1"/>
    <path d="m36 731.9h1710.1"/>
    <path d="m37.5 221.4h1710.1"/>
   </g>
  </g>
  <g stroke-width="5.625" transform="translate(0 177.16535)">
   <g stroke="#000">
    <g stroke-linejoin="round">
     <path d="m1313.6 604.4c3.6-3.6 29.7-24.9 39.5-17.4 6.1 4.7 8.9 37.6 21.2 36.1 8.8-1.1 10.4-1.4 17.1-5.6 4.4-2.8 14.8-12.6 14.8-12.6"/>
     <path d="m1341.3 586.9c11.6-4.7 11.4 6.3 12.9 22.9 1 10.8 7.8 13.7 20.1 13.3"/>
     <path d="m1341.3 586.9c5.4-2.4 19-3.6 22.7 15 2.6 13.3 4.7 19.7 13.9 20.5"/>
     <path d="m1353.3 589.5c6.8 12.3 1 30.9 15.5 31.8"/>
     <path d="m1191 623.9c50.4-65.5 116.6-60.3 98.2-1.3-.4 1.2 24.4-18.2 24.4-18.2"/>
     <path d="m1406.2 604.8c7.5-5.2 91.3-147 94-150.7 9-12.3 18.4-28.1 34.4-27.3 13.3.7 15.9 26.9 31.9 27.9 5.5.3 12.6-3.8 22.2-15.5"/>
    </g>
    <path d="m1157.6 527.3-37.3 64.5"/>
    <g stroke-linejoin="round">
     <ellipse cx="534.46356" cy="1172.2352" rx="25.728558" ry="20.371416" transform="matrix(.79083574 -.61202846 .61202846 .79083574 0 0)"/>
     <path d="m305.7 603.7c3.6-3.6 29.7-24.9 39.5-17.4 6.1 4.7 8.9 37.6 21.2 36.1 8.8-1.1 10.4-1.4 17.1-5.6 4.4-2.8 14.8-12.6 14.8-12.6"/>
     <path d="m333.4 586.2c11.6-4.7 11.4 6.3 12.9 22.9 1 10.8 7.8 13.7 20.1 13.3"/>
     <path d="m333.4 586.2c5.4-2.4 19-3.6 22.7 15 2.6 13.3 4.7 19.7 13.9 20.5"/>
     <path d="m345.5 588.9c6.8 12.3 1 30.9 15.5 31.8"/>
     <path d="m183.1 623.3c25.6-33.4 55.4-48.2 76-46.9 19.9 1.3 31.2 17.5 22.2 46.4l24.4-19.1"/>
     <path d="m398.3 604.2c7.5-5.2 91.3-147 94-150.7 9-12.3 18.4-28.1 34.4-27.3 17.9.9 16 70.9 53.9 25.2"/>
     <path d="m168 527c-39.4 9.7-46.7 24.2-56.8 40.7l-28.7 55"/>
     <path d="m859.4 605.1c3.6-3.6 29.7-24.9 39.5-17.4 6.1 4.7 8.9 37.6 21.2 36.1 8.8-1.1 10.4-1.4 17.1-5.6 4.4-2.8 14.8-12.6 14.8-12.6"/>
     <path d="m887.1 587.5c11.6-4.7 11.4 6.3 12.9 22.9 1 10.8 7.8 13.7 20.1 13.3"/>
     <path d="m887.1 587.5c5.4-2.4 19-3.6 22.7 15 2.6 13.3 4.7 19.7 13.9 20.5"/>
     <path d="m899.2 590.2c6.8 12.3 1 30.9 15.5 31.8"/>
     <path d="m1087.9 426.6s-124.3 173.1-135.9 178.9"/>
     <path d="m736.8 624.6c50.4-65.5 116.6-60.3 98.2-1.3-.4 1.2 24.4-18.2 24.4-18.2"/>
     <path d="m1087.9 426.6-39.4 96.6"/>
     <path d="m602.8 622.9 66.1-94.6 24 46.3"/>
    </g>
    <path d="m1085.9 611.1c-1.9 9.2-7.2 20-15.2 26.7"/>
    <path d="m558.2 611.1c-1.9 9.2-7.2 20-15.2 26.7"/>
    <g stroke-linejoin="round">
     <path d="m853.4 199.3c3.6-3.6 29.7-24.9 39.5-17.4 6.1 4.7 8.9 37.6 21.2 36.1 8.8-1.1 10.4-1.4 17.1-5.6 4.4-2.8 14.8-12.6 14.8-12.6"/>
     <path d="m881.1 181.8c11.6-4.7 11.4 6.3 12.9 22.9 1 10.8 7.8 13.7 20.1 13.3"/>
     <path d="m881.1 181.8c5.4-2.4 19-3.6 22.7 15 2.6 13.3 4.7 19.7 13.9 20.5"/>
     <path d="m893.1 184.5c6.8 12.3 1 30.9 15.5 31.8"/>
     <path d="m1057.4 20.9s-100 173.1-111.5 178.9"/>
     <path d="m730.8 218.9c50.4-65.5 116.6-60.3 98.2-1.3-.4 1.2 24.4-18.2 24.4-18.2"/>
     <ellipse cx="821.45081" cy="686.06451" rx="21.31041" ry="16.873207" transform="matrix(.79083574 -.61202846 .61202846 .79083574 0 0)"/>
    </g>
    <path d="m1163.4-158.4-106 179.3"/>
    <g stroke-linejoin="round">
     <path d="m607.6 172.9c40 3 57.6-35.3 56.6-44.3-1.4-12.3-29.3-4.3-53.1 35-30.8 50.4-20.4 58.9-.6 51.6 7.3-2.7 22.1-10.9 30.4-16.5"/>
     <path d="m610.7 269.9c16.8-.5 33-21.3 35-47.2 2.1-26.8 46.7-54.9 36.3-48.7l-41.1 24.7"/>
     <path d="m257.3 200.3c3.6-3.6 29.7-24.9 39.5-17.4 6.1 4.7 8.9 37.6 21.2 36.1 8.8-1.1 10.4-1.4 17.1-5.6 4.4-2.8 14.8-12.6 14.8-12.6"/>
     <path d="m285 182.8c11.6-4.7 11.4 6.3 12.9 22.9 1 10.8 7.8 13.7 20.1 13.3"/>
     <path d="m285 182.8c5.4-2.4 19-3.6 22.7 15 2.6 13.3 4.7 19.7 13.9 20.5"/>
     <path d="m297 185.5c6.8 12.3 1 30.9 15.5 31.8"/>
     <path d="m461.4 21.8s-100 173.1-111.5 178.9"/>
    </g>
   </g>
   <g stroke-linejoin="round">
    <path d="m531.4 21.2c-44.3 33.1-114.2 84-70.1.6" stroke="#000001"/>
    <g stroke="#000">
     <path d="m134.7 219.8c50.4-65.5 116.6-60.3 98.2-1.3-.4 1.2 24.4-18.2 24.4-18.2"/>
     <path d="m56.8 185.8 33.9-16-27.4 48.9"/>
     <path d="m1453 199c3.6-3.6 29.7-24.9 39.5-17.4 6.1 4.7 8.9 37.6 21.2 36.1 8.8-1.1 10.4-1.4 17.1-5.6 4.4-2.8 14.8-12.6 14.8-12.6"/>
     <path d="m1480.7 181.5c11.6-4.7 11.4 6.3 12.9 22.9 1 10.8 7.8 13.7 20.1 13.3"/>
     <path d="m1480.7 181.5c5.4-2.4 19-3.6 22.7 15 2.6 13.3 4.7 19.7 13.9 20.5"/>
     <path d="m1492.8 184.2c6.8 12.3 1 30.9 15.5 31.8"/>
     <path d="m1657.1 20.6s-100 173.1-111.5 178.9"/>
    </g>
    <path d="m1727.2 20c-44.3 33.1-114.2 84-70.1.6" stroke="#000001"/>
    <g stroke="#000">
     <path d="m1330.4 218.5c50.4-65.5 116.6-60.3 98.2-1.3-.4 1.2 24.4-18.2 24.4-18.2"/>
     <path d="m1241.3 177.5 18.8 40.2"/>
    </g>
   </g>
   <g stroke="#000">
    <path d="m546.3 206.7c-1.9 9.2-7.2 20-15.2 26.7"/>
    <path d="m1178.4 206.7c-1.9 9.2-7.2 20-15.2 26.7"/>
   </g>
  </g>
 </g>
</svg>
