<svg height="210mm" viewBox="0 0 1052.4 744.1" width="297mm" xmlns="http://www.w3.org/2000/svg">
 <g fill="none" stroke-linecap="round">
  <g transform="translate(0 -308.26772)">
   <path d="m57.6 742.2h948.8" stroke="#969696" stroke-width="1.875"/>
   <g stroke="#000" stroke-dasharray="3.75 7.5" stroke-miterlimit="2" stroke-width=".9375">
    <path d="m58.3 844.1h948.8"/>
    <path d="m58.3 641.8h948.8"/>
    <path d="m58.3 540.6h948.8"/>
   </g>
  </g>
  <path d="m532.7 376.1s83.3-67.8 101.4-87.9c12.2-13.5 36.1-41.8 33-49.9-5.5-14.4-40.2 8.9-87.4 86.8-41.2 71.2-46.2 101.2-34.5 105.8 2.9 1.1 6.8.7 11.5-1 3.2-1.2 6.8-3 10.6-5.4 26.5-18.8 48.7-52.6 67.5-80.1" stroke="#000" stroke-linejoin="round" stroke-width="5.625"/>
  <path d="m632.3 336.9c.7.1 1.3.2 1.8.5.2.1.3.2.4.3.9.7 1.2 1.8.7 3.6-.9 3.6-5 5.6-6.9 6.3-4 1.4-6.9-1.8-4.6-5.4 1.4-2.2 3.9-4.6 6.8-5.2.2 0 .4-.1.6-.1h.7c.6 0 1.1.1 1.7.2" stroke="#030002" stroke-linejoin="round" stroke-width="5.625"/>
  <g stroke="#000">
   <g stroke-width="5.625">
    <g stroke-linejoin="round">
     <path d="m629.5 349.3c13.1 5.5 115.9-168.3 115.9-168.3l14.9 49.9"/>
     <path d="m296.5 432.1c50.4-65.5 116.6-60.3 98.2-1.3-.4 1.2 33.7-29.8 33.7-29.8"/>
     <path d="m428.4 401.1c53.7-37.8 171.5-154.5 139.5-165.5-14.6-5-40.2 8.9-87.4 86.8-55 95.1-39.6 120.8-10.5 104.2 14.2-7.1 38.2-29.6 62.7-50.5"/>
    </g>
    <path d="m553.7 236.9c-48 60-85.6 120.5-108.4 181.8"/>
   </g>
   <path d="m540.7 249c-38.3 44.9-70.9 94.9-92.8 154.8" stroke-width="7.5"/>
   <path d="m570.5 237.7c-14-7.4-23.9 9.5-26.4 12.4" stroke-width="3.75"/>
   <path d="m450.9 404.5c-3.1 18-5.3 23.3 11.4 24.1" stroke-width="5.625"/>
  </g>
 </g>
</svg>
