<svg height="210mm" viewBox="0 0 1052.4 744.1" width="297mm" xmlns="http://www.w3.org/2000/svg">
 <g fill="none" stroke-linecap="round">
  <g transform="translate(0 -308.26772)">
   <path d="m57.6 742.2h948.8" stroke="#969696" stroke-width="1.875"/>
   <g stroke="#000" stroke-dasharray="3.75 7.5" stroke-miterlimit="2" stroke-width=".9375">
    <path d="m58.3 844.1h948.8"/>
    <path d="m58.3 641.8h948.8"/>
    <path d="m58.3 540.6h948.8"/>
   </g>
  </g>
  <g stroke="#000">
   <g stroke-linejoin="round">
    <path d="m699.8 384.1 85.2-47.8 22.9 47.6" stroke-width="5.625"/>
    <path d="m354 431.6c40.6-13.2 97.6-42.1 121.8-65.6 10.8-10.5 12.4-22 7.9-27-5.4-6-30.7-3.9-55.3 36.8-25.4 41.6-22.8 55.9-10.2 56.1 20-.3 42.1-13.9 68.1-43.6 19.4-22.1 36-49.8 57.3-51.9" stroke-width="5.624999"/>
    <path d="m475 336.5c-13.1 1.2-26.3 9.8-34.4 19-9.1 10.3-11.9 13.6-18 22.9-10.2 17.6-22.2 41.6-10.2 51.9" stroke-width="5.625"/>
    <path d="m232.8 432c35.3-29.9 66.3-44.4 87.6-45.5 24.2-1.2 37.5 7.9 33.6 45" stroke-width="5.625"/>
    <path d="m339 392.8c10.4 5.8 10.8 27.3 10 38.1" stroke-width="6.5625"/>
    <path d="m326.5 386.5c16.4 3.3 19.2 32.7 18.3 45.3" stroke-width="4.6875"/>
   </g>
   <path d="m345.3 431.5 8.7.1" stroke-width="5.625"/>
   <path d="m313.9 388.1c13.6-2.1 22 2.5 25.4 11" stroke-linejoin="round" stroke-width="3.75"/>
   <path d="m466.2 338.4c-4 2.4-12.8 10.7-18.1 16.7-5.4 6.1-11.6 14-17.2 22.8-18.5 27.6-20 29.4-22 48" stroke-linejoin="round" stroke-width="5.625"/>
   <path d="m478.3 338c-7-1.3-13.2 2.5-18.2 7" stroke-width="2.8125"/>
   <path d="m423.8 391c-20.2 34.5-10.9 40.5-2.5 39.4" stroke-width="2.8125"/>
   <path d="m699.8 384.1c-2.8-30.1-18.4-47.1-42.5-47.5-36.9-.7-58.1 30.9-75.6 54.9-20.8 28.5-32.9 38.7-49.3 40.6-3.3.4-6.5 0-9.1-1-3.2-1.2-5.7-3.4-7.2-6.4-7.2-15.5 13.7-29.8 38-59.3 8.2-9.9 8.8-18.2 5.1-23.4-1.5-2.2-3.8-3.8-6.6-4.7-2.6-.9-5.7-1.2-9-.9" stroke-linejoin="round" stroke-width="5.625"/>
  </g>
 </g>
</svg>
