<svg height="210mm" viewBox="0 0 1052.4 744.1" width="297mm" xmlns="http://www.w3.org/2000/svg">
 <g fill="none" stroke-linecap="round">
  <g transform="translate(0 -308.26772)">
   <path d="m57.6 742.2h948.8" stroke="#969696" stroke-width="1.875"/>
   <g stroke="#000" stroke-dasharray="3.75 7.5" stroke-miterlimit="2" stroke-width=".9375">
    <path d="m58.3 844.1h948.8"/>
    <path d="m58.3 641.8h948.8"/>
    <path d="m58.3 540.6h948.8"/>
   </g>
  </g>
  <g stroke="#000" stroke-linejoin="round" stroke-width="5.625">
   <path d="m444.3 431.1c26.6-23.1 50.8-42 80.4-43 49-1.6 50.6 97.8 92.2 96 31.2-1.3 58.5-30.2 77.3-32.2 18.2-.7 20.7 32.8 36 33.3 8.2.3 12.7-4.8 17.8-9"/>
   <path d="m444.3 431.1c-36.2 27.9-102.6 84.8-84.7 100.7 9.9 5.5 23.1-1.1 49.3-43.2l89.2-152.4"/>
  </g>
 </g>
</svg>
