<svg height="210mm" viewBox="0 0 1052.4 744.1" width="297mm" xmlns="http://www.w3.org/2000/svg">
 <g fill="none" stroke-linecap="round">
  <g transform="translate(0 -308.26772)">
   <path d="m57.6 742.2h948.8" stroke="#969696" stroke-width="1.875"/>
   <g stroke="#000" stroke-dasharray="3.75 7.5" stroke-miterlimit="2" stroke-width=".9375">
    <path d="m58.3 844.1h948.8"/>
    <path d="m58.3 641.8h948.8"/>
    <path d="m58.3 540.6h948.8"/>
   </g>
  </g>
  <g stroke-linejoin="round" stroke-width="5.625">
   <g stroke="#000">
    <path d="m226.6 431.6c31.1-63.2 82.1-92.8 135-95.7 42.2-2.3 71.9 31.3 49.1 95.6"/>
    <path d="m410.8 431.5c3-4.3 70.7-92.1 80.8-104.5 11.5-14 31.6-40.5 50.8-40.8 15.3-.2 22.5 14.1 7.5 32.7-27.4 33.8-42.9 43.4-36.8 57 2 4.5 7.9 8.4 14 7.5 17.7-2.5 45.2-27.7 60.9-40.8"/>
    <path d="m588 342.6c22.5-19.7 49-40.1 62.6-40.5 24.7-.8 25.4 28.4 38 28.9 5.1.2 48.5.3 57.2-2.6"/>
   </g>
   <path d="m725 314.4c1 .1 1.8.3 2.5.7.2.1.4.2.6.4 1.2.9 1.7 2.6 1 5.2-1.3 5.1-7.1 8-9.8 9-5.7 2-9.8-2.6-6.6-7.6 2-3.1 5.5-6.6 9.7-7.5.3-.1.6-.1.9-.1s.7-.1 1-.1c.8 0 1.6.1 2.4.3" stroke="#030002"/>
   <path d="m753.2 312.8c1 .1 1.8.3 2.5.7.2.1.4.2.6.4 1.2.9 1.7 2.6 1 5.2-1.3 5.1-7.1 8-9.8 9-5.7 2-9.8-2.6-6.6-7.6 2-3.1 5.5-6.6 9.7-7.5.3-.1.6-.1.9-.1s.7-.1 1-.1c.8 0 1.6.1 2.4.3" stroke="#030002"/>
   <path d="m752.6 326.1c5.1.2 38.8-26.2 48.8-35.7" stroke="#000"/>
  </g>
 </g>
</svg>
