<svg height="210mm" viewBox="0 0 1052.4 744.1" width="297mm" xmlns="http://www.w3.org/2000/svg">
 <g fill="none" stroke-linecap="round">
  <g transform="translate(0 -308.26772)">
   <path d="m57.6 742.2h948.8" stroke="#969696" stroke-width="1.875"/>
   <g stroke="#000" stroke-dasharray="3.75 7.5" stroke-miterlimit="2" stroke-width=".9375">
    <path d="m58.3 844.1h948.8"/>
    <path d="m58.3 641.8h948.8"/>
    <path d="m58.3 540.6h948.8"/>
   </g>
  </g>
  <g stroke="#000">
   <path d="m387.7 256.7c24.3-33 69.3-34.5 37.2 20l-90 153.8 259.5-93.7" stroke-linejoin="round" stroke-width="5.625"/>
   <ellipse cx="347.87283" cy="621.65881" rx="62.130169" ry="44.633743" stroke-linejoin="round" stroke-width="5.625" transform="matrix(.88109295 -.47294313 .47294313 .88109295 0 0)"/>
   <path d="m657.2 361.3c-13.8 27.9-38.1 52.4-66.8 70.7" stroke-width="5.385754"/>
   <path d="m658.4 370.2c-15.9 21.3-33.1 41.5-54 58.5" stroke-width="5.385754"/>
   <path d="m657.5 376.7c-14.3 21.6-19.7 29.6-41.7 46.5" stroke-width="7.181006"/>
   <path d="m606.1 419.8c-10.1 9.6-24.3 12.2-31.1 10.7" stroke-width="3.590503"/>
   <path d="m649.2 347.4c2.2 2.5 8.7 12.2 1.3 24.5" stroke-width="3.590503"/>
   <g stroke-linejoin="round" stroke-width="5.625">
    <path d="m570.6 349.1 114.3-65.9"/>
    <path d="m684.9 283.2 20 47.9"/>
   </g>
  </g>
 </g>
</svg>
