<svg height="210mm" viewBox="0 0 1052.4 744.1" width="297mm" xmlns="http://www.w3.org/2000/svg">
 <g fill="none" stroke-linecap="round">
  <g transform="translate(0 -308.26772)">
   <path d="m57.6 742.2h948.8" stroke="#969696" stroke-width="1.875"/>
   <g stroke="#000" stroke-dasharray="3.75 7.5" stroke-miterlimit="2" stroke-width=".9375">
    <path d="m58.3 844.1h948.8"/>
    <path d="m58.3 641.8h948.8"/>
    <path d="m58.3 540.6h948.8"/>
   </g>
  </g>
  <g stroke="#000">
   <g stroke-width="5.625">
    <g stroke-linejoin="round">
     <path d="m533 428.8c2.4-1 4.9-2.4 7.9-4.5 10.7-7.8 28.2-37.2 32.5-44.8"/>
     <path d="m531.4 422.3c.6.1 1.1.2 1.5.4.1.1.3.1.4.2.7.6 1 1.5.6 3.1-.8 3-4.2 4.7-5.8 5.4-3.4 1.2-5.8-1.6-3.9-4.5 1.2-1.9 3.3-3.9 5.7-4.4.2 0 .3-.1.5-.1s.4-.1.6-.1c.5 0 1 .1 1.4.2"/>
     <path d="m573.3 379.5c14.4-23.3 25.7-43.3 47.7-43.5 15.5.8 21.6 8 4.7 42.5l-25.6 52.3"/>
    </g>
    <path d="m740.1 235.1-139.9 195.6"/>
    <g stroke-linejoin="round">
     <path d="m347.1 505.8c-6.1 16.5-1.8 26.1 13.7 27.9 7 .6 14.8-3.1 25.1-15.6 10.1-12.4 61-103.7 61-103.7"/>
     <ellipse cx="87.628456" cy="583.42554" rx="25.728558" ry="20.371416" transform="matrix(.79083574 -.61202846 .61202846 .79083574 0 0)"/>
    </g>
   </g>
   <path d="m405.4 418.4c-.3-9.3.4-14.6 6.3-22 3.6-4.5 8.8-8.3 16-11.1" stroke-width="5.624961"/>
   <path d="m409 423.7c-2-6.9-1.8-6.4-.7-11.6 1.6-7.6 6.1-13.5 12.5-18.7 3.2-2.6 6.9-5 10.9-7.3" stroke-width="6.599955"/>
   <path d="m426.1 391.8c5.3-3.7 10.3-5.8 16.3-3.5" stroke-width="2.849979"/>
   <path d="m420.2 429.6c-7.4-1.6-9.5-5.3-10.9-12.1" stroke-width="2.849979"/>
   <g stroke-width="5.625">
    <path d="m517.7 392.9-74.8 140.3"/>
    <path d="m517.7 392.9-89.3 36.3"/>
   </g>
  </g>
 </g>
</svg>
