<svg height="210mm" viewBox="0 0 1052.4 744.1" width="297mm" xmlns="http://www.w3.org/2000/svg">
 <g fill="none" stroke-linecap="round">
  <g transform="translate(0 -308.26772)">
   <path d="m57.6 742.2h948.8" stroke="#969696" stroke-width="1.875"/>
   <g stroke="#000" stroke-dasharray="3.75 7.5" stroke-miterlimit="2" stroke-width=".9375">
    <path d="m58.3 844.1h948.8"/>
    <path d="m58.3 641.8h948.8"/>
    <path d="m58.3 540.6h948.8"/>
   </g>
  </g>
  <g stroke="#000">
   <g stroke-linejoin="round">
    <g stroke-width="5.625">
     <path d="m484.7 347.7c-45.8 37.8-114 83.2-104.8 83.1"/>
     <path d="m484.7 347.7c23.7-19.2 60.9-14.6 37.5 14.4-27.4 33.8-45.8 50.4-39.4 63.9 3 6.5 25.2 8.1 36.5-3.7l18-18.8"/>
     <path d="m537.2 403.5 17.8-20.1 22.4 47.8"/>
    </g>
    <path d="m379.9 430.8c3 .3 9.7-4.2 11-5 10.7-6.1 20.2-15.8 27.8-26.6 22.6-32 30-70.5 1.3-63-8.2 2.1-23.9 17.4-38.8 43.5" stroke-width="5.419139"/>
    <path d="m347.5 334.8-39.4 73.1c-8.4 15.5 5 26.1 21.5 22.2 2.8-.7 9.2-2.6 14-6 14-9.7 30.2-33 37.6-44.4" stroke-width="5.625"/>
   </g>
   <path d="m688.5 233.4-111.1 197.8" stroke-width="5.625"/>
  </g>
 </g>
</svg>
