<svg height="210mm" viewBox="0 0 1052.4 744.1" width="297mm" xmlns="http://www.w3.org/2000/svg">
 <g fill="none" stroke-linecap="round">
  <g transform="translate(0 -308.26772)">
   <path d="m57.6 742.2h948.8" stroke="#969696" stroke-width="1.875"/>
   <g stroke="#000" stroke-dasharray="3.75 7.5" stroke-miterlimit="2" stroke-width=".9375">
    <path d="m58.3 844.1h948.8"/>
    <path d="m58.3 641.8h948.8"/>
    <path d="m58.3 540.6h948.8"/>
   </g>
  </g>
  <g stroke="#000" stroke-linejoin="round">
   <path d="m717.7 383.3 94.2-47.1" stroke-width="5.625"/>
   <path d="m817.6 480.6c14.8-7.7 30.4-16 28.9-34.4-1.8-21.5-51.2-39.8-58-62.6-3.5-11.7 8.2-30.9 23.4-47.3" stroke-width="5.624998"/>
   <path d="m250.6 502.3c-1.9 3.5-3.3 6.8-4.2 10-1.1 3.8-1.4 7.3-.8 10.3.7 3.5 3.8 7.3 6.5 8.7 2.7 1.5 9 2 12.4 1.2 3.5-.8 7.4-3 12.1-7.2 7.4-6.7 14.6-18.5 26.4-37.3 4.2-6.7 18.5-33 34.1-55.9 7.4-10.9 19.8-24.4 35.5-24.7 17.3-.3 25.3 14.2 33.8 21 8.1 7.7 23.7 1.8 58.7-14.1 13.6-6.2 228.7-107.5 238.2-111.6 23.3-10 40.8-18.9 53-11.3 6.6 4.7 6.3 16.8-7.5 39.8l-31.2 52.3" stroke-width="5.625"/>
  </g>
 </g>
</svg>
