<svg height="210mm" viewBox="0 0 1052.4 744.1" width="297mm" xmlns="http://www.w3.org/2000/svg">
 <g fill="none" stroke-linecap="round">
  <g transform="translate(0 -308.26772)">
   <path d="m57.6 742.2h948.8" stroke="#969696" stroke-width="1.875"/>
   <g stroke="#000" stroke-dasharray="3.75 7.5" stroke-miterlimit="2" stroke-width=".9375">
    <path d="m58.3 844.1h948.8"/>
    <path d="m58.3 641.8h948.8"/>
    <path d="m58.3 540.6h948.8"/>
   </g>
  </g>
  <g stroke="#000">
   <path d="m360.5 384.2 296.3-51.5c13.4-2.3 24.1-8.6 33.8-14.5 12.6-7.7 22.8-17.2 32.3-28.1 18.4-21.2 28.7-43.8 25.4-52.6-5.5-14.4-40.3 8.9-87.6 86.9-44.2 76.4-40.1 107.3-24.3 106.5 28-1.3 45.2-30.2 62.8-30.5 19.6-.3 19.2 30.8 38 30.9 21.1.1 27.1-9.7 83.8-47.8l22.5 47.8" stroke-linejoin="round" stroke-width="5.625"/>
   <path d="m730.1 240.6c-43.6 54.6-78.4 106.6-101.5 161.7" stroke-width="5.625"/>
   <path d="m719.1 250.6c-32.6 38.3-62.6 81.8-84.3 130.9" stroke-width="7.5"/>
   <path d="m747.9 239c-4.7-13.1-19.7 5.3-27 14.8" stroke-width="3.75"/>
   <g stroke-width="5.625">
    <path d="m631.7 395c-6.2 14.2-11.6 39 13.4 34.8"/>
    <g stroke-linejoin="round">
     <path d="m285 336.5-47.8 94.9"/>
     <path d="m237.2 431.4 90-95.1 33.3 47.9"/>
     <path d="m327.2 336.3 24 48"/>
     <path d="m336.7 336.3 23.8 47.9"/>
     <path d="m332.8 336.2 24 48"/>
    </g>
   </g>
   <g stroke-width="3.75">
    <path d="m327.1 335.3 9.5-.1"/>
    <path d="m351.1 385.2h9"/>
   </g>
  </g>
 </g>
</svg>
