<svg height="210mm" viewBox="0 0 1052.4 744.1" width="297mm" xmlns="http://www.w3.org/2000/svg">
 <g fill="none" stroke-linecap="round">
  <g transform="translate(0 -308.26772)">
   <path d="m57.6 742.2h948.8" stroke="#969696" stroke-width="1.875"/>
   <g stroke="#000" stroke-dasharray="3.75 7.5" stroke-miterlimit="2" stroke-width=".9375">
    <path d="m58.3 844.1h948.8"/>
    <path d="m58.3 641.8h948.8"/>
    <path d="m58.3 540.6h948.8"/>
   </g>
  </g>
  <g stroke="#000" stroke-width="5.625">
   <path d="m248.6 431c10.7 3 251.3-92.6 251.3-92.6" stroke-linejoin="round"/>
   <path d="m487.3 350 53.3-81.5" stroke-linejoin="round"/>
   <path d="m592 186.8-51.4 81.7"/>
   <g stroke-linejoin="round">
    <ellipse cx="474.39062" cy="137.368" rx="4.609393" ry="6.862875" transform="matrix(.72846687 .68508103 -.68508103 .72846687 0 0)"/>
    <path d="m525.9 346.1a19.2 25.1 41.6 0 1 -14.3 31.3 19.2 25.1 41.6 0 1 -27.6-6.8 19.2 25.1 41.6 0 1 14.3-31.3 19.2 25.1 41.6 0 1 27.6 6.8z"/>
    <path d="m627.7 330.2c14.8-7.7 32.2-16.2 28.9-34.4-.9-14.2-54.7-46.8-67.7-62.4-4.9-5.8-7.4-13.4 3.2-46.6"/>
   </g>
  </g>
 </g>
</svg>
