<svg height="210mm" viewBox="0 0 1052.4 744.1" width="297mm" xmlns="http://www.w3.org/2000/svg">
 <g fill="none" stroke-linecap="round">
  <g transform="translate(0 -308.26772)">
   <path d="m57.6 742.2h948.8" stroke="#969696" stroke-width="1.875"/>
   <g stroke="#000" stroke-dasharray="3.75 7.5" stroke-miterlimit="2" stroke-width=".9375">
    <path d="m58.3 844.1h948.8"/>
    <path d="m58.3 641.8h948.8"/>
    <path d="m58.3 540.6h948.8"/>
   </g>
  </g>
  <g stroke="#000">
   <path d="m618.5 330.5c33.5-2.9 66.1-50.8 92.3-87.9 20.2-28.6 40.6-59.9 61.4-84.7 6.8-8.1 22.6-24 37.6-23.4 32.6 1.4-46.7 181.2-112.2 195.7" stroke-linejoin="round" stroke-width="5.624999"/>
   <g stroke-width="5.625">
    <g stroke-linejoin="round">
     <path d="m275.9 344.5c-33 56.6-45.1 70.7-53.4 77.1-3.2 2.4-7.6 5.3-11.9 6.9-4.4 1.7-8.7 2.3-12.4 2.5-7.3.5-13.6-1.8-16.2-7.3-7.2-15.4 13.6-29.6 37.7-58.8 8.1-9.8 8.7-18.1 5.1-23.2-1.5-2.1-3.8-3.7-6.5-4.7-2.6-.9-5.7-1.2-9-.9-14.3 1.8-23.7 12-31.7 19.6"/>
     <path d="m335.6 293.7c-13.2 31.1-22.3 48.4-34.7 53.3"/>
     <g transform="matrix(.72846687 .68508103 -.68508103 .72846687 0 0)">
      <ellipse cx="432.30881" cy="62.28437" rx="4.609393" ry="6.862875"/>
      <ellipse cx="452.66037" cy="43.856682" rx="4.609393" ry="6.862875"/>
     </g>
    </g>
    <path d="m300.9 347c-7.2 4.3-25.7 5.5-32.7 0"/>
    <g stroke-linejoin="round">
     <path d="m578.9 299.3-192.7 28.1c-9.6 1.4-21.6 2.6-29.1 2.1-14.8-1-27.6-9.9-21.5-35.8"/>
     <path d="m578.9 299.3c1.8-.2 3.5-.1 5 .1 15.2 2.8 16.8 33.8 34.6 31.1"/>
     <path d="m562.9 301.7c16-2.3 20.4.4 31 18 5.6 9.3 9.7 12.1 22.8 11"/>
     <path d="m582.3 301.4c7.2 6.4 4.5.9 20.5 25.4"/>
    </g>
   </g>
   <path d="m697.5 330.3c-4.1 1.5-7-2.5-2.9-5 17-10.2 107.1-31.5 114.1-30.4 15.7 4.3 13.6 35.7 29.5 35.9 5.5 0 13.1-3.7 24.4-13.5" stroke-linejoin="round" stroke-width="5.624999"/>
  </g>
 </g>
</svg>
