<svg height="210mm" viewBox="0 0 1052.4 744.1" width="297mm" xmlns="http://www.w3.org/2000/svg">
 <g fill="none" stroke-linecap="round">
  <g transform="translate(0 -308.26772)">
   <path d="m57.6 742.2h948.8" stroke="#969696" stroke-width="1.875"/>
   <g stroke="#000" stroke-dasharray="3.75 7.5" stroke-miterlimit="2" stroke-width=".9375">
    <path d="m58.3 844.1h948.8"/>
    <path d="m58.3 641.8h948.8"/>
    <path d="m58.3 540.6h948.8"/>
   </g>
  </g>
  <g stroke="#000">
   <g stroke-linejoin="round">
    <path d="m609.7 430.9c23.9-28.8 77.8-104.8 118.7-152.6 9.7-11.3 19.1-21.3 27.9-28.9 13.2-11.5 25-17.8 34.1-15.9 3 .1 5 1.7 6.1 4.6 10.7 27.9-65.8 174.3-122.4 192.5" stroke-width="5.625"/>
    <path d="m336.8 433.6c-21.4 9.5-42.1 34.2-55.3 54.2-13.2 20.1-20.3 41.5-7.8 44.8 11.2 2.5 33.1-7.6 54.5-66.3 15.7-47.2 16.4-112.8 70.4-130.9" stroke-width="5.625"/>
    <path d="m336.8 433.6c15.9-7.8 27.2-9.2 243.6-48.8" stroke-width="5.624999"/>
   </g>
   <g stroke-width="5.625">
    <path d="m580.4 384.8 22.1 46.2" stroke-linejoin="round"/>
    <path d="m587.6 384.7 22.1 46.2" stroke-linejoin="round"/>
    <path d="m580.4 384.8 7.2-.1"/>
    <path d="m584.4 386.2 21 43.9" stroke-linejoin="round"/>
    <path d="m602.5 431.1 7.2-.1"/>
   </g>
   <path d="m775.1 386.3s-93.8 28.9-103.9 40.4c-2.2 2.5-2.5 5.4 3 4" stroke-width="5.625003"/>
  </g>
 </g>
</svg>
