<svg height="210mm" viewBox="0 0 1052.4 744.1" width="297mm" xmlns="http://www.w3.org/2000/svg">
 <g fill="none" stroke-linecap="round">
  <g transform="translate(0 -308.26772)">
   <path d="m57.6 742.2h948.8" stroke="#969696" stroke-width="1.875"/>
   <g stroke="#000" stroke-dasharray="3.75 7.5" stroke-miterlimit="2" stroke-width=".9375">
    <path d="m58.3 844.1h948.8"/>
    <path d="m58.3 641.8h948.8"/>
    <path d="m58.3 540.6h948.8"/>
   </g>
  </g>
  <g stroke="#000">
   <g stroke-width="5.625">
    <g stroke-linejoin="round">
     <path d="m552.4 286.7s-367.7 130.3-361 143.6c1.1.7 2.5 1 4.1 1 4.5 0 10.9-4.3 12.3-5.1 41.1-23.5 62.2-97.7 30.5-88.7"/>
     <path d="m238.3 337.6c-17.1 5.9-24.2 13.6-38.6 34.3"/>
     <path d="m187 389.2c-49.8 63-99.4 48-84.7-.3"/>
    </g>
    <path d="m187 389.2 12.7-17.3"/>
    <ellipse cx="337.27524" cy="558.19684" rx="62.130169" ry="44.633743" stroke-linejoin="round" transform="matrix(.88109295 -.47294313 .47294313 .88109295 0 0)"/>
   </g>
   <path d="m617.9 310.4c-13.8 27.9-38.1 52.4-66.8 70.7" stroke-width="5.385754"/>
   <path d="m619.1 319.3c-15.9 21.3-33.1 41.5-54 58.5" stroke-width="5.385754"/>
   <path d="m618.1 325.8c-14.3 21.6-19.7 29.6-41.7 46.5" stroke-width="7.181006"/>
   <path d="m566.8 368.9c-10.1 9.6-24.3 12.2-31.1 10.7" stroke-width="3.590503"/>
   <path d="m609.8 296.5c2.2 2.5 8.7 12.2 1.3 24.5" stroke-width="3.590503"/>
   <g stroke-linejoin="round" stroke-width="5.625">
    <path d="m535.6 295.1 125-60.5"/>
    <path d="m658.8 378.5c28.5-22.6 35.5-31.4 39-55.7 1.8-12.5-2.6-28-12.8-37.6-5-4.7-11-8.4-17-11.7-8.5-4.8-11.8-5.8-17.2-11.5-6-6.3-5-21.2 9.8-27.5"/>
    <path d="m731 339.4-72.2 39"/>
    <ellipse cx="365.81772" cy="735.67072" rx="25.728558" ry="20.371416" transform="matrix(.79083574 -.61202846 .61202846 .79083574 0 0)"/>
    <path d="m761.1 295.6-41.1 53.8"/>
    <path d="m955.7 302.5c-35.2 18.2-78.7 27.1-109.1 27.8-42.5 1-77.1-8.4-85.5-34.7"/>
    <path d="m959.1 291.3c.8.1 1.4.2 1.9.5.2.1.3.2.5.3.9.7 1.3 2 .8 4-1 3.9-5.4 6.1-7.5 6.9-4.3 1.6-7.6-2-5.1-5.9 1.6-2.4 4.2-5.1 7.4-5.7.2 0 .4-.1.7-.1s.5-.1.8-.1c.6 0 1.2.1 1.9.3"/>
   </g>
  </g>
 </g>
</svg>
