<svg height="210mm" viewBox="0 0 1052.4 744.1" width="297mm" xmlns="http://www.w3.org/2000/svg">
 <g fill="none" stroke-linecap="round">
  <g transform="translate(0 -308.26772)">
   <path d="m57.6 742.2h948.8" stroke="#969696" stroke-width="1.875"/>
   <g stroke="#000" stroke-dasharray="3.75 7.5" stroke-miterlimit="2" stroke-width=".9375">
    <path d="m58.3 844.1h948.8"/>
    <path d="m58.3 641.8h948.8"/>
    <path d="m58.3 540.6h948.8"/>
   </g>
  </g>
  <g stroke="#000" stroke-linejoin="round" stroke-width="5.625">
   <path d="m283.5 430.5c27.4-4.9 348.4-140.4 372.2-152.9 8.2-4.2 14-1.5 18.2 6.7 6.5 12.7 4 18.2 12.3 27.2 15.9 17.3 43.8-27.8 34.5-34.3-6.3-4.4-25.9 3.2-49.4 42-25.4 41.5-22.8 52.6-10.3 53.5 22.2 1.8 40.8-10.1 83.8-36.3"/>
   <path d="m646 282.2c13.6-6.3 20.5 4.4 24 16.1 3.2 10.5 8.7 18 23.9 17.1"/>
   <path d="m660.4 278.8c13.6.7 15.1 28.3 22.1 30"/>
   <path d="m306.2 334.4c54.3-11 95.5-79.5 89.2-96.2-5.5-14.4-40.2 8.9-87.4 86.8-50.2 86.7-47 110.6-24.4 105.5"/>
  </g>
 </g>
</svg>
