<svg height="210mm" viewBox="0 0 1052.4 744.1" width="297mm" xmlns="http://www.w3.org/2000/svg">
 <g fill="none" stroke-linecap="round">
  <g transform="translate(0 -308.26772)">
   <path d="m57.6 742.2h948.8" stroke="#969696" stroke-width="1.875"/>
   <g stroke="#000" stroke-dasharray="3.75 7.5" stroke-miterlimit="2" stroke-width=".9375">
    <path d="m58.3 844.1h948.8"/>
    <path d="m58.3 641.8h948.8"/>
    <path d="m58.3 540.6h948.8"/>
   </g>
  </g>
  <g stroke="#000">
   <path d="m651.6 338.9c.8-1.1 3.5 6.2.4 14.1-3.2 8.2-12.5 19.1-17.8 24.2-10.5 9.9-29.8 30.2-23.7 46.5" stroke-width="5.472634"/>
   <path d="m641 337.6c13.9-1.2 11 7.7 10.3 13.7" stroke-width="2.736317"/>
   <path d="m535.6 431c23.8-21.8 60.8-70.5 82.2-84.6 2.9-2.2 6.5-4.5 10.3-6.4 4.5-2.2 9.1-3.7 13.1-3.8 14.3-.3 24.4 8.5 10.2 26.1-27.1 33.5-45.1 49.8-39.1 63.3 1.9 4.3 6.9 6.2 12.9 6.2 17.2-.8 27.7-11.4 39.2-22.8" stroke-linejoin="round" stroke-width="5.569705"/>
   <path d="m651.4 337.9c15.4 6.8 4.1 30.2-12.2 46.1-14 13.6-22.7 27.7-28.7 39.7" stroke-width="5.472634"/>
   <path d="m617.8 413.1c-3.4 4.9-7.1 14.7 2.5 16.9" stroke-width="2.736317"/>
   <path d="m608 417.8c-.1 5.5 3.9 14.3 10.9 14.6" stroke-width="2.736317"/>
   <g stroke-linejoin="round">
    <path d="m445.4 430.9c7.7-.6 17.6-13 27.7-29.6 25.7-42 62-107.1 93.8-151.5 7.2-10 15.4-13.9 20.5-14.7 4.9-.7 9.3.3 12.8 2.6 3.8 2.5 6.4 6.5 7.1 11.3.9 6.8-.7 16.1-5.8 28.5l-66 153.4" stroke-width="5.624959"/>
    <path d="m387 431h57" stroke-width="5.625"/>
    <ellipse cx="616.4314" cy="3.648579" rx="4.609393" ry="6.862874" stroke-width="5.625" transform="matrix(.72846687 .68508103 -.68508103 .72846687 0 0)"/>
    <path d="m433.6 335.6-46.6 95.4" stroke-width="5.624999"/>
   </g>
  </g>
 </g>
</svg>
