<svg height="210mm" viewBox="0 0 1052.4 744.1" width="297mm" xmlns="http://www.w3.org/2000/svg">
 <g fill="none" stroke-linecap="round">
  <g transform="translate(0 -308.26772)">
   <path d="m57.6 742.2h948.8" stroke="#969696" stroke-width="1.875"/>
   <g stroke="#000" stroke-dasharray="3.75 7.5" stroke-miterlimit="2" stroke-width=".9375">
    <path d="m58.3 844.1h948.8"/>
    <path d="m58.3 641.8h948.8"/>
    <path d="m58.3 540.6h948.8"/>
   </g>
  </g>
  <g stroke="#000">
   <g stroke-linejoin="round" stroke-width="5.625">
    <path d="m783.3 435.8 22.3 49.7"/>
    <path d="m669.4 429.9 74-43.9-56.7 94.9"/>
    <path d="m686.7 480.8 96.6-45"/>
    <ellipse cx="777.79016" cy="-147.62714" rx="4.609393" ry="6.862874" transform="matrix(.72846687 .68508103 -.68508103 .72846687 0 0)"/>
    <path d="m323.1 410.9 30.5-26.9 33.3 47.9"/>
    <path d="m353.6 384 24 48"/>
    <path d="m363.1 384 23.8 47.9"/>
    <path d="m359.2 383.9 24 48"/>
   </g>
   <path d="m353.5 383 9.5-.1" stroke-width="3.75"/>
   <path d="m379.3 432.9h7.1" stroke-width="3.75"/>
   <g stroke-linejoin="round" stroke-width="5.625">
    <path d="m262.7 358.6c15.9-32 75.6-30.6 48.2 3.3-27.4 33.8-47.1 52.6-39.4 63.9 2.9 4.2 7.6 5.9 13.2 5.6 11.8-.6 23.3-7.7 38.4-20.5"/>
    <path d="m386.9 431.9 108.6-95.5"/>
    <path d="m495.5 336.4-54.2 95.3 56.7-64.8"/>
    <path d="m498 366.9c10.6-12.1 23.1-29.4 40-30.3 16-.6 18.5 30.9 32.6 30.7 8.5-.1 11.9-5.3 16.7-9.2"/>
   </g>
  </g>
 </g>
</svg>
