<svg height="210mm" viewBox="0 0 1052.4 744.1" width="297mm" xmlns="http://www.w3.org/2000/svg">
 <g fill="none" stroke-linecap="round">
  <g transform="translate(0 -308.26772)">
   <path d="m57.6 742.2h948.8" stroke="#969696" stroke-width="1.875"/>
   <g stroke="#000" stroke-dasharray="3.75 7.5" stroke-miterlimit="2" stroke-width=".9375">
    <path d="m58.3 844.1h948.8"/>
    <path d="m58.3 641.8h948.8"/>
    <path d="m58.3 540.6h948.8"/>
   </g>
  </g>
  <g stroke-linejoin="round" stroke-width="5.625">
   <path d="m493.8 326.3c5.7-2.8 59.9-90.9 59.9-90.9l21.4 43.4" stroke="#000"/>
   <ellipse cx="63.39629" cy="501.38208" rx="25.728558" ry="20.371416" stroke="#000" transform="matrix(.79083574 -.61202846 .61202846 .79083574 0 0)"/>
   <path d="m492.1 315.7c1 .1 1.8.3 2.5.7.2.1.4.2.6.4 1.2.9 1.7 2.6 1 5.2-1.3 5.1-7.1 8-9.8 9-5.7 2-9.8-2.6-6.6-7.6 2-3.1 5.5-6.6 9.7-7.5.3-.1.6-.1.9-.1s.7-.1 1-.1c.8 0 1.6.1 2.4.3" stroke="#030002"/>
   <path d="m361.3 335.3 121.1-3.6" stroke="#030002"/>
   <path d="m332.8 360.8-31.2 70.2" stroke="#000"/>
   <path d="m575.1 278.7c19.1-12 64.5-42.7 88.6-43.8 24-.8 24.9 41.1 41.3 40.7 10.8-.3 18.5-10 25.1-17.1" stroke="#000"/>
  </g>
 </g>
</svg>
