<svg height="210mm" viewBox="0 0 1052.4 744.1" width="297mm" xmlns="http://www.w3.org/2000/svg">
 <g fill="none" stroke-linecap="round">
  <g transform="translate(0 -308.26772)">
   <path d="m57.6 742.2h948.8" stroke="#969696" stroke-width="1.875"/>
   <g stroke="#000" stroke-dasharray="3.75 7.5" stroke-miterlimit="2" stroke-width=".9375">
    <path d="m58.3 844.1h948.8"/>
    <path d="m58.3 641.8h948.8"/>
    <path d="m58.3 540.6h948.8"/>
   </g>
  </g>
  <g stroke="#000">
   <path d="m609 305.8c13-8.2 26.5-15.2 34.1-18 2-.7 4-1.3 5.8-1.8 3-.8 5.9-1 8.6-1 13 .1 20.7 10.2 7.1 27-26.6 32.9-44.6 48.9-38.7 62.2 2.1 4.7 8 5.9 15 6 28.2.5 59.1-30.8 79.9-30.9 16-.6 18.8 30.9 32.6 30.7 8.7-.1 14.1-5.3 19.4-11.5" stroke-linejoin="round" stroke-width="5.625"/>
   <path d="m665 286.6c15.4 7.9 4.2 30.4-12.1 46.3-14 13.6-22.7 25.7-28.7 37.7" stroke-width="5.472634"/>
   <path d="m665.2 288.1c.8-1.1 3.6 6 .5 13.9-3.2 8.2-12.5 19.1-17.8 24.2-10.5 9.9-29.8 28.2-23.7 44.5" stroke-width="5.472634"/>
   <g stroke-width="2.736317">
    <path d="m654.8 286.5c13.9-1.2 10.5 8.5 10.3 13.7"/>
    <path d="m631.5 360.6c-3.2 4.4-7.2 16.1 2.6 17.8"/>
    <path d="m621.7 364.7c-.1 5.5 2.8 11.2 4.7 12.8"/>
   </g>
   <g stroke-linejoin="round">
    <path d="m309.9 431.1c39-64.7 104.7-56.6 95.5-.1" stroke-width="5.625"/>
    <path d="m405.4 431 203.6-125.2" stroke-width="5.624999"/>
   </g>
  </g>
 </g>
</svg>
