<svg height="210mm" viewBox="0 0 1052.4 744.1" width="297mm" xmlns="http://www.w3.org/2000/svg">
 <g fill="none" stroke-linecap="round">
  <g transform="translate(0 -308.26772)">
   <path d="m57.6 742.2h948.8" stroke="#969696" stroke-width="1.875"/>
   <g stroke="#000" stroke-dasharray="3.75 7.5" stroke-miterlimit="2" stroke-width=".9375">
    <path d="m58.3 844.1h948.8"/>
    <path d="m58.3 641.8h948.8"/>
    <path d="m58.3 540.6h948.8"/>
   </g>
  </g>
  <g stroke="#000" stroke-width="5.625">
   <g stroke-linejoin="round">
    <path d="m435 384.5 18.9 47.6 131.8-97.9-46.8 98.2"/>
    <path d="m541.7 425.7c12.2 2.7 20 4.9 29.9 5.2"/>
    <path d="m578.4 420.1c.7.1 1.3.2 1.8.5.2.1.3.2.4.3.9.7 1.2 1.8.7 3.6-.9 3.6-5 5.6-6.9 6.3-4 1.4-6.9-1.8-4.6-5.3 1.4-2.2 3.9-4.6 6.8-5.2.2 0 .4-.1.6-.1h.7c.6 0 1.1.1 1.7.2"/>
   </g>
   <path d="m541.7 425.7s7.9-14.5 8.8-17.5c1-3 1.2-6 .7-8.7-.7-3.8-2.7-7.2-6.1-9.2-1.6-1-3.4-1.6-5.2-1.9-2.1-.3-4.3-.2-6.6.4-1.7.4-3.4 1.1-5 2-1.2.6-2.3 1.4-3.3 2.3-1.6 1.3-3 2.8-4.3 4.6s-2.2 3.7-2.9 5.6c-.7 2.2-1.1 4.4-1 6.5.1 2.6.7 5.1 2 7.2 1 1.8 2.5 3.3 4.3 4.4 1.6 1 3.4 1.6 5.2 1.9z"/>
  </g>
 </g>
</svg>
