<svg height="210mm" viewBox="0 0 1052.4 744.1" width="297mm" xmlns="http://www.w3.org/2000/svg">
 <g fill="none" stroke-linecap="round">
  <g transform="translate(0 -308.26772)">
   <path d="m57.6 742.2h948.8" stroke="#969696" stroke-width="1.875"/>
   <g stroke="#000" stroke-dasharray="3.75 7.5" stroke-miterlimit="2" stroke-width=".9375">
    <path d="m58.3 844.1h948.8"/>
    <path d="m58.3 641.8h948.8"/>
    <path d="m58.3 540.6h948.8"/>
   </g>
  </g>
  <g stroke="#000">
   <g stroke-linejoin="round" stroke-width="5.625">
    <path d="m300.8 335.4c-39.2 39.3-102.4 102.7-103.7 103.6-32.5 22-71.6 74.4-63.5 89.5 4.9 9.2 28.4 7.7 48.3-24.3 8.5-13.7 17.7-31 19.9-61.8 5-69.6 41.1-122.1 68-104.4 11.2 7.4-22.9 49.1-54.2 46.7"/>
    <path d="m488.7 330.9c-34.9 35.3-77.4 53-119.7 53.5-37.5.4-68.7-13.7-68.1-49"/>
    <path d="m606.8 337.6c-4.4 2.1-68.1 35.2-76 39.2-22.3 11.2-54.6 28.5-74 43.7-32.5 23.2-40.2 52.7-38 60 .9 3 16.3 22.9 59.8-38.1 26.9-36.9 54.6-73.4 69.3-116.4 15.5-30.1-1.4-56.7-44.4-11.6"/>
   </g>
   <path d="m548.4 315.1c-20.5 45.9-64.8 123.2-100.9 158.2" stroke-width="8.4375"/>
   <path d="m551.5 303.1c1.4 8.4-92.8 164.8-114.9 178.5" stroke-width="5.625"/>
   <path d="m544 291.6c7 1.1 9.6 9.2 3 20.7" stroke-width="3.75"/>
   <path d="m444.3 473.2c-6.3 5.5-18.8 17.1-24.4 7.2" stroke-width="3.75"/>
   <g stroke-linejoin="round">
    <path d="m488.7 330.9s9.4-10.7 14.8-16.5" stroke-width="5.625"/>
    <path d="m669.1 336.1-47.8 86.7" stroke-width="6.5625"/>
    <path d="m659.8 335.7-39 72.4c-8.4 15.5 5 26.1 21.5 22.2 2.8-.6 9.4-2.3 14-6l10.2-8s76.2-68.8 93.6-75.8" stroke-width="5.625"/>
    <path d="m664.5 336.1-44.7 81.9" stroke-width="6.5625"/>
   </g>
   <path d="m626.3 416.6c-1.6 4.1-2.6 6.5.8 11.9" stroke-width="3.75"/>
   <g stroke-linejoin="round">
    <path d="m669.1 336.1-9.3-.4" stroke-width="6.5625"/>
    <g stroke-width="5.625">
     <path d="m755.9 410.9 34.3-29.8 22.4 50.2"/>
     <path d="m770.5 336.5c-56.6 14.8-104.6 143.3-14.6 74.3"/>
     <path d="m659.8 335.7c-40.9 26-71.4 60.6-53 1.9"/>
    </g>
   </g>
  </g>
 </g>
</svg>
