<svg height="210mm" viewBox="0 0 1052.4 744.1" width="297mm" xmlns="http://www.w3.org/2000/svg">
 <g fill="none" stroke-linecap="round">
  <g transform="translate(0 -308.26772)">
   <path d="m57.6 742.2h948.8" stroke="#969696" stroke-width="1.875"/>
   <g stroke="#000" stroke-dasharray="3.75 7.5" stroke-miterlimit="2" stroke-width=".9375">
    <path d="m58.3 844.1h948.8"/>
    <path d="m58.3 641.8h948.8"/>
    <path d="m58.3 540.6h948.8"/>
   </g>
  </g>
  <g stroke="#000" stroke-linejoin="round">
   <g stroke-width="5.625">
    <path d="m652 241.7s-341.3 180.8-386.5 189.3"/>
    <path d="m334.8 243.3c-33.1 20.1-179.1 187.2-179.1 187.2"/>
    <path d="m557.7 434.4c-3.2 1.4-6.5 3-9.8 4.8-3 1.7-6.1 3.6-9.1 5.6-37.2 24.7-71.5 71.3-65.4 85.5 5.7 13.2 70.8-24.4 97.1-134.9 20.3-90.7 60.6-148.7 95.4-160.3"/>
    <path d="m557.7 434.4c9.9-3.2 227.4-67.2 295.7-101.5 18.4-9.2 51.1-35.3 64.7-46.6 27.5-22.6 42.4-45 30.1-49.9-14.3-5.8-40.2 9-87.4 87.7-60.3 105.2-35.6 120.4-1.8 99.4"/>
    <path d="m265.4 431.1c-48.3 6.8-1.8-151.2 82.4-196.6"/>
   </g>
   <path d="m252 426.7c-12.2-16.2.7-56.1 17.6-93.6 14.8-32.8 48.8-80.2 74.4-95.9" stroke-width="4.6875"/>
   <path d="m247.2 413.9c4.2-38.7 23-81.3 42.5-111.1 19.7-29.8 29-44.1 45.1-59.5" stroke-width="4.6875"/>
   <g stroke-width="5.625">
    <path d="m347.8 234.5c-16.1 12.7-27.4 24.7-36.9 36.9-5 6.4-19.4 27.5-29 46.1-9.9 18.3-21 41.2-31.5 78.3"/>
    <path d="m269.9 341.6c-15.4 40.8-31.5 89.3-7.2 89.7"/>
   </g>
  </g>
 </g>
</svg>
