<svg height="210mm" viewBox="0 0 1052.4 744.1" width="297mm" xmlns="http://www.w3.org/2000/svg">
 <g fill="none" stroke-linecap="round">
  <g transform="translate(0 -308.26772)">
   <path d="m57.6 742.2h948.8" stroke="#969696" stroke-width="1.875"/>
   <g stroke="#000" stroke-dasharray="3.75 7.5" stroke-miterlimit="2" stroke-width=".9375">
    <path d="m58.3 844.1h948.8"/>
    <path d="m58.3 641.8h948.8"/>
    <path d="m58.3 540.6h948.8"/>
   </g>
  </g>
  <g stroke="#000001" stroke-linejoin="round" stroke-width="5.625">
   <path d="m426.4 430.1c3.1-1.3 13.1-6.6 16.1-7.9"/>
   <path d="m442.5 422.2c18.3-8 67.5-34.5 71.6-37 7.2-4.5 15.1-9 20.2-13.4 12.8-11.2 18.6-26.1 16.7-30.9-2.8-7.3-34.7-8.6-58.5 30.7-26.3 43.1-18.8 59.4-2.7 59.3 5.3-.6 10.7-2.2 15.8-4.4"/>
   <path d="m505.7 426.3c7.7-4 17.6-11.5 17.6-11.5l38.1-29.6 21.7 45.9"/>
   <path d="m430.8 415.4c1 .1 1.8.3 2.5.7.2.1.4.2.6.4 1.2.9 1.7 2.6 1 5.2-1.3 5.1-7.1 8-9.8 9-5.7 2-9.8-2.6-6.6-7.6 2-3.1 5.5-6.6 9.7-7.5.3-.1.6-.1.9-.1s.7-.1 1-.1c.8 0 1.6.1 2.4.3"/>
  </g>
 </g>
</svg>
