<svg height="210mm" viewBox="0 0 1052.4 744.1" width="297mm" xmlns="http://www.w3.org/2000/svg">
 <g fill="none" stroke-linecap="round">
  <g transform="translate(0 -308.26772)">
   <path d="m57.6 742.2h948.8" stroke="#969696" stroke-width="1.875"/>
   <g stroke="#000" stroke-dasharray="3.75 7.5" stroke-miterlimit="2" stroke-width=".9375">
    <path d="m58.3 844.1h948.8"/>
    <path d="m58.3 641.8h948.8"/>
    <path d="m58.3 540.6h948.8"/>
   </g>
  </g>
  <g stroke="#001">
   <g stroke-width="5.625">
    <path d="m309.9 431.3c3-4.3 66.3-79.1 72.5-84.1 23.7-19.2 60.9-14.6 37.5 14.4-27.4 33.8-45.5 50.2-39.4 63.9 4.2 9.6 23.7 7.8 36.5-3.7 4.5-4 85-85.8 85-85.8" stroke-linejoin="round"/>
    <path d="m420.7 338.8c14.5 10.1 4.3 27.8-12.4 44.2-14.4 14-23.4 26.4-29.5 38.7"/>
    <path d="m420.7 338.8c.8-1.1 3.9 6.1.7 14.2-3.2 8.4-12.8 17.8-18.3 22.9-10.8 10.1-30.6 29-24.3 45.7"/>
   </g>
   <g stroke-width="2.8125">
    <path d="m412.2 337.1c11.3 1.3 8.8 6.5 9.1 11"/>
    <path d="m383.9 414.4c-2.7 4.9-3.8 12 2.3 14.5"/>
    <path d="m376.2 415.7c-.1 5.7 2.9 11.5 4.9 13.1"/>
   </g>
   <g stroke-width="5.625">
    <g stroke-linejoin="round">
     <path d="m457.9 431.5 72.3-12.7"/>
     <path d="m530.2 418.9c44-7.2 71.6-13.5 82.7-13.2 13.2.3 16 27.2 31.6 26 5.9.1 12.9-2.6 20.3-6.7"/>
     <path d="m457.9 431.5c-52.7 10.7-103.2 99.1-76.4 101.8"/>
     <path d="m381.5 533.3c3.5-.1 7.7-1.1 12.6-3.8 9.7-5.4 22.3-17.5 37.7-42.3l83.3-151.7-13.2.5"/>
    </g>
    <path d="m501.9 336-90.5 178.4"/>
    <path d="m509 339-83.7 157.3"/>
    <path d="m506 337.9-90.7 170.5"/>
   </g>
   <path d="m420.2 494.9c-6.5 14.2-13.9 23.4-21.7 30.4" stroke-width="3.75"/>
  </g>
 </g>
</svg>
