<svg height="210mm" viewBox="0 0 1052.4 744.1" width="297mm" xmlns="http://www.w3.org/2000/svg">
 <g fill="none" stroke-linecap="round">
  <g transform="translate(0 -308.26772)">
   <path d="m57.6 742.2h948.8" stroke="#969696" stroke-width="1.875"/>
   <g stroke="#000" stroke-dasharray="3.75 7.5" stroke-miterlimit="2" stroke-width=".9375">
    <path d="m58.3 844.1h948.8"/>
    <path d="m58.3 641.8h948.8"/>
    <path d="m58.3 540.6h948.8"/>
   </g>
  </g>
  <g stroke="#000" stroke-linejoin="round" stroke-width="5.625">
   <path d="m358.9 438.4c-36.6 18.6-62.9 78.5-61.6 88 .9 7.1 20.1 24.9 54.7-36.6 14.2-22.8 15.8-67 28.8-84 10.3-13.2 19.8-22.6 30.8-29.8 28.2-18.6 26.8-41.3 9.6-40.4-12.4.7-21.5 3.6-34.5 19.5l-126.1 178.9"/>
   <path d="m358.9 438.4 172.9-63.8"/>
   <path d="m531.8 374.6s104.6-42 110.2-45.5c21.6-11.2 42.2-26.6 36.9-44.4-2.8-7.3-34.7-8.6-58.5 30.7-26.3 43.1-18.3 59.7-4.5 59.9 1.9 0 3.6-.1 5.3-.3"/>
   <path d="m621.2 375.1c29.4-6.4 99.2-89.1 122.1-116.7"/>
   <path d="m743.3 258.4c12.4-13.4 23.1-23.1 29.3-24.4 10.7-2.7 14.3.7 18.7 3.2 7.6 4.3 8 17.2-6 41.5l-29.8 52.1"/>
  </g>
 </g>
</svg>
