<svg height="210mm" viewBox="0 0 1052.4 744.1" width="297mm" xmlns="http://www.w3.org/2000/svg">
 <g fill="none" stroke="#000" stroke-linecap="round">
  <g transform="translate(0 -308.26772)">
   <path d="m57.6 742.2h948.8" stroke-width="1.875"/>
   <g stroke-dasharray="3.75 7.5" stroke-miterlimit="2" stroke-width=".9375">
    <path d="m58.3 844.1h948.8"/>
    <path d="m58.3 641.8h948.8"/>
    <path d="m58.3 540.6h948.8"/>
   </g>
  </g>
  <g stroke-linejoin="round" stroke-width="5.625">
   <path d="m483.2 392c-43.4 40.7-66.8 44.9-95.9 94.6-11.2 19.3-16.6 36.4-12.6 43.5 2.9 5.3 34.7 12.4 62.3-63.4 15.7-47.2 25.8-112.5 71.5-132.1"/>
   <path d="m483.2 392c13.4-13.4 58.5-52.1 62.5-54.4 8.8-5 14.8-2.5 19.3 6.2 6.5 12.7 4 18.2 12.3 27.2 15.9 17.3 43.8-27.8 34.5-34.3-6.3-4.4-25.9 3.2-49.4 42-23.2 37.9-23 52.1-13.3 53.5 1.8.3 3.9-.2 6.3-.5 16.9-2.2 47.5-17.8 93.7-48.7"/>
   <path d="m649 383 20 47.9"/>
  </g>
 </g>
</svg>
