<svg height="210mm" viewBox="0 0 1052.4 744.1" width="297mm" xmlns="http://www.w3.org/2000/svg">
 <g fill="none" stroke-linecap="round">
  <g transform="translate(0 -308.26772)">
   <path d="m57.6 742.2h948.8" stroke="#969696" stroke-width="1.875"/>
   <g stroke="#000" stroke-dasharray="3.75 7.5" stroke-miterlimit="2" stroke-width=".9375">
    <path d="m58.3 844.1h948.8"/>
    <path d="m58.3 641.8h948.8"/>
    <path d="m58.3 540.6h948.8"/>
   </g>
  </g>
  <g stroke="#101010" stroke-linejoin="round">
   <path d="m345.1 415.8 60.6-31.6 19.7 46.8 99.1-94.8" stroke-width="5.625"/>
   <path d="m380.5 398-35.9 18.1c-4.8 2.4-7.7 5.2-8.3 6.2-1.9 3.1-1.1 8.1 3.9 8.6 3 .3 9.7-4.2 11-5 50.8-29 73.5-137 2.1-66.9" stroke-width="5.419139"/>
   <g stroke-width="5.625">
    <path d="m558.1 411.2 89.7-176.8"/>
    <ellipse cx="175.96819" cy="649.57434" rx="25.728558" ry="20.371416" transform="matrix(.79083574 -.61202846 .61202846 .79083574 0 0)"/>
    <path d="m505.8 430.7 21.9-2.6"/>
    <path d="m524.6 336.3-42.4 73.1c-9.3 16 4.2 25.4 23.6 21.3"/>
   </g>
  </g>
 </g>
</svg>
