<svg height="210mm" viewBox="0 0 1052.4 744.1" width="297mm" xmlns="http://www.w3.org/2000/svg">
 <g fill="none" stroke-linecap="round">
  <g transform="translate(0 -308.26772)">
   <path d="m57.6 742.2h948.8" stroke="#969696" stroke-width="1.875"/>
   <g stroke="#000" stroke-dasharray="3.75 7.5" stroke-miterlimit="2" stroke-width=".9375">
    <path d="m58.3 844.1h948.8"/>
    <path d="m58.3 641.8h948.8"/>
    <path d="m58.3 540.6h948.8"/>
   </g>
  </g>
  <g stroke="#000">
   <g stroke-linejoin="round" stroke-width="5.625">
    <ellipse cx="224.78697" cy="614.37836" rx="23.953861" ry="18.966244" transform="matrix(.79083574 -.61202846 .61202846 .79083574 0 0)"/>
    <path d="m567.4 363.9c22.3-4.3 51.4-54.7 78.6-94.8"/>
    <path d="m438.2 332.6c28.5-16.6 55.8-35.5 63.5-43.5 18.9-19.6 43.3-47 28.3-52.1-14.6-5-40.2 8.9-87.4 86.8-51.5 89-40.8 108.4-14.5 106.7 5.5-.5 13.2-2.1 20-7.7 9.7-7.9 45.2-49.5 63.9-73.1"/>
    <path d="m512 349.6s31.9-38.9 48.5-51.1c2.8-2.1 5.7-4 8.7-5.9 5.2-3.3 10.6-6.2 16.4-8.7 19.6-8.3 35 2.5 12.3 40.5l-29.8 52.1"/>
    <path d="m608.1 290.2-49.2 86.2"/>
    <path d="m608.3 296.4-45.6 79.9"/>
    <path d="m558.8 376.4 9.3.1"/>
   </g>
   <path d="m604.1 284c1.8 1.7 2.3 5.7.7 9.9" stroke-width="3.75"/>
   <path d="m706.4 179.2-60.4 89.9" stroke-width="5.625"/>
  </g>
 </g>
</svg>
