<svg height="210mm" viewBox="0 0 1052.4 744.1" width="297mm" xmlns="http://www.w3.org/2000/svg">
 <g fill="none" stroke-linecap="round">
  <g transform="translate(0 -308.26772)">
   <path d="m57.6 742.2h948.8" stroke="#969696" stroke-width="1.875"/>
   <g stroke="#000" stroke-dasharray="3.75 7.5" stroke-miterlimit="2" stroke-width=".9375">
    <path d="m58.3 844.1h948.8"/>
    <path d="m58.3 641.8h948.8"/>
    <path d="m58.3 540.6h948.8"/>
   </g>
  </g>
  <g stroke-linejoin="round" stroke-width="5.625">
   <path d="m164.1 430.9c43.9-15.9 71.5-94.7 46.6-94.9-7.2-.1-18.9 6.5-35.8 23.2" stroke="#000"/>
   <path d="m164.1 430.9 88.3.2" stroke="#030002"/>
   <g stroke="#000">
    <ellipse cx="476.53052" cy="135.55031" rx="4.609393" ry="6.862875" transform="matrix(.72846687 .68508103 -.68508103 .72846687 0 0)"/>
    <ellipse cx="460.6272" cy="150.33908" rx="4.609393" ry="6.862875" transform="matrix(.72846687 .68508103 -.68508103 .72846687 0 0)"/>
    <ellipse cx="25.41482" cy="536.75867" rx="25.728559" ry="20.371418" transform="matrix(.79083574 -.61202846 .61202846 .79083574 0 0)"/>
    <path d="m340.1 390.2s-76.3 43.5-87.6 40.9"/>
    <path d="m340.1 390.2s102.5-108.6 138.4-137.8"/>
    <path d="m504 234.7c-57.6 31-98.3 110.5-102.4 158.1-.5 6-.5 11.3.2 16 .8 5.4 2.7 9.6 4.7 13 7.1 11.8 22.2 10.7 50.6 5.9 62.8-10.7 208.4-28 223.8-29.9 9.9-1.2 23.2-2.7 31.5-3 28.6-1.2 16.6 36.5 42.6 36.3 30.3-.3 53.4-37.6 83-88.3 11.3-19.4 61.4-109.4 61.4-109.4"/>
   </g>
  </g>
 </g>
</svg>
