<svg height="210mm" viewBox="0 0 1052.4 744.1" width="297mm" xmlns="http://www.w3.org/2000/svg">
 <g fill="none" stroke-linecap="round">
  <g transform="translate(0 -308.26772)">
   <path d="m57.6 742.2h948.8" stroke="#969696" stroke-width="1.875"/>
   <g stroke="#000" stroke-dasharray="3.75 7.5" stroke-miterlimit="2" stroke-width=".9375">
    <path d="m58.3 844.1h948.8"/>
    <path d="m58.3 641.8h948.8"/>
    <path d="m58.3 540.6h948.8"/>
   </g>
  </g>
  <g stroke="#000" stroke-linejoin="round" stroke-width="5.625">
   <path d="m533.5 390.4 196.6-59.7"/>
   <ellipse cx="295.03928" cy="609.0603" rx="25.728558" ry="20.371416" transform="matrix(.89236516 -.45131411 .45131411 .89236516 0 0)"/>
   <path d="m734 321c.6.1 1.2.2 1.6.4.1.1.3.2.4.3.8.6 1.1 1.6.6 3.3-.9 3.2-4.5 5.1-6.2 5.7-3.6 1.3-6.3-1.7-4.2-4.9 1.3-2 3.5-4.2 6.1-4.7.2 0 .4-.1.5-.1h.7c.5 0 1 .1 1.6.2"/>
   <path d="m364.3 431.1c-53.2 7.3-95.5 79.7-96.4 92.6-.8 11.5 15.6 26.6 59.8-38.1 26.9-36.9 54.6-73.4 69.3-116.4 10.4-30.8-6.1-52.1-46.3-11.6"/>
   <path d="m457.3 432.1c-49 .6 40.5-135.2 82.7-179.9 4.7-4.9 15.9-14.6 23-17.4"/>
   <path d="m543.1 248.8c-23.5 19.5-157.8 174.4-176.8 173"/>
   <path d="m370.5 411.8c.6.1 1.2.2 1.7.4.1.1.3.2.4.3.8.6 1.1 1.7.6 3.4-.9 3.3-4.6 5.2-6.4 5.9-3.7 1.3-6.5-1.7-4.3-5 1.3-2.1 3.6-4.3 6.3-4.9.2 0 .4-.1.6-.1h.7c.5 0 1.1.1 1.6.2"/>
   <path d="m457.3 432.1c24.8.4 51.6-26.1 68.2-37.8"/>
  </g>
 </g>
</svg>
