<svg height="210mm" viewBox="0 0 1052.4 744.1" width="297mm" xmlns="http://www.w3.org/2000/svg">
 <g fill="none" stroke-linecap="round">
  <g transform="translate(0 -308.26772)">
   <path d="m57.6 742.2h948.8" stroke="#969696" stroke-width="1.875"/>
   <g stroke="#000" stroke-dasharray="3.75 7.5" stroke-miterlimit="2" stroke-width=".9375">
    <path d="m58.3 844.1h948.8"/>
    <path d="m58.3 641.8h948.8"/>
    <path d="m58.3 540.6h948.8"/>
   </g>
  </g>
  <g stroke="#000" stroke-linejoin="round">
   <path d="m286.9 355.1c8.1-7.6 17.5-17.9 32-19.7 3.3-.4 6.4-.1 9 .9 2.8 1 5 2.6 6.6 4.7 3.7 5.2 3.1 13.5-5.1 23.4-24.4 29.4-45.3 43.7-38 59.3 2.6 5.6 8.4 7.9 18.1 7.7 29.3-.6 76.2-34.5 96.7-34 16.7.5 22.2 33.8 40 34.1 14.1.2 31.6-7.5 45.3-11.2 6.1-1.6 11.8-3.3 16.7-.6" stroke-width="5.624999"/>
   <path d="m510.8 425.2a5.9 5.9 0 0 1 -5.9 5.9 5.9 5.9 0 0 1 -5.9-5.9 5.9 5.9 0 0 1 5.9-5.9 5.9 5.9 0 0 1 5.9 5.8h-5.9z" stroke-width="6.571438"/>
   <path d="m502.2 419.8 343.1-185.4" stroke-width="5.625"/>
  </g>
 </g>
</svg>
