<svg height="210mm" viewBox="0 0 1052.4 744.1" width="297mm" xmlns="http://www.w3.org/2000/svg">
 <g fill="none" stroke-linecap="round">
  <g transform="translate(0 -308.26772)">
   <path d="m57.6 742.2h948.8" stroke="#969696" stroke-width="1.875"/>
   <g stroke="#000" stroke-dasharray="3.75 7.5" stroke-miterlimit="2" stroke-width=".9375">
    <path d="m58.3 844.1h948.8"/>
    <path d="m58.3 641.8h948.8"/>
    <path d="m58.3 540.6h948.8"/>
   </g>
  </g>
  <path d="m331 431.4 80-84.1" stroke="#060000" stroke-linejoin="round" stroke-width="5.625"/>
  <g stroke="#000">
   <g stroke-linejoin="round">
    <path d="m337.9 268.6c11.7-14.9 26-32.1 45-33 17.5 0 22 12.2 19.3 25.6-.9 4.8-2.6 10.4-5.2 16.8l-66 153.4" stroke-width="5.62496"/>
    <g stroke-width="5.625" transform="matrix(.72846687 .68508103 -.68508103 .72846687 0 0)">
     <ellipse cx="532.89905" cy="-32.167858" rx="4.609393" ry="6.862875"/>
     <ellipse cx="553.25061" cy="-50.595585" rx="4.609393" ry="6.862875"/>
    </g>
   </g>
   <path d="m438.8 347.1c-7.2 4.3-25.7 5.5-32.7 0" stroke-width="5.625001"/>
   <path d="m736.7 234.7s-81.8 157-84.9 165.6" stroke-linejoin="round" stroke-width="5.625"/>
   <path d="m457.5 431.3 173.1-40.9" stroke-linejoin="round" stroke-width="5.625001"/>
   <path d="m651.8 400.3c-1.3 3.6-1.9 6.3-2.2 8-.7 3.9-.4 7.7.7 11 1.5 4.7 4.8 8.5 9.4 10.5 2.2.9 4.6 1.4 7 1.4 2.7 0 5.5-.6 8.2-1.7 2.1-.8 4-2 5.9-3.4 1.3-1 2.6-2.2 3.8-3.5 1.8-1.9 3.3-4.2 4.6-6.6 1.3-2.5 2.1-5.1 2.6-7.6.5-2.9.6-5.7.1-8.4-.6-3.3-1.9-6.3-3.9-8.8-1.6-2-3.8-3.7-6.3-4.7-2.2-.9-4.4-1.5-6.7-1.9-2.1-.3-4.3-.4-6.6-.3-4.7 0-37.8 6.1-37.8 6.1" stroke-width="5.625001"/>
   <g stroke-linejoin="round" stroke-width="5.625">
    <path d="m437.1 385 20.5 46.3"/>
    <path d="m-67.7-1.9c24.3-33 69.3-34.5 37.2 20l-90 153.9"/>
   </g>
  </g>
  <g stroke-linejoin="round" stroke-width="5.625">
   <path d="m-120.5 172 64.9-49.3 26.6-2" stroke="#060000"/>
   <path d="m-21.1 104.8c1 .1 1.8.3 2.5.7.2.1.4.2.6.4 1.2.9 1.7 2.6 1 5.2-1.3 5.1-7.1 8-9.8 9-5.7 2-9.8-2.6-6.6-7.6 2-3.1 5.5-6.6 9.7-7.5.3-.1.6-.1.9-.1s.7-.1 1-.1c.8 0 1.6.1 2.4.3" stroke="#030002"/>
   <path d="m-51 107.6c1 .1 1.8.3 2.5.7.2.1.4.2.6.4 1.2.9 1.7 2.6 1 5.2-1.3 5.1-7.1 8-9.8 9-5.7 2-9.8-2.6-6.6-7.6 2-3.1 5.5-6.6 9.7-7.5.3-.1.6-.1.9-.1s.7-.1 1-.1c.8 0 1.6.1 2.4.3" stroke="#030002"/>
   <g stroke="#000">
    <path d="m15.7 77.4 21.5 46.3 9.7-2.8"/>
    <path d="m46.9 120.9s123.5-34.8 132.8-36.9c19.7-4.5 44.1-12.6 56-6.8 7.7 5.9 8.4 12.5 7.6 17.7-2.7 14.7-19.7 23.3-29 26.7-16.7 6-30.7-11.1-21.2-25.9 14.8-23.5 82.8-169.8 82.8-169.8"/>
    <path d="m15.7 77.4-36.4 39.5"/>
   </g>
  </g>
 </g>
</svg>
