<svg height="210mm" viewBox="0 0 1052.4 744.1" width="297mm" xmlns="http://www.w3.org/2000/svg">
 <g fill="none" stroke-linecap="round">
  <g transform="translate(0 -308.26772)">
   <path d="m57.6 742.2h948.8" stroke="#969696" stroke-width="1.875"/>
   <g stroke="#000" stroke-dasharray="3.75 7.5" stroke-miterlimit="2" stroke-width=".9375">
    <path d="m58.3 844.1h948.8"/>
    <path d="m58.3 641.8h948.8"/>
    <path d="m58.3 540.6h948.8"/>
   </g>
  </g>
  <g stroke="#000">
   <g stroke-linejoin="round">
    <path d="m472.7 336.2-46.6 95.4" stroke-width="5.624999"/>
    <ellipse cx="711.4928" cy="-199.89331" rx="4.609393" ry="6.862875" stroke-width="5.625" transform="matrix(.72846687 .68508103 -.68508103 .72846687 0 0)"/>
    <path d="m426.1 431.6 229.8-84.6" stroke-width="5.624999"/>
   </g>
   <path d="m755.7 182s-69.4 129.6-96 161.6" stroke-width="5.624999"/>
   <path d="m405.4 383.8-77.1 148.7" stroke-width="5.625"/>
   <path d="m405.4 383.8c-33.7 29.5-115.3 105.9-125.5 115.4-12.4 11.5-12.2 26.5 1.3 32.1 2.9 1.1 5.7 1.6 8.6 1.6 7.7 0 15.1-3.9 23.5-13.6" stroke-width="5.624998"/>
  </g>
 </g>
</svg>
