<svg height="210mm" viewBox="0 0 1052.4 744.1" width="297mm" xmlns="http://www.w3.org/2000/svg">
 <g fill="none" stroke-linecap="round">
  <g transform="translate(0 -308.26772)">
   <path d="m57.6 742.2h948.8" stroke="#969696" stroke-width="1.875"/>
   <g stroke="#000" stroke-dasharray="3.75 7.5" stroke-miterlimit="2" stroke-width=".9375">
    <path d="m58.3 844.1h948.8"/>
    <path d="m58.3 641.8h948.8"/>
    <path d="m58.3 540.6h948.8"/>
   </g>
  </g>
  <g stroke="#000" stroke-linejoin="round" stroke-width="5.625">
   <path d="m420.4 381.1c40 3 59.8-35.8 56.6-44.3-2.8-7.3-29.3-4.3-53.1 35.1-32.3 52.9-11.2 59.2 11.7 58.9 25.5-.4 85.7-34.3 153.6-95.3"/>
   <path d="m589.2 335.5c15.6-20.1 23.9-40.7 20.7-48.8-5.5-14.4-40.2 8.9-87.4 86.8-41.2 71.2-46.2 101.2-34.5 105.8 2.9 1.1 6.8.7 11.5-1 3.2-1.2 6.8-3 10.6-5.4 5.3-3.7 10.4-8.1 15.4-12.9 19.9-19.2 113.3-153.7 128.4-175.7"/>
  </g>
 </g>
</svg>
