<svg height="210mm" viewBox="0 0 1052.4 744.1" width="297mm" xmlns="http://www.w3.org/2000/svg">
 <g fill="none" stroke-linecap="round">
  <g transform="translate(0 -308.26772)">
   <path d="m57.6 742.2h948.8" stroke="#969696" stroke-width="1.875"/>
   <g stroke="#000" stroke-dasharray="3.75 7.5" stroke-miterlimit="2" stroke-width=".9375">
    <path d="m58.3 844.1h948.8"/>
    <path d="m58.3 641.8h948.8"/>
    <path d="m58.3 540.6h948.8"/>
   </g>
  </g>
  <g stroke-linejoin="round" stroke-width="5.625">
   <path d="m388.3 423.9s89.3-79.4 96.9-83.2c7.1-3.6 14-4.9 18.9-3.4 9.6 2.9 12.2 16.2-3.7 42.5l-31.5 52.1" stroke="#000700"/>
   <g stroke="#000">
    <path d="m435.4 431.5c11.2-27.4-9.2-38.1-20.9-44.2-32.6-16.9-29.7-38.2-22.8-51.3"/>
    <path d="m468.9 431.8 125.6-95.5"/>
    <path d="m594.5 336.3-39 72.4c-8.4 15.5 5 26 21.5 22.2"/>
    <path d="m577 430.9c22-4.5 35.4-27.2 62.6-28.2 14.7.1 12.8 29.5 32.9 29.4 5.5-.8 13.8-6.6 17.7-15.9"/>
   </g>
  </g>
 </g>
</svg>
