<svg height="210mm" viewBox="0 0 1052.4 744.1" width="297mm" xmlns="http://www.w3.org/2000/svg">
 <g fill="none" stroke-linecap="round">
  <g transform="translate(0 -308.26772)">
   <path d="m57.6 742.2h948.8" stroke="#969696" stroke-width="1.875"/>
   <g stroke="#000" stroke-dasharray="3.75 7.5" stroke-miterlimit="2" stroke-width=".9375">
    <path d="m58.3 844.1h948.8"/>
    <path d="m58.3 641.8h948.8"/>
    <path d="m58.3 540.6h948.8"/>
   </g>
  </g>
  <g stroke="#000" stroke-linejoin="round">
   <path d="m488.8 433.1c-3.2 1.4-6.5 3-9.8 4.8-3 1.7-6.1 3.6-9.1 5.6-37.2 24.7-71.5 71.3-65.4 85.5 5.7 13.2 70.8-24.4 97.1-134.9 20.3-90.7 56.1-146.2 90.9-157.8" stroke-width="5.625"/>
   <ellipse cx="675.64355" cy="-65.828629" rx="5.271423" ry="7.848564" stroke-width="14.034715" transform="matrix(.72846687 .68508103 -.68508103 .72846687 0 0)"/>
   <g stroke-width="5.625">
    <path d="m482.5 436c7.2-4.5 18.8-4.5 27.4-4.5s22.3-1.9 30.8-7.8"/>
    <path d="m576.6 534c14.8-7.7 32.2-16.2 28.9-34.4-.6-10.3-25.7-27.9-44-45.3-4.9-4.6-20.2-17.9-29.5-27.6"/>
   </g>
  </g>
 </g>
</svg>
