<svg height="210mm" viewBox="0 0 1052.4 744.1" width="297mm" xmlns="http://www.w3.org/2000/svg">
 <g fill="none" stroke-linecap="round">
  <g transform="translate(0 -308.26772)">
   <path d="m57.6 742.2h948.8" stroke="#969696" stroke-width="1.875"/>
   <g stroke="#000" stroke-dasharray="3.75 7.5" stroke-miterlimit="2" stroke-width=".9375">
    <path d="m58.3 844.1h948.8"/>
    <path d="m58.3 641.8h948.8"/>
    <path d="m58.3 540.6h948.8"/>
   </g>
  </g>
  <g stroke="#000">
   <g stroke-linejoin="round">
    <path d="m467.1 433.6c-50 22.1-96.2 80.8-75.4 96.9 16.5 15.9 39.6-29.5 47.3-42.8 42.1-75.1 66.8-135.4 98.6-211.1 9.8-23.4 9.3-42-10.3-42.4-19 .9-31.5 18.1-43.2 33" stroke-width="5.388435"/>
    <path d="m569.4 384.3-43.2 78.1-3.3 9.2" stroke-width="6.5625"/>
    <path d="m564.6 384.3-44.6 81.7" stroke-width="6.5625"/>
    <g stroke-width="5.625">
     <path d="m569.4 383.9h-9.3"/>
     <path d="m467.1 433.6 93-49.7-39 72.3c-8.4 15.5 5 26.1 21.5 22.2 10.1-2.1 46.3-23.3 76-41.9"/>
    </g>
   </g>
   <path d="m530 458.5c-4.3 7.3-5.9 18.8 4 19.7" stroke-width="3.75"/>
  </g>
 </g>
</svg>
