<svg height="210mm" viewBox="0 0 1052.4 744.1" width="297mm" xmlns="http://www.w3.org/2000/svg">
 <g fill="none" stroke-linecap="round">
  <g transform="translate(0 -308.26772)">
   <path d="m57.6 742.2h948.8" stroke="#969696" stroke-width="1.875"/>
   <g stroke="#000" stroke-dasharray="3.75 7.5" stroke-miterlimit="2" stroke-width=".9375">
    <path d="m58.3 844.1h948.8"/>
    <path d="m58.3 641.8h948.8"/>
    <path d="m58.3 540.6h948.8"/>
   </g>
  </g>
  <g stroke-linejoin="round" stroke-width="5.625">
   <g stroke="#000">
    <path d="m464.8 205.4c-28.2 31.3-142.8 169.7-163.1 194.3"/>
    <path d="m424.2 378.2c-8.9 4.7-24.7 6.2-36.4.6-35.6-17 45.5-140.7 86.7-184.3 4.7-5 12.2-11.7 22.6-13.1"/>
    <path d="m427.5 370.1c.5 0 1 .2 1.3.3.1.1.2.1.3.2.6.5.9 1.4.5 2.7-.7 2.7-3.7 4.2-5.2 4.8-3 1.1-5.2-1.4-3.5-4 1.1-1.6 2.9-3.5 5.1-3.9.1 0 .3-.1.4-.1h.5c.4 0 .8.1 1.3.2"/>
    <path d="m424.2 378.2c25.6 15.2 235.3-79.8 242.3-83.5"/>
    <path d="m666.4 294.8c37-20.1 60.9-14.6 37.5 14.4-27.4 33.8-45.5 50.2-39.4 63.9 4.2 9.6 23.1 7.2 36.5-3.7l8-6.5"/>
    <path d="m793.8 284.2-55.8 97.2"/>
    <path d="m793.8 284.2h-10.6"/>
    <path d="m788.3 284.3-55.8 97.2"/>
    <path d="m738 381.5h-10.6"/>
    <path d="m709 362.9 74.3-78.6-55.8 97.2 11-.1"/>
   </g>
   <path d="m870.4 330.4c-20.7 10.8-44.4 22.5-60.6 35-32.5 23.2-40.2 52.7-38 60 .9 3 16.3 22.9 59.8-38.1 26.9-36.9 54.6-73.4 69.3-116.4 10.7-28.6 1.1-52.4-34.7-21-1.5 1.4-3.2 2.8-4.8 4.4-8.6 8.7-113.4 113.7-123.5 127.1" stroke="#010000"/>
   <g stroke="#000">
    <path d="m261.5 431.7c16.8-1.4 28.7-18.6 40.2-32"/>
    <path d="m188.7 487.9s89-105.4 96.6-114.8c15.9-20.7 17.6-37.4 2.7-37.4-11.7.5-19.5 14.2-31 35.7-16 35.1-8.8 60.1 4.5 60.2"/>
    <path d="m188.7 487.9c-17.5 21.2-25.4 39.1-9.6 43.8 9.5 2.5 15.8.3 29.7-13.3"/>
   </g>
  </g>
 </g>
</svg>
