<svg height="210mm" viewBox="0 0 1052.4 744.1" width="297mm" xmlns="http://www.w3.org/2000/svg">
 <g fill="none" stroke-linecap="round">
  <g transform="translate(0 -308.26772)">
   <path d="m57.6 742.2h948.8" stroke="#969696" stroke-width="1.875"/>
   <g stroke="#000" stroke-dasharray="3.75 7.5" stroke-miterlimit="2" stroke-width=".9375">
    <path d="m58.3 844.1h948.8"/>
    <path d="m58.3 641.8h948.8"/>
    <path d="m58.3 540.6h948.8"/>
   </g>
  </g>
  <g stroke="#000" stroke-width="5.625">
   <path d="m129.1 431.5c88.5-59.2 252.7-58.8 232.8.1" stroke-linejoin="round"/>
   <path d="m361.9 431.6 67.6-42.2"/>
   <path d="m970.2 186-54.9 97.7c-37.7 60.1-44.3 67.3-56.7 79.3-1.5 1.7-3.4 2.7-4.9 3.7-2.3 1.6-4.5 2.8-6.5 3.7-24.4 10.6-25.5-30.1-43.8-33.5-37.4-5.4-70.5 37.5-101.3 35.3"/>
   <g stroke-linejoin="round">
    <path d="m435.8 386.9c70-12.1 190.4-51 225.3-50.9 20.7 1.2 22.2 37.1 41.1 36.4"/>
    <path d="m456.8 396.4a19.2 25.1 41.6 0 1 -14.3 31.3 19.2 25.1 41.6 0 1 -27.6-6.8 19.2 25.1 41.6 0 1 14.3-31.3 19.2 25.1 41.6 0 1 27.6 6.8z"/>
    <path d="m789.3 337c5.7-.6 8.4 1.1 8.4 1.1 5.1 3.3 10.1 7.8 16.8 22.4 5 11 11.9 12 18.4 12 2.2 0 5.2 0 7.5-.2"/>
    <path d="m801.6 338.6c8.1 7.1 6.1 1.9 24.1 29.3"/>
   </g>
  </g>
 </g>
</svg>
