<svg height="210mm" viewBox="0 0 1240.2 744.1" width="350mm" xmlns="http://www.w3.org/2000/svg">
 <g fill="none" stroke-linecap="round" transform="translate(0 -308.26772)">
  <path d="m27.6 742.2h1173.3" stroke="#969696" stroke-width="1.875"/>
  <g stroke="#000" stroke-dasharray="3.75 7.5" stroke-miterlimit="2" stroke-width=".9375">
   <path d="m28.3 844.1h1173.3"/>
   <path d="m28.3 641.8h1173.3"/>
   <path d="m28.3 540.6h1173.3"/>
  </g>
 </g>
 <circle cx="623.48792" cy="363.82892" r="10.653954"/>
 <circle cx="608.09882" cy="412.8371" r="10.653955"/>
 <g fill="none" stroke="#000" stroke-linecap="round">
  <path d="m65.6 384.9c41 3.1 61.4-36.8 58.1-45.5-2.8-7.5-30.1-4.4-54.5 36-46.9 76.7-2.2 60.2 29.5 33.6" stroke-linejoin="round" stroke-width="5.625"/>
  <path d="m786.4 453.1h-32.7" stroke-width="5.625"/>
  <g stroke-linejoin="round">
   <g stroke-width="5.62496">
    <path d="m498.5 336-52.4 95.1"/>
    <path d="m498.5 336h-10.6"/>
    <path d="m492.9 336-52.4 95.1"/>
    <path d="m446.1 431.1-10.6.1"/>
    <path d="m406.8 400.9 81.1-64.8-52.4 95.1 10.9-.2"/>
   </g>
   <g stroke-width="5.625">
    <path d="m446.5 431 85.1-50.9 19.8 51.3"/>
    <path d="m358 336.4-56.7 94.9 56.8-32.4"/>
    <path d="m406.8 400.9c-29.2 23.6-66.9 56.8-48.6-1.9"/>
    <path d="m314.4 291.9c-39.2 19.6-104 53.3-132.3 73.8-32.5 23.2-38.5 50.1-37.3 57.7 1.3 7.7 15.6 25.2 59.1-35.8 26.9-36.9 54.6-73.4 69.3-116.4 10.2-32.6-2.5-59.4-48.2-7.8"/>
    <path d="m678.9 385.1c41 3.1 61.4-36.8 58.1-45.5-2.8-7.5-30.1-4.4-54.5 36-46.9 76.7-2.2 60.2 29.5 33.6"/>
   </g>
   <g stroke-width="5.62496">
    <path d="m1111.7 336.2-52.4 95.1"/>
    <path d="m1111.7 336.2h-10.6"/>
    <path d="m1106.2 336.2-52.4 95.1"/>
    <path d="m1059.4 431.3-10.6.1"/>
    <path d="m1020 401 81.1-64.8-52.4 95.1 10.9-.2"/>
   </g>
   <path d="m1059.7 431.2 85.1-50.9 19.8 51.3" stroke-width="5.625"/>
   <path d="m971.3 336.6-56.7 94.9 56.8-32.4" stroke-width="5.625"/>
   <path d="m1020 401c-29.2 23.6-66.9 56.8-48.6-1.9" stroke-width="5.625"/>
   <path d="m927.7 292.1c-39.2 19.6-104 53.3-132.3 73.8-32.5 23.2-38.5 50.1-37.3 57.7 1.3 7.7 15.6 25.2 59.1-35.8 26.9-36.9 54.6-73.4 69.3-116.4 10.2-32.6-2.5-59.4-48.2-7.8" stroke-width="5.625"/>
  </g>
 </g>
</svg>
