<svg height="210mm" viewBox="0 0 1052.4 744.1" width="297mm" xmlns="http://www.w3.org/2000/svg">
 <g fill="none" stroke-linecap="round">
  <g transform="translate(0 -308.26772)">
   <path d="m57.6 742.2h948.8" stroke="#969696" stroke-width="1.875"/>
   <g stroke="#000" stroke-dasharray="3.75 7.5" stroke-miterlimit="2" stroke-width=".9375">
    <path d="m58.3 844.1h948.8"/>
    <path d="m58.3 641.8h948.8"/>
    <path d="m58.3 540.6h948.8"/>
   </g>
  </g>
  <path d="m680.2 183.1-108.8 165.4" stroke="#000" stroke-width="5.625"/>
  <g stroke-linejoin="round">
   <path d="m680.2 183.1 20 47.9" stroke="#060000" stroke-width="5.625"/>
   <g stroke="#000">
    <ellipse cx="247.826" cy="644.4375" rx="25.728558" ry="20.371416" stroke-width="5.625" transform="matrix(.79083574 -.61202846 .61202846 .79083574 0 0)"/>
    <path d="m467.1 425.7c-40.8 7.2-151.6 6-159.5 4-52.6-13.3 28.6-129.4 74.1-177.6 4.9-5.1 16.6-15.2 24-18.1" stroke-width="5.866431"/>
    <g stroke-width="5.625">
     <path d="m475.1 409.7c1 .1 1.8.3 2.5.7.2.1.4.2.6.4 1.2.9 1.7 2.6 1 5.2-1.3 5.1-7.1 8-9.8 9-5.7 2-9.8-2.6-6.6-7.6 2-3.1 5.5-6.6 9.7-7.5.3-.1.6-.1.9-.1s.7-.1 1-.1c.8 0 1.6.1 2.4.3"/>
     <path d="m475.8 421.3c6-5.2 59-85 59-85"/>
     <path d="m583.5 338.3c-35.9 22.6-66.9 56.8-48.6-1.9"/>
    </g>
   </g>
  </g>
 </g>
</svg>
