<svg height="210mm" viewBox="0 0 1052.4 744.1" width="297mm" xmlns="http://www.w3.org/2000/svg">
 <g fill="none" stroke-linecap="round">
  <g transform="translate(0 -308.26772)">
   <path d="m57.6 742.2h948.8" stroke="#969696" stroke-width="1.875"/>
   <g stroke="#000" stroke-dasharray="3.75 7.5" stroke-miterlimit="2" stroke-width=".9375">
    <path d="m58.3 844.1h948.8"/>
    <path d="m58.3 641.8h948.8"/>
    <path d="m58.3 540.6h948.8"/>
   </g>
  </g>
  <g stroke="#000">
   <g stroke-linejoin="round" stroke-width="5.625">
    <path d="m278.3 394.4 159.4-199c11.2-10 20.1-9.6 25.5-8.3 19.1 4.5 11.2 19.6-4.7 41-15 20.3-24.5 36.8-43.1 61.9-26.3 35.4-55 68-47.8 86.2 9.6 18.5 32.3 6.5 53-11.7"/>
    <ellipse cx="-17.921753" cy="502.80167" rx="25.728558" ry="20.371416" transform="matrix(.79083574 -.61202846 .61202846 .79083574 0 0)"/>
    <path d="m495.2 289.3-39.4 73.1c-8.4 15.5 5 26.1 21.5 22.2 2.8-.7 9.1-2.7 14-6 5.5-3.6 13.2-9.7 18.1-14.2"/>
    <path d="m509.5 364.6 29.4-28 33.3 47.9"/>
    <path d="m538.9 336.6 24 48"/>
    <path d="m548.4 336.6 23.8 47.9"/>
    <path d="m544.4 336.5 24 48"/>
   </g>
   <path d="m539.3 335.5h9" stroke-width="3.75"/>
   <path d="m562.7 385.5h9" stroke-width="3.75"/>
   <path d="m420.6 364.6c2.4-1.9 74.7-75.2 74.7-75.2" stroke-linejoin="round" stroke-width="5.625"/>
  </g>
  <path d="m572.2 384.5 156.8-90.6 184.9-106.8" stroke="#000001" stroke-linejoin="round" stroke-width="5.625"/>
 </g>
</svg>
