<svg height="210mm" viewBox="0 0 1052.4 744.1" width="297mm" xmlns="http://www.w3.org/2000/svg">
 <g fill="none" stroke-linecap="round">
  <g transform="translate(0 -308.26772)">
   <path d="m57.6 742.2h948.8" stroke="#969696" stroke-width="1.875"/>
   <g stroke="#000" stroke-dasharray="3.75 7.5" stroke-miterlimit="2" stroke-width=".9375">
    <path d="m58.3 844.1h948.8"/>
    <path d="m58.3 641.8h948.8"/>
    <path d="m58.3 540.6h948.8"/>
   </g>
  </g>
  <g stroke="#000" stroke-linejoin="round" stroke-width="5.625">
   <path d="m468.2 412c-10.8 7.1-31.8 15.3-39.2 17.6-54.4 17.1 34-131.2 77.7-177.4 4.7-4.9 15.9-14.6 23-17.4"/>
   <path d="m468.2 412s33.9-24.9 43.6-17.4c6.1 4.7 7.9 37.6 20.2 36.1 8.8-1.1 10.1-1.7 15.4-7.4 2.6-2.8 15.1-19.6 19.7-26.9"/>
   <path d="m500 394.5c11.6-4.7 11.4 6.3 12.9 22.9 1 10.8 7.8 13.7 20.1 13.3"/>
   <path d="m500 394.5c5.4-2.4 19-3.6 22.7 15 2.6 13.3 4.7 19.7 13.9 20.5"/>
   <path d="m512.1 397.2c6.8 12.3 1 30.9 15.5 31.8"/>
   <path d="m448 422.1c-11.9 5.9-15 4.6-18.6.2-.3-1.1-.8-5.3 1.9-7.4 3.8-2.9 7.2-2.1 10-.7 3.5 2.1 6.5 8 2.4 9.7-1.5.6-9.9 4.3-14.3 5.4"/>
   <path d="m567.1 396.4c9.4-13.7 78.6-130.1 81.4-133.9 9-12.3 18.4-28.1 34.4-27.3 17.9.9 16 70.9 53.9 25.2"/>
   <path d="m529 234.9c-54.9 10-258 298.7-258 298.7"/>
  </g>
 </g>
</svg>
