<svg height="210mm" viewBox="0 0 1052.4 744.1" width="297mm" xmlns="http://www.w3.org/2000/svg">
 <g fill="none" stroke-linecap="round">
  <g transform="translate(0 -308.26772)">
   <path d="m57.6 742.2h948.8" stroke="#969696" stroke-width="1.875"/>
   <g stroke="#000" stroke-dasharray="3.75 7.5" stroke-miterlimit="2" stroke-width=".9375">
    <path d="m58.3 844.1h948.8"/>
    <path d="m58.3 641.8h948.8"/>
    <path d="m58.3 540.6h948.8"/>
   </g>
  </g>
  <g stroke="#000" stroke-width="5.625">
   <g stroke-linejoin="round">
    <path d="m439.3 430.7s268.5-200.1 268.5-200.1"/>
    <path d="m707.8 230.6c14.7-10.1 56.6-43.6 75.3-39.4 19.1 4.5 11.2 19.6-4.7 41.1-15 20.3-43.7 61.5-52.2 73.3-19.5 27.2-45.9 56.7-38.8 74.9 9.6 18.5 40 1.8 64-11.7"/>
    <path d="m396.1 335.9 43.2 94.8"/>
   </g>
   <path d="m396.1 335.9-87.2 144.6c-19.9 34.4-20.4 51.1 2.7 52.1 10.5.3 20.1-5.5 29.3-14.6"/>
  </g>
 </g>
</svg>
