<svg height="210mm" viewBox="0 0 1052.4 744.1" width="297mm" xmlns="http://www.w3.org/2000/svg">
 <g fill="none" stroke-linecap="round">
  <g transform="translate(0 -308.26772)">
   <path d="m57.6 742.2h948.8" stroke="#969696" stroke-width="1.875"/>
   <g stroke="#000" stroke-dasharray="3.75 7.5" stroke-miterlimit="2" stroke-width=".9375">
    <path d="m58.3 844.1h948.8"/>
    <path d="m58.3 641.8h948.8"/>
    <path d="m58.3 540.6h948.8"/>
   </g>
  </g>
  <g stroke="#000" stroke-linejoin="round" stroke-width="5.625">
   <path d="m625.5 328.4c81.9-46.2 316.4-195.1 316.4-195.1"/>
   <ellipse cx="676.29584" cy="-191.72128" rx="4.609393" ry="6.862875" transform="matrix(.72846687 .68508103 -.68508103 .72846687 0 0)"/>
   <path d="m941.9 133.3 20.5 46.3"/>
   <path d="m167.7 435.3c-29.3 10.9-102.7 81.4-74.3 96.5 15.1 5.9 33.2-15.2 46.8-38.3 18.6-31.4 45-101.6 53.1-131.4 27.2-101 71.3-136.5 87.3-124.8 12.4 9.1-21 81.4-77.9 97.1"/>
   <ellipse cx="266.28839" cy="577.91559" rx="59.926067" ry="43.050335" transform="matrix(.88109295 -.47294313 .47294313 .88109295 0 0)"/>
   <path d="m473.1 355.2c18.3-17 60.4-52.5 82-52.7s22.8 25.8 40 31c11.2 3.4 19.6 1.2 30.4-5.1"/>
   <path d="m167.7 435.3c18.1-9.4 333.7-95.9 333.7-95.9"/>
  </g>
 </g>
</svg>
