<svg height="210mm" viewBox="0 0 1052.4 744.1" width="297mm" xmlns="http://www.w3.org/2000/svg">
 <g fill="none" stroke-linecap="round">
  <g transform="translate(0 -308.26772)">
   <path d="m57.6 742.2h948.8" stroke="#969696" stroke-width="1.875"/>
   <g stroke="#000" stroke-dasharray="3.75 7.5" stroke-miterlimit="2" stroke-width=".9375">
    <path d="m58.3 844.1h948.8"/>
    <path d="m58.3 641.8h948.8"/>
    <path d="m58.3 540.6h948.8"/>
   </g>
  </g>
  <g stroke="#000" stroke-linejoin="round" stroke-width="5.625">
   <path d="m425.3 431 43.5-42.8"/>
   <path d="m468.9 388.2c16-14.5 26.9-26.8 40.2-37.7 26.4-23.8 61.3-21.3 31.5 28.5l-31.2 52.3"/>
   <path d="m379.8 335.3 45.6 95.7"/>
   <path d="m509.3 431.2 88.8-41.8"/>
   <path d="m596.4 533.4c28.5-22.6 35.5-31.4 39-55.7 1.8-12.5-2.6-28-12.8-37.6-5-4.7-11-8.4-17-11.7-8.5-4.8-11.8-5.8-17.2-11.5-6-6.3-5-21.2 9.8-27.5"/>
  </g>
 </g>
</svg>
