<svg height="210mm" viewBox="0 0 1052.4 744.1" width="297mm" xmlns="http://www.w3.org/2000/svg">
 <g fill="none" stroke-linecap="round">
  <g transform="translate(0 -308.26772)">
   <path d="m57.6 742.2h948.8" stroke="#969696" stroke-width="1.875"/>
   <g stroke="#000" stroke-dasharray="3.75 7.5" stroke-miterlimit="2" stroke-width=".9375">
    <path d="m58.3 844.1h948.8"/>
    <path d="m58.3 641.8h948.8"/>
    <path d="m58.3 540.6h948.8"/>
   </g>
  </g>
  <g stroke="#000" stroke-width="5.625">
   <g stroke-linejoin="round">
    <path d="m499.5 354.9c6.1-5.8 15.7-17.2 29.7-19.3 16.8-2.6 24.5 13 8.8 32.4-27.4 33.8-44.1 44.9-34.1 57.5 5.2 6.5 13.4 6.4 23.7 3.3 10.2-3 22.6-11.8 46.9-36.2"/>
    <path d="m686.6 274.9-55.8 97.2"/>
    <path d="m686.6 274.9h-10.6"/>
    <path d="m681.1 274.9-55.8 97.2"/>
    <path d="m630.8 372.2h-10.6"/>
    <path d="m574.5 392.5 101.5-117.6-55.8 97.2 11-.1"/>
    <path d="m631.2 372.1c10.2-5.8 20.2-9 25.5-10.4 11.2-3 25.5-3.1 24.1 4.7 0 .2.1.4.1.7 0 1.4-.6 2.7-2.1 3.8-2.9 2.2-6.9.8-8.5-.4-3.3-.5-1-11.9 0-10.6 1.7 2.4 0 0 8.8 2.8.2.1.3.3.4.5.2.2.4.7.6.9.3.5.4.9.7 1.6"/>
    <path d="m680.6 366.4a5.5 1.8 0 0 1 -5.5 1.8 5.5 1.8 0 0 1 -5.5-1.8 5.5 1.8 0 0 1 5.4-1.8 5.5 1.8 0 0 1 5.5 1.8h-5.5z"/>
    <path d="m428.5 407.1c5.8-3.7 12.8-11.7 7.1-19-2.8-3.6-4.4-5-13-4.9l-107.7.6c-7.4 0-15.4-.2-17.4-.8-9.6-2.9-8.5-13.1.2-25.1"/>
   </g>
   <path d="m468.4 383.6-77.6 149.4"/>
   <path d="m468.4 383.6-40 23.5"/>
  </g>
 </g>
</svg>
