<svg height="210mm" viewBox="0 0 1052.4 744.1" width="297mm" xmlns="http://www.w3.org/2000/svg">
 <g fill="none" stroke-linecap="round">
  <g transform="translate(0 -308.26772)">
   <path d="m57.6 742.2h948.8" stroke="#969696" stroke-width="1.875"/>
   <g stroke="#000" stroke-dasharray="3.75 7.5" stroke-miterlimit="2" stroke-width=".9375">
    <path d="m58.3 844.1h948.8"/>
    <path d="m58.3 641.8h948.8"/>
    <path d="m58.3 540.6h948.8"/>
   </g>
  </g>
  <g stroke="#000">
   <g stroke-linejoin="round">
    <path d="m489.3 379.3c-21.9.3-27.2-42.9-51.2-42.9-24.2-.1-43.8 28-59.6 45.3-11.8 13-24 28.8-38.6 39.8-7.7 5.8-17 9-24.3 9.5s-13.6-1.8-16.2-7.3c-7.2-15.4 13.6-29.6 37.7-58.8 8.1-9.8 8.7-18.1 5.1-23.2-1.5-2.1-3.8-3.7-6.5-4.7-2.6-.9-5.7-1.2-9-.9-14.3 1.8-23.7 12-31.7 19.6" stroke-width="5.625"/>
    <path d="m638.8 263.8c-24.4 29.4-46.8 43.9-39.6 59.4 2.6 5.6 8.8 7.4 16.3 7.4" stroke-width="5.624999"/>
    <path d="m615.6 330.7c11.1-.3 26.4-1.1 44.1-7.2" stroke-width="5.624999"/>
    <ellipse cx="693.97681" cy="-222.38765" rx="5.271424" ry="7.848564" stroke-width="14.034715" transform="matrix(.72846687 .68508103 -.68508103 .72846687 0 0)"/>
   </g>
   <path d="m638.8 263.8c8.2-9.9 8.8-18.2 5.1-23.4-1.5-2.2-3.8-3.8-6.6-4.7-2.6-.9-7.6-1.2-10.9-.9-14.5 1.8-24.7 12.3-32 21.6-20.6 26.5-53 73.9-78 107.3-7.1 9.5-16.5 16.1-27.2 15.6" stroke-width="5.624999"/>
   <g stroke-width="5.625">
    <path d="m704.3 251.6s-28.2 54.9-38.9 67.4" stroke-linejoin="round"/>
    <path d="m744 245.8c3.7 10.5-2.8 24.6-14.3 31.3-11.6 6.8-23.9 3.7-27.6-6.8s2.8-24.6 14.3-31.3c11.6-6.8 23.9-3.7 27.6 6.8z" stroke-linejoin="round"/>
    <path d="m815.5 82.5-108.8 165.5"/>
   </g>
  </g>
 </g>
</svg>
