<svg height="210mm" viewBox="0 0 1052.4 744.1" width="297mm" xmlns="http://www.w3.org/2000/svg">
 <g fill="none" stroke-linecap="round">
  <g transform="translate(0 -308.26772)">
   <path d="m57.6 742.2h948.8" stroke="#969696" stroke-width="1.875"/>
   <g stroke="#000" stroke-dasharray="3.75 7.5" stroke-miterlimit="2" stroke-width=".9375">
    <path d="m58.3 844.1h948.8"/>
    <path d="m58.3 641.8h948.8"/>
    <path d="m58.3 540.6h948.8"/>
   </g>
  </g>
  <g stroke="#000" stroke-linejoin="round">
   <path d="m205.4 431.4c20.9-10.7 307.5-134.7 325.4-145.2 27.2-15.9 49.1-30 70-50.4 23.8-23.3 34.1-45.8 29.2-54.2-7.8-13.3-36.9 10.3-84.1 88.2l-52.6 106" stroke-width="5.625"/>
   <path d="m493.2 375.8c112.9-117.6 127.1-137.2 151-140.4 8.1-1.4 13.9 1.9 17.1 7.1 3.3 5.7 3 13.6.2 20.7-8.8 23.9-26.7 66.8-26.7 66.8" stroke-width="5.625002"/>
   <path d="m755.2 318.2c-7.6 6.2-17.1 11.1-24.5 11.3-7.3.8-13.7-1.8-16.3-7.4-7.2-15.5 13.3-29.1 37.7-58.6 8.2-9.9 8.8-18.2 5.1-23.4-1.5-2.2-3.8-3.8-6.6-4.7-10-3-17.2-1.2-24.2 2.4-12.7 6.6-30 23.6-42.3 37-9.4 10.2-24.1 26.6-49.3 55.2" stroke-width="5.624999"/>
  </g>
 </g>
</svg>
