<svg height="210mm" viewBox="0 0 1052.4 744.1" width="297mm" xmlns="http://www.w3.org/2000/svg">
 <g fill="none" stroke-linecap="round">
  <g transform="translate(0 -308.26772)">
   <path d="m57.6 742.2h948.8" stroke="#969696" stroke-width="1.875"/>
   <g stroke="#000" stroke-dasharray="3.75 7.5" stroke-miterlimit="2" stroke-width=".9375">
    <path d="m58.3 844.1h948.8"/>
    <path d="m58.3 641.8h948.8"/>
    <path d="m58.3 540.6h948.8"/>
   </g>
  </g>
  <g stroke="#000">
   <g stroke-linejoin="round">
    <g stroke-width="5.625">
     <path d="m701 414.4c.8.1 1.4.2 1.9.5.2.1.3.2.5.3.9.7 1.3 2 .8 4-1 3.9-5.4 6.1-7.5 6.9-4.3 1.6-7.6-2-5.1-5.9 1.6-2.4 4.2-5.1 7.4-5.7.2 0 .4-.1.7-.1s.5-.1.8-.1c.6 0 1.2.1 1.9.3"/>
     <path d="m700.7 425.3c7-3.5 14.5-7.3 24.2-12.7 15.8-8.6 33.6-17.5 43.7-15.6 20.2 3.8 18.7 54.1 53.5 25.2"/>
     <path d="m746 402.1c6.3-2.8 21.8-2.6 31.1 17.6 6.6 14.3 16.3 11.1 24 11.6"/>
    </g>
    <path d="m763.1 399.8c7.8 4.9 8.8 2 26.1 28.6" stroke-width="6.587558"/>
    <g stroke-width="5.625">
     <path d="m700.7 425.3c-14.1 8.1-36.2 8.6-42.6.1-34.5-35.6 53-168.5 106.1-190.7"/>
     <path d="m575.5 294.7c3-4.3 37.2-43.3 43.4-48.3 23.7-19.2 60.9-14.6 37.5 14.4-27.4 33.8-45.5 50.2-39.4 63.9 1.7 3.9 5.8 6.2 11 6 39.3-1.6 83.8-64 120.2-87.1"/>
    </g>
   </g>
   <path d="m657.2 238.1c14.5 10.1 4.3 27.8-12.4 44.2-14.4 14-23.4 26.4-29.5 38.7" stroke-width="5.625"/>
   <path d="m657.2 238.1c.8-1.1 3.9 6.1.7 14.2-3.2 8.4-12.8 17.8-18.3 22.9-10.8 10.1-30.6 29-24.3 45.7" stroke-width="5.625"/>
   <g stroke-width="2.8125">
    <path d="m648.6 236.4c11.3 1.3 8.8 6.5 9.1 11"/>
    <path d="m620.4 313.6c-2.7 4.9-3.8 12 2.3 14.5"/>
    <path d="m612.7 315c-.1 5.7 2.9 11.5 4.9 13.1"/>
   </g>
   <g stroke-linejoin="round" stroke-width="5.625">
    <path d="m413.1 352.6s69.1-54.7 92.9-47.9c20.4 5.9 24.2 45.5 48.5 15.6l20.7-25.5"/>
    <path d="m294.8 358c4.7-5.1 8.5-9 10.2-10.4 23.7-19.2 60.9-14.6 37.5 14.4-27.4 33.8-45.5 50.2-39.4 63.9 4.2 9.5 22.6 6.5 36.5-3.7 6.5-4.7 11.8-9.8 17.1-14.8"/>
    <ellipse cx="213.02269" cy="549.21503" rx="62.130169" ry="44.633743" transform="matrix(.88109295 -.47294313 .47294313 .88109295 0 0)"/>
   </g>
   <path d="m504.2 361.2c-13.8 27.9-38.1 52.4-66.8 70.7" stroke-width="5.385754"/>
   <path d="m505.3 370.2c-15.9 21.3-33.1 41.5-54 58.5" stroke-width="5.385754"/>
   <path d="m504.4 376.7c-14.3 21.6-19.7 29.6-41.7 46.5" stroke-width="7.181006"/>
   <path d="m453 419.8c-10.1 9.6-24.3 12.2-31.1 10.7" stroke-width="3.590503"/>
   <path d="m496.1 347.3c2.2 2.5 8.7 12.2 1.3 24.5" stroke-width="3.590503"/>
   <path d="m407.2 357.8-50.6 49.6" stroke-linejoin="round" stroke-width="5.625"/>
  </g>
 </g>
</svg>
