<svg height="210mm" viewBox="0 0 1052.4 744.1" width="297mm" xmlns="http://www.w3.org/2000/svg">
 <g fill="none" stroke-linecap="round">
  <g transform="translate(0 -308.26772)">
   <path d="m57.6 742.2h948.8" stroke="#969696" stroke-width="1.875"/>
   <g stroke="#000" stroke-dasharray="3.75 7.5" stroke-miterlimit="2" stroke-width=".9375">
    <path d="m58.3 844.1h948.8"/>
    <path d="m58.3 641.8h948.8"/>
    <path d="m58.3 540.6h948.8"/>
   </g>
  </g>
  <g stroke="#000" stroke-linejoin="round">
   <g stroke-width="5.624999">
    <path d="m340.7 355.3c8.1-7.6 17.5-17.9 32-19.7 3.3-.4 6.4-.1 9 .9 2.8 1 5 2.6 6.6 4.7 3.7 5.2 3.1 13.5-5.1 23.4-24.4 29.4-45.3 43.7-38 59.3 1.2 2.5 3.1 4.4 5.6 5.7 1.4.7 3 1.2 4.6 1.5 4.9.8 13.5.1 18.7-.7 21.4-3.1 218.2-44.3 218.2-44.3"/>
    <path d="m592.3 386.1-46.6 95.4"/>
    <path d="m545.7 481.5 88.8-44.2 21.3 44.2"/>
   </g>
   <path d="m655.8 481.5s79.9-140.1 87.6-151.1c8.7-12.5 18.2-25.3 30.6-25.8 13.4-.6 16.2 26.6 31.3 26.1 4.8-.1 11.1-3.9 19.6-13.3" stroke-width="5.625"/>
  </g>
 </g>
</svg>
