<svg height="210mm" viewBox="0 0 1052.4 744.1" width="297mm" xmlns="http://www.w3.org/2000/svg">
 <g fill="none" stroke-linecap="round">
  <g transform="translate(0 -308.26772)">
   <path d="m57.6 742.2h948.8" stroke="#969696" stroke-width="1.875"/>
   <g stroke="#000" stroke-dasharray="3.75 7.5" stroke-miterlimit="2" stroke-width=".9375">
    <path d="m58.3 844.1h948.8"/>
    <path d="m58.3 641.8h948.8"/>
    <path d="m58.3 540.6h948.8"/>
   </g>
  </g>
  <g stroke="#000" stroke-linejoin="round">
   <path d="m461.8 260.7c112.1-105.4-7.4 143.1-72.4 171.3" stroke-width="5.625"/>
   <path d="m392.7 418c-5.2 1.4-9.2 5.1-9.2 7.7 0 3.7.8 5.8 5.8 6.3" stroke-width="5.419139"/>
   <g stroke-width="5.625">
    <path d="m392.7 418c15.1-4.1 65.8-16.4 80.7-16.7 14.1-.4 13.4 29.9 31 30 2.6 0 5.1-.3 7.5-.9 17-4.5 53.7-58.1 69.8-72.8"/>
    <path d="m475.3 404.7 18.9 24.9"/>
    <path d="m457.8 403.3c6.8-.5 16.8-1.1 22.9 15.8 4.6 12.7 18.5 15.1 26.2 12.3"/>
    <path d="m583.9 431.3 68.7-42.8"/>
    <path d="m581.8 357.6c12.9-12.2 25.4-17.8 32.9-20 21.3-6.2 31.8 15.3-22.5 46.6 44.5-17.9 9.4 21.5-8.4 47.1"/>
   </g>
  </g>
 </g>
</svg>
