<svg height="210mm" viewBox="0 0 1052.4 744.1" width="297mm" xmlns="http://www.w3.org/2000/svg">
 <g fill="none" stroke-linecap="round">
  <g transform="translate(0 -308.26772)">
   <path d="m57.6 742.2h948.8" stroke="#969696" stroke-width="1.875"/>
   <g stroke="#000" stroke-dasharray="3.75 7.5" stroke-miterlimit="2" stroke-width=".9375">
    <path d="m58.3 844.1h948.8"/>
    <path d="m58.3 641.8h948.8"/>
    <path d="m58.3 540.6h948.8"/>
   </g>
  </g>
  <g stroke="#000">
   <path d="m480.1 385.1 21.1 45.9s45.8-61.8 53.8-69.2" stroke-linejoin="round" stroke-width="5.625"/>
   <path d="m566.8 429.9c-16.8 7.9-32.1 17.3-58.5 37.9-32.5 23.2-40.2 52.7-38 60 .9 3 16.3 22.9 59.8-38.1 26.9-36.9 54.6-73.4 69.3-116.4 15.5-30.1-1.4-56.7-44.4-11.6" stroke-linejoin="round" stroke-width="5.625"/>
   <path d="m600 362.4c-20.5 45.9-64.8 123.2-100.9 158.2" stroke-width="8.4375"/>
   <path d="m603.1 350.3c1.4 8.4-92.8 164.8-114.9 178.5" stroke-width="5.625"/>
   <g stroke-width="3.75">
    <path d="m595.5 338.9c7 1.1 9.6 9.2 3 20.7"/>
    <path d="m495.9 520.5c-6.3 5.5-18.8 17.1-24.4 7.2"/>
   </g>
  </g>
 </g>
</svg>
