<svg height="210mm" viewBox="0 0 1052.4 744.1" width="297mm" xmlns="http://www.w3.org/2000/svg">
 <g fill="none" stroke-linecap="round">
  <g transform="translate(0 -308.26772)">
   <path d="m57.6 742.2h948.8" stroke="#969696" stroke-width="1.875"/>
   <g stroke="#000" stroke-dasharray="3.75 7.5" stroke-miterlimit="2" stroke-width=".9375">
    <path d="m58.3 844.1h948.8"/>
    <path d="m58.3 641.8h948.8"/>
    <path d="m58.3 540.6h948.8"/>
   </g>
  </g>
  <g stroke="#000" stroke-linejoin="round" stroke-width="5.625">
   <path d="m560.7 429.3s-157.2 2.5-162.7 2.3"/>
   <path d="m285.3 430.9c18.1-1 58.5-31.7 72.4-31.4 21.2-.2 18.7 32.1 40.2 32.1"/>
   <path d="m202.2 430.9 114.5-95.2c-13.8 25.3-28.6 48.1-43 73-9.2 16.6-1 23 11.7 22.3"/>
   <path d="m623.3 430.3c22.1-5.7 58.2-30.7 80.7-31 22.1-.2 26.2 51.2 54.3 24.3 5.2-5 15.3-17.3 15.3-17.3"/>
   <path d="m773.7 406.4 42.7-63.8"/>
   <path d="m816.4 342.6c21.6-28.9 36.1-52.4 56.9-56.8 10.7-2.7 14.3.7 18.7 3.2 7.6 4.3 8 17.2-6 41.5l-29.8 52.1"/>
   <path d="m670.8 335.2c-47.6 14.7-88.5 105.4-47.4 95.2"/>
  </g>
 </g>
</svg>
