<svg height="210mm" viewBox="0 0 1052.4 744.1" width="297mm" xmlns="http://www.w3.org/2000/svg">
 <g fill="none" stroke-linecap="round">
  <g transform="translate(0 -308.26772)">
   <path d="m57.6 742.2h948.8" stroke="#969696" stroke-width="1.875"/>
   <g stroke="#000" stroke-dasharray="3.75 7.5" stroke-miterlimit="2" stroke-width=".9375">
    <path d="m58.3 844.1h948.8"/>
    <path d="m58.3 641.8h948.8"/>
    <path d="m58.3 540.6h948.8"/>
   </g>
  </g>
  <g stroke="#000" stroke-linejoin="round">
   <path d="m527.7 354.6c-9.6 5.1-53.6 32.9-36.4 31.7 13.6-.6 37.2-29.4 44.3-41.1 16-26.9 20.3-56.7 4-55.6-11.3.8-23.8 13.8-34.1 26.9-24.8 31.5-53.7 75.7-81.7 114.5" stroke-width="5.419139"/>
   <path d="m527.7 354.6c24.8-12 44.8-18.3 59-18.5 23-.3 31 15.5 20.2 49.3" stroke-width="5.625"/>
  </g>
 </g>
</svg>
