<svg height="210mm" viewBox="0 0 1052.4 744.1" width="297mm" xmlns="http://www.w3.org/2000/svg">
 <g fill="none" stroke-linecap="round">
  <g transform="translate(0 -308.26772)">
   <path d="m57.6 742.2h948.8" stroke="#969696" stroke-width="1.875"/>
   <g stroke="#000" stroke-dasharray="3.75 7.5" stroke-miterlimit="2" stroke-width=".9375">
    <path d="m58.3 844.1h948.8"/>
    <path d="m58.3 641.8h948.8"/>
    <path d="m58.3 540.6h948.8"/>
   </g>
  </g>
  <g stroke="#000" stroke-linejoin="round">
   <path d="m373.7 415.2c11.7 4.6 21.5-9.5 40-34.6 16.4-22.4 32.7-43.7 51.9-44.2 10.6-.3 16.4 6.7 15.4 15.5-.8 6.3-4.5 14.8-10.8 26.8l-27.7 52.7" stroke-width="5.624999"/>
   <g stroke-width="5.625">
    <path d="m377.4 413.5c-16.5 12.6-33.9 17.7-54.9 17.5-20.1-.2-37.2-10.7-38.4-35.6"/>
    <ellipse cx="553.80859" cy="39.844551" rx="4.609393" ry="6.862874" transform="matrix(.72846687 .68508103 -.68508103 .72846687 0 0)"/>
    <path d="m442.4 431.3c25.1-11.9 64.6-30.3 81.6-30.5 17.6-.2 17.7 28.8 39.4 29.7 27.7 1.1 49.1-35.9 59.3-48.7 17-21.4 34.2-47.5 56.2-46 5.8.5 9.1 4.4 10.4 10.7 1.5 7.5.2 18.4-3.4 31.3-14.8 54-68 142.2-107.4 154.4"/>
   </g>
  </g>
 </g>
</svg>
