<svg height="210mm" viewBox="0 0 1052.4 744.1" width="297mm" xmlns="http://www.w3.org/2000/svg">
 <g fill="none" stroke-linecap="round">
  <g transform="translate(0 -308.26772)">
   <path d="m57.6 742.2h948.8" stroke="#969696" stroke-width="1.875"/>
   <g stroke="#000" stroke-dasharray="3.75 7.5" stroke-miterlimit="2" stroke-width=".9375">
    <path d="m58.3 844.1h948.8"/>
    <path d="m58.3 641.8h948.8"/>
    <path d="m58.3 540.6h948.8"/>
   </g>
  </g>
  <g stroke="#000">
   <path d="m336 431.2c17.6-29.1 33.1-39.3 50.2-44.5 29.3-8.8 46.2 9 37.5 44.8" stroke-linejoin="round" stroke-width="5.625"/>
   <path d="m423.7 431.5 138.3-.7" stroke-width="5.625"/>
   <path d="m568.4 418.8c.8.1 1.4.2 1.9.4.2.2.3.2.5.3 1 .8 1.3 2 .7 4-1 3.9-5.4 6.1-7.5 6.9-4.3 1.6-7.6-2-5.1-5.8 1.6-2.4 4.3-5.1 7.4-5.7.2-.1.4-.1.7-.2h.8c.6 0 1.2.1 1.8.2" stroke-linejoin="round" stroke-width="5.624959"/>
   <path d="m569 427.7c2.2-.4 67.4-74.4 90.5-87.1" stroke-width="5.625"/>
   <g stroke-linejoin="round">
    <path d="m659.6 340.6c22.1-11.9 41.5-2.8 16.7 38.1l-31.5 52.1 73-40.9" stroke-width="5.625"/>
    <path d="m541.6 419c.8.1 1.4.2 1.9.4.2.2.3.2.5.3 1 .8 1.3 2 .7 4-1 3.9-5.4 6.1-7.5 6.9-4.3 1.6-7.6-2-5.1-5.8 1.6-2.4 4.3-5.1 7.4-5.7.2-.1.4-.1.7-.2h.8c.6 0 1.2.1 1.8.2" stroke-width="5.624959"/>
   </g>
  </g>
 </g>
</svg>
