<svg height="210mm" viewBox="0 0 1052.4 744.1" width="297mm" xmlns="http://www.w3.org/2000/svg">
 <g fill="none" stroke-linecap="round">
  <g transform="translate(0 -308.26772)">
   <path d="m57.6 742.2h948.8" stroke="#969696" stroke-width="1.875"/>
   <g stroke="#000" stroke-dasharray="3.75 7.5" stroke-miterlimit="2" stroke-width=".9375">
    <path d="m58.3 844.1h948.8"/>
    <path d="m58.3 641.8h948.8"/>
    <path d="m58.3 540.6h948.8"/>
   </g>
  </g>
  <g stroke-linejoin="round" stroke-width="5.625">
   <g stroke="#000">
    <path d="m576.4 382.8 22.4 48"/>
    <path d="m576.4 382.8c-15.9 11.5-80.1 64.8-103.3 86-34.6 31.6-45.2 51.4-42.3 59.1 1.1 2.9 17.7 21.8 57.3-41.8l88-150.7"/>
    <path d="m600.6 430.3 54.9-35.8"/>
    <path d="m662.2 532.8c28.5-22.6 35.5-31.4 39-55.7 1.8-12.5-2.6-28-12.8-37.6-5-4.7-11-8.4-17-11.7-8.5-4.8-11.8-5.8-17.2-11.5-6-6.3-5-21.2 9.8-27.5"/>
   </g>
   <path d="m421.6 337c-52.1 13.6-97.3 122.8-33.5 87.2 4.7-2.6 7.7-6.4 9.8-8.2 3.9-3.2 16.4-18.1 22.6-25.3 1.3-1.5 6.8-7.8 7.4-8.5" stroke="#00000b"/>
   <path d="m427.9 382.2c.7-1 8-9.9 11.5-13.9 6.2-7 14.4-16 15.8-17.4 24.9-25.2 60.4-22.2 30.7 27.6l-31.2 52.3" stroke="#00000b"/>
   <path d="m454.6 430.8 121.6-95.5" stroke="#000"/>
  </g>
 </g>
</svg>
