<svg height="210mm" viewBox="0 0 1052.4 744.1" width="297mm" xmlns="http://www.w3.org/2000/svg">
 <g fill="none" stroke-linecap="round">
  <g transform="translate(0 -308.26772)">
   <path d="m57.6 742.2h948.8" stroke="#969696" stroke-width="1.875"/>
   <g stroke="#000" stroke-dasharray="3.75 7.5" stroke-miterlimit="2" stroke-width=".9375">
    <path d="m58.3 844.1h948.8"/>
    <path d="m58.3 641.8h948.8"/>
    <path d="m58.3 540.6h948.8"/>
   </g>
  </g>
  <g stroke="#000">
   <g stroke-width="5.625">
    <g stroke-linejoin="round">
     <path d="m239.1 358.7c24.3-33 69.8-34.2 37.2 20l-31.5 52.1 55.3-54.8"/>
     <path d="m300.1 376 40.5-40.8-39 72.4c-8.4 15.5 5 26 21.5 22.2 10.1-2.1 46.3-23.3 76-41.9"/>
     <path d="m138.6 398.2 33.9-16-27.4 48.9"/>
    </g>
    <path d="m528.7 390.1-54 41"/>
   </g>
   <g stroke-linejoin="round">
    <path d="m684.9 311c-8.1 7.6-17.5 17.9-32 19.7-3.3.4-6.4.1-9-.9-2.8-1-5-2.6-6.6-4.7-3.7-5.2-3.1-13.5 5.1-23.4 24.4-29.4 45.3-43.7 38-59.3-2.6-5.6-9-8.2-16.3-7.4-11.8 1.4-20.1 7.7-27.8 15" stroke-width="5.624999"/>
    <g stroke-width="5.625">
     <path d="m819.6 347.7c23.7-19.2 60.9-14.6 37.5 14.4-27.4 33.8-45.5 50.2-39.4 63.9 1.9 4.2 6.4 5.8 12.1 5.3"/>
     <path d="m829.8 431.3c29.3-.3 76.5-38.2 96.7-34.5 20.2 3.8 18.7 54.1 53.5 25.2"/>
     <path d="m903.9 401.9c2.8-1.2 7.4-1.8 12.4-.4 6.4 1.8 13.5 6.8 18.7 18.1 4.3 9.4 10.3 11.2 16 11.5 3 .1 7.6 0 10.4 0"/>
    </g>
    <path d="m921 399.7c7.8 4.9 8.8 2 26.1 28.6" stroke-width="6.587558"/>
   </g>
  </g>
 </g>
</svg>
