<svg height="210mm" viewBox="0 0 1052.4 744.1" width="297mm" xmlns="http://www.w3.org/2000/svg">
 <g fill="none" stroke-linecap="round">
  <g transform="translate(0 -308.26772)">
   <path d="m57.6 742.2h948.8" stroke="#969696" stroke-width="1.875"/>
   <g stroke="#000" stroke-dasharray="3.75 7.5" stroke-miterlimit="2" stroke-width=".9375">
    <path d="m58.3 844.1h948.8"/>
    <path d="m58.3 641.8h948.8"/>
    <path d="m58.3 540.6h948.8"/>
   </g>
  </g>
  <g stroke="#000" stroke-linejoin="round" stroke-width="5.625">
   <path d="m459 382.7 25.2-37.6"/>
   <path d="m431.9 336.9-42.4 73.1c-11.9 20.5 8.4 28.4 31.3 14.4 13.8-9.8 30.4-30.4 38.1-41.6"/>
   <path d="m481.4 335.8c1 .1 1.8.3 2.5.7.2.1.4.2.6.4 1.2.9 1.7 2.6 1 5.2-1.3 5.1-7.1 8-9.8 9-5.7 2-9.8-2.6-6.6-7.6 2-3.1 5.5-6.6 9.7-7.5.3-.1.6-.1.9-.1s.7-.1 1-.1c.8 0 1.6.1 2.4.3"/>
   <path d="m476.6 350.9c26.5-6.9 67.9-23 73.5-26.5 13.3-8.1 42.2-26.6 36.9-44.3-2.8-7.3-34.7-8.6-58.5 30.7-26.3 43.1-17.7 60.3-4.2 58.6 18.1 0 40.3-27.4 56.8-33.9"/>
   <path d="m579.3 479.2c28.5-22.6 35.5-31.4 39-55.7 1.8-12.5-2.6-28-12.8-37.6-5-4.7-11-8.4-17-11.7-8.5-4.8-11.8-5.8-17.2-11.5-6-6.3-5-21.2 9.8-27.5"/>
  </g>
 </g>
</svg>
