<svg height="210mm" viewBox="0 0 1052.4 744.1" width="297mm" xmlns="http://www.w3.org/2000/svg">
 <g fill="none" stroke-linecap="round">
  <g transform="translate(0 -308.26772)">
   <path d="m57.6 742.2h948.8" stroke="#969696" stroke-width="1.875"/>
   <g stroke="#000" stroke-dasharray="3.75 7.5" stroke-miterlimit="2" stroke-width=".9375">
    <path d="m58.3 844.1h948.8"/>
    <path d="m58.3 641.8h948.8"/>
    <path d="m58.3 540.6h948.8"/>
   </g>
  </g>
  <g stroke="#000" stroke-linejoin="round" stroke-width="5.625">
   <path d="m300 338.1-42.4 73.1c-11.9 20.5 10 23.2 29 16.4 13.6-3.7 131.5-56 222.6-95.4"/>
   <path d="m288.7 416.6c.8.1 1.4.2 1.9.5.2.1.3.2.5.3.9.7 1.3 2 .8 4-1 3.9-5.4 6.1-7.5 6.9-4.3 1.6-7.6-2-5.1-5.9 1.6-2.4 4.2-5.1 7.4-5.7.2 0 .4-.1.7-.1s.5-.1.8-.1c.6 0 1.2.1 1.9.3"/>
   <path d="m506.3 433.5c-75.1 28.2-93.6 80.8-90.7 94.6.6 3.1 9.6 22.2 53.1-38.8 48.1-67.3 86.2-138.1 121.9-209.8 24.4-41.7.9-65.2-35.7-18.9"/>
   <path d="m506.3 433.5 297-97-53 95.3"/>
  </g>
 </g>
</svg>
