<svg height="210mm" viewBox="0 0 1052.4 744.1" width="297mm" xmlns="http://www.w3.org/2000/svg">
 <g fill="none" stroke-linecap="round">
  <g transform="translate(0 -308.26772)">
   <path d="m57.6 742.2h948.8" stroke="#969696" stroke-width="1.875"/>
   <g stroke="#000" stroke-dasharray="3.75 7.5" stroke-miterlimit="2" stroke-width=".9375">
    <path d="m58.3 844.1h948.8"/>
    <path d="m58.3 641.8h948.8"/>
    <path d="m58.3 540.6h948.8"/>
   </g>
  </g>
  <g stroke="#000" stroke-linejoin="round" stroke-width="5.625">
   <path d="m304.7 338.4-42.4 73.1c-11.9 20.5 5.6 26 31.3 14.4"/>
   <path d="m293.6 425.8 211.6-89.1-48.1 94.8"/>
   <path d="m457.2 431.6 159.4-120.8"/>
   <path d="m616.6 310.8c27.1-22.5 64.7-72.2 38.5-75.5-15.7-1.2-25.4 5.7-39.3 28.6-31.2 53.5-119.6 214.8-150.2 269.5"/>
   <path d="m465.6 533.3 69.8-48.5 20 47.9"/>
   <path d="m555.5 532.7 46.1-66"/>
   <path d="m601.6 466.7c9.4-15.3 23.1-29.4 40-30.3 16-.6 21.6 31 32.6 30.7 7.2-.2 12.4-7.6 16.7-13"/>
  </g>
 </g>
</svg>
