<svg height="210mm" viewBox="0 0 1052.4 744.1" width="297mm" xmlns="http://www.w3.org/2000/svg">
 <g fill="none" stroke-linecap="round">
  <g transform="translate(0 -308.26772)">
   <path d="m57.6 742.2h948.8" stroke="#969696" stroke-width="1.875"/>
   <g stroke="#000" stroke-dasharray="3.75 7.5" stroke-miterlimit="2" stroke-width=".9375">
    <path d="m58.3 844.1h948.8"/>
    <path d="m58.3 641.8h948.8"/>
    <path d="m58.3 540.6h948.8"/>
   </g>
  </g>
  <g stroke="#000" stroke-linejoin="round" stroke-width="5.625">
   <path d="m493.6 427.7c80.7-32.8 115.5-74.4 105.5-88.2-5.8-8-34.7-4.5-53.4 33.5-18.4 41.6-13.4 57.9-2.8 58 1.1 0 2.1 0 3.1-.2"/>
   <path d="m381.6 431.7c-18.7 5.9 84.8-92.7 111.5-95.5 10.9-1.8 18.7 1.9 20.1 8.8.9 4.3-1 10.1-6.9 17.4-8.2 10.1-15.5 18.6-21.6 26-8.3 10-14.3 17.8-17.1 24.5-2.1 5-2.5 9.3-.7 13.4 1.6 3.6 5.1 5.3 9.6 5.5 4.9.2 11-1.3 17.2-4"/>
   <path d="m381.6 431.7c57.5-20.8 87.4-147 11-72"/>
   <path d="m546.1 430.8c29.8-5.3 76-31.1 93.7-31.9 16.8-.7 22.7 32.6 34.2 32.2 7.5-.2 13.1-6.2 18.3-10.8"/>
  </g>
 </g>
</svg>
