<svg height="210mm" viewBox="0 0 1052.4 744.1" width="297mm" xmlns="http://www.w3.org/2000/svg">
 <g fill="none" stroke-linecap="round">
  <g transform="translate(0 -308.26772)">
   <path d="m57.6 742.2h948.8" stroke="#969696" stroke-width="1.875"/>
   <g stroke="#000" stroke-dasharray="3.75 7.5" stroke-miterlimit="2" stroke-width=".9375">
    <path d="m58.3 844.1h948.8"/>
    <path d="m58.3 641.8h948.8"/>
    <path d="m58.3 540.6h948.8"/>
   </g>
  </g>
  <g stroke="#000" stroke-linejoin="round">
   <path d="m444 430.9c56.7-20.6 86.2-145 10.8-71" stroke-width="5.419139"/>
   <g stroke-width="5.625">
    <path d="m374.4 385.6 21.8 46c19.6-23.9 33.8-46.7 58.7-71.6"/>
    <path d="m444 430.9h164.3"/>
    <path d="m631.8 533.2c27-19.9 33.6-27.6 37-49 1.7-11-4.8-25.5-12.2-33.1-10.1-9.9-37.3-10.2-48.3-20.2"/>
    <path d="m620.9 412.8c1.1.1 2.1.4 2.9.8.3.1.5.3.7.5 1.4 1.1 1.9 3 1.1 6-1.5 5.8-8.1 9.2-11.3 10.4-6.5 2.4-11.3-3-7.6-8.8 2.3-3.6 6.3-7.6 11.1-8.6.3-.1.6-.1 1-.2s.8-.1 1.2-.1c.9 0 1.8.1 2.8.4"/>
   </g>
  </g>
 </g>
</svg>
