<svg height="210mm" viewBox="0 0 1052.4 744.1" width="297mm" xmlns="http://www.w3.org/2000/svg">
 <g fill="none" stroke-linecap="round">
  <g transform="translate(0 -308.26772)">
   <path d="m57.6 742.2h948.8" stroke="#969696" stroke-width="1.875"/>
   <g stroke="#000" stroke-dasharray="3.75 7.5" stroke-miterlimit="2" stroke-width=".9375">
    <path d="m58.3 844.1h948.8"/>
    <path d="m58.3 641.8h948.8"/>
    <path d="m58.3 540.6h948.8"/>
   </g>
  </g>
  <g stroke="#000" stroke-linejoin="round">
   <g stroke-width="5.625">
    <path d="m289.2 335.4c-40.3 12.4-80.9 82.9-59.4 93.6 10.2 4.9 27.7.8 43.4-4.7 13.5-4.5 225.7-85.9 225.7-85.9"/>
    <ellipse cx="182.33862" cy="593.43231" rx="25.728558" ry="20.371416" transform="matrix(.79083574 -.61202846 .61202846 .79083574 0 0)"/>
    <path d="m498.9 338.4c31.6-28.6 61.7-45.4 66.1-47.6 3-1.5 5.7-2.7 8.2-3.7 71.8-27.4-41.9 162.3-91.2 194.8"/>
    <path d="m708.8 423.4c12.9-7.6 41.5-24.9 55.9-23.6 19.5 3.6 18.2 52.4 51.8 24.4"/>
    <path d="m744 404.8c6.1-2.7 21.1-3 30.1 16.6 6.4 13.9 15.8 10.7 23.3 11.2"/>
   </g>
   <path d="m760.6 402.1c7.6 6.7 7.2.5 24 26.2" stroke-width="6.380773"/>
   <g stroke-width="5.625">
    <path d="m708.8 423.4c-25.6 13.6-55.5 30.3-66.2 40.1-34.6 31.6-43.9 58.1-40.9 65.8 1.1 2.9 17.7 21.8 57.3-41.8l88-150.7"/>
    <ellipse cx="169.49933" cy="711.92694" rx="25.728558" ry="20.371416" transform="matrix(.79083574 -.61202846 .61202846 .79083574 0 0)"/>
    <path d="m562.3 440.3-80.2 41.6"/>
    <path d="m747 336.7-184.7 103.6"/>
   </g>
  </g>
 </g>
</svg>
