<svg height="210mm" viewBox="0 0 1052.4 744.1" width="297mm" xmlns="http://www.w3.org/2000/svg">
 <g fill="none" stroke-linecap="round">
  <g transform="translate(0 -308.26772)">
   <path d="m57.6 742.2h948.8" stroke="#969696" stroke-width="1.875"/>
   <g stroke="#000" stroke-dasharray="3.75 7.5" stroke-miterlimit="2" stroke-width=".9375">
    <path d="m58.3 844.1h948.8"/>
    <path d="m58.3 641.8h948.8"/>
    <path d="m58.3 540.6h948.8"/>
   </g>
  </g>
  <g stroke="#000">
   <path d="m454.7 431.4c13.2-8.7 113.4-72.8 142.9-100.9 22.6-21.5 28.7-43.9 16.6-48.1-14.6-5-40.2 8.9-87.4 86.8-60.3 104.2-36 118.5-1.8 98.4 2.3-1.4 13.4-8.1 26-15.7" stroke-linejoin="round" stroke-width="5.625"/>
   <path d="m600.1 283.8c-48 60-85.6 120.6-108.4 181.8" stroke-width="5.625"/>
   <path d="m587.1 295.8c-38.3 44.9-70.9 94.9-92.8 154.8" stroke-width="7.5"/>
   <path d="m616.9 284.6c-14-7.4-23.9 9.5-26.4 12.4" stroke-width="3.75"/>
   <g stroke-width="5.625">
    <path d="m497.3 451.4c-6.1 21.8-1.8 23 13.1 22.7"/>
    <g stroke-linejoin="round">
     <path d="m551 451.9c12.2-6.7 24.9-17.6 39.1-15.4 21.1 5.8 7.3 62.3 51.1 23.9"/>
     <path d="m436 391.2 18.8 40.2"/>
    </g>
   </g>
  </g>
 </g>
</svg>
