<svg height="210mm" viewBox="0 0 1052.4 744.1" width="297mm" xmlns="http://www.w3.org/2000/svg">
 <g fill="none" stroke-linecap="round">
  <g transform="translate(0 -308.26772)">
   <path d="m57.6 742.2h948.8" stroke="#969696" stroke-width="1.875"/>
   <g stroke="#000" stroke-dasharray="3.75 7.5" stroke-miterlimit="2" stroke-width=".9375">
    <path d="m58.3 844.1h948.8"/>
    <path d="m58.3 641.8h948.8"/>
    <path d="m58.3 540.6h948.8"/>
   </g>
  </g>
  <g stroke-linejoin="round">
   <path d="m630.2 290.7-328.5 140.4" stroke="#060000" stroke-width="5.625"/>
   <path d="m573.4 387.6c-52.8 22.2-107.3 83.2-81.8 98.7 9.9 5.5 23.1-1.1 49.3-43.2l89.2-152.4" stroke="#000" stroke-width="5.625"/>
   <path d="m288.1 359.5c10.9-14.3 25.2-24.8 36.4-23.6 10.5 1.1 18.1 9.6 7.1 32.6-10 21.3-29.9 62.7-29.9 62.7" stroke="#000" stroke-width="5.62496"/>
   <path d="m754.1 429.2c-3 .6-7.2 1.3-12.9 1.6-19.5 1-67.7 0-70.4.1l-58.2.1" stroke="#02000c" stroke-width="5.625"/>
   <g stroke="#000">
    <path d="m612.6 431c43.9-15.9 71.5-94.7 46.6-94.9-7.2-.1-18.9 6.5-35.8 23.2" stroke-width="5.625001"/>
    <ellipse cx="780.91113" cy="-159.16594" rx="5.271423" ry="7.848564" stroke-width="14.034715" transform="matrix(.72846687 .68508103 -.68508103 .72846687 0 0)"/>
    <path d="m776.7 394.7a19.2 25.1 41.6 0 1 -14.3 31.3 19.2 25.1 41.6 0 1 -27.6-6.8 19.2 25.1 41.6 0 1 14.3-31.3 19.2 25.1 41.6 0 1 27.6 6.8z" stroke-width="5.625"/>
   </g>
  </g>
 </g>
</svg>
