<svg height="210mm" viewBox="0 0 1052.4 744.1" width="297mm" xmlns="http://www.w3.org/2000/svg">
 <g fill="none" stroke-linecap="round">
  <g transform="translate(0 -308.26772)">
   <path d="m57.6 742.2h948.8" stroke="#969696" stroke-width="1.875"/>
   <g stroke="#000" stroke-dasharray="3.75 7.5" stroke-miterlimit="2" stroke-width=".9375">
    <path d="m58.3 844.1h948.8"/>
    <path d="m58.3 641.8h948.8"/>
    <path d="m58.3 540.6h948.8"/>
   </g>
  </g>
  <g stroke="#000">
   <g stroke-linejoin="round" stroke-width="5.625">
    <path d="m461.1 420.5c39-28.9 180.4-112.6 211.2-148.9 11.7-13.7 13.9-29.2 11.5-35.6-5.5-14.4-40.2 8.9-87.4 86.8l-61.6 109.8 66.3-54.4"/>
    <path d="m601.1 378.2c16.5-14.1 33.4-29.8 55.4-39.5 19.6-8.3 35 2.5 12.3 40.5l-29.8 52.1 80.3-46.3"/>
    <path d="m678.9 345.1-49.2 86.1"/>
    <path d="m679.1 351.3-45.6 79.9"/>
    <path d="m629.7 431.2 9.3.1"/>
   </g>
   <path d="m674.9 338.9c1.8 1.7 2.3 5.7.7 9.9" stroke-width="3.75"/>
   <g stroke-linejoin="round">
    <g stroke-width="5.625">
     <path d="m329.3 429.9c10.6-12.1 23.1-29.4 40-30.3 16-.6 21.6 31 32.6 30.7 7.2-.2 12.4-7.6 16.7-13"/>
     <path d="m418.6 417.4s124.1-162.6 126.3-165.3c2.6-3.2 5-5.8 7.4-7.8 83-65-26.7 159.9-88.2 186.6-3 .7-5.5.8-7.6.6-5.3-3.6 2.2-9.5 4.5-11"/>
     <path d="m580.3 252.7-91.7 157.8"/>
    </g>
    <path d="m574.5 268.9-73 125.7" stroke-width="8.4375"/>
    <path d="m471.8 426.4c6.6-8.2 16.4-19 22.5-27.9" stroke-width="3.75"/>
    <g stroke-width="5.625">
     <path d="m563.5 296.5-40.2 67.9"/>
     <path d="m582 239c.7 14-5.4 18.6-14.3 37.1"/>
    </g>
   </g>
  </g>
 </g>
</svg>
