<svg height="210mm" viewBox="0 0 1275.6 744.1" width="360mm" xmlns="http://www.w3.org/2000/svg">
 <g fill="none" stroke-linecap="round">
  <g transform="translate(0 -308.26772)">
   <path d="m57.6 742.2h1173.8" stroke="#969696" stroke-width="1.875"/>
   <g stroke="#000" stroke-dasharray="3.75 7.5" stroke-miterlimit="2" stroke-width=".9375">
    <path d="m58.3 844.1h1173.8"/>
    <path d="m58.3 641.8h1173.8"/>
    <path d="m58.3 540.6h1173.8"/>
   </g>
  </g>
  <g stroke="#000">
   <g stroke-width="5.625">
    <path d="m1028.4 286.1-51.7 94.9"/>
    <g stroke-linejoin="round">
     <path d="m976.7 381 61.1-45.7"/>
     <path d="m693.3 431.6 77.7-47"/>
    </g>
   </g>
   <path d="m679.7 359.9c10.9-14.3 25.2-24.8 36.4-23.6 10.5 1.1 18.1 9.6 7.1 32.6-10 21.3-29.9 62.7-29.9 62.7" stroke-linejoin="round" stroke-width="5.62496"/>
   <g stroke-width="5.625">
    <path d="m771 384.6 22.1 46.2" stroke-linejoin="round"/>
    <path d="m778.2 384.5 22.1 46.2" stroke-linejoin="round"/>
    <path d="m771 384.6 7.2-.1"/>
    <path d="m775 385.9 21 43.9" stroke-linejoin="round"/>
    <path d="m793 430.8 7.2-.1"/>
   </g>
   <g stroke-linejoin="round">
    <path d="m800.3 430.7c13.5-14.6 32.3-32.3 50.8-33.3 17.6-.7 20.1 33.8 33.9 33.8 9 0 14.1-4.3 20.3-10.5 10.9-11 123.1-134.6 123.1-134.6" stroke-width="5.625002"/>
    <g stroke-width="5.625">
     <path d="m1194.1 380.9c5.4-3.3 11.7-10.5 6.5-17.1-2.6-3.3-4-4.5-11.9-4.4l-135 .6c-5.8 0-12.7.1-15.9-.7-9.6-2.4-7.9-13.2 0-24"/>
     <path d="m517.3 286.5s-265.6 112.2-345.9 146.8"/>
     <path d="m493.4 382c2.1 0 4.3-.2 6.6-.8 14.9-4 50.6-35.7 61.8-45.8"/>
    </g>
    <path d="m515.2 430.8c27.5-31.1 92.4-106.3 103.6-119.2 15-17.8 32.5-29.3 43.2-29.1 12.4.2 12.3 17.3 5.9 36-14.7 43-41.1 81.5-68 118.4-30.2 41-50.1 47.2-57.1 40.9-13.5-11.4 4.2-35.9 29.2-55.1 13.2-11.3 45.9-34.3 65.4-41.7" stroke-width="5.625002"/>
    <path d="m561.8 335.4-46.6 95.4" stroke-width="5.624999"/>
    <path d="m517.3 286.5s-34.9 62.1-38.9 72.5c-5.5 14.2 1.8 23.1 15 23" stroke-width="5.625"/>
    <path d="m171.4 433.3c-50 22.1-96.2 80.8-75.4 96.9 16.5 15.9 39.6-29.5 47.3-42.8 42.1-75.1 66.8-135.4 98.6-211.1 9.8-23.4 9.3-42-10.3-42.4-19 .9-31.5 18.1-43.2 33" stroke-width="5.388435"/>
   </g>
  </g>
 </g>
</svg>
