<svg height="210mm" viewBox="0 0 1052.4 744.1" width="297mm" xmlns="http://www.w3.org/2000/svg">
 <g fill="none" stroke-linecap="round">
  <g transform="translate(0 -308.26772)">
   <path d="m57.6 742.2h948.8" stroke="#969696" stroke-width="1.875"/>
   <g stroke="#000" stroke-dasharray="3.75 7.5" stroke-miterlimit="2" stroke-width=".9375">
    <path d="m58.3 844.1h948.8"/>
    <path d="m58.3 641.8h948.8"/>
    <path d="m58.3 540.6h948.8"/>
   </g>
  </g>
  <g stroke="#000" stroke-linejoin="round">
   <g stroke-width="5.625">
    <path d="m406.3 431.1c14.2-21.3 24.9-35.2 37.5-52.4 15.6-21.4 34.7-40.9 55.6-42.3 23.4-.2 35.6 20.7 45 42.9 10.5 24.8 18.2 50.3 33 51.8 10.7 1 29.6.2 41.4-6.3"/>
    <path d="m502.5 336.5c12.6.1 28 16.8 38.6 46.9 8.4 23.7 18.3 45 34.9 47.5"/>
    <path d="m506.4 337c16.2 2.5 31.7 14.4 43.2 44.1 9.2 23.9 10.5 44 22.6 48.8"/>
    <ellipse cx="738.29675" cy="-118.96589" rx="4.609393" ry="6.862874" transform="matrix(.72846687 .68508103 -.68508103 .72846687 0 0)"/>
   </g>
   <path d="m616.6 425.7c5 4.5 11.7 5.8 18.3 5.5 9.2-.4 18.4-3.7 22.5-5.4 21.8-8.6 43.4-24.5 56.7-25.1 16.8-.7 20.9 30.2 34.2 30.4 8.5.1 14.1-6.5 18.3-10.8" stroke-width="5.624999"/>
  </g>
 </g>
</svg>
