<svg height="210mm" viewBox="0 0 1052.4 744.1" width="297mm" xmlns="http://www.w3.org/2000/svg">
 <g fill="none" stroke-linecap="round">
  <g transform="translate(0 -308.26772)">
   <path d="m57.6 742.2h948.8" stroke="#969696" stroke-width="1.875"/>
   <g stroke="#000" stroke-dasharray="3.75 7.5" stroke-miterlimit="2" stroke-width=".9375">
    <path d="m58.3 844.1h948.8"/>
    <path d="m58.3 641.8h948.8"/>
    <path d="m58.3 540.6h948.8"/>
   </g>
  </g>
  <g stroke="#000" stroke-width="5.625">
   <path d="m347.8 234.2-105.6 196.6"/>
   <g stroke-linejoin="round">
    <path d="m242.2 430.8s44.6-32.4 61.8-29.2c13.6 2.5 15.7 29.8 30.5 29.1 4-.2 36.8 3.1 43.1-2.1"/>
    <path d="m285.8 405.6c5.4-2.4 18.6-2.2 26.5 15 5.6 12.2 13.9 9.5 20.5 9.9"/>
    <path d="m300.4 403.7c6.7 5.9 6.3.5 21.2 23.1"/>
    <ellipse cx="44.074921" cy="550.64545" rx="25.728558" ry="20.371416" transform="matrix(.79083574 -.61202846 .61202846 .79083574 0 0)"/>
    <path d="m534.8 246.5c-66.8 47.2-131.3 161.8-143.6 171.3"/>
    <path d="m563.2 399.9c-16 5-99.9 25.6-107.2 28.5-66.7 26.7 27.4-127.5 70.7-174 8.3-8.9 19.3-17.3 31.4-20.8"/>
    <path d="m563.2 399.9 63.2-16.8 21 49.3"/>
   </g>
   <path d="m758.4 234.6-111.1 197.9"/>
   <g stroke-linejoin="round">
    <path d="m767.1 296.3c30.3-27.9 66.2-17.8 30.4 30-42.2 56.4-57.1 75.4-52.3 94.1 1.6 6.3 8.5 10.7 16.2 11.4 8.9.8 19.4-1 28.7-3.8"/>
    <path d="m795.7 417.7c.6.1 1.2.2 1.7.4.1.1.3.2.4.3.8.6 1.1 1.7.7 3.4-.9 3.3-4.7 5.3-6.5 5.9-3.7 1.3-6.5-1.7-4.3-5 1.3-2.1 3.6-4.3 6.3-4.9.2 0 .4-.1.6-.1h.7c.5 0 1.1.1 1.6.2"/>
   </g>
  </g>
 </g>
</svg>
