<svg height="210mm" viewBox="0 0 1052.4 744.1" width="297mm" xmlns="http://www.w3.org/2000/svg">
 <g fill="none" stroke-linecap="round">
  <g transform="translate(0 -308.26772)">
   <path d="m57.6 742.2h948.8" stroke="#969696" stroke-width="1.875"/>
   <g stroke="#000" stroke-dasharray="3.75 7.5" stroke-miterlimit="2" stroke-width=".9375">
    <path d="m58.3 844.1h948.8"/>
    <path d="m58.3 641.8h948.8"/>
    <path d="m58.3 540.6h948.8"/>
   </g>
  </g>
  <g stroke="#000">
   <g stroke-width="5.625">
    <g stroke-linejoin="round">
     <path d="m298.5 335.6-40.5 73.1c-11.8 21.2 4.4 32.1 41.3 11.6"/>
     <path d="m299.2 420.3c23.6-12.6 57.1-33 61.3-35.6 13.5-8.2 43-27.1 37.6-45.2-2.8-7.4-35.3-8.8-59.6 31.3-26.8 43.9-18 61.5-4.3 59.7 15.5-.9 30.5-13.3 44.2-24.9"/>
     <path d="m378.5 405.6c19.5-17.2 60-70.1 83.6-69.5 20.4-.5 18.8 45.3 45.5 45 4.3-.4 8.4-1.3 12.2-2.7"/>
     <path d="m519.9 378.3c8.3-2.5 54.9-42.2 54.9-42.2"/>
     <path d="m587.5 484.6c14.8-7.7 32.2-16.2 28.9-34.4-.9-14.2-55-41.3-61.8-64.1-3.5-11.7 4.9-33.4 20.1-49.8"/>
    </g>
    <path d="m289.2 235.2-96.4 166.6"/>
    <ellipse cx="-81.892235" cy="454.14139" rx="25.728558" ry="20.371416" stroke-linejoin="round" transform="matrix(.79083574 -.61202846 .61202846 .79083574 0 0)"/>
    <path d="m184.8 458c24.8 33.5 76.4 32.1 103.1 0"/>
    <path d="m697.5 431.9c5.4.5 12.6-2.9 18.9-6.3 20.9-11.4 66.8-36.5 71.1-39.2 7.2-4.5 14.6-9.6 20.2-13.4 21.7-15.1 18.6-27.8 16.7-32.6-2.8-7.3-34.7-7-58.5 32.4-26.3 43.1-17.7 60.3-4.2 58.6" stroke-linejoin="round"/>
   </g>
   <path d="m804.5 341.7c-30.3 19.2-39.8 52.1-52.2 80.7" stroke-width="4.6875"/>
   <path d="m797.5 341.7c-17.9 10.4-41.1 46.7-46.5 70.3" stroke-width="4.6875"/>
   <path d="m758.1 411c-4 10.7-6.4 18.8 3.6 20.4" stroke-width="2.8125"/>
   <path d="m818.9 338.4c-7.4-2.4-11 2.2-15.8 5.2" stroke-width="2.8125"/>
   <path d="m794 346.5c-28 20.5-28.9 43.9-43.4 71.2" stroke-width="4.6875"/>
   <g stroke-linejoin="round" stroke-width="5.625">
    <path d="m702.7 419.7c.8.1 1.4.2 1.9.5.2.1.3.2.5.3.9.7 1.3 2 .8 4-1 3.9-5.4 6.1-7.5 6.9-4.3 1.6-7.6-2-5.1-5.9 1.6-2.4 4.2-5.1 7.4-5.7.2 0 .4-.1.7-.1s.5-.1.8-.1c.6 0 1.2.1 1.9.3"/>
    <path d="m761.7 431.3c18-2.4 72.4-29.4 89.2-30.2 16-.6 21.6 31 32.6 30.7 7.2-.2 12.4-7.6 16.7-13"/>
    <path d="m664.6 438.7s-98.1 41.9-77 45.9"/>
    <path d="m689.8 447.7a20 26.2 41.6 0 1 -15 32.7 20 26.2 41.6 0 1 -28.8-7.2 20 26.2 41.6 0 1 15-32.7 20 26.2 41.6 0 1 28.8 7.2z"/>
    <path d="m697.5 431.9-28.2 5.3"/>
   </g>
  </g>
 </g>
</svg>
