<svg height="210mm" viewBox="0 0 1052.4 744.1" width="297mm" xmlns="http://www.w3.org/2000/svg">
 <g fill="none" stroke-linecap="round">
  <g transform="translate(0 -308.26772)">
   <path d="m57.6 742.2h948.8" stroke="#969696" stroke-width="1.875"/>
   <g stroke="#000" stroke-dasharray="3.75 7.5" stroke-miterlimit="2" stroke-width=".9375">
    <path d="m58.3 844.1h948.8"/>
    <path d="m58.3 641.8h948.8"/>
    <path d="m58.3 540.6h948.8"/>
   </g>
  </g>
  <g stroke="#000">
   <g stroke-linejoin="round" stroke-width="5.625">
    <path d="m527 298.8c-5.4 2.8-94.2 90.2-96.8 94.2"/>
    <path d="m428.4 395.3-40.8 36.3"/>
    <ellipse cx="100.08676" cy="595.09796" rx="25.728558" ry="20.371416" transform="matrix(.79083574 -.61202846 .61202846 .79083574 0 0)"/>
   </g>
   <path d="m465.9 398.3c.3 9.3-.4 14.6-6.3 21.9-3.6 4.5-8.8 8.3-16 11.1" stroke-width="5.624961"/>
   <path d="m462.3 393.1c2 6.9 1.8 6.4.7 11.6-1.6 7.6-6.1 13.5-12.5 18.7-3.2 2.6-6.9 5-10.9 7.3" stroke-width="6.599955"/>
   <path d="m445.2 425c-5.3 3.7-10.3 5.7-16.3 3.5" stroke-width="2.849979"/>
   <path d="m451.5 388.4c7.4 1.6 9 4 10.4 10.8" stroke-width="2.849979"/>
   <g stroke-linejoin="round" stroke-width="5.625">
    <path d="m602.2 299.5c-25.2 2.3-62.3 27.7-72.1 31.1-9.2 3.2-11.9-3.4-3.1-31.8"/>
    <path d="m602.2 299.5c16-.6 21.6 31 32.6 30.7 7.2-.2 12.4-7.6 16.7-13"/>
   </g>
  </g>
 </g>
</svg>
