<svg height="210mm" viewBox="0 0 1052.4 744.1" width="297mm" xmlns="http://www.w3.org/2000/svg">
 <g fill="none" stroke-linecap="round">
  <g transform="translate(0 -308.26772)">
   <path d="m57.6 742.2h948.8" stroke="#969696" stroke-width="1.875"/>
   <g stroke="#000" stroke-dasharray="3.75 7.5" stroke-miterlimit="2" stroke-width=".9375">
    <path d="m58.3 844.1h948.8"/>
    <path d="m58.3 641.8h948.8"/>
    <path d="m58.3 540.6h948.8"/>
   </g>
  </g>
  <g stroke="#000006">
   <g stroke-linejoin="round" stroke-width="5.625">
    <path d="m427.3 486.8c-13.7 18.6-21.7 35.6-19.7 40.9 1.1 2.9 17.7 21.8 57.3-41.8l88-150.7"/>
    <path d="m427.3 486.8c6.6-9 162.5-170.5 204-192.8 8.2-4.4 14.8-7.7 18.8-9.1 24.7-7.1 39.8 1.2 12.9 46.2l-31.2 52.3"/>
    <path d="m731.9 339.2-100.1 44.1"/>
    <path d="m674.3 293.2-51.5 89.9"/>
    <path d="m674.8 301.3-48.1 81.6"/>
    <path d="m622.8 383 7.9.2"/>
   </g>
   <path d="m665.3 283.7c6.2.7 9 7.6 4.5 15.4" stroke-width="3.75"/>
  </g>
  <g stroke="#000" stroke-linejoin="round" stroke-width="5.625">
   <path d="m440.3 422.8c5.7-2.7 112.6-87.6 112.6-87.6"/>
   <path d="m425.3 427.7c-26.4-8.6-25.6-36.7 4.8-42.3 32.9.1 27.2 44.6-14.4 44.1h-74"/>
  </g>
 </g>
</svg>
