<svg height="210mm" viewBox="0 0 1052.4 744.1" width="297mm" xmlns="http://www.w3.org/2000/svg">
 <g fill="none" stroke-linecap="round">
  <g transform="translate(0 -308.26772)">
   <path d="m57.6 742.2h948.8" stroke="#969696" stroke-width="1.875"/>
   <g stroke="#000" stroke-dasharray="3.75 7.5" stroke-miterlimit="2" stroke-width=".9375">
    <path d="m58.3 844.1h948.8"/>
    <path d="m58.3 641.8h948.8"/>
    <path d="m58.3 540.6h948.8"/>
   </g>
  </g>
  <g stroke-linejoin="round">
   <g stroke-width="5.625">
    <path d="m497.3 334.3-44.3 75c-12.1 20.4 8.4 28.3 31.3 14.4 13.8-9.8 33.2-28.2 33.2-28.2" stroke="#000"/>
    <path d="m517.6 395.3 64.4-59.5-53.3 94.9" stroke="#000"/>
    <path d="m531.9 409.7c1 .1 1.8.3 2.5.7.2.1.4.2.6.4 1.2.9 1.7 2.6 1 5.2-1.3 5.1-7.1 8-9.8 9-5.7 2-9.8-2.6-6.6-7.6 2-3.1 5.5-6.6 9.7-7.5.3-.1.6-.1.9-.1s.7-.1 1-.1c.8 0 1.6.1 2.4.3" stroke="#030002"/>
    <g stroke="#000">
     <path d="m527.9 424.4 26.2-16.1"/>
     <path d="m554.1 408.3c26.2-15.9 37.6-18.5 46-20.3 3-.7 5.9-1.1 8.7-1.4 25.7-2.3 38.6 13.6 30 44.3"/>
    </g>
   </g>
   <g stroke="#000001">
    <path d="m629.4 392.7c7.1 5.9 8.1 27.1 3.2 37.8" stroke-width="6.5625"/>
    <path d="m616.8 386.4c16.4 3.3 16.8 35.2 10.1 45.2" stroke-width="4.6875"/>
   </g>
  </g>
  <g stroke-width="5.625">
   <path d="m627.6 431.6 9.8.1" stroke="#000001"/>
   <g stroke="#000" stroke-linejoin="round">
    <path d="m638.7 430.9s73.6-36.4 93.8-35.5c16 .7 16.1 35.4 32.8 35.9 4.5.1 10.2-2.2 17.7-8.3"/>
    <path d="m322.3 384.9c41.3 3.1 61.8-37.1 58.5-45.8-2.9-7.5-30.3-4.4-54.9 36.2-47.2 77.3-2.2 60.6 29.7 33.8"/>
   </g>
  </g>
 </g>
</svg>
