<svg height="210mm" viewBox="0 0 1052.4 744.1" width="297mm" xmlns="http://www.w3.org/2000/svg">
 <g fill="none" stroke-linecap="round">
  <g transform="translate(0 -308.26772)">
   <path d="m57.6 742.2h948.8" stroke="#969696" stroke-width="1.875"/>
   <g stroke="#000" stroke-dasharray="3.75 7.5" stroke-miterlimit="2" stroke-width=".9375">
    <path d="m58.3 844.1h948.8"/>
    <path d="m58.3 641.8h948.8"/>
    <path d="m58.3 540.6h948.8"/>
   </g>
  </g>
  <path d="m605.9 336.8-47.8 86.7" stroke="#000" stroke-linejoin="round" stroke-width="6.5625"/>
  <path d="m601.2 336.7-44.7 81.9" stroke="#000" stroke-linejoin="round" stroke-width="6.5625"/>
  <path d="m566.2 411.6c-6.2 11-2.2 18.7 3.6 19.2" stroke="#000500" stroke-width="3.75"/>
  <g stroke="#000">
   <path d="m605.9 336.8-9.3-.4" stroke-linejoin="round" stroke-width="6.5625"/>
   <path d="m560.3 420.5c-.2 5.6.9 6.1 2 8.3" stroke-width="3.75"/>
   <g stroke-linejoin="round">
    <g stroke-width="5.625">
     <path d="m485.1 431.7 110.9-95.4-38.4 72.5c-7.1 13.5 1.8 23.2 15.1 23 26.8-.5 63.2-25.8 82.4-42.7"/>
     <path d="m398.5 431.5h-73.4"/>
     <ellipse cx="72.178429" cy="573.44836" rx="25.728558" ry="20.371416" transform="matrix(.79083574 -.61202846 .61202846 .79083574 0 0)"/>
    </g>
    <path d="m428.4 416.6c31.2-45.7 49.8-77.6 78.2-80.1 1.6-.1 3.3-.1 5.1.1 7 .3 9.9 7 9.7 12-.3 6.8-3.7 16.8-10.6 30.8l-25.6 52.3" stroke-width="5.624999"/>
   </g>
  </g>
 </g>
</svg>
