<svg height="210mm" viewBox="0 0 1052.4 744.1" width="297mm" xmlns="http://www.w3.org/2000/svg">
 <g fill="none" stroke-linecap="round">
  <g transform="translate(0 -308.26772)">
   <path d="m57.6 742.2h948.8" stroke="#969696" stroke-width="1.875"/>
   <g stroke="#000" stroke-dasharray="3.75 7.5" stroke-miterlimit="2" stroke-width=".9375">
    <path d="m58.3 844.1h948.8"/>
    <path d="m58.3 641.8h948.8"/>
    <path d="m58.3 540.6h948.8"/>
   </g>
  </g>
  <g stroke-linejoin="round" stroke-width="5.625">
   <g stroke="#000">
    <path d="m393.7 427.3c9.7 3.2 31.4-21.1 96.4-91.5"/>
    <path d="m398.2 425.8c-14.1 8.1-34.3 8.6-42.6.1-34.7-35.4 53-168.5 106.2-190.7"/>
    <ellipse cx="575.03632" cy="36.75209" rx="4.609393" ry="6.862874" transform="matrix(.72846687 .68508103 -.68508103 .72846687 0 0)"/>
    <path d="m490.1 335.8-42.6 72c-7.5 12.7.6 24 13.3 23.8 3.2-.1 22.7-2.1 33.5-3.9"/>
   </g>
   <path d="m629.9 485.7c16.8-.5 33-21.3 35-47.2 2.1-26.8 36.3-48.7 36.3-48.7l-206.9 38" stroke="#060000"/>
  </g>
 </g>
</svg>
