<svg height="210mm" viewBox="0 0 1052.4 744.1" width="297mm" xmlns="http://www.w3.org/2000/svg">
 <g fill="none" stroke-linecap="round">
  <g transform="translate(0 -308.26772)">
   <path d="m57.6 742.2h948.8" stroke="#969696" stroke-width="1.875"/>
   <g stroke="#000" stroke-dasharray="3.75 7.5" stroke-miterlimit="2" stroke-width=".9375">
    <path d="m58.3 844.1h948.8"/>
    <path d="m58.3 641.8h948.8"/>
    <path d="m58.3 540.6h948.8"/>
   </g>
  </g>
  <g stroke="#000" stroke-linejoin="round" stroke-width="5.625">
   <path d="m570 429.3s-157.2 2.5-162.7 2.3"/>
   <path d="m294.6 430.9c18.1-1 58.5-31.7 72.4-31.4 21.2-.2 18.7 32.1 40.2 32.1"/>
   <path d="m211.5 430.9 114.5-95.2c-13.8 25.3-28.6 48.1-43 73-9.2 16.6-1 23 11.7 22.3"/>
   <path d="m731.2 344.8c-14.6 11.8-102.3 89.8-84 85.7 15.1-4.5 47.4-44.7 52.6-82 5.7-40.6 44.3-104.4 80-114.7"/>
   <path d="m731.9 334.8c.8.1 1.4.2 1.9.5.2.1.3.2.5.3.9.7 1.3 2 .8 4-1 3.9-5.4 6.1-7.5 6.9-4.3 1.6-7.6-2-5.1-5.9 1.6-2.4 4.2-5.1 7.4-5.7.2 0 .4-.1.7-.1s.5-.1.8-.1c.6 0 1.2.1 1.9.3"/>
  </g>
 </g>
</svg>
