<svg height="210mm" viewBox="0 0 1052.4 744.1" width="297mm" xmlns="http://www.w3.org/2000/svg">
 <g fill="none" stroke-linecap="round">
  <g transform="translate(0 -308.26772)">
   <path d="m57.6 742.2h948.8" stroke="#969696" stroke-width="1.875"/>
   <g stroke="#000" stroke-dasharray="3.75 7.5" stroke-miterlimit="2" stroke-width=".9375">
    <path d="m58.3 844.1h948.8"/>
    <path d="m58.3 641.8h948.8"/>
    <path d="m58.3 540.6h948.8"/>
   </g>
  </g>
  <g stroke-linejoin="round" stroke-width="5.625">
   <path d="m417.7 418.4c.8.1 1.4.2 1.9.5.2.1.3.2.5.3.9.7 1.3 2 .8 4-1 3.9-5.4 6.1-7.5 6.9-4.3 1.6-7.6-2-5.1-5.9 1.6-2.4 4.2-5.1 7.4-5.7.2 0 .4-.1.7-.1s.5-.1.8-.1c.6 0 1.2.1 1.9.3" stroke="#000"/>
   <path d="m563.6 360.3c-8.3 7.7-92.4 87.5-106.9 102.1-25.9 26.2-43.9 58.1-40.9 65.8 1.1 2.9 17.7 21.8 57.3-41.8l88-150.7-132.7 91.4c-6.9 4.3-14.8 3.3-14.8 3.3" stroke="#060000"/>
   <path d="m744.2 236.2c-35.9 22.6-79.7 56.8-48.6-1.9l-132 126" stroke="#000005"/>
  </g>
 </g>
</svg>
