<svg height="210mm" viewBox="0 0 1052.4 744.1" width="297mm" xmlns="http://www.w3.org/2000/svg">
 <g fill="none" stroke="#000" stroke-linecap="round" transform="translate(0 -308.26772)">
  <path d="m57.6 742.2h948.8" stroke-width="1.875"/>
  <g stroke-dasharray="3.75 7.5" stroke-miterlimit="2" stroke-width=".9375">
   <path d="m58.3 844.1h948.8"/>
   <path d="m58.3 641.8h948.8"/>
   <path d="m58.3 540.6h948.8"/>
  </g>
 </g>
 <g fill="none" stroke="#000" stroke-linecap="round" stroke-linejoin="round" stroke-width="5.625">
  <path d="m355.8 434.1c-13.7-5-27-4.3-38.9.9-15.5 6.9-31.3 28.1-48.8 44.9-23.7 26.3-31.9 40.6-27.9 50.7 2.2 5.6 34.7 12.4 62.3-63.3 15.8-47.4 16.5-113.3 70.8-131.6"/>
  <path d="m355.8 434.1c.6.1 1.2.2 1.6.4.1.1.3.2.4.3.8.6 1.1 1.7.6 3.4-.9 3.3-4.6 5.2-6.3 5.8-3.7 1.3-6.4-1.7-4.3-4.9 1.3-2 3.6-4.3 6.2-4.8.2 0 .4-.1.5-.1h.7c.5 0 1 .1 1.6.2"/>
  <path d="m771.1 394.3c-7.4 3.8-50.2 40.4-62.7 41.8-10 1.1-7.9.1-12.6.8-36.8 5-61.7 18.3-87 42.5-23.7 26.3-31.9 40.6-27.9 50.7 2.2 5.6 34.7 12.4 62.3-63.3 15.8-47.4 16.5-113.3 70.8-131.6"/>
  <path d="m711.4 435.4c.6.1 1.2.2 1.6.4.1.1.3.2.4.3.8.6 1.1 1.7.6 3.4-.9 3.3-4.6 5.2-6.3 5.8-3.7 1.3-6.4-1.7-4.3-4.9 1.3-2 3.6-4.3 6.2-4.8.2 0 .4-.1.5-.1h.7c.5 0 1 .1 1.6.2"/>
  <path d="m690.3 439.2c.6.1 1.2.2 1.6.4.1.1.3.2.4.3.8.6 1.1 1.7.6 3.4-.9 3.3-4.6 5.2-6.3 5.8-3.7 1.3-6.4-1.7-4.3-4.9 1.3-2 3.6-4.3 6.2-4.8.2 0 .4-.1.5-.1h.7c.5 0 1 .1 1.6.2"/>
 </g>
 <circle cx="488.09662" cy="363.33667" r="10.653955"/>
 <circle cx="472.70697" cy="412.35229" r="10.653955"/>
</svg>
