<svg height="210mm" viewBox="0 0 1559.1 744.1" width="440mm" xmlns="http://www.w3.org/2000/svg">
 <g stroke-linecap="round">
  <g fill="none" transform="translate(0 -308.26772)">
   <path d="m12.6 742.2h1535.7" stroke="#969696" stroke-width="1.875"/>
   <g stroke="#000" stroke-dasharray="3.75 7.5" stroke-miterlimit="2" stroke-width=".9375">
    <path d="m13.3 844.1h1535.7"/>
    <path d="m13.3 641.8h1535.7"/>
    <path d="m13.3 540.6h1535.7"/>
   </g>
  </g>
  <g stroke="#000">
   <g stroke-linejoin="round">
    <g fill="none" stroke-width="5.625">
     <path d="m1317.5 426.9c20.3-29.3 46.3-41.6 76.5-42.4 21.6-.5 31.3 11.6 33.2 47 9.3.6 27.9.3 27.9.3"/>
     <path d="m1461.5 419.9c.7.1 1.4.2 1.9.5.2.1.3.2.5.3.9.7 1.3 1.9.7 3.9-1 3.8-5.3 6-7.3 6.7-4.2 1.5-7.4-2-4.9-5.7 1.5-2.3 4.1-4.9 7.2-5.6.2 0 .4-.1.6-.1h.8c.6 0 1.2.1 1.8.2"/>
     <path d="m1454.7 432c10.8 2.9 18.9-3.7 72.1-42.6"/>
     <path d="m1526.8 389.4-42.4 73.1c-14.1 24.3 28.4 36.7 50.1-1.5"/>
     <path d="m1048.1 391.3c2.8-.8 5.6-1.3 8.3-1.5 14.9-1 24.6 8.1 9.8 26.4-27.4 33.8-45.5 50.2-39.4 63.9 1.6 3.5 4.8 5 9.2 5 7.3.1 17.6-3.2 27.3-7 16.1-6.7 213.1-87.8 213.1-87.8l-39 72.4c-7.4 13.7 2.1 23.5 15.7 23 24-1.4 43.7-29.7 64.4-58.9"/>
     <path d="m1316.2 419.3c.7.1 1.3.2 1.7.5.2.1.3.2.4.3.8.7 1.2 1.8.7 3.6-.9 3.5-4.9 5.5-6.7 6.2-3.9 1.4-6.8-1.8-4.5-5.2 1.4-2.2 3.8-4.5 6.6-5.1.2-.1.4-.1.6-.1s.5-.1.7-.1c.5 0 1.1.1 1.7.2"/>
     <path d="m879.7 385-55.8 97.2"/>
     <path d="m879.7 385h-10.6"/>
     <path d="m874.2 385-55.8 97.2"/>
     <path d="m823.9 482.2h-10.6"/>
     <path d="m790 430.7 79.1-45.7-55.8 97.2 11-.1c55.8-21.4 198.2-83.4 223.8-90.8"/>
     <path d="m27.6 430.4 73.7-.1"/>
    </g>
    <g fill="#eb0000" fill-rule="evenodd" transform="matrix(1.7715894 0 0 1.7715894 -1180.8885 78.129437)">
     <path d="m732.1 185.5c.8.1 1.4.2 1.9.5.2.1.3.2.5.3.9.7 1.3 2 .8 4-1 3.9-5.4 6.1-7.5 6.9-4.3 1.6-7.6-2-5.1-5.9 1.6-2.4 4.2-5.1 7.4-5.7.2 0 .4-.1.7-.1h.8c.6 0 1.2.1 1.9.3" stroke-width="5.625"/>
     <path d="m729.3 188.3c.3 0 .6.1.9.2.1 0 .2.1.2.1.4.3.6.9.4 1.8-.4 1.7-2.4 2.8-3.3 3.1-1.9.7-3.4-.9-2.3-2.6.7-1.1 1.9-2.3 3.3-2.6h.3.4c.3 0 .6 0 .8.1" stroke-width="4.981044"/>
    </g>
   </g>
   <g fill="none" stroke-width="5.625">
    <path d="m165.3 392.4-74.7 140.3"/>
    <path d="m165.3 392.4-51.7 35.3"/>
    <g stroke-linejoin="round">
     <path d="m200.7 431c2.9.3 14.6-.2 24.9-3.9"/>
     <path d="m225.5 427.1c15-4.5 57.6-34 89.1-35.2 48.5-1.3 61.7 39.7 96 38.5 35.8-1.3 92.8-32.5 103.1-40.2"/>
     <path d="m191.5 347.7c23.7-19.2 60.9-14.6 37.5 14.4-27.4 33.8-45.5 50.2-39.4 63.9 1.8 4.1 5 4.6 11.1 5.1"/>
     <path d="m513.7 390.1 18.4 40.5"/>
     <path d="m762.2 331.3-19.7-42.8c-29.2 18.7-98.8 57.2-125.9 76.7-32.5 23.2-40.2 52.7-38 60 .9 3 16.3 22.9 59.8-38.1 26.9-36.9 54.6-73.4 69.3-116.4 15.5-30.1-1.4-56.7-44.4-11.6"/>
    </g>
   </g>
  </g>
 </g>
</svg>
