<svg height="210mm" viewBox="0 0 1052.4 744.1" width="297mm" xmlns="http://www.w3.org/2000/svg">
 <g fill="none" stroke-linecap="round">
  <g transform="translate(0 -308.26772)">
   <path d="m57.6 742.2h948.8" stroke="#969696" stroke-width="1.875"/>
   <g stroke="#000" stroke-dasharray="3.75 7.5" stroke-miterlimit="2" stroke-width=".9375">
    <path d="m58.3 844.1h948.8"/>
    <path d="m58.3 641.8h948.8"/>
    <path d="m58.3 540.6h948.8"/>
   </g>
  </g>
  <g stroke="#000" stroke-linejoin="round" stroke-width="5.625">
   <path d="m537 324.5c17.1-14.4 37.7-31.1 53-34 12.5-2.3 14.4 15.4 7.9 36.5-14.7 43-42.4 79.5-69.3 116.4-43.5 61-58.9 41.1-59.8 38.1-8.6-19.5 61.6-76.4 102.5-99.5"/>
   <path d="m408.8 433.8c24.5-15.4 95-82.2 128.2-109.3"/>
   <path d="m408.8 433.8c-17.7 8.6-37.3 19.8-51.9 34.5-25.9 26.2-39.9 52.6-36.9 60.3 1.1 2.9 17.7 21.8 57.3-41.8l88-150.7"/>
   <path d="m654.7 335.9-52.9 95.4"/>
   <path d="m665.3 335.9-52.9 95.4"/>
   <path d="m665.3 335.9h-10.6"/>
   <path d="m659.8 335.9-52.9 95.4"/>
   <path d="m612.4 431.2h-10.6"/>
   <path d="m573.6 370.9c14.7 2 81.1-35 81.1-35"/>
   <path d="m576.8 359.9c.7.1 1.3.2 1.7.5.2.1.3.2.4.3.8.7 1.2 1.8.7 3.6-.9 3.5-4.9 5.5-6.7 6.2-3.9 1.4-6.8-1.8-4.5-5.2 1.4-2.2 3.8-4.5 6.6-5.1.2 0 .4-.1.6-.1h.7c.5 0 1.1.1 1.7.2"/>
  </g>
 </g>
</svg>
