<svg height="210mm" viewBox="0 0 1052.4 744.1" width="297mm" xmlns="http://www.w3.org/2000/svg">
 <g fill="none" stroke-linecap="round">
  <g transform="translate(0 -308.26772)">
   <path d="m57.6 742.2h948.8" stroke="#969696" stroke-width="1.875"/>
   <g stroke="#000" stroke-dasharray="3.75 7.5" stroke-miterlimit="2" stroke-width=".9375">
    <path d="m58.3 844.1h948.8"/>
    <path d="m58.3 641.8h948.8"/>
    <path d="m58.3 540.6h948.8"/>
   </g>
  </g>
  <g stroke="#000" stroke-linejoin="round" stroke-width="5.625">
   <path d="m468.8 336-89.2 152.4c-26.1 42.1-39.4 48.7-49.3 43.2-19.5-11.8 6-47.7 49.2-80.7 56.4-43.2 111.3-97.3 142-111.1 4.4-1.9 8.8-3 13.4-3.3 23.4-.2 35.6 20.7 45 42.9 10.5 24.8 17.6 51.3 33 51.8"/>
   <path d="m538 336.7c12.6.1 28.8 16.8 39.5 46.9 9.1 25.7 18.2 48.7 37.6 47.7"/>
   <path d="m541.9 337.2c16.2 2.5 30.9 14.4 42.4 44.1 9.2 23.9 11.3 44 23.4 48.8"/>
   <path d="m615.1 431.2c23-.8 55.8-30.8 74.6-32.8 18.2-.7 20.7 32.8 36 33.3 8.2.3 12.7-4.8 17.8-9"/>
  </g>
 </g>
</svg>
