<svg height="210mm" viewBox="0 0 1052.4 744.1" width="297mm" xmlns="http://www.w3.org/2000/svg">
 <g fill="none" stroke-linecap="round">
  <g transform="translate(0 -308.26772)">
   <path d="m57.6 742.2h948.8" stroke="#969696" stroke-width="1.875"/>
   <g stroke="#000" stroke-dasharray="3.75 7.5" stroke-miterlimit="2" stroke-width=".9375">
    <path d="m58.3 844.1h948.8"/>
    <path d="m58.3 641.8h948.8"/>
    <path d="m58.3 540.6h948.8"/>
   </g>
  </g>
  <g stroke="#000" stroke-width="5.625">
   <g stroke-linejoin="round">
    <path d="m334 431.1c14.2-21.3 24.9-35.2 37.5-52.4 15.6-21.4 34.7-40.9 55.6-42.3 23.4-.2 35.6 20.7 45 42.9 8.6 20.3 14.9 41.8 25.4 49.1 2.3 1.6 12.3 2.6 15.1 2.6 4.9.3 19.2-1.2 24-3.8"/>
    <path d="m434.1 337c16.2 2.5 31.7 14.4 43.2 44.1 9.2 23.9 10.3 45.6 24.5 48.7"/>
    <path d="m554.2 394.2c3.7 10.5-2.8 24.6-14.3 31.3-11.6 6.8-23.9 3.7-27.6-6.8s2.8-24.6 14.3-31.3c11.6-6.8 23.9-3.7 27.6 6.8z"/>
   </g>
   <path d="m637.2 233.6s-78 170.7-87.3 182.6"/>
   <path d="m430.3 336.5c12.6.1 28 16.8 38.6 46.9 9.1 25.7 17.3 48.5 42.2 47.7" stroke-linejoin="round"/>
  </g>
 </g>
</svg>
