<svg height="210mm" viewBox="0 0 1052.4 744.1" width="297mm" xmlns="http://www.w3.org/2000/svg">
 <g fill="none" stroke-linecap="round">
  <g transform="translate(0 -308.26772)">
   <path d="m57.6 742.2h948.8" stroke="#969696" stroke-width="1.875"/>
   <g stroke="#000" stroke-dasharray="3.75 7.5" stroke-miterlimit="2" stroke-width=".9375">
    <path d="m58.3 844.1h948.8"/>
    <path d="m58.3 641.8h948.8"/>
    <path d="m58.3 540.6h948.8"/>
   </g>
  </g>
  <g stroke="#000" stroke-linejoin="round">
   <path d="m476.3 336.8-55.4 94.7 112.3-95.8-52.1 96.3" stroke-width="5.625"/>
   <path d="m481 432c48.5-32.6 71.7-36.4 82.8-36.1 12.8.3 15.4 33.8 35.4 34.8" stroke-width="6.509767"/>
   <path d="m542.6 399.3c7.5-1.8 19.5-3.9 27.4 19.2 5.6 16.4 22.4 12.2 29.3 12.3" stroke-width="6.509767"/>
   <path d="m563.2 398.8c0 .2 15.1 23.4 17.6 27.4" stroke-width="9.764649"/>
   <g stroke-width="5.625">
    <ellipse cx="210.44096" cy="738.78973" rx="25.728558" ry="20.371416" transform="matrix(.79083574 -.61202846 .61202846 .79083574 0 0)"/>
    <path d="m622.5 432.2-23.2-1.4"/>
   </g>
  </g>
 </g>
</svg>
