<svg height="210mm" viewBox="0 0 1052.4 744.1" width="297mm" xmlns="http://www.w3.org/2000/svg">
 <g fill="none" stroke-linecap="round">
  <g transform="translate(0 -308.26772)">
   <path d="m57.6 742.2h948.8" stroke="#969696" stroke-width="1.875"/>
   <g stroke="#000" stroke-dasharray="3.75 7.5" stroke-miterlimit="2" stroke-width=".9375">
    <path d="m58.3 844.1h948.8"/>
    <path d="m58.3 641.8h948.8"/>
    <path d="m58.3 540.6h948.8"/>
   </g>
  </g>
  <g stroke-linejoin="round">
   <g stroke-width="5.625">
    <g stroke="#000">
     <path d="m559.3 259.3c-3.9 19.1-13.2 25.7-26 36.9-15.8 13.8-33.8 29.9-45.3 42.7-12.4 13.8-12.3 26.1-11.4 35.8"/>
     <path d="m558.1 267.1c-1.7 8.9-8.1 21.5-15.6 29.3-9.3 9.8-23.7 21.9-34 31.6-11.5 10.9-23.5 18.9-30 33.2"/>
     <path d="m146.9 431.7c79.2-29.5 376.5-159.2 413.7-182.3 23.5-14.6 30.5-25.5 34.8-30.5 8.3-10.3 8.8-22.2 3.8-28.2-6.5-6.9-25.9-1.6-34.6 22.9-4.9 13.8-3.1 34.6-6.7 53.9-3.7 20-43.6 46.6-64.3 69.8-21.2 23.7-24 48.3-2.8 47.1"/>
    </g>
    <path d="m564.6 384.6 265.2-48.3 20.2 47.9" stroke="#00000c"/>
   </g>
   <g stroke="#000" stroke-width="5.624999">
    <path d="m611.1 289.2-46.6 95.4"/>
    <path d="m611.1 289.2h-8.2"/>
    <path d="m607.2 290-45.7 93.9"/>
    <path d="m564.6 384.6h-8.2"/>
    <path d="m602.9 289.2-46.6 95.4"/>
   </g>
  </g>
  <path d="m602.9 289.2c-69.8 73.8-87.1 95.3-112.1 95.2" stroke="#000" stroke-width="5.624999"/>
 </g>
</svg>
