<svg height="210mm" viewBox="0 0 1052.4 744.1" width="297mm" xmlns="http://www.w3.org/2000/svg">
 <g fill="none" stroke-linecap="round">
  <g transform="translate(0 -308.26772)">
   <path d="m57.6 742.2h948.8" stroke="#969696" stroke-width="1.875"/>
   <g stroke="#000" stroke-dasharray="3.75 7.5" stroke-miterlimit="2" stroke-width=".9375">
    <path d="m58.3 844.1h948.8"/>
    <path d="m58.3 641.8h948.8"/>
    <path d="m58.3 540.6h948.8"/>
   </g>
  </g>
  <g stroke-linejoin="round" stroke-width="5.625">
   <path d="m330.9 430.6c-25.3 3.6-51.5 14.5-71 27.7-13.1 9-24.4 19.4-32.1 29.4-16.8 21.9-18.4 41.7 6.1 46.3 0 0 31.7 6.1 62.3-46.2l89.2-152.4" stroke="#060000"/>
   <path d="m328.5 432c116.6-65.8 358.9-186.2 374.1-193.2" stroke="#000001"/>
   <path d="m702.6 238.8c7.8-3.8 16.9-6 27.3-4.3 22 3.5 30.3 37.8 46.6 38.6 11.9.6 22.5-6.1 27-11.5" stroke="#000"/>
  </g>
 </g>
</svg>
