<svg height="210mm" viewBox="0 0 1052.4 744.1" width="297mm" xmlns="http://www.w3.org/2000/svg">
 <g fill="none" stroke-linecap="round">
  <g transform="translate(0 -308.26772)">
   <path d="m57.6 742.2h948.8" stroke="#969696" stroke-width="1.875"/>
   <g stroke="#000" stroke-dasharray="3.75 7.5" stroke-miterlimit="2" stroke-width=".9375">
    <path d="m58.3 844.1h948.8"/>
    <path d="m58.3 641.8h948.8"/>
    <path d="m58.3 540.6h948.8"/>
   </g>
  </g>
  <g stroke="#000" stroke-linejoin="round">
   <g stroke-width="5.625">
    <ellipse cx="232.10127" cy="696.5459" rx="25.728558" ry="20.371416" transform="matrix(.79083574 -.61202846 .61202846 .79083574 0 0)"/>
    <path d="m594.6 395.1c18.7-19.8 133.1-123.7 167.6-151 83-65-28.8 162.3-88.2 186.6-4 .9-7.3.9-10 .2-1.5-.4-3.9-6.9 1.2-9 16.4-6.6 89.4-27.5 102.5-30.5"/>
    <path d="m790.1 252.4-91.7 157.8"/>
   </g>
   <path d="m784.3 268.7-73 125.6" stroke-width="8.4375"/>
   <path d="m681.6 426.1c6.6-8.2 16.4-19 22.5-27.9" stroke-width="3.75"/>
   <g stroke-width="5.625">
    <path d="m773.3 296.2-40.2 67.9"/>
    <path d="m791.8 238.7c.7 14-5.4 18.6-14.3 37.1"/>
    <path d="m767.7 391.4c2.5-.5 4.9-.9 7.3-1 24-.8 32.4 41.1 48.8 40.7 10.8-.3 18.5-10 25.1-17.1"/>
    <path d="m505.3 435.3 24.1 47.9"/>
    <path d="m239.4 433.1c-13.7 9.1-34.4 28.7-45.7 43-20.5 26-31.9 44-26.4 53.8 2.9 5.3 34.7 12.4 62.3-63.3 15.8-47.4 16.5-113.3 70.8-131.6"/>
    <path d="m409.9 481.2c16.8-.5 33-21.3 35-47.2 2.1-26.8 36.3-48.7 36.3-48.7s-229.3 34.7-241.7 47.8"/>
    <path d="m505.3 435.3s-103.3 23.6-103.3 38.9c0 0-2.6 6.4 7.8 7"/>
    <path d="m529.4 483.2 60.2-82"/>
   </g>
  </g>
 </g>
</svg>
