<svg height="210mm" viewBox="0 0 1052.4 744.1" width="297mm" xmlns="http://www.w3.org/2000/svg">
 <g fill="none" stroke-linecap="round">
  <g transform="translate(0 -308.26772)">
   <path d="m57.6 742.2h948.8" stroke="#969696" stroke-width="1.875"/>
   <g stroke="#000" stroke-dasharray="3.75 7.5" stroke-miterlimit="2" stroke-width=".9375">
    <path d="m58.3 844.1h948.8"/>
    <path d="m58.3 641.8h948.8"/>
    <path d="m58.3 540.6h948.8"/>
   </g>
  </g>
  <g stroke-linejoin="round">
   <path d="m730.8 235.7-62.7 107.4c-24.8 39-64.2 79.9-90.4 88.2-1.2.4-5.8-.3-6.6-5.4-.6-3.7 5.6-6.8 12.5-9.8" stroke="#000004" stroke-width="5.625"/>
   <path d="m583.5 416.1s22.3-9.5 38.8-15.4" stroke="#000" stroke-width="5.625"/>
   <g stroke="#00000c" stroke-width="5.751832">
    <path d="m622.3 400.8 62.8-17.3 34.9 47.8"/>
    <path d="m685.1 383.5 25.1 47.9"/>
    <path d="m695.1 383.5 25 47.8"/>
    <path d="m690.9 383.4 25.1 47.9"/>
   </g>
  </g>
  <path d="m687.5 382.5h7.4" stroke="#00000c" stroke-width="3.834554"/>
  <path d="m712 432.3h7.4" stroke="#00000c" stroke-width="3.834554"/>
  <g stroke="#000" stroke-linejoin="round" stroke-width="5.625">
   <path d="m572.5 388.2c-129.1 61.7-241.3 51.2-244.9-.3"/>
   <path d="m572.5 388.2c28.4-13.3 44.3-29.2 71-52.8 19-16.8 75-84.9 87.3-99.7"/>
  </g>
 </g>
</svg>
