<svg height="210mm" viewBox="0 0 1052.4 744.1" width="297mm" xmlns="http://www.w3.org/2000/svg">
 <g fill="none" stroke-linecap="round">
  <g transform="translate(0 -308.26772)">
   <path d="m57.6 742.2h948.8" stroke="#969696" stroke-width="1.875"/>
   <g stroke="#000" stroke-dasharray="3.75 7.5" stroke-miterlimit="2" stroke-width=".9375">
    <path d="m58.3 844.1h948.8"/>
    <path d="m58.3 641.8h948.8"/>
    <path d="m58.3 540.6h948.8"/>
   </g>
  </g>
  <g stroke="#000">
   <g stroke-linejoin="round">
    <g stroke-width="5.625">
     <path d="m484.7 409c18-11.1 41.8-25.7 65.1-26.9 24-.9 32.4 14.8 21.4 49.3"/>
     <path d="m417 413.4c26.4-16 59.5-33.4 78.3-51.9 6.5-6.4 9.6-14.4 7.3-21.8-2.8-7.4-35.3-8.8-59.6 31.3-26.8 43.9-18 61.5-4.3 59.7 15.5-.9 30.8-12.9 45.9-21.6"/>
     <path d="m386.4 429c2.3-.4 14.7-6.7 30.6-15.6"/>
    </g>
    <path d="m407.8 336-47.8 86.7" stroke-width="6.5625"/>
    <path d="m303.4 430.7 95.1-95.1-39 72.4c-8.4 15.5 5 26.1 21.5 22.2 1.8-.1 3.6-.6 5.5-1.3" stroke-width="5.625"/>
    <path d="m403.1 336-44.7 81.9" stroke-width="6.5625"/>
   </g>
   <path d="m364.9 416.5c-1.6 4.2-2.6 6.5.8 11.9" stroke-width="3.75"/>
   <g stroke-linejoin="round">
    <path d="m407.8 336-9.3-.4" stroke-width="6.5625"/>
    <path d="m571.2 431.4c10.2-4.2 64.1-33.5 84.2-35 18.5-.7 25 35.9 37.7 35.5 8.3-.2 14.3-8.7 19.4-15" stroke-width="5.625"/>
   </g>
  </g>
 </g>
</svg>
