<svg height="210mm" viewBox="0 0 1052.4 744.1" width="297mm" xmlns="http://www.w3.org/2000/svg">
 <g fill="none" stroke-linecap="round">
  <g transform="translate(0 -308.26772)">
   <path d="m57.6 742.2h948.8" stroke="#969696" stroke-width="1.875"/>
   <g stroke="#000" stroke-dasharray="3.75 7.5" stroke-miterlimit="2" stroke-width=".9375">
    <path d="m58.3 844.1h948.8"/>
    <path d="m58.3 641.8h948.8"/>
    <path d="m58.3 540.6h948.8"/>
   </g>
  </g>
  <g stroke="#000">
   <path d="m459.9 381.5c15 .8 111.8-55.9 123.5-64.5 33.5-24.8 55-65.6 50.3-78-5.5-14.4-40.2 8.9-87.4 86.8-50.2 86.7-47.6 106.1-24.4 105.5 6.7-.2 17.6-1.9 31.8-10.7 8.3-5.1 23.6-18.9 33-32.7" stroke-linejoin="round" stroke-width="5.625"/>
   <ellipse cx="445.74704" cy="617.30347" rx="62.130169" ry="44.633743" stroke-linejoin="round" stroke-width="5.625" transform="matrix(.88109295 -.47294313 .47294313 .88109295 0 0)"/>
   <path d="m741.4 311.1c-13.8 27.9-38.1 52.4-66.8 70.7" stroke-width="5.385754"/>
   <path d="m742.6 320.1c-15.9 21.3-33.1 41.5-54 58.5" stroke-width="5.385754"/>
   <path d="m741.7 326.6c-14.3 21.6-19.7 29.6-41.7 46.5" stroke-width="7.181006"/>
   <path d="m690.3 369.7c-10.1 9.6-24.3 12.2-31.1 10.7" stroke-width="3.590503"/>
   <path d="m733.3 297.3c2.2 2.5 8.7 12.2 1.3 24.5" stroke-width="3.590503"/>
   <g stroke-width="5.625">
    <path d="m629.9 328.5-43.3 59.3"/>
    <g stroke-linejoin="round">
     <path d="m645.9 306.2c57.7-59.5 142.2-176.6 177.4-174.3 15.8 1.5 17.5 14.7 14.6 24.9-9.9 25.2-45 72.9-45 72.9"/>
     <path d="m285.3 427.7c30.7-13.1 134.7-54.2 198.9-91.8 7.2-4.5 15.1-9 20.2-13.4 12.8-11.2 18.6-26.1 16.7-30.9-2.8-7.3-34.7-8.6-58.5 30.7-26.3 43.1-18.8 59.4-2.7 59.3"/>
     <path d="m300 335.9s-29.1 50.3-43.7 75.4c-11.9 20.5 10 23.2 29 16.4"/>
    </g>
   </g>
  </g>
 </g>
</svg>
