<svg height="210mm" viewBox="0 0 1052.4 744.1" width="297mm" xmlns="http://www.w3.org/2000/svg">
 <g fill="none" stroke-linecap="round">
  <g transform="translate(0 -308.26772)">
   <path d="m57.6 742.2h948.8" stroke="#969696" stroke-width="1.875"/>
   <g stroke="#000" stroke-dasharray="3.75 7.5" stroke-miterlimit="2" stroke-width=".9375">
    <path d="m58.3 844.1h948.8"/>
    <path d="m58.3 641.8h948.8"/>
    <path d="m58.3 540.6h948.8"/>
   </g>
  </g>
  <g stroke="#000">
   <g stroke-linejoin="round">
    <path d="m515.6 396.2a19.2 25.1 41.6 0 1 -14.3 31.3 19.2 25.1 41.6 0 1 -27.6-6.8 19.2 25.1 41.6 0 1 14.3-31.3 19.2 25.1 41.6 0 1 27.6 6.8z" stroke-width="5.625"/>
    <path d="m481.1 395c10.1-12 30.4-30.2 41-37.9 16.1-11.8 34.8-20.8 52-20.5 26.2-.4 33.6 31.6 33.6 45" stroke-width="5.624999"/>
    <path d="m599.5 354.2c1.2 7.1 5.2 21.5 4 26" stroke-width="5.625"/>
    <path d="m571.1 337.6c13-.1 22.2 8.8 25.1 17 3.4 9.6 4.7 20.4 4.2 26.9" stroke-width="4.6875"/>
   </g>
   <path d="m600.9 381.6 6.7.1" stroke-width="5.625"/>
   <path d="m548.4 343c6.8-3.1 15.6-4.5 19.7-4.8 6.4-.5 11.7.6 16.7 3.6" stroke-linejoin="round" stroke-width="3.75"/>
  </g>
 </g>
</svg>
