<svg height="210mm" viewBox="0 0 1052.4 744.1" width="297mm" xmlns="http://www.w3.org/2000/svg">
 <g fill="none" stroke-linecap="round">
  <g transform="translate(0 -308.26772)">
   <path d="m57.6 742.2h948.8" stroke="#969696" stroke-width="1.875"/>
   <g stroke="#000" stroke-dasharray="3.75 7.5" stroke-miterlimit="2" stroke-width=".9375">
    <path d="m58.3 844.1h948.8"/>
    <path d="m58.3 641.8h948.8"/>
    <path d="m58.3 540.6h948.8"/>
   </g>
  </g>
  <g stroke-width="5.625">
   <g stroke="#000">
    <path d="m629.1 362.9c-23.2 22.2-112.7 170.1-112.7 170.1"/>
    <g stroke-linejoin="round">
     <path d="m667.8 336.1c-46.7 12.2-87.1 98.1-51 95.3 27.5-2.9 58.1-40.7 85.7-67.3"/>
     <path d="m717.2 350.7 104.5-67.8 19.1 47.9"/>
     <ellipse cx="475.66571" cy="690.91681" rx="60.146576" ry="43.208752" transform="matrix(.88109295 -.47294313 .47294313 .88109295 0 0)"/>
     <path d="m287.6 398.4c25.9-32.5 44.2-52.2 65.5-52.2 24.5 0 23.3 33.8 47 34"/>
     <path d="m264.4 336.2-38.7 73.1c-7.3 13.8-1.5 22.1 10.1 22 19 0 37.8-16.1 51.8-32.8"/>
    </g>
   </g>
   <path d="m400.1 380.2c23.4.6 48.9-33.8 69.8-34.5 24.5-.9 21.1 33.5 44.8 34.9 8.9.5 16-2.8 23.6-8.9" stroke="#070000" stroke-linejoin="round"/>
  </g>
 </g>
</svg>
