<svg height="210mm" viewBox="0 0 1052.4 744.1" width="297mm" xmlns="http://www.w3.org/2000/svg">
 <g fill="none" stroke-linecap="round">
  <g transform="translate(0 -308.26772)">
   <path d="m57.6 742.2h948.8" stroke="#969696" stroke-width="1.875"/>
   <g stroke="#000" stroke-dasharray="3.75 7.5" stroke-miterlimit="2" stroke-width=".9375">
    <path d="m58.3 844.1h948.8"/>
    <path d="m58.3 641.8h948.8"/>
    <path d="m58.3 540.6h948.8"/>
   </g>
  </g>
  <g stroke="#000" stroke-linejoin="round" stroke-width="5.625">
   <path d="m528.9 411.4 30.5-26.9 29.6 47.9"/>
   <path d="m518.6 362.3c-27.4 33.8-47.2 52.6-39.4 63.9 9 13.2 36.1 1.2 49.7-14.9"/>
   <path d="m481.1 348c23.7-19.2 60.9-14.6 37.5 14.4"/>
   <path d="m481.1 348c-17.3 15.7-42.1 45.5-43.4 47.1-47 56-94.4 41.2-80.9-5"/>
   <path d="m588.9 432.3s54.9-30.8 71.7-31.7c16-.6 21.6 31 32.6 30.7 7.2-.2 12.4-7.6 16.7-13"/>
  </g>
 </g>
</svg>
