<svg height="210mm" viewBox="0 0 1052.4 744.1" width="297mm" xmlns="http://www.w3.org/2000/svg">
 <g fill="none" stroke-linecap="round">
  <g transform="translate(0 -308.26772)">
   <path d="m57.6 742.2h948.8" stroke="#969696" stroke-width="1.875"/>
   <g stroke="#000" stroke-dasharray="3.75 7.5" stroke-miterlimit="2" stroke-width=".9375">
    <path d="m58.3 844.1h948.8"/>
    <path d="m58.3 641.8h948.8"/>
    <path d="m58.3 540.6h948.8"/>
   </g>
  </g>
  <g stroke="#000">
   <g stroke-linejoin="round">
    <path d="m306.9 382.6-21.4-46.2c-24.6 22.5-67.3 46.3-80.8 46.2-41.4-.2-.8-151.5 83.1-196.7" stroke-width="5.625"/>
    <path d="m66.1 431.3c43.9-15.9 65.9-94.7 41-94.9-7.2-.1-18.9 6.5-35.8 23.2" stroke-width="5.625"/>
    <path d="m287.7 185.9c-36.3 29.6-59.8 62.6-75.9 97.1-9.8 21-16.3 39.9-22.8 64.2" stroke-width="5.624999"/>
    <path d="m190.1 339.8c3.9-16.7 11.4-36.3 19.5-55.4 16-38 48.8-80.2 74.4-95.9" stroke-width="4.6875"/>
    <path d="m209 289.2c-7.6 21.3-30.4 84.1-8.7 92.7" stroke-width="5.624999"/>
    <path d="m260 206.4c-40.4 38.7-193.9 224.9-193.9 224.9" stroke-width="5.625"/>
    <path d="m404.4 288.5s-35.5 62.5-38.8 71.3c-4.5 11.9 1.3 17.9 7.2 21 2.3 1.2 5.7 2 10.2 2.1 36.8-1.4 48.2-19.1 88.9-52.7 19.5-16 81.3-65.7 100.2-86.6 25-27.9 41.5-52.7 30.4-60.3-12.8-8.6-40.2 8.9-87.4 86.8-33.7 58.2-43.5 86.2-39.5 98 1.3 3.8 3.5 7.6 8.4 9.3 23.1 7.8 38-6 56.6-6.9 5.1-.2 10.2.2 15.6 1.5 29.2 11.1 22.7 57.3 50 56.7" stroke-width="5.625001"/>
    <path d="m404.4 288.5-97.5 94.1" stroke-width="5.625002"/>
    <ellipse cx="553.03058" cy="-11.500183" rx="4.609393" ry="6.862875" stroke-width="5.625" transform="matrix(.72846687 .68508103 -.68508103 .72846687 0 0)"/>
   </g>
   <path d="m809.9 336.1-90.2 95.4" stroke-width="5.625"/>
   <g stroke-linejoin="round">
    <path d="m1020.1 336.3c-43.1 47.4-181.5 68-179-.3l-75.4 94.9" stroke-width="5.625"/>
    <path d="m809.9 336.1-44.2 94.8" stroke-width="5.625"/>
    <path d="m606.3 428.6c8.6-.1 14.3-4.1 20.5-10.4 24.9-25.5 42.4-36.1 59.4-35.8 22.5.4 38.7 18 33.6 49.1" stroke-width="5.624999"/>
   </g>
  </g>
 </g>
</svg>
