<svg height="210mm" viewBox="0 0 1052.4 744.1" width="297mm" xmlns="http://www.w3.org/2000/svg">
 <g fill="none" stroke-linecap="round">
  <g transform="translate(0 -308.26772)">
   <path d="m57.6 742.2h948.8" stroke="#969696" stroke-width="1.875"/>
   <g stroke="#000" stroke-dasharray="3.75 7.5" stroke-miterlimit="2" stroke-width=".9375">
    <path d="m58.3 844.1h948.8"/>
    <path d="m58.3 641.8h948.8"/>
    <path d="m58.3 540.6h948.8"/>
   </g>
  </g>
  <g stroke-linejoin="round" stroke-width="5.625">
   <path d="m460.3 431.5 48.2-37.3" stroke="#000"/>
   <ellipse cx="162.12" cy="643.38696" rx="25.728558" ry="20.371416" stroke="#000" transform="matrix(.79083574 -.61202846 .61202846 .79083574 0 0)"/>
   <path d="m226.7 431.7c88.5-59.2 253.5-59.1 233.6-.2" stroke="#0a0001"/>
   <path d="m508.5 394.2s118.4-82.5 159-115.9c5-4.1 12.3-10.3 17.8-14.9 9.2-8.2 8.8-20.3 3.8-26.3-6.2-5.2-25.9-1.6-34.6 22.9-4.9 13.8-3.1 34.6-6.7 53.9-3.7 20-43.6 46.6-64.3 69.8-20.9 23.3-23.9 47.6-3.7 47.1" stroke="#000"/>
   <path d="m579.9 430.8c12.5-.2 51.1-24.7 67.5-25.8 24.4-1.9 15 29.8 37.5 25.5 19.7-2.1 94.8-94.2 94.8-94.2" stroke="#000"/>
   <path d="m725.3 429.3c-52.7 10.7-94.9 86.5-90.3 98.5 1.1 2.9 17.7 21.8 57.3-41.8l87.4-149.6" stroke="#060000"/>
  </g>
 </g>
</svg>
