<svg height="210mm" viewBox="0 0 1052.4 744.1" width="297mm" xmlns="http://www.w3.org/2000/svg">
 <g fill="none" stroke-linecap="round">
  <g transform="translate(0 -308.26772)">
   <path d="m57.6 742.2h948.8" stroke="#969696" stroke-width="1.875"/>
   <g stroke="#000" stroke-dasharray="3.75 7.5" stroke-miterlimit="2" stroke-width=".9375">
    <path d="m58.3 844.1h948.8"/>
    <path d="m58.3 641.8h948.8"/>
    <path d="m58.3 540.6h948.8"/>
   </g>
  </g>
  <g stroke="#000" stroke-linejoin="round">
   <g stroke-width="5.625">
    <path d="m384.2 383.8 20 47.9"/>
    <path d="m404.2 431.7 51.6-40"/>
    <path d="m486.8 396.4a19.2 25.1 41.6 0 1 -14.3 31.3 19.2 25.1 41.6 0 1 -27.6-6.8 19.2 25.1 41.6 0 1 14.3-31.3 19.2 25.1 41.6 0 1 27.6 6.8z"/>
    <path d="m523.5 267.4c-8.2 13.9-24.1 41.7-40.5 70.5-11.3 19.8-25.1 44.3-34.4 60.7"/>
   </g>
   <path d="m367.7 487.8a5.9 5.9 0 0 1 -5.9 5.9 5.9 5.9 0 0 1 -5.9-5.9 5.9 5.9 0 0 1 5.9-5.9 5.9 5.9 0 0 1 5.9 5.8h-5.9z" stroke-width="6.571438" transform="matrix(.86496534 -.5018316 .5018316 .86496534 0 0)"/>
   <g stroke-width="5.625">
    <path d="m616.2 225.6s-61.5 3.2-63.4 13.6"/>
    <path d="m632.3 236a19.2 25.1 41.6 0 1 -14.3 31.3 19.2 25.1 41.6 0 1 -27.6-6.8 19.2 25.1 41.6 0 1 14.3-31.3 19.2 25.1 41.6 0 1 27.6 6.8z"/>
    <path d="m523.5 267.4c7.6-11.8 19.8-30.1 32.6-33.1"/>
   </g>
  </g>
 </g>
</svg>
