<svg height="210mm" viewBox="0 0 1052.4 744.1" width="297mm" xmlns="http://www.w3.org/2000/svg">
 <g fill="none" stroke-linecap="round">
  <g transform="translate(0 -308.26772)">
   <path d="m57.6 742.2h948.8" stroke="#969696" stroke-width="1.875"/>
   <g stroke="#000" stroke-dasharray="3.75 7.5" stroke-miterlimit="2" stroke-width=".9375">
    <path d="m58.3 844.1h948.8"/>
    <path d="m58.3 641.8h948.8"/>
    <path d="m58.3 540.6h948.8"/>
   </g>
  </g>
  <g stroke="#000">
   <g stroke-linejoin="round">
    <g stroke-width="5.625">
     <path d="m449.7 431.5s41.5-51.5 63.1-77.5c18.4-24.8 59.4-37.2 66.3 28.9 3.5 33.7 23.4 48.7 37.7 48.4 8.4-.2 15.8-3 22.4-7.4"/>
     <path d="m639.2 423.8c4.3-1.9 47.3-39.4 47.3-39.4l20.9 46.7"/>
     <path d="m416.4 393.1c11.6-16 44.6-62.8 68.5-56.2 9.6 2.9 12.2 16.2-3.7 42.5l-31.5 52.1"/>
    </g>
    <path d="m401.6 336.1-47.8 86.7" stroke-width="6.5625"/>
    <path d="m297.8 430.9 94.4-95.2-39 72.4c-8.4 15.5 5 26.1 21.5 22.2 16.8-3.8 26-17.2 41.6-37.3" stroke-width="5.625"/>
    <path d="m396.9 336.1-44.7 81.9" stroke-width="6.5625"/>
   </g>
   <path d="m358.7 416.7c-1.6 4.1-2.6 6.5.8 11.9" stroke-width="3.75"/>
   <path d="m401.6 336.1-9.3-.4" stroke-linejoin="round" stroke-width="6.5625"/>
  </g>
 </g>
</svg>
