<svg height="210mm" viewBox="0 0 1052.4 744.1" width="297mm" xmlns="http://www.w3.org/2000/svg">
 <g fill="none" stroke-linecap="round">
  <g transform="translate(0 -308.26772)">
   <path d="m57.6 742.2h948.8" stroke="#969696" stroke-width="1.875"/>
   <g stroke="#000" stroke-dasharray="3.75 7.5" stroke-miterlimit="2" stroke-width=".9375">
    <path d="m58.3 844.1h948.8"/>
    <path d="m58.3 641.8h948.8"/>
    <path d="m58.3 540.6h948.8"/>
   </g>
  </g>
  <g stroke="#000" stroke-linejoin="round" stroke-width="5.625">
   <path d="m288.5 421.7c17.4-12.7 120.4-118.7 129.1-124.8"/>
   <path d="m417.6 296.9c24-19.4 61.6-16.7 37.9 12.7-27.7 34.2-46 50.8-39.9 64.6 2.2 5.1 9.3 7.5 17.1 6.7 7-.7 20.5-4.4 35.7-16.9"/>
   <path d="m468.4 364c13-9.3 19.6-13.3 32.3-13.7 17.8-.5 21.6 31.1 33.8 31 8-.1 17.2-7 27.1-17.5"/>
   <path d="m561.6 363.7c6.2-3.8 132.9-179.4 132.9-179.4"/>
   <ellipse cx="-89.220169" cy="447.40988" rx="25.728558" ry="20.371416" transform="matrix(.79083574 -.61202846 .61202846 .79083574 0 0)"/>
   <path d="m208.1 385.9c39.1-.2 66.2 5.5 100.2-17.5 16.9-13 21.7-24.9 19.9-29.8-2.9-7.5-30.4-4.4-55.1 36.4-23.9 39.1-24.2 54.2-14.6 56.2"/>
   <path d="m258.5 431.1c9.9 1.6 21.9-4.5 30-9.4"/>
   <path d="m481.1 532.2s138.4-174.9 154.1-184.9"/>
   <path d="m597 432.1s48.2-38.7 104.4-40.1c56.1-1.3 71.3 40.1 111 39.1 23.6-.6 46.5-11.3 63.9-20.4"/>
   <path d="m597 432.1c-43.3 18.4-81.3 82.2-72.6 98 2.9 5.3 34.7 12.4 62.3-63.3 15.8-47.4 16.5-113.3 70.8-131.6"/>
  </g>
 </g>
</svg>
