<svg height="210mm" viewBox="0 0 1052.4 744.1" width="297mm" xmlns="http://www.w3.org/2000/svg">
 <g fill="none" stroke-linecap="round">
  <g transform="translate(0 -308.26772)">
   <path d="m57.6 742.2h948.8" stroke="#969696" stroke-width="1.875"/>
   <g stroke="#000" stroke-dasharray="3.75 7.5" stroke-miterlimit="2" stroke-width=".9375">
    <path d="m58.3 844.1h948.8"/>
    <path d="m58.3 641.8h948.8"/>
    <path d="m58.3 540.6h948.8"/>
   </g>
  </g>
  <g stroke="#000" stroke-linejoin="round" stroke-width="5.625">
   <path d="m542.6 355.2c11.7-11.6 15.9-14.4 25.2-17.3 6.9-2.1 12.9-1.7 16.5 1.7 5.7 5.4 5.3 18.3-7.9 40.1l-31.5 52.1"/>
   <path d="m261.8 431.1c16.9-15.5 55.5-36.1 83.7-37.2 39.8-1.5 60.3 36.7 94.6 36.8 27.6-.5 77.6-51.1 102.5-75.6"/>
   <path d="m544.9 431.8 119.5-95"/>
   <path d="m664.4 336.8-39 72.4c-8.4 15.5 5 26 21.5 22.2"/>
   <path d="m646.8 431.5c22-4.5 35.4-27.2 62.6-28.2 14.7.1 12.8 29.5 32.9 29.4 5.5-.8 13.8-6.6 17.7-15.9"/>
  </g>
 </g>
</svg>
