<svg height="210mm" viewBox="0 0 1052.4 744.1" width="297mm" xmlns="http://www.w3.org/2000/svg">
 <g fill="none" stroke-linecap="round">
  <g transform="translate(0 -308.26772)">
   <path d="m57.6 742.2h948.8" stroke="#969696" stroke-width="1.875"/>
   <g stroke="#000" stroke-dasharray="3.75 7.5" stroke-miterlimit="2" stroke-width=".9375">
    <path d="m58.3 844.1h948.8"/>
    <path d="m58.3 641.8h948.8"/>
    <path d="m58.3 540.6h948.8"/>
   </g>
  </g>
  <g stroke="#000" stroke-linejoin="round" stroke-width="5.625">
   <path d="m331.2 431.4 37.9-46.9 20.9 46.6"/>
   <path d="m546.4 380.4c17-2.8 65.5-44.2 65.5-44.2 1-.8-25.9 49.6-25.9 49.6"/>
   <path d="m618.9 339-25.3 46.6"/>
   <path d="m598 385.5-12 .2"/>
   <path d="m625.7 336-27.7 49.5"/>
   <path d="m625.7 336-14.1-.1"/>
   <path d="m617 337.1-25.3 46.6"/>
   <path d="m390 431.1 196.1-248.9-111.2 197.6 59.3-43.8"/>
   <path d="m546.4 380.4c-13.2 2.4-20.8-9.6-12.3-44.4"/>
  </g>
 </g>
</svg>
