<svg height="210mm" viewBox="0 0 1052.4 744.1" width="297mm" xmlns="http://www.w3.org/2000/svg">
 <g fill="none" stroke-linecap="round">
  <g transform="translate(0 -308.26772)">
   <path d="m57.6 742.2h948.8" stroke="#969696" stroke-width="1.875"/>
   <g stroke="#000" stroke-dasharray="3.75 7.5" stroke-miterlimit="2" stroke-width=".9375">
    <path d="m58.3 844.1h948.8"/>
    <path d="m58.3 641.8h948.8"/>
    <path d="m58.3 540.6h948.8"/>
   </g>
  </g>
  <g stroke="#000">
   <g stroke-linejoin="round" stroke-width="5.625">
    <path d="m496 431c5.4-3.3 11.7-10.5 6.5-17.1-2.6-3.3-4-4.5-11.9-4.4l-98.8.6c-6.7.1-14.3.2-15.9-.7-10.5-5.8-7.4-13.7.5-24.6"/>
    <path d="m236.2 431.5c50.4-65.5 115.5-58.4 97 .6-.4 1.2 43.7-48.5 43.7-48.5"/>
    <path d="m584.8 335.9c-17.3 22.3-83.2 95.1-88.8 95.1"/>
    <ellipse cx="302.65234" cy="687.40436" rx="25.728558" ry="20.371416" transform="matrix(.79083574 -.61202846 .61202846 .79083574 0 0)"/>
   </g>
   <path d="m682.5 347.4c.3 9.3-.4 14.6-6.3 21.9-3.6 4.5-8.8 8.3-16 11.1" stroke-width="5.624961"/>
   <path d="m678.9 342.1c2 6.9 1.8 6.4.7 11.6-1.6 7.6-6.1 13.5-12.5 18.7-3.2 2.6-6.9 5-10.9 7.3" stroke-width="6.599955"/>
   <path d="m661.9 374c-5.3 3.7-10.3 5.7-16.3 3.5" stroke-width="2.849979"/>
   <path d="m668.1 337.4c7.4 1.6 9 4 10.4 10.8" stroke-width="2.849979"/>
   <g stroke-linejoin="round" stroke-width="5.625">
    <path d="m646.3 343.6c6.3-5 19-16 26.4-21.7 10.1-7.8 19.2-14.7 21.5-16.2 10.8-6.8 26.8-15.9 33.1-11 6.1 4.7 8 33.9 20.2 36.1 2.9.5 5.9.3 8.9-.3"/>
    <path d="m715.5 294.5c11.6-4.7 13.4 6.8 14.9 23.4 1 10.8 7.8 13.7 20.1 13.3"/>
    <path d="m715.5 294.5c5.4-2.4 19-3.6 22.7 15 2.6 13.3 5.7 21.2 12.3 21.6"/>
    <path d="m727.6 297.2c6.8 12.3 1 30.9 15.5 31.8"/>
    <path d="m756.4 330.4c11.4-2.8 59.6-35 59.6-35"/>
    <path d="m584.8 335.9-47.8 95.6 109.3-87.9"/>
   </g>
  </g>
 </g>
</svg>
