<svg height="210mm" viewBox="0 0 1052.4 744.1" width="297mm" xmlns="http://www.w3.org/2000/svg">
 <g fill="none" stroke-linecap="round">
  <g transform="translate(0 -308.26772)">
   <path d="m57.6 742.2h948.8" stroke="#969696" stroke-width="1.875"/>
   <g stroke="#000" stroke-dasharray="3.75 7.5" stroke-miterlimit="2" stroke-width=".9375">
    <path d="m58.3 844.1h948.8"/>
    <path d="m58.3 641.8h948.8"/>
    <path d="m58.3 540.6h948.8"/>
   </g>
  </g>
  <g stroke="#000" stroke-linejoin="round">
   <ellipse cx="422.53409" cy="605.54089" rx="60.146576" ry="43.208748" stroke-width="5.625" transform="matrix(.88109295 -.47294313 .47294313 .88109295 0 0)"/>
   <g stroke-width="5.624999">
    <path d="m616.7 312.4c-21.1 23.1-173.3 156.3-196.5 183.2-10.4 12.1-16.6 23.5-13.9 31.7 1.4 4 16.3 22.9 59.8-38.1 26.9-36.9 54.6-73.4 69.3-116.4 2.2-6.5 3.5-12.2 4.1-17.2 1.5-12.5-6.5-19.4-15.9-19.2"/>
    <path d="m724.9 82.6-118.7 245.3"/>
    <path d="m523.7 336.4c-8.1.3-20.4 7.4-36.9 24.8"/>
   </g>
  </g>
 </g>
</svg>
