<svg height="210mm" viewBox="0 0 1052.4 744.1" width="297mm" xmlns="http://www.w3.org/2000/svg">
 <g fill="none" stroke-linecap="round">
  <g transform="translate(0 -308.26772)">
   <path d="m57.6 742.2h948.8" stroke="#969696" stroke-width="1.875"/>
   <g stroke="#000" stroke-dasharray="3.75 7.5" stroke-miterlimit="2" stroke-width=".9375">
    <path d="m58.3 844.1h948.8"/>
    <path d="m58.3 641.8h948.8"/>
    <path d="m58.3 540.6h948.8"/>
   </g>
  </g>
  <g stroke="#000" stroke-linejoin="round">
   <path d="m473.9 336.1c-25.5 7.3-54.4 48.8-56.5 74-1.8 20.5 12.1 26 56.5 16.8" stroke-width="5.625"/>
   <ellipse cx="630.1087" cy="-21.469917" rx="5.271423" ry="7.848564" stroke-width="14.034715" transform="matrix(.72846687 .68508103 -.68508103 .72846687 0 0)"/>
   <g stroke-width="5.625">
    <path d="m466.6 425.6c4.1 17.9 48.3-9.8 61.3-16.9 18.5-10.1 33.1-18.9 44.4-26.5 36.8-24.6 40.1-36.8 35.9-42.9-5.5-8.2-34.4-4.4-53 33.3-18.3 41.3-14 59.7-1 59 11.9-.7 24.5-10.2 36-21.7"/>
    <path d="m590.3 409.8c14.7-15 147.4-174.6 147.4-174.6"/>
    <path d="m737.7 235.2s-66.1 127.2-85.7 164.6c-8.4 18.4 1.8 30.9 17.2 31.3 25.1.7 52.2-5.8 71.7-4.3 14.8 1.2 24.1 7.8 29.5 15.7 7.6 10.9 7.3 24.7 1.9 44"/>
    <path d="m334.1 335.6 24.3 18.5"/>
    <path d="m358.3 354.1c1.6.9 3.1 2 4.2 3.5 1.3 1.7 2.2 3.7 2.5 5.8.4 2.5.2 5.3-.7 7.9-.7 2.1-1.8 4.3-3.3 6.2-1.3 1.7-2.8 3.3-4.7 4.7-1.8 1.4-3.7 2.5-5.7 3.3-1.3.5-2.6.9-3.9 1.2-1.8.4-3.6.5-5.3.4-2.3-.1-4.4-.7-6.3-1.7-1.6-.9-3.1-2-4.2-3.5-2.4-3.2-3-7.1-2.5-11.2.6-4.6 3.8-9.9 6.6-14.4 29.1-47.4 72.1-117.8 78.6-127.1 8.7-12.5 18.2-25.3 30.6-25.8 13.4-.6 16.2 26.6 31.3 26.1 4.8-.1 11.1-3.9 19.6-13.3"/>
    <path d="m332.7 340.3 24.6 19.4c4.4 4.9 8 10.8 3.6 18.1"/>
    <path d="m255 333.3c54.3-11 97.7-78.3 91.4-95-5.5-14.4-40.3 8.9-87.4 86.8-44.1 76.2-43.7 105.5-28 106.4 18.2.9 42.3-23.5 64.8-48.7 9.1-10.1 30.5-37.8 38.3-47.2"/>
   </g>
  </g>
 </g>
</svg>
