<svg height="210mm" viewBox="0 0 1052.4 744.1" width="297mm" xmlns="http://www.w3.org/2000/svg">
 <g fill="none" stroke-linecap="round">
  <g transform="translate(0 -308.26772)">
   <path d="m57.6 742.2h948.8" stroke="#969696" stroke-width="1.875"/>
   <g stroke="#000" stroke-dasharray="3.75 7.5" stroke-miterlimit="2" stroke-width=".9375">
    <path d="m58.3 844.1h948.8"/>
    <path d="m58.3 641.8h948.8"/>
    <path d="m58.3 540.6h948.8"/>
   </g>
  </g>
  <g stroke="#000" stroke-linejoin="round" stroke-width="5.625">
   <path d="m271.8 335.8c-40.3 12.4-78.1 79.8-59.9 93 2.7 1.8 7 2.2 10.2 2.3 5 .2 8.1-.4 14.5-2.2 12.8-3.7 317.4-174.1 339.5-183.4"/>
   <path d="m576.1 245.5c11.2-5.5 26.3-12.6 34-9.6 12.4 4.9 12.4 15.2-3.3 42.6l-29.8 52.1"/>
   <path d="m577 330.5 58.2-59"/>
   <path d="m714 263.5c-31.1 22.1-85.1 67.3-79.6 67.5 36.6-1.4 75.8-89.3 54.3-96-16.1-3.9-41.2 24.7-53.5 36.5"/>
   <path d="m714 263.5c20.6-14.3 35.6-25 44.3-28.3 2-.8 3.9-1.1 5.6-.9 4.1.4 7.4 3.3 10.1 8.5 6.4 12.5 3.9 17.9 12.1 26.7 15.6 17 43.1-27.4 33.9-33.7-6.2-4.3-25.5 3.2-48.6 41.3-44.3 72.5-2 58.8 27.9 33.6"/>
  </g>
 </g>
</svg>
