<svg height="210mm" viewBox="0 0 1052.4 744.1" width="297mm" xmlns="http://www.w3.org/2000/svg">
 <g fill="none" stroke-linecap="round">
  <g transform="translate(0 -308.26772)">
   <path d="m57.6 742.2h948.8" stroke="#969696" stroke-width="1.875"/>
   <g stroke="#000" stroke-dasharray="3.75 7.5" stroke-miterlimit="2" stroke-width=".9375">
    <path d="m58.3 844.1h948.8"/>
    <path d="m58.3 641.8h948.8"/>
    <path d="m58.3 540.6h948.8"/>
   </g>
  </g>
  <g stroke="#000" stroke-linejoin="round">
   <path d="m495.4 404.1c5.4-2.4 14.4-.8 22.3 16.5 5.6 12.2 16.2 10.3 22.8 10.3" stroke-width="5.624999"/>
   <path d="m506.4 403.9c7.6 3.9 5 .9 19.8 23.5" stroke-width="5.624999"/>
   <path d="m352.5 431.2c39-64.7 104.7-56.6 95.5-.1" stroke-width="5.625"/>
   <path d="m672.3 330.9s18.1-43.7 27-67.6c4.4-12.8 2.8-24.6-10.2-27.7-17.3-3.5-32.7 13.3-44.9 37.6-28.5 56.4-56.4 110.7-72.9 132.3-6.4 8.4-10.8 13.6-16 18-29.5 24.9-28.4-18.3-45.6-21.5s-61.8 29.2-61.8 29.2" stroke-width="5.624999"/>
  </g>
 </g>
</svg>
