<svg height="210mm" viewBox="0 0 1052.4 744.1" width="297mm" xmlns="http://www.w3.org/2000/svg">
 <g fill="none" stroke-linecap="round">
  <g transform="translate(0 -308.26772)">
   <path d="m57.6 742.2h948.8" stroke="#969696" stroke-width="1.875"/>
   <g stroke="#000" stroke-dasharray="3.75 7.5" stroke-miterlimit="2" stroke-width=".9375">
    <path d="m58.3 844.1h948.8"/>
    <path d="m58.3 641.8h948.8"/>
    <path d="m58.3 540.6h948.8"/>
   </g>
  </g>
  <g stroke="#000">
   <g stroke-linejoin="round" stroke-width="5.625">
    <path d="m475.4 431.8 58.2-48.5 33.3 47.9"/>
    <path d="m533.6 383.3 24 48"/>
    <path d="m543 383.3 23.8 47.9"/>
    <path d="m539.1 383.2 24 48"/>
   </g>
   <path d="m533.9 382.3h9" stroke-width="3.75"/>
   <path d="m557.4 432.2h9" stroke-width="3.75"/>
   <path d="m426.6 333.4c54.3-11 97.7-78.3 91.4-95-5.5-14.4-40.3 8.9-87.4 86.8-41.1 70.2-45.9 107.1-16.7 106.4" stroke-linejoin="round" stroke-width="5.624999"/>
   <path d="m521.9 336.4c-69.8 73.8-85.9 95.2-108.2 95.1" stroke-width="5.624999"/>
   <g stroke-linejoin="round">
    <path d="m521.9 336.4-46.6 95.4" stroke-width="5.624998"/>
    <path d="m566.9 431.2c2.5-3.5 51.7-67.3 60.6-76.5 6.9-7.5 18.2-17 34.2-18.1 14.8-1 24.1 7.6 9.4 25.9-27.4 33.8-46.8 51.5-39.4 64.5 1.9 3.3 6.1 4.5 11.4 4.2 7.6-.3 17.8-2.7 25.8-6.4 10.4-4.9 56.9-29.9 64.3-37.6" stroke-width="5.625"/>
   </g>
  </g>
 </g>
</svg>
