<svg height="210mm" viewBox="0 0 1052.4 744.1" width="297mm" xmlns="http://www.w3.org/2000/svg">
 <g fill="none" stroke-linecap="round">
  <g transform="translate(0 -308.26772)">
   <path d="m57.6 742.2h948.8" stroke="#969696" stroke-width="1.875"/>
   <g stroke="#000" stroke-dasharray="3.75 7.5" stroke-miterlimit="2" stroke-width=".9375">
    <path d="m58.3 844.1h948.8"/>
    <path d="m58.3 641.8h948.8"/>
    <path d="m58.3 540.6h948.8"/>
   </g>
  </g>
  <g stroke="#000" stroke-linejoin="round">
   <g stroke-width="5.625">
    <path d="m438.6 383 22.6 48.5"/>
    <path d="m461.2 431.5 107.9-140.1c11.2-10 20.1-9.6 25.5-8.3 19.1 4.5 11.2 19.6-4.7 41-15 20.3-24.5 36.8-43.1 61.9-26.3 35.4-55 68-47.8 86.2 9.6 18.5 32.3 6.6 53-11.7"/>
    <path d="m604.7 305.2c-.8 5.4-.7 9.8-5.7 20l-93.8 134.9-1.8 13.5"/>
   </g>
   <path d="m599.8 315.5-67.9 98.8-28.6 41.8-2.2 10.7" stroke-width="8.4375"/>
   <path d="m515.9 446.3c-5.1 7.7-10 15.6-10 22.5 0 3.1 0 6.1 2.7 8.3 1.9 1.5 3.7 4.1 9.9 2.9" stroke-width="3.75"/>
   <path d="m605.5 288.8c2.8 5.2 2.1 16.5-1 26.4-1.6 5.2-4.3 10.6-8.7 16.2" stroke-width="3.75"/>
   <path d="m552 460.5c10.5-7.7 30-22.8 30-22.8" stroke-width="5.625"/>
  </g>
 </g>
</svg>
