<svg height="210mm" viewBox="0 0 1098.4 744.1" width="310mm" xmlns="http://www.w3.org/2000/svg">
 <g fill="none" stroke-linecap="round">
  <g transform="translate(0 -308.26772)">
   <path d="m38.8 742.2h1018.2" stroke="#969696" stroke-width="1.875"/>
   <g stroke="#000" stroke-dasharray="3.75 7.5" stroke-miterlimit="2" stroke-width=".9375">
    <path d="m39.5 844.1h1018.3"/>
    <path d="m39.5 641.8h1018.3"/>
    <path d="m39.5 540.6h1018.3"/>
   </g>
  </g>
  <g stroke-width="5.625">
   <g stroke-linejoin="round">
    <g stroke="#000">
     <path d="m131.1 336.1c-55.4 14.5-101.9 132.4-22.6 83.6 5.7-4.4 7.5-5.7 15-13.2"/>
     <path d="m123.7 405.9c11.6-11.1 32.7-43.1 43.1-68.9"/>
     <path d="m214.6 386.2c40 3 57.6-35.3 56.6-44.3-1.4-12.3-29.3-4.3-53.1 35-30.8 50.4-20.4 58.9-.6 51.6 7.3-2.7 22.1-10.9 30.4-16.5"/>
    </g>
    <path d="m217.7 483.2c16.8-.5 33-21.3 35-47.2 2.1-26.8 46.7-54.9 36.3-48.7l-41.1 24.7" stroke="#060000"/>
    <path d="m336.2 359c15.9-32 75.6-30.6 48.2 3.3-27.4 33.8-47.1 52.6-39.4 63.9 9 13.2 36.1 1.2 49.7-14.9l61.1-75.1 22.3 49.7" stroke="#000"/>
   </g>
   <g stroke="#000">
    <path d="m515.6 416.3c-1.3 12.5-8.3 28.3-20.8 34.2"/>
    <g stroke-linejoin="round">
     <path d="m561.5 431.8 191.5-15.6"/>
     <path d="m810.2 398.5 33.9-16-27.4 48.9"/>
    </g>
   </g>
  </g>
  <g stroke="#000" stroke-linejoin="round" stroke-width="5.624959">
   <path d="m1007.1 335.9 27.2 46.9"/>
   <path d="m904.4 386.6c40 2.9 59.8-35.9 56.6-44.3-5.3-14.5-29.3-4.3-53.1 35.1-25.3 41.3-22.8 54.4-10.2 53.8 32-3 82.3-65.2 109.4-95.3"/>
  </g>
 </g>
</svg>
