<svg height="210mm" viewBox="0 0 1052.4 744.1" width="297mm" xmlns="http://www.w3.org/2000/svg">
 <g fill="none" stroke-linecap="round">
  <g transform="translate(0 -308.26772)">
   <path d="m57.6 742.2h948.8" stroke="#969696" stroke-width="1.875"/>
   <g stroke="#000" stroke-dasharray="3.75 7.5" stroke-miterlimit="2" stroke-width=".9375">
    <path d="m58.3 844.1h948.8"/>
    <path d="m58.3 641.8h948.8"/>
    <path d="m58.3 540.6h948.8"/>
   </g>
  </g>
  <path d="m340.6 430.8c88.5-59.2 253.5-59.1 233.6-.2" stroke="#0a0001" stroke-linejoin="round" stroke-width="5.625"/>
  <g stroke="#000">
   <g stroke-linejoin="round">
    <path d="m574.2 430.6 99.1-94" stroke-width="5.625"/>
    <path d="m664.9 407.1s16.7-8.3 22.7-11.2c47.6-22.4 79-8.5 66.9 34.6" stroke-width="5.625"/>
    <path d="m745.1 392.3c7.1 5.9 8.1 27.1 3.2 37.8" stroke-width="6.5625"/>
    <path d="m732.6 385.9c16.4 3.3 16.8 35.2 10.1 45.2" stroke-width="4.6875"/>
   </g>
   <g stroke-width="5.625">
    <path d="m743.4 431.2 9.8.1"/>
    <path d="m673.3 336.6-57 94.7 48.6-24.2" stroke-linejoin="round"/>
    <path d="m862.4 234.5-107.1 196.9"/>
   </g>
   <path d="m318.8 386.2-76.4 30.3c-5 2-7.7 5.2-8.3 6.2-1.9 3.1-1.1 8.1 3.9 8.6 3 .3 9.7-4.2 11-5 10.7-6.1 20.2-15.8 27.8-26.6 28.4-40.2 30.6-95.6-25.7-40.3" stroke-linejoin="round" stroke-width="5.419139"/>
  </g>
  <g stroke-width="5.625">
   <g stroke="#00000c" stroke-linejoin="round">
    <path d="m318.8 386.2-55.8 97.2"/>
    <path d="m329.4 386.1-55.8 97.2"/>
    <path d="m329.4 386.1h-10.6"/>
    <path d="m323.9 386.2-55.8 97.2"/>
    <path d="m273.6 483.4h-10.6"/>
   </g>
   <path d="m340.6 430.8-67 52.6" stroke="#000"/>
  </g>
 </g>
</svg>
