<svg height="210mm" viewBox="0 0 1052.4 744.1" width="297mm" xmlns="http://www.w3.org/2000/svg">
 <g fill="none" stroke-linecap="round">
  <g transform="translate(0 -308.26772)">
   <path d="m57.6 742.2h948.8" stroke="#969696" stroke-width="1.875"/>
   <g stroke="#000" stroke-dasharray="3.75 7.5" stroke-miterlimit="2" stroke-width=".9375">
    <path d="m58.3 844.1h948.8"/>
    <path d="m58.3 641.8h948.8"/>
    <path d="m58.3 540.6h948.8"/>
   </g>
  </g>
  <g stroke-linejoin="round">
   <ellipse cx="155.14145" cy="637.36322" rx="25.94458" ry="20.542459" stroke="#000701" stroke-width="5.625" transform="matrix(.79083574 -.61202846 .61202846 .79083574 0 0)"/>
   <g stroke="#000">
    <path d="m494.8 397.9c-3 3.1-8.4 9.3-13.5 13.6-9.2 7.8-17.9 13.2-26.1 16.3-28.4 10.7-47.9-6.2-38.6-37.9" stroke-width="5.624959"/>
    <g stroke-width="5.625">
     <path d="m623.6 375.6c23.3-20.5 40.7-40.1 74.1-40 21.6.3 39.4 6.6 33.2 47.7"/>
     <path d="m500.2 393s29.4-19.6 44.5-27.9c12.2-6.7 25.5-12.5 33.2-11 17.2 3.2 16 46.2 45.6 21.5"/>
     <path d="m559.7 358.1c5.4-2.4 18.6-2.2 26.5 15 5.6 12.2 13.9 9.5 20.5 9.9"/>
     <path d="m574.2 356.2c6.7 5.9 6.3.5 21.2 23.1"/>
    </g>
   </g>
  </g>
 </g>
</svg>
