<svg height="210mm" viewBox="0 0 1052.4 744.1" width="297mm" xmlns="http://www.w3.org/2000/svg">
 <g fill="none" stroke-linecap="round">
  <g transform="translate(0 -308.26772)">
   <path d="m57.6 742.2h948.8" stroke="#969696" stroke-width="1.875"/>
   <g stroke="#000" stroke-dasharray="3.75 7.5" stroke-miterlimit="2" stroke-width=".9375">
    <path d="m58.3 844.1h948.8"/>
    <path d="m58.3 641.8h948.8"/>
    <path d="m58.3 540.6h948.8"/>
   </g>
  </g>
  <g stroke="#000" stroke-linejoin="round">
   <path d="m514.3 333.7c35.1-3.5 112-82.9 93.8-97-12.2-9.4-42.6 12.2-89.8 90.1-23.8 41.1-30.3 56.7-32.8 79.5-.8 9.8 4.8 19.4 14.9 22.8 17.8 5.9 46.4 1.9 65.3-1.9" stroke-width="5.625"/>
   <ellipse cx="702.48798" cy="-82.372887" rx="4.609393" ry="6.862874" stroke-width="5.625" transform="matrix(.72846687 .68508103 -.68508103 .72846687 0 0)"/>
   <ellipse cx="679.71869" cy="-65.271393" rx="5.271423" ry="7.848564" stroke-width="14.034715" transform="matrix(.72846687 .68508103 -.68508103 .72846687 0 0)"/>
   <g stroke-width="5.625">
    <ellipse cx="235.19554" cy="698.11578" rx="25.728559" ry="20.371418" transform="matrix(.79083574 -.61202846 .61202846 .79083574 0 0)"/>
    <path d="m610.2 430.6c-11.7 1.1-37.9 2.3-46-3.8"/>
   </g>
  </g>
 </g>
</svg>
