<svg height="210mm" viewBox="0 0 1133.9 744.1" width="320mm" xmlns="http://www.w3.org/2000/svg">
 <g fill="none" stroke-linecap="round">
  <g transform="translate(0 -308.26772)">
   <path d="m21.9 742.2h1093.3" stroke="#969696" stroke-width="1.875"/>
   <g stroke="#000" stroke-dasharray="3.75 7.5" stroke-miterlimit="2" stroke-width=".9375">
    <path d="m22.7 844.1h1093.2"/>
    <path d="m22.7 641.8h1093.2"/>
    <path d="m22.7 540.6h1093.2"/>
   </g>
  </g>
  <g stroke="#000">
   <g stroke-width="5.625">
    <path d="m524.3 431.7c24.5-33.6 43.4-57.5 76.7-74.6 12.1-6.1 24.6-11.3 36.7-15.1 57.4-18 107.7-5.7 83.8 72.7-1.3 4.4-4.8 11.8-6.9 16.5-.3.6 33.2-28.1 33.2-28.1" stroke-linejoin="round"/>
    <path d="m747.8 403.2c55.3-40.9 184.4-170.5 138.9-167.6-15.4 1-42.6 12.2-89.8 90.1-60.3 104.2-32 117.7 2.2 97.7 7.6-5.3 14.6-11.1 20.9-18" stroke-linejoin="round"/>
    <path d="m870.3 240.6c-48 60-84.9 118.1-107.7 179.3"/>
   </g>
   <path d="m857.2 252.3c-38.3 44.9-70.9 94.9-92.8 154.8" stroke-width="7.5"/>
   <path d="m887.9 236.4c-13.1-.9-24.8 14.1-27.3 17.1" stroke-width="3.75"/>
   <path d="m767.4 407.9c-6.1 21.8-1.8 23 13.1 22.7" stroke-width="5.625"/>
   <path d="m946.3 247.9c-25.4 18.1-71.4 87.8-104.5 132.3-7.8 10.5-21.8 25-21.8 25" stroke-width="5.625"/>
   <g stroke-linejoin="round">
    <g stroke-width="5.625">
     <path d="m955.9 311.1 35.1-30.5 22.9 51.4"/>
     <path d="m970.8 235c-57.9 15.1-107 146.7-14.9 76.1"/>
     <path d="m1014 331.9c49.3-62.9 100.8-48.2 86.7.3"/>
     <path d="m88.7 416.2c-7.5 4.9-15 9.4-22.4 11.6-7.4 2.3-14.5 4.3-21.2 3.3-33.2-5.1 46.4-141.4 87.4-184.9 4.7-5 11.2-10.7 18.9-11.9"/>
    </g>
    <path d="m145 398.9s201.9-57.2 225.7-62.5c3.2-.6 6.4-.8 9.6-.6 16.3 1.2 16.3 37.8 37 37.3" stroke-width="5.318918"/>
    <path d="m417.3 373.1c29.7-.6 47.2-36.7 76.7-37.3 23.7-.5 25.1 42.3 44.1 37.2 4.6-1.2 10.7-5.3 18.9-13.4" stroke-width="5.318918"/>
    <g stroke-width="5.625">
     <ellipse cx="-133.82648" cy="419.38901" rx="19.945965" ry="15.792861" transform="matrix(.79083574 -.61202846 .61202846 .79083574 0 0)"/>
     <path d="m88.7 416.2 49-37.2 24.3 18.5"/>
    </g>
   </g>
  </g>
 </g>
</svg>
