<svg height="210mm" viewBox="0 0 1052.4 744.1" width="297mm" xmlns="http://www.w3.org/2000/svg">
 <g fill="none" stroke-linecap="round">
  <g transform="translate(0 -308.26772)">
   <path d="m57.6 742.2h948.8" stroke="#969696" stroke-width="1.875"/>
   <g stroke="#000" stroke-dasharray="3.75 7.5" stroke-miterlimit="2" stroke-width=".9375">
    <path d="m58.3 844.1h948.8"/>
    <path d="m58.3 641.8h948.8"/>
    <path d="m58.3 540.6h948.8"/>
   </g>
  </g>
  <g stroke-linejoin="round" stroke-width="5.625">
   <path d="m537 286.5s-319.2 117.8-328.2 125.1c-8.6 7-10 10.9-9.4 14.6.6 3.6 3.3 5.1 6.6 5.2 4.5 0 10.9-4.3 12.3-5.1 48.9-28 69.1-128.6 6.8-73.1" stroke="#000"/>
   <path d="m481.8 383.1c-29 21.7-62.5 47.9-68 55.2-15.2 19.8-24.3 35.1-22.1 40.8 1.1 2.9 17.7 21.8 57.3-41.8l88-150.7" stroke="#060000"/>
   <g stroke="#000">
    <path d="m481.8 383.1c75.8-65.5 132.1-59.3 113.6-.3"/>
    <ellipse cx="464.36136" cy="628.54089" rx="60.927929" ry="43.770065" transform="matrix(.88109295 -.47294313 .47294313 .88109295 0 0)"/>
    <path d="m595.5 382.7 72-74.3"/>
    <path d="m720.6 285.8 73 .7"/>
   </g>
   <path d="m803.6 270.7c1 .1 1.8.3 2.5.7.2.1.4.2.6.4 1.2.9 1.7 2.6 1 5.2-1.3 5.1-7.1 8-9.8 9-5.7 2-9.8-2.6-6.6-7.6 2-3.1 5.5-6.6 9.7-7.5.3-.1.6-.1.9-.1s.7-.1 1-.1c.8 0 1.6.1 2.4.3" stroke="#030002"/>
  </g>
 </g>
</svg>
