<svg height="210mm" viewBox="0 0 1052.4 744.1" width="297mm" xmlns="http://www.w3.org/2000/svg">
 <g fill="none" stroke-linecap="round">
  <g transform="translate(0 -308.26772)">
   <path d="m57.6 742.2h948.8" stroke="#969696" stroke-width="1.875"/>
   <g stroke="#000" stroke-dasharray="3.75 7.5" stroke-miterlimit="2" stroke-width=".9375">
    <path d="m58.3 844.1h948.8"/>
    <path d="m58.3 641.8h948.8"/>
    <path d="m58.3 540.6h948.8"/>
   </g>
  </g>
  <g stroke-linejoin="round" stroke-width="5.625">
   <path d="m567.6 437.5c-32.3 47.4-49.4 44.7-58.4 44.4-21-.7-24.8-14.7-13.4-44.8 15.1-39.9 45.9-101 71.7-129.1 4.6-5 15.6-18.1 23.5-22" stroke="#000"/>
   <path d="m778.2 334.2-55.8 97.2" stroke="#00000c"/>
   <path d="m778.2 334.2h-10.6" stroke="#00000a"/>
   <path d="m772.7 334.2-55.8 97.2" stroke="#00000c"/>
   <path d="m722.4 431.4h-10.6" stroke="#00000c"/>
   <g stroke="#000">
    <path d="m670 432.4 97.6-98.2-55.8 97.2 11-.1"/>
    <path d="m531.4 466.4c.8.1 1.4.2 1.9.5.2.1.3.2.5.3.9.7 1.3 2 .8 4-1 3.9-5.4 6.1-7.5 6.9-4.3 1.6-7.6-2-5.1-5.9 1.6-2.4 4.2-5.1 7.4-5.7.2 0 .4-.1.7-.1s.5-.1.8-.1c.6 0 1.2.1 1.9.3"/>
    <path d="m427.9 386.7c40 3 59.7-35.8 56.6-44.3-5.4-14.5-29.3-4.3-53.1 35-42.2 69.1-7 59.4 23.6 38.4 19.5-13.1 93-97.5 124.9-121.5"/>
    <path d="m567.6 437.5c21.5-31 33-42.2 52.1-47.7 31.7-9 58.2 4.3 50.2 42.6"/>
   </g>
  </g>
 </g>
</svg>
