<svg height="210mm" viewBox="0 0 1052.4 744.1" width="297mm" xmlns="http://www.w3.org/2000/svg">
 <g fill="none" stroke-linecap="round">
  <g transform="translate(0 -308.26772)">
   <path d="m57.6 742.2h948.8" stroke="#969696" stroke-width="1.875"/>
   <g stroke="#000" stroke-dasharray="3.75 7.5" stroke-miterlimit="2" stroke-width=".9375">
    <path d="m58.3 844.1h948.8"/>
    <path d="m58.3 641.8h948.8"/>
    <path d="m58.3 540.6h948.8"/>
   </g>
  </g>
  <g stroke="#000" stroke-linejoin="round">
   <path d="m253.6 431.2s141.4-119.3 182.1-152.6c5-4.1 12.3-10.3 17.8-14.9 9.2-8.2 8.8-20.3 3.8-26.3-6.2-5.2-25.9-1.6-34.6 22.9-4.9 13.8-3.1 34.6-6.7 53.9-3.7 20-43.6 46.6-64.3 69.8-22 24.6-24.3 49.7-.3 46.8" stroke-width="5.625"/>
   <path d="m309.3 332.8c53.5-10.8 97.2-78.7 91-95.2-5.4-14.2-39.6 8.7-86.1 85.5l-60.6 108.1" stroke-width="5.539271"/>
   <g stroke-width="5.625">
    <path d="m351.5 430.7c17.7-1.9 73.3-33.1 88.7-34 20.1-.2 16.5 32.9 34.6 34.3 18.7.7 37-21 109.1-95.9"/>
    <path d="m527.2 432.6 109.8-97.2 17.5 47.3"/>
    <path d="m583.9 335.1-56.7 97.4"/>
    <path d="m654.5 382.6s63.9-45.4 84.8-46.3c22.4 1.4 19.6 43.1 34.9 42.8 7.2-.1 12.4-7.6 16.7-13"/>
   </g>
  </g>
 </g>
</svg>
