<svg height="210mm" viewBox="0 0 1052.4 744.1" width="297mm" xmlns="http://www.w3.org/2000/svg">
 <g fill="none" stroke-linecap="round">
  <g transform="translate(0 -308.26772)">
   <path d="m57.6 742.2h948.8" stroke="#969696" stroke-width="1.875"/>
   <g stroke="#000" stroke-dasharray="3.75 7.5" stroke-miterlimit="2" stroke-width=".9375">
    <path d="m58.3 844.1h948.8"/>
    <path d="m58.3 641.8h948.8"/>
    <path d="m58.3 540.6h948.8"/>
   </g>
  </g>
  <path d="m643.6 358.1-67.4 70" stroke="#000" stroke-linejoin="round" stroke-width="5.625"/>
  <path d="m699 385.5s-23.7 16.2-36 25.7c-16.6 12.8-28.6 18.7-36.6 19.9-35.3 5 5.1-83.3 51.2-95.3" stroke="#000" stroke-width="5.624999"/>
  <g stroke-linejoin="round">
   <path d="m699 385.5-46.6 95.4" stroke="#000" stroke-width="5.624999"/>
   <path d="m379.8 431.3 189.6.2" stroke="#030002" stroke-width="5.625"/>
   <g stroke="#000">
    <ellipse cx="708.41541" cy="-82.219551" rx="4.609393" ry="6.862874" stroke-width="5.625" transform="matrix(.72846687 .68508103 -.68508103 .72846687 0 0)"/>
    <ellipse cx="692.59509" cy="-67.344559" rx="4.609393" ry="6.862874" stroke-width="5.625" transform="matrix(.72846687 .68508103 -.68508103 .72846687 0 0)"/>
    <path d="m426.4 335.9-46.6 95.4" stroke-width="5.624998"/>
   </g>
  </g>
 </g>
</svg>
