<svg height="210mm" viewBox="0 0 1052.4 744.1" width="297mm" xmlns="http://www.w3.org/2000/svg">
 <g fill="none" stroke-linecap="round">
  <g transform="translate(0 -308.26772)">
   <path d="m57.6 742.2h948.8" stroke="#969696" stroke-width="1.875"/>
   <g stroke="#000" stroke-dasharray="3.75 7.5" stroke-miterlimit="2" stroke-width=".9375">
    <path d="m58.3 844.1h948.8"/>
    <path d="m58.3 641.8h948.8"/>
    <path d="m58.3 540.6h948.8"/>
   </g>
  </g>
  <g stroke="#000">
   <g stroke-linejoin="round">
    <g stroke-width="5.625">
     <path d="m344.7 213.8c-27.3 29.5-65.6 78.9-92.8 111.4-30.7 36.7-78.7 85.5-54.9 10.3"/>
     <path d="m81.4 431.1c-5.6-3.4 51.5-46.4 115.5-95.6"/>
     <path d="m81.4 431.1c7.1-2.5 11.3-4.8 17.5-9.1 11.5-9.3 22-21.1 32.2-36.4l30.9-50"/>
     <path d="m154.8 335.7-43.3 72.8"/>
    </g>
    <path d="m122.3 387.8c-13.9 21.2-18 30.2-29.7 37.8" stroke-width="2.8125"/>
    <path d="m162.1 335.5-7.3.1" stroke-width="5.625"/>
    <path d="m157.5 338.2c-13.9 21.2-22 34.5-22 34.5" stroke-width="2.8125"/>
    <path d="m345 374.6c-28.3 4.8-47.3 4-54.3-7.8-2.1-3.4-4-7.6-4.7-13-.6-4.7-.7-10.1-.2-16 4.1-47.7 42.9-126.2 100.5-157.2" stroke-width="5.625002"/>
    <path d="m365.5 342.9c3.4 9.7-2.5 22.6-13.2 28.8-10.6 6.2-22 3.4-25.3-6.3-3.4-9.7 2.5-22.6 13.2-28.8 10.6-6.2 22-3.4 25.3 6.3z" stroke-width="5.625"/>
    <path d="m354.8 370.3c20-12.1 77.1-86.6 96.9-115.8 41.5-61 93.8-130.1 121.3-124.5 3 .1 5 1.7 6.1 4.6 10.7 27.9-65.8 174.3-122.4 192.5" stroke-width="5.625"/>
    <path d="m569.4 177.7c-11.5 21.5-39 69.9-54.2 94.8" stroke-width="8.4375"/>
    <path d="m458.5 325.6c17.6-7.4 30.5-22.8 43.2-39.5 5.5-7.3 12-16.7 20.5-29.8" stroke-width="3.75"/>
    <path d="m563.9 191.2-54.8 90.9" stroke-width="5.625"/>
    <path d="m577.6 132.7c5.1 7.4-2.4 28.2-11.3 46.7" stroke-width="4.6875"/>
   </g>
   <path d="m803.1 232.6s-339.3 79.1-349.3 90.5c-2.2 2.5-2.5 5.4 3 4" stroke-width="5.625002"/>
   <g stroke-linejoin="round">
    <path d="m803.1 232.6-46.6 95.4" stroke-width="5.624999"/>
    <path d="m756.6 328c39.3-47.3 52-60.7 67.8-74.1 12.7-10.7 29.9-20.2 42.9-21.3 4.4-.4 8.5-.1 12.1.8 3.7.9 7.1 2.4 9.9 4.6 9.5 7.3 12.9 21.9 5.8 42.7" stroke-width="5.692855"/>
    <path d="m895 280.7c8.5-10 20.3-24.5 29.5-32.9 2.2-2 4.6-4.1 7.2-5.9 5.1-3.7 11-6.6 18.1-7.5 3.3-.4 6.4-.1 9 .9 2.8 1 5 2.6 6.6 4.7 3.7 5.2 3.1 13.5-5.1 23.4-24.4 29.4-44.6 43.7-37.4 59.2 2.6 5.6 9 8.2 16.3 7.4 11.8-1.4 20.1-7.7 27.8-15" stroke-width="5.625"/>
   </g>
  </g>
 </g>
</svg>
