<svg height="210mm" viewBox="0 0 1052.4 744.1" width="297mm" xmlns="http://www.w3.org/2000/svg">
 <g fill="none" stroke-linecap="round">
  <g transform="translate(0 -308.26772)">
   <path d="m57.6 742.2h948.8" stroke="#969696" stroke-width="1.875"/>
   <g stroke="#000" stroke-dasharray="3.75 7.5" stroke-miterlimit="2" stroke-width=".9375">
    <path d="m58.3 844.1h948.8"/>
    <path d="m58.3 641.8h948.8"/>
    <path d="m58.3 540.6h948.8"/>
   </g>
  </g>
  <path d="m325.3 398c9.9-3.2 126-33.2 194.4-67.5 18.4-9.2 38.3-23 45.7-29.5 17.5-17.4 57.1-59.2 40.1-65.1-14.6-5.1-40.2 9-87.4 87.7-60.3 105.2-35.6 120.4-1.8 99.4" stroke="#010000" stroke-linejoin="round" stroke-width="5.625"/>
  <path d="m325.3 398c-18.5 5.5-49.8 14.2-56.5 24.7-1.9 3.1-1.1 8.1 3.9 8.6 3 .3 9.7-4.2 11-5 10.7-6.1 20.2-15.8 27.8-26.6 28.4-40.2 30.6-95.6-25.7-40.3" stroke="#010000" stroke-linejoin="round" stroke-width="5.419139"/>
  <g stroke="#000">
   <g stroke-width="5.625">
    <g stroke-linejoin="round">
     <path d="m516.1 423c22.4-13.9 42.1-21.9 57.9-22.2 16.2.1 22.5 30.9 36.8 30.7"/>
     <path d="m610.8 431.5c7.2-.1 13.5-5.9 18.9-10.7"/>
     <path d="m629.7 420.8c4.7-4.4 75.5-84.1 75.5-84.1l56.8 93.9"/>
     <path d="m705.1 336.7 46.3 94.1"/>
     <path d="m715.6 336.5 46.3 94.1"/>
    </g>
    <path d="m751.4 430.8 10.5-.2"/>
    <path d="m705.1 336.7 10.5-.2"/>
   </g>
   <path d="m711.3 338.6 45 90.4" stroke-linejoin="round" stroke-width="7.5"/>
  </g>
 </g>
</svg>
