<svg height="210mm" viewBox="0 0 1052.4 744.1" width="297mm" xmlns="http://www.w3.org/2000/svg">
 <g fill="none" stroke-linecap="round">
  <g transform="translate(0 -308.26772)">
   <path d="m57.6 742.2h948.8" stroke="#969696" stroke-width="1.875"/>
   <g stroke="#000" stroke-dasharray="3.75 7.5" stroke-miterlimit="2" stroke-width=".9375">
    <path d="m58.3 844.1h948.8"/>
    <path d="m58.3 641.8h948.8"/>
    <path d="m58.3 540.6h948.8"/>
   </g>
  </g>
  <g stroke="#000" stroke-linejoin="round" stroke-width="5.625">
   <path d="m434 336.4c-47.4 13.6-86.2 107.4-43.1 95.1 13.1-4.3 28.9-14.1 55.2-46.7"/>
   <path d="m446.1 384.8c7.9-10.3 14.2-18.4 14.9-19.4 2.7-3.5 5.3-6.7 7.7-9.6 2-2.4 3.9-4.5 5.8-6.4 16.9-17.9 26.9-18.3 33.4-5.7 6.5 12.7 4 18.2 12.3 27.2 15.9 17.3 43.8-27.8 34.5-34.3-6.3-4.4-25.9 3.2-49.4 42-28.6 46.7-21.7 53.6-5.2 52.5 15.5-.7 55.8-22.6 73.9-35.6"/>
   <path d="m482.5 342c9.6-6.8 18 4.1 21.6 15.8 3.2 10.5 8.7 18 23.9 17.1"/>
   <path d="m494.4 338.2c13.6.7 15.1 28.3 22.1 30"/>
   <path d="m574.1 395.5 19.6-11.6 24 48"/>
   <path d="m617.8 431.5s31.6-35.2 54.4-36.1 13.8 63.4 52.2 22"/>
  </g>
 </g>
</svg>
