<svg height="210mm" viewBox="0 0 1052.4 744.1" width="297mm" xmlns="http://www.w3.org/2000/svg">
 <g fill="none" stroke-linecap="round">
  <g transform="translate(0 -308.26772)">
   <path d="m57.6 742.2h948.8" stroke="#969696" stroke-width="1.875"/>
   <g stroke="#000" stroke-dasharray="3.75 7.5" stroke-miterlimit="2" stroke-width=".9375">
    <path d="m58.3 844.1h948.8"/>
    <path d="m58.3 641.8h948.8"/>
    <path d="m58.3 540.6h948.8"/>
   </g>
  </g>
  <g stroke="#000">
   <g stroke-linejoin="round">
    <path d="m570.1 332.2c54.3-11 97.4-77.6 91-94.3-5.5-14.4-40.3 8.9-87.4 86.8l-58.5 105.9" stroke-width="5.625"/>
    <path d="m515.3 430.6c27.3-23.8 84.6-94.8 111.7-94.2 2.7-.3 5.1-.1 7.1.7 7.8 3.3 10.1 15.8-1.5 40.6l-25 53.3" stroke-width="5.625"/>
    <path d="m637.1 358.1-36.9 73.3" stroke-width="5.440073"/>
    <path d="m623.7 390.2-20.2 40.7" stroke-width="3.626714"/>
    <path d="m600.2 431.4 7.4-.2" stroke-width="5.440073"/>
   </g>
   <path d="m634.5 338.4c4.1 1.7 6.9 9.7-.3 23.7" stroke-width="3.626714"/>
   <g stroke-linejoin="round">
    <path d="m607.5 431.1c25-11.8 67.7-31.5 85.3-32.4 16.8-.7 22.7 32.6 34.2 32.2 7.5-.2 13.1-6.2 18.3-10.8" stroke-width="5.625"/>
    <path d="m388.8 471.4-15.7 38.1" stroke-width="5.625"/>
    <path d="m429.4 335.8c-31.4 12-60.4 35.5-62.7 72.5-.9 15 6.8 23.1 17.2 23 15-.4 25-12.1 34.5-20.9" stroke-width="5.625001"/>
   </g>
  </g>
 </g>
</svg>
