<svg height="210mm" viewBox="0 0 1052.4 744.1" width="297mm" xmlns="http://www.w3.org/2000/svg">
 <g fill="none" stroke-linecap="round">
  <g transform="translate(0 -308.26772)">
   <path d="m57.6 742.2h948.8" stroke="#969696" stroke-width="1.875"/>
   <g stroke="#000" stroke-dasharray="3.75 7.5" stroke-miterlimit="2" stroke-width=".9375">
    <path d="m58.3 844.1h948.8"/>
    <path d="m58.3 641.8h948.8"/>
    <path d="m58.3 540.6h948.8"/>
   </g>
  </g>
  <g stroke="#000" stroke-width="5.625">
   <path d="m402.9 234.2-113.1 196.6"/>
   <g stroke-linejoin="round">
    <path d="m289.8 430.8s44.6-32.4 61.8-29.2c13.6 2.5 15.7 29.3 30.5 29.1 11.3-.2 31.8-21 38.1-26.2"/>
    <path d="m333.4 405.6c5.4-2.4 18.6-2.2 26.5 15 5.6 12.2 13.9 9.5 20.5 9.9"/>
    <path d="m348 403.7c6.7 5.9 6.3.5 21.2 23.1"/>
    <path d="m561.9 399.9c-16 5-126.9 33.4-134.1 36.3"/>
    <path d="m427.8 436.2c-33.4 19.3-77.7 77-69.1 93 4.9 9.2 28.4 7.7 48.3-24.3 8.5-13.7 17.7-31 19.9-61.8 5-69.6 41.1-122.1 68-104.4 4 2.7 2.2 9.8-3.4 17.8-9.8 14-42.2 24-71.2 47.9"/>
    <path d="m561.9 399.9 63.2-16.8 21 49.3"/>
    <path d="m757.1 234.6 20 47.9"/>
   </g>
   <path d="m757.1 234.6-111.1 197.9"/>
  </g>
 </g>
</svg>
