<svg height="210mm" viewBox="0 0 1052.4 744.1" width="297mm" xmlns="http://www.w3.org/2000/svg">
 <g fill="none" stroke-linecap="round">
  <g transform="translate(0 -308.26772)">
   <path d="m57.6 742.2h948.8" stroke="#969696" stroke-width="1.875"/>
   <g stroke="#000" stroke-dasharray="3.75 7.5" stroke-miterlimit="2" stroke-width=".9375">
    <path d="m58.3 844.1h948.8"/>
    <path d="m58.3 641.8h948.8"/>
    <path d="m58.3 540.6h948.8"/>
   </g>
  </g>
  <g stroke="#000" stroke-linejoin="round" stroke-width="5.625">
   <path d="m558.8 419 71.5-34.2 21 46.7"/>
   <path d="m651.3 431.5s21.9-37.4 39.4-36.8c25.1.2 17 36.1 42.4 36.4 13.2-1.1 22.9-7.8 40.9-21.4"/>
   <path d="m554.4 412c.7.1 1.2.2 1.7.4.2.1.3.2.4.3.8.6 1.1 1.7.7 3.5-.9 3.4-4.7 5.3-6.6 6-3.8 1.4-6.6-1.7-4.4-5.1 1.3-2.1 3.7-4.4 6.5-5 .2 0 .4-.1.6-.1h.7c.5 0 1.1.1 1.6.2"/>
   <path d="m774 409.6c12.5-9.4 24.9-17.6 39.1-15.4 15.9 4.3 15.3 36.8 31.1 37.2 12.2.3 17.5-8.4 23.7-16.3"/>
   <path d="m181 430.9c62.4-68.1 112.7-56.3 98.9.3"/>
   <path d="m279.9 431.2s60.1-29.4 76.9-30.3c16-.6 17.4 30.7 32.6 30.7 3 0 5.6-.5 7.8-1.4"/>
   <path d="m397.2 430.3c10.5-3.4 56.8-29 73.6-29.8 16-.6 17.4 30.7 32.6 30.7 8.5 0 13.7-4.4 20.2-10.3"/>
   <path d="m548.2 433.8c-16.2 10.6-43 30-54.2 40.5-26.9 25.2-36.2 46.5-33.2 54.3 1.1 2.9 17.7 21.8 57.3-41.8l88-150.7s-75.1 78.9-82.5 84.9"/>
  </g>
 </g>
</svg>
