<svg height="210mm" viewBox="0 0 1052.4 744.1" width="297mm" xmlns="http://www.w3.org/2000/svg">
 <g fill="none" stroke-linecap="round">
  <g transform="translate(0 -308.26772)">
   <path d="m57.6 742.2h948.8" stroke="#969696" stroke-width="1.875"/>
   <g stroke="#000" stroke-dasharray="3.75 7.5" stroke-miterlimit="2" stroke-width=".9375">
    <path d="m58.3 844.1h948.8"/>
    <path d="m58.3 641.8h948.8"/>
    <path d="m58.3 540.6h948.8"/>
   </g>
  </g>
  <g stroke="#000" stroke-linejoin="round" stroke-width="5.625">
   <path d="m450 418.3c23.6-16.2 52.2-31.3 69.1-33.1 24.4-2.7 39.9 14.3 29.7 47.1l216.1-94.3"/>
   <path d="m764.9 338c19.4-7.3 70-30.3 96.5-53.9 15.7-14 27.6-39 24.9-46.1-5.5-14.4-40.3 8.9-87.4 86.8-69.6 120.2-36 123.1 7.3 84"/>
   <path d="m806.1 408.9 25-24.8 18.9 47.3"/>
   <path d="m301.3 333.8-55.8 97.2"/>
   <path d="m301.3 333.8h-10.6"/>
   <path d="m295.8 333.8-55.8 97.2"/>
   <path d="m245.5 431h-10.6"/>
   <path d="m190 431 100.7-97.2-55.8 97.2 11-.1 51.6-27.8"/>
   <path d="m297.7 403.1s103-53.7 110-57.5c27.1-14.3 63.6-12 40.2 17.1-27.4 33.8-45.5 50.2-39.4 63.9 4.2 9.5 25.5 3.3 41.5-8.4"/>
  </g>
 </g>
</svg>
