<svg height="210mm" viewBox="0 0 1052.4 744.1" width="297mm" xmlns="http://www.w3.org/2000/svg">
 <g fill="none" stroke-linecap="round">
  <g transform="translate(0 -308.26772)">
   <path d="m57.6 742.2h948.8" stroke="#969696" stroke-width="1.875"/>
   <g stroke="#000" stroke-dasharray="3.75 7.5" stroke-miterlimit="2" stroke-width=".9375">
    <path d="m58.3 844.1h948.8"/>
    <path d="m58.3 641.8h948.8"/>
    <path d="m58.3 540.6h948.8"/>
   </g>
  </g>
  <g stroke="#000" stroke-linejoin="round">
   <path d="m232.9 336s-33.7 59.2-38.2 70.3c-6.6 16.3 3.9 25.1 18.3 24.7 33.9-1 92.4-42.3 116.6-65.8 10.8-10.5 12.4-22 7.9-27-5.4-6-30.7-3.9-55.3 36.8-25.4 41.6-18.3 56.6-2.9 56.6" stroke-width="5.624999"/>
   <g stroke-width="5.625">
    <path d="m279.4 431.6c16.6.5 43.3-11.5 92.8-47.7l22.1 47.1"/>
    <path d="m428.7 430.8 232.1-95.3"/>
    <path d="m646.2 431.1c38-39.4 76.2-52.8 97.7-46.2 16.1 4.9 25.5 20.6 17.9 46.8"/>
   </g>
   <path d="m394.3 431c29.5-17.4 64.4-39.4 81.5-49.3 23.5-13.6 44-34.6 36-43.7-5.1-5.8-26.4-3.7-50.2 35.6-10.9 18.5-21.9 37.4-32.8 57.2" stroke-width="5.625001"/>
  </g>
 </g>
</svg>
