<svg height="210mm" viewBox="0 0 1052.4 744.1" width="297mm" xmlns="http://www.w3.org/2000/svg">
 <g fill="none" stroke-linecap="round">
  <g transform="translate(0 -308.26772)">
   <path d="m57.6 742.2h948.8" stroke="#969696" stroke-width="1.875"/>
   <g stroke="#000" stroke-dasharray="3.75 7.5" stroke-miterlimit="2" stroke-width=".9375">
    <path d="m58.3 844.1h948.8"/>
    <path d="m58.3 641.8h948.8"/>
    <path d="m58.3 540.6h948.8"/>
   </g>
  </g>
  <g stroke="#000">
   <path d="m772.5 287.1-76.2 54.5" stroke-width="5.625001"/>
   <g stroke-linejoin="round">
    <path d="m701.2 339.4c-35.6 15.7-208.5 85.1-223.3 89.9-9 2.7-15 2.6-21.3.6-2.8-1-5-2.6-6.6-4.7-3.7-5.2-3.1-13.5 5.1-23.4 24.4-29.4 45.3-42.8 38-58.3-2.6-5.6-9-8.2-16.3-7.4-11.8 1.4-20.1 7.7-27.8 15" stroke-width="5.624999"/>
    <g stroke-width="5.625">
     <path d="m727.5 347a19.2 25.1 41.6 0 1 -14.3 31.3 19.2 25.1 41.6 0 1 -27.6-6.8 19.2 25.1 41.6 0 1 14.3-31.3 19.2 25.1 41.6 0 1 27.6 6.8z"/>
     <ellipse cx="539.13837" cy="72.204582" rx="4.609393" ry="6.862875" transform="matrix(.72846687 .68508103 -.68508103 .72846687 0 0)"/>
     <path d="m340.1 336.1-37.7 71.8c-4 7.5-3 13.8 1 17.9 2.4 2.4 5.8 4.1 9.8 4.8 8.6 1.3 20.7.6 28.9-2.7"/>
     <g transform="translate(282.40494 232.85847)">
      <path d="m80.3 249.7c16.8-.5 33-21.3 35-47.2 2.1-26.8 36.3-48.7 36.3-48.7"/>
      <path d="m140.7 162c-14.4 12.2-18.6 35.8-22.4 47.9-3.5 11.7-12.1 25.9-24.2 34.7"/>
      <path d="m140.7 162c-2.9 2.2-11.1 10.3-13 12.6-6.5 8-13.3 18.9-16.5 30-4.1 14.4-4.3 33.3-22.5 43.1"/>
     </g>
     <path d="m434 386.6s-59.5 31.8-68.1 36.5c-7.7 4.2-24.5 12.9-26.1 4.7"/>
    </g>
   </g>
  </g>
 </g>
</svg>
