<svg height="210mm" viewBox="0 0 1052.4 744.1" width="297mm" xmlns="http://www.w3.org/2000/svg">
 <g fill="none" stroke="#000" stroke-linecap="round">
  <g transform="translate(0 -308.26772)">
   <path d="m57.6 742.2h948.8" stroke-width="1.875"/>
   <g stroke-dasharray="3.75 7.5" stroke-miterlimit="2" stroke-width=".9375">
    <path d="m58.3 844.1h948.8"/>
    <path d="m58.3 641.8h948.8"/>
    <path d="m58.3 540.6h948.8"/>
   </g>
  </g>
  <g stroke-linejoin="round" stroke-width="5.625">
   <path d="m553.3 430.9c24-36.2 48.3-81.4 82.6-91.8 31.7-9 58.2 4.3 50.2 42.6"/>
   <ellipse cx="585.38007" cy="32.964939" rx="4.609393" ry="6.862874" transform="matrix(.72846687 .68508103 -.68508103 .72846687 0 0)"/>
   <path d="m521.9 383 31.4 47.9"/>
   <path d="m442.7 431.2c13-.9 31.2-11.9 33.1-28.5 1.8-15.4-7.7-21.8-7.6-31.3.1-13.5 9.9-34 27.5-35 14-.8 17.9 15.1.8 31.5-14.5 13.9-77.6 64-92.9 62.8"/>
   <path d="m442.7 431.2c-18.8-2.9 79.2-48.2 79.2-48.2"/>
  </g>
 </g>
</svg>
