<svg height="210mm" viewBox="0 0 1052.4 744.1" width="297mm" xmlns="http://www.w3.org/2000/svg">
 <g fill="none" stroke-linecap="round">
  <g transform="translate(0 -308.26772)">
   <path d="m57.6 742.2h948.8" stroke="#969696" stroke-width="1.875"/>
   <g stroke="#000" stroke-dasharray="3.75 7.5" stroke-miterlimit="2" stroke-width=".9375">
    <path d="m58.3 844.1h948.8"/>
    <path d="m58.3 641.8h948.8"/>
    <path d="m58.3 540.6h948.8"/>
   </g>
  </g>
  <g stroke="#000">
   <path d="m376.9 430.1h53" stroke-width="5.625"/>
   <g stroke-linejoin="round">
    <path d="m550.5 336.4s-97.5 88-100.7 89.9c-6.2 4.2-19.9 3.8-19.9 3.8" stroke-width="5.625"/>
    <ellipse cx="600.90906" cy="7.900727" rx="5.271423" ry="7.848564" stroke-width="14.034715" transform="matrix(.72846687 .68508103 -.68508103 .72846687 0 0)"/>
    <path d="m550.5 336.4-47.8 95.3" stroke-width="5.62496"/>
    <g stroke-width="5.625">
     <path d="m502.7 431.7 101.2-48 33.3 47.9"/>
     <path d="m603.8 383.7 24 48"/>
     <path d="m613.3 383.7 23.8 47.9"/>
     <path d="m609.4 383.6 24 48"/>
    </g>
   </g>
   <g stroke-width="3.75">
    <path d="m604.2 382.6h9"/>
    <path d="m627.7 432.6h9"/>
   </g>
  </g>
 </g>
</svg>
