<svg height="210mm" viewBox="0 0 1052.4 744.1" width="297mm" xmlns="http://www.w3.org/2000/svg">
 <g fill="none" stroke-linecap="round">
  <g transform="translate(0 -308.26772)">
   <path d="m57.6 742.2h948.8" stroke="#969696" stroke-width="1.875"/>
   <g stroke="#000" stroke-dasharray="3.75 7.5" stroke-miterlimit="2" stroke-width=".9375">
    <path d="m58.3 844.1h948.8"/>
    <path d="m58.3 641.8h948.8"/>
    <path d="m58.3 540.6h948.8"/>
   </g>
  </g>
  <g stroke="#000">
   <g stroke-linejoin="round">
    <path d="m497.5 431.2s48.9-70.2 63.8-90.8c17.8-24.8 39.4-52.1 64.3-53.8 20.3-.1 32.2 15.6 41.1 34.3 7.7 16.9 14.5 36 22.5 47.4 6.5 9.2 15.1 13 23.7 13.1 27.3.4 47.4-29 59.2-45.5" stroke-width="5.625"/>
    <path d="m476.3 386.1 21.2 45" stroke-width="5.625"/>
    <path d="m270.4 377c19.7-19.2 44.3-39.4 57.9-40.8 2.4-.2 3.3-.1 5.1.1 7 .3 9.9 7 9.7 12-.3 6.8-3.7 16.8-10.6 30.8l-25.6 52.3" stroke-width="5.624999"/>
    <path d="m337.3 359.4-38.4 71.8" stroke-width="5.624999"/>
    <path d="m322 391.1-19.4 39.7" stroke-width="3.749999"/>
    <path d="m298.9 431.2 7.9.2" stroke-width="5.624999"/>
   </g>
   <path d="m331.7 337.1c11.2-.7 10.4 11.9 2 27" stroke-width="3.749999"/>
   <path d="m306.8 431.5c25-11.8 63.9-31.5 81.6-32.4 16.8-.7 18.7 31.5 34.2 32.2 17.5.8 30.1-14.3 53.8-45.2" stroke-linejoin="round" stroke-width="5.624999"/>
  </g>
 </g>
</svg>
