<svg height="210mm" viewBox="0 0 1052.4 744.1" width="297mm" xmlns="http://www.w3.org/2000/svg">
 <g fill="none" stroke-linecap="round">
  <g transform="translate(0 -308.26772)">
   <path d="m57.6 742.2h948.8" stroke="#969696" stroke-width="1.875"/>
   <g stroke="#000" stroke-dasharray="3.75 7.5" stroke-miterlimit="2" stroke-width=".9375">
    <path d="m58.3 844.1h948.8"/>
    <path d="m58.3 641.8h948.8"/>
    <path d="m58.3 540.6h948.8"/>
   </g>
  </g>
  <g stroke="#000" stroke-linejoin="round">
   <path d="m485.3 431.4c46.4-51.4 155.7-166.5 181.5-218.3 10.9-22.1 3-55.4-26.1-49.1-15 3.4-38.8 21.3-65 108.5-18.2 63.7-19.8 96-12.6 106.6 8.2 12 26.5 8.8 46-2.1" stroke-width="5.625"/>
   <ellipse cx="697.6347" cy="-145.18324" rx="4.609393" ry="6.862875" stroke-width="5.625" transform="matrix(.72846687 .68508103 -.68508103 .72846687 0 0)"/>
   <path d="m471.8 359.6c10.9-14.3 25.2-24.8 36.4-23.6 10.5 1.1 18.1 9.6 7.1 32.6-10 21.3-29.9 62.9-29.9 62.9" stroke-width="5.62496"/>
  </g>
 </g>
</svg>
