<svg height="210mm" viewBox="0 0 1052.4 744.1" width="297mm" xmlns="http://www.w3.org/2000/svg">
 <g fill="none" stroke-linecap="round">
  <g transform="translate(0 -308.26772)">
   <path d="m57.6 742.2h948.8" stroke="#969696" stroke-width="1.875"/>
   <g stroke="#000" stroke-dasharray="3.75 7.5" stroke-miterlimit="2" stroke-width=".9375">
    <path d="m58.3 844.1h948.8"/>
    <path d="m58.3 641.8h948.8"/>
    <path d="m58.3 540.6h948.8"/>
   </g>
  </g>
  <g stroke="#000">
   <g stroke-linejoin="round">
    <path d="m307.1 428.9c50.5-44.3 229.5-181.7 186.6-193.6-14.8-4.1-42.6 13.7-89.8 91.6-19.9 34.3-30.6 58.7-34.7 75.3-9.3 29.4 7 31.1 35 27 52.1-7.9 185-34.2 194.1-34.2 24.9-.2 12.9 37.2 39.4 36.3 19.8-.7 32.1-21.9 40.7-36.2 9.1-15.2 20.3-36.6 31.8-58.9" stroke-width="5.625001"/>
    <path d="m245 431.2h57" stroke-width="5.625"/>
    <ellipse cx="513.02966" cy="101.03349" rx="4.609393" ry="6.862874" stroke-width="5.625" transform="matrix(.72846687 .68508103 -.68508103 .72846687 0 0)"/>
    <g stroke-width="5.624999">
     <path d="m291.5 335.7-46.6 95.4"/>
     <path d="m710.1 336.1 21.3 44.2"/>
    </g>
   </g>
   <path d="m843.8 183.8-112.4 196.5" stroke-width="5.625"/>
  </g>
 </g>
</svg>
