<svg height="210mm" viewBox="0 0 1052.4 744.1" width="297mm" xmlns="http://www.w3.org/2000/svg">
 <g fill="none" stroke-linecap="round">
  <g transform="translate(0 -308.26772)">
   <path d="m57.6 742.2h948.8" stroke="#969696" stroke-width="1.875"/>
   <g stroke="#000" stroke-dasharray="3.75 7.5" stroke-miterlimit="2" stroke-width=".9375">
    <path d="m58.3 844.1h948.8"/>
    <path d="m58.3 641.8h948.8"/>
    <path d="m58.3 540.6h948.8"/>
   </g>
  </g>
  <g stroke="#000">
   <g stroke-linejoin="round" stroke-width="5.625">
    <path d="m182.4 333.7c54.3-11 95.5-79.5 89.2-96.2-5.5-14.4-40.3 8.9-87.4 86.8-47.5 82-46.9 109.4-28 106.1"/>
    <path d="m156.1 430.5c23.8-1.9 275.8-92 291.4-95.5 7.9-1.1 14.9.6 18.6 8 6.5 12.7 4 18.2 12.3 27.2 15.9 17.3 43.8-27.8 34.5-34.3-6.3-4.4-25.9 3.2-49.4 42-35.3 57.8-16.5 60.5 7.9 46.6 3.2-1.8 6.4-3.9 9.7-6.1"/>
    <path d="m481.1 418.4c16.6-11.4 87-82.1 87-82.1.9-.9-25.9 49.6-25.9 49.6"/>
    <path d="m575.1 339.1-25.3 46.6"/>
    <path d="m554.3 385.6-12 .2"/>
    <path d="m582 336.1-27.7 49.5"/>
    <path d="m582 336.1-14.1-.1"/>
    <path d="m573.3 337.3-25.3 46.6"/>
    <ellipse cx="541.31494" cy="660.43707" rx="62.130169" ry="44.633743" transform="matrix(.88109295 -.47294313 .47294313 .88109295 0 0)"/>
   </g>
   <path d="m846 303.9c-13.8 27.9-38.1 52.4-66.8 70.7" stroke-width="5.385754"/>
   <path d="m847.2 312.9c-15.9 21.3-33.1 41.5-54 58.5" stroke-width="5.385754"/>
   <path d="m846.3 319.4c-14.3 21.6-19.7 29.6-41.7 46.5" stroke-width="7.181006"/>
   <path d="m794.9 362.5c-10.1 9.6-24.3 12.2-31.1 10.7" stroke-width="3.590503"/>
   <path d="m837.9 290.1c2.2 2.5 8.7 12.2 1.3 24.5" stroke-width="3.590503"/>
   <g stroke-linejoin="round" stroke-width="5.625">
    <path d="m608.7 433.5c-30.5 12.3-100.2 80.3-96.4 92.6.9 3 16.3 22.9 59.8-38.1 26.9-36.9 54.6-73.4 69.3-116.4 6.8-18.5 4.9-32.9-6.3-35.3-20.3-4.4-69.9 39.5-80.9 49.3"/>
    <path d="m608.7 433.5c14.1-7.4 137.6-130.7 137.6-130.7"/>
    <path d="m795.4 277.6s35.4-5.7 57.1-8"/>
    <path d="m859.5 253.9c1 .1 1.8.3 2.5.7.2.1.4.2.6.4 1.2.9 1.7 2.6 1 5.2-1.3 5.1-7.1 8-9.8 9-5.7 2-9.8-2.6-6.6-7.6 2-3.1 5.5-6.6 9.7-7.5.3-.1.6-.1.9-.1s.7-.1 1-.1c.8 0 1.6.1 2.4.3"/>
   </g>
  </g>
 </g>
</svg>
