<svg height="210mm" viewBox="0 0 1052.4 744.1" width="297mm" xmlns="http://www.w3.org/2000/svg">
 <g fill="none" stroke-linecap="round">
  <g transform="translate(0 -308.26772)">
   <path d="m57.6 742.2h948.8" stroke="#969696" stroke-width="1.875"/>
   <g stroke="#000" stroke-dasharray="3.75 7.5" stroke-miterlimit="2" stroke-width=".9375">
    <path d="m58.3 844.1h948.8"/>
    <path d="m58.3 641.8h948.8"/>
    <path d="m58.3 540.6h948.8"/>
   </g>
  </g>
  <g stroke="#000">
   <g stroke-linejoin="round">
    <g stroke-width="5.625">
     <path d="m430.9 431.1c-17.1 5.2-51.9 38.3-60.3 48.5-14.9 18.3-30.4 45.5-21.8 51.8 15.8 11.6 35.8-11.1 50.6-36.2 18.6-31.4 45.6-101.5 53.1-131.4 22-88.4 71.4-137 88.3-126.6 8.9 5.4-6.1 43.5-35.4 71.2"/>
     <path d="m457.9 344.3c30.1-19.7 46.5-34 47.6-35.8"/>
     <path d="m430.9 431.1c22-11.1 249.7-138.3 233.7-129"/>
     <path d="m664.6 302.1s105.6-64 108.5-65.8c37.8-22.7 14.7 44.7-21.2 105.8-24.1 39.8-54.2 77.7-77.3 87.7-8.6 2.5-16.4.4-15.1-7 .4-2.7 4-5.8 9.3-8.9 26.8-10.9 94.8-19.8 113.6-22.9"/>
     <path d="m782.2 391.1c4.3-.7 8.5-1.5 9.7-1.6 24-.8 32.4 41.1 48.8 40.7 10.8-.3 18.5-10 25.1-17.1"/>
    </g>
    <path d="m348.3 335.7-47.8 86.7" stroke-width="6.5625"/>
    <path d="m244.5 430.5 94.4-95.2-39 72.4c-8.4 15.5 5 26 21.5 22.2 15-5.7 24.8-14.6 38.2-27.4" stroke-width="5.625"/>
    <path d="m343.6 335.7-44.7 81.9" stroke-width="6.5625"/>
   </g>
   <path d="m305.4 416.3c-1.6 4.1-2.6 6.5.8 11.9" stroke-width="3.75"/>
   <path d="m348.3 335.7-9.3-.4" stroke-linejoin="round" stroke-width="6.5625"/>
   <path d="m359.6 402.6-75.1 130.3" stroke-width="5.625"/>
  </g>
 </g>
</svg>
