<svg height="210mm" viewBox="0 0 1052.4 744.1" width="297mm" xmlns="http://www.w3.org/2000/svg">
 <g fill="none" stroke-linecap="round">
  <g transform="translate(0 -308.26772)">
   <path d="m57.6 742.2h948.8" stroke="#969696" stroke-width="1.875"/>
   <g stroke="#000" stroke-dasharray="3.75 7.5" stroke-miterlimit="2" stroke-width=".9375">
    <path d="m58.3 844.1h948.8"/>
    <path d="m58.3 641.8h948.8"/>
    <path d="m58.3 540.6h948.8"/>
   </g>
  </g>
  <g stroke-linejoin="round" stroke-width="5.625">
   <path d="m185.1 417.3c.9.3 1.8.6 2.4 1.1.2.2.4.3.5.5 1 1.2 1.2 2.8 0 5.3-2.3 4.7-8.4 6.5-11.3 7.1-5.9 1-9.2-4.4-5.1-8.7 2.6-2.7 6.7-5.5 10.9-5.5h.9c.3 0 .7.1 1 .1.8.1 1.6.4 2.3.8" stroke="#000"/>
   <path d="m185.2 428s205.6-126.6 331.1-197.4" stroke="#000"/>
   <path d="m516.2 230.6c19.3-12.5 40.5-24.9 55.7-33.1 14.8-8 28.5-12 34-11.7 17.2 1 11.7 19.3-3.6 41.2-14.5 20.7-23.5 37.5-41.4 63-25.4 36.1-53.1 69.5-45.4 87.5 4.6 8.4 11.8 10.2 20.2 8 9.9-2.6 24.4-11.4 45.7-26.8" stroke="#00201a"/>
   <g stroke="#000">
    <path d="m581.4 358.7c51.2-43.2 75.8-58.1 95.7-80 14.5-15.9 25-33.7 22.2-40.9-5.5-14.4-40.3 8.9-87.4 86.8-69.6 120.2-36 123.1 7.3 84"/>
    <path d="m668.1 432.3s96.5-157.6 114.6-177.5c10.2-11.2 15.3-12.5 21.5-15.9 18-9.6 37.5 2.6 13.1 43.5l-29.1 50.9"/>
    <path d="m619.1 408.7 28.9-24.3 20 47.9"/>
   </g>
  </g>
 </g>
</svg>
