<?xml version="1.0" encoding="UTF-8" standalone="no"?>
<!-- Created with Inkscape (http://www.inkscape.org/) -->

<svg
   xmlns:dc="http://purl.org/dc/elements/1.1/"
   xmlns:cc="http://creativecommons.org/ns#"
   xmlns:rdf="http://www.w3.org/1999/02/22-rdf-syntax-ns#"
   xmlns:svg="http://www.w3.org/2000/svg"
   xmlns="http://www.w3.org/2000/svg"
   xmlns:sodipodi="http://sodipodi.sourceforge.net/DTD/sodipodi-0.dtd"
   xmlns:inkscape="http://www.inkscape.org/namespaces/inkscape"
   width="297mm"
   height="210mm"
   viewBox="0 0 1052.3622 744.09448"
   id="svg2"
   version="1.1"
   inkscape:version="0.92.3 (2405546, 2018-03-11)"
   sodipodi:docname="DEK Deutsche Einheitskurzschrift - Verkehrsschrift - evangelisch.svg">
  <defs
     id="defs4" />
  <sodipodi:namedview
     id="base"
     pagecolor="#ffffff"
     bordercolor="#666666"
     borderopacity="1.0"
     inkscape:pageopacity="0.0"
     inkscape:pageshadow="2"
     inkscape:zoom="0.70000002"
     inkscape:cx="702.31781"
     inkscape:cy="612.62896"
     inkscape:document-units="px"
     inkscape:current-layer="layer2"
     showgrid="false"
     inkscape:window-width="1920"
     inkscape:window-height="1017"
     inkscape:window-x="1592"
     inkscape:window-y="-8"
     inkscape:window-maximized="1"
     showguides="true"
     inkscape:guide-bbox="true" />
  <metadata
     id="metadata7">
    <rdf:RDF>
      <cc:Work
         rdf:about="">
        <dc:format>image/svg+xml</dc:format>
        <dc:type
           rdf:resource="http://purl.org/dc/dcmitype/StillImage" />
        <dc:title></dc:title>
      </cc:Work>
    </rdf:RDF>
  </metadata>
  <g
     inkscape:label="Grundlinien"
     inkscape:groupmode="layer"
     id="layer1"
     transform="translate(0,-308.26772)"
     sodipodi:insensitive="true">
    <path
       style="fill:none;fill-rule:evenodd;stroke:#969696;stroke-width:1.875;stroke-linecap:round;stroke-linejoin:miter;stroke-miterlimit:4;stroke-dasharray:none;stroke-opacity:1"
       d="M 57.556226,742.24566 H 1006.4206"
       id="path3336"
       inkscape:connector-curvature="0"
       sodipodi:nodetypes="cc" />
    <path
       style="fill:none;fill-rule:evenodd;stroke:#000000;stroke-width:0.9375;stroke-linecap:round;stroke-linejoin:miter;stroke-miterlimit:2;stroke-dasharray:3.74999998, 7.49999996;stroke-dashoffset:0;stroke-opacity:1"
       d="M 58.279456,844.14792 H 1007.1438"
       id="path3336-4"
       inkscape:connector-curvature="0"
       sodipodi:nodetypes="cc" />
    <path
       style="fill:none;fill-rule:evenodd;stroke:#000000;stroke-width:0.9375;stroke-linecap:round;stroke-linejoin:miter;stroke-miterlimit:2;stroke-dasharray:3.74999998, 7.49999996;stroke-dashoffset:0;stroke-opacity:1"
       d="M 58.279456,641.7697 H 1007.1438"
       id="path3336-7"
       inkscape:connector-curvature="0"
       sodipodi:nodetypes="cc" />
    <path
       style="fill:none;fill-rule:evenodd;stroke:#000000;stroke-width:0.9375;stroke-linecap:round;stroke-linejoin:miter;stroke-miterlimit:2;stroke-dasharray:3.74999998, 7.49999996;stroke-dashoffset:0;stroke-opacity:1"
       d="M 58.279456,540.58062 H 1007.1438"
       id="path3336-2"
       inkscape:connector-curvature="0"
       sodipodi:nodetypes="cc" />
  </g>
  <g
     inkscape:groupmode="layer"
     id="layer2"
     inkscape:label="Stenozeichen"
     style="display:inline">
    <path
       style="display:inline;fill:none;fill-rule:evenodd;stroke:#000000;stroke-width:5.625;stroke-linecap:round;stroke-linejoin:round;stroke-miterlimit:4;stroke-dasharray:none;stroke-opacity:1"
       d="m 386.45139,431.90005 c -4.54964,-5.18824 73.57693,-75.02897 97.99581,-90.02327 5.69465,-3.95579 12.05782,-6.71976 18.30778,-7.58543 16.9439,-2.34685 33.05572,9.25829 32.75906,48.8921 -0.24899,33.2654 15.79209,47.11942 30.11229,47.65973 4.33641,0.16361 18.55545,1.44661 29.67416,-3.95075"
       id="path844-52-80-29"
       inkscape:connector-curvature="0"
       sodipodi:nodetypes="ccsssc" />
    <path
       style="display:inline;fill:none;fill-rule:evenodd;stroke:#000000;stroke-width:5.62499997;stroke-linecap:round;stroke-linejoin:round;stroke-miterlimit:4;stroke-dasharray:none;stroke-opacity:1"
       d="m 597.1994,416.99476 c 0.70988,0.0734 1.32873,0.22244 1.82866,0.47717 0.16444,0.0837 0.31493,0.17839 0.45294,0.2841 0.88607,0.68566 1.20834,1.8639 0.71355,3.74761 -0.96461,3.66907 -5.11305,5.77228 -7.08486,6.51887 -4.08236,1.47849 -7.10835,-1.88812 -4.77609,-5.5058 1.45867,-2.26178 3.98766,-4.77022 6.97181,-5.38687 0.20261,-0.0441 0.40742,-0.0756 0.61444,-0.0991 0.24886,-0.0294 0.49993,-0.044 0.75393,-0.044 0.57481,0 1.16282,0.0749 1.75818,0.23931"
       id="path12351-7-1-4-7-1-7-0-0-2-6"
       inkscape:connector-curvature="0"
       sodipodi:nodetypes="cssscssssc" />
    <path
       style="display:inline;fill:none;fill-rule:evenodd;stroke:#000000;stroke-width:5.625;stroke-linecap:round;stroke-linejoin:round;stroke-miterlimit:4;stroke-dasharray:none;stroke-opacity:1"
       d="m 505.46004,333.96326 c 12.33118,-1.34455 35.4375,13.89575 35.19882,45.79253 -0.22522,30.09163 8.2351,52.95532 28.26009,51.15089"
       id="path12351-7-1-98-5-0-4-5-6-9"
       inkscape:connector-curvature="0"
       sodipodi:nodetypes="csc" />
    <path
       style="display:inline;fill:none;fill-rule:evenodd;stroke:#000000;stroke-width:5.625;stroke-linecap:round;stroke-linejoin:round;stroke-miterlimit:4;stroke-dasharray:none;stroke-opacity:1"
       d="m 505.46004,333.96326 c 17.04278,-0.94153 25.02469,17.95314 24.78601,49.84992 -0.22522,30.09163 13.31294,47.779 38.6729,47.0935"
       id="path12351-7-1-98-5-0-4-5-6-9-2"
       inkscape:connector-curvature="0"
       sodipodi:nodetypes="csc" />
    <path
       style="display:inline;fill:none;fill-rule:evenodd;stroke:#000000;stroke-width:5.625;stroke-linecap:round;stroke-linejoin:round;stroke-miterlimit:4;stroke-dasharray:none;stroke-opacity:1"
       d="m 386.45139,431.90005 c 15.146,-4.49599 47.374,-44.713 52.615,-82.012 5.709,-40.62501 44.308,-104.38702 79.969,-114.66402"
       id="path12351-7-1-8-67-1-6"
       inkscape:connector-curvature="0"
       sodipodi:nodetypes="csc" />
    <path
       style="display:inline;fill:none;fill-rule:evenodd;stroke:#000000;stroke-width:5.625;stroke-linecap:round;stroke-linejoin:round;stroke-miterlimit:4;stroke-dasharray:none;stroke-opacity:1"
       d="M 488.80485,254.52496 C 480.75518,259.26005 331.33238,431.4389 331.33238,431.4389"
       id="path4752-1-22-0-6"
       inkscape:connector-curvature="0"
       sodipodi:nodetypes="cc" />
    <path
       style="display:inline;fill:none;fill-rule:evenodd;stroke:#010000;stroke-width:5.625;stroke-linecap:round;stroke-linejoin:round;stroke-miterlimit:4;stroke-dasharray:none;stroke-opacity:1"
       d="m 698.97144,387.19678 c -20.72101,10.81001 -44.44801,22.49401 -60.55201,35.04201 -32.486,23.234 -40.241,52.663 -37.964,60.01 0.933,3.012 16.314,22.901 59.804,-38.095 26.944,-36.888 54.63901,-73.40101 69.336,-116.41301 11.90846,-29.09053 1.07201,-52.445 -34.712,-20.964 -1.545,1.358 -3.19941,2.75447 -4.759,4.394 -21.36174,22.45676 -82.3644,112.23733 -94.82394,115.72165"
       id="path12351-7-1-8-9-4-52-0-7"
       inkscape:connector-curvature="0"
       sodipodi:nodetypes="ccsccssc" />
  </g>
</svg>
