<?xml version="1.0" encoding="UTF-8" standalone="no"?>
<!-- Created with Inkscape (http://www.inkscape.org/) -->

<svg
   xmlns:dc="http://purl.org/dc/elements/1.1/"
   xmlns:cc="http://creativecommons.org/ns#"
   xmlns:rdf="http://www.w3.org/1999/02/22-rdf-syntax-ns#"
   xmlns:svg="http://www.w3.org/2000/svg"
   xmlns="http://www.w3.org/2000/svg"
   xmlns:sodipodi="http://sodipodi.sourceforge.net/DTD/sodipodi-0.dtd"
   xmlns:inkscape="http://www.inkscape.org/namespaces/inkscape"
   width="297mm"
   height="210mm"
   viewBox="0 0 1052.3622 744.09448"
   id="svg2"
   version="1.1"
   inkscape:version="0.92.3 (2405546, 2018-03-11)"
   sodipodi:docname="DEK Deutsche Einheitskurzschrift - Verkehrsschrift - Frauenwahlrecht.svg">
  <defs
     id="defs4" />
  <sodipodi:namedview
     id="base"
     pagecolor="#ffffff"
     bordercolor="#666666"
     borderopacity="1.0"
     inkscape:pageopacity="0.0"
     inkscape:pageshadow="2"
     inkscape:zoom="0.9899495"
     inkscape:cx="449.99578"
     inkscape:cy="408.58708"
     inkscape:document-units="px"
     inkscape:current-layer="layer2"
     showgrid="false"
     inkscape:window-width="1920"
     inkscape:window-height="1017"
     inkscape:window-x="1592"
     inkscape:window-y="-8"
     inkscape:window-maximized="1"
     showguides="true"
     inkscape:guide-bbox="true" />
  <metadata
     id="metadata7">
    <rdf:RDF>
      <cc:Work
         rdf:about="">
        <dc:format>image/svg+xml</dc:format>
        <dc:type
           rdf:resource="http://purl.org/dc/dcmitype/StillImage" />
        <dc:title></dc:title>
      </cc:Work>
    </rdf:RDF>
  </metadata>
  <g
     inkscape:label="Grundlinien"
     inkscape:groupmode="layer"
     id="layer1"
     transform="translate(0,-308.26772)">
    <path
       style="fill:none;fill-rule:evenodd;stroke:#969696;stroke-width:1.875;stroke-linecap:round;stroke-linejoin:miter;stroke-miterlimit:4;stroke-dasharray:none;stroke-opacity:1"
       d="M 57.556226,742.24566 H 1006.4206"
       id="path3336"
       inkscape:connector-curvature="0"
       sodipodi:nodetypes="cc" />
    <path
       style="fill:none;fill-rule:evenodd;stroke:#000000;stroke-width:0.9375;stroke-linecap:round;stroke-linejoin:miter;stroke-miterlimit:2;stroke-dasharray:3.74999998, 7.49999996;stroke-dashoffset:0;stroke-opacity:1"
       d="M 58.279456,844.14792 H 1007.1438"
       id="path3336-4"
       inkscape:connector-curvature="0"
       sodipodi:nodetypes="cc" />
    <path
       style="fill:none;fill-rule:evenodd;stroke:#000000;stroke-width:0.9375;stroke-linecap:round;stroke-linejoin:miter;stroke-miterlimit:2;stroke-dasharray:3.74999998, 7.49999996;stroke-dashoffset:0;stroke-opacity:1"
       d="M 58.279456,641.7697 H 1007.1438"
       id="path3336-7"
       inkscape:connector-curvature="0"
       sodipodi:nodetypes="cc" />
    <path
       style="fill:none;fill-rule:evenodd;stroke:#000000;stroke-width:0.9375;stroke-linecap:round;stroke-linejoin:miter;stroke-miterlimit:2;stroke-dasharray:3.74999998, 7.49999996;stroke-dashoffset:0;stroke-opacity:1"
       d="M 58.279456,540.58062 H 1007.1438"
       id="path3336-2"
       inkscape:connector-curvature="0"
       sodipodi:nodetypes="cc" />
  </g>
  <g
     inkscape:groupmode="layer"
     id="layer2"
     inkscape:label="Stenozeichen"
     style="display:inline">
    <path
       style="display:inline;fill:none;fill-rule:evenodd;stroke:#000000;stroke-width:5.625;stroke-linecap:round;stroke-linejoin:round;stroke-miterlimit:4;stroke-dasharray:none;stroke-opacity:1"
       d="m 574.87794,336.48365 c -44.42249,11.60141 -83.55519,93.30566 -54.76192,94.51681 7.88142,0.33153 36.71475,4.10228 58.90053,-3.37724"
       id="path844-39"
       inkscape:connector-curvature="0"
       sodipodi:nodetypes="csc" />
    <g
       style="display:inline;fill:#eb0000;fill-opacity:1;stroke:#000000;stroke-opacity:1"
       id="g3400-0-9-1-1-94"
       transform="matrix(1.7715894,0,0,1.7715894,-709.32299,75.721516)">
      <path
         sodipodi:nodetypes="cssscssssc"
         inkscape:connector-curvature="0"
         id="path12351-7-1-4-7-1-6-5-4-9-91"
         d="m 732.10849,185.47164 c 0.7552,0.075 1.4134,0.2367 1.9458,0.508 0.1742,0.089 0.3349,0.1892 0.4811,0.3022 0.9433,0.7293 1.2859,1.9829 0.7591,3.9864 -1.0262,3.9032 -5.4392,6.1407 -7.537,6.9351 -4.3429,1.5729 -7.5618,-2.0087 -5.0803,-5.8574 1.5512,-2.4058 4.2421,-5.0744 7.4163,-5.7306 0.2158,-0.045 0.4339,-0.08 0.654,-0.1052 0.2645,-0.03 0.5319,-0.046 0.8019,-0.047 0.6117,-5e-4 1.2367,0.08 1.8706,0.2549"
         style="display:inline;fill:#eb0000;fill-opacity:1;fill-rule:evenodd;stroke:#000000;stroke-width:5.625;stroke-linecap:round;stroke-linejoin:round;stroke-miterlimit:4;stroke-dasharray:none;stroke-opacity:1" />
      <path
         inkscape:transform-center-y="-14.607846"
         inkscape:transform-center-x="-10.542139"
         sodipodi:nodetypes="cssscssssc"
         inkscape:connector-curvature="0"
         id="path12351-7-1-4-7-8-3-4-4-9-3-84"
         d="m 729.28189,188.28694 c 0.3372,0.029 0.6316,0.1 0.8704,0.2175 0.078,0.039 0.1506,0.083 0.2161,0.1325 0.4243,0.3208 0.5833,0.8785 0.3575,1.7747 -0.4394,1.7461 -2.3974,2.7652 -3.3296,3.1296 -1.9299,0.7222 -3.3828,-0.8603 -2.2941,-2.5891 0.6806,-1.0807 1.8685,-2.2837 3.2814,-2.5916 0.097,-0.021 0.1934,-0.038 0.2914,-0.049 0.1179,-0.014 0.2368,-0.023 0.3575,-0.025 0.2728,0 0.552,0.03 0.8356,0.1054"
         style="display:inline;fill:#eb0000;fill-opacity:1;fill-rule:evenodd;stroke:#000000;stroke-width:4.98104382;stroke-linecap:round;stroke-linejoin:round;stroke-miterlimit:4;stroke-dasharray:none;stroke-opacity:1" />
    </g>
    <path
       style="display:inline;fill:none;fill-rule:evenodd;stroke:#000000;stroke-width:5.625;stroke-linecap:round;stroke-linejoin:miter;stroke-miterlimit:4;stroke-dasharray:none;stroke-opacity:1"
       d="m 624.67205,384.85909 c 0,0 -28.04418,29.90914 -33.96304,36.30151"
       id="path822-5-1"
       inkscape:connector-curvature="0"
       sodipodi:nodetypes="cc" />
    <path
       style="display:inline;fill:none;fill-rule:evenodd;stroke:#000000;stroke-width:5.625;stroke-linecap:round;stroke-linejoin:round;stroke-miterlimit:4;stroke-dasharray:none;stroke-opacity:1"
       d="M 671.47493,394.67681 741.4913,273.14866 c 5.75848,-9.99506 12.48887,-19.60969 19.91584,-27.31685 9.9798,-10.3563 22.3048,-10.79316 27.60424,-10.73197 16.51229,0.19074 12.1224,17.94769 -1.5826,39.65138 -12.93735,20.48799 -20.84077,37.02427 -36.89412,62.36987 -22.69118,35.82574 -47.78395,69.09667 -39.61771,86.02309 10.53534,17.04533 31.41391,3.96454 49.96123,-14.95905"
       id="path844-7"
       inkscape:connector-curvature="0"
       sodipodi:nodetypes="cssssscc" />
    <path
       style="display:inline;fill:none;fill-rule:evenodd;stroke:#000000;stroke-width:5.625;stroke-linecap:round;stroke-linejoin:round;stroke-miterlimit:4;stroke-dasharray:none;stroke-opacity:1"
       d="m 624.67205,384.85909 21.95682,48.11687 24.84606,-38.29915"
       id="path844-5-6-5-5"
       inkscape:connector-curvature="0"
       sodipodi:nodetypes="ccc" />
    <path
       style="display:inline;fill:none;fill-rule:evenodd;stroke:#000000;stroke-width:5.625;stroke-linecap:round;stroke-linejoin:round;stroke-miterlimit:4;stroke-dasharray:none;stroke-opacity:1"
       d="m 314.25294,337.07299 c 0,0 0.40755,-0.17667 4.31584,-2.6432 20.83093,-13.1464 39.53394,-27.15246 56.34469,-43.57392 23.81273,-23.26129 34.05399,-45.84 29.174,-54.18 -7.78301,-13.29 -36.935,10.31 -84.121,88.2 l -52.555,105.96002"
       id="path12351-7-1-5-3-4-8-5"
       inkscape:connector-curvature="0"
       sodipodi:nodetypes="cssscc" />
    <path
       style="display:inline;fill:none;fill-rule:evenodd;stroke:#000000;stroke-width:5.625;stroke-linecap:round;stroke-linejoin:round;stroke-miterlimit:4;stroke-dasharray:none;stroke-opacity:1"
       d="m 298.54959,478.79779 c 16.755,-0.487 32.97901,-21.31999 34.99301,-47.241 2.081,-26.799 47.29338,-53.8341 36.276,-48.675 l -102.40713,47.9541"
       id="path12351-7-1-8-2-1-6-2"
       inkscape:connector-curvature="0"
       sodipodi:nodetypes="cssc" />
    <path
       style="display:inline;fill:none;fill-rule:evenodd;stroke:#000000;stroke-width:5.625;stroke-linecap:round;stroke-linejoin:round;stroke-miterlimit:4;stroke-dasharray:none;stroke-opacity:1"
       d="m 353.3306,397.99879 c -18.658,24.867 -13.001,28.902 -16.785,41.081 -3.523,11.722 -12.127,25.86801 -24.23101,34.729"
       id="path27000-9"
       inkscape:connector-curvature="0"
       sodipodi:nodetypes="ccc" />
    <path
       style="display:inline;fill:none;fill-rule:evenodd;stroke:#000000;stroke-width:5.625;stroke-linecap:round;stroke-linejoin:round;stroke-miterlimit:4;stroke-dasharray:none;stroke-opacity:1"
       d="m 350.4896,401.12379 c -7.6,7.783 -16.907,18.28101 -20.961,32.634 -4.054,14.352 -5.453,33.429 -22.481,43.084"
       id="path27000"
       inkscape:connector-curvature="0"
       sodipodi:nodetypes="czc" />
    <path
       style="display:inline;fill:none;fill-rule:evenodd;stroke:#000000;stroke-width:5.625;stroke-linecap:round;stroke-linejoin:round;stroke-miterlimit:4;stroke-dasharray:none;stroke-opacity:1"
       d="m 307.0476,476.84179 c 26.59127,-7.70254 63.63518,-41.73188 97.9869,-40.13568 21.53382,0.83738 16.872,71.286 52.41101,23.53399"
       id="path844-5-5-5-8-5"
       inkscape:connector-curvature="0"
       sodipodi:nodetypes="ccc" />
    <path
       style="display:inline;fill:none;fill-rule:evenodd;stroke:#000000;stroke-width:5.625;stroke-linecap:round;stroke-linejoin:round;stroke-miterlimit:4;stroke-dasharray:none;stroke-opacity:1"
       d="m 457.44551,460.2401 c 0,0 69.02938,-94.81681 86.78597,-104.7605"
       id="path844-5-6-5-5-4"
       inkscape:connector-curvature="0"
       sodipodi:nodetypes="cc" />
  </g>
</svg>
