<?xml version="1.0" encoding="UTF-8" standalone="no"?>
<!-- Created with Inkscape (http://www.inkscape.org/) -->

<svg
   xmlns:dc="http://purl.org/dc/elements/1.1/"
   xmlns:cc="http://creativecommons.org/ns#"
   xmlns:rdf="http://www.w3.org/1999/02/22-rdf-syntax-ns#"
   xmlns:svg="http://www.w3.org/2000/svg"
   xmlns="http://www.w3.org/2000/svg"
   xmlns:sodipodi="http://sodipodi.sourceforge.net/DTD/sodipodi-0.dtd"
   xmlns:inkscape="http://www.inkscape.org/namespaces/inkscape"
   width="297mm"
   height="210mm"
   viewBox="0 0 1052.3622 744.09448"
   id="svg2"
   version="1.1"
   inkscape:version="0.92.3 (2405546, 2018-03-11)"
   sodipodi:docname="DEK Deutsche Einheitskurzschrift - Verkehrsschrift - Finnland.svg">
  <defs
     id="defs4" />
  <sodipodi:namedview
     id="base"
     pagecolor="#ffffff"
     bordercolor="#666666"
     borderopacity="1.0"
     inkscape:pageopacity="0.0"
     inkscape:pageshadow="2"
     inkscape:zoom="0.49497475"
     inkscape:cx="360.64399"
     inkscape:cy="422.75738"
     inkscape:document-units="px"
     inkscape:current-layer="layer2"
     showgrid="false"
     inkscape:window-width="1920"
     inkscape:window-height="1017"
     inkscape:window-x="1592"
     inkscape:window-y="-8"
     inkscape:window-maximized="1"
     showguides="true"
     inkscape:guide-bbox="true" />
  <metadata
     id="metadata7">
    <rdf:RDF>
      <cc:Work
         rdf:about="">
        <dc:format>image/svg+xml</dc:format>
        <dc:type
           rdf:resource="http://purl.org/dc/dcmitype/StillImage" />
        <dc:title></dc:title>
      </cc:Work>
    </rdf:RDF>
  </metadata>
  <g
     inkscape:label="Grundlinien"
     inkscape:groupmode="layer"
     id="layer1"
     transform="translate(0,-308.26772)"
     sodipodi:insensitive="true">
    <path
       style="fill:none;fill-rule:evenodd;stroke:#969696;stroke-width:1.875;stroke-linecap:round;stroke-linejoin:miter;stroke-miterlimit:4;stroke-dasharray:none;stroke-opacity:1"
       d="M 57.556226,742.24566 H 1006.4206"
       id="path3336"
       inkscape:connector-curvature="0"
       sodipodi:nodetypes="cc" />
    <path
       style="fill:none;fill-rule:evenodd;stroke:#000000;stroke-width:0.9375;stroke-linecap:round;stroke-linejoin:miter;stroke-miterlimit:2;stroke-dasharray:3.74999998, 7.49999996;stroke-dashoffset:0;stroke-opacity:1"
       d="M 58.279456,844.14792 H 1007.1438"
       id="path3336-4"
       inkscape:connector-curvature="0"
       sodipodi:nodetypes="cc" />
    <path
       style="fill:none;fill-rule:evenodd;stroke:#000000;stroke-width:0.9375;stroke-linecap:round;stroke-linejoin:miter;stroke-miterlimit:2;stroke-dasharray:3.74999998, 7.49999996;stroke-dashoffset:0;stroke-opacity:1"
       d="M 58.279456,641.7697 H 1007.1438"
       id="path3336-7"
       inkscape:connector-curvature="0"
       sodipodi:nodetypes="cc" />
    <path
       style="fill:none;fill-rule:evenodd;stroke:#000000;stroke-width:0.9375;stroke-linecap:round;stroke-linejoin:miter;stroke-miterlimit:2;stroke-dasharray:3.74999998, 7.49999996;stroke-dashoffset:0;stroke-opacity:1"
       d="M 58.279456,540.58062 H 1007.1438"
       id="path3336-2"
       inkscape:connector-curvature="0"
       sodipodi:nodetypes="cc" />
  </g>
  <g
     inkscape:groupmode="layer"
     id="layer2"
     inkscape:label="Stenozeichen"
     style="display:inline">
    <path
       style="display:inline;fill:none;fill-rule:evenodd;stroke:#000000;stroke-width:5.625;stroke-linecap:round;stroke-linejoin:round;stroke-miterlimit:4;stroke-dasharray:none;stroke-opacity:1"
       d="m 586.64601,352.79365 c 6.49571,0.27644 10.18113,-3.48963 12.41202,-5.79324 14.63379,-12.8945 33.13814,-30.83948 46.81514,-45.30548 3.82609,-4.03204 11.32091,-10.2559 14.47497,-12.56504 10.81299,-7.91636 17.91279,-5.99642 22.91786,3.78223 6.50678,12.7126 3.989,18.176 12.272,27.187 15.888,17.28501 43.807,-27.809 34.484,-34.299 -6.291,-4.379 -25.927,3.212 -49.407,41.973 -35.333,57.80401 -14.16092,56.78848 9.843,52.19 3.34869,-0.64151 8.81738,-2.2021 15.23021,-4.39193"
       id="path844-7-2-0-16"
       inkscape:connector-curvature="0"
       sodipodi:nodetypes="cccsssscsc" />
    <path
       style="display:inline;fill:none;fill-rule:evenodd;stroke:#000000;stroke-width:5.625;stroke-linecap:round;stroke-linejoin:round;stroke-miterlimit:4;stroke-dasharray:none;stroke-opacity:1"
       d="m 657.764,291.13712 c 9.616,-6.843 18.03,4.094 21.556,15.758 3.176,10.508 8.67,18.038 23.927,17.109"
       id="path844-5-1-0-7-3-4-5-3-5-9-3-1-3-6-6-7-0"
       inkscape:connector-curvature="0"
       sodipodi:nodetypes="csc" />
    <path
       style="display:inline;fill:none;fill-rule:evenodd;stroke:#000000;stroke-width:5.625;stroke-linecap:round;stroke-linejoin:round;stroke-miterlimit:4;stroke-dasharray:none;stroke-opacity:1"
       d="m 669.65,287.37012 c 13.578,0.734 15.099,28.34 22.112,29.97501"
       id="path844-5-1-0-7-3-4-5-35-2-0-7-4-7-1-9-28"
       inkscape:connector-curvature="0"
       sodipodi:nodetypes="cc" />
    <path
       style="display:inline;fill:none;fill-rule:evenodd;stroke:#000000;stroke-width:5.625;stroke-linecap:round;stroke-linejoin:round;stroke-miterlimit:4;stroke-dasharray:none;stroke-opacity:1"
       d="m 590.6921,337.0262 c 0.927,0.09 1.734,0.29 2.387,0.623 0.214,0.109 0.411,0.232 0.59,0.371 1.157,0.895 1.578,2.432 0.932,4.89 -1.259,4.788 -6.673,7.532 -9.246,8.507 -5.327,1.929 -9.275,-2.464 -6.232,-7.185 1.903,-2.951 5.204,-6.225 9.098,-7.03 0.264,-0.06 0.532,-0.1 0.802,-0.129 0.324,-0.04 0.652,-0.06 0.984,-0.06 0.75,0 1.517,0.1 2.294,0.313"
       id="path12351-7-1-4-7-0-6-6"
       inkscape:connector-curvature="0"
       sodipodi:nodetypes="cssscssssc" />
    <path
       style="display:inline;fill:none;fill-rule:evenodd;stroke:#000000;stroke-width:5.625;stroke-linecap:round;stroke-linejoin:round;stroke-miterlimit:4;stroke-dasharray:none;stroke-opacity:1"
       d="m 460.64438,358.23402 c 10.35782,-11.65221 22.37495,-21.02316 35.826,-21.444 20.46384,-0.64025 26.58043,40.93925 46.40481,40.2769 17.22884,0.37055 40.29244,-21.74647 47.08317,-27.94999"
       id="path844-5-1-0-7-3-9-4-0-5"
       inkscape:connector-curvature="0"
       sodipodi:nodetypes="cscc" />
    <path
       style="display:inline;fill:none;fill-rule:evenodd;stroke:#000000;stroke-width:5.625;stroke-linecap:round;stroke-linejoin:round;stroke-miterlimit:4;stroke-dasharray:none;stroke-opacity:1"
       d="m 408.86761,334.25554 c 54.31001,-10.96 95.51799,-79.45 89.16001,-96.16 -5.47702,-14.39 -40.249,8.89 -87.43401,86.78 -41.2,71.17 -46.235,101.22 -34.497,105.77 2.894,1.13 6.809,0.7 11.453,-1.04 3.216,-1.21 6.781,-3.04 10.599,-5.43 26.54,-18.76 41.28802,-39.76081 62.49577,-65.94152"
       id="path12351-7-1-9-5"
       inkscape:connector-curvature="0"
       sodipodi:nodetypes="cscsscc" />
  </g>
</svg>
