<?xml version="1.0" encoding="UTF-8" standalone="no"?>
<!-- Created with Inkscape (http://www.inkscape.org/) -->

<svg
   xmlns:dc="http://purl.org/dc/elements/1.1/"
   xmlns:cc="http://creativecommons.org/ns#"
   xmlns:rdf="http://www.w3.org/1999/02/22-rdf-syntax-ns#"
   xmlns:svg="http://www.w3.org/2000/svg"
   xmlns="http://www.w3.org/2000/svg"
   xmlns:sodipodi="http://sodipodi.sourceforge.net/DTD/sodipodi-0.dtd"
   xmlns:inkscape="http://www.inkscape.org/namespaces/inkscape"
   width="297mm"
   height="210mm"
   viewBox="0 0 1052.3622 744.09448"
   id="svg2"
   version="1.1"
   inkscape:version="0.92.3 (2405546, 2018-03-11)"
   sodipodi:docname="DEK Deutsche Einheitskurzschrift - Verkehrsschrift - ebenfalls.svg">
  <defs
     id="defs4" />
  <sodipodi:namedview
     id="base"
     pagecolor="#ffffff"
     bordercolor="#666666"
     borderopacity="1.0"
     inkscape:pageopacity="0.0"
     inkscape:pageshadow="2"
     inkscape:zoom="0.7"
     inkscape:cx="757.83561"
     inkscape:cy="470.86349"
     inkscape:document-units="px"
     inkscape:current-layer="layer2"
     showgrid="false"
     inkscape:window-width="1920"
     inkscape:window-height="1017"
     inkscape:window-x="1592"
     inkscape:window-y="-8"
     inkscape:window-maximized="1" />
  <metadata
     id="metadata7">
    <rdf:RDF>
      <cc:Work
         rdf:about="">
        <dc:format>image/svg+xml</dc:format>
        <dc:type
           rdf:resource="http://purl.org/dc/dcmitype/StillImage" />
        <dc:title></dc:title>
      </cc:Work>
    </rdf:RDF>
  </metadata>
  <g
     inkscape:label="Grundlinien"
     inkscape:groupmode="layer"
     id="layer1"
     transform="translate(0,-308.26772)"
     sodipodi:insensitive="true">
    <path
       style="fill:none;fill-rule:evenodd;stroke:#969696;stroke-width:1.875;stroke-linecap:round;stroke-linejoin:miter;stroke-miterlimit:4;stroke-dasharray:none;stroke-opacity:1"
       d="M 57.556226,742.24566 H 1006.4206"
       id="path3336"
       inkscape:connector-curvature="0"
       sodipodi:nodetypes="cc" />
    <path
       style="fill:none;fill-rule:evenodd;stroke:#000000;stroke-width:0.9375;stroke-linecap:round;stroke-linejoin:miter;stroke-miterlimit:2;stroke-dasharray:3.74999998, 7.49999996;stroke-dashoffset:0;stroke-opacity:1"
       d="M 58.279456,844.14792 H 1007.1438"
       id="path3336-4"
       inkscape:connector-curvature="0"
       sodipodi:nodetypes="cc" />
    <path
       style="fill:none;fill-rule:evenodd;stroke:#000000;stroke-width:0.9375;stroke-linecap:round;stroke-linejoin:miter;stroke-miterlimit:2;stroke-dasharray:3.74999998, 7.49999996;stroke-dashoffset:0;stroke-opacity:1"
       d="M 58.279456,641.7697 H 1007.1438"
       id="path3336-7"
       inkscape:connector-curvature="0"
       sodipodi:nodetypes="cc" />
    <path
       style="fill:none;fill-rule:evenodd;stroke:#000000;stroke-width:0.9375;stroke-linecap:round;stroke-linejoin:miter;stroke-miterlimit:2;stroke-dasharray:3.74999998, 7.49999996;stroke-dashoffset:0;stroke-opacity:1"
       d="M 58.279456,540.58062 H 1007.1438"
       id="path3336-2"
       inkscape:connector-curvature="0"
       sodipodi:nodetypes="cc" />
  </g>
  <g
     inkscape:groupmode="layer"
     id="layer2"
     inkscape:label="Stenozeichen"
     style="display:inline">
    <path
       style="display:inline;fill:none;fill-rule:evenodd;stroke:#000000;stroke-width:5.625;stroke-linecap:round;stroke-linejoin:round;stroke-miterlimit:4;stroke-dasharray:none;stroke-opacity:1"
       d="m 539.31023,423.00124 c 18.46685,-14.67878 62.42641,-52.23441 80.72519,-68.39631 53.32452,-47.09743 111.27357,-109.77101 87.46255,-117.97034 -14.56308,-5.0148 -42.59301,12.2342 -89.77801,90.1295 -42.45566,73.33708 -43.15477,100.17016 -27.62112,103.45951 10.14454,2.65096 53.28036,0.81828 73.84922,-0.2175"
       id="path12351-7-1-83-2"
       inkscape:connector-curvature="0"
       sodipodi:nodetypes="cssccc" />
    <path
       style="display:inline;fill:none;fill-opacity:1;fill-rule:evenodd;stroke:#000000;stroke-width:5.625;stroke-linecap:round;stroke-linejoin:round;stroke-miterlimit:4;stroke-dasharray:none;stroke-opacity:1"
       d="m 637.2717,410.7636 c 1.19508,0.1187 2.2382,0.37466 3.0803,0.8041 0.27542,0.14088 0.53027,0.29949 0.76136,0.47837 1.49267,1.15441 2.0356,3.1387 1.20142,6.31004 -1.62405,6.17832 -8.60934,9.72006 -11.93025,10.97751 -6.87449,2.48973 -11.96982,-3.17957 -8.04108,-9.27164 2.45506,-3.80811 6.71462,-8.03222 11.73871,-9.07092 0.34191,-0.0713 0.68697,-0.12666 1.03521,-0.16652 0.41947,-0.0475 0.8421,-0.0728 1.26949,-0.0744 0.96872,-8.2e-4 1.95803,0.12666 2.96158,0.40346"
       id="path12351-7-1-4-7-1-2"
       inkscape:connector-curvature="0"
       sodipodi:nodetypes="cssscssssc" />
    <path
       style="display:inline;fill:none;fill-opacity:1;fill-rule:evenodd;stroke:#000000;stroke-width:10.3125;stroke-linecap:round;stroke-linejoin:round;stroke-miterlimit:4;stroke-dasharray:none;stroke-opacity:1"
       d="m 634.85725,416.25305 c 0.56508,0.0561 1.05831,0.17716 1.45649,0.38021 0.13023,0.0666 0.25073,0.14162 0.36,0.2262 0.70579,0.54585 0.96251,1.48411 0.56808,2.98364 -0.76792,2.92135 -4.07084,4.59603 -5.6411,5.19061 -3.25054,1.17724 -5.65981,-1.50343 -3.80215,-4.38401 1.16086,-1.80063 3.17495,-3.79795 5.55054,-4.28909 0.16166,-0.0337 0.32482,-0.0599 0.48948,-0.0787 0.19835,-0.0225 0.39819,-0.0344 0.60027,-0.0352 0.45805,-3.9e-4 0.92583,0.0599 1.40035,0.19078"
       id="path12351-7-1-4-7-1-2-1"
       inkscape:connector-curvature="0"
       sodipodi:nodetypes="cssscssssc" />
    <path
       style="display:inline;fill:none;fill-opacity:1;fill-rule:evenodd;stroke:#000000;stroke-width:5.625;stroke-linecap:round;stroke-linejoin:round;stroke-miterlimit:4;stroke-dasharray:none;stroke-opacity:1"
       d="m 670.53012,417.13571 c 0.79157,0.0786 1.48249,0.24816 2.04026,0.53261 0.18243,0.0933 0.35123,0.19837 0.5043,0.31685 0.98868,0.76463 1.3483,2.07895 0.79577,4.17951 -1.07571,4.09227 -5.70248,6.43817 -7.90211,7.27105 -4.55338,1.6491 -7.92832,-2.10601 -5.32608,-6.14115 1.62613,-2.52234 4.44749,-5.32021 7.77524,-6.00821 0.22647,-0.0472 0.45502,-0.0839 0.68568,-0.11029 0.27784,-0.0315 0.55777,-0.0482 0.84086,-0.0493 0.64164,-5.4e-4 1.29692,0.0839 1.96163,0.26723"
       id="path12351-7-1-4-7-1-2-0"
       inkscape:connector-curvature="0"
       sodipodi:nodetypes="cssscssssc" />
    <ellipse
       style="display:inline;fill:none;fill-opacity:1;stroke:#000000;stroke-width:5.625;stroke-linecap:round;stroke-linejoin:round;stroke-miterlimit:4;stroke-dasharray:none;stroke-dashoffset:0;stroke-opacity:1;paint-order:stroke fill markers"
       id="path44014-1-3-5-4-20-28-3"
       cx="318.12228"
       cy="762.07385"
       rx="25.728558"
       ry="20.371416"
       transform="rotate(-37.736319)" />
    <path
       style="display:inline;fill:none;fill-rule:evenodd;stroke:#000000;stroke-width:5.625;stroke-linecap:round;stroke-linejoin:round;stroke-miterlimit:4;stroke-dasharray:none;stroke-opacity:1"
       d="M 711.80751,430.50953 663.94806,430.0061"
       id="path851-7-8-7"
       inkscape:connector-curvature="0"
       sodipodi:nodetypes="cc" />
    <path
       style="display:inline;fill:none;fill-rule:evenodd;stroke:#000000;stroke-width:5.625;stroke-linecap:round;stroke-linejoin:round;stroke-miterlimit:4;stroke-dasharray:none;stroke-opacity:1"
       d="m 403.40413,431.19124 c 14.74828,-0.24868 34.52112,-9.64 48.03812,-16.48 6.0691,-3.15135 21.84376,-10.39098 28.71921,-11.9799 5.5169,-1.27498 10.46193,-1.81549 13.50077,-1.2501 17.23284,3.20623 14.34872,47.60053 45.648,21.52"
       id="path12351-7-1-87"
       inkscape:connector-curvature="0"
       sodipodi:nodetypes="ccssc" />
    <path
       style="display:inline;fill:none;fill-rule:evenodd;stroke:#000000;stroke-width:5.625;stroke-linecap:round;stroke-linejoin:round;stroke-miterlimit:4;stroke-dasharray:none;stroke-opacity:1"
       d="M 317.73817,431.70046 432.2561,334.58519 c -13.78184,25.27482 -28.56772,49.99034 -43.01461,74.88858 -9.70165,17.48913 -0.26986,21.89554 14.16264,21.71747"
       id="path4752-1-7-2-4-0-1"
       inkscape:connector-curvature="0"
       sodipodi:nodetypes="cccc" />
  </g>
</svg>
