<?xml version="1.0" encoding="UTF-8" standalone="no"?>
<!-- Created with Inkscape (http://www.inkscape.org/) -->

<svg
   xmlns:dc="http://purl.org/dc/elements/1.1/"
   xmlns:cc="http://creativecommons.org/ns#"
   xmlns:rdf="http://www.w3.org/1999/02/22-rdf-syntax-ns#"
   xmlns:svg="http://www.w3.org/2000/svg"
   xmlns="http://www.w3.org/2000/svg"
   xmlns:sodipodi="http://sodipodi.sourceforge.net/DTD/sodipodi-0.dtd"
   xmlns:inkscape="http://www.inkscape.org/namespaces/inkscape"
   width="297mm"
   height="210mm"
   viewBox="0 0 1052.3622 744.09448"
   id="svg2"
   version="1.1"
   inkscape:version="0.92.3 (2405546, 2018-03-11)"
   sodipodi:docname="DEK Deutsche Einheitskurzschrift - Verkehrsschrift - Haltepunkt.svg">
  <defs
     id="defs4" />
  <sodipodi:namedview
     id="base"
     pagecolor="#ffffff"
     bordercolor="#666666"
     borderopacity="1.0"
     inkscape:pageopacity="0.0"
     inkscape:pageshadow="2"
     inkscape:zoom="0.7"
     inkscape:cx="662.35107"
     inkscape:cy="304.34696"
     inkscape:document-units="px"
     inkscape:current-layer="layer2"
     showgrid="false"
     inkscape:window-width="1920"
     inkscape:window-height="1017"
     inkscape:window-x="1592"
     inkscape:window-y="-8"
     inkscape:window-maximized="1"
     showguides="true"
     inkscape:guide-bbox="true" />
  <metadata
     id="metadata7">
    <rdf:RDF>
      <cc:Work
         rdf:about="">
        <dc:format>image/svg+xml</dc:format>
        <dc:type
           rdf:resource="http://purl.org/dc/dcmitype/StillImage" />
        <dc:title></dc:title>
      </cc:Work>
    </rdf:RDF>
  </metadata>
  <g
     inkscape:label="Grundlinien"
     inkscape:groupmode="layer"
     id="layer1"
     transform="translate(0,-308.26772)"
     sodipodi:insensitive="true">
    <path
       style="fill:none;fill-rule:evenodd;stroke:#969696;stroke-width:1.875;stroke-linecap:round;stroke-linejoin:miter;stroke-miterlimit:4;stroke-dasharray:none;stroke-opacity:1"
       d="M 57.556226,742.24566 H 1006.4206"
       id="path3336"
       inkscape:connector-curvature="0"
       sodipodi:nodetypes="cc" />
    <path
       style="fill:none;fill-rule:evenodd;stroke:#000000;stroke-width:0.9375;stroke-linecap:round;stroke-linejoin:miter;stroke-miterlimit:2;stroke-dasharray:3.74999998, 7.49999996;stroke-dashoffset:0;stroke-opacity:1"
       d="M 58.279456,844.14792 H 1007.1438"
       id="path3336-4"
       inkscape:connector-curvature="0"
       sodipodi:nodetypes="cc" />
    <path
       style="fill:none;fill-rule:evenodd;stroke:#000000;stroke-width:0.9375;stroke-linecap:round;stroke-linejoin:miter;stroke-miterlimit:2;stroke-dasharray:3.74999998, 7.49999996;stroke-dashoffset:0;stroke-opacity:1"
       d="M 58.279456,641.7697 H 1007.1438"
       id="path3336-7"
       inkscape:connector-curvature="0"
       sodipodi:nodetypes="cc" />
    <path
       style="fill:none;fill-rule:evenodd;stroke:#000000;stroke-width:0.9375;stroke-linecap:round;stroke-linejoin:miter;stroke-miterlimit:2;stroke-dasharray:3.74999998, 7.49999996;stroke-dashoffset:0;stroke-opacity:1"
       d="M 58.279456,540.58062 H 1007.1438"
       id="path3336-2"
       inkscape:connector-curvature="0"
       sodipodi:nodetypes="cc" />
  </g>
  <g
     inkscape:groupmode="layer"
     id="layer2"
     inkscape:label="Stenozeichen"
     style="display:inline">
    <path
       style="display:inline;fill:none;fill-rule:evenodd;stroke:#000000;stroke-width:5.625;stroke-linecap:round;stroke-linejoin:round;stroke-miterlimit:4;stroke-dasharray:none;stroke-opacity:1"
       d="m 484.1563,432.59743 c 0,0 -16.67679,0.0671 -24.00092,-1.49462 -38.16325,-8.51214 33.28062,-141.29402 74.65688,-185.11051 4.70379,-4.9812 11.211,-10.695 18.852,-11.92"
       id="path844-64-3-0-7-6"
       inkscape:connector-curvature="0"
       sodipodi:nodetypes="ccsc" />
    <path
       style="display:inline;fill:none;fill-rule:evenodd;stroke:#000000;stroke-width:5.625;stroke-linecap:round;stroke-linejoin:round;stroke-miterlimit:4;stroke-dasharray:none;stroke-opacity:1"
       d="m 539.05315,428.69023 c -17.99334,5.2086 -54.89685,3.9072 -54.89685,3.9072"
       id="path851-7-8"
       inkscape:connector-curvature="0"
       sodipodi:nodetypes="cc" />
    <path
       style="display:inline;fill:none;fill-rule:evenodd;stroke:#000000;stroke-width:5.625;stroke-linecap:round;stroke-linejoin:round;stroke-miterlimit:4;stroke-dasharray:none;stroke-opacity:1"
       d="m 539.05315,428.69023 c 5.35645,-1.51276 10.68546,-2.17059 15.73262,-1.54315 23.79651,2.9597 24.4163,51.13631 40.69587,53.35729 10.68519,1.4577 20.10465,-8.15599 27.92099,-15.06647"
       id="path844-5-9-31-47-9"
       inkscape:connector-curvature="0"
       sodipodi:nodetypes="cssc" />
    <path
       style="display:inline;fill:none;fill-rule:evenodd;stroke:#000000;stroke-width:5.625;stroke-linecap:round;stroke-linejoin:round;stroke-miterlimit:4;stroke-dasharray:none;stroke-opacity:1"
       d="m 623.40263,465.4379 c 15.05985,-14.53842 31.94331,-23.56226 50.57746,-27.75164 27.6698,-6.22081 46.4769,10.51914 35.45176,45.76733"
       id="path4752-1-1"
       inkscape:connector-curvature="0"
       sodipodi:nodetypes="csc" />
    <path
       style="display:inline;fill:none;fill-rule:evenodd;stroke:#000000;stroke-width:5.625;stroke-linecap:round;stroke-linejoin:miter;stroke-miterlimit:4;stroke-dasharray:none;stroke-opacity:1"
       d="m 820.51085,285.57361 -111.079,197.87998"
       id="path822-8-8"
       inkscape:connector-curvature="0"
       sodipodi:nodetypes="cc" />
    <path
       style="display:inline;fill:none;fill-rule:evenodd;stroke:#000000;stroke-width:5.625;stroke-linecap:round;stroke-linejoin:round;stroke-miterlimit:4;stroke-dasharray:none;stroke-opacity:1"
       d="M 372.65338,406.19451 471.66674,235.28386"
       id="path12351-7-1-4-6-8-8"
       inkscape:connector-curvature="0"
       sodipodi:nodetypes="cc" />
    <path
       style="display:inline;fill:none;fill-opacity:1;fill-rule:evenodd;stroke:#000000;stroke-width:10.90581608;stroke-linecap:round;stroke-linejoin:round;stroke-miterlimit:4;stroke-dasharray:none;stroke-opacity:1"
       d="m 340.94469,405.22283 c 1.41637,0.14067 2.65082,0.44393 3.64932,0.95275 0.32671,0.16692 0.6281,0.35484 0.9023,0.56677 1.76913,1.36779 2.41169,3.71889 1.42368,7.47642 -1.92463,7.32039 -10.20113,11.51679 -14.13552,13.00668 -8.14504,2.94995 -14.18204,-3.76729 -9.52803,-10.98546 2.90925,-4.51204 7.956,-9.51696 13.90915,-10.74765 0.40473,-0.0843 0.81377,-0.15004 1.22657,-0.19729 0.49606,-0.0564 0.99757,-0.0864 1.50395,-0.0881 1.14723,-9.4e-4 2.31941,0.15004 3.50828,0.47806"
       id="path12351-7-1-4-7-1-6-5-4-9"
       inkscape:connector-curvature="0"
       sodipodi:nodetypes="cssscssssc" />
    <path
       style="display:inline;fill:none;fill-opacity:1;fill-rule:evenodd;stroke:#000000;stroke-width:11.88090992;stroke-linecap:round;stroke-linejoin:round;stroke-miterlimit:4;stroke-dasharray:none;stroke-opacity:1"
       d="m 337.29564,413.68488 c 0.45383,0.0451 0.84939,0.14224 1.16933,0.30527 0.10469,0.0534 0.20126,0.11371 0.28912,0.18162 0.56687,0.43828 0.77276,1.19161 0.45617,2.39561 -0.61669,2.34564 -3.26867,3.69026 -4.52935,4.16765 -2.60987,0.94524 -4.54426,-1.20712 -3.053,-3.51999 0.93218,-1.44578 2.54927,-3.04946 4.45682,-3.44381 0.12968,-0.0269 0.26074,-0.0481 0.39301,-0.0632 0.15896,-0.018 0.31965,-0.0276 0.4819,-0.0283 0.36761,-3.2e-4 0.7432,0.0481 1.12414,0.15318"
       id="path12351-7-1-4-7-1-6-5-4-9-6"
       inkscape:connector-curvature="0"
       sodipodi:nodetypes="cssscssssc" />
    <path
       style="display:inline;fill:none;fill-rule:evenodd;stroke:#000000;stroke-width:5.625;stroke-linecap:round;stroke-linejoin:round;stroke-miterlimit:4;stroke-dasharray:none;stroke-opacity:1"
       d="m 372.65338,406.19451 c -2.06769,3.54282 -5.60316,7.97023 -12.69721,14.39388 -4.72937,4.28246 -11.01106,7.45782 -14.14476,8.49744 -7.83425,2.59904 -28.80104,1.99804 -43.47943,2.0616 -14.67838,0.0636 -33.12814,0.81191 -33.12814,0.81191 l -5.62656,-0.21702 3.2766,0.0956 c 0,0 8.39684,-3.99589 9.79223,-4.79441 10.92829,-6.25377 20.58196,-16.09825 28.32487,-27.06186 27.57996,-39.052 30.9173,-92.30422 -18.73506,-48.0702"
       id="path844-7-8"
       inkscape:connector-curvature="0"
       sodipodi:nodetypes="csszcccssc" />
    <path
       style="display:inline;fill:none;fill-rule:evenodd;stroke:#000000;stroke-width:5.625;stroke-linecap:round;stroke-linejoin:round;stroke-miterlimit:4;stroke-dasharray:none;stroke-opacity:1"
       d="m 542.11292,239.42944 c -35.85601,22.64 -88.75418,54.53042 -70.44618,-4.14558"
       id="path844-5-58-9-5-3-7-8-3-3-6-4-6-0-6"
       inkscape:connector-curvature="0"
       sodipodi:nodetypes="cc" />
  </g>
</svg>
