<?xml version="1.0" encoding="UTF-8" standalone="no"?>
<!-- Created with Inkscape (http://www.inkscape.org/) -->

<svg
   xmlns:dc="http://purl.org/dc/elements/1.1/"
   xmlns:cc="http://creativecommons.org/ns#"
   xmlns:rdf="http://www.w3.org/1999/02/22-rdf-syntax-ns#"
   xmlns:svg="http://www.w3.org/2000/svg"
   xmlns="http://www.w3.org/2000/svg"
   xmlns:sodipodi="http://sodipodi.sourceforge.net/DTD/sodipodi-0.dtd"
   xmlns:inkscape="http://www.inkscape.org/namespaces/inkscape"
   width="297mm"
   height="210mm"
   viewBox="0 0 1052.3622 744.09448"
   id="svg2"
   version="1.1"
   inkscape:version="0.92.3 (2405546, 2018-03-11)"
   sodipodi:docname="DEK Deutsche Einheitskurzschrift - Verkehrsschrift - volllladen.svg">
  <defs
     id="defs4" />
  <sodipodi:namedview
     id="base"
     pagecolor="#ffffff"
     bordercolor="#666666"
     borderopacity="1.0"
     inkscape:pageopacity="0.0"
     inkscape:pageshadow="2"
     inkscape:zoom="0.98994949"
     inkscape:cx="609.65886"
     inkscape:cy="421.69975"
     inkscape:document-units="px"
     inkscape:current-layer="layer2"
     showgrid="false"
     inkscape:window-width="1920"
     inkscape:window-height="1017"
     inkscape:window-x="1592"
     inkscape:window-y="-8"
     inkscape:window-maximized="1"
     showguides="true"
     inkscape:guide-bbox="true" />
  <metadata
     id="metadata7">
    <rdf:RDF>
      <cc:Work
         rdf:about="">
        <dc:format>image/svg+xml</dc:format>
        <dc:type
           rdf:resource="http://purl.org/dc/dcmitype/StillImage" />
        <dc:title></dc:title>
      </cc:Work>
    </rdf:RDF>
  </metadata>
  <g
     inkscape:label="Grundlinien"
     inkscape:groupmode="layer"
     id="layer1"
     transform="translate(0,-308.26772)"
     sodipodi:insensitive="true">
    <path
       style="fill:none;fill-rule:evenodd;stroke:#969696;stroke-width:1.875;stroke-linecap:round;stroke-linejoin:miter;stroke-miterlimit:4;stroke-dasharray:none;stroke-opacity:1"
       d="M 57.556226,742.24566 H 1006.4206"
       id="path3336"
       inkscape:connector-curvature="0"
       sodipodi:nodetypes="cc" />
    <path
       style="fill:none;fill-rule:evenodd;stroke:#000000;stroke-width:0.9375;stroke-linecap:round;stroke-linejoin:miter;stroke-miterlimit:2;stroke-dasharray:3.74999998, 7.49999996;stroke-dashoffset:0;stroke-opacity:1"
       d="M 58.279456,844.14792 H 1007.1438"
       id="path3336-4"
       inkscape:connector-curvature="0"
       sodipodi:nodetypes="cc" />
    <path
       style="fill:none;fill-rule:evenodd;stroke:#000000;stroke-width:0.9375;stroke-linecap:round;stroke-linejoin:miter;stroke-miterlimit:2;stroke-dasharray:3.74999998, 7.49999996;stroke-dashoffset:0;stroke-opacity:1"
       d="M 58.279456,641.7697 H 1007.1438"
       id="path3336-7"
       inkscape:connector-curvature="0"
       sodipodi:nodetypes="cc" />
    <path
       style="fill:none;fill-rule:evenodd;stroke:#000000;stroke-width:0.9375;stroke-linecap:round;stroke-linejoin:miter;stroke-miterlimit:2;stroke-dasharray:3.74999998, 7.49999996;stroke-dashoffset:0;stroke-opacity:1"
       d="M 58.279456,540.58062 H 1007.1438"
       id="path3336-2"
       inkscape:connector-curvature="0"
       sodipodi:nodetypes="cc" />
  </g>
  <g
     inkscape:groupmode="layer"
     id="layer2"
     inkscape:label="Stenozeichen"
     style="display:inline">
    <path
       style="display:inline;fill:none;fill-rule:evenodd;stroke:#000000;stroke-width:5.625;stroke-linecap:round;stroke-linejoin:round;stroke-miterlimit:4;stroke-dasharray:none;stroke-opacity:1"
       d="m 498.75006,421.66814 c -21.10364,6.48078 -78.65589,8.37147 -109.09291,9.08194 -42.54281,0.99305 -77.05008,-8.44916 -85.51516,-34.72837"
       id="path4752-1-5-8-2-4-3-4"
       inkscape:connector-curvature="0"
       sodipodi:nodetypes="csc" />
    <path
       style="display:inline;fill:none;fill-rule:evenodd;stroke:#000000;stroke-width:5.625;stroke-linecap:round;stroke-linejoin:round;stroke-miterlimit:4;stroke-dasharray:none;stroke-opacity:1"
       d="m 502.14536,410.43137 c 0.755,0.07 1.413,0.237 1.945,0.508 0.175,0.09 0.335,0.189 0.481,0.302 0.944,0.73 1.286,1.983 0.76,3.987 -1.027,3.903 -5.44,6.14 -7.537,6.935 -4.343,1.573 -7.562,-2.009 -5.081,-5.858 1.551,-2.405 4.242,-5.074 7.417,-5.73 0.215,-0.04 0.433,-0.08 0.654,-0.105 0.264,-0.03 0.531,-0.05 0.801,-0.05 0.612,0 1.237,0.08 1.871,0.255"
       id="path12351-7-1-4"
       inkscape:connector-curvature="0"
       sodipodi:nodetypes="cssscssssc" />
    <path
       style="display:inline;fill:none;fill-rule:evenodd;stroke:#000000;stroke-width:5.625;stroke-linecap:round;stroke-linejoin:round;stroke-miterlimit:4;stroke-dasharray:none;stroke-opacity:1"
       d="m 526.75729,410.16829 c 0.70009,0.0712 1.31044,0.21936 1.80471,0.47077 0.16095,0.0826 0.31051,0.17591 0.44581,0.28059 0.87459,0.67587 1.19295,1.8389 0.70437,3.697 -0.9522,3.62009 -5.04448,5.69471 -6.99019,6.43183 -4.02818,1.45858 -7.01298,-1.8631 -4.71188,-5.43332 1.43863,-2.2306 3.93416,-4.70548 6.87837,-5.31369 0.20013,-0.0427 0.40239,-0.0741 0.60608,-0.0976 0.24571,-0.0285 0.49356,-0.0427 0.74424,-0.0427 0.56691,0 1.14664,0.0741 1.73491,0.23644"
       id="path12351-7-1-4-58-7-2-1-7"
       inkscape:connector-curvature="0"
       sodipodi:nodetypes="cssscssssc" />
    <path
       style="display:inline;fill:none;fill-rule:evenodd;stroke:#000000;stroke-width:5.625;stroke-linecap:round;stroke-linejoin:round;stroke-miterlimit:4;stroke-dasharray:none;stroke-opacity:1"
       d="m 519.48768,421.23645 c 9.40657,5.30869 17.57502,0.71164 27.63302,-3.10973"
       id="path12351-7-1-83-2"
       inkscape:connector-curvature="0"
       sodipodi:nodetypes="cc" />
    <path
       style="display:inline;fill:none;fill-rule:evenodd;stroke:#000000;stroke-width:5.625;stroke-linecap:round;stroke-linejoin:miter;stroke-miterlimit:4;stroke-dasharray:none;stroke-opacity:1"
       d="m 494.57896,423.27761 c 7.4233,4.29958 18.82728,4.03519 28.65872,-2.04116"
       id="path1428-0-8-0-3"
       inkscape:connector-curvature="0"
       sodipodi:nodetypes="cc" />
    <path
       style="display:inline;fill:none;fill-rule:evenodd;stroke:#000000;stroke-width:5.625;stroke-linecap:round;stroke-linejoin:round;stroke-miterlimit:4;stroke-dasharray:none;stroke-opacity:1"
       d="m 547.1207,418.12672 c 32.09234,-13.00526 48.29376,-24.34648 72.67541,-45.29475 5.84171,-5.11577 10.21765,-10.99111 13.07467,-16.32827 3.40654,-6.3637 4.65367,-11.96231 3.65133,-14.59603 -2.76536,-7.26616 -34.66999,-8.6273 -58.487,30.6909 -26.32301,43.0628 -17.65401,60.3256 -4.212,58.5714 5.18917,-0.33967 8.49008,-1.12262 11.81044,-2.22961 2.219,-0.73918 3.67238,-1.03626 6.40666,-2.34268"
       id="path12351-7-1-32-1-7"
       inkscape:connector-curvature="0"
       sodipodi:nodetypes="ccsscccc" />
    <path
       style="display:inline;fill:none;fill-rule:evenodd;stroke:#000000;stroke-width:4.6875;stroke-linecap:round;stroke-linejoin:miter;stroke-miterlimit:4;stroke-dasharray:none;stroke-opacity:1"
       d="m 616.65011,343.21587 c -30.327,19.1805 -39.75901,50.4673 -52.15101,79.0417"
       id="path2933-3-1"
       inkscape:connector-curvature="0"
       sodipodi:nodetypes="cc" />
    <path
       style="display:inline;fill:none;fill-rule:evenodd;stroke:#000000;stroke-width:4.6875;stroke-linecap:round;stroke-linejoin:miter;stroke-miterlimit:4;stroke-dasharray:none;stroke-opacity:1"
       d="m 609.61812,343.21587 c -17.89401,10.3948 -41.06502,45.0502 -46.54002,68.6384"
       id="path2933-8-3-6"
       inkscape:connector-curvature="0"
       sodipodi:nodetypes="cc" />
    <path
       style="display:inline;fill:none;fill-rule:evenodd;stroke:#000000;stroke-width:2.8125;stroke-linecap:round;stroke-linejoin:miter;stroke-miterlimit:4;stroke-dasharray:none;stroke-opacity:1"
       d="m 570.2361,410.78717 c -3.962,10.7187 -6.405,18.8357 3.58701,20.3828"
       id="path2933-6-1-9"
       inkscape:connector-curvature="0"
       sodipodi:nodetypes="cc" />
    <path
       style="display:inline;fill:none;fill-rule:evenodd;stroke:#000000;stroke-width:2.8125;stroke-linecap:round;stroke-linejoin:miter;stroke-miterlimit:4;stroke-dasharray:none;stroke-opacity:1"
       d="m 631.04711,339.95137 c -7.413,-2.3651 -11.016,2.1842 -15.82,5.1898"
       id="path2933-6-4-1-3"
       inkscape:connector-curvature="0"
       sodipodi:nodetypes="cc" />
    <path
       style="display:inline;fill:none;fill-rule:evenodd;stroke:#000000;stroke-width:4.6875;stroke-linecap:round;stroke-linejoin:miter;stroke-miterlimit:4;stroke-dasharray:none;stroke-opacity:1"
       d="m 606.18312,347.97517 c -28.03101,20.4926 -28.87701,42.2094 -43.39102,69.5715"
       id="path2933-4-1-6"
       inkscape:connector-curvature="0"
       sodipodi:nodetypes="cc" />
    <path
       style="display:inline;fill:none;fill-rule:evenodd;stroke:#000000;stroke-width:5.625;stroke-linecap:round;stroke-linejoin:round;stroke-miterlimit:4;stroke-dasharray:none;stroke-opacity:1"
       d="m 592.04021,426.59768 c 18.69364,-9.21772 40.02007,-21.72818 57.15944,-23.05934 16.99347,-0.30018 18.61361,28.00462 29.57361,27.69962 7.19299,-0.201 12.352,-7.55301 16.74799,-12.95101"
       id="path844-5-9-31-47-9-9"
       inkscape:connector-curvature="0"
       sodipodi:nodetypes="ccsc" />
  </g>
</svg>
