<?xml version="1.0" encoding="UTF-8" standalone="no"?>
<!-- Created with Inkscape (http://www.inkscape.org/) -->

<svg
   xmlns:dc="http://purl.org/dc/elements/1.1/"
   xmlns:cc="http://creativecommons.org/ns#"
   xmlns:rdf="http://www.w3.org/1999/02/22-rdf-syntax-ns#"
   xmlns:svg="http://www.w3.org/2000/svg"
   xmlns="http://www.w3.org/2000/svg"
   xmlns:sodipodi="http://sodipodi.sourceforge.net/DTD/sodipodi-0.dtd"
   xmlns:inkscape="http://www.inkscape.org/namespaces/inkscape"
   width="297mm"
   height="210mm"
   viewBox="0 0 1052.3622 744.09448"
   id="svg2"
   version="1.1"
   inkscape:version="0.92.3 (2405546, 2018-03-11)"
   sodipodi:docname="DEK Deutsche Einheitskurzschrift - Verkehrsschrift - Damenklo.svg">
  <defs
     id="defs4" />
  <sodipodi:namedview
     id="base"
     pagecolor="#ffffff"
     bordercolor="#666666"
     borderopacity="1.0"
     inkscape:pageopacity="0.0"
     inkscape:pageshadow="2"
     inkscape:zoom="0.98994949"
     inkscape:cx="611.18681"
     inkscape:cy="369.56277"
     inkscape:document-units="px"
     inkscape:current-layer="layer2"
     showgrid="false"
     inkscape:window-width="1920"
     inkscape:window-height="1017"
     inkscape:window-x="1592"
     inkscape:window-y="-8"
     inkscape:window-maximized="1"
     showguides="true"
     inkscape:guide-bbox="true" />
  <metadata
     id="metadata7">
    <rdf:RDF>
      <cc:Work
         rdf:about="">
        <dc:format>image/svg+xml</dc:format>
        <dc:type
           rdf:resource="http://purl.org/dc/dcmitype/StillImage" />
        <dc:title></dc:title>
      </cc:Work>
    </rdf:RDF>
  </metadata>
  <g
     inkscape:label="Grundlinien"
     inkscape:groupmode="layer"
     id="layer1"
     transform="translate(0,-308.26772)"
     sodipodi:insensitive="true">
    <path
       style="fill:none;fill-rule:evenodd;stroke:#969696;stroke-width:1.875;stroke-linecap:round;stroke-linejoin:miter;stroke-miterlimit:4;stroke-dasharray:none;stroke-opacity:1"
       d="M 57.556226,742.24566 H 1006.4206"
       id="path3336"
       inkscape:connector-curvature="0"
       sodipodi:nodetypes="cc" />
    <path
       style="fill:none;fill-rule:evenodd;stroke:#000000;stroke-width:0.9375;stroke-linecap:round;stroke-linejoin:miter;stroke-miterlimit:2;stroke-dasharray:3.74999998, 7.49999996;stroke-dashoffset:0;stroke-opacity:1"
       d="M 58.279456,844.14792 H 1007.1438"
       id="path3336-4"
       inkscape:connector-curvature="0"
       sodipodi:nodetypes="cc" />
    <path
       style="fill:none;fill-rule:evenodd;stroke:#000000;stroke-width:0.9375;stroke-linecap:round;stroke-linejoin:miter;stroke-miterlimit:2;stroke-dasharray:3.74999998, 7.49999996;stroke-dashoffset:0;stroke-opacity:1"
       d="M 58.279456,641.7697 H 1007.1438"
       id="path3336-7"
       inkscape:connector-curvature="0"
       sodipodi:nodetypes="cc" />
    <path
       style="fill:none;fill-rule:evenodd;stroke:#000000;stroke-width:0.9375;stroke-linecap:round;stroke-linejoin:miter;stroke-miterlimit:2;stroke-dasharray:3.74999998, 7.49999996;stroke-dashoffset:0;stroke-opacity:1"
       d="M 58.279456,540.58062 H 1007.1438"
       id="path3336-2"
       inkscape:connector-curvature="0"
       sodipodi:nodetypes="cc" />
  </g>
  <g
     inkscape:groupmode="layer"
     id="layer2"
     inkscape:label="Stenozeichen"
     style="display:inline">
    <path
       style="display:inline;fill:none;fill-rule:evenodd;stroke:#000000;stroke-width:5.625;stroke-linecap:round;stroke-linejoin:round;stroke-miterlimit:4;stroke-dasharray:none;stroke-opacity:1"
       d="m 564.55038,419.35028 c 19.92292,-20.47444 37.79506,-28.98911 58.64374,-30.68509 30.45317,-2.47728 45.427,10.111 35.478,43.90401"
       id="path4752-1-251-7-2"
       inkscape:connector-curvature="0"
       sodipodi:nodetypes="csc" />
    <path
       style="display:inline;fill:none;fill-rule:evenodd;stroke:#000000;stroke-width:5.625;stroke-linecap:round;stroke-linejoin:round;stroke-miterlimit:4;stroke-dasharray:none;stroke-opacity:1"
       d="m 658.67212,432.5692 18.32934,-0.11127 c 1.6779,-0.58119 4.25,-1.66087 5.89481,-2.80922 l 135.19996,-1.94122"
       id="path844-60-1-5"
       inkscape:connector-curvature="0"
       sodipodi:nodetypes="cccc" />
    <path
       style="display:inline;fill:none;fill-rule:evenodd;stroke:#000000;stroke-width:5.625;stroke-linecap:round;stroke-linejoin:round;stroke-miterlimit:4;stroke-dasharray:none;stroke-opacity:1"
       d="m 684.0106,416.78155 c 0.98299,0.1 1.83999,0.308 2.534,0.661 0.226,0.116 0.436,0.247 0.62599,0.394 1.22801,0.949 1.67501,2.582 0.98901,5.191 -1.33701,5.083 -7.083,7.996 -9.81501,9.031 -5.65599,2.04801 -9.84699,-2.616 -6.61599,-7.629 2.01999,-3.132 5.52399,-6.607 9.65799,-7.461 0.28101,-0.06 0.565,-0.104 0.85101,-0.137 0.345,-0.04 0.693,-0.06 1.04499,-0.06 0.796,0 1.61001,0.104 2.436,0.332"
       id="path12351-7-1-4-58-7-2-1-7-5"
       inkscape:connector-curvature="0"
       sodipodi:nodetypes="cssscssssc" />
    <path
       style="display:inline;fill:none;fill-rule:evenodd;stroke:#000000;stroke-width:5.625;stroke-linecap:round;stroke-linejoin:round;stroke-miterlimit:4;stroke-dasharray:none;stroke-opacity:1"
       d="m 376.07416,396.02382 c 5.6114,-6.21306 37.20536,-43.28376 43.37389,-48.26471 23.72582,-19.15808 60.94668,-14.63825 37.48179,14.37261 -27.37574,33.84605 -45.45653,50.22785 -39.44065,63.89085 4.20475,9.54967 21.62493,5.00796 36.49903,-3.67063 l 16.2319,-9.47083"
       id="path844"
       inkscape:connector-curvature="0"
       sodipodi:nodetypes="cssssc" />
    <path
       style="display:inline;fill:none;fill-rule:evenodd;stroke:#000000;stroke-width:5.625;stroke-linecap:round;stroke-linejoin:round;stroke-miterlimit:4;stroke-dasharray:none;stroke-opacity:1"
       d="m 331.75634,384.38175 c 39.96166,2.98735 57.13588,-35.26963 56.60551,-44.27703 -0.58808,-9.98746 -29.23432,-4.37272 -53.13001,35.0435 -43.23645,71.09536 -9.67488,63.57574 21.61829,38.37218 2.35617,-1.89766 11.68975,-9.38723 19.22403,-17.49658"
       id="path12351-7-1"
       inkscape:connector-curvature="0"
       sodipodi:nodetypes="cscsc" />
    <path
       style="display:inline;fill:none;fill-rule:evenodd;stroke:#000000;stroke-width:5.625;stroke-linecap:round;stroke-linejoin:miter;stroke-miterlimit:4;stroke-dasharray:none;stroke-opacity:1"
       d="m 457.77019,339.34477 c 14.53547,10.1178 4.34216,27.8353 -12.39329,44.15649 -14.37404,14.01823 -23.36457,26.38047 -29.51226,38.70758"
       id="path1647"
       inkscape:connector-curvature="0"
       sodipodi:nodetypes="csc" />
    <path
       style="display:inline;fill:none;fill-rule:evenodd;stroke:#000000;stroke-width:5.625;stroke-linecap:round;stroke-linejoin:miter;stroke-miterlimit:4;stroke-dasharray:none;stroke-opacity:1"
       d="m 457.77019,339.34477 c 0.78351,-1.11931 3.88224,6.11585 0.73644,14.24184 -3.24802,8.39004 -12.84026,17.77665 -18.30441,22.92881 -10.75634,10.14215 -30.59125,28.96442 -24.33758,45.69342"
       id="path1647-5"
       inkscape:connector-curvature="0"
       sodipodi:nodetypes="cssc" />
    <path
       style="display:inline;fill:none;fill-rule:evenodd;stroke:#000000;stroke-width:2.8125;stroke-linecap:round;stroke-linejoin:miter;stroke-miterlimit:4;stroke-dasharray:none;stroke-opacity:1"
       d="m 449.22059,337.63564 c 11.25649,1.32431 8.78776,6.51521 9.08077,10.97437"
       id="path1647-0"
       inkscape:connector-curvature="0"
       sodipodi:nodetypes="cc" />
    <path
       style="display:inline;fill:none;fill-rule:evenodd;stroke:#000000;stroke-width:2.8125;stroke-linecap:round;stroke-linejoin:miter;stroke-miterlimit:4;stroke-dasharray:none;stroke-opacity:1"
       d="m 420.98593,414.91809 c -2.6961,4.92048 -3.76332,12.03999 2.31132,14.48512"
       id="path1647-1"
       inkscape:connector-curvature="0"
       sodipodi:nodetypes="cc" />
    <path
       style="display:inline;fill:none;fill-rule:evenodd;stroke:#000000;stroke-width:2.8125;stroke-linecap:round;stroke-linejoin:miter;stroke-miterlimit:4;stroke-dasharray:none;stroke-opacity:1"
       d="m 413.26765,416.26148 c -0.10201,5.65564 2.8862,11.51109 4.86434,13.14584"
       id="path1647-1-1"
       inkscape:connector-curvature="0"
       sodipodi:nodetypes="cc" />
    <path
       style="display:inline;fill:none;fill-rule:evenodd;stroke:#000000;stroke-width:5.625;stroke-linecap:round;stroke-linejoin:round;stroke-miterlimit:4;stroke-dasharray:none;stroke-opacity:1"
       d="m 470.22012,412.88111 c 0.0214,-0.0603 4.80546,-3.36736 11.68174,-7.16605 15.8286,-8.74425 42.74335,-20.09353 48.17128,-0.44229 5.02066,18.17675 9.82709,26.85157 18.38651,25.88712 4.71438,-0.5312 10.80402,-5.64386 16.09073,-11.80961"
       id="path844-5-0"
       inkscape:connector-curvature="0"
       sodipodi:nodetypes="csssc" />
  </g>
</svg>
