<?xml version="1.0" encoding="UTF-8" standalone="no"?>
<!-- Created with Inkscape (http://www.inkscape.org/) -->

<svg
   xmlns:dc="http://purl.org/dc/elements/1.1/"
   xmlns:cc="http://creativecommons.org/ns#"
   xmlns:rdf="http://www.w3.org/1999/02/22-rdf-syntax-ns#"
   xmlns:svg="http://www.w3.org/2000/svg"
   xmlns="http://www.w3.org/2000/svg"
   xmlns:sodipodi="http://sodipodi.sourceforge.net/DTD/sodipodi-0.dtd"
   xmlns:inkscape="http://www.inkscape.org/namespaces/inkscape"
   width="297mm"
   height="210mm"
   viewBox="0 0 1052.3622 744.09448"
   id="svg2"
   version="1.1"
   inkscape:version="0.92.3 (2405546, 2018-03-11)"
   sodipodi:docname="DEK Deutsche Einheitskurzschrift - Verkehrsschrift - Schaltprogramm.svg">
  <defs
     id="defs4" />
  <sodipodi:namedview
     id="base"
     pagecolor="#ffffff"
     bordercolor="#666666"
     borderopacity="1.0"
     inkscape:pageopacity="0.0"
     inkscape:pageshadow="2"
     inkscape:zoom="0.7"
     inkscape:cx="867.29899"
     inkscape:cy="442.78465"
     inkscape:document-units="px"
     inkscape:current-layer="layer2"
     showgrid="false"
     inkscape:window-width="1920"
     inkscape:window-height="1017"
     inkscape:window-x="1592"
     inkscape:window-y="-8"
     inkscape:window-maximized="1" />
  <metadata
     id="metadata7">
    <rdf:RDF>
      <cc:Work
         rdf:about="">
        <dc:format>image/svg+xml</dc:format>
        <dc:type
           rdf:resource="http://purl.org/dc/dcmitype/StillImage" />
        <dc:title></dc:title>
      </cc:Work>
    </rdf:RDF>
  </metadata>
  <g
     inkscape:label="Grundlinien"
     inkscape:groupmode="layer"
     id="layer1"
     transform="translate(0,-308.26772)"
     style="display:inline"
     sodipodi:insensitive="true">
    <path
       style="fill:none;fill-rule:evenodd;stroke:#969696;stroke-width:1.875;stroke-linecap:round;stroke-linejoin:miter;stroke-miterlimit:4;stroke-dasharray:none;stroke-opacity:1"
       d="M 57.556226,742.24566 H 1006.4206"
       id="path3336"
       inkscape:connector-curvature="0"
       sodipodi:nodetypes="cc" />
    <path
       style="fill:none;fill-rule:evenodd;stroke:#000000;stroke-width:0.9375;stroke-linecap:round;stroke-linejoin:miter;stroke-miterlimit:2;stroke-dasharray:3.74999998, 7.49999996;stroke-dashoffset:0;stroke-opacity:1"
       d="M 58.279456,844.14792 H 1007.1438"
       id="path3336-4"
       inkscape:connector-curvature="0"
       sodipodi:nodetypes="cc" />
    <path
       style="fill:none;fill-rule:evenodd;stroke:#000000;stroke-width:0.9375;stroke-linecap:round;stroke-linejoin:miter;stroke-miterlimit:2;stroke-dasharray:3.74999998, 7.49999996;stroke-dashoffset:0;stroke-opacity:1"
       d="M 58.279456,641.7697 H 1007.1438"
       id="path3336-7"
       inkscape:connector-curvature="0"
       sodipodi:nodetypes="cc" />
    <path
       style="fill:none;fill-rule:evenodd;stroke:#000000;stroke-width:0.9375;stroke-linecap:round;stroke-linejoin:miter;stroke-miterlimit:2;stroke-dasharray:3.74999998, 7.49999996;stroke-dashoffset:0;stroke-opacity:1"
       d="M 58.279456,540.58062 H 1007.1438"
       id="path3336-2"
       inkscape:connector-curvature="0"
       sodipodi:nodetypes="cc" />
  </g>
  <g
     inkscape:groupmode="layer"
     id="layer2"
     inkscape:label="Buchstaben"
     style="display:inline">
    <path
       style="display:inline;fill:none;fill-rule:evenodd;stroke:#000000;stroke-width:5.625;stroke-linecap:round;stroke-linejoin:round;stroke-miterlimit:4;stroke-dasharray:none;stroke-opacity:1"
       d="m 389.82888,431.48213 60.561,-109.03903 c 26.375,-48.601 51.977,-72.934 91.19399,-88.47"
       id="path844-5-0"
       inkscape:connector-curvature="0"
       sodipodi:nodetypes="ccc" />
    <path
       style="display:inline;fill:none;fill-rule:evenodd;stroke:#000000;stroke-width:5.625;stroke-linecap:round;stroke-linejoin:round;stroke-miterlimit:4;stroke-dasharray:none;stroke-opacity:1"
       d="m 808.34568,235.07602 c 18.6448,-5.32526 31.4774,11.20676 12.7017,43.06632 l -90.0047,152.72392"
       id="path12351-0"
       inkscape:connector-curvature="0"
       sodipodi:nodetypes="csc" />
    <path
       style="display:inline;fill:none;fill-rule:evenodd;stroke:#000000;stroke-width:5.625;stroke-linecap:round;stroke-linejoin:round;stroke-miterlimit:4;stroke-dasharray:none;stroke-opacity:1"
       d="m 389.82888,431.48213 c 0,0 384.0614,-189.33184 418.5168,-196.40611"
       id="path844-5-5-4"
       inkscape:connector-curvature="0"
       sodipodi:nodetypes="cc" />
    <path
       style="display:inline;fill:none;fill-rule:evenodd;stroke:#000000;stroke-width:5.625;stroke-linecap:round;stroke-linejoin:round;stroke-miterlimit:4;stroke-dasharray:none;stroke-opacity:1"
       d="m 731.04268,430.86626 c 19.1064,-11.89514 78.2327,-79.29033 84.4007,-84.27132 23.7262,-19.158 60.9472,-14.63901 37.4822,14.37199 -27.3752,33.846 -45.4562,50.228 -39.4402,63.891 4.204,9.55001 23.1393,7.19601 36.4992,-3.66999"
       id="path844-52-8-9"
       inkscape:connector-curvature="0"
       sodipodi:nodetypes="csssc" />
    <path
       style="display:inline;fill:none;fill-rule:evenodd;stroke:#000000;stroke-width:5.625;stroke-linecap:round;stroke-linejoin:miter;stroke-miterlimit:4;stroke-dasharray:none;stroke-opacity:1"
       d="m 853.76658,338.17994 c 14.535,10.11799 4.342,27.83599 -12.394,44.157 -14.3742,14.01799 -23.3642,26.37999 -29.5122,38.707"
       id="path1647-51-63"
       inkscape:connector-curvature="0"
       sodipodi:nodetypes="csc" />
    <path
       style="display:inline;fill:none;fill-rule:evenodd;stroke:#000000;stroke-width:5.625;stroke-linecap:round;stroke-linejoin:miter;stroke-miterlimit:4;stroke-dasharray:none;stroke-opacity:1"
       d="m 853.76658,338.17994 c 0.783,-1.119 3.882,6.11599 0.736,14.24199 -3.248,8.39001 -12.84,17.77701 -18.3039,22.929 -10.7573,10.14201 -30.5923,28.96401 -24.3383,45.69301"
       id="path1647-5-7-53"
       inkscape:connector-curvature="0"
       sodipodi:nodetypes="cssc" />
    <path
       style="display:inline;fill:none;fill-rule:evenodd;stroke:#000000;stroke-width:2.8125;stroke-linecap:round;stroke-linejoin:miter;stroke-miterlimit:4;stroke-dasharray:none;stroke-opacity:1"
       d="m 845.21658,336.47093 c 11.256,1.32501 8.788,6.51501 9.081,10.975"
       id="path1647-0-8-0"
       inkscape:connector-curvature="0"
       sodipodi:nodetypes="cc" />
    <path
       style="display:inline;fill:none;fill-rule:evenodd;stroke:#000000;stroke-width:2.8125;stroke-linecap:round;stroke-linejoin:miter;stroke-miterlimit:4;stroke-dasharray:none;stroke-opacity:1"
       d="m 816.98138,413.75393 c -2.696,4.92 -3.763,12.04 2.312,14.485"
       id="path1647-1-3-4"
       inkscape:connector-curvature="0"
       sodipodi:nodetypes="cc" />
    <path
       style="display:inline;fill:none;fill-rule:evenodd;stroke:#000000;stroke-width:2.8125;stroke-linecap:round;stroke-linejoin:miter;stroke-miterlimit:4;stroke-dasharray:none;stroke-opacity:1"
       d="m 809.26338,415.09694 c -0.102,5.656 2.886,11.511 4.864,13.146"
       id="path1647-1-1-3-3"
       inkscape:connector-curvature="0"
       sodipodi:nodetypes="cc" />
    <path
       style="display:inline;fill:none;fill-opacity:1;fill-rule:evenodd;stroke:#0a0a0a;stroke-width:5.625;stroke-linecap:round;stroke-linejoin:round;stroke-miterlimit:4;stroke-dasharray:none;stroke-opacity:1"
       d="m 312.04078,411.80172 c 1.19501,0.119 2.238,0.375 3.08,0.80501 0.276,0.13999 0.531,0.29899 0.762,0.47799 1.492,1.15401 2.035,3.139 1.201,6.309 -1.624,6.17901 -8.60899,9.721 -11.92999,10.978 -6.87501,2.49 -11.97,-3.17899 -8.04101,-9.271 2.45501,-3.80799 6.71501,-8.03199 11.739,-9.071 0.342,-0.07 0.687,-0.127 1.035,-0.16699 0.419,-0.05 0.842,-0.07 1.269,-0.07 0.969,0 1.958,0.127 2.96201,0.403"
       id="path12351-7-1-4-7-1-2-9-39"
       inkscape:connector-curvature="0"
       sodipodi:nodetypes="cssscssssc" />
    <path
       style="display:inline;fill:none;fill-opacity:1;fill-rule:evenodd;stroke:#0a0a0a;stroke-width:10.3125;stroke-linecap:round;stroke-linejoin:round;stroke-miterlimit:4;stroke-dasharray:none;stroke-opacity:1"
       d="m 309.62679,417.29172 c 0.56499,0.06 1.05799,0.177 1.45599,0.38 0.13,0.07 0.25101,0.142 0.36,0.226 0.706,0.545 0.963,1.484 0.568,2.984 -0.768,2.92101 -4.071,4.596 -5.641,5.191 -3.24999,1.17701 -5.66,-1.504 -3.80199,-4.384 1.161,-1.80099 3.17499,-3.798 5.55099,-4.29 0.16101,-0.03 0.324,-0.06 0.489,-0.08 0.198,-0.02 0.39801,-0.04 0.6,-0.04 0.45801,0 0.92601,0.06 1.401,0.19"
       id="path12351-7-1-4-7-1-2-1-2-1"
       inkscape:connector-curvature="0"
       sodipodi:nodetypes="cssscssssc" />
    <path
       style="display:inline;fill:none;fill-rule:evenodd;stroke:#000000;stroke-width:5.625;stroke-linecap:round;stroke-linejoin:round;stroke-miterlimit:4;stroke-dasharray:none;stroke-opacity:1"
       d="m 256.50542,430.5807 c -16.50631,2.56751 -19.83578,5.62852 -30.28087,11.2759 -13.30253,7.19232 -27.98275,18.07571 -38.72082,29.76326 -17.8458,18.87558 -38.50936,44.4374 -35.34131,56.19584 0.933,3.011 16.314,22.901 59.804,-38.095 26.944,-36.889 54.63902,-73.40101 69.33601,-116.41302 15.50599,-30.05199 -6.84801,-59.64699 -43.50001,-13.332"
       id="path12351-7-1-8-43-1-7"
       inkscape:connector-curvature="0"
       sodipodi:nodetypes="csccccc" />
    <path
       style="display:inline;fill:none;fill-rule:evenodd;stroke:#0a0a0a;stroke-width:5.625;stroke-linecap:round;stroke-linejoin:round;stroke-miterlimit:4;stroke-dasharray:none;stroke-opacity:1"
       d="m 256.50542,430.5807 c 13.18334,0.67742 34.01244,2.35969 45.42065,0.60164"
       id="path844-5-9-31-47-9-9-0-4"
       inkscape:connector-curvature="0"
       sodipodi:nodetypes="cc" />
    <path
       style="display:inline;fill:none;fill-rule:evenodd;stroke:#0a0a0a;stroke-width:5.625;stroke-linecap:round;stroke-linejoin:round;stroke-miterlimit:4;stroke-dasharray:none;stroke-opacity:1"
       d="M 315.62272,422.56921 418.47687,235.17061"
       id="path12351-7-1-4-3-05-69-7"
       inkscape:connector-curvature="0"
       sodipodi:nodetypes="cc" />
  </g>
</svg>
