<?xml version="1.0" encoding="UTF-8" standalone="no"?>
<!-- Created with Inkscape (http://www.inkscape.org/) -->

<svg
   xmlns:dc="http://purl.org/dc/elements/1.1/"
   xmlns:cc="http://creativecommons.org/ns#"
   xmlns:rdf="http://www.w3.org/1999/02/22-rdf-syntax-ns#"
   xmlns:svg="http://www.w3.org/2000/svg"
   xmlns="http://www.w3.org/2000/svg"
   xmlns:sodipodi="http://sodipodi.sourceforge.net/DTD/sodipodi-0.dtd"
   xmlns:inkscape="http://www.inkscape.org/namespaces/inkscape"
   width="297mm"
   height="210mm"
   viewBox="0 0 1052.3622 744.09448"
   id="svg2"
   version="1.1"
   inkscape:version="0.92.3 (2405546, 2018-03-11)"
   sodipodi:docname="DEK Deutsche Einheitskurzschrift - Verkehrsschrift - Eisschnellläufer.svg">
  <defs
     id="defs4" />
  <sodipodi:namedview
     id="base"
     pagecolor="#ffffff"
     bordercolor="#666666"
     borderopacity="1.0"
     inkscape:pageopacity="0.0"
     inkscape:pageshadow="2"
     inkscape:zoom="0.98994949"
     inkscape:cx="564.72124"
     inkscape:cy="395.37933"
     inkscape:document-units="px"
     inkscape:current-layer="layer2"
     showgrid="false"
     inkscape:window-width="1920"
     inkscape:window-height="1017"
     inkscape:window-x="1592"
     inkscape:window-y="-8"
     inkscape:window-maximized="1" />
  <metadata
     id="metadata7">
    <rdf:RDF>
      <cc:Work
         rdf:about="">
        <dc:format>image/svg+xml</dc:format>
        <dc:type
           rdf:resource="http://purl.org/dc/dcmitype/StillImage" />
        <dc:title></dc:title>
      </cc:Work>
    </rdf:RDF>
  </metadata>
  <g
     inkscape:label="Grundlinien"
     inkscape:groupmode="layer"
     id="layer1"
     transform="translate(0,-308.26772)"
     style="display:inline"
     sodipodi:insensitive="true">
    <path
       style="fill:none;fill-rule:evenodd;stroke:#969696;stroke-width:1.875;stroke-linecap:round;stroke-linejoin:miter;stroke-miterlimit:4;stroke-dasharray:none;stroke-opacity:1"
       d="M 57.556226,742.24566 H 1006.4206"
       id="path3336"
       inkscape:connector-curvature="0"
       sodipodi:nodetypes="cc" />
    <path
       style="fill:none;fill-rule:evenodd;stroke:#000000;stroke-width:0.9375;stroke-linecap:round;stroke-linejoin:miter;stroke-miterlimit:2;stroke-dasharray:3.74999998, 7.49999996;stroke-dashoffset:0;stroke-opacity:1"
       d="M 58.279456,844.14792 H 1007.1438"
       id="path3336-4"
       inkscape:connector-curvature="0"
       sodipodi:nodetypes="cc" />
    <path
       style="fill:none;fill-rule:evenodd;stroke:#000000;stroke-width:0.9375;stroke-linecap:round;stroke-linejoin:miter;stroke-miterlimit:2;stroke-dasharray:3.74999998, 7.49999996;stroke-dashoffset:0;stroke-opacity:1"
       d="M 58.279456,641.7697 H 1007.1438"
       id="path3336-7"
       inkscape:connector-curvature="0"
       sodipodi:nodetypes="cc" />
    <path
       style="fill:none;fill-rule:evenodd;stroke:#000000;stroke-width:0.9375;stroke-linecap:round;stroke-linejoin:miter;stroke-miterlimit:2;stroke-dasharray:3.74999998, 7.49999996;stroke-dashoffset:0;stroke-opacity:1"
       d="M 58.279456,540.58062 H 1007.1438"
       id="path3336-2"
       inkscape:connector-curvature="0"
       sodipodi:nodetypes="cc" />
  </g>
  <g
     inkscape:groupmode="layer"
     id="layer2"
     inkscape:label="Buchstaben"
     style="display:inline">
    <path
       style="display:inline;fill:none;fill-rule:evenodd;stroke:#000000;stroke-width:5.625;stroke-linecap:round;stroke-linejoin:round;stroke-miterlimit:4;stroke-dasharray:none;stroke-opacity:1"
       d="m 451.4462,431.77757 c -4.93781,0.24094 -9.39421,-1.21608 -12.86372,-9.08042 -6.63353,-15.03621 -9.566,-18.201 -21.41598,-18.825 -4.50702,-0.238 -12.37902,1.176 -19.02402,7.914 -20.483,20.767 -41.778,50.732 -56.368,75.02802 -5.654,11.118 -30.361,44.77399 -8.146,45.948 8.828,0.258 24.366,-7.44202 49.983,-43.371 26.943,-36.88802 53.218,-75.29502 67.915,-118.30702 14.50153,-39.426 -10.48043,-45.89244 -56.205,-33.57294"
       id="path12351-7-1-8-3-7"
       inkscape:connector-curvature="0"
       sodipodi:nodetypes="csssccccc" />
    <path
       style="display:inline;fill:none;fill-rule:evenodd;stroke:#000000;stroke-width:5.625;stroke-linecap:round;stroke-linejoin:round;stroke-miterlimit:4;stroke-dasharray:none;stroke-opacity:1"
       d="m 496.39624,420.78492 c 0.66017,0.0672 1.23573,0.20685 1.70182,0.44392 0.15179,0.0779 0.29281,0.16589 0.42043,0.26462 0.82471,0.63733 1.12491,1.73406 0.6642,3.48624 -0.89793,3.41372 -4.75691,5.37007 -6.59171,6.06517 -3.79854,1.37543 -6.61319,-1.75688 -4.44327,-5.12359 1.35662,-2.10344 3.7099,-4.43723 6.48626,-5.01077 0.18872,-0.0403 0.37945,-0.0699 0.57153,-0.092 0.23171,-0.0269 0.46541,-0.0403 0.70182,-0.0403 0.53459,0 1.08126,0.0699 1.636,0.22298"
       id="path12351-7-1-4-58-7-2-1-7-79-8"
       inkscape:connector-curvature="0"
       sodipodi:nodetypes="cssscssssc" />
    <path
       style="display:inline;fill:none;fill-rule:evenodd;stroke:#000000;stroke-width:5.625;stroke-linecap:round;stroke-linejoin:round;stroke-miterlimit:4;stroke-dasharray:none;stroke-opacity:1"
       d="m 451.4462,431.77757 64.28682,-0.15582"
       id="path844-99-4-6-9-5-4-5"
       inkscape:connector-curvature="0"
       sodipodi:nodetypes="cc" />
    <path
       style="display:inline;fill:none;fill-rule:evenodd;stroke:#000000;stroke-width:5.625;stroke-linecap:round;stroke-linejoin:round;stroke-miterlimit:4;stroke-dasharray:none;stroke-opacity:1"
       d="m 473.03886,421.02933 c 0.66017,0.0672 1.23574,0.20685 1.70182,0.44392 0.15178,0.0779 0.29281,0.16589 0.42043,0.26462 0.8247,0.63733 1.12491,1.73406 0.6642,3.48624 -0.89793,3.41371 -4.75691,5.37008 -6.59171,6.06518 -3.79854,1.37542 -6.61319,-1.75689 -4.44327,-5.1236 1.35662,-2.10344 3.70989,-4.43723 6.48626,-5.01077 0.18872,-0.0403 0.37946,-0.0699 0.57153,-0.092 0.2317,-0.0269 0.46541,-0.0403 0.70182,-0.0403 0.53459,0 1.08126,0.0699 1.63601,0.22298"
       id="path12351-7-1-4-58-7-2-1-7-79-8-0"
       inkscape:connector-curvature="0"
       sodipodi:nodetypes="cssscssssc" />
    <path
       style="display:inline;fill:none;fill-rule:evenodd;stroke:#000000;stroke-width:5.625;stroke-linecap:round;stroke-linejoin:round;stroke-miterlimit:4;stroke-dasharray:none;stroke-opacity:1"
       d="M 199.33811,430.75005 395.32148,337.51121"
       id="path844-5-4-9"
       inkscape:connector-curvature="0"
       sodipodi:nodetypes="cc" />
    <ellipse
       style="display:inline;fill:none;fill-opacity:1;stroke:#000000;stroke-width:5.625;stroke-linecap:round;stroke-linejoin:round;stroke-miterlimit:4;stroke-dasharray:none;stroke-dashoffset:0;stroke-opacity:1;paint-order:stroke fill markers"
       id="path44014-1-3-5-4-20-28-3"
       cx="97.203903"
       cy="528.32745"
       rx="25.728558"
       ry="20.371416"
       transform="rotate(-37.736319)" />
    <path
       style="display:inline;fill:none;fill-rule:evenodd;stroke:#000001;stroke-width:5.625;stroke-linecap:round;stroke-linejoin:round;stroke-miterlimit:4;stroke-dasharray:none;stroke-opacity:1"
       d="m 515.73302,431.62175 c 0,0 240.59605,-29.60789 251.64516,-35.63468"
       id="path844-648-6-2-07"
       inkscape:connector-curvature="0"
       sodipodi:nodetypes="cc" />
    <path
       style="display:inline;fill:none;fill-rule:evenodd;stroke:#000000;stroke-width:5.625;stroke-linecap:round;stroke-linejoin:round;stroke-miterlimit:4;stroke-dasharray:none;stroke-opacity:1"
       d="m 767.37818,395.98707 c 8.51957,-2.4658 16.93213,-5.68917 24.93609,-9.31568"
       id="path12351-7-1-9-0-74"
       inkscape:connector-curvature="0"
       sodipodi:nodetypes="cc" />
    <path
       style="display:inline;fill:none;fill-rule:evenodd;stroke:#000000;stroke-width:5.625;stroke-linecap:round;stroke-linejoin:miter;stroke-miterlimit:4;stroke-dasharray:none;stroke-opacity:1"
       d="m 868.43724,293.49808 c -48.026,60.01 -85.64604,120.55001 -108.43404,181.82001"
       id="path1428-8-2-5"
       inkscape:connector-curvature="0"
       sodipodi:nodetypes="cc" />
    <path
       style="display:inline;fill:none;fill-rule:evenodd;stroke:#000000;stroke-width:7.49999952;stroke-linecap:round;stroke-linejoin:miter;stroke-miterlimit:4;stroke-dasharray:none;stroke-opacity:1"
       d="m 857.42824,303.55808 c -38.262,44.85 -72.93604,96.88 -94.82104,156.85001"
       id="path1428-7-76-5-8"
       inkscape:connector-curvature="0"
       sodipodi:nodetypes="cc" />
    <path
       style="display:inline;fill:none;fill-rule:evenodd;stroke:#000000;stroke-width:3.74999976;stroke-linecap:round;stroke-linejoin:miter;stroke-miterlimit:4;stroke-dasharray:none;stroke-opacity:1"
       d="m 884.13004,287.31246 c -13.18099,0.18348 -22.8028,16.46562 -25.2828,19.43562"
       id="path1428-1-6-8-5"
       inkscape:connector-curvature="0"
       sodipodi:nodetypes="cc" />
    <path
       style="display:inline;fill:none;fill-rule:evenodd;stroke:#000000;stroke-width:5.625;stroke-linecap:round;stroke-linejoin:miter;stroke-miterlimit:4;stroke-dasharray:none;stroke-opacity:1"
       d="m 765.6252,461.11809 c -3.72587,13.39764 -3.56189,19.02313 0.58669,21.29893"
       id="path1428-0-8-0-7"
       inkscape:connector-curvature="0"
       sodipodi:nodetypes="cc" />
    <path
       style="display:inline;fill:none;fill-rule:evenodd;stroke:#000000;stroke-width:5.625;stroke-linecap:round;stroke-linejoin:round;stroke-miterlimit:4;stroke-dasharray:none;stroke-opacity:1"
       d="m 797.91667,385.74851 c 54.30998,-10.96 95.51798,-79.45 89.16098,-96.16 -5.478,-14.39 -40.25001,8.89 -87.43498,86.78 -46.5799,80.46094 -46.93325,108.35757 -29.08421,106.28669 17.33835,-2.37547 27.35321,-8.07429 49.14298,-23.90397"
       id="path12351-7-1-9"
       inkscape:connector-curvature="0"
       sodipodi:nodetypes="csccc" />
    <path
       style="display:inline;fill:none;fill-rule:evenodd;stroke:#000000;stroke-width:5.625;stroke-linecap:round;stroke-linejoin:round;stroke-miterlimit:4;stroke-dasharray:none;stroke-opacity:1"
       d="m 819.70144,458.75123 30.0008,-22.54207 20.03301,47.88"
       id="path844-5-6-5-95-0"
       inkscape:connector-curvature="0"
       sodipodi:nodetypes="ccc" />
    <path
       style="display:inline;fill:none;fill-rule:evenodd;stroke:#000000;stroke-width:5.625;stroke-linecap:round;stroke-linejoin:round;stroke-miterlimit:4;stroke-dasharray:none;stroke-opacity:1"
       d="m 520.54846,420.67018 c 0.66017,0.0672 1.23572,0.20685 1.70181,0.44392 0.15179,0.0779 0.29281,0.16589 0.42043,0.26462 0.82471,0.63733 1.12491,1.73406 0.6642,3.48624 -0.89792,3.41372 -4.75691,5.37007 -6.59171,6.06517 -3.79853,1.37543 -6.61319,-1.75688 -4.44327,-5.12359 1.35663,-2.10344 3.7099,-4.43723 6.48626,-5.01077 0.18872,-0.0403 0.37945,-0.0699 0.57153,-0.092 0.23171,-0.0269 0.46541,-0.0403 0.70182,-0.0403 0.53459,0 1.08127,0.0699 1.636,0.22297"
       id="path12351-7-1-4-58-7-2-1-7-79-8-5-0"
       inkscape:connector-curvature="0"
       sodipodi:nodetypes="cssscssssc" />
  </g>
</svg>
