<?xml version="1.0" encoding="UTF-8" standalone="no"?>
<!-- Created with Inkscape (http://www.inkscape.org/) -->

<svg
   xmlns:dc="http://purl.org/dc/elements/1.1/"
   xmlns:cc="http://creativecommons.org/ns#"
   xmlns:rdf="http://www.w3.org/1999/02/22-rdf-syntax-ns#"
   xmlns:svg="http://www.w3.org/2000/svg"
   xmlns="http://www.w3.org/2000/svg"
   xmlns:sodipodi="http://sodipodi.sourceforge.net/DTD/sodipodi-0.dtd"
   xmlns:inkscape="http://www.inkscape.org/namespaces/inkscape"
   width="297mm"
   height="210mm"
   viewBox="0 0 1052.3622 744.09448"
   id="svg2"
   version="1.1"
   inkscape:version="0.92.3 (2405546, 2018-03-11)"
   sodipodi:docname="DEK Deutsche Einheitskurzschrift - Verkehrsschrift - handwerklich.svg">
  <defs
     id="defs4" />
  <sodipodi:namedview
     id="base"
     pagecolor="#ffffff"
     bordercolor="#666666"
     borderopacity="1.0"
     inkscape:pageopacity="0.0"
     inkscape:pageshadow="2"
     inkscape:zoom="0.9899495"
     inkscape:cx="384.56082"
     inkscape:cy="380.68396"
     inkscape:document-units="px"
     inkscape:current-layer="layer2"
     showgrid="false"
     inkscape:window-width="1920"
     inkscape:window-height="1017"
     inkscape:window-x="1592"
     inkscape:window-y="-8"
     inkscape:window-maximized="1"
     showguides="true"
     inkscape:guide-bbox="true" />
  <metadata
     id="metadata7">
    <rdf:RDF>
      <cc:Work
         rdf:about="">
        <dc:format>image/svg+xml</dc:format>
        <dc:type
           rdf:resource="http://purl.org/dc/dcmitype/StillImage" />
        <dc:title></dc:title>
      </cc:Work>
    </rdf:RDF>
  </metadata>
  <g
     inkscape:label="Grundlinien"
     inkscape:groupmode="layer"
     id="layer1"
     transform="translate(0,-308.26772)"
     sodipodi:insensitive="true">
    <path
       style="fill:none;fill-rule:evenodd;stroke:#969696;stroke-width:1.875;stroke-linecap:round;stroke-linejoin:miter;stroke-miterlimit:4;stroke-dasharray:none;stroke-opacity:1"
       d="M 57.556226,742.24566 H 1006.4206"
       id="path3336"
       inkscape:connector-curvature="0"
       sodipodi:nodetypes="cc" />
    <path
       style="fill:none;fill-rule:evenodd;stroke:#000000;stroke-width:0.9375;stroke-linecap:round;stroke-linejoin:miter;stroke-miterlimit:2;stroke-dasharray:3.74999998, 7.49999996;stroke-dashoffset:0;stroke-opacity:1"
       d="M 58.279456,844.14792 H 1007.1438"
       id="path3336-4"
       inkscape:connector-curvature="0"
       sodipodi:nodetypes="cc" />
    <path
       style="fill:none;fill-rule:evenodd;stroke:#000000;stroke-width:0.9375;stroke-linecap:round;stroke-linejoin:miter;stroke-miterlimit:2;stroke-dasharray:3.74999998, 7.49999996;stroke-dashoffset:0;stroke-opacity:1"
       d="M 58.279456,641.7697 H 1007.1438"
       id="path3336-7"
       inkscape:connector-curvature="0"
       sodipodi:nodetypes="cc" />
    <path
       style="fill:none;fill-rule:evenodd;stroke:#000000;stroke-width:0.9375;stroke-linecap:round;stroke-linejoin:miter;stroke-miterlimit:2;stroke-dasharray:3.74999998, 7.49999996;stroke-dashoffset:0;stroke-opacity:1"
       d="M 58.279456,540.58062 H 1007.1438"
       id="path3336-2"
       inkscape:connector-curvature="0"
       sodipodi:nodetypes="cc" />
  </g>
  <g
     inkscape:groupmode="layer"
     id="layer2"
     inkscape:label="Stenozeichen"
     style="display:inline">
    <path
       style="display:inline;fill:none;fill-rule:evenodd;stroke:#000000;stroke-width:5.625;stroke-linecap:round;stroke-linejoin:round;stroke-miterlimit:4;stroke-dasharray:none;stroke-opacity:1"
       d="m 603.52728,410.41661 35.14192,-30.52185 22.91313,51.40436"
       id="path844-5-6-5-7"
       inkscape:connector-curvature="0"
       sodipodi:nodetypes="ccc" />
    <path
       style="display:inline;fill:none;fill-rule:evenodd;stroke:#000000;stroke-width:5.625;stroke-linecap:round;stroke-linejoin:round;stroke-miterlimit:4;stroke-dasharray:none;stroke-opacity:1"
       d="m 618.43458,334.33973 c -57.91282,15.12429 -107.04089,146.65448 -14.9073,76.07688"
       id="path844-39-6"
       inkscape:connector-curvature="0"
       sodipodi:nodetypes="cc" />
    <path
       style="display:inline;fill:none;fill-rule:evenodd;stroke:#000000;stroke-width:5.625;stroke-linecap:round;stroke-linejoin:round;stroke-miterlimit:4;stroke-dasharray:none;stroke-opacity:1"
       d="m 661.58233,431.29912 c 49.32458,-62.88393 100.8456,-48.24479 86.71207,0.31217"
       id="path4752-1-5"
       inkscape:connector-curvature="0"
       sodipodi:nodetypes="cc" />
    <path
       style="display:inline;fill:none;fill-rule:evenodd;stroke:#000000;stroke-width:5.625;stroke-linecap:round;stroke-linejoin:round;stroke-miterlimit:4;stroke-dasharray:none;stroke-opacity:1"
       d="m 390.65505,353.70036 c 73.01603,-59.35212 34.77806,42.73435 -8.97449,74.60865 -1.93749,1.41149 -5.70046,4.7081 -12.0994,3.23434 -4.87057,-1.12176 -6.17513,-12.08018 -1.39407,-17.12423 11.40331,-12.27408 16.86087,-16.83218 31.79384,-27.64235"
       id="path844-7-9-8"
       inkscape:connector-curvature="0"
       sodipodi:nodetypes="csscc" />
    <path
       style="display:inline;fill:none;fill-rule:evenodd;stroke:#000000;stroke-width:5.625;stroke-linecap:round;stroke-linejoin:round;stroke-miterlimit:4;stroke-dasharray:none;stroke-opacity:1"
       d="m 399.38904,387.25028 c 21.15857,-15.92912 61.35975,-41.22171 73.44011,-48.10608 11.08024,-3.43917 16.6123,-4.225 21.00464,4.35653 6.50677,12.71261 3.98901,18.176 12.27201,27.18701 15.888,17.285 43.807,-27.80901 34.48399,-34.29901 -6.291,-4.379 -25.927,3.212 -49.407,41.97301 -35.333,57.804 -16.503,60.498 7.949,46.626"
       id="path12351-7-1-6-7-5-2"
       inkscape:connector-curvature="0"
       sodipodi:nodetypes="ccssscc" />
    <path
       style="display:inline;fill:none;fill-rule:evenodd;stroke:#000000;stroke-width:5.625;stroke-linecap:round;stroke-linejoin:round;stroke-miterlimit:4;stroke-dasharray:none;stroke-opacity:1"
       d="m 468.88909,341.72962 c 9.616,-6.843 18.03,4.094 21.55599,15.758 3.17601,10.508 8.67,18.037 23.92701,17.109"
       id="path844-5-1-0-7-3-4-5-3-5-9-3-1-1"
       inkscape:connector-curvature="0"
       sodipodi:nodetypes="csc" />
    <path
       style="display:inline;fill:none;fill-rule:evenodd;stroke:#000000;stroke-width:5.625;stroke-linecap:round;stroke-linejoin:round;stroke-miterlimit:4;stroke-dasharray:none;stroke-opacity:1"
       d="m 480.77509,337.96262 c 13.578,0.734 15.099,28.34 22.112,29.974"
       id="path844-5-1-0-7-3-4-5-35-2-0-7-1"
       inkscape:connector-curvature="0"
       sodipodi:nodetypes="cc" />
    <path
       style="display:inline;fill:none;fill-rule:evenodd;stroke:#000000;stroke-width:5.625;stroke-linecap:round;stroke-linejoin:round;stroke-miterlimit:4;stroke-dasharray:none;stroke-opacity:1"
       d="m 592.17849,348.39624 c 0,0 -73.62706,62.86382 -93.0467,76.5915"
       id="path844-5-6-5-7-9"
       inkscape:connector-curvature="0"
       sodipodi:nodetypes="cc" />
    <path
       style="display:inline;fill:none;fill-rule:evenodd;stroke:#00001f;stroke-width:5.625;stroke-linecap:round;stroke-linejoin:round;stroke-miterlimit:4;stroke-dasharray:none;stroke-opacity:1"
       d="m 748.2944,431.61129 c 10.154,-5.809 20.237,-9.006 25.517,-10.401 11.18,-2.953 25.48,-3.102 24.085,4.704 -0.02,0.232 0.06,0.446 0.06,0.665 0.02,1.412 -0.577,2.713 -2.085,3.845 -2.938,2.207 -6.939,0.774 -8.494,-0.44 -3.278,-0.509 -1,-11.937 -0.04,-10.606 1.734,2.396 0,0 8.781,2.757 0.181,0.06 0.269,0.319 0.396,0.493 0.153,0.208 0.425,0.652 0.563,0.89 0.309,0.538 0.449,0.931 0.662,1.629"
       id="path12351-7-1-4-97-0-6-1"
       inkscape:connector-curvature="0"
       sodipodi:nodetypes="cscsscssssc" />
    <path
       style="display:inline;fill:none;fill-opacity:1;stroke:#000000;stroke-width:5.625;stroke-linecap:round;stroke-linejoin:round;stroke-miterlimit:4;stroke-dasharray:none;stroke-dashoffset:0;stroke-opacity:1"
       id="path6585-73-3-9"
       sodipodi:type="arc"
       sodipodi:cx="792.18842"
       sodipodi:cy="425.90103"
       sodipodi:rx="5.4690289"
       sodipodi:ry="1.8230096"
       sodipodi:start="0"
       sodipodi:end="6.2778271"
       d="m 797.65744,425.90103 a 5.4690289,1.8230096 0 0 1 -5.4617,1.82301 5.4690289,1.8230096 0 0 1 -5.47633,-1.81812 5.4690289,1.8230096 0 0 1 5.44703,-1.82788 5.4690289,1.8230096 0 0 1 5.49093,1.81322 l -5.46895,0.01 z" />
  </g>
</svg>
