<?xml version="1.0" encoding="UTF-8" standalone="no"?>
<!-- Created with Inkscape (http://www.inkscape.org/) -->

<svg
   xmlns:dc="http://purl.org/dc/elements/1.1/"
   xmlns:cc="http://creativecommons.org/ns#"
   xmlns:rdf="http://www.w3.org/1999/02/22-rdf-syntax-ns#"
   xmlns:svg="http://www.w3.org/2000/svg"
   xmlns="http://www.w3.org/2000/svg"
   xmlns:sodipodi="http://sodipodi.sourceforge.net/DTD/sodipodi-0.dtd"
   xmlns:inkscape="http://www.inkscape.org/namespaces/inkscape"
   width="297mm"
   height="210mm"
   viewBox="0 0 1052.3622 744.09448"
   id="svg2"
   version="1.1"
   inkscape:version="0.92.3 (2405546, 2018-03-11)"
   sodipodi:docname="DEK Deutsche Einheitskurzschrift - Verkehrsschrift - enthusiastisch.svg">
  <defs
     id="defs4" />
  <sodipodi:namedview
     id="base"
     pagecolor="#ffffff"
     bordercolor="#666666"
     borderopacity="1.0"
     inkscape:pageopacity="0.0"
     inkscape:pageshadow="2"
     inkscape:zoom="0.7"
     inkscape:cx="456.70669"
     inkscape:cy="490.96408"
     inkscape:document-units="px"
     inkscape:current-layer="layer2"
     showgrid="false"
     inkscape:window-width="1920"
     inkscape:window-height="1017"
     inkscape:window-x="1592"
     inkscape:window-y="-8"
     inkscape:window-maximized="1"
     showguides="true"
     inkscape:guide-bbox="true" />
  <metadata
     id="metadata7">
    <rdf:RDF>
      <cc:Work
         rdf:about="">
        <dc:format>image/svg+xml</dc:format>
        <dc:type
           rdf:resource="http://purl.org/dc/dcmitype/StillImage" />
        <dc:title></dc:title>
      </cc:Work>
    </rdf:RDF>
  </metadata>
  <g
     inkscape:label="Grundlinien"
     inkscape:groupmode="layer"
     id="layer1"
     transform="translate(0,-308.26772)"
     style="display:inline"
     sodipodi:insensitive="true">
    <path
       style="fill:none;fill-rule:evenodd;stroke:#969696;stroke-width:1.875;stroke-linecap:round;stroke-linejoin:miter;stroke-miterlimit:4;stroke-dasharray:none;stroke-opacity:1"
       d="M 57.556226,742.24566 H 1006.4206"
       id="path3336"
       inkscape:connector-curvature="0"
       sodipodi:nodetypes="cc" />
    <path
       style="fill:none;fill-rule:evenodd;stroke:#000000;stroke-width:0.9375;stroke-linecap:round;stroke-linejoin:miter;stroke-miterlimit:2;stroke-dasharray:3.74999998, 7.49999996;stroke-dashoffset:0;stroke-opacity:1"
       d="M 58.279456,844.14792 H 1007.1438"
       id="path3336-4"
       inkscape:connector-curvature="0"
       sodipodi:nodetypes="cc" />
    <path
       style="fill:none;fill-rule:evenodd;stroke:#000000;stroke-width:0.9375;stroke-linecap:round;stroke-linejoin:miter;stroke-miterlimit:2;stroke-dasharray:3.74999998, 7.49999996;stroke-dashoffset:0;stroke-opacity:1"
       d="M 58.279456,641.7697 H 1007.1438"
       id="path3336-7"
       inkscape:connector-curvature="0"
       sodipodi:nodetypes="cc" />
    <path
       style="fill:none;fill-rule:evenodd;stroke:#000000;stroke-width:0.9375;stroke-linecap:round;stroke-linejoin:miter;stroke-miterlimit:2;stroke-dasharray:3.74999998, 7.49999996;stroke-dashoffset:0;stroke-opacity:1"
       d="M 58.279456,540.58062 H 1007.1438"
       id="path3336-2"
       inkscape:connector-curvature="0"
       sodipodi:nodetypes="cc" />
  </g>
  <g
     inkscape:groupmode="layer"
     id="layer2"
     inkscape:label="Stenozeichen"
     style="display:inline">
    <path
       style="display:inline;fill:none;fill-rule:evenodd;stroke:#000000;stroke-width:5.625;stroke-linecap:round;stroke-linejoin:round;stroke-miterlimit:4;stroke-dasharray:none;stroke-opacity:1"
       d="m 374.23956,431.1243 c 4.92902,0.56693 10.55083,-4.50525 14.65761,-7.40659 13.52601,-9.56 24.297,-23.74 34.48901,-39.05 l 30.91699,-49.97001"
       id="path844-59-4-8-0-7-9-4"
       inkscape:connector-curvature="0"
       sodipodi:nodetypes="cccc" />
    <path
       style="display:inline;fill:none;fill-rule:evenodd;stroke:#000000;stroke-width:5.625;stroke-linecap:round;stroke-linejoin:round;stroke-miterlimit:4;stroke-dasharray:none;stroke-opacity:1"
       d="m 419.10132,431.48906 c -20.18367,-1.48297 -44.86176,-0.36476 -44.86176,-0.36476"
       id="path851-7-8-7-6-3-7"
       inkscape:connector-curvature="0"
       sodipodi:nodetypes="cc" />
    <path
       style="display:inline;fill:none;fill-rule:evenodd;stroke:#000000;stroke-width:5.625;stroke-linecap:round;stroke-linejoin:round;stroke-miterlimit:4;stroke-dasharray:none;stroke-opacity:1"
       d="m 498.7097,336.64875 -79.48474,94.53652"
       id="path851-7-8-7-6-3-7-0"
       inkscape:connector-curvature="0"
       sodipodi:nodetypes="cc" />
    <ellipse
       style="display:inline;fill:none;fill-opacity:1;stroke:#000000;stroke-width:5.625;stroke-linecap:round;stroke-linejoin:round;stroke-miterlimit:4;stroke-dasharray:none;stroke-dashoffset:0;stroke-opacity:1;paint-order:stroke fill markers"
       id="path44014-1-3-5-4-29-47"
       cx="1423.8472"
       cy="1180.1055"
       rx="19.945965"
       ry="15.792861"
       transform="rotate(-37.736319)" />
    <path
       style="display:inline;fill:none;fill-rule:evenodd;stroke:#000000;stroke-width:5.625;stroke-linecap:round;stroke-linejoin:round;stroke-miterlimit:4;stroke-dasharray:none;stroke-opacity:1"
       d="m 1802.0293,54.227412 33.056,-26.879001 24.292,18.482001"
       id="path844-17-28-32-50"
       inkscape:connector-curvature="0"
       sodipodi:nodetypes="ccc" />
    <path
       style="display:inline;fill:none;fill-rule:evenodd;stroke:#000000;stroke-width:5.625;stroke-linecap:round;stroke-linejoin:round;stroke-miterlimit:4;stroke-dasharray:none;stroke-opacity:1"
       d="m 1845.8023,45.527412 c 12.064,-5.848001 21.62,-10.126001 34.674,-9.658001"
       id="path844-17-28-3-8"
       inkscape:connector-curvature="0"
       sodipodi:nodetypes="cc" />
    <path
       style="display:inline;fill:none;fill-rule:evenodd;stroke:#000000;stroke-width:5.625;stroke-linecap:round;stroke-linejoin:miter;stroke-miterlimit:4;stroke-dasharray:none;stroke-opacity:1"
       d="m 420.70846,430.81942 c 0,0 -14.516,19.121 -15.463,22.90899 -1.025,3.855 -1.1,7.68801 -0.283,11.14101 1.14,4.829 4.024,8.91499 8.488,11.277 2.123,1.122 4.43,1.76299 6.813,1.96099 2.725,0.227 5.549,-0.127 8.312,-1 2.114,-0.668 4.193,-1.64 6.163,-2.88999 1.427,-0.906 2.798,-1.95801 4.086,-3.14601 1.926,-1.77699 3.664,-3.85899 5.122,-6.21099 1.481,-2.389 2.556,-4.866 3.239,-7.338 0.784,-2.842 1.053,-5.677 0.829,-8.36001 -0.28,-3.34999 -1.328,-6.46399 -3.099,-9.06199 -1.468,-2.15501 -3.434,-3.957 -5.868,-5.24501 -2.113,-1.11699 -4.407,-1.75699 -6.776,-1.95799 l -11.563,-2.078"
       id="path822-8-4-9-3"
       inkscape:connector-curvature="0"
       sodipodi:nodetypes="ccssssssssssscc" />
    <path
       style="display:inline;fill:none;fill-rule:evenodd;stroke:#000000;stroke-width:5.625;stroke-linecap:round;stroke-linejoin:round;stroke-miterlimit:4;stroke-dasharray:none;stroke-opacity:1"
       d="m 611.20402,286.24867 c -19.09463,11.08457 -93.48752,77.98552 -102.86384,79.92439 -7.59915,1.57138 -17.82615,-3.25772 -9.63048,-29.52431"
       id="path844-5-58-9-5-3-7-8-3-3-6-4-6-0-6"
       inkscape:connector-curvature="0"
       sodipodi:nodetypes="csc" />
    <path
       style="display:inline;fill:none;fill-rule:evenodd;stroke:#000000;stroke-width:5.625;stroke-linecap:round;stroke-linejoin:round;stroke-miterlimit:4;stroke-dasharray:none;stroke-opacity:1"
       d="m 565.07365,370.60827 c -39.95079,31.1082 -80.98401,88.05999 -72.21301,103.88799 2.936,5.29701 34.66001,12.40601 62.34501,-63.34999 15.814,-47.43 16.454,-113.341 70.768,-131.559"
       id="path12351-7-1-8-02"
       inkscape:connector-curvature="0"
       sodipodi:nodetypes="cscc" />
    <path
       style="display:inline;fill:none;fill-rule:evenodd;stroke:#000000;stroke-width:5.625;stroke-linecap:round;stroke-linejoin:miter;stroke-miterlimit:4;stroke-dasharray:none;stroke-opacity:1"
       d="m 604.81165,290.98376 c -27.447,24.55851 -29.086,58.71641 -39.868,100.894 -7.517,29.4078 -23.102,69.35571 -55.273,83.8566"
       id="path2933-3-1-9-0-9-0-4"
       inkscape:connector-curvature="0"
       sodipodi:nodetypes="csc" />
    <path
       style="display:inline;fill:none;fill-rule:evenodd;stroke:#000000;stroke-width:5.625;stroke-linecap:round;stroke-linejoin:miter;stroke-miterlimit:4;stroke-dasharray:none;stroke-opacity:1"
       d="m 595.05665,301.76337 c -22.209,34.6672 -16.415,49.5839 -26.002,87.98199 -9.97,39.9311 -19.242,60.32261 -50.084,80.61131"
       id="path2933-4-1-6-5-7-5-0-1"
       inkscape:connector-curvature="0"
       sodipodi:nodetypes="csc" />
    <path
       style="display:inline;fill:none;fill-rule:evenodd;stroke:#000000;stroke-width:5.625;stroke-linecap:round;stroke-linejoin:round;stroke-miterlimit:4;stroke-dasharray:none;stroke-opacity:1"
       d="M 565.07365,370.60827 C 587.04059,350.38628 699.7276,250.20379 701.272,248.8451 c 11.04405,-9.71601 19.6441,-13.84791 25.96933,-14.16628 14.16926,-0.71318 16.92321,17.7104 10.16369,35.36728 -16.118,43.01201 -43.81304,79.28802 -70.757,116.17602 -46.56801,60.286 -56.206,43.422 -58.147,40.936 -7.16801,-9.181 3.808,-39.621 36.307,-62.851 14.53218,-11.32349 35.16216,-20.15818 58.15706,-30.77243"
       id="path844-8-6-7-8-0-3-6"
       inkscape:connector-curvature="0"
       sodipodi:nodetypes="cssccscc" />
  </g>
</svg>
