<?xml version="1.0" encoding="UTF-8" standalone="no"?>
<!-- Created with Inkscape (http://www.inkscape.org/) -->

<svg
   xmlns:dc="http://purl.org/dc/elements/1.1/"
   xmlns:cc="http://creativecommons.org/ns#"
   xmlns:rdf="http://www.w3.org/1999/02/22-rdf-syntax-ns#"
   xmlns:svg="http://www.w3.org/2000/svg"
   xmlns="http://www.w3.org/2000/svg"
   xmlns:sodipodi="http://sodipodi.sourceforge.net/DTD/sodipodi-0.dtd"
   xmlns:inkscape="http://www.inkscape.org/namespaces/inkscape"
   width="350mm"
   height="210mm"
   viewBox="0 0 1240.1575 744.09448"
   id="svg2"
   version="1.1"
   inkscape:version="0.92.3 (2405546, 2018-03-11)"
   sodipodi:docname="DEK Deutsche Einheitskurzschrift - Verkehrsschrift - die Olympischen Sommerspiele.svg">
  <defs
     id="defs4" />
  <sodipodi:namedview
     id="base"
     pagecolor="#ffffff"
     bordercolor="#666666"
     borderopacity="1.0"
     inkscape:pageopacity="0.0"
     inkscape:pageshadow="2"
     inkscape:zoom="0.98994949"
     inkscape:cx="640.16354"
     inkscape:cy="386.38763"
     inkscape:document-units="px"
     inkscape:current-layer="layer2"
     showgrid="false"
     inkscape:window-width="1920"
     inkscape:window-height="1017"
     inkscape:window-x="1592"
     inkscape:window-y="-8"
     inkscape:window-maximized="1" />
  <metadata
     id="metadata7">
    <rdf:RDF>
      <cc:Work
         rdf:about="">
        <dc:format>image/svg+xml</dc:format>
        <dc:type
           rdf:resource="http://purl.org/dc/dcmitype/StillImage" />
        <dc:title></dc:title>
      </cc:Work>
    </rdf:RDF>
  </metadata>
  <g
     inkscape:label="Grundlinien"
     inkscape:groupmode="layer"
     id="layer1"
     transform="translate(0,-308.26772)"
     style="display:inline"
     sodipodi:insensitive="true">
    <path
       style="fill:none;fill-rule:evenodd;stroke:#000000;stroke-width:1.875;stroke-linecap:round;stroke-linejoin:miter;stroke-miterlimit:4;stroke-dasharray:none;stroke-opacity:1"
       d="M 26.752655,742.24566 H 1223.117"
       id="path3336"
       inkscape:connector-curvature="0"
       sodipodi:nodetypes="cc" />
    <path
       style="fill:none;fill-rule:evenodd;stroke:#000000;stroke-width:0.9375;stroke-linecap:round;stroke-linejoin:miter;stroke-miterlimit:2;stroke-dasharray:3.74999998, 7.49999996;stroke-dashoffset:0;stroke-opacity:1"
       d="M 27.475885,844.14792 H 1223.8402"
       id="path3336-4"
       inkscape:connector-curvature="0"
       sodipodi:nodetypes="cc" />
    <path
       style="fill:none;fill-rule:evenodd;stroke:#000000;stroke-width:0.9375;stroke-linecap:round;stroke-linejoin:miter;stroke-miterlimit:2;stroke-dasharray:3.74999998, 7.49999996;stroke-dashoffset:0;stroke-opacity:1"
       d="M 27.475885,641.7697 H 1223.8402"
       id="path3336-7"
       inkscape:connector-curvature="0"
       sodipodi:nodetypes="cc" />
    <path
       style="fill:none;fill-rule:evenodd;stroke:#000000;stroke-width:0.9375;stroke-linecap:round;stroke-linejoin:miter;stroke-miterlimit:2;stroke-dasharray:3.74999998, 7.49999996;stroke-dashoffset:0;stroke-opacity:1"
       d="M 27.475885,540.58062 H 1223.8402"
       id="path3336-2"
       inkscape:connector-curvature="0"
       sodipodi:nodetypes="cc" />
  </g>
  <g
     inkscape:groupmode="layer"
     id="layer2"
     inkscape:label="Buchstaben"
     style="display:inline">
    <path
       style="display:inline;fill:none;fill-rule:evenodd;stroke:#000000;stroke-width:5.625;stroke-linecap:round;stroke-linejoin:round;stroke-miterlimit:4;stroke-dasharray:none;stroke-opacity:1"
       d="m 320.21438,377.41809 c -33.24718,34.80084 -51.52585,48.26673 -51.52585,48.26673"
       id="path12351-7-1-8-67-1"
       inkscape:connector-curvature="0"
       sodipodi:nodetypes="cc" />
    <path
       style="display:inline;fill:none;fill-rule:evenodd;stroke:#000000;stroke-width:5.625;stroke-linecap:round;stroke-linejoin:round;stroke-miterlimit:4;stroke-dasharray:none;stroke-opacity:1"
       d="m 266.6488,418.4501 c 0.755,0.07 1.413,0.237 1.945,0.508 0.175,0.09 0.335,0.189 0.481,0.302 0.944,0.73 1.286,1.983 0.76,3.987 -1.027,3.903 -5.44,6.14 -7.537,6.935 -4.343,1.573 -7.562,-2.009 -5.081,-5.858 1.551,-2.405 4.242,-5.074 7.417,-5.73 0.215,-0.04 0.433,-0.08 0.654,-0.105 0.264,-0.03 0.531,-0.05 0.801,-0.05 0.612,0 1.237,0.08 1.871,0.255"
       id="path12351-7-1-4"
       inkscape:connector-curvature="0"
       sodipodi:nodetypes="cssscssssc" />
    <path
       style="display:inline;fill:none;fill-rule:evenodd;stroke:#000000;stroke-width:5.625;stroke-linecap:round;stroke-linejoin:round;stroke-miterlimit:4;stroke-dasharray:none;stroke-opacity:1"
       d="m 114.47195,430.69789 144.84486,0.17899"
       id="path844-99-4-6-9-5-4-5"
       inkscape:connector-curvature="0"
       sodipodi:nodetypes="cc" />
    <path
       style="display:inline;fill:none;fill-rule:evenodd;stroke:#000000;stroke-width:5.625;stroke-linecap:round;stroke-linejoin:round;stroke-miterlimit:4;stroke-dasharray:none;stroke-opacity:1"
       d="m 339.89138,431.7351 c 10.401,-10.048 12.54099,-16.684 12.28399,-25.947 -1.101,-20.715 -47.416,-26.75901 -48.994,-48.90001 -0.258,-8.697 9.88101,-17.83 19.61301,-20.284 15.906,-4.011 23.41099,4.464 19.62499,15.883 -2.01,6.061 -6.72499,13.802 -17.42899,22.01601 -2.367,1.81599 -4.776,2.91499 -4.776,2.91499"
       id="path844-93-2-4-0-1-0-3-8-3"
       inkscape:connector-curvature="0"
       sodipodi:nodetypes="cccsssc"
       inkscape:transform-center-x="15.271592"
       inkscape:transform-center-y="2.7244066" />
    <path
       style="display:inline;fill:none;fill-rule:evenodd;stroke:#000000;stroke-width:5.625;stroke-linecap:round;stroke-linejoin:round;stroke-miterlimit:4;stroke-dasharray:none;stroke-opacity:1"
       d="m 377.28583,363.77103 c -9.70492,12.82453 -50.37639,72.10724 -37.39445,67.96407"
       id="path851-7-8-7-6"
       inkscape:connector-curvature="0"
       sodipodi:nodetypes="cc" />
    <path
       style="display:inline;fill:none;fill-rule:evenodd;stroke:#000000;stroke-width:5.625;stroke-linecap:round;stroke-linejoin:round;stroke-miterlimit:4;stroke-dasharray:none;stroke-opacity:1"
       d="m 377.28583,363.77103 c 12.12504,-15.98106 20.62692,-25.43941 38.57811,-28.25805 16.0112,-2.51404 23.26078,11.59586 12.25286,27.31766 -24.96738,35.65912 -44.27199,49.755 -38.25699,63.41799 5.39899,12.26001 31.96999,2.70801 46.518,-12.16098 0.95499,-0.97601 21.1,-29.07101 -1.743,-34.17601 -22.65101,-5.061 -48.67701,6.494 -50.553,20.891 -3.73101,28.646 46.87126,25.52698 77.98968,-12.34845"
       id="path844-53"
       inkscape:connector-curvature="0"
       sodipodi:nodetypes="cssssssc" />
    <path
       style="display:inline;fill:none;fill-rule:evenodd;stroke:#000000;stroke-width:5.625;stroke-linecap:round;stroke-linejoin:round;stroke-miterlimit:4;stroke-dasharray:none;stroke-opacity:1"
       d="m 538.08005,383.87798 c -20.72101,10.81 -44.44801,22.494 -60.55201,35.042 -32.48601,23.23401 -40.24101,52.663 -37.96401,60.01 0.933,3.012 16.314,22.901 59.80401,-38.095 26.944,-36.888 54.63901,-73.401 69.336,-116.413 10.96144,-30.51105 1.07201,-52.445 -34.712,-20.964 -1.545,1.358 -3.17301,2.78 -4.759,4.394 -8.577,8.725 -57.06955,67.17421 -67.16155,80.60221"
       id="path12351-7-1-8-9-4-52-0-7"
       inkscape:connector-curvature="0"
       sodipodi:nodetypes="ccsccssc" />
    <path
       style="display:inline;fill:none;fill-rule:evenodd;stroke:#000000;stroke-width:5.625;stroke-linecap:round;stroke-linejoin:round;stroke-miterlimit:4;stroke-dasharray:none;stroke-opacity:1"
       d="m 538.08005,383.87798 c 15.27487,-7.29323 69.69523,-36.11807 90.31889,-37.13802 19.62455,-0.77939 26.54451,38.07083 39.99658,37.69648 8.82852,-0.24671 15.16058,-9.27039 20.55612,-15.89578"
       id="path844-5-9-31-47-9-9"
       inkscape:connector-curvature="0"
       sodipodi:nodetypes="ccsc" />
    <path
       style="display:inline;fill:none;fill-rule:evenodd;stroke:#000000;stroke-width:5.625;stroke-linecap:round;stroke-linejoin:round;stroke-miterlimit:4;stroke-dasharray:none;stroke-opacity:1"
       d="M 74.654385,386.13077 51.027206,431.46678"
       id="path12351-7-1-4-17-5-9-0-1-4-83-2-9-8-3-8-2"
       inkscape:connector-curvature="0"
       sodipodi:nodetypes="cc" />
    <ellipse
       style="display:inline;fill:none;fill-opacity:1;stroke:#000000;stroke-width:5.625;stroke-linecap:round;stroke-linejoin:round;stroke-miterlimit:4;stroke-dasharray:none;stroke-dashoffset:0;stroke-opacity:1;paint-order:stroke fill markers"
       id="path44014-1-3-5-4-20"
       cx="335.22162"
       cy="777.32587"
       rx="25.728558"
       ry="20.371416"
       transform="rotate(-37.736319)" />
    <path
       style="display:inline;fill:none;fill-rule:evenodd;stroke:#000000;stroke-width:5.625;stroke-linecap:round;stroke-linejoin:round;stroke-miterlimit:4;stroke-dasharray:none;stroke-opacity:1"
       d="M 739.42614,388.00335 918.1723,339.02428 c 8.02596,-2.19922 16.56003,-3.03754 26.29356,-3.04617 9.79028,1.51798 16.45355,10.25825 8.14399,25.59376 -20.73882,38.27399 -45.456,50.228 -39.441,63.89101 4.20499,9.54999 21.20191,7.28638 36.49901,-3.67 3.54949,-2.54228 11.25171,-7.99996 17.34625,-14.00994"
       id="path844-7-2-0-1"
       inkscape:connector-curvature="0"
       sodipodi:nodetypes="cscsssc" />
    <path
       style="display:inline;fill:none;fill-rule:evenodd;stroke:#000000;stroke-width:5.625;stroke-linecap:round;stroke-linejoin:round;stroke-miterlimit:4;stroke-dasharray:none;stroke-opacity:1"
       d="m 967.01411,407.78294 25.03839,-24.42766 16.495,47.88"
       id="path844-5-6-3-5-9-4-98-9"
       inkscape:connector-curvature="0"
       sodipodi:nodetypes="ccc" />
    <path
       style="display:inline;fill:none;fill-rule:evenodd;stroke:#000000;stroke-width:5.625;stroke-linecap:round;stroke-linejoin:round;stroke-miterlimit:4;stroke-dasharray:none;stroke-opacity:1"
       d="m 1067.3274,420.68755 c -1.839,1.066 -26.647,17.81799 -28.542,19.10402 -32.475,22.035 -71.58496,74.381 -63.52797,89.46301 4.907,9.186 28.36697,7.65 48.26897,-24.342 8.514,-13.68401 17.704,-31.01301 19.919,-61.79004 5.008,-69.59099 56.9016,-122.06432 67.986,-104.35699 9.9016,15.81761 -55.4636,62.14361 -102.8839,92.46973"
       id="path12351-7-1-8-6-5"
       inkscape:connector-curvature="0"
       sodipodi:nodetypes="csssssc" />
    <path
       style="display:inline;fill:none;fill-rule:evenodd;stroke:#000000;stroke-width:5.625;stroke-linecap:round;stroke-linejoin:round;stroke-miterlimit:4;stroke-dasharray:none;stroke-opacity:1"
       d="m 1152.3248,351.08089 c -23.6144,28.07587 -60.1841,52.55571 -84.9974,69.60666"
       id="path12351-7-1-8-1-4-6-7-6"
       inkscape:connector-curvature="0"
       sodipodi:nodetypes="cc" />
    <path
       style="display:inline;fill:none;fill-rule:evenodd;stroke:#000000;stroke-width:5.625;stroke-linecap:round;stroke-linejoin:round;stroke-miterlimit:4;stroke-dasharray:none;stroke-opacity:1"
       d="m 1153.9078,336.93426 c 0.7346,-0.14506 1.4021,-0.18322 1.9832,-0.0809 0.1895,0.0341 0.3705,0.0818 0.5408,0.14633 1.1003,0.41684 1.7855,1.50087 1.8657,3.54382 0.1558,3.98031 -3.3643,7.36417 -5.1158,8.71828 -3.6463,2.73696 -7.7163,0.28376 -6.4835,-4.06424 0.7708,-2.718 2.5416,-6.01232 5.3489,-7.54697 0.1905,-0.10567 0.3866,-0.20042 0.5866,-0.28764 0.2412,-0.10534 0.489,-0.19685 0.7442,-0.27475 0.5769,-0.17616 1.1902,-0.28021 1.8392,-0.29847"
       id="path12351-7-1-4-42-7"
       inkscape:connector-curvature="0"
       sodipodi:nodetypes="cssscssssc" />
    <path
       style="display:inline;fill:none;fill-rule:evenodd;stroke:#000000;stroke-width:5.625;stroke-linecap:round;stroke-linejoin:round;stroke-miterlimit:4;stroke-dasharray:none;stroke-opacity:1"
       d="m 1202.7306,337.16213 c -8.0786,4.20135 -40.4473,20.10015 -51.8263,13.91876"
       id="path12351-7-1-8-1-4-6-7-6-8"
       inkscape:connector-curvature="0"
       sodipodi:nodetypes="cc" />
  </g>
</svg>
