<?xml version="1.0" encoding="UTF-8" standalone="no"?>
<!-- Created with Inkscape (http://www.inkscape.org/) -->

<svg
   xmlns:dc="http://purl.org/dc/elements/1.1/"
   xmlns:cc="http://creativecommons.org/ns#"
   xmlns:rdf="http://www.w3.org/1999/02/22-rdf-syntax-ns#"
   xmlns:svg="http://www.w3.org/2000/svg"
   xmlns="http://www.w3.org/2000/svg"
   xmlns:sodipodi="http://sodipodi.sourceforge.net/DTD/sodipodi-0.dtd"
   xmlns:inkscape="http://www.inkscape.org/namespaces/inkscape"
   width="297mm"
   height="210mm"
   viewBox="0 0 1052.3622 744.09448"
   id="svg2"
   version="1.1"
   inkscape:version="0.92.3 (2405546, 2018-03-11)"
   sodipodi:docname="DEK Deutsche Einheitskurzschrift - Verkehrsschrift - Zufall.svg">
  <defs
     id="defs4" />
  <sodipodi:namedview
     id="base"
     pagecolor="#ffffff"
     bordercolor="#666666"
     borderopacity="1.0"
     inkscape:pageopacity="0.0"
     inkscape:pageshadow="2"
     inkscape:zoom="1.4"
     inkscape:cx="601.42026"
     inkscape:cy="445.51111"
     inkscape:document-units="px"
     inkscape:current-layer="layer2"
     showgrid="false"
     inkscape:window-width="1920"
     inkscape:window-height="1017"
     inkscape:window-x="1592"
     inkscape:window-y="-8"
     inkscape:window-maximized="1" />
  <metadata
     id="metadata7">
    <rdf:RDF>
      <cc:Work
         rdf:about="">
        <dc:format>image/svg+xml</dc:format>
        <dc:type
           rdf:resource="http://purl.org/dc/dcmitype/StillImage" />
        <dc:title></dc:title>
      </cc:Work>
    </rdf:RDF>
  </metadata>
  <g
     inkscape:label="Grundlinien"
     inkscape:groupmode="layer"
     id="layer1"
     transform="translate(0,-308.26772)"
     style="display:inline"
     sodipodi:insensitive="true">
    <path
       style="fill:none;fill-rule:evenodd;stroke:#969696;stroke-width:1.875;stroke-linecap:round;stroke-linejoin:miter;stroke-miterlimit:4;stroke-dasharray:none;stroke-opacity:1"
       d="M 57.556226,742.24566 H 1006.4206"
       id="path3336"
       inkscape:connector-curvature="0"
       sodipodi:nodetypes="cc" />
    <path
       style="fill:none;fill-rule:evenodd;stroke:#000000;stroke-width:0.9375;stroke-linecap:round;stroke-linejoin:miter;stroke-miterlimit:2;stroke-dasharray:3.74999998, 7.49999996;stroke-dashoffset:0;stroke-opacity:1"
       d="M 58.279456,844.14792 H 1007.1438"
       id="path3336-4"
       inkscape:connector-curvature="0"
       sodipodi:nodetypes="cc" />
    <path
       style="fill:none;fill-rule:evenodd;stroke:#000000;stroke-width:0.9375;stroke-linecap:round;stroke-linejoin:miter;stroke-miterlimit:2;stroke-dasharray:3.74999998, 7.49999996;stroke-dashoffset:0;stroke-opacity:1"
       d="M 58.279456,641.7697 H 1007.1438"
       id="path3336-7"
       inkscape:connector-curvature="0"
       sodipodi:nodetypes="cc" />
    <path
       style="fill:none;fill-rule:evenodd;stroke:#000000;stroke-width:0.9375;stroke-linecap:round;stroke-linejoin:miter;stroke-miterlimit:2;stroke-dasharray:3.74999998, 7.49999996;stroke-dashoffset:0;stroke-opacity:1"
       d="M 58.279456,540.58062 H 1007.1438"
       id="path3336-2"
       inkscape:connector-curvature="0"
       sodipodi:nodetypes="cc" />
  </g>
  <g
     inkscape:groupmode="layer"
     id="layer2"
     inkscape:label="Stenozeichen">
    <path
       style="display:inline;fill:none;fill-rule:evenodd;stroke:#000000;stroke-width:5.625;stroke-linecap:round;stroke-linejoin:round;stroke-miterlimit:4;stroke-dasharray:none;stroke-opacity:1"
       d="m 426.97191,519.93789 c 2.55088,-2.5298 186.51125,-208.05919 201.37452,-224.75478 25.58956,-28.74419 40.42608,-52.96662 26.23943,-57.8518 -14.56309,-5.01481 -42.59302,12.2342 -89.77802,90.1295 -42.45566,73.33709 -43.15477,100.17017 -27.62112,103.45952 5.99378,1.56629 28.78065,0.50441 51.24418,0.11238 5.40511,-0.0943 9.41018,0.20659 13.0647,0.15866"
       id="path12351-7-1-83-2"
       inkscape:connector-curvature="0"
       sodipodi:nodetypes="cssccsc" />
    <path
       style="display:inline;fill:none;fill-opacity:1;fill-rule:evenodd;stroke:#000000;stroke-width:5.625;stroke-linecap:round;stroke-linejoin:round;stroke-miterlimit:4;stroke-dasharray:none;stroke-opacity:1"
       d="m 586.10508,410.45586 c 1.19508,0.11871 2.2382,0.37466 3.0803,0.80411 0.27542,0.14087 0.53027,0.29949 0.76136,0.47836 1.49267,1.15441 2.0356,3.13871 1.20142,6.31004 -1.62405,6.17833 -8.60934,9.72006 -11.93025,10.97751 -6.87449,2.48974 -11.96982,-3.17957 -8.04108,-9.27164 2.45506,-3.80811 6.71462,-8.03222 11.73871,-9.07091 0.34191,-0.0713 0.68697,-0.12667 1.03521,-0.16652 0.41947,-0.0475 0.8421,-0.0728 1.26949,-0.0744 0.96872,-8.2e-4 1.95803,0.12666 2.96158,0.40345"
       id="path12351-7-1-4-7-1-2"
       inkscape:connector-curvature="0"
       sodipodi:nodetypes="cssscssssc" />
    <path
       style="display:inline;fill:none;fill-opacity:1;fill-rule:evenodd;stroke:#000000;stroke-width:10.3125;stroke-linecap:round;stroke-linejoin:round;stroke-miterlimit:4;stroke-dasharray:none;stroke-opacity:1"
       d="m 583.69063,415.94532 c 0.56508,0.0561 1.05831,0.17716 1.45649,0.3802 0.13023,0.0666 0.25073,0.14162 0.36,0.2262 0.70579,0.54585 0.96251,1.48411 0.56808,2.98364 -0.76792,2.92136 -4.07084,4.59604 -5.6411,5.19061 -3.25054,1.17725 -5.65981,-1.50342 -3.80215,-4.384 1.16086,-1.80064 3.17495,-3.79795 5.55054,-4.28909 0.16166,-0.0337 0.32482,-0.0599 0.48948,-0.0787 0.19835,-0.0225 0.39819,-0.0344 0.60027,-0.0353 0.45805,-3.8e-4 0.92583,0.0599 1.40035,0.19078"
       id="path12351-7-1-4-7-1-2-1"
       inkscape:connector-curvature="0"
       sodipodi:nodetypes="cssscssssc" />
    <path
       style="display:inline;fill:none;fill-opacity:1;fill-rule:evenodd;stroke:#000000;stroke-width:5.625;stroke-linecap:round;stroke-linejoin:round;stroke-miterlimit:4;stroke-dasharray:none;stroke-opacity:1"
       d="m 608.14275,420.96343 c 0.63238,0.0628 1.18435,0.19824 1.62995,0.4255 0.14575,0.0745 0.2806,0.15846 0.40289,0.25313 0.78985,0.61085 1.07714,1.66086 0.63573,3.33897 -0.85938,3.26929 -4.55568,5.14343 -6.31295,5.8088 -3.63767,1.31746 -6.33388,-1.68247 -4.25497,-4.90613 1.2991,-2.01508 3.55307,-4.25027 6.21159,-4.79992 0.18093,-0.0376 0.36352,-0.067 0.54779,-0.0881 0.22196,-0.0252 0.4456,-0.0385 0.67176,-0.0394 0.5126,-4.2e-4 1.0361,0.067 1.56713,0.2135"
       id="path12351-7-1-4-7-1-2-0"
       inkscape:connector-curvature="0"
       sodipodi:nodetypes="cssscssssc" />
    <path
       style="display:inline;fill:none;fill-rule:evenodd;stroke:#000000;stroke-width:5.625;stroke-linecap:round;stroke-linejoin:round;stroke-miterlimit:4;stroke-dasharray:none;stroke-opacity:1"
       d="m 397.45995,494.28984 c -9.52361,7.71188 -14.09707,14.31263 -11.83428,24.16694 1.37366,5.98221 4.38165,12.84835 16.59565,14.01417 9.78723,0.93419 15.80491,-3.10606 24.75059,-12.53306"
       id="path12351-7-1-8-1-7-0-5-6-5-6"
       inkscape:connector-curvature="0"
       sodipodi:nodetypes="cssc" />
  </g>
</svg>
