<?xml version="1.0" encoding="UTF-8" standalone="no"?>
<!-- Created with Inkscape (http://www.inkscape.org/) -->

<svg
   xmlns:dc="http://purl.org/dc/elements/1.1/"
   xmlns:cc="http://creativecommons.org/ns#"
   xmlns:rdf="http://www.w3.org/1999/02/22-rdf-syntax-ns#"
   xmlns:svg="http://www.w3.org/2000/svg"
   xmlns="http://www.w3.org/2000/svg"
   xmlns:sodipodi="http://sodipodi.sourceforge.net/DTD/sodipodi-0.dtd"
   xmlns:inkscape="http://www.inkscape.org/namespaces/inkscape"
   width="297mm"
   height="210mm"
   viewBox="0 0 1052.3622 744.09448"
   id="svg2"
   version="1.1"
   inkscape:version="0.92.3 (2405546, 2018-03-11)"
   sodipodi:docname="DEK Deutsche Einheitskurzschrift - Verkehrsschrift - erhaltener.svg">
  <defs
     id="defs4" />
  <sodipodi:namedview
     id="base"
     pagecolor="#ffffff"
     bordercolor="#666666"
     borderopacity="1.0"
     inkscape:pageopacity="0.0"
     inkscape:pageshadow="2"
     inkscape:zoom="0.7"
     inkscape:cx="659.53086"
     inkscape:cy="618.85132"
     inkscape:document-units="px"
     inkscape:current-layer="layer2"
     showgrid="false"
     inkscape:window-width="1920"
     inkscape:window-height="1017"
     inkscape:window-x="1592"
     inkscape:window-y="-8"
     inkscape:window-maximized="1"
     showguides="true"
     inkscape:guide-bbox="true" />
  <metadata
     id="metadata7">
    <rdf:RDF>
      <cc:Work
         rdf:about="">
        <dc:format>image/svg+xml</dc:format>
        <dc:type
           rdf:resource="http://purl.org/dc/dcmitype/StillImage" />
        <dc:title></dc:title>
      </cc:Work>
    </rdf:RDF>
  </metadata>
  <g
     inkscape:label="Grundlinien"
     inkscape:groupmode="layer"
     id="layer1"
     transform="translate(0,-308.26772)"
     style="display:inline"
     sodipodi:insensitive="true">
    <path
       style="fill:none;fill-rule:evenodd;stroke:#969696;stroke-width:1.875;stroke-linecap:round;stroke-linejoin:miter;stroke-miterlimit:4;stroke-dasharray:none;stroke-opacity:1"
       d="M 57.556226,742.24566 H 1006.4206"
       id="path3336"
       inkscape:connector-curvature="0"
       sodipodi:nodetypes="cc" />
    <path
       style="fill:none;fill-rule:evenodd;stroke:#000000;stroke-width:0.9375;stroke-linecap:round;stroke-linejoin:miter;stroke-miterlimit:2;stroke-dasharray:3.74999998, 7.49999996;stroke-dashoffset:0;stroke-opacity:1"
       d="M 58.279456,844.14792 H 1007.1438"
       id="path3336-4"
       inkscape:connector-curvature="0"
       sodipodi:nodetypes="cc" />
    <path
       style="fill:none;fill-rule:evenodd;stroke:#000000;stroke-width:0.9375;stroke-linecap:round;stroke-linejoin:miter;stroke-miterlimit:2;stroke-dasharray:3.74999998, 7.49999996;stroke-dashoffset:0;stroke-opacity:1"
       d="M 58.279456,641.7697 H 1007.1438"
       id="path3336-7"
       inkscape:connector-curvature="0"
       sodipodi:nodetypes="cc" />
    <path
       style="fill:none;fill-rule:evenodd;stroke:#000000;stroke-width:0.9375;stroke-linecap:round;stroke-linejoin:miter;stroke-miterlimit:2;stroke-dasharray:3.74999998, 7.49999996;stroke-dashoffset:0;stroke-opacity:1"
       d="M 58.279456,540.58062 H 1007.1438"
       id="path3336-2"
       inkscape:connector-curvature="0"
       sodipodi:nodetypes="cc" />
  </g>
  <g
     inkscape:groupmode="layer"
     id="layer2"
     inkscape:label="Stenozeichen"
     style="display:inline">
    <path
       style="display:inline;fill:none;fill-rule:evenodd;stroke:#000000;stroke-width:5.625;stroke-linecap:round;stroke-linejoin:round;stroke-miterlimit:4;stroke-dasharray:none;stroke-opacity:1"
       d="m 463.81117,405.30579 c 32.88418,-46.57501 61.03392,-96.49109 93.89296,-143.071 9.045,-12.3062 15.79982,-26.6417 28.769,-27.2991 27.31831,-1.38475 21.74566,46.96549 46.56143,46.26143"
       id="path12351-7-1-4-6-8-8"
       inkscape:connector-curvature="0"
       sodipodi:nodetypes="ccsc" />
    <path
       style="display:inline;fill:none;fill-opacity:1;fill-rule:evenodd;stroke:#000000;stroke-width:10.90581608;stroke-linecap:round;stroke-linejoin:round;stroke-miterlimit:4;stroke-dasharray:none;stroke-opacity:1"
       d="m 432.10247,404.33411 c 1.41637,0.14067 2.65082,0.44393 3.64932,0.95275 0.32671,0.16691 0.6281,0.35484 0.9023,0.56677 1.76913,1.36779 2.41169,3.71889 1.42368,7.47642 -1.92463,7.32039 -10.20113,11.51679 -14.13552,13.00668 -8.14504,2.94994 -14.18204,-3.76729 -9.52803,-10.98546 2.90925,-4.51204 7.956,-9.51696 13.90915,-10.74765 0.40473,-0.0843 0.81377,-0.15004 1.22657,-0.1973 0.49606,-0.0563 0.99757,-0.0863 1.50395,-0.0881 1.14723,-10e-4 2.31941,0.15004 3.50828,0.47806"
       id="path12351-7-1-4-7-1-6-5-4-9"
       inkscape:connector-curvature="0"
       sodipodi:nodetypes="cssscssssc" />
    <path
       style="display:inline;fill:none;fill-rule:evenodd;stroke:#000000;stroke-width:5.625;stroke-linecap:round;stroke-linejoin:round;stroke-miterlimit:4;stroke-dasharray:none;stroke-opacity:1"
       d="m 463.81117,405.30579 c -0.22618,-0.0565 -5.60318,7.97023 -12.69722,14.39388 -4.72938,4.28246 -11.01107,7.45783 -14.14477,8.49745 -17.70658,4.17687 -80.40764,3.06707 -80.40764,3.06707 3.02225,0.29777 9.84697,-4.31088 11.24236,-5.1094 10.92825,-6.25384 20.58194,-16.09825 28.32485,-27.06186 27.57996,-39.052 30.9173,-92.30421 -18.73505,-48.0702"
       id="path844-7-8"
       inkscape:connector-curvature="0"
       sodipodi:nodetypes="csccssc" />
    <path
       style="display:inline;fill:none;fill-opacity:1;fill-rule:evenodd;stroke:#000000;stroke-width:11.88090992;stroke-linecap:round;stroke-linejoin:round;stroke-miterlimit:4;stroke-dasharray:none;stroke-opacity:1"
       d="m 428.45342,412.79616 c 0.45383,0.0451 0.84939,0.14224 1.16933,0.30527 0.10469,0.0534 0.20126,0.11371 0.28912,0.18162 0.56687,0.43827 0.77276,1.19161 0.45617,2.39561 -0.61669,2.34564 -3.26867,3.69026 -4.52935,4.16765 -2.60987,0.94524 -4.54426,-1.20712 -3.053,-3.51999 0.93218,-1.44578 2.54927,-3.04946 4.45682,-3.44381 0.12968,-0.0269 0.26074,-0.0481 0.39301,-0.0632 0.15896,-0.018 0.31965,-0.0276 0.4819,-0.0283 0.36761,-3.2e-4 0.7432,0.0481 1.12414,0.15318"
       id="path12351-7-1-4-7-1-6-5-4-9-6"
       inkscape:connector-curvature="0"
       sodipodi:nodetypes="cssscssssc" />
    <path
       style="display:inline;fill:none;fill-rule:evenodd;stroke:#000000;stroke-width:5.625;stroke-linecap:round;stroke-linejoin:round;stroke-miterlimit:4;stroke-dasharray:none;stroke-opacity:1"
       d="m 279.72481,383.2229 20.033,47.88 c 0,0 71.00676,-75.81859 77.63589,-80.08017"
       id="path844-5-6-5-95"
       inkscape:connector-curvature="0"
       sodipodi:nodetypes="ccc" />
    <path
       style="display:inline;fill:none;fill-rule:evenodd;stroke:#000000;stroke-width:5.625;stroke-linecap:round;stroke-linejoin:round;stroke-miterlimit:4;stroke-dasharray:none;stroke-opacity:1"
       d="m 633.03456,281.19712 c 3.74815,-0.0813 7.83355,-1.40376 12.12429,-3.53526"
       id="path12351-7-1-4-6-8-8-5"
       inkscape:connector-curvature="0"
       sodipodi:nodetypes="cc" />
    <path
       style="display:inline;fill:none;fill-rule:evenodd;stroke:#000000;stroke-width:5.625;stroke-linecap:round;stroke-linejoin:round;stroke-miterlimit:4;stroke-dasharray:none;stroke-opacity:1"
       d="m 645.15885,277.66186 c 7.70089,-4.35268 54.38289,-42.34739 54.38289,-42.34739 l 20.033,46.005"
       id="path844-5-6-5-95-0"
       inkscape:connector-curvature="0"
       sodipodi:nodetypes="ccc" />
  </g>
</svg>
