<?xml version="1.0" encoding="UTF-8" standalone="no"?>
<!-- Created with Inkscape (http://www.inkscape.org/) -->

<svg
   xmlns:dc="http://purl.org/dc/elements/1.1/"
   xmlns:cc="http://creativecommons.org/ns#"
   xmlns:rdf="http://www.w3.org/1999/02/22-rdf-syntax-ns#"
   xmlns:svg="http://www.w3.org/2000/svg"
   xmlns="http://www.w3.org/2000/svg"
   xmlns:sodipodi="http://sodipodi.sourceforge.net/DTD/sodipodi-0.dtd"
   xmlns:inkscape="http://www.inkscape.org/namespaces/inkscape"
   width="297mm"
   height="210mm"
   viewBox="0 0 1052.3622 744.09448"
   id="svg2"
   version="1.1"
   inkscape:version="0.92.3 (2405546, 2018-03-11)"
   sodipodi:docname="DEK Deutsche Einheitskurzschrift - Verkehrsschrift - bengalisches Feuer.svg">
  <defs
     id="defs4" />
  <sodipodi:namedview
     id="base"
     pagecolor="#ffffff"
     bordercolor="#666666"
     borderopacity="1.0"
     inkscape:pageopacity="0.0"
     inkscape:pageshadow="2"
     inkscape:zoom="0.49497475"
     inkscape:cx="1350.8092"
     inkscape:cy="601.1688"
     inkscape:document-units="px"
     inkscape:current-layer="layer2"
     showgrid="false"
     inkscape:window-width="1920"
     inkscape:window-height="1017"
     inkscape:window-x="1592"
     inkscape:window-y="-8"
     inkscape:window-maximized="1"
     showguides="true"
     inkscape:guide-bbox="true" />
  <metadata
     id="metadata7">
    <rdf:RDF>
      <cc:Work
         rdf:about="">
        <dc:format>image/svg+xml</dc:format>
        <dc:type
           rdf:resource="http://purl.org/dc/dcmitype/StillImage" />
        <dc:title></dc:title>
      </cc:Work>
    </rdf:RDF>
  </metadata>
  <g
     inkscape:label="Grundlinien"
     inkscape:groupmode="layer"
     id="layer1"
     transform="translate(0,-308.26772)"
     sodipodi:insensitive="true">
    <path
       style="fill:none;fill-rule:evenodd;stroke:#969696;stroke-width:1.875;stroke-linecap:round;stroke-linejoin:miter;stroke-miterlimit:4;stroke-dasharray:none;stroke-opacity:1"
       d="M 57.556226,742.24566 H 1006.4206"
       id="path3336"
       inkscape:connector-curvature="0"
       sodipodi:nodetypes="cc" />
    <path
       style="fill:none;fill-rule:evenodd;stroke:#000000;stroke-width:0.9375;stroke-linecap:round;stroke-linejoin:miter;stroke-miterlimit:2;stroke-dasharray:3.74999998, 7.49999996;stroke-dashoffset:0;stroke-opacity:1"
       d="M 58.279456,844.14792 H 1007.1438"
       id="path3336-4"
       inkscape:connector-curvature="0"
       sodipodi:nodetypes="cc" />
    <path
       style="fill:none;fill-rule:evenodd;stroke:#000000;stroke-width:0.9375;stroke-linecap:round;stroke-linejoin:miter;stroke-miterlimit:2;stroke-dasharray:3.74999998, 7.49999996;stroke-dashoffset:0;stroke-opacity:1"
       d="M 58.279456,641.7697 H 1007.1438"
       id="path3336-7"
       inkscape:connector-curvature="0"
       sodipodi:nodetypes="cc" />
    <path
       style="fill:none;fill-rule:evenodd;stroke:#000000;stroke-width:0.9375;stroke-linecap:round;stroke-linejoin:miter;stroke-miterlimit:2;stroke-dasharray:3.74999998, 7.49999996;stroke-dashoffset:0;stroke-opacity:1"
       d="M 58.279456,540.58062 H 1007.1438"
       id="path3336-2"
       inkscape:connector-curvature="0"
       sodipodi:nodetypes="cc" />
  </g>
  <g
     inkscape:groupmode="layer"
     id="layer2"
     inkscape:label="Stenozeichen"
     style="display:inline">
    <path
       style="display:inline;fill:none;fill-rule:evenodd;stroke:#000000;stroke-width:5.62499905;stroke-linecap:round;stroke-linejoin:round;stroke-miterlimit:4;stroke-dasharray:none;stroke-opacity:1"
       d="m 108.28513,336.24384 c 0,0 -29.691412,58.89099 -35.407332,73.41699 -5.7862,14.70501 2.1795,21.702 14.08021,21.415 28.055072,-0.65651 60.559122,-43.31287 76.191322,-60.46398 18.04403,-19.88301 38.03443,-34.31501 63.32118,-35.09091 20.33099,-0.62383 32.8797,16.44872 41.81481,35.16072 7.668,16.885 14.472,36.00299 22.46589,47.416 6.49701,9.171 11.32537,13.29086 19.917,13.137 6.11571,-0.10952 13.06884,-0.92131 20.29471,-6.48847"
       id="path4752-1-7-2-4-4"
       inkscape:connector-curvature="0"
       sodipodi:nodetypes="csccsccsc" />
    <ellipse
       style="display:inline;fill:none;fill-opacity:1;stroke:#000000;stroke-width:14.0347147;stroke-linecap:round;stroke-linejoin:round;stroke-miterlimit:4;stroke-dasharray:none;stroke-dashoffset:0;stroke-opacity:1;paint-order:stroke fill markers"
       id="path9500-7-0-4-1-6"
       cx="522.81122"
       cy="80.851158"
       rx="5.2714233"
       ry="7.8485637"
       transform="rotate(43.24198)" />
    <path
       style="display:inline;fill:none;fill-rule:evenodd;stroke:#000000;stroke-width:5.62499905;stroke-linecap:round;stroke-linejoin:round;stroke-miterlimit:4;stroke-dasharray:none;stroke-opacity:1"
       d="m 320.6943,427.76174 c 13.1928,19.66408 55.7839,-37.31307 74.0447,-60.62598 18.8829,-24.10707 36.05302,-45.63437 41.57911,-52.30267 10.92291,-13.18067 20.6104,-22.63175 29.08169,-27.61944 4.7517,-2.7977 9.12071,-4.19106 13.11041,-4.05057 7.81609,0.27522 10.74319,5.68867 10.8612,13.10369 0.10541,6.62181 -2.0295,14.83986 -4.9233,22.42032 -14.697,43.01201 -41.05301,81.533 -67.99699,118.421 -30.16002,40.97804 -50.09332,47.163 -57.05202,40.89404 -13.522,-11.40404 4.159,-35.86304 29.185,-55.10804 13.16701,-11.298 41.88715,-30.13773 65.40501,-41.67797"
       id="path844-7-2-0-16-3-5-3"
       inkscape:connector-curvature="0"
       sodipodi:nodetypes="csssssccccc" />
    <path
       style="display:inline;fill:none;fill-rule:evenodd;stroke:#000000;stroke-width:5.62499952;stroke-linecap:round;stroke-linejoin:round;stroke-miterlimit:4;stroke-dasharray:none;stroke-opacity:1"
       d="m 536.57811,339.65212 -82.589,41.564"
       id="path851-7-8-7-6-3-5"
       inkscape:connector-curvature="0"
       sodipodi:nodetypes="cc" />
    <path
       inkscape:connector-curvature="0"
       style="display:inline;fill:none;fill-opacity:1;stroke:#000000;stroke-width:5.62499952;stroke-linecap:round;stroke-linejoin:round;stroke-miterlimit:4;stroke-dasharray:none;stroke-dashoffset:0;stroke-opacity:1;paint-order:stroke fill markers"
       d="m 563.6802,346.78433 a 19.16073,25.076399 41.606879 0 1 -14.329,31.305 19.16073,25.076399 41.606879 0 1 -27.564,-6.84499 19.16073,25.076399 41.606879 0 1 14.329,-31.30701 19.16073,25.076399 41.606879 0 1 27.564,6.847 z"
       id="path44014-1-3-5-4-20-28-3-2-1-4-6" />
    <path
       style="display:inline;fill:none;fill-rule:evenodd;stroke:#000000;stroke-width:5.625;stroke-linecap:round;stroke-linejoin:round;stroke-miterlimit:4;stroke-dasharray:none;stroke-opacity:1"
       d="m 864.37197,484.53199 c -22.25491,0 113.74142,-47.51808 113.74142,-47.51808 l 20.25621,46.90945"
       id="path844-5-6-5-7-1-9"
       inkscape:connector-curvature="0"
       sodipodi:nodetypes="ccc" />
    <path
       style="display:inline;fill:none;fill-rule:evenodd;stroke:#000000;stroke-width:5.62499857;stroke-linecap:round;stroke-linejoin:round;stroke-miterlimit:4;stroke-dasharray:none;stroke-opacity:1"
       d="m 636.43707,333.93762 c 54.31,-10.96 97.71501,-78.306 91.35801,-95.016 -5.47801,-14.39 -40.25001,8.89 -87.43501,86.779 -41.1246,70.21602 -45.90136,105.33517 -16.737,105.65175 32.26734,0.35025 312.27368,-46.52445 312.27368,-46.52445"
       id="path12351-7-1-9-75"
       inkscape:connector-curvature="0"
       sodipodi:nodetypes="cscsc" />
    <path
       style="display:inline;fill:none;fill-rule:evenodd;stroke:#000000;stroke-width:5.62499952;stroke-linecap:round;stroke-linejoin:round;stroke-miterlimit:4;stroke-dasharray:none;stroke-opacity:1"
       d="m 864.37197,484.53199 c 16.755,-0.48701 35.10978,-25.10807 37.12378,-51.02907 2.081,-26.799 36.276,-48.675 36.276,-48.675"
       id="path12351-7-1-8-2-1-6-7-2"
       inkscape:connector-curvature="0"
       sodipodi:nodetypes="csc" />
  </g>
</svg>
