<?xml version="1.0" encoding="UTF-8" standalone="no"?>
<!-- Created with Inkscape (http://www.inkscape.org/) -->

<svg
   xmlns:dc="http://purl.org/dc/elements/1.1/"
   xmlns:cc="http://creativecommons.org/ns#"
   xmlns:rdf="http://www.w3.org/1999/02/22-rdf-syntax-ns#"
   xmlns:svg="http://www.w3.org/2000/svg"
   xmlns="http://www.w3.org/2000/svg"
   xmlns:sodipodi="http://sodipodi.sourceforge.net/DTD/sodipodi-0.dtd"
   xmlns:inkscape="http://www.inkscape.org/namespaces/inkscape"
   width="375mm"
   height="210mm"
   viewBox="0 0 1328.74 744.09448"
   id="svg2"
   version="1.1"
   inkscape:version="0.92.3 (2405546, 2018-03-11)"
   sodipodi:docname="DEK Deutsche Einheitskurzschrift - Verkehrsschrift - ich will du willst er will wir wollen ihr wollt sie wollen.svg">
  <defs
     id="defs4" />
  <sodipodi:namedview
     id="base"
     pagecolor="#ffffff"
     bordercolor="#666666"
     borderopacity="1.0"
     inkscape:pageopacity="0.0"
     inkscape:pageshadow="2"
     inkscape:zoom="0.49497475"
     inkscape:cx="767.25134"
     inkscape:cy="269.168"
     inkscape:document-units="px"
     inkscape:current-layer="layer2"
     showgrid="false"
     inkscape:window-width="1920"
     inkscape:window-height="1017"
     inkscape:window-x="1592"
     inkscape:window-y="-8"
     inkscape:window-maximized="1"
     showguides="true"
     inkscape:guide-bbox="true" />
  <metadata
     id="metadata7">
    <rdf:RDF>
      <cc:Work
         rdf:about="">
        <dc:format>image/svg+xml</dc:format>
        <dc:type
           rdf:resource="http://purl.org/dc/dcmitype/StillImage" />
        <dc:title></dc:title>
      </cc:Work>
    </rdf:RDF>
  </metadata>
  <g
     inkscape:label="Grundlinien"
     inkscape:groupmode="layer"
     id="layer1"
     transform="translate(0,-308.26772)"
     style="display:inline"
     sodipodi:insensitive="true">
    <path
       style="fill:none;fill-rule:evenodd;stroke:#969696;stroke-width:1.875;stroke-linecap:round;stroke-linejoin:miter;stroke-miterlimit:4;stroke-dasharray:none;stroke-opacity:1"
       d="M 14.431227,548.04923 H 1306.0137"
       id="path3336"
       inkscape:connector-curvature="0"
       sodipodi:nodetypes="cc" />
    <path
       style="fill:none;fill-rule:evenodd;stroke:#000000;stroke-width:0.9375;stroke-linecap:round;stroke-linejoin:miter;stroke-miterlimit:2;stroke-dasharray:3.74999998, 7.49999996;stroke-dashoffset:0;stroke-opacity:1"
       d="M 15.154457,649.95149 H 1306.7369"
       id="path3336-4"
       inkscape:connector-curvature="0"
       sodipodi:nodetypes="cc" />
    <path
       style="fill:none;fill-rule:evenodd;stroke:#000000;stroke-width:0.9375;stroke-linecap:round;stroke-linejoin:miter;stroke-miterlimit:2;stroke-dasharray:3.74999998, 7.49999996;stroke-dashoffset:0;stroke-opacity:1"
       d="M 15.154457,447.57327 H 1306.7369"
       id="path3336-7"
       inkscape:connector-curvature="0"
       sodipodi:nodetypes="cc" />
    <path
       style="fill:none;fill-rule:evenodd;stroke:#000000;stroke-width:0.9375;stroke-linecap:round;stroke-linejoin:miter;stroke-miterlimit:2;stroke-dasharray:3.74999998, 7.49999996;stroke-dashoffset:0;stroke-opacity:1"
       d="M 15.154457,346.38419 H 1306.7369"
       id="path3336-2"
       inkscape:connector-curvature="0"
       sodipodi:nodetypes="cc" />
    <path
       style="fill:none;fill-rule:evenodd;stroke:#969696;stroke-width:1.875;stroke-linecap:round;stroke-linejoin:miter;stroke-miterlimit:4;stroke-dasharray:none;stroke-opacity:1"
       d="M 14.431227,930.81503 H 1306.0137"
       id="path3336-1"
       inkscape:connector-curvature="0"
       sodipodi:nodetypes="cc" />
    <path
       style="fill:none;fill-rule:evenodd;stroke:#000000;stroke-width:0.9375;stroke-linecap:round;stroke-linejoin:miter;stroke-miterlimit:2;stroke-dasharray:3.74999998, 7.49999996;stroke-dashoffset:0;stroke-opacity:1"
       d="M 15.154457,1032.7173 H 1306.7369"
       id="path3336-4-2"
       inkscape:connector-curvature="0"
       sodipodi:nodetypes="cc" />
    <path
       style="fill:none;fill-rule:evenodd;stroke:#000000;stroke-width:0.9375;stroke-linecap:round;stroke-linejoin:miter;stroke-miterlimit:2;stroke-dasharray:3.74999998, 7.49999996;stroke-dashoffset:0;stroke-opacity:1"
       d="M 15.154457,830.33907 H 1306.7369"
       id="path3336-7-1"
       inkscape:connector-curvature="0"
       sodipodi:nodetypes="cc" />
    <path
       style="fill:none;fill-rule:evenodd;stroke:#000000;stroke-width:0.9375;stroke-linecap:round;stroke-linejoin:miter;stroke-miterlimit:2;stroke-dasharray:3.74999998, 7.49999996;stroke-dashoffset:0;stroke-opacity:1"
       d="M 15.154457,729.14999 H 1306.7369"
       id="path3336-2-6"
       inkscape:connector-curvature="0"
       sodipodi:nodetypes="cc" />
  </g>
  <g
     inkscape:groupmode="layer"
     id="layer2"
     inkscape:label="Stenozeichen"
     style="display:inline">
    <path
       style="display:inline;fill:none;fill-rule:evenodd;stroke:#000000;stroke-width:5.62499952;stroke-linecap:round;stroke-linejoin:round;stroke-miterlimit:4;stroke-dasharray:none;stroke-opacity:1"
       d="m 119.87409,209.38514 33.947,-16.018 -27.44,48.857"
       id="path3168-2"
       inkscape:connector-curvature="0"
       sodipodi:nodetypes="ccc" />
    <path
       style="display:inline;fill:none;fill-rule:evenodd;stroke:#000000;stroke-width:5.62499952;stroke-linecap:round;stroke-linejoin:round;stroke-miterlimit:4;stroke-dasharray:none;stroke-opacity:1"
       d="m 558.21585,191.81656 c 39.962,2.98 57.64522,-35.31994 56.606,-44.28 -1.42571,-12.29232 -29.31299,-4.28 -53.12999,35.04 -30.83355,50.4452 -20.37303,58.90637 -0.57116,51.61086 7.32673,-2.69935 22.12647,-10.85919 30.39236,-16.54425"
       id="path12351-7-1-51"
       inkscape:connector-curvature="0"
       sodipodi:nodetypes="cscsc" />
    <path
       style="display:inline;fill:none;fill-rule:evenodd;stroke:#060000;stroke-width:5.62499952;stroke-linecap:round;stroke-linejoin:round;stroke-miterlimit:4;stroke-dasharray:none;stroke-opacity:1"
       d="m 561.30764,288.84893 c 16.755,-0.4872 32.979,-21.3198 34.993,-47.24111 2.081,-26.7985 46.69981,-54.94712 36.276,-48.6746 l -41.06358,24.70995"
       id="path12351-7-1-8-2-1-6"
       inkscape:connector-curvature="0"
       sodipodi:nodetypes="cssc" />
    <path
       style="display:inline;fill:none;fill-rule:evenodd;stroke:#000000;stroke-width:5.62499952;stroke-linecap:round;stroke-linejoin:round;stroke-miterlimit:4;stroke-dasharray:none;stroke-opacity:1"
       d="m 993.97592,186.01384 22.81988,50.56883"
       id="path4752-1-05-7-4-3-4-3-4"
       inkscape:connector-curvature="0"
       sodipodi:nodetypes="cc" />
    <path
       style="display:inline;fill:none;fill-rule:evenodd;stroke:#000000;stroke-width:5.62499952;stroke-linecap:round;stroke-linejoin:round;stroke-miterlimit:4;stroke-dasharray:none;stroke-opacity:1"
       d="m 456.50301,232.0378 -15.34983,25.79206"
       id="path4752-1-05-7-4-3-4-3-4-8"
       inkscape:connector-curvature="0"
       sodipodi:nodetypes="cc" />
    <path
       style="display:inline;fill:none;fill-rule:evenodd;stroke:#000000;stroke-width:5.62499952;stroke-linecap:round;stroke-linejoin:round;stroke-miterlimit:4;stroke-dasharray:none;stroke-opacity:1"
       d="M 920.73543,232.0378 905.3856,257.82986"
       id="path4752-1-05-7-4-3-4-3-4-8-0"
       inkscape:connector-curvature="0"
       sodipodi:nodetypes="cc" />
    <path
       style="display:inline;fill:none;fill-rule:evenodd;stroke:#000000;stroke-width:5.62499905;stroke-linecap:round;stroke-linejoin:miter;stroke-miterlimit:4;stroke-dasharray:none;stroke-opacity:1"
       d="m 193.35697,137.65191 h 37.13701"
       id="path10938-6"
       inkscape:connector-curvature="0"
       sodipodi:nodetypes="cc" />
    <path
       style="display:inline;fill:none;fill-rule:evenodd;stroke:#000000;stroke-width:5.62499952;stroke-linecap:round;stroke-linejoin:round;stroke-miterlimit:4;stroke-dasharray:none;stroke-opacity:1"
       d="m 439.4878,609.74901 -15.34984,25.79206"
       id="path4752-1-05-7-4-3-4-3-4-8-4"
       inkscape:connector-curvature="0"
       sodipodi:nodetypes="cc" />
    <path
       style="display:inline;fill:none;fill-rule:evenodd;stroke:#000000;stroke-width:5.62499952;stroke-linecap:round;stroke-linejoin:round;stroke-miterlimit:4;stroke-dasharray:none;stroke-opacity:1"
       d="m 893.07408,609.74901 -15.3499,25.79206"
       id="path4752-1-05-7-4-3-4-3-4-8-0-7"
       inkscape:connector-curvature="0"
       sodipodi:nodetypes="cc" />
    <path
       style="display:inline;fill:none;fill-rule:evenodd;stroke:#000000;stroke-width:5.62499952;stroke-linecap:round;stroke-linejoin:miter;stroke-miterlimit:4;stroke-dasharray:none;stroke-opacity:1"
       d="M 986.89173,525.08631 949.56378,589.6163"
       id="path822-3-4-2-6"
       inkscape:connector-curvature="0"
       sodipodi:nodetypes="cc" />
    <path
       style="display:inline;fill:none;fill-rule:evenodd;stroke:#000000;stroke-width:5.62499905;stroke-linecap:round;stroke-linejoin:round;stroke-miterlimit:4;stroke-dasharray:none;stroke-opacity:1"
       d="m 117.04354,523.76599 c -39.360005,9.73999 -46.718015,24.2 -56.817003,40.70001 l -28.700001,55.03999"
       id="path3168-1-1-7"
       inkscape:connector-curvature="0"
       sodipodi:nodetypes="ccc" />
    <path
       style="display:inline;fill:none;fill-rule:evenodd;stroke:#000000;stroke-width:5.62499905;stroke-linecap:round;stroke-linejoin:round;stroke-miterlimit:4;stroke-dasharray:none;stroke-opacity:1"
       d="m 482.16851,620.37395 66.09029,-94.64039 24.0091,46.3198"
       id="path844-42-8"
       inkscape:connector-curvature="0"
       sodipodi:nodetypes="ccc" />
    <ellipse
       style="display:inline;fill:none;fill-opacity:1;stroke:#000000;stroke-width:5.62499905;stroke-linecap:round;stroke-linejoin:round;stroke-miterlimit:4;stroke-dasharray:none;stroke-dashoffset:0;stroke-opacity:1;paint-order:stroke fill markers"
       id="path44014-1-3-5-4-20-28-3-2"
       cx="400.68433"
       cy="1066.0468"
       rx="25.728554"
       ry="20.371416"
       transform="rotate(-37.736319)" />
    <path
       style="display:inline;fill:none;fill-rule:evenodd;stroke:#000000;stroke-width:5.62499905;stroke-linecap:round;stroke-linejoin:miter;stroke-miterlimit:4;stroke-dasharray:none;stroke-opacity:1"
       d="m 612.96314,519.9647 145.37973,-0.25112"
       id="path10938-01-9"
       inkscape:connector-curvature="0"
       sodipodi:nodetypes="cc" />
    <path
       style="display:inline;fill:none;fill-rule:evenodd;stroke:#000000;stroke-width:5.62499905;stroke-linecap:round;stroke-linejoin:miter;stroke-miterlimit:4;stroke-dasharray:none;stroke-opacity:1"
       d="M 874.26512,326.97848 765.06251,515.09036"
       id="path822-8-8"
       inkscape:connector-curvature="0"
       sodipodi:nodetypes="cc" />
    <path
       style="display:inline;fill:none;fill-rule:evenodd;stroke:#000000;stroke-width:5.62499952;stroke-linecap:round;stroke-linejoin:miter;stroke-miterlimit:4;stroke-dasharray:none;stroke-opacity:1"
       d="m 158.6217,518.53655 h 140.19"
       id="path10938-01"
       inkscape:connector-curvature="0"
       sodipodi:nodetypes="cc" />
    <path
       style="display:inline;fill:none;fill-rule:evenodd;stroke:#000000;stroke-width:5.62499952;stroke-linecap:round;stroke-linejoin:round;stroke-miterlimit:4;stroke-dasharray:none;stroke-opacity:1"
       d="m 302.35482,518.28718 c 23.41228,4.32446 48.57794,-25.079 67.78746,-25.63976 19.33721,1.03911 14.32567,27.268 28.83701,26.96299 7.1942,-0.15121 13.18064,-5.30382 17.10311,-8.57104"
       id="path844-5-9-31-47-9-9"
       inkscape:connector-curvature="0"
       sodipodi:nodetypes="ccsc" />
    <path
       style="display:inline;fill:none;fill-rule:evenodd;stroke:#000000;stroke-width:5.62499952;stroke-linecap:round;stroke-linejoin:round;stroke-miterlimit:4;stroke-dasharray:none;stroke-opacity:1"
       d="m 309.35429,506.68318 c 0.68525,0.0761 1.28189,0.21456 1.76502,0.46374 0.15851,0.0831 0.30386,0.17304 0.43675,0.26994 0.8562,0.66447 1.16629,1.79961 0.68938,3.61998 -0.93233,3.53693 -4.93576,5.57188 -6.8392,6.29171 -3.93976,1.42585 -6.86067,-1.82037 -4.60978,-5.31577 1.40854,-2.18029 3.8484,-4.60285 6.72916,-5.19811 0.19518,-0.0692 0.39452,-0.0761 0.59387,-0.0969 0.2395,0 0.48244,-0.0692 0.72747,-0.0692 0.55441,0 1.12128,0.0761 1.69648,0.23533"
       id="path12351-7-1-4-77-9-9"
       inkscape:connector-curvature="0"
       sodipodi:nodetypes="cssscssssc" />
    <path
       style="display:inline;fill:none;fill-rule:evenodd;stroke:#000000;stroke-width:5.62499952;stroke-linecap:round;stroke-linejoin:miter;stroke-miterlimit:4;stroke-dasharray:none;stroke-opacity:1"
       d="m 1036.1512,518.18465 h 140.19"
       id="path10938-01-6"
       inkscape:connector-curvature="0"
       sodipodi:nodetypes="cc" />
    <path
       style="display:inline;fill:none;fill-rule:evenodd;stroke:#000000;stroke-width:5.62499952;stroke-linecap:round;stroke-linejoin:round;stroke-miterlimit:4;stroke-dasharray:none;stroke-opacity:1"
       d="m 1179.8843,517.93528 c 23.4123,4.32446 48.578,-25.07901 67.7875,-25.63977 19.3372,1.03911 14.3257,27.26801 28.837,26.963 7.1942,-0.15121 13.1807,-5.30382 17.1031,-8.57104"
       id="path844-5-9-31-47-9-9-0"
       inkscape:connector-curvature="0"
       sodipodi:nodetypes="ccsc" />
    <path
       style="display:inline;fill:none;fill-rule:evenodd;stroke:#000000;stroke-width:5.62499952;stroke-linecap:round;stroke-linejoin:round;stroke-miterlimit:4;stroke-dasharray:none;stroke-opacity:1"
       d="m 1186.8838,506.33127 c 0.6853,0.0761 1.2819,0.21456 1.765,0.46374 0.1585,0.0831 0.3039,0.17304 0.4368,0.26994 0.8562,0.66447 1.1663,1.79961 0.6894,3.61999 -0.9324,3.53693 -4.9358,5.57187 -6.8392,6.29171 -3.9398,1.42585 -6.8607,-1.82037 -4.6098,-5.31578 1.4085,-2.18029 3.8484,-4.60285 6.7291,-5.1981 0.1952,-0.0692 0.3946,-0.0761 0.5939,-0.0969 0.2395,0 0.4825,-0.0692 0.7275,-0.0692 0.5544,0 1.1213,0.0761 1.6965,0.23533"
       id="path12351-7-1-4-77-9"
       inkscape:connector-curvature="0"
       sodipodi:nodetypes="cssscssssc" />
    <path
       style="display:inline;fill:none;fill-rule:evenodd;stroke:#000000;stroke-width:5.625;stroke-linecap:round;stroke-linejoin:round;stroke-miterlimit:4;stroke-dasharray:none;stroke-opacity:1"
       d="m 763.37658,508.35457 c 0.68525,0.0761 1.28189,0.21456 1.76502,0.46374 0.15851,0.0831 0.30386,0.17304 0.43675,0.26994 0.8562,0.66447 1.16629,1.79961 0.68938,3.61998 -0.93233,3.53693 -4.93576,5.57188 -6.8392,6.29171 -3.93976,1.42585 -6.86067,-1.82037 -4.60978,-5.31577 1.40854,-2.18029 3.8484,-4.60285 6.72916,-5.19811 0.19518,-0.0692 0.39452,-0.0761 0.59387,-0.0969 0.2395,0 0.48244,-0.0692 0.72747,-0.0692 0.55441,0 1.12128,0.0761 1.69648,0.23533"
       id="path12351-7-1-4-77-9-9-0"
       inkscape:connector-curvature="0"
       sodipodi:nodetypes="cssscssssc" />
    <path
       style="display:inline;fill:none;fill-rule:evenodd;stroke:#000000;stroke-width:5.625;stroke-linecap:round;stroke-linejoin:round;stroke-miterlimit:4;stroke-dasharray:none;stroke-opacity:1"
       d="m 238.46238,126.67287 c 0.68525,0.0761 1.28189,0.21456 1.76502,0.46374 0.15851,0.0831 0.30386,0.17304 0.43675,0.26994 0.8562,0.66447 1.16629,1.79961 0.68938,3.61998 -0.93233,3.53693 -4.93576,5.57188 -6.8392,6.29171 -3.93976,1.42585 -6.86067,-1.82037 -4.60978,-5.31577 1.40854,-2.18029 3.8484,-4.60285 6.72916,-5.19811 0.19518,-0.0692 0.39452,-0.0761 0.59387,-0.0969 0.2395,0 0.48244,-0.0692 0.72747,-0.0692 0.55441,0 1.12128,0.0761 1.69648,0.23533"
       id="path12351-7-1-4-77-9-9-6"
       inkscape:connector-curvature="0"
       sodipodi:nodetypes="cssscssssc" />
    <path
       style="display:inline;fill:none;fill-rule:evenodd;stroke:#000000;stroke-width:5.62499905;stroke-linecap:round;stroke-linejoin:miter;stroke-miterlimit:4;stroke-dasharray:none;stroke-opacity:1"
       d="m 692.1462,136.56104 h 37.13701"
       id="path10938-6-7"
       inkscape:connector-curvature="0"
       sodipodi:nodetypes="cc" />
    <path
       style="display:inline;fill:none;fill-rule:evenodd;stroke:#000000;stroke-width:5.62500048;stroke-linecap:round;stroke-linejoin:round;stroke-miterlimit:4;stroke-dasharray:none;stroke-opacity:1"
       d="m 737.25161,125.582 c 0.68525,0.0761 1.28189,0.21456 1.76502,0.46374 0.15851,0.0831 0.30386,0.17304 0.43675,0.26994 0.8562,0.66447 1.16629,1.79961 0.68938,3.61998 -0.93233,3.53693 -4.93576,5.57188 -6.8392,6.29171 -3.93976,1.42585 -6.86067,-1.82037 -4.60978,-5.31577 1.40854,-2.18029 3.8484,-4.60285 6.72916,-5.19811 0.19518,-0.0692 0.39452,-0.0761 0.59387,-0.0969 0.2395,0 0.48244,-0.0692 0.72747,-0.0692 0.55441,0 1.12128,0.0761 1.69648,0.23533"
       id="path12351-7-1-4-77-9-9-6-7"
       inkscape:connector-curvature="0"
       sodipodi:nodetypes="cssscssssc" />
    <path
       style="display:inline;fill:none;fill-rule:evenodd;stroke:#000000;stroke-width:5.62499905;stroke-linecap:round;stroke-linejoin:miter;stroke-miterlimit:4;stroke-dasharray:none;stroke-opacity:1"
       d="m 1060.7172,135.93349 h 37.137"
       id="path10938-6-9"
       inkscape:connector-curvature="0"
       sodipodi:nodetypes="cc" />
    <path
       style="display:inline;fill:none;fill-rule:evenodd;stroke:#000000;stroke-width:5.62500048;stroke-linecap:round;stroke-linejoin:round;stroke-miterlimit:4;stroke-dasharray:none;stroke-opacity:1"
       d="m 1105.8226,124.95445 c 0.6853,0.0761 1.2819,0.21456 1.7651,0.46374 0.1585,0.0831 0.3038,0.17304 0.4367,0.26994 0.8562,0.66447 1.1663,1.79961 0.6894,3.61998 -0.9323,3.53693 -4.9358,5.57188 -6.8392,6.29171 -3.9398,1.42585 -6.8607,-1.82037 -4.6098,-5.31577 1.4085,-2.18029 3.8484,-4.60285 6.7292,-5.19811 0.1951,-0.0692 0.3945,-0.0761 0.5938,-0.0969 0.2395,0 0.4825,-0.0692 0.7275,-0.0692 0.5544,0 1.1213,0.0761 1.6965,0.23533"
       id="path12351-7-1-4-77-9-9-6-6"
       inkscape:connector-curvature="0"
       sodipodi:nodetypes="cssscssssc" />
  </g>
</svg>
