<?xml version="1.0" encoding="UTF-8" standalone="no"?>
<!-- Created with Inkscape (http://www.inkscape.org/) -->

<svg
   xmlns:dc="http://purl.org/dc/elements/1.1/"
   xmlns:cc="http://creativecommons.org/ns#"
   xmlns:rdf="http://www.w3.org/1999/02/22-rdf-syntax-ns#"
   xmlns:svg="http://www.w3.org/2000/svg"
   xmlns="http://www.w3.org/2000/svg"
   xmlns:sodipodi="http://sodipodi.sourceforge.net/DTD/sodipodi-0.dtd"
   xmlns:inkscape="http://www.inkscape.org/namespaces/inkscape"
   width="297mm"
   height="210mm"
   viewBox="0 0 1052.3622 744.09448"
   id="svg2"
   version="1.1"
   inkscape:version="0.92.3 (2405546, 2018-03-11)"
   sodipodi:docname="DEK Deutsche Einheitskurzschrift - Verkehrsschrift - einschließlich.svg">
  <defs
     id="defs4" />
  <sodipodi:namedview
     id="base"
     pagecolor="#ffffff"
     bordercolor="#666666"
     borderopacity="1.0"
     inkscape:pageopacity="0.0"
     inkscape:pageshadow="2"
     inkscape:zoom="0.7"
     inkscape:cx="562.56364"
     inkscape:cy="445.45812"
     inkscape:document-units="px"
     inkscape:current-layer="layer2"
     showgrid="false"
     inkscape:window-width="1920"
     inkscape:window-height="1017"
     inkscape:window-x="1592"
     inkscape:window-y="-8"
     inkscape:window-maximized="1"
     showguides="true"
     inkscape:guide-bbox="true" />
  <metadata
     id="metadata7">
    <rdf:RDF>
      <cc:Work
         rdf:about="">
        <dc:format>image/svg+xml</dc:format>
        <dc:type
           rdf:resource="http://purl.org/dc/dcmitype/StillImage" />
        <dc:title></dc:title>
      </cc:Work>
    </rdf:RDF>
  </metadata>
  <g
     inkscape:label="Grundlinien"
     inkscape:groupmode="layer"
     id="layer1"
     transform="translate(0,-308.26772)"
     style="display:inline"
     sodipodi:insensitive="true">
    <path
       style="fill:none;fill-rule:evenodd;stroke:#969696;stroke-width:1.875;stroke-linecap:round;stroke-linejoin:miter;stroke-miterlimit:4;stroke-dasharray:none;stroke-opacity:1"
       d="M 57.556226,742.24566 H 1006.4206"
       id="path3336"
       inkscape:connector-curvature="0"
       sodipodi:nodetypes="cc" />
    <path
       style="fill:none;fill-rule:evenodd;stroke:#000000;stroke-width:0.9375;stroke-linecap:round;stroke-linejoin:miter;stroke-miterlimit:2;stroke-dasharray:3.74999998, 7.49999996;stroke-dashoffset:0;stroke-opacity:1"
       d="M 58.279456,844.14792 H 1007.1438"
       id="path3336-4"
       inkscape:connector-curvature="0"
       sodipodi:nodetypes="cc" />
    <path
       style="fill:none;fill-rule:evenodd;stroke:#000000;stroke-width:0.9375;stroke-linecap:round;stroke-linejoin:miter;stroke-miterlimit:2;stroke-dasharray:3.74999998, 7.49999996;stroke-dashoffset:0;stroke-opacity:1"
       d="M 58.279456,641.7697 H 1007.1438"
       id="path3336-7"
       inkscape:connector-curvature="0"
       sodipodi:nodetypes="cc" />
    <path
       style="fill:none;fill-rule:evenodd;stroke:#000000;stroke-width:0.9375;stroke-linecap:round;stroke-linejoin:miter;stroke-miterlimit:2;stroke-dasharray:3.74999998, 7.49999996;stroke-dashoffset:0;stroke-opacity:1"
       d="M 58.279456,540.58062 H 1007.1438"
       id="path3336-2"
       inkscape:connector-curvature="0"
       sodipodi:nodetypes="cc" />
  </g>
  <g
     inkscape:groupmode="layer"
     id="layer2"
     inkscape:label="Buchstaben"
     style="display:inline">
    <path
       style="display:inline;fill:none;fill-rule:evenodd;stroke:#000000;stroke-width:5.625;stroke-linecap:round;stroke-linejoin:round;stroke-miterlimit:4;stroke-dasharray:none;stroke-opacity:1"
       d="m 523.22763,432.20731 c -36.00906,24.20144 -56.57296,39.58776 -79.66652,60.76739 -18.462,18.414 -21.896,28.016 -19.956,34.275 0.933,3.011 16.314,22.901 59.804,-38.095 26.94401,-36.889 54.63901,-73.401 69.336,-116.413 11.04841,-21.4128 2.87561,-42.59359 -15.995,-36.24776 -7.61354,2.56029 -17.78527,7.33047 -30.21584,19.69786"
       id="path12351-7-1-8-43-1-7"
       inkscape:connector-curvature="0"
       sodipodi:nodetypes="ccsccsc" />
    <path
       style="display:inline;fill:none;fill-rule:evenodd;stroke:#000000;stroke-width:5.625;stroke-linecap:round;stroke-linejoin:round;stroke-miterlimit:4;stroke-dasharray:none;stroke-opacity:1"
       d="m 225.66927,432.15181 c 16.857,-15.48 55.535,-36.11001 83.715,-37.18001 39.775,-1.51 60.298,36.69001 94.61401,36.80001 27.57099,-0.47 77.59699,-51.11001 102.53599,-75.58001"
       id="path844-5-9-31-2-8-5-1-6-45"
       inkscape:connector-curvature="0"
       sodipodi:nodetypes="cscc" />
    <path
       style="display:inline;fill:none;fill-rule:evenodd;stroke:#000000;stroke-width:5.625;stroke-linecap:round;stroke-linejoin:round;stroke-miterlimit:4;stroke-dasharray:none;stroke-opacity:1"
       d="m 530.34194,410.71826 c 0.59829,0.0609 1.11989,0.18746 1.54228,0.40231 0.13756,0.0706 0.26537,0.15033 0.38101,0.2398 0.74741,0.5776 1.01947,1.5715 0.60194,3.15943 -0.81374,3.0937 -4.31097,4.86665 -5.97376,5.49659 -3.44245,1.24649 -5.99324,-1.59219 -4.02674,-4.64328 1.22945,-1.90625 3.36211,-4.02126 5.87821,-4.54103 0.17103,-0.0365 0.34388,-0.0633 0.51795,-0.0834 0.20998,-0.0243 0.42178,-0.0365 0.63602,-0.0365 0.48448,0 0.97991,0.0633 1.48264,0.20207"
       id="path12351-7-1-4-58-7-2-1-7-79-8"
       inkscape:connector-curvature="0"
       sodipodi:nodetypes="cssscssssc" />
    <path
       style="display:inline;fill:none;fill-rule:evenodd;stroke:#000000;stroke-width:5.625;stroke-linecap:round;stroke-linejoin:round;stroke-miterlimit:4;stroke-dasharray:none;stroke-opacity:1"
       d="m 524.56692,420.15374 c 8.61385,3.49724 19.59135,-2.7837 32.84932,-15.01323"
       id="path844-99-4-6-9-5-4-5"
       inkscape:connector-curvature="0"
       sodipodi:nodetypes="cc" />
    <ellipse
       style="display:inline;fill:none;fill-opacity:1;stroke:#000000;stroke-width:5.625;stroke-linecap:round;stroke-linejoin:round;stroke-miterlimit:4;stroke-dasharray:none;stroke-dashoffset:0;stroke-opacity:1;paint-order:stroke fill markers"
       id="path59569-6-9"
       cx="453.13013"
       cy="624.04492"
       rx="62.130169"
       ry="44.633743"
       transform="rotate(-28.225512)" />
    <path
       style="display:inline;fill:none;fill-rule:evenodd;stroke:#000000;stroke-width:5.625;stroke-linecap:round;stroke-linejoin:round;stroke-miterlimit:4;stroke-dasharray:none;stroke-opacity:1"
       d="m 557.41624,405.14051 c 28.8891,-29.11135 83.71632,-84.63064 98.10351,-96.35827"
       id="path12351-7-1-4-17-5-9-0-1-0-0"
       inkscape:connector-curvature="0"
       sodipodi:nodetypes="cc" />
    <path
       style="display:inline;fill:none;fill-rule:evenodd;stroke:#000000;stroke-width:5.625;stroke-linecap:round;stroke-linejoin:round;stroke-miterlimit:4;stroke-dasharray:none;stroke-opacity:1"
       d="m 682.7922,291.65154 c 34.85151,-18.35446 71.01198,-23.07249 76.41564,-23.86311 11.4417,-1.67329 25.66727,-0.20861 23.40081,7.39027 -0.046,0.22826 0.009,0.44992 -0.0154,0.66752 -0.13938,1.40525 -0.87928,2.63062 -2.50534,3.58533 -3.16816,1.86157 -6.98201,-0.0135 -8.39018,-1.39514 -3.19968,-0.87544 0.35263,-11.97362 1.15639,-10.54285 1.45272,2.57628 0,0 8.41405,3.72973 0.17308,0.08 0.23131,0.3473 0.33786,0.53451 0.12857,0.22393 0.34875,0.69577 0.45904,0.94782 0.24636,0.56941 0.34115,0.9757 0.47407,1.69326"
       id="path12351-7-1-4-97-0-6-1"
       inkscape:connector-curvature="0"
       sodipodi:nodetypes="cscsscssssc" />
    <path
       style="display:inline;fill:none;fill-opacity:1;stroke:#000000;stroke-width:5.625;stroke-linecap:round;stroke-linejoin:round;stroke-miterlimit:4;stroke-dasharray:none;stroke-dashoffset:0;stroke-opacity:1"
       id="path6585-73-3-9"
       sodipodi:type="arc"
       sodipodi:cx="802.94196"
       sodipodi:cy="185.14798"
       sodipodi:rx="5.4690275"
       sodipodi:ry="1.8230093"
       sodipodi:start="0"
       sodipodi:end="6.2778271"
       d="m 808.41098,185.14798 a 5.4690275,1.8230093 0 0 1 -5.4617,1.82301 5.4690275,1.8230093 0 0 1 -5.47633,-1.81813 5.4690275,1.8230093 0 0 1 5.44703,-1.82787 5.4690275,1.8230093 0 0 1 5.49092,1.81322 l -5.46894,0.01 z"
       transform="rotate(6.4755368)" />
  </g>
</svg>
