<?xml version="1.0" encoding="UTF-8" standalone="no"?>
<!-- Created with Inkscape (http://www.inkscape.org/) -->

<svg
   xmlns:dc="http://purl.org/dc/elements/1.1/"
   xmlns:cc="http://creativecommons.org/ns#"
   xmlns:rdf="http://www.w3.org/1999/02/22-rdf-syntax-ns#"
   xmlns:svg="http://www.w3.org/2000/svg"
   xmlns="http://www.w3.org/2000/svg"
   xmlns:sodipodi="http://sodipodi.sourceforge.net/DTD/sodipodi-0.dtd"
   xmlns:inkscape="http://www.inkscape.org/namespaces/inkscape"
   width="297mm"
   height="210mm"
   viewBox="0 0 1052.3622 744.09448"
   id="svg2"
   version="1.1"
   inkscape:version="0.92.3 (2405546, 2018-03-11)"
   sodipodi:docname="DEK Deutsche Einheitskurzschrift - Verkehrsschrift - flugtüchtig.svg">
  <defs
     id="defs4" />
  <sodipodi:namedview
     id="base"
     pagecolor="#ffffff"
     bordercolor="#666666"
     borderopacity="1.0"
     inkscape:pageopacity="0.0"
     inkscape:pageshadow="2"
     inkscape:zoom="0.7"
     inkscape:cx="542.65195"
     inkscape:cy="461.11572"
     inkscape:document-units="px"
     inkscape:current-layer="layer2"
     showgrid="false"
     inkscape:window-width="1920"
     inkscape:window-height="1017"
     inkscape:window-x="1592"
     inkscape:window-y="-8"
     inkscape:window-maximized="1" />
  <metadata
     id="metadata7">
    <rdf:RDF>
      <cc:Work
         rdf:about="">
        <dc:format>image/svg+xml</dc:format>
        <dc:type
           rdf:resource="http://purl.org/dc/dcmitype/StillImage" />
        <dc:title></dc:title>
      </cc:Work>
    </rdf:RDF>
  </metadata>
  <g
     inkscape:label="Grundlinien"
     inkscape:groupmode="layer"
     id="layer1"
     transform="translate(0,-308.26772)"
     style="display:inline"
     sodipodi:insensitive="true">
    <path
       style="fill:none;fill-rule:evenodd;stroke:#969696;stroke-width:1.875;stroke-linecap:round;stroke-linejoin:miter;stroke-miterlimit:4;stroke-dasharray:none;stroke-opacity:1"
       d="M 57.556226,742.24566 H 1006.4206"
       id="path3336"
       inkscape:connector-curvature="0"
       sodipodi:nodetypes="cc" />
    <path
       style="fill:none;fill-rule:evenodd;stroke:#000000;stroke-width:0.9375;stroke-linecap:round;stroke-linejoin:miter;stroke-miterlimit:2;stroke-dasharray:3.74999998, 7.49999996;stroke-dashoffset:0;stroke-opacity:1"
       d="M 58.279456,844.14792 H 1007.1438"
       id="path3336-4"
       inkscape:connector-curvature="0"
       sodipodi:nodetypes="cc" />
    <path
       style="fill:none;fill-rule:evenodd;stroke:#000000;stroke-width:0.9375;stroke-linecap:round;stroke-linejoin:miter;stroke-miterlimit:2;stroke-dasharray:3.74999998, 7.49999996;stroke-dashoffset:0;stroke-opacity:1"
       d="M 58.279456,641.7697 H 1007.1438"
       id="path3336-7"
       inkscape:connector-curvature="0"
       sodipodi:nodetypes="cc" />
    <path
       style="fill:none;fill-rule:evenodd;stroke:#000000;stroke-width:0.9375;stroke-linecap:round;stroke-linejoin:miter;stroke-miterlimit:2;stroke-dasharray:3.74999998, 7.49999996;stroke-dashoffset:0;stroke-opacity:1"
       d="M 58.279456,540.58062 H 1007.1438"
       id="path3336-2"
       inkscape:connector-curvature="0"
       sodipodi:nodetypes="cc" />
  </g>
  <g
     inkscape:groupmode="layer"
     id="layer2"
     inkscape:label="Buchstaben"
     style="display:inline">
    <path
       style="display:inline;fill:none;fill-rule:evenodd;stroke:#000000;stroke-width:5.625;stroke-linecap:round;stroke-linejoin:round;stroke-miterlimit:4;stroke-dasharray:none;stroke-opacity:1"
       d="M 478.46513,431.25598 651.56487,195.71056 c 11.16199,-9.98 20.1,-9.59 25.471,-8.33 19.137,4.49 11.196,19.57 -4.714,41.04 -15.018,20.27 -24.504,36.82 -43.13301,61.89 -26.333,35.44 -54.96,68.04 -47.793,86.25 9.618,18.51 32.307,6.54 53.028,-11.67"
       id="path844-7-7-6-7-0-6"
       inkscape:connector-curvature="0"
       sodipodi:nodetypes="ccssscc" />
    <path
       style="display:inline;fill:none;fill-rule:evenodd;stroke:#000000;stroke-width:5.625;stroke-linecap:round;stroke-linejoin:round;stroke-miterlimit:4;stroke-dasharray:none;stroke-opacity:1"
       d="m 687.12487,209.58056 c -0.82101,5.44 -0.688,9.79 -5.709,20.03 l -93.81601,134.94 -1.843,13.48"
       id="path25835-12-4-92"
       inkscape:connector-curvature="0"
       sodipodi:nodetypes="cccc" />
    <path
       style="display:inline;fill:none;fill-rule:evenodd;stroke:#000000;stroke-width:8.4375;stroke-linecap:round;stroke-linejoin:round;stroke-miterlimit:4;stroke-dasharray:none;stroke-opacity:1"
       d="m 682.23886,219.82056 -67.868,98.79 -28.591,41.77 -2.187,10.72"
       id="path25835-6-6-7-4"
       inkscape:connector-curvature="0"
       sodipodi:nodetypes="cccc" />
    <path
       style="display:inline;fill:none;fill-rule:evenodd;stroke:#000000;stroke-width:3.74999976;stroke-linecap:round;stroke-linejoin:round;stroke-miterlimit:4;stroke-dasharray:none;stroke-opacity:1"
       d="m 598.36286,350.63056 c -5.145,7.73 -10.001,15.62 -10.035,22.52 -0.01,3.1 0.04,6.14 2.737,8.27 1.892,1.5 3.73,4.08 9.902,2.85"
       id="path25835-8-96-0-0"
       inkscape:connector-curvature="0"
       sodipodi:nodetypes="cssc" />
    <path
       style="display:inline;fill:none;fill-rule:evenodd;stroke:#000000;stroke-width:3.74999976;stroke-linecap:round;stroke-linejoin:round;stroke-miterlimit:4;stroke-dasharray:none;stroke-opacity:1"
       d="m 687.97887,193.20056 c 2.815,5.23 2.149,16.51 -1.00601,26.4 -1.64199,5.15 -4.25599,10.54 -8.74699,16.21"
       id="path25835-8-0-4-0-4"
       inkscape:connector-curvature="0"
       sodipodi:nodetypes="csc" />
    <path
       style="display:inline;fill:none;fill-rule:evenodd;stroke:#000000;stroke-width:5.625;stroke-linecap:round;stroke-linejoin:round;stroke-miterlimit:4;stroke-dasharray:none;stroke-opacity:1"
       d="m 634.42386,364.89056 c 19.75446,-21.42857 56.76283,-73.44241 56.76283,-73.44241"
       id="path844-99-4-6-25-0-7-5-1-6"
       inkscape:connector-curvature="0"
       sodipodi:nodetypes="cc" />
    <path
       style="display:inline;fill:none;fill-rule:evenodd;stroke:#000000;stroke-width:5.625;stroke-linecap:round;stroke-linejoin:round;stroke-miterlimit:4;stroke-dasharray:none;stroke-opacity:1"
       d="m 691.18669,291.44815 c 21.57,-28.853 36.063,-52.402 56.90001,-56.812 10.717,-2.704 14.331,0.67 18.713,3.162 7.55997,4.301 7.98197,17.182 -5.957,41.523 l -29.829,52.09"
       id="path12351-3-7-7-9-65-8"
       inkscape:connector-curvature="0"
       sodipodi:nodetypes="ccssc" />
    <path
       style="display:inline;fill:none;fill-rule:evenodd;stroke:#0a0000;stroke-width:5.625;stroke-linecap:round;stroke-linejoin:round;stroke-miterlimit:4;stroke-dasharray:none;stroke-opacity:1"
       d="m 506.85024,336.39697 -28.38511,94.85901"
       id="path844-99-4-6-9"
       inkscape:connector-curvature="0"
       sodipodi:nodetypes="cc" />
    <path
       style="display:inline;fill:none;fill-rule:evenodd;stroke:#000000;stroke-width:5.625;stroke-linecap:round;stroke-linejoin:round;stroke-miterlimit:4;stroke-dasharray:none;stroke-opacity:1"
       d="m 337.87485,342.40205 c 64.03017,-35.05346 128.72012,-93.89681 97.68911,-104.58681 -14.56399,-5.01 -40.24901,8.89 -87.435,86.79 -51.53309,89.0108 -40.81534,108.36941 -14.45732,106.67087 5.52345,-0.54817 12.44169,-3.18156 20.00859,-7.68231 6.84868,-4.07357 22.39095,-15.8064 33.0974,-23.78238"
       id="path12351-7-1-1-1"
       inkscape:connector-curvature="0"
       sodipodi:nodetypes="csccsc" />
    <path
       style="display:inline;fill:none;fill-rule:evenodd;stroke:#000000;stroke-width:5.625;stroke-linecap:round;stroke-linejoin:round;stroke-miterlimit:4;stroke-dasharray:none;stroke-opacity:1"
       d="m 386.77763,399.81142 c 5.17601,-3.25001 10.62201,-6.21 16.42801,-8.74001 15.69261,-6.62089 28.66076,1.59816 21.60378,20.85481 -5.03788,14.513 -28.12968,71.7452 -28.12968,71.7452"
       id="path12351-3-7-7-0-7"
       inkscape:connector-curvature="0"
       sodipodi:nodetypes="cccc" />
    <path
       style="display:inline;fill:none;fill-opacity:1;fill-rule:evenodd;stroke:#000000;stroke-width:5.625;stroke-linecap:round;stroke-linejoin:round;stroke-miterlimit:4;stroke-dasharray:none;stroke-opacity:1"
       d="m 355.35238,411.77436 c 0.86562,0.11465 1.62117,0.27515 2.23111,0.58472 0.19949,0.11466 0.38408,0.21784 0.55147,0.34395 1.08116,0.83697 1.47441,2.27009 0.8702,4.57457 -1.17632,4.4714 -6.23586,7.03958 -8.64124,7.94532 -4.97929,1.80003 -8.66991,-2.30448 -5.82427,-6.71855 1.77824,-2.75162 4.86349,-5.8128 8.50252,-6.5695 0.24764,0 0.49758,-0.11465 0.74981,-0.11465 0.30383,0 0.60995,-0.11467 0.9195,-0.11467 0.70167,0 1.41824,0.11467 2.14512,0.28665"
       id="path12351-7-1-4-7-1-2"
       inkscape:connector-curvature="0"
       sodipodi:nodetypes="cssscssssc" />
    <path
       style="display:inline;fill:none;fill-rule:evenodd;stroke:#000000;stroke-width:5.625;stroke-linecap:round;stroke-linejoin:miter;stroke-miterlimit:4;stroke-dasharray:none;stroke-opacity:1"
       d="M 506.85024,336.39697 396.67974,483.67142"
       id="path822-8-5-8-3-1"
       inkscape:connector-curvature="0"
       sodipodi:nodetypes="cc" />
  </g>
</svg>
