<?xml version="1.0" encoding="UTF-8" standalone="no"?>
<!-- Created with Inkscape (http://www.inkscape.org/) -->

<svg
   xmlns:dc="http://purl.org/dc/elements/1.1/"
   xmlns:cc="http://creativecommons.org/ns#"
   xmlns:rdf="http://www.w3.org/1999/02/22-rdf-syntax-ns#"
   xmlns:svg="http://www.w3.org/2000/svg"
   xmlns="http://www.w3.org/2000/svg"
   xmlns:sodipodi="http://sodipodi.sourceforge.net/DTD/sodipodi-0.dtd"
   xmlns:inkscape="http://www.inkscape.org/namespaces/inkscape"
   width="297mm"
   height="210mm"
   viewBox="0 0 1052.3622 744.09448"
   id="svg2"
   version="1.1"
   inkscape:version="0.92.3 (2405546, 2018-03-11)"
   sodipodi:docname="DEK Deutsche Einheitskurzschrift - Verkehrsschrift - Fernsehzeitschrift.svg">
  <defs
     id="defs4" />
  <sodipodi:namedview
     id="base"
     pagecolor="#ffffff"
     bordercolor="#666666"
     borderopacity="1.0"
     inkscape:pageopacity="0.0"
     inkscape:pageshadow="2"
     inkscape:zoom="0.7"
     inkscape:cx="593.24636"
     inkscape:cy="417.60315"
     inkscape:document-units="px"
     inkscape:current-layer="layer2"
     showgrid="false"
     inkscape:window-width="1920"
     inkscape:window-height="1017"
     inkscape:window-x="1592"
     inkscape:window-y="-8"
     inkscape:window-maximized="1"
     showguides="true"
     inkscape:guide-bbox="true" />
  <metadata
     id="metadata7">
    <rdf:RDF>
      <cc:Work
         rdf:about="">
        <dc:format>image/svg+xml</dc:format>
        <dc:type
           rdf:resource="http://purl.org/dc/dcmitype/StillImage" />
        <dc:title></dc:title>
      </cc:Work>
    </rdf:RDF>
  </metadata>
  <g
     inkscape:label="Grundlinien"
     inkscape:groupmode="layer"
     id="layer1"
     transform="translate(0,-308.26772)"
     sodipodi:insensitive="true"
     style="display:inline">
    <path
       style="fill:none;fill-rule:evenodd;stroke:#000000;stroke-width:1.875;stroke-linecap:round;stroke-linejoin:miter;stroke-miterlimit:4;stroke-dasharray:none;stroke-opacity:1"
       d="M 57.556226,742.24566 H 1006.4206"
       id="path3336"
       inkscape:connector-curvature="0"
       sodipodi:nodetypes="cc" />
    <path
       style="fill:none;fill-rule:evenodd;stroke:#000000;stroke-width:0.9375;stroke-linecap:round;stroke-linejoin:miter;stroke-miterlimit:2;stroke-dasharray:3.74999998, 7.49999996;stroke-dashoffset:0;stroke-opacity:1"
       d="M 58.279456,844.14792 H 1007.1438"
       id="path3336-4"
       inkscape:connector-curvature="0"
       sodipodi:nodetypes="cc" />
    <path
       style="fill:none;fill-rule:evenodd;stroke:#000000;stroke-width:0.9375;stroke-linecap:round;stroke-linejoin:miter;stroke-miterlimit:2;stroke-dasharray:3.74999998, 7.49999996;stroke-dashoffset:0;stroke-opacity:1"
       d="M 58.279456,641.7697 H 1007.1438"
       id="path3336-7"
       inkscape:connector-curvature="0"
       sodipodi:nodetypes="cc" />
    <path
       style="fill:none;fill-rule:evenodd;stroke:#000000;stroke-width:0.9375;stroke-linecap:round;stroke-linejoin:miter;stroke-miterlimit:2;stroke-dasharray:3.74999998, 7.49999996;stroke-dashoffset:0;stroke-opacity:1"
       d="M 58.279456,540.58062 H 1007.1438"
       id="path3336-2"
       inkscape:connector-curvature="0"
       sodipodi:nodetypes="cc" />
  </g>
  <g
     inkscape:groupmode="layer"
     id="layer2"
     inkscape:label="Stenozeichen"
     style="display:inline">
    <path
       style="display:inline;fill:none;fill-rule:evenodd;stroke:#000000;stroke-width:5.625;stroke-linecap:round;stroke-linejoin:round;stroke-miterlimit:4;stroke-dasharray:none;stroke-opacity:1"
       d="M 829.27784,358.47013 931.05193,254.05803"
       id="path844-52-80-29-2-3-2-6"
       inkscape:connector-curvature="0"
       sodipodi:nodetypes="cc" />
    <path
       style="display:inline;fill:none;fill-rule:evenodd;stroke:#000000;stroke-width:5.625;stroke-linecap:round;stroke-linejoin:round;stroke-miterlimit:4;stroke-dasharray:none;stroke-opacity:1"
       d="m 931.05193,254.05803 c 29.487,-31.435 49.322,-57.992 33.68,-63.38 -14.561,-5.017 -40.249,8.89 -87.4337,86.78 -60.29669,104.16 -33.51499,122.21001 -1.825,98.38001 l 16.449,-12.37001"
       id="path12351-7-1-42-0-1-1-8"
       inkscape:connector-curvature="0"
       sodipodi:nodetypes="cscsc" />
    <path
       style="display:inline;fill:none;fill-rule:evenodd;stroke:#000000;stroke-width:5.625;stroke-linecap:round;stroke-linejoin:miter;stroke-miterlimit:4;stroke-dasharray:none;stroke-opacity:1"
       d="m 1019.3406,189.52949 c 0,0 -90.58797,144.47425 -127.41837,173.93854"
       id="path822-8-8"
       inkscape:connector-curvature="0"
       sodipodi:nodetypes="cc" />
    <path
       style="display:inline;fill:none;fill-rule:evenodd;stroke:#000000;stroke-width:5.625;stroke-linecap:round;stroke-linejoin:round;stroke-miterlimit:4;stroke-dasharray:none;stroke-opacity:1"
       d="m 829.27784,358.47013 c 0,0 -46.58117,50.00872 -80.48899,69.02623 -11.79528,6.6155 -21.7822,14.29029 -23.28203,15.14524 -41.56754,23.6948 -75.844,71.46799 -70.472,85.01899 1.162,2.931 9.617,22.23101 53.107,-38.76499 48.059,-67.29101 86.24001,-138.11001 121.90301,-209.82802 15.4941,-26.46467 11.7579,-44.54415 -2.52111,-44.22653 -14.38817,0.32005 -18.50537,4.70961 -39.47839,28.25428"
       id="path12351-7-1-8-52-2-4"
       inkscape:connector-curvature="0"
       sodipodi:nodetypes="csssccsc" />
    <path
       style="display:inline;fill:none;fill-rule:evenodd;stroke:#060000;stroke-width:5.625;stroke-linecap:round;stroke-linejoin:round;stroke-miterlimit:4;stroke-dasharray:none;stroke-opacity:1"
       d="m 422.64873,433.7078 c -23.96637,13.9957 -32.26553,21.5552 -48.29657,36.57396 -23.85781,22.35131 -34.40257,52.76107 -31.75662,59.70281 1.12292,2.94604 17.73699,21.817 57.25999,-41.82101 l 86.61993,-151.32051"
       id="path12351-7-1-8-1"
       inkscape:connector-curvature="0"
       sodipodi:nodetypes="csscc" />
    <path
       style="display:inline;fill:none;fill-rule:evenodd;stroke:#000001;stroke-width:5.625;stroke-linecap:round;stroke-linejoin:round;stroke-miterlimit:4;stroke-dasharray:none;stroke-opacity:1"
       d="M 422.64873,433.7078 C 539.25774,367.89778 773.86675,234.81279 773.86675,234.81279"
       id="path844-648-6-2-07"
       inkscape:connector-curvature="0"
       sodipodi:nodetypes="cc" />
    <path
       style="display:inline;fill:none;fill-rule:evenodd;stroke:#000000;stroke-width:5.625;stroke-linecap:round;stroke-linejoin:round;stroke-miterlimit:4;stroke-dasharray:none;stroke-opacity:1"
       d="m 70.52085,432.346 c 1.89806,-0.0609 4.06014,-0.43866 6.50111,-1.169 15.21284,-3.27562 71.04967,-38.88642 88.13923,-48.84359 l 22.38699,50.224"
       id="path844-39-6-8"
       inkscape:connector-curvature="0"
       sodipodi:nodetypes="cccc" />
    <path
       style="display:inline;fill:none;fill-rule:evenodd;stroke:#000000;stroke-width:5.625;stroke-linecap:round;stroke-linejoin:round;stroke-miterlimit:4;stroke-dasharray:none;stroke-opacity:1"
       d="m 187.54818,432.55741 c 18.70294,-16.65247 34.26349,-33.37887 49.7165,-34.29687 20.10301,-0.22 16.49953,32.90886 34.61752,34.30887 4.16063,0.0372 17.2604,-1.18555 20.45953,-1.30424"
       id="path844-5-9-31-47-9-4"
       inkscape:connector-curvature="0"
       sodipodi:nodetypes="cccc" />
    <path
       style="display:inline;fill:none;fill-rule:evenodd;stroke:#000000;stroke-width:5.625;stroke-linecap:round;stroke-linejoin:round;stroke-miterlimit:4;stroke-dasharray:none;stroke-opacity:1"
       d="m 99.25015,335.33848 c 54.31,-10.96 95.51801,-79.45 89.16101,-96.16 -5.47801,-14.39 -40.25001,8.89 -87.43501,86.78 C 55.6223,404.30157 54.09353,432.81108 70.52085,432.346"
       id="path12351-7-1-9"
       inkscape:connector-curvature="0"
       sodipodi:nodetypes="cscc" />
    <path
       style="display:inline;fill:none;fill-rule:evenodd;stroke:#000000;stroke-width:5.625;stroke-linecap:round;stroke-linejoin:round;stroke-miterlimit:4;stroke-dasharray:none;stroke-opacity:1"
       d="m 316.69584,384.6633 c 2.904,0.29 5.434,0.91 7.48199,1.953 0.67001,0.342 1.28801,0.728 1.85,1.163 3.627,2.804 4.94501,7.624 2.919,15.329 -3.94599,15.008 -20.91601,23.612 -28.982,26.667 -16.7,6.048 -29.078,-7.724 -19.536,-22.523 5.965,-9.252 16.313,-19.513 28.51801,-22.036 0.82998,-0.172 1.669,-0.308 2.515,-0.405 1.017,-0.117 2.046,-0.178 3.084,-0.179 2.352,0 4.755,0.306 7.193,0.98"
       id="path12351-7-1-4-5"
       inkscape:connector-curvature="0"
       sodipodi:nodetypes="cssscssssc" />
    <path
       style="display:inline;fill:none;fill-rule:evenodd;stroke:#000000;stroke-width:5.625;stroke-linecap:round;stroke-linejoin:round;stroke-miterlimit:4;stroke-dasharray:none;stroke-opacity:1"
       d="m 395.93825,339.41871 c -12.38839,8.03571 -75.73734,77.62684 -75.73734,77.62684"
       id="path844-5-58-9-5-5-5-6"
       inkscape:connector-curvature="0"
       sodipodi:nodetypes="cc" />
    <path
       style="display:inline;fill:none;fill-rule:evenodd;stroke:#000000;stroke-width:5.41913939;stroke-linecap:round;stroke-linejoin:round;stroke-miterlimit:4;stroke-dasharray:none;stroke-opacity:1"
       d="m 357.24112,432.90714 c 10.82573,-0.69959 34.75957,-26.44969 41.7392,-37.02871 20.90215,-32.15899 25.10374,-71.24178 -3.04207,-56.45972"
       id="path844-7-9-7-5-1"
       inkscape:connector-curvature="0"
       sodipodi:nodetypes="ccc" />
    <path
       style="display:inline;fill:none;fill-rule:evenodd;stroke:#000000;stroke-width:5.625;stroke-linecap:round;stroke-linejoin:round;stroke-miterlimit:4;stroke-dasharray:none;stroke-opacity:1"
       d="m 357.24112,432.90714 c -15.87575,-1.78109 129.23434,-96.06409 129.23434,-96.06409"
       id="path844-39-6-8-0"
       inkscape:connector-curvature="0"
       sodipodi:nodetypes="cc" />
  </g>
</svg>
