<?xml version="1.0" encoding="UTF-8" standalone="no"?>
<!-- Created with Inkscape (http://www.inkscape.org/) -->

<svg
   xmlns:dc="http://purl.org/dc/elements/1.1/"
   xmlns:cc="http://creativecommons.org/ns#"
   xmlns:rdf="http://www.w3.org/1999/02/22-rdf-syntax-ns#"
   xmlns:svg="http://www.w3.org/2000/svg"
   xmlns="http://www.w3.org/2000/svg"
   xmlns:sodipodi="http://sodipodi.sourceforge.net/DTD/sodipodi-0.dtd"
   xmlns:inkscape="http://www.inkscape.org/namespaces/inkscape"
   width="297mm"
   height="210mm"
   viewBox="0 0 1052.3622 744.09448"
   id="svg2"
   version="1.1"
   inkscape:version="0.92.3 (2405546, 2018-03-11)"
   sodipodi:docname="DEK Deutsche Einheitskurzschrift - Verkehrsschrift - misslingen.svg">
  <defs
     id="defs4" />
  <sodipodi:namedview
     id="base"
     pagecolor="#ffffff"
     bordercolor="#666666"
     borderopacity="1.0"
     inkscape:pageopacity="0.0"
     inkscape:pageshadow="2"
     inkscape:zoom="0.70000002"
     inkscape:cx="493.99996"
     inkscape:cy="400.45419"
     inkscape:document-units="px"
     inkscape:current-layer="layer2"
     showgrid="false"
     inkscape:window-width="1920"
     inkscape:window-height="1017"
     inkscape:window-x="1592"
     inkscape:window-y="-8"
     inkscape:window-maximized="1"
     showguides="true"
     inkscape:guide-bbox="true" />
  <metadata
     id="metadata7">
    <rdf:RDF>
      <cc:Work
         rdf:about="">
        <dc:format>image/svg+xml</dc:format>
        <dc:type
           rdf:resource="http://purl.org/dc/dcmitype/StillImage" />
        <dc:title></dc:title>
      </cc:Work>
    </rdf:RDF>
  </metadata>
  <g
     inkscape:label="Grundlinien"
     inkscape:groupmode="layer"
     id="layer1"
     transform="translate(0,-308.26772)"
     sodipodi:insensitive="true">
    <path
       style="fill:none;fill-rule:evenodd;stroke:#969696;stroke-width:1.875;stroke-linecap:round;stroke-linejoin:miter;stroke-miterlimit:4;stroke-dasharray:none;stroke-opacity:1"
       d="M 57.556226,742.24566 H 1006.4206"
       id="path3336"
       inkscape:connector-curvature="0"
       sodipodi:nodetypes="cc" />
    <path
       style="fill:none;fill-rule:evenodd;stroke:#000000;stroke-width:0.9375;stroke-linecap:round;stroke-linejoin:miter;stroke-miterlimit:2;stroke-dasharray:3.74999998, 7.49999996;stroke-dashoffset:0;stroke-opacity:1"
       d="M 58.279456,844.14792 H 1007.1438"
       id="path3336-4"
       inkscape:connector-curvature="0"
       sodipodi:nodetypes="cc" />
    <path
       style="fill:none;fill-rule:evenodd;stroke:#000000;stroke-width:0.9375;stroke-linecap:round;stroke-linejoin:miter;stroke-miterlimit:2;stroke-dasharray:3.74999998, 7.49999996;stroke-dashoffset:0;stroke-opacity:1"
       d="M 58.279456,641.7697 H 1007.1438"
       id="path3336-7"
       inkscape:connector-curvature="0"
       sodipodi:nodetypes="cc" />
    <path
       style="fill:none;fill-rule:evenodd;stroke:#000000;stroke-width:0.9375;stroke-linecap:round;stroke-linejoin:miter;stroke-miterlimit:2;stroke-dasharray:3.74999998, 7.49999996;stroke-dashoffset:0;stroke-opacity:1"
       d="M 58.279456,540.58062 H 1007.1438"
       id="path3336-2"
       inkscape:connector-curvature="0"
       sodipodi:nodetypes="cc" />
  </g>
  <g
     inkscape:groupmode="layer"
     id="layer2"
     inkscape:label="Stenozeichen"
     style="display:inline">
    <path
       style="display:inline;fill:none;fill-rule:evenodd;stroke:#000000;stroke-width:5.625;stroke-linecap:round;stroke-linejoin:round;stroke-miterlimit:4;stroke-dasharray:none;stroke-opacity:1"
       d="m 393.52089,410.65924 c 0.983,0.1 1.84,0.308 2.534,0.661 0.226,0.116 0.436,0.247 0.626,0.394 1.228,0.949 1.675,2.582 0.989,5.191 -1.337,5.083 -7.083,7.996 -9.815,9.031 -5.656,2.048 -9.847,-2.616 -6.616,-7.629 2.02,-3.132 5.524,-6.607 9.658,-7.461 0.281,-0.06 0.565,-0.104 0.851,-0.137 0.345,-0.04 0.693,-0.06 1.045,-0.06 0.796,0 1.61,0.104 2.436,0.332"
       id="path12351-7-1-4-58-7-2-1-7-8-0-6"
       inkscape:connector-curvature="0"
       sodipodi:nodetypes="cssscssssc" />
    <path
       style="display:inline;fill:none;fill-rule:evenodd;stroke:#000000;stroke-width:5.625;stroke-linecap:round;stroke-linejoin:round;stroke-miterlimit:4;stroke-dasharray:none;stroke-opacity:1"
       d="m 383.58109,426.60081 c 8.3603,3.47066 21.69553,3.92406 30.94101,-5.32142 2.00893,-2.00893 10.7271,-11.22607 15.58201,-18.42473"
       id="path844-52-80-29-2"
       inkscape:connector-curvature="0"
       sodipodi:nodetypes="csc" />
    <path
       style="display:inline;fill:none;fill-rule:evenodd;stroke:#000000;stroke-width:5.625;stroke-linecap:round;stroke-linejoin:round;stroke-miterlimit:4;stroke-dasharray:none;stroke-opacity:1"
       d="m 327.7763,424.97119 c 23.20195,10.65396 53.28956,4.76519 59.55479,1.62962"
       id="path4752-1-24-4-6-1-6-3"
       inkscape:connector-curvature="0"
       sodipodi:nodetypes="cc" />
    <path
       style="display:inline;fill:none;fill-rule:evenodd;stroke:#000000;stroke-width:5.54530239;stroke-linecap:round;stroke-linejoin:round;stroke-miterlimit:4;stroke-dasharray:none;stroke-opacity:1"
       d="m 497.52634,306.02365 c 17.70099,-23.877 66.84567,-35.735 66.534,28.311 -0.16633,34.1803 20.23402,48.95482 38.23224,48.86505 12.51581,-0.0624 31.13757,-4.54357 45.25205,-16.46304"
       id="path12351-7-1-98-5-4"
       inkscape:connector-curvature="0"
       sodipodi:nodetypes="cssc" />
    <path
       style="display:inline;fill:none;fill-rule:evenodd;stroke:#000000;stroke-width:5.625;stroke-linecap:round;stroke-linejoin:round;stroke-miterlimit:4;stroke-dasharray:none;stroke-opacity:1"
       d="m 497.52634,306.02365 c -3.788,4.616 -67.42223,96.83101 -67.42223,96.83101"
       id="path844-5-6-5-95-4"
       inkscape:connector-curvature="0"
       sodipodi:nodetypes="cc" />
    <path
       style="display:inline;fill:none;fill-rule:evenodd;stroke:#000000;stroke-width:5.625;stroke-linecap:round;stroke-linejoin:round;stroke-miterlimit:4;stroke-dasharray:none;stroke-opacity:1"
       d="m 647.54463,366.73666 c 0,0 4.13,-3.768 4.869,-4.47101 12.834,-12.19999 26.073,-25.237 43.13801,-26.081 23.961,-0.951 34.75399,41.46101 51.17799,41.00401 10.78,-0.3 19.51401,-8.305 26.10201,-16.395"
       id="path844-5-9-31-47-9-7"
       inkscape:connector-curvature="0"
       sodipodi:nodetypes="cscsc" />
    <path
       style="display:inline;fill:none;fill-rule:evenodd;stroke:#000000;stroke-width:5.625;stroke-linecap:round;stroke-linejoin:round;stroke-miterlimit:4;stroke-dasharray:none;stroke-opacity:1"
       d="m 355.95124,388.3821 c 2.414,0.24 4.517,0.756 6.22,1.623 0.557,0.284 1.071,0.605 1.538,0.966 3.015,2.332 4.111,6.34 2.427,12.744 -3.281,12.47801 -17.389,19.63101 -24.095,22.17 -13.884,5.02901 -24.174,-6.421 -16.241,-18.724 4.959,-7.691 13.562,-16.222 23.708,-18.32 0.69,-0.142 1.388,-0.256 2.091,-0.336 0.846,-0.1 1.701,-0.149 2.564,-0.149 1.956,0 3.953,0.254 5.98,0.815"
       id="path12351-7-1-4-5-9"
       inkscape:connector-curvature="0"
       sodipodi:nodetypes="cssscssssc" />
    <path
       style="display:inline;fill:none;fill-rule:evenodd;stroke:#000000;stroke-width:5.625;stroke-linecap:round;stroke-linejoin:round;stroke-miterlimit:4;stroke-dasharray:none;stroke-opacity:1"
       d="m 302.59824,348.5651 c 23.726,-19.158 60.947,-14.638 37.482,14.373 -27.375,33.846 -45.455,50.22801 -39.44,63.89101 2.321,5.273 10.255,4.85199 16.311,4.44999 6.382,-0.42398 23.023,-3.726 30.287,-7.61599"
       id="path844-52-80-2-1-1-2"
       inkscape:connector-curvature="0"
       sodipodi:nodetypes="csssc" />
  </g>
</svg>
