<?xml version="1.0" encoding="UTF-8" standalone="no"?>
<!-- Created with Inkscape (http://www.inkscape.org/) -->

<svg
   xmlns:dc="http://purl.org/dc/elements/1.1/"
   xmlns:cc="http://creativecommons.org/ns#"
   xmlns:rdf="http://www.w3.org/1999/02/22-rdf-syntax-ns#"
   xmlns:svg="http://www.w3.org/2000/svg"
   xmlns="http://www.w3.org/2000/svg"
   xmlns:sodipodi="http://sodipodi.sourceforge.net/DTD/sodipodi-0.dtd"
   xmlns:inkscape="http://www.inkscape.org/namespaces/inkscape"
   width="297mm"
   height="210mm"
   viewBox="0 0 1052.3622 744.09448"
   id="svg2"
   version="1.1"
   inkscape:version="0.92.3 (2405546, 2018-03-11)"
   sodipodi:docname="DEK Deutsche Einheitskurzschrift - Verkehrsschrift - Landfriedensbruch.svg">
  <defs
     id="defs4" />
  <sodipodi:namedview
     id="base"
     pagecolor="#ffffff"
     bordercolor="#666666"
     borderopacity="1.0"
     inkscape:pageopacity="0.0"
     inkscape:pageshadow="2"
     inkscape:zoom="0.7"
     inkscape:cx="504.05095"
     inkscape:cy="387.77451"
     inkscape:document-units="px"
     inkscape:current-layer="layer2"
     showgrid="false"
     inkscape:window-width="1920"
     inkscape:window-height="1017"
     inkscape:window-x="1592"
     inkscape:window-y="-8"
     inkscape:window-maximized="1"
     showguides="true"
     inkscape:guide-bbox="true" />
  <metadata
     id="metadata7">
    <rdf:RDF>
      <cc:Work
         rdf:about="">
        <dc:format>image/svg+xml</dc:format>
        <dc:type
           rdf:resource="http://purl.org/dc/dcmitype/StillImage" />
        <dc:title></dc:title>
      </cc:Work>
    </rdf:RDF>
  </metadata>
  <g
     inkscape:label="Grundlinien"
     inkscape:groupmode="layer"
     id="layer1"
     transform="translate(0,-308.26772)"
     sodipodi:insensitive="true">
    <path
       style="fill:none;fill-rule:evenodd;stroke:#969696;stroke-width:1.875;stroke-linecap:round;stroke-linejoin:miter;stroke-miterlimit:4;stroke-dasharray:none;stroke-opacity:1"
       d="M 57.556226,742.24566 H 1006.4206"
       id="path3336"
       inkscape:connector-curvature="0"
       sodipodi:nodetypes="cc" />
    <path
       style="fill:none;fill-rule:evenodd;stroke:#000000;stroke-width:0.9375;stroke-linecap:round;stroke-linejoin:miter;stroke-miterlimit:2;stroke-dasharray:3.74999998, 7.49999996;stroke-dashoffset:0;stroke-opacity:1"
       d="M 58.279456,844.14792 H 1007.1438"
       id="path3336-4"
       inkscape:connector-curvature="0"
       sodipodi:nodetypes="cc" />
    <path
       style="fill:none;fill-rule:evenodd;stroke:#000000;stroke-width:0.9375;stroke-linecap:round;stroke-linejoin:miter;stroke-miterlimit:2;stroke-dasharray:3.74999998, 7.49999996;stroke-dashoffset:0;stroke-opacity:1"
       d="M 58.279456,641.7697 H 1007.1438"
       id="path3336-7"
       inkscape:connector-curvature="0"
       sodipodi:nodetypes="cc" />
    <path
       style="fill:none;fill-rule:evenodd;stroke:#000000;stroke-width:0.9375;stroke-linecap:round;stroke-linejoin:miter;stroke-miterlimit:2;stroke-dasharray:3.74999998, 7.49999996;stroke-dashoffset:0;stroke-opacity:1"
       d="M 58.279456,540.58062 H 1007.1438"
       id="path3336-2"
       inkscape:connector-curvature="0"
       sodipodi:nodetypes="cc" />
  </g>
  <g
     inkscape:groupmode="layer"
     id="layer2"
     inkscape:label="Stenozeichen"
     style="display:inline">
    <path
       style="display:inline;fill:none;fill-rule:evenodd;stroke:#000000;stroke-width:5.625;stroke-linecap:round;stroke-linejoin:round;stroke-miterlimit:4;stroke-dasharray:none;stroke-opacity:1"
       d="m 730.55788,405.82007 c 0,0 81.26258,-102.62736 83.45858,-105.32736 2.575,-3.16001 4.974,-5.82 7.439,-7.75001 83.039,-64.97 -26.66394,159.92002 -88.16894,186.62002"
       id="path844-57"
       inkscape:connector-curvature="0"
       sodipodi:nodetypes="cssc" />
    <path
       style="display:inline;fill:none;fill-rule:evenodd;stroke:#000000;stroke-width:5.625;stroke-linecap:round;stroke-linejoin:round;stroke-miterlimit:4;stroke-dasharray:none;stroke-opacity:1"
       d="m 778.41688,235.36006 -99.801,172.00001 c -14.086,24.27 23.562,37.232 51.942,-1.54"
       id="path4752-1-9-0-7"
       inkscape:connector-curvature="0"
       sodipodi:nodetypes="csc" />
    <path
       style="display:inline;fill:none;fill-rule:evenodd;stroke:#000000;stroke-width:5.625;stroke-linecap:round;stroke-linejoin:round;stroke-miterlimit:4;stroke-dasharray:none;stroke-opacity:1"
       d="m 331.25337,409.44528 c 0,0 119.33151,-97.67272 140.69826,-121.24463 14.12676,-15.58471 31.75952,-41.87013 29.05934,-48.96668 -5.47893,-14.39965 -38.90971,4.52732 -86.09571,82.42733 l -61.551,109.74999"
       id="path12351-7-1-33"
       inkscape:connector-curvature="0"
       sodipodi:nodetypes="csscc" />
    <path
       style="display:inline;fill:none;fill-rule:evenodd;stroke:#000000;stroke-width:5.625;stroke-linecap:round;stroke-linejoin:round;stroke-miterlimit:4;stroke-dasharray:none;stroke-opacity:1"
       d="m 353.36426,431.41129 c 0,0 160.40126,-107.97568 175.62063,-123.7557 9.28863,-8.13279 16.00228,-26.41343 0.98052,-24.29176 -11.5924,2.99713 -24.14297,15.2435 -38.44908,38.86174 -27.05951,44.26429 -22.80258,56.66927 -8.4177,54.03542"
       id="path12351-7-1-50"
       inkscape:connector-curvature="0"
       sodipodi:nodetypes="ccccc" />
    <path
       style="display:inline;fill:none;fill-rule:evenodd;stroke:#000000;stroke-width:5.625;stroke-linecap:round;stroke-linejoin:round;stroke-miterlimit:4;stroke-dasharray:none;stroke-opacity:1"
       d="m 483.09863,376.26099 c 19.56651,-2.62752 71.78561,-38.55501 95.90561,-39.60902 12.96984,-0.45468 20.35424,10.78022 27.00455,21.11911 12.02354,21.71608 27.89927,28.50596 50.53419,15.78576"
       id="path844-5-9-31-47-9-6"
       inkscape:connector-curvature="0"
       sodipodi:nodetypes="cccc" />
    <ellipse
       style="display:inline;fill:none;fill-opacity:1;stroke:#000000;stroke-width:5.625;stroke-linecap:round;stroke-linejoin:round;stroke-miterlimit:4;stroke-dasharray:none;stroke-dashoffset:0;stroke-opacity:1;paint-order:stroke fill markers"
       id="path44014-1-3-5-4-20-28-3"
       cx="295.28406"
       cy="679.13507"
       rx="23.147181"
       ry="18.327528"
       transform="rotate(-37.736319)" />
    <path
       style="display:inline;fill:none;fill-rule:evenodd;stroke:#000000;stroke-width:5.625;stroke-linecap:round;stroke-linejoin:round;stroke-miterlimit:4;stroke-dasharray:none;stroke-opacity:1"
       d="M 660.78054,370.80965 C 674.5123,363.94376 778.41688,235.36006 778.41688,235.36006"
       id="path12351-7-1-50-5"
       inkscape:connector-curvature="0"
       sodipodi:nodetypes="cc" />
    <path
       style="display:inline;fill:none;fill-rule:evenodd;stroke:#000000;stroke-width:5.625;stroke-linecap:round;stroke-linejoin:round;stroke-miterlimit:4;stroke-dasharray:none;stroke-opacity:1"
       d="m 206.13347,430.57373 c 6.49571,0.27645 10.18113,-3.48962 12.41202,-5.79324 12.503,-13.36801 32.90139,-62.32783 46.57839,-76.79383 16.94299,-17.855 26.90299,-18.336 33.368,-5.705 6.506,12.713 3.989,18.176 12.272,27.187 15.888,17.28501 43.807,-27.809 34.48401,-34.299 -6.29101,-4.379 -25.92701,3.212 -49.40701,41.973 -26.34029,43.09214 -21.28958,53.93756 -7.04973,54.09419 18.58931,0.20447 30.19729,-11.15101 42.46222,-21.79157"
       id="path844-7-2-0-16"
       inkscape:connector-curvature="0"
       sodipodi:nodetypes="cccssscsc" />
    <path
       style="display:inline;fill:none;fill-rule:evenodd;stroke:#000000;stroke-width:5.625;stroke-linecap:round;stroke-linejoin:round;stroke-miterlimit:4;stroke-dasharray:none;stroke-opacity:1"
       d="m 272.98988,340.50666 c 9.616,-6.843 18.03,4.094 21.556,15.758 3.176,10.508 8.67,18.038 23.927,17.109"
       id="path844-5-1-0-7-3-4-5-3-5-9-3-1-3-6-6-7-0"
       inkscape:connector-curvature="0"
       sodipodi:nodetypes="csc" />
    <path
       style="display:inline;fill:none;fill-rule:evenodd;stroke:#000000;stroke-width:5.625;stroke-linecap:round;stroke-linejoin:round;stroke-miterlimit:4;stroke-dasharray:none;stroke-opacity:1"
       d="m 284.87588,336.73966 c 13.578,0.734 15.099,28.34 22.112,29.97501"
       id="path844-5-1-0-7-3-4-5-35-2-0-7-4-7-1-9-28"
       inkscape:connector-curvature="0"
       sodipodi:nodetypes="cc" />
    <path
       style="display:inline;fill:none;fill-rule:evenodd;stroke:#000000;stroke-width:5.625;stroke-linecap:round;stroke-linejoin:round;stroke-miterlimit:4;stroke-dasharray:none;stroke-opacity:1"
       d="m 212.29436,419.03974 c 0.73407,0.0713 1.37312,0.22965 1.89021,0.49334 0.16947,0.0863 0.32547,0.18372 0.46721,0.29379 0.91621,0.70873 1.24959,1.92585 0.73803,3.87229 -0.99697,3.79151 -5.2842,5.96444 -7.32171,6.73652 -4.21833,1.52753 -7.34467,-1.9512 -4.93498,-5.68966 1.50694,-2.33683 4.12093,-4.92944 7.20451,-5.56691 0.20905,-0.0475 0.42128,-0.0792 0.63508,-0.10215 0.25657,-0.0317 0.51631,-0.0475 0.77921,-0.0475 0.59391,0 1.20128,0.0792 1.81657,0.24786"
       id="path12351-7-1-4-7-0-6-6"
       inkscape:connector-curvature="0"
       sodipodi:nodetypes="cssscssssc" />
  </g>
</svg>
