<?xml version="1.0" encoding="UTF-8" standalone="no"?>
<!-- Created with Inkscape (http://www.inkscape.org/) -->

<svg
   xmlns:dc="http://purl.org/dc/elements/1.1/"
   xmlns:cc="http://creativecommons.org/ns#"
   xmlns:rdf="http://www.w3.org/1999/02/22-rdf-syntax-ns#"
   xmlns:svg="http://www.w3.org/2000/svg"
   xmlns="http://www.w3.org/2000/svg"
   xmlns:sodipodi="http://sodipodi.sourceforge.net/DTD/sodipodi-0.dtd"
   xmlns:inkscape="http://www.inkscape.org/namespaces/inkscape"
   width="297mm"
   height="210mm"
   viewBox="0 0 1052.3622 744.09448"
   id="svg2"
   version="1.1"
   inkscape:version="0.92.3 (2405546, 2018-03-11)"
   sodipodi:docname="DEK Deutsche Einheitskurzschrift - Verkehrsschrift - unwesentlich.svg">
  <defs
     id="defs4" />
  <sodipodi:namedview
     id="base"
     pagecolor="#ffffff"
     bordercolor="#666666"
     borderopacity="1.0"
     inkscape:pageopacity="0.0"
     inkscape:pageshadow="2"
     inkscape:zoom="0.49497475"
     inkscape:cx="164.27786"
     inkscape:cy="639.76204"
     inkscape:document-units="px"
     inkscape:current-layer="layer2"
     showgrid="false"
     inkscape:window-width="1920"
     inkscape:window-height="1017"
     inkscape:window-x="1592"
     inkscape:window-y="-8"
     inkscape:window-maximized="1"
     showguides="true"
     inkscape:guide-bbox="true" />
  <metadata
     id="metadata7">
    <rdf:RDF>
      <cc:Work
         rdf:about="">
        <dc:format>image/svg+xml</dc:format>
        <dc:type
           rdf:resource="http://purl.org/dc/dcmitype/StillImage" />
        <dc:title></dc:title>
      </cc:Work>
    </rdf:RDF>
  </metadata>
  <g
     inkscape:label="Grundlinien"
     inkscape:groupmode="layer"
     id="layer1"
     transform="translate(0,-308.26772)"
     sodipodi:insensitive="true">
    <path
       style="fill:none;fill-rule:evenodd;stroke:#969696;stroke-width:1.875;stroke-linecap:round;stroke-linejoin:miter;stroke-miterlimit:4;stroke-dasharray:none;stroke-opacity:1"
       d="M 57.556226,742.24566 H 1006.4206"
       id="path3336"
       inkscape:connector-curvature="0"
       sodipodi:nodetypes="cc" />
    <path
       style="fill:none;fill-rule:evenodd;stroke:#000000;stroke-width:0.9375;stroke-linecap:round;stroke-linejoin:miter;stroke-miterlimit:2;stroke-dasharray:3.74999998, 7.49999996;stroke-dashoffset:0;stroke-opacity:1"
       d="M 58.279456,844.14792 H 1007.1438"
       id="path3336-4"
       inkscape:connector-curvature="0"
       sodipodi:nodetypes="cc" />
    <path
       style="fill:none;fill-rule:evenodd;stroke:#000000;stroke-width:0.9375;stroke-linecap:round;stroke-linejoin:miter;stroke-miterlimit:2;stroke-dasharray:3.74999998, 7.49999996;stroke-dashoffset:0;stroke-opacity:1"
       d="M 58.279456,641.7697 H 1007.1438"
       id="path3336-7"
       inkscape:connector-curvature="0"
       sodipodi:nodetypes="cc" />
    <path
       style="fill:none;fill-rule:evenodd;stroke:#000000;stroke-width:0.9375;stroke-linecap:round;stroke-linejoin:miter;stroke-miterlimit:2;stroke-dasharray:3.74999998, 7.49999996;stroke-dashoffset:0;stroke-opacity:1"
       d="M 58.279456,540.58062 H 1007.1438"
       id="path3336-2"
       inkscape:connector-curvature="0"
       sodipodi:nodetypes="cc" />
  </g>
  <g
     inkscape:groupmode="layer"
     id="layer2"
     inkscape:label="Stenozeichen"
     style="display:inline">
    <path
       style="display:inline;fill:none;fill-rule:evenodd;stroke:#000000;stroke-width:5.625;stroke-linecap:round;stroke-linejoin:round;stroke-miterlimit:4;stroke-dasharray:none;stroke-opacity:1"
       d="m 472.95758,336.23155 c -40.257,12.418 -78.083,79.09301 -59.911,92.283 10.74704,5.7633 22.92918,-0.54269 36.29801,-8.68518 5.27898,-3.0379 22.35878,-14.92622 40.37579,-27.68049"
       id="path844-3-9-80-09-5-7"
       inkscape:connector-curvature="0"
       sodipodi:nodetypes="cccc" />
    <path
       style="display:inline;fill:none;fill-rule:evenodd;stroke:#000000;stroke-width:5.625;stroke-linecap:round;stroke-linejoin:round;stroke-miterlimit:4;stroke-dasharray:none;stroke-opacity:1"
       d="m 489.72038,392.14888 c 0,0 77.4423,-55.19638 103.76156,-56.49857 23.961,-0.951 23.41331,34.17177 39.83732,33.71477 10.77999,-0.3 18.98352,-5.16238 27.93906,-14.67291"
       id="path844-5-9-31-47-9"
       inkscape:connector-curvature="0"
       sodipodi:nodetypes="ccsc" />
    <ellipse
       style="display:inline;fill:none;fill-opacity:1;stroke:#000000;stroke-width:5.625;stroke-linecap:round;stroke-linejoin:round;stroke-miterlimit:4;stroke-dasharray:none;stroke-dashoffset:0;stroke-opacity:1;paint-order:stroke fill markers"
       id="path44014-1-3-5-4-20-28-3"
       cx="145.62175"
       cy="630.422"
       rx="25.728558"
       ry="20.371416"
       transform="rotate(-37.736319)" />
    <path
       style="display:inline;fill:none;fill-rule:evenodd;stroke:#000000;stroke-width:5.625;stroke-linecap:round;stroke-linejoin:round;stroke-miterlimit:4;stroke-dasharray:none;stroke-opacity:1"
       d="m 787.60097,188.52154 c -0.53,-0.5 -0.846,-0.77 -1.38101,-1.09 -0.237,-0.14 -0.693,-0.39 -0.92899,-0.49 -0.19601,-0.09 -0.402,-0.24 -0.588,-0.24 -8.997,1.94 -6.306,3.17 -8.997,1.94 -1.49201,-0.68 2.17099,10.38001 5.27299,9.2 1.95101,0.29001 6.13701,-0.43999 7.60301,-3.81 0.748,-1.73 0.625,-3.15 -0.09,-4.37 -0.113,-0.19 -0.28001,-0.34 -0.38,-0.55 -2.64201,-7.48 -15.003,-0.29 -23.268,7.8 -3.902,3.82001 -11.091,11.58001 -17.107,21.66501 -12.4512,20.1416 -63.04115,109.66473 -86.47865,136.11562"
       id="path12351-7-1-4-97-0-6-1-4-8-0"
       inkscape:connector-curvature="0"
       sodipodi:nodetypes="csssscsscscc" />
    <path
       style="display:inline;fill:none;fill-opacity:1;stroke:#000000;stroke-width:5.625;stroke-linecap:round;stroke-linejoin:round;stroke-miterlimit:4;stroke-dasharray:none;stroke-dashoffset:0;stroke-opacity:1"
       id="path6585-73-3-9-7-6-6"
       sodipodi:type="arc"
       sodipodi:cx="586.2337"
       sodipodi:cy="553.59827"
       sodipodi:rx="5.4690289"
       sodipodi:ry="1.8230096"
       sodipodi:start="0"
       sodipodi:end="6.2778271"
       d="m 591.70273,553.59827 a 5.4690289,1.8230096 0 0 1 -5.4617,1.823 5.4690289,1.8230096 0 0 1 -5.47634,-1.81812 5.4690289,1.8230096 0 0 1 5.44704,-1.82788 5.4690289,1.8230096 0 0 1 5.49092,1.81323 l -5.46895,0.01 z"
       transform="rotate(-29.590094)" />
    <path
       style="display:inline;fill:none;fill-rule:evenodd;stroke:#000000;stroke-width:5.625;stroke-linecap:round;stroke-linejoin:miter;stroke-miterlimit:4;stroke-dasharray:none;stroke-opacity:1"
       d="m 472.95758,336.23155 c -52.56696,13.39286 -151.43816,144.82886 -151.43816,144.82886 -11.50519,14.10414 -13.45607,25.27482 -12.70307,33.11482 0.4839,13.7 7.058,19.06 17.84,19.33 15.3979,0.38 28.9009,-12.16 42.108,-29.51"
       id="path822-8-5-8-3-1"
       inkscape:connector-curvature="0"
       sodipodi:nodetypes="cscsc" />
  </g>
</svg>
