<?xml version="1.0" encoding="UTF-8" standalone="no"?>
<!-- Created with Inkscape (http://www.inkscape.org/) -->

<svg
   xmlns:dc="http://purl.org/dc/elements/1.1/"
   xmlns:cc="http://creativecommons.org/ns#"
   xmlns:rdf="http://www.w3.org/1999/02/22-rdf-syntax-ns#"
   xmlns:svg="http://www.w3.org/2000/svg"
   xmlns="http://www.w3.org/2000/svg"
   xmlns:sodipodi="http://sodipodi.sourceforge.net/DTD/sodipodi-0.dtd"
   xmlns:inkscape="http://www.inkscape.org/namespaces/inkscape"
   width="297mm"
   height="210mm"
   viewBox="0 0 1052.3622 744.09448"
   id="svg2"
   version="1.1"
   inkscape:version="0.92.3 (2405546, 2018-03-11)"
   sodipodi:docname="DEK Deutsche Einheitskurzschrift - Verkehrsschrift - Empfangsschalter.svg">
  <defs
     id="defs4" />
  <sodipodi:namedview
     id="base"
     pagecolor="#ffffff"
     bordercolor="#666666"
     borderopacity="1.0"
     inkscape:pageopacity="0.0"
     inkscape:pageshadow="2"
     inkscape:zoom="0.35"
     inkscape:cx="189.76519"
     inkscape:cy="300.67418"
     inkscape:document-units="px"
     inkscape:current-layer="layer2"
     showgrid="false"
     inkscape:window-width="1920"
     inkscape:window-height="1017"
     inkscape:window-x="1592"
     inkscape:window-y="-8"
     inkscape:window-maximized="1"
     showguides="true"
     inkscape:guide-bbox="true" />
  <metadata
     id="metadata7">
    <rdf:RDF>
      <cc:Work
         rdf:about="">
        <dc:format>image/svg+xml</dc:format>
        <dc:type
           rdf:resource="http://purl.org/dc/dcmitype/StillImage" />
        <dc:title></dc:title>
      </cc:Work>
    </rdf:RDF>
  </metadata>
  <g
     inkscape:label="Grundlinien"
     inkscape:groupmode="layer"
     id="layer1"
     transform="translate(0,-308.26772)"
     sodipodi:insensitive="true">
    <path
       style="fill:none;fill-rule:evenodd;stroke:#969696;stroke-width:1.875;stroke-linecap:round;stroke-linejoin:miter;stroke-miterlimit:4;stroke-dasharray:none;stroke-opacity:1"
       d="M 57.556226,742.24566 H 1006.4206"
       id="path3336"
       inkscape:connector-curvature="0"
       sodipodi:nodetypes="cc" />
    <path
       style="fill:none;fill-rule:evenodd;stroke:#000000;stroke-width:0.9375;stroke-linecap:round;stroke-linejoin:miter;stroke-miterlimit:2;stroke-dasharray:3.74999998, 7.49999996;stroke-dashoffset:0;stroke-opacity:1"
       d="M 58.279456,844.14792 H 1007.1438"
       id="path3336-4"
       inkscape:connector-curvature="0"
       sodipodi:nodetypes="cc" />
    <path
       style="fill:none;fill-rule:evenodd;stroke:#000000;stroke-width:0.9375;stroke-linecap:round;stroke-linejoin:miter;stroke-miterlimit:2;stroke-dasharray:3.74999998, 7.49999996;stroke-dashoffset:0;stroke-opacity:1"
       d="M 58.279456,641.7697 H 1007.1438"
       id="path3336-7"
       inkscape:connector-curvature="0"
       sodipodi:nodetypes="cc" />
    <path
       style="fill:none;fill-rule:evenodd;stroke:#000000;stroke-width:0.9375;stroke-linecap:round;stroke-linejoin:miter;stroke-miterlimit:2;stroke-dasharray:3.74999998, 7.49999996;stroke-dashoffset:0;stroke-opacity:1"
       d="M 58.279456,540.58062 H 1007.1438"
       id="path3336-2"
       inkscape:connector-curvature="0"
       sodipodi:nodetypes="cc" />
  </g>
  <g
     inkscape:groupmode="layer"
     id="layer2"
     inkscape:label="Stenozeichen"
     style="display:inline">
    <path
       style="display:inline;fill:none;fill-rule:evenodd;stroke:#000000;stroke-width:5.625;stroke-linecap:round;stroke-linejoin:round;stroke-miterlimit:4;stroke-dasharray:none;stroke-opacity:1"
       d="m 534.45503,427.87723 c 29.14496,16.93753 83.43502,-44.79657 102.13863,-67.76175"
       id="path12351-7-1-98-5-4-5"
       inkscape:connector-curvature="0"
       sodipodi:nodetypes="cc" />
    <path
       style="display:inline;fill:none;fill-opacity:1;fill-rule:evenodd;stroke:#000000;stroke-width:5.9009285;stroke-linecap:round;stroke-linejoin:round;stroke-miterlimit:4;stroke-dasharray:none;stroke-opacity:1"
       d="m 712.14206,410.56986 c 1.25363,0.12483 2.34778,0.39339 3.23108,0.8445 0.28955,0.14685 0.55705,0.31365 0.79939,0.50143 1.56518,1.21062 2.13481,3.29298 1.2599,6.61849 -1.70366,6.4821 -9.03129,10.19784 -12.5152,11.5165 -7.21225,2.61215 -12.55717,-3.33492 -8.43545,-9.72577 2.57544,-3.99479 7.0444,-8.42599 12.31485,-9.51597 0.35877,-0.0734 0.7207,-0.13323 1.08576,-0.17518 0.43956,-0.0525 0.8833,-0.0734 1.33126,-0.0734 1.01653,0 2.05404,0.13323 3.1073,0.42277"
       id="path12351-7-1-4-7-1-2-9-39"
       inkscape:connector-curvature="0"
       sodipodi:nodetypes="cssscssssc" />
    <path
       style="display:inline;fill:none;fill-opacity:1;fill-rule:evenodd;stroke:#000000;stroke-width:10.81836891;stroke-linecap:round;stroke-linejoin:round;stroke-miterlimit:4;stroke-dasharray:none;stroke-opacity:1"
       d="m 709.60966,416.32915 c 0.5927,0.0629 1.10988,0.18569 1.5274,0.39865 0.13638,0.0734 0.26333,0.14897 0.37766,0.23709 0.74063,0.57173 1.01025,1.55679 0.59587,3.13037 -0.80568,3.0643 -4.27071,4.82146 -5.91772,5.44564 -3.40941,1.23475 -5.93764,-1.57778 -3.9885,-4.59905 1.21797,-1.88934 3.33075,-3.9843 5.8233,-4.50044 0.16891,-0.0315 0.33989,-0.0629 0.51298,-0.0839 0.20772,-0.0211 0.41754,-0.042 0.62944,-0.042 0.48047,0 0.97143,0.0629 1.46972,0.19932"
       id="path12351-7-1-4-7-1-2-1-2-1"
       inkscape:connector-curvature="0"
       sodipodi:nodetypes="cssscssssc" />
    <path
       style="display:inline;fill:none;fill-rule:evenodd;stroke:#000000;stroke-width:5.625;stroke-linecap:round;stroke-linejoin:round;stroke-miterlimit:4;stroke-dasharray:none;stroke-opacity:1"
       d="m 655.29666,430.7205 c -16.50631,2.56751 -19.83578,5.62852 -30.28087,11.2759 -13.30253,7.19232 -27.98275,18.07571 -38.72082,29.76326 -17.8458,18.87558 -38.50936,44.4374 -35.34131,56.19584 0.933,3.011 16.314,22.901 59.804,-38.095 26.944,-36.889 54.63902,-73.40101 69.33601,-116.41302 11.48813,-29.71717 -4.00696,-59.88375 -43.50001,-13.332"
       id="path12351-7-1-8-43-1-7"
       inkscape:connector-curvature="0"
       sodipodi:nodetypes="csccccc" />
    <path
       style="display:inline;fill:none;fill-rule:evenodd;stroke:#000000;stroke-width:5.625;stroke-linecap:round;stroke-linejoin:round;stroke-miterlimit:4;stroke-dasharray:none;stroke-opacity:1"
       d="m 655.29666,430.7205 c 13.18334,0.67742 34.01244,2.35969 45.42065,0.60164"
       id="path844-5-9-31-47-9-9-0-4"
       inkscape:connector-curvature="0"
       sodipodi:nodetypes="cc" />
    <path
       style="display:inline;fill:none;fill-rule:evenodd;stroke:#000000;stroke-width:5.625;stroke-linecap:round;stroke-linejoin:round;stroke-miterlimit:4;stroke-dasharray:none;stroke-opacity:1"
       d="m 714.41396,422.70901 102.85411,-187.39861 21.9581,48.45"
       id="path12351-7-1-4-3-05-69-7"
       inkscape:connector-curvature="0"
       sodipodi:nodetypes="ccc" />
    <path
       style="display:inline;fill:none;fill-rule:evenodd;stroke:#000000;stroke-width:5.625;stroke-linecap:round;stroke-linejoin:round;stroke-miterlimit:4;stroke-dasharray:none;stroke-opacity:1"
       d="m 305.43343,366.39788 c 15.237,-17.274 27.778,-25.137 37.786,-28.03 19.131,-5.529 37.656,4.095 16.934,29.678 -27.416,33.847 -121.968,152.03201 -101.873,163.86301 25.422,14.968 69.549,-71.26002 74.642,-80.79899 0,0 14.905,-33.05002 7.297,-41.20702 -12.802,-13.725 -38.321,-1.082 -40.842,9.842 -2.736,11.85602 5.792,14.64402 17.278,12.44102 17.745,-3.215 27.214,-8.63102 42.817,-22.74702"
       id="path844-9-76"
       inkscape:connector-curvature="0"
       sodipodi:nodetypes="csssssscc" />
    <path
       style="display:inline;fill:none;fill-rule:evenodd;stroke:#000000;stroke-width:5.625;stroke-linecap:round;stroke-linejoin:round;stroke-miterlimit:4;stroke-dasharray:none;stroke-opacity:1"
       d="m 257.40543,431.47388 c 0,0 38.084,-53.239 48.028,-65.076"
       id="path12351-7-1-9-3-0"
       inkscape:connector-curvature="0"
       sodipodi:nodetypes="cc" />
    <path
       style="display:inline;fill:none;fill-rule:evenodd;stroke:#000000;stroke-width:5.62499952;stroke-linecap:round;stroke-linejoin:round;stroke-miterlimit:4;stroke-dasharray:none;stroke-opacity:1"
       d="m 410.03343,357.19888 c -13.404,13.815 -40.185,42.724 -50.561,52.24"
       id="path844-5-6-5-95-4-5-3-8"
       inkscape:connector-curvature="0"
       sodipodi:nodetypes="cc" />
    <path
       style="display:inline;fill:none;fill-rule:evenodd;stroke:#000000;stroke-width:5.62499952;stroke-linecap:round;stroke-linejoin:round;stroke-miterlimit:4;stroke-dasharray:none;stroke-opacity:1"
       d="m 410.03343,357.19888 c 16.715,-15.249 29.468,-20.824 44.497,-21.895 18.214,-1.299 35.618,9.839 34.89002,48.673 -1.10902,59.17802 48.456,53.05802 68.529,34.855"
       id="path12351-7-1-98-5-4-5-6-2"
       inkscape:connector-curvature="0"
       sodipodi:nodetypes="cssc" />
    <path
       style="display:inline;fill:none;fill-rule:evenodd;stroke:#000000;stroke-width:5.59240913;stroke-linecap:round;stroke-linejoin:round;stroke-miterlimit:4;stroke-dasharray:none;stroke-opacity:1"
       d="m 459.49143,335.29388 c 12.332,-1.329 35.438,13.735 35.199,45.263 -0.225,29.744 8.235,52.51102 28.26,50.72702"
       id="path12351-7-1-98-5-0-4-5-6-9-4-7"
       inkscape:connector-curvature="0"
       sodipodi:nodetypes="csc" />
    <path
       style="display:inline;fill:none;fill-rule:evenodd;stroke:#000000;stroke-width:5.59240913;stroke-linecap:round;stroke-linejoin:round;stroke-miterlimit:4;stroke-dasharray:none;stroke-opacity:1"
       d="m 459.49143,335.29388 c 17.043,-0.931 25.025,17.745 24.786,49.273 -0.225,29.744 14.988,45.72102 38.673,46.88502"
       id="path12351-7-1-98-5-0-4-5-6-9-2-80-6"
       inkscape:connector-curvature="0"
       sodipodi:nodetypes="csc" />
    <ellipse
       style="display:inline;fill:none;fill-opacity:1;stroke:#000000;stroke-width:5.625;stroke-linecap:round;stroke-linejoin:round;stroke-miterlimit:4;stroke-dasharray:none;stroke-dashoffset:0;stroke-opacity:1;paint-order:stroke fill markers"
       id="path44014-1-3-5-4-20-28-3-2-9"
       cx="180.75523"
       cy="652.49414"
       rx="25.728558"
       ry="20.371416"
       transform="rotate(-37.736319)" />
  </g>
</svg>
