<?xml version="1.0" encoding="UTF-8" standalone="no"?>
<!-- Created with Inkscape (http://www.inkscape.org/) -->

<svg
   xmlns:dc="http://purl.org/dc/elements/1.1/"
   xmlns:cc="http://creativecommons.org/ns#"
   xmlns:rdf="http://www.w3.org/1999/02/22-rdf-syntax-ns#"
   xmlns:svg="http://www.w3.org/2000/svg"
   xmlns="http://www.w3.org/2000/svg"
   xmlns:sodipodi="http://sodipodi.sourceforge.net/DTD/sodipodi-0.dtd"
   xmlns:inkscape="http://www.inkscape.org/namespaces/inkscape"
   width="297mm"
   height="210mm"
   viewBox="0 0 1052.3622 744.09448"
   id="svg2"
   version="1.1"
   inkscape:version="0.92.3 (2405546, 2018-03-11)"
   sodipodi:docname="DEK Deutsche Einheitskurzschrift - Verkehrsschrift - Lineal.svg">
  <defs
     id="defs4" />
  <sodipodi:namedview
     id="base"
     pagecolor="#ffffff"
     bordercolor="#666666"
     borderopacity="1.0"
     inkscape:pageopacity="0.0"
     inkscape:pageshadow="2"
     inkscape:zoom="0.7"
     inkscape:cx="193.66199"
     inkscape:cy="531.12407"
     inkscape:document-units="px"
     inkscape:current-layer="layer2"
     showgrid="false"
     inkscape:window-width="1920"
     inkscape:window-height="1017"
     inkscape:window-x="1592"
     inkscape:window-y="-8"
     inkscape:window-maximized="1"
     showguides="true"
     inkscape:guide-bbox="true" />
  <metadata
     id="metadata7">
    <rdf:RDF>
      <cc:Work
         rdf:about="">
        <dc:format>image/svg+xml</dc:format>
        <dc:type
           rdf:resource="http://purl.org/dc/dcmitype/StillImage" />
        <dc:title></dc:title>
      </cc:Work>
    </rdf:RDF>
  </metadata>
  <g
     inkscape:label="Grundlinien"
     inkscape:groupmode="layer"
     id="layer1"
     transform="translate(0,-308.26772)"
     style="display:inline"
     sodipodi:insensitive="true">
    <path
       style="fill:none;fill-rule:evenodd;stroke:#969696;stroke-width:1.875;stroke-linecap:round;stroke-linejoin:miter;stroke-miterlimit:4;stroke-dasharray:none;stroke-opacity:1"
       d="M 57.556226,742.24566 H 1006.4206"
       id="path3336"
       inkscape:connector-curvature="0"
       sodipodi:nodetypes="cc" />
    <path
       style="fill:none;fill-rule:evenodd;stroke:#000000;stroke-width:0.9375;stroke-linecap:round;stroke-linejoin:miter;stroke-miterlimit:2;stroke-dasharray:3.74999998, 7.49999996;stroke-dashoffset:0;stroke-opacity:1"
       d="M 58.279456,844.14792 H 1007.1438"
       id="path3336-4"
       inkscape:connector-curvature="0"
       sodipodi:nodetypes="cc" />
    <path
       style="fill:none;fill-rule:evenodd;stroke:#000000;stroke-width:0.9375;stroke-linecap:round;stroke-linejoin:miter;stroke-miterlimit:2;stroke-dasharray:3.74999998, 7.49999996;stroke-dashoffset:0;stroke-opacity:1"
       d="M 58.279456,641.7697 H 1007.1438"
       id="path3336-7"
       inkscape:connector-curvature="0"
       sodipodi:nodetypes="cc" />
    <path
       style="fill:none;fill-rule:evenodd;stroke:#000000;stroke-width:0.9375;stroke-linecap:round;stroke-linejoin:miter;stroke-miterlimit:2;stroke-dasharray:3.74999998, 7.49999996;stroke-dashoffset:0;stroke-opacity:1"
       d="M 58.279456,540.58062 H 1007.1438"
       id="path3336-2"
       inkscape:connector-curvature="0"
       sodipodi:nodetypes="cc" />
  </g>
  <g
     inkscape:groupmode="layer"
     id="layer2"
     inkscape:label="Buchstaben"
     style="display:inline">
    <path
       style="display:inline;fill:none;fill-rule:evenodd;stroke:#000000;stroke-width:5.625;stroke-linecap:round;stroke-linejoin:round;stroke-miterlimit:4;stroke-dasharray:none;stroke-opacity:1"
       d="m 399.45931,427.51015 c 6.41516,-8.87697 -0.38069,-17.69069 -11.37599,-12.36903 -10.49062,7.6932 -1.79825,22.2194 11.37599,12.36903 0,0 13.14984,-5.11871 21.87414,-18.12247 l 15.65304,-23.33118"
       id="path12351-7-1-4-17-5-9-0-1-4-83-2-9"
       inkscape:connector-curvature="0"
       sodipodi:nodetypes="cccsc" />
    <path
       style="display:inline;fill:none;fill-rule:evenodd;stroke:#000000;stroke-width:5.625;stroke-linecap:round;stroke-linejoin:round;stroke-miterlimit:4;stroke-dasharray:none;stroke-opacity:1"
       d="m 436.98649,386.0565 c 6.37224,-9.12189 12.25604,-18.58375 18.62097,-27.70789 8.85543,-12.63766 18.23274,-22.55225 27.52852,-22.56402 15.71071,-0.0199 21.69821,45.53169 39.90641,46.13629 24.03996,0.79824 39.10177,-21.28751 58.63576,-47.50922"
       id="path844-5-5-5-6"
       inkscape:connector-curvature="0"
       sodipodi:nodetypes="ccssc" />
    <path
       style="display:inline;fill:none;fill-rule:evenodd;stroke:#000000;stroke-width:5.625;stroke-linecap:round;stroke-linejoin:round;stroke-miterlimit:4;stroke-dasharray:none;stroke-opacity:1"
       d="m 627.9506,363.31467 c -21.65072,4.64666 -58.42483,19.35579 -46.27245,-28.90301"
       id="path844-5-58-9-5-3-7-8-3-3-6-4-6-0-6"
       inkscape:connector-curvature="0"
       sodipodi:nodetypes="cc" />
    <g
       style="display:inline;fill:#eb0000;fill-opacity:1;stroke:#000000;stroke-opacity:1"
       id="g3400-0-9-1-1"
       transform="matrix(1.7715894,0,0,1.7715894,-661.51376,11.928444)">
      <path
         sodipodi:nodetypes="cssscssssc"
         inkscape:connector-curvature="0"
         id="path12351-7-1-4-7-1-6-5-4-9"
         d="m 732.10849,185.47164 c 0.7552,0.075 1.4134,0.2367 1.9458,0.508 0.1742,0.089 0.3349,0.1892 0.4811,0.3022 0.9433,0.7293 1.2859,1.9829 0.7591,3.9864 -1.0262,3.9032 -5.4392,6.1407 -7.537,6.9351 -4.3429,1.5729 -7.5618,-2.0087 -5.0803,-5.8574 1.5512,-2.4058 4.2421,-5.0744 7.4163,-5.7306 0.2158,-0.045 0.4339,-0.08 0.654,-0.1052 0.2645,-0.03 0.5319,-0.046 0.8019,-0.047 0.6117,-5e-4 1.2367,0.08 1.8706,0.2549"
         style="display:inline;fill:#eb0000;fill-opacity:1;fill-rule:evenodd;stroke:#000000;stroke-width:5.625;stroke-linecap:round;stroke-linejoin:round;stroke-miterlimit:4;stroke-dasharray:none;stroke-opacity:1" />
      <path
         inkscape:transform-center-y="-14.607846"
         inkscape:transform-center-x="-10.542139"
         sodipodi:nodetypes="cssscssssc"
         inkscape:connector-curvature="0"
         id="path12351-7-1-4-7-8-3-4-4-9-3"
         d="m 729.28189,188.28694 c 0.3372,0.029 0.6316,0.1 0.8704,0.2175 0.078,0.039 0.1506,0.083 0.2161,0.1325 0.4243,0.3208 0.5833,0.8785 0.3575,1.7747 -0.4394,1.7461 -2.3974,2.7652 -3.3296,3.1296 -1.9299,0.7222 -3.3828,-0.8603 -2.2941,-2.5891 0.6806,-1.0807 1.8685,-2.2837 3.2814,-2.5916 0.097,-0.021 0.1934,-0.038 0.2914,-0.049 0.1179,-0.014 0.2368,-0.023 0.3575,-0.025 0.2728,0 0.552,0.03 0.8356,0.1054"
         style="display:inline;fill:#eb0000;fill-opacity:1;fill-rule:evenodd;stroke:#000000;stroke-width:4.98104382;stroke-linecap:round;stroke-linejoin:round;stroke-miterlimit:4;stroke-dasharray:none;stroke-opacity:1" />
    </g>
  </g>
</svg>
