<?xml version="1.0" encoding="UTF-8" standalone="no"?>
<!-- Created with Inkscape (http://www.inkscape.org/) -->

<svg
   xmlns:dc="http://purl.org/dc/elements/1.1/"
   xmlns:cc="http://creativecommons.org/ns#"
   xmlns:rdf="http://www.w3.org/1999/02/22-rdf-syntax-ns#"
   xmlns:svg="http://www.w3.org/2000/svg"
   xmlns="http://www.w3.org/2000/svg"
   xmlns:sodipodi="http://sodipodi.sourceforge.net/DTD/sodipodi-0.dtd"
   xmlns:inkscape="http://www.inkscape.org/namespaces/inkscape"
   width="297mm"
   height="210mm"
   viewBox="0 0 1052.3622 744.09448"
   id="svg2"
   version="1.1"
   inkscape:version="0.92.3 (2405546, 2018-03-11)"
   sodipodi:docname="DEK Deutsche Einheitskurzschrift - Verkehrsschrift - Schriftsteller.svg">
  <defs
     id="defs4" />
  <sodipodi:namedview
     id="base"
     pagecolor="#ffffff"
     bordercolor="#666666"
     borderopacity="1.0"
     inkscape:pageopacity="0.0"
     inkscape:pageshadow="2"
     inkscape:zoom="0.49497475"
     inkscape:cx="770.35724"
     inkscape:cy="692.28986"
     inkscape:document-units="px"
     inkscape:current-layer="layer2"
     showgrid="false"
     inkscape:window-width="1920"
     inkscape:window-height="1017"
     inkscape:window-x="1592"
     inkscape:window-y="-8"
     inkscape:window-maximized="1"
     showguides="true"
     inkscape:guide-bbox="true" />
  <metadata
     id="metadata7">
    <rdf:RDF>
      <cc:Work
         rdf:about="">
        <dc:format>image/svg+xml</dc:format>
        <dc:type
           rdf:resource="http://purl.org/dc/dcmitype/StillImage" />
        <dc:title></dc:title>
      </cc:Work>
    </rdf:RDF>
  </metadata>
  <g
     inkscape:label="Grundlinien"
     inkscape:groupmode="layer"
     id="layer1"
     transform="translate(0,-308.26772)"
     sodipodi:insensitive="true">
    <path
       style="fill:none;fill-rule:evenodd;stroke:#000000;stroke-width:1.875;stroke-linecap:round;stroke-linejoin:miter;stroke-miterlimit:4;stroke-dasharray:none;stroke-opacity:1"
       d="M 57.556226,742.24566 H 1006.4206"
       id="path3336"
       inkscape:connector-curvature="0"
       sodipodi:nodetypes="cc" />
    <path
       style="fill:none;fill-rule:evenodd;stroke:#000000;stroke-width:0.9375;stroke-linecap:round;stroke-linejoin:miter;stroke-miterlimit:2;stroke-dasharray:3.74999998, 7.49999996;stroke-dashoffset:0;stroke-opacity:1"
       d="M 58.279456,844.14792 H 1007.1438"
       id="path3336-4"
       inkscape:connector-curvature="0"
       sodipodi:nodetypes="cc" />
    <path
       style="fill:none;fill-rule:evenodd;stroke:#000000;stroke-width:0.9375;stroke-linecap:round;stroke-linejoin:miter;stroke-miterlimit:2;stroke-dasharray:3.74999998, 7.49999996;stroke-dashoffset:0;stroke-opacity:1"
       d="M 58.279456,641.7697 H 1007.1438"
       id="path3336-7"
       inkscape:connector-curvature="0"
       sodipodi:nodetypes="cc" />
    <path
       style="fill:none;fill-rule:evenodd;stroke:#000000;stroke-width:0.9375;stroke-linecap:round;stroke-linejoin:miter;stroke-miterlimit:2;stroke-dasharray:3.74999998, 7.49999996;stroke-dashoffset:0;stroke-opacity:1"
       d="M 58.279456,540.58062 H 1007.1438"
       id="path3336-2"
       inkscape:connector-curvature="0"
       sodipodi:nodetypes="cc" />
  </g>
  <g
     inkscape:groupmode="layer"
     id="layer2"
     inkscape:label="Stenozeichen"
     style="display:inline">
    <path
       style="display:inline;fill:none;fill-rule:evenodd;stroke:#000000;stroke-width:5.625;stroke-linecap:round;stroke-linejoin:round;stroke-miterlimit:4;stroke-dasharray:none;stroke-opacity:1"
       d="m 672.1765,429.08232 c -58.4408,-0.35585 -99.52987,15.85351 -135.93754,50.8033 -23.72339,26.30201 -31.90487,40.62926 -27.91483,50.71207 2.22862,5.63173 34.66001,12.40602 62.34501,-63.34998 15.814,-47.43001 16.454,-113.34102 70.768,-131.55902"
       id="path12351-7-1-8-02-8-38-7"
       inkscape:connector-curvature="0"
       sodipodi:nodetypes="ccscc" />
    <path
       style="display:inline;fill:none;fill-rule:evenodd;stroke:#000000;stroke-width:5.625;stroke-linecap:round;stroke-linejoin:round;stroke-miterlimit:4;stroke-dasharray:none;stroke-opacity:1"
       d="m 677.9152,416.67129 c 0.75603,0.0769 1.41514,0.23688 1.94889,0.50837 0.17382,0.0892 0.33533,0.18997 0.48146,0.30303 0.94445,0.72987 1.28823,1.9858 0.76063,3.99237 -1.02828,3.90932 -5.4475,6.1497 -7.54867,6.94571 -4.35001,1.57511 -7.57329,-2.01196 -5.08834,-5.86743 1.55357,-2.40881 4.24848,-5.08142 7.42793,-5.73823 0.21611,-0.0461 0.43454,-0.08 0.6545,-0.10536 0.26534,-0.0308 0.53298,-0.0462 0.8037,-0.0462 0.6122,0 1.23825,0.08 1.87352,0.25534"
       id="path12351-7-1-4-58-7-2-1-7"
       inkscape:connector-curvature="0"
       sodipodi:nodetypes="cssscssssc" />
    <path
       style="display:inline;fill:none;fill-rule:evenodd;stroke:#000000;stroke-width:5.625;stroke-linecap:round;stroke-linejoin:round;stroke-miterlimit:4;stroke-dasharray:none;stroke-opacity:1"
       d="m 653.99229,417.33385 c 0.75602,0.0769 1.41513,0.23688 1.94889,0.50837 0.17381,0.0892 0.33532,0.18996 0.48145,0.30302 0.94445,0.72987 1.28824,1.98581 0.76064,3.99238 -1.02828,3.90931 -5.44751,6.14969 -7.54868,6.9457 -4.35001,1.57511 -7.57329,-2.01195 -5.08834,-5.86743 1.55358,-2.40881 4.24849,-5.08142 7.42793,-5.73822 0.21612,-0.0461 0.43454,-0.08 0.6545,-0.10537 0.26534,-0.0308 0.53298,-0.0461 0.80371,-0.0461 0.6122,0 1.23824,0.08 1.87351,0.25534"
       id="path12351-7-1-4-58-7-2-1-7-8-0-6"
       inkscape:connector-curvature="0"
       sodipodi:nodetypes="cssscssssc" />
    <path
       style="display:inline;fill:none;fill-rule:evenodd;stroke:#000000;stroke-width:5.625;stroke-linecap:round;stroke-linejoin:round;stroke-miterlimit:4;stroke-dasharray:none;stroke-opacity:1"
       d="M 456.86772,358.81354 558.64183,254.40144"
       id="path844-52-80-29-2-3-2-6"
       inkscape:connector-curvature="0"
       sodipodi:nodetypes="cc" />
    <path
       style="display:inline;fill:none;fill-rule:evenodd;stroke:#000000;stroke-width:5.625;stroke-linecap:round;stroke-linejoin:round;stroke-miterlimit:4;stroke-dasharray:none;stroke-opacity:1"
       d="m 558.64183,254.40144 c 29.487,-31.435 49.32201,-57.992 33.68,-63.38 -14.561,-5.017 -40.249,8.89 -87.4337,86.78 -60.29671,104.16 -33.51502,122.21002 -1.82501,98.38001 l 16.449,-12.37001"
       id="path12351-7-1-42-0-1-1-8"
       inkscape:connector-curvature="0"
       sodipodi:nodetypes="cscsc" />
    <path
       style="display:inline;fill:none;fill-rule:evenodd;stroke:#000000;stroke-width:5.625;stroke-linecap:round;stroke-linejoin:miter;stroke-miterlimit:4;stroke-dasharray:none;stroke-opacity:1"
       d="m 646.93054,189.8729 c 0,0 -90.58805,144.47426 -127.41842,173.93854"
       id="path822-8-8"
       inkscape:connector-curvature="0"
       sodipodi:nodetypes="cc" />
    <path
       style="display:inline;fill:none;fill-rule:evenodd;stroke:#000000;stroke-width:5.625;stroke-linecap:round;stroke-linejoin:round;stroke-miterlimit:4;stroke-dasharray:none;stroke-opacity:1"
       d="m 456.86772,358.81354 c 0,0 -46.58118,50.00873 -80.489,69.02624 -11.79528,6.6155 -21.7822,14.29029 -23.28203,15.14523 -41.56754,23.69481 -75.84401,71.468 -70.47201,85.019 1.162,2.931 9.61701,22.23101 53.10701,-38.76499 48.059,-67.29101 86.24002,-138.11001 121.90301,-209.82803 15.4941,-26.46467 11.7579,-44.54415 -2.5211,-44.22653 -14.38818,0.32005 -18.50538,4.70961 -39.4784,28.25428"
       id="path12351-7-1-8-52-2-4"
       inkscape:connector-curvature="0"
       sodipodi:nodetypes="csssccsc" />
    <path
       style="display:inline;fill:none;fill-rule:evenodd;stroke:#000000;stroke-width:5.625;stroke-linecap:round;stroke-linejoin:round;stroke-miterlimit:4;stroke-dasharray:none;stroke-opacity:1"
       d="m 672.1765,429.08232 c 16.49529,3.01966 80.76927,-45.27455 80.76927,-45.27455 l 20.033,47.88"
       id="path844-5-6-5-95-0"
       inkscape:connector-curvature="0"
       sodipodi:nodetypes="ccc" />
  </g>
</svg>
