<?xml version="1.0" encoding="UTF-8" standalone="no"?>
<!-- Created with Inkscape (http://www.inkscape.org/) -->

<svg
   xmlns:dc="http://purl.org/dc/elements/1.1/"
   xmlns:cc="http://creativecommons.org/ns#"
   xmlns:rdf="http://www.w3.org/1999/02/22-rdf-syntax-ns#"
   xmlns:svg="http://www.w3.org/2000/svg"
   xmlns="http://www.w3.org/2000/svg"
   xmlns:sodipodi="http://sodipodi.sourceforge.net/DTD/sodipodi-0.dtd"
   xmlns:inkscape="http://www.inkscape.org/namespaces/inkscape"
   width="297mm"
   height="210mm"
   viewBox="0 0 1052.3622 744.09448"
   id="svg2"
   version="1.1"
   inkscape:version="0.92.3 (2405546, 2018-03-11)"
   sodipodi:docname="DEK Deutsche Einheitskurzschrift - Verkehrsschrift - Unterhaltungswert.svg">
  <defs
     id="defs4" />
  <sodipodi:namedview
     id="base"
     pagecolor="#ffffff"
     bordercolor="#666666"
     borderopacity="1.0"
     inkscape:pageopacity="0.0"
     inkscape:pageshadow="2"
     inkscape:zoom="0.7"
     inkscape:cx="619.53622"
     inkscape:cy="535.29523"
     inkscape:document-units="px"
     inkscape:current-layer="layer2"
     showgrid="false"
     inkscape:window-width="1920"
     inkscape:window-height="1017"
     inkscape:window-x="1592"
     inkscape:window-y="-8"
     inkscape:window-maximized="1"
     showguides="true"
     inkscape:guide-bbox="true" />
  <metadata
     id="metadata7">
    <rdf:RDF>
      <cc:Work
         rdf:about="">
        <dc:format>image/svg+xml</dc:format>
        <dc:type
           rdf:resource="http://purl.org/dc/dcmitype/StillImage" />
        <dc:title></dc:title>
      </cc:Work>
    </rdf:RDF>
  </metadata>
  <g
     inkscape:label="Grundlinien"
     inkscape:groupmode="layer"
     id="layer1"
     transform="translate(0,-308.26772)"
     style="display:inline"
     sodipodi:insensitive="true">
    <path
       style="fill:none;fill-rule:evenodd;stroke:#969696;stroke-width:1.875;stroke-linecap:round;stroke-linejoin:miter;stroke-miterlimit:4;stroke-dasharray:none;stroke-opacity:1"
       d="M 57.556226,742.24566 H 1006.4206"
       id="path3336"
       inkscape:connector-curvature="0"
       sodipodi:nodetypes="cc" />
    <path
       style="fill:none;fill-rule:evenodd;stroke:#000000;stroke-width:0.9375;stroke-linecap:round;stroke-linejoin:miter;stroke-miterlimit:2;stroke-dasharray:3.74999998, 7.49999996;stroke-dashoffset:0;stroke-opacity:1"
       d="M 58.279456,844.14792 H 1007.1438"
       id="path3336-4"
       inkscape:connector-curvature="0"
       sodipodi:nodetypes="cc" />
    <path
       style="fill:none;fill-rule:evenodd;stroke:#000000;stroke-width:0.9375;stroke-linecap:round;stroke-linejoin:miter;stroke-miterlimit:2;stroke-dasharray:3.74999998, 7.49999996;stroke-dashoffset:0;stroke-opacity:1"
       d="M 58.279456,641.7697 H 1007.1438"
       id="path3336-7"
       inkscape:connector-curvature="0"
       sodipodi:nodetypes="cc" />
    <path
       style="fill:none;fill-rule:evenodd;stroke:#000000;stroke-width:0.9375;stroke-linecap:round;stroke-linejoin:miter;stroke-miterlimit:2;stroke-dasharray:3.74999998, 7.49999996;stroke-dashoffset:0;stroke-opacity:1"
       d="M 58.279456,540.58062 H 1007.1438"
       id="path3336-2"
       inkscape:connector-curvature="0"
       sodipodi:nodetypes="cc" />
  </g>
  <g
     inkscape:groupmode="layer"
     id="layer2"
     inkscape:label="Stenozeichen"
     style="display:inline">
    <path
       style="display:inline;fill:none;fill-rule:evenodd;stroke:#000000;stroke-width:5.625;stroke-linecap:round;stroke-linejoin:round;stroke-miterlimit:4;stroke-dasharray:none;stroke-opacity:1"
       d="M 372.14474,405.30579 471.15809,234.39515"
       id="path12351-7-1-4-6-8-8"
       inkscape:connector-curvature="0"
       sodipodi:nodetypes="cc" />
    <path
       style="display:inline;fill:none;fill-opacity:1;fill-rule:evenodd;stroke:#000000;stroke-width:10.90581608;stroke-linecap:round;stroke-linejoin:round;stroke-miterlimit:4;stroke-dasharray:none;stroke-opacity:1"
       d="m 340.43604,404.33411 c 1.41637,0.14067 2.65082,0.44393 3.64932,0.95275 0.32671,0.16691 0.6281,0.35484 0.9023,0.56677 1.76913,1.36779 2.41169,3.71889 1.42368,7.47642 -1.92463,7.32039 -10.20113,11.51679 -14.13552,13.00668 -8.14504,2.94994 -14.18204,-3.76729 -9.52803,-10.98546 2.90925,-4.51204 7.956,-9.51696 13.90915,-10.74765 0.40473,-0.0843 0.81377,-0.15004 1.22657,-0.1973 0.49606,-0.0563 0.99757,-0.0863 1.50395,-0.0881 1.14723,-10e-4 2.31941,0.15004 3.50828,0.47806"
       id="path12351-7-1-4-7-1-6-5-4-9"
       inkscape:connector-curvature="0"
       sodipodi:nodetypes="cssscssssc" />
    <path
       style="display:inline;fill:none;fill-rule:evenodd;stroke:#000000;stroke-width:5.625;stroke-linecap:round;stroke-linejoin:round;stroke-miterlimit:4;stroke-dasharray:none;stroke-opacity:1"
       d="m 372.14474,405.30579 c -2.0677,3.54283 -5.60318,7.97023 -12.69722,14.39388 -4.72938,4.28246 -11.01107,7.45783 -14.14477,8.49745 -7.83425,2.59904 -28.80104,1.99804 -43.47942,2.0616 -14.67838,0.0636 -33.12814,0.81189 -33.12814,0.81189 l -5.62655,-0.217 3.27659,0.0956 c 0,0 8.39685,-3.9959 9.79224,-4.79442 10.92829,-6.25378 20.58194,-16.09825 28.32485,-27.06186 21.39488,-30.2942 28.20121,-67.45959 6.99932,-62.70703 -6.12929,1.37393 -18.44362,5.83249 -37.44696,20.43991"
       id="path844-7-8"
       inkscape:connector-curvature="0"
       sodipodi:nodetypes="csszcccsssc" />
    <path
       style="display:inline;fill:none;fill-opacity:1;fill-rule:evenodd;stroke:#000000;stroke-width:11.88090992;stroke-linecap:round;stroke-linejoin:round;stroke-miterlimit:4;stroke-dasharray:none;stroke-opacity:1"
       d="m 336.78699,412.79616 c 0.45383,0.0451 0.84939,0.14224 1.16933,0.30527 0.10469,0.0534 0.20126,0.11371 0.28912,0.18162 0.56687,0.43827 0.77276,1.19161 0.45617,2.39561 -0.61669,2.34564 -3.26867,3.69026 -4.52935,4.16765 -2.60987,0.94524 -4.54426,-1.20712 -3.053,-3.51999 0.93218,-1.44578 2.54927,-3.04946 4.45682,-3.44381 0.12968,-0.0269 0.26074,-0.0481 0.39301,-0.0632 0.15896,-0.018 0.31965,-0.0276 0.4819,-0.0283 0.36761,-3.2e-4 0.7432,0.0481 1.12414,0.15318"
       id="path12351-7-1-4-7-1-6-5-4-9-6"
       inkscape:connector-curvature="0"
       sodipodi:nodetypes="cssscssssc" />
    <path
       style="display:inline;fill:none;fill-rule:evenodd;stroke:#000000;stroke-width:5.625;stroke-linecap:round;stroke-linejoin:round;stroke-miterlimit:4;stroke-dasharray:none;stroke-opacity:1"
       d="m 469.40009,378.29515 c 28.494,-22.63999 35.45185,-31.40031 39.031,-55.66999 0.4876,-3.30632 0.53483,-6.82565 0.14985,-10.39247 -4.68377,-39.92481 -52.6597,-31.36786 -37.42285,-77.83754"
       id="path12351-7-1-98-6-6-1-0"
       inkscape:connector-curvature="0"
       sodipodi:nodetypes="cscc" />
    <path
       style="display:inline;fill:none;fill-rule:evenodd;stroke:#000000;stroke-width:5.625;stroke-linecap:round;stroke-linejoin:round;stroke-miterlimit:4;stroke-dasharray:none;stroke-opacity:1"
       d="m 274.01468,356.82581 c -14.12918,10.60855 -37.617,25.30409 -58.425,43.23409 -14.96,12.9 -22.319,25.33 -16.447,29.62 9.493,6.37001 30.266,-17.59 36.986,-26.55 7.952,-10.68 12.604,-23.55 18.07,-41.44999 8.47451,-28.67365 20.42583,-62.0179 33.30316,-87.49785 12.64774,-24.76974 24.58557,-44.09101 40.44985,-37.90217 10.87138,6.06892 -2.25149,28.95076 -19.12117,52.5252 -15.15226,21.17446 -28.22474,32.98574 -45.4612,43.71141"
       id="path12351-7-1-8-67-1-1-1-5-3-2-5-5-0"
       inkscape:connector-curvature="0"
       sodipodi:nodetypes="cscccccsc" />
    <ellipse
       style="display:inline;fill:none;fill-opacity:1;stroke:#000000;stroke-width:5.625;stroke-linecap:round;stroke-linejoin:round;stroke-miterlimit:4;stroke-dasharray:none;stroke-dashoffset:0;stroke-opacity:1;paint-order:stroke fill markers"
       id="path44014-1-3-5-4-20-28-3"
       cx="224.88759"
       cy="624.08826"
       rx="25.728558"
       ry="20.371416"
       transform="rotate(-37.736319)" />
    <path
       style="display:inline;fill:none;fill-rule:evenodd;stroke:#000000;stroke-width:5.625;stroke-linecap:round;stroke-linejoin:round;stroke-miterlimit:4;stroke-dasharray:none;stroke-opacity:1"
       d="m 551.98909,336.73115 c 0,0 -99.33007,40.89436 -82.589,41.564"
       id="path851-7-8-7"
       inkscape:connector-curvature="0"
       sodipodi:nodetypes="cc" />
    <path
       style="display:inline;fill:none;fill-rule:evenodd;stroke:#000000;stroke-width:5.625;stroke-linecap:round;stroke-linejoin:round;stroke-miterlimit:4;stroke-dasharray:none;stroke-opacity:1"
       d="m 636.59683,410.8326 35.013,-27.381 19.57125,47.88"
       id="path844-5-6-3-5-0"
       inkscape:connector-curvature="0"
       sodipodi:nodetypes="ccc" />
    <path
       style="display:inline;fill:none;fill-rule:evenodd;stroke:#000000;stroke-width:5.625;stroke-linecap:round;stroke-linejoin:round;stroke-miterlimit:4;stroke-dasharray:none;stroke-opacity:1"
       d="m 650.2961,331.76399 c -51.219,15.80001 -94.40898,129.34444 -32.23726,91.85161 20.286,-13.504 18.53799,-12.783 18.53799,-12.783"
       id="path844-3-9-80-09-5-9"
       inkscape:connector-curvature="0"
       sodipodi:nodetypes="ccc" />
    <path
       style="display:inline;fill:none;fill-rule:evenodd;stroke:#000000;stroke-width:5.625;stroke-linecap:round;stroke-linejoin:round;stroke-miterlimit:4;stroke-dasharray:none;stroke-opacity:1"
       d="m 691.18108,431.3316 c 14.8129,-23.78076 97.7452,-178.97083 109.87813,-188.39492 5.23216,-4.06401 10.66909,-6.88761 16.6243,-8.14798 10.71699,-2.704 14.331,0.67 18.71295,3.162 7.56001,4.301 7.98201,17.182 -5.95695,41.523 l -29.829,52.09"
       id="path12351-3-7-7-9-9"
       inkscape:connector-curvature="0"
       sodipodi:nodetypes="cscssc" />
    <path
       style="display:inline;fill:none;fill-rule:evenodd;stroke:#000000;stroke-width:5.625;stroke-linecap:round;stroke-linejoin:round;stroke-miterlimit:4;stroke-dasharray:none;stroke-opacity:1"
       d="m 565.2152,333.32502 c 0,0 50.25946,-3.23513 85.0809,-1.56103"
       id="path844-5-6-5-17"
       inkscape:connector-curvature="0"
       sodipodi:nodetypes="cc" />
  </g>
</svg>
