<?xml version="1.0" encoding="UTF-8" standalone="no"?>
<!-- Created with Inkscape (http://www.inkscape.org/) -->

<svg
   xmlns:dc="http://purl.org/dc/elements/1.1/"
   xmlns:cc="http://creativecommons.org/ns#"
   xmlns:rdf="http://www.w3.org/1999/02/22-rdf-syntax-ns#"
   xmlns:svg="http://www.w3.org/2000/svg"
   xmlns="http://www.w3.org/2000/svg"
   xmlns:sodipodi="http://sodipodi.sourceforge.net/DTD/sodipodi-0.dtd"
   xmlns:inkscape="http://www.inkscape.org/namespaces/inkscape"
   width="297mm"
   height="210mm"
   viewBox="0 0 1052.3622 744.09448"
   id="svg2"
   version="1.1"
   inkscape:version="0.92.3 (2405546, 2018-03-11)"
   sodipodi:docname="DEK Deutsche Einheitskurzschrift - Verkehrsschrift - Vollversammlung.svg">
  <defs
     id="defs4" />
  <sodipodi:namedview
     id="base"
     pagecolor="#ffffff"
     bordercolor="#666666"
     borderopacity="1.0"
     inkscape:pageopacity="0.0"
     inkscape:pageshadow="2"
     inkscape:zoom="0.98994949"
     inkscape:cx="559.6471"
     inkscape:cy="309.65084"
     inkscape:document-units="px"
     inkscape:current-layer="layer2"
     showgrid="false"
     inkscape:window-width="1920"
     inkscape:window-height="1017"
     inkscape:window-x="1592"
     inkscape:window-y="-8"
     inkscape:window-maximized="1"
     showguides="true"
     inkscape:guide-bbox="true" />
  <metadata
     id="metadata7">
    <rdf:RDF>
      <cc:Work
         rdf:about="">
        <dc:format>image/svg+xml</dc:format>
        <dc:type
           rdf:resource="http://purl.org/dc/dcmitype/StillImage" />
        <dc:title></dc:title>
      </cc:Work>
    </rdf:RDF>
  </metadata>
  <g
     inkscape:label="Grundlinien"
     inkscape:groupmode="layer"
     id="layer1"
     transform="translate(0,-308.26772)"
     sodipodi:insensitive="true">
    <path
       style="fill:none;fill-rule:evenodd;stroke:#969696;stroke-width:1.875;stroke-linecap:round;stroke-linejoin:miter;stroke-miterlimit:4;stroke-dasharray:none;stroke-opacity:1"
       d="M 57.556226,742.24566 H 1006.4206"
       id="path3336"
       inkscape:connector-curvature="0"
       sodipodi:nodetypes="cc" />
    <path
       style="fill:none;fill-rule:evenodd;stroke:#000000;stroke-width:0.9375;stroke-linecap:round;stroke-linejoin:miter;stroke-miterlimit:2;stroke-dasharray:3.74999998, 7.49999996;stroke-dashoffset:0;stroke-opacity:1"
       d="M 58.279456,844.14792 H 1007.1438"
       id="path3336-4"
       inkscape:connector-curvature="0"
       sodipodi:nodetypes="cc" />
    <path
       style="fill:none;fill-rule:evenodd;stroke:#000000;stroke-width:0.9375;stroke-linecap:round;stroke-linejoin:miter;stroke-miterlimit:2;stroke-dasharray:3.74999998, 7.49999996;stroke-dashoffset:0;stroke-opacity:1"
       d="M 58.279456,641.7697 H 1007.1438"
       id="path3336-7"
       inkscape:connector-curvature="0"
       sodipodi:nodetypes="cc" />
    <path
       style="fill:none;fill-rule:evenodd;stroke:#000000;stroke-width:0.9375;stroke-linecap:round;stroke-linejoin:miter;stroke-miterlimit:2;stroke-dasharray:3.74999998, 7.49999996;stroke-dashoffset:0;stroke-opacity:1"
       d="M 58.279456,540.58062 H 1007.1438"
       id="path3336-2"
       inkscape:connector-curvature="0"
       sodipodi:nodetypes="cc" />
  </g>
  <g
     inkscape:groupmode="layer"
     id="layer2"
     inkscape:label="Stenozeichen"
     style="display:inline">
    <path
       style="display:inline;fill:none;fill-rule:evenodd;stroke:#000000;stroke-width:5.625;stroke-linecap:round;stroke-linejoin:round;stroke-miterlimit:4;stroke-dasharray:none;stroke-opacity:1"
       d="m 575.05488,392.32151 c 21.6522,-15.507 55.0584,-45.675 80.2564,-54.32 20.3711,-6.837 39.069,0.88 20.7402,23.541 -27.3754,33.846 -45.45481,50.22748 -39.44,63.891 1.34381,3.05267 3.48254,4.17877 7.88374,5.61985 2.06887,0.67741 22.79795,4.6188 38.03504,-2.89806"
       id="path844-52-8-9-12"
       inkscape:connector-curvature="0"
       sodipodi:nodetypes="ccsssc" />
    <path
       style="display:inline;fill:none;fill-rule:evenodd;stroke:#000000;stroke-width:5.625;stroke-linecap:round;stroke-linejoin:miter;stroke-miterlimit:4;stroke-dasharray:none;stroke-opacity:1"
       d="m 676.89248,338.75551 c 14.535,10.118 4.34201,27.836 -12.394,44.157 -14.374,14.018 -23.364,26.38 -29.512,38.707"
       id="path1647-51-63-1"
       inkscape:connector-curvature="0"
       sodipodi:nodetypes="csc" />
    <path
       style="display:inline;fill:none;fill-rule:evenodd;stroke:#000000;stroke-width:5.625;stroke-linecap:round;stroke-linejoin:miter;stroke-miterlimit:4;stroke-dasharray:none;stroke-opacity:1"
       d="m 676.89248,338.75551 c 0.783,-1.119 3.882,6.116 0.73601,14.242 -3.24801,8.39 -12.84001,17.777 -18.304,22.929 -10.75701,10.142 -30.59201,28.964 -24.33801,45.693"
       id="path1647-5-7-53-5"
       inkscape:connector-curvature="0"
       sodipodi:nodetypes="cssc" />
    <path
       style="display:inline;fill:none;fill-rule:evenodd;stroke:#000000;stroke-width:2.8125;stroke-linecap:round;stroke-linejoin:miter;stroke-miterlimit:4;stroke-dasharray:none;stroke-opacity:1"
       d="m 668.34248,337.04651 c 11.256,1.325 8.78801,6.515 9.081,10.975"
       id="path1647-0-8-0-74"
       inkscape:connector-curvature="0"
       sodipodi:nodetypes="cc" />
    <path
       style="display:inline;fill:none;fill-rule:evenodd;stroke:#000000;stroke-width:2.8125;stroke-linecap:round;stroke-linejoin:miter;stroke-miterlimit:4;stroke-dasharray:none;stroke-opacity:1"
       d="m 640.10748,414.32951 c -2.696,4.92 -3.763,12.04 2.312,14.485"
       id="path1647-1-3-4-2"
       inkscape:connector-curvature="0"
       sodipodi:nodetypes="cc" />
    <path
       style="display:inline;fill:none;fill-rule:evenodd;stroke:#000000;stroke-width:2.8125;stroke-linecap:round;stroke-linejoin:miter;stroke-miterlimit:4;stroke-dasharray:none;stroke-opacity:1"
       d="m 632.38948,415.67251 c -0.102,5.656 2.886,11.51101 4.864,13.14601"
       id="path1647-1-1-3-3-06"
       inkscape:connector-curvature="0"
       sodipodi:nodetypes="cc" />
    <ellipse
       style="display:inline;fill:none;fill-opacity:1;stroke:#000000;stroke-width:5.625;stroke-linecap:round;stroke-linejoin:round;stroke-miterlimit:4;stroke-dasharray:none;stroke-dashoffset:0;stroke-opacity:1;paint-order:stroke fill markers"
       id="path44014-1-3-5-4-20-5-1"
       cx="214.63554"
       cy="682.56665"
       rx="25.728558"
       ry="20.371416"
       transform="rotate(-37.736319)" />
    <path
       id="path869"
       d="m 569.20005,398.18294 c -3.01198,3.07846 -8.43338,9.31639 -13.48275,13.61861 -9.17682,7.81897 -17.94549,13.24744 -26.06377,16.32305 -6.16337,2.33499 -11.90865,3.36408 -17.03143,3.21815 -18.44205,-0.52534 -30.28304,-16.36657 -23.05229,-41.24193"
       style="display:inline;fill:none;stroke:#000000;stroke-width:5.62495899px;stroke-linecap:round;stroke-linejoin:round;stroke-miterlimit:4;stroke-dasharray:none;stroke-opacity:1"
       inkscape:connector-curvature="0"
       sodipodi:nodetypes="csssc" />
    <path
       style="display:inline;fill:none;fill-rule:evenodd;stroke:#000000;stroke-width:5.625;stroke-linecap:round;stroke-linejoin:round;stroke-miterlimit:4;stroke-dasharray:none;stroke-opacity:1"
       d="m 700.41273,532.96224 c 17.542,-13.31 33.348,-27.3 33.725,-49.01 -0.212,-20.44 -36.839,-38.73 -56.577,-55.22"
       id="path12351-7-1-98-6-6-1-7-5-4-5"
       inkscape:connector-curvature="0"
       sodipodi:nodetypes="ccc" />
    <path
       style="display:inline;fill:none;fill-rule:evenodd;stroke:#000000;stroke-width:5.625;stroke-linecap:round;stroke-linejoin:round;stroke-miterlimit:4;stroke-dasharray:none;stroke-opacity:1"
       d="m 684.44114,419.2057 c 0.60722,0.0764 1.13652,0.19858 1.56425,0.41245 0.1413,0.0764 0.26962,0.15275 0.388,0.24441 0.75844,0.58812 1.0334,1.59632 0.61027,3.20791 -0.82566,3.13917 -4.37575,4.93407 -6.06295,5.57565 -3.49357,1.26025 -6.08281,-1.61159 -4.08703,-4.71257 1.24804,-1.93238 3.41261,-4.07863 5.96671,-4.60565 0.17261,-0.0764 0.34905,-0.0764 0.52548,-0.0917 0.21234,-0.0764 0.42849,-0.0764 0.6454,-0.0764 0.49189,0 0.9937,0.0764 1.50467,0.20622"
       id="path12351-7-1-4-25-5-9-04"
       inkscape:connector-curvature="0"
       sodipodi:nodetypes="cssscssssc" />
    <path
       style="display:inline;fill:none;fill-rule:evenodd;stroke:#000000;stroke-width:5.625;stroke-linecap:round;stroke-linejoin:round;stroke-miterlimit:4;stroke-dasharray:none;stroke-opacity:1"
       d="m 466.97872,402.63753 c -35.19054,18.20014 -78.6559,27.12147 -109.09292,27.83195 -42.5428,0.99304 -77.05008,-8.44917 -85.51516,-34.72838"
       id="path4752-1-5-8-2-4-3-4"
       inkscape:connector-curvature="0"
       sodipodi:nodetypes="csc" />
    <path
       style="display:inline;fill:none;fill-rule:evenodd;stroke:#000000;stroke-width:5.625;stroke-linecap:round;stroke-linejoin:round;stroke-miterlimit:4;stroke-dasharray:none;stroke-opacity:1"
       d="m 470.37401,391.40077 c 0.755,0.07 1.413,0.237 1.94501,0.50799 0.17499,0.09 0.33499,0.189 0.48099,0.30201 0.94401,0.72999 1.28601,1.983 0.76,3.987 -1.027,3.903 -5.44,6.13999 -7.537,6.93499 -4.343,1.57301 -7.562,-2.00899 -5.081,-5.85799 1.551,-2.40501 4.242,-5.07401 7.41701,-5.73 0.21499,-0.04 0.43299,-0.08 0.654,-0.105 0.264,-0.03 0.531,-0.05 0.801,-0.05 0.612,0 1.23699,0.08 1.87099,0.255"
       id="path12351-7-1-4"
       inkscape:connector-curvature="0"
       sodipodi:nodetypes="cssscssssc" />
    <path
       style="display:inline;fill:none;fill-rule:evenodd;stroke:#000000;stroke-width:5.625;stroke-linecap:round;stroke-linejoin:round;stroke-miterlimit:4;stroke-dasharray:none;stroke-opacity:1"
       d="m 466.97872,402.63753 c 3.34754,-0.58372 11.68628,-5.15079 22.59109,-12.53671"
       id="path844-6-2-6"
       inkscape:connector-curvature="0"
       sodipodi:nodetypes="cc" />
  </g>
</svg>
