<?xml version="1.0" encoding="UTF-8" standalone="no"?>
<!-- Created with Inkscape (http://www.inkscape.org/) -->

<svg
   xmlns:dc="http://purl.org/dc/elements/1.1/"
   xmlns:cc="http://creativecommons.org/ns#"
   xmlns:rdf="http://www.w3.org/1999/02/22-rdf-syntax-ns#"
   xmlns:svg="http://www.w3.org/2000/svg"
   xmlns="http://www.w3.org/2000/svg"
   xmlns:sodipodi="http://sodipodi.sourceforge.net/DTD/sodipodi-0.dtd"
   xmlns:inkscape="http://www.inkscape.org/namespaces/inkscape"
   width="297mm"
   height="210mm"
   viewBox="0 0 1052.3622 744.09448"
   id="svg2"
   version="1.1"
   inkscape:version="0.92.3 (2405546, 2018-03-11)"
   sodipodi:docname="DEK Deutsche Einheitskurzschrift - Verkehrsschrift - unerschwinglich.svg">
  <defs
     id="defs4" />
  <sodipodi:namedview
     id="base"
     pagecolor="#ffffff"
     bordercolor="#666666"
     borderopacity="1.0"
     inkscape:pageopacity="0.0"
     inkscape:pageshadow="2"
     inkscape:zoom="0.7"
     inkscape:cx="900.8502"
     inkscape:cy="361.4603"
     inkscape:document-units="px"
     inkscape:current-layer="layer2"
     showgrid="false"
     inkscape:window-width="1920"
     inkscape:window-height="1017"
     inkscape:window-x="1592"
     inkscape:window-y="-8"
     inkscape:window-maximized="1"
     showguides="true"
     inkscape:guide-bbox="true" />
  <metadata
     id="metadata7">
    <rdf:RDF>
      <cc:Work
         rdf:about="">
        <dc:format>image/svg+xml</dc:format>
        <dc:type
           rdf:resource="http://purl.org/dc/dcmitype/StillImage" />
        <dc:title></dc:title>
      </cc:Work>
    </rdf:RDF>
  </metadata>
  <g
     inkscape:label="Grundlinien"
     inkscape:groupmode="layer"
     id="layer1"
     transform="translate(0,-308.26772)"
     style="display:inline"
     sodipodi:insensitive="true">
    <path
       style="fill:none;fill-rule:evenodd;stroke:#969696;stroke-width:1.875;stroke-linecap:round;stroke-linejoin:miter;stroke-miterlimit:4;stroke-dasharray:none;stroke-opacity:1"
       d="M 57.556226,742.24566 H 1006.4206"
       id="path3336"
       inkscape:connector-curvature="0"
       sodipodi:nodetypes="cc" />
    <path
       style="fill:none;fill-rule:evenodd;stroke:#000000;stroke-width:0.9375;stroke-linecap:round;stroke-linejoin:miter;stroke-miterlimit:2;stroke-dasharray:3.74999998, 7.49999996;stroke-dashoffset:0;stroke-opacity:1"
       d="M 58.279456,844.14792 H 1007.1438"
       id="path3336-4"
       inkscape:connector-curvature="0"
       sodipodi:nodetypes="cc" />
    <path
       style="fill:none;fill-rule:evenodd;stroke:#000000;stroke-width:0.9375;stroke-linecap:round;stroke-linejoin:miter;stroke-miterlimit:2;stroke-dasharray:3.74999998, 7.49999996;stroke-dashoffset:0;stroke-opacity:1"
       d="M 58.279456,641.7697 H 1007.1438"
       id="path3336-7"
       inkscape:connector-curvature="0"
       sodipodi:nodetypes="cc" />
    <path
       style="fill:none;fill-rule:evenodd;stroke:#000000;stroke-width:0.9375;stroke-linecap:round;stroke-linejoin:miter;stroke-miterlimit:2;stroke-dasharray:3.74999998, 7.49999996;stroke-dashoffset:0;stroke-opacity:1"
       d="M 58.279456,540.58062 H 1007.1438"
       id="path3336-2"
       inkscape:connector-curvature="0"
       sodipodi:nodetypes="cc" />
  </g>
  <g
     inkscape:groupmode="layer"
     id="layer2"
     inkscape:label="Stenozeichen">
    <path
       style="display:inline;fill:none;fill-rule:evenodd;stroke:#000000;stroke-width:5.625;stroke-linecap:round;stroke-linejoin:round;stroke-miterlimit:4;stroke-dasharray:none;stroke-opacity:1"
       d="m 451.90446,399.35103 c -20.78119,13.50085 -73.14907,51.65496 -101.29807,81.37896 -20.651,21.806 -23.216,39.984 -8.936,48.194 0,0 25.482,22.657 68.972,-38.339 26.944,-36.888 51.626,-77.418 66.323,-120.43 5.95507,-18.50589 2.98286,-36.65363 -10.55867,-34.53343 -24.29255,3.80348 -55.3593,30.45341 -72.31224,48.22851"
       id="path12351-7-1-8-8-6-9"
       inkscape:connector-curvature="0"
       sodipodi:nodetypes="cssccsc" />
    <path
       style="display:inline;fill:none;fill-rule:evenodd;stroke:#000000;stroke-width:5.625;stroke-linecap:round;stroke-linejoin:round;stroke-miterlimit:4;stroke-dasharray:none;stroke-opacity:1"
       d="m 579.1224,306.12974 c -35.25316,24.76671 -90.80871,65.30432 -127.21794,93.22129"
       id="path12351-7-1-8-02-8-38-7"
       inkscape:connector-curvature="0"
       sodipodi:nodetypes="cc" />
    <path
       style="display:inline;fill:none;fill-rule:evenodd;stroke:#000000;stroke-width:5.54530239;stroke-linecap:round;stroke-linejoin:round;stroke-miterlimit:4;stroke-dasharray:none;stroke-opacity:1"
       d="m 579.1224,306.12974 c 13.97432,-10.07319 28.34788,-18.74836 42.88492,-19.57291 16.55767,-0.93916 26.34449,14.02356 39.14513,47.41045 12.27196,32.00799 28.93208,43.72951 44.42269,43.24482 4.21661,-0.13193 11.78356,-2.56778 15.71477,-4.34559"
       id="path12351-7-1-98-5-4"
       inkscape:connector-curvature="0"
       sodipodi:nodetypes="csssc" />
    <path
       style="display:inline;fill:none;fill-rule:evenodd;stroke:#000000;stroke-width:5.625;stroke-linecap:round;stroke-linejoin:round;stroke-miterlimit:4;stroke-dasharray:none;stroke-opacity:1"
       d="m 330.57938,385.15709 19.97611,46.03858 43.53899,-47.3456"
       id="path844-5-6-9-0"
       inkscape:connector-curvature="0"
       sodipodi:nodetypes="ccc" />
    <path
       style="display:inline;fill:none;fill-rule:evenodd;stroke:#000000;stroke-width:5.625;stroke-linecap:round;stroke-linejoin:miter;stroke-miterlimit:4;stroke-dasharray:none;stroke-opacity:1"
       d="m 330.57938,385.15709 c 0,0 -57.74462,97.70073 -64.08826,112.16675 -12.171,28.49 -2.29089,35.3856 10.911,35.72 10.55013,0.26724 20.21148,-5.54098 29.49751,-14.8059"
       id="path822-8-5-8-3"
       inkscape:connector-curvature="0"
       sodipodi:nodetypes="ccsc" />
    <path
       style="display:inline;fill:none;fill-rule:evenodd;stroke:#000000;stroke-width:5.625;stroke-linecap:round;stroke-linejoin:round;stroke-miterlimit:4;stroke-dasharray:none;stroke-opacity:1"
       d="m 721.28991,372.86651 c 7.26786,-3.34643 13.82415,-5.37173 17.73943,-6.40616 11.17981,-2.95376 25.48001,-3.102 24.08501,4.704 -0.02,0.232 0.06,0.446 0.06,0.665 0.02,1.412 -0.577,2.713 -2.085,3.845 -2.938,2.207 -6.93901,0.774 -8.494,-0.44 -3.27801,-0.509 -1,-11.937 -0.04,-10.606 1.734,2.396 0,0 8.781,2.757 0.181,0.06 0.269,0.319 0.396,0.493 0.153,0.208 0.425,0.652 0.563,0.89 0.309,0.538 0.449,0.931 0.662,1.629"
       id="path12351-7-1-4-97-0-6-1"
       inkscape:connector-curvature="0"
       sodipodi:nodetypes="cscsscssssc" />
    <path
       style="display:inline;fill:none;fill-opacity:1;stroke:#000000;stroke-width:5.625;stroke-linecap:round;stroke-linejoin:round;stroke-miterlimit:4;stroke-dasharray:none;stroke-dashoffset:0;stroke-opacity:1"
       id="path6585-73-3-9"
       sodipodi:type="arc"
       sodipodi:cx="757.40637"
       sodipodi:cy="371.15112"
       sodipodi:rx="5.4690289"
       sodipodi:ry="1.8230096"
       sodipodi:start="0"
       sodipodi:end="6.2778271"
       d="m 762.8754,371.15112 a 5.4690289,1.8230096 0 0 1 -5.4617,1.82301 5.4690289,1.8230096 0 0 1 -5.47634,-1.81812 5.4690289,1.8230096 0 0 1 5.44703,-1.82788 5.4690289,1.8230096 0 0 1 5.49093,1.81323 l -5.46895,0.01 z" />
  </g>
</svg>
