<?xml version="1.0" encoding="UTF-8" standalone="no"?>
<!-- Created with Inkscape (http://www.inkscape.org/) -->

<svg
   xmlns:dc="http://purl.org/dc/elements/1.1/"
   xmlns:cc="http://creativecommons.org/ns#"
   xmlns:rdf="http://www.w3.org/1999/02/22-rdf-syntax-ns#"
   xmlns:svg="http://www.w3.org/2000/svg"
   xmlns="http://www.w3.org/2000/svg"
   xmlns:sodipodi="http://sodipodi.sourceforge.net/DTD/sodipodi-0.dtd"
   xmlns:inkscape="http://www.inkscape.org/namespaces/inkscape"
   width="297mm"
   height="210mm"
   viewBox="0 0 1052.3622 744.09448"
   id="svg2"
   version="1.1"
   inkscape:version="0.92.3 (2405546, 2018-03-11)"
   sodipodi:docname="DEK Deutsche Einheitskurzschrift - Verkehrsschrift - Friedrich von Schiller.svg">
  <defs
     id="defs4">
    <pattern
       y="0"
       x="0"
       height="6"
       width="6"
       patternUnits="userSpaceOnUse"
       id="EMFhbasepattern" />
  </defs>
  <sodipodi:namedview
     id="base"
     pagecolor="#ffffff"
     bordercolor="#666666"
     borderopacity="1.0"
     inkscape:pageopacity="0.0"
     inkscape:pageshadow="2"
     inkscape:zoom="0.7"
     inkscape:cx="494.52886"
     inkscape:cy="513.25801"
     inkscape:document-units="px"
     inkscape:current-layer="layer2"
     showgrid="false"
     inkscape:window-width="1920"
     inkscape:window-height="1017"
     inkscape:window-x="1592"
     inkscape:window-y="-8"
     inkscape:window-maximized="1" />
  <metadata
     id="metadata7">
    <rdf:RDF>
      <cc:Work
         rdf:about="">
        <dc:format>image/svg+xml</dc:format>
        <dc:type
           rdf:resource="http://purl.org/dc/dcmitype/StillImage" />
        <dc:title></dc:title>
      </cc:Work>
    </rdf:RDF>
  </metadata>
  <g
     inkscape:label="Grundlinien"
     inkscape:groupmode="layer"
     id="layer1"
     transform="translate(0,-308.26772)"
     sodipodi:insensitive="true">
    <path
       style="fill:none;fill-rule:evenodd;stroke:#969696;stroke-width:1.875;stroke-linecap:round;stroke-linejoin:miter;stroke-miterlimit:4;stroke-dasharray:none;stroke-opacity:1"
       d="M 57.556226,742.24566 H 1006.4206"
       id="path3336"
       inkscape:connector-curvature="0"
       sodipodi:nodetypes="cc" />
    <path
       style="fill:none;fill-rule:evenodd;stroke:#000000;stroke-width:0.9375;stroke-linecap:round;stroke-linejoin:miter;stroke-miterlimit:2;stroke-dasharray:3.74999998, 7.49999996;stroke-dashoffset:0;stroke-opacity:1"
       d="M 58.279456,844.14792 H 1007.1438"
       id="path3336-4"
       inkscape:connector-curvature="0"
       sodipodi:nodetypes="cc" />
    <path
       style="fill:none;fill-rule:evenodd;stroke:#000000;stroke-width:0.9375;stroke-linecap:round;stroke-linejoin:miter;stroke-miterlimit:2;stroke-dasharray:3.74999998, 7.49999996;stroke-dashoffset:0;stroke-opacity:1"
       d="M 58.279456,641.7697 H 1007.1438"
       id="path3336-7"
       inkscape:connector-curvature="0"
       sodipodi:nodetypes="cc" />
    <path
       style="fill:none;fill-rule:evenodd;stroke:#000000;stroke-width:0.9375;stroke-linecap:round;stroke-linejoin:miter;stroke-miterlimit:2;stroke-dasharray:3.74999998, 7.49999996;stroke-dashoffset:0;stroke-opacity:1"
       d="M 58.279456,540.58062 H 1007.1438"
       id="path3336-2"
       inkscape:connector-curvature="0"
       sodipodi:nodetypes="cc" />
  </g>
  <g
     inkscape:groupmode="layer"
     id="layer2"
     inkscape:label="Stenozeichen">
    <path
       style="display:inline;fill:none;fill-rule:evenodd;stroke:#000000;stroke-width:5.625;stroke-linecap:round;stroke-linejoin:round;stroke-miterlimit:4;stroke-dasharray:none;stroke-opacity:1"
       d="m 174.47276,330.83055 c 54.311,-10.97 95.519,-79.45001 89.161,-96.16001 -5.478,-14.4 -40.249,8.88 -87.435,86.78001 l -61.551,109.74999 60.88802,-50.09145"
       id="path12351-7-1-33"
       inkscape:connector-curvature="0"
       sodipodi:nodetypes="csccc" />
    <path
       style="display:inline;fill:none;fill-rule:evenodd;stroke:#000000;stroke-width:5.625;stroke-linecap:round;stroke-linejoin:round;stroke-miterlimit:4;stroke-dasharray:none;stroke-opacity:1"
       d="m 175.53578,381.10909 c 0,0 57.53842,-43.13996 72.36702,-49.35781 23.42019,-12.54771 60.11131,-34.86827 58.193,-45.61 -2.76499,-7.26 -28.839,-4.27 -52.657,35.05 l -31.796,56.44 85.72989,-69.04327"
       id="path12351-7-1-0-7-9"
       inkscape:connector-curvature="0"
       sodipodi:nodetypes="cccccc" />
    <path
       style="display:inline;fill:none;fill-rule:evenodd;stroke:#000000;stroke-width:5.625;stroke-linecap:round;stroke-linejoin:round;stroke-miterlimit:4;stroke-dasharray:none;stroke-opacity:1"
       d="m 307.37269,308.58801 c 31.57762,-24.8908 121.21574,-125.1527 161.40375,-163.5132 9.25977,-8.1978 15.93003,-11.26131 25.69057,-11.84657 44.29102,-2.65578 -69.18498,191.58745 -105.97942,197.09332 -1.30334,0.19503 -5.30747,1.36835 -10.64286,-2.06808"
       id="path844-57"
       inkscape:connector-curvature="0"
       sodipodi:nodetypes="ccssc" />
    <path
       style="display:inline;fill:none;fill-rule:evenodd;stroke:#000000;stroke-width:5.625;stroke-linecap:round;stroke-linejoin:round;stroke-miterlimit:4;stroke-dasharray:none;stroke-opacity:1"
       d="m 509.96784,431.42815 c 24.49936,-1.2641 54.874,-44.71 60.115,-82.00998 5.709,-40.62002 44.30802,-104.39002 79.96902,-114.66002"
       id="path12351-7-1-8-67-1-1"
       inkscape:connector-curvature="0"
       sodipodi:nodetypes="csc" />
    <path
       style="display:inline;fill:none;fill-opacity:1;fill-rule:evenodd;stroke:#000000;stroke-width:5.625;stroke-linecap:round;stroke-linejoin:round;stroke-miterlimit:4;stroke-dasharray:none;stroke-opacity:1"
       d="m 810.00523,350.06709 c 1.02801,0.102 1.92501,0.322 2.649,0.691 0.237,0.12099 0.456,0.258 0.65502,0.41199 1.28298,0.99201 1.74999,2.69901 1.03299,5.42601 -1.39701,5.312 -7.40301,8.358 -10.25901,9.43898 -5.91099,2.14102 -10.293,-2.73398 -6.915,-7.97298 2.11101,-3.27401 5.77401,-6.90701 10.095,-7.8 0.294,-0.06 0.59001,-0.10901 0.89001,-0.143 0.36,-0.04 0.72399,-0.06 1.09101,-0.06 0.83298,0 1.68399,0.10899 2.547,0.347"
       id="path12351-7-1-4-7-1-2-1"
       inkscape:connector-curvature="0"
       sodipodi:nodetypes="cssscssssc" />
    <path
       style="display:inline;fill:none;fill-rule:evenodd;stroke:#000000;stroke-width:5.625;stroke-linecap:round;stroke-linejoin:round;stroke-miterlimit:4;stroke-dasharray:none;stroke-opacity:1"
       d="m 809.97522,362.82164 c -12.55895,12.04616 -26.84257,26.14368 -38.6597,36.5234 -39.01703,34.27108 -76.45505,63.42467 -86.87232,73.71593 -14.51977,14.4747 -44.13388,42.47467 -35.46574,53.49221 0.933,3.011 16.314,22.90101 59.804,-38.096 26.944,-36.888 54.639,-73.40101 69.336,-116.41201 15.505,-30.052 -1.403,-56.688 -44.447,-11.556"
       id="path12351-7-1-8-60-9"
       inkscape:connector-curvature="0"
       sodipodi:nodetypes="csccccc" />
    <path
       style="display:inline;fill:none;fill-opacity:1;fill-rule:evenodd;stroke:#000000;stroke-width:5.625;stroke-linecap:round;stroke-linejoin:round;stroke-miterlimit:4;stroke-dasharray:none;stroke-opacity:1"
       d="m 841.19246,350.70973 c 1.02801,0.102 1.92501,0.322 2.649,0.691 0.237,0.12099 0.456,0.258 0.65502,0.41199 1.28298,0.99201 1.74999,2.69901 1.03299,5.42601 -1.39701,5.312 -7.40301,8.358 -10.25901,9.43898 -5.91099,2.14102 -10.293,-2.73398 -6.915,-7.97298 2.11101,-3.27401 5.77401,-6.90701 10.095,-7.8 0.294,-0.06 0.59001,-0.10901 0.89001,-0.143 0.36,-0.04 0.72399,-0.06 1.09101,-0.06 0.83298,0 1.68399,0.10899 2.547,0.347"
       id="path12351-7-1-4-7-1-2-1-5"
       inkscape:connector-curvature="0"
       sodipodi:nodetypes="cssscssssc" />
    <path
       style="display:inline;fill:none;fill-rule:evenodd;stroke:#000000;stroke-width:5.625;stroke-linecap:round;stroke-linejoin:round;stroke-miterlimit:4;stroke-dasharray:none;stroke-opacity:1"
       d="M 832.30958,367.11657 803.292,366.66054"
       id="path851-7-8-7"
       inkscape:connector-curvature="0"
       sodipodi:nodetypes="cc" />
    <path
       style="display:inline;fill:none;fill-rule:evenodd;stroke:#000000;stroke-width:5.625;stroke-linecap:round;stroke-linejoin:round;stroke-miterlimit:4;stroke-dasharray:none;stroke-opacity:1"
       d="m 834.89287,366.8768 c 7.53349,-2.00893 64.5827,-30.91919 64.5827,-30.91919 l 20.033,47.88"
       id="path844-5-6-5-95-0"
       inkscape:connector-curvature="0"
       sodipodi:nodetypes="ccc" />
  </g>
</svg>
