<?xml version="1.0" encoding="UTF-8" standalone="no"?>
<!-- Created with Inkscape (http://www.inkscape.org/) -->

<svg
   xmlns:dc="http://purl.org/dc/elements/1.1/"
   xmlns:cc="http://creativecommons.org/ns#"
   xmlns:rdf="http://www.w3.org/1999/02/22-rdf-syntax-ns#"
   xmlns:svg="http://www.w3.org/2000/svg"
   xmlns="http://www.w3.org/2000/svg"
   xmlns:sodipodi="http://sodipodi.sourceforge.net/DTD/sodipodi-0.dtd"
   xmlns:inkscape="http://www.inkscape.org/namespaces/inkscape"
   width="297mm"
   height="210mm"
   viewBox="0 0 1052.3622 744.09448"
   id="svg2"
   version="1.1"
   inkscape:version="0.92.3 (2405546, 2018-03-11)"
   sodipodi:docname="DEK Deutsche Einheitskurzschrift - Verkehrsschrift - Himalaya v2.svg">
  <defs
     id="defs4" />
  <sodipodi:namedview
     id="base"
     pagecolor="#ffffff"
     bordercolor="#666666"
     borderopacity="1.0"
     inkscape:pageopacity="0.0"
     inkscape:pageshadow="2"
     inkscape:zoom="0.7"
     inkscape:cx="975.82122"
     inkscape:cy="370.24137"
     inkscape:document-units="px"
     inkscape:current-layer="layer2"
     showgrid="false"
     inkscape:window-width="1920"
     inkscape:window-height="1017"
     inkscape:window-x="1592"
     inkscape:window-y="-8"
     inkscape:window-maximized="1"
     showguides="true"
     inkscape:guide-bbox="true" />
  <metadata
     id="metadata7">
    <rdf:RDF>
      <cc:Work
         rdf:about="">
        <dc:format>image/svg+xml</dc:format>
        <dc:type
           rdf:resource="http://purl.org/dc/dcmitype/StillImage" />
        <dc:title></dc:title>
      </cc:Work>
    </rdf:RDF>
  </metadata>
  <g
     inkscape:label="Grundlinien"
     inkscape:groupmode="layer"
     id="layer1"
     transform="translate(0,-308.26772)"
     style="display:inline"
     sodipodi:insensitive="true">
    <path
       style="fill:none;fill-rule:evenodd;stroke:#969696;stroke-width:1.875;stroke-linecap:round;stroke-linejoin:miter;stroke-miterlimit:4;stroke-dasharray:none;stroke-opacity:1"
       d="M 57.556226,742.24566 H 1006.4206"
       id="path3336"
       inkscape:connector-curvature="0"
       sodipodi:nodetypes="cc" />
    <path
       style="fill:none;fill-rule:evenodd;stroke:#000000;stroke-width:0.9375;stroke-linecap:round;stroke-linejoin:miter;stroke-miterlimit:2;stroke-dasharray:3.74999998, 7.49999996;stroke-dashoffset:0;stroke-opacity:1"
       d="M 58.279456,844.14792 H 1007.1438"
       id="path3336-4"
       inkscape:connector-curvature="0"
       sodipodi:nodetypes="cc" />
    <path
       style="fill:none;fill-rule:evenodd;stroke:#000000;stroke-width:0.9375;stroke-linecap:round;stroke-linejoin:miter;stroke-miterlimit:2;stroke-dasharray:3.74999998, 7.49999996;stroke-dashoffset:0;stroke-opacity:1"
       d="M 58.279456,641.7697 H 1007.1438"
       id="path3336-7"
       inkscape:connector-curvature="0"
       sodipodi:nodetypes="cc" />
    <path
       style="fill:none;fill-rule:evenodd;stroke:#000000;stroke-width:0.9375;stroke-linecap:round;stroke-linejoin:miter;stroke-miterlimit:2;stroke-dasharray:3.74999998, 7.49999996;stroke-dashoffset:0;stroke-opacity:1"
       d="M 58.279456,540.58062 H 1007.1438"
       id="path3336-2"
       inkscape:connector-curvature="0"
       sodipodi:nodetypes="cc" />
  </g>
  <g
     inkscape:groupmode="layer"
     id="layer2"
     inkscape:label="Stenozeichen"
     style="display:inline">
    <g
       style="display:inline;fill:#eb0000;fill-opacity:1;stroke:#000000;stroke-opacity:1"
       id="g3400-0-9-1-1-1"
       transform="matrix(1.7715894,0,0,1.7715894,-793.17132,9.1511839)">
      <path
         sodipodi:nodetypes="cssscssssc"
         inkscape:connector-curvature="0"
         id="path12351-7-1-4-7-1-6-5-4-9-18"
         d="m 732.10849,185.47164 c 0.7552,0.075 1.4134,0.2367 1.9458,0.508 0.1742,0.089 0.3349,0.1892 0.4811,0.3022 0.9433,0.7293 1.2859,1.9829 0.7591,3.9864 -1.0262,3.9032 -5.4392,6.1407 -7.537,6.9351 -4.3429,1.5729 -7.5618,-2.0087 -5.0803,-5.8574 1.5512,-2.4058 4.2421,-5.0744 7.4163,-5.7306 0.2158,-0.045 0.4339,-0.08 0.654,-0.1052 0.2645,-0.03 0.5319,-0.046 0.8019,-0.047 0.6117,-5e-4 1.2367,0.08 1.8706,0.2549"
         style="display:inline;fill:#eb0000;fill-opacity:1;fill-rule:evenodd;stroke:#000000;stroke-width:5.625;stroke-linecap:round;stroke-linejoin:round;stroke-miterlimit:4;stroke-dasharray:none;stroke-opacity:1" />
      <path
         inkscape:transform-center-y="-14.607846"
         inkscape:transform-center-x="-10.542139"
         sodipodi:nodetypes="cssscssssc"
         inkscape:connector-curvature="0"
         id="path12351-7-1-4-7-8-3-4-4-9-3-32"
         d="m 729.28189,188.28694 c 0.3372,0.029 0.6316,0.1 0.8704,0.2175 0.078,0.039 0.1506,0.083 0.2161,0.1325 0.4243,0.3208 0.5833,0.8785 0.3575,1.7747 -0.4394,1.7461 -2.3974,2.7652 -3.3296,3.1296 -1.9299,0.7222 -3.3828,-0.8603 -2.2941,-2.5891 0.6806,-1.0807 1.8685,-2.2837 3.2814,-2.5916 0.097,-0.021 0.1934,-0.038 0.2914,-0.049 0.1179,-0.014 0.2368,-0.023 0.3575,-0.025 0.2728,0 0.552,0.03 0.8356,0.1054"
         style="display:inline;fill:#eb0000;fill-opacity:1;fill-rule:evenodd;stroke:#000000;stroke-width:4.98104382;stroke-linecap:round;stroke-linejoin:round;stroke-miterlimit:4;stroke-dasharray:none;stroke-opacity:1" />
    </g>
    <path
       style="display:inline;fill:none;fill-rule:evenodd;stroke:#000000;stroke-width:5.625;stroke-linecap:round;stroke-linejoin:round;stroke-miterlimit:4;stroke-dasharray:none;stroke-opacity:1"
       d="m 534.68464,389.13475 c -14.30538,-2.62113 119.70677,-53.03051 119.70677,-53.03051 1.14887,-0.50895 -25.859,49.55 -25.859,49.55"
       id="path4752-1-4"
       inkscape:connector-curvature="0"
       sodipodi:nodetypes="csc" />
    <path
       style="display:inline;fill:none;fill-rule:evenodd;stroke:#000000;stroke-width:5.625;stroke-linecap:round;stroke-linejoin:round;stroke-miterlimit:4;stroke-dasharray:none;stroke-opacity:1"
       d="m 661.35341,338.96424 -25.346,46.6"
       id="path4752-1-2"
       inkscape:connector-curvature="0"
       sodipodi:nodetypes="cc" />
    <path
       style="display:inline;fill:none;fill-rule:evenodd;stroke:#000000;stroke-width:5.625;stroke-linecap:round;stroke-linejoin:round;stroke-miterlimit:4;stroke-dasharray:none;stroke-opacity:1"
       d="m 640.48441,385.44424 -11.952,0.21"
       id="path4752-1-2-1"
       inkscape:connector-curvature="0"
       sodipodi:nodetypes="cc" />
    <path
       style="display:inline;fill:none;fill-rule:evenodd;stroke:#000000;stroke-width:5.625;stroke-linecap:round;stroke-linejoin:round;stroke-miterlimit:4;stroke-dasharray:none;stroke-opacity:1"
       d="m 668.21541,335.90424 -27.731,49.54"
       id="path4752-1-22-0"
       inkscape:connector-curvature="0"
       sodipodi:nodetypes="cc" />
    <path
       style="display:inline;fill:none;fill-rule:evenodd;stroke:#000000;stroke-width:5.625;stroke-linecap:round;stroke-linejoin:round;stroke-miterlimit:4;stroke-dasharray:none;stroke-opacity:1"
       d="m 668.21541,335.90424 -14.09899,-0.1"
       id="path4752-1-2-1-0"
       inkscape:connector-curvature="0"
       sodipodi:nodetypes="cc" />
    <path
       style="display:inline;fill:none;fill-rule:evenodd;stroke:#000000;stroke-width:5.625;stroke-linecap:round;stroke-linejoin:round;stroke-miterlimit:4;stroke-dasharray:none;stroke-opacity:1"
       d="m 659.47841,337.09424 -25.346,46.6"
       id="path4752-1-2-2"
       inkscape:connector-curvature="0"
       sodipodi:nodetypes="cc"
       inkscape:transform-center-x="-36.223439"
       inkscape:transform-center-y="7.9312758" />
    <path
       style="display:inline;fill:none;fill-rule:evenodd;stroke:#000000;stroke-width:5.41913939;stroke-linecap:round;stroke-linejoin:round;stroke-miterlimit:4;stroke-dasharray:none;stroke-opacity:1"
       d="m 388.31252,353.5477 c 0,0 -58.289,50.78299 -67.326,58.11799 -8.621,6.99802 -8.652,10.87102 -8.013,14.58702 0.625,3.63798 1.948,4.801 5.3,5.16798 3.287,0.36102 8.24501,-3.63798 9.614,-4.428 48.924,-27.98999 71.821,-129.31 9.448,-73.76999 -2.33299,2.07 -17.441,18.35 -20.016,20.88"
       id="path844-7-9-8-2-6"
       inkscape:connector-curvature="0"
       sodipodi:nodetypes="csssssc" />
    <path
       style="display:inline;fill:none;fill-rule:evenodd;stroke:#000000;stroke-width:5.625;stroke-linecap:round;stroke-linejoin:round;stroke-miterlimit:4;stroke-dasharray:none;stroke-opacity:1"
       d="m 388.31252,353.5477 53.234,-52.64601 c 21.683,-21.44299 60.947,-14.63799 37.482,14.373 -27.375,33.84601 -45.456,50.22801 -39.44,63.89101 3.363,7.639 15.519,4.252 25.217,2.3 17.86256,-5.16418 28.69779,-15.71943 40.00043,-25.01815"
       id="path844-8-6-7-8"
       inkscape:connector-curvature="0"
       sodipodi:nodetypes="cssscc" />
    <path
       style="display:inline;fill:none;fill-rule:evenodd;stroke:#000000;stroke-width:5.625;stroke-linecap:round;stroke-linejoin:round;stroke-miterlimit:4;stroke-dasharray:none;stroke-opacity:1"
       d="m 559.00869,315.97363 c 0,0 -45.2251,47.17987 -61.70274,45.39579"
       id="path851-7-8-7-6"
       inkscape:connector-curvature="0"
       sodipodi:nodetypes="cc" />
    <path
       style="display:inline;fill:none;fill-rule:evenodd;stroke:#000000;stroke-width:5.625;stroke-linecap:round;stroke-linejoin:round;stroke-miterlimit:4;stroke-dasharray:none;stroke-opacity:1"
       d="m 559.00869,315.97363 c 0,0 120.55595,-121.94188 123.53195,-122.99788 -20.589,35.994 -39.582,73.671 -60.292,109.597 -24.802,38.968 -60.434,82.04001 -87.564,86.562"
       id="path844-529-3-2-4-7"
       inkscape:connector-curvature="0"
       sodipodi:nodetypes="cccc" />
    <path
       style="display:inline;fill:none;fill-rule:evenodd;stroke:#000000;stroke-width:7.49999952;stroke-linecap:round;stroke-linejoin:round;stroke-miterlimit:4;stroke-dasharray:none;stroke-opacity:1"
       d="m 686.78464,196.14975 -61.506,108.492"
       id="path844-99-4-6-5-8-1"
       inkscape:connector-curvature="0"
       sodipodi:nodetypes="cc" />
    <path
       style="display:inline;fill:none;fill-rule:evenodd;stroke:#000000;stroke-width:5.625;stroke-linecap:round;stroke-linejoin:round;stroke-miterlimit:4;stroke-dasharray:none;stroke-opacity:1"
       d="m 697.65964,192.71075 c -29.92599,54.58 -65.292,117.04501 -122.798,170.003"
       id="path844-99-4-6-5-4-73-9"
       inkscape:connector-curvature="0"
       sodipodi:nodetypes="cc" />
    <path
       style="display:inline;fill:none;fill-rule:evenodd;stroke:#000000;stroke-width:5.625;stroke-linecap:round;stroke-linejoin:miter;stroke-miterlimit:4;stroke-dasharray:none;stroke-opacity:1"
       d="m 682.54064,192.97575 15.119,-0.265"
       id="path2235-6-1"
       inkscape:connector-curvature="0"
       sodipodi:nodetypes="cc" />
    <path
       style="display:inline;fill:none;fill-rule:evenodd;stroke:#000000;stroke-width:5.625;stroke-linecap:round;stroke-linejoin:round;stroke-miterlimit:4;stroke-dasharray:none;stroke-opacity:1"
       d="m 691.16665,196.14975 -40.26801,69.706"
       id="path844-99-4-6-5-0-1"
       inkscape:connector-curvature="0"
       sodipodi:nodetypes="cc" />
  </g>
</svg>
