<?xml version="1.0" encoding="UTF-8" standalone="no"?>
<!-- Created with Inkscape (http://www.inkscape.org/) -->

<svg
   xmlns:dc="http://purl.org/dc/elements/1.1/"
   xmlns:cc="http://creativecommons.org/ns#"
   xmlns:rdf="http://www.w3.org/1999/02/22-rdf-syntax-ns#"
   xmlns:svg="http://www.w3.org/2000/svg"
   xmlns="http://www.w3.org/2000/svg"
   xmlns:sodipodi="http://sodipodi.sourceforge.net/DTD/sodipodi-0.dtd"
   xmlns:inkscape="http://www.inkscape.org/namespaces/inkscape"
   width="297mm"
   height="210mm"
   viewBox="0 0 1052.3622 744.09448"
   id="svg2"
   version="1.1"
   inkscape:version="0.92.3 (2405546, 2018-03-11)"
   sodipodi:docname="DEK Deutsche Einheitskurzschrift - Verkehrsschrift - Gullivers Reisen.svg">
  <defs
     id="defs4" />
  <sodipodi:namedview
     id="base"
     pagecolor="#ffffff"
     bordercolor="#666666"
     borderopacity="1.0"
     inkscape:pageopacity="0.0"
     inkscape:pageshadow="2"
     inkscape:zoom="0.98994951"
     inkscape:cx="484.63699"
     inkscape:cy="445.53703"
     inkscape:document-units="px"
     inkscape:current-layer="layer2"
     showgrid="false"
     inkscape:window-width="1920"
     inkscape:window-height="1017"
     inkscape:window-x="1592"
     inkscape:window-y="-8"
     inkscape:window-maximized="1"
     showguides="true"
     inkscape:guide-bbox="true" />
  <metadata
     id="metadata7">
    <rdf:RDF>
      <cc:Work
         rdf:about="">
        <dc:format>image/svg+xml</dc:format>
        <dc:type
           rdf:resource="http://purl.org/dc/dcmitype/StillImage" />
        <dc:title></dc:title>
      </cc:Work>
    </rdf:RDF>
  </metadata>
  <g
     inkscape:label="Grundlinien"
     inkscape:groupmode="layer"
     id="layer1"
     transform="translate(0,-308.26772)"
     sodipodi:insensitive="true">
    <path
       style="fill:none;fill-rule:evenodd;stroke:#969696;stroke-width:1.875;stroke-linecap:round;stroke-linejoin:miter;stroke-miterlimit:4;stroke-dasharray:none;stroke-opacity:1"
       d="M 57.556226,742.24566 H 1006.4206"
       id="path3336"
       inkscape:connector-curvature="0"
       sodipodi:nodetypes="cc" />
    <path
       style="fill:none;fill-rule:evenodd;stroke:#000000;stroke-width:0.9375;stroke-linecap:round;stroke-linejoin:miter;stroke-miterlimit:2;stroke-dasharray:3.74999998, 7.49999996;stroke-dashoffset:0;stroke-opacity:1"
       d="M 58.279456,844.14792 H 1007.1438"
       id="path3336-4"
       inkscape:connector-curvature="0"
       sodipodi:nodetypes="cc" />
    <path
       style="fill:none;fill-rule:evenodd;stroke:#000000;stroke-width:0.9375;stroke-linecap:round;stroke-linejoin:miter;stroke-miterlimit:2;stroke-dasharray:3.74999998, 7.49999996;stroke-dashoffset:0;stroke-opacity:1"
       d="M 58.279456,641.7697 H 1007.1438"
       id="path3336-7"
       inkscape:connector-curvature="0"
       sodipodi:nodetypes="cc" />
    <path
       style="fill:none;fill-rule:evenodd;stroke:#000000;stroke-width:0.9375;stroke-linecap:round;stroke-linejoin:miter;stroke-miterlimit:2;stroke-dasharray:3.74999998, 7.49999996;stroke-dashoffset:0;stroke-opacity:1"
       d="M 58.279456,540.58062 H 1007.1438"
       id="path3336-2"
       inkscape:connector-curvature="0"
       sodipodi:nodetypes="cc" />
  </g>
  <g
     inkscape:groupmode="layer"
     id="layer2"
     inkscape:label="Stenozeichen"
     style="display:inline">
    <path
       style="display:inline;fill:none;fill-rule:evenodd;stroke:#000000;stroke-width:5.625;stroke-linecap:round;stroke-linejoin:round;stroke-miterlimit:4;stroke-dasharray:none;stroke-opacity:1"
       d="m 229.09469,359.78809 c 24.338,-32.99 69.844,-34.23 37.18,20.01 l -31.514,52.11"
       id="path12351-3-74"
       inkscape:connector-curvature="0"
       sodipodi:nodetypes="csc" />
    <path
       style="display:inline;fill:none;fill-rule:evenodd;stroke:#030002;stroke-width:5.625;stroke-linecap:round;stroke-linejoin:round;stroke-miterlimit:4;stroke-dasharray:none;stroke-opacity:1"
       d="m 234.76069,431.90809 c 18.34788,-1.76027 60.55546,-2.07108 62.7318,2.95124"
       id="path844-99-4-6-9-5-4-5"
       inkscape:connector-curvature="0"
       sodipodi:nodetypes="cc" />
    <path
       style="display:inline;fill:none;fill-rule:evenodd;stroke:#000000;stroke-width:5.625;stroke-linecap:round;stroke-linejoin:round;stroke-miterlimit:4;stroke-dasharray:none;stroke-opacity:1"
       d="m 296.18148,434.61533 c 0.75501,0.07 1.41301,0.237 1.945,0.508 0.17501,0.09 0.33501,0.189 0.48101,0.302 0.94399,0.73 1.28599,1.983 0.76,3.987 -1.027,3.903 -5.44,6.14 -7.537,6.935 -4.34301,1.573 -7.56201,-2.009 -5.08101,-5.858 1.551,-2.405 4.242,-5.074 7.417,-5.73 0.215,-0.04 0.43301,-0.08 0.654,-0.105 0.264,-0.03 0.531,-0.05 0.801,-0.05 0.612,0 1.23701,0.08 1.87101,0.255"
       id="path12351-7-1-4-2"
       inkscape:connector-curvature="0"
       sodipodi:nodetypes="cssscssssc" />
    <path
       style="display:inline;fill:none;fill-rule:evenodd;stroke:#000000;stroke-width:5.625;stroke-linecap:round;stroke-linejoin:round;stroke-miterlimit:4;stroke-dasharray:none;stroke-opacity:1"
       d="m 291.81042,435.74406 c 0,0 140.21734,-172.71344 161.62029,-190.7846"
       id="path4752-1-1"
       inkscape:connector-curvature="0"
       sodipodi:nodetypes="cc" />
    <path
       style="display:inline;fill:none;fill-rule:evenodd;stroke:#000000;stroke-width:5.625;stroke-linecap:round;stroke-linejoin:round;stroke-miterlimit:4;stroke-dasharray:none;stroke-opacity:0.98762267"
       d="m 337.38109,431.4318 c 22.481,-8.859 52.197,-48.91301 60.378,-86.09501 8.181,-37.183 38.834,-98.141 73.844,-111.571"
       id="path12351-7-1-8-2"
       inkscape:connector-curvature="0"
       sodipodi:nodetypes="czc" />
    <path
       style="display:inline;fill:none;fill-rule:evenodd;stroke:#000000;stroke-width:5.625;stroke-linecap:round;stroke-linejoin:round;stroke-miterlimit:4;stroke-dasharray:none;stroke-opacity:1"
       d="M 337.38109,431.4318 C 322.70231,430.72154 446.51848,379.234 446.51848,379.234"
       id="path844-5-6-5-95-0"
       inkscape:connector-curvature="0"
       sodipodi:nodetypes="cc" />
    <path
       style="display:inline;fill:none;fill-rule:evenodd;stroke:#000000;stroke-width:5.625;stroke-linecap:round;stroke-linejoin:round;stroke-miterlimit:4;stroke-dasharray:none;stroke-opacity:1"
       d="m 273.47281,431.13729 c 0.75501,0.07 1.41301,0.237 1.945,0.508 0.17501,0.09 0.33501,0.189 0.48101,0.302 0.94399,0.73 1.28599,1.983 0.76,3.987 -1.027,3.903 -5.44,6.14 -7.537,6.935 -4.34301,1.573 -7.56201,-2.009 -5.08101,-5.858 1.551,-2.405 4.242,-5.074 7.417,-5.73 0.215,-0.04 0.43301,-0.08 0.654,-0.105 0.264,-0.03 0.531,-0.05 0.801,-0.05 0.612,0 1.23701,0.08 1.87101,0.255"
       id="path12351-7-1-4-2-3"
       inkscape:connector-curvature="0"
       sodipodi:nodetypes="cssscssssc" />
    <path
       style="display:inline;fill:none;fill-rule:evenodd;stroke:#060000;stroke-width:5.625;stroke-linecap:round;stroke-linejoin:round;stroke-miterlimit:4;stroke-dasharray:none;stroke-opacity:1"
       d="m 568.18315,383.60285 17.49269,47.37542 127.01015,-60.76114"
       id="path844-5-4-9"
       inkscape:connector-curvature="0"
       sodipodi:nodetypes="ccc" />
    <path
       style="display:inline;fill:none;fill-rule:evenodd;stroke:#000000;stroke-width:5.625;stroke-linecap:round;stroke-linejoin:round;stroke-miterlimit:4;stroke-dasharray:none;stroke-opacity:1"
       d="m 712.68599,370.21713 35.75368,-18.13465 c 9.70058,-4.92023 37.92668,-23.88893 46.45511,-11.47089 4.26684,5.22653 4.09438,11.56578 3.28392,16.36439 -3.74014,10.19603 -12.71871,16.84308 -20.8434,20.43862 -8.25826,3.65473 -15.67158,4.16703 -20.09994,3.42189 -11.53843,-1.9412 -17.5631,-14.54647 -6.4775,-27.39091 0,0 10.26185,-11.80262 22.11985,-20.78794 l 15.18478,-12.10347"
       id="path12351-7-1-21-8-6-6-1-8"
       inkscape:connector-curvature="0"
       sodipodi:nodetypes="csccssccc" />
    <path
       style="display:inline;fill:none;fill-rule:evenodd;stroke:#000000;stroke-width:5.625;stroke-linecap:round;stroke-linejoin:round;stroke-miterlimit:4;stroke-dasharray:none;stroke-opacity:1"
       d="m 788.06249,320.55417 c 1.4813,-1.26992 6.96081,-5.83077 8.39143,-7.0488 17.65329,-15.0298 31.64798,-25.75478 46.8934,-23.43752 24.49444,6.69336 17.38641,72.86128 63.78305,21.90569"
       id="path844-5-5-1-9-1"
       inkscape:connector-curvature="0"
       sodipodi:nodetypes="cscc" />
    <path
       style="display:inline;fill:none;fill-rule:evenodd;stroke:#000000;stroke-width:5.625;stroke-linecap:round;stroke-linejoin:miter;stroke-miterlimit:4;stroke-dasharray:none;stroke-opacity:1"
       d="m 463.78972,392.86193 c -7.97664,1.65776 -14.58309,7.27693 -18.14424,11.85107"
       id="path822-8-4-9"
       inkscape:connector-curvature="0"
       sodipodi:nodetypes="cc" />
    <path
       style="display:inline;fill:none;fill-rule:evenodd;stroke:#000000;stroke-width:5.625;stroke-linecap:round;stroke-linejoin:round;stroke-miterlimit:4;stroke-dasharray:none;stroke-opacity:1"
       d="m 446.51848,379.234 24.29201,18.482"
       id="path844-17-28-32-50-6"
       inkscape:connector-curvature="0"
       sodipodi:nodetypes="cc" />
    <path
       style="display:inline;fill:none;fill-opacity:1;stroke:#000000;stroke-width:5.625;stroke-linecap:round;stroke-linejoin:round;stroke-miterlimit:4;stroke-dasharray:none;stroke-dashoffset:0;stroke-opacity:1;paint-order:stroke fill markers"
       d="m 470.81049,397.716 c 1.631,0.857 3.06699,2.032 4.221,3.523 1.32999,1.718 2.159,3.696 2.519,5.8 0.435,2.537 0.187,5.26 -0.686,7.938 -0.699,2.145 -1.8,4.262 -3.27201,6.232 -1.281,1.713 -2.844,3.314 -4.669,4.727 -1.797,1.39 -3.708,2.489 -5.65599,3.296 -1.302,0.539 -2.62001,0.948 -3.93201,1.228 -1.81,0.385 -3.609,0.523 -5.336,0.415 -2.257,-0.141 -4.391,-0.703 -6.269,-1.685 -1.642,-0.859 -3.087,-2.038 -4.247,-3.536 -2.438,-3.151 -3.192,-7.17 -2.461,-11.249 0.522,-2.917 1.804,-5.865 3.773,-8.548"
       id="path44014-1-3-5-4-29-47-9"
       inkscape:connector-curvature="0"
       sodipodi:nodetypes="csssssssssssc" />
  </g>
</svg>
