<?xml version="1.0" encoding="UTF-8" standalone="no"?>
<!-- Created with Inkscape (http://www.inkscape.org/) -->

<svg
   xmlns:dc="http://purl.org/dc/elements/1.1/"
   xmlns:cc="http://creativecommons.org/ns#"
   xmlns:rdf="http://www.w3.org/1999/02/22-rdf-syntax-ns#"
   xmlns:svg="http://www.w3.org/2000/svg"
   xmlns="http://www.w3.org/2000/svg"
   xmlns:sodipodi="http://sodipodi.sourceforge.net/DTD/sodipodi-0.dtd"
   xmlns:inkscape="http://www.inkscape.org/namespaces/inkscape"
   width="297mm"
   height="210mm"
   viewBox="0 0 1052.3622 744.09448"
   id="svg2"
   version="1.1"
   inkscape:version="0.92.3 (2405546, 2018-03-11)"
   sodipodi:docname="DEK Deutsche Einheitskurzschrift - Verkehrsschrift - Klarstellung.svg">
  <defs
     id="defs4" />
  <sodipodi:namedview
     id="base"
     pagecolor="#ffffff"
     bordercolor="#666666"
     borderopacity="1.0"
     inkscape:pageopacity="0.0"
     inkscape:pageshadow="2"
     inkscape:zoom="1.979899"
     inkscape:cx="624.89154"
     inkscape:cy="283.91136"
     inkscape:document-units="px"
     inkscape:current-layer="layer2"
     showgrid="false"
     inkscape:window-width="1920"
     inkscape:window-height="1017"
     inkscape:window-x="1592"
     inkscape:window-y="-8"
     inkscape:window-maximized="1"
     showguides="true"
     inkscape:guide-bbox="true" />
  <metadata
     id="metadata7">
    <rdf:RDF>
      <cc:Work
         rdf:about="">
        <dc:format>image/svg+xml</dc:format>
        <dc:type
           rdf:resource="http://purl.org/dc/dcmitype/StillImage" />
        <dc:title></dc:title>
      </cc:Work>
    </rdf:RDF>
  </metadata>
  <g
     inkscape:label="Grundlinien"
     inkscape:groupmode="layer"
     id="layer1"
     transform="translate(0,-308.26772)"
     sodipodi:insensitive="true">
    <path
       style="fill:none;fill-rule:evenodd;stroke:#000000;stroke-width:1.875;stroke-linecap:round;stroke-linejoin:miter;stroke-miterlimit:4;stroke-dasharray:none;stroke-opacity:1"
       d="M 57.556226,742.24566 H 1006.4206"
       id="path3336"
       inkscape:connector-curvature="0"
       sodipodi:nodetypes="cc" />
    <path
       style="fill:none;fill-rule:evenodd;stroke:#000000;stroke-width:0.9375;stroke-linecap:round;stroke-linejoin:miter;stroke-miterlimit:2;stroke-dasharray:3.74999998, 7.49999996;stroke-dashoffset:0;stroke-opacity:1"
       d="M 58.279456,844.14792 H 1007.1438"
       id="path3336-4"
       inkscape:connector-curvature="0"
       sodipodi:nodetypes="cc" />
    <path
       style="fill:none;fill-rule:evenodd;stroke:#000000;stroke-width:0.9375;stroke-linecap:round;stroke-linejoin:miter;stroke-miterlimit:2;stroke-dasharray:3.74999998, 7.49999996;stroke-dashoffset:0;stroke-opacity:1"
       d="M 58.279456,641.7697 H 1007.1438"
       id="path3336-7"
       inkscape:connector-curvature="0"
       sodipodi:nodetypes="cc" />
    <path
       style="fill:none;fill-rule:evenodd;stroke:#000000;stroke-width:0.9375;stroke-linecap:round;stroke-linejoin:miter;stroke-miterlimit:2;stroke-dasharray:3.74999998, 7.49999996;stroke-dashoffset:0;stroke-opacity:1"
       d="M 58.279456,540.58062 H 1007.1438"
       id="path3336-2"
       inkscape:connector-curvature="0"
       sodipodi:nodetypes="cc" />
  </g>
  <g
     inkscape:groupmode="layer"
     id="layer2"
     inkscape:label="Stenozeichen"
     style="display:inline">
    <path
       style="display:inline;fill:none;fill-rule:evenodd;stroke:#000000;stroke-width:5.625;stroke-linecap:round;stroke-linejoin:round;stroke-miterlimit:4;stroke-dasharray:none;stroke-opacity:1"
       d="m 679.09752,431.44987 c -49.27994,-1.86942 -69.42854,6.17266 -94.61821,18.19465 -17.06615,8.14496 -26.14161,16.12569 -40.84582,30.2411 -23.72339,26.30201 -31.90487,40.62926 -27.91483,50.71207 2.22862,5.63173 34.66001,12.40602 62.34501,-63.34998 15.814,-47.43001 16.454,-113.34102 70.768,-131.55902"
       id="path12351-7-1-8-02-8-38-7"
       inkscape:connector-curvature="0"
       sodipodi:nodetypes="cscscc" />
    <path
       style="display:inline;fill:none;fill-rule:evenodd;stroke:#000000;stroke-width:5.625;stroke-linecap:round;stroke-linejoin:round;stroke-miterlimit:4;stroke-dasharray:none;stroke-opacity:1"
       d="m 680.08632,420.38966 c 0.62878,0.064 1.17696,0.19701 1.62088,0.42281 0.14456,0.0742 0.27889,0.15799 0.40042,0.25202 0.78549,0.60703 1.07142,1.65158 0.63262,3.32043 -0.85522,3.25135 -4.53065,5.11465 -6.27818,5.77669 -3.61787,1.31001 -6.29865,-1.67333 -4.23193,-4.8799 1.29209,-2.00339 3.53343,-4.22617 6.17775,-4.77244 0.17974,-0.0384 0.3614,-0.0665 0.54434,-0.0876 0.22068,-0.0256 0.44328,-0.0384 0.66844,-0.0384 0.50916,0 1.02984,0.0665 1.55819,0.21237"
       id="path12351-7-1-4-58-7-2-1-7"
       inkscape:connector-curvature="0"
       sodipodi:nodetypes="cssscssssc" />
    <path
       style="display:inline;fill:none;fill-rule:evenodd;stroke:#000000;stroke-width:5.625;stroke-linecap:round;stroke-linejoin:round;stroke-miterlimit:4;stroke-dasharray:none;stroke-opacity:1"
       d="m 660.01043,420.84308 c 0.62878,0.064 1.17696,0.19702 1.62088,0.42281 0.14456,0.0742 0.27888,0.158 0.40042,0.25203 0.78549,0.60702 1.07141,1.65157 0.63261,3.32042 -0.85521,3.25135 -4.53065,5.11466 -6.27817,5.7767 -3.61787,1.31 -6.29865,-1.67333 -4.23194,-4.8799 1.2921,-2.00339 3.53344,-4.22618 6.17776,-4.77244 0.17974,-0.0384 0.3614,-0.0665 0.54434,-0.0876 0.22068,-0.0256 0.44328,-0.0384 0.66843,-0.0384 0.50917,0 1.02984,0.0665 1.55819,0.21236"
       id="path12351-7-1-4-58-7-2-1-7-8-0-6"
       inkscape:connector-curvature="0"
       sodipodi:nodetypes="cssscssssc" />
    <path
       style="display:inline;fill:none;fill-rule:evenodd;stroke:#000000;stroke-width:5.625;stroke-linecap:round;stroke-linejoin:round;stroke-miterlimit:4;stroke-dasharray:none;stroke-opacity:1"
       d="m 323.97599,431.25499 c 27.03902,-39.13946 61.4309,-48.60318 78.5819,-48.32518 21.555,0.349 33.34773,16.27689 33.228,48.00546 0,0 3.9277,0.13144 9.48267,-0.16307 8.95469,-0.47476 11.7178,0.84542 18.54235,-4.42985"
       id="path4752-1-24-4-6-1-6"
       inkscape:connector-curvature="0"
       sodipodi:nodetypes="cscsc" />
    <path
       style="display:inline;fill:none;fill-rule:evenodd;stroke:#000000;stroke-width:5.625;stroke-linecap:round;stroke-linejoin:round;stroke-miterlimit:4;stroke-dasharray:none;stroke-opacity:1"
       d="m 463.55379,417.21517 c 0.7518,0.0746 1.40646,0.23533 1.93594,0.50554 0.17377,0.0882 0.33246,0.18812 0.47817,0.30031 0.93856,0.72512 1.27924,1.9722 0.75591,3.96561 -1.02065,3.88215 -5.41106,6.10815 -7.49752,6.89826 -4.31996,1.5645 -7.52146,-1.9982 -5.05397,-5.82631 1.54259,-2.39291 4.22009,-5.04782 7.3778,-5.70044 0.21412,-0.0479 0.43097,-0.0793 0.64987,-0.10466 0.26268,-0.0274 0.5288,-0.0479 0.79765,-0.0479 0.60813,0 1.23065,0.08 1.86069,0.2538"
       id="path12351-7-1-4-7-9-9"
       inkscape:connector-curvature="0"
       sodipodi:nodetypes="cssscssssc" />
    <path
       style="display:inline;fill:none;fill-rule:evenodd;stroke:#000000;stroke-width:5.625;stroke-linecap:round;stroke-linejoin:round;stroke-miterlimit:4;stroke-dasharray:none;stroke-opacity:1"
       d="m 463.81091,426.34235 48.77744,-43.95299 33.30302,47.88"
       id="path844-5-6-3-5"
       inkscape:connector-curvature="0"
       sodipodi:nodetypes="ccc" />
    <path
       style="display:inline;fill:none;fill-rule:evenodd;stroke:#00000c;stroke-width:5.625;stroke-linecap:round;stroke-linejoin:round;stroke-miterlimit:4;stroke-dasharray:none;stroke-opacity:1"
       d="m 512.58835,382.38936 23.95502,47.989"
       id="path844-5-6-0-5"
       inkscape:connector-curvature="0"
       sodipodi:nodetypes="cc" />
    <path
       style="display:inline;fill:none;fill-rule:evenodd;stroke:#00000c;stroke-width:5.625;stroke-linecap:round;stroke-linejoin:round;stroke-miterlimit:4;stroke-dasharray:none;stroke-opacity:1"
       d="m 522.07135,382.40436 23.82002,47.865"
       id="path844-5-6-0-1-0"
       inkscape:connector-curvature="0"
       sodipodi:nodetypes="cc" />
    <path
       style="display:inline;fill:none;fill-rule:evenodd;stroke:#00000c;stroke-width:5.625;stroke-linecap:round;stroke-linejoin:round;stroke-miterlimit:4;stroke-dasharray:none;stroke-opacity:1"
       d="m 518.14334,382.26936 23.95503,47.989"
       id="path844-5-6-0-0-7"
       inkscape:connector-curvature="0"
       sodipodi:nodetypes="cc" />
    <path
       style="display:inline;fill:none;fill-rule:evenodd;stroke:#00000c;stroke-width:3.75;stroke-linecap:round;stroke-linejoin:miter;stroke-miterlimit:4;stroke-dasharray:none;stroke-opacity:1"
       d="m 514.84034,381.34336 h 7.10301"
       id="path1492-0"
       inkscape:connector-curvature="0"
       sodipodi:nodetypes="cc" />
    <path
       style="display:inline;fill:none;fill-rule:evenodd;stroke:#00000c;stroke-width:3.75;stroke-linecap:round;stroke-linejoin:miter;stroke-miterlimit:4;stroke-dasharray:none;stroke-opacity:1"
       d="m 538.28537,431.27236 h 7.10301"
       id="path1492-4-6"
       inkscape:connector-curvature="0"
       sodipodi:nodetypes="cc" />
    <path
       style="display:inline;fill:none;fill-rule:evenodd;stroke:#000000;stroke-width:5.625;stroke-linecap:round;stroke-linejoin:round;stroke-miterlimit:4;stroke-dasharray:none;stroke-opacity:1"
       d="m 627.20833,347.34634 c -10.89071,6.62913 -81.81995,83.92602 -81.81995,83.92602"
       id="path851-7-8-7-6"
       inkscape:connector-curvature="0"
       sodipodi:nodetypes="cc" />
    <path
       style="display:inline;fill:none;fill-rule:evenodd;stroke:#000000;stroke-width:5.625;stroke-linecap:round;stroke-linejoin:round;stroke-miterlimit:4;stroke-dasharray:none;stroke-opacity:1"
       d="m 693.19953,533.78987 c 27.013,-19.94 33.611,-27.64 37.002,-49.01 2.91625,-28.20354 -31.36622,-36.83714 -51.10401,-53.33"
       id="path12351-7-1-98-6-6-1-7-5"
       inkscape:connector-curvature="0"
       sodipodi:nodetypes="ccc" />
  </g>
</svg>
