<?xml version="1.0" encoding="UTF-8" standalone="no"?>
<!-- Created with Inkscape (http://www.inkscape.org/) -->

<svg
   xmlns:dc="http://purl.org/dc/elements/1.1/"
   xmlns:cc="http://creativecommons.org/ns#"
   xmlns:rdf="http://www.w3.org/1999/02/22-rdf-syntax-ns#"
   xmlns:svg="http://www.w3.org/2000/svg"
   xmlns="http://www.w3.org/2000/svg"
   xmlns:sodipodi="http://sodipodi.sourceforge.net/DTD/sodipodi-0.dtd"
   xmlns:inkscape="http://www.inkscape.org/namespaces/inkscape"
   width="297mm"
   height="210mm"
   viewBox="0 0 1052.3622 744.09448"
   id="svg2"
   version="1.1"
   inkscape:version="0.92.3 (2405546, 2018-03-11)"
   sodipodi:docname="DEK Deutsche Einheitskurzschrift - Verkehrsschrift - Schlafzimmer.svg">
  <defs
     id="defs4" />
  <sodipodi:namedview
     id="base"
     pagecolor="#ffffff"
     bordercolor="#666666"
     borderopacity="1.0"
     inkscape:pageopacity="0.0"
     inkscape:pageshadow="2"
     inkscape:zoom="0.7"
     inkscape:cx="561.93147"
     inkscape:cy="456.76437"
     inkscape:document-units="px"
     inkscape:current-layer="layer2"
     showgrid="false"
     inkscape:window-width="1920"
     inkscape:window-height="1017"
     inkscape:window-x="1592"
     inkscape:window-y="-8"
     inkscape:window-maximized="1"
     showguides="true"
     inkscape:guide-bbox="true" />
  <metadata
     id="metadata7">
    <rdf:RDF>
      <cc:Work
         rdf:about="">
        <dc:format>image/svg+xml</dc:format>
        <dc:type
           rdf:resource="http://purl.org/dc/dcmitype/StillImage" />
        <dc:title></dc:title>
      </cc:Work>
    </rdf:RDF>
  </metadata>
  <g
     inkscape:label="Grundlinien"
     inkscape:groupmode="layer"
     id="layer1"
     transform="translate(0,-308.26772)"
     style="display:inline"
     sodipodi:insensitive="true">
    <path
       style="fill:none;fill-rule:evenodd;stroke:#969696;stroke-width:1.875;stroke-linecap:round;stroke-linejoin:miter;stroke-miterlimit:4;stroke-dasharray:none;stroke-opacity:1"
       d="M 57.556226,742.24566 H 1006.4206"
       id="path3336"
       inkscape:connector-curvature="0"
       sodipodi:nodetypes="cc" />
    <path
       style="fill:none;fill-rule:evenodd;stroke:#000000;stroke-width:0.9375;stroke-linecap:round;stroke-linejoin:miter;stroke-miterlimit:2;stroke-dasharray:3.74999998, 7.49999996;stroke-dashoffset:0;stroke-opacity:1"
       d="M 58.279456,844.14792 H 1007.1438"
       id="path3336-4"
       inkscape:connector-curvature="0"
       sodipodi:nodetypes="cc" />
    <path
       style="fill:none;fill-rule:evenodd;stroke:#000000;stroke-width:0.9375;stroke-linecap:round;stroke-linejoin:miter;stroke-miterlimit:2;stroke-dasharray:3.74999998, 7.49999996;stroke-dashoffset:0;stroke-opacity:1"
       d="M 58.279456,641.7697 H 1007.1438"
       id="path3336-7"
       inkscape:connector-curvature="0"
       sodipodi:nodetypes="cc" />
    <path
       style="fill:none;fill-rule:evenodd;stroke:#000000;stroke-width:0.9375;stroke-linecap:round;stroke-linejoin:miter;stroke-miterlimit:2;stroke-dasharray:3.74999998, 7.49999996;stroke-dashoffset:0;stroke-opacity:1"
       d="M 58.279456,540.58062 H 1007.1438"
       id="path3336-2"
       inkscape:connector-curvature="0"
       sodipodi:nodetypes="cc" />
  </g>
  <g
     inkscape:groupmode="layer"
     id="layer2"
     inkscape:label="Stenozeichen"
     style="display:inline">
    <path
       style="display:inline;fill:none;fill-rule:evenodd;stroke:#000000;stroke-width:5.625;stroke-linecap:round;stroke-linejoin:round;stroke-miterlimit:4;stroke-dasharray:none;stroke-opacity:1"
       d="m 663.58568,371.84477 48.81517,-37.19729 24.02803,47.95"
       id="path844-5-67-4-15"
       inkscape:connector-curvature="0"
       sodipodi:nodetypes="ccc" />
    <path
       style="display:inline;fill:none;fill-rule:evenodd;stroke:#000000;stroke-width:5.625;stroke-linecap:round;stroke-linejoin:round;stroke-miterlimit:4;stroke-dasharray:none;stroke-opacity:1"
       d="m 563.65558,375.18395 60.54263,-75.25137 c 19.11586,-23.76003 60.947,-14.638 37.482,14.373 -27.375,33.846 -45.456,50.228 -39.44,63.89101 3.363,7.63899 16.691,4.58699 25.301,2.133 6.12587,-1.77131 11.5527,-4.9997 16.04447,-8.48482"
       id="path844-8-6-7-8-2"
       inkscape:connector-curvature="0"
       sodipodi:nodetypes="cssscc" />
    <path
       style="display:inline;fill:none;fill-rule:evenodd;stroke:#000000;stroke-width:5.625;stroke-linecap:round;stroke-linejoin:round;stroke-miterlimit:4;stroke-dasharray:none;stroke-opacity:1"
       d="m 563.45652,375.44126 c -27.25997,26.58711 -60.65018,60.69242 -87.62407,87.53969 -25.933,26.17 -49.126,51.40101 -45.678,63.411 1.84,6.412 22.472,22.764 61.996,-40.874 l 83.313,-151.663"
       id="path12351-7-1-8-1-4-7-9-2"
       inkscape:connector-curvature="0"
       sodipodi:nodetypes="ccscc" />
    <path
       style="display:inline;fill:none;fill-rule:evenodd;stroke:#000000;stroke-width:5.625;stroke-linecap:round;stroke-linejoin:miter;stroke-miterlimit:4;stroke-dasharray:none;stroke-opacity:1"
       d="m 551.49745,237.05313 c -48.025,60.01521 -85.645,120.55052 -108.43399,181.82751"
       id="path1428-4"
       inkscape:connector-curvature="0"
       sodipodi:nodetypes="cc" />
    <path
       style="display:inline;fill:none;fill-rule:evenodd;stroke:#000000;stroke-width:7.5;stroke-linecap:round;stroke-linejoin:miter;stroke-miterlimit:4;stroke-dasharray:none;stroke-opacity:1"
       d="m 538.47546,249.12763 c -38.26001,44.85131 -70.923,94.86941 -92.80701,154.83752"
       id="path1428-7-0"
       inkscape:connector-curvature="0"
       sodipodi:nodetypes="cc" />
    <path
       style="display:inline;fill:none;fill-rule:evenodd;stroke:#000000;stroke-width:3.75;stroke-linecap:round;stroke-linejoin:miter;stroke-miterlimit:4;stroke-dasharray:none;stroke-opacity:1"
       d="m 568.30146,237.87873 c -14.019,-7.3576 -23.91401,9.45451 -26.39301,12.4327"
       id="path1428-1-5"
       inkscape:connector-curvature="0"
       sodipodi:nodetypes="cc" />
    <path
       style="display:inline;fill:none;fill-rule:evenodd;stroke:#000000;stroke-width:5.625;stroke-linecap:round;stroke-linejoin:miter;stroke-miterlimit:4;stroke-dasharray:none;stroke-opacity:1"
       d="m 448.68645,404.67534 c -5.88529,21.16765 -2.06611,22.93556 11.83274,22.74653 0.40551,-0.006 7.09359,-0.60459 7.51626,-0.61301"
       id="path1428-0-6"
       inkscape:connector-curvature="0"
       sodipodi:nodetypes="csc" />
    <path
       style="display:inline;fill:none;fill-rule:evenodd;stroke:#000000;stroke-width:5.625;stroke-linecap:round;stroke-linejoin:round;stroke-miterlimit:4;stroke-dasharray:none;stroke-opacity:1"
       d="m 390.09389,434.75757 c -53.247,7.3139 -100.191,80.2813 -96.376,92.59081 0.934,3.01129 16.314,22.9011 59.804,-38.0952 26.94401,-36.88841 54.63901,-73.40092 69.336,-116.41271 15.50502,-30.05161 -1.40298,-56.68771 -44.44699,-11.55591"
       id="path12351-7-1-8-8"
       inkscape:connector-curvature="0"
       sodipodi:nodetypes="csccc" />
    <path
       style="display:inline;fill:none;fill-rule:evenodd;stroke:#000000;stroke-width:5.625;stroke-linecap:round;stroke-linejoin:round;stroke-miterlimit:4;stroke-dasharray:none;stroke-opacity:1"
       d="m 390.09389,434.75757 c 0.11702,-1.65928 6.79437,-6.03503 6.74791,-9.4766 -0.0675,-4.99046 -0.16787,-8.82877 -1.39891,-9.79978 -1.29161,-1.22225 -3.0543,-1.42094 -4.00101,-0.73814 -2.40767,1.76443 -2.12893,2.96035 -1.91987,4.92961 0.37283,3.53138 2.10263,2.17428 5.35369,1.53461 4.11895,-2.06929 4.07696,-4.19704 7.11248,-4.8144 4.42197,-0.8993 22.80413,-11.28645 22.80413,-11.28645"
       id="path12351-7-1-4-17-5-9-0-1"
       inkscape:connector-curvature="0"
       sodipodi:nodetypes="csccccsc" />
    <path
       style="display:inline;fill:none;fill-rule:evenodd;stroke:#000000;stroke-width:3.58606911;stroke-linecap:round;stroke-linejoin:round;stroke-miterlimit:4;stroke-dasharray:none;stroke-opacity:1"
       d="m 393.7353,416.43544 c -0.12307,-0.2104 -0.2633,-0.37761 -0.41485,-0.49502 -0.0496,-0.0386 -0.10084,-0.0716 -0.15384,-0.0983 -0.34128,-0.1737 -0.75241,-0.10102 -1.26156,0.32736 -0.99219,0.83428 -1.03547,2.42282 -0.97791,3.14109 0.14011,1.4769 1.62213,1.91933 2.39864,0.67011 0.4854,-0.78093 0.89022,-1.92882 0.64471,-2.94056 -0.017,-0.0692 -0.0364,-0.13701 -0.0598,-0.20418 -0.0284,-0.0806 -0.0596,-0.16056 -0.0963,-0.23947 -0.0858,-0.17662 -0.19301,-0.34802 -0.33118,-0.50786"
       id="path12351-7-1-4-7-8-8-5"
       inkscape:connector-curvature="0"
       sodipodi:nodetypes="cssscssssc"
       inkscape:transform-center-x="-6.1661416"
       inkscape:transform-center-y="-11.456593" />
    <path
       style="display:inline;fill:none;fill-rule:evenodd;stroke:#000000;stroke-width:5.625;stroke-linecap:round;stroke-linejoin:round;stroke-miterlimit:4;stroke-dasharray:none;stroke-opacity:1"
       d="m 424.79231,405.10642 c 9.60198,-6.35646 16.11218,-13.90225 16.70314,-14.53817 46.58967,-50.1331 155.17101,-144.12082 124.14001,-154.80642 -14.563,-5.015 -40.249,8.886 -87.43401,86.78131 -60.298,104.1576 -33.51483,122.20597 -1.82499,98.3757 l 16.44949,-12.36976"
       id="path12351-7-1-42"
       inkscape:connector-curvature="0"
       sodipodi:nodetypes="csscsc" />
    <path
       style="display:inline;fill:none;fill-rule:evenodd;stroke:#000000;stroke-width:5.625;stroke-linecap:round;stroke-linejoin:miter;stroke-miterlimit:4;stroke-dasharray:none;stroke-opacity:1"
       d="m 575.46345,333.85495 c 0,0 -68.90575,63.32991 -82.6375,74.69413"
       id="path822-8-8"
       inkscape:connector-curvature="0"
       sodipodi:nodetypes="cc" />
  </g>
</svg>
