<?xml version="1.0" encoding="UTF-8" standalone="no"?>
<!-- Created with Inkscape (http://www.inkscape.org/) -->

<svg
   xmlns:dc="http://purl.org/dc/elements/1.1/"
   xmlns:cc="http://creativecommons.org/ns#"
   xmlns:rdf="http://www.w3.org/1999/02/22-rdf-syntax-ns#"
   xmlns:svg="http://www.w3.org/2000/svg"
   xmlns="http://www.w3.org/2000/svg"
   xmlns:sodipodi="http://sodipodi.sourceforge.net/DTD/sodipodi-0.dtd"
   xmlns:inkscape="http://www.inkscape.org/namespaces/inkscape"
   width="297mm"
   height="210mm"
   viewBox="0 0 1052.3622 744.09448"
   id="svg2"
   version="1.1"
   inkscape:version="0.92.3 (2405546, 2018-03-11)"
   sodipodi:docname="DEK Deutsche Einheitskurzschrift - Verkehrsschrift - Schmutzzulage.svg">
  <defs
     id="defs4" />
  <sodipodi:namedview
     id="base"
     pagecolor="#ffffff"
     bordercolor="#666666"
     borderopacity="1.0"
     inkscape:pageopacity="0.0"
     inkscape:pageshadow="2"
     inkscape:zoom="0.69999999"
     inkscape:cx="946.22848"
     inkscape:cy="644.52887"
     inkscape:document-units="px"
     inkscape:current-layer="layer2"
     showgrid="false"
     inkscape:window-width="1920"
     inkscape:window-height="1017"
     inkscape:window-x="1592"
     inkscape:window-y="-8"
     inkscape:window-maximized="1" />
  <metadata
     id="metadata7">
    <rdf:RDF>
      <cc:Work
         rdf:about="">
        <dc:format>image/svg+xml</dc:format>
        <dc:type
           rdf:resource="http://purl.org/dc/dcmitype/StillImage" />
        <dc:title></dc:title>
      </cc:Work>
    </rdf:RDF>
  </metadata>
  <g
     inkscape:label="Grundlinien"
     inkscape:groupmode="layer"
     id="layer1"
     transform="translate(0,-308.26772)"
     style="display:inline"
     sodipodi:insensitive="true">
    <path
       style="fill:none;fill-rule:evenodd;stroke:#969696;stroke-width:1.875;stroke-linecap:round;stroke-linejoin:miter;stroke-miterlimit:4;stroke-dasharray:none;stroke-opacity:1"
       d="M 57.556226,742.24566 H 1006.4206"
       id="path3336"
       inkscape:connector-curvature="0"
       sodipodi:nodetypes="cc" />
    <path
       style="fill:none;fill-rule:evenodd;stroke:#000000;stroke-width:0.9375;stroke-linecap:round;stroke-linejoin:miter;stroke-miterlimit:2;stroke-dasharray:3.74999998, 7.49999996;stroke-dashoffset:0;stroke-opacity:1"
       d="M 58.279456,844.14792 H 1007.1438"
       id="path3336-4"
       inkscape:connector-curvature="0"
       sodipodi:nodetypes="cc" />
    <path
       style="fill:none;fill-rule:evenodd;stroke:#000000;stroke-width:0.9375;stroke-linecap:round;stroke-linejoin:miter;stroke-miterlimit:2;stroke-dasharray:3.74999998, 7.49999996;stroke-dashoffset:0;stroke-opacity:1"
       d="M 58.279456,641.7697 H 1007.1438"
       id="path3336-7"
       inkscape:connector-curvature="0"
       sodipodi:nodetypes="cc" />
    <path
       style="fill:none;fill-rule:evenodd;stroke:#000000;stroke-width:0.9375;stroke-linecap:round;stroke-linejoin:miter;stroke-miterlimit:2;stroke-dasharray:3.74999998, 7.49999996;stroke-dashoffset:0;stroke-opacity:1"
       d="M 58.279456,540.58062 H 1007.1438"
       id="path3336-2"
       inkscape:connector-curvature="0"
       sodipodi:nodetypes="cc" />
  </g>
  <g
     inkscape:groupmode="layer"
     id="layer2"
     inkscape:label="Stenozeichen">
    <path
       style="display:inline;fill:none;fill-rule:evenodd;stroke:#000000;stroke-width:5.625;stroke-linecap:round;stroke-linejoin:round;stroke-miterlimit:4;stroke-dasharray:none;stroke-opacity:1"
       d="m 536.27051,394.95988 c -91.86075,33.61914 -101.85851,32.34013 -152.37522,93.70715 -10.54028,13.29718 -26.44899,40.91831 -15.47188,45.8758 8.75688,2.07257 24.99599,-2.98505 49.29554,-44.75368 13.09684,-23.21132 15.844,-66.99911 28.81,-84.00791 10.295,-13.1642 19.82917,-22.58864 30.781,-29.8321 28.16289,-18.62674 26.80412,-41.31976 9.56433,-40.36527 -12.35131,0.68383 -21.47806,3.61784 -34.53254,19.48275"
       id="path12351-7-1-8-0"
       inkscape:connector-curvature="0"
       sodipodi:nodetypes="cccccssc" />
    <path
       style="display:inline;fill:none;fill-rule:evenodd;stroke:#000000;stroke-width:5.625;stroke-linecap:round;stroke-linejoin:round;stroke-miterlimit:4;stroke-dasharray:none;stroke-opacity:1"
       d="m 484.98425,481.772 c 0,0 -45.72381,33.55373 -57.10774,45.43989 -25.93401,26.16901 -39.856,52.56801 -36.915,60.28401 1.12299,2.946 17.73699,21.818 57.261,-41.82 l 88.048,-150.71602"
       id="path844-99-4-6-25-0-7-5-1-6"
       inkscape:connector-curvature="0"
       sodipodi:nodetypes="ccscc" />
    <path
       style="display:inline;fill:none;fill-opacity:1;fill-rule:evenodd;stroke:#000000;stroke-width:5.625;stroke-linecap:round;stroke-linejoin:round;stroke-miterlimit:4;stroke-dasharray:none;stroke-opacity:1"
       d="m 622.42583,422.00953 c 0.5945,0.0787 1.11341,0.18896 1.53232,0.40158 0.137,0.0787 0.26376,0.1496 0.37873,0.23623 0.74255,0.57482 1.01263,1.55908 0.59767,3.14178 -0.80791,3.07094 -4.28278,4.83476 -5.93478,5.45682 -3.41974,1.23625 -5.95444,-1.5827 -4.00007,-4.61428 1.22128,-1.8898 3.34022,-3.9922 5.83949,-4.5119 0.17007,0 0.34173,-0.0788 0.51497,-0.0788 0.20866,0 0.4189,-0.0787 0.63151,-0.0787 0.4819,0 0.97404,0.0787 1.47325,0.19687"
       id="path12351-7-1-4-7-1-2-9-3-0-0-8"
       inkscape:connector-curvature="0"
       sodipodi:nodetypes="cssscssssc" />
    <path
       style="display:inline;fill:none;fill-rule:evenodd;stroke:#000000;stroke-width:5.625;stroke-linecap:round;stroke-linejoin:round;stroke-miterlimit:4;stroke-dasharray:none;stroke-opacity:1"
       d="m 618.65704,431.55611 c 24.67799,4.10365 68.99217,-101.01492 112.15678,-95.48421 1.68743,0.29772 3.24329,0.72849 4.6318,1.32207 9.06554,3.87551 10.99761,14.69138 -4.15786,40.73055 l -31.244,53.6815"
       id="path12351-7-1-1-1-2-0-9-5-7"
       inkscape:connector-curvature="0"
       sodipodi:nodetypes="ccssc" />
    <path
       style="display:inline;fill:none;fill-rule:evenodd;stroke:#000000;stroke-width:5.625;stroke-linecap:round;stroke-linejoin:round;stroke-miterlimit:4;stroke-dasharray:none;stroke-opacity:1"
       d="m 700.04376,431.80602 62.27258,-43.74154"
       id="path844-5-9-31-0-9-2-3-1-6"
       inkscape:connector-curvature="0"
       sodipodi:nodetypes="cc" />
    <path
       style="display:inline;fill:none;fill-rule:evenodd;stroke:#000000;stroke-width:5.625;stroke-linecap:round;stroke-linejoin:round;stroke-miterlimit:4;stroke-dasharray:none;stroke-opacity:1"
       d="m 741.40876,343.97452 -49.24,87.5915"
       id="path844-5-6-0-1-7-02-8-8-4-4-3"
       inkscape:connector-curvature="0"
       sodipodi:nodetypes="cc" />
    <path
       style="display:inline;fill:none;fill-rule:evenodd;stroke:#000000;stroke-width:5.625;stroke-linecap:round;stroke-linejoin:round;stroke-miterlimit:4;stroke-dasharray:none;stroke-opacity:1"
       d="m 741.64876,350.20452 -45.623,81.2715"
       id="path844-5-6-0-1-0-2-4-1-2-5-2-0"
       inkscape:connector-curvature="0"
       sodipodi:nodetypes="cc" />
    <path
       style="display:inline;fill:none;fill-rule:evenodd;stroke:#000000;stroke-width:5.625;stroke-linecap:round;stroke-linejoin:round;stroke-miterlimit:4;stroke-dasharray:none;stroke-opacity:1"
       d="m 692.16876,431.56602 7.875,0.24"
       id="path844-5-6-0-1-0-1-1-32-6-1-5-4-9"
       inkscape:connector-curvature="0"
       sodipodi:nodetypes="cc" />
    <path
       style="display:inline;fill:none;fill-rule:evenodd;stroke:#000000;stroke-width:3.74999976;stroke-linecap:round;stroke-linejoin:miter;stroke-miterlimit:4;stroke-dasharray:none;stroke-opacity:1"
       d="m 737.44276,337.80452 c 1.845,1.66 2.332,5.72 0.74301,9.9"
       id="path2018-3-3-0-5-5-2-8"
       inkscape:connector-curvature="0"
       sodipodi:nodetypes="cc" />
    <path
       style="display:inline;fill:none;fill-rule:evenodd;stroke:#000000;stroke-width:5.625;stroke-linecap:round;stroke-linejoin:round;stroke-miterlimit:4;stroke-dasharray:none;stroke-opacity:1"
       d="m 532.12117,489.88776 c -1.792,1.95 -4.185,5.48 -5.87,8.55 -1.674,3.05 -2.43,6.68 -2.567,10.11 -0.161,4.02 0.691,7.52 1.885,10.34 1.004,2.38 3.075,4.93 4.09,6.2 1.817,2.26 3.481,3.87 8.117,6.1 2.443,1.17 5.639,2.03 10.305,2 4.058,0 9.231,-1.29 13.834,-4.89 11.67728,-7.10701 52.61074,-77.89306 62.86458,-100.40684"
       id="path12351-7-1-8-1-7-0-5-6-5-6-1-5-1"
       inkscape:connector-curvature="0"
       sodipodi:nodetypes="csssssscc" />
  </g>
</svg>
