<?xml version="1.0" encoding="UTF-8" standalone="no"?>
<!-- Created with Inkscape (http://www.inkscape.org/) -->

<svg
   xmlns:dc="http://purl.org/dc/elements/1.1/"
   xmlns:cc="http://creativecommons.org/ns#"
   xmlns:rdf="http://www.w3.org/1999/02/22-rdf-syntax-ns#"
   xmlns:svg="http://www.w3.org/2000/svg"
   xmlns="http://www.w3.org/2000/svg"
   xmlns:sodipodi="http://sodipodi.sourceforge.net/DTD/sodipodi-0.dtd"
   xmlns:inkscape="http://www.inkscape.org/namespaces/inkscape"
   width="297mm"
   height="210mm"
   viewBox="0 0 1052.3622 744.09448"
   id="svg2"
   version="1.1"
   inkscape:version="0.92.3 (2405546, 2018-03-11)"
   sodipodi:docname="DEK Deutsche Einheitskurzschrift - Verkehrsschrift - Schnellzug.svg">
  <defs
     id="defs4" />
  <sodipodi:namedview
     id="base"
     pagecolor="#ffffff"
     bordercolor="#666666"
     borderopacity="1.0"
     inkscape:pageopacity="0.0"
     inkscape:pageshadow="2"
     inkscape:zoom="1.0051588"
     inkscape:cx="615.49711"
     inkscape:cy="345.31031"
     inkscape:document-units="px"
     inkscape:current-layer="layer2"
     showgrid="false"
     inkscape:window-width="1920"
     inkscape:window-height="1017"
     inkscape:window-x="1592"
     inkscape:window-y="-8"
     inkscape:window-maximized="1"
     showguides="true"
     inkscape:guide-bbox="true" />
  <metadata
     id="metadata7">
    <rdf:RDF>
      <cc:Work
         rdf:about="">
        <dc:format>image/svg+xml</dc:format>
        <dc:type
           rdf:resource="http://purl.org/dc/dcmitype/StillImage" />
        <dc:title></dc:title>
      </cc:Work>
    </rdf:RDF>
  </metadata>
  <g
     inkscape:label="Grundlinien"
     inkscape:groupmode="layer"
     id="layer1"
     transform="translate(0,-308.26772)"
     sodipodi:insensitive="true">
    <path
       style="fill:none;fill-rule:evenodd;stroke:#969696;stroke-width:1.875;stroke-linecap:round;stroke-linejoin:miter;stroke-miterlimit:4;stroke-dasharray:none;stroke-opacity:1"
       d="M 57.556226,742.24566 H 1006.4206"
       id="path3336"
       inkscape:connector-curvature="0"
       sodipodi:nodetypes="cc" />
    <path
       style="fill:none;fill-rule:evenodd;stroke:#000000;stroke-width:0.9375;stroke-linecap:round;stroke-linejoin:miter;stroke-miterlimit:2;stroke-dasharray:3.74999998, 7.49999996;stroke-dashoffset:0;stroke-opacity:1"
       d="M 58.279456,844.14792 H 1007.1438"
       id="path3336-4"
       inkscape:connector-curvature="0"
       sodipodi:nodetypes="cc" />
    <path
       style="fill:none;fill-rule:evenodd;stroke:#000000;stroke-width:0.9375;stroke-linecap:round;stroke-linejoin:miter;stroke-miterlimit:2;stroke-dasharray:3.74999998, 7.49999996;stroke-dashoffset:0;stroke-opacity:1"
       d="M 58.279456,641.7697 H 1007.1438"
       id="path3336-7"
       inkscape:connector-curvature="0"
       sodipodi:nodetypes="cc" />
    <path
       style="fill:none;fill-rule:evenodd;stroke:#000000;stroke-width:0.9375;stroke-linecap:round;stroke-linejoin:miter;stroke-miterlimit:2;stroke-dasharray:3.74999998, 7.49999996;stroke-dashoffset:0;stroke-opacity:1"
       d="M 58.279456,540.58062 H 1007.1438"
       id="path3336-2"
       inkscape:connector-curvature="0"
       sodipodi:nodetypes="cc" />
  </g>
  <g
     inkscape:groupmode="layer"
     id="layer2"
     inkscape:label="Stenozeichen"
     style="display:inline">
    <path
       style="display:inline;fill:none;fill-rule:evenodd;stroke:#000000;stroke-width:5.625;stroke-linecap:round;stroke-linejoin:round;stroke-miterlimit:4;stroke-dasharray:none;stroke-opacity:1"
       d="m 610.72668,484.302 31.244,-52.28 c 22.73383,-38.0401 7.371,-48.78 -12.254,-40.5 -22.009,9.6 -84.17306,55.76562 -124.14371,91.40896 -25.933,26.171 -31.92815,38.57867 -28.98715,46.29467 1.123,2.946 17.737,21.818 57.261,-41.821 l 88.04801,-150.71501"
       id="path12351-3-76-1-6-5-2"
       inkscape:connector-curvature="0"
       sodipodi:nodetypes="csccscc" />
    <path
       style="display:inline;fill:none;fill-rule:evenodd;stroke:#000000;stroke-width:5.625;stroke-linecap:round;stroke-linejoin:round;stroke-miterlimit:4;stroke-dasharray:none;stroke-opacity:1"
       d="m 466.51868,432.00227 c -4.93781,0.24095 -9.39421,-1.21607 -12.86372,-9.08041 -6.63353,-15.03621 -9.566,-18.201 -21.41598,-18.825 -4.50702,-0.238 -12.37902,1.176 -19.02402,7.914 -20.483,20.767 -41.778,50.732 -56.368,75.02802 -5.654,11.118 -30.361,44.77399 -8.146,45.948 8.828,0.258 24.366,-7.44202 49.983,-43.371 26.943,-36.88802 53.218,-75.29502 67.915,-118.30702 15.506,-30.051 0.02,-54.793 -43.026,-9.661"
       id="path12351-7-1-8-3-7"
       inkscape:connector-curvature="0"
       sodipodi:nodetypes="csssccccc" />
    <path
       style="display:inline;fill:none;fill-rule:evenodd;stroke:#000000;stroke-width:5.625;stroke-linecap:round;stroke-linejoin:round;stroke-miterlimit:4;stroke-dasharray:none;stroke-opacity:1"
       d="m 511.46872,421.00963 c 0.66017,0.0672 1.23573,0.20685 1.70182,0.44392 0.15179,0.0779 0.29281,0.16589 0.42043,0.26461 0.82471,0.63734 1.12491,1.73406 0.6642,3.48625 -0.89793,3.41371 -4.75691,5.37007 -6.59171,6.06517 -3.79854,1.37543 -6.61319,-1.75688 -4.44327,-5.1236 1.35662,-2.10343 3.7099,-4.43722 6.48626,-5.01076 0.18872,-0.0403 0.37945,-0.0699 0.57153,-0.092 0.23171,-0.0269 0.46541,-0.0403 0.70182,-0.0403 0.53459,0 1.08126,0.0699 1.636,0.22297"
       id="path12351-7-1-4-58-7-2-1-7-79-8"
       inkscape:connector-curvature="0"
       sodipodi:nodetypes="cssscssssc" />
    <path
       style="display:inline;fill:none;fill-rule:evenodd;stroke:#000000;stroke-width:5.625;stroke-linecap:round;stroke-linejoin:round;stroke-miterlimit:4;stroke-dasharray:none;stroke-opacity:1"
       d="m 466.51868,432.00227 38.03682,-0.15582"
       id="path844-99-4-6-9-5-4-5"
       inkscape:connector-curvature="0"
       sodipodi:nodetypes="cc" />
    <path
       style="display:inline;fill:none;fill-rule:evenodd;stroke:#000000;stroke-width:5.625;stroke-linecap:round;stroke-linejoin:round;stroke-miterlimit:4;stroke-dasharray:none;stroke-opacity:1"
       d="m 488.11134,421.25404 c 0.66017,0.0672 1.23574,0.20685 1.70182,0.44392 0.15178,0.0779 0.29281,0.16589 0.42043,0.26461 0.8247,0.63734 1.12491,1.73406 0.6642,3.48625 -0.89793,3.41371 -4.75691,5.37008 -6.59171,6.06518 -3.79854,1.37541 -6.61319,-1.7569 -4.44327,-5.12361 1.35662,-2.10343 3.70989,-4.43722 6.48626,-5.01076 0.18872,-0.0403 0.37946,-0.0699 0.57153,-0.092 0.2317,-0.0269 0.46541,-0.0403 0.70182,-0.0403 0.53459,0 1.08126,0.0699 1.63601,0.22297"
       id="path12351-7-1-4-58-7-2-1-7-79-8-0"
       inkscape:connector-curvature="0"
       sodipodi:nodetypes="cssscssssc" />
    <path
       style="display:inline;fill:none;fill-rule:evenodd;stroke:#000000;stroke-width:5.625;stroke-linecap:round;stroke-linejoin:round;stroke-miterlimit:4;stroke-dasharray:none;stroke-opacity:1"
       d="m 508.27057,431.53853 c 7.91412,3.79218 113.62426,-94.84891 113.62426,-94.84891"
       id="path12351-3-76-1-6-5-2-9"
       inkscape:connector-curvature="0"
       sodipodi:nodetypes="cc" />
  </g>
</svg>
