<?xml version="1.0" encoding="UTF-8" standalone="no"?>
<!-- Created with Inkscape (http://www.inkscape.org/) -->

<svg
   xmlns:dc="http://purl.org/dc/elements/1.1/"
   xmlns:cc="http://creativecommons.org/ns#"
   xmlns:rdf="http://www.w3.org/1999/02/22-rdf-syntax-ns#"
   xmlns:svg="http://www.w3.org/2000/svg"
   xmlns="http://www.w3.org/2000/svg"
   xmlns:sodipodi="http://sodipodi.sourceforge.net/DTD/sodipodi-0.dtd"
   xmlns:inkscape="http://www.inkscape.org/namespaces/inkscape"
   width="297mm"
   height="210mm"
   viewBox="0 0 1052.3622 744.09448"
   id="svg2"
   version="1.1"
   inkscape:version="0.92.3 (2405546, 2018-03-11)"
   sodipodi:docname="DEK Deutsche Einheitskurzschrift - Verkehrsschrift - Fremdsprachenunterricht.svg">
  <defs
     id="defs4" />
  <sodipodi:namedview
     id="base"
     pagecolor="#ffffff"
     bordercolor="#666666"
     borderopacity="1.0"
     inkscape:pageopacity="0.0"
     inkscape:pageshadow="2"
     inkscape:zoom="0.98994949"
     inkscape:cx="539.19808"
     inkscape:cy="530.88311"
     inkscape:document-units="px"
     inkscape:current-layer="layer2"
     showgrid="false"
     inkscape:window-width="1920"
     inkscape:window-height="1017"
     inkscape:window-x="1592"
     inkscape:window-y="-8"
     inkscape:window-maximized="1"
     showguides="true"
     inkscape:guide-bbox="true" />
  <metadata
     id="metadata7">
    <rdf:RDF>
      <cc:Work
         rdf:about="">
        <dc:format>image/svg+xml</dc:format>
        <dc:type
           rdf:resource="http://purl.org/dc/dcmitype/StillImage" />
        <dc:title></dc:title>
      </cc:Work>
    </rdf:RDF>
  </metadata>
  <g
     inkscape:label="Grundlinien"
     inkscape:groupmode="layer"
     id="layer1"
     transform="translate(0,-308.26772)"
     sodipodi:insensitive="true">
    <path
       style="fill:none;fill-rule:evenodd;stroke:#000000;stroke-width:1.875;stroke-linecap:round;stroke-linejoin:miter;stroke-miterlimit:4;stroke-dasharray:none;stroke-opacity:1"
       d="M 57.556226,742.24566 H 1006.4206"
       id="path3336"
       inkscape:connector-curvature="0"
       sodipodi:nodetypes="cc" />
    <path
       style="fill:none;fill-rule:evenodd;stroke:#000000;stroke-width:0.9375;stroke-linecap:round;stroke-linejoin:miter;stroke-miterlimit:2;stroke-dasharray:3.74999998, 7.49999996;stroke-dashoffset:0;stroke-opacity:1"
       d="M 58.279456,844.14792 H 1007.1438"
       id="path3336-4"
       inkscape:connector-curvature="0"
       sodipodi:nodetypes="cc" />
    <path
       style="fill:none;fill-rule:evenodd;stroke:#000000;stroke-width:0.9375;stroke-linecap:round;stroke-linejoin:miter;stroke-miterlimit:2;stroke-dasharray:3.74999998, 7.49999996;stroke-dashoffset:0;stroke-opacity:1"
       d="M 58.279456,641.7697 H 1007.1438"
       id="path3336-7"
       inkscape:connector-curvature="0"
       sodipodi:nodetypes="cc" />
    <path
       style="fill:none;fill-rule:evenodd;stroke:#000000;stroke-width:0.9375;stroke-linecap:round;stroke-linejoin:miter;stroke-miterlimit:2;stroke-dasharray:3.74999998, 7.49999996;stroke-dashoffset:0;stroke-opacity:1"
       d="M 58.279456,540.58062 H 1007.1438"
       id="path3336-2"
       inkscape:connector-curvature="0"
       sodipodi:nodetypes="cc" />
  </g>
  <g
     inkscape:groupmode="layer"
     id="layer2"
     inkscape:label="Stenozeichen"
     style="display:inline">
    <path
       style="display:inline;fill:none;fill-rule:evenodd;stroke:#000000;stroke-width:5.625;stroke-linecap:round;stroke-linejoin:round;stroke-miterlimit:4;stroke-dasharray:none;stroke-opacity:1"
       d="m 841.79188,352.24431 83.50043,-130.23714 c 6.4817,-10.10966 13.9553,-19.77572 22.0591,-27.42381 10.8894,-10.2769 23.7278,-10.12277 29.2357,-9.7975 17.1618,1.01351 11.7201,19.26238 -3.6032,41.15563 -14.4651,20.66693 -23.5003,37.47295 -41.4455,63.0375 -25.36535,36.13525 -53.10197,69.49521 -45.44546,87.50026 9.01215,16.25744 27.74466,8.04754 46.02546,-7.20821 2.2356,-1.86571 7.4258,-6.78929 9.6294,-8.8339"
       id="path844-7"
       inkscape:connector-curvature="0"
       sodipodi:nodetypes="cssssscsc" />
    <path
       style="display:inline;fill:none;fill-rule:evenodd;stroke:#000000;stroke-width:5.625;stroke-linecap:round;stroke-linejoin:round;stroke-miterlimit:4;stroke-dasharray:none;stroke-opacity:1"
       d="m 767.19849,382.94937 21.95682,48.11686 52.63657,-78.82192"
       id="path844-5-6-5-5"
       inkscape:connector-curvature="0"
       sodipodi:nodetypes="ccc" />
    <path
       style="display:inline;fill:none;fill-rule:evenodd;stroke:#000000;stroke-width:5.625;stroke-linecap:round;stroke-linejoin:round;stroke-miterlimit:4;stroke-dasharray:none;stroke-opacity:1"
       d="m 667.43154,401.89611 c 28.3077,-26.84632 117.99184,-110.31396 131.07988,-127.2358 10.40104,-13.44777 15.23657,-34.86298 7.86808,-38.97872 -20.71124,-8.0739 -47.6441,22.48649 -57.39679,59.68724 -2.89599,13.73129 -15.09151,58.16976 -16.35592,65.71309 -10.82651,35.46958 -18.4596,51.16266 -54.87246,69.27978"
       id="path12351-7-1-8-67-1-1-1-5"
       inkscape:connector-curvature="0"
       sodipodi:nodetypes="cscccc" />
    <path
       style="display:inline;fill:none;fill-rule:evenodd;stroke:#000000;stroke-width:5.625;stroke-linecap:round;stroke-linejoin:round;stroke-miterlimit:4;stroke-dasharray:none;stroke-opacity:1"
       d="m 689.46595,424.83758 77.73254,-41.88821"
       id="path844-5-6-5-5-0"
       inkscape:connector-curvature="0"
       sodipodi:nodetypes="cc" />
    <path
       style="display:inline;fill:none;fill-rule:evenodd;stroke:#000000;stroke-width:5.625;stroke-linecap:round;stroke-linejoin:round;stroke-miterlimit:4;stroke-dasharray:none;stroke-opacity:1"
       d="m 167.60851,333.27541 c 53.2526,-10.75622 93.65755,-77.90171 87.42346,-94.28607 -5.37126,-14.11938 -39.46465,8.70695 -85.7311,85.08886 l -60.35152,107.61122 69.89288,-60.56028"
       id="path12351-7-1-33"
       inkscape:connector-curvature="0"
       sodipodi:nodetypes="csccc" />
    <path
       style="display:inline;fill:none;fill-rule:evenodd;stroke:#000000;stroke-width:5.625;stroke-linecap:round;stroke-linejoin:round;stroke-miterlimit:4;stroke-dasharray:none;stroke-opacity:1"
       d="m 178.84223,371.12914 c 12.14963,-10.48332 27.49913,-22.41873 32.80011,-26.10251 6.21801,-4.32101 13.4085,-6.93244 20.05363,-7.91847 17.36197,-2.57623 31.11842,6.11275 15.11771,25.89505 -27.376,33.846 -45.457,50.228 -39.441,63.89101 2.66224,6.04623 10.7615,6.67249 20.03264,3.97082 5.98903,-1.74523 13.81471,-4.23141 28.15519,-13.39876"
       id="path844-71-2"
       inkscape:connector-curvature="0"
       sodipodi:nodetypes="csssssc" />
    <path
       style="display:inline;fill:none;fill-rule:evenodd;stroke:#000000;stroke-width:5.625;stroke-linecap:round;stroke-linejoin:round;stroke-miterlimit:4;stroke-dasharray:none;stroke-opacity:1"
       d="m 255.56051,417.46628 c 24.10031,-12.84782 55.90689,-29.86097 59.48049,-32.06108 13.59659,-8.27305 43.29402,-27.24034 37.84431,-45.49975 -2.83668,-7.45847 -35.56881,-8.85373 -60.00323,31.48563 -27.00541,44.17629 -18.82194,60.93674 -4.3212,60.08838 8.7824,-0.43767 18.2189,-3.60998 20.31153,-4.94927"
       id="path12351-7-1-32-1-6"
       inkscape:connector-curvature="0"
       sodipodi:nodetypes="cccccc" />
    <path
       style="display:inline;fill:none;fill-rule:evenodd;stroke:#000000;stroke-width:5.625;stroke-linecap:round;stroke-linejoin:round;stroke-miterlimit:4;stroke-dasharray:none;stroke-opacity:1"
       d="m 492.07706,326.63174 c -11.9747,13.43874 -87.5484,98.3462 -99.23541,106.50992 -23.07798,16.12064 -46.04508,30.69941 -55.8465,42.875 -19.86508,24.67695 -35.39511,47.78507 -26.83611,54.04408 15.797,11.553 35.81499,-11.07801 50.637,-36.18 18.554,-31.42202 45.606,-101.45402 53.063,-131.39602 22.008,-88.357 71.41399,-137.025 88.34801,-126.612 6.81499,4.191 -3.49939,28.6956 -21.83259,50.989 -15.26762,18.56562 -153.58436,134.02435 -171.50205,139.66847"
       id="path12351-7-1-8-4-9"
       inkscape:connector-curvature="0"
       sodipodi:nodetypes="csssssssc" />
    <path
       style="display:inline;fill:none;fill-rule:evenodd;stroke:#000000;stroke-width:5.625;stroke-linecap:round;stroke-linejoin:round;stroke-miterlimit:4;stroke-dasharray:none;stroke-opacity:1"
       d="m 492.07706,326.63174 c 18.73763,-21.1425 38.83121,-56.21964 73.2462,-83.55964 83.03901,-64.98 -28.79399,162.28 -88.16799,186.61 -8.43737,1.88935 -13.87326,-0.36634 -16.43001,-3.78931 -7.06944,-12.59727 92.19823,-30.90692 109.63888,-33.60568"
       id="path844-9-2"
       inkscape:connector-curvature="0"
       sodipodi:nodetypes="ccccc" />
    <path
       style="display:inline;fill:none;fill-rule:evenodd;stroke:#000000;stroke-width:5.625;stroke-linecap:round;stroke-linejoin:round;stroke-miterlimit:4;stroke-dasharray:none;stroke-opacity:1"
       d="m 593.31326,251.3721 -91.72899,157.83"
       id="path844-5-6-6-9-8-3-5"
       inkscape:connector-curvature="0"
       sodipodi:nodetypes="cc" />
    <path
       style="display:inline;fill:none;fill-rule:evenodd;stroke:#000000;stroke-width:8.4375;stroke-linecap:round;stroke-linejoin:round;stroke-miterlimit:4;stroke-dasharray:none;stroke-opacity:1"
       d="m 587.53627,267.6521 -73.048,125.62"
       id="path844-5-6-6-9-4-62-1"
       inkscape:connector-curvature="0"
       sodipodi:nodetypes="cc" />
    <path
       style="display:inline;fill:none;fill-rule:evenodd;stroke:#000000;stroke-width:3.74999976;stroke-linecap:round;stroke-linejoin:round;stroke-miterlimit:4;stroke-dasharray:none;stroke-opacity:1"
       d="m 484.81127,425.1121 c 6.63799,-8.15 16.375,-19.04 22.476,-27.92"
       id="path844-5-6-6-9-4-6-8-8"
       inkscape:connector-curvature="0"
       sodipodi:nodetypes="cc" />
    <path
       style="display:inline;fill:none;fill-rule:evenodd;stroke:#000000;stroke-width:5.625;stroke-linecap:round;stroke-linejoin:round;stroke-miterlimit:4;stroke-dasharray:none;stroke-opacity:1"
       d="m 576.49226,295.2021 -40.21898,67.9"
       id="path844-5-6-6-9-4-5-4-3"
       inkscape:connector-curvature="0"
       sodipodi:nodetypes="cc" />
    <path
       style="display:inline;fill:none;fill-rule:evenodd;stroke:#000000;stroke-width:5.625;stroke-linecap:round;stroke-linejoin:round;stroke-miterlimit:4;stroke-dasharray:none;stroke-opacity:1"
       d="m 595.02527,237.7121 c 0.65499,14.01 -5.38401,18.6 -14.27901,37.11"
       id="path844-5-6-6-9-4-5-7-9-5"
       inkscape:connector-curvature="0"
       sodipodi:nodetypes="cc" />
    <path
       style="display:inline;fill:none;fill-rule:evenodd;stroke:#000000;stroke-width:5.625;stroke-linecap:round;stroke-linejoin:round;stroke-miterlimit:4;stroke-dasharray:none;stroke-opacity:1"
       d="m 570.36414,392.28711 c 31.37394,-3.95368 38.34738,37.8883 56.33015,39.1169 10.78,-0.265 34.14925,-22.3619 40.73725,-29.5079"
       id="path844-5-9-31-47-9-6"
       inkscape:connector-curvature="0"
       sodipodi:nodetypes="ccc" />
  </g>
</svg>
