<?xml version="1.0" encoding="UTF-8" standalone="no"?>
<!-- Created with Inkscape (http://www.inkscape.org/) -->

<svg
   xmlns:dc="http://purl.org/dc/elements/1.1/"
   xmlns:cc="http://creativecommons.org/ns#"
   xmlns:rdf="http://www.w3.org/1999/02/22-rdf-syntax-ns#"
   xmlns:svg="http://www.w3.org/2000/svg"
   xmlns="http://www.w3.org/2000/svg"
   xmlns:sodipodi="http://sodipodi.sourceforge.net/DTD/sodipodi-0.dtd"
   xmlns:inkscape="http://www.inkscape.org/namespaces/inkscape"
   width="297mm"
   height="210mm"
   viewBox="0 0 1052.3622 744.09448"
   id="svg2"
   version="1.1"
   inkscape:version="0.92.3 (2405546, 2018-03-11)"
   sodipodi:docname="DEK Deutsche Einheitskurzschrift - Verkehrsschrift - Glockenturm.svg">
  <defs
     id="defs4" />
  <sodipodi:namedview
     id="base"
     pagecolor="#ffffff"
     bordercolor="#666666"
     borderopacity="1.0"
     inkscape:pageopacity="0.0"
     inkscape:pageshadow="2"
     inkscape:zoom="0.98994949"
     inkscape:cx="653.47073"
     inkscape:cy="431.5223"
     inkscape:document-units="px"
     inkscape:current-layer="layer2"
     showgrid="false"
     inkscape:window-width="1920"
     inkscape:window-height="1017"
     inkscape:window-x="1592"
     inkscape:window-y="-8"
     inkscape:window-maximized="1"
     showguides="true"
     inkscape:guide-bbox="true" />
  <metadata
     id="metadata7">
    <rdf:RDF>
      <cc:Work
         rdf:about="">
        <dc:format>image/svg+xml</dc:format>
        <dc:type
           rdf:resource="http://purl.org/dc/dcmitype/StillImage" />
        <dc:title></dc:title>
      </cc:Work>
    </rdf:RDF>
  </metadata>
  <g
     inkscape:label="Grundlinien"
     inkscape:groupmode="layer"
     id="layer1"
     transform="translate(0,-308.26772)"
     sodipodi:insensitive="true">
    <path
       style="fill:none;fill-rule:evenodd;stroke:#969696;stroke-width:1.875;stroke-linecap:round;stroke-linejoin:miter;stroke-miterlimit:4;stroke-dasharray:none;stroke-opacity:1"
       d="M 57.556226,742.24566 H 1006.4206"
       id="path3336"
       inkscape:connector-curvature="0"
       sodipodi:nodetypes="cc" />
    <path
       style="fill:none;fill-rule:evenodd;stroke:#000000;stroke-width:0.9375;stroke-linecap:round;stroke-linejoin:miter;stroke-miterlimit:2;stroke-dasharray:3.74999998, 7.49999996;stroke-dashoffset:0;stroke-opacity:1"
       d="M 58.279456,844.14792 H 1007.1438"
       id="path3336-4"
       inkscape:connector-curvature="0"
       sodipodi:nodetypes="cc" />
    <path
       style="fill:none;fill-rule:evenodd;stroke:#000000;stroke-width:0.9375;stroke-linecap:round;stroke-linejoin:miter;stroke-miterlimit:2;stroke-dasharray:3.74999998, 7.49999996;stroke-dashoffset:0;stroke-opacity:1"
       d="M 58.279456,641.7697 H 1007.1438"
       id="path3336-7"
       inkscape:connector-curvature="0"
       sodipodi:nodetypes="cc" />
    <path
       style="fill:none;fill-rule:evenodd;stroke:#000000;stroke-width:0.9375;stroke-linecap:round;stroke-linejoin:miter;stroke-miterlimit:2;stroke-dasharray:3.74999998, 7.49999996;stroke-dashoffset:0;stroke-opacity:1"
       d="M 58.279456,540.58062 H 1007.1438"
       id="path3336-2"
       inkscape:connector-curvature="0"
       sodipodi:nodetypes="cc" />
  </g>
  <g
     inkscape:groupmode="layer"
     id="layer2"
     inkscape:label="Stenozeichen"
     style="display:inline">
    <path
       id="path960-62"
       d="m 811.17449,369.98059 c 6.36641,-10.19023 9.21975,-15.52004 15.46612,-22.03795 18.01789,-18.77487 60.974,-14.63 37.499,14.4 -27.374,33.82 -45.449,50.25 -39.449,63.9 4.2,9.52 21.6,5.02 36.524,-3.68 l 16.2,-9.45"
       style="display:inline;fill:none;stroke:#000000;stroke-width:5.62495947px;stroke-linecap:round;stroke-linejoin:round;stroke-miterlimit:4;stroke-dasharray:none;stroke-opacity:1"
       inkscape:connector-curvature="0"
       sodipodi:nodetypes="cccccc" />
    <path
       style="display:inline;fill:none;fill-rule:evenodd;stroke:#000000;stroke-width:5.625;stroke-linecap:round;stroke-linejoin:miter;stroke-miterlimit:4;stroke-dasharray:none;stroke-opacity:1"
       d="m 635.76332,337.68764 -52.65201,93.08001"
       id="path822-5-8-6-2-2-2"
       inkscape:connector-curvature="0"
       sodipodi:nodetypes="cc" />
    <path
       style="display:inline;fill:none;fill-rule:evenodd;stroke:#000000;stroke-width:5.625;stroke-linecap:round;stroke-linejoin:round;stroke-miterlimit:4;stroke-dasharray:none;stroke-opacity:1"
       d="m 583.11131,430.76765 62.023,-44.70228"
       id="path844-99-4-6-25-0-7-4-9"
       inkscape:connector-curvature="0"
       sodipodi:nodetypes="cc" />
    <path
       style="display:inline;fill:none;fill-rule:evenodd;stroke:#000000;stroke-width:5.625;stroke-linecap:round;stroke-linejoin:round;stroke-miterlimit:4;stroke-dasharray:none;stroke-opacity:1"
       d="m 764.67132,432.28537 c 5.359,-3.29 11.692,-10.5 6.516,-17.07 -2.58,-3.28 -3.999,-4.48 -11.90901,-4.44 l -98.75599,0.56 c -6.74801,0.1 -14.29601,0.2 -15.91401,-0.7 -10.53999,-5.84 -7.418,-13.74 0.526,-24.57"
       id="path844-40-7-5-7-7-08-1-6"
       inkscape:connector-curvature="0"
       sodipodi:nodetypes="cssssc" />
    <path
       id="path960-6-2"
       d="m 764.67132,432.28537 c 14.52719,-1.4948 46.50317,-62.30478 46.50317,-62.30478"
       style="display:inline;fill:none;stroke:#000000;stroke-width:5.625;stroke-linecap:round;stroke-linejoin:round;stroke-miterlimit:4;stroke-dasharray:none;stroke-opacity:1"
       inkscape:connector-curvature="0"
       sodipodi:nodetypes="cc" />
    <path
       style="display:inline;fill:none;fill-rule:evenodd;stroke:#000000;stroke-width:5.625;stroke-linecap:round;stroke-linejoin:round;stroke-miterlimit:4;stroke-dasharray:none;stroke-opacity:1"
       d="m 162.32003,349.79209 c 4.276,-3.864 9.651,-7.367 17.839,-10.941 24.834,-6.858 34.27523,2.0464 12.254,40.50401 l -29.829,52.093"
       id="path12351-3-7-7-2-1"
       inkscape:connector-curvature="0"
       sodipodi:nodetypes="ccsc" />
    <path
       style="display:inline;fill:none;fill-rule:evenodd;stroke:#000200;stroke-width:5.625;stroke-linecap:round;stroke-linejoin:round;stroke-miterlimit:4;stroke-dasharray:none;stroke-opacity:1"
       d="m 162.58403,431.4481 c -0.0675,-4.99046 -0.16787,-8.82877 -1.39891,-9.79978 -1.29161,-1.22225 -3.0543,-1.42094 -4.00101,-0.73814 -2.40767,1.76443 -2.12893,2.96035 -1.91988,4.92961 0.37284,3.53138 2.10264,2.17428 5.3537,1.53461 4.11895,-2.06929 4.07696,-4.19704 7.11248,-4.8144"
       id="path12351-7-1-4-17-5-9-0-1"
       inkscape:connector-curvature="0"
       sodipodi:nodetypes="cccccc" />
    <path
       style="display:inline;fill:none;fill-rule:evenodd;stroke:#000200;stroke-width:3.58606911;stroke-linecap:round;stroke-linejoin:round;stroke-miterlimit:4;stroke-dasharray:none;stroke-opacity:1"
       d="m 159.47753,422.60257 c -0.12307,-0.2104 -0.2633,-0.37761 -0.41485,-0.49502 -0.0496,-0.0386 -0.10084,-0.0716 -0.15384,-0.0983 -0.34128,-0.1737 -0.75241,-0.10103 -1.26156,0.32736 -0.99219,0.83428 -1.03547,2.42281 -0.97791,3.14109 0.14011,1.4769 1.62213,1.91932 2.39864,0.67011 0.4854,-0.78093 0.89022,-1.92882 0.64471,-2.94056 -0.017,-0.0692 -0.0364,-0.13701 -0.0598,-0.20418 -0.0284,-0.0806 -0.0596,-0.16056 -0.0963,-0.23947 -0.0858,-0.17663 -0.19301,-0.34802 -0.33118,-0.50786"
       id="path12351-7-1-4-7-8-8-5"
       inkscape:connector-curvature="0"
       sodipodi:nodetypes="cssscssssc"
       inkscape:transform-center-x="-6.1661416"
       inkscape:transform-center-y="-11.456593" />
    <path
       style="display:inline;fill:none;fill-rule:evenodd;stroke:#000000;stroke-width:5.625;stroke-linecap:round;stroke-linejoin:round;stroke-miterlimit:4;stroke-dasharray:none;stroke-opacity:1"
       d="M 160.61793,427.3744 383.06238,387.59071"
       id="path4752-1-9-02-8-0-5"
       inkscape:connector-curvature="0"
       sodipodi:nodetypes="cc" />
    <path
       style="display:inline;fill:none;fill-rule:evenodd;stroke:#000000;stroke-width:5.625;stroke-linecap:round;stroke-linejoin:round;stroke-miterlimit:4;stroke-dasharray:none;stroke-opacity:1"
       d="m 383.06238,387.59071 c 30.13949,-4.01877 52.89102,7.49122 45.36699,43.81613"
       id="path4752-1-24-66-3"
       inkscape:connector-curvature="0"
       sodipodi:nodetypes="cc" />
    <path
       style="display:inline;fill:none;fill-rule:evenodd;stroke:#000000;stroke-width:5.625;stroke-linecap:round;stroke-linejoin:round;stroke-miterlimit:4;stroke-dasharray:none;stroke-opacity:1"
       d="m 428.42937,431.40684 c 0,0 54.87274,-29.427 71.67575,-30.258 15.98899,-0.635 15.70813,30.30773 26.66814,30.00273 7.19298,-0.201 17.12522,-6.85664 30.99139,-20.30429"
       id="path844-5-9-31-47-9-9"
       inkscape:connector-curvature="0"
       sodipodi:nodetypes="ccsc" />
    <path
       style="display:inline;fill:none;fill-rule:evenodd;stroke:#000000;stroke-width:5.625;stroke-linecap:round;stroke-linejoin:miter;stroke-miterlimit:4;stroke-dasharray:none;stroke-opacity:1"
       d="m 635.76332,337.68764 -77.99867,73.15964"
       id="path822-5-8-6-2-2-2-3"
       inkscape:connector-curvature="0"
       sodipodi:nodetypes="cc" />
  </g>
</svg>
