<?xml version="1.0" encoding="UTF-8" standalone="no"?>
<!-- Created with Inkscape (http://www.inkscape.org/) -->

<svg
   xmlns:dc="http://purl.org/dc/elements/1.1/"
   xmlns:cc="http://creativecommons.org/ns#"
   xmlns:rdf="http://www.w3.org/1999/02/22-rdf-syntax-ns#"
   xmlns:svg="http://www.w3.org/2000/svg"
   xmlns="http://www.w3.org/2000/svg"
   xmlns:sodipodi="http://sodipodi.sourceforge.net/DTD/sodipodi-0.dtd"
   xmlns:inkscape="http://www.inkscape.org/namespaces/inkscape"
   width="297mm"
   height="210mm"
   viewBox="0 0 1052.3622 744.09448"
   id="svg2"
   version="1.1"
   inkscape:version="0.92.3 (2405546, 2018-03-11)"
   sodipodi:docname="DEK Deutsche Einheitskurzschrift - Verkehrsschrift - gelegentlich.svg">
  <defs
     id="defs4" />
  <sodipodi:namedview
     id="base"
     pagecolor="#ffffff"
     bordercolor="#666666"
     borderopacity="1.0"
     inkscape:pageopacity="0.0"
     inkscape:pageshadow="2"
     inkscape:zoom="0.7"
     inkscape:cx="602.12752"
     inkscape:cy="502.00147"
     inkscape:document-units="px"
     inkscape:current-layer="layer2"
     showgrid="false"
     inkscape:window-width="1920"
     inkscape:window-height="1017"
     inkscape:window-x="1592"
     inkscape:window-y="-8"
     inkscape:window-maximized="1"
     showguides="true"
     inkscape:guide-bbox="true" />
  <metadata
     id="metadata7">
    <rdf:RDF>
      <cc:Work
         rdf:about="">
        <dc:format>image/svg+xml</dc:format>
        <dc:type
           rdf:resource="http://purl.org/dc/dcmitype/StillImage" />
        <dc:title></dc:title>
      </cc:Work>
    </rdf:RDF>
  </metadata>
  <g
     inkscape:label="Grundlinien"
     inkscape:groupmode="layer"
     id="layer1"
     transform="translate(0,-308.26772)"
     sodipodi:insensitive="true">
    <path
       style="fill:none;fill-rule:evenodd;stroke:#969696;stroke-width:1.875;stroke-linecap:round;stroke-linejoin:miter;stroke-miterlimit:4;stroke-dasharray:none;stroke-opacity:1"
       d="M 57.556226,742.24566 H 1006.4206"
       id="path3336"
       inkscape:connector-curvature="0"
       sodipodi:nodetypes="cc" />
    <path
       style="fill:none;fill-rule:evenodd;stroke:#000000;stroke-width:0.9375;stroke-linecap:round;stroke-linejoin:miter;stroke-miterlimit:2;stroke-dasharray:3.74999998, 7.49999996;stroke-dashoffset:0;stroke-opacity:1"
       d="M 58.279456,844.14792 H 1007.1438"
       id="path3336-4"
       inkscape:connector-curvature="0"
       sodipodi:nodetypes="cc" />
    <path
       style="fill:none;fill-rule:evenodd;stroke:#000000;stroke-width:0.9375;stroke-linecap:round;stroke-linejoin:miter;stroke-miterlimit:2;stroke-dasharray:3.74999998, 7.49999996;stroke-dashoffset:0;stroke-opacity:1"
       d="M 58.279456,641.7697 H 1007.1438"
       id="path3336-7"
       inkscape:connector-curvature="0"
       sodipodi:nodetypes="cc" />
    <path
       style="fill:none;fill-rule:evenodd;stroke:#000000;stroke-width:0.9375;stroke-linecap:round;stroke-linejoin:miter;stroke-miterlimit:2;stroke-dasharray:3.74999998, 7.49999996;stroke-dashoffset:0;stroke-opacity:1"
       d="M 58.279456,540.58062 H 1007.1438"
       id="path3336-2"
       inkscape:connector-curvature="0"
       sodipodi:nodetypes="cc" />
  </g>
  <g
     inkscape:groupmode="layer"
     id="layer2"
     inkscape:label="Stenozeichen"
     style="display:inline">
    <path
       style="display:inline;fill:none;fill-rule:evenodd;stroke:#000000;stroke-width:5.625;stroke-linecap:round;stroke-linejoin:round;stroke-miterlimit:4;stroke-dasharray:none;stroke-opacity:1"
       d="m 409.40034,430.448 c 6.29021,0.0997 12.3795,1.36547 22.70705,-6.18503 10.65035,-7.78649 28.22268,-37.16701 32.47528,-44.77161"
       id="path12351-7-1-1-1-2-0-7"
       inkscape:connector-curvature="0"
       sodipodi:nodetypes="csc" />
    <path
       style="display:inline;fill:none;fill-opacity:1;fill-rule:evenodd;stroke:#000000;stroke-width:5.625;stroke-linecap:round;stroke-linejoin:round;stroke-miterlimit:4;stroke-dasharray:none;stroke-opacity:1"
       d="m 414.31353,416.75277 c 0.86562,0.11464 1.62117,0.27514 2.23111,0.58472 0.19949,0.11465 0.38407,0.21783 0.55146,0.34395 1.08117,0.83697 1.47442,2.27009 0.87021,4.57456 -1.17633,4.4714 -6.23587,7.03959 -8.64125,7.94533 -4.97928,1.80002 -8.6699,-2.30448 -5.82426,-6.71856 1.77824,-2.75162 4.86349,-5.8128 8.50251,-6.56949 0.24764,0 0.49759,-0.11466 0.74982,-0.11466 0.30383,0 0.60994,-0.11467 0.9195,-0.11467 0.70167,0 1.41824,0.11467 2.14512,0.28665"
       id="path12351-7-1-4-7-1-2-9-3-0"
       inkscape:connector-curvature="0"
       sodipodi:nodetypes="cssscssssc" />
    <path
       style="display:inline;fill:none;fill-rule:evenodd;stroke:#000000;stroke-width:5.625;stroke-linecap:round;stroke-linejoin:round;stroke-miterlimit:4;stroke-dasharray:none;stroke-opacity:1"
       d="m 464.58267,379.49136 c 14.38419,-23.27898 25.66531,-43.27128 47.72963,-43.54674 15.50426,0.81933 21.61652,8.02664 4.71473,42.51767 l -25.619,52.28"
       id="path12351-7-1-1-1-2-0-9"
       inkscape:connector-curvature="0"
       sodipodi:nodetypes="ccsc" />
    <path
       style="display:inline;fill:none;fill-rule:evenodd;stroke:#001e00;stroke-width:5.625;stroke-linecap:round;stroke-linejoin:miter;stroke-miterlimit:4;stroke-dasharray:none;stroke-opacity:1"
       d="M 413.8606,428.573 359.17523,533.32948"
       id="path822-5-1"
       inkscape:connector-curvature="0"
       sodipodi:nodetypes="cc" />
    <path
       style="display:inline;fill:none;fill-rule:evenodd;stroke:#000000;stroke-width:5.625;stroke-linecap:round;stroke-linejoin:round;stroke-miterlimit:4;stroke-dasharray:none;stroke-opacity:1"
       d="m 491.40803,430.74229 c 0,0 54.01796,-26.31776 71.97951,-26.47749 21.14307,-0.18802 8.45512,29.66856 27.88747,26.67049 7.90283,-1.21925 14.0219,-5.6183 19.43837,-10.89139"
       id="path844-5-9-31-0-9-2-3"
       inkscape:connector-curvature="0"
       sodipodi:nodetypes="cssc" />
    <path
       style="display:inline;fill:none;fill-rule:evenodd;stroke:#00001f;stroke-width:5.625;stroke-linecap:round;stroke-linejoin:round;stroke-miterlimit:4;stroke-dasharray:none;stroke-opacity:1"
       d="m 744.37688,236.58548 c -0.53,-0.5 -0.846,-0.77 -1.38101,-1.09 -0.237,-0.14 -0.693,-0.39 -0.92899,-0.49 -0.19601,-0.09 -0.402,-0.24 -0.588,-0.24 -8.997,1.94 -6.306,3.17 -8.997,1.94 -1.49201,-0.68 2.17099,10.38 5.27299,9.2 1.95101,0.29 6.13701,-0.44 7.60301,-3.81 0.748,-1.73 0.625,-3.15 -0.09,-4.37 -0.113,-0.19 -0.28001,-0.34 -0.38,-0.55 -2.64201,-7.48 -15.003,-0.29 -23.268,7.8 -3.90201,3.82 -11.09101,11.58 -17.10701,21.665 -12.4512,20.1416 -81.48826,143.93324 -93.79949,153.40342"
       id="path12351-7-1-4-97-0-6-1-4-8-0"
       inkscape:connector-curvature="0"
       sodipodi:nodetypes="csssscsscscc" />
    <path
       style="display:inline;fill:none;fill-opacity:1;stroke:#000000;stroke-width:5.625;stroke-linecap:round;stroke-linejoin:round;stroke-miterlimit:4;stroke-dasharray:none;stroke-dashoffset:0;stroke-opacity:1"
       id="path6585-73-3-9-7-6-6"
       sodipodi:type="arc"
       sodipodi:cx="524.91333"
       sodipodi:cy="574.05011"
       sodipodi:rx="5.4690289"
       sodipodi:ry="1.8230096"
       sodipodi:start="0"
       sodipodi:end="6.2778271"
       d="m 530.38236,574.05011 a 5.4690289,1.8230096 0 0 1 -5.4617,1.82301 5.4690289,1.8230096 0 0 1 -5.47634,-1.81813 5.4690289,1.8230096 0 0 1 5.44703,-1.82788 5.4690289,1.8230096 0 0 1 5.49093,1.81323 l -5.46895,0.01 z"
       transform="rotate(-29.590094)" />
  </g>
</svg>
