<?xml version="1.0" encoding="UTF-8" standalone="no"?>
<!-- Created with Inkscape (http://www.inkscape.org/) -->

<svg
   xmlns:dc="http://purl.org/dc/elements/1.1/"
   xmlns:cc="http://creativecommons.org/ns#"
   xmlns:rdf="http://www.w3.org/1999/02/22-rdf-syntax-ns#"
   xmlns:svg="http://www.w3.org/2000/svg"
   xmlns="http://www.w3.org/2000/svg"
   xmlns:sodipodi="http://sodipodi.sourceforge.net/DTD/sodipodi-0.dtd"
   xmlns:inkscape="http://www.inkscape.org/namespaces/inkscape"
   width="297mm"
   height="210mm"
   viewBox="0 0 1052.3622 744.09448"
   id="svg2"
   version="1.1"
   inkscape:version="0.92.3 (2405546, 2018-03-11)"
   sodipodi:docname="DEK Deutsche Einheitskurzschrift - Verkehrsschrift - loszuschlagen.svg">
  <defs
     id="defs4">
    <pattern
       y="0"
       x="0"
       height="6"
       width="6"
       patternUnits="userSpaceOnUse"
       id="EMFhbasepattern" />
    <pattern
       y="0"
       x="0"
       height="6"
       width="6"
       patternUnits="userSpaceOnUse"
       id="EMFhbasepattern-5" />
  </defs>
  <sodipodi:namedview
     id="base"
     pagecolor="#ffffff"
     bordercolor="#666666"
     borderopacity="1.0"
     inkscape:pageopacity="0.0"
     inkscape:pageshadow="2"
     inkscape:zoom="0.7"
     inkscape:cx="566.68781"
     inkscape:cy="262.17457"
     inkscape:document-units="px"
     inkscape:current-layer="layer2"
     showgrid="false"
     inkscape:window-width="1920"
     inkscape:window-height="1017"
     inkscape:window-x="1592"
     inkscape:window-y="-8"
     inkscape:window-maximized="1"
     showguides="true"
     inkscape:guide-bbox="true" />
  <metadata
     id="metadata7">
    <rdf:RDF>
      <cc:Work
         rdf:about="">
        <dc:format>image/svg+xml</dc:format>
        <dc:type
           rdf:resource="http://purl.org/dc/dcmitype/StillImage" />
        <dc:title></dc:title>
      </cc:Work>
    </rdf:RDF>
  </metadata>
  <g
     inkscape:label="Grundlinien"
     inkscape:groupmode="layer"
     id="layer1"
     transform="translate(0,-308.26772)"
     sodipodi:insensitive="true">
    <path
       style="fill:none;fill-rule:evenodd;stroke:#969696;stroke-width:1.875;stroke-linecap:round;stroke-linejoin:miter;stroke-miterlimit:4;stroke-dasharray:none;stroke-opacity:1"
       d="M 57.556226,742.24566 H 1006.4206"
       id="path3336"
       inkscape:connector-curvature="0"
       sodipodi:nodetypes="cc" />
    <path
       style="fill:none;fill-rule:evenodd;stroke:#000000;stroke-width:0.9375;stroke-linecap:round;stroke-linejoin:miter;stroke-miterlimit:2;stroke-dasharray:3.74999998, 7.49999996;stroke-dashoffset:0;stroke-opacity:1"
       d="M 58.279456,844.14792 H 1007.1438"
       id="path3336-4"
       inkscape:connector-curvature="0"
       sodipodi:nodetypes="cc" />
    <path
       style="fill:none;fill-rule:evenodd;stroke:#000000;stroke-width:0.9375;stroke-linecap:round;stroke-linejoin:miter;stroke-miterlimit:2;stroke-dasharray:3.74999998, 7.49999996;stroke-dashoffset:0;stroke-opacity:1"
       d="M 58.279456,641.7697 H 1007.1438"
       id="path3336-7"
       inkscape:connector-curvature="0"
       sodipodi:nodetypes="cc" />
    <path
       style="fill:none;fill-rule:evenodd;stroke:#000000;stroke-width:0.9375;stroke-linecap:round;stroke-linejoin:miter;stroke-miterlimit:2;stroke-dasharray:3.74999998, 7.49999996;stroke-dashoffset:0;stroke-opacity:1"
       d="M 58.279456,540.58062 H 1007.1438"
       id="path3336-2"
       inkscape:connector-curvature="0"
       sodipodi:nodetypes="cc" />
  </g>
  <g
     inkscape:groupmode="layer"
     id="layer2"
     inkscape:label="Stenozeichen"
     style="display:inline">
    <path
       style="display:inline;fill:none;fill-rule:evenodd;stroke:#000000;stroke-width:5.625;stroke-linecap:round;stroke-linejoin:round;stroke-miterlimit:4;stroke-dasharray:none;stroke-opacity:1"
       d="m 617.23997,335.9564 c -18.02672,1.6558 -56.87454,38.68499 -92.69212,70.2155 -41.862,36.85146 -81.60407,71.87694 -98.05237,89.41014"
       id="path12351-7-1-8-8"
       inkscape:connector-curvature="0"
       sodipodi:nodetypes="csc" />
    <path
       style="display:inline;fill:none;fill-rule:evenodd;stroke:#000000;stroke-width:5.625;stroke-linecap:round;stroke-linejoin:round;stroke-miterlimit:4;stroke-dasharray:none;stroke-opacity:1"
       d="m 470.29836,382.35309 c 0,0 -230.62573,53.67038 -239.14889,49.4088"
       id="path16685"
       inkscape:connector-curvature="0"
       sodipodi:nodetypes="cc" />
    <path
       style="display:inline;fill:none;fill-rule:evenodd;stroke:#000000;stroke-width:5.625;stroke-linecap:round;stroke-linejoin:round;stroke-miterlimit:4;stroke-dasharray:none;stroke-opacity:1"
       d="m 235.32545,420.62448 c 0.69198,0.0672 1.29438,0.21648 1.78182,0.46505 0.15974,0.0814 0.3068,0.17318 0.44042,0.27694 0.86366,0.66735 1.17792,1.81541 0.69571,3.65024 -0.93981,3.57334 -4.98119,5.6224 -6.90186,6.35021 -3.97644,1.43994 -6.9235,-1.8393 -4.65199,-5.36413 1.42053,-2.20283 3.88462,-4.64602 6.79137,-5.24693 0.19707,-0.0448 0.39713,-0.0746 0.59867,-0.0963 0.24186,-0.0299 0.4867,-0.0448 0.73453,-0.0448 0.55985,0 1.13239,0.0746 1.7124,0.2329"
       id="path12351-7-1-4-7-0-6-4"
       inkscape:connector-curvature="0"
       sodipodi:nodetypes="cssscssssc" />
    <ellipse
       style="display:inline;fill:none;fill-opacity:1;stroke:#000000;stroke-width:5.625;stroke-linecap:round;stroke-linejoin:round;stroke-miterlimit:4;stroke-dasharray:none;stroke-dashoffset:0;stroke-opacity:1;paint-order:stroke fill markers"
       id="path44014-1-3-5-4-20-28-3-2"
       cx="121.59498"
       cy="608.86804"
       rx="28.309935"
       ry="22.415304"
       transform="rotate(-37.736319)" />
    <path
       style="display:inline;fill:none;fill-rule:evenodd;stroke:#000000;stroke-width:5.625;stroke-linecap:round;stroke-linejoin:round;stroke-miterlimit:4;stroke-dasharray:none;stroke-opacity:1"
       d="m 426.49548,495.58204 c -17.0364,18.63931 -24.87904,33.71723 -9.40023,37.55147 8.13703,1.84829 24.33896,-3.72379 50.84267,-46.39836 l 88.04901,-150.71501 -101.64522,51.52601"
       id="path12351-7-1-8-1-4-6-18"
       inkscape:connector-curvature="0"
       sodipodi:nodetypes="ccccc" />
    <path
       style="display:inline;fill:none;fill-rule:evenodd;stroke:#000000;stroke-width:5.625;stroke-linecap:round;stroke-linejoin:round;stroke-miterlimit:4;stroke-dasharray:none;stroke-opacity:1"
       d="m 588.62865,435.13948 c -37.02844,11.85372 -113.88638,83.96479 -93.96208,97.08297 7.2364,3.49391 23.9828,1.61739 55.38115,-42.41995 26.94401,-36.88841 55.64347,-74.67325 69.33601,-112.66271 7.50135,-21.38398 15.57205,-43.03381 -2.14376,-41.18339"
       id="path12351-7-1-8-8-5"
       inkscape:connector-curvature="0"
       sodipodi:nodetypes="ccccc" />
    <path
       style="display:inline;fill:none;fill-rule:evenodd;stroke:#000000;stroke-width:5.625;stroke-linecap:round;stroke-linejoin:round;stroke-miterlimit:4;stroke-dasharray:none;stroke-opacity:1"
       d="m 678.91222,431.45697 c 24.05662,-11.87151 56.29397,-29.427 73.09697,-30.258 15.989,-0.635 21.627,31.01801 32.587,30.713 7.193,-0.201 12.352,-7.553 16.748,-12.951"
       id="path844-5-9-31-47-9-9-3-8"
       inkscape:connector-curvature="0"
       sodipodi:nodetypes="ccsc" />
    <path
       style="display:inline;fill:none;fill-rule:evenodd;stroke:#000000;stroke-width:5.625;stroke-linecap:round;stroke-linejoin:round;stroke-miterlimit:4;stroke-dasharray:none;stroke-opacity:1"
       d="m 715.94822,359.55397 -45.92599,71.79301"
       id="path844-5-6-0-1-7-02-8-8-4-6-0"
       inkscape:connector-curvature="0"
       sodipodi:nodetypes="cc" />
    <path
       style="display:inline;fill:none;fill-rule:evenodd;stroke:#000000;stroke-width:3.75;stroke-linecap:round;stroke-linejoin:round;stroke-miterlimit:4;stroke-dasharray:none;stroke-opacity:1"
       d="m 698.77723,391.23097 -25.03101,39.692"
       id="path844-5-6-0-1-0-2-4-1-2-5-59-8"
       inkscape:connector-curvature="0"
       sodipodi:nodetypes="cc" />
    <path
       style="display:inline;fill:none;fill-rule:evenodd;stroke:#000000;stroke-width:5.625;stroke-linecap:round;stroke-linejoin:round;stroke-miterlimit:4;stroke-dasharray:none;stroke-opacity:1"
       d="m 670.05622,431.34698 7.875,0.24"
       id="path844-5-6-0-1-0-1-1-32-6-1-5-1-5"
       inkscape:connector-curvature="0"
       sodipodi:nodetypes="cc" />
    <path
       style="display:inline;fill:none;fill-rule:evenodd;stroke:#000000;stroke-width:5.625;stroke-linecap:round;stroke-linejoin:round;stroke-miterlimit:4;stroke-dasharray:none;stroke-opacity:1"
       d="m 589.40576,425.09648 c 24.67801,4.10401 77.11146,-94.90451 120.27647,-89.37351 1.687,0.298 3.243,0.728 4.632,1.322 9.06499,3.875 10.99699,14.691 -4.158,40.73 l -31.24401,53.682"
       id="path12351-7-1-1-1-2-0-9-5-5"
       inkscape:connector-curvature="0"
       sodipodi:nodetypes="ccssc" />
    <path
       style="display:inline;fill:none;fill-rule:evenodd;stroke:#000000;stroke-width:3.74999976;stroke-linecap:round;stroke-linejoin:miter;stroke-miterlimit:4;stroke-dasharray:none;stroke-opacity:1"
       d="m 714.49322,338.14797 c 6.07601,2.762 6.92301,11.605 -1.94599,25.136"
       id="path2018-3-3-0-5-5-1-1"
       inkscape:connector-curvature="0"
       sodipodi:nodetypes="cc" />
    <path
       style="display:inline;fill:none;fill-opacity:1;fill-rule:evenodd;stroke:#000000;stroke-width:5.625;stroke-linecap:round;stroke-linejoin:round;stroke-miterlimit:4;stroke-dasharray:none;stroke-opacity:1"
       d="m 593.74071,415.54488 c 0.594,0.08 1.113,0.189 1.532,0.402 0.137,0.08 0.264,0.15 0.379,0.236 0.742,0.575 1.012,1.559 0.597,3.142 -0.807,3.071 -4.282,4.835 -5.934,5.457 -3.42,1.236 -5.955,-1.583 -4,-4.614 1.221,-1.89 3.34,-3.993 5.839,-4.512 0.17,0 0.342,-0.08 0.515,-0.08 0.209,0 0.419,-0.08 0.632,-0.08 0.482,0 0.974,0.08 1.473,0.197"
       id="path12351-7-1-4-7-1-2-9-3-0-0-2-6-7"
       inkscape:connector-curvature="0"
       sodipodi:nodetypes="cssscssssc" />
  </g>
</svg>
