<?xml version="1.0" encoding="UTF-8" standalone="no"?>
<!-- Created with Inkscape (http://www.inkscape.org/) -->

<svg
   xmlns:dc="http://purl.org/dc/elements/1.1/"
   xmlns:cc="http://creativecommons.org/ns#"
   xmlns:rdf="http://www.w3.org/1999/02/22-rdf-syntax-ns#"
   xmlns:svg="http://www.w3.org/2000/svg"
   xmlns="http://www.w3.org/2000/svg"
   xmlns:sodipodi="http://sodipodi.sourceforge.net/DTD/sodipodi-0.dtd"
   xmlns:inkscape="http://www.inkscape.org/namespaces/inkscape"
   width="297mm"
   height="210mm"
   viewBox="0 0 1052.3622 744.09448"
   id="svg2"
   version="1.1"
   inkscape:version="0.92.3 (2405546, 2018-03-11)"
   sodipodi:docname="DEK Deutsche Einheitskurzschrift - Verkehrsschrift - vollgeladen.svg">
  <defs
     id="defs4" />
  <sodipodi:namedview
     id="base"
     pagecolor="#ffffff"
     bordercolor="#666666"
     borderopacity="1.0"
     inkscape:pageopacity="0.0"
     inkscape:pageshadow="2"
     inkscape:zoom="0.35"
     inkscape:cx="47.417343"
     inkscape:cy="573.63569"
     inkscape:document-units="px"
     inkscape:current-layer="layer2"
     showgrid="false"
     inkscape:window-width="1920"
     inkscape:window-height="1017"
     inkscape:window-x="1592"
     inkscape:window-y="-8"
     inkscape:window-maximized="1"
     showguides="true"
     inkscape:guide-bbox="true" />
  <metadata
     id="metadata7">
    <rdf:RDF>
      <cc:Work
         rdf:about="">
        <dc:format>image/svg+xml</dc:format>
        <dc:type
           rdf:resource="http://purl.org/dc/dcmitype/StillImage" />
        <dc:title></dc:title>
      </cc:Work>
    </rdf:RDF>
  </metadata>
  <g
     inkscape:label="Grundlinien"
     inkscape:groupmode="layer"
     id="layer1"
     transform="translate(0,-308.26772)"
     sodipodi:insensitive="true">
    <path
       style="fill:none;fill-rule:evenodd;stroke:#969696;stroke-width:1.875;stroke-linecap:round;stroke-linejoin:miter;stroke-miterlimit:4;stroke-dasharray:none;stroke-opacity:1"
       d="M 57.556226,742.24566 H 1006.4206"
       id="path3336"
       inkscape:connector-curvature="0"
       sodipodi:nodetypes="cc" />
    <path
       style="fill:none;fill-rule:evenodd;stroke:#000000;stroke-width:0.9375;stroke-linecap:round;stroke-linejoin:miter;stroke-miterlimit:2;stroke-dasharray:3.74999998, 7.49999996;stroke-dashoffset:0;stroke-opacity:1"
       d="M 58.279456,844.14792 H 1007.1438"
       id="path3336-4"
       inkscape:connector-curvature="0"
       sodipodi:nodetypes="cc" />
    <path
       style="fill:none;fill-rule:evenodd;stroke:#000000;stroke-width:0.9375;stroke-linecap:round;stroke-linejoin:miter;stroke-miterlimit:2;stroke-dasharray:3.74999998, 7.49999996;stroke-dashoffset:0;stroke-opacity:1"
       d="M 58.279456,641.7697 H 1007.1438"
       id="path3336-7"
       inkscape:connector-curvature="0"
       sodipodi:nodetypes="cc" />
    <path
       style="fill:none;fill-rule:evenodd;stroke:#000000;stroke-width:0.9375;stroke-linecap:round;stroke-linejoin:miter;stroke-miterlimit:2;stroke-dasharray:3.74999998, 7.49999996;stroke-dashoffset:0;stroke-opacity:1"
       d="M 58.279456,540.58062 H 1007.1438"
       id="path3336-2"
       inkscape:connector-curvature="0"
       sodipodi:nodetypes="cc" />
  </g>
  <g
     inkscape:groupmode="layer"
     id="layer2"
     inkscape:label="Stenozeichen"
     style="display:inline">
    <path
       style="display:inline;fill:none;fill-rule:evenodd;stroke:#000000;stroke-width:5.625;stroke-linecap:round;stroke-linejoin:round;stroke-miterlimit:4;stroke-dasharray:none;stroke-opacity:1"
       d="m 541.91267,431.47706 c 12.89062,0.33482 18.25103,-2.86213 24.50959,-6.27944 20.90057,-11.41215 66.75387,-36.4839 71.12882,-39.17536 7.24391,-4.45644 15.09199,-8.9938 20.16199,-13.4337 12.807,-11.2155 18.569,-26.0817 16.726,-30.9243 -2.76499,-7.2663 -34.66999,-8.6273 -58.48699,30.6909 -26.32301,43.0628 -17.65401,60.3256 -4.212,58.5714 5.18917,-0.33968 8.49008,-1.12262 11.81043,-2.22961 2.21901,-0.73918 3.67239,-1.03626 6.40666,-2.34268"
       id="path12351-7-1-32-1-7"
       inkscape:connector-curvature="0"
       sodipodi:nodetypes="csssscccc" />
    <path
       style="display:inline;fill:none;fill-rule:evenodd;stroke:#000000;stroke-width:4.6875;stroke-linecap:round;stroke-linejoin:miter;stroke-miterlimit:4;stroke-dasharray:none;stroke-opacity:1"
       d="m 654.56707,342.97246 c -30.327,19.1805 -39.759,50.4673 -52.151,79.0417"
       id="path2933-3-1"
       inkscape:connector-curvature="0"
       sodipodi:nodetypes="cc" />
    <path
       style="display:inline;fill:none;fill-rule:evenodd;stroke:#000000;stroke-width:4.6875;stroke-linecap:round;stroke-linejoin:miter;stroke-miterlimit:4;stroke-dasharray:none;stroke-opacity:1"
       d="m 647.53508,342.97246 c -17.894,10.3948 -41.06501,45.0502 -46.54001,68.6384"
       id="path2933-8-3-6"
       inkscape:connector-curvature="0"
       sodipodi:nodetypes="cc" />
    <path
       style="display:inline;fill:none;fill-rule:evenodd;stroke:#000000;stroke-width:2.8125;stroke-linecap:round;stroke-linejoin:miter;stroke-miterlimit:4;stroke-dasharray:none;stroke-opacity:1"
       d="m 608.15307,410.54376 c -3.962,10.7187 -6.405,18.8357 3.58701,20.3828"
       id="path2933-6-1-9"
       inkscape:connector-curvature="0"
       sodipodi:nodetypes="cc" />
    <path
       style="display:inline;fill:none;fill-rule:evenodd;stroke:#000000;stroke-width:2.8125;stroke-linecap:round;stroke-linejoin:miter;stroke-miterlimit:4;stroke-dasharray:none;stroke-opacity:1"
       d="m 668.96407,339.70796 c -7.413,-2.3651 -11.016,2.1842 -15.82,5.1898"
       id="path2933-6-4-1-3"
       inkscape:connector-curvature="0"
       sodipodi:nodetypes="cc" />
    <path
       style="display:inline;fill:none;fill-rule:evenodd;stroke:#000000;stroke-width:4.6875;stroke-linecap:round;stroke-linejoin:miter;stroke-miterlimit:4;stroke-dasharray:none;stroke-opacity:1"
       d="m 644.10008,347.73176 c -28.031,20.4926 -28.877,42.2094 -43.39101,69.5715"
       id="path2933-4-1-6"
       inkscape:connector-curvature="0"
       sodipodi:nodetypes="cc" />
    <path
       style="display:inline;fill:none;fill-rule:evenodd;stroke:#000000;stroke-width:5.625;stroke-linecap:round;stroke-linejoin:round;stroke-miterlimit:4;stroke-dasharray:none;stroke-opacity:1"
       d="m 629.95717,426.35427 c 2.85002,-1.46532 2.61381,-1.20307 7.13119,-4.12676 15.82826,-10.24417 33.94266,-21.29948 47.01486,-21.94597 15.989,-0.635 21.627,31.018 32.587,30.713 7.19299,-0.201 12.352,-7.553 16.74799,-12.951"
       id="path844-5-9-31-47-9-9"
       inkscape:connector-curvature="0"
       sodipodi:nodetypes="cscsc" />
    <path
       style="display:inline;fill:none;fill-rule:evenodd;stroke:#000000;stroke-width:5.625;stroke-linecap:round;stroke-linejoin:round;stroke-miterlimit:4;stroke-dasharray:none;stroke-opacity:1"
       d="m 547.10232,419.24788 c 0.755,0.07 1.413,0.237 1.945,0.508 0.175,0.09 0.335,0.189 0.481,0.302 0.944,0.73 1.286,1.983 0.76,3.987 -1.027,3.903 -5.44,6.14 -7.537,6.935 -4.343,1.573 -7.562,-2.009 -5.081,-5.858 1.551,-2.405 4.242,-5.074 7.417,-5.73 0.215,-0.04 0.433,-0.08 0.654,-0.105 0.264,-0.03 0.531,-0.05 0.801,-0.05 0.612,0 1.237,0.08 1.871,0.255"
       id="path12351-7-1-4"
       inkscape:connector-curvature="0"
       sodipodi:nodetypes="cssscssssc" />
    <path
       style="display:inline;fill:none;fill-rule:evenodd;stroke:#000000;stroke-width:5.625;stroke-linecap:round;stroke-linejoin:miter;stroke-miterlimit:4;stroke-dasharray:none;stroke-opacity:1"
       d="m 329.22321,398.21753 c 22.967,39.48001 114.11818,45.91895 177.15268,1.98448"
       id="path15438-6-2"
       inkscape:connector-curvature="0"
       sodipodi:nodetypes="cc" />
    <path
       style="display:inline;fill:none;fill-rule:evenodd;stroke:#000000;stroke-width:5.625;stroke-linecap:round;stroke-linejoin:round;stroke-miterlimit:4;stroke-dasharray:none;stroke-opacity:1"
       d="m 518.34744,392.17818 c -3.60492,2.55756 -7.92909,5.46338 -11.97155,8.02383"
       id="path12351-7-1-4-17-5-9-0-9-4"
       inkscape:connector-curvature="0"
       sodipodi:nodetypes="cc" />
    <path
       style="display:inline;fill:none;fill-rule:evenodd;stroke:#000000;stroke-width:5.625;stroke-linecap:round;stroke-linejoin:miter;stroke-miterlimit:4;stroke-dasharray:none;stroke-opacity:1"
       d="M 518.34744,392.17818 443.59242,532.47116"
       id="path822-5-1"
       inkscape:connector-curvature="0"
       sodipodi:nodetypes="cc" />
    <path
       style="display:inline;fill:none;fill-rule:evenodd;stroke:#000000;stroke-width:5.625;stroke-linecap:round;stroke-linejoin:round;stroke-miterlimit:4;stroke-dasharray:none;stroke-opacity:1"
       d="m 497.74824,393.86495 c 0.75499,0.07 1.413,0.237 1.945,0.508 0.17499,0.09 0.335,0.189 0.48099,0.302 0.94401,0.73 1.28601,1.983 0.76001,3.987 -1.02701,3.903 -5.44001,6.14 -7.53701,6.935 -4.34299,1.573 -7.56199,-2.009 -5.08099,-5.858 1.551,-2.405 4.242,-5.074 7.417,-5.73 0.215,-0.04 0.43299,-0.08 0.654,-0.105 0.264,-0.03 0.531,-0.05 0.801,-0.05 0.612,0 1.23699,0.08 1.871,0.255"
       id="path12351-7-1-4-0"
       inkscape:connector-curvature="0"
       sodipodi:nodetypes="cssscssssc" />
  </g>
</svg>
