<?xml version="1.0" encoding="UTF-8" standalone="no"?>
<!-- Created with Inkscape (http://www.inkscape.org/) -->

<svg
   xmlns:dc="http://purl.org/dc/elements/1.1/"
   xmlns:cc="http://creativecommons.org/ns#"
   xmlns:rdf="http://www.w3.org/1999/02/22-rdf-syntax-ns#"
   xmlns:svg="http://www.w3.org/2000/svg"
   xmlns="http://www.w3.org/2000/svg"
   xmlns:sodipodi="http://sodipodi.sourceforge.net/DTD/sodipodi-0.dtd"
   xmlns:inkscape="http://www.inkscape.org/namespaces/inkscape"
   width="342mm"
   height="210mm"
   viewBox="0 0 1211.811 744.09448"
   id="svg2"
   version="1.1"
   inkscape:version="0.92.3 (2405546, 2018-03-11)"
   sodipodi:docname="DEK Deutsche Einheitskurzschrift - Verkehrsschrift - Schokoladenkekse.svg">
  <defs
     id="defs4">
    <pattern
       y="0"
       x="0"
       height="6"
       width="6"
       patternUnits="userSpaceOnUse"
       id="EMFhbasepattern" />
  </defs>
  <sodipodi:namedview
     id="base"
     pagecolor="#ffffff"
     bordercolor="#666666"
     borderopacity="1.0"
     inkscape:pageopacity="0.0"
     inkscape:pageshadow="2"
     inkscape:zoom="0.49497475"
     inkscape:cx="1137.9313"
     inkscape:cy="610.23307"
     inkscape:document-units="px"
     inkscape:current-layer="layer2"
     showgrid="false"
     inkscape:window-width="1920"
     inkscape:window-height="1017"
     inkscape:window-x="1592"
     inkscape:window-y="-8"
     inkscape:window-maximized="1"
     showguides="true"
     inkscape:guide-bbox="true" />
  <metadata
     id="metadata7">
    <rdf:RDF>
      <cc:Work
         rdf:about="">
        <dc:format>image/svg+xml</dc:format>
        <dc:type
           rdf:resource="http://purl.org/dc/dcmitype/StillImage" />
        <dc:title></dc:title>
      </cc:Work>
    </rdf:RDF>
  </metadata>
  <g
     inkscape:label="Grundlinien"
     inkscape:groupmode="layer"
     id="layer1"
     transform="translate(0,-308.26772)"
     sodipodi:insensitive="true">
    <path
       style="fill:none;fill-rule:evenodd;stroke:#969696;stroke-width:1.875;stroke-linecap:round;stroke-linejoin:miter;stroke-miterlimit:4;stroke-dasharray:none;stroke-opacity:1"
       d="M 57.556226,742.24566 H 1174.9898"
       id="path3336"
       inkscape:connector-curvature="0"
       sodipodi:nodetypes="cc" />
    <path
       style="fill:none;fill-rule:evenodd;stroke:#000000;stroke-width:0.9375;stroke-linecap:round;stroke-linejoin:miter;stroke-miterlimit:2;stroke-dasharray:3.74999998, 7.49999996;stroke-dashoffset:0;stroke-opacity:1"
       d="M 58.279456,844.14792 H 1175.713"
       id="path3336-4"
       inkscape:connector-curvature="0"
       sodipodi:nodetypes="cc" />
    <path
       style="fill:none;fill-rule:evenodd;stroke:#000000;stroke-width:0.9375;stroke-linecap:round;stroke-linejoin:miter;stroke-miterlimit:2;stroke-dasharray:3.74999998, 7.49999996;stroke-dashoffset:0;stroke-opacity:1"
       d="M 58.279456,641.7697 H 1175.713"
       id="path3336-7"
       inkscape:connector-curvature="0"
       sodipodi:nodetypes="cc" />
    <path
       style="fill:none;fill-rule:evenodd;stroke:#000000;stroke-width:0.9375;stroke-linecap:round;stroke-linejoin:miter;stroke-miterlimit:2;stroke-dasharray:3.74999998, 7.49999996;stroke-dashoffset:0;stroke-opacity:1"
       d="M 58.279456,540.58062 H 1175.713"
       id="path3336-2"
       inkscape:connector-curvature="0"
       sodipodi:nodetypes="cc" />
  </g>
  <g
     inkscape:groupmode="layer"
     id="layer2"
     inkscape:label="Stenozeichen"
     style="display:inline">
    <path
       style="display:inline;fill:none;fill-rule:evenodd;stroke:#060000;stroke-width:5.625;stroke-linecap:round;stroke-linejoin:round;stroke-miterlimit:4;stroke-dasharray:none;stroke-opacity:1"
       d="m 163.41245,439.26475 c -16.60185,4.90969 -34.82655,16.05844 -49.32748,27.35764 -32.485988,23.234 -40.240988,52.663 -37.963988,60.01 0.933,3.012 16.314,22.901 59.803998,-38.095 26.944,-36.888 54.63901,-73.401 69.336,-116.41301 10.14787,-30.051 -1.40299,-56.687 -44.447,-11.555"
       id="path12351-7-1-8-9-4-52"
       inkscape:connector-curvature="0"
       sodipodi:nodetypes="ccsccc" />
    <path
       style="display:inline;fill:none;fill-rule:evenodd;stroke:#000000;stroke-width:5.625;stroke-linecap:round;stroke-linejoin:miter;stroke-miterlimit:4;stroke-dasharray:none;stroke-opacity:1"
       d="m 460.91155,430.75116 138.3221,-0.66964"
       id="path22233"
       inkscape:connector-curvature="0"
       sodipodi:nodetypes="cc" />
    <path
       id="path827"
       d="m 605.59305,418.03485 c 0.75,0.075 1.425,0.225 1.95,0.44999 0.15,0.15 0.3,0.225 0.45,0.3 0.975,0.75 1.3499,2.02499 0.75,4.04997 -0.975,3.89998 -5.4,6.07496 -7.5,6.89995 -4.3499,1.57499 -7.5749,-2.02497 -5.0999,-5.84996 1.5749,-2.39998 4.2749,-5.09996 7.4249,-5.69995 0.225,-0.075 0.45,-0.075 0.675,-0.15 0.225,0 0.525,0 0.825,0 0.6,0 1.2,0.075 1.8,0.225"
       style="display:inline;fill:none;stroke:#000000;stroke-width:5.62495899px;stroke-linecap:round;stroke-linejoin:round;stroke-miterlimit:4;stroke-dasharray:none;stroke-opacity:1"
       inkscape:connector-curvature="0" />
    <path
       style="display:inline;fill:none;fill-rule:evenodd;stroke:#000000;stroke-width:5.625;stroke-linecap:round;stroke-linejoin:round;stroke-miterlimit:4;stroke-dasharray:none;stroke-opacity:1"
       d="m 600.41691,430.14905 c 6.62912,2.6043 12.45901,-2.77854 22.45685,-8.10188 3.86759,-2.05931 8.18177,-4.35771 12.70925,-6.77205 23.04511,-12.28911 51.61673,-27.58177 54.95225,-29.63383 7.2435,-4.4563 15.0917,-8.99376 20.1616,-13.43369 12.8071,-11.21554 18.5689,-26.08169 16.7262,-30.92426 -2.7649,-7.26638 -34.6698,-8.62736 -58.4871,30.69081 -26.3226,43.06287 -17.6539,60.3256 -4.2124,58.57149 9.12382,0.77124 35.42239,-5.19518 43.82024,-8.6471"
       id="path12351-7-1"
       inkscape:connector-curvature="0"
       sodipodi:nodetypes="csssssccc" />
    <path
       style="display:inline;fill:none;fill-rule:evenodd;stroke:#000000;stroke-width:4.6875;stroke-linecap:round;stroke-linejoin:miter;stroke-miterlimit:4;stroke-dasharray:none;stroke-opacity:1"
       d="m 707.55056,342.59154 c -30.3267,19.18047 -39.758,50.46722 -52.1509,79.04164"
       id="path2933"
       inkscape:connector-curvature="0"
       sodipodi:nodetypes="cc" />
    <path
       style="display:inline;fill:none;fill-rule:evenodd;stroke:#000000;stroke-width:4.6875;stroke-linecap:round;stroke-linejoin:miter;stroke-miterlimit:4;stroke-dasharray:none;stroke-opacity:1"
       d="m 700.51936,342.59153 c -17.8947,10.39473 -41.0658,45.05014 -46.5402,68.6384"
       id="path2933-8"
       inkscape:connector-curvature="0"
       sodipodi:nodetypes="cc" />
    <path
       style="display:inline;fill:none;fill-rule:evenodd;stroke:#000000;stroke-width:2.8125;stroke-linecap:round;stroke-linejoin:miter;stroke-miterlimit:4;stroke-dasharray:none;stroke-opacity:1"
       d="m 661.13746,410.16275 c -3.9626,10.7187 -6.405,18.83575 3.5861,20.38289"
       id="path2933-6"
       inkscape:connector-curvature="0"
       sodipodi:nodetypes="cc" />
    <path
       style="display:inline;fill:none;fill-rule:evenodd;stroke:#000000;stroke-width:2.8125;stroke-linecap:round;stroke-linejoin:miter;stroke-miterlimit:4;stroke-dasharray:none;stroke-opacity:1"
       d="m 721.94796,339.32703 c -7.4129,-2.36513 -11.0162,2.18414 -15.8204,5.18973"
       id="path2933-6-4"
       inkscape:connector-curvature="0"
       sodipodi:nodetypes="cc" />
    <path
       style="display:inline;fill:none;fill-rule:evenodd;stroke:#000000;stroke-width:4.6875;stroke-linecap:round;stroke-linejoin:miter;stroke-miterlimit:4;stroke-dasharray:none;stroke-opacity:1"
       d="m 697.08376,347.35079 c -28.0304,20.49263 -28.8764,42.20943 -43.391,69.57146"
       id="path2933-4"
       inkscape:connector-curvature="0"
       sodipodi:nodetypes="cc" />
    <path
       style="display:inline;fill:none;fill-rule:evenodd;stroke:#000000;stroke-width:5.625;stroke-linecap:round;stroke-linejoin:round;stroke-miterlimit:4;stroke-dasharray:none;stroke-opacity:1"
       d="m 163.41245,439.26475 c 11.38393,-5.35714 252.13211,-52.32972 252.13211,-52.32972"
       id="path4752-1-9-02-8-0-5"
       inkscape:connector-curvature="0"
       sodipodi:nodetypes="cc" />
    <path
       style="display:inline;fill:none;fill-rule:evenodd;stroke:#000000;stroke-width:5.625;stroke-linecap:round;stroke-linejoin:round;stroke-miterlimit:4;stroke-dasharray:none;stroke-opacity:1"
       d="m 415.54456,386.93503 c 30.13949,-4.01877 52.89102,7.49122 45.36699,43.81613"
       id="path4752-1-24-66-3"
       inkscape:connector-curvature="0"
       sodipodi:nodetypes="cc" />
    <path
       id="path877"
       d="m 708.5438,421.89854 c 13.84987,-4.82986 45.5395,-21.45562 60.97189,-21.65667 15.97488,-0.675 16.57752,31.30959 34.89351,30.67477 13.56156,1.11429 20.13738,-9.46185 31.92842,-19.54931"
       style="fill:none;stroke:#000000;stroke-width:5.62495852px;stroke-linecap:round;stroke-linejoin:round;stroke-miterlimit:4;stroke-dasharray:none;stroke-opacity:1"
       inkscape:connector-curvature="0"
       sodipodi:nodetypes="cccc" />
    <path
       style="display:inline;fill:none;fill-rule:evenodd;stroke:#000000;stroke-width:5.625;stroke-linecap:round;stroke-linejoin:round;stroke-miterlimit:4;stroke-dasharray:none;stroke-opacity:1"
       d="m 836.33762,411.36733 c 14.88022,-14.05188 30.05982,-22.43679 43.29249,-25.63169 28.16937,-6.80124 47.51582,9.91698 36.36925,45.55341"
       id="path4752-1-1"
       inkscape:connector-curvature="0"
       sodipodi:nodetypes="csc" />
    <path
       style="display:inline;fill:none;fill-rule:evenodd;stroke:#000000;stroke-width:5.625;stroke-linecap:round;stroke-linejoin:round;stroke-miterlimit:4;stroke-dasharray:none;stroke-opacity:1"
       d="m 915.99936,431.28905 c 51.70428,-61.52415 139.56514,-58.38701 121.11514,0.599 -0.377,1.204 47.4288,-37.83765 47.4288,-37.83765"
       id="path4752-1-1-8"
       inkscape:connector-curvature="0"
       sodipodi:nodetypes="csc" />
    <ellipse
       style="display:inline;fill:none;fill-opacity:1;stroke:#000000;stroke-width:5.625;stroke-linecap:round;stroke-linejoin:round;stroke-miterlimit:4;stroke-dasharray:none;stroke-dashoffset:0;stroke-opacity:1;paint-order:stroke fill markers"
       id="path44014-1-3-5-4-20-28-3"
       cx="619.94366"
       cy="995.68823"
       rx="25.728558"
       ry="20.371416"
       transform="rotate(-37.736319)" />
    <path
       style="display:inline;fill:none;fill-rule:evenodd;stroke:#000000;stroke-width:5.625;stroke-linecap:round;stroke-linejoin:round;stroke-miterlimit:4;stroke-dasharray:none;stroke-opacity:1"
       d="m 1136.0281,360.70423 -45.1818,28.77926"
       id="path851-7-8-7-6"
       inkscape:connector-curvature="0"
       sodipodi:nodetypes="cc" />
  </g>
</svg>
