<?xml version="1.0" encoding="UTF-8" standalone="no"?>
<!-- Created with Inkscape (http://www.inkscape.org/) -->

<svg
   xmlns:dc="http://purl.org/dc/elements/1.1/"
   xmlns:cc="http://creativecommons.org/ns#"
   xmlns:rdf="http://www.w3.org/1999/02/22-rdf-syntax-ns#"
   xmlns:svg="http://www.w3.org/2000/svg"
   xmlns="http://www.w3.org/2000/svg"
   xmlns:sodipodi="http://sodipodi.sourceforge.net/DTD/sodipodi-0.dtd"
   xmlns:inkscape="http://www.inkscape.org/namespaces/inkscape"
   width="297mm"
   height="210mm"
   viewBox="0 0 1052.3622 744.09448"
   id="svg2"
   version="1.1"
   inkscape:version="0.92.3 (2405546, 2018-03-11)"
   sodipodi:docname="DEK Deutsche Einheitskurzschrift - Verkehrsschrift - Spamfilter.svg">
  <defs
     id="defs4" />
  <sodipodi:namedview
     id="base"
     pagecolor="#ffffff"
     bordercolor="#666666"
     borderopacity="1.0"
     inkscape:pageopacity="0.0"
     inkscape:pageshadow="2"
     inkscape:zoom="0.98994949"
     inkscape:cx="604.90252"
     inkscape:cy="391.53941"
     inkscape:document-units="px"
     inkscape:current-layer="layer2"
     showgrid="false"
     inkscape:window-width="1920"
     inkscape:window-height="1017"
     inkscape:window-x="1592"
     inkscape:window-y="-8"
     inkscape:window-maximized="1"
     showguides="true"
     inkscape:guide-bbox="true" />
  <metadata
     id="metadata7">
    <rdf:RDF>
      <cc:Work
         rdf:about="">
        <dc:format>image/svg+xml</dc:format>
        <dc:type
           rdf:resource="http://purl.org/dc/dcmitype/StillImage" />
        <dc:title></dc:title>
      </cc:Work>
    </rdf:RDF>
  </metadata>
  <g
     inkscape:label="Grundlinien"
     inkscape:groupmode="layer"
     id="layer1"
     transform="translate(0,-308.26772)"
     sodipodi:insensitive="true">
    <path
       style="fill:none;fill-rule:evenodd;stroke:#969696;stroke-width:1.875;stroke-linecap:round;stroke-linejoin:miter;stroke-miterlimit:4;stroke-dasharray:none;stroke-opacity:1"
       d="M 57.556226,742.24566 H 1006.4206"
       id="path3336"
       inkscape:connector-curvature="0"
       sodipodi:nodetypes="cc" />
    <path
       style="fill:none;fill-rule:evenodd;stroke:#000000;stroke-width:0.9375;stroke-linecap:round;stroke-linejoin:miter;stroke-miterlimit:2;stroke-dasharray:3.74999998, 7.49999996;stroke-dashoffset:0;stroke-opacity:1"
       d="M 58.279456,844.14792 H 1007.1438"
       id="path3336-4"
       inkscape:connector-curvature="0"
       sodipodi:nodetypes="cc" />
    <path
       style="fill:none;fill-rule:evenodd;stroke:#000000;stroke-width:0.9375;stroke-linecap:round;stroke-linejoin:miter;stroke-miterlimit:2;stroke-dasharray:3.74999998, 7.49999996;stroke-dashoffset:0;stroke-opacity:1"
       d="M 58.279456,641.7697 H 1007.1438"
       id="path3336-7"
       inkscape:connector-curvature="0"
       sodipodi:nodetypes="cc" />
    <path
       style="fill:none;fill-rule:evenodd;stroke:#000000;stroke-width:0.9375;stroke-linecap:round;stroke-linejoin:miter;stroke-miterlimit:2;stroke-dasharray:3.74999998, 7.49999996;stroke-dashoffset:0;stroke-opacity:1"
       d="M 58.279456,540.58062 H 1007.1438"
       id="path3336-2"
       inkscape:connector-curvature="0"
       sodipodi:nodetypes="cc" />
  </g>
  <g
     inkscape:groupmode="layer"
     id="layer2"
     inkscape:label="Stenozeichen"
     style="display:inline">
    <path
       style="display:inline;fill:none;fill-rule:evenodd;stroke:#000000;stroke-width:5.625;stroke-linecap:round;stroke-linejoin:round;stroke-miterlimit:4;stroke-dasharray:none;stroke-opacity:1"
       d="m 540.3819,397.69103 c 0,0 103.06711,-89.40001 121.18548,-109.4974 12.15953,-13.4877 36.09017,-41.82639 33.03651,-49.85199 -5.47548,-14.39058 -40.249,8.89 -87.434,86.78001 -41.2,71.17 -46.235,101.22 -34.497,105.77 2.894,1.13 6.809,0.7 11.453,-1.04 3.216,-1.21 6.781,-3.04 10.599,-5.43 26.54,-18.76 48.68,-52.61 67.544,-80.13"
       id="path12351-7-1-9-5"
       inkscape:connector-curvature="0"
       sodipodi:nodetypes="csscsscc" />
    <path
       style="display:inline;fill:none;fill-rule:evenodd;stroke:#030002;stroke-width:5.625;stroke-linecap:round;stroke-linejoin:round;stroke-miterlimit:4;stroke-dasharray:none;stroke-opacity:1"
       d="m 658.88234,335.10686 c 0.983,0.1 1.84,0.308 2.53401,0.661 0.22599,0.116 0.43599,0.247 0.62599,0.394 1.22801,0.949 1.67501,2.582 0.989,5.191 -1.337,5.083 -7.083,7.996 -9.815,9.031 -5.656,2.048 -9.847,-2.616 -6.616,-7.629 2.02,-3.132 5.524,-6.607 9.658,-7.461 0.281,-0.06 0.565,-0.104 0.851,-0.137 0.345,-0.04 0.693,-0.06 1.045,-0.06 0.796,0 1.61,0.104 2.436,0.332"
       id="path12351-7-1-4-58-7-2-1-7-79-8"
       inkscape:connector-curvature="0"
       sodipodi:nodetypes="cssscssssc" />
    <path
       style="display:inline;fill:none;fill-rule:evenodd;stroke:#000000;stroke-width:5.625;stroke-linecap:round;stroke-linejoin:round;stroke-miterlimit:4;stroke-dasharray:none;stroke-opacity:1"
       d="m 656.92422,349.33599 c 13.08064,5.49295 115.86171,-168.27027 115.86171,-168.27027 l 14.85537,49.87053"
       id="path12351-7-1-4-3-05-69-7"
       inkscape:connector-curvature="0"
       sodipodi:nodetypes="ccc" />
    <path
       style="display:inline;fill:none;fill-rule:evenodd;stroke:#000000;stroke-width:5.625;stroke-linecap:round;stroke-linejoin:round;stroke-miterlimit:4;stroke-dasharray:none;stroke-opacity:1"
       d="M 475.53959,347.74603 C 463.71853,357.42744 409.561,400.53179 395.83572,411.925"
       id="path12351-7-1-8-02-8-38-7"
       inkscape:connector-curvature="0"
       sodipodi:nodetypes="cc" />
    <path
       style="display:inline;fill:none;fill-rule:evenodd;stroke:#000000;stroke-width:5.625;stroke-linecap:round;stroke-linejoin:round;stroke-miterlimit:4;stroke-dasharray:none;stroke-opacity:1"
       d="m 395.83572,411.925 c -18.55315,14.74184 -62.01751,45.30045 -79.56903,67.41192 -15.74267,20.03968 -26.13691,40.31686 -21.60442,48.80128 4.90722,9.18588 28.367,7.65 48.269,-24.342 8.514,-13.68401 17.704,-31.013 19.919,-61.79002 5.008,-69.59099 41.08872,-122.10655 67.986,-104.35699 7.55629,4.9864 -6.38935,24.39437 -24.48844,37.77425 -14.45718,10.68757 -25.08124,16.07875 -34.45811,19.21567"
       id="path12351-7-1-8-6-5"
       inkscape:connector-curvature="0"
       sodipodi:nodetypes="ccsssssc" />
    <path
       style="display:inline;fill:none;fill-rule:evenodd;stroke:#000000;stroke-width:5.625;stroke-linecap:round;stroke-linejoin:round;stroke-miterlimit:4;stroke-dasharray:none;stroke-opacity:1"
       d="m 475.53959,347.74603 c 23.7263,-19.158 60.9473,-14.639 37.4823,14.372 -27.3753,33.846 -45.4563,50.228 -39.4403,63.891 4.204,9.55 23.1393,7.19599 36.4993,-3.67 l 30.30101,-24.648"
       id="path844-52-8-9"
       inkscape:connector-curvature="0"
       sodipodi:nodetypes="csssc" />
    <path
       style="display:inline;fill:none;fill-rule:evenodd;stroke:#000000;stroke-width:5.625;stroke-linecap:round;stroke-linejoin:miter;stroke-miterlimit:4;stroke-dasharray:none;stroke-opacity:1"
       d="m 513.86289,339.33103 c 14.535,10.118 4.342,27.836 -12.394,44.157 -14.3743,14.018 -23.3643,26.38 -29.5123,38.707"
       id="path1647-51-63"
       inkscape:connector-curvature="0"
       sodipodi:nodetypes="csc" />
    <path
       style="display:inline;fill:none;fill-rule:evenodd;stroke:#000000;stroke-width:5.625;stroke-linecap:round;stroke-linejoin:miter;stroke-miterlimit:4;stroke-dasharray:none;stroke-opacity:1"
       d="m 513.86289,339.33103 c 0.783,-1.119 3.882,6.116 0.736,14.242 -3.248,8.39 -12.84,17.777 -18.304,22.929 -10.7573,10.142 -30.5923,28.964 -24.3383,45.693"
       id="path1647-5-7-53"
       inkscape:connector-curvature="0"
       sodipodi:nodetypes="cssc" />
    <path
       style="display:inline;fill:none;fill-rule:evenodd;stroke:#000000;stroke-width:2.8125;stroke-linecap:round;stroke-linejoin:miter;stroke-miterlimit:4;stroke-dasharray:none;stroke-opacity:1"
       d="m 505.31289,337.62203 c 11.256,1.325 8.788,6.515 9.081,10.975"
       id="path1647-0-8-0"
       inkscape:connector-curvature="0"
       sodipodi:nodetypes="cc" />
    <path
       style="display:inline;fill:none;fill-rule:evenodd;stroke:#000000;stroke-width:2.8125;stroke-linecap:round;stroke-linejoin:miter;stroke-miterlimit:4;stroke-dasharray:none;stroke-opacity:1"
       d="m 477.07759,414.90503 c -2.696,4.92 -3.763,12.04 2.312,14.485"
       id="path1647-1-3-4"
       inkscape:connector-curvature="0"
       sodipodi:nodetypes="cc" />
    <path
       style="display:inline;fill:none;fill-rule:evenodd;stroke:#000000;stroke-width:2.8125;stroke-linecap:round;stroke-linejoin:miter;stroke-miterlimit:4;stroke-dasharray:none;stroke-opacity:1"
       d="m 469.35959,416.24803 c -0.102,5.656 2.886,11.511 4.864,13.146"
       id="path1647-1-1-3-3"
       inkscape:connector-curvature="0"
       sodipodi:nodetypes="cc" />
  </g>
</svg>
