<?xml version="1.0" encoding="UTF-8" standalone="no"?>
<!-- Created with Inkscape (http://www.inkscape.org/) -->

<svg
   xmlns:dc="http://purl.org/dc/elements/1.1/"
   xmlns:cc="http://creativecommons.org/ns#"
   xmlns:rdf="http://www.w3.org/1999/02/22-rdf-syntax-ns#"
   xmlns:svg="http://www.w3.org/2000/svg"
   xmlns="http://www.w3.org/2000/svg"
   xmlns:sodipodi="http://sodipodi.sourceforge.net/DTD/sodipodi-0.dtd"
   xmlns:inkscape="http://www.inkscape.org/namespaces/inkscape"
   width="297mm"
   height="210mm"
   viewBox="0 0 1052.3622 744.09448"
   id="svg2"
   version="1.1"
   inkscape:version="0.92.3 (2405546, 2018-03-11)"
   sodipodi:docname="DEK Deutsche Einheitskurzschrift - Verkehrsschrift - Autounfall.svg">
  <defs
     id="defs4" />
  <sodipodi:namedview
     id="base"
     pagecolor="#ffffff"
     bordercolor="#666666"
     borderopacity="1.0"
     inkscape:pageopacity="0.0"
     inkscape:pageshadow="2"
     inkscape:zoom="0.7"
     inkscape:cx="499.24789"
     inkscape:cy="526.62742"
     inkscape:document-units="px"
     inkscape:current-layer="layer2"
     showgrid="false"
     inkscape:window-width="1920"
     inkscape:window-height="1017"
     inkscape:window-x="1592"
     inkscape:window-y="-8"
     inkscape:window-maximized="1" />
  <metadata
     id="metadata7">
    <rdf:RDF>
      <cc:Work
         rdf:about="">
        <dc:format>image/svg+xml</dc:format>
        <dc:type
           rdf:resource="http://purl.org/dc/dcmitype/StillImage" />
        <dc:title></dc:title>
      </cc:Work>
    </rdf:RDF>
  </metadata>
  <g
     inkscape:label="Grundlinien"
     inkscape:groupmode="layer"
     id="layer1"
     transform="translate(0,-308.26772)"
     style="display:inline"
     sodipodi:insensitive="true">
    <path
       style="fill:none;fill-rule:evenodd;stroke:#969696;stroke-width:1.875;stroke-linecap:round;stroke-linejoin:miter;stroke-miterlimit:4;stroke-dasharray:none;stroke-opacity:1"
       d="M 57.556226,742.24566 H 1006.4206"
       id="path3336"
       inkscape:connector-curvature="0"
       sodipodi:nodetypes="cc" />
    <path
       style="fill:none;fill-rule:evenodd;stroke:#000000;stroke-width:0.9375;stroke-linecap:round;stroke-linejoin:miter;stroke-miterlimit:2;stroke-dasharray:3.74999998, 7.49999996;stroke-dashoffset:0;stroke-opacity:1"
       d="M 58.279456,844.14792 H 1007.1438"
       id="path3336-4"
       inkscape:connector-curvature="0"
       sodipodi:nodetypes="cc" />
    <path
       style="fill:none;fill-rule:evenodd;stroke:#000000;stroke-width:0.9375;stroke-linecap:round;stroke-linejoin:miter;stroke-miterlimit:2;stroke-dasharray:3.74999998, 7.49999996;stroke-dashoffset:0;stroke-opacity:1"
       d="M 58.279456,641.7697 H 1007.1438"
       id="path3336-7"
       inkscape:connector-curvature="0"
       sodipodi:nodetypes="cc" />
    <path
       style="fill:none;fill-rule:evenodd;stroke:#000000;stroke-width:0.9375;stroke-linecap:round;stroke-linejoin:miter;stroke-miterlimit:2;stroke-dasharray:3.74999998, 7.49999996;stroke-dashoffset:0;stroke-opacity:1"
       d="M 58.279456,540.58062 H 1007.1438"
       id="path3336-2"
       inkscape:connector-curvature="0"
       sodipodi:nodetypes="cc" />
  </g>
  <g
     inkscape:groupmode="layer"
     id="layer2"
     inkscape:label="Stenozeichen">
    <path
       style="display:inline;fill:none;fill-rule:evenodd;stroke:#000000;stroke-width:5.625;stroke-linecap:round;stroke-linejoin:round;stroke-miterlimit:4;stroke-dasharray:none;stroke-opacity:1"
       d="m 560.30235,481.37469 c 19.75907,-28.08584 111.89098,-141.9153 124.72788,-147.14357 9.24051,-3.76351 47.62183,-29.63758 58.23412,-42.21806 18.32919,-21.72858 36.68945,-44.16142 33.30984,-53.04505 -5.47486,-14.3912 -40.25,8.89 -87.435,86.78001 -30.55731,52.78392 -41.22051,79.1962 -39.90152,93.11649 0.55866,5.89583 3.26676,8.87803 7.52318,9.43135 8.5733,1.11449 48.52414,6.54211 78.00657,-5.24959"
       id="path12351-7-1-9"
       inkscape:connector-curvature="0"
       sodipodi:nodetypes="cssscssc" />
    <path
       style="display:inline;fill:none;fill-opacity:1;fill-rule:evenodd;stroke:#000000;stroke-width:5.625;stroke-linecap:round;stroke-linejoin:round;stroke-miterlimit:4;stroke-dasharray:none;stroke-opacity:1"
       d="m 713.18627,408.17867 c 1.19508,0.11871 2.2382,0.37466 3.0803,0.8041 0.27542,0.14088 0.53027,0.2995 0.76136,0.47837 1.49267,1.15441 2.0356,3.13871 1.20142,6.31004 -1.62405,6.17833 -8.60934,9.72007 -11.93025,10.97752 -6.87449,2.48973 -11.96982,-3.17958 -8.04108,-9.27164 2.45506,-3.80812 6.71462,-8.03223 11.73871,-9.07092 0.34191,-0.0713 0.68697,-0.12667 1.03521,-0.16652 0.41947,-0.0475 0.8421,-0.0728 1.26949,-0.0744 0.96872,-8.2e-4 1.95803,0.12666 2.96158,0.40345"
       id="path12351-7-1-4-7-1-2-3"
       inkscape:connector-curvature="0"
       sodipodi:nodetypes="cssscssssc" />
    <path
       style="display:inline;fill:none;fill-opacity:1;fill-rule:evenodd;stroke:#000000;stroke-width:10.3125;stroke-linecap:round;stroke-linejoin:round;stroke-miterlimit:4;stroke-dasharray:none;stroke-opacity:1"
       d="m 710.77182,413.66813 c 0.56507,0.0561 1.05831,0.17716 1.45649,0.3802 0.13023,0.0666 0.25073,0.14163 0.36,0.2262 0.70578,0.54585 0.96251,1.48412 0.56808,2.98364 -0.76792,2.92135 -4.07085,4.59604 -5.6411,5.19062 -3.25054,1.17724 -5.65981,-1.50343 -3.80215,-4.38401 1.16085,-1.80063 3.17495,-3.79796 5.55054,-4.28909 0.16166,-0.0337 0.32481,-0.0599 0.48948,-0.0787 0.19835,-0.0225 0.39819,-0.0344 0.60027,-0.0352 0.45805,-3.8e-4 0.92583,0.0599 1.40035,0.19078"
       id="path12351-7-1-4-7-1-2-1-9"
       inkscape:connector-curvature="0"
       sodipodi:nodetypes="cssscssssc" />
    <path
       style="display:inline;fill:none;fill-opacity:1;fill-rule:evenodd;stroke:#000000;stroke-width:4.6875;stroke-linecap:round;stroke-linejoin:round;stroke-miterlimit:4;stroke-dasharray:none;stroke-opacity:1"
       d="m 742.35256,410.05941 c 0.79157,0.0786 1.48249,0.24816 2.04026,0.5326 0.18243,0.0933 0.35123,0.19838 0.5043,0.31686 0.98868,0.76462 1.3483,2.07894 0.79577,4.1795 -1.07571,4.09228 -5.70248,6.43817 -7.90211,7.27106 -4.55338,1.6491 -7.92832,-2.10601 -5.32608,-6.14115 1.62613,-2.52235 4.44749,-5.32021 7.77524,-6.00821 0.22647,-0.0472 0.45502,-0.0839 0.68568,-0.11029 0.27784,-0.0315 0.55777,-0.0482 0.84086,-0.0493 0.64164,-5.5e-4 1.29692,0.0839 1.96163,0.26723"
       id="path12351-7-1-4-7-1-2-0-3"
       inkscape:connector-curvature="0"
       sodipodi:nodetypes="cssscssssc" />
    <path
       style="display:inline;fill:none;fill-rule:evenodd;stroke:#000000;stroke-width:5.625;stroke-linecap:round;stroke-linejoin:miter;stroke-miterlimit:4;stroke-dasharray:none;stroke-opacity:1"
       d="m 560.30235,481.37469 c -2.679,4.51998 -5.825,10.2 -8.169,16.39998 -12.171,28.49002 -2.291,35.39002 10.911,35.72002 15.397,0.39 28.901,-12.16 42.108,-29.51001"
       id="path822-8-5-8-8"
       inkscape:connector-curvature="0"
       sodipodi:nodetypes="ccsc" />
    <path
       style="display:inline;fill:none;fill-rule:evenodd;stroke:#00000c;stroke-width:5.625;stroke-linecap:round;stroke-linejoin:round;stroke-miterlimit:4;stroke-dasharray:none;stroke-opacity:1"
       d="m 387.29322,382.47853 -55.81,97.235"
       id="path844-5-6-6-9-3-1"
       inkscape:connector-curvature="0"
       sodipodi:nodetypes="cc" />
    <path
       style="display:inline;fill:none;fill-rule:evenodd;stroke:#00000a;stroke-width:5.625;stroke-linecap:round;stroke-linejoin:round;stroke-miterlimit:4;stroke-dasharray:none;stroke-opacity:1"
       d="m 387.29322,382.47853 -10.573,0.03"
       id="path844-5-6-6-9-9-5-9"
       inkscape:connector-curvature="0"
       sodipodi:nodetypes="cc" />
    <path
       style="display:inline;fill:none;fill-rule:evenodd;stroke:#00000c;stroke-width:5.625;stroke-linecap:round;stroke-linejoin:round;stroke-miterlimit:4;stroke-dasharray:none;stroke-opacity:1"
       d="m 381.75822,382.49753 -55.81,97.234"
       id="path844-5-6-6-9-0-5-7"
       inkscape:connector-curvature="0"
       sodipodi:nodetypes="cc" />
    <path
       style="display:inline;fill:none;fill-rule:evenodd;stroke:#00000c;stroke-width:5.625;stroke-linecap:round;stroke-linejoin:round;stroke-miterlimit:4;stroke-dasharray:none;stroke-opacity:1"
       d="m 331.48322,479.71353 -10.572,0.03"
       id="path844-5-6-6-9-9-1-1-3"
       inkscape:connector-curvature="0"
       sodipodi:nodetypes="cc" />
    <path
       style="display:inline;fill:none;fill-rule:evenodd;stroke:#000000;stroke-width:5.625;stroke-linecap:round;stroke-linejoin:round;stroke-miterlimit:4;stroke-dasharray:none;stroke-opacity:1"
       d="m 305.65753,431.54774 71.06269,-49.03621 -55.809,97.235 10.973,-0.12099 179.43546,-3.61551"
       id="path844-99-4-6-2"
       inkscape:connector-curvature="0"
       sodipodi:nodetypes="ccccc" />
  </g>
</svg>
