<?xml version="1.0" encoding="UTF-8" standalone="no"?>
<!-- Created with Inkscape (http://www.inkscape.org/) -->

<svg
   xmlns:dc="http://purl.org/dc/elements/1.1/"
   xmlns:cc="http://creativecommons.org/ns#"
   xmlns:rdf="http://www.w3.org/1999/02/22-rdf-syntax-ns#"
   xmlns:svg="http://www.w3.org/2000/svg"
   xmlns="http://www.w3.org/2000/svg"
   xmlns:sodipodi="http://sodipodi.sourceforge.net/DTD/sodipodi-0.dtd"
   xmlns:inkscape="http://www.inkscape.org/namespaces/inkscape"
   width="297mm"
   height="210mm"
   viewBox="0 0 1052.3622 744.09448"
   id="svg2"
   version="1.1"
   inkscape:version="0.92.3 (2405546, 2018-03-11)"
   sodipodi:docname="DEK Deutsche Einheitskurzschrift - Verkehrsschrift - Optimismus.svg">
  <defs
     id="defs4" />
  <sodipodi:namedview
     id="base"
     pagecolor="#ffffff"
     bordercolor="#666666"
     borderopacity="1.0"
     inkscape:pageopacity="0.0"
     inkscape:pageshadow="2"
     inkscape:zoom="0.35000001"
     inkscape:cx="1360.6486"
     inkscape:cy="1078.0359"
     inkscape:document-units="px"
     inkscape:current-layer="layer2"
     showgrid="false"
     inkscape:window-width="1920"
     inkscape:window-height="1017"
     inkscape:window-x="1592"
     inkscape:window-y="-8"
     inkscape:window-maximized="1"
     showguides="true"
     inkscape:guide-bbox="true" />
  <metadata
     id="metadata7">
    <rdf:RDF>
      <cc:Work
         rdf:about="">
        <dc:format>image/svg+xml</dc:format>
        <dc:type
           rdf:resource="http://purl.org/dc/dcmitype/StillImage" />
        <dc:title></dc:title>
      </cc:Work>
    </rdf:RDF>
  </metadata>
  <g
     inkscape:label="Grundlinien"
     inkscape:groupmode="layer"
     id="layer1"
     transform="translate(0,-308.26772)"
     sodipodi:insensitive="true">
    <path
       style="fill:none;fill-rule:evenodd;stroke:#969696;stroke-width:1.875;stroke-linecap:round;stroke-linejoin:miter;stroke-miterlimit:4;stroke-dasharray:none;stroke-opacity:1"
       d="M 57.556226,742.24566 H 1006.4206"
       id="path3336"
       inkscape:connector-curvature="0"
       sodipodi:nodetypes="cc" />
    <path
       style="fill:none;fill-rule:evenodd;stroke:#000000;stroke-width:0.9375;stroke-linecap:round;stroke-linejoin:miter;stroke-miterlimit:2;stroke-dasharray:3.74999998, 7.49999996;stroke-dashoffset:0;stroke-opacity:1"
       d="M 58.279456,844.14792 H 1007.1438"
       id="path3336-4"
       inkscape:connector-curvature="0"
       sodipodi:nodetypes="cc" />
    <path
       style="fill:none;fill-rule:evenodd;stroke:#000000;stroke-width:0.9375;stroke-linecap:round;stroke-linejoin:miter;stroke-miterlimit:2;stroke-dasharray:3.74999998, 7.49999996;stroke-dashoffset:0;stroke-opacity:1"
       d="M 58.279456,641.7697 H 1007.1438"
       id="path3336-7"
       inkscape:connector-curvature="0"
       sodipodi:nodetypes="cc" />
    <path
       style="fill:none;fill-rule:evenodd;stroke:#000000;stroke-width:0.9375;stroke-linecap:round;stroke-linejoin:miter;stroke-miterlimit:2;stroke-dasharray:3.74999998, 7.49999996;stroke-dashoffset:0;stroke-opacity:1"
       d="M 58.279456,540.58062 H 1007.1438"
       id="path3336-2"
       inkscape:connector-curvature="0"
       sodipodi:nodetypes="cc" />
  </g>
  <g
     inkscape:groupmode="layer"
     id="layer2"
     inkscape:label="Stenozeichen"
     style="display:inline">
    <path
       style="display:inline;fill:none;fill-rule:evenodd;stroke:#000000;stroke-width:5.625;stroke-linecap:round;stroke-linejoin:round;stroke-miterlimit:4;stroke-dasharray:none;stroke-opacity:1"
       d="m 555.95785,388.35396 c -29.75985,29.03932 -42.01399,39.44047 -61.84538,42.78193 -59.74461,8.16705 17.22236,-154.06865 98.84999,-196.42267"
       id="path844-64-3-0-7-2-3-6-8"
       inkscape:connector-curvature="0"
       sodipodi:nodetypes="ccc" />
    <path
       id="path873-7"
       d="m 555.95785,388.35396 55.23596,-52.27416 -55.05,95.76329"
       style="display:inline;fill:none;stroke:#000000;stroke-width:5.62496042px;stroke-linecap:round;stroke-linejoin:round;stroke-miterlimit:4;stroke-dasharray:none;stroke-opacity:1"
       inkscape:connector-curvature="0"
       sodipodi:nodetypes="ccc" />
    <path
       inkscape:connector-curvature="0"
       style="display:inline;fill:none;fill-opacity:1;stroke:#000000;stroke-width:5.62499952;stroke-linecap:round;stroke-linejoin:round;stroke-miterlimit:4;stroke-dasharray:none;stroke-dashoffset:0;stroke-opacity:1;paint-order:stroke fill markers"
       d="m 817.71229,295.82768 a 19.16073,25.076399 41.606879 0 1 -14.329,31.305 19.16073,25.076399 41.606879 0 1 -27.564,-6.84499 19.16073,25.076399 41.606879 0 1 14.329,-31.30701 19.16073,25.076399 41.606879 0 1 27.564,6.847 z"
       id="path44014-1-3-5-4-20-28-3-2-1-4-6-4" />
    <path
       inkscape:connector-curvature="0"
       style="display:inline;fill:none;fill-opacity:1;stroke:#000000;stroke-width:5.62499952;stroke-linecap:round;stroke-linejoin:round;stroke-miterlimit:4;stroke-dasharray:none;stroke-dashoffset:0;stroke-opacity:1;paint-order:stroke fill markers"
       d="m 899.07063,343.87812 a 19.16073,25.076399 41.606879 0 1 -14.329,31.305 19.16073,25.076399 41.606879 0 1 -27.564,-6.84499 19.16073,25.076399 41.606879 0 1 14.329,-31.30701 19.16073,25.076399 41.606879 0 1 27.564,6.847 z"
       id="path44014-1-3-5-4-20-28-3-2-1-4-6-7" />
    <path
       style="display:inline;fill:none;fill-rule:evenodd;stroke:#000000;stroke-width:5.62499905;stroke-linecap:round;stroke-linejoin:round;stroke-miterlimit:4;stroke-dasharray:none;stroke-opacity:1"
       d="m 781.90387,295.92096 c -14.19597,15.82013 -54.48822,65.87392 -69.049,76.07215 -7.8414,5.73801 -17.1147,9.20901 -24.4634,9.43001 -7.3249,0.828 -13.704,-1.797 -16.311,-7.38701 -7.233,-15.519 13.3088,-29.10699 37.6928,-58.55599 8.209,-9.91301 8.7681,-18.222 5.091,-23.40201 -1.533,-2.15799 -3.801,-3.773 -6.5559,-4.734 -2.634,-0.921 -5.7141,-1.241 -9.0251,-0.87099 -16.78347,2.30928 -30.85848,18.07821 -47.05728,36.2952 -10.3762,11.98 -80.07536,95.41808 -96.08218,109.07477"
       id="path851-7-8-7-6-4"
       inkscape:connector-curvature="0"
       sodipodi:nodetypes="cccssssccc" />
    <path
       style="display:inline;fill:none;fill-rule:evenodd;stroke:#000000;stroke-width:5.62499952;stroke-linecap:round;stroke-linejoin:round;stroke-miterlimit:4;stroke-dasharray:none;stroke-opacity:1"
       d="m 781.90387,295.92096 c 20.75095,-17.71393 43.25815,-36.31306 58.31012,-48.2322 6.48605,-5.13608 15.3387,-11.38795 25.6184,-13.095 3.3109,-0.37 6.391,-0.05 9.025,0.871 2.7549,0.961 5.0229,2.576 6.5559,4.734 3.6771,5.18 3.11747,13.48848 -5.091,23.402 -16.96166,20.4849 -32.23602,33.63873 -37.52878,44.97198 -1.35306,2.89728 -2.05379,5.67557 -1.9636,8.42695 0.0642,1.95826 0.52903,3.90289 1.44448,5.86707 1.1818,2.53565 3.1401,4.46111 5.61085,5.73102 2.97679,1.53001 15.15125,6.45372 39.2781,4.81749"
       id="path844-5-6-5-5-2"
       inkscape:connector-curvature="0"
       sodipodi:nodetypes="cscsssssssc" />
    <path
       style="display:inline;fill:none;fill-rule:evenodd;stroke:#000000;stroke-width:5.625;stroke-linecap:round;stroke-linejoin:round;stroke-miterlimit:4;stroke-dasharray:none;stroke-opacity:1"
       d="M 155.50812,431.04492 592.96246,234.71322"
       id="path844-5-6-95-9-8-05-2-7"
       inkscape:connector-curvature="0"
       sodipodi:nodetypes="cc" />
  </g>
</svg>
