<?xml version="1.0" encoding="UTF-8" standalone="no"?>
<!-- Created with Inkscape (http://www.inkscape.org/) -->

<svg
   xmlns:dc="http://purl.org/dc/elements/1.1/"
   xmlns:cc="http://creativecommons.org/ns#"
   xmlns:rdf="http://www.w3.org/1999/02/22-rdf-syntax-ns#"
   xmlns:svg="http://www.w3.org/2000/svg"
   xmlns="http://www.w3.org/2000/svg"
   xmlns:sodipodi="http://sodipodi.sourceforge.net/DTD/sodipodi-0.dtd"
   xmlns:inkscape="http://www.inkscape.org/namespaces/inkscape"
   width="297mm"
   height="210mm"
   viewBox="0 0 1052.3622 744.09448"
   id="svg2"
   version="1.1"
   inkscape:version="0.92.3 (2405546, 2018-03-11)"
   sodipodi:docname="DEK Deutsche Einheitskurzschrift - Verkehrsschrift - nochmal von vorne.svg">
  <defs
     id="defs4" />
  <sodipodi:namedview
     id="base"
     pagecolor="#ffffff"
     bordercolor="#666666"
     borderopacity="1.0"
     inkscape:pageopacity="0.0"
     inkscape:pageshadow="2"
     inkscape:zoom="0.98994949"
     inkscape:cx="424.35365"
     inkscape:cy="491.01325"
     inkscape:document-units="px"
     inkscape:current-layer="layer2"
     showgrid="false"
     inkscape:window-width="1920"
     inkscape:window-height="1017"
     inkscape:window-x="1592"
     inkscape:window-y="-8"
     inkscape:window-maximized="1"
     showguides="true"
     inkscape:guide-bbox="true" />
  <metadata
     id="metadata7">
    <rdf:RDF>
      <cc:Work
         rdf:about="">
        <dc:format>image/svg+xml</dc:format>
        <dc:type
           rdf:resource="http://purl.org/dc/dcmitype/StillImage" />
        <dc:title></dc:title>
      </cc:Work>
    </rdf:RDF>
  </metadata>
  <g
     inkscape:label="Grundlinien"
     inkscape:groupmode="layer"
     id="layer1"
     transform="translate(0,-308.26772)"
     style="display:inline"
     sodipodi:insensitive="true">
    <path
       style="fill:none;fill-rule:evenodd;stroke:#969696;stroke-width:1.875;stroke-linecap:round;stroke-linejoin:miter;stroke-miterlimit:4;stroke-dasharray:none;stroke-opacity:1"
       d="M 57.556226,742.24566 H 1006.4206"
       id="path3336"
       inkscape:connector-curvature="0"
       sodipodi:nodetypes="cc" />
    <path
       style="fill:none;fill-rule:evenodd;stroke:#000000;stroke-width:0.9375;stroke-linecap:round;stroke-linejoin:miter;stroke-miterlimit:2;stroke-dasharray:3.74999998, 7.49999996;stroke-dashoffset:0;stroke-opacity:1"
       d="M 58.279456,844.14792 H 1007.1438"
       id="path3336-4"
       inkscape:connector-curvature="0"
       sodipodi:nodetypes="cc" />
    <path
       style="fill:none;fill-rule:evenodd;stroke:#000000;stroke-width:0.9375;stroke-linecap:round;stroke-linejoin:miter;stroke-miterlimit:2;stroke-dasharray:3.74999998, 7.49999996;stroke-dashoffset:0;stroke-opacity:1"
       d="M 58.279456,641.7697 H 1007.1438"
       id="path3336-7"
       inkscape:connector-curvature="0"
       sodipodi:nodetypes="cc" />
    <path
       style="fill:none;fill-rule:evenodd;stroke:#000000;stroke-width:0.9375;stroke-linecap:round;stroke-linejoin:miter;stroke-miterlimit:2;stroke-dasharray:3.74999998, 7.49999996;stroke-dashoffset:0;stroke-opacity:1"
       d="M 58.279456,540.58062 H 1007.1438"
       id="path3336-2"
       inkscape:connector-curvature="0"
       sodipodi:nodetypes="cc" />
  </g>
  <g
     inkscape:groupmode="layer"
     id="layer2"
     inkscape:label="Buchstaben"
     style="display:inline">
    <path
       style="display:inline;fill:none;fill-rule:evenodd;stroke:#000000;stroke-width:5.625;stroke-linecap:round;stroke-linejoin:round;stroke-miterlimit:4;stroke-dasharray:none;stroke-opacity:1"
       d="m 264.06122,342.02 c -21.78141,3.12336 -38.68491,-3.13674 -57.76999,-23.14283 -16.1969,-15.44077 -9.0101,-35.53846 11.6555,-61.77664"
       id="path844-5-9-31-47-9-2"
       inkscape:connector-curvature="0"
       sodipodi:nodetypes="ccc" />
    <path
       style="display:inline;fill:none;fill-rule:evenodd;stroke:#000000;stroke-width:5.625;stroke-linecap:round;stroke-linejoin:round;stroke-miterlimit:4;stroke-dasharray:none;stroke-opacity:1"
       d="m 264.06122,342.02 c 7.49492,-1.82164 19.85105,-4.19576 26.45339,-5.64883 17.45649,-3.84189 35.67403,2.65122 18.13125,24.33952 -27.37688,33.84629 -45.45701,50.228 -39.441,63.891 1.5444,3.5075 4.87142,5.11409 9.20019,5.31303 13.56675,0.91594 30.8076,-0.0389 30.8076,-0.0389"
       id="path844-8-6"
       inkscape:connector-curvature="0"
       sodipodi:nodetypes="cssscc" />
    <g
       style="display:inline;fill:#eb0000;fill-opacity:1;stroke:#000000;stroke-opacity:1"
       id="g3400-0-9-1-4"
       transform="matrix(1.7715894,0,0,1.7715894,-976.83838,77.969419)">
      <path
         sodipodi:nodetypes="cssscssssc"
         inkscape:connector-curvature="0"
         id="path12351-7-1-4-7-1-6-5-4-1"
         d="m 732.10849,185.47164 c 0.7552,0.075 1.4134,0.2367 1.9458,0.508 0.1742,0.089 0.3349,0.1892 0.4811,0.3022 0.9433,0.7293 1.2859,1.9829 0.7591,3.9864 -1.0262,3.9032 -5.4392,6.1407 -7.537,6.9351 -4.3429,1.5729 -7.5618,-2.0087 -5.0803,-5.8574 1.5512,-2.4058 4.2421,-5.0744 7.4163,-5.7306 0.2158,-0.045 0.4339,-0.08 0.654,-0.1052 0.2645,-0.03 0.5319,-0.046 0.8019,-0.047 0.6117,-5e-4 1.2367,0.08 1.8706,0.2549"
         style="display:inline;fill:#eb0000;fill-opacity:1;fill-rule:evenodd;stroke:#000000;stroke-width:5.625;stroke-linecap:round;stroke-linejoin:round;stroke-miterlimit:4;stroke-dasharray:none;stroke-opacity:1" />
      <path
         inkscape:transform-center-y="-14.607846"
         inkscape:transform-center-x="-10.542139"
         sodipodi:nodetypes="cssscssssc"
         inkscape:connector-curvature="0"
         id="path12351-7-1-4-7-8-3-4-4-9-0"
         d="m 729.28189,188.28694 c 0.3372,0.029 0.6316,0.1 0.8704,0.2175 0.078,0.039 0.1506,0.083 0.2161,0.1325 0.4243,0.3208 0.5833,0.8785 0.3575,1.7747 -0.4394,1.7461 -2.3974,2.7652 -3.3296,3.1296 -1.9299,0.7222 -3.3828,-0.8603 -2.2941,-2.5891 0.6806,-1.0807 1.8685,-2.2837 3.2814,-2.5916 0.097,-0.021 0.1934,-0.038 0.2914,-0.049 0.1179,-0.014 0.2368,-0.023 0.3575,-0.025 0.2728,0 0.552,0.03 0.8356,0.1054"
         style="display:inline;fill:#eb0000;fill-opacity:1;fill-rule:evenodd;stroke:#000000;stroke-width:4.98104382;stroke-linecap:round;stroke-linejoin:round;stroke-miterlimit:4;stroke-dasharray:none;stroke-opacity:1" />
    </g>
    <path
       style="display:inline;fill:none;fill-rule:evenodd;stroke:#000000;stroke-width:5.625;stroke-linecap:round;stroke-linejoin:round;stroke-miterlimit:4;stroke-dasharray:none;stroke-opacity:1"
       d="m 217.94673,257.10053 c 10.30067,-9.87989 25.27245,-22.032 39.50534,-21.96059 18.03723,0.0905 24.56318,9.63728 19.36991,26.50304 -5.55784,18.04974 -16.721,39.93 -31.183,64.98 -7.8,13.51 -16.846,27.3 -26.053,40 -14.597,20.12 -31.787,41.14001 -47.60801,55.64001 -36.339,27.33 -28.513,-14.61001 -45.747,-17.81001 -17.234,-3.21 -40.561004,26.15001 -40.561004,26.15001"
       id="path844-5-53"
       inkscape:connector-curvature="0"
       sodipodi:nodetypes="cssscczc" />
    <path
       style="display:inline;fill:none;fill-rule:evenodd;stroke:#000000;stroke-width:5.625;stroke-linecap:round;stroke-linejoin:round;stroke-miterlimit:4;stroke-dasharray:none;stroke-opacity:1"
       d="m 424.30215,431.42815 c 24.49936,-1.2641 54.874,-44.71 60.115,-82.00998 5.709,-40.62002 44.30801,-104.39002 79.96901,-114.66002"
       id="path12351-7-1-8-67-1-1"
       inkscape:connector-curvature="0"
       sodipodi:nodetypes="csc" />
    <path
       style="display:inline;fill:none;fill-rule:evenodd;stroke:#000000;stroke-width:5.625;stroke-linecap:round;stroke-linejoin:round;stroke-miterlimit:4;stroke-dasharray:none;stroke-opacity:1"
       d="m 864.98427,395.67089 c -60.46816,26.67042 -116.58294,31.45588 -157.99326,33.5947 -53.98562,2.78833 -87.53239,-13.1478 -89.57533,-42.27524"
       id="path4752-1-5-8-2-4"
       inkscape:connector-curvature="0"
       sodipodi:nodetypes="csc" />
    <path
       style="display:inline;fill:none;fill-rule:evenodd;stroke:#000000;stroke-width:5.625;stroke-linecap:round;stroke-linejoin:round;stroke-miterlimit:4;stroke-dasharray:none;stroke-opacity:1"
       d="m 968.6388,413.60389 c 5.82652,-5.17508 19.67058,-16.77806 27.63939,-25.0494"
       id="path844-5-9-31-47-9-9"
       inkscape:connector-curvature="0"
       sodipodi:nodetypes="cc" />
    <path
       style="display:inline;fill:none;fill-rule:evenodd;stroke:#000000;stroke-width:5.625;stroke-linecap:round;stroke-linejoin:round;stroke-miterlimit:4;stroke-dasharray:none;stroke-opacity:1"
       d="m 861.01994,397.39682 c 8.58742,-4.14695 17.1174,-6.96128 24.9815,-7.30493 23.961,-0.84 32.41,41.058 48.83401,40.655 10.78,-0.265 23.1975,-7.31843 33.80335,-17.143"
       id="path844-5-9-31-47-9-6"
       inkscape:connector-curvature="0"
       sodipodi:nodetypes="ccsc" />
  </g>
</svg>
