<?xml version="1.0" encoding="UTF-8" standalone="no"?>
<!-- Created with Inkscape (http://www.inkscape.org/) -->

<svg
   xmlns:dc="http://purl.org/dc/elements/1.1/"
   xmlns:cc="http://creativecommons.org/ns#"
   xmlns:rdf="http://www.w3.org/1999/02/22-rdf-syntax-ns#"
   xmlns:svg="http://www.w3.org/2000/svg"
   xmlns="http://www.w3.org/2000/svg"
   xmlns:sodipodi="http://sodipodi.sourceforge.net/DTD/sodipodi-0.dtd"
   xmlns:inkscape="http://www.inkscape.org/namespaces/inkscape"
   width="297mm"
   height="210mm"
   viewBox="0 0 1052.3622 744.09448"
   id="svg2"
   version="1.1"
   inkscape:version="0.92.3 (2405546, 2018-03-11)"
   sodipodi:docname="DEK Deutsche Einheitskurzschrift - Verkehrsschrift - halbwegs.svg">
  <defs
     id="defs4" />
  <sodipodi:namedview
     id="base"
     pagecolor="#ffffff"
     bordercolor="#666666"
     borderopacity="1.0"
     inkscape:pageopacity="0.0"
     inkscape:pageshadow="2"
     inkscape:zoom="0.98994949"
     inkscape:cx="486.10026"
     inkscape:cy="402.97881"
     inkscape:document-units="px"
     inkscape:current-layer="layer2"
     showgrid="false"
     inkscape:window-width="1920"
     inkscape:window-height="1017"
     inkscape:window-x="1592"
     inkscape:window-y="-8"
     inkscape:window-maximized="1"
     showguides="true"
     inkscape:guide-bbox="true" />
  <metadata
     id="metadata7">
    <rdf:RDF>
      <cc:Work
         rdf:about="">
        <dc:format>image/svg+xml</dc:format>
        <dc:type
           rdf:resource="http://purl.org/dc/dcmitype/StillImage" />
        <dc:title></dc:title>
      </cc:Work>
    </rdf:RDF>
  </metadata>
  <g
     inkscape:label="Grundlinien"
     inkscape:groupmode="layer"
     id="layer1"
     transform="translate(0,-308.26772)"
     sodipodi:insensitive="true">
    <path
       style="fill:none;fill-rule:evenodd;stroke:#969696;stroke-width:1.875;stroke-linecap:round;stroke-linejoin:miter;stroke-miterlimit:4;stroke-dasharray:none;stroke-opacity:1"
       d="M 57.556226,742.24566 H 1006.4206"
       id="path3336"
       inkscape:connector-curvature="0"
       sodipodi:nodetypes="cc" />
    <path
       style="fill:none;fill-rule:evenodd;stroke:#000000;stroke-width:0.9375;stroke-linecap:round;stroke-linejoin:miter;stroke-miterlimit:2;stroke-dasharray:3.74999998, 7.49999996;stroke-dashoffset:0;stroke-opacity:1"
       d="M 58.279456,844.14792 H 1007.1438"
       id="path3336-4"
       inkscape:connector-curvature="0"
       sodipodi:nodetypes="cc" />
    <path
       style="fill:none;fill-rule:evenodd;stroke:#000000;stroke-width:0.9375;stroke-linecap:round;stroke-linejoin:miter;stroke-miterlimit:2;stroke-dasharray:3.74999998, 7.49999996;stroke-dashoffset:0;stroke-opacity:1"
       d="M 58.279456,641.7697 H 1007.1438"
       id="path3336-7"
       inkscape:connector-curvature="0"
       sodipodi:nodetypes="cc" />
    <path
       style="fill:none;fill-rule:evenodd;stroke:#000000;stroke-width:0.9375;stroke-linecap:round;stroke-linejoin:miter;stroke-miterlimit:2;stroke-dasharray:3.74999998, 7.49999996;stroke-dashoffset:0;stroke-opacity:1"
       d="M 58.279456,540.58062 H 1007.1438"
       id="path3336-2"
       inkscape:connector-curvature="0"
       sodipodi:nodetypes="cc" />
  </g>
  <g
     inkscape:groupmode="layer"
     id="layer2"
     inkscape:label="Stenozeichen"
     style="display:inline">
    <path
       style="display:inline;fill:none;fill-rule:evenodd;stroke:#000000;stroke-width:5.625;stroke-linecap:round;stroke-linejoin:round;stroke-miterlimit:4;stroke-dasharray:none;stroke-opacity:1"
       d="m 403.97817,425.16746 c -6.39237,4.61671 -17.3328,5.97625 -22.65978,6.09462 l -58.23952,0.13743"
       id="path844-5-58-9-5-5"
       inkscape:connector-curvature="0"
       sodipodi:nodetypes="ccc" />
    <path
       style="display:inline;fill:none;fill-rule:evenodd;stroke:#000000;stroke-width:5.41913939;stroke-linecap:round;stroke-linejoin:round;stroke-miterlimit:4;stroke-dasharray:none;stroke-opacity:1"
       d="m 323.07887,431.39951 c 56.653,-20.55 86.43075,-147.45593 10.81,-70.95001"
       id="path844-56"
       inkscape:connector-curvature="0"
       sodipodi:nodetypes="cc" />
    <g
       style="display:inline;fill:#eb0000;fill-opacity:1;stroke:#000000;stroke-opacity:1"
       id="g3400-0-9-1-1"
       transform="matrix(1.7715894,0,0,1.7715894,-913.00674,78.562569)">
      <path
         sodipodi:nodetypes="cssscssssc"
         inkscape:connector-curvature="0"
         id="path12351-7-1-4-7-1-6-5-4-9"
         d="m 732.10849,185.47164 c 0.7552,0.075 1.4134,0.2367 1.9458,0.508 0.1742,0.089 0.3349,0.1892 0.4811,0.3022 0.9433,0.7293 1.2859,1.9829 0.7591,3.9864 -1.0262,3.9032 -5.4392,6.1407 -7.537,6.9351 -4.3429,1.5729 -7.5618,-2.0087 -5.0803,-5.8574 1.5512,-2.4058 4.2421,-5.0744 7.4163,-5.7306 0.2158,-0.045 0.4339,-0.08 0.654,-0.1052 0.2645,-0.03 0.5319,-0.046 0.8019,-0.047 0.6117,-5e-4 1.2367,0.08 1.8706,0.2549"
         style="display:inline;fill:#eb0000;fill-opacity:1;fill-rule:evenodd;stroke:#000000;stroke-width:5.625;stroke-linecap:round;stroke-linejoin:round;stroke-miterlimit:4;stroke-dasharray:none;stroke-opacity:1" />
      <path
         inkscape:transform-center-y="-14.607846"
         inkscape:transform-center-x="-10.542139"
         sodipodi:nodetypes="cssscssssc"
         inkscape:connector-curvature="0"
         id="path12351-7-1-4-7-8-3-4-4-9-3"
         d="m 729.28189,188.28694 c 0.3372,0.029 0.6316,0.1 0.8704,0.2175 0.078,0.039 0.1506,0.083 0.2161,0.1325 0.4243,0.3208 0.5833,0.8785 0.3575,1.7747 -0.4394,1.7461 -2.3974,2.7652 -3.3296,3.1296 -1.9299,0.7222 -3.3828,-0.8603 -2.2941,-2.5891 0.6806,-1.0807 1.8685,-2.2837 3.2814,-2.5916 0.097,-0.021 0.1934,-0.038 0.2914,-0.049 0.1179,-0.014 0.2368,-0.023 0.3575,-0.025 0.2728,0 0.552,0.03 0.8356,0.1054"
         style="display:inline;fill:#eb0000;fill-opacity:1;fill-rule:evenodd;stroke:#000000;stroke-width:4.98104382;stroke-linecap:round;stroke-linejoin:round;stroke-miterlimit:4;stroke-dasharray:none;stroke-opacity:1" />
    </g>
    <path
       style="display:inline;fill:none;fill-rule:evenodd;stroke:#000000;stroke-width:5.625;stroke-linecap:round;stroke-linejoin:round;stroke-miterlimit:4;stroke-dasharray:none;stroke-opacity:1"
       d="m 403.97817,425.16746 c 8.04965,-4.26158 76.81193,-89.10016 76.81193,-89.10016 0,0 -27.38423,48.56947 -41.83123,73.46947 -13.09401,23.61 9.019,26.48 28.995,17.85 27.35375,-13.82429 69.70879,-72.64607 90.91521,-82.45607"
       id="path4752-1-7-2-4-0-1-0"
       inkscape:connector-curvature="0"
       sodipodi:nodetypes="ccccc" />
    <path
       style="display:inline;fill:none;fill-rule:evenodd;stroke:#000000;stroke-width:5.625;stroke-linecap:round;stroke-linejoin:round;stroke-miterlimit:4;stroke-dasharray:none;stroke-opacity:1"
       d="m 577.71309,336.29994 c -52.07423,13.59966 -99.42498,123.97755 -35.65105,88.39453 4.73672,-2.64288 7.65105,-6.38333 9.84647,-8.19811 3.88651,-3.21269 16.43526,-18.09418 22.58249,-25.28637 1.27371,-1.49023 6.79268,-7.84007 7.38273,-8.49786"
       id="path844-3"
       inkscape:connector-curvature="0"
       sodipodi:nodetypes="csssc" />
    <path
       style="display:inline;fill:none;fill-rule:evenodd;stroke:#000000;stroke-width:5.625;stroke-linecap:round;stroke-linejoin:round;stroke-miterlimit:4;stroke-dasharray:none;stroke-opacity:1"
       d="m 581.87373,382.71213 c 0.73519,-0.99631 7.96125,-9.94312 11.45331,-13.87401 6.21287,-6.99364 14.36414,-15.96812 15.82552,-17.44535 20.92617,-21.15305 49.33334,-22.40066 40.23962,7.26215 -2.68709,8.1257 -29.57144,72.64961 -29.57144,72.64961"
       id="path12351-3"
       inkscape:connector-curvature="0"
       sodipodi:nodetypes="csscc" />
    <ellipse
       style="display:inline;fill:none;fill-opacity:1;stroke:#000000;stroke-width:5.625;stroke-linecap:round;stroke-linejoin:round;stroke-miterlimit:4;stroke-dasharray:none;stroke-dashoffset:0;stroke-opacity:1;paint-order:stroke fill markers"
       id="path44014-1-3-5-4-20-28-3-2"
       cx="234.60475"
       cy="692.03149"
       rx="23.944305"
       ry="18.958677"
       transform="rotate(-37.736319)" />
  </g>
</svg>
