<?xml version="1.0" encoding="UTF-8" standalone="no"?>
<!-- Created with Inkscape (http://www.inkscape.org/) -->

<svg
   xmlns:dc="http://purl.org/dc/elements/1.1/"
   xmlns:cc="http://creativecommons.org/ns#"
   xmlns:rdf="http://www.w3.org/1999/02/22-rdf-syntax-ns#"
   xmlns:svg="http://www.w3.org/2000/svg"
   xmlns="http://www.w3.org/2000/svg"
   xmlns:sodipodi="http://sodipodi.sourceforge.net/DTD/sodipodi-0.dtd"
   xmlns:inkscape="http://www.inkscape.org/namespaces/inkscape"
   width="297mm"
   height="210mm"
   viewBox="0 0 1052.3622 744.09448"
   id="svg2"
   version="1.1"
   inkscape:version="0.92.3 (2405546, 2018-03-11)"
   sodipodi:docname="DEK Deutsche Einheitskurzschrift - Verkehrsschrift - Beryllium.svg">
  <defs
     id="defs4" />
  <sodipodi:namedview
     id="base"
     pagecolor="#ffffff"
     bordercolor="#666666"
     borderopacity="1.0"
     inkscape:pageopacity="0.0"
     inkscape:pageshadow="2"
     inkscape:zoom="0.7"
     inkscape:cx="691.2374"
     inkscape:cy="376.64136"
     inkscape:document-units="px"
     inkscape:current-layer="layer2"
     showgrid="false"
     inkscape:window-width="1920"
     inkscape:window-height="1017"
     inkscape:window-x="1592"
     inkscape:window-y="-8"
     inkscape:window-maximized="1" />
  <metadata
     id="metadata7">
    <rdf:RDF>
      <cc:Work
         rdf:about="">
        <dc:format>image/svg+xml</dc:format>
        <dc:type
           rdf:resource="http://purl.org/dc/dcmitype/StillImage" />
        <dc:title></dc:title>
      </cc:Work>
    </rdf:RDF>
  </metadata>
  <g
     inkscape:label="Grundlinien"
     inkscape:groupmode="layer"
     id="layer1"
     transform="translate(0,-308.26772)"
     style="display:inline"
     sodipodi:insensitive="true">
    <path
       style="fill:none;fill-rule:evenodd;stroke:#969696;stroke-width:1.875;stroke-linecap:round;stroke-linejoin:miter;stroke-miterlimit:4;stroke-dasharray:none;stroke-opacity:1"
       d="M 57.556226,742.24566 H 1006.4206"
       id="path3336"
       inkscape:connector-curvature="0"
       sodipodi:nodetypes="cc" />
    <path
       style="fill:none;fill-rule:evenodd;stroke:#000000;stroke-width:0.9375;stroke-linecap:round;stroke-linejoin:miter;stroke-miterlimit:2;stroke-dasharray:3.74999998, 7.49999996;stroke-dashoffset:0;stroke-opacity:1"
       d="M 58.279456,844.14792 H 1007.1438"
       id="path3336-4"
       inkscape:connector-curvature="0"
       sodipodi:nodetypes="cc" />
    <path
       style="fill:none;fill-rule:evenodd;stroke:#000000;stroke-width:0.9375;stroke-linecap:round;stroke-linejoin:miter;stroke-miterlimit:2;stroke-dasharray:3.74999998, 7.49999996;stroke-dashoffset:0;stroke-opacity:1"
       d="M 58.279456,641.7697 H 1007.1438"
       id="path3336-7"
       inkscape:connector-curvature="0"
       sodipodi:nodetypes="cc" />
    <path
       style="fill:none;fill-rule:evenodd;stroke:#000000;stroke-width:0.9375;stroke-linecap:round;stroke-linejoin:miter;stroke-miterlimit:2;stroke-dasharray:3.74999998, 7.49999996;stroke-dashoffset:0;stroke-opacity:1"
       d="M 58.279456,540.58062 H 1007.1438"
       id="path3336-2"
       inkscape:connector-curvature="0"
       sodipodi:nodetypes="cc" />
  </g>
  <g
     inkscape:groupmode="layer"
     id="layer2"
     inkscape:label="Buchstaben"
     style="display:inline">
    <path
       style="display:inline;fill:none;fill-rule:evenodd;stroke:#000000;stroke-width:5.625;stroke-linecap:round;stroke-linejoin:round;stroke-miterlimit:4;stroke-dasharray:none;stroke-opacity:1"
       d="m 470.81701,383.80292 18.94522,47.60663 58.84172,-53.87795"
       id="path844-99-4-6-8"
       inkscape:connector-curvature="0"
       sodipodi:nodetypes="ccc" />
    <path
       style="display:inline;fill:none;fill-rule:evenodd;stroke:#000000;stroke-width:5.625;stroke-linecap:round;stroke-linejoin:round;stroke-miterlimit:4;stroke-dasharray:none;stroke-opacity:1"
       d="m 441.13853,411.03765 29.67848,-27.23473"
       id="path844-5-67"
       inkscape:connector-curvature="0"
       sodipodi:nodetypes="cc" />
    <path
       style="display:inline;fill:none;fill-rule:evenodd;stroke:#000000;stroke-width:5.625;stroke-linecap:round;stroke-linejoin:round;stroke-miterlimit:4;stroke-dasharray:none;stroke-opacity:1"
       d="m 426.92253,335.80765 -39.367,73.13 c -8.361,15.53 4.999,26.05001 21.462,22.22 13.27879,-3.2993 20.99388,-11.42089 32.121,-20.12"
       id="path4752-1-0-39"
       inkscape:connector-curvature="0"
       sodipodi:nodetypes="cscc" />
    <path
       style="display:inline;fill:none;fill-rule:evenodd;stroke:#000000;stroke-width:5.625;stroke-linecap:round;stroke-linejoin:round;stroke-miterlimit:4;stroke-dasharray:none;stroke-opacity:1"
       d="m 553.28095,431.8486 c 17.911,-4.869 27.541,-16.684 27.284,-25.947 -1.101,-20.715 -47.416,-26.759 -48.994,-48.9 -0.258,-8.69701 9.881,-17.83 19.613,-20.284 15.906,-4.011 23.411,4.464 19.625,15.883 -2.01,6.06099 -6.725,13.802 -17.429,22.016 -2.367,1.816 -4.776,2.915 -4.776,2.915"
       id="path844-93-2-4-0-1-0-3-8"
       inkscape:connector-curvature="0"
       sodipodi:nodetypes="cccsssc"
       inkscape:transform-center-x="15.271592"
       inkscape:transform-center-y="2.7244066" />
    <path
       style="display:inline;fill:none;fill-rule:evenodd;stroke:#000000;stroke-width:5.625;stroke-linecap:round;stroke-linejoin:round;stroke-miterlimit:4;stroke-dasharray:none;stroke-opacity:1"
       d="m 565.57957,426.56594 c 12.49877,5.62761 24.76511,1.61878 34.48024,-0.53126"
       id="path844-99-4-6-9-5-4-5"
       inkscape:connector-curvature="0"
       sodipodi:nodetypes="cc" />
    <path
       style="display:inline;fill:none;fill-rule:evenodd;stroke:#000000;stroke-width:5.625;stroke-linecap:round;stroke-linejoin:round;stroke-miterlimit:4;stroke-dasharray:none;stroke-opacity:1"
       d="m 569.99635,415.00682 c 0.6444,0.0656 1.2063,0.20193 1.6613,0.43335 0.1481,0.0761 0.2858,0.16194 0.4104,0.25831 0.805,0.62216 1.0981,1.69276 0.6484,3.40322 -0.8766,3.33241 -4.6437,5.24217 -6.4347,5.92072 -3.7081,1.34267 -6.4557,-1.71505 -4.3375,-5.00157 1.3243,-2.05334 3.6215,-4.33155 6.3318,-4.89143 0.1842,-0.0393 0.3704,-0.0682 0.5579,-0.0898 0.2262,-0.0262 0.4543,-0.0393 0.6851,-0.0393 0.5219,0 1.0555,0.0682 1.597,0.21765"
       id="path12351-7-1-4-58-7-2-1-7-4-3"
       inkscape:connector-curvature="0"
       sodipodi:nodetypes="cssscssssc" />
    <path
       style="display:inline;fill:none;fill-rule:evenodd;stroke:#000000;stroke-width:5.625;stroke-linecap:round;stroke-linejoin:round;stroke-miterlimit:4;stroke-dasharray:none;stroke-opacity:1"
       d="m 604.53517,415.62335 c 0.6444,0.0656 1.2063,0.20193 1.6613,0.43335 0.1481,0.0761 0.2858,0.16194 0.4104,0.25831 0.805,0.62216 1.0981,1.69276 0.6484,3.40322 -0.8766,3.33241 -4.6437,5.24217 -6.4347,5.92072 -3.7081,1.34267 -6.4557,-1.71505 -4.3375,-5.00157 1.3243,-2.05334 3.6215,-4.33155 6.3318,-4.89143 0.1842,-0.0393 0.3704,-0.0682 0.5579,-0.0898 0.2262,-0.0262 0.4543,-0.0393 0.6851,-0.0393 0.5219,0 1.0555,0.0682 1.597,0.21765"
       id="path12351-7-1-4-58-7-2-1-7-4-3-5"
       inkscape:connector-curvature="0"
       sodipodi:nodetypes="cssscssssc" />
    <path
       style="display:inline;fill:none;fill-rule:evenodd;stroke:#000000;stroke-width:5.625;stroke-linecap:round;stroke-linejoin:round;stroke-miterlimit:4;stroke-dasharray:none;stroke-opacity:1"
       d="m 700.98008,360.44677 c -27.41413,29.46822 -65.10614,31.81477 -25.706,-25.658"
       id="path844-5-58-9-5-3-7-8-3-3-6-41-8-73-4"
       inkscape:connector-curvature="0"
       sodipodi:nodetypes="cc" />
    <path
       style="display:inline;fill:none;fill-rule:evenodd;stroke:#000000;stroke-width:5.625;stroke-linecap:round;stroke-linejoin:round;stroke-miterlimit:4;stroke-dasharray:none;stroke-opacity:1"
       d="m 600.05981,426.03468 c 16.0993,7.33939 49.88154,-60.70458 75.21427,-91.24591"
       id="path4752-1-05-7-4-6-4"
       inkscape:connector-curvature="0"
       sodipodi:nodetypes="cc" />
    <path
       style="display:inline;fill:none;fill-rule:evenodd;stroke:#000000;stroke-width:5.625;stroke-linecap:round;stroke-linejoin:round;stroke-miterlimit:4;stroke-dasharray:none;stroke-opacity:1"
       d="m 700.98008,360.44677 c 2.49501,-2.56082 11.20639,-9.98896 16.78159,-13.75153 22.72782,-16.96582 61.18375,-13.5726 37.71875,15.4384 -27.375,33.846 -45.51,50.251 -39.44,63.89 4.316,9.7 24.49,7.63701 37.44599,-2.487 6.888,-5.382 12.94417,-11.41852 17.70117,-16.91957"
       id="path844-5-6-5-5-5-7-3"
       inkscape:connector-curvature="0"
       sodipodi:nodetypes="ccsssc" />
  </g>
</svg>
