<?xml version="1.0" encoding="UTF-8" standalone="no"?>
<!-- Created with Inkscape (http://www.inkscape.org/) -->

<svg
   xmlns:dc="http://purl.org/dc/elements/1.1/"
   xmlns:cc="http://creativecommons.org/ns#"
   xmlns:rdf="http://www.w3.org/1999/02/22-rdf-syntax-ns#"
   xmlns:svg="http://www.w3.org/2000/svg"
   xmlns="http://www.w3.org/2000/svg"
   xmlns:sodipodi="http://sodipodi.sourceforge.net/DTD/sodipodi-0.dtd"
   xmlns:inkscape="http://www.inkscape.org/namespaces/inkscape"
   width="297mm"
   height="210mm"
   viewBox="0 0 1052.3622 744.09448"
   id="svg2"
   version="1.1"
   inkscape:version="0.92.3 (2405546, 2018-03-11)"
   sodipodi:docname="DEK Deutsche Einheitskurzschrift - Verkehrsschrift - Postwertzeichen.svg">
  <defs
     id="defs4" />
  <sodipodi:namedview
     id="base"
     pagecolor="#ffffff"
     bordercolor="#666666"
     borderopacity="1.0"
     inkscape:pageopacity="0.0"
     inkscape:pageshadow="2"
     inkscape:zoom="0.49497475"
     inkscape:cx="546.79865"
     inkscape:cy="650.79357"
     inkscape:document-units="px"
     inkscape:current-layer="layer2"
     showgrid="false"
     inkscape:window-width="1920"
     inkscape:window-height="1017"
     inkscape:window-x="1592"
     inkscape:window-y="-8"
     inkscape:window-maximized="1"
     showguides="true"
     inkscape:guide-bbox="true" />
  <metadata
     id="metadata7">
    <rdf:RDF>
      <cc:Work
         rdf:about="">
        <dc:format>image/svg+xml</dc:format>
        <dc:type
           rdf:resource="http://purl.org/dc/dcmitype/StillImage" />
        <dc:title></dc:title>
      </cc:Work>
    </rdf:RDF>
  </metadata>
  <g
     inkscape:label="Grundlinien"
     inkscape:groupmode="layer"
     id="layer1"
     transform="translate(0,-308.26772)"
     style="display:inline"
     sodipodi:insensitive="true">
    <path
       style="fill:none;fill-rule:evenodd;stroke:#969696;stroke-width:1.875;stroke-linecap:round;stroke-linejoin:miter;stroke-miterlimit:4;stroke-dasharray:none;stroke-opacity:1"
       d="M 10.205326,742.24566 H 1042.4073"
       id="path3336"
       inkscape:connector-curvature="0"
       sodipodi:nodetypes="cc" />
    <path
       style="fill:none;fill-rule:evenodd;stroke:#000000;stroke-width:0.9375;stroke-linecap:round;stroke-linejoin:miter;stroke-miterlimit:2;stroke-dasharray:3.74999998, 7.49999996;stroke-dashoffset:0;stroke-opacity:1"
       d="M 10.928556,844.14792 H 1043.1305"
       id="path3336-4"
       inkscape:connector-curvature="0"
       sodipodi:nodetypes="cc" />
    <path
       style="fill:none;fill-rule:evenodd;stroke:#000000;stroke-width:0.9375;stroke-linecap:round;stroke-linejoin:miter;stroke-miterlimit:2;stroke-dasharray:3.74999998, 7.49999996;stroke-dashoffset:0;stroke-opacity:1"
       d="M 10.928556,641.7697 H 1043.1305"
       id="path3336-7"
       inkscape:connector-curvature="0"
       sodipodi:nodetypes="cc" />
    <path
       style="fill:none;fill-rule:evenodd;stroke:#000000;stroke-width:0.9375;stroke-linecap:round;stroke-linejoin:miter;stroke-miterlimit:2;stroke-dasharray:3.74999998, 7.49999996;stroke-dashoffset:0;stroke-opacity:1"
       d="M 10.928556,540.58062 H 1043.1305"
       id="path3336-2"
       inkscape:connector-curvature="0"
       sodipodi:nodetypes="cc" />
  </g>
  <g
     inkscape:groupmode="layer"
     id="layer2"
     inkscape:label="Buchstaben"
     style="display:inline">
    <path
       style="display:inline;fill:none;fill-rule:evenodd;stroke:#000000;stroke-width:5.625;stroke-linecap:round;stroke-linejoin:round;stroke-miterlimit:4;stroke-dasharray:none;stroke-opacity:1"
       d="m 733.01203,316.90615 c 0,0 -207.35899,130.64249 -230.53899,151.8065 -34.641,31.627 -44.35751,51.90538 -41.41651,59.62238 1.123,2.946 17.737,21.817 57.261,-41.821 l 88.048,-150.71601"
       id="path12351-7-1-8-1-4-8-1"
       inkscape:connector-curvature="0"
       sodipodi:nodetypes="csscc" />
    <path
       style="display:inline;fill:none;fill-rule:evenodd;stroke:#000000;stroke-width:5.625;stroke-linecap:round;stroke-linejoin:round;stroke-miterlimit:4;stroke-dasharray:none;stroke-opacity:1"
       d="m 863.07843,377.82496 c -34.71283,-3.40702 102.48449,-36.73065 111.28949,-35.39066 15.68435,4.28161 13.58396,35.74329 29.46968,35.85196 5.4852,0.0375 13.1148,-3.66303 24.3614,-13.5113"
       id="path844-5-5-1-9-4-90"
       inkscape:connector-curvature="0"
       sodipodi:nodetypes="ccsc" />
    <path
       style="display:inline;fill:none;fill-rule:evenodd;stroke:#000000;stroke-width:5.625;stroke-linecap:round;stroke-linejoin:round;stroke-miterlimit:4;stroke-dasharray:none;stroke-opacity:1"
       d="m 733.01203,316.90615 c 47.26256,-30.92625 197.16855,-136.64931 228.68802,-136.42382 14.04978,0.0751 21.21915,6.96251 17.08935,23.64162 -12.22247,49.36313 -75.81197,157.352 -115.71097,173.70101"
       id="path844-5-6-00-0-2-79-3-1"
       inkscape:connector-curvature="0"
       sodipodi:nodetypes="ccsc" />
    <path
       style="display:inline;fill:none;fill-rule:evenodd;stroke:#000000;stroke-width:5.625;stroke-linecap:round;stroke-linejoin:round;stroke-miterlimit:4;stroke-dasharray:none;stroke-opacity:1"
       d="M 596.18825,234.79937 467.71324,431.23241"
       id="path844-5-58-9-5-3-7-8-3-3-6-4-6"
       inkscape:connector-curvature="0"
       sodipodi:nodetypes="cc" />
    <path
       style="display:inline;fill:none;fill-rule:evenodd;stroke:#000000;stroke-width:5.625;stroke-linecap:round;stroke-linejoin:round;stroke-miterlimit:4;stroke-dasharray:none;stroke-opacity:1"
       d="m 410.99123,410.8294 34.33501,-29.82101 22.387,50.22402"
       id="path844-5-6-5-7"
       inkscape:connector-curvature="0"
       sodipodi:nodetypes="ccc" />
    <path
       style="display:inline;fill:none;fill-rule:evenodd;stroke:#000000;stroke-width:5.625;stroke-linecap:round;stroke-linejoin:round;stroke-miterlimit:4;stroke-dasharray:none;stroke-opacity:1"
       d="m 425.55623,334.62439 c -56.583,14.77701 -104.583,145.162 -14.565,76.20501"
       id="path844-39-6"
       inkscape:connector-curvature="0"
       sodipodi:nodetypes="cc" />
    <path
       style="display:inline;fill:none;fill-rule:evenodd;stroke:#000000;stroke-width:5.625;stroke-linecap:round;stroke-linejoin:round;stroke-miterlimit:4;stroke-dasharray:none;stroke-opacity:1"
       d="m 291.50918,386.46463 c -8.37101,-0.335 -238.134012,46.207 -251.192012,45.538"
       id="path844-5-6-0-43-9-0-6-4-1-3"
       inkscape:connector-curvature="0"
       sodipodi:nodetypes="cc" />
    <path
       style="display:inline;fill:none;fill-rule:evenodd;stroke:#000000;stroke-width:5.625;stroke-linecap:round;stroke-linejoin:round;stroke-miterlimit:4;stroke-dasharray:none;stroke-opacity:1"
       d="m 40.317168,432.00263 c -6.058001,0.254 -11.112,-1.726 -14.452,-6.142 -34.459,-35.591 53.019001,-168.48801 106.125012,-190.67201"
       id="path844-5-52-8-1-8-2-3-8-1-9"
       inkscape:connector-curvature="0"
       sodipodi:nodetypes="ccc" />
    <path
       style="display:inline;fill:none;fill-rule:evenodd;stroke:#000000;stroke-width:5.625;stroke-linecap:round;stroke-linejoin:round;stroke-miterlimit:4;stroke-dasharray:none;stroke-opacity:1"
       d="M 269.66517,399.52163 382.53218,235.13462"
       id="path12351-7-1-4-7-6-7"
       inkscape:connector-curvature="0"
       sodipodi:nodetypes="cc" />
    <path
       style="display:inline;fill:none;fill-opacity:1;stroke:#000000;stroke-width:5.625;stroke-linecap:round;stroke-linejoin:round;stroke-miterlimit:4;stroke-dasharray:none;stroke-dashoffset:0;stroke-opacity:1;paint-order:stroke fill markers"
       d="m 291.50918,386.46463 c 1.633,-0.159 3.242,-0.16001 4.8,-9.4e-4 0.74,0.08 1.469,0.187 2.183,0.33501 0.857,0.177 1.694,0.40599 2.504,0.68599 0.765,0.26501 1.505,0.575 2.219,0.932 0.612,0.306 1.205,0.646 1.774,1.02 0.725,0.47601 1.412,1.00701 2.056,1.59201 0.699,0.63499 1.347,1.33399 1.938,2.09799 0.887,1.14501 1.6,2.379 2.147,3.678 0.672,1.597 1.093,3.292 1.272,5.044 0.322,3.13901 -0.131,6.45701 -1.296,9.705 -1.767,4.926 -5.172,9.692 -10.002,13.43 -5.734,4.438 -12.369,6.568 -18.406,6.409 -5.793,-0.154 -11.037,-2.416 -14.409,-6.77299 -1.53,-1.97801 -2.546,-4.221 -3.078,-6.609 -0.275,-1.236 -0.42,-2.511 -0.43901,-3.80801 -0.02,-1.60699 0.14501,-3.24799 0.50001,-4.891 0.194,-0.90399 0.44499,-1.808 0.75,-2.70699 0.284,-0.83501 0.614,-1.665 0.99,-2.48801 0.329,-0.718 0.693,-1.42999 1.091,-2.133 0.472,-0.835 0.994,-1.657 1.56199,-2.46199"
       id="path44014-1-3-5-4-20-28-3-2-3-5-0-1"
       inkscape:connector-curvature="0"
       sodipodi:nodetypes="csssssssssssssssssssc" />
  </g>
</svg>
