<?xml version="1.0" encoding="UTF-8" standalone="no"?>
<!-- Created with Inkscape (http://www.inkscape.org/) -->

<svg
   xmlns:dc="http://purl.org/dc/elements/1.1/"
   xmlns:cc="http://creativecommons.org/ns#"
   xmlns:rdf="http://www.w3.org/1999/02/22-rdf-syntax-ns#"
   xmlns:svg="http://www.w3.org/2000/svg"
   xmlns="http://www.w3.org/2000/svg"
   xmlns:sodipodi="http://sodipodi.sourceforge.net/DTD/sodipodi-0.dtd"
   xmlns:inkscape="http://www.inkscape.org/namespaces/inkscape"
   width="330mm"
   height="210mm"
   viewBox="0 0 1169.2911 744.09448"
   id="svg2"
   version="1.1"
   inkscape:version="0.92.3 (2405546, 2018-03-11)"
   sodipodi:docname="DEK Deutsche Einheitskurzschrift - Verkehrsschrift - Herr Kai Haferkamp.svg">
  <defs
     id="defs4" />
  <sodipodi:namedview
     id="base"
     pagecolor="#ffffff"
     bordercolor="#666666"
     borderopacity="1.0"
     inkscape:pageopacity="0.0"
     inkscape:pageshadow="2"
     inkscape:zoom="0.98994949"
     inkscape:cx="651.84286"
     inkscape:cy="391.5841"
     inkscape:document-units="px"
     inkscape:current-layer="layer2"
     showgrid="false"
     inkscape:window-width="1920"
     inkscape:window-height="1017"
     inkscape:window-x="1592"
     inkscape:window-y="-8"
     inkscape:window-maximized="1"
     showguides="true"
     inkscape:guide-bbox="true" />
  <metadata
     id="metadata7">
    <rdf:RDF>
      <cc:Work
         rdf:about="">
        <dc:format>image/svg+xml</dc:format>
        <dc:type
           rdf:resource="http://purl.org/dc/dcmitype/StillImage" />
        <dc:title></dc:title>
      </cc:Work>
    </rdf:RDF>
  </metadata>
  <g
     inkscape:label="Grundlinien"
     inkscape:groupmode="layer"
     id="layer1"
     transform="translate(0,-308.26772)"
     sodipodi:insensitive="true">
    <path
       style="fill:none;fill-rule:evenodd;stroke:#969696;stroke-width:1.875;stroke-linecap:round;stroke-linejoin:miter;stroke-miterlimit:4;stroke-dasharray:none;stroke-opacity:1"
       d="M 27.556226,742.24566 H 1145.1706"
       id="path3336"
       inkscape:connector-curvature="0"
       sodipodi:nodetypes="cc" />
    <path
       style="fill:none;fill-rule:evenodd;stroke:#000000;stroke-width:0.9375;stroke-linecap:round;stroke-linejoin:miter;stroke-miterlimit:2;stroke-dasharray:3.74999998, 7.49999996;stroke-dashoffset:0;stroke-opacity:1"
       d="M 28.279456,844.14792 H 1145.8938"
       id="path3336-4"
       inkscape:connector-curvature="0"
       sodipodi:nodetypes="cc" />
    <path
       style="fill:none;fill-rule:evenodd;stroke:#000000;stroke-width:0.9375;stroke-linecap:round;stroke-linejoin:miter;stroke-miterlimit:2;stroke-dasharray:3.74999998, 7.49999996;stroke-dashoffset:0;stroke-opacity:1"
       d="M 28.279456,641.7697 H 1145.8938"
       id="path3336-7"
       inkscape:connector-curvature="0"
       sodipodi:nodetypes="cc" />
    <path
       style="fill:none;fill-rule:evenodd;stroke:#000000;stroke-width:0.9375;stroke-linecap:round;stroke-linejoin:miter;stroke-miterlimit:2;stroke-dasharray:3.74999998, 7.49999996;stroke-dashoffset:0;stroke-opacity:1"
       d="M 28.279456,540.58062 H 1145.8938"
       id="path3336-2"
       inkscape:connector-curvature="0"
       sodipodi:nodetypes="cc" />
  </g>
  <g
     inkscape:groupmode="layer"
     id="layer2"
     inkscape:label="Stenozeichen"
     style="display:inline">
    <path
       style="display:inline;fill:none;fill-rule:evenodd;stroke:#000000;stroke-width:2.8125;stroke-linecap:round;stroke-linejoin:miter;stroke-miterlimit:4;stroke-dasharray:none;stroke-opacity:1"
       d="m 1081.42,337.62541 c 10.1906,-0.15472 10.0901,5.09447 9.6147,10.14636"
       id="path1647-0-8-0-7-4-2"
       inkscape:connector-curvature="0"
       sodipodi:nodetypes="cc" />
    <path
       style="display:inline;fill:none;fill-rule:evenodd;stroke:#000000;stroke-width:5.625;stroke-linecap:round;stroke-linejoin:round;stroke-miterlimit:4;stroke-dasharray:none;stroke-opacity:1"
       d="m 800.21227,428.06801 c 19.75447,-9.04018 72.6201,-44.7357 72.6201,-44.7357 l 18.158,47.88"
       id="path844-5-6-5-95-0"
       inkscape:connector-curvature="0"
       sodipodi:nodetypes="ccc" />
    <path
       style="display:inline;fill:none;fill-rule:evenodd;stroke:#000000;stroke-width:5.41913939;stroke-linecap:round;stroke-linejoin:round;stroke-miterlimit:4;stroke-dasharray:none;stroke-opacity:1"
       d="m 745.85624,388.75914 c -10.72288,6.88773 -70.62765,42.61525 -57.75629,42.90303 2.967,0.29001 9.665,-4.23 11.035,-5.01999 10.726,-6.13 20.19371,-15.80587 27.801,-26.56 18.92034,-26.74694 26.64609,-60.55867 12.93192,-63.79344 -6.94313,-1.63768 -19.38161,4.56194 -38.64492,23.48343"
       id="path844-7-8"
       inkscape:connector-curvature="0"
       sodipodi:nodetypes="ccsssc" />
    <path
       style="display:inline;fill:none;fill-rule:evenodd;stroke:#000000;stroke-width:5.625;stroke-linecap:round;stroke-linejoin:round;stroke-miterlimit:4;stroke-dasharray:none;stroke-opacity:1"
       d="m 745.85624,388.75914 c 37.16505,-22.79918 97.61434,-60.50214 131.42337,-96.15506 25.77613,-27.18192 36.7165,-52.46681 22.88131,-57.23096 -14.56397,-5.0151 -42.593,13.655 -89.779,91.55 -38.58601,66.65301 -42.53701,95.92401 -31.41901,103.10101 1.076,0.695 2.204,1.094 3.459,1.302 1.177,0.195 2.46997,0.30463 3.926,0.171 4.04436,-0.37118 8.81808,-1.51571 13.86436,-3.42912"
       id="path12351-7-1-03"
       inkscape:connector-curvature="0"
       sodipodi:nodetypes="csscsssc" />
    <path
       style="display:inline;fill:none;fill-rule:evenodd;stroke:#000000;stroke-width:5.625;stroke-linecap:round;stroke-linejoin:miter;stroke-miterlimit:4;stroke-dasharray:none;stroke-opacity:1"
       d="m 883.67892,240.01212 c -48.025,60.016 -85.31001,116.95201 -108.09901,178.229"
       id="path1428-5"
       inkscape:connector-curvature="0"
       sodipodi:nodetypes="cc" />
    <path
       style="display:inline;fill:none;fill-rule:evenodd;stroke:#000000;stroke-width:7.5;stroke-linecap:round;stroke-linejoin:miter;stroke-miterlimit:4;stroke-dasharray:none;stroke-opacity:1"
       d="m 872.66992,250.07512 c -38.261,44.851 -72.937,96.88101 -94.82101,156.84901"
       id="path1428-7-00"
       inkscape:connector-curvature="0"
       sodipodi:nodetypes="cc" />
    <path
       style="display:inline;fill:none;fill-rule:evenodd;stroke:#000000;stroke-width:3.75;stroke-linecap:round;stroke-linejoin:miter;stroke-miterlimit:4;stroke-dasharray:none;stroke-opacity:1"
       d="m 901.88292,237.35112 c -11.951,-5.068 -22.256,10.802 -27.793,15.92"
       id="path1428-1-74"
       inkscape:connector-curvature="0"
       sodipodi:nodetypes="cc" />
    <path
       style="display:inline;fill:none;fill-rule:evenodd;stroke:#000000;stroke-width:5.625;stroke-linecap:round;stroke-linejoin:miter;stroke-miterlimit:4;stroke-dasharray:none;stroke-opacity:1"
       d="m 780.28191,405.70913 c -2.983,9.224 -6.324,19.98999 -0.707,24.46599"
       id="path1428-0-66"
       inkscape:connector-curvature="0"
       sodipodi:nodetypes="cc" />
    <path
       style="display:inline;fill:none;fill-rule:evenodd;stroke:#000000;stroke-width:5.625;stroke-linecap:round;stroke-linejoin:round;stroke-miterlimit:4;stroke-dasharray:none;stroke-opacity:1"
       d="m 890.99037,431.21231 c 23.99376,-31.22405 51.33011,-46.95364 71.38393,-47.43589 22.0409,-0.53004 35.2845,17.14968 25.6241,48.03489 l 53.7613,-70.31454"
       id="path4752-1-1"
       inkscape:connector-curvature="0"
       sodipodi:nodetypes="cscc" />
    <path
       style="display:inline;fill:none;fill-rule:evenodd;stroke:#000000;stroke-width:5.625;stroke-linecap:round;stroke-linejoin:round;stroke-miterlimit:4;stroke-dasharray:none;stroke-opacity:1"
       d="m 1041.7597,361.49677 c 9.767,-11.78 19.087,-23.345 35.03,-25.039 16.18,-1.719 28.0952,5.8422 12.363,25.292 -2.3001,2.83771 -4.6005,6.0727 -6.6232,8.53415 -23.4116,28.47442 -37.1472,43.02993 -31.6338,55.5535 1.7448,3.96345 5.6895,5.63453 10.725,5.58299 10.5415,-0.10789 25.8638,-7.76493 35.794,-17.74399 4.4696,-4.49162 20.2179,-26.14063 -1.743,-34.17601 -4.9236,-1.80151 -10.2053,-2.90018 -15.5355,-3.06414 -18.6763,-0.57447 -37.4323,8.96572 -37.5295,24.29014 -0.065,10.28304 6.588,14.40601 17.592,15.03601 8.899,0.509 22.327,-1.656 32.008,-4.552 3.489,-1.044 13.857,-7.947 26.798,-17.20701"
       id="path844-53-7-2-3"
       inkscape:connector-curvature="0"
       sodipodi:nodetypes="csccssssssssc" />
    <path
       style="display:inline;fill:none;fill-rule:evenodd;stroke:#000000;stroke-width:5.625;stroke-linecap:round;stroke-linejoin:miter;stroke-miterlimit:4;stroke-dasharray:none;stroke-opacity:1"
       d="m 1089.7332,337.49956 c 9.0284,3.12915 9.2349,13.91026 5.7183,22.23211 -3.0989,7.3337 -9.503,15.95532 -17.3428,23.60074 -14.3742,14.01778 -23.364,26.38001 -29.512,38.70701"
       id="path1647-51-63-96-4-5"
       inkscape:connector-curvature="0"
       sodipodi:nodetypes="cssc" />
    <path
       style="display:inline;fill:none;fill-rule:evenodd;stroke:#000000;stroke-width:5.625;stroke-linecap:round;stroke-linejoin:miter;stroke-miterlimit:4;stroke-dasharray:none;stroke-opacity:1"
       d="m 1086.9218,336.83746 c 4.0097,0.53828 7.4629,8.45395 4.3169,16.57995 -3.247,8.39 -12.84,17.777 -18.304,22.929 -10.757,10.142 -30.592,28.964 -24.338,45.69301"
       id="path1647-5-7-53-9-2-7"
       inkscape:connector-curvature="0"
       sodipodi:nodetypes="cssc" />
    <path
       style="display:inline;fill:none;fill-rule:evenodd;stroke:#000000;stroke-width:2.8125;stroke-linecap:round;stroke-linejoin:miter;stroke-miterlimit:4;stroke-dasharray:none;stroke-opacity:1"
       d="m 1053.7177,414.74942 c -2.696,4.91999 -3.763,12.04 2.312,14.485"
       id="path1647-1-3-4-3-9-2"
       inkscape:connector-curvature="0"
       sodipodi:nodetypes="cc" />
    <path
       style="display:inline;fill:none;fill-rule:evenodd;stroke:#000000;stroke-width:2.8125;stroke-linecap:round;stroke-linejoin:miter;stroke-miterlimit:4;stroke-dasharray:none;stroke-opacity:1"
       d="m 1045.9997,416.09242 c -0.102,5.656 3.4301,11.511 5.4081,13.146"
       id="path1647-1-1-3-3-0-3-2"
       inkscape:connector-curvature="0"
       sodipodi:nodetypes="cc" />
    <path
       style="display:inline;fill:none;fill-rule:evenodd;stroke:#000000;stroke-width:5.625;stroke-linecap:round;stroke-linejoin:round;stroke-miterlimit:4;stroke-dasharray:none;stroke-opacity:1"
       d="m 401.61547,431.36317 219.42087,-95.9174"
       id="path844-5-4-9"
       inkscape:connector-curvature="0"
       sodipodi:nodetypes="cc" />
    <path
       style="display:inline;fill:none;fill-rule:evenodd;stroke:#000000;stroke-width:5.625;stroke-linecap:round;stroke-linejoin:round;stroke-miterlimit:4;stroke-dasharray:none;stroke-opacity:1"
       d="m 304.60745,430.76418 c 50.365,-65.54201 115.45801,-58.38701 97.00802,0.59899"
       id="path4752-1-1-4"
       inkscape:connector-curvature="0"
       sodipodi:nodetypes="cc" />
    <ellipse
       style="display:inline;fill:none;fill-opacity:1;stroke:#000000;stroke-width:8.90076828;stroke-linecap:round;stroke-linejoin:round;stroke-miterlimit:4;stroke-dasharray:none;stroke-dashoffset:0;stroke-opacity:1;paint-order:stroke fill markers"
       id="path9500-1-5"
       cx="602.08099"
       cy="-120.07223"
       rx="3.3663294"
       ry="5.0120902"
       transform="rotate(43.24198)" />
    <path
       style="display:inline;fill:none;fill-rule:evenodd;stroke:#000000;stroke-width:5.625;stroke-linecap:round;stroke-linejoin:round;stroke-miterlimit:4;stroke-dasharray:none;stroke-opacity:1"
       d="m 53.838626,431.40192 c -16.57282,1.42052 123.564224,-94.6508 123.564224,-94.6508 l 51.187,93.85201"
       id="path844-5-6-3-5-30-1-2"
       inkscape:connector-curvature="0"
       sodipodi:nodetypes="ccc" />
    <path
       style="display:inline;fill:none;fill-rule:evenodd;stroke:#000000;stroke-width:5.625;stroke-linecap:round;stroke-linejoin:round;stroke-miterlimit:4;stroke-dasharray:none;stroke-opacity:1"
       d="m 61.099726,366.3868 c 5.26955,-5.58038 11.75771,-12.47038 13.2209,-13.7749 62.333774,-55.57404 39.476004,45.78 -9.448,73.78002 -1.369,0.78 -8.068,5.29998 -11.034,5.01"
       id="path844-7-9-8"
       inkscape:connector-curvature="0"
       sodipodi:nodetypes="cssc" />
  </g>
</svg>
