<?xml version="1.0" encoding="UTF-8" standalone="no"?>
<!-- Created with Inkscape (http://www.inkscape.org/) -->

<svg
   xmlns:dc="http://purl.org/dc/elements/1.1/"
   xmlns:cc="http://creativecommons.org/ns#"
   xmlns:rdf="http://www.w3.org/1999/02/22-rdf-syntax-ns#"
   xmlns:svg="http://www.w3.org/2000/svg"
   xmlns="http://www.w3.org/2000/svg"
   xmlns:sodipodi="http://sodipodi.sourceforge.net/DTD/sodipodi-0.dtd"
   xmlns:inkscape="http://www.inkscape.org/namespaces/inkscape"
   width="297mm"
   height="210mm"
   viewBox="0 0 1052.3622 744.09448"
   id="svg2"
   version="1.1"
   inkscape:version="0.92.3 (2405546, 2018-03-11)"
   sodipodi:docname="DEK Deutsche Einheitskurzschrift - Verkehrsschrift - Zweckoptimismus.svg">
  <defs
     id="defs4" />
  <sodipodi:namedview
     id="base"
     pagecolor="#ffffff"
     bordercolor="#666666"
     borderopacity="1.0"
     inkscape:pageopacity="0.0"
     inkscape:pageshadow="2"
     inkscape:zoom="0.98994949"
     inkscape:cx="484.02741"
     inkscape:cy="435.78923"
     inkscape:document-units="px"
     inkscape:current-layer="layer2"
     showgrid="false"
     inkscape:window-width="1920"
     inkscape:window-height="1017"
     inkscape:window-x="1592"
     inkscape:window-y="-8"
     inkscape:window-maximized="1"
     showguides="true"
     inkscape:guide-bbox="true" />
  <metadata
     id="metadata7">
    <rdf:RDF>
      <cc:Work
         rdf:about="">
        <dc:format>image/svg+xml</dc:format>
        <dc:type
           rdf:resource="http://purl.org/dc/dcmitype/StillImage" />
        <dc:title></dc:title>
      </cc:Work>
    </rdf:RDF>
  </metadata>
  <g
     inkscape:label="Grundlinien"
     inkscape:groupmode="layer"
     id="layer1"
     transform="translate(0,-308.26772)"
     sodipodi:insensitive="true">
    <path
       style="fill:none;fill-rule:evenodd;stroke:#969696;stroke-width:1.875;stroke-linecap:round;stroke-linejoin:miter;stroke-miterlimit:4;stroke-dasharray:none;stroke-opacity:1"
       d="M 57.556226,742.24566 H 1006.4206"
       id="path3336"
       inkscape:connector-curvature="0"
       sodipodi:nodetypes="cc" />
    <path
       style="fill:none;fill-rule:evenodd;stroke:#000000;stroke-width:0.9375;stroke-linecap:round;stroke-linejoin:miter;stroke-miterlimit:2;stroke-dasharray:3.74999998, 7.49999996;stroke-dashoffset:0;stroke-opacity:1"
       d="M 58.279456,844.14792 H 1007.1438"
       id="path3336-4"
       inkscape:connector-curvature="0"
       sodipodi:nodetypes="cc" />
    <path
       style="fill:none;fill-rule:evenodd;stroke:#000000;stroke-width:0.9375;stroke-linecap:round;stroke-linejoin:miter;stroke-miterlimit:2;stroke-dasharray:3.74999998, 7.49999996;stroke-dashoffset:0;stroke-opacity:1"
       d="M 58.279456,641.7697 H 1007.1438"
       id="path3336-7"
       inkscape:connector-curvature="0"
       sodipodi:nodetypes="cc" />
    <path
       style="fill:none;fill-rule:evenodd;stroke:#000000;stroke-width:0.9375;stroke-linecap:round;stroke-linejoin:miter;stroke-miterlimit:2;stroke-dasharray:3.74999998, 7.49999996;stroke-dashoffset:0;stroke-opacity:1"
       d="M 58.279456,540.58062 H 1007.1438"
       id="path3336-2"
       inkscape:connector-curvature="0"
       sodipodi:nodetypes="cc" />
  </g>
  <g
     inkscape:groupmode="layer"
     id="layer2"
     inkscape:label="Stenozeichen"
     style="display:inline">
    <path
       style="display:inline;fill:none;fill-rule:evenodd;stroke:#060000;stroke-width:5.625;stroke-linecap:round;stroke-linejoin:round;stroke-miterlimit:4;stroke-dasharray:none;stroke-opacity:1"
       d="m 203.88789,412.88577 c -33.47645,23.62293 -68.03105,29.78034 -73.46751,31.95942 -10.24767,4.10754 -18.88163,7.58245 -27.98163,13.78905 -13.131838,8.95649 -22.101438,19.08322 -29.796738,29.08584 -16.84905,21.90096 -18.449,41.691 6.12,46.264 0,0 31.697998,6.062 62.281998,-46.173 l 89.245,-152.41901"
       id="path12351-7-1-8-41"
       inkscape:connector-curvature="0"
       sodipodi:nodetypes="csssssc" />
    <path
       style="display:inline;fill:none;fill-rule:evenodd;stroke:#000000;stroke-width:5.625;stroke-linecap:round;stroke-linejoin:round;stroke-miterlimit:4;stroke-dasharray:none;stroke-opacity:1"
       d="m 203.88789,412.88577 c 22.99751,-13.78732 41.92064,-22.29877 57.56418,-25.155 29.49501,-5.38525 44.95087,10.5235 35.98556,43.53637"
       id="path4752-1-05-7-4-5"
       inkscape:connector-curvature="0"
       sodipodi:nodetypes="csc" />
    <path
       style="display:inline;fill:none;fill-rule:evenodd;stroke:#000000;stroke-width:5.625;stroke-linecap:round;stroke-linejoin:round;stroke-miterlimit:4;stroke-dasharray:none;stroke-opacity:1"
       d="m 766.70044,314.71688 c 21.3748,-20.79353 31.04977,-24.70854 38.2971,-25.67105 16.27856,-2.16194 21.68525,6.71601 6.05903,26.03552 -27.37544,33.84566 -45.45602,50.228 -39.44002,63.891 4.204,9.55001 24.09444,8.27515 36.49901,-3.67 9.04018,-8.70535 12.05637,-11.57077 12.05637,-11.57077"
       id="path844-52-8-9-9-4"
       inkscape:connector-curvature="0"
       sodipodi:nodetypes="cssssc" />
    <ellipse
       style="display:inline;fill:none;fill-opacity:1;stroke:#000000;stroke-width:5.625;stroke-linecap:round;stroke-linejoin:round;stroke-miterlimit:4;stroke-dasharray:none;stroke-dashoffset:0;stroke-opacity:1;paint-order:stroke fill markers"
       id="path44014-1-3-5-4"
       cx="507.64359"
       cy="785.67517"
       rx="25.728558"
       ry="20.371416"
       transform="rotate(-37.736319)" />
    <path
       style="display:inline;fill:none;fill-rule:evenodd;stroke:#000000;stroke-width:5.625;stroke-linecap:round;stroke-linejoin:round;stroke-miterlimit:4;stroke-dasharray:none;stroke-opacity:1"
       d="m 863.27817,301.24706 c 0,0 -18.01571,34.1863 -43.10624,62.48452"
       id="path844-99-4-6-6"
       inkscape:connector-curvature="0"
       sodipodi:nodetypes="cc" />
    <path
       style="display:inline;fill:none;fill-rule:evenodd;stroke:#000000;stroke-width:5.625;stroke-linecap:round;stroke-linejoin:round;stroke-miterlimit:4;stroke-dasharray:none;stroke-opacity:1"
       d="m 297.43763,431.26714 c 0,0 305.12903,-149.98987 383.84905,-196.07687"
       id="path844-5-6-95-9-8-05-2"
       inkscape:connector-curvature="0"
       sodipodi:nodetypes="cc" />
    <path
       style="display:inline;fill:none;fill-rule:evenodd;stroke:#000000;stroke-width:5.625;stroke-linecap:round;stroke-linejoin:round;stroke-miterlimit:4;stroke-dasharray:none;stroke-opacity:1"
       d="m 625.12309,403.38609 c -17.6111,15.28375 -31.42646,22.9339 -44.56143,26.6102 -54.90543,15.36723 34.04902,-131.18001 77.69801,-177.40402 4.65401,-4.927 15.91601,-14.62 23.02701,-17.402"
       id="path844-64-3-0-7-2-3-6"
       inkscape:connector-curvature="0"
       sodipodi:nodetypes="cssc" />
    <path
       style="display:inline;fill:none;fill-rule:evenodd;stroke:#000000;stroke-width:5.625;stroke-linecap:round;stroke-linejoin:round;stroke-miterlimit:4;stroke-dasharray:none;stroke-opacity:1"
       d="m 625.12309,403.38609 82.90311,-66.726 -56.711,94.85902 115.38524,-116.80223"
       id="path844-99-4-6-24-1-8"
       inkscape:connector-curvature="0"
       sodipodi:nodetypes="cccc" />
    <path
       style="display:inline;fill:none;fill-rule:evenodd;stroke:#000000;stroke-width:5.625;stroke-linecap:round;stroke-linejoin:round;stroke-miterlimit:4;stroke-dasharray:none;stroke-opacity:1"
       d="m 977.8804,338.85912 c 2.647,1.581 4.4256,2.89168 4.672,3.13001 4.8009,4.64251 5.135,10.00999 3.71,17.848 -2.67,14.69 -18.36594,20.80923 -28.94794,22.35623 -16.70001,1.62 -28.86905,-15.25723 -19.34604,-30.06924 2.53962,-3.96672 6.09326,-9.33402 12.60585,-13.96371 7.5014,-5.33259 14.63279,-4.39268 14.63279,-4.39268"
       id="path12351-7-1-4-17-5-6-5"
       inkscape:connector-curvature="0"
       sodipodi:nodetypes="cssccsc" />
    <path
       style="display:inline;fill:none;fill-rule:evenodd;stroke:#000000;stroke-width:5.625;stroke-linecap:round;stroke-linejoin:round;stroke-miterlimit:4;stroke-dasharray:none;stroke-opacity:1"
       d="m 863.27817,301.24706 c 21.90139,-25.31922 61.6211,-56.84015 74.03173,-63.09122 5.56768,-2.80437 11.54853,-3.64065 16.62683,-3.79674 14.78852,-0.45454 23.59627,8.52231 8.54869,27.12702 -28.63847,35.40843 -47.554,52.546 -41.26101,66.84 2.646,6.011 11.23901,6.47201 20.75901,6.042 16.60699,-0.565 22.66,-3.978 35.89698,4.491"
       id="path844-52-80-8-6"
       inkscape:connector-curvature="0"
       sodipodi:nodetypes="csssscc" />
  </g>
</svg>
