<?xml version="1.0" encoding="UTF-8" standalone="no"?>
<!-- Created with Inkscape (http://www.inkscape.org/) -->

<svg
   xmlns:dc="http://purl.org/dc/elements/1.1/"
   xmlns:cc="http://creativecommons.org/ns#"
   xmlns:rdf="http://www.w3.org/1999/02/22-rdf-syntax-ns#"
   xmlns:svg="http://www.w3.org/2000/svg"
   xmlns="http://www.w3.org/2000/svg"
   xmlns:sodipodi="http://sodipodi.sourceforge.net/DTD/sodipodi-0.dtd"
   xmlns:inkscape="http://www.inkscape.org/namespaces/inkscape"
   width="430mm"
   height="270mm"
   viewBox="0 0 1523.6219 956.6929"
   id="svg2"
   version="1.1"
   inkscape:version="0.92.3 (2405546, 2018-03-11)"
   sodipodi:docname="DEK Deutsche Einheitskurzschrift - Verkehrsschrift - ich wollte du wolltest er wollte wir wollten ihr woltet sie wollten.svg">
  <defs
     id="defs4" />
  <sodipodi:namedview
     id="base"
     pagecolor="#ffffff"
     bordercolor="#666666"
     borderopacity="1.0"
     inkscape:pageopacity="0.0"
     inkscape:pageshadow="2"
     inkscape:zoom="2.8"
     inkscape:cx="1378.6126"
     inkscape:cy="763.26935"
     inkscape:document-units="px"
     inkscape:current-layer="layer2"
     showgrid="false"
     inkscape:window-width="1920"
     inkscape:window-height="1017"
     inkscape:window-x="1592"
     inkscape:window-y="-8"
     inkscape:window-maximized="1"
     showguides="true"
     inkscape:guide-bbox="true" />
  <metadata
     id="metadata7">
    <rdf:RDF>
      <cc:Work
         rdf:about="">
        <dc:format>image/svg+xml</dc:format>
        <dc:type
           rdf:resource="http://purl.org/dc/dcmitype/StillImage" />
        <dc:title></dc:title>
      </cc:Work>
    </rdf:RDF>
  </metadata>
  <g
     inkscape:label="Grundlinien"
     inkscape:groupmode="layer"
     id="layer1"
     transform="translate(0,-95.669233)"
     style="display:inline"
     sodipodi:insensitive="true">
    <path
       style="fill:none;fill-rule:evenodd;stroke:#969696;stroke-width:1.875;stroke-linecap:round;stroke-linejoin:miter;stroke-miterlimit:4;stroke-dasharray:none;stroke-opacity:1"
       d="M 14.431227,531.17423 H 1504.8875"
       id="path3336"
       inkscape:connector-curvature="0"
       sodipodi:nodetypes="cc" />
    <path
       style="fill:none;fill-rule:evenodd;stroke:#000000;stroke-width:0.9375;stroke-linecap:round;stroke-linejoin:miter;stroke-miterlimit:2;stroke-dasharray:3.74999998, 7.49999996;stroke-dashoffset:0;stroke-opacity:1"
       d="M 15.154457,633.07649 H 1505.6107"
       id="path3336-4"
       inkscape:connector-curvature="0"
       sodipodi:nodetypes="cc" />
    <path
       style="fill:none;fill-rule:evenodd;stroke:#000000;stroke-width:0.9375;stroke-linecap:round;stroke-linejoin:miter;stroke-miterlimit:2;stroke-dasharray:3.74999998, 7.49999996;stroke-dashoffset:0;stroke-opacity:1"
       d="M 15.154457,430.69827 H 1505.6107"
       id="path3336-7"
       inkscape:connector-curvature="0"
       sodipodi:nodetypes="cc" />
    <path
       style="fill:none;fill-rule:evenodd;stroke:#000000;stroke-width:0.9375;stroke-linecap:round;stroke-linejoin:miter;stroke-miterlimit:2;stroke-dasharray:3.74999998, 7.49999996;stroke-dashoffset:0;stroke-opacity:1"
       d="M 15.154457,329.50919 H 1505.6107"
       id="path3336-2"
       inkscape:connector-curvature="0"
       sodipodi:nodetypes="cc" />
    <path
       style="fill:none;fill-rule:evenodd;stroke:#969696;stroke-width:1.875;stroke-linecap:round;stroke-linejoin:miter;stroke-miterlimit:4;stroke-dasharray:none;stroke-opacity:1"
       d="M 14.431227,930.81503 H 1504.8875"
       id="path3336-1"
       inkscape:connector-curvature="0"
       sodipodi:nodetypes="cc" />
    <path
       style="fill:none;fill-rule:evenodd;stroke:#000000;stroke-width:0.9375;stroke-linecap:round;stroke-linejoin:miter;stroke-miterlimit:2;stroke-dasharray:3.74999998, 7.49999996;stroke-dashoffset:0;stroke-opacity:1"
       d="M 15.154457,1032.7173 H 1505.6107"
       id="path3336-4-2"
       inkscape:connector-curvature="0"
       sodipodi:nodetypes="cc" />
    <path
       style="fill:none;fill-rule:evenodd;stroke:#000000;stroke-width:0.9375;stroke-linecap:round;stroke-linejoin:miter;stroke-miterlimit:2;stroke-dasharray:3.74999998, 7.49999996;stroke-dashoffset:0;stroke-opacity:1"
       d="M 15.154457,830.33907 H 1505.6107"
       id="path3336-7-1"
       inkscape:connector-curvature="0"
       sodipodi:nodetypes="cc" />
    <path
       style="fill:none;fill-rule:evenodd;stroke:#000000;stroke-width:0.9375;stroke-linecap:round;stroke-linejoin:miter;stroke-miterlimit:2;stroke-dasharray:3.74999998, 7.49999996;stroke-dashoffset:0;stroke-opacity:1"
       d="M 15.154457,729.14999 H 1505.6107"
       id="path3336-2-6"
       inkscape:connector-curvature="0"
       sodipodi:nodetypes="cc" />
    <path
       style="display:inline;fill:none;fill-rule:evenodd;stroke:#969696;stroke-width:1.87499988;stroke-linecap:round;stroke-linejoin:miter;stroke-miterlimit:4;stroke-dasharray:none;stroke-opacity:1"
       d="M 13.209372,124.62146 H 1503.6657"
       id="path3336-1-0"
       inkscape:connector-curvature="0"
       sodipodi:nodetypes="cc" />
    <path
       style="display:inline;fill:none;fill-rule:evenodd;stroke:#000000;stroke-width:0.93749994;stroke-linecap:round;stroke-linejoin:miter;stroke-miterlimit:2;stroke-dasharray:3.74999988, 7.49999977;stroke-dashoffset:0;stroke-opacity:1"
       d="M 13.932602,226.52373 H 1504.3889"
       id="path3336-4-2-2"
       inkscape:connector-curvature="0"
       sodipodi:nodetypes="cc" />
  </g>
  <g
     inkscape:groupmode="layer"
     id="layer2"
     inkscape:label="Stenozeichen"
     style="display:inline"
     transform="translate(0,212.59777)">
    <path
       style="display:inline;fill:none;fill-rule:evenodd;stroke:#000000;stroke-width:5.62499952;stroke-linecap:round;stroke-linejoin:miter;stroke-miterlimit:4;stroke-dasharray:none;stroke-opacity:1"
       d="m 1121.4057,119.5886 h 143.9401"
       id="path10938-01"
       inkscape:connector-curvature="0"
       sodipodi:nodetypes="cc" />
    <path
       style="display:inline;fill:none;fill-rule:evenodd;stroke:#000000;stroke-width:5.62499952;stroke-linecap:round;stroke-linejoin:miter;stroke-miterlimit:4;stroke-dasharray:none;stroke-opacity:1"
       d="M 1389.4041,-79.759209 1275.0118,112.78905"
       id="path822-8-8"
       inkscape:connector-curvature="0"
       sodipodi:nodetypes="cc" />
    <path
       style="display:inline;fill:none;fill-rule:evenodd;stroke:#000000;stroke-width:5.62499952;stroke-linecap:round;stroke-linejoin:round;stroke-miterlimit:4;stroke-dasharray:none;stroke-opacity:1"
       d="m 1438.5651,-77.846219 c -29.6899,22.64 -64.2112,56.762999 -49.161,-1.91299"
       id="path844-5-58-9-5-3-7-8-3-3-6-9"
       inkscape:connector-curvature="0"
       sodipodi:nodetypes="cc" />
    <path
       style="display:inline;fill:none;fill-rule:evenodd;stroke:#000000;stroke-width:5.62499952;stroke-linecap:round;stroke-linejoin:round;stroke-miterlimit:4;stroke-dasharray:none;stroke-opacity:1"
       d="m 1069.4086,179.9589 18.75,40.178"
       id="path844-2-5"
       inkscape:connector-curvature="0"
       sodipodi:nodetypes="cc" />
    <path
       style="display:inline;fill:none;fill-rule:evenodd;stroke:#000000;stroke-width:5.62499952;stroke-linecap:round;stroke-linejoin:miter;stroke-miterlimit:4;stroke-dasharray:none;stroke-opacity:1"
       d="M 131.53635,119.09319 H 275.47636"
       id="path10938-01-3"
       inkscape:connector-curvature="0"
       sodipodi:nodetypes="cc" />
    <path
       style="display:inline;fill:none;fill-rule:evenodd;stroke:#000000;stroke-width:5.62499952;stroke-linecap:round;stroke-linejoin:miter;stroke-miterlimit:4;stroke-dasharray:none;stroke-opacity:1"
       d="M 392.8383,-73.893022 282.53811,114.89794"
       id="path822-8-8-9"
       inkscape:connector-curvature="0"
       sodipodi:nodetypes="cc" />
    <path
       style="display:inline;fill:none;fill-rule:evenodd;stroke:#000000;stroke-width:5.62499952;stroke-linecap:round;stroke-linejoin:round;stroke-miterlimit:4;stroke-dasharray:none;stroke-opacity:1"
       d="m 441.99932,-71.980022 c -29.68983,22.64001 -64.21118,56.762999 -49.16102,-1.913"
       id="path844-5-58-9-5-3-7-8-3-3-6-9-8"
       inkscape:connector-curvature="0"
       sodipodi:nodetypes="cc" />
    <path
       style="display:inline;fill:none;fill-rule:evenodd;stroke:#000000;stroke-width:5.62499952;stroke-linecap:round;stroke-linejoin:round;stroke-miterlimit:4;stroke-dasharray:none;stroke-opacity:1"
       d="M 36.367045,187.38096 70.31404,171.36298 42.874044,220.21997"
       id="path3168-2"
       inkscape:connector-curvature="0"
       sodipodi:nodetypes="ccc" />
    <path
       style="display:inline;fill:none;fill-rule:evenodd;stroke:#000000;stroke-width:5.62499952;stroke-linecap:round;stroke-linejoin:miter;stroke-miterlimit:4;stroke-dasharray:none;stroke-opacity:1"
       d="m 636.85328,119.62103 h 145.0449"
       id="path10938-01-0"
       inkscape:connector-curvature="0"
       sodipodi:nodetypes="cc" />
    <path
       style="display:inline;fill:none;fill-rule:evenodd;stroke:#000000;stroke-width:5.62499952;stroke-linecap:round;stroke-linejoin:round;stroke-miterlimit:4;stroke-dasharray:none;stroke-opacity:1"
       d="m 787.50201,107.7974 c 0.71292,0.0792 1.33366,0.22325 1.83631,0.4825 0.16492,0.0864 0.31615,0.18001 0.45441,0.28083 0.89079,0.69133 1.21343,1.87234 0.71724,3.76629 -0.97001,3.67985 -5.13524,5.79704 -7.11558,6.54597 -4.09899,1.48346 -7.13792,-1.89395 -4.79606,-5.53059 1.46546,-2.26842 4.00391,-4.78887 7.00109,-5.40818 0.20308,-0.072 0.41047,-0.0792 0.61786,-0.10082 0.24917,0 0.50193,-0.072 0.75688,-0.072 0.5768,0 1.16659,0.0792 1.76502,0.24485"
       id="path12351-7-1-4-77-4"
       inkscape:connector-curvature="0"
       sodipodi:nodetypes="cssscssssc" />
    <path
       style="display:inline;fill:none;fill-rule:evenodd;stroke:#000000;stroke-width:5.62499952;stroke-linecap:round;stroke-linejoin:miter;stroke-miterlimit:4;stroke-dasharray:none;stroke-opacity:1"
       d="M 966.32483,-213.32054 789.28747,114.9978"
       id="path822-8-8-6"
       inkscape:connector-curvature="0"
       sodipodi:nodetypes="cc" />
    <ellipse
       style="display:inline;fill:none;fill-opacity:1;stroke:#000000;stroke-width:5.625;stroke-linecap:round;stroke-linejoin:round;stroke-miterlimit:4;stroke-dasharray:none;stroke-dashoffset:0;stroke-opacity:1;paint-order:stroke fill markers"
       id="path44014"
       cx="834.18091"
       cy="360.99573"
       rx="25.728556"
       ry="20.371414"
       transform="rotate(-26.828027)" />
    <path
       style="display:inline;fill:none;fill-rule:evenodd;stroke:#000000;stroke-width:5.62499952;stroke-linecap:round;stroke-linejoin:round;stroke-miterlimit:4;stroke-dasharray:none;stroke-opacity:1"
       d="m 520.55995,174.95518 c 39.962,2.97999 57.64522,-35.31994 56.606,-44.28 -1.42571,-12.29233 -29.313,-4.28 -53.13,35.04 -30.83354,50.4452 -20.37301,58.90636 -0.57115,51.61086 7.32672,-2.69933 22.12647,-10.85918 30.39235,-16.54426"
       id="path12351-7-1-51"
       inkscape:connector-curvature="0"
       sodipodi:nodetypes="cscsc" />
    <path
       style="display:inline;fill:none;fill-rule:evenodd;stroke:#000000;stroke-width:5.62499952;stroke-linecap:round;stroke-linejoin:round;stroke-miterlimit:4;stroke-dasharray:none;stroke-opacity:1"
       d="m 523.65174,271.98756 c 16.755,-0.4872 32.979,-21.31982 34.993,-47.24111 2.081,-26.79852 46.69979,-54.94714 36.276,-48.67462 l -41.06359,24.70995"
       id="path12351-7-1-8-2-1-6"
       inkscape:connector-curvature="0"
       sodipodi:nodetypes="cssc" />
    <path
       style="display:inline;fill:none;fill-rule:evenodd;stroke:#000000;stroke-width:5.62499952;stroke-linecap:round;stroke-linejoin:round;stroke-miterlimit:4;stroke-dasharray:none;stroke-opacity:1"
       d="m 1271.6308,108.15252 c 0.713,0.0792 1.3337,0.22325 1.8364,0.48249 0.1649,0.0864 0.3161,0.18002 0.4544,0.28084 0.8908,0.69133 1.2134,1.87235 0.7172,3.76629 -0.97,3.67985 -5.1352,5.79704 -7.1156,6.54597 -4.0989,1.48346 -7.1379,-1.89395 -4.796,-5.5306 1.4654,-2.26841 4.0039,-4.78886 7.001,-5.40816 0.2031,-0.072 0.4105,-0.0792 0.6179,-0.10083 0.2492,0 0.5019,-0.072 0.7569,-0.072 0.5768,0 1.1666,0.0792 1.765,0.24485"
       id="path12351-7-1-4-77-4-9"
       inkscape:connector-curvature="0"
       sodipodi:nodetypes="cssscssssc" />
    <path
       style="display:inline;fill:none;fill-rule:evenodd;stroke:#000000;stroke-width:5.62499952;stroke-linecap:round;stroke-linejoin:miter;stroke-miterlimit:4;stroke-dasharray:none;stroke-opacity:1"
       d="m 1022.8927,208.46892 c -1.923,9.24 -7.173,19.98 -15.169,26.71999"
       id="path63000-9"
       inkscape:connector-curvature="0"
       sodipodi:nodetypes="cc" />
    <path
       style="display:inline;fill:none;fill-rule:evenodd;stroke:#000000;stroke-width:5.62499952;stroke-linecap:round;stroke-linejoin:miter;stroke-miterlimit:4;stroke-dasharray:none;stroke-opacity:1"
       d="m 447.0114,208.46892 c -1.923,9.24 -7.173,19.98 -15.16899,26.71999"
       id="path63000-9-3"
       inkscape:connector-curvature="0"
       sodipodi:nodetypes="cc" />
    <path
       style="display:inline;fill:none;fill-rule:evenodd;stroke:#000000;stroke-width:5.62499952;stroke-linecap:round;stroke-linejoin:miter;stroke-miterlimit:4;stroke-dasharray:none;stroke-opacity:1"
       d="m 997.73938,608.37501 c -1.923,9.24 -7.173,19.98 -15.169,26.72"
       id="path63000-9-6"
       inkscape:connector-curvature="0"
       sodipodi:nodetypes="cc" />
    <path
       style="display:inline;fill:none;fill-rule:evenodd;stroke:#000000;stroke-width:5.62499952;stroke-linecap:round;stroke-linejoin:miter;stroke-miterlimit:4;stroke-dasharray:none;stroke-opacity:1"
       d="m 515.72335,608.37501 c -1.923,9.24 -7.173,19.98 -15.169,26.72"
       id="path63000-9-3-8"
       inkscape:connector-curvature="0"
       sodipodi:nodetypes="cc" />
    <path
       style="display:inline;fill:none;fill-rule:evenodd;stroke:#000000;stroke-width:5.62499905;stroke-linecap:round;stroke-linejoin:miter;stroke-miterlimit:4;stroke-dasharray:none;stroke-opacity:1"
       d="M 157.45387,519.35161 H 301.39388"
       id="path10938-01-7"
       inkscape:connector-curvature="0"
       sodipodi:nodetypes="cc" />
    <path
       style="display:inline;fill:none;fill-rule:evenodd;stroke:#000000;stroke-width:5.62499905;stroke-linecap:round;stroke-linejoin:round;stroke-miterlimit:4;stroke-dasharray:none;stroke-opacity:1"
       d="m 377.92086,410.96709 c 0,0 36.364,-53.10299 39.11399,-56.84499 9.045,-12.306 16.49197,-28.09237 32.51901,-27.299 13.74932,0.68061 13.34962,31.28539 30.84999,29.56029 3.97563,-0.3919 8.74719,-3.02251 14.63231,-8.88078"
       id="path844-5-5-5-9-5"
       inkscape:connector-curvature="0"
       sodipodi:nodetypes="csssc" />
    <path
       style="display:inline;fill:none;fill-rule:evenodd;stroke:#000000;stroke-width:5.62499905;stroke-linecap:round;stroke-linejoin:miter;stroke-miterlimit:4;stroke-dasharray:none;stroke-opacity:1"
       d="M 377.92086,410.96709 308.38139,515.06317"
       id="path822-8-8-2"
       inkscape:connector-curvature="0"
       sodipodi:nodetypes="cc" />
    <path
       style="display:inline;fill:none;fill-rule:evenodd;stroke:#000000;stroke-width:5.62499905;stroke-linecap:round;stroke-linejoin:round;stroke-miterlimit:4;stroke-dasharray:none;stroke-opacity:1"
       d="m 109.91552,524.40621 c -39.360149,9.7404 -46.718928,24.1932 -56.817927,40.6932 l -28.699369,55.0468"
       id="path3168-1"
       inkscape:connector-curvature="0"
       sodipodi:nodetypes="ccc" />
    <path
       style="display:inline;fill:none;fill-rule:evenodd;stroke:#000000;stroke-width:5.62499905;stroke-linecap:round;stroke-linejoin:miter;stroke-miterlimit:4;stroke-dasharray:none;stroke-opacity:1"
       d="M 711.98311,519.84781 H 855.9231"
       id="path10938-01-75"
       inkscape:connector-curvature="0"
       sodipodi:nodetypes="cc" />
    <path
       style="display:inline;fill:none;fill-rule:evenodd;stroke:#000000;stroke-width:5.62499905;stroke-linecap:round;stroke-linejoin:miter;stroke-miterlimit:4;stroke-dasharray:none;stroke-opacity:1"
       d="M 973.2851,326.86165 865.58917,513.04831"
       id="path822-8-8-9-9"
       inkscape:connector-curvature="0"
       sodipodi:nodetypes="cc" />
    <path
       style="display:inline;fill:none;fill-rule:evenodd;stroke:#000000;stroke-width:5.62499905;stroke-linecap:round;stroke-linejoin:round;stroke-miterlimit:4;stroke-dasharray:none;stroke-opacity:1"
       d="m 973.2851,326.86165 -31.2512,92.78782"
       id="path844-99-4-6-9"
       inkscape:connector-curvature="0"
       sodipodi:nodetypes="cc" />
    <path
       style="display:inline;fill:none;fill-rule:evenodd;stroke:#000000;stroke-width:5.62499905;stroke-linecap:round;stroke-linejoin:round;stroke-miterlimit:4;stroke-dasharray:none;stroke-opacity:1"
       d="m 584.10011,620.42871 66.09031,-94.6404 24.00911,46.3198"
       id="path844-42"
       inkscape:connector-curvature="0"
       sodipodi:nodetypes="ccc" />
    <path
       style="display:inline;fill:none;fill-rule:evenodd;stroke:#000000;stroke-width:5.62499905;stroke-linecap:round;stroke-linejoin:round;stroke-miterlimit:4;stroke-dasharray:none;stroke-opacity:1"
       d="m 862.55381,508.24661 c 0.71293,0.079 1.33366,0.2233 1.83631,0.4825 0.16493,0.086 0.31616,0.18 0.45442,0.2809 0.89078,0.6913 1.21342,1.8723 0.71723,3.7662 -0.96999,3.6799 -5.13523,5.7971 -7.11557,6.546 -4.09898,1.4835 -7.13792,-1.8939 -4.79607,-5.5306 1.46547,-2.2684 4.00392,-4.7888 7.00109,-5.4081 0.20309,-0.072 0.41048,-0.079 0.61787,-0.1009 0.24918,0 0.50194,-0.072 0.75687,-0.072 0.57682,0 1.16661,0.079 1.76503,0.2449"
       id="path12351-7-1-4-77-4-2-9"
       inkscape:connector-curvature="0"
       sodipodi:nodetypes="cssscssssc" />
    <path
       style="display:inline;fill:none;fill-rule:evenodd;stroke:#000000;stroke-width:5.62499905;stroke-linecap:round;stroke-linejoin:miter;stroke-miterlimit:4;stroke-dasharray:none;stroke-opacity:1"
       d="m 1146.8964,519.70381 h 140.1899"
       id="path10938-01-01"
       inkscape:connector-curvature="0"
       sodipodi:nodetypes="cc" />
    <path
       style="display:inline;fill:none;fill-rule:evenodd;stroke:#000000;stroke-width:5.62499905;stroke-linecap:round;stroke-linejoin:round;stroke-miterlimit:4;stroke-dasharray:none;stroke-opacity:1"
       d="m 1367.3633,411.31935 c 0,0 36.5251,-52.98978 39.114,-56.84499 7.151,-10.64872 17.2213,-27.85561 30.644,-27.299 13.8961,0.57624 17.0146,35.38482 35.0196,32.72922 5.1417,-0.75837 11.5905,-5.20011 19.9971,-15.35112"
       id="path844-5-5-5-9-5-0"
       inkscape:connector-curvature="0"
       sodipodi:nodetypes="csssc" />
    <path
       style="display:inline;fill:none;fill-rule:evenodd;stroke:#000000;stroke-width:5.62499905;stroke-linecap:round;stroke-linejoin:miter;stroke-miterlimit:4;stroke-dasharray:none;stroke-opacity:1"
       d="m 1367.3633,411.31935 -66.8609,101.58496"
       id="path822-8-8-4"
       inkscape:connector-curvature="0"
       sodipodi:nodetypes="cc" />
    <path
       style="display:inline;fill:none;fill-rule:evenodd;stroke:#000000;stroke-width:5.62499905;stroke-linecap:round;stroke-linejoin:miter;stroke-miterlimit:4;stroke-dasharray:none;stroke-opacity:1"
       d="m 1098.5267,525.14491 -37.3281,64.5299"
       id="path822-3-4-2"
       inkscape:connector-curvature="0"
       sodipodi:nodetypes="cc" />
    <ellipse
       style="display:inline;fill:none;fill-opacity:1;stroke:#000000;stroke-width:5.62499952;stroke-linecap:round;stroke-linejoin:round;stroke-miterlimit:4;stroke-dasharray:none;stroke-dashoffset:0;stroke-opacity:1;paint-order:stroke fill markers"
       id="path44014-1-3-5-4-20-28-3-2"
       cx="489.06839"
       cy="1134.3904"
       rx="25.728556"
       ry="20.371414"
       transform="rotate(-37.736319)" />
    <path
       style="display:inline;fill:none;fill-rule:evenodd;stroke:#000000;stroke-width:5.62499857;stroke-linecap:round;stroke-linejoin:round;stroke-miterlimit:4;stroke-dasharray:none;stroke-opacity:1"
       d="m 1297.5275,508.26931 c 0.7128,0.079 1.3336,0.2233 1.8362,0.4825 0.165,0.086 0.3163,0.1801 0.4544,0.2809 0.8909,0.6913 1.2135,1.8723 0.7173,3.7663 -0.97,3.6798 -5.1352,5.797 -7.1156,6.5459 -4.0989,1.4835 -7.1378,-1.8939 -4.7961,-5.5306 1.4655,-2.2684 4.004,-4.7888 7.0011,-5.4081 0.2032,-0.072 0.4105,-0.079 0.6179,-0.1009 0.2492,0 0.5019,-0.072 0.7569,-0.072 0.5768,0 1.1667,0.079 1.7651,0.2449"
       id="path12351-7-1-4-77-4-2-4"
       inkscape:connector-curvature="0"
       sodipodi:nodetypes="cssscssssc" />
    <path
       style="display:inline;fill:none;fill-rule:evenodd;stroke:#000000;stroke-width:5.62499952;stroke-linecap:round;stroke-linejoin:round;stroke-miterlimit:4;stroke-dasharray:none;stroke-opacity:1"
       d="m 306.59856,508.43688 c 0.68524,0.0761 1.28188,0.21456 1.76501,0.46374 0.15851,0.0831 0.30386,0.17304 0.43675,0.26994 0.8562,0.66447 1.16629,1.79961 0.68938,3.61999 -0.93233,3.53693 -4.93576,5.57187 -6.8392,6.29171 -3.93976,1.42585 -6.86067,-1.82037 -4.60978,-5.31578 1.40854,-2.18029 3.8484,-4.60285 6.72916,-5.1981 0.19519,-0.0692 0.39453,-0.0761 0.59387,-0.0969 0.2395,0 0.48244,-0.0692 0.72747,-0.0692 0.55441,0 1.12128,0.0761 1.69648,0.23533"
       id="path12351-7-1-4-77-9-0"
       inkscape:connector-curvature="0"
       sodipodi:nodetypes="cssscssssc" />
    <path
       style="display:inline;fill:none;fill-rule:evenodd;stroke:#000000;stroke-width:5.62499952;stroke-linecap:round;stroke-linejoin:round;stroke-miterlimit:4;stroke-dasharray:none;stroke-opacity:1"
       d="m 280.97317,107.64165 c 0.68524,0.0761 1.28188,0.21456 1.76501,0.46374 0.15851,0.0831 0.30386,0.17304 0.43675,0.26994 0.8562,0.66447 1.16629,1.79961 0.68938,3.61999 -0.93233,3.53693 -4.93576,5.57187 -6.8392,6.29171 -3.93976,1.42585 -6.86067,-1.82037 -4.60978,-5.31578 1.40854,-2.18029 3.8484,-4.60285 6.72916,-5.1981 0.19519,-0.0692 0.39453,-0.0761 0.59387,-0.0969 0.2395,0 0.48244,-0.0692 0.72747,-0.0692 0.55441,0 1.12128,0.0761 1.69648,0.23533"
       id="path12351-7-1-4-77-9-2"
       inkscape:connector-curvature="0"
       sodipodi:nodetypes="cssscssssc" />
  </g>
</svg>
