<?xml version="1.0" encoding="UTF-8" standalone="no"?>
<!-- Created with Inkscape (http://www.inkscape.org/) -->

<svg
   xmlns:dc="http://purl.org/dc/elements/1.1/"
   xmlns:cc="http://creativecommons.org/ns#"
   xmlns:rdf="http://www.w3.org/1999/02/22-rdf-syntax-ns#"
   xmlns:svg="http://www.w3.org/2000/svg"
   xmlns="http://www.w3.org/2000/svg"
   xmlns:sodipodi="http://sodipodi.sourceforge.net/DTD/sodipodi-0.dtd"
   xmlns:inkscape="http://www.inkscape.org/namespaces/inkscape"
   width="297mm"
   height="210mm"
   viewBox="0 0 1052.3622 744.09448"
   id="svg2"
   version="1.1"
   inkscape:version="0.92.3 (2405546, 2018-03-11)"
   sodipodi:docname="DEK Deutsche Einheitskurzschrift - Verkehrsschrift - Atacamawüste.svg">
  <defs
     id="defs4" />
  <sodipodi:namedview
     id="base"
     pagecolor="#ffffff"
     bordercolor="#666666"
     borderopacity="1.0"
     inkscape:pageopacity="0.0"
     inkscape:pageshadow="2"
     inkscape:zoom="0.9899495"
     inkscape:cx="465.8934"
     inkscape:cy="599.59026"
     inkscape:document-units="px"
     inkscape:current-layer="layer2"
     showgrid="false"
     inkscape:window-width="1920"
     inkscape:window-height="1017"
     inkscape:window-x="1592"
     inkscape:window-y="115"
     inkscape:window-maximized="1"
     showguides="true"
     inkscape:guide-bbox="true" />
  <metadata
     id="metadata7">
    <rdf:RDF>
      <cc:Work
         rdf:about="">
        <dc:format>image/svg+xml</dc:format>
        <dc:type
           rdf:resource="http://purl.org/dc/dcmitype/StillImage" />
        <dc:title></dc:title>
      </cc:Work>
    </rdf:RDF>
  </metadata>
  <g
     inkscape:label="Grundlinien"
     inkscape:groupmode="layer"
     id="layer1"
     transform="translate(0,-308.26772)"
     sodipodi:insensitive="true">
    <path
       style="fill:none;fill-rule:evenodd;stroke:#969696;stroke-width:1.875;stroke-linecap:round;stroke-linejoin:miter;stroke-miterlimit:4;stroke-dasharray:none;stroke-opacity:1"
       d="M 57.556226,742.24566 H 1006.4206"
       id="path3336"
       inkscape:connector-curvature="0"
       sodipodi:nodetypes="cc" />
    <path
       style="fill:none;fill-rule:evenodd;stroke:#000000;stroke-width:0.9375;stroke-linecap:round;stroke-linejoin:miter;stroke-miterlimit:2;stroke-dasharray:3.74999998, 7.49999996;stroke-dashoffset:0;stroke-opacity:1"
       d="M 58.279456,844.14792 H 1007.1438"
       id="path3336-4"
       inkscape:connector-curvature="0"
       sodipodi:nodetypes="cc" />
    <path
       style="fill:none;fill-rule:evenodd;stroke:#000000;stroke-width:0.9375;stroke-linecap:round;stroke-linejoin:miter;stroke-miterlimit:2;stroke-dasharray:3.74999998, 7.49999996;stroke-dashoffset:0;stroke-opacity:1"
       d="M 58.279456,641.7697 H 1007.1438"
       id="path3336-7"
       inkscape:connector-curvature="0"
       sodipodi:nodetypes="cc" />
    <path
       style="fill:none;fill-rule:evenodd;stroke:#000000;stroke-width:0.9375;stroke-linecap:round;stroke-linejoin:miter;stroke-miterlimit:2;stroke-dasharray:3.74999998, 7.49999996;stroke-dashoffset:0;stroke-opacity:1"
       d="M 58.279456,540.58062 H 1007.1438"
       id="path3336-2"
       inkscape:connector-curvature="0"
       sodipodi:nodetypes="cc" />
  </g>
  <g
     inkscape:groupmode="layer"
     id="layer2"
     inkscape:label="Stenozeichen">
    <path
       style="display:inline;fill:none;fill-rule:evenodd;stroke:#000000;stroke-width:5.625;stroke-linecap:round;stroke-linejoin:round;stroke-miterlimit:4;stroke-dasharray:none;stroke-opacity:1"
       d="m 133.76779,333.22148 -55.81,97.23451"
       id="path844-5-6-6-9-3"
       inkscape:connector-curvature="0"
       sodipodi:nodetypes="cc" />
    <path
       style="display:inline;fill:none;fill-rule:evenodd;stroke:#000000;stroke-width:5.625;stroke-linecap:round;stroke-linejoin:round;stroke-miterlimit:4;stroke-dasharray:none;stroke-opacity:1"
       d="m 133.76779,333.22148 -10.573,0.033"
       id="path844-5-6-6-9-9-5"
       inkscape:connector-curvature="0"
       sodipodi:nodetypes="cc" />
    <path
       style="display:inline;fill:none;fill-rule:evenodd;stroke:#000000;stroke-width:5.625;stroke-linecap:round;stroke-linejoin:round;stroke-miterlimit:4;stroke-dasharray:none;stroke-opacity:1"
       d="m 128.23279,333.23968 -55.81,97.23451"
       id="path844-5-6-6-9-0-5"
       inkscape:connector-curvature="0"
       sodipodi:nodetypes="cc" />
    <path
       style="display:inline;fill:none;fill-rule:evenodd;stroke:#000000;stroke-width:5.625;stroke-linecap:round;stroke-linejoin:round;stroke-miterlimit:4;stroke-dasharray:none;stroke-opacity:1"
       d="m 77.95779,430.45599 -10.572,0.033"
       id="path844-5-6-6-9-9-1-1"
       inkscape:connector-curvature="0"
       sodipodi:nodetypes="cc" />
    <path
       style="display:inline;fill:none;fill-rule:evenodd;stroke:#000000;stroke-width:5.625;stroke-linecap:round;stroke-linejoin:round;stroke-miterlimit:4;stroke-dasharray:none;stroke-opacity:1"
       d="m 22.452496,431.60969 100.742294,-98.35521 -55.809,97.23451 10.97302,-0.12052 49.52954,-54.49737"
       id="path844-99-4-6"
       inkscape:connector-curvature="0"
       sodipodi:nodetypes="ccccc" />
    <path
       style="display:inline;fill:none;fill-rule:evenodd;stroke:#000000;stroke-width:5.625;stroke-linecap:round;stroke-linejoin:round;stroke-miterlimit:4;stroke-dasharray:none;stroke-opacity:1"
       d="m 127.88835,375.8711 c 0,0 17.94403,-20.56638 23.0399,-25.32088 5.41453,-5.05183 11.00398,-10.09006 12.36703,-11.06479 20.5901,-14.72416 57.41869,3.28887 -11.08549,40.50391 48.5286,-19.31068 15.46421,22.54708 0.81565,50.34099 0,0 32.31699,-36.38789 31.60599,-35.36089"
       id="path12351-2"
       inkscape:connector-curvature="0"
       sodipodi:nodetypes="cssccc" />
    <path
       style="display:inline;fill:none;fill-rule:evenodd;stroke:#000000;stroke-width:5.625;stroke-linecap:round;stroke-linejoin:round;stroke-miterlimit:4;stroke-dasharray:none;stroke-opacity:1"
       d="m 184.63147,394.96944 c 3.007,-4.319 37.205,-43.2838 43.373,-48.2647 23.726,-19.1581 60.947,-14.6383 37.482,14.3726 -27.375,33.846 -45.456,50.2278 -39.44,63.8908 4.204,9.54971 23.1393,7.19615 36.499,-3.6706 l 30.3018,-24.64747"
       id="path844-52-8"
       inkscape:connector-curvature="0"
       sodipodi:nodetypes="cssssc" />
    <path
       style="display:inline;fill:none;fill-rule:evenodd;stroke:#000000;stroke-width:5.625;stroke-linecap:round;stroke-linejoin:miter;stroke-miterlimit:4;stroke-dasharray:none;stroke-opacity:1"
       d="m 266.32747,338.29034 c 14.535,10.1178 4.342,27.8353 -12.394,44.1565 -14.374,14.0183 -23.364,26.3805 -29.512,38.7076"
       id="path1647-51"
       inkscape:connector-curvature="0"
       sodipodi:nodetypes="csc" />
    <path
       style="display:inline;fill:none;fill-rule:evenodd;stroke:#000000;stroke-width:5.625;stroke-linecap:round;stroke-linejoin:miter;stroke-miterlimit:4;stroke-dasharray:none;stroke-opacity:1"
       d="m 266.32747,338.29034 c 0.783,-1.1193 3.882,6.1159 0.736,14.2419 -3.248,8.39 -12.84,17.7766 -18.304,22.9288 -10.757,10.1421 -30.592,28.9644 -24.338,45.6934"
       id="path1647-5-7"
       inkscape:connector-curvature="0"
       sodipodi:nodetypes="cssc" />
    <path
       style="display:inline;fill:none;fill-rule:evenodd;stroke:#000000;stroke-width:2.8125;stroke-linecap:round;stroke-linejoin:miter;stroke-miterlimit:4;stroke-dasharray:none;stroke-opacity:1"
       d="m 257.77747,336.58124 c 11.256,1.3243 8.788,6.5152 9.081,10.9744"
       id="path1647-0-8"
       inkscape:connector-curvature="0"
       sodipodi:nodetypes="cc" />
    <path
       style="display:inline;fill:none;fill-rule:evenodd;stroke:#000000;stroke-width:2.8125;stroke-linecap:round;stroke-linejoin:miter;stroke-miterlimit:4;stroke-dasharray:none;stroke-opacity:1"
       d="m 229.54247,413.86374 c -2.696,4.9204 -3.763,12.04 2.312,14.4851"
       id="path1647-1-3"
       inkscape:connector-curvature="0"
       sodipodi:nodetypes="cc" />
    <path
       style="display:inline;fill:none;fill-rule:evenodd;stroke:#000000;stroke-width:2.8125;stroke-linecap:round;stroke-linejoin:miter;stroke-miterlimit:4;stroke-dasharray:none;stroke-opacity:1"
       d="m 221.82447,415.20714 c -0.102,5.6556 2.886,11.51101 4.864,13.1458"
       id="path1647-1-1-3"
       inkscape:connector-curvature="0"
       sodipodi:nodetypes="cc" />
    <path
       style="display:inline;fill:none;fill-rule:evenodd;stroke:#000000;stroke-width:5.625;stroke-linecap:round;stroke-linejoin:round;stroke-miterlimit:4;stroke-dasharray:none;stroke-opacity:1"
       d="m 381.36337,373.27636 c 9.5311,-18.02124 25.9365,-36.32411 39.1056,-37.79224 12.2298,2.11742 14.5535,12.9796 14.5535,12.9796 0.494,12.86659 -2.2242,21.43474 -15.8655,31.97547 -13.9366,7.974 -26.9608,2.83686 -26.6858,-5.32102 -5.6454,-9.32011 46.0118,-85.72876 82.8661,-138.23388"
       id="path12351-7-1-4-17-5-0"
       inkscape:connector-curvature="0"
       sodipodi:nodetypes="cccccc" />
    <path
       id="path927-3"
       d="m 432.00907,346.28738 c 0.5115,14.98083 -4.5532,29.47112 -23.5364,36.82608"
       style="fill:none;stroke:#000000;stroke-width:5.62495899px;stroke-linecap:round;stroke-linejoin:miter;stroke-miterlimit:4;stroke-dasharray:none;stroke-opacity:1"
       inkscape:connector-curvature="0"
       sodipodi:nodetypes="cc" />
    <path
       id="path929-6"
       d="m 426.78457,338.47673 c 6.5249,22.19984 -5.2647,32.98906 -22.4396,42.73899"
       style="fill:none;stroke:#000000;stroke-width:6.59995174px;stroke-linecap:round;stroke-linejoin:miter;stroke-miterlimit:4;stroke-dasharray:none;stroke-opacity:1"
       inkscape:connector-curvature="0"
       sodipodi:nodetypes="cc" />
    <path
       id="path931-8"
       d="m 409.86967,375.69175 c -5.1767,4.12213 -11.884,7.99792 -16.3653,-2.0321"
       style="fill:none;stroke:#000000;stroke-width:2.84997892px;stroke-linecap:round;stroke-linejoin:miter;stroke-miterlimit:4;stroke-dasharray:none;stroke-opacity:1"
       inkscape:connector-curvature="0"
       sodipodi:nodetypes="cc" />
    <path
       id="path933-6"
       d="m 415.09667,337.79638 c 8.475,-1.49999 11.6303,3.47275 11.5553,9.9977"
       style="fill:none;stroke:#000000;stroke-width:2.84997892px;stroke-linecap:round;stroke-linejoin:miter;stroke-miterlimit:4;stroke-dasharray:none;stroke-opacity:1"
       inkscape:connector-curvature="0"
       sodipodi:nodetypes="cc" />
    <path
       style="display:inline;fill:none;fill-rule:evenodd;stroke:#000000;stroke-width:5.625;stroke-linecap:round;stroke-linejoin:round;stroke-miterlimit:4;stroke-dasharray:none;stroke-opacity:1"
       d="m 561.82007,186.33978 c -35.8566,22.64043 -79.6709,56.76348 -48.6404,-1.91232 l -37.8424,52.45683"
       id="path844-5-58-9-5-3-7-8-3-3"
       inkscape:connector-curvature="0"
       sodipodi:nodetypes="ccc" />
    <path
       style="display:inline;fill:none;fill-rule:evenodd;stroke:#000000;stroke-width:5.625;stroke-linecap:round;stroke-linejoin:round;stroke-miterlimit:4;stroke-dasharray:none;stroke-opacity:1"
       d="m 292.84727,396.65007 c 0,0 19.3355,-18.6866 26.9035,-25.26569 17.5562,-15.26232 45.194,-36.45052 53.5071,-35.47177 -51.2189,15.79955 -94.4855,121.77115 -31.5267,86.64286 4.7369,-2.64298 7.651,-6.3833 9.846,-8.1981 3.887,-3.2127 13.3582,-15.25315 19.5052,-23.86577 1.1386,-1.59533 9.69,-16.55744 10.281,-17.21524"
       id="path844-3-9"
       inkscape:connector-curvature="0"
       sodipodi:nodetypes="cscsssc" />
    <path
       style="fill:none;fill-rule:evenodd;stroke:#000000;stroke-width:5.625;stroke-linecap:round;stroke-linejoin:miter;stroke-miterlimit:4;stroke-dasharray:none;stroke-opacity:1"
       d="m 348.85048,349.67484 c -19.3564,22.07131 -27.31487,50.86899 -33.48217,75.33481"
       id="path17550"
       inkscape:connector-curvature="0"
       sodipodi:nodetypes="cc" />
    <path
       style="fill:none;fill-rule:evenodd;stroke:#000000;stroke-width:5.625;stroke-linecap:round;stroke-linejoin:miter;stroke-miterlimit:4;stroke-dasharray:none;stroke-opacity:1"
       d="m 336.79237,359.54731 c -7.1707,-2.49681 -35.2477,59.7528 -25.1071,64.96011"
       id="path17550-7"
       inkscape:connector-curvature="0"
       sodipodi:nodetypes="cc" />
    <path
       style="fill:none;fill-rule:evenodd;stroke:#000000;stroke-width:8.4375;stroke-linecap:round;stroke-linejoin:miter;stroke-miterlimit:4;stroke-dasharray:none;stroke-opacity:1"
       d="m 173.26185,380.43956 -25.9162,47.20032"
       id="path17584"
       inkscape:connector-curvature="0"
       sodipodi:nodetypes="cc" />
    <path
       style="fill:none;fill-rule:evenodd;stroke:#000000;stroke-width:5.625;stroke-linecap:round;stroke-linejoin:miter;stroke-miterlimit:4;stroke-dasharray:none;stroke-opacity:1"
       d="M 169.21925,379.54517 137.7875,430.85035"
       id="path17584-9"
       inkscape:connector-curvature="0"
       sodipodi:nodetypes="cc" />
    <path
       style="fill:none;fill-rule:evenodd;stroke:#000000;stroke-width:5.625;stroke-linecap:round;stroke-linejoin:miter;stroke-miterlimit:4;stroke-dasharray:none;stroke-opacity:1"
       d="m 153.02544,430.33033 -15.23794,0.52002"
       id="path17584-7"
       inkscape:connector-curvature="0"
       sodipodi:nodetypes="cc" />
    <path
       style="fill:none;fill-rule:evenodd;stroke:#000000;stroke-width:3.75;stroke-linecap:round;stroke-linejoin:miter;stroke-miterlimit:4;stroke-dasharray:none;stroke-opacity:1"
       d="m 163.68766,386.95796 c 4.4816,-6.94468 1.05524,-9.96714 -2.72399,-9.06424"
       id="path17584-7-7"
       inkscape:connector-curvature="0"
       sodipodi:nodetypes="cc" />
    <path
       style="fill:none;fill-rule:evenodd;stroke:#000000;stroke-width:5.625;stroke-linecap:round;stroke-linejoin:miter;stroke-miterlimit:4;stroke-dasharray:none;stroke-opacity:1"
       d="m 340.47541,360.04954 c -7.1707,-2.49681 -35.2477,59.7528 -25.1071,64.96011"
       id="path17550-7-2"
       inkscape:connector-curvature="0"
       sodipodi:nodetypes="cc" />
    <path
       style="fill:none;fill-rule:evenodd;stroke:#000000;stroke-width:3.75;stroke-linecap:round;stroke-linejoin:miter;stroke-miterlimit:4;stroke-dasharray:none;stroke-opacity:1"
       d="m 319.87212,411.89239 c -0.006,0.0111 -7.25104,19.45364 7.45424,15.90877"
       id="path17550-7-5"
       inkscape:connector-curvature="0"
       sodipodi:nodetypes="cc" />
    <path
       style="display:inline;fill:none;fill-rule:evenodd;stroke:#000000;stroke-width:5.625;stroke-linecap:round;stroke-linejoin:round;stroke-miterlimit:4;stroke-dasharray:none;stroke-opacity:1"
       d="m 580.0367,333.98595 -55.81,97.23452"
       id="path844-5-6-6-9-3-1"
       inkscape:connector-curvature="0"
       sodipodi:nodetypes="cc" />
    <path
       style="display:inline;fill:none;fill-rule:evenodd;stroke:#000000;stroke-width:5.625;stroke-linecap:round;stroke-linejoin:round;stroke-miterlimit:4;stroke-dasharray:none;stroke-opacity:1"
       d="m 580.0367,333.98595 -10.573,0.033"
       id="path844-5-6-6-9-9-5-8"
       inkscape:connector-curvature="0"
       sodipodi:nodetypes="cc" />
    <path
       style="display:inline;fill:none;fill-rule:evenodd;stroke:#000000;stroke-width:7.5;stroke-linecap:round;stroke-linejoin:round;stroke-miterlimit:4;stroke-dasharray:none;stroke-opacity:1"
       d="m 572.1532,335.66143 -53.916,94.03834"
       id="path844-5-6-6-9-0-5-3"
       inkscape:connector-curvature="0"
       sodipodi:nodetypes="cc" />
    <path
       style="display:inline;fill:none;fill-rule:evenodd;stroke:#000000;stroke-width:5.625;stroke-linecap:round;stroke-linejoin:round;stroke-miterlimit:4;stroke-dasharray:none;stroke-opacity:1"
       d="m 524.2267,431.22047 -10.572,0.033"
       id="path844-5-6-6-9-9-1-1-6"
       inkscape:connector-curvature="0"
       sodipodi:nodetypes="cc" />
    <path
       style="display:inline;fill:none;fill-rule:evenodd;stroke:#000000;stroke-width:5.625;stroke-linecap:round;stroke-linejoin:round;stroke-miterlimit:4;stroke-dasharray:none;stroke-opacity:1"
       d="m 464.00041,431.53711 103.58829,-97.51816 -55.809,97.23452 12.447,-0.033 c 10.579,-9.17947 20.7657,-20.06826 30.5476,-25.7677"
       id="path844-99-4-6-6"
       inkscape:connector-curvature="0"
       sodipodi:nodetypes="ccccc" />
    <path
       style="display:inline;fill:none;fill-rule:evenodd;stroke:#000000;stroke-width:5.625;stroke-linecap:round;stroke-linejoin:round;stroke-miterlimit:4;stroke-dasharray:none;stroke-opacity:1"
       d="m 667.3606,394.39464 c 3.007,-4.319 37.205,-43.2838 43.373,-48.2647 23.726,-19.15811 60.947,-14.63831 37.482,14.3726 -27.375,33.846 -45.456,50.2278 -39.44,63.89078 4.204,9.54973 25.03108,9.17681 36.499,-3.67058 6.8039,-7.62233 13.1728,-14.70092 24.86037,-28.42785"
       id="path844-52-8-6"
       inkscape:connector-curvature="0"
       sodipodi:nodetypes="cssssc" />
    <path
       style="display:inline;fill:none;fill-rule:evenodd;stroke:#000000;stroke-width:5.625;stroke-linecap:round;stroke-linejoin:miter;stroke-miterlimit:4;stroke-dasharray:none;stroke-opacity:1"
       d="m 749.0566,337.71554 c 14.535,10.1178 4.342,27.8353 -12.394,44.1565 -14.374,14.0183 -23.364,26.3805 -29.512,38.7076"
       id="path1647-51-4"
       inkscape:connector-curvature="0"
       sodipodi:nodetypes="csc" />
    <path
       style="display:inline;fill:none;fill-rule:evenodd;stroke:#000000;stroke-width:5.625;stroke-linecap:round;stroke-linejoin:miter;stroke-miterlimit:4;stroke-dasharray:none;stroke-opacity:1"
       d="m 749.0566,337.71554 c 0.783,-1.1193 3.882,6.1159 0.736,14.2419 -3.248,8.39 -12.84,17.7766 -18.304,22.9288 -10.757,10.1421 -30.592,28.9644 -24.338,45.6934"
       id="path1647-5-7-3"
       inkscape:connector-curvature="0"
       sodipodi:nodetypes="cssc" />
    <path
       style="display:inline;fill:none;fill-rule:evenodd;stroke:#000000;stroke-width:2.8125;stroke-linecap:round;stroke-linejoin:miter;stroke-miterlimit:4;stroke-dasharray:none;stroke-opacity:1"
       d="m 740.5066,336.00644 c 11.256,1.3243 8.788,6.5152 9.081,10.9744"
       id="path1647-0-8-2"
       inkscape:connector-curvature="0"
       sodipodi:nodetypes="cc" />
    <path
       style="display:inline;fill:none;fill-rule:evenodd;stroke:#000000;stroke-width:2.8125;stroke-linecap:round;stroke-linejoin:miter;stroke-miterlimit:4;stroke-dasharray:none;stroke-opacity:1"
       d="m 712.2716,413.28894 c -2.696,4.9204 -3.763,12.04 2.312,14.48508"
       id="path1647-1-3-8"
       inkscape:connector-curvature="0"
       sodipodi:nodetypes="cc" />
    <path
       style="display:inline;fill:none;fill-rule:evenodd;stroke:#000000;stroke-width:2.8125;stroke-linecap:round;stroke-linejoin:miter;stroke-miterlimit:4;stroke-dasharray:none;stroke-opacity:1"
       d="m 704.5536,414.63234 c -0.102,5.6556 2.886,11.51101 4.864,13.1458"
       id="path1647-1-1-3-3"
       inkscape:connector-curvature="0"
       sodipodi:nodetypes="cc" />
    <path
       style="display:inline;fill:none;fill-rule:evenodd;stroke:#000001;stroke-width:5.625;stroke-linecap:round;stroke-linejoin:round;stroke-miterlimit:4;stroke-dasharray:none;stroke-opacity:1"
       d="m 554.7743,405.45277 c 8.4315,-5.79495 21.7285,-11.11921 32.72169,-14.94693 7.05194,-2.43204 13.54432,-3.88831 19.37621,-4.40916 25.73609,-2.29849 38.60947,13.62006 29.9461,44.29016 l 30.5423,-35.9922"
       id="path4752-1-05-7-90-6-8"
       inkscape:connector-curvature="0"
       sodipodi:nodetypes="ccscc" />
    <path
       style="display:inline;fill:none;fill-rule:evenodd;stroke:#000001;stroke-width:6.5625;stroke-linecap:round;stroke-linejoin:round;stroke-miterlimit:4;stroke-dasharray:none;stroke-opacity:1"
       d="m 627.4973,392.16364 c 7.125,5.8705 8.109,27.1393 3.21,37.7672"
       id="path4752-1-3-4-6-0-1-3"
       inkscape:connector-curvature="0"
       sodipodi:nodetypes="cc" />
    <path
       style="display:inline;fill:none;fill-rule:evenodd;stroke:#000001;stroke-width:4.6875;stroke-linecap:round;stroke-linejoin:round;stroke-miterlimit:4;stroke-dasharray:none;stroke-opacity:1"
       d="m 614.9273,385.84044 c 16.357,3.3467 16.79,35.1789 10.059,45.249"
       id="path4752-1-3-7-9-2-6-8"
       inkscape:connector-curvature="0"
       sodipodi:nodetypes="cc" />
    <path
       style="display:inline;fill:none;fill-rule:evenodd;stroke:#000001;stroke-width:5.625;stroke-linecap:round;stroke-linejoin:miter;stroke-miterlimit:4;stroke-dasharray:none;stroke-opacity:1"
       d="m 625.7123,431.08944 9.758,0.08"
       id="path2190-4-0-0-9"
       inkscape:connector-curvature="0"
       sodipodi:nodetypes="cc" />
    <path
       style="display:inline;fill:none;fill-rule:evenodd;stroke:#000000;stroke-width:5.625;stroke-linecap:round;stroke-linejoin:round;stroke-miterlimit:4;stroke-dasharray:none;stroke-opacity:1"
       d="m 853.95407,373.94348 c 9.5311,-18.02124 25.9365,-36.32411 39.1056,-37.79225 12.2298,2.11742 14.5535,12.97961 14.5535,12.97961 0.494,12.86658 -2.2242,21.43473 -15.8655,31.97547 -13.9366,7.974 -26.9608,2.83686 -26.6858,-5.32103 -5.6454,-9.32011 46.0118,-85.72875 82.86588,-138.23388"
       id="path12351-7-1-4-17-5-0-7"
       inkscape:connector-curvature="0"
       sodipodi:nodetypes="cccccc" />
    <path
       id="path927-3-7"
       d="m 904.59977,346.9545 c 0.5115,14.98082 -4.5532,29.47112 -23.5364,36.82607"
       style="fill:none;stroke:#000000;stroke-width:5.62495947px;stroke-linecap:round;stroke-linejoin:miter;stroke-miterlimit:4;stroke-dasharray:none;stroke-opacity:1"
       inkscape:connector-curvature="0"
       sodipodi:nodetypes="cc" />
    <path
       id="path929-6-7"
       d="m 899.37527,339.14385 c 6.5249,22.19984 -5.2647,32.98906 -22.4396,42.73899"
       style="fill:none;stroke:#000000;stroke-width:6.59995222px;stroke-linecap:round;stroke-linejoin:miter;stroke-miterlimit:4;stroke-dasharray:none;stroke-opacity:1"
       inkscape:connector-curvature="0"
       sodipodi:nodetypes="cc" />
    <path
       id="path931-8-4"
       d="m 882.46037,376.35887 c -5.1767,4.12213 -11.884,7.99792 -16.3653,-2.0321"
       style="fill:none;stroke:#000000;stroke-width:2.84997892px;stroke-linecap:round;stroke-linejoin:miter;stroke-miterlimit:4;stroke-dasharray:none;stroke-opacity:1"
       inkscape:connector-curvature="0"
       sodipodi:nodetypes="cc" />
    <path
       id="path933-6-0"
       d="m 887.68737,338.46349 c 8.475,-1.49999 11.6303,3.47276 11.5553,9.99771"
       style="fill:none;stroke:#000000;stroke-width:2.84997892px;stroke-linecap:round;stroke-linejoin:miter;stroke-miterlimit:4;stroke-dasharray:none;stroke-opacity:1"
       inkscape:connector-curvature="0"
       sodipodi:nodetypes="cc" />
    <path
       style="display:inline;fill:none;fill-rule:evenodd;stroke:#000000;stroke-width:5.625;stroke-linecap:round;stroke-linejoin:round;stroke-miterlimit:4;stroke-dasharray:none;stroke-opacity:1"
       d="m 1034.4106,187.00689 c -35.8566,22.64043 -79.67095,56.76348 -48.64045,-1.91232 l -37.8424,52.45683"
       id="path844-5-58-9-5-3-7-8-3-3-7"
       inkscape:connector-curvature="0"
       sodipodi:nodetypes="ccc" />
    <path
       style="display:inline;fill:none;fill-rule:evenodd;stroke:#000000;stroke-width:5.625;stroke-linecap:round;stroke-linejoin:round;stroke-miterlimit:4;stroke-dasharray:none;stroke-opacity:1"
       d="m 765.43797,397.31719 c -0.64091,0 18.12138,-18.6866 26.9035,-25.2657 18.61787,-13.94752 45.194,-36.45051 53.5071,-35.47176 -51.2189,15.79954 -94.4855,121.77115 -31.5267,86.64286 4.7369,-2.64298 7.651,-6.3833 9.846,-8.1981 3.887,-3.2127 13.3582,-15.25315 19.5052,-23.86577 1.1386,-1.59534 9.69,-16.55744 10.281,-17.21524"
       id="path844-3-9-5"
       inkscape:connector-curvature="0"
       sodipodi:nodetypes="cscsssc" />
    <path
       style="fill:none;fill-rule:evenodd;stroke:#000000;stroke-width:5.625;stroke-linecap:round;stroke-linejoin:miter;stroke-miterlimit:4;stroke-dasharray:none;stroke-opacity:1"
       d="m 821.44117,350.34196 c -19.3564,22.07131 -27.3149,50.86899 -33.4822,75.33481"
       id="path17550-6"
       inkscape:connector-curvature="0"
       sodipodi:nodetypes="cc" />
    <path
       style="fill:none;fill-rule:evenodd;stroke:#000000;stroke-width:5.625;stroke-linecap:round;stroke-linejoin:miter;stroke-miterlimit:4;stroke-dasharray:none;stroke-opacity:1"
       d="m 809.38307,360.21443 c -7.1707,-2.49681 -35.2477,59.7528 -25.1071,64.96011"
       id="path17550-7-50"
       inkscape:connector-curvature="0"
       sodipodi:nodetypes="cc" />
    <path
       style="fill:none;fill-rule:evenodd;stroke:#000000;stroke-width:5.625;stroke-linecap:round;stroke-linejoin:miter;stroke-miterlimit:4;stroke-dasharray:none;stroke-opacity:1"
       d="m 813.06607,360.71666 c -7.1707,-2.49682 -35.2477,59.7528 -25.1071,64.96011"
       id="path17550-7-2-9"
       inkscape:connector-curvature="0"
       sodipodi:nodetypes="cc" />
    <path
       style="fill:none;fill-rule:evenodd;stroke:#000000;stroke-width:3.75;stroke-linecap:round;stroke-linejoin:miter;stroke-miterlimit:4;stroke-dasharray:none;stroke-opacity:1"
       d="m 792.46277,412.55951 c -0.01,0.0111 -7.251,19.45364 7.4543,15.90877"
       id="path17550-7-5-7"
       inkscape:connector-curvature="0"
       sodipodi:nodetypes="cc" />
  </g>
</svg>
