<?xml version="1.0" encoding="UTF-8" standalone="no"?>
<!-- Created with Inkscape (http://www.inkscape.org/) -->

<svg
   xmlns:dc="http://purl.org/dc/elements/1.1/"
   xmlns:cc="http://creativecommons.org/ns#"
   xmlns:rdf="http://www.w3.org/1999/02/22-rdf-syntax-ns#"
   xmlns:svg="http://www.w3.org/2000/svg"
   xmlns="http://www.w3.org/2000/svg"
   xmlns:sodipodi="http://sodipodi.sourceforge.net/DTD/sodipodi-0.dtd"
   xmlns:inkscape="http://www.inkscape.org/namespaces/inkscape"
   width="297mm"
   height="210mm"
   viewBox="0 0 1052.3622 744.09448"
   id="svg2"
   version="1.1"
   inkscape:version="0.92.3 (2405546, 2018-03-11)"
   sodipodi:docname="DEK Deutsche Einheitskurzschrift - Verkehrsschrift - Einzelhandel.svg">
  <defs
     id="defs4" />
  <sodipodi:namedview
     id="base"
     pagecolor="#ffffff"
     bordercolor="#666666"
     borderopacity="1.0"
     inkscape:pageopacity="0.0"
     inkscape:pageshadow="2"
     inkscape:zoom="0.98994949"
     inkscape:cx="505.91667"
     inkscape:cy="503.63445"
     inkscape:document-units="px"
     inkscape:current-layer="layer2"
     showgrid="false"
     inkscape:window-width="1920"
     inkscape:window-height="1017"
     inkscape:window-x="1592"
     inkscape:window-y="-8"
     inkscape:window-maximized="1"
     showguides="true"
     inkscape:guide-bbox="true" />
  <metadata
     id="metadata7">
    <rdf:RDF>
      <cc:Work
         rdf:about="">
        <dc:format>image/svg+xml</dc:format>
        <dc:type
           rdf:resource="http://purl.org/dc/dcmitype/StillImage" />
        <dc:title></dc:title>
      </cc:Work>
    </rdf:RDF>
  </metadata>
  <g
     inkscape:label="Grundlinien"
     inkscape:groupmode="layer"
     id="layer1"
     transform="translate(0,-308.26772)"
     sodipodi:insensitive="true">
    <path
       style="fill:none;fill-rule:evenodd;stroke:#969696;stroke-width:1.875;stroke-linecap:round;stroke-linejoin:miter;stroke-miterlimit:4;stroke-dasharray:none;stroke-opacity:1"
       d="M 57.556226,742.24566 H 1006.4206"
       id="path3336"
       inkscape:connector-curvature="0"
       sodipodi:nodetypes="cc" />
    <path
       style="fill:none;fill-rule:evenodd;stroke:#000000;stroke-width:0.9375;stroke-linecap:round;stroke-linejoin:miter;stroke-miterlimit:2;stroke-dasharray:3.74999998, 7.49999996;stroke-dashoffset:0;stroke-opacity:1"
       d="M 58.279456,844.14792 H 1007.1438"
       id="path3336-4"
       inkscape:connector-curvature="0"
       sodipodi:nodetypes="cc" />
    <path
       style="fill:none;fill-rule:evenodd;stroke:#000000;stroke-width:0.9375;stroke-linecap:round;stroke-linejoin:miter;stroke-miterlimit:2;stroke-dasharray:3.74999998, 7.49999996;stroke-dashoffset:0;stroke-opacity:1"
       d="M 58.279456,641.7697 H 1007.1438"
       id="path3336-7"
       inkscape:connector-curvature="0"
       sodipodi:nodetypes="cc" />
    <path
       style="fill:none;fill-rule:evenodd;stroke:#000000;stroke-width:0.9375;stroke-linecap:round;stroke-linejoin:miter;stroke-miterlimit:2;stroke-dasharray:3.74999998, 7.49999996;stroke-dashoffset:0;stroke-opacity:1"
       d="M 58.279456,540.58062 H 1007.1438"
       id="path3336-2"
       inkscape:connector-curvature="0"
       sodipodi:nodetypes="cc" />
  </g>
  <g
     inkscape:groupmode="layer"
     id="layer2"
     inkscape:label="Stenozeichen"
     style="display:inline">
    <path
       style="display:inline;fill:none;fill-rule:evenodd;stroke:#000000;stroke-width:5.625;stroke-linecap:round;stroke-linejoin:round;stroke-miterlimit:4;stroke-dasharray:none;stroke-opacity:1"
       d="m 222.13795,432.55609 c 0,0 41.719,-39.08 90.25,-40.42 48.532,-1.34 61.63708,39.34663 95.953,39.48 15.2427,0.0592 26.29366,-6.06173 35.90971,-12.98231 6.61606,-4.76152 62.43039,-52.14017 94.62882,-81.9493"
       id="path844-5-9-31-2-8-9-8"
       inkscape:connector-curvature="0"
       sodipodi:nodetypes="czssc" />
    <path
       style="display:inline;fill:none;fill-rule:evenodd;stroke:#000000;stroke-width:5.625;stroke-linecap:round;stroke-linejoin:round;stroke-miterlimit:4;stroke-dasharray:none;stroke-opacity:1"
       d="m 592.12245,352.80348 c -24.45628,23.25504 -61.56002,76.66685 -80.70005,79.41914 -19.20623,2.7618 -31.99686,-1.68536 -47.16092,6.33986 -14.399,8.13101 -22.632,15.942 -34.781,29.20201 -24.889,27.165 -38.851,53.74 -35.91,61.457 1.123,2.946 17.737,21.817 57.261,-41.821 l 88.048,-150.71601"
       id="path12351-7-1-8-1-4-6-7"
       inkscape:connector-curvature="0"
       sodipodi:nodetypes="cscsscc" />
    <path
       style="display:inline;fill:none;fill-rule:evenodd;stroke:#000000;stroke-width:5.625;stroke-linecap:round;stroke-linejoin:round;stroke-miterlimit:4;stroke-dasharray:none;stroke-opacity:1"
       d="m 518.54017,416.36787 c 0.98299,0.1 1.83999,0.308 2.53399,0.662 0.22601,0.116 0.43601,0.246 0.626,0.393 1.228,0.95 1.675,2.582 0.98901,5.191 -1.33701,5.083 -7.083,7.997 -9.81501,9.031 -5.65599,2.048 -9.84699,-2.616 -6.61599,-7.627 2.01999,-3.133 5.52399,-6.608 9.65799,-7.463 0.28101,-0.06 0.565,-0.104 0.85101,-0.137 0.345,-0.04 0.693,-0.06 1.04499,-0.06 0.796,0 1.61001,0.104 2.436,0.332"
       id="path12351-7-1-4-42"
       inkscape:connector-curvature="0"
       sodipodi:nodetypes="cssscssssc" />
    <path
       style="display:inline;fill:none;fill-rule:evenodd;stroke:#000000;stroke-width:5.625;stroke-linecap:round;stroke-linejoin:round;stroke-miterlimit:4;stroke-dasharray:none;stroke-opacity:1"
       d="m 592.12245,352.80348 c 66.22941,-50.86883 34.74785,42.77213 -8.97449,74.60865 -1.93783,1.41104 -5.70046,4.7081 -12.09939,3.23434 -4.87058,-1.12175 -6.17514,-12.08017 -1.39407,-17.12422 11.40331,-12.27409 16.86087,-16.83219 31.79384,-27.64236"
       id="path844-7-9-8-3"
       inkscape:connector-curvature="0"
       sodipodi:nodetypes="csscc" />
    <path
       style="display:inline;fill:none;fill-rule:evenodd;stroke:#000000;stroke-width:5.625;stroke-linecap:round;stroke-linejoin:round;stroke-miterlimit:4;stroke-dasharray:none;stroke-opacity:1"
       d="m 600.85645,386.3534 c 21.15856,-15.92912 61.35975,-41.22171 73.44011,-48.10608 11.08024,-3.43917 16.6123,-4.225 21.00464,4.35653 6.50676,12.71261 3.989,18.176 12.272,27.18701 15.888,17.285 43.80701,-27.80901 34.484,-34.29901 -6.291,-4.379 -25.927,3.212 -49.40701,41.97301 -25.97402,42.49293 -22.78699,53.01054 -9.39603,53.44604 9.63929,0.3135 29.92694,0.87921 36.40379,-2.79521"
       id="path12351-7-1-6-7-5-2"
       inkscape:connector-curvature="0"
       sodipodi:nodetypes="ccssscsc" />
    <path
       style="display:inline;fill:none;fill-rule:evenodd;stroke:#000000;stroke-width:5.625;stroke-linecap:round;stroke-linejoin:round;stroke-miterlimit:4;stroke-dasharray:none;stroke-opacity:1"
       d="m 670.3565,340.83274 c 9.61599,-6.843 18.03,4.094 21.55598,15.758 3.17602,10.508 8.67,18.037 23.92702,17.109"
       id="path844-5-1-0-7-3-4-5-3-5-9-3-1-1"
       inkscape:connector-curvature="0"
       sodipodi:nodetypes="csc" />
    <path
       style="display:inline;fill:none;fill-rule:evenodd;stroke:#000000;stroke-width:5.625;stroke-linecap:round;stroke-linejoin:round;stroke-miterlimit:4;stroke-dasharray:none;stroke-opacity:1"
       d="m 682.2425,337.06574 c 13.578,0.734 15.099,28.34 22.112,29.974"
       id="path844-5-1-0-7-3-4-5-35-2-0-7-1"
       inkscape:connector-curvature="0"
       sodipodi:nodetypes="cc" />
    <path
       style="display:inline;fill:none;fill-rule:evenodd;stroke:#000000;stroke-width:5.625;stroke-linecap:round;stroke-linejoin:round;stroke-miterlimit:4;stroke-dasharray:none;stroke-opacity:1"
       d="m 725.00659,412.93417 c 0.98301,0.10001 1.84,0.308 2.53401,0.66101 0.22599,0.11599 0.43599,0.24699 0.62599,0.39399 1.22801,0.949 1.67501,2.58201 0.989,5.191 -1.337,5.08301 -7.083,7.99601 -9.815,9.03101 -5.656,2.04799 -9.847,-2.616 -6.616,-7.629 2.01999,-3.132 5.524,-6.60701 9.658,-7.461 0.281,-0.06 0.56501,-0.10401 0.851,-0.13701 0.345,-0.04 0.693,-0.06 1.045,-0.06 0.79601,0 1.61,0.10401 2.436,0.33201"
       id="path12351-7-1-4-58-7-2-1-7-56"
       inkscape:connector-curvature="0"
       sodipodi:nodetypes="cssscssssc" />
  </g>
</svg>
