<?xml version="1.0" encoding="UTF-8" standalone="no"?>
<!-- Created with Inkscape (http://www.inkscape.org/) -->

<svg
   xmlns:dc="http://purl.org/dc/elements/1.1/"
   xmlns:cc="http://creativecommons.org/ns#"
   xmlns:rdf="http://www.w3.org/1999/02/22-rdf-syntax-ns#"
   xmlns:svg="http://www.w3.org/2000/svg"
   xmlns="http://www.w3.org/2000/svg"
   xmlns:sodipodi="http://sodipodi.sourceforge.net/DTD/sodipodi-0.dtd"
   xmlns:inkscape="http://www.inkscape.org/namespaces/inkscape"
   width="297mm"
   height="210mm"
   viewBox="0 0 1052.3622 744.09448"
   id="svg2"
   version="1.1"
   inkscape:version="0.92.3 (2405546, 2018-03-11)"
   sodipodi:docname="DEK Deutsche Einheitskurzschrift - Verkehrsschrift - Billigfluglinie.svg">
  <defs
     id="defs4" />
  <sodipodi:namedview
     id="base"
     pagecolor="#ffffff"
     bordercolor="#666666"
     borderopacity="1.0"
     inkscape:pageopacity="0.0"
     inkscape:pageshadow="2"
     inkscape:zoom="0.98994949"
     inkscape:cx="642.73485"
     inkscape:cy="421.77235"
     inkscape:document-units="px"
     inkscape:current-layer="layer2"
     showgrid="false"
     inkscape:window-width="1920"
     inkscape:window-height="1017"
     inkscape:window-x="1592"
     inkscape:window-y="-8"
     inkscape:window-maximized="1"
     showguides="true"
     inkscape:guide-bbox="true" />
  <metadata
     id="metadata7">
    <rdf:RDF>
      <cc:Work
         rdf:about="">
        <dc:format>image/svg+xml</dc:format>
        <dc:type
           rdf:resource="http://purl.org/dc/dcmitype/StillImage" />
        <dc:title></dc:title>
      </cc:Work>
    </rdf:RDF>
  </metadata>
  <g
     inkscape:label="Grundlinien"
     inkscape:groupmode="layer"
     id="layer1"
     transform="translate(0,-308.26772)"
     style="display:inline"
     sodipodi:insensitive="true">
    <path
       style="fill:none;fill-rule:evenodd;stroke:#969696;stroke-width:1.875;stroke-linecap:round;stroke-linejoin:miter;stroke-miterlimit:4;stroke-dasharray:none;stroke-opacity:1"
       d="M 57.556226,742.24566 H 1006.4206"
       id="path3336"
       inkscape:connector-curvature="0"
       sodipodi:nodetypes="cc" />
    <path
       style="fill:none;fill-rule:evenodd;stroke:#000000;stroke-width:0.9375;stroke-linecap:round;stroke-linejoin:miter;stroke-miterlimit:2;stroke-dasharray:3.74999998, 7.49999996;stroke-dashoffset:0;stroke-opacity:1"
       d="M 58.279456,844.14792 H 1007.1438"
       id="path3336-4"
       inkscape:connector-curvature="0"
       sodipodi:nodetypes="cc" />
    <path
       style="fill:none;fill-rule:evenodd;stroke:#000000;stroke-width:0.9375;stroke-linecap:round;stroke-linejoin:miter;stroke-miterlimit:2;stroke-dasharray:3.74999998, 7.49999996;stroke-dashoffset:0;stroke-opacity:1"
       d="M 58.279456,641.7697 H 1007.1438"
       id="path3336-7"
       inkscape:connector-curvature="0"
       sodipodi:nodetypes="cc" />
    <path
       style="fill:none;fill-rule:evenodd;stroke:#000000;stroke-width:0.9375;stroke-linecap:round;stroke-linejoin:miter;stroke-miterlimit:2;stroke-dasharray:3.74999998, 7.49999996;stroke-dashoffset:0;stroke-opacity:1"
       d="M 58.279456,540.58062 H 1007.1438"
       id="path3336-2"
       inkscape:connector-curvature="0"
       sodipodi:nodetypes="cc" />
  </g>
  <g
     inkscape:groupmode="layer"
     id="layer2"
     inkscape:label="Buchstaben"
     style="display:inline">
    <path
       style="display:inline;fill:none;fill-rule:evenodd;stroke:#000000;stroke-width:5.625;stroke-linecap:round;stroke-linejoin:round;stroke-miterlimit:4;stroke-dasharray:none;stroke-opacity:1"
       d="m 445.84615,331.32243 37.5448,-5.91481 c 26.57793,-4.18709 49.86118,-24.43216 56.73648,-30.01931 34.39393,-27.9499 54.81101,-51.09543 34.59271,-58.06051 -14.56177,-5.01644 -40.249,8.89 -87.43499,86.79 -51.53309,89.0108 -40.81534,108.36941 -14.45732,106.67087 5.52345,-0.54817 12.44169,-3.18156 20.00859,-7.68231 6.84868,-4.07357 22.39095,-15.8064 33.0974,-23.78238"
       id="path12351-7-1-1-1-4"
       inkscape:connector-curvature="0"
       sodipodi:nodetypes="csssccsc" />
    <path
       style="display:inline;fill:none;fill-rule:evenodd;stroke:#000000;stroke-width:5.625;stroke-linecap:round;stroke-linejoin:round;stroke-miterlimit:4;stroke-dasharray:none;stroke-opacity:1"
       d="m 525.93382,399.32398 c 5.176,-3.25001 10.622,-6.21 16.428,-8.74001 19.62498,-8.28 34.989,2.46 12.25398,40.5 l -29.82898,52.10001"
       id="path12351-3-7-7-0-7-7"
       inkscape:connector-curvature="0"
       sodipodi:nodetypes="ccsc" />
    <path
       style="display:inline;fill:none;fill-opacity:1;fill-rule:evenodd;stroke:#000000;stroke-width:5.625;stroke-linecap:round;stroke-linejoin:round;stroke-miterlimit:4;stroke-dasharray:none;stroke-opacity:1"
       d="m 494.50857,411.28692 c 0.86562,0.11465 1.62117,0.27515 2.23111,0.58472 0.19949,0.11466 0.38408,0.21784 0.55147,0.34395 1.08116,0.83697 1.47441,2.27009 0.8702,4.57457 -1.17632,4.4714 -6.23586,7.03958 -8.64124,7.94532 -4.97929,1.80003 -8.66991,-2.30448 -5.82427,-6.71855 1.77824,-2.75162 4.86349,-5.8128 8.50252,-6.5695 0.24764,0 0.49758,-0.11465 0.74981,-0.11465 0.30383,0 0.60995,-0.11467 0.9195,-0.11467 0.70167,0 1.41824,0.11467 2.14512,0.28665"
       id="path12351-7-1-4-7-1-2-0"
       inkscape:connector-curvature="0"
       sodipodi:nodetypes="cssscssssc" />
    <path
       style="display:inline;fill:none;fill-rule:evenodd;stroke:#000000;stroke-width:5.625;stroke-linecap:round;stroke-linejoin:round;stroke-miterlimit:4;stroke-dasharray:none;stroke-opacity:1"
       d="m 606.49736,428.19319 c 6.41516,-8.87697 -0.38069,-17.69069 -11.37599,-12.36902 -10.49062,7.6932 -1.79825,22.21939 11.37599,12.36902 0,0 13.14984,-5.11871 21.87414,-18.12246 l 15.65304,-23.33119"
       id="path12351-7-1-4-17-5-9-0-1-4-83-2-9"
       inkscape:connector-curvature="0"
       sodipodi:nodetypes="cccsc" />
    <path
       style="display:inline;fill:none;fill-rule:evenodd;stroke:#000000;stroke-width:5.625;stroke-linecap:round;stroke-linejoin:round;stroke-miterlimit:4;stroke-dasharray:none;stroke-opacity:1"
       d="m 644.02454,386.73954 c 6.37224,-9.12188 12.25604,-18.58374 18.62097,-27.70788 8.85543,-12.63766 18.23274,-22.55225 27.52852,-22.56402 15.71071,-0.0199 21.69088,45.82218 39.90642,46.13629 18.83139,0.32473 47.15139,-59.16823 63.37089,-89.17802"
       id="path844-5-5-5-6"
       inkscape:connector-curvature="0"
       sodipodi:nodetypes="ccssc" />
    <path
       style="display:inline;fill:none;fill-rule:evenodd;stroke:#000000;stroke-width:5.625;stroke-linecap:round;stroke-linejoin:round;stroke-miterlimit:4;stroke-dasharray:none;stroke-opacity:1"
       d="m 842.09134,295.33891 c -35.856,22.64 -66.948,56.76301 -48.64,-1.913"
       id="path844-5-58-9-5-3-7-8-3-3-6-4-6-0-6"
       inkscape:connector-curvature="0"
       sodipodi:nodetypes="cc" />
    <path
       style="display:inline;fill:none;fill-rule:evenodd;stroke:#000000;stroke-width:5.625;stroke-linecap:round;stroke-linejoin:round;stroke-miterlimit:4;stroke-dasharray:none;stroke-opacity:1"
       d="m 597.26861,432.01637 -72.48179,51.16761"
       id="path844-5-58-9-5-3-7-8-3-3-6-4-6-0-6-2"
       inkscape:connector-curvature="0"
       sodipodi:nodetypes="cc" />
    <path
       style="display:inline;fill:none;fill-rule:evenodd;stroke:#000000;stroke-width:5.625;stroke-linecap:round;stroke-linejoin:round;stroke-miterlimit:4;stroke-dasharray:none;stroke-opacity:1"
       d="m 314.41163,382.16346 25.15475,-37.59067"
       id="path844-5-1-0-7-3-3-9-2-5"
       inkscape:connector-curvature="0"
       sodipodi:nodetypes="cc" />
    <path
       style="display:inline;fill:none;fill-rule:evenodd;stroke:#000000;stroke-width:5.625;stroke-linecap:round;stroke-linejoin:round;stroke-miterlimit:4;stroke-dasharray:none;stroke-opacity:1"
       d="m 287.37902,336.32878 -42.405,73.08001 c -11.911,20.53 8.412,28.35 31.326,14.36 13.799,-9.79001 30.41072,-30.38882 38.11161,-41.60533"
       id="path4752-1-7-2-4-1-8-5-5"
       inkscape:connector-curvature="0"
       sodipodi:nodetypes="cscc" />
    <path
       style="display:inline;fill:none;fill-rule:evenodd;stroke:#000000;stroke-width:5.625;stroke-linecap:round;stroke-linejoin:round;stroke-miterlimit:4;stroke-dasharray:none;stroke-opacity:1"
       d="m 336.83791,335.20907 c 0.98301,0.1 1.84,0.30799 2.534,0.661 0.226,0.116 0.436,0.24699 0.626,0.39399 1.228,0.94901 1.675,2.58201 0.989,5.19101 -1.337,5.083 -7.083,7.996 -9.815,9.031 -5.656,2.048 -9.847,-2.616 -6.616,-7.629 2.02,-3.132 5.524,-6.607 9.658,-7.461 0.281,-0.06 0.56501,-0.10401 0.851,-0.13701 0.345,-0.04 0.693,-0.06 1.045,-0.06 0.79601,0 1.61,0.10401 2.436,0.33201"
       id="path12351-7-1-4-58-7-2-1-7-56-8"
       inkscape:connector-curvature="0"
       sodipodi:nodetypes="cssscssssc" />
    <path
       style="display:inline;fill:none;fill-rule:evenodd;stroke:#000000;stroke-width:5.625;stroke-linecap:round;stroke-linejoin:round;stroke-miterlimit:4;stroke-dasharray:none;stroke-opacity:1"
       d="m 329.6347,351.47449 c 9.78635,-1.51244 40.32707,3.02023 47.86057,-4.84806"
       id="path12351-7-1-32-1-5"
       inkscape:connector-curvature="0"
       sodipodi:nodetypes="cc" />
    <path
       style="display:inline;fill:none;fill-rule:evenodd;stroke:#000000;stroke-width:5.625;stroke-linecap:round;stroke-linejoin:round;stroke-miterlimit:4;stroke-dasharray:none;stroke-opacity:1"
       d="m 377.49527,346.62643 c 12.0922,-10.27153 56.08858,-94.32815 69.40701,-104.39649 5.04563,-3.81434 10.29179,-6.47083 16.01687,-7.68251 10.717,-2.704 14.33101,0.67 18.71301,3.16201 7.56,4.30099 7.98199,17.182 -5.957,41.523 l -29.82901,52.08999"
       id="path12351-3-7-7-9-65-8-1"
       inkscape:connector-curvature="0"
       sodipodi:nodetypes="cscssc" />
    <path
       style="display:inline;fill:none;fill-rule:evenodd;stroke:#000000;stroke-width:5.625;stroke-linecap:round;stroke-linejoin:round;stroke-miterlimit:4;stroke-dasharray:none;stroke-opacity:1"
       d="m 367.60579,335.7113 c 0.983,0.10001 1.84,0.30801 2.534,0.66101 0.226,0.11599 0.436,0.247 0.626,0.394 1.228,0.94899 1.675,2.582 0.989,5.19099 -1.337,5.08301 -7.083,7.99601 -9.815,9.03101 -5.656,2.04799 -9.847,-2.616 -6.616,-7.629 2.02,-3.132 5.524,-6.60701 9.658,-7.461 0.281,-0.06 0.565,-0.104 0.851,-0.137 0.345,-0.04 0.693,-0.06 1.045,-0.06 0.796,0 1.61,0.104 2.436,0.332"
       id="path12351-7-1-4-58-7-2-1-7-56-7-0"
       inkscape:connector-curvature="0"
       sodipodi:nodetypes="cssscssssc" />
  </g>
</svg>
