<?xml version="1.0" encoding="UTF-8" standalone="no"?>
<!-- Created with Inkscape (http://www.inkscape.org/) -->

<svg
   xmlns:dc="http://purl.org/dc/elements/1.1/"
   xmlns:cc="http://creativecommons.org/ns#"
   xmlns:rdf="http://www.w3.org/1999/02/22-rdf-syntax-ns#"
   xmlns:svg="http://www.w3.org/2000/svg"
   xmlns="http://www.w3.org/2000/svg"
   xmlns:sodipodi="http://sodipodi.sourceforge.net/DTD/sodipodi-0.dtd"
   xmlns:inkscape="http://www.inkscape.org/namespaces/inkscape"
   width="410mm"
   height="210mm"
   viewBox="0 0 1452.7559 744.09448"
   id="svg2"
   version="1.1"
   inkscape:version="0.92.3 (2405546, 2018-03-11)"
   sodipodi:docname="DEK Deutsche Einheitskurzschrift - Verkehrsschrift - Frau Hedwig Courths-Mahler.svg">
  <defs
     id="defs4" />
  <sodipodi:namedview
     id="base"
     pagecolor="#ffffff"
     bordercolor="#666666"
     borderopacity="1.0"
     inkscape:pageopacity="0.0"
     inkscape:pageshadow="2"
     inkscape:zoom="0.7"
     inkscape:cx="760.30661"
     inkscape:cy="625.40993"
     inkscape:document-units="px"
     inkscape:current-layer="layer2"
     showgrid="false"
     inkscape:window-width="1920"
     inkscape:window-height="1017"
     inkscape:window-x="1592"
     inkscape:window-y="-8"
     inkscape:window-maximized="1"
     showguides="true"
     inkscape:guide-bbox="true" />
  <metadata
     id="metadata7">
    <rdf:RDF>
      <cc:Work
         rdf:about="">
        <dc:format>image/svg+xml</dc:format>
        <dc:type
           rdf:resource="http://purl.org/dc/dcmitype/StillImage" />
        <dc:title></dc:title>
      </cc:Work>
    </rdf:RDF>
  </metadata>
  <g
     inkscape:label="Grundlinien"
     inkscape:groupmode="layer"
     id="layer1"
     transform="translate(0,-308.26772)"
     style="display:inline"
     sodipodi:insensitive="true">
    <path
       style="fill:none;fill-rule:evenodd;stroke:#969696;stroke-width:1.875;stroke-linecap:round;stroke-linejoin:miter;stroke-miterlimit:4;stroke-dasharray:none;stroke-opacity:1"
       d="M 12.099363,742.24566 H 1441.3724"
       id="path3336"
       inkscape:connector-curvature="0"
       sodipodi:nodetypes="cc" />
    <path
       style="fill:none;fill-rule:evenodd;stroke:#000000;stroke-width:0.9375;stroke-linecap:round;stroke-linejoin:miter;stroke-miterlimit:2;stroke-dasharray:3.74999998, 7.49999996;stroke-dashoffset:0;stroke-opacity:1"
       d="M 12.822593,844.14792 H 1442.0956"
       id="path3336-4"
       inkscape:connector-curvature="0"
       sodipodi:nodetypes="cc" />
    <path
       style="fill:none;fill-rule:evenodd;stroke:#000000;stroke-width:0.9375;stroke-linecap:round;stroke-linejoin:miter;stroke-miterlimit:2;stroke-dasharray:3.74999998, 7.49999996;stroke-dashoffset:0;stroke-opacity:1"
       d="M 12.822593,641.7697 H 1442.0956"
       id="path3336-7"
       inkscape:connector-curvature="0"
       sodipodi:nodetypes="cc" />
    <path
       style="fill:none;fill-rule:evenodd;stroke:#000000;stroke-width:0.9375;stroke-linecap:round;stroke-linejoin:miter;stroke-miterlimit:2;stroke-dasharray:3.74999998, 7.49999996;stroke-dashoffset:0;stroke-opacity:1"
       d="M 12.822593,540.58062 H 1442.0956"
       id="path3336-2"
       inkscape:connector-curvature="0"
       sodipodi:nodetypes="cc" />
  </g>
  <g
     inkscape:groupmode="layer"
     id="layer2"
     inkscape:label="Stenozeichen"
     style="display:inline">
    <path
       style="display:inline;fill:none;fill-rule:evenodd;stroke:#000000;stroke-width:5.625;stroke-linecap:round;stroke-linejoin:round;stroke-miterlimit:4;stroke-dasharray:none;stroke-opacity:1"
       d="m 66.949803,337.32952 c 0,0 0.40755,-0.17666 4.31585,-2.64319 20.83092,-13.1464 39.533927,-27.15246 56.344677,-43.57392 23.81274,-23.26129 34.054,-45.84 29.174,-54.18 -7.783,-13.29 -36.935,10.31 -84.120997,88.2 L 20.108329,431.09242"
       id="path12351-7-1-5-3-4-8-5"
       inkscape:connector-curvature="0"
       sodipodi:nodetypes="cssscc" />
    <path
       style="display:inline;fill:none;fill-rule:evenodd;stroke:#000000;stroke-width:5.625;stroke-linecap:round;stroke-linejoin:round;stroke-miterlimit:4;stroke-dasharray:none;stroke-opacity:1"
       d="m 51.246463,479.05433 c 16.755,-0.487 32.979,-21.32 34.993,-47.241 2.081,-26.799 47.293387,-53.8341 36.275997,-48.675 L 20.108329,431.09242"
       id="path12351-7-1-8-2-1-6-2"
       inkscape:connector-curvature="0"
       sodipodi:nodetypes="cssc" />
    <path
       style="display:inline;fill:none;fill-rule:evenodd;stroke:#000000;stroke-width:5.625;stroke-linecap:round;stroke-linejoin:round;stroke-miterlimit:4;stroke-dasharray:none;stroke-opacity:1"
       d="m 106.02746,398.25533 c -18.657997,24.867 -13.000997,28.902 -16.784997,41.081 -3.523,11.722 -12.127,25.868 -24.231,34.729"
       id="path27000-9"
       inkscape:connector-curvature="0"
       sodipodi:nodetypes="ccc" />
    <path
       style="display:inline;fill:none;fill-rule:evenodd;stroke:#000000;stroke-width:5.625;stroke-linecap:round;stroke-linejoin:round;stroke-miterlimit:4;stroke-dasharray:none;stroke-opacity:1"
       d="m 103.18646,401.38033 c -7.599997,7.783 -16.906997,18.281 -20.960997,32.634 -4.054,14.352 -5.453,33.429 -22.481,43.084"
       id="path27000"
       inkscape:connector-curvature="0"
       sodipodi:nodetypes="czc" />
    <path
       style="display:inline;fill:none;fill-rule:evenodd;stroke:#000000;stroke-width:5.625;stroke-linecap:round;stroke-linejoin:round;stroke-miterlimit:4;stroke-dasharray:none;stroke-opacity:1"
       d="m 295.49717,389.80229 c 14.35993,-16.47899 54.95723,-53.81332 75.54404,-54.2814 -47.42426,13.59429 -84.88813,111.23371 -43.05352,95.10213 17.54679,-6.76612 46.64693,-31.79321 54.63513,-40.34722"
       id="path844-3-8"
       inkscape:connector-curvature="0"
       sodipodi:nodetypes="ccsc" />
    <path
       style="display:inline;fill:none;fill-rule:evenodd;stroke:#000000;stroke-width:5.625;stroke-linecap:round;stroke-linejoin:round;stroke-miterlimit:4;stroke-dasharray:none;stroke-opacity:1"
       d="m 166.38262,431.27057 c -27.87079,3.75008 87.97487,-38.17285 122.73673,-65.91885 10.10362,-8.06445 11.91278,-20.53122 10.44817,-24.50271 -5.35506,-14.52098 -29.313,-4.28 -53.13001,35.04001 -25.6586,42.49697 -23.25364,56.59864 -10.40909,55.74868 19.88218,-0.5861 45.03994,-25.42386 59.46875,-41.83541"
       id="path12351-7-1-51-7"
       inkscape:connector-curvature="0"
       sodipodi:nodetypes="cssccc" />
    <path
       style="display:inline;fill:none;fill-rule:evenodd;stroke:#000000;stroke-width:5.625;stroke-linecap:round;stroke-linejoin:round;stroke-miterlimit:4;stroke-dasharray:none;stroke-opacity:1"
       d="m 382.62282,390.2758 c 4.26158,-3.31457 34.38541,-42.86187 34.38541,-42.86187"
       id="path844-99-4-6-25-0-7-5-1-6"
       inkscape:connector-curvature="0"
       sodipodi:nodetypes="cc" />
    <path
       style="display:inline;fill:none;fill-rule:evenodd;stroke:#000000;stroke-width:5.625;stroke-linecap:round;stroke-linejoin:round;stroke-miterlimit:4;stroke-dasharray:none;stroke-opacity:1"
       d="m 417.00823,347.41393 c 21.57001,-28.853 36.06301,-52.402 56.90001,-56.812 10.717,-2.704 14.33099,0.67 18.713,3.162 7.56001,4.301 7.68625,17.01501 -5.95701,41.523 l -27.95399,50.215"
       id="path12351-3-7-7-9-65-8"
       inkscape:connector-curvature="0"
       sodipodi:nodetypes="ccssc" />
    <path
       style="display:inline;fill:none;fill-rule:evenodd;stroke:#000000;stroke-width:5.41913939;stroke-linecap:round;stroke-linejoin:round;stroke-miterlimit:4;stroke-dasharray:none;stroke-opacity:1"
       d="m 166.38262,431.27057 c 56.70375,-20.61344 89.40841,-148.98802 10.81,-70.95"
       id="path844-56"
       inkscape:connector-curvature="0"
       sodipodi:nodetypes="cc" />
    <path
       style="display:inline;fill:none;fill-rule:evenodd;stroke:#000000;stroke-width:5.625;stroke-linecap:round;stroke-linejoin:miter;stroke-miterlimit:4;stroke-dasharray:none;stroke-opacity:1"
       d="m 1190.5921,366.6363 -71.539,14.732"
       id="path63000-6-1-6"
       inkscape:connector-curvature="0"
       sodipodi:nodetypes="cc" />
    <path
       style="display:inline;fill:none;fill-rule:evenodd;stroke:#000000;stroke-width:5.625;stroke-linecap:round;stroke-linejoin:miter;stroke-miterlimit:4;stroke-dasharray:none;stroke-opacity:1"
       d="m 1183.8961,386.0553 -71.539,14.733"
       id="path63000-6-1-2"
       inkscape:connector-curvature="0"
       sodipodi:nodetypes="cc" />
    <path
       style="display:inline;fill:none;fill-rule:evenodd;stroke:#000000;stroke-width:5.625;stroke-linecap:round;stroke-linejoin:round;stroke-miterlimit:4;stroke-dasharray:none;stroke-opacity:1"
       d="m 1330.5123,422.89845 c 3.788,-0.94703 89.0796,-37.73629 89.0796,-37.73629 l 20.68,46.27599"
       id="path844-17"
       inkscape:connector-curvature="0"
       sodipodi:nodetypes="ccc" />
    <path
       style="display:inline;fill:none;fill-rule:evenodd;stroke:#000000;stroke-width:5.43189812;stroke-linecap:round;stroke-linejoin:round;stroke-miterlimit:4;stroke-dasharray:none;stroke-opacity:1"
       d="m 1313.9183,431.72847 c 2.967,0.28999 9.665,-4.25003 11.035,-5.04002 48.924,-28.13001 71.82,-129.92 9.448,-74.12 -15.9007,13.51792 -53.8448,66.63649 -72.4911,75.56025 -3.1688,1.86363 -7.711,3.09001 -12.1271,3.32353 -5.9458,0.3144 -11.6631,-1.17107 -13.4919,-5.32448 -6.016,-13.66301 12.065,-30.045 39.441,-63.891 27.375,-33.846 -32.355,-35.219 -48.218,-3.25699"
       id="path844-7-9-6-0-9"
       inkscape:connector-curvature="0"
       sodipodi:nodetypes="csccsszc" />
    <path
       style="display:inline;fill:none;fill-rule:evenodd;stroke:#000000;stroke-width:5.63824272;stroke-linecap:round;stroke-linejoin:round;stroke-miterlimit:4;stroke-dasharray:none;stroke-opacity:1"
       d="m 1368.6543,340.35844 c -0.669,30.98001 -18.092,61.58001 -38.142,82.54001"
       id="path844-5-6-0-1-7-0-6-6-5"
       inkscape:connector-curvature="0"
       sodipodi:nodetypes="cc" />
    <path
       style="display:inline;fill:none;fill-rule:evenodd;stroke:#000000;stroke-width:5.63824272;stroke-linecap:round;stroke-linejoin:round;stroke-miterlimit:4;stroke-dasharray:none;stroke-opacity:1"
       d="m 1371.2403,342.65844 c 5.159,34.82 -19.941,69.38 -45.032,83.29"
       id="path844-5-6-0-1-7-0-7-7-6-1"
       inkscape:connector-curvature="0"
       sodipodi:nodetypes="cc" />
    <path
       style="display:inline;fill:none;fill-rule:evenodd;stroke:#000000;stroke-width:5.63824272;stroke-linecap:round;stroke-linejoin:round;stroke-miterlimit:4;stroke-dasharray:none;stroke-opacity:1"
       d="m 1363.9033,339.01844 c 3.551,34.07 -21.221,69 -37.695,86.93"
       id="path844-5-6-0-1-7-0-7-7-8-1-73"
       inkscape:connector-curvature="0"
       sodipodi:nodetypes="cc" />
    <path
       style="display:inline;fill:none;fill-rule:evenodd;stroke:#000000;stroke-width:2.81912136;stroke-linecap:round;stroke-linejoin:round;stroke-miterlimit:4;stroke-dasharray:none;stroke-opacity:1"
       d="m 1356.5043,338.76844 c 7.917,-3.1 5.932,10.50001 5.872,15.85001"
       id="path844-5-6-0-1-7-0-7-0-0-5-2"
       inkscape:connector-curvature="0"
       sodipodi:nodetypes="cc" />
    <path
       style="display:inline;fill:none;fill-rule:evenodd;stroke:#000000;stroke-width:2.81912136;stroke-linecap:round;stroke-linejoin:round;stroke-miterlimit:4;stroke-dasharray:none;stroke-opacity:1"
       d="m 1332.7733,416.20845 c -5.466,6.88999 -9.357,9.82999 -15.345,13.21002"
       id="path844-5-6-0-1-7-0-7-0-0-6-6-2"
       inkscape:connector-curvature="0"
       sodipodi:nodetypes="cc" />
    <path
       style="display:inline;fill:none;fill-rule:evenodd;stroke:#000000;stroke-width:4.45781231;stroke-linecap:round;stroke-linejoin:round;stroke-miterlimit:4;stroke-dasharray:none;stroke-opacity:1"
       d="m 1327.7021,413.73435 c 0.5982,0.0555 1.1195,0.18777 1.541,0.40247 0.1386,0.0713 0.2654,0.14974 0.381,0.23926 0.7479,0.57837 1.0189,1.57107 0.6022,3.15878 -0.8137,3.0922 -4.31,4.86451 -5.9713,5.49436 -3.4409,1.24623 -5.9912,-1.59167 -4.0255,-4.64109 1.2288,-1.9054 3.3607,-4.01997 5.8762,-4.5397 0.1703,-0.0317 0.343,-0.0634 0.5181,-0.0832 0.2092,-0.0238 0.4207,-0.0396 0.6346,-0.0396 0.4849,0 0.9801,0.0634 1.4824,0.20203"
       id="path12351-7-1-4"
       inkscape:connector-curvature="0"
       sodipodi:nodetypes="cssscssssc" />
    <path
       style="display:inline;fill:none;fill-rule:evenodd;stroke:#000000;stroke-width:5.625;stroke-linecap:round;stroke-linejoin:round;stroke-miterlimit:4;stroke-dasharray:none;stroke-opacity:1"
       d="m 536.53247,353.53234 c 29.732,-37.33 74.148,-13.17 1.721,28.56 44.76,-17.8 10.773,20.67183 -10.066,49.42183 l 216.13356,-49.07286"
       id="path12351-2"
       inkscape:connector-curvature="0"
       sodipodi:nodetypes="cccc" />
    <path
       style="display:inline;fill:none;fill-rule:evenodd;stroke:#000000;stroke-width:5.625;stroke-linecap:round;stroke-linejoin:round;stroke-miterlimit:4;stroke-dasharray:none;stroke-opacity:1"
       d="m 908.81502,431.62031 c 5.84501,-3.66 12.75201,-11.67 7.107,-18.99 -2.814,-3.64 -4.36194,-4.96781 -12.98899,-4.93 l -141.462,0.62 c -7.35993,0.0323 -15.418,-0.187 -17.357,-0.78 -9.573,-2.929 -8.457,-13.059 0.207,-25.099"
       id="path844-40-7-5-7-7-6"
       inkscape:connector-curvature="0"
       sodipodi:nodetypes="cssssc" />
    <path
       style="display:inline;fill:none;fill-rule:evenodd;stroke:#000000;stroke-width:5.625;stroke-linecap:round;stroke-linejoin:miter;stroke-miterlimit:4;stroke-dasharray:none;stroke-opacity:1"
       d="m 1015.5432,258.31891 c -12.3884,13.05803 -20.9594,28.38798 -41.6816,66.61695 -27.14735,50.08235 -55.95014,103.73425 -65.04658,106.68445"
       id="path822-8-8"
       inkscape:connector-curvature="0"
       sodipodi:nodetypes="csc" />
    <path
       style="display:inline;fill:none;fill-rule:evenodd;stroke:#000000;stroke-width:5.625;stroke-linecap:round;stroke-linejoin:round;stroke-miterlimit:4;stroke-dasharray:none;stroke-opacity:1"
       d="m 1004.4608,331.05658 c 58.0804,-21.06778 88.3659,-148.6227 11.0824,-72.73767"
       id="path844-56-5"
       inkscape:connector-curvature="0"
       sodipodi:nodetypes="cc" />
    <ellipse
       style="display:inline;fill:none;fill-opacity:1;stroke:#000000;stroke-width:5.625;stroke-linecap:round;stroke-linejoin:round;stroke-miterlimit:4;stroke-dasharray:none;stroke-dashoffset:0;stroke-opacity:1;paint-order:stroke fill markers"
       id="path44014-1-3-5-4-20-28-3-2"
       cx="656.88513"
       cy="898.33356"
       rx="25.728556"
       ry="20.371416"
       transform="rotate(-37.736319)" />
    <path
       style="display:inline;fill:none;fill-rule:evenodd;stroke:#000000;stroke-width:5.625;stroke-linecap:round;stroke-linejoin:round;stroke-miterlimit:4;stroke-dasharray:none;stroke-opacity:1"
       d="m 1061.6034,289.15776 c 0,0 -69.8658,41.564 -57.1426,41.89882"
       id="path851-7-8-7-6-3-7"
       inkscape:connector-curvature="0"
       sodipodi:nodetypes="cc" />
  </g>
</svg>
