<?xml version="1.0" encoding="UTF-8" standalone="no"?>
<!-- Created with Inkscape (http://www.inkscape.org/) -->

<svg
   xmlns:dc="http://purl.org/dc/elements/1.1/"
   xmlns:cc="http://creativecommons.org/ns#"
   xmlns:rdf="http://www.w3.org/1999/02/22-rdf-syntax-ns#"
   xmlns:svg="http://www.w3.org/2000/svg"
   xmlns="http://www.w3.org/2000/svg"
   xmlns:sodipodi="http://sodipodi.sourceforge.net/DTD/sodipodi-0.dtd"
   xmlns:inkscape="http://www.inkscape.org/namespaces/inkscape"
   width="320mm"
   height="210mm"
   viewBox="0 0 1133.8583 744.09448"
   id="svg2"
   version="1.1"
   inkscape:version="0.92.3 (2405546, 2018-03-11)"
   sodipodi:docname="Z DEK Deutsche Einheitskurzschrift - Verkehrsschrift -Hannemann, geh du voran, du hast die größten Stiefel an.svg">
  <defs
     id="defs4" />
  <sodipodi:namedview
     id="base"
     pagecolor="#ffffff"
     bordercolor="#666666"
     borderopacity="1.0"
     inkscape:pageopacity="0.0"
     inkscape:pageshadow="2"
     inkscape:zoom="0.35"
     inkscape:cx="619.87287"
     inkscape:cy="687.82869"
     inkscape:document-units="px"
     inkscape:current-layer="layer2"
     showgrid="false"
     inkscape:window-width="1920"
     inkscape:window-height="1017"
     inkscape:window-x="1592"
     inkscape:window-y="-8"
     inkscape:window-maximized="1"
     showguides="true"
     inkscape:guide-bbox="true" />
  <metadata
     id="metadata7">
    <rdf:RDF>
      <cc:Work
         rdf:about="">
        <dc:format>image/svg+xml</dc:format>
        <dc:type
           rdf:resource="http://purl.org/dc/dcmitype/StillImage" />
        <dc:title></dc:title>
      </cc:Work>
    </rdf:RDF>
  </metadata>
  <g
     inkscape:label="Grundlinien"
     inkscape:groupmode="layer"
     id="layer1"
     transform="translate(0,-308.26772)"
     sodipodi:insensitive="true">
    <path
       style="fill:none;fill-rule:evenodd;stroke:#969696;stroke-width:1.875;stroke-linecap:round;stroke-linejoin:miter;stroke-miterlimit:4;stroke-dasharray:none;stroke-opacity:1"
       d="M 10.868662,529.34827 H 1119.9116"
       id="path3336"
       inkscape:connector-curvature="0"
       sodipodi:nodetypes="cc" />
    <path
       style="fill:none;fill-rule:evenodd;stroke:#000000;stroke-width:0.9375;stroke-linecap:round;stroke-linejoin:miter;stroke-miterlimit:2;stroke-dasharray:3.74999998, 7.49999996;stroke-dashoffset:0;stroke-opacity:1"
       d="M 11.591892,631.25053 H 1120.6348"
       id="path3336-4"
       inkscape:connector-curvature="0"
       sodipodi:nodetypes="cc" />
    <path
       style="fill:none;fill-rule:evenodd;stroke:#000000;stroke-width:0.9375;stroke-linecap:round;stroke-linejoin:miter;stroke-miterlimit:2;stroke-dasharray:3.74999998, 7.49999996;stroke-dashoffset:0;stroke-opacity:1"
       d="M 11.591892,428.87231 H 1120.6348"
       id="path3336-7"
       inkscape:connector-curvature="0"
       sodipodi:nodetypes="cc" />
    <path
       style="fill:none;fill-rule:evenodd;stroke:#000000;stroke-width:0.9375;stroke-linecap:round;stroke-linejoin:miter;stroke-miterlimit:2;stroke-dasharray:3.74999998, 7.49999996;stroke-dashoffset:0;stroke-opacity:1"
       d="M 11.591892,327.68323 H 1120.6348"
       id="path3336-2"
       inkscape:connector-curvature="0"
       sodipodi:nodetypes="cc" />
    <path
       style="fill:none;fill-rule:evenodd;stroke:#969696;stroke-width:1.875;stroke-linecap:round;stroke-linejoin:miter;stroke-miterlimit:4;stroke-dasharray:none;stroke-opacity:1"
       d="M 10.868662,933.54263 H 1119.9116"
       id="path3336-8"
       inkscape:connector-curvature="0"
       sodipodi:nodetypes="cc" />
    <path
       style="fill:none;fill-rule:evenodd;stroke:#000000;stroke-width:0.9375;stroke-linecap:round;stroke-linejoin:miter;stroke-miterlimit:2;stroke-dasharray:3.74999998, 7.49999996;stroke-dashoffset:0;stroke-opacity:1"
       d="M 11.591892,1035.4449 H 1120.6348"
       id="path3336-4-4"
       inkscape:connector-curvature="0"
       sodipodi:nodetypes="cc" />
    <path
       style="fill:none;fill-rule:evenodd;stroke:#000000;stroke-width:0.9375;stroke-linecap:round;stroke-linejoin:miter;stroke-miterlimit:2;stroke-dasharray:3.74999998, 7.49999996;stroke-dashoffset:0;stroke-opacity:1"
       d="M 11.591892,833.06667 H 1120.6348"
       id="path3336-7-4"
       inkscape:connector-curvature="0"
       sodipodi:nodetypes="cc" />
    <path
       style="fill:none;fill-rule:evenodd;stroke:#000000;stroke-width:0.9375;stroke-linecap:round;stroke-linejoin:miter;stroke-miterlimit:2;stroke-dasharray:3.74999998, 7.49999996;stroke-dashoffset:0;stroke-opacity:1"
       d="M 11.591892,731.87759 H 1120.6348"
       id="path3336-2-0"
       inkscape:connector-curvature="0"
       sodipodi:nodetypes="cc" />
  </g>
  <g
     inkscape:groupmode="layer"
     id="layer2"
     inkscape:label="Stenozeichen"
     style="display:inline">
    <path
       style="display:inline;fill:none;fill-rule:evenodd;stroke:#000000;stroke-width:5.625;stroke-linecap:round;stroke-linejoin:round;stroke-miterlimit:4;stroke-dasharray:none;stroke-opacity:1"
       d="m 221.07155,134.09918 c 23.72601,-19.158 60.94701,-14.638 37.48201,14.373 -27.376,33.846 -45.45601,50.228 -39.44101,63.891 4.20501,9.55002 21.79501,5.29202 36.49901,-3.671 l 19.69,-12"
       id="path844-7-2-0-0"
       inkscape:connector-curvature="0"
       sodipodi:nodetypes="csssc" />
    <path
       style="display:inline;fill:none;fill-rule:evenodd;stroke:#000000;stroke-width:5.625;stroke-linecap:round;stroke-linejoin:round;stroke-miterlimit:4;stroke-dasharray:none;stroke-opacity:1"
       d="m 271.67356,199.25818 c 0,0 33.907,-24.914 43.642,-17.374 6.09101,4.717 8.90501,37.61401 21.21,36.079 8.75201,-1.093 10.448,-1.45 17.073,-5.595 4.449,-2.784 14.82101,-12.649 14.82101,-12.649"
       id="path844-5-1-0-7-3-3-19-3"
       inkscape:connector-curvature="0"
       sodipodi:nodetypes="csssc" />
    <path
       style="display:inline;fill:none;fill-rule:evenodd;stroke:#000000;stroke-width:5.625;stroke-linecap:round;stroke-linejoin:round;stroke-miterlimit:4;stroke-dasharray:none;stroke-opacity:1"
       d="m 303.54157,181.75718 c 11.625,-4.683 11.43499,6.257 12.93399,22.868 0.978,10.832 7.77201,13.725 20.059,13.30002"
       id="path844-5-1-0-7-3-4-3-0-5"
       inkscape:connector-curvature="0"
       sodipodi:nodetypes="csc" />
    <path
       style="display:inline;fill:none;fill-rule:evenodd;stroke:#000000;stroke-width:5.625;stroke-linecap:round;stroke-linejoin:round;stroke-miterlimit:4;stroke-dasharray:none;stroke-opacity:1"
       d="m 303.54157,181.75718 c 5.415,-2.394 19.04499,-3.593 22.683,15.037 2.58699,13.252 4.746,19.72001 13.90899,20.46101"
       id="path844-5-1-0-7-3-4-5-35-7-2"
       inkscape:connector-curvature="0"
       sodipodi:nodetypes="csc" />
    <path
       style="display:inline;fill:none;fill-rule:evenodd;stroke:#000000;stroke-width:5.625;stroke-linecap:round;stroke-linejoin:round;stroke-miterlimit:4;stroke-dasharray:none;stroke-opacity:1"
       d="m 315.58456,184.44518 c 6.774,12.288 0.979,30.85502 15.47001,31.81802"
       id="path844-5-1-0-7-3-4-5-3-5-80-8"
       inkscape:connector-curvature="0"
       sodipodi:nodetypes="cc" />
    <path
       style="display:inline;fill:none;fill-rule:evenodd;stroke:#000000;stroke-width:5.41913939;stroke-linecap:round;stroke-linejoin:round;stroke-miterlimit:4;stroke-dasharray:none;stroke-opacity:1"
       d="m 24.511583,204.45475 c -5.203,1.37 -9.168,5.105 -9.168,7.695 0,3.691 0.846,5.778 5.821,6.268 2.967,0.3 9.924,-5.784 11.294,-6.564 48.924001,-28.00001 71.819997,-129.310018 9.448,-73.78001 -2.333,2.07999 -17.441,18.36 -20.016,20.88999"
       id="path844-7-9-7-5-1-7-9"
       inkscape:connector-curvature="0"
       sodipodi:nodetypes="cssssc" />
    <path
       style="display:inline;fill:none;fill-rule:evenodd;stroke:#000000;stroke-width:5.625;stroke-linecap:round;stroke-linejoin:round;stroke-miterlimit:4;stroke-dasharray:none;stroke-opacity:1"
       d="m 24.511583,204.45475 c 15.148,-4.077 65.777001,-16.351 80.651997,-16.74001 14.09001,-0.368 13.419,29.87301 31.009,29.97301 10.341,0.06 19.232,-5.069 27.783,-12.564"
       id="path844-5-5-3-6-3-4"
       inkscape:connector-curvature="0"
       sodipodi:nodetypes="cssc" />
    <path
       style="display:inline;fill:none;fill-rule:evenodd;stroke:#000000;stroke-width:5.625;stroke-linecap:round;stroke-linejoin:round;stroke-miterlimit:4;stroke-dasharray:none;stroke-opacity:1"
       d="m 107.09759,191.10775 18.87499,24.901"
       id="path844-5-1-0-7-3-4-3-8-5-8"
       inkscape:connector-curvature="0"
       sodipodi:nodetypes="cc" />
    <path
       style="display:inline;fill:none;fill-rule:evenodd;stroke:#000000;stroke-width:5.625;stroke-linecap:round;stroke-linejoin:round;stroke-miterlimit:4;stroke-dasharray:none;stroke-opacity:1"
       d="m 89.550584,189.68175 c 6.755,-0.468 16.769996,-1.149 22.920006,15.806 4.60299,12.693 18.54499,15.084 26.21402,12.259"
       id="path844-5-1-0-7-3-4-5-35-2-8-0"
       inkscape:connector-curvature="0"
       sodipodi:nodetypes="csc" />
    <path
       style="display:inline;fill:none;fill-rule:evenodd;stroke:#000000;stroke-width:5.625;stroke-linecap:round;stroke-linejoin:round;stroke-miterlimit:4;stroke-dasharray:none;stroke-opacity:1"
       d="m 163.95558,205.12375 c 10.99368,-9.64899 37.76241,-54.27187 57.11597,-71.02457"
       id="path12351-7-1-83-2-8"
       inkscape:connector-curvature="0"
       sodipodi:nodetypes="cc" />
    <path
       style="display:inline;fill:none;fill-rule:evenodd;stroke:#000008;stroke-width:5.625;stroke-linecap:round;stroke-linejoin:round;stroke-miterlimit:4;stroke-dasharray:none;stroke-opacity:1"
       d="m 447.41654,147.21923 c 9.29901,-12.56921 18.022,-18.0814 26.21001,-21.6555 24.834,-6.85771 34.989,2.4637 12.254,40.5038 l -29.82901,52.09281"
       id="path12351-3-7-7-2-3-07"
       inkscape:connector-curvature="0"
       sodipodi:nodetypes="ccsc" />
    <path
       style="display:inline;fill:none;fill-rule:evenodd;stroke:#000008;stroke-width:5.625;stroke-linecap:round;stroke-linejoin:round;stroke-miterlimit:4;stroke-dasharray:none;stroke-opacity:1"
       d="m 456.05154,218.16034 72.35491,-71.63248"
       id="path844-99-4-6-25-0-0-2"
       inkscape:connector-curvature="0"
       sodipodi:nodetypes="cc" />
    <path
       style="display:inline;fill:none;fill-rule:evenodd;stroke:#000000;stroke-width:5.41913939;stroke-linecap:round;stroke-linejoin:round;stroke-miterlimit:4;stroke-dasharray:none;stroke-opacity:1"
       d="M 516.64943,219.37193 C 573.42137,198.7327 605.91167,70.916962 528.40645,146.52786"
       id="path844-56"
       inkscape:connector-curvature="0"
       sodipodi:nodetypes="cc" />
    <path
       style="display:inline;fill:none;fill-rule:evenodd;stroke:#000000;stroke-width:5.625;stroke-linecap:round;stroke-linejoin:round;stroke-miterlimit:4;stroke-dasharray:none;stroke-opacity:1"
       d="m 646.05796,174.54614 c 39.96201,2.98 57.64521,-35.31994 56.60601,-44.28 -1.4257,-12.29232 -29.313,-4.28 -53.13,35.04 -30.8335,50.44521 -20.373,58.90638 -0.57111,51.61088 7.32671,-2.69935 22.12641,-10.85921 30.39231,-16.54427"
       id="path12351-7-1-51"
       inkscape:connector-curvature="0"
       sodipodi:nodetypes="cscsc" />
    <path
       style="display:inline;fill:none;fill-rule:evenodd;stroke:#060000;stroke-width:5.625;stroke-linecap:round;stroke-linejoin:round;stroke-miterlimit:4;stroke-dasharray:none;stroke-opacity:1"
       d="m 649.14976,271.57852 c 16.755,-0.4872 32.979,-21.3198 34.99301,-47.24112 2.08099,-26.7985 46.6998,-54.94712 36.276,-48.6746 l -41.0636,24.70995"
       id="path12351-7-1-8-2-1-6"
       inkscape:connector-curvature="0"
       sodipodi:nodetypes="cssc" />
    <path
       style="display:inline;fill:none;fill-rule:evenodd;stroke:#000000;stroke-width:5.625;stroke-linecap:round;stroke-linejoin:round;stroke-miterlimit:4;stroke-dasharray:none;stroke-opacity:1"
       d="m 1017.0814,177.86454 c -11.5173,3.97637 -37.50597,14.33752 -52.81881,19.32638 -109.05742,35.53033 -184.31183,21.66274 -187.40373,-22.4208"
       id="path4752-1-5-8-2-4"
       inkscape:connector-curvature="0"
       sodipodi:nodetypes="csc" />
    <path
       style="display:inline;fill:none;fill-rule:evenodd;stroke:#000000;stroke-width:5.625;stroke-linecap:round;stroke-linejoin:round;stroke-miterlimit:4;stroke-dasharray:none;stroke-opacity:1"
       d="m 1029.9083,178.00254 c 6.636,5.13999 8.714,36.92501 22.011,39.30499 13.7301,2.45802 28.781,-9.373 38.319,-15.961"
       id="path844-5-1-0-7-3-3-9-2-39"
       inkscape:connector-curvature="0"
       sodipodi:nodetypes="csc" />
    <path
       style="display:inline;fill:none;fill-rule:evenodd;stroke:#000000;stroke-width:6.12790394;stroke-linecap:round;stroke-linejoin:round;stroke-miterlimit:4;stroke-dasharray:none;stroke-opacity:1"
       d="m 1017.0814,177.86454 c 12.6649,-5.10101 14.6461,7.36399 16.2789,25.45999 1.066,11.80102 8.467,14.95301 21.853,14.49"
       id="path844-5-1-0-7-3-4-3-8-2-33"
       inkscape:connector-curvature="0"
       sodipodi:nodetypes="csc" />
    <path
       style="display:inline;fill:none;fill-rule:evenodd;stroke:#000000;stroke-width:6.12790394;stroke-linecap:round;stroke-linejoin:round;stroke-miterlimit:4;stroke-dasharray:none;stroke-opacity:1"
       d="m 1017.0814,177.86454 c 5.8999,-2.607 20.7481,-3.91301 24.7111,16.38099 2.8188,14.437 6.2508,23.089 13.4208,23.569"
       id="path844-5-1-0-7-3-4-5-35-2-0-0"
       inkscape:connector-curvature="0"
       sodipodi:nodetypes="csc" />
    <path
       style="display:inline;fill:none;fill-rule:evenodd;stroke:#000000;stroke-width:6.12790394;stroke-linecap:round;stroke-linejoin:round;stroke-miterlimit:4;stroke-dasharray:none;stroke-opacity:1"
       d="m 1030.2013,180.79353 c 7.38,13.387 1.0672,33.613 16.8532,34.66202"
       id="path844-5-1-0-7-3-4-5-3-5-9-0-1"
       inkscape:connector-curvature="0"
       sodipodi:nodetypes="cc" />
    <path
       style="display:inline;fill:none;fill-rule:evenodd;stroke:#000000;stroke-width:5.625;stroke-linecap:round;stroke-linejoin:round;stroke-miterlimit:4;stroke-dasharray:none;stroke-opacity:1"
       d="m 871.8262,548.94627 c 55.255,-40.90039 194.2728,-176.76554 148.7638,-173.77694 -15.37,1.0093 -42.61701,12.2005 -89.803,90.09581 -60.29801,104.15761 -31.992,117.73981 2.2,97.6655"
       id="path12351-7-1-1-96"
       inkscape:connector-curvature="0"
       sodipodi:nodetypes="cscc" />
    <path
       style="display:inline;fill:none;fill-rule:evenodd;stroke:#000000;stroke-width:5.625;stroke-linecap:round;stroke-linejoin:round;stroke-miterlimit:4;stroke-dasharray:none;stroke-opacity:1"
       d="m 871.8262,548.94627 c 0,0 -77.94735,69.42457 -81.95769,72.96203 -37.209,32.8214 -66.12918,85.60583 -58.29218,99.74972 2.936,5.29721 34.66,12.40521 62.345,-63.35029 15.73,-47.17772 25.761,-112.47573 71.496,-132.14302"
       id="path12351-7-1-8-02-4-1"
       inkscape:connector-curvature="0"
       sodipodi:nodetypes="csscc" />
    <path
       style="display:inline;fill:none;fill-opacity:1;fill-rule:evenodd;stroke:#000000;stroke-width:5.625;stroke-linecap:round;stroke-linejoin:round;stroke-miterlimit:4;stroke-dasharray:none;stroke-opacity:1"
       d="m 936.43686,549.20797 c 0.9365,0.093 1.75393,0.2936 2.41382,0.63011 0.21583,0.1104 0.41554,0.2347 0.59663,0.37488 1.1697,0.90461 1.59517,2.45958 0.94147,4.94474 -1.27266,4.84152 -6.74655,7.61694 -9.34892,8.60231 -5.38707,1.95103 -9.37993,-2.4916 -6.30126,-7.26555 1.92388,-2.98414 5.2618,-6.2943 9.19885,-7.10825 0.26792,-0.0558 0.53833,-0.0992 0.81122,-0.13049 0.3287,-0.0372 0.65988,-0.0571 0.9948,-0.0583 0.75913,-6.2e-4 1.53437,0.0992 2.3208,0.31618"
       id="path12351-7-1-4-7-1-4"
       inkscape:connector-curvature="0"
       sodipodi:nodetypes="cssscssssc" />
    <path
       style="display:inline;fill:none;fill-rule:evenodd;stroke:#000000;stroke-width:5.625;stroke-linecap:round;stroke-linejoin:round;stroke-miterlimit:4;stroke-dasharray:none;stroke-opacity:1"
       d="m 983.2672,622.93481 c 0,0 44.594,-32.407 61.828,-29.202 16.223,3.01697 15.6462,40.57755 40.7398,25.18754 0.788,-0.48328 3.5324,-2.16781 7.3437,-4.51165"
       id="path844-5-52-8-1-8"
       inkscape:connector-curvature="0"
       sodipodi:nodetypes="cssc" />
    <path
       style="display:inline;fill:none;fill-rule:evenodd;stroke:#000000;stroke-width:5.625;stroke-linecap:round;stroke-linejoin:round;stroke-miterlimit:4;stroke-dasharray:none;stroke-opacity:1"
       d="m 1026.8292,597.75581 c 5.416,-2.393 18.639,-2.225 26.533,15.037 5.6011,12.248 13.9411,9.476 20.5221,9.915"
       id="path844-5-1-0-7-3-4-5-35-2-1"
       inkscape:connector-curvature="0"
       sodipodi:nodetypes="csc" />
    <path
       style="display:inline;fill:none;fill-rule:evenodd;stroke:#000000;stroke-width:5.625;stroke-linecap:round;stroke-linejoin:round;stroke-miterlimit:4;stroke-dasharray:none;stroke-opacity:1"
       d="m 1041.4272,595.84181 c 6.679,5.893 6.347,0.463 21.1621,23.112"
       id="path844-5-1-0-7-3-4-5-3-5-9-7"
       inkscape:connector-curvature="0"
       sodipodi:nodetypes="cc" />
    <path
       style="display:inline;fill:none;fill-rule:evenodd;stroke:#000000;stroke-width:5.625;stroke-linecap:round;stroke-linejoin:round;stroke-miterlimit:4;stroke-dasharray:none;stroke-opacity:1"
       d="m 28.914339,577.74059 c 39.962009,2.98 57.645209,-35.31994 56.606009,-44.28 -1.4257,-12.29232 -29.312998,-4.28 -53.129999,35.04 -30.8335012,50.44521 -20.373001,58.90638 -0.57111,51.61089 7.32671,-2.69936 22.12641,-10.85922 30.392312,-16.54428"
       id="path12351-7-1-51-7"
       inkscape:connector-curvature="0"
       sodipodi:nodetypes="cscsc" />
    <path
       style="display:inline;fill:none;fill-rule:evenodd;stroke:#060000;stroke-width:5.625;stroke-linecap:round;stroke-linejoin:round;stroke-miterlimit:4;stroke-dasharray:none;stroke-opacity:1"
       d="m 32.006139,674.77297 c 16.755,-0.4872 32.979002,-21.3198 34.993012,-47.24112 2.080987,-26.7985 46.699809,-54.94712 36.275999,-48.6746 L 62.211551,603.5672"
       id="path12351-7-1-8-2-1-6-7"
       inkscape:connector-curvature="0"
       sodipodi:nodetypes="cssc" />
    <path
       style="display:inline;fill:none;fill-rule:evenodd;stroke:#000000;stroke-width:5.43189859;stroke-linecap:round;stroke-linejoin:round;stroke-miterlimit:4;stroke-dasharray:none;stroke-opacity:1"
       d="m 146.89806,622.46981 c 2.967,0.294 9.665,-4.24999 11.035,-5.038 48.92401,-28.129 71.82001,-129.92 9.448,-74.123 -2.333,2.087 -17.441,18.443 -20.016,20.983"
       id="path844-7-9-6-0-0"
       inkscape:connector-curvature="0"
       sodipodi:nodetypes="cssc" />
    <path
       style="display:inline;fill:none;fill-rule:evenodd;stroke:#000000;stroke-width:5.6382432;stroke-linecap:round;stroke-linejoin:round;stroke-miterlimit:4;stroke-dasharray:none;stroke-opacity:1"
       d="m 201.63407,531.09881 c -0.669,30.983 -18.092,61.584 -38.142,82.536"
       id="path844-5-6-0-1-7-0-6-6-41"
       inkscape:connector-curvature="0"
       sodipodi:nodetypes="cc" />
    <path
       style="display:inline;fill:none;fill-rule:evenodd;stroke:#000000;stroke-width:5.6382432;stroke-linecap:round;stroke-linejoin:round;stroke-miterlimit:4;stroke-dasharray:none;stroke-opacity:1"
       d="m 204.22007,533.39981 c 5.159,34.819 -19.94101,69.383 -45.03201,83.286"
       id="path844-5-6-0-1-7-0-7-7-6-2"
       inkscape:connector-curvature="0"
       sodipodi:nodetypes="cc" />
    <path
       style="display:inline;fill:none;fill-rule:evenodd;stroke:#000000;stroke-width:5.6382432;stroke-linecap:round;stroke-linejoin:round;stroke-miterlimit:4;stroke-dasharray:none;stroke-opacity:1"
       d="m 196.88307,529.76081 c 3.551,34.067 -21.22101,68.995 -37.69501,86.925"
       id="path844-5-6-0-1-7-0-7-7-8-1-72"
       inkscape:connector-curvature="0"
       sodipodi:nodetypes="cc" />
    <path
       style="display:inline;fill:none;fill-rule:evenodd;stroke:#000000;stroke-width:2.8191216;stroke-linecap:round;stroke-linejoin:round;stroke-miterlimit:4;stroke-dasharray:none;stroke-opacity:1"
       d="m 189.48407,529.51181 c 7.917,-3.104 5.932,10.502 5.872,15.844"
       id="path844-5-6-0-1-7-0-7-0-0-5-0"
       inkscape:connector-curvature="0"
       sodipodi:nodetypes="cc" />
    <path
       style="display:inline;fill:none;fill-rule:evenodd;stroke:#000000;stroke-width:2.8191216;stroke-linecap:round;stroke-linejoin:round;stroke-miterlimit:4;stroke-dasharray:none;stroke-opacity:1"
       d="m 165.75306,606.94881 c -5.466,6.895 -9.357,9.828 -15.345,13.21"
       id="path844-5-6-0-1-7-0-7-0-0-6-6-4"
       inkscape:connector-curvature="0"
       sodipodi:nodetypes="cc" />
    <path
       style="display:inline;fill:none;fill-rule:evenodd;stroke:#000000;stroke-width:5.625;stroke-linecap:round;stroke-linejoin:round;stroke-miterlimit:4;stroke-dasharray:none;stroke-opacity:1"
       d="m 261.61576,576.78662 -23.627,45.33001"
       id="path12351-7-1-4-17-5-9-0-1-4-83-2-9-8-3-8-2-2"
       inkscape:connector-curvature="0"
       sodipodi:nodetypes="cc" />
    <path
       style="display:inline;fill:none;fill-rule:evenodd;stroke:#000000;stroke-width:5.625;stroke-linecap:round;stroke-linejoin:round;stroke-miterlimit:4;stroke-dasharray:none;stroke-opacity:1"
       d="m 361.21083,448.2603 c 24.337,-32.98 69.328,-34.53 37.18,20.02001 l -90.015,153.83999 259.5255,-93.72879"
       id="path12351-0-4-8-0-3"
       inkscape:connector-curvature="0"
       sodipodi:nodetypes="cscc" />
    <ellipse
       style="display:inline;fill:none;fill-opacity:1;stroke:#000000;stroke-width:5.625;stroke-linecap:round;stroke-linejoin:round;stroke-miterlimit:4;stroke-dasharray:none;stroke-dashoffset:0;stroke-opacity:1;paint-order:stroke fill markers"
       id="path59569-4-3"
       cx="233.96561"
       cy="777.94476"
       rx="62.130169"
       ry="44.633743"
       transform="rotate(-28.225512)" />
    <path
       style="display:inline;fill:none;fill-rule:evenodd;stroke:#000000;stroke-width:5.38575411;stroke-linecap:round;stroke-linejoin:miter;stroke-miterlimit:4;stroke-dasharray:none;stroke-opacity:1"
       d="m 630.78076,552.82649 c -13.77001,27.87401 -38.12801,52.374 -66.77702,70.707"
       id="path16460-0-0-3-7"
       inkscape:connector-curvature="0"
       sodipodi:nodetypes="cc" />
    <path
       style="display:inline;fill:none;fill-rule:evenodd;stroke:#000000;stroke-width:5.38575411;stroke-linecap:round;stroke-linejoin:miter;stroke-miterlimit:4;stroke-dasharray:none;stroke-opacity:1"
       d="m 631.96075,561.81749 c -15.865,21.29901 -33.06701,41.475 -54.01901,58.50501"
       id="path16460-4-93-1-6-8"
       inkscape:connector-curvature="0"
       sodipodi:nodetypes="cc" />
    <path
       style="display:inline;fill:none;fill-rule:evenodd;stroke:#000000;stroke-width:7.18100643;stroke-linecap:round;stroke-linejoin:miter;stroke-miterlimit:4;stroke-dasharray:none;stroke-opacity:1"
       d="m 631.02475,568.29749 c -14.313,21.55701 -19.74001,29.619 -41.675,46.48401"
       id="path16460-4-9-9-7-0-0"
       inkscape:connector-curvature="0"
       sodipodi:nodetypes="cc" />
    <path
       style="display:inline;fill:none;fill-rule:evenodd;stroke:#000000;stroke-width:3.59050322;stroke-linecap:round;stroke-linejoin:miter;stroke-miterlimit:4;stroke-dasharray:none;stroke-opacity:1"
       d="m 579.65375,611.41749 c -10.077,9.551 -24.29501,12.17501 -31.143,10.662"
       id="path16460-4-9-2-1-0-5-5"
       inkscape:connector-curvature="0"
       sodipodi:nodetypes="cc" />
    <path
       style="display:inline;fill:none;fill-rule:evenodd;stroke:#000000;stroke-width:3.59050322;stroke-linecap:round;stroke-linejoin:miter;stroke-miterlimit:4;stroke-dasharray:none;stroke-opacity:1"
       d="m 622.70675,538.95749 c 2.195,2.504 8.654,12.21801 1.342,24.528"
       id="path16460-4-9-2-2-2-6-82-3"
       inkscape:connector-curvature="0"
       sodipodi:nodetypes="cc" />
    <path
       style="display:inline;fill:none;fill-rule:evenodd;stroke:#000000;stroke-width:5.625;stroke-linecap:round;stroke-linejoin:round;stroke-miterlimit:4;stroke-dasharray:none;stroke-opacity:1"
       d="m 532.28817,550.39619 c 0,0 126.33071,-192.0779 129.08071,-195.8199 9.04501,-12.306 18.367,-28.093 34.39401,-27.299 17.85799,0.884 16.027,70.888 53.871,25.191"
       id="path844-5-5-5-9-5"
       inkscape:connector-curvature="0"
       sodipodi:nodetypes="cssc" />
    <path
       style="display:inline;fill:none;fill-rule:evenodd;stroke:#000000;stroke-width:5.625;stroke-linecap:round;stroke-linejoin:miter;stroke-miterlimit:4;stroke-dasharray:none;stroke-opacity:1"
       d="m 404.14538,203.37006 c -1.329,12.51 -8.274,28.26 -20.759,34.15"
       id="path63000-1"
       inkscape:connector-curvature="0"
       sodipodi:nodetypes="cc" />
    <path
       style="display:inline;fill:none;fill-rule:evenodd;stroke:#000000;stroke-width:5.625;stroke-linecap:round;stroke-linejoin:miter;stroke-miterlimit:4;stroke-dasharray:none;stroke-opacity:1"
       d="m 1117.0471,204.70934 c -1.329,12.51 -8.274,28.26 -20.759,34.15"
       id="path63000-1-5"
       inkscape:connector-curvature="0"
       sodipodi:nodetypes="cc" />
    <circle
       style="display:inline;fill:#000000;fill-opacity:1;stroke:none;stroke-width:5.625;stroke-linecap:round;stroke-linejoin:round;stroke-miterlimit:4;stroke-dasharray:none;stroke-dashoffset:0;stroke-opacity:1;paint-order:stroke fill markers"
       id="path14275"
       cx="1118.9731"
       cy="616.8623"
       r="8.0496531" />
  </g>
</svg>
