<?xml version="1.0" encoding="UTF-8" standalone="no"?>
<!-- Created with Inkscape (http://www.inkscape.org/) -->

<svg
   xmlns:dc="http://purl.org/dc/elements/1.1/"
   xmlns:cc="http://creativecommons.org/ns#"
   xmlns:rdf="http://www.w3.org/1999/02/22-rdf-syntax-ns#"
   xmlns:svg="http://www.w3.org/2000/svg"
   xmlns="http://www.w3.org/2000/svg"
   xmlns:sodipodi="http://sodipodi.sourceforge.net/DTD/sodipodi-0.dtd"
   xmlns:inkscape="http://www.inkscape.org/namespaces/inkscape"
   width="297mm"
   height="210mm"
   viewBox="0 0 1052.3622 744.09448"
   id="svg2"
   version="1.1"
   inkscape:version="0.92.3 (2405546, 2018-03-11)"
   sodipodi:docname="DEK Deutsche Einheitskurzschrift - Verkehrsschrift - Reisen bildet.svg">
  <defs
     id="defs4" />
  <sodipodi:namedview
     id="base"
     pagecolor="#ffffff"
     bordercolor="#666666"
     borderopacity="1.0"
     inkscape:pageopacity="0.0"
     inkscape:pageshadow="2"
     inkscape:zoom="0.9899495"
     inkscape:cx="532.00411"
     inkscape:cy="400.10121"
     inkscape:document-units="px"
     inkscape:current-layer="layer2"
     showgrid="false"
     inkscape:window-width="1920"
     inkscape:window-height="1017"
     inkscape:window-x="1592"
     inkscape:window-y="-8"
     inkscape:window-maximized="1"
     showguides="true"
     inkscape:guide-bbox="true" />
  <metadata
     id="metadata7">
    <rdf:RDF>
      <cc:Work
         rdf:about="">
        <dc:format>image/svg+xml</dc:format>
        <dc:type
           rdf:resource="http://purl.org/dc/dcmitype/StillImage" />
        <dc:title></dc:title>
      </cc:Work>
    </rdf:RDF>
  </metadata>
  <g
     inkscape:label="Grundlinien"
     inkscape:groupmode="layer"
     id="layer1"
     transform="translate(0,-308.26772)"
     sodipodi:insensitive="true"
     style="display:inline">
    <path
       style="fill:none;fill-rule:evenodd;stroke:#969696;stroke-width:1.875;stroke-linecap:round;stroke-linejoin:miter;stroke-miterlimit:4;stroke-dasharray:none;stroke-opacity:1"
       d="M 57.556226,742.24566 H 1006.4206"
       id="path3336"
       inkscape:connector-curvature="0"
       sodipodi:nodetypes="cc" />
    <path
       style="fill:none;fill-rule:evenodd;stroke:#000000;stroke-width:0.9375;stroke-linecap:round;stroke-linejoin:miter;stroke-miterlimit:2;stroke-dasharray:3.74999998, 7.49999996;stroke-dashoffset:0;stroke-opacity:1"
       d="M 58.279456,844.14792 H 1007.1438"
       id="path3336-4"
       inkscape:connector-curvature="0"
       sodipodi:nodetypes="cc" />
    <path
       style="fill:none;fill-rule:evenodd;stroke:#000000;stroke-width:0.9375;stroke-linecap:round;stroke-linejoin:miter;stroke-miterlimit:2;stroke-dasharray:3.74999998, 7.49999996;stroke-dashoffset:0;stroke-opacity:1"
       d="M 58.279456,641.7697 H 1007.1438"
       id="path3336-7"
       inkscape:connector-curvature="0"
       sodipodi:nodetypes="cc" />
    <path
       style="fill:none;fill-rule:evenodd;stroke:#000000;stroke-width:0.9375;stroke-linecap:round;stroke-linejoin:miter;stroke-miterlimit:2;stroke-dasharray:3.74999998, 7.49999996;stroke-dashoffset:0;stroke-opacity:1"
       d="M 58.279456,540.58062 H 1007.1438"
       id="path3336-2"
       inkscape:connector-curvature="0"
       sodipodi:nodetypes="cc" />
  </g>
  <g
     inkscape:groupmode="layer"
     id="layer2"
     inkscape:label="Stenozeichen"
     style="display:inline">
    <path
       style="display:inline;fill:none;fill-rule:evenodd;stroke:#060000;stroke-width:5.625;stroke-linecap:round;stroke-linejoin:round;stroke-miterlimit:4;stroke-dasharray:none;stroke-opacity:1"
       d="m 181.25649,383.70412 17.49269,47.37543 127.01015,-60.76115"
       id="path844-5-4-9"
       inkscape:connector-curvature="0"
       sodipodi:nodetypes="ccc" />
    <path
       style="display:inline;fill:none;fill-rule:evenodd;stroke:#000000;stroke-width:5.625;stroke-linecap:round;stroke-linejoin:round;stroke-miterlimit:4;stroke-dasharray:none;stroke-opacity:1"
       d="m 325.75933,370.3184 35.75368,-18.13465 c 9.70057,-4.92023 37.92667,-23.88893 46.45511,-11.47089 4.26683,5.22653 4.09438,11.56578 3.28391,16.36439 -3.74014,10.19603 -12.71871,16.84308 -20.84339,20.43862 -8.25827,3.65473 -15.67159,4.16703 -20.09994,3.42189 -11.53843,-1.9412 -17.5631,-14.54647 -6.4775,-27.39091 0,0 10.26185,-11.80262 22.11984,-20.78794 l 15.18478,-12.10347"
       id="path12351-7-1-21-8-6-6-1-8"
       inkscape:connector-curvature="0"
       sodipodi:nodetypes="csccssccc" />
    <path
       style="display:inline;fill:none;fill-rule:evenodd;stroke:#000000;stroke-width:5.625;stroke-linecap:round;stroke-linejoin:round;stroke-miterlimit:4;stroke-dasharray:none;stroke-opacity:1"
       d="m 401.13582,320.65544 c 1.4813,-1.26992 6.96081,-5.83077 8.39144,-7.0488 17.65329,-15.0298 31.64798,-25.75478 46.8934,-23.43752 24.49443,6.69336 17.3864,72.86128 63.78304,21.90569"
       id="path844-5-5-1-9-1"
       inkscape:connector-curvature="0"
       sodipodi:nodetypes="cscc" />
    <path
       style="display:inline;fill:none;fill-rule:evenodd;stroke:#000000;stroke-width:5.625;stroke-linecap:round;stroke-linejoin:round;stroke-miterlimit:4;stroke-dasharray:none;stroke-opacity:1"
       d="m 612.70488,382.38813 25.15475,-37.59068"
       id="path844-5-1-0-7-3-3-9-2"
       inkscape:connector-curvature="0"
       sodipodi:nodetypes="cc" />
    <path
       style="display:inline;fill:none;fill-rule:evenodd;stroke:#000000;stroke-width:5.625;stroke-linecap:round;stroke-linejoin:round;stroke-miterlimit:4;stroke-dasharray:none;stroke-opacity:1"
       d="m 585.67227,336.55344 -42.405,73.08001 c -11.911,20.53001 8.412,28.35 31.326,14.36001 13.799,-9.79001 30.41072,-30.38882 38.11161,-41.60533"
       id="path4752-1-7-2-4-1-8-5"
       inkscape:connector-curvature="0"
       sodipodi:nodetypes="cscc" />
    <path
       style="display:inline;fill:none;fill-rule:evenodd;stroke:#000000;stroke-width:5.625;stroke-linecap:round;stroke-linejoin:round;stroke-miterlimit:4;stroke-dasharray:none;stroke-opacity:1"
       d="m 635.13116,335.43373 c 0.983,0.1 1.84,0.308 2.534,0.661 0.226,0.116 0.436,0.247 0.626,0.394 1.228,0.949 1.675,2.582 0.989,5.191 -1.337,5.083 -7.083,7.996 -9.815,9.031 -5.656,2.04801 -9.847,-2.616 -6.616,-7.629 2.02,-3.132 5.524,-6.607 9.658,-7.461 0.281,-0.06 0.565,-0.104 0.851,-0.137 0.345,-0.04 0.693,-0.06 1.045,-0.06 0.796,0 1.61,0.104 2.436,0.332"
       id="path12351-7-1-4-58-7-2-1-7-56"
       inkscape:connector-curvature="0"
       sodipodi:nodetypes="cssscssssc" />
    <path
       style="display:inline;fill:none;fill-rule:evenodd;stroke:#000000;stroke-width:5.625;stroke-linecap:round;stroke-linejoin:round;stroke-miterlimit:4;stroke-dasharray:none;stroke-opacity:1"
       d="m 627.92795,351.69917 c 26.04301,-4.02484 70.22811,-15.44351 75.91311,-18.94351 13.25299,-8.064 42.19999,-26.55199 36.888,-44.34999 -2.765,-7.27001 -34.67001,-8.63 -58.48701,30.69 -26.32301,43.06 -17.4866,59.14813 -4.212,58.57 14.04101,0.11358 25.24754,-6.58143 31.92596,-12.10998"
       id="path12351-7-1-32-1"
       inkscape:connector-curvature="0"
       sodipodi:nodetypes="cccccc" />
    <path
       id="path851"
       d="m 709.95601,365.55569 c 6.0268,-3.85046 90.29011,-80.88825 90.29011,-80.88825"
       style="display:inline;fill:none;stroke:#000000;stroke-width:5.62495899px;stroke-linecap:round;stroke-linejoin:round;stroke-miterlimit:4;stroke-dasharray:none;stroke-opacity:1"
       inkscape:connector-curvature="0"
       sodipodi:nodetypes="cc" />
    <path
       style="display:inline;fill:none;fill-rule:evenodd;stroke:#000000;stroke-width:5.625;stroke-linecap:round;stroke-linejoin:round;stroke-miterlimit:4;stroke-dasharray:none;stroke-opacity:1"
       d="m 800.24612,284.66744 -56.71099,94.85902"
       id="path844-99-4-6"
       inkscape:connector-curvature="0"
       sodipodi:nodetypes="cc" />
  </g>
</svg>
